<?xml version="1.0" encoding="UTF-8" standalone="no"?>
<!DOCTYPE svg PUBLIC "-//W3C//DTD SVG 1.1//EN"
 "http://www.w3.org/Graphics/SVG/1.1/DTD/svg11.dtd">
<!-- Generated by graphviz version 2.46.0 (0)
 -->
<!-- Title: /jenkins/jenlib_workspaces_f9/bld_nightly&#45;haldls.YmxkX25pZ2h0bHktaGFsZGxzIzEzNzk.x/haldls/include/haldls/vx/barrier.h Pages: 1 -->
<svg width="1244pt" height="191pt"
 viewBox="0.00 0.00 1244.12 191.00" xmlns="http://www.w3.org/2000/svg" xmlns:xlink="http://www.w3.org/1999/xlink">
<g id="graph0" class="graph" transform="scale(1 1) rotate(0) translate(4 187)">
<title>/jenkins/jenlib_workspaces_f9/bld_nightly&#45;haldls.YmxkX25pZ2h0bHktaGFsZGxzIzEzNzk.x/haldls/include/haldls/vx/barrier.h</title>
<polygon fill="white" stroke="transparent" points="-4,4 -4,-187 1240.12,-187 1240.12,4 -4,4"/>
<!-- Node1 -->
<g id="node1" class="node">
<title>Node1</title>
<g id="a_node1"><a xlink:title=" ">
<polygon fill="#bfbfbf" stroke="black" points="192.66,-126.5 192.66,-182.5 373.68,-182.5 373.68,-126.5 192.66,-126.5"/>
<text text-anchor="start" x="200.66" y="-169.5" font-family="Helvetica,sans-Serif" font-size="10.00">/jenkins/jenlib_workspaces</text>
<text text-anchor="start" x="200.66" y="-157.5" font-family="Helvetica,sans-Serif" font-size="10.00">_f9/bld_nightly&#45;haldls.YmxkX25p</text>
<text text-anchor="start" x="200.66" y="-145.5" font-family="Helvetica,sans-Serif" font-size="10.00">Z2h0bHktaGFsZGxzIzEzNzk.x/haldls</text>
<text text-anchor="middle" x="283.17" y="-133.5" font-family="Helvetica,sans-Serif" font-size="10.00">/include/haldls/vx/barrier.h</text>
</a>
</g>
</g>
<!-- Node2 -->
<g id="node2" class="node">
<title>Node2</title>
<g id="a_node2"><a xlink:title=" ">
<polygon fill="white" stroke="#bfbfbf" points="0,-6.5 0,-26.5 44.34,-26.5 44.34,-6.5 0,-6.5"/>
<text text-anchor="middle" x="22.17" y="-13.5" font-family="Helvetica,sans-Serif" font-size="10.00">iosfwd</text>
</a>
</g>
</g>
<!-- Node1&#45;&gt;Node2 -->
<g id="edge1" class="edge">
<title>Node1&#45;&gt;Node2</title>
<path fill="none" stroke="midnightblue" d="M204.65,-126.41C178.44,-116.25 149.48,-103.8 124.17,-90 93.42,-73.25 60.97,-48.86 41.14,-33.08"/>
<polygon fill="midnightblue" stroke="midnightblue" points="43.19,-30.24 33.21,-26.7 38.8,-35.7 43.19,-30.24"/>
</g>
<!-- Node3 -->
<g id="node3" class="node">
<title>Node3</title>
<g id="a_node3"><a xlink:href="cerealization_8h.html" target="_top" xlink:title=" ">
<polygon fill="white" stroke="black" points="133.49,-69.5 133.49,-89.5 242.84,-89.5 242.84,-69.5 133.49,-69.5"/>
<text text-anchor="middle" x="188.17" y="-76.5" font-family="Helvetica,sans-Serif" font-size="10.00">haldls/cerealization.h</text>
</a>
</g>
</g>
<!-- Node1&#45;&gt;Node3 -->
<g id="edge2" class="edge">
<title>Node1&#45;&gt;Node3</title>
<path fill="none" stroke="midnightblue" d="M247.79,-126.32C234.34,-115.98 219.5,-104.58 207.99,-95.73"/>
<polygon fill="midnightblue" stroke="midnightblue" points="209.97,-92.84 199.91,-89.52 205.71,-98.39 209.97,-92.84"/>
</g>
<!-- Node5 -->
<g id="node5" class="node">
<title>Node5</title>
<g id="a_node5"><a xlink:title=" ">
<polygon fill="white" stroke="#bfbfbf" points="242.66,-6.5 242.66,-26.5 323.67,-26.5 323.67,-6.5 242.66,-6.5"/>
<text text-anchor="middle" x="283.17" y="-13.5" font-family="Helvetica,sans-Serif" font-size="10.00">hate/visibility.h</text>
</a>
</g>
</g>
<!-- Node1&#45;&gt;Node5 -->
<g id="edge20" class="edge">
<title>Node1&#45;&gt;Node5</title>
<path fill="none" stroke="midnightblue" d="M283.17,-126.31C283.17,-99.79 283.17,-60.15 283.17,-36.75"/>
<polygon fill="midnightblue" stroke="midnightblue" points="286.67,-36.69 283.17,-26.69 279.67,-36.69 286.67,-36.69"/>
</g>
<!-- Node8 -->
<g id="node8" class="node">
<title>Node8</title>
<g id="a_node8"><a xlink:href="genpybind_8h.html" target="_top" xlink:title=" ">
<polygon fill="white" stroke="black" points="443.1,-6.5 443.1,-26.5 555.24,-26.5 555.24,-6.5 443.1,-6.5"/>
<text text-anchor="middle" x="499.17" y="-13.5" font-family="Helvetica,sans-Serif" font-size="10.00">haldls/vx/genpybind.h</text>
</a>
</g>
</g>
<!-- Node1&#45;&gt;Node8 -->
<g id="edge8" class="edge">
<title>Node1&#45;&gt;Node8</title>
<path fill="none" stroke="midnightblue" d="M326.1,-126.47C371.05,-98.17 439.97,-54.77 475.77,-32.23"/>
<polygon fill="midnightblue" stroke="midnightblue" points="477.93,-35.01 484.53,-26.72 474.2,-29.08 477.93,-35.01"/>
</g>
<!-- Node9 -->
<g id="node9" class="node">
<title>Node9</title>
<g id="a_node9"><a xlink:href="traits_8h.html" target="_top" xlink:title=" ">
<polygon fill="white" stroke="black" points="645.33,-69.5 645.33,-89.5 733.01,-89.5 733.01,-69.5 645.33,-69.5"/>
<text text-anchor="middle" x="689.17" y="-76.5" font-family="Helvetica,sans-Serif" font-size="10.00">haldls/vx/traits.h</text>
</a>
</g>
</g>
<!-- Node1&#45;&gt;Node9 -->
<g id="edge10" class="edge">
<title>Node1&#45;&gt;Node9</title>
<path fill="none" stroke="midnightblue" d="M373.78,-137.21C454.02,-122.78 568.49,-102.2 635.18,-90.21"/>
<polygon fill="midnightblue" stroke="midnightblue" points="635.84,-93.64 645.07,-88.43 634.6,-86.75 635.84,-93.64"/>
</g>
<!-- Node3&#45;&gt;Node2 -->
<g id="edge6" class="edge">
<title>Node3&#45;&gt;Node2</title>
<path fill="none" stroke="midnightblue" d="M157.97,-69.42C130.55,-60.91 89.17,-47.36 54.17,-33 52.56,-32.34 50.91,-31.64 49.26,-30.91"/>
<polygon fill="midnightblue" stroke="midnightblue" points="50.48,-27.61 39.93,-26.59 47.53,-33.96 50.48,-27.61"/>
</g>
<!-- Node4 -->
<g id="node4" class="node">
<title>Node4</title>
<g id="a_node4"><a xlink:title=" ">
<polygon fill="white" stroke="#bfbfbf" points="341.54,-6.5 341.54,-26.5 424.79,-26.5 424.79,-6.5 341.54,-6.5"/>
<text text-anchor="middle" x="383.17" y="-13.5" font-family="Helvetica,sans-Serif" font-size="10.00">hate/type_list.h</text>
</a>
</g>
</g>
<!-- Node3&#45;&gt;Node4 -->
<g id="edge3" class="edge">
<title>Node3&#45;&gt;Node4</title>
<path fill="none" stroke="midnightblue" d="M216.94,-69.5C250.78,-58.91 307.11,-41.29 344.68,-29.54"/>
<polygon fill="midnightblue" stroke="midnightblue" points="345.78,-32.86 354.28,-26.54 343.69,-26.18 345.78,-32.86"/>
</g>
<!-- Node3&#45;&gt;Node5 -->
<g id="edge4" class="edge">
<title>Node3&#45;&gt;Node5</title>
<path fill="none" stroke="midnightblue" d="M202.19,-69.5C217.48,-59.68 242.2,-43.81 260.31,-32.18"/>
<polygon fill="midnightblue" stroke="midnightblue" points="262.57,-34.89 269.09,-26.54 258.79,-29 262.57,-34.89"/>
</g>
<!-- Node6 -->
<g id="node6" class="node">
<title>Node6</title>
<g id="a_node6"><a xlink:title=" ">
<polygon fill="white" stroke="#bfbfbf" points="62.72,-6.5 62.72,-26.5 107.62,-26.5 107.62,-6.5 62.72,-6.5"/>
<text text-anchor="middle" x="85.17" y="-13.5" font-family="Helvetica,sans-Serif" font-size="10.00">cstdint</text>
</a>
</g>
</g>
<!-- Node3&#45;&gt;Node6 -->
<g id="edge5" class="edge">
<title>Node3&#45;&gt;Node6</title>
<path fill="none" stroke="midnightblue" d="M172.97,-69.5C156.16,-59.54 128.85,-43.37 109.14,-31.7"/>
<polygon fill="midnightblue" stroke="midnightblue" points="110.82,-28.62 100.43,-26.54 107.25,-34.64 110.82,-28.62"/>
</g>
<!-- Node7 -->
<g id="node7" class="node">
<title>Node7</title>
<g id="a_node7"><a xlink:title=" ">
<polygon fill="white" stroke="#bfbfbf" points="126.05,-6.5 126.05,-26.5 224.29,-26.5 224.29,-6.5 126.05,-6.5"/>
<text text-anchor="middle" x="175.17" y="-13.5" font-family="Helvetica,sans-Serif" font-size="10.00">cereal/macros.hpp</text>
</a>
</g>
</g>
<!-- Node3&#45;&gt;Node7 -->
<g id="edge7" class="edge">
<title>Node3&#45;&gt;Node7</title>
<path fill="none" stroke="midnightblue" d="M186.25,-69.5C184.41,-60.85 181.56,-47.51 179.22,-36.5"/>
<polygon fill="midnightblue" stroke="midnightblue" points="182.6,-35.59 177.09,-26.54 175.75,-37.05 182.6,-35.59"/>
</g>
<!-- Node8&#45;&gt;Node8 -->
<g id="edge9" class="edge">
<title>Node8&#45;&gt;Node8</title>
<path fill="none" stroke="midnightblue" d="M527.67,-26.56C550.16,-30.45 573.24,-27.1 573.24,-16.5 573.24,-7.48 556.51,-3.71 537.65,-5.19"/>
<polygon fill="midnightblue" stroke="midnightblue" points="537.16,-1.72 527.67,-6.44 538.03,-8.67 537.16,-1.72"/>
</g>
<!-- Node9&#45;&gt;Node4 -->
<g id="edge14" class="edge">
<title>Node9&#45;&gt;Node4</title>
<path fill="none" stroke="midnightblue" d="M645.07,-72.26C593.97,-64.65 507.41,-50.6 434.17,-33 429.75,-31.94 425.14,-30.71 420.59,-29.42"/>
<polygon fill="midnightblue" stroke="midnightblue" points="421.38,-26.01 410.8,-26.55 419.4,-32.72 421.38,-26.01"/>
</g>
<!-- Node9&#45;&gt;Node5 -->
<g id="edge15" class="edge">
<title>Node9&#45;&gt;Node5</title>
<path fill="none" stroke="midnightblue" d="M645.32,-75.46C577.55,-70.19 443.53,-57.5 332.17,-33 327.68,-32.01 323.02,-30.8 318.44,-29.48"/>
<polygon fill="midnightblue" stroke="midnightblue" points="319.2,-26.06 308.62,-26.5 317.17,-32.76 319.2,-26.06"/>
</g>
<!-- Node9&#45;&gt;Node8 -->
<g id="edge13" class="edge">
<title>Node9&#45;&gt;Node8</title>
<path fill="none" stroke="midnightblue" d="M661.13,-69.5C628.3,-58.96 573.75,-41.44 537.13,-29.69"/>
<polygon fill="midnightblue" stroke="midnightblue" points="537.91,-26.26 527.32,-26.54 535.77,-32.93 537.91,-26.26"/>
</g>
<!-- Node10 -->
<g id="node10" class="node">
<title>Node10</title>
<g id="a_node10"><a xlink:title=" ">
<polygon fill="white" stroke="#bfbfbf" points="591.11,-6.5 591.11,-26.5 673.23,-26.5 673.23,-6.5 591.11,-6.5"/>
<text text-anchor="middle" x="632.17" y="-13.5" font-family="Helvetica,sans-Serif" font-size="10.00">fisch/vx/traits.h</text>
</a>
</g>
</g>
<!-- Node9&#45;&gt;Node10 -->
<g id="edge11" class="edge">
<title>Node9&#45;&gt;Node10</title>
<path fill="none" stroke="midnightblue" d="M680.76,-69.5C672.09,-60.22 658.36,-45.53 647.71,-34.13"/>
<polygon fill="midnightblue" stroke="midnightblue" points="650,-31.45 640.61,-26.54 644.88,-36.23 650,-31.45"/>
</g>
<!-- Node11 -->
<g id="node11" class="node">
<title>Node11</title>
<g id="a_node11"><a xlink:title=" ">
<polygon fill="white" stroke="#bfbfbf" points="690.94,-0.5 690.94,-32.5 801.4,-32.5 801.4,-0.5 690.94,-0.5"/>
<text text-anchor="start" x="698.94" y="-19.5" font-family="Helvetica,sans-Serif" font-size="10.00">fisch/vx/word_access</text>
<text text-anchor="middle" x="746.17" y="-7.5" font-family="Helvetica,sans-Serif" font-size="10.00">_type.h</text>
</a>
</g>
</g>
<!-- Node9&#45;&gt;Node11 -->
<g id="edge12" class="edge">
<title>Node9&#45;&gt;Node11</title>
<path fill="none" stroke="midnightblue" d="M697.58,-69.5C704.78,-61.79 715.48,-50.35 725,-40.16"/>
<polygon fill="midnightblue" stroke="midnightblue" points="727.7,-42.39 731.97,-32.69 722.59,-37.61 727.7,-42.39"/>
</g>
<!-- Node12 -->
<g id="node12" class="node">
<title>Node12</title>
<g id="a_node12"><a xlink:title=" ">
<polygon fill="white" stroke="#bfbfbf" points="819.11,-6.5 819.11,-26.5 881.23,-26.5 881.23,-6.5 819.11,-6.5"/>
<text text-anchor="middle" x="850.17" y="-13.5" font-family="Helvetica,sans-Serif" font-size="10.00">type_traits</text>
</a>
</g>
</g>
<!-- Node9&#45;&gt;Node12 -->
<g id="edge16" class="edge">
<title>Node9&#45;&gt;Node12</title>
<path fill="none" stroke="midnightblue" d="M713.76,-69.33C738.23,-60.2 776.83,-45.73 810.17,-33 812.54,-32.09 814.99,-31.15 817.46,-30.2"/>
<polygon fill="midnightblue" stroke="midnightblue" points="818.85,-33.42 826.92,-26.56 816.33,-26.89 818.85,-33.42"/>
</g>
<!-- Node13 -->
<g id="node13" class="node">
<title>Node13</title>
<g id="a_node13"><a xlink:title=" ">
<polygon fill="white" stroke="#bfbfbf" points="898.77,-0.5 898.77,-32.5 997.57,-32.5 997.57,-0.5 898.77,-0.5"/>
<text text-anchor="start" x="906.77" y="-19.5" font-family="Helvetica,sans-Serif" font-size="10.00">boost/utility/enable</text>
<text text-anchor="middle" x="948.17" y="-7.5" font-family="Helvetica,sans-Serif" font-size="10.00">_if.hpp</text>
</a>
</g>
</g>
<!-- Node9&#45;&gt;Node13 -->
<g id="edge17" class="edge">
<title>Node9&#45;&gt;Node13</title>
<path fill="none" stroke="midnightblue" d="M731.24,-69.47C769.84,-61.08 828.83,-47.97 888.55,-33.36"/>
<polygon fill="midnightblue" stroke="midnightblue" points="889.65,-36.69 898.53,-30.9 887.98,-29.89 889.65,-36.69"/>
</g>
<!-- Node14 -->
<g id="node14" class="node">
<title>Node14</title>
<g id="a_node14"><a xlink:title=" ">
<polygon fill="white" stroke="#bfbfbf" points="1015.82,-6.5 1015.82,-26.5 1108.52,-26.5 1108.52,-6.5 1015.82,-6.5"/>
<text text-anchor="middle" x="1062.17" y="-13.5" font-family="Helvetica,sans-Serif" font-size="10.00">boost/variant.hpp</text>
</a>
</g>
</g>
<!-- Node9&#45;&gt;Node14 -->
<g id="edge18" class="edge">
<title>Node9&#45;&gt;Node14</title>
<path fill="none" stroke="midnightblue" d="M733.06,-73.99C794.53,-67.27 909.57,-53.21 1006.17,-33 1011.34,-31.92 1016.74,-30.63 1022.07,-29.26"/>
<polygon fill="midnightblue" stroke="midnightblue" points="1023.36,-32.54 1032.11,-26.58 1021.55,-25.78 1023.36,-32.54"/>
</g>
<!-- Node15 -->
<g id="node15" class="node">
<title>Node15</title>
<g id="a_node15"><a xlink:title=" ">
<polygon fill="white" stroke="#bfbfbf" points="1126.21,-6.5 1126.21,-26.5 1236.12,-26.5 1236.12,-6.5 1126.21,-6.5"/>
<text text-anchor="middle" x="1181.17" y="-13.5" font-family="Helvetica,sans-Serif" font-size="10.00">fisch/vx/container.def</text>
</a>
</g>
</g>
<!-- Node9&#45;&gt;Node15 -->
<g id="edge19" class="edge">
<title>Node9&#45;&gt;Node15</title>
<path fill="none" stroke="midnightblue" d="M733.18,-75.74C811.05,-70.44 978.02,-57.14 1117.17,-33 1123.83,-31.84 1130.82,-30.4 1137.65,-28.85"/>
<polygon fill="midnightblue" stroke="midnightblue" points="1138.53,-32.24 1147.46,-26.54 1136.93,-25.43 1138.53,-32.24"/>
</g>
</g>
</svg>
