<?xml version="1.0" encoding="UTF-8" standalone="no"?>
<!DOCTYPE svg PUBLIC "-//W3C//DTD SVG 1.1//EN"
 "http://www.w3.org/Graphics/SVG/1.1/DTD/svg11.dtd">
<!-- Generated by graphviz version 2.46.0 (0)
 -->
<!-- Title: /jenkins/jenlib_workspaces_f9/bld_nightly&#45;haldls.YmxkX25pZ2h0bHktaGFsZGxzIzEzNzk.x/haldls/include/haldls/vx/cadc.h Pages: 1 -->
<svg width="388pt" height="437pt"
 viewBox="0.00 0.00 388.02 437.00" xmlns="http://www.w3.org/2000/svg" xmlns:xlink="http://www.w3.org/1999/xlink">
<g id="graph0" class="graph" transform="scale(1 1) rotate(0) translate(4 433)">
<title>/jenkins/jenlib_workspaces_f9/bld_nightly&#45;haldls.YmxkX25pZ2h0bHktaGFsZGxzIzEzNzk.x/haldls/include/haldls/vx/cadc.h</title>
<polygon fill="white" stroke="transparent" points="-4,4 -4,-433 384.02,-433 384.02,4 -4,4"/>
<!-- Node1 -->
<g id="node1" class="node">
<title>Node1</title>
<g id="a_node1"><a xlink:title=" ">
<polygon fill="#bfbfbf" stroke="black" points="99,-372.5 99,-428.5 280.02,-428.5 280.02,-372.5 99,-372.5"/>
<text text-anchor="start" x="107" y="-415.5" font-family="Helvetica,sans-Serif" font-size="10.00">/jenkins/jenlib_workspaces</text>
<text text-anchor="start" x="107" y="-403.5" font-family="Helvetica,sans-Serif" font-size="10.00">_f9/bld_nightly&#45;haldls.YmxkX25p</text>
<text text-anchor="start" x="107" y="-391.5" font-family="Helvetica,sans-Serif" font-size="10.00">Z2h0bHktaGFsZGxzIzEzNzk.x/haldls</text>
<text text-anchor="middle" x="189.51" y="-379.5" font-family="Helvetica,sans-Serif" font-size="10.00">/include/haldls/vx/cadc.h</text>
</a>
</g>
</g>
<!-- Node2 -->
<g id="node2" class="node">
<title>Node2</title>
<g id="a_node2"><a xlink:href="v2_2cadc_8h.html" target="_top" xlink:title=" ">
<polygon fill="white" stroke="black" points="0,-279.5 0,-335.5 181.02,-335.5 181.02,-279.5 0,-279.5"/>
<text text-anchor="start" x="8" y="-322.5" font-family="Helvetica,sans-Serif" font-size="10.00">/jenkins/jenlib_workspaces</text>
<text text-anchor="start" x="8" y="-310.5" font-family="Helvetica,sans-Serif" font-size="10.00">_f9/bld_nightly&#45;haldls.YmxkX25p</text>
<text text-anchor="start" x="8" y="-298.5" font-family="Helvetica,sans-Serif" font-size="10.00">Z2h0bHktaGFsZGxzIzEzNzk.x/haldls</text>
<text text-anchor="middle" x="90.51" y="-286.5" font-family="Helvetica,sans-Serif" font-size="10.00">/include/haldls/vx/v2/cadc.h</text>
</a>
</g>
</g>
<!-- Node1&#45;&gt;Node2 -->
<g id="edge1" class="edge">
<title>Node1&#45;&gt;Node2</title>
<path fill="none" stroke="midnightblue" d="M152.45,-365.44C141.74,-355.59 130.19,-344.97 120,-335.61"/>
<polygon fill="midnightblue" stroke="midnightblue" points="150.34,-368.25 160.07,-372.44 155.08,-363.1 150.34,-368.25"/>
</g>
<!-- Node6 -->
<g id="node6" class="node">
<title>Node6</title>
<g id="a_node6"><a xlink:href="v3_2cadc_8h.html" target="_top" xlink:title=" ">
<polygon fill="white" stroke="black" points="199,-279.5 199,-335.5 380.02,-335.5 380.02,-279.5 199,-279.5"/>
<text text-anchor="start" x="207" y="-322.5" font-family="Helvetica,sans-Serif" font-size="10.00">/jenkins/jenlib_workspaces</text>
<text text-anchor="start" x="207" y="-310.5" font-family="Helvetica,sans-Serif" font-size="10.00">_f9/bld_nightly&#45;haldls.YmxkX25p</text>
<text text-anchor="start" x="207" y="-298.5" font-family="Helvetica,sans-Serif" font-size="10.00">Z2h0bHktaGFsZGxzIzEzNzk.x/haldls</text>
<text text-anchor="middle" x="289.51" y="-286.5" font-family="Helvetica,sans-Serif" font-size="10.00">/include/haldls/vx/v3/cadc.h</text>
</a>
</g>
</g>
<!-- Node1&#45;&gt;Node6 -->
<g id="edge5" class="edge">
<title>Node1&#45;&gt;Node6</title>
<path fill="none" stroke="midnightblue" d="M226.94,-365.44C237.77,-355.59 249.43,-344.97 259.72,-335.61"/>
<polygon fill="midnightblue" stroke="midnightblue" points="224.28,-363.12 219.24,-372.44 228.99,-368.3 224.28,-363.12"/>
</g>
<!-- Node3 -->
<g id="node3" class="node">
<title>Node3</title>
<g id="a_node3"><a xlink:href="v2_2container_8h.html" target="_top" xlink:title=" ">
<polygon fill="white" stroke="black" points="0,-186.5 0,-242.5 181.02,-242.5 181.02,-186.5 0,-186.5"/>
<text text-anchor="start" x="8" y="-229.5" font-family="Helvetica,sans-Serif" font-size="10.00">/jenkins/jenlib_workspaces</text>
<text text-anchor="start" x="8" y="-217.5" font-family="Helvetica,sans-Serif" font-size="10.00">_f9/bld_nightly&#45;haldls.YmxkX25p</text>
<text text-anchor="start" x="8" y="-205.5" font-family="Helvetica,sans-Serif" font-size="10.00">Z2h0bHktaGFsZGxzIzEzNzk.x/haldls</text>
<text text-anchor="middle" x="90.51" y="-193.5" font-family="Helvetica,sans-Serif" font-size="10.00">/include/haldls/vx/v2/container.h</text>
</a>
</g>
</g>
<!-- Node2&#45;&gt;Node3 -->
<g id="edge2" class="edge">
<title>Node2&#45;&gt;Node3</title>
<path fill="none" stroke="midnightblue" d="M90.51,-269.12C90.51,-260.3 90.51,-251.06 90.51,-242.78"/>
<polygon fill="midnightblue" stroke="midnightblue" points="87.01,-269.2 90.51,-279.2 94.01,-269.2 87.01,-269.2"/>
</g>
<!-- Node4 -->
<g id="node4" class="node">
<title>Node4</title>
<g id="a_node4"><a xlink:href="v2_2haldls_8h.html" target="_top" xlink:title=" ">
<polygon fill="white" stroke="black" points="0,-93.5 0,-149.5 181.02,-149.5 181.02,-93.5 0,-93.5"/>
<text text-anchor="start" x="8" y="-136.5" font-family="Helvetica,sans-Serif" font-size="10.00">/jenkins/jenlib_workspaces</text>
<text text-anchor="start" x="8" y="-124.5" font-family="Helvetica,sans-Serif" font-size="10.00">_f9/bld_nightly&#45;haldls.YmxkX25p</text>
<text text-anchor="start" x="8" y="-112.5" font-family="Helvetica,sans-Serif" font-size="10.00">Z2h0bHktaGFsZGxzIzEzNzk.x/haldls</text>
<text text-anchor="middle" x="90.51" y="-100.5" font-family="Helvetica,sans-Serif" font-size="10.00">/include/haldls/vx/v2/haldls.h</text>
</a>
</g>
</g>
<!-- Node3&#45;&gt;Node4 -->
<g id="edge3" class="edge">
<title>Node3&#45;&gt;Node4</title>
<path fill="none" stroke="midnightblue" d="M90.51,-176.12C90.51,-167.3 90.51,-158.06 90.51,-149.78"/>
<polygon fill="midnightblue" stroke="midnightblue" points="87.01,-176.2 90.51,-186.2 94.01,-176.2 87.01,-176.2"/>
</g>
<!-- Node5 -->
<g id="node5" class="node">
<title>Node5</title>
<g id="a_node5"><a xlink:href="v2_2pyhaldls_8h.html" target="_top" xlink:title=" ">
<polygon fill="white" stroke="black" points="0,-0.5 0,-56.5 181.02,-56.5 181.02,-0.5 0,-0.5"/>
<text text-anchor="start" x="8" y="-43.5" font-family="Helvetica,sans-Serif" font-size="10.00">/jenkins/jenlib_workspaces</text>
<text text-anchor="start" x="8" y="-31.5" font-family="Helvetica,sans-Serif" font-size="10.00">_f9/bld_nightly&#45;haldls.YmxkX25p</text>
<text text-anchor="start" x="8" y="-19.5" font-family="Helvetica,sans-Serif" font-size="10.00">Z2h0bHktaGFsZGxzIzEzNzk.x/haldls</text>
<text text-anchor="middle" x="90.51" y="-7.5" font-family="Helvetica,sans-Serif" font-size="10.00">/include/haldls/vx/v2/pyhaldls.h</text>
</a>
</g>
</g>
<!-- Node4&#45;&gt;Node5 -->
<g id="edge4" class="edge">
<title>Node4&#45;&gt;Node5</title>
<path fill="none" stroke="midnightblue" d="M90.51,-83.12C90.51,-74.3 90.51,-65.06 90.51,-56.78"/>
<polygon fill="midnightblue" stroke="midnightblue" points="87.01,-83.2 90.51,-93.2 94.01,-83.2 87.01,-83.2"/>
</g>
<!-- Node7 -->
<g id="node7" class="node">
<title>Node7</title>
<g id="a_node7"><a xlink:href="v3_2container_8h.html" target="_top" xlink:title=" ">
<polygon fill="white" stroke="black" points="199,-186.5 199,-242.5 380.02,-242.5 380.02,-186.5 199,-186.5"/>
<text text-anchor="start" x="207" y="-229.5" font-family="Helvetica,sans-Serif" font-size="10.00">/jenkins/jenlib_workspaces</text>
<text text-anchor="start" x="207" y="-217.5" font-family="Helvetica,sans-Serif" font-size="10.00">_f9/bld_nightly&#45;haldls.YmxkX25p</text>
<text text-anchor="start" x="207" y="-205.5" font-family="Helvetica,sans-Serif" font-size="10.00">Z2h0bHktaGFsZGxzIzEzNzk.x/haldls</text>
<text text-anchor="middle" x="289.51" y="-193.5" font-family="Helvetica,sans-Serif" font-size="10.00">/include/haldls/vx/v3/container.h</text>
</a>
</g>
</g>
<!-- Node6&#45;&gt;Node7 -->
<g id="edge6" class="edge">
<title>Node6&#45;&gt;Node7</title>
<path fill="none" stroke="midnightblue" d="M289.51,-269.12C289.51,-260.3 289.51,-251.06 289.51,-242.78"/>
<polygon fill="midnightblue" stroke="midnightblue" points="286.01,-269.2 289.51,-279.2 293.01,-269.2 286.01,-269.2"/>
</g>
<!-- Node8 -->
<g id="node8" class="node">
<title>Node8</title>
<g id="a_node8"><a xlink:href="v3_2haldls_8h.html" target="_top" xlink:title=" ">
<polygon fill="white" stroke="black" points="199,-93.5 199,-149.5 380.02,-149.5 380.02,-93.5 199,-93.5"/>
<text text-anchor="start" x="207" y="-136.5" font-family="Helvetica,sans-Serif" font-size="10.00">/jenkins/jenlib_workspaces</text>
<text text-anchor="start" x="207" y="-124.5" font-family="Helvetica,sans-Serif" font-size="10.00">_f9/bld_nightly&#45;haldls.YmxkX25p</text>
<text text-anchor="start" x="207" y="-112.5" font-family="Helvetica,sans-Serif" font-size="10.00">Z2h0bHktaGFsZGxzIzEzNzk.x/haldls</text>
<text text-anchor="middle" x="289.51" y="-100.5" font-family="Helvetica,sans-Serif" font-size="10.00">/include/haldls/vx/v3/haldls.h</text>
</a>
</g>
</g>
<!-- Node7&#45;&gt;Node8 -->
<g id="edge7" class="edge">
<title>Node7&#45;&gt;Node8</title>
<path fill="none" stroke="midnightblue" d="M289.51,-176.12C289.51,-167.3 289.51,-158.06 289.51,-149.78"/>
<polygon fill="midnightblue" stroke="midnightblue" points="286.01,-176.2 289.51,-186.2 293.01,-176.2 286.01,-176.2"/>
</g>
<!-- Node9 -->
<g id="node9" class="node">
<title>Node9</title>
<g id="a_node9"><a xlink:href="v3_2pyhaldls_8h.html" target="_top" xlink:title=" ">
<polygon fill="white" stroke="black" points="199,-0.5 199,-56.5 380.02,-56.5 380.02,-0.5 199,-0.5"/>
<text text-anchor="start" x="207" y="-43.5" font-family="Helvetica,sans-Serif" font-size="10.00">/jenkins/jenlib_workspaces</text>
<text text-anchor="start" x="207" y="-31.5" font-family="Helvetica,sans-Serif" font-size="10.00">_f9/bld_nightly&#45;haldls.YmxkX25p</text>
<text text-anchor="start" x="207" y="-19.5" font-family="Helvetica,sans-Serif" font-size="10.00">Z2h0bHktaGFsZGxzIzEzNzk.x/haldls</text>
<text text-anchor="middle" x="289.51" y="-7.5" font-family="Helvetica,sans-Serif" font-size="10.00">/include/haldls/vx/v3/pyhaldls.h</text>
</a>
</g>
</g>
<!-- Node8&#45;&gt;Node9 -->
<g id="edge8" class="edge">
<title>Node8&#45;&gt;Node9</title>
<path fill="none" stroke="midnightblue" d="M289.51,-83.12C289.51,-74.3 289.51,-65.06 289.51,-56.78"/>
<polygon fill="midnightblue" stroke="midnightblue" points="286.01,-83.2 289.51,-93.2 293.01,-83.2 286.01,-83.2"/>
</g>
</g>
</svg>
