<?xml version="1.0" encoding="UTF-8" standalone="no"?>
<!DOCTYPE svg PUBLIC "-//W3C//DTD SVG 1.1//EN"
 "http://www.w3.org/Graphics/SVG/1.1/DTD/svg11.dtd">
<!-- Generated by graphviz version 2.46.0 (0)
 -->
<!-- Title: /jenkins/jenlib_workspaces_f9/bld_nightly&#45;haldls.YmxkX25pZ2h0bHktaGFsZGxzIzEzNzk.x/haldls/include/haldls/cerealization.h Pages: 1 -->
<svg width="432pt" height="122pt"
 viewBox="0.00 0.00 431.74 122.00" xmlns="http://www.w3.org/2000/svg" xmlns:xlink="http://www.w3.org/1999/xlink">
<g id="graph0" class="graph" transform="scale(1 1) rotate(0) translate(4 118)">
<title>/jenkins/jenlib_workspaces_f9/bld_nightly&#45;haldls.YmxkX25pZ2h0bHktaGFsZGxzIzEzNzk.x/haldls/include/haldls/cerealization.h</title>
<polygon fill="white" stroke="transparent" points="-4,4 -4,-118 427.74,-118 427.74,4 -4,4"/>
<!-- Node1 -->
<g id="node1" class="node">
<title>Node1</title>
<g id="a_node1"><a xlink:title=" ">
<polygon fill="#bfbfbf" stroke="black" points="132.11,-57.5 132.11,-113.5 313.13,-113.5 313.13,-57.5 132.11,-57.5"/>
<text text-anchor="start" x="140.11" y="-100.5" font-family="Helvetica,sans-Serif" font-size="10.00">/jenkins/jenlib_workspaces</text>
<text text-anchor="start" x="140.11" y="-88.5" font-family="Helvetica,sans-Serif" font-size="10.00">_f9/bld_nightly&#45;haldls.YmxkX25p</text>
<text text-anchor="start" x="140.11" y="-76.5" font-family="Helvetica,sans-Serif" font-size="10.00">Z2h0bHktaGFsZGxzIzEzNzk.x/haldls</text>
<text text-anchor="middle" x="222.62" y="-64.5" font-family="Helvetica,sans-Serif" font-size="10.00">/include/haldls/cerealization.h</text>
</a>
</g>
</g>
<!-- Node2 -->
<g id="node2" class="node">
<title>Node2</title>
<g id="a_node2"><a xlink:title=" ">
<polygon fill="white" stroke="#bfbfbf" points="0,-0.5 0,-20.5 83.25,-20.5 83.25,-0.5 0,-0.5"/>
<text text-anchor="middle" x="41.62" y="-7.5" font-family="Helvetica,sans-Serif" font-size="10.00">hate/type_list.h</text>
</a>
</g>
</g>
<!-- Node1&#45;&gt;Node2 -->
<g id="edge1" class="edge">
<title>Node1&#45;&gt;Node2</title>
<path fill="none" stroke="midnightblue" d="M155.48,-57.42C127.44,-46.11 96.18,-33.5 73.52,-24.37"/>
<polygon fill="midnightblue" stroke="midnightblue" points="74.65,-21.05 64.07,-20.55 72.03,-27.54 74.65,-21.05"/>
</g>
<!-- Node3 -->
<g id="node3" class="node">
<title>Node3</title>
<g id="a_node3"><a xlink:title=" ">
<polygon fill="white" stroke="#bfbfbf" points="101.12,-0.5 101.12,-20.5 182.13,-20.5 182.13,-0.5 101.12,-0.5"/>
<text text-anchor="middle" x="141.62" y="-7.5" font-family="Helvetica,sans-Serif" font-size="10.00">hate/visibility.h</text>
</a>
</g>
</g>
<!-- Node1&#45;&gt;Node3 -->
<g id="edge2" class="edge">
<title>Node1&#45;&gt;Node3</title>
<path fill="none" stroke="midnightblue" d="M192.46,-57.32C181.22,-47.18 168.83,-36.02 159.1,-27.25"/>
<polygon fill="midnightblue" stroke="midnightblue" points="161.41,-24.62 151.64,-20.52 156.72,-29.82 161.41,-24.62"/>
</g>
<!-- Node4 -->
<g id="node4" class="node">
<title>Node4</title>
<g id="a_node4"><a xlink:title=" ">
<polygon fill="white" stroke="#bfbfbf" points="200.18,-0.5 200.18,-20.5 245.07,-20.5 245.07,-0.5 200.18,-0.5"/>
<text text-anchor="middle" x="222.62" y="-7.5" font-family="Helvetica,sans-Serif" font-size="10.00">cstdint</text>
</a>
</g>
</g>
<!-- Node1&#45;&gt;Node4 -->
<g id="edge3" class="edge">
<title>Node1&#45;&gt;Node4</title>
<path fill="none" stroke="midnightblue" d="M222.62,-57.32C222.62,-48.5 222.62,-38.91 222.62,-30.79"/>
<polygon fill="midnightblue" stroke="midnightblue" points="226.12,-30.52 222.62,-20.52 219.12,-30.52 226.12,-30.52"/>
</g>
<!-- Node5 -->
<g id="node5" class="node">
<title>Node5</title>
<g id="a_node5"><a xlink:title=" ">
<polygon fill="white" stroke="#bfbfbf" points="263.46,-0.5 263.46,-20.5 307.79,-20.5 307.79,-0.5 263.46,-0.5"/>
<text text-anchor="middle" x="285.62" y="-7.5" font-family="Helvetica,sans-Serif" font-size="10.00">iosfwd</text>
</a>
</g>
</g>
<!-- Node1&#45;&gt;Node5 -->
<g id="edge4" class="edge">
<title>Node1&#45;&gt;Node5</title>
<path fill="none" stroke="midnightblue" d="M246.08,-57.32C254.48,-47.59 263.69,-36.91 271.11,-28.32"/>
<polygon fill="midnightblue" stroke="midnightblue" points="273.95,-30.38 277.83,-20.52 268.65,-25.81 273.95,-30.38"/>
</g>
<!-- Node6 -->
<g id="node6" class="node">
<title>Node6</title>
<g id="a_node6"><a xlink:title=" ">
<polygon fill="white" stroke="#bfbfbf" points="325.5,-0.5 325.5,-20.5 423.74,-20.5 423.74,-0.5 325.5,-0.5"/>
<text text-anchor="middle" x="374.62" y="-7.5" font-family="Helvetica,sans-Serif" font-size="10.00">cereal/macros.hpp</text>
</a>
</g>
</g>
<!-- Node1&#45;&gt;Node6 -->
<g id="edge5" class="edge">
<title>Node1&#45;&gt;Node6</title>
<path fill="none" stroke="midnightblue" d="M279.22,-57.32C302.22,-46.27 327.76,-34 346.63,-24.95"/>
<polygon fill="midnightblue" stroke="midnightblue" points="348.33,-28.01 355.83,-20.52 345.3,-21.7 348.33,-28.01"/>
</g>
</g>
</svg>
