<?xml version="1.0" encoding="UTF-8" standalone="no"?>
<!DOCTYPE svg PUBLIC "-//W3C//DTD SVG 1.1//EN"
 "http://www.w3.org/Graphics/SVG/1.1/DTD/svg11.dtd">
<!-- Generated by graphviz version 2.46.0 (0)
 -->
<!-- Title: haldls::vx::CADCOffsetSRAMTimingConfig Pages: 1 -->
<svg width="185pt" height="110pt"
 viewBox="0.00 0.00 185.11 110.00" xmlns="http://www.w3.org/2000/svg" xmlns:xlink="http://www.w3.org/1999/xlink">
<g id="graph0" class="graph" transform="scale(1 1) rotate(0) translate(4 106)">
<title>haldls::vx::CADCOffsetSRAMTimingConfig</title>
<polygon fill="white" stroke="transparent" points="-4,4 -4,-106 181.11,-106 181.11,4 -4,4"/>
<!-- Node1 -->
<g id="node1" class="node">
<title>Node1</title>
<g id="a_node1"><a xlink:title=" ">
<polygon fill="#bfbfbf" stroke="black" points="0,-0.5 0,-32.5 177.11,-32.5 177.11,-0.5 0,-0.5"/>
<text text-anchor="start" x="8" y="-19.5" font-family="Helvetica,sans-Serif" font-size="10.00">haldls::vx::CADCOffsetSRAMTiming</text>
<text text-anchor="middle" x="88.56" y="-7.5" font-family="Helvetica,sans-Serif" font-size="10.00">Config</text>
</a>
</g>
</g>
<!-- Node2 -->
<g id="node2" class="node">
<title>Node2</title>
<g id="a_node2"><a xlink:href="classhaldls_1_1vx_1_1detail_1_1_s_r_a_m_timing_config.html" target="_top" xlink:title="Configuration of full&#45;custom SRAM timing.">
<polygon fill="white" stroke="black" points="33.89,-69.5 33.89,-101.5 143.22,-101.5 143.22,-69.5 33.89,-69.5"/>
<text text-anchor="start" x="41.89" y="-88.5" font-family="Helvetica,sans-Serif" font-size="10.00">haldls::vx::detail</text>
<text text-anchor="middle" x="88.56" y="-76.5" font-family="Helvetica,sans-Serif" font-size="10.00">::SRAMTimingConfig</text>
</a>
</g>
</g>
<!-- Node2&#45;&gt;Node1 -->
<g id="edge1" class="edge">
<title>Node2&#45;&gt;Node1</title>
<path fill="none" stroke="midnightblue" d="M88.56,-59.02C88.56,-50.13 88.56,-40.43 88.56,-32.64"/>
<polygon fill="midnightblue" stroke="midnightblue" points="85.06,-59.3 88.56,-69.3 92.06,-59.3 85.06,-59.3"/>
</g>
</g>
</svg>
