<?xml version="1.0" encoding="UTF-8" standalone="no"?>
<!DOCTYPE svg PUBLIC "-//W3C//DTD SVG 1.1//EN"
 "http://www.w3.org/Graphics/SVG/1.1/DTD/svg11.dtd">
<!-- Generated by graphviz version 2.46.0 (0)
 -->
<!-- Title: haldls::vx::DifferentialWriteTrait Pages: 1 -->
<svg width="326pt" height="917pt"
 viewBox="0.00 0.00 326.03 917.00" xmlns="http://www.w3.org/2000/svg" xmlns:xlink="http://www.w3.org/1999/xlink">
<g id="graph0" class="graph" transform="scale(1 1) rotate(0) translate(4 913)">
<title>haldls::vx::DifferentialWriteTrait</title>
<polygon fill="white" stroke="transparent" points="-4,4 -4,-913 322.03,-913 322.03,4 -4,4"/>
<!-- Node1 -->
<g id="node1" class="node">
<title>Node1</title>
<g id="a_node1"><a xlink:title="Trait signalling derived&#45;from container type support differential write operation.">
<polygon fill="#bfbfbf" stroke="black" points="0,-420.5 0,-452.5 111.01,-452.5 111.01,-420.5 0,-420.5"/>
<text text-anchor="start" x="8" y="-439.5" font-family="Helvetica,sans-Serif" font-size="10.00">haldls::vx::Differential</text>
<text text-anchor="middle" x="55.5" y="-427.5" font-family="Helvetica,sans-Serif" font-size="10.00">WriteTrait</text>
</a>
</g>
</g>
<!-- Node2 -->
<g id="node2" class="node">
<title>Node2</title>
<g id="a_node2"><a xlink:href="classhaldls_1_1vx_1_1_cap_mem_block.html" target="_top" xlink:title=" ">
<polygon fill="white" stroke="black" points="168.4,-876.5 168.4,-908.5 296.63,-908.5 296.63,-876.5 168.4,-876.5"/>
<text text-anchor="start" x="176.4" y="-895.5" font-family="Helvetica,sans-Serif" font-size="10.00">haldls::vx::CapMemBlock</text>
<text text-anchor="middle" x="232.52" y="-883.5" font-family="Helvetica,sans-Serif" font-size="10.00">&lt; Coordinates &gt;</text>
</a>
</g>
</g>
<!-- Node1&#45;&gt;Node2 -->
<g id="edge1" class="edge">
<title>Node1&#45;&gt;Node2</title>
<path fill="none" stroke="midnightblue" d="M58.54,-462.76C65.59,-546.84 91.57,-807.4 147.01,-867.5 152.82,-873.8 160.13,-878.54 168.01,-882.1"/>
<polygon fill="midnightblue" stroke="midnightblue" points="62.01,-462.22 57.71,-452.54 55.04,-462.79 62.01,-462.22"/>
</g>
<!-- Node3 -->
<g id="node3" class="node">
<title>Node3</title>
<g id="a_node3"><a xlink:href="classhaldls_1_1vx_1_1_cap_mem_block_config.html" target="_top" xlink:title=" ">
<polygon fill="white" stroke="black" points="153.96,-825.5 153.96,-857.5 311.08,-857.5 311.08,-825.5 153.96,-825.5"/>
<text text-anchor="start" x="161.96" y="-844.5" font-family="Helvetica,sans-Serif" font-size="10.00">haldls::vx::CapMemBlockConfig</text>
<text text-anchor="middle" x="232.52" y="-832.5" font-family="Helvetica,sans-Serif" font-size="10.00">&lt; Coordinates &gt;</text>
</a>
</g>
</g>
<!-- Node1&#45;&gt;Node3 -->
<g id="edge2" class="edge">
<title>Node1&#45;&gt;Node3</title>
<path fill="none" stroke="midnightblue" d="M59.39,-463.18C68.33,-540.86 97.88,-764.65 147.01,-816.5 150.27,-819.94 153.98,-822.92 157.99,-825.49"/>
<polygon fill="midnightblue" stroke="midnightblue" points="62.82,-462.36 58.23,-452.82 55.87,-463.15 62.82,-462.36"/>
</g>
<!-- Node4 -->
<g id="node4" class="node">
<title>Node4</title>
<g id="a_node4"><a xlink:href="classhaldls_1_1vx_1_1_cap_mem_cell.html" target="_top" xlink:title=" ">
<polygon fill="white" stroke="black" points="172.02,-774.5 172.02,-806.5 293.02,-806.5 293.02,-774.5 172.02,-774.5"/>
<text text-anchor="start" x="180.02" y="-793.5" font-family="Helvetica,sans-Serif" font-size="10.00">haldls::vx::CapMemCell</text>
<text text-anchor="middle" x="232.52" y="-781.5" font-family="Helvetica,sans-Serif" font-size="10.00">&lt; Coordinates &gt;</text>
</a>
</g>
</g>
<!-- Node1&#45;&gt;Node4 -->
<g id="edge3" class="edge">
<title>Node1&#45;&gt;Node4</title>
<path fill="none" stroke="midnightblue" d="M55.7,-462.95C55.32,-524.81 63.26,-680.13 147.01,-765.5 153.87,-772.49 162.58,-777.55 171.79,-781.2"/>
<polygon fill="midnightblue" stroke="midnightblue" points="59.2,-462.9 55.84,-452.85 52.2,-462.8 59.2,-462.9"/>
</g>
<!-- Node5 -->
<g id="node5" class="node">
<title>Node5</title>
<g id="a_node5"><a xlink:href="classhaldls_1_1vx_1_1_column_correlation_quad.html" target="_top" xlink:title=" ">
<polygon fill="white" stroke="black" points="147.01,-735.5 147.01,-755.5 318.03,-755.5 318.03,-735.5 147.01,-735.5"/>
<text text-anchor="middle" x="232.52" y="-742.5" font-family="Helvetica,sans-Serif" font-size="10.00">haldls::vx::ColumnCorrelationQuad</text>
</a>
</g>
</g>
<!-- Node1&#45;&gt;Node5 -->
<g id="edge4" class="edge">
<title>Node1&#45;&gt;Node5</title>
<path fill="none" stroke="midnightblue" d="M56.49,-462.86C57.98,-519.93 69.93,-655.45 147.01,-726.5 150.88,-730.07 155.27,-733.01 159.97,-735.44"/>
<polygon fill="midnightblue" stroke="midnightblue" points="59.99,-462.48 56.32,-452.54 52.99,-462.6 59.99,-462.48"/>
</g>
<!-- Node6 -->
<g id="node6" class="node">
<title>Node6</title>
<g id="a_node6"><a xlink:href="classhaldls_1_1vx_1_1_column_current_quad.html" target="_top" xlink:title=" ">
<polygon fill="white" stroke="black" points="154.79,-696.5 154.79,-716.5 310.25,-716.5 310.25,-696.5 154.79,-696.5"/>
<text text-anchor="middle" x="232.52" y="-703.5" font-family="Helvetica,sans-Serif" font-size="10.00">haldls::vx::ColumnCurrentQuad</text>
</a>
</g>
</g>
<!-- Node1&#45;&gt;Node6 -->
<g id="edge5" class="edge">
<title>Node1&#45;&gt;Node6</title>
<path fill="none" stroke="midnightblue" d="M57.98,-462.88C62.35,-514.27 79.54,-627.97 147.01,-687.5 151.07,-691.08 155.66,-694.03 160.55,-696.46"/>
<polygon fill="midnightblue" stroke="midnightblue" points="61.45,-462.33 57.22,-452.62 54.47,-462.85 61.45,-462.33"/>
</g>
<!-- Node7 -->
<g id="node7" class="node">
<title>Node7</title>
<g id="a_node7"><a xlink:href="classhaldls_1_1vx_1_1_common_neuron_backend_config.html" target="_top" xlink:title="Read/write access to common neuron parameters.">
<polygon fill="white" stroke="black" points="164.23,-645.5 164.23,-677.5 300.8,-677.5 300.8,-645.5 164.23,-645.5"/>
<text text-anchor="start" x="172.23" y="-664.5" font-family="Helvetica,sans-Serif" font-size="10.00">haldls::vx::CommonNeuron</text>
<text text-anchor="middle" x="232.52" y="-652.5" font-family="Helvetica,sans-Serif" font-size="10.00">BackendConfig</text>
</a>
</g>
</g>
<!-- Node1&#45;&gt;Node7 -->
<g id="edge6" class="edge">
<title>Node1&#45;&gt;Node7</title>
<path fill="none" stroke="midnightblue" d="M61.08,-462.59C69.95,-505.26 93.5,-589.88 147.01,-636.5 152.08,-640.92 157.91,-644.56 164.08,-647.56"/>
<polygon fill="midnightblue" stroke="midnightblue" points="64.5,-461.83 59.14,-452.69 57.63,-463.18 64.5,-461.83"/>
</g>
<!-- Node8 -->
<g id="node8" class="node">
<title>Node8</title>
<g id="a_node8"><a xlink:href="classhaldls_1_1vx_1_1_common_p_a_d_i_bus_config.html" target="_top" xlink:title="Configuration for a PADI bus block.">
<polygon fill="white" stroke="black" points="160.34,-594.5 160.34,-626.5 304.69,-626.5 304.69,-594.5 160.34,-594.5"/>
<text text-anchor="start" x="168.34" y="-613.5" font-family="Helvetica,sans-Serif" font-size="10.00">haldls::vx::CommonPADIBus</text>
<text text-anchor="middle" x="232.52" y="-601.5" font-family="Helvetica,sans-Serif" font-size="10.00">Config</text>
</a>
</g>
</g>
<!-- Node1&#45;&gt;Node8 -->
<g id="edge7" class="edge">
<title>Node1&#45;&gt;Node8</title>
<path fill="none" stroke="midnightblue" d="M65.37,-462.16C78.19,-495.48 105.07,-553.2 147.01,-585.5 151.49,-588.95 156.45,-591.93 161.64,-594.5"/>
<polygon fill="midnightblue" stroke="midnightblue" points="68.6,-460.81 61.84,-452.65 62.04,-463.25 68.6,-460.81"/>
</g>
<!-- Node9 -->
<g id="node9" class="node">
<title>Node9</title>
<g id="a_node9"><a xlink:href="classhaldls_1_1vx_1_1_common_s_t_p_config.html" target="_top" xlink:title="Common STP configuration shared by synapse drivers per vertical half.">
<polygon fill="white" stroke="black" points="156.46,-555.5 156.46,-575.5 308.58,-575.5 308.58,-555.5 156.46,-555.5"/>
<text text-anchor="middle" x="232.52" y="-562.5" font-family="Helvetica,sans-Serif" font-size="10.00">haldls::vx::CommonSTPConfig</text>
</a>
</g>
</g>
<!-- Node1&#45;&gt;Node9 -->
<g id="edge8" class="edge">
<title>Node1&#45;&gt;Node9</title>
<path fill="none" stroke="midnightblue" d="M70.32,-461.56C85.68,-486.98 112.87,-525.49 147.01,-546.5 152.9,-550.13 159.4,-553.06 166.11,-555.44"/>
<polygon fill="midnightblue" stroke="midnightblue" points="73.29,-459.7 65.21,-452.85 67.25,-463.24 73.29,-459.7"/>
</g>
<!-- Node10 -->
<g id="node10" class="node">
<title>Node10</title>
<g id="a_node10"><a xlink:href="classhaldls_1_1vx_1_1_common_synram_config.html" target="_top" xlink:title=" ">
<polygon fill="white" stroke="black" points="163.4,-504.5 163.4,-536.5 301.63,-536.5 301.63,-504.5 163.4,-504.5"/>
<text text-anchor="start" x="171.4" y="-523.5" font-family="Helvetica,sans-Serif" font-size="10.00">haldls::vx::CommonSynram</text>
<text text-anchor="middle" x="232.52" y="-511.5" font-family="Helvetica,sans-Serif" font-size="10.00">Config</text>
</a>
</g>
</g>
<!-- Node1&#45;&gt;Node10 -->
<g id="edge9" class="edge">
<title>Node1&#45;&gt;Node10</title>
<path fill="none" stroke="midnightblue" d="M85.86,-458.77C102.98,-470.94 125.4,-485.52 147.01,-495.5 154.09,-498.77 161.71,-501.73 169.36,-504.38"/>
<polygon fill="midnightblue" stroke="midnightblue" points="87.58,-455.69 77.42,-452.66 83.47,-461.36 87.58,-455.69"/>
</g>
<!-- Node11 -->
<g id="node11" class="node">
<title>Node11</title>
<g id="a_node11"><a xlink:href="classhaldls_1_1vx_1_1_d_a_c_channel.html" target="_top" xlink:title="Container for individual configuration of the value of a DAC channel of the xBoard DACs.">
<polygon fill="white" stroke="black" points="171.73,-465.5 171.73,-485.5 293.3,-485.5 293.3,-465.5 171.73,-465.5"/>
<text text-anchor="middle" x="232.52" y="-472.5" font-family="Helvetica,sans-Serif" font-size="10.00">haldls::vx::DACChannel</text>
</a>
</g>
</g>
<!-- Node1&#45;&gt;Node11 -->
<g id="edge10" class="edge">
<title>Node1&#45;&gt;Node11</title>
<path fill="none" stroke="midnightblue" d="M121.21,-450.92C142.91,-455.76 166.63,-461.04 186.49,-465.47"/>
<polygon fill="midnightblue" stroke="midnightblue" points="121.92,-447.49 111.4,-448.73 120.4,-454.32 121.92,-447.49"/>
</g>
<!-- Node12 -->
<g id="node12" class="node">
<title>Node12</title>
<g id="a_node12"><a xlink:href="classhaldls_1_1vx_1_1_d_a_c_control.html" target="_top" xlink:title="Container for enabling DAC channels of a xBoard DAC.">
<polygon fill="white" stroke="black" points="174.24,-426.5 174.24,-446.5 290.8,-446.5 290.8,-426.5 174.24,-426.5"/>
<text text-anchor="middle" x="232.52" y="-433.5" font-family="Helvetica,sans-Serif" font-size="10.00">haldls::vx::DACControl</text>
</a>
</g>
</g>
<!-- Node1&#45;&gt;Node12 -->
<g id="edge11" class="edge">
<title>Node1&#45;&gt;Node12</title>
<path fill="none" stroke="midnightblue" d="M121.41,-436.5C138.7,-436.5 157.24,-436.5 174.1,-436.5"/>
<polygon fill="midnightblue" stroke="midnightblue" points="121.4,-433 111.4,-436.5 121.4,-440 121.4,-433"/>
</g>
<!-- Node13 -->
<g id="node13" class="node">
<title>Node13</title>
<g id="a_node13"><a xlink:href="classhaldls_1_1vx_1_1_neuron_backend_config.html" target="_top" xlink:title="Read/write access to the NeuronBackend container.">
<polygon fill="white" stroke="black" points="165.06,-375.5 165.06,-407.5 299.98,-407.5 299.98,-375.5 165.06,-375.5"/>
<text text-anchor="start" x="173.06" y="-394.5" font-family="Helvetica,sans-Serif" font-size="10.00">haldls::vx::NeuronBackend</text>
<text text-anchor="middle" x="232.52" y="-382.5" font-family="Helvetica,sans-Serif" font-size="10.00">Config&lt; Coordinates &gt;</text>
</a>
</g>
</g>
<!-- Node1&#45;&gt;Node13 -->
<g id="edge12" class="edge">
<title>Node1&#45;&gt;Node13</title>
<path fill="none" stroke="midnightblue" d="M121.48,-419.79C137.08,-415.78 153.71,-411.51 169.19,-407.53"/>
<polygon fill="midnightblue" stroke="midnightblue" points="120.21,-416.51 111.4,-422.39 121.96,-423.28 120.21,-416.51"/>
</g>
<!-- Node14 -->
<g id="node14" class="node">
<title>Node14</title>
<g id="a_node14"><a xlink:href="classhaldls_1_1vx_1_1_p_p_u_control_register.html" target="_top" xlink:title=" ">
<polygon fill="white" stroke="black" points="155.9,-336.5 155.9,-356.5 309.14,-356.5 309.14,-336.5 155.9,-336.5"/>
<text text-anchor="middle" x="232.52" y="-343.5" font-family="Helvetica,sans-Serif" font-size="10.00">haldls::vx::PPUControlRegister</text>
</a>
</g>
</g>
<!-- Node1&#45;&gt;Node14 -->
<g id="edge13" class="edge">
<title>Node1&#45;&gt;Node14</title>
<path fill="none" stroke="midnightblue" d="M80.09,-413.66C97.33,-398.18 121.98,-378.45 147.01,-366.5 155.45,-362.47 164.75,-359.22 174.01,-356.61"/>
<polygon fill="midnightblue" stroke="midnightblue" points="77.72,-411.09 72.72,-420.43 82.46,-416.24 77.72,-411.09"/>
</g>
<!-- Node15 -->
<g id="node15" class="node">
<title>Node15</title>
<g id="a_node15"><a xlink:href="classhaldls_1_1vx_1_1_shift_register.html" target="_top" xlink:title="Container for configuration of the 24&#45;bit wide shift register controlling six VDD switches,...">
<polygon fill="white" stroke="black" points="172.29,-297.5 172.29,-317.5 292.75,-317.5 292.75,-297.5 172.29,-297.5"/>
<text text-anchor="middle" x="232.52" y="-304.5" font-family="Helvetica,sans-Serif" font-size="10.00">haldls::vx::ShiftRegister</text>
</a>
</g>
</g>
<!-- Node1&#45;&gt;Node15 -->
<g id="edge14" class="edge">
<title>Node1&#45;&gt;Node15</title>
<path fill="none" stroke="midnightblue" d="M70.43,-411.74C85.87,-386.62 113.13,-348.51 147.01,-327.5 154.7,-322.73 163.42,-319.1 172.28,-316.33"/>
<polygon fill="midnightblue" stroke="midnightblue" points="67.4,-409.98 65.28,-420.36 73.41,-413.57 67.4,-409.98"/>
</g>
<!-- Node16 -->
<g id="node16" class="node">
<title>Node16</title>
<g id="a_node16"><a xlink:href="classhaldls_1_1vx_1_1_synapse_correlation_calib_quad.html" target="_top" xlink:title=" ">
<polygon fill="white" stroke="black" points="157.01,-246.5 157.01,-278.5 308.03,-278.5 308.03,-246.5 157.01,-246.5"/>
<text text-anchor="start" x="165.01" y="-265.5" font-family="Helvetica,sans-Serif" font-size="10.00">haldls::vx::SynapseCorrelation</text>
<text text-anchor="middle" x="232.52" y="-253.5" font-family="Helvetica,sans-Serif" font-size="10.00">CalibQuad</text>
</a>
</g>
</g>
<!-- Node1&#45;&gt;Node16 -->
<g id="edge15" class="edge">
<title>Node1&#45;&gt;Node16</title>
<path fill="none" stroke="midnightblue" d="M65.47,-411.08C78.4,-378.05 105.4,-320.81 147.01,-288.5 151.98,-284.64 157.53,-281.35 163.34,-278.55"/>
<polygon fill="midnightblue" stroke="midnightblue" points="62.17,-409.91 61.91,-420.5 68.72,-412.38 62.17,-409.91"/>
</g>
<!-- Node17 -->
<g id="node17" class="node">
<title>Node17</title>
<g id="a_node17"><a xlink:href="classhaldls_1_1vx_1_1_synapse_driver_config.html" target="_top" xlink:title=" ">
<polygon fill="white" stroke="black" points="168.12,-195.5 168.12,-227.5 296.91,-227.5 296.91,-195.5 168.12,-195.5"/>
<text text-anchor="start" x="176.12" y="-214.5" font-family="Helvetica,sans-Serif" font-size="10.00">haldls::vx::SynapseDriver</text>
<text text-anchor="middle" x="232.52" y="-202.5" font-family="Helvetica,sans-Serif" font-size="10.00">Config</text>
</a>
</g>
</g>
<!-- Node1&#45;&gt;Node17 -->
<g id="edge16" class="edge">
<title>Node1&#45;&gt;Node17</title>
<path fill="none" stroke="midnightblue" d="M61.18,-410.61C70.18,-368.24 93.93,-284.17 147.01,-237.5 153.12,-232.13 160.32,-227.87 167.9,-224.48"/>
<polygon fill="midnightblue" stroke="midnightblue" points="57.75,-409.94 59.2,-420.43 64.61,-411.32 57.75,-409.94"/>
</g>
<!-- Node18 -->
<g id="node18" class="node">
<title>Node18</title>
<g id="a_node18"><a xlink:href="classhaldls_1_1vx_1_1_synapse_label_quad.html" target="_top" xlink:title=" ">
<polygon fill="white" stroke="black" points="157,-156.5 157,-176.5 308.04,-176.5 308.04,-156.5 157,-156.5"/>
<text text-anchor="middle" x="232.52" y="-163.5" font-family="Helvetica,sans-Serif" font-size="10.00">haldls::vx::SynapseLabelQuad</text>
</a>
</g>
</g>
<!-- Node1&#45;&gt;Node18 -->
<g id="edge17" class="edge">
<title>Node1&#45;&gt;Node18</title>
<path fill="none" stroke="midnightblue" d="M58.08,-410.29C62.61,-359.22 80.07,-246.15 147.01,-186.5 151.51,-182.49 156.67,-179.24 162.17,-176.62"/>
<polygon fill="midnightblue" stroke="midnightblue" points="54.57,-410.24 57.27,-420.49 61.55,-410.79 54.57,-410.24"/>
</g>
<!-- Node19 -->
<g id="node19" class="node">
<title>Node19</title>
<g id="a_node19"><a xlink:href="classhaldls_1_1vx_1_1_synapse_quad.html" target="_top" xlink:title=" ">
<polygon fill="white" stroke="black" points="169.22,-117.5 169.22,-137.5 295.81,-137.5 295.81,-117.5 169.22,-117.5"/>
<text text-anchor="middle" x="232.52" y="-124.5" font-family="Helvetica,sans-Serif" font-size="10.00">haldls::vx::SynapseQuad</text>
</a>
</g>
</g>
<!-- Node1&#45;&gt;Node19 -->
<g id="edge18" class="edge">
<title>Node1&#45;&gt;Node19</title>
<path fill="none" stroke="midnightblue" d="M56.6,-409.89C58.31,-352.91 70.72,-218.55 147.01,-147.5 153.3,-141.64 160.98,-137.4 169.11,-134.35"/>
<polygon fill="midnightblue" stroke="midnightblue" points="53.09,-410.14 56.38,-420.21 60.09,-410.28 53.09,-410.14"/>
</g>
<!-- Node20 -->
<g id="node20" class="node">
<title>Node20</title>
<g id="a_node20"><a xlink:href="classhaldls_1_1vx_1_1_synapse_weight_quad.html" target="_top" xlink:title=" ">
<polygon fill="white" stroke="black" points="153.67,-78.5 153.67,-98.5 311.37,-98.5 311.37,-78.5 153.67,-78.5"/>
<text text-anchor="middle" x="232.52" y="-85.5" font-family="Helvetica,sans-Serif" font-size="10.00">haldls::vx::SynapseWeightQuad</text>
</a>
</g>
</g>
<!-- Node1&#45;&gt;Node20 -->
<g id="edge19" class="edge">
<title>Node1&#45;&gt;Node20</title>
<path fill="none" stroke="midnightblue" d="M60.28,-410.13C70.86,-339.93 102.9,-151.01 147.01,-108.5 151.13,-104.52 155.9,-101.29 161.02,-98.66"/>
<polygon fill="midnightblue" stroke="midnightblue" points="56.77,-409.93 58.77,-420.33 63.7,-410.95 56.77,-409.93"/>
</g>
<!-- Node21 -->
<g id="node21" class="node">
<title>Node21</title>
<g id="a_node21"><a xlink:href="classhaldls_1_1vx_1_1v2_1_1_neuron_config.html" target="_top" xlink:title=" ">
<polygon fill="white" stroke="black" points="162.01,-39.5 162.01,-59.5 303.03,-59.5 303.03,-39.5 162.01,-39.5"/>
<text text-anchor="middle" x="232.52" y="-46.5" font-family="Helvetica,sans-Serif" font-size="10.00">haldls::vx::v2::NeuronConfig</text>
</a>
</g>
</g>
<!-- Node1&#45;&gt;Node21 -->
<g id="edge20" class="edge">
<title>Node1&#45;&gt;Node21</title>
<path fill="none" stroke="midnightblue" d="M59.46,-410.08C68.47,-334.22 98.02,-118.03 147.01,-69.5 151.29,-65.26 156.3,-61.85 161.7,-59.12"/>
<polygon fill="midnightblue" stroke="midnightblue" points="55.96,-409.88 58.28,-420.22 62.91,-410.69 55.96,-409.88"/>
</g>
<!-- Node22 -->
<g id="node22" class="node">
<title>Node22</title>
<g id="a_node22"><a xlink:href="classhaldls_1_1vx_1_1v3_1_1_neuron_config.html" target="_top" xlink:title=" ">
<polygon fill="white" stroke="black" points="162.01,-0.5 162.01,-20.5 303.03,-20.5 303.03,-0.5 162.01,-0.5"/>
<text text-anchor="middle" x="232.52" y="-7.5" font-family="Helvetica,sans-Serif" font-size="10.00">haldls::vx::v3::NeuronConfig</text>
</a>
</g>
</g>
<!-- Node1&#45;&gt;Node22 -->
<g id="edge21" class="edge">
<title>Node1&#45;&gt;Node22</title>
<path fill="none" stroke="midnightblue" d="M58.79,-410.05C66.33,-328.82 93.11,-85.11 147.01,-30.5 151.25,-26.21 156.22,-22.77 161.6,-20.02"/>
<polygon fill="midnightblue" stroke="midnightblue" points="55.27,-410.12 57.85,-420.4 62.24,-410.76 55.27,-410.12"/>
</g>
</g>
</svg>
