<?xml version="1.0" encoding="UTF-8" standalone="no"?>
<!DOCTYPE svg PUBLIC "-//W3C//DTD SVG 1.1//EN"
 "http://www.w3.org/Graphics/SVG/1.1/DTD/svg11.dtd">
<!-- Generated by graphviz version 2.46.0 (0)
 -->
<!-- Title: haldls::vx::NeuronSRAMTimingConfig Pages: 1 -->
<svg width="163pt" height="110pt"
 viewBox="0.00 0.00 162.89 110.00" xmlns="http://www.w3.org/2000/svg" xmlns:xlink="http://www.w3.org/1999/xlink">
<g id="graph0" class="graph" transform="scale(1 1) rotate(0) translate(4 106)">
<title>haldls::vx::NeuronSRAMTimingConfig</title>
<polygon fill="white" stroke="transparent" points="-4,4 -4,-106 158.89,-106 158.89,4 -4,4"/>
<!-- Node1 -->
<g id="node1" class="node">
<title>Node1</title>
<g id="a_node1"><a xlink:title=" ">
<polygon fill="#bfbfbf" stroke="black" points="0,-0.5 0,-32.5 154.89,-32.5 154.89,-0.5 0,-0.5"/>
<text text-anchor="start" x="8" y="-19.5" font-family="Helvetica,sans-Serif" font-size="10.00">haldls::vx::NeuronSRAMTiming</text>
<text text-anchor="middle" x="77.45" y="-7.5" font-family="Helvetica,sans-Serif" font-size="10.00">Config</text>
</a>
</g>
</g>
<!-- Node2 -->
<g id="node2" class="node">
<title>Node2</title>
<g id="a_node2"><a xlink:href="classhaldls_1_1vx_1_1detail_1_1_s_r_a_m_timing_config.html" target="_top" xlink:title="Configuration of full&#45;custom SRAM timing.">
<polygon fill="white" stroke="black" points="22.78,-69.5 22.78,-101.5 132.11,-101.5 132.11,-69.5 22.78,-69.5"/>
<text text-anchor="start" x="30.78" y="-88.5" font-family="Helvetica,sans-Serif" font-size="10.00">haldls::vx::detail</text>
<text text-anchor="middle" x="77.45" y="-76.5" font-family="Helvetica,sans-Serif" font-size="10.00">::SRAMTimingConfig</text>
</a>
</g>
</g>
<!-- Node2&#45;&gt;Node1 -->
<g id="edge1" class="edge">
<title>Node2&#45;&gt;Node1</title>
<path fill="none" stroke="midnightblue" d="M77.45,-59.02C77.45,-50.13 77.45,-40.43 77.45,-32.64"/>
<polygon fill="midnightblue" stroke="midnightblue" points="73.95,-59.3 77.45,-69.3 80.95,-59.3 73.95,-59.3"/>
</g>
</g>
</svg>
