<?xml version="1.0" encoding="UTF-8" standalone="no"?>
<!DOCTYPE svg PUBLIC "-//W3C//DTD SVG 1.1//EN"
 "http://www.w3.org/Graphics/SVG/1.1/DTD/svg11.dtd">
<!-- Generated by graphviz version 2.46.0 (0)
 -->
<!-- Title: Graphical Class Hierarchy Pages: 1 -->
<svg width="316pt" height="338pt"
 viewBox="0.00 0.00 316.34 338.00" xmlns="http://www.w3.org/2000/svg" xmlns:xlink="http://www.w3.org/1999/xlink">
<g id="graph0" class="graph" transform="scale(1 1) rotate(0) translate(4 334)">
<title>Graphical Class Hierarchy</title>
<polygon fill="white" stroke="transparent" points="-4,4 -4,-334 312.34,-334 312.34,4 -4,4"/>
<!-- Node457 -->
<g id="node1" class="node">
<title>Node457</title>
<g id="a_node1"><a xlink:title=" ">
<polygon fill="white" stroke="#bfbfbf" points="0,-154.5 0,-174.5 76.58,-174.5 76.58,-154.5 0,-154.5"/>
<text text-anchor="middle" x="38.29" y="-161.5" font-family="Helvetica,sans-Serif" font-size="10.00">std::true_type</text>
</a>
</g>
</g>
<!-- Node0 -->
<g id="node2" class="node">
<title>Node0</title>
<g id="a_node2"><a xlink:href="structhaldls_1_1vx_1_1detail_1_1_is_readable_3_01_t_00_01std_1_1enable__if__t_3_01hate_1_1is__in52349e4c8b62557f32257c4d96054dd8.html" target="_top" xlink:title=" ">
<polygon fill="white" stroke="black" points="123.96,-261.5 123.96,-329.5 296.96,-329.5 296.96,-261.5 123.96,-261.5"/>
<text text-anchor="start" x="131.96" y="-316.5" font-family="Helvetica,sans-Serif" font-size="10.00">haldls::vx::detail</text>
<text text-anchor="start" x="131.96" y="-304.5" font-family="Helvetica,sans-Serif" font-size="10.00">::IsReadable&lt; T, std</text>
<text text-anchor="start" x="131.96" y="-292.5" font-family="Helvetica,sans-Serif" font-size="10.00">::enable_if_t&lt; hate::</text>
<text text-anchor="start" x="131.96" y="-280.5" font-family="Helvetica,sans-Serif" font-size="10.00">is_in_type_list&lt; T, NonLeafNode</text>
<text text-anchor="middle" x="210.46" y="-268.5" font-family="Helvetica,sans-Serif" font-size="10.00">ReadableContainerList &gt;::value &gt; &gt;</text>
</a>
</g>
</g>
<!-- Node457&#45;&gt;Node0 -->
<g id="edge1" class="edge">
<title>Node457&#45;&gt;Node0</title>
<path fill="none" stroke="midnightblue" d="M51.18,-183.38C64.24,-202.84 86.81,-233.03 112.58,-252.5 116.69,-255.61 121.06,-258.55 125.58,-261.32"/>
<polygon fill="midnightblue" stroke="midnightblue" points="53.96,-181.23 45.56,-174.77 48.1,-185.06 53.96,-181.23"/>
</g>
<!-- Node459 -->
<g id="node3" class="node">
<title>Node459</title>
<g id="a_node3"><a xlink:href="structhaldls_1_1vx_1_1detail_1_1_is_readable_3_01_t_00_01typename_01boost_1_1enable__if__has__tydc1ee37345a0bb947e0685c0247ea7c7.html" target="_top" xlink:title=" ">
<polygon fill="white" stroke="black" points="142.3,-174.5 142.3,-242.5 278.62,-242.5 278.62,-174.5 142.3,-174.5"/>
<text text-anchor="start" x="150.3" y="-229.5" font-family="Helvetica,sans-Serif" font-size="10.00">haldls::vx::detail</text>
<text text-anchor="start" x="150.3" y="-217.5" font-family="Helvetica,sans-Serif" font-size="10.00">::IsReadable&lt; T, typename</text>
<text text-anchor="start" x="150.3" y="-205.5" font-family="Helvetica,sans-Serif" font-size="10.00"> boost::enable_if_has_type</text>
<text text-anchor="start" x="150.3" y="-193.5" font-family="Helvetica,sans-Serif" font-size="10.00">&lt; decltype(T::config_size</text>
<text text-anchor="middle" x="210.46" y="-181.5" font-family="Helvetica,sans-Serif" font-size="10.00">_in_words)&gt;::type &gt;</text>
</a>
</g>
</g>
<!-- Node457&#45;&gt;Node459 -->
<g id="edge2" class="edge">
<title>Node457&#45;&gt;Node459</title>
<path fill="none" stroke="midnightblue" d="M86.43,-176.69C103.63,-181.14 123.42,-186.25 142.04,-191.07"/>
<polygon fill="midnightblue" stroke="midnightblue" points="87.19,-173.27 76.63,-174.16 85.44,-180.05 87.19,-173.27"/>
</g>
<!-- Node460 -->
<g id="node4" class="node">
<title>Node460</title>
<g id="a_node4"><a xlink:href="structhaldls_1_1vx_1_1detail_1_1_is_writeable_3_01_t_00_01std_1_1enable__if__t_3_01hate_1_1is__i68516161106baf4b82148726e0ffb84e.html" target="_top" xlink:title=" ">
<polygon fill="white" stroke="black" points="112.58,-87.5 112.58,-155.5 308.34,-155.5 308.34,-87.5 112.58,-87.5"/>
<text text-anchor="start" x="120.58" y="-142.5" font-family="Helvetica,sans-Serif" font-size="10.00">haldls::vx::detail</text>
<text text-anchor="start" x="120.58" y="-130.5" font-family="Helvetica,sans-Serif" font-size="10.00">::IsWriteable&lt; T, std</text>
<text text-anchor="start" x="120.58" y="-118.5" font-family="Helvetica,sans-Serif" font-size="10.00">::enable_if_t&lt; hate::is</text>
<text text-anchor="start" x="120.58" y="-106.5" font-family="Helvetica,sans-Serif" font-size="10.00">_in_type_list&lt; T, NonLeafNodeWriteable</text>
<text text-anchor="middle" x="210.46" y="-94.5" font-family="Helvetica,sans-Serif" font-size="10.00">ContainerList &gt;::value &gt; &gt;</text>
</a>
</g>
</g>
<!-- Node457&#45;&gt;Node460 -->
<g id="edge3" class="edge">
<title>Node457&#45;&gt;Node460</title>
<path fill="none" stroke="midnightblue" d="M86.59,-152.55C94.71,-150.5 103.41,-148.3 112.3,-146.05"/>
<polygon fill="midnightblue" stroke="midnightblue" points="85.47,-149.22 76.63,-155.06 87.19,-156.01 85.47,-149.22"/>
</g>
<!-- Node461 -->
<g id="node5" class="node">
<title>Node461</title>
<g id="a_node5"><a xlink:href="structhaldls_1_1vx_1_1detail_1_1_is_writeable_3_01_t_00_01typename_01boost_1_1enable__if__has__t81ef6e02b3711acc13d47f20d193b265.html" target="_top" xlink:title=" ">
<polygon fill="white" stroke="black" points="142.59,-0.5 142.59,-68.5 278.33,-68.5 278.33,-0.5 142.59,-0.5"/>
<text text-anchor="start" x="150.59" y="-55.5" font-family="Helvetica,sans-Serif" font-size="10.00">haldls::vx::detail</text>
<text text-anchor="start" x="150.59" y="-43.5" font-family="Helvetica,sans-Serif" font-size="10.00">::IsWriteable&lt; T, typename</text>
<text text-anchor="start" x="150.59" y="-31.5" font-family="Helvetica,sans-Serif" font-size="10.00"> boost::enable_if_has_type</text>
<text text-anchor="start" x="150.59" y="-19.5" font-family="Helvetica,sans-Serif" font-size="10.00">&lt; decltype(T::config_size</text>
<text text-anchor="middle" x="210.46" y="-7.5" font-family="Helvetica,sans-Serif" font-size="10.00">_in_words)&gt;::type &gt;</text>
</a>
</g>
</g>
<!-- Node457&#45;&gt;Node461 -->
<g id="edge4" class="edge">
<title>Node457&#45;&gt;Node461</title>
<path fill="none" stroke="midnightblue" d="M51.31,-146.11C64.47,-127.13 87.13,-97.67 112.58,-78.5 121.65,-71.66 131.96,-65.57 142.38,-60.26"/>
<polygon fill="midnightblue" stroke="midnightblue" points="48.34,-144.25 45.64,-154.5 54.14,-148.17 48.34,-144.25"/>
</g>
</g>
</svg>
