<?xml version="1.0" encoding="UTF-8" standalone="no"?>
<!DOCTYPE svg PUBLIC "-//W3C//DTD SVG 1.1//EN"
 "http://www.w3.org/Graphics/SVG/1.1/DTD/svg11.dtd">
<!-- Generated by graphviz version 2.46.0 (0)
 -->
<!-- Title: Graphical Class Hierarchy Pages: 1 -->
<svg width="271pt" height="65pt"
 viewBox="0.00 0.00 271.35 65.00" xmlns="http://www.w3.org/2000/svg" xmlns:xlink="http://www.w3.org/1999/xlink">
<g id="graph0" class="graph" transform="scale(1 1) rotate(0) translate(4 61)">
<title>Graphical Class Hierarchy</title>
<polygon fill="white" stroke="transparent" points="-4,4 -4,-61 267.35,-61 267.35,4 -4,4"/>
<!-- Node298 -->
<g id="node1" class="node">
<title>Node298</title>
<g id="a_node1"><a xlink:title=" ">
<polygon fill="white" stroke="#bfbfbf" points="0,-18.5 0,-38.5 84.36,-38.5 84.36,-18.5 0,-18.5"/>
<text text-anchor="middle" x="42.18" y="-25.5" font-family="Helvetica,sans-Serif" font-size="10.00">T::is_leaf_node</text>
</a>
</g>
</g>
<!-- Node0 -->
<g id="node2" class="node">
<title>Node0</title>
<g id="a_node2"><a xlink:href="structhaldls_1_1vx_1_1_has_local_data_3_01_t_00_01typename_01boost_1_1enable__if__has__type_3_01a312ede60dae1b310c1c78db43ae5e4c.html" target="_top" xlink:title=" ">
<polygon fill="white" stroke="black" points="120.36,-0.5 120.36,-56.5 263.35,-56.5 263.35,-0.5 120.36,-0.5"/>
<text text-anchor="start" x="128.36" y="-43.5" font-family="Helvetica,sans-Serif" font-size="10.00">haldls::vx::HasLocalData</text>
<text text-anchor="start" x="128.36" y="-31.5" font-family="Helvetica,sans-Serif" font-size="10.00">&lt; T, typename boost::enable</text>
<text text-anchor="start" x="128.36" y="-19.5" font-family="Helvetica,sans-Serif" font-size="10.00">_if_has_type&lt; typename T::</text>
<text text-anchor="middle" x="191.85" y="-7.5" font-family="Helvetica,sans-Serif" font-size="10.00">is_leaf_node &gt;::type &gt;</text>
</a>
</g>
</g>
<!-- Node298&#45;&gt;Node0 -->
<g id="edge1" class="edge">
<title>Node298&#45;&gt;Node0</title>
<path fill="none" stroke="midnightblue" d="M94.87,-28.5C103.09,-28.5 111.72,-28.5 120.28,-28.5"/>
<polygon fill="midnightblue" stroke="midnightblue" points="94.71,-25 84.71,-28.5 94.71,-32 94.71,-25"/>
</g>
</g>
</svg>
