<?xml version="1.0" encoding="UTF-8" standalone="no"?>
<!DOCTYPE svg PUBLIC "-//W3C//DTD SVG 1.1//EN"
 "http://www.w3.org/Graphics/SVG/1.1/DTD/svg11.dtd">
<!-- Generated by graphviz version 2.46.0 (0)
 -->
<!-- Title: Graphical Class Hierarchy Pages: 1 -->
<svg width="269pt" height="143pt"
 viewBox="0.00 0.00 269.40 143.00" xmlns="http://www.w3.org/2000/svg" xmlns:xlink="http://www.w3.org/1999/xlink">
<g id="graph0" class="graph" transform="scale(1 1) rotate(0) translate(4 139)">
<title>Graphical Class Hierarchy</title>
<polygon fill="white" stroke="transparent" points="-4,4 -4,-139 265.4,-139 265.4,4 -4,4"/>
<!-- Node282 -->
<g id="node1" class="node">
<title>Node282</title>
<g id="a_node1"><a xlink:title=" ">
<polygon fill="white" stroke="#bfbfbf" points="0,-57.5 0,-77.5 80.47,-77.5 80.47,-57.5 0,-57.5"/>
<text text-anchor="middle" x="40.23" y="-64.5" font-family="Helvetica,sans-Serif" font-size="10.00">std::false_type</text>
</a>
</g>
</g>
<!-- Node0 -->
<g id="node2" class="node">
<title>Node0</title>
<g id="a_node2"><a xlink:href="structhaldls_1_1vx_1_1_has_local_data.html" target="_top" xlink:title=" ">
<polygon fill="white" stroke="black" points="125.92,-102.5 125.92,-134.5 251.95,-134.5 251.95,-102.5 125.92,-102.5"/>
<text text-anchor="start" x="133.93" y="-121.5" font-family="Helvetica,sans-Serif" font-size="10.00">haldls::vx::HasLocalData</text>
<text text-anchor="middle" x="188.94" y="-109.5" font-family="Helvetica,sans-Serif" font-size="10.00">&lt; T, typename &gt;</text>
</a>
</g>
</g>
<!-- Node282&#45;&gt;Node0 -->
<g id="edge1" class="edge">
<title>Node282&#45;&gt;Node0</title>
<path fill="none" stroke="midnightblue" d="M79.74,-80.89C98.72,-87.48 121.76,-95.49 141.69,-102.42"/>
<polygon fill="midnightblue" stroke="midnightblue" points="80.81,-77.55 70.22,-77.58 78.51,-84.17 80.81,-77.55"/>
</g>
<!-- Node284 -->
<g id="node3" class="node">
<title>Node284</title>
<g id="a_node3"><a xlink:href="structhaldls_1_1vx_1_1detail_1_1_is_readable.html" target="_top" xlink:title=" ">
<polygon fill="white" stroke="black" points="116.47,-51.5 116.47,-83.5 261.4,-83.5 261.4,-51.5 116.47,-51.5"/>
<text text-anchor="start" x="124.47" y="-70.5" font-family="Helvetica,sans-Serif" font-size="10.00">haldls::vx::detail</text>
<text text-anchor="middle" x="188.94" y="-58.5" font-family="Helvetica,sans-Serif" font-size="10.00">::IsReadable&lt; T, typename &gt;</text>
</a>
</g>
</g>
<!-- Node282&#45;&gt;Node284 -->
<g id="edge2" class="edge">
<title>Node282&#45;&gt;Node284</title>
<path fill="none" stroke="midnightblue" d="M90.69,-67.5C98.91,-67.5 107.58,-67.5 116.23,-67.5"/>
<polygon fill="midnightblue" stroke="midnightblue" points="90.55,-64 80.55,-67.5 90.55,-71 90.55,-64"/>
</g>
<!-- Node285 -->
<g id="node4" class="node">
<title>Node285</title>
<g id="a_node4"><a xlink:href="structhaldls_1_1vx_1_1detail_1_1_is_writeable.html" target="_top" xlink:title=" ">
<polygon fill="white" stroke="black" points="116.75,-0.5 116.75,-32.5 261.12,-32.5 261.12,-0.5 116.75,-0.5"/>
<text text-anchor="start" x="124.75" y="-19.5" font-family="Helvetica,sans-Serif" font-size="10.00">haldls::vx::detail</text>
<text text-anchor="middle" x="188.94" y="-7.5" font-family="Helvetica,sans-Serif" font-size="10.00">::IsWriteable&lt; T, typename &gt;</text>
</a>
</g>
</g>
<!-- Node282&#45;&gt;Node285 -->
<g id="edge3" class="edge">
<title>Node282&#45;&gt;Node285</title>
<path fill="none" stroke="midnightblue" d="M79.74,-54.11C98.72,-47.52 121.76,-39.51 141.69,-32.58"/>
<polygon fill="midnightblue" stroke="midnightblue" points="78.51,-50.83 70.22,-57.42 80.81,-57.45 78.51,-50.83"/>
</g>
</g>
</svg>
