<?xml version="1.0" encoding="UTF-8" standalone="no"?>
<!DOCTYPE svg PUBLIC "-//W3C//DTD SVG 1.1//EN"
 "http://www.w3.org/Graphics/SVG/1.1/DTD/svg11.dtd">
<!-- Generated by graphviz version 2.46.0 (0)
 -->
<!-- Title: Graphical Class Hierarchy Pages: 1 -->
<svg width="314pt" height="893pt"
 viewBox="0.00 0.00 314.37 893.00" xmlns="http://www.w3.org/2000/svg" xmlns:xlink="http://www.w3.org/1999/xlink">
<g id="graph0" class="graph" transform="scale(1 1) rotate(0) translate(4 889)">
<title>Graphical Class Hierarchy</title>
<polygon fill="white" stroke="transparent" points="-4,4 -4,-889 310.37,-889 310.37,4 -4,4"/>
<!-- Node1 -->
<g id="node1" class="node">
<title>Node1</title>
<g id="a_node1"><a xlink:title=" ">
<polygon fill="white" stroke="#bfbfbf" points="0,-444.5 0,-476.5 113.24,-476.5 113.24,-444.5 0,-444.5"/>
<text text-anchor="start" x="8" y="-463.5" font-family="Helvetica,sans-Serif" font-size="10.00">halco::common::detail</text>
<text text-anchor="middle" x="56.62" y="-451.5" font-family="Helvetica,sans-Serif" font-size="10.00">:: RantWrapper</text>
</a>
</g>
</g>
<!-- Node0 -->
<g id="node2" class="node">
<title>Node0</title>
<g id="a_node2"><a xlink:href="structhaldls_1_1vx_1_1_background_spike_source_1_1_mask.html" target="_top" xlink:title="NeuronLabel bit randomization mask.">
<polygon fill="white" stroke="black" points="157.01,-852.5 157.01,-884.5 298.6,-884.5 298.6,-852.5 157.01,-852.5"/>
<text text-anchor="start" x="165.01" y="-871.5" font-family="Helvetica,sans-Serif" font-size="10.00">haldls::vx::BackgroundSpike</text>
<text text-anchor="middle" x="227.8" y="-859.5" font-family="Helvetica,sans-Serif" font-size="10.00">Source::Mask</text>
</a>
</g>
</g>
<!-- Node1&#45;&gt;Node0 -->
<g id="edge1" class="edge">
<title>Node1&#45;&gt;Node0</title>
<path fill="none" stroke="midnightblue" d="M60.57,-486.86C69.75,-564.55 100.22,-790.55 149.24,-843.5 152.41,-846.93 156.06,-849.88 160,-852.44"/>
<polygon fill="midnightblue" stroke="midnightblue" points="64.04,-486.44 59.41,-476.91 57.09,-487.25 64.04,-486.44"/>
</g>
<!-- Node3 -->
<g id="node3" class="node">
<title>Node3</title>
<g id="a_node3"><a xlink:href="structhaldls_1_1vx_1_1_background_spike_source_1_1_period.html" target="_top" xlink:title="Inter&#45;spike interval for regular and inter&#45;bin interval for Poisson spike generation.">
<polygon fill="white" stroke="black" points="157.01,-801.5 157.01,-833.5 298.6,-833.5 298.6,-801.5 157.01,-801.5"/>
<text text-anchor="start" x="165.01" y="-820.5" font-family="Helvetica,sans-Serif" font-size="10.00">haldls::vx::BackgroundSpike</text>
<text text-anchor="middle" x="227.8" y="-808.5" font-family="Helvetica,sans-Serif" font-size="10.00">Source::Period</text>
</a>
</g>
</g>
<!-- Node1&#45;&gt;Node3 -->
<g id="edge2" class="edge">
<title>Node1&#45;&gt;Node3</title>
<path fill="none" stroke="midnightblue" d="M56.98,-486.62C56.91,-548.46 65.53,-705.15 149.24,-792.5 152.47,-795.87 156.16,-798.79 160.13,-801.31"/>
<polygon fill="midnightblue" stroke="midnightblue" points="60.48,-486.58 57.07,-476.55 53.48,-486.51 60.48,-486.58"/>
</g>
<!-- Node4 -->
<g id="node4" class="node">
<title>Node4</title>
<g id="a_node4"><a xlink:href="structhaldls_1_1vx_1_1_background_spike_source_1_1_rate.html" target="_top" xlink:title="Rate of spike output in the Poisson spike generation mode, without effect in regular mode.">
<polygon fill="white" stroke="black" points="157.01,-750.5 157.01,-782.5 298.6,-782.5 298.6,-750.5 157.01,-750.5"/>
<text text-anchor="start" x="165.01" y="-769.5" font-family="Helvetica,sans-Serif" font-size="10.00">haldls::vx::BackgroundSpike</text>
<text text-anchor="middle" x="227.8" y="-757.5" font-family="Helvetica,sans-Serif" font-size="10.00">Source::Rate</text>
</a>
</g>
</g>
<!-- Node1&#45;&gt;Node4 -->
<g id="edge3" class="edge">
<title>Node1&#45;&gt;Node4</title>
<path fill="none" stroke="midnightblue" d="M58.55,-486.74C61.93,-541.76 77.52,-670.02 149.24,-741.5 152.65,-744.9 156.52,-747.83 160.67,-750.37"/>
<polygon fill="midnightblue" stroke="midnightblue" points="62.05,-486.55 58.02,-476.75 55.05,-486.92 62.05,-486.55"/>
</g>
<!-- Node5 -->
<g id="node5" class="node">
<title>Node5</title>
<g id="a_node5"><a xlink:href="structhaldls_1_1vx_1_1_background_spike_source_1_1_seed.html" target="_top" xlink:title="Random seed for random number generation.">
<polygon fill="white" stroke="black" points="157.01,-699.5 157.01,-731.5 298.6,-731.5 298.6,-699.5 157.01,-699.5"/>
<text text-anchor="start" x="165.01" y="-718.5" font-family="Helvetica,sans-Serif" font-size="10.00">haldls::vx::BackgroundSpike</text>
<text text-anchor="middle" x="227.8" y="-706.5" font-family="Helvetica,sans-Serif" font-size="10.00">Source::Seed</text>
</a>
</g>
</g>
<!-- Node1&#45;&gt;Node5 -->
<g id="edge4" class="edge">
<title>Node1&#45;&gt;Node5</title>
<path fill="none" stroke="midnightblue" d="M60.78,-486.87C67.87,-534.37 89.38,-634.54 149.24,-690.5 152.86,-693.88 156.94,-696.81 161.28,-699.33"/>
<polygon fill="midnightblue" stroke="midnightblue" points="64.22,-486.2 59.38,-476.78 57.29,-487.16 64.22,-486.2"/>
</g>
<!-- Node6 -->
<g id="node6" class="node">
<title>Node6</title>
<g id="a_node6"><a xlink:href="structhaldls_1_1vx_1_1_cap_mem_block_config_1_1_pause_counter.html" target="_top" xlink:title=" ">
<polygon fill="white" stroke="black" points="149.24,-648.5 149.24,-680.5 306.37,-680.5 306.37,-648.5 149.24,-648.5"/>
<text text-anchor="start" x="157.24" y="-667.5" font-family="Helvetica,sans-Serif" font-size="10.00">haldls::vx::CapMemBlockConfig</text>
<text text-anchor="middle" x="227.8" y="-655.5" font-family="Helvetica,sans-Serif" font-size="10.00">&lt; Coordinates &gt;::PauseCounter</text>
</a>
</g>
</g>
<!-- Node1&#45;&gt;Node6 -->
<g id="edge5" class="edge">
<title>Node1&#45;&gt;Node6</title>
<path fill="none" stroke="midnightblue" d="M64.13,-486.76C75.11,-525.68 100.99,-598.46 149.24,-639.5 153.23,-642.89 157.68,-645.82 162.39,-648.36"/>
<polygon fill="midnightblue" stroke="midnightblue" points="67.41,-485.48 61.42,-476.74 60.65,-487.31 67.41,-485.48"/>
</g>
<!-- Node7 -->
<g id="node7" class="node">
<title>Node7</title>
<g id="a_node7"><a xlink:href="structhaldls_1_1vx_1_1_cap_mem_block_config_1_1_sub_counter.html" target="_top" xlink:title=" ">
<polygon fill="white" stroke="black" points="149.24,-597.5 149.24,-629.5 306.37,-629.5 306.37,-597.5 149.24,-597.5"/>
<text text-anchor="start" x="157.24" y="-616.5" font-family="Helvetica,sans-Serif" font-size="10.00">haldls::vx::CapMemBlockConfig</text>
<text text-anchor="middle" x="227.8" y="-604.5" font-family="Helvetica,sans-Serif" font-size="10.00">&lt; Coordinates &gt;::SubCounter</text>
</a>
</g>
</g>
<!-- Node1&#45;&gt;Node7 -->
<g id="edge6" class="edge">
<title>Node1&#45;&gt;Node7</title>
<path fill="none" stroke="midnightblue" d="M69.51,-485.88C84.29,-514.76 112.16,-561.42 149.24,-588.5 153.93,-591.92 159.1,-594.89 164.49,-597.46"/>
<polygon fill="midnightblue" stroke="midnightblue" points="72.59,-484.21 65.01,-476.82 66.32,-487.33 72.59,-484.21"/>
</g>
<!-- Node8 -->
<g id="node8" class="node">
<title>Node8</title>
<g id="a_node8"><a xlink:href="structhaldls_1_1vx_1_1_common_correlation_config_1_1_reset_duration.html" target="_top" xlink:title="Duration of correlation reset for synapses (+3 ppu clock cycles).">
<polygon fill="white" stroke="black" points="151.47,-546.5 151.47,-578.5 304.14,-578.5 304.14,-546.5 151.47,-546.5"/>
<text text-anchor="start" x="159.47" y="-565.5" font-family="Helvetica,sans-Serif" font-size="10.00">haldls::vx::CommonCorrelation</text>
<text text-anchor="middle" x="227.8" y="-553.5" font-family="Helvetica,sans-Serif" font-size="10.00">Config::ResetDuration</text>
</a>
</g>
</g>
<!-- Node1&#45;&gt;Node8 -->
<g id="edge7" class="edge">
<title>Node1&#45;&gt;Node8</title>
<path fill="none" stroke="midnightblue" d="M80.51,-484.13C97.98,-501.02 123.38,-523.19 149.24,-537.5 155.31,-540.86 161.89,-543.84 168.58,-546.48"/>
<polygon fill="midnightblue" stroke="midnightblue" points="82.64,-481.32 73.06,-476.79 77.73,-486.31 82.64,-481.32"/>
</g>
<!-- Node9 -->
<g id="node9" class="node">
<title>Node9</title>
<g id="a_node9"><a xlink:href="structhaldls_1_1vx_1_1_common_correlation_config_1_1_reset_fall_time.html" target="_top" xlink:title="Wait time in PPU clock cycles after disabling the correlation column reset enable.">
<polygon fill="white" stroke="black" points="151.47,-495.5 151.47,-527.5 304.14,-527.5 304.14,-495.5 151.47,-495.5"/>
<text text-anchor="start" x="159.47" y="-514.5" font-family="Helvetica,sans-Serif" font-size="10.00">haldls::vx::CommonCorrelation</text>
<text text-anchor="middle" x="227.8" y="-502.5" font-family="Helvetica,sans-Serif" font-size="10.00">Config::ResetFallTime</text>
</a>
</g>
</g>
<!-- Node1&#45;&gt;Node9 -->
<g id="edge8" class="edge">
<title>Node1&#45;&gt;Node9</title>
<path fill="none" stroke="midnightblue" d="M121.16,-479.65C138.44,-484.86 156.98,-490.45 173.62,-495.47"/>
<polygon fill="midnightblue" stroke="midnightblue" points="121.74,-476.17 111.15,-476.64 119.72,-482.87 121.74,-476.17"/>
</g>
<!-- Node10 -->
<g id="node10" class="node">
<title>Node10</title>
<g id="a_node10"><a xlink:href="structhaldls_1_1vx_1_1_common_correlation_config_1_1_sense_delay.html" target="_top" xlink:title="Wait time in PPU clock cycles between connecting the outputs of a synapse to the CADC inputs and star...">
<polygon fill="white" stroke="black" points="151.47,-444.5 151.47,-476.5 304.14,-476.5 304.14,-444.5 151.47,-444.5"/>
<text text-anchor="start" x="159.47" y="-463.5" font-family="Helvetica,sans-Serif" font-size="10.00">haldls::vx::CommonCorrelation</text>
<text text-anchor="middle" x="227.8" y="-451.5" font-family="Helvetica,sans-Serif" font-size="10.00">Config::SenseDelay</text>
</a>
</g>
</g>
<!-- Node1&#45;&gt;Node10 -->
<g id="edge9" class="edge">
<title>Node1&#45;&gt;Node10</title>
<path fill="none" stroke="midnightblue" d="M123.61,-460.5C132.71,-460.5 142.12,-460.5 151.38,-460.5"/>
<polygon fill="midnightblue" stroke="midnightblue" points="123.49,-457 113.49,-460.5 123.49,-464 123.49,-457"/>
</g>
<!-- Node11 -->
<g id="node11" class="node">
<title>Node11</title>
<g id="a_node11"><a xlink:href="structhaldls_1_1vx_1_1_crossbar_input_drop_counter_1_1_value.html" target="_top" xlink:title=" ">
<polygon fill="white" stroke="black" points="164.79,-393.5 164.79,-425.5 290.81,-425.5 290.81,-393.5 164.79,-393.5"/>
<text text-anchor="start" x="172.79" y="-412.5" font-family="Helvetica,sans-Serif" font-size="10.00">haldls::vx::CrossbarInput</text>
<text text-anchor="middle" x="227.8" y="-400.5" font-family="Helvetica,sans-Serif" font-size="10.00">DropCounter::Value</text>
</a>
</g>
</g>
<!-- Node1&#45;&gt;Node11 -->
<g id="edge10" class="edge">
<title>Node1&#45;&gt;Node11</title>
<path fill="none" stroke="midnightblue" d="M121.16,-441.35C138.44,-436.14 156.98,-430.55 173.62,-425.53"/>
<polygon fill="midnightblue" stroke="midnightblue" points="119.72,-438.13 111.15,-444.36 121.74,-444.83 119.72,-438.13"/>
</g>
<!-- Node12 -->
<g id="node12" class="node">
<title>Node12</title>
<g id="a_node12"><a xlink:href="structhaldls_1_1vx_1_1_crossbar_output_event_counter_1_1_value.html" target="_top" xlink:title=" ">
<polygon fill="white" stroke="black" points="160.9,-342.5 160.9,-374.5 294.7,-374.5 294.7,-342.5 160.9,-342.5"/>
<text text-anchor="start" x="168.9" y="-361.5" font-family="Helvetica,sans-Serif" font-size="10.00">haldls::vx::CrossbarOutput</text>
<text text-anchor="middle" x="227.8" y="-349.5" font-family="Helvetica,sans-Serif" font-size="10.00">EventCounter::Value</text>
</a>
</g>
</g>
<!-- Node1&#45;&gt;Node12 -->
<g id="edge11" class="edge">
<title>Node1&#45;&gt;Node12</title>
<path fill="none" stroke="midnightblue" d="M80.61,-437.28C98.14,-420.66 123.56,-398.8 149.24,-384.5 155.94,-380.77 163.27,-377.46 170.65,-374.55"/>
<polygon fill="midnightblue" stroke="midnightblue" points="77.9,-435.03 73.14,-444.5 82.76,-440.06 77.9,-435.03"/>
</g>
<!-- Node13 -->
<g id="node13" class="node">
<title>Node13</title>
<g id="a_node13"><a xlink:href="structhaldls_1_1vx_1_1_d_a_c_channel_1_1_value.html" target="_top" xlink:title=" ">
<polygon fill="white" stroke="black" points="167.02,-291.5 167.02,-323.5 288.59,-323.5 288.59,-291.5 167.02,-291.5"/>
<text text-anchor="start" x="175.02" y="-310.5" font-family="Helvetica,sans-Serif" font-size="10.00">haldls::vx::DACChannel</text>
<text text-anchor="middle" x="227.8" y="-298.5" font-family="Helvetica,sans-Serif" font-size="10.00">::Value</text>
</a>
</g>
</g>
<!-- Node1&#45;&gt;Node13 -->
<g id="edge12" class="edge">
<title>Node1&#45;&gt;Node13</title>
<path fill="none" stroke="midnightblue" d="M69.62,-435.4C84.49,-406.82 112.46,-360.58 149.24,-333.5 154.62,-329.54 160.63,-326.16 166.87,-323.28"/>
<polygon fill="midnightblue" stroke="midnightblue" points="66.47,-433.86 65.08,-444.36 72.72,-437.02 66.47,-433.86"/>
</g>
<!-- Node14 -->
<g id="node14" class="node">
<title>Node14</title>
<g id="a_node14"><a xlink:href="structhaldls_1_1vx_1_1_p_l_l_self_test_1_1_check_value.html" target="_top" xlink:title="Expected counter value within the 2^(p + 2) reference cycles.">
<polygon fill="white" stroke="black" points="168.96,-240.5 168.96,-272.5 286.65,-272.5 286.65,-240.5 168.96,-240.5"/>
<text text-anchor="start" x="176.96" y="-259.5" font-family="Helvetica,sans-Serif" font-size="10.00">haldls::vx::PLLSelfTest</text>
<text text-anchor="middle" x="227.8" y="-247.5" font-family="Helvetica,sans-Serif" font-size="10.00">::CheckValue</text>
</a>
</g>
</g>
<!-- Node1&#45;&gt;Node14 -->
<g id="edge13" class="edge">
<title>Node1&#45;&gt;Node14</title>
<path fill="none" stroke="midnightblue" d="M64.23,-434.45C75.35,-395.84 101.39,-323.58 149.24,-282.5 154.95,-277.6 161.62,-273.61 168.61,-270.37"/>
<polygon fill="midnightblue" stroke="midnightblue" points="60.78,-433.83 61.49,-444.4 67.52,-435.69 60.78,-433.83"/>
</g>
<!-- Node15 -->
<g id="node15" class="node">
<title>Node15</title>
<g id="a_node15"><a xlink:href="structhaldls_1_1vx_1_1_p_l_l_self_test_status_1_1_counter_value.html" target="_top" xlink:title="Measured counter value in previous self&#45;test execution.">
<polygon fill="white" stroke="black" points="154.79,-189.5 154.79,-221.5 300.82,-221.5 300.82,-189.5 154.79,-189.5"/>
<text text-anchor="start" x="162.79" y="-208.5" font-family="Helvetica,sans-Serif" font-size="10.00">haldls::vx::PLLSelfTestStatus</text>
<text text-anchor="middle" x="227.8" y="-196.5" font-family="Helvetica,sans-Serif" font-size="10.00">::CounterValue</text>
</a>
</g>
</g>
<!-- Node1&#45;&gt;Node15 -->
<g id="edge14" class="edge">
<title>Node1&#45;&gt;Node15</title>
<path fill="none" stroke="midnightblue" d="M60.88,-434.31C68.12,-387.13 89.89,-287.55 149.24,-231.5 153.27,-227.7 157.87,-224.45 162.77,-221.68"/>
<polygon fill="midnightblue" stroke="midnightblue" points="57.4,-433.94 59.44,-444.34 64.33,-434.93 57.4,-433.94"/>
</g>
<!-- Node16 -->
<g id="node16" class="node">
<title>Node16</title>
<g id="a_node16"><a xlink:href="structhaldls_1_1vx_1_1detail_1_1_s_r_a_m_timing_config_1_1_address_setup_time.html" target="_top" xlink:title="Wait time for address value propagation after enable signal pull.">
<polygon fill="white" stroke="black" points="170.36,-126.5 170.36,-170.5 285.25,-170.5 285.25,-126.5 170.36,-126.5"/>
<text text-anchor="start" x="178.36" y="-157.5" font-family="Helvetica,sans-Serif" font-size="10.00">haldls::vx::detail</text>
<text text-anchor="start" x="178.36" y="-145.5" font-family="Helvetica,sans-Serif" font-size="10.00">::SRAMTimingConfig::</text>
<text text-anchor="middle" x="227.8" y="-133.5" font-family="Helvetica,sans-Serif" font-size="10.00">AddressSetupTime</text>
</a>
</g>
</g>
<!-- Node1&#45;&gt;Node16 -->
<g id="edge15" class="edge">
<title>Node1&#45;&gt;Node16</title>
<path fill="none" stroke="midnightblue" d="M59.09,-434.07C63.49,-379.68 80.9,-254.17 149.24,-180.5 155.09,-174.2 162.36,-169.1 170.09,-164.99"/>
<polygon fill="midnightblue" stroke="midnightblue" points="55.59,-434.03 58.36,-444.25 62.57,-434.53 55.59,-434.03"/>
</g>
<!-- Node17 -->
<g id="node17" class="node">
<title>Node17</title>
<g id="a_node17"><a xlink:href="structhaldls_1_1vx_1_1detail_1_1_s_r_a_m_timing_config_1_1_enable_width.html" target="_top" xlink:title="Duration of enable signal pull.">
<polygon fill="white" stroke="black" points="170.36,-63.5 170.36,-107.5 285.25,-107.5 285.25,-63.5 170.36,-63.5"/>
<text text-anchor="start" x="178.36" y="-94.5" font-family="Helvetica,sans-Serif" font-size="10.00">haldls::vx::detail</text>
<text text-anchor="start" x="178.36" y="-82.5" font-family="Helvetica,sans-Serif" font-size="10.00">::SRAMTimingConfig::</text>
<text text-anchor="middle" x="227.8" y="-70.5" font-family="Helvetica,sans-Serif" font-size="10.00">EnableWidth</text>
</a>
</g>
</g>
<!-- Node1&#45;&gt;Node17 -->
<g id="edge16" class="edge">
<title>Node1&#45;&gt;Node17</title>
<path fill="none" stroke="midnightblue" d="M57.17,-433.97C57.52,-371.09 66.98,-211.24 149.24,-117.5 155.01,-110.93 162.33,-105.68 170.16,-101.5"/>
<polygon fill="midnightblue" stroke="midnightblue" points="53.67,-434.22 57.19,-444.22 60.67,-434.21 53.67,-434.22"/>
</g>
<!-- Node18 -->
<g id="node18" class="node">
<title>Node18</title>
<g id="a_node18"><a xlink:href="structhaldls_1_1vx_1_1detail_1_1_s_r_a_m_timing_config_1_1_read_delay.html" target="_top" xlink:title="Wait time after enable signal pull for cells to drive their value until read.">
<polygon fill="white" stroke="black" points="170.36,-0.5 170.36,-44.5 285.25,-44.5 285.25,-0.5 170.36,-0.5"/>
<text text-anchor="start" x="178.36" y="-31.5" font-family="Helvetica,sans-Serif" font-size="10.00">haldls::vx::detail</text>
<text text-anchor="start" x="178.36" y="-19.5" font-family="Helvetica,sans-Serif" font-size="10.00">::SRAMTimingConfig::</text>
<text text-anchor="middle" x="227.8" y="-7.5" font-family="Helvetica,sans-Serif" font-size="10.00">ReadDelay</text>
</a>
</g>
</g>
<!-- Node1&#45;&gt;Node18 -->
<g id="edge17" class="edge">
<title>Node1&#45;&gt;Node18</title>
<path fill="none" stroke="midnightblue" d="M60.43,-433.86C69.42,-353.12 99.85,-113.05 149.24,-54.5 154.97,-47.71 162.37,-42.34 170.33,-38.09"/>
<polygon fill="midnightblue" stroke="midnightblue" points="56.91,-433.84 59.3,-444.16 63.87,-434.6 56.91,-433.84"/>
</g>
</g>
</svg>
