<?xml version="1.0" encoding="UTF-8" standalone="no"?>
<!DOCTYPE svg PUBLIC "-//W3C//DTD SVG 1.1//EN"
 "http://www.w3.org/Graphics/SVG/1.1/DTD/svg11.dtd">
<!-- Generated by graphviz version 2.46.0 (0)
 -->
<!-- Title: Graphical Class Hierarchy Pages: 1 -->
<svg width="271pt" height="68pt"
 viewBox="0.00 0.00 271.05 68.00" xmlns="http://www.w3.org/2000/svg" xmlns:xlink="http://www.w3.org/1999/xlink">
<g id="graph0" class="graph" transform="scale(1 1) rotate(0) translate(4 64)">
<title>Graphical Class Hierarchy</title>
<polygon fill="white" stroke="transparent" points="-4,4 -4,-64 267.05,-64 267.05,4 -4,4"/>
<!-- Node0 -->
<g id="node1" class="node">
<title>Node0</title>
<g id="a_node1"><a xlink:href="classhaldls_1_1vx_1_1detail_1_1_phy_config_base.html" target="_top" xlink:title="Common base class for PhyConfig of the FPGA&#45; and chip&#45;side PHYs.">
<polygon fill="white" stroke="black" points="0,-13.5 0,-45.5 90.47,-45.5 90.47,-13.5 0,-13.5"/>
<text text-anchor="start" x="8" y="-32.5" font-family="Helvetica,sans-Serif" font-size="10.00">haldls::vx::detail</text>
<text text-anchor="middle" x="45.23" y="-20.5" font-family="Helvetica,sans-Serif" font-size="10.00">::PhyConfigBase</text>
</a>
</g>
</g>
<!-- Node1 -->
<g id="node2" class="node">
<title>Node1</title>
<g id="a_node2"><a xlink:href="classhaldls_1_1vx_1_1_phy_config_chip.html" target="_top" xlink:title="Container for individual configuration of chip&#45;side PHYs.">
<polygon fill="white" stroke="black" points="129.8,-39.5 129.8,-59.5 259.71,-59.5 259.71,-39.5 129.8,-39.5"/>
<text text-anchor="middle" x="194.76" y="-46.5" font-family="Helvetica,sans-Serif" font-size="10.00">haldls::vx::PhyConfigChip</text>
</a>
</g>
</g>
<!-- Node0&#45;&gt;Node1 -->
<g id="edge1" class="edge">
<title>Node0&#45;&gt;Node1</title>
<path fill="none" stroke="midnightblue" d="M100.55,-36.86C110.01,-38.15 119.93,-39.49 129.62,-40.8"/>
<polygon fill="midnightblue" stroke="midnightblue" points="100.87,-33.38 90.5,-35.5 99.93,-40.31 100.87,-33.38"/>
</g>
<!-- Node2 -->
<g id="node3" class="node">
<title>Node2</title>
<g id="a_node3"><a xlink:href="classhaldls_1_1vx_1_1_phy_config_f_p_g_a.html" target="_top" xlink:title="Container for individual configuration of FPGA&#45;side PHYs.">
<polygon fill="white" stroke="black" points="126.47,-0.5 126.47,-20.5 263.05,-20.5 263.05,-0.5 126.47,-0.5"/>
<text text-anchor="middle" x="194.76" y="-7.5" font-family="Helvetica,sans-Serif" font-size="10.00">haldls::vx::PhyConfigFPGA</text>
</a>
</g>
</g>
<!-- Node0&#45;&gt;Node2 -->
<g id="edge2" class="edge">
<title>Node0&#45;&gt;Node2</title>
<path fill="none" stroke="midnightblue" d="M100.53,-22.51C108.93,-21.43 117.69,-20.3 126.33,-19.18"/>
<polygon fill="midnightblue" stroke="midnightblue" points="99.97,-19.05 90.5,-23.8 100.86,-25.99 99.97,-19.05"/>
</g>
</g>
</svg>
