<?xml version="1.0" encoding="UTF-8" standalone="no"?>
<!DOCTYPE svg PUBLIC "-//W3C//DTD SVG 1.1//EN"
 "http://www.w3.org/Graphics/SVG/1.1/DTD/svg11.dtd">
<!-- Generated by graphviz version 2.46.0 (0)
 -->
<!-- Title: Graphical Class Hierarchy Pages: 1 -->
<svg width="351pt" height="77pt"
 viewBox="0.00 0.00 351.33 77.00" xmlns="http://www.w3.org/2000/svg" xmlns:xlink="http://www.w3.org/1999/xlink">
<g id="graph0" class="graph" transform="scale(1 1) rotate(0) translate(4 73)">
<title>Graphical Class Hierarchy</title>
<polygon fill="white" stroke="transparent" points="-4,4 -4,-73 347.33,-73 347.33,4 -4,4"/>
<!-- Node0 -->
<g id="node1" class="node">
<title>Node0</title>
<g id="a_node1"><a xlink:href="structhaldls_1_1vx_1_1detail_1_1_backend_container_base.html" target="_top" xlink:title=" ">
<polygon fill="white" stroke="black" points="0,-0.5 0,-68.5 150.75,-68.5 150.75,-0.5 0,-0.5"/>
<text text-anchor="start" x="8" y="-55.5" font-family="Helvetica,sans-Serif" font-size="10.00">haldls::vx::detail</text>
<text text-anchor="start" x="8" y="-43.5" font-family="Helvetica,sans-Serif" font-size="10.00">::BackendContainerBase</text>
<text text-anchor="start" x="8" y="-31.5" font-family="Helvetica,sans-Serif" font-size="10.00">&lt; PollingOmnibusBlockConfig,</text>
<text text-anchor="start" x="8" y="-19.5" font-family="Helvetica,sans-Serif" font-size="10.00"> fisch::vx::word_access_type</text>
<text text-anchor="middle" x="75.37" y="-7.5" font-family="Helvetica,sans-Serif" font-size="10.00">::Omnibus &gt;</text>
</a>
</g>
</g>
<!-- Node1 -->
<g id="node2" class="node">
<title>Node1</title>
<g id="a_node2"><a xlink:href="structhaldls_1_1vx_1_1detail_1_1_backend_container_trait_3_01_polling_omnibus_block_config_01_4.html" target="_top" xlink:title=" ">
<polygon fill="white" stroke="black" points="186.75,-12.5 186.75,-56.5 343.33,-56.5 343.33,-12.5 186.75,-12.5"/>
<text text-anchor="start" x="194.75" y="-43.5" font-family="Helvetica,sans-Serif" font-size="10.00">haldls::vx::detail</text>
<text text-anchor="start" x="194.75" y="-31.5" font-family="Helvetica,sans-Serif" font-size="10.00">::BackendContainerTrait</text>
<text text-anchor="middle" x="265.04" y="-19.5" font-family="Helvetica,sans-Serif" font-size="10.00">&lt; PollingOmnibusBlockConfig &gt;</text>
</a>
</g>
</g>
<!-- Node0&#45;&gt;Node1 -->
<g id="edge1" class="edge">
<title>Node0&#45;&gt;Node1</title>
<path fill="none" stroke="midnightblue" d="M160.83,-34.5C169.41,-34.5 178.1,-34.5 186.61,-34.5"/>
<polygon fill="midnightblue" stroke="midnightblue" points="160.81,-31 150.81,-34.5 160.81,-38 160.81,-31"/>
</g>
</g>
</svg>
