<?xml version="1.0" encoding="UTF-8" standalone="no"?>
<!DOCTYPE svg PUBLIC "-//W3C//DTD SVG 1.1//EN"
 "http://www.w3.org/Graphics/SVG/1.1/DTD/svg11.dtd">
<!-- Generated by graphviz version 2.46.0 (0)
 -->
<!-- Title: /jenkins/jenlib_workspaces_f9/bld_nightly&#45;haldls.YmxkX25pZ2h0bHktaGFsZGxzIzEzNzk.x/haldls/include/haldls/vx/is_writereadable.h Pages: 1 -->
<svg width="388pt" height="191pt"
 viewBox="0.00 0.00 388.46 191.00" xmlns="http://www.w3.org/2000/svg" xmlns:xlink="http://www.w3.org/1999/xlink">
<g id="graph0" class="graph" transform="scale(1 1) rotate(0) translate(4 187)">
<title>/jenkins/jenlib_workspaces_f9/bld_nightly&#45;haldls.YmxkX25pZ2h0bHktaGFsZGxzIzEzNzk.x/haldls/include/haldls/vx/is_writereadable.h</title>
<polygon fill="white" stroke="transparent" points="-4,4 -4,-187 384.46,-187 384.46,4 -4,4"/>
<!-- Node1 -->
<g id="node1" class="node">
<title>Node1</title>
<g id="a_node1"><a xlink:title=" ">
<polygon fill="#bfbfbf" stroke="black" points="74.55,-126.5 74.55,-182.5 255.57,-182.5 255.57,-126.5 74.55,-126.5"/>
<text text-anchor="start" x="82.55" y="-169.5" font-family="Helvetica,sans-Serif" font-size="10.00">/jenkins/jenlib_workspaces</text>
<text text-anchor="start" x="82.55" y="-157.5" font-family="Helvetica,sans-Serif" font-size="10.00">_f9/bld_nightly&#45;haldls.YmxkX25p</text>
<text text-anchor="start" x="82.55" y="-145.5" font-family="Helvetica,sans-Serif" font-size="10.00">Z2h0bHktaGFsZGxzIzEzNzk.x/haldls</text>
<text text-anchor="middle" x="165.06" y="-133.5" font-family="Helvetica,sans-Serif" font-size="10.00">/include/haldls/vx/is_writereadable.h</text>
</a>
</g>
</g>
<!-- Node2 -->
<g id="node2" class="node">
<title>Node2</title>
<g id="a_node2"><a xlink:href="is__readable_8h.html" target="_top" xlink:title=" ">
<polygon fill="white" stroke="black" points="38.21,-69.5 38.21,-89.5 155.9,-89.5 155.9,-69.5 38.21,-69.5"/>
<text text-anchor="middle" x="97.06" y="-76.5" font-family="Helvetica,sans-Serif" font-size="10.00">haldls/vx/is_readable.h</text>
</a>
</g>
</g>
<!-- Node1&#45;&gt;Node2 -->
<g id="edge1" class="edge">
<title>Node1&#45;&gt;Node2</title>
<path fill="none" stroke="midnightblue" d="M139.74,-126.32C130.58,-116.49 120.52,-105.69 112.47,-97.05"/>
<polygon fill="midnightblue" stroke="midnightblue" points="114.84,-94.46 105.47,-89.52 109.72,-99.23 114.84,-94.46"/>
</g>
<!-- Node5 -->
<g id="node5" class="node">
<title>Node5</title>
<g id="a_node5"><a xlink:href="is__writeable_8h.html" target="_top" xlink:title=" ">
<polygon fill="white" stroke="black" points="173.66,-69.5 173.66,-89.5 292.45,-89.5 292.45,-69.5 173.66,-69.5"/>
<text text-anchor="middle" x="233.06" y="-76.5" font-family="Helvetica,sans-Serif" font-size="10.00">haldls/vx/is_writeable.h</text>
</a>
</g>
</g>
<!-- Node1&#45;&gt;Node5 -->
<g id="edge4" class="edge">
<title>Node1&#45;&gt;Node5</title>
<path fill="none" stroke="midnightblue" d="M190.38,-126.32C199.54,-116.49 209.59,-105.69 217.64,-97.05"/>
<polygon fill="midnightblue" stroke="midnightblue" points="220.4,-99.23 224.65,-89.52 215.28,-94.46 220.4,-99.23"/>
</g>
<!-- Node3 -->
<g id="node3" class="node">
<title>Node3</title>
<g id="a_node3"><a xlink:title=" ">
<polygon fill="white" stroke="#bfbfbf" points="0,-6.5 0,-26.5 82.12,-26.5 82.12,-6.5 0,-6.5"/>
<text text-anchor="middle" x="41.06" y="-13.5" font-family="Helvetica,sans-Serif" font-size="10.00">fisch/vx/traits.h</text>
</a>
</g>
</g>
<!-- Node2&#45;&gt;Node3 -->
<g id="edge2" class="edge">
<title>Node2&#45;&gt;Node3</title>
<path fill="none" stroke="midnightblue" d="M88.8,-69.5C80.28,-60.22 66.8,-45.53 56.33,-34.13"/>
<polygon fill="midnightblue" stroke="midnightblue" points="58.7,-31.54 49.36,-26.54 53.54,-36.27 58.7,-31.54"/>
</g>
<!-- Node4 -->
<g id="node4" class="node">
<title>Node4</title>
<g id="a_node4"><a xlink:title=" ">
<polygon fill="white" stroke="#bfbfbf" points="100.44,-6.5 100.44,-26.5 183.68,-26.5 183.68,-6.5 100.44,-6.5"/>
<text text-anchor="middle" x="142.06" y="-13.5" font-family="Helvetica,sans-Serif" font-size="10.00">hate/type_list.h</text>
</a>
</g>
</g>
<!-- Node2&#45;&gt;Node4 -->
<g id="edge3" class="edge">
<title>Node2&#45;&gt;Node4</title>
<path fill="none" stroke="midnightblue" d="M103.7,-69.5C110.41,-60.4 120.96,-46.1 129.3,-34.8"/>
<polygon fill="midnightblue" stroke="midnightblue" points="132.27,-36.66 135.39,-26.54 126.64,-32.51 132.27,-36.66"/>
</g>
<!-- Node5&#45;&gt;Node4 -->
<g id="edge7" class="edge">
<title>Node5&#45;&gt;Node4</title>
<path fill="none" stroke="midnightblue" d="M219.63,-69.5C204.98,-59.68 181.3,-43.81 163.95,-32.18"/>
<polygon fill="midnightblue" stroke="midnightblue" points="165.8,-29.2 155.54,-26.54 161.9,-35.01 165.8,-29.2"/>
</g>
<!-- Node6 -->
<g id="node6" class="node">
<title>Node6</title>
<g id="a_node6"><a xlink:title=" ">
<polygon fill="white" stroke="#bfbfbf" points="202,-6.5 202,-26.5 264.12,-26.5 264.12,-6.5 202,-6.5"/>
<text text-anchor="middle" x="233.06" y="-13.5" font-family="Helvetica,sans-Serif" font-size="10.00">type_traits</text>
</a>
</g>
</g>
<!-- Node5&#45;&gt;Node6 -->
<g id="edge5" class="edge">
<title>Node5&#45;&gt;Node6</title>
<path fill="none" stroke="midnightblue" d="M233.06,-69.5C233.06,-60.94 233.06,-47.78 233.06,-36.85"/>
<polygon fill="midnightblue" stroke="midnightblue" points="236.56,-36.54 233.06,-26.54 229.56,-36.54 236.56,-36.54"/>
</g>
<!-- Node7 -->
<g id="node7" class="node">
<title>Node7</title>
<g id="a_node7"><a xlink:title=" ">
<polygon fill="white" stroke="#bfbfbf" points="281.66,-0.5 281.66,-32.5 380.46,-32.5 380.46,-0.5 281.66,-0.5"/>
<text text-anchor="start" x="289.66" y="-19.5" font-family="Helvetica,sans-Serif" font-size="10.00">boost/utility/enable</text>
<text text-anchor="middle" x="331.06" y="-7.5" font-family="Helvetica,sans-Serif" font-size="10.00">_if.hpp</text>
</a>
</g>
</g>
<!-- Node5&#45;&gt;Node7 -->
<g id="edge6" class="edge">
<title>Node5&#45;&gt;Node7</title>
<path fill="none" stroke="midnightblue" d="M247.52,-69.5C260.76,-61.26 280.84,-48.76 298,-38.08"/>
<polygon fill="midnightblue" stroke="midnightblue" points="300.01,-40.95 306.65,-32.69 296.31,-35 300.01,-40.95"/>
</g>
</g>
</svg>
