<?xml version="1.0" encoding="UTF-8" standalone="no"?>
<!DOCTYPE svg PUBLIC "-//W3C//DTD SVG 1.1//EN"
 "http://www.w3.org/Graphics/SVG/1.1/DTD/svg11.dtd">
<!-- Generated by graphviz version 2.46.0 (0)
 -->
<!-- Title: /jenkins/jenlib_workspaces_f9/bld_nightly&#45;haldls.YmxkX25pZ2h0bHktaGFsZGxzIzEzNzk.x/haldls/include/haldls/vx/is_writeable.h Pages: 1 -->
<svg width="288pt" height="134pt"
 viewBox="0.00 0.00 287.68 134.00" xmlns="http://www.w3.org/2000/svg" xmlns:xlink="http://www.w3.org/1999/xlink">
<g id="graph0" class="graph" transform="scale(1 1) rotate(0) translate(4 130)">
<title>/jenkins/jenlib_workspaces_f9/bld_nightly&#45;haldls.YmxkX25pZ2h0bHktaGFsZGxzIzEzNzk.x/haldls/include/haldls/vx/is_writeable.h</title>
<polygon fill="white" stroke="transparent" points="-4,4 -4,-130 283.68,-130 283.68,4 -4,4"/>
<!-- Node1 -->
<g id="node1" class="node">
<title>Node1</title>
<g id="a_node1"><a xlink:title=" ">
<polygon fill="#bfbfbf" stroke="black" points="38.55,-69.5 38.55,-125.5 219.57,-125.5 219.57,-69.5 38.55,-69.5"/>
<text text-anchor="start" x="46.55" y="-112.5" font-family="Helvetica,sans-Serif" font-size="10.00">/jenkins/jenlib_workspaces</text>
<text text-anchor="start" x="46.55" y="-100.5" font-family="Helvetica,sans-Serif" font-size="10.00">_f9/bld_nightly&#45;haldls.YmxkX25p</text>
<text text-anchor="start" x="46.55" y="-88.5" font-family="Helvetica,sans-Serif" font-size="10.00">Z2h0bHktaGFsZGxzIzEzNzk.x/haldls</text>
<text text-anchor="middle" x="129.06" y="-76.5" font-family="Helvetica,sans-Serif" font-size="10.00">/include/haldls/vx/is_writeable.h</text>
</a>
</g>
</g>
<!-- Node2 -->
<g id="node2" class="node">
<title>Node2</title>
<g id="a_node2"><a xlink:title=" ">
<polygon fill="white" stroke="#bfbfbf" points="0,-6.5 0,-26.5 62.12,-26.5 62.12,-6.5 0,-6.5"/>
<text text-anchor="middle" x="31.06" y="-13.5" font-family="Helvetica,sans-Serif" font-size="10.00">type_traits</text>
</a>
</g>
</g>
<!-- Node1&#45;&gt;Node2 -->
<g id="edge1" class="edge">
<title>Node1&#45;&gt;Node2</title>
<path fill="none" stroke="midnightblue" d="M95.33,-69.31C80.4,-57.27 63.36,-43.54 50.58,-33.24"/>
<polygon fill="midnightblue" stroke="midnightblue" points="52.47,-30.27 42.49,-26.71 48.08,-35.72 52.47,-30.27"/>
</g>
<!-- Node3 -->
<g id="node3" class="node">
<title>Node3</title>
<g id="a_node3"><a xlink:title=" ">
<polygon fill="white" stroke="#bfbfbf" points="79.66,-0.5 79.66,-32.5 178.46,-32.5 178.46,-0.5 79.66,-0.5"/>
<text text-anchor="start" x="87.66" y="-19.5" font-family="Helvetica,sans-Serif" font-size="10.00">boost/utility/enable</text>
<text text-anchor="middle" x="129.06" y="-7.5" font-family="Helvetica,sans-Serif" font-size="10.00">_if.hpp</text>
</a>
</g>
</g>
<!-- Node1&#45;&gt;Node3 -->
<g id="edge2" class="edge">
<title>Node1&#45;&gt;Node3</title>
<path fill="none" stroke="midnightblue" d="M129.06,-69.31C129.06,-60.65 129.06,-51.11 129.06,-42.6"/>
<polygon fill="midnightblue" stroke="midnightblue" points="132.56,-42.52 129.06,-32.52 125.56,-42.52 132.56,-42.52"/>
</g>
<!-- Node4 -->
<g id="node4" class="node">
<title>Node4</title>
<g id="a_node4"><a xlink:title=" ">
<polygon fill="white" stroke="#bfbfbf" points="196.44,-6.5 196.44,-26.5 279.68,-26.5 279.68,-6.5 196.44,-6.5"/>
<text text-anchor="middle" x="238.06" y="-13.5" font-family="Helvetica,sans-Serif" font-size="10.00">hate/type_list.h</text>
</a>
</g>
</g>
<!-- Node1&#45;&gt;Node4 -->
<g id="edge3" class="edge">
<title>Node1&#45;&gt;Node4</title>
<path fill="none" stroke="midnightblue" d="M166.57,-69.31C183.61,-56.97 203.1,-42.84 217.42,-32.46"/>
<polygon fill="midnightblue" stroke="midnightblue" points="219.56,-35.23 225.6,-26.53 215.45,-29.56 219.56,-35.23"/>
</g>
</g>
</svg>
