<?xml version="1.0" encoding="UTF-8" standalone="no"?>
<!DOCTYPE svg PUBLIC "-//W3C//DTD SVG 1.1//EN"
 "http://www.w3.org/Graphics/SVG/1.1/DTD/svg11.dtd">
<!-- Generated by graphviz version 2.46.0 (0)
 -->
<!-- Title: /jenkins/jenlib_workspaces_f9/bld_nightly&#45;haldls.YmxkX25pZ2h0bHktaGFsZGxzIzEzNzk.x/haldls/include/haldls/vx/is_read_and_writable.h Pages: 1 -->
<!--zoomable 215 -->
<svg id="main" version="1.1" xmlns="http://www.w3.org/2000/svg" xmlns:xlink="http://www.w3.org/1999/xlink" xml:space="preserve" onload="init(evt)">
<style type="text/css"><![CDATA[
.edge:hover path { stroke: red; }
.edge:hover polygon { stroke: red; fill: red; }
]]></style>
<script type="text/javascript"><![CDATA[
var edges = document.getElementsByTagName('g');
if (edges && edges.length) {
  for (var i=0;i<edges.length;i++) {
    if (edges[i].id.substr(0,4)=='edge') {
      edges[i].setAttribute('class','edge');
    }
  }
}
]]></script>
        <defs>
                <circle id="rim" cx="0" cy="0" r="7"/>
                <circle id="rim2" cx="0" cy="0" r="3.5"/>
                <g id="zoomPlus">
                        <use xlink:href="#rim" fill="#404040">
                                <set attributeName="fill" to="#808080" begin="zoomplus.mouseover" end="zoomplus.mouseout"/>
                        </use>
                        <path d="M-4,0h8M0,-4v8" fill="none" stroke="white" stroke-width="1.5" pointer-events="none"/>
                </g>
                <g id="zoomMin">
                        <use xlink:href="#rim" fill="#404040">
                                <set attributeName="fill" to="#808080" begin="zoomminus.mouseover" end="zoomminus.mouseout"/>
                        </use>
                        <path d="M-4,0h8" fill="none" stroke="white" stroke-width="1.5" pointer-events="none"/>
                </g>
                <g id="dirArrow">
                        <path fill="none" stroke="white" stroke-width="1.5" d="M0,-3.0v7 M-2.5,-0.5L0,-3.0L2.5,-0.5"/>
                </g>
               <g id="resetDef">
                       <use xlink:href="#rim2" fill="#404040">
                               <set attributeName="fill" to="#808080" begin="reset.mouseover" end="reset.mouseout"/>
                       </use>
               </g>
        </defs>

<script type="text/javascript">
var viewWidth = 1003;
var viewHeight = 215;
var sectionId = 'dynsection-0';
</script>
<script xlink:href="svgpan.js"/>
<svg id="graph" class="graph">
<g id="viewport">
<title>/jenkins/jenlib_workspaces_f9/bld_nightly&#45;haldls.YmxkX25pZ2h0bHktaGFsZGxzIzEzNzk.x/haldls/include/haldls/vx/is_read_and_writable.h</title>
<polygon fill="white" stroke="transparent" points="-4,4 -4,-211 999.12,-211 999.12,4 -4,4"/>
<!-- Node1 -->
<g id="node1" class="node">
<title>Node1</title>
<g id="a_node1"><a xlink:title=" ">
<polygon fill="#bfbfbf" stroke="black" points="297.55,-138.5 297.55,-206.5 478.57,-206.5 478.57,-138.5 297.55,-138.5"/>
<text text-anchor="start" x="305.55" y="-193.5" font-family="Helvetica,sans-Serif" font-size="10.00">/jenkins/jenlib_workspaces</text>
<text text-anchor="start" x="305.55" y="-181.5" font-family="Helvetica,sans-Serif" font-size="10.00">_f9/bld_nightly&#45;haldls.YmxkX25p</text>
<text text-anchor="start" x="305.55" y="-169.5" font-family="Helvetica,sans-Serif" font-size="10.00">Z2h0bHktaGFsZGxzIzEzNzk.x/haldls</text>
<text text-anchor="start" x="305.55" y="-157.5" font-family="Helvetica,sans-Serif" font-size="10.00">/include/haldls/vx/is_read_and</text>
<text text-anchor="middle" x="388.06" y="-145.5" font-family="Helvetica,sans-Serif" font-size="10.00">_writable.h</text>
</a>
</g>
</g>
<!-- Node2 -->
<g id="node2" class="node">
<title>Node2</title>
<g id="a_node2"><a xlink:title=" ">
<polygon fill="white" stroke="#bfbfbf" points="192.44,-69.5 192.44,-101.5 285.68,-101.5 285.68,-69.5 192.44,-69.5"/>
<text text-anchor="start" x="200.44" y="-88.5" font-family="Helvetica,sans-Serif" font-size="10.00">fisch/vx/container</text>
<text text-anchor="middle" x="239.06" y="-76.5" font-family="Helvetica,sans-Serif" font-size="10.00">_cast.h</text>
</a>
</g>
</g>
<!-- Node1&#45;&gt;Node2 -->
<g id="edge1" class="edge">
<title>Node1&#45;&gt;Node2</title>
<path fill="none" stroke="midnightblue" d="M330.03,-138.39C311.27,-127.7 291.05,-116.16 274.45,-106.69"/>
<polygon fill="midnightblue" stroke="midnightblue" points="276.05,-103.57 265.63,-101.66 272.58,-109.65 276.05,-103.57"/>
</g>
<!-- Node3 -->
<g id="node3" class="node">
<title>Node3</title>
<g id="a_node3"><a xlink:title=" ">
<polygon fill="white" stroke="#bfbfbf" points="0,-6.5 0,-26.5 82.12,-26.5 82.12,-6.5 0,-6.5"/>
<text text-anchor="middle" x="41.06" y="-13.5" font-family="Helvetica,sans-Serif" font-size="10.00">fisch/vx/traits.h</text>
</a>
</g>
</g>
<!-- Node1&#45;&gt;Node3 -->
<g id="edge2" class="edge">
<title>Node1&#45;&gt;Node3</title>
<path fill="none" stroke="midnightblue" d="M359.86,-138.33C335.58,-110.13 303.21,-73.5 295.06,-69 214.45,-24.51 180.54,-54.67 91.06,-33 86.72,-31.95 82.2,-30.73 77.74,-29.45"/>
<polygon fill="midnightblue" stroke="midnightblue" points="78.72,-26.09 68.13,-26.57 76.71,-32.79 78.72,-26.09"/>
</g>
<!-- Node4 -->
<g id="node4" class="node">
<title>Node4</title>
<g id="a_node4"><a xlink:href="traits_8h.html" target="_top" xlink:title=" ">
<polygon fill="white" stroke="black" points="380.22,-75.5 380.22,-95.5 467.9,-95.5 467.9,-75.5 380.22,-75.5"/>
<text text-anchor="middle" x="424.06" y="-82.5" font-family="Helvetica,sans-Serif" font-size="10.00">haldls/vx/traits.h</text>
</a>
</g>
</g>
<!-- Node1&#45;&gt;Node4 -->
<g id="edge3" class="edge">
<title>Node1&#45;&gt;Node4</title>
<path fill="none" stroke="midnightblue" d="M402.08,-138.39C406.84,-127.17 411.98,-115.02 416.1,-105.3"/>
<polygon fill="midnightblue" stroke="midnightblue" points="419.42,-106.44 420.09,-95.87 412.97,-103.71 419.42,-106.44"/>
</g>
<!-- Node7 -->
<g id="node7" class="node">
<title>Node7</title>
<g id="a_node7"><a xlink:title=" ">
<polygon fill="white" stroke="#bfbfbf" points="100.44,-6.5 100.44,-26.5 183.68,-26.5 183.68,-6.5 100.44,-6.5"/>
<text text-anchor="middle" x="142.06" y="-13.5" font-family="Helvetica,sans-Serif" font-size="10.00">hate/type_list.h</text>
</a>
</g>
</g>
<!-- Node1&#45;&gt;Node7 -->
<g id="edge14" class="edge">
<title>Node1&#45;&gt;Node7</title>
<path fill="none" stroke="midnightblue" d="M376.41,-138.21C366.82,-115.51 351.02,-86.49 328.06,-69 278.66,-31.38 252.77,-50.03 193.06,-33 189.05,-31.86 184.88,-30.64 180.72,-29.4"/>
<polygon fill="midnightblue" stroke="midnightblue" points="181.72,-26.05 171.14,-26.53 179.71,-32.75 181.72,-26.05"/>
</g>
<!-- Node9 -->
<g id="node9" class="node">
<title>Node9</title>
<g id="a_node9"><a xlink:title=" ">
<polygon fill="white" stroke="#bfbfbf" points="933,-6.5 933,-26.5 995.12,-26.5 995.12,-6.5 933,-6.5"/>
<text text-anchor="middle" x="964.06" y="-13.5" font-family="Helvetica,sans-Serif" font-size="10.00">type_traits</text>
</a>
</g>
</g>
<!-- Node1&#45;&gt;Node9 -->
<g id="edge16" class="edge">
<title>Node1&#45;&gt;Node9</title>
<path fill="none" stroke="midnightblue" d="M431.42,-138.36C446.05,-127 462.38,-114.09 477.06,-102 494.32,-87.78 494.47,-77.74 515.06,-69 683.03,2.3 746.33,-74.38 924.06,-33 927.5,-32.2 931.04,-31.16 934.52,-30.01"/>
<polygon fill="midnightblue" stroke="midnightblue" points="935.87,-33.24 944.06,-26.52 933.47,-26.66 935.87,-33.24"/>
</g>
<!-- Node13 -->
<g id="node13" class="node">
<title>Node13</title>
<g id="a_node13"><a xlink:title=" ">
<polygon fill="white" stroke="#bfbfbf" points="523.67,-75.5 523.67,-95.5 562.45,-95.5 562.45,-75.5 523.67,-75.5"/>
<text text-anchor="middle" x="543.06" y="-82.5" font-family="Helvetica,sans-Serif" font-size="10.00">array</text>
</a>
</g>
</g>
<!-- Node1&#45;&gt;Node13 -->
<g id="edge15" class="edge">
<title>Node1&#45;&gt;Node13</title>
<path fill="none" stroke="midnightblue" d="M448.43,-138.39C472.43,-125.23 498.73,-110.81 517.5,-100.52"/>
<polygon fill="midnightblue" stroke="midnightblue" points="519.24,-103.56 526.32,-95.68 515.87,-97.42 519.24,-103.56"/>
</g>
<!-- Node4&#45;&gt;Node3 -->
<g id="edge4" class="edge">
<title>Node4&#45;&gt;Node3</title>
<path fill="none" stroke="midnightblue" d="M380.1,-77.31C363.77,-74.67 345.07,-71.67 328.06,-69 222.8,-52.51 194.9,-56.84 91.06,-33 86.6,-31.98 81.97,-30.76 77.4,-29.46"/>
<polygon fill="midnightblue" stroke="midnightblue" points="78.17,-26.04 67.58,-26.53 76.17,-32.74 78.17,-26.04"/>
</g>
<!-- Node5 -->
<g id="node5" class="node">
<title>Node5</title>
<g id="a_node5"><a xlink:title=" ">
<polygon fill="white" stroke="#bfbfbf" points="556.83,-0.5 556.83,-32.5 667.29,-32.5 667.29,-0.5 556.83,-0.5"/>
<text text-anchor="start" x="564.83" y="-19.5" font-family="Helvetica,sans-Serif" font-size="10.00">fisch/vx/word_access</text>
<text text-anchor="middle" x="612.06" y="-7.5" font-family="Helvetica,sans-Serif" font-size="10.00">_type.h</text>
</a>
</g>
</g>
<!-- Node4&#45;&gt;Node5 -->
<g id="edge5" class="edge">
<title>Node4&#45;&gt;Node5</title>
<path fill="none" stroke="midnightblue" d="M449.41,-75.46C477.63,-65.41 523.99,-48.89 560.01,-36.05"/>
<polygon fill="midnightblue" stroke="midnightblue" points="561.63,-39.19 569.88,-32.53 559.28,-32.59 561.63,-39.19"/>
</g>
<!-- Node6 -->
<g id="node6" class="node">
<title>Node6</title>
<g id="a_node6"><a xlink:href="genpybind_8h.html" target="_top" xlink:title=" ">
<polygon fill="white" stroke="black" points="684.99,-6.5 684.99,-26.5 797.13,-26.5 797.13,-6.5 684.99,-6.5"/>
<text text-anchor="middle" x="741.06" y="-13.5" font-family="Helvetica,sans-Serif" font-size="10.00">haldls/vx/genpybind.h</text>
</a>
</g>
</g>
<!-- Node4&#45;&gt;Node6 -->
<g id="edge6" class="edge">
<title>Node4&#45;&gt;Node6</title>
<path fill="none" stroke="midnightblue" d="M456.16,-75.44C464.56,-73.21 473.62,-70.91 482.06,-69 567.6,-49.66 590.27,-51.18 676.06,-33 682.17,-31.71 688.58,-30.27 694.9,-28.81"/>
<polygon fill="midnightblue" stroke="midnightblue" points="695.75,-32.21 704.69,-26.52 694.16,-25.39 695.75,-32.21"/>
</g>
<!-- Node4&#45;&gt;Node7 -->
<g id="edge8" class="edge">
<title>Node4&#45;&gt;Node7</title>
<path fill="none" stroke="midnightblue" d="M391.62,-75.49C383.31,-73.27 374.37,-70.97 366.06,-69 289.65,-50.85 269.15,-52.44 193.06,-33 188.87,-31.93 184.52,-30.74 180.19,-29.5"/>
<polygon fill="midnightblue" stroke="midnightblue" points="180.84,-26.04 170.26,-26.56 178.86,-32.75 180.84,-26.04"/>
</g>
<!-- Node8 -->
<g id="node8" class="node">
<title>Node8</title>
<g id="a_node8"><a xlink:title=" ">
<polygon fill="white" stroke="#bfbfbf" points="833.56,-6.5 833.56,-26.5 914.56,-26.5 914.56,-6.5 833.56,-6.5"/>
<text text-anchor="middle" x="874.06" y="-13.5" font-family="Helvetica,sans-Serif" font-size="10.00">hate/visibility.h</text>
</a>
</g>
</g>
<!-- Node4&#45;&gt;Node8 -->
<g id="edge9" class="edge">
<title>Node4&#45;&gt;Node8</title>
<path fill="none" stroke="midnightblue" d="M454.26,-75.47C463.15,-73.08 472.94,-70.69 482.06,-69 632.35,-41.18 674.35,-63.78 824.06,-33 828.82,-32.02 833.77,-30.78 838.62,-29.42"/>
<polygon fill="midnightblue" stroke="midnightblue" points="839.77,-32.73 848.36,-26.52 837.78,-26.02 839.77,-32.73"/>
</g>
<!-- Node4&#45;&gt;Node9 -->
<g id="edge10" class="edge">
<title>Node4&#45;&gt;Node9</title>
<path fill="none" stroke="midnightblue" d="M453.64,-75.5C462.68,-73.04 472.71,-70.62 482.06,-69 676.27,-35.42 731.95,-77.06 924.06,-33 927.5,-32.21 931.04,-31.18 934.53,-30.03"/>
<polygon fill="midnightblue" stroke="midnightblue" points="935.87,-33.26 944.07,-26.55 933.47,-26.69 935.87,-33.26"/>
</g>
<!-- Node10 -->
<g id="node10" class="node">
<title>Node10</title>
<g id="a_node10"><a xlink:title=" ">
<polygon fill="white" stroke="#bfbfbf" points="201.66,-0.5 201.66,-32.5 300.46,-32.5 300.46,-0.5 201.66,-0.5"/>
<text text-anchor="start" x="209.66" y="-19.5" font-family="Helvetica,sans-Serif" font-size="10.00">boost/utility/enable</text>
<text text-anchor="middle" x="251.06" y="-7.5" font-family="Helvetica,sans-Serif" font-size="10.00">_if.hpp</text>
</a>
</g>
</g>
<!-- Node4&#45;&gt;Node10 -->
<g id="edge11" class="edge">
<title>Node4&#45;&gt;Node10</title>
<path fill="none" stroke="midnightblue" d="M400.73,-75.46C374.87,-65.45 332.46,-49.03 299.38,-36.21"/>
<polygon fill="midnightblue" stroke="midnightblue" points="300.47,-32.88 289.88,-32.53 297.94,-39.41 300.47,-32.88"/>
</g>
<!-- Node11 -->
<g id="node11" class="node">
<title>Node11</title>
<g id="a_node11"><a xlink:title=" ">
<polygon fill="white" stroke="#bfbfbf" points="318.71,-6.5 318.71,-26.5 411.41,-26.5 411.41,-6.5 318.71,-6.5"/>
<text text-anchor="middle" x="365.06" y="-13.5" font-family="Helvetica,sans-Serif" font-size="10.00">boost/variant.hpp</text>
</a>
</g>
</g>
<!-- Node4&#45;&gt;Node11 -->
<g id="edge12" class="edge">
<title>Node4&#45;&gt;Node11</title>
<path fill="none" stroke="midnightblue" d="M416.1,-75.46C406.92,-65.03 391.6,-47.64 380.14,-34.63"/>
<polygon fill="midnightblue" stroke="midnightblue" points="382.5,-32.01 373.27,-26.82 377.25,-36.64 382.5,-32.01"/>
</g>
<!-- Node12 -->
<g id="node12" class="node">
<title>Node12</title>
<g id="a_node12"><a xlink:title=" ">
<polygon fill="white" stroke="#bfbfbf" points="429.1,-6.5 429.1,-26.5 539.02,-26.5 539.02,-6.5 429.1,-6.5"/>
<text text-anchor="middle" x="484.06" y="-13.5" font-family="Helvetica,sans-Serif" font-size="10.00">fisch/vx/container.def</text>
</a>
</g>
</g>
<!-- Node4&#45;&gt;Node12 -->
<g id="edge13" class="edge">
<title>Node4&#45;&gt;Node12</title>
<path fill="none" stroke="midnightblue" d="M432.15,-75.46C441.49,-65.03 457.06,-47.64 468.72,-34.63"/>
<polygon fill="midnightblue" stroke="midnightblue" points="471.65,-36.61 475.71,-26.82 466.43,-31.94 471.65,-36.61"/>
</g>
<!-- Node6&#45;&gt;Node6 -->
<g id="edge7" class="edge">
<title>Node6&#45;&gt;Node6</title>
<path fill="none" stroke="midnightblue" d="M764.95,-26.54C788.78,-32.26 815.13,-28.92 815.13,-16.5 815.13,-5.78 795.49,-1.82 774.79,-4.62"/>
<polygon fill="midnightblue" stroke="midnightblue" points="774.14,-1.18 764.95,-6.46 775.43,-8.06 774.14,-1.18"/>
</g>
</g>
</svg>
        <g id="navigator" transform="translate(0 0)" fill="#404254">
                <rect fill="#f2f5e9" fill-opacity="0.5" stroke="#606060" stroke-width=".5" x="0" y="0" width="60" height="60"/>
                <use id="zoomplus" xlink:href="#zoomPlus" x="17" y="9" onmousedown="handleZoom(evt,'in')"/>
                <use id="zoomminus" xlink:href="#zoomMin" x="42" y="9" onmousedown="handleZoom(evt,'out')"/>
                <use id="reset" xlink:href="#resetDef" x="30" y="36" onmousedown="handleReset()"/>
                <g id="arrowUp" xlink:href="#dirArrow" transform="translate(30 24)" onmousedown="handlePan(0,-1)">
                  <use xlink:href="#rim" fill="#404040">
                        <set attributeName="fill" to="#808080" begin="arrowUp.mouseover" end="arrowUp.mouseout"/>
                  </use>
                  <path fill="none" stroke="white" stroke-width="1.5" d="M0,-3.0v7 M-2.5,-0.5L0,-3.0L2.5,-0.5"/>
                </g>
                <g id="arrowRight" xlink:href="#dirArrow" transform="rotate(90) translate(36 -43)" onmousedown="handlePan(1,0)">
                  <use xlink:href="#rim" fill="#404040">
                        <set attributeName="fill" to="#808080" begin="arrowRight.mouseover" end="arrowRight.mouseout"/>
                  </use>
                  <path fill="none" stroke="white" stroke-width="1.5" d="M0,-3.0v7 M-2.5,-0.5L0,-3.0L2.5,-0.5"/>
                </g>
                <g id="arrowDown" xlink:href="#dirArrow" transform="rotate(180) translate(-30 -48)" onmousedown="handlePan(0,1)">
                  <use xlink:href="#rim" fill="#404040">
                        <set attributeName="fill" to="#808080" begin="arrowDown.mouseover" end="arrowDown.mouseout"/>
                  </use>
                  <path fill="none" stroke="white" stroke-width="1.5" d="M0,-3.0v7 M-2.5,-0.5L0,-3.0L2.5,-0.5"/>
                </g>
                <g id="arrowLeft" xlink:href="#dirArrow" transform="rotate(270) translate(-36 17)" onmousedown="handlePan(-1,0)">
                  <use xlink:href="#rim" fill="#404040">
                        <set attributeName="fill" to="#808080" begin="arrowLeft.mouseover" end="arrowLeft.mouseout"/>
                  </use>
                  <path fill="none" stroke="white" stroke-width="1.5" d="M0,-3.0v7 M-2.5,-0.5L0,-3.0L2.5,-0.5"/>
                </g>
        </g>
        <svg viewBox="0 0 15 15" width="100%" height="30px" preserveAspectRatio="xMaxYMin meet">
         <g id="arrow_out" transform="scale(0.3 0.3)">
          <a xlink:href="is__read__and__writable_8h__incl_org.svg" target="_base">
           <rect id="button" ry="5" rx="5" y="6" x="6" height="38" width="38"
                fill="#f2f5e9" fill-opacity="0.5" stroke="#606060" stroke-width="1.0"/>
           <path id="arrow"
             d="M 11.500037,31.436501 C 11.940474,20.09759 22.043105,11.32322 32.158766,21.979434 L 37.068811,17.246167 C 37.068811,17.246167 37.088388,32 37.088388,32 L 22.160133,31.978069 C 22.160133,31.978069 26.997745,27.140456 26.997745,27.140456 C 18.528582,18.264221 13.291696,25.230495 11.500037,31.436501 z"
             style="fill:#404040;"/>
          </a>
         </g>
        </svg>
</svg>
