<?xml version="1.0" encoding="UTF-8" standalone="no"?>
<!DOCTYPE svg PUBLIC "-//W3C//DTD SVG 1.1//EN"
 "http://www.w3.org/Graphics/SVG/1.1/DTD/svg11.dtd">
<!-- Generated by graphviz version 2.46.0 (0)
 -->
<!-- Title: /jenkins/jenlib_workspaces_f9/bld_nightly&#45;haldls.YmxkX25pZ2h0bHktaGFsZGxzIzEzNzk.x/haldls/include/haldls/vx/omnibus_constants.h Pages: 1 -->
<svg width="241pt" height="122pt"
 viewBox="0.00 0.00 241.37 122.00" xmlns="http://www.w3.org/2000/svg" xmlns:xlink="http://www.w3.org/1999/xlink">
<g id="graph0" class="graph" transform="scale(1 1) rotate(0) translate(4 118)">
<title>/jenkins/jenlib_workspaces_f9/bld_nightly&#45;haldls.YmxkX25pZ2h0bHktaGFsZGxzIzEzNzk.x/haldls/include/haldls/vx/omnibus_constants.h</title>
<polygon fill="white" stroke="transparent" points="-4,4 -4,-118 237.37,-118 237.37,4 -4,4"/>
<!-- Node1 -->
<g id="node1" class="node">
<title>Node1</title>
<g id="a_node1"><a xlink:title=" ">
<polygon fill="#bfbfbf" stroke="black" points="0,-57.5 0,-113.5 189.38,-113.5 189.38,-57.5 0,-57.5"/>
<text text-anchor="start" x="8" y="-100.5" font-family="Helvetica,sans-Serif" font-size="10.00">/jenkins/jenlib_workspaces</text>
<text text-anchor="start" x="8" y="-88.5" font-family="Helvetica,sans-Serif" font-size="10.00">_f9/bld_nightly&#45;haldls.YmxkX25p</text>
<text text-anchor="start" x="8" y="-76.5" font-family="Helvetica,sans-Serif" font-size="10.00">Z2h0bHktaGFsZGxzIzEzNzk.x/haldls</text>
<text text-anchor="middle" x="94.69" y="-64.5" font-family="Helvetica,sans-Serif" font-size="10.00">/include/haldls/vx/omnibus_constants.h</text>
</a>
</g>
</g>
<!-- Node2 -->
<g id="node2" class="node">
<title>Node2</title>
<g id="a_node2"><a xlink:title=" ">
<polygon fill="white" stroke="#bfbfbf" points="17.3,-0.5 17.3,-20.5 56.08,-20.5 56.08,-0.5 17.3,-0.5"/>
<text text-anchor="middle" x="36.69" y="-7.5" font-family="Helvetica,sans-Serif" font-size="10.00">array</text>
</a>
</g>
</g>
<!-- Node1&#45;&gt;Node2 -->
<g id="edge1" class="edge">
<title>Node1&#45;&gt;Node2</title>
<path fill="none" stroke="midnightblue" d="M73.09,-57.32C65.44,-47.69 57.06,-37.14 50.26,-28.59"/>
<polygon fill="midnightblue" stroke="midnightblue" points="52.82,-26.18 43.86,-20.52 47.34,-30.53 52.82,-26.18"/>
</g>
<!-- Node3 -->
<g id="node3" class="node">
<title>Node3</title>
<g id="a_node3"><a xlink:title=" ">
<polygon fill="white" stroke="#bfbfbf" points="74.01,-0.5 74.01,-20.5 233.37,-20.5 233.37,-0.5 74.01,-0.5"/>
<text text-anchor="middle" x="153.69" y="-7.5" font-family="Helvetica,sans-Serif" font-size="10.00">haldls/vx/omnibus_constants.tcc</text>
</a>
</g>
</g>
<!-- Node1&#45;&gt;Node3 -->
<g id="edge2" class="edge">
<title>Node1&#45;&gt;Node3</title>
<path fill="none" stroke="midnightblue" d="M116.66,-57.32C124.52,-47.59 133.15,-36.91 140.1,-28.32"/>
<polygon fill="midnightblue" stroke="midnightblue" points="142.83,-30.5 146.4,-20.52 137.39,-26.1 142.83,-30.5"/>
</g>
</g>
</svg>
