<?xml version="1.0" encoding="UTF-8" standalone="no"?>
<!DOCTYPE svg PUBLIC "-//W3C//DTD SVG 1.1//EN"
 "http://www.w3.org/Graphics/SVG/1.1/DTD/svg11.dtd">
<!-- Generated by graphviz version 2.46.0 (0)
 -->
<!-- Title: /jenkins/jenlib_workspaces_f9/bld_nightly&#45;haldls.YmxkX25pZ2h0bHktaGFsZGxzIzEzNzk.x/haldls/include/haldls/vx/padi.h Pages: 1 -->
<!--zoomable 272 -->
<svg id="main" version="1.1" xmlns="http://www.w3.org/2000/svg" xmlns:xlink="http://www.w3.org/1999/xlink" xml:space="preserve" onload="init(evt)">
<style type="text/css"><![CDATA[
.edge:hover path { stroke: red; }
.edge:hover polygon { stroke: red; fill: red; }
]]></style>
<script type="text/javascript"><![CDATA[
var edges = document.getElementsByTagName('g');
if (edges && edges.length) {
  for (var i=0;i<edges.length;i++) {
    if (edges[i].id.substr(0,4)=='edge') {
      edges[i].setAttribute('class','edge');
    }
  }
}
]]></script>
        <defs>
                <circle id="rim" cx="0" cy="0" r="7"/>
                <circle id="rim2" cx="0" cy="0" r="3.5"/>
                <g id="zoomPlus">
                        <use xlink:href="#rim" fill="#404040">
                                <set attributeName="fill" to="#808080" begin="zoomplus.mouseover" end="zoomplus.mouseout"/>
                        </use>
                        <path d="M-4,0h8M0,-4v8" fill="none" stroke="white" stroke-width="1.5" pointer-events="none"/>
                </g>
                <g id="zoomMin">
                        <use xlink:href="#rim" fill="#404040">
                                <set attributeName="fill" to="#808080" begin="zoomminus.mouseover" end="zoomminus.mouseout"/>
                        </use>
                        <path d="M-4,0h8" fill="none" stroke="white" stroke-width="1.5" pointer-events="none"/>
                </g>
                <g id="dirArrow">
                        <path fill="none" stroke="white" stroke-width="1.5" d="M0,-3.0v7 M-2.5,-0.5L0,-3.0L2.5,-0.5"/>
                </g>
               <g id="resetDef">
                       <use xlink:href="#rim2" fill="#404040">
                               <set attributeName="fill" to="#808080" begin="reset.mouseover" end="reset.mouseout"/>
                       </use>
               </g>
        </defs>

<script type="text/javascript">
var viewWidth = 1619;
var viewHeight = 272;
var sectionId = 'dynsection-0';
</script>
<script xlink:href="svgpan.js"/>
<svg id="graph" class="graph">
<g id="viewport">
<title>/jenkins/jenlib_workspaces_f9/bld_nightly&#45;haldls.YmxkX25pZ2h0bHktaGFsZGxzIzEzNzk.x/haldls/include/haldls/vx/padi.h</title>
<polygon fill="white" stroke="transparent" points="-4,4 -4,-268 1614.79,-268 1614.79,4 -4,4"/>
<!-- Node1 -->
<g id="node1" class="node">
<title>Node1</title>
<g id="a_node1"><a xlink:title=" ">
<polygon fill="#bfbfbf" stroke="black" points="574.66,-207.5 574.66,-263.5 755.68,-263.5 755.68,-207.5 574.66,-207.5"/>
<text text-anchor="start" x="582.66" y="-250.5" font-family="Helvetica,sans-Serif" font-size="10.00">/jenkins/jenlib_workspaces</text>
<text text-anchor="start" x="582.66" y="-238.5" font-family="Helvetica,sans-Serif" font-size="10.00">_f9/bld_nightly&#45;haldls.YmxkX25p</text>
<text text-anchor="start" x="582.66" y="-226.5" font-family="Helvetica,sans-Serif" font-size="10.00">Z2h0bHktaGFsZGxzIzEzNzk.x/haldls</text>
<text text-anchor="middle" x="665.17" y="-214.5" font-family="Helvetica,sans-Serif" font-size="10.00">/include/haldls/vx/padi.h</text>
</a>
</g>
</g>
<!-- Node2 -->
<g id="node2" class="node">
<title>Node2</title>
<g id="a_node2"><a xlink:title=" ">
<polygon fill="white" stroke="#bfbfbf" points="473.78,-75.5 473.78,-95.5 512.56,-95.5 512.56,-75.5 473.78,-75.5"/>
<text text-anchor="middle" x="493.17" y="-82.5" font-family="Helvetica,sans-Serif" font-size="10.00">array</text>
</a>
</g>
</g>
<!-- Node1&#45;&gt;Node2 -->
<g id="edge1" class="edge">
<title>Node1&#45;&gt;Node2</title>
<path fill="none" stroke="midnightblue" d="M633.62,-207.35C597.78,-176.52 540.51,-127.24 511.42,-102.2"/>
<polygon fill="midnightblue" stroke="midnightblue" points="513.53,-99.41 503.67,-95.54 508.97,-104.71 513.53,-99.41"/>
</g>
<!-- Node3 -->
<g id="node3" class="node">
<title>Node3</title>
<g id="a_node3"><a xlink:title=" ">
<polygon fill="white" stroke="#bfbfbf" points="0,-6.5 0,-26.5 44.34,-26.5 44.34,-6.5 0,-6.5"/>
<text text-anchor="middle" x="22.17" y="-13.5" font-family="Helvetica,sans-Serif" font-size="10.00">iosfwd</text>
</a>
</g>
</g>
<!-- Node1&#45;&gt;Node3 -->
<g id="edge2" class="edge">
<title>Node1&#45;&gt;Node3</title>
<path fill="none" stroke="midnightblue" d="M574.42,-226.9C462.17,-214.34 268.04,-182.09 122.17,-102 88.7,-83.62 56.09,-52.97 37.63,-34.08"/>
<polygon fill="midnightblue" stroke="midnightblue" points="40.07,-31.56 30.62,-26.77 35.01,-36.41 40.07,-31.56"/>
</g>
<!-- Node4 -->
<g id="node4" class="node">
<title>Node4</title>
<g id="a_node4"><a xlink:title=" ">
<polygon fill="white" stroke="#bfbfbf" points="1355.27,-75.5 1355.27,-95.5 1489.07,-95.5 1489.07,-75.5 1355.27,-75.5"/>
<text text-anchor="middle" x="1422.17" y="-82.5" font-family="Helvetica,sans-Serif" font-size="10.00">halco/common/geometry.h</text>
</a>
</g>
</g>
<!-- Node1&#45;&gt;Node4 -->
<g id="edge3" class="edge">
<title>Node1&#45;&gt;Node4</title>
<path fill="none" stroke="midnightblue" d="M746.12,-207.37C772.08,-197.37 800.48,-185.01 825.17,-171 846.12,-159.11 845.66,-146.59 868.17,-138 967.89,-99.92 1241.46,-116.83 1347.17,-102 1355.68,-100.8 1364.69,-99.22 1373.38,-97.53"/>
<polygon fill="midnightblue" stroke="midnightblue" points="1374.3,-100.91 1383.41,-95.5 1372.91,-94.05 1374.3,-100.91"/>
</g>
<!-- Node5 -->
<g id="node5" class="node">
<title>Node5</title>
<g id="a_node5"><a xlink:title=" ">
<polygon fill="white" stroke="#bfbfbf" points="910.66,-138.5 910.66,-170.5 1011.68,-170.5 1011.68,-138.5 910.66,-138.5"/>
<text text-anchor="start" x="918.66" y="-157.5" font-family="Helvetica,sans-Serif" font-size="10.00">halco/hicann&#45;dls/vx</text>
<text text-anchor="middle" x="961.17" y="-145.5" font-family="Helvetica,sans-Serif" font-size="10.00">/padi.h</text>
</a>
</g>
</g>
<!-- Node1&#45;&gt;Node5 -->
<g id="edge4" class="edge">
<title>Node1&#45;&gt;Node5</title>
<path fill="none" stroke="midnightblue" d="M755.99,-210.26C803.03,-197.71 859.18,-182.72 900.84,-171.6"/>
<polygon fill="midnightblue" stroke="midnightblue" points="901.81,-174.97 910.57,-169.01 900,-168.2 901.81,-174.97"/>
</g>
<!-- Node6 -->
<g id="node6" class="node">
<title>Node6</title>
<g id="a_node6"><a xlink:href="cerealization_8h.html" target="_top" xlink:title=" ">
<polygon fill="white" stroke="black" points="228.49,-75.5 228.49,-95.5 337.84,-95.5 337.84,-75.5 228.49,-75.5"/>
<text text-anchor="middle" x="283.17" y="-82.5" font-family="Helvetica,sans-Serif" font-size="10.00">haldls/cerealization.h</text>
</a>
</g>
</g>
<!-- Node1&#45;&gt;Node6 -->
<g id="edge5" class="edge">
<title>Node1&#45;&gt;Node6</title>
<path fill="none" stroke="midnightblue" d="M574.63,-221.62C522.3,-212.02 456.15,-196.13 401.17,-171 361.95,-153.07 322.43,-121.35 300.54,-102.29"/>
<polygon fill="midnightblue" stroke="midnightblue" points="302.86,-99.67 293.05,-95.66 298.22,-104.91 302.86,-99.67"/>
</g>
<!-- Node8 -->
<g id="node8" class="node">
<title>Node8</title>
<g id="a_node8"><a xlink:title=" ">
<polygon fill="white" stroke="#bfbfbf" points="242.66,-6.5 242.66,-26.5 323.67,-26.5 323.67,-6.5 242.66,-6.5"/>
<text text-anchor="middle" x="283.17" y="-13.5" font-family="Helvetica,sans-Serif" font-size="10.00">hate/visibility.h</text>
</a>
</g>
</g>
<!-- Node1&#45;&gt;Node8 -->
<g id="edge39" class="edge">
<title>Node1&#45;&gt;Node8</title>
<path fill="none" stroke="midnightblue" d="M615.82,-207.49C595.45,-196.28 571.63,-183.09 550.17,-171 460.39,-120.41 354.47,-59 307.59,-31.73"/>
<polygon fill="midnightblue" stroke="midnightblue" points="309.17,-28.6 298.76,-26.59 305.65,-34.65 309.17,-28.6"/>
</g>
<!-- Node11 -->
<g id="node11" class="node">
<title>Node11</title>
<g id="a_node11"><a xlink:href="genpybind_8h.html" target="_top" xlink:title=" ">
<polygon fill="white" stroke="black" points="1027.1,-6.5 1027.1,-26.5 1139.24,-26.5 1139.24,-6.5 1027.1,-6.5"/>
<text text-anchor="middle" x="1083.17" y="-13.5" font-family="Helvetica,sans-Serif" font-size="10.00">haldls/vx/genpybind.h</text>
</a>
</g>
</g>
<!-- Node1&#45;&gt;Node11 -->
<g id="edge11" class="edge">
<title>Node1&#45;&gt;Node11</title>
<path fill="none" stroke="midnightblue" d="M667.47,-207.47C672.22,-169.93 686.65,-102.8 730.17,-69 781.1,-29.43 954.7,-44.5 1018.17,-33 1024.76,-31.81 1031.69,-30.36 1038.47,-28.84"/>
<polygon fill="midnightblue" stroke="midnightblue" points="1039.28,-32.24 1048.23,-26.57 1037.7,-25.42 1039.28,-32.24"/>
</g>
<!-- Node12 -->
<g id="node12" class="node">
<title>Node12</title>
<g id="a_node12"><a xlink:href="synapse_8h.html" target="_top" xlink:title=" ">
<polygon fill="white" stroke="black" points="712.54,-144.5 712.54,-164.5 815.79,-164.5 815.79,-144.5 712.54,-144.5"/>
<text text-anchor="middle" x="764.17" y="-151.5" font-family="Helvetica,sans-Serif" font-size="10.00">haldls/vx/synapse.h</text>
</a>
</g>
</g>
<!-- Node1&#45;&gt;Node12 -->
<g id="edge13" class="edge">
<title>Node1&#45;&gt;Node12</title>
<path fill="none" stroke="midnightblue" d="M699.24,-207.31C714.33,-195.27 731.54,-181.54 744.45,-171.24"/>
<polygon fill="midnightblue" stroke="midnightblue" points="746.99,-173.69 752.62,-164.71 742.62,-168.22 746.99,-173.69"/>
</g>
<!-- Node20 -->
<g id="node20" class="node">
<title>Node20</title>
<g id="a_node20"><a xlink:href="traits_8h.html" target="_top" xlink:title=" ">
<polygon fill="white" stroke="black" points="568.33,-75.5 568.33,-95.5 656.01,-95.5 656.01,-75.5 568.33,-75.5"/>
<text text-anchor="middle" x="612.17" y="-82.5" font-family="Helvetica,sans-Serif" font-size="10.00">haldls/vx/traits.h</text>
</a>
</g>
</g>
<!-- Node1&#45;&gt;Node20 -->
<g id="edge38" class="edge">
<title>Node1&#45;&gt;Node20</title>
<path fill="none" stroke="midnightblue" d="M655.45,-207.35C644.83,-177.71 628.11,-131.02 618.87,-105.21"/>
<polygon fill="midnightblue" stroke="midnightblue" points="622.07,-103.77 615.4,-95.54 615.48,-106.13 622.07,-103.77"/>
</g>
<!-- Node26 -->
<g id="node26" class="node">
<title>Node26</title>
<g id="a_node26"><a xlink:title=" ">
<polygon fill="white" stroke="#bfbfbf" points="1507.55,-75.5 1507.55,-95.5 1610.79,-95.5 1610.79,-75.5 1507.55,-75.5"/>
<text text-anchor="middle" x="1559.17" y="-82.5" font-family="Helvetica,sans-Serif" font-size="10.00">hxcomm/vx/target.h</text>
</a>
</g>
</g>
<!-- Node1&#45;&gt;Node26 -->
<g id="edge40" class="edge">
<title>Node1&#45;&gt;Node26</title>
<path fill="none" stroke="midnightblue" d="M755.82,-212.42C789.69,-202.28 827.76,-188.55 860.17,-171 880.74,-159.86 879.35,-146.44 901.17,-138 1025.13,-90.07 1366.84,-122.46 1498.17,-102 1504.84,-100.96 1511.85,-99.52 1518.64,-97.93"/>
<polygon fill="midnightblue" stroke="midnightblue" points="1519.5,-101.32 1528.37,-95.53 1517.82,-94.53 1519.5,-101.32"/>
</g>
<!-- Node6&#45;&gt;Node3 -->
<g id="edge9" class="edge">
<title>Node6&#45;&gt;Node3</title>
<path fill="none" stroke="midnightblue" d="M228.05,-75.78C181.03,-67.47 112.06,-53.23 54.17,-33 52.29,-32.34 50.37,-31.61 48.46,-30.82"/>
<polygon fill="midnightblue" stroke="midnightblue" points="49.68,-27.53 39.13,-26.61 46.81,-33.91 49.68,-27.53"/>
</g>
<!-- Node7 -->
<g id="node7" class="node">
<title>Node7</title>
<g id="a_node7"><a xlink:title=" ">
<polygon fill="white" stroke="#bfbfbf" points="341.54,-6.5 341.54,-26.5 424.79,-26.5 424.79,-6.5 341.54,-6.5"/>
<text text-anchor="middle" x="383.17" y="-13.5" font-family="Helvetica,sans-Serif" font-size="10.00">hate/type_list.h</text>
</a>
</g>
</g>
<!-- Node6&#45;&gt;Node7 -->
<g id="edge6" class="edge">
<title>Node6&#45;&gt;Node7</title>
<path fill="none" stroke="midnightblue" d="M296.65,-75.46C313.2,-64.38 341.49,-45.42 361.2,-32.22"/>
<polygon fill="midnightblue" stroke="midnightblue" points="363.22,-35.08 369.58,-26.61 359.32,-29.27 363.22,-35.08"/>
</g>
<!-- Node6&#45;&gt;Node8 -->
<g id="edge7" class="edge">
<title>Node6&#45;&gt;Node8</title>
<path fill="none" stroke="midnightblue" d="M283.17,-75.46C283.17,-65.63 283.17,-49.61 283.17,-36.9"/>
<polygon fill="midnightblue" stroke="midnightblue" points="286.67,-36.82 283.17,-26.82 279.67,-36.82 286.67,-36.82"/>
</g>
<!-- Node9 -->
<g id="node9" class="node">
<title>Node9</title>
<g id="a_node9"><a xlink:title=" ">
<polygon fill="white" stroke="#bfbfbf" points="62.72,-6.5 62.72,-26.5 107.62,-26.5 107.62,-6.5 62.72,-6.5"/>
<text text-anchor="middle" x="85.17" y="-13.5" font-family="Helvetica,sans-Serif" font-size="10.00">cstdint</text>
</a>
</g>
</g>
<!-- Node6&#45;&gt;Node9 -->
<g id="edge8" class="edge">
<title>Node6&#45;&gt;Node9</title>
<path fill="none" stroke="midnightblue" d="M248.63,-75.42C214.69,-66.12 161.65,-50.56 117.17,-33 115.36,-32.29 113.51,-31.51 111.66,-30.71"/>
<polygon fill="midnightblue" stroke="midnightblue" points="113.11,-27.52 102.56,-26.51 110.18,-33.88 113.11,-27.52"/>
</g>
<!-- Node10 -->
<g id="node10" class="node">
<title>Node10</title>
<g id="a_node10"><a xlink:title=" ">
<polygon fill="white" stroke="#bfbfbf" points="126.05,-6.5 126.05,-26.5 224.29,-26.5 224.29,-6.5 126.05,-6.5"/>
<text text-anchor="middle" x="175.17" y="-13.5" font-family="Helvetica,sans-Serif" font-size="10.00">cereal/macros.hpp</text>
</a>
</g>
</g>
<!-- Node6&#45;&gt;Node10 -->
<g id="edge10" class="edge">
<title>Node6&#45;&gt;Node10</title>
<path fill="none" stroke="midnightblue" d="M268.6,-75.46C250.65,-64.33 219.9,-45.25 198.61,-32.04"/>
<polygon fill="midnightblue" stroke="midnightblue" points="200.19,-28.9 189.85,-26.61 196.5,-34.85 200.19,-28.9"/>
</g>
<!-- Node11&#45;&gt;Node11 -->
<g id="edge12" class="edge">
<title>Node11&#45;&gt;Node11</title>
<path fill="none" stroke="midnightblue" d="M1107.06,-26.54C1130.89,-32.26 1157.24,-28.92 1157.24,-16.5 1157.24,-5.78 1137.6,-1.82 1116.9,-4.62"/>
<polygon fill="midnightblue" stroke="midnightblue" points="1116.25,-1.18 1107.06,-6.46 1117.54,-8.06 1116.25,-1.18"/>
</g>
<!-- Node12&#45;&gt;Node2 -->
<g id="edge14" class="edge">
<title>Node12&#45;&gt;Node2</title>
<path fill="none" stroke="midnightblue" d="M712.19,-145.74C663.35,-137.63 588.64,-123.13 526.17,-102 524.23,-101.35 522.26,-100.61 520.3,-99.83"/>
<polygon fill="midnightblue" stroke="midnightblue" points="521.24,-96.42 510.68,-95.62 518.44,-102.83 521.24,-96.42"/>
</g>
<!-- Node12&#45;&gt;Node3 -->
<g id="edge15" class="edge">
<title>Node12&#45;&gt;Node3</title>
<path fill="none" stroke="midnightblue" d="M712.2,-153.76C614.24,-153.11 396.19,-146.29 219.17,-102 154.54,-85.83 83.98,-50.96 47.37,-31.45"/>
<polygon fill="midnightblue" stroke="midnightblue" points="48.86,-28.27 38.4,-26.61 45.54,-34.43 48.86,-28.27"/>
</g>
<!-- Node12&#45;&gt;Node4 -->
<g id="edge16" class="edge">
<title>Node12&#45;&gt;Node4</title>
<path fill="none" stroke="midnightblue" d="M797.88,-144.48C808.18,-142.02 819.58,-139.6 830.17,-138 1057.91,-103.56 1118.98,-133.38 1347.17,-102 1355.69,-100.83 1364.69,-99.26 1373.39,-97.57"/>
<polygon fill="midnightblue" stroke="midnightblue" points="1374.3,-100.95 1383.41,-95.54 1372.92,-94.09 1374.3,-100.95"/>
</g>
<!-- Node12&#45;&gt;Node6 -->
<g id="edge21" class="edge">
<title>Node12&#45;&gt;Node6</title>
<path fill="none" stroke="midnightblue" d="M712.24,-146.27C623.9,-133.96 444.61,-108.99 348.12,-95.55"/>
<polygon fill="midnightblue" stroke="midnightblue" points="348.59,-92.08 338.2,-94.17 347.62,-99.01 348.59,-92.08"/>
</g>
<!-- Node12&#45;&gt;Node8 -->
<g id="edge36" class="edge">
<title>Node12&#45;&gt;Node8</title>
<path fill="none" stroke="midnightblue" d="M712.51,-147.35C669.56,-140.67 607.81,-127.36 559.17,-102 539.33,-91.66 541.29,-78.76 521.17,-69 444.23,-31.68 415.08,-53.93 332.17,-33 328.03,-31.96 323.73,-30.76 319.47,-29.51"/>
<polygon fill="midnightblue" stroke="midnightblue" points="320.29,-26.1 309.71,-26.52 318.25,-32.79 320.29,-26.1"/>
</g>
<!-- Node12&#45;&gt;Node11 -->
<g id="edge25" class="edge">
<title>Node12&#45;&gt;Node11</title>
<path fill="none" stroke="midnightblue" d="M756.96,-144.41C744.47,-127.5 721.9,-90.93 741.17,-69 782.13,-22.36 957.12,-44.21 1018.17,-33 1024.76,-31.79 1031.69,-30.33 1038.46,-28.81"/>
<polygon fill="midnightblue" stroke="midnightblue" points="1039.28,-32.21 1048.23,-26.54 1037.69,-25.4 1039.28,-32.21"/>
</g>
<!-- Node13 -->
<g id="node13" class="node">
<title>Node13</title>
<g id="a_node13"><a xlink:title=" ">
<polygon fill="white" stroke="#bfbfbf" points="872.05,-69.5 872.05,-101.5 980.29,-101.5 980.29,-69.5 872.05,-69.5"/>
<text text-anchor="start" x="880.05" y="-88.5" font-family="Helvetica,sans-Serif" font-size="10.00">halco/common/typed</text>
<text text-anchor="middle" x="926.17" y="-76.5" font-family="Helvetica,sans-Serif" font-size="10.00">_array.h</text>
</a>
</g>
</g>
<!-- Node12&#45;&gt;Node13 -->
<g id="edge17" class="edge">
<title>Node12&#45;&gt;Node13</title>
<path fill="none" stroke="midnightblue" d="M786.02,-144.46C810.12,-134.49 849.6,-118.17 880.52,-105.38"/>
<polygon fill="midnightblue" stroke="midnightblue" points="881.91,-108.59 889.82,-101.53 879.24,-102.12 881.91,-108.59"/>
</g>
<!-- Node14 -->
<g id="node14" class="node">
<title>Node14</title>
<g id="a_node14"><a xlink:title=" ">
<polygon fill="white" stroke="#bfbfbf" points="998.66,-69.5 998.66,-101.5 1099.68,-101.5 1099.68,-69.5 998.66,-69.5"/>
<text text-anchor="start" x="1006.66" y="-88.5" font-family="Helvetica,sans-Serif" font-size="10.00">halco/hicann&#45;dls/vx</text>
<text text-anchor="middle" x="1049.17" y="-76.5" font-family="Helvetica,sans-Serif" font-size="10.00">/capmem.h</text>
</a>
</g>
</g>
<!-- Node12&#45;&gt;Node14 -->
<g id="edge18" class="edge">
<title>Node12&#45;&gt;Node14</title>
<path fill="none" stroke="midnightblue" d="M802.55,-144.43C811.6,-142.31 821.22,-140.06 830.17,-138 897.74,-122.42 917.11,-119.32 988.51,-102.12"/>
<polygon fill="midnightblue" stroke="midnightblue" points="989.56,-105.47 998.46,-99.72 987.91,-98.66 989.56,-105.47"/>
</g>
<!-- Node15 -->
<g id="node15" class="node">
<title>Node15</title>
<g id="a_node15"><a xlink:title=" ">
<polygon fill="white" stroke="#bfbfbf" points="1117.66,-69.5 1117.66,-101.5 1218.68,-101.5 1218.68,-69.5 1117.66,-69.5"/>
<text text-anchor="start" x="1125.66" y="-88.5" font-family="Helvetica,sans-Serif" font-size="10.00">halco/hicann&#45;dls/vx</text>
<text text-anchor="middle" x="1168.17" y="-76.5" font-family="Helvetica,sans-Serif" font-size="10.00">/switch_rows.h</text>
</a>
</g>
</g>
<!-- Node12&#45;&gt;Node15 -->
<g id="edge19" class="edge">
<title>Node12&#45;&gt;Node15</title>
<path fill="none" stroke="midnightblue" d="M799.65,-144.46C809.49,-142.15 820.21,-139.81 830.17,-138 949.94,-116.27 984.64,-125.42 1107.26,-102.23"/>
<polygon fill="midnightblue" stroke="midnightblue" points="1108.26,-105.6 1117.41,-100.28 1106.93,-98.73 1108.26,-105.6"/>
</g>
<!-- Node16 -->
<g id="node16" class="node">
<title>Node16</title>
<g id="a_node16"><a xlink:title=" ">
<polygon fill="white" stroke="#bfbfbf" points="1236.66,-69.5 1236.66,-101.5 1337.68,-101.5 1337.68,-69.5 1236.66,-69.5"/>
<text text-anchor="start" x="1244.66" y="-88.5" font-family="Helvetica,sans-Serif" font-size="10.00">halco/hicann&#45;dls/vx</text>
<text text-anchor="middle" x="1287.17" y="-76.5" font-family="Helvetica,sans-Serif" font-size="10.00">/synapse.h</text>
</a>
</g>
</g>
<!-- Node12&#45;&gt;Node16 -->
<g id="edge20" class="edge">
<title>Node12&#45;&gt;Node16</title>
<path fill="none" stroke="midnightblue" d="M798.58,-144.45C808.7,-142.06 819.83,-139.67 830.17,-138 1002.24,-110.15 1051.41,-131.83 1226.38,-102.14"/>
<polygon fill="midnightblue" stroke="midnightblue" points="1227.18,-105.55 1236.44,-100.4 1225.99,-98.66 1227.18,-105.55"/>
</g>
<!-- Node17 -->
<g id="node17" class="node">
<title>Node17</title>
<g id="a_node17"><a xlink:href="common_8h.html" target="_top" xlink:title=" ">
<polygon fill="white" stroke="black" points="749.99,-75.5 749.99,-95.5 854.34,-95.5 854.34,-75.5 749.99,-75.5"/>
<text text-anchor="middle" x="802.17" y="-82.5" font-family="Helvetica,sans-Serif" font-size="10.00">haldls/vx/common.h</text>
</a>
</g>
</g>
<!-- Node12&#45;&gt;Node17 -->
<g id="edge22" class="edge">
<title>Node12&#45;&gt;Node17</title>
<path fill="none" stroke="midnightblue" d="M769.29,-144.46C775.04,-134.33 784.51,-117.63 791.81,-104.75"/>
<polygon fill="midnightblue" stroke="midnightblue" points="794.99,-106.25 796.88,-95.82 788.9,-102.79 794.99,-106.25"/>
</g>
<!-- Node12&#45;&gt;Node20 -->
<g id="edge26" class="edge">
<title>Node12&#45;&gt;Node20</title>
<path fill="none" stroke="midnightblue" d="M743.67,-144.46C717.49,-132.93 672,-112.87 641.98,-99.64"/>
<polygon fill="midnightblue" stroke="midnightblue" points="643.39,-96.44 632.83,-95.61 640.57,-102.84 643.39,-96.44"/>
</g>
<!-- Node12&#45;&gt;Node26 -->
<g id="edge37" class="edge">
<title>Node12&#45;&gt;Node26</title>
<path fill="none" stroke="midnightblue" d="M815.89,-144.84C832.54,-142.31 851.1,-139.76 868.17,-138 1147.15,-109.3 1220.99,-144.73 1498.17,-102 1504.84,-100.97 1511.85,-99.54 1518.64,-97.95"/>
<polygon fill="midnightblue" stroke="midnightblue" points="1519.5,-101.34 1528.37,-95.55 1517.82,-94.55 1519.5,-101.34"/>
</g>
<!-- Node18 -->
<g id="node18" class="node">
<title>Node18</title>
<g id="a_node18"><a xlink:title=" ">
<polygon fill="white" stroke="#bfbfbf" points="1175.11,-6.5 1175.11,-26.5 1237.23,-26.5 1237.23,-6.5 1175.11,-6.5"/>
<text text-anchor="middle" x="1206.17" y="-13.5" font-family="Helvetica,sans-Serif" font-size="10.00">type_traits</text>
</a>
</g>
</g>
<!-- Node17&#45;&gt;Node18 -->
<g id="edge23" class="edge">
<title>Node17&#45;&gt;Node18</title>
<path fill="none" stroke="midnightblue" d="M834.6,-75.42C843.78,-73.08 853.82,-70.74 863.17,-69 996.5,-44.25 1034.57,-65.76 1166.17,-33 1169.42,-32.19 1172.76,-31.19 1176.07,-30.08"/>
<polygon fill="midnightblue" stroke="midnightblue" points="1177.53,-33.27 1185.73,-26.56 1175.13,-26.7 1177.53,-33.27"/>
</g>
<!-- Node19 -->
<g id="node19" class="node">
<title>Node19</title>
<g id="a_node19"><a xlink:title=" ">
<polygon fill="white" stroke="#bfbfbf" points="1254.78,-6.5 1254.78,-26.5 1293.55,-26.5 1293.55,-6.5 1254.78,-6.5"/>
<text text-anchor="middle" x="1274.17" y="-13.5" font-family="Helvetica,sans-Serif" font-size="10.00">utility</text>
</a>
</g>
</g>
<!-- Node17&#45;&gt;Node19 -->
<g id="edge24" class="edge">
<title>Node17&#45;&gt;Node19</title>
<path fill="none" stroke="midnightblue" d="M833.94,-75.43C843.29,-73.04 853.58,-70.66 863.17,-69 1031.64,-39.86 1082.81,-83.47 1246.17,-33 1247.85,-32.48 1249.54,-31.85 1251.21,-31.15"/>
<polygon fill="midnightblue" stroke="midnightblue" points="1253.03,-34.16 1260.43,-26.58 1249.92,-27.89 1253.03,-34.16"/>
</g>
<!-- Node20&#45;&gt;Node7 -->
<g id="edge30" class="edge">
<title>Node20&#45;&gt;Node7</title>
<path fill="none" stroke="midnightblue" d="M580.3,-75.42C544.65,-65.23 485.21,-48.14 434.17,-33 430.33,-31.86 426.34,-30.67 422.35,-29.47"/>
<polygon fill="midnightblue" stroke="midnightblue" points="423.13,-26.05 412.54,-26.5 421.1,-32.75 423.13,-26.05"/>
</g>
<!-- Node20&#45;&gt;Node8 -->
<g id="edge31" class="edge">
<title>Node20&#45;&gt;Node8</title>
<path fill="none" stroke="midnightblue" d="M580.7,-75.47C572.13,-73.19 562.83,-70.86 554.17,-69 456.43,-48.07 429.41,-56.13 332.17,-33 327.97,-32 323.61,-30.83 319.29,-29.58"/>
<polygon fill="midnightblue" stroke="midnightblue" points="320,-26.14 309.42,-26.58 317.97,-32.83 320,-26.14"/>
</g>
<!-- Node20&#45;&gt;Node11 -->
<g id="edge29" class="edge">
<title>Node20&#45;&gt;Node11</title>
<path fill="none" stroke="midnightblue" d="M642.36,-75.46C651.25,-73.07 661.04,-70.68 670.17,-69 823.09,-40.84 864.88,-59.09 1018.17,-33 1024.93,-31.85 1032.04,-30.4 1038.97,-28.86"/>
<polygon fill="midnightblue" stroke="midnightblue" points="1039.98,-32.22 1048.93,-26.55 1038.4,-25.4 1039.98,-32.22"/>
</g>
<!-- Node20&#45;&gt;Node18 -->
<g id="edge32" class="edge">
<title>Node20&#45;&gt;Node18</title>
<path fill="none" stroke="midnightblue" d="M656.01,-78.85C680.95,-75.73 712.78,-71.91 741.17,-69 929.75,-49.69 981.47,-75.68 1166.17,-33 1169.61,-32.2 1173.15,-31.17 1176.63,-30.02"/>
<polygon fill="midnightblue" stroke="midnightblue" points="1177.98,-33.25 1186.17,-26.53 1175.58,-26.68 1177.98,-33.25"/>
</g>
<!-- Node21 -->
<g id="node21" class="node">
<title>Node21</title>
<g id="a_node21"><a xlink:title=" ">
<polygon fill="white" stroke="#bfbfbf" points="571.11,-6.5 571.11,-26.5 653.23,-26.5 653.23,-6.5 571.11,-6.5"/>
<text text-anchor="middle" x="612.17" y="-13.5" font-family="Helvetica,sans-Serif" font-size="10.00">fisch/vx/traits.h</text>
</a>
</g>
</g>
<!-- Node20&#45;&gt;Node21 -->
<g id="edge27" class="edge">
<title>Node20&#45;&gt;Node21</title>
<path fill="none" stroke="midnightblue" d="M612.17,-75.46C612.17,-65.63 612.17,-49.61 612.17,-36.9"/>
<polygon fill="midnightblue" stroke="midnightblue" points="615.67,-36.82 612.17,-26.82 608.67,-36.82 615.67,-36.82"/>
</g>
<!-- Node22 -->
<g id="node22" class="node">
<title>Node22</title>
<g id="a_node22"><a xlink:title=" ">
<polygon fill="white" stroke="#bfbfbf" points="670.94,-0.5 670.94,-32.5 781.4,-32.5 781.4,-0.5 670.94,-0.5"/>
<text text-anchor="start" x="678.94" y="-19.5" font-family="Helvetica,sans-Serif" font-size="10.00">fisch/vx/word_access</text>
<text text-anchor="middle" x="726.17" y="-7.5" font-family="Helvetica,sans-Serif" font-size="10.00">_type.h</text>
</a>
</g>
</g>
<!-- Node20&#45;&gt;Node22 -->
<g id="edge28" class="edge">
<title>Node20&#45;&gt;Node22</title>
<path fill="none" stroke="midnightblue" d="M627.54,-75.46C643.92,-65.84 670.38,-50.29 691.77,-37.71"/>
<polygon fill="midnightblue" stroke="midnightblue" points="693.74,-40.62 700.59,-32.53 690.19,-34.58 693.74,-40.62"/>
</g>
<!-- Node23 -->
<g id="node23" class="node">
<title>Node23</title>
<g id="a_node23"><a xlink:title=" ">
<polygon fill="white" stroke="#bfbfbf" points="799.77,-0.5 799.77,-32.5 898.57,-32.5 898.57,-0.5 799.77,-0.5"/>
<text text-anchor="start" x="807.77" y="-19.5" font-family="Helvetica,sans-Serif" font-size="10.00">boost/utility/enable</text>
<text text-anchor="middle" x="849.17" y="-7.5" font-family="Helvetica,sans-Serif" font-size="10.00">_if.hpp</text>
</a>
</g>
</g>
<!-- Node20&#45;&gt;Node23 -->
<g id="edge33" class="edge">
<title>Node20&#45;&gt;Node23</title>
<path fill="none" stroke="midnightblue" d="M644.13,-75.46C681.33,-64.95 743.54,-47.36 789.7,-34.31"/>
<polygon fill="midnightblue" stroke="midnightblue" points="790.91,-37.61 799.58,-31.52 789.01,-30.87 790.91,-37.61"/>
</g>
<!-- Node24 -->
<g id="node24" class="node">
<title>Node24</title>
<g id="a_node24"><a xlink:title=" ">
<polygon fill="white" stroke="#bfbfbf" points="916.82,-6.5 916.82,-26.5 1009.51,-26.5 1009.51,-6.5 916.82,-6.5"/>
<text text-anchor="middle" x="963.17" y="-13.5" font-family="Helvetica,sans-Serif" font-size="10.00">boost/variant.hpp</text>
</a>
</g>
</g>
<!-- Node20&#45;&gt;Node24 -->
<g id="edge34" class="edge">
<title>Node20&#45;&gt;Node24</title>
<path fill="none" stroke="midnightblue" d="M643.32,-75.5C651.97,-73.18 661.39,-70.83 670.17,-69 774.46,-47.21 802.98,-55.25 907.17,-33 912.34,-31.9 917.74,-30.59 923.06,-29.22"/>
<polygon fill="midnightblue" stroke="midnightblue" points="924.35,-32.5 933.1,-26.53 922.54,-25.74 924.35,-32.5"/>
</g>
<!-- Node25 -->
<g id="node25" class="node">
<title>Node25</title>
<g id="a_node25"><a xlink:title=" ">
<polygon fill="white" stroke="#bfbfbf" points="443.21,-6.5 443.21,-26.5 553.12,-26.5 553.12,-6.5 443.21,-6.5"/>
<text text-anchor="middle" x="498.17" y="-13.5" font-family="Helvetica,sans-Serif" font-size="10.00">fisch/vx/container.def</text>
</a>
</g>
</g>
<!-- Node20&#45;&gt;Node25 -->
<g id="edge35" class="edge">
<title>Node20&#45;&gt;Node25</title>
<path fill="none" stroke="midnightblue" d="M596.79,-75.46C577.67,-64.23 544.8,-44.91 522.31,-31.69"/>
<polygon fill="midnightblue" stroke="midnightblue" points="524.06,-28.66 513.66,-26.61 520.51,-34.69 524.06,-28.66"/>
</g>
</g>
</svg>
        <g id="navigator" transform="translate(0 0)" fill="#404254">
                <rect fill="#f2f5e9" fill-opacity="0.5" stroke="#606060" stroke-width=".5" x="0" y="0" width="60" height="60"/>
                <use id="zoomplus" xlink:href="#zoomPlus" x="17" y="9" onmousedown="handleZoom(evt,'in')"/>
                <use id="zoomminus" xlink:href="#zoomMin" x="42" y="9" onmousedown="handleZoom(evt,'out')"/>
                <use id="reset" xlink:href="#resetDef" x="30" y="36" onmousedown="handleReset()"/>
                <g id="arrowUp" xlink:href="#dirArrow" transform="translate(30 24)" onmousedown="handlePan(0,-1)">
                  <use xlink:href="#rim" fill="#404040">
                        <set attributeName="fill" to="#808080" begin="arrowUp.mouseover" end="arrowUp.mouseout"/>
                  </use>
                  <path fill="none" stroke="white" stroke-width="1.5" d="M0,-3.0v7 M-2.5,-0.5L0,-3.0L2.5,-0.5"/>
                </g>
                <g id="arrowRight" xlink:href="#dirArrow" transform="rotate(90) translate(36 -43)" onmousedown="handlePan(1,0)">
                  <use xlink:href="#rim" fill="#404040">
                        <set attributeName="fill" to="#808080" begin="arrowRight.mouseover" end="arrowRight.mouseout"/>
                  </use>
                  <path fill="none" stroke="white" stroke-width="1.5" d="M0,-3.0v7 M-2.5,-0.5L0,-3.0L2.5,-0.5"/>
                </g>
                <g id="arrowDown" xlink:href="#dirArrow" transform="rotate(180) translate(-30 -48)" onmousedown="handlePan(0,1)">
                  <use xlink:href="#rim" fill="#404040">
                        <set attributeName="fill" to="#808080" begin="arrowDown.mouseover" end="arrowDown.mouseout"/>
                  </use>
                  <path fill="none" stroke="white" stroke-width="1.5" d="M0,-3.0v7 M-2.5,-0.5L0,-3.0L2.5,-0.5"/>
                </g>
                <g id="arrowLeft" xlink:href="#dirArrow" transform="rotate(270) translate(-36 17)" onmousedown="handlePan(-1,0)">
                  <use xlink:href="#rim" fill="#404040">
                        <set attributeName="fill" to="#808080" begin="arrowLeft.mouseover" end="arrowLeft.mouseout"/>
                  </use>
                  <path fill="none" stroke="white" stroke-width="1.5" d="M0,-3.0v7 M-2.5,-0.5L0,-3.0L2.5,-0.5"/>
                </g>
        </g>
        <svg viewBox="0 0 15 15" width="100%" height="30px" preserveAspectRatio="xMaxYMin meet">
         <g id="arrow_out" transform="scale(0.3 0.3)">
          <a xlink:href="padi_8h__incl_org.svg" target="_base">
           <rect id="button" ry="5" rx="5" y="6" x="6" height="38" width="38"
                fill="#f2f5e9" fill-opacity="0.5" stroke="#606060" stroke-width="1.0"/>
           <path id="arrow"
             d="M 11.500037,31.436501 C 11.940474,20.09759 22.043105,11.32322 32.158766,21.979434 L 37.068811,17.246167 C 37.068811,17.246167 37.088388,32 37.088388,32 L 22.160133,31.978069 C 22.160133,31.978069 26.997745,27.140456 26.997745,27.140456 C 18.528582,18.264221 13.291696,25.230495 11.500037,31.436501 z"
             style="fill:#404040;"/>
          </a>
         </g>
        </svg>
</svg>
