<?xml version="1.0" encoding="UTF-8" standalone="no"?>
<!DOCTYPE svg PUBLIC "-//W3C//DTD SVG 1.1//EN"
 "http://www.w3.org/Graphics/SVG/1.1/DTD/svg11.dtd">
<!-- Generated by graphviz version 2.46.0 (0)
 -->
<!-- Title: /jenkins/jenlib_workspaces_f9/bld_nightly&#45;haldls.YmxkX25pZ2h0bHktaGFsZGxzIzEzNzk.x/haldls/include/haldls/vx/pickle.h Pages: 1 -->
<svg width="342pt" height="122pt"
 viewBox="0.00 0.00 341.79 122.00" xmlns="http://www.w3.org/2000/svg" xmlns:xlink="http://www.w3.org/1999/xlink">
<g id="graph0" class="graph" transform="scale(1 1) rotate(0) translate(4 118)">
<title>/jenkins/jenlib_workspaces_f9/bld_nightly&#45;haldls.YmxkX25pZ2h0bHktaGFsZGxzIzEzNzk.x/haldls/include/haldls/vx/pickle.h</title>
<polygon fill="white" stroke="transparent" points="-4,4 -4,-118 337.79,-118 337.79,4 -4,4"/>
<!-- Node1 -->
<g id="node1" class="node">
<title>Node1</title>
<g id="a_node1"><a xlink:title=" ">
<polygon fill="#bfbfbf" stroke="black" points="40.66,-57.5 40.66,-113.5 221.68,-113.5 221.68,-57.5 40.66,-57.5"/>
<text text-anchor="start" x="48.66" y="-100.5" font-family="Helvetica,sans-Serif" font-size="10.00">/jenkins/jenlib_workspaces</text>
<text text-anchor="start" x="48.66" y="-88.5" font-family="Helvetica,sans-Serif" font-size="10.00">_f9/bld_nightly&#45;haldls.YmxkX25p</text>
<text text-anchor="start" x="48.66" y="-76.5" font-family="Helvetica,sans-Serif" font-size="10.00">Z2h0bHktaGFsZGxzIzEzNzk.x/haldls</text>
<text text-anchor="middle" x="131.17" y="-64.5" font-family="Helvetica,sans-Serif" font-size="10.00">/include/haldls/vx/pickle.h</text>
</a>
</g>
</g>
<!-- Node2 -->
<g id="node2" class="node">
<title>Node2</title>
<g id="a_node2"><a xlink:title=" ">
<polygon fill="white" stroke="#bfbfbf" points="0,-0.5 0,-20.5 44.33,-20.5 44.33,-0.5 0,-0.5"/>
<text text-anchor="middle" x="22.17" y="-7.5" font-family="Helvetica,sans-Serif" font-size="10.00">iosfwd</text>
</a>
</g>
</g>
<!-- Node1&#45;&gt;Node2 -->
<g id="edge1" class="edge">
<title>Node1&#45;&gt;Node2</title>
<path fill="none" stroke="midnightblue" d="M90.58,-57.32C74.84,-46.78 57.45,-35.13 44.14,-26.21"/>
<polygon fill="midnightblue" stroke="midnightblue" points="45.9,-23.18 35.64,-20.52 42,-29 45.9,-23.18"/>
</g>
<!-- Node3 -->
<g id="node3" class="node">
<title>Node3</title>
<g id="a_node3"><a xlink:title=" ">
<polygon fill="white" stroke="#bfbfbf" points="62.55,-0.5 62.55,-20.5 105.78,-20.5 105.78,-0.5 62.55,-0.5"/>
<text text-anchor="middle" x="84.17" y="-7.5" font-family="Helvetica,sans-Serif" font-size="10.00">vector</text>
</a>
</g>
</g>
<!-- Node1&#45;&gt;Node3 -->
<g id="edge2" class="edge">
<title>Node1&#45;&gt;Node3</title>
<path fill="none" stroke="midnightblue" d="M113.67,-57.32C107.6,-47.89 100.96,-37.58 95.52,-29.13"/>
<polygon fill="midnightblue" stroke="midnightblue" points="98.33,-27.04 89.98,-20.52 92.45,-30.83 98.33,-27.04"/>
</g>
<!-- Node4 -->
<g id="node4" class="node">
<title>Node4</title>
<g id="a_node4"><a xlink:title=" ">
<polygon fill="white" stroke="#bfbfbf" points="124.04,-0.5 124.04,-20.5 232.3,-20.5 232.3,-0.5 124.04,-0.5"/>
<text text-anchor="middle" x="178.17" y="-7.5" font-family="Helvetica,sans-Serif" font-size="10.00">pybind11/pybind11.h</text>
</a>
</g>
</g>
<!-- Node1&#45;&gt;Node4 -->
<g id="edge3" class="edge">
<title>Node1&#45;&gt;Node4</title>
<path fill="none" stroke="midnightblue" d="M148.67,-57.32C154.74,-47.89 161.38,-37.58 166.82,-29.13"/>
<polygon fill="midnightblue" stroke="midnightblue" points="169.89,-30.83 172.36,-20.52 164,-27.04 169.89,-30.83"/>
</g>
<!-- Node5 -->
<g id="node5" class="node">
<title>Node5</title>
<g id="a_node5"><a xlink:title=" ">
<polygon fill="white" stroke="#bfbfbf" points="250.54,-0.5 250.54,-20.5 333.79,-20.5 333.79,-0.5 250.54,-0.5"/>
<text text-anchor="middle" x="292.17" y="-7.5" font-family="Helvetica,sans-Serif" font-size="10.00">hate/type_list.h</text>
</a>
</g>
</g>
<!-- Node1&#45;&gt;Node5 -->
<g id="edge4" class="edge">
<title>Node1&#45;&gt;Node5</title>
<path fill="none" stroke="midnightblue" d="M191.12,-57.32C215.7,-46.17 243.03,-33.78 263.06,-24.7"/>
<polygon fill="midnightblue" stroke="midnightblue" points="264.6,-27.84 272.26,-20.52 261.71,-21.47 264.6,-27.84"/>
</g>
</g>
</svg>
