<?xml version="1.0" encoding="UTF-8" standalone="no"?>
<!DOCTYPE svg PUBLIC "-//W3C//DTD SVG 1.1//EN"
 "http://www.w3.org/Graphics/SVG/1.1/DTD/svg11.dtd">
<!-- Generated by graphviz version 2.46.0 (0)
 -->
<!-- Title: /jenkins/jenlib_workspaces_f9/bld_nightly&#45;haldls.YmxkX25pZ2h0bHktaGFsZGxzIzEzNzk.x/haldls/include/haldls/vx/sram_controller.h Pages: 1 -->
<!--zoomable 623 -->
<svg id="main" version="1.1" xmlns="http://www.w3.org/2000/svg" xmlns:xlink="http://www.w3.org/1999/xlink" xml:space="preserve" onload="init(evt)">
<style type="text/css"><![CDATA[
.edge:hover path { stroke: red; }
.edge:hover polygon { stroke: red; fill: red; }
]]></style>
<script type="text/javascript"><![CDATA[
var edges = document.getElementsByTagName('g');
if (edges && edges.length) {
  for (var i=0;i<edges.length;i++) {
    if (edges[i].id.substr(0,4)=='edge') {
      edges[i].setAttribute('class','edge');
    }
  }
}
]]></script>
        <defs>
                <circle id="rim" cx="0" cy="0" r="7"/>
                <circle id="rim2" cx="0" cy="0" r="3.5"/>
                <g id="zoomPlus">
                        <use xlink:href="#rim" fill="#404040">
                                <set attributeName="fill" to="#808080" begin="zoomplus.mouseover" end="zoomplus.mouseout"/>
                        </use>
                        <path d="M-4,0h8M0,-4v8" fill="none" stroke="white" stroke-width="1.5" pointer-events="none"/>
                </g>
                <g id="zoomMin">
                        <use xlink:href="#rim" fill="#404040">
                                <set attributeName="fill" to="#808080" begin="zoomminus.mouseover" end="zoomminus.mouseout"/>
                        </use>
                        <path d="M-4,0h8" fill="none" stroke="white" stroke-width="1.5" pointer-events="none"/>
                </g>
                <g id="dirArrow">
                        <path fill="none" stroke="white" stroke-width="1.5" d="M0,-3.0v7 M-2.5,-0.5L0,-3.0L2.5,-0.5"/>
                </g>
               <g id="resetDef">
                       <use xlink:href="#rim2" fill="#404040">
                               <set attributeName="fill" to="#808080" begin="reset.mouseover" end="reset.mouseout"/>
                       </use>
               </g>
        </defs>

<script type="text/javascript">
var viewWidth = 1318;
var viewHeight = 623;
var sectionId = 'dynsection-1';
</script>
<script xlink:href="svgpan.js"/>
<svg id="graph" class="graph">
<g id="viewport">
<title>/jenkins/jenlib_workspaces_f9/bld_nightly&#45;haldls.YmxkX25pZ2h0bHktaGFsZGxzIzEzNzk.x/haldls/include/haldls/vx/sram_controller.h</title>
<polygon fill="white" stroke="transparent" points="-4,4 -4,-619 1313.97,-619 1313.97,4 -4,4"/>
<!-- Node1 -->
<g id="node1" class="node">
<title>Node1</title>
<g id="a_node1"><a xlink:title=" ">
<polygon fill="#bfbfbf" stroke="black" points="582.64,-558.5 582.64,-614.5 763.66,-614.5 763.66,-558.5 582.64,-558.5"/>
<text text-anchor="start" x="590.64" y="-601.5" font-family="Helvetica,sans-Serif" font-size="10.00">/jenkins/jenlib_workspaces</text>
<text text-anchor="start" x="590.64" y="-589.5" font-family="Helvetica,sans-Serif" font-size="10.00">_f9/bld_nightly&#45;haldls.YmxkX25p</text>
<text text-anchor="start" x="590.64" y="-577.5" font-family="Helvetica,sans-Serif" font-size="10.00">Z2h0bHktaGFsZGxzIzEzNzk.x/haldls</text>
<text text-anchor="middle" x="673.15" y="-565.5" font-family="Helvetica,sans-Serif" font-size="10.00">/include/haldls/vx/sram_controller.h</text>
</a>
</g>
</g>
<!-- Node2 -->
<g id="node2" class="node">
<title>Node2</title>
<g id="a_node2"><a xlink:href="cadc_8h.html" target="_top" xlink:title=" ">
<polygon fill="white" stroke="black" points="184.64,-372.5 184.64,-428.5 365.66,-428.5 365.66,-372.5 184.64,-372.5"/>
<text text-anchor="start" x="192.64" y="-415.5" font-family="Helvetica,sans-Serif" font-size="10.00">/jenkins/jenlib_workspaces</text>
<text text-anchor="start" x="192.64" y="-403.5" font-family="Helvetica,sans-Serif" font-size="10.00">_f9/bld_nightly&#45;haldls.YmxkX25p</text>
<text text-anchor="start" x="192.64" y="-391.5" font-family="Helvetica,sans-Serif" font-size="10.00">Z2h0bHktaGFsZGxzIzEzNzk.x/haldls</text>
<text text-anchor="middle" x="275.15" y="-379.5" font-family="Helvetica,sans-Serif" font-size="10.00">/include/haldls/vx/cadc.h</text>
</a>
</g>
</g>
<!-- Node1&#45;&gt;Node2 -->
<g id="edge1" class="edge">
<title>Node1&#45;&gt;Node2</title>
<path fill="none" stroke="midnightblue" d="M604.88,-553.94C528.49,-518.63 406.02,-462 333.79,-428.61"/>
<polygon fill="midnightblue" stroke="midnightblue" points="603.87,-557.33 614.42,-558.35 606.81,-550.98 603.87,-557.33"/>
</g>
<!-- Node11 -->
<g id="node11" class="node">
<title>Node11</title>
<g id="a_node11"><a xlink:href="neuron_8h.html" target="_top" xlink:title=" ">
<polygon fill="white" stroke="black" points="582.64,-465.5 582.64,-521.5 763.66,-521.5 763.66,-465.5 582.64,-465.5"/>
<text text-anchor="start" x="590.64" y="-508.5" font-family="Helvetica,sans-Serif" font-size="10.00">/jenkins/jenlib_workspaces</text>
<text text-anchor="start" x="590.64" y="-496.5" font-family="Helvetica,sans-Serif" font-size="10.00">_f9/bld_nightly&#45;haldls.YmxkX25p</text>
<text text-anchor="start" x="590.64" y="-484.5" font-family="Helvetica,sans-Serif" font-size="10.00">Z2h0bHktaGFsZGxzIzEzNzk.x/haldls</text>
<text text-anchor="middle" x="673.15" y="-472.5" font-family="Helvetica,sans-Serif" font-size="10.00">/include/haldls/vx/neuron.h</text>
</a>
</g>
</g>
<!-- Node1&#45;&gt;Node11 -->
<g id="edge10" class="edge">
<title>Node1&#45;&gt;Node11</title>
<path fill="none" stroke="midnightblue" d="M673.15,-548.12C673.15,-539.3 673.15,-530.06 673.15,-521.78"/>
<polygon fill="midnightblue" stroke="midnightblue" points="669.65,-548.2 673.15,-558.2 676.65,-548.2 669.65,-548.2"/>
</g>
<!-- Node17 -->
<g id="node17" class="node">
<title>Node17</title>
<g id="a_node17"><a xlink:href="synapse__driver_8h.html" target="_top" xlink:title=" ">
<polygon fill="white" stroke="black" points="980.64,-372.5 980.64,-428.5 1161.66,-428.5 1161.66,-372.5 980.64,-372.5"/>
<text text-anchor="start" x="988.64" y="-415.5" font-family="Helvetica,sans-Serif" font-size="10.00">/jenkins/jenlib_workspaces</text>
<text text-anchor="start" x="988.64" y="-403.5" font-family="Helvetica,sans-Serif" font-size="10.00">_f9/bld_nightly&#45;haldls.YmxkX25p</text>
<text text-anchor="start" x="988.64" y="-391.5" font-family="Helvetica,sans-Serif" font-size="10.00">Z2h0bHktaGFsZGxzIzEzNzk.x/haldls</text>
<text text-anchor="middle" x="1071.15" y="-379.5" font-family="Helvetica,sans-Serif" font-size="10.00">/include/haldls/vx/synapse_driver.h</text>
</a>
</g>
</g>
<!-- Node1&#45;&gt;Node17 -->
<g id="edge20" class="edge">
<title>Node1&#45;&gt;Node17</title>
<path fill="none" stroke="midnightblue" d="M741.41,-553.94C817.8,-518.63 940.28,-462 1012.5,-428.61"/>
<polygon fill="midnightblue" stroke="midnightblue" points="739.48,-550.98 731.87,-558.35 742.42,-557.33 739.48,-550.98"/>
</g>
<!-- Node20 -->
<g id="node20" class="node">
<title>Node20</title>
<g id="a_node20"><a xlink:href="v2_2sram__controller_8h.html" target="_top" xlink:title=" ">
<polygon fill="white" stroke="black" points="1110.41,-465.5 1110.41,-521.5 1295.88,-521.5 1295.88,-465.5 1110.41,-465.5"/>
<text text-anchor="start" x="1118.41" y="-508.5" font-family="Helvetica,sans-Serif" font-size="10.00">/jenkins/jenlib_workspaces</text>
<text text-anchor="start" x="1118.41" y="-496.5" font-family="Helvetica,sans-Serif" font-size="10.00">_f9/bld_nightly&#45;haldls.YmxkX25p</text>
<text text-anchor="start" x="1118.41" y="-484.5" font-family="Helvetica,sans-Serif" font-size="10.00">Z2h0bHktaGFsZGxzIzEzNzk.x/haldls</text>
<text text-anchor="middle" x="1203.15" y="-472.5" font-family="Helvetica,sans-Serif" font-size="10.00">/include/haldls/vx/v2/sram_controller.h</text>
</a>
</g>
</g>
<!-- Node1&#45;&gt;Node20 -->
<g id="edge26" class="edge">
<title>Node1&#45;&gt;Node20</title>
<path fill="none" stroke="midnightblue" d="M774.05,-568.18C870.86,-551.55 1015.87,-526.65 1110,-510.49"/>
<polygon fill="midnightblue" stroke="midnightblue" points="773.22,-564.77 763.96,-569.91 774.4,-571.67 773.22,-564.77"/>
</g>
<!-- Node21 -->
<g id="node21" class="node">
<title>Node21</title>
<g id="a_node21"><a xlink:href="v3_2sram__controller_8h.html" target="_top" xlink:title=" ">
<polygon fill="white" stroke="black" points="43.41,-465.5 43.41,-521.5 228.88,-521.5 228.88,-465.5 43.41,-465.5"/>
<text text-anchor="start" x="51.41" y="-508.5" font-family="Helvetica,sans-Serif" font-size="10.00">/jenkins/jenlib_workspaces</text>
<text text-anchor="start" x="51.41" y="-496.5" font-family="Helvetica,sans-Serif" font-size="10.00">_f9/bld_nightly&#45;haldls.YmxkX25p</text>
<text text-anchor="start" x="51.41" y="-484.5" font-family="Helvetica,sans-Serif" font-size="10.00">Z2h0bHktaGFsZGxzIzEzNzk.x/haldls</text>
<text text-anchor="middle" x="136.15" y="-472.5" font-family="Helvetica,sans-Serif" font-size="10.00">/include/haldls/vx/v3/sram_controller.h</text>
</a>
</g>
</g>
<!-- Node1&#45;&gt;Node21 -->
<g id="edge28" class="edge">
<title>Node1&#45;&gt;Node21</title>
<path fill="none" stroke="midnightblue" d="M572.38,-568.42C473.82,-551.72 324.96,-526.5 229.15,-510.26"/>
<polygon fill="midnightblue" stroke="midnightblue" points="571.91,-571.89 582.36,-570.11 573.08,-564.99 571.91,-571.89"/>
</g>
<!-- Node3 -->
<g id="node3" class="node">
<title>Node3</title>
<g id="a_node3"><a xlink:href="v2_2cadc_8h.html" target="_top" xlink:title=" ">
<polygon fill="white" stroke="black" points="224.64,-279.5 224.64,-335.5 405.66,-335.5 405.66,-279.5 224.64,-279.5"/>
<text text-anchor="start" x="232.64" y="-322.5" font-family="Helvetica,sans-Serif" font-size="10.00">/jenkins/jenlib_workspaces</text>
<text text-anchor="start" x="232.64" y="-310.5" font-family="Helvetica,sans-Serif" font-size="10.00">_f9/bld_nightly&#45;haldls.YmxkX25p</text>
<text text-anchor="start" x="232.64" y="-298.5" font-family="Helvetica,sans-Serif" font-size="10.00">Z2h0bHktaGFsZGxzIzEzNzk.x/haldls</text>
<text text-anchor="middle" x="315.15" y="-286.5" font-family="Helvetica,sans-Serif" font-size="10.00">/include/haldls/vx/v2/cadc.h</text>
</a>
</g>
</g>
<!-- Node2&#45;&gt;Node3 -->
<g id="edge2" class="edge">
<title>Node2&#45;&gt;Node3</title>
<path fill="none" stroke="midnightblue" d="M291.2,-362.98C295.19,-353.9 299.4,-344.33 303.15,-335.78"/>
<polygon fill="midnightblue" stroke="midnightblue" points="287.97,-361.63 287.15,-372.2 294.38,-364.45 287.97,-361.63"/>
</g>
<!-- Node7 -->
<g id="node7" class="node">
<title>Node7</title>
<g id="a_node7"><a xlink:href="v3_2cadc_8h.html" target="_top" xlink:title=" ">
<polygon fill="white" stroke="black" points="25.64,-279.5 25.64,-335.5 206.66,-335.5 206.66,-279.5 25.64,-279.5"/>
<text text-anchor="start" x="33.64" y="-322.5" font-family="Helvetica,sans-Serif" font-size="10.00">/jenkins/jenlib_workspaces</text>
<text text-anchor="start" x="33.64" y="-310.5" font-family="Helvetica,sans-Serif" font-size="10.00">_f9/bld_nightly&#45;haldls.YmxkX25p</text>
<text text-anchor="start" x="33.64" y="-298.5" font-family="Helvetica,sans-Serif" font-size="10.00">Z2h0bHktaGFsZGxzIzEzNzk.x/haldls</text>
<text text-anchor="middle" x="116.15" y="-286.5" font-family="Helvetica,sans-Serif" font-size="10.00">/include/haldls/vx/v3/cadc.h</text>
</a>
</g>
</g>
<!-- Node2&#45;&gt;Node7 -->
<g id="edge6" class="edge">
<title>Node2&#45;&gt;Node7</title>
<path fill="none" stroke="midnightblue" d="M219.12,-367.43C200.95,-357.04 180.99,-345.61 163.51,-335.61"/>
<polygon fill="midnightblue" stroke="midnightblue" points="217.45,-370.51 227.87,-372.44 220.93,-364.44 217.45,-370.51"/>
</g>
<!-- Node4 -->
<g id="node4" class="node">
<title>Node4</title>
<g id="a_node4"><a xlink:href="v2_2container_8h.html" target="_top" xlink:title=" ">
<polygon fill="white" stroke="black" points="983.64,-186.5 983.64,-242.5 1164.66,-242.5 1164.66,-186.5 983.64,-186.5"/>
<text text-anchor="start" x="991.64" y="-229.5" font-family="Helvetica,sans-Serif" font-size="10.00">/jenkins/jenlib_workspaces</text>
<text text-anchor="start" x="991.64" y="-217.5" font-family="Helvetica,sans-Serif" font-size="10.00">_f9/bld_nightly&#45;haldls.YmxkX25p</text>
<text text-anchor="start" x="991.64" y="-205.5" font-family="Helvetica,sans-Serif" font-size="10.00">Z2h0bHktaGFsZGxzIzEzNzk.x/haldls</text>
<text text-anchor="middle" x="1074.15" y="-193.5" font-family="Helvetica,sans-Serif" font-size="10.00">/include/haldls/vx/v2/container.h</text>
</a>
</g>
</g>
<!-- Node3&#45;&gt;Node4 -->
<g id="edge3" class="edge">
<title>Node3&#45;&gt;Node4</title>
<path fill="none" stroke="midnightblue" d="M415.87,-285.28C428.39,-282.98 441.04,-280.82 453.15,-279 640.83,-250.77 862.34,-231.45 983.57,-222.06"/>
<polygon fill="midnightblue" stroke="midnightblue" points="415.05,-281.87 405.86,-287.15 416.34,-288.75 415.05,-281.87"/>
</g>
<!-- Node5 -->
<g id="node5" class="node">
<title>Node5</title>
<g id="a_node5"><a xlink:href="v2_2haldls_8h.html" target="_top" xlink:title=" ">
<polygon fill="white" stroke="black" points="983.64,-93.5 983.64,-149.5 1164.66,-149.5 1164.66,-93.5 983.64,-93.5"/>
<text text-anchor="start" x="991.64" y="-136.5" font-family="Helvetica,sans-Serif" font-size="10.00">/jenkins/jenlib_workspaces</text>
<text text-anchor="start" x="991.64" y="-124.5" font-family="Helvetica,sans-Serif" font-size="10.00">_f9/bld_nightly&#45;haldls.YmxkX25p</text>
<text text-anchor="start" x="991.64" y="-112.5" font-family="Helvetica,sans-Serif" font-size="10.00">Z2h0bHktaGFsZGxzIzEzNzk.x/haldls</text>
<text text-anchor="middle" x="1074.15" y="-100.5" font-family="Helvetica,sans-Serif" font-size="10.00">/include/haldls/vx/v2/haldls.h</text>
</a>
</g>
</g>
<!-- Node4&#45;&gt;Node5 -->
<g id="edge4" class="edge">
<title>Node4&#45;&gt;Node5</title>
<path fill="none" stroke="midnightblue" d="M1074.15,-176.12C1074.15,-167.3 1074.15,-158.06 1074.15,-149.78"/>
<polygon fill="midnightblue" stroke="midnightblue" points="1070.65,-176.2 1074.15,-186.2 1077.65,-176.2 1070.65,-176.2"/>
</g>
<!-- Node6 -->
<g id="node6" class="node">
<title>Node6</title>
<g id="a_node6"><a xlink:href="v2_2pyhaldls_8h.html" target="_top" xlink:title=" ">
<polygon fill="white" stroke="black" points="983.64,-0.5 983.64,-56.5 1164.66,-56.5 1164.66,-0.5 983.64,-0.5"/>
<text text-anchor="start" x="991.64" y="-43.5" font-family="Helvetica,sans-Serif" font-size="10.00">/jenkins/jenlib_workspaces</text>
<text text-anchor="start" x="991.64" y="-31.5" font-family="Helvetica,sans-Serif" font-size="10.00">_f9/bld_nightly&#45;haldls.YmxkX25p</text>
<text text-anchor="start" x="991.64" y="-19.5" font-family="Helvetica,sans-Serif" font-size="10.00">Z2h0bHktaGFsZGxzIzEzNzk.x/haldls</text>
<text text-anchor="middle" x="1074.15" y="-7.5" font-family="Helvetica,sans-Serif" font-size="10.00">/include/haldls/vx/v2/pyhaldls.h</text>
</a>
</g>
</g>
<!-- Node5&#45;&gt;Node6 -->
<g id="edge5" class="edge">
<title>Node5&#45;&gt;Node6</title>
<path fill="none" stroke="midnightblue" d="M1074.15,-83.12C1074.15,-74.3 1074.15,-65.06 1074.15,-56.78"/>
<polygon fill="midnightblue" stroke="midnightblue" points="1070.65,-83.2 1074.15,-93.2 1077.65,-83.2 1070.65,-83.2"/>
</g>
<!-- Node8 -->
<g id="node8" class="node">
<title>Node8</title>
<g id="a_node8"><a xlink:href="v3_2container_8h.html" target="_top" xlink:title=" ">
<polygon fill="white" stroke="black" points="343.64,-186.5 343.64,-242.5 524.66,-242.5 524.66,-186.5 343.64,-186.5"/>
<text text-anchor="start" x="351.64" y="-229.5" font-family="Helvetica,sans-Serif" font-size="10.00">/jenkins/jenlib_workspaces</text>
<text text-anchor="start" x="351.64" y="-217.5" font-family="Helvetica,sans-Serif" font-size="10.00">_f9/bld_nightly&#45;haldls.YmxkX25p</text>
<text text-anchor="start" x="351.64" y="-205.5" font-family="Helvetica,sans-Serif" font-size="10.00">Z2h0bHktaGFsZGxzIzEzNzk.x/haldls</text>
<text text-anchor="middle" x="434.15" y="-193.5" font-family="Helvetica,sans-Serif" font-size="10.00">/include/haldls/vx/v3/container.h</text>
</a>
</g>
</g>
<!-- Node7&#45;&gt;Node8 -->
<g id="edge7" class="edge">
<title>Node7&#45;&gt;Node8</title>
<path fill="none" stroke="midnightblue" d="M216.52,-277.78C257.24,-266.12 303.94,-252.76 343.6,-241.41"/>
<polygon fill="midnightblue" stroke="midnightblue" points="215.5,-274.43 206.85,-280.54 217.42,-281.16 215.5,-274.43"/>
</g>
<!-- Node9 -->
<g id="node9" class="node">
<title>Node9</title>
<g id="a_node9"><a xlink:href="v3_2haldls_8h.html" target="_top" xlink:title=" ">
<polygon fill="white" stroke="black" points="343.64,-93.5 343.64,-149.5 524.66,-149.5 524.66,-93.5 343.64,-93.5"/>
<text text-anchor="start" x="351.64" y="-136.5" font-family="Helvetica,sans-Serif" font-size="10.00">/jenkins/jenlib_workspaces</text>
<text text-anchor="start" x="351.64" y="-124.5" font-family="Helvetica,sans-Serif" font-size="10.00">_f9/bld_nightly&#45;haldls.YmxkX25p</text>
<text text-anchor="start" x="351.64" y="-112.5" font-family="Helvetica,sans-Serif" font-size="10.00">Z2h0bHktaGFsZGxzIzEzNzk.x/haldls</text>
<text text-anchor="middle" x="434.15" y="-100.5" font-family="Helvetica,sans-Serif" font-size="10.00">/include/haldls/vx/v3/haldls.h</text>
</a>
</g>
</g>
<!-- Node8&#45;&gt;Node9 -->
<g id="edge8" class="edge">
<title>Node8&#45;&gt;Node9</title>
<path fill="none" stroke="midnightblue" d="M434.15,-176.12C434.15,-167.3 434.15,-158.06 434.15,-149.78"/>
<polygon fill="midnightblue" stroke="midnightblue" points="430.65,-176.2 434.15,-186.2 437.65,-176.2 430.65,-176.2"/>
</g>
<!-- Node10 -->
<g id="node10" class="node">
<title>Node10</title>
<g id="a_node10"><a xlink:href="v3_2pyhaldls_8h.html" target="_top" xlink:title=" ">
<polygon fill="white" stroke="black" points="343.64,-0.5 343.64,-56.5 524.66,-56.5 524.66,-0.5 343.64,-0.5"/>
<text text-anchor="start" x="351.64" y="-43.5" font-family="Helvetica,sans-Serif" font-size="10.00">/jenkins/jenlib_workspaces</text>
<text text-anchor="start" x="351.64" y="-31.5" font-family="Helvetica,sans-Serif" font-size="10.00">_f9/bld_nightly&#45;haldls.YmxkX25p</text>
<text text-anchor="start" x="351.64" y="-19.5" font-family="Helvetica,sans-Serif" font-size="10.00">Z2h0bHktaGFsZGxzIzEzNzk.x/haldls</text>
<text text-anchor="middle" x="434.15" y="-7.5" font-family="Helvetica,sans-Serif" font-size="10.00">/include/haldls/vx/v3/pyhaldls.h</text>
</a>
</g>
</g>
<!-- Node9&#45;&gt;Node10 -->
<g id="edge9" class="edge">
<title>Node9&#45;&gt;Node10</title>
<path fill="none" stroke="midnightblue" d="M434.15,-83.12C434.15,-74.3 434.15,-65.06 434.15,-56.78"/>
<polygon fill="midnightblue" stroke="midnightblue" points="430.65,-83.2 434.15,-93.2 437.65,-83.2 430.65,-83.2"/>
</g>
<!-- Node12 -->
<g id="node12" class="node">
<title>Node12</title>
<g id="a_node12"><a xlink:href="event_8h.html" target="_top" xlink:title=" ">
<polygon fill="white" stroke="black" points="582.64,-372.5 582.64,-428.5 763.66,-428.5 763.66,-372.5 582.64,-372.5"/>
<text text-anchor="start" x="590.64" y="-415.5" font-family="Helvetica,sans-Serif" font-size="10.00">/jenkins/jenlib_workspaces</text>
<text text-anchor="start" x="590.64" y="-403.5" font-family="Helvetica,sans-Serif" font-size="10.00">_f9/bld_nightly&#45;haldls.YmxkX25p</text>
<text text-anchor="start" x="590.64" y="-391.5" font-family="Helvetica,sans-Serif" font-size="10.00">Z2h0bHktaGFsZGxzIzEzNzk.x/haldls</text>
<text text-anchor="middle" x="673.15" y="-379.5" font-family="Helvetica,sans-Serif" font-size="10.00">/include/haldls/vx/event.h</text>
</a>
</g>
</g>
<!-- Node11&#45;&gt;Node12 -->
<g id="edge11" class="edge">
<title>Node11&#45;&gt;Node12</title>
<path fill="none" stroke="midnightblue" d="M673.15,-455.12C673.15,-446.3 673.15,-437.06 673.15,-428.78"/>
<polygon fill="midnightblue" stroke="midnightblue" points="669.65,-455.2 673.15,-465.2 676.65,-455.2 669.65,-455.2"/>
</g>
<!-- Node15 -->
<g id="node15" class="node">
<title>Node15</title>
<g id="a_node15"><a xlink:href="v2_2neuron_8h.html" target="_top" xlink:title=" ">
<polygon fill="white" stroke="black" points="781.64,-372.5 781.64,-428.5 962.66,-428.5 962.66,-372.5 781.64,-372.5"/>
<text text-anchor="start" x="789.64" y="-415.5" font-family="Helvetica,sans-Serif" font-size="10.00">/jenkins/jenlib_workspaces</text>
<text text-anchor="start" x="789.64" y="-403.5" font-family="Helvetica,sans-Serif" font-size="10.00">_f9/bld_nightly&#45;haldls.YmxkX25p</text>
<text text-anchor="start" x="789.64" y="-391.5" font-family="Helvetica,sans-Serif" font-size="10.00">Z2h0bHktaGFsZGxzIzEzNzk.x/haldls</text>
<text text-anchor="middle" x="872.15" y="-379.5" font-family="Helvetica,sans-Serif" font-size="10.00">/include/haldls/vx/v2/neuron.h</text>
</a>
</g>
</g>
<!-- Node11&#45;&gt;Node15 -->
<g id="edge16" class="edge">
<title>Node11&#45;&gt;Node15</title>
<path fill="none" stroke="midnightblue" d="M741.42,-461.28C764.64,-450.66 790.4,-438.88 812.86,-428.61"/>
<polygon fill="midnightblue" stroke="midnightblue" points="739.95,-458.1 732.31,-465.44 742.86,-464.47 739.95,-458.1"/>
</g>
<!-- Node16 -->
<g id="node16" class="node">
<title>Node16</title>
<g id="a_node16"><a xlink:href="v3_2neuron_8h.html" target="_top" xlink:title=" ">
<polygon fill="white" stroke="black" points="383.64,-372.5 383.64,-428.5 564.66,-428.5 564.66,-372.5 383.64,-372.5"/>
<text text-anchor="start" x="391.64" y="-415.5" font-family="Helvetica,sans-Serif" font-size="10.00">/jenkins/jenlib_workspaces</text>
<text text-anchor="start" x="391.64" y="-403.5" font-family="Helvetica,sans-Serif" font-size="10.00">_f9/bld_nightly&#45;haldls.YmxkX25p</text>
<text text-anchor="start" x="391.64" y="-391.5" font-family="Helvetica,sans-Serif" font-size="10.00">Z2h0bHktaGFsZGxzIzEzNzk.x/haldls</text>
<text text-anchor="middle" x="474.15" y="-379.5" font-family="Helvetica,sans-Serif" font-size="10.00">/include/haldls/vx/v3/neuron.h</text>
</a>
</g>
</g>
<!-- Node11&#45;&gt;Node16 -->
<g id="edge18" class="edge">
<title>Node11&#45;&gt;Node16</title>
<path fill="none" stroke="midnightblue" d="M604.88,-461.28C581.65,-450.66 555.9,-438.88 533.43,-428.61"/>
<polygon fill="midnightblue" stroke="midnightblue" points="603.43,-464.47 613.98,-465.44 606.34,-458.1 603.43,-464.47"/>
</g>
<!-- Node13 -->
<g id="node13" class="node">
<title>Node13</title>
<g id="a_node13"><a xlink:href="v2_2event_8h.html" target="_top" xlink:title=" ">
<polygon fill="white" stroke="black" points="864.64,-279.5 864.64,-335.5 1045.66,-335.5 1045.66,-279.5 864.64,-279.5"/>
<text text-anchor="start" x="872.64" y="-322.5" font-family="Helvetica,sans-Serif" font-size="10.00">/jenkins/jenlib_workspaces</text>
<text text-anchor="start" x="872.64" y="-310.5" font-family="Helvetica,sans-Serif" font-size="10.00">_f9/bld_nightly&#45;haldls.YmxkX25p</text>
<text text-anchor="start" x="872.64" y="-298.5" font-family="Helvetica,sans-Serif" font-size="10.00">Z2h0bHktaGFsZGxzIzEzNzk.x/haldls</text>
<text text-anchor="middle" x="955.15" y="-286.5" font-family="Helvetica,sans-Serif" font-size="10.00">/include/haldls/vx/v2/event.h</text>
</a>
</g>
</g>
<!-- Node12&#45;&gt;Node13 -->
<g id="edge12" class="edge">
<title>Node12&#45;&gt;Node13</title>
<path fill="none" stroke="midnightblue" d="M766.84,-369.26C800.54,-358.39 838.32,-346.2 871.14,-335.61"/>
<polygon fill="midnightblue" stroke="midnightblue" points="765.43,-366.04 756.99,-372.44 767.58,-372.7 765.43,-366.04"/>
</g>
<!-- Node14 -->
<g id="node14" class="node">
<title>Node14</title>
<g id="a_node14"><a xlink:href="v3_2event_8h.html" target="_top" xlink:title=" ">
<polygon fill="white" stroke="black" points="462.64,-279.5 462.64,-335.5 643.66,-335.5 643.66,-279.5 462.64,-279.5"/>
<text text-anchor="start" x="470.64" y="-322.5" font-family="Helvetica,sans-Serif" font-size="10.00">/jenkins/jenlib_workspaces</text>
<text text-anchor="start" x="470.64" y="-310.5" font-family="Helvetica,sans-Serif" font-size="10.00">_f9/bld_nightly&#45;haldls.YmxkX25p</text>
<text text-anchor="start" x="470.64" y="-298.5" font-family="Helvetica,sans-Serif" font-size="10.00">Z2h0bHktaGFsZGxzIzEzNzk.x/haldls</text>
<text text-anchor="middle" x="553.15" y="-286.5" font-family="Helvetica,sans-Serif" font-size="10.00">/include/haldls/vx/v3/event.h</text>
</a>
</g>
</g>
<!-- Node12&#45;&gt;Node14 -->
<g id="edge14" class="edge">
<title>Node12&#45;&gt;Node14</title>
<path fill="none" stroke="midnightblue" d="M629.36,-366.29C616.06,-356.21 601.6,-345.25 588.9,-335.61"/>
<polygon fill="midnightblue" stroke="midnightblue" points="627.38,-369.19 637.47,-372.44 631.61,-363.61 627.38,-369.19"/>
</g>
<!-- Node13&#45;&gt;Node4 -->
<g id="edge13" class="edge">
<title>Node13&#45;&gt;Node4</title>
<path fill="none" stroke="midnightblue" d="M998.57,-273.29C1011.76,-263.21 1026.09,-252.25 1038.7,-242.61"/>
<polygon fill="midnightblue" stroke="midnightblue" points="996.35,-270.59 990.53,-279.44 1000.6,-276.15 996.35,-270.59"/>
</g>
<!-- Node14&#45;&gt;Node8 -->
<g id="edge15" class="edge">
<title>Node14&#45;&gt;Node8</title>
<path fill="none" stroke="midnightblue" d="M509.72,-273.29C496.53,-263.21 482.2,-252.25 469.6,-242.61"/>
<polygon fill="midnightblue" stroke="midnightblue" points="507.7,-276.15 517.76,-279.44 511.95,-270.59 507.7,-276.15"/>
</g>
<!-- Node15&#45;&gt;Node4 -->
<g id="edge17" class="edge">
<title>Node15&#45;&gt;Node4</title>
<path fill="none" stroke="midnightblue" d="M972.84,-369.37C1011.98,-356.77 1048.99,-343.36 1055.15,-336 1076.89,-310.01 1078.87,-269.44 1077.31,-242.66"/>
<polygon fill="midnightblue" stroke="midnightblue" points="971.32,-366.18 962.86,-372.56 973.45,-372.85 971.32,-366.18"/>
</g>
<!-- Node16&#45;&gt;Node8 -->
<g id="edge19" class="edge">
<title>Node16&#45;&gt;Node8</title>
<path fill="none" stroke="midnightblue" d="M460.87,-362.77C458.05,-354.07 455.27,-344.77 453.15,-336 445.46,-304.3 440.15,-267.14 437.13,-242.55"/>
<polygon fill="midnightblue" stroke="midnightblue" points="457.56,-363.91 464.06,-372.28 464.2,-361.68 457.56,-363.91"/>
</g>
<!-- Node17&#45;&gt;Node17 -->
<g id="edge21" class="edge">
<title>Node17&#45;&gt;Node17</title>
<path fill="none" stroke="midnightblue" d="M1171.46,-411.75C1176.61,-408.97 1179.66,-405.22 1179.66,-400.5 1179.66,-393.31 1172.59,-388.37 1161.77,-385.68"/>
<polygon fill="midnightblue" stroke="midnightblue" points="1169.94,-408.58 1161.77,-415.32 1172.37,-415.15 1169.94,-408.58"/>
</g>
<!-- Node18 -->
<g id="node18" class="node">
<title>Node18</title>
<g id="a_node18"><a xlink:href="v2_2synapse__driver_8h.html" target="_top" xlink:title=" ">
<polygon fill="white" stroke="black" points="1101.96,-279.5 1101.96,-335.5 1286.33,-335.5 1286.33,-279.5 1101.96,-279.5"/>
<text text-anchor="start" x="1109.96" y="-322.5" font-family="Helvetica,sans-Serif" font-size="10.00">/jenkins/jenlib_workspaces</text>
<text text-anchor="start" x="1109.96" y="-310.5" font-family="Helvetica,sans-Serif" font-size="10.00">_f9/bld_nightly&#45;haldls.YmxkX25p</text>
<text text-anchor="start" x="1109.96" y="-298.5" font-family="Helvetica,sans-Serif" font-size="10.00">Z2h0bHktaGFsZGxzIzEzNzk.x/haldls</text>
<text text-anchor="middle" x="1194.15" y="-286.5" font-family="Helvetica,sans-Serif" font-size="10.00">/include/haldls/vx/v2/synapse_driver.h</text>
</a>
</g>
</g>
<!-- Node17&#45;&gt;Node18 -->
<g id="edge22" class="edge">
<title>Node17&#45;&gt;Node18</title>
<path fill="none" stroke="midnightblue" d="M1116.03,-366.29C1129.66,-356.21 1144.48,-345.25 1157.5,-335.61"/>
<polygon fill="midnightblue" stroke="midnightblue" points="1113.67,-363.68 1107.72,-372.44 1117.84,-369.31 1113.67,-363.68"/>
</g>
<!-- Node19 -->
<g id="node19" class="node">
<title>Node19</title>
<g id="a_node19"><a xlink:href="v3_2synapse__driver_8h.html" target="_top" xlink:title=" ">
<polygon fill="white" stroke="black" points="661.96,-279.5 661.96,-335.5 846.33,-335.5 846.33,-279.5 661.96,-279.5"/>
<text text-anchor="start" x="669.96" y="-322.5" font-family="Helvetica,sans-Serif" font-size="10.00">/jenkins/jenlib_workspaces</text>
<text text-anchor="start" x="669.96" y="-310.5" font-family="Helvetica,sans-Serif" font-size="10.00">_f9/bld_nightly&#45;haldls.YmxkX25p</text>
<text text-anchor="start" x="669.96" y="-298.5" font-family="Helvetica,sans-Serif" font-size="10.00">Z2h0bHktaGFsZGxzIzEzNzk.x/haldls</text>
<text text-anchor="middle" x="754.15" y="-286.5" font-family="Helvetica,sans-Serif" font-size="10.00">/include/haldls/vx/v3/synapse_driver.h</text>
</a>
</g>
</g>
<!-- Node17&#45;&gt;Node19 -->
<g id="edge24" class="edge">
<title>Node17&#45;&gt;Node19</title>
<path fill="none" stroke="midnightblue" d="M970.58,-370.63C930.78,-359.21 885.32,-346.16 846.37,-334.98"/>
<polygon fill="midnightblue" stroke="midnightblue" points="969.73,-374.03 980.31,-373.42 971.66,-367.3 969.73,-374.03"/>
</g>
<!-- Node18&#45;&gt;Node4 -->
<g id="edge23" class="edge">
<title>Node18&#45;&gt;Node4</title>
<path fill="none" stroke="midnightblue" d="M1150.36,-273.29C1137.06,-263.21 1122.6,-252.25 1109.9,-242.61"/>
<polygon fill="midnightblue" stroke="midnightblue" points="1148.38,-276.19 1158.47,-279.44 1152.61,-270.61 1148.38,-276.19"/>
</g>
<!-- Node19&#45;&gt;Node8 -->
<g id="edge25" class="edge">
<title>Node19&#45;&gt;Node8</title>
<path fill="none" stroke="midnightblue" d="M651.89,-277.42C611.06,-265.81 564.44,-252.55 524.84,-241.29"/>
<polygon fill="midnightblue" stroke="midnightblue" points="651.01,-280.81 661.59,-280.18 652.93,-274.08 651.01,-280.81"/>
</g>
<!-- Node20&#45;&gt;Node4 -->
<g id="edge27" class="edge">
<title>Node20&#45;&gt;Node4</title>
<path fill="none" stroke="midnightblue" d="M1238.47,-458.04C1279.75,-413.51 1337.38,-335.08 1295.15,-279 1278.94,-257.48 1218.36,-240.99 1164.73,-230.22"/>
<polygon fill="midnightblue" stroke="midnightblue" points="1235.82,-455.74 1231.49,-465.41 1240.9,-460.55 1235.82,-455.74"/>
</g>
<!-- Node21&#45;&gt;Node8 -->
<g id="edge29" class="edge">
<title>Node21&#45;&gt;Node8</title>
<path fill="none" stroke="midnightblue" d="M93.15,-458.86C41.54,-414.49 -32.36,-335.43 16.15,-279 57.47,-230.92 233.37,-218.81 343.4,-216.02"/>
<polygon fill="midnightblue" stroke="midnightblue" points="91.01,-461.63 100.91,-465.41 95.53,-456.29 91.01,-461.63"/>
</g>
</g>
</svg>
        <g id="navigator" transform="translate(0 0)" fill="#404254">
                <rect fill="#f2f5e9" fill-opacity="0.5" stroke="#606060" stroke-width=".5" x="0" y="0" width="60" height="60"/>
                <use id="zoomplus" xlink:href="#zoomPlus" x="17" y="9" onmousedown="handleZoom(evt,'in')"/>
                <use id="zoomminus" xlink:href="#zoomMin" x="42" y="9" onmousedown="handleZoom(evt,'out')"/>
                <use id="reset" xlink:href="#resetDef" x="30" y="36" onmousedown="handleReset()"/>
                <g id="arrowUp" xlink:href="#dirArrow" transform="translate(30 24)" onmousedown="handlePan(0,-1)">
                  <use xlink:href="#rim" fill="#404040">
                        <set attributeName="fill" to="#808080" begin="arrowUp.mouseover" end="arrowUp.mouseout"/>
                  </use>
                  <path fill="none" stroke="white" stroke-width="1.5" d="M0,-3.0v7 M-2.5,-0.5L0,-3.0L2.5,-0.5"/>
                </g>
                <g id="arrowRight" xlink:href="#dirArrow" transform="rotate(90) translate(36 -43)" onmousedown="handlePan(1,0)">
                  <use xlink:href="#rim" fill="#404040">
                        <set attributeName="fill" to="#808080" begin="arrowRight.mouseover" end="arrowRight.mouseout"/>
                  </use>
                  <path fill="none" stroke="white" stroke-width="1.5" d="M0,-3.0v7 M-2.5,-0.5L0,-3.0L2.5,-0.5"/>
                </g>
                <g id="arrowDown" xlink:href="#dirArrow" transform="rotate(180) translate(-30 -48)" onmousedown="handlePan(0,1)">
                  <use xlink:href="#rim" fill="#404040">
                        <set attributeName="fill" to="#808080" begin="arrowDown.mouseover" end="arrowDown.mouseout"/>
                  </use>
                  <path fill="none" stroke="white" stroke-width="1.5" d="M0,-3.0v7 M-2.5,-0.5L0,-3.0L2.5,-0.5"/>
                </g>
                <g id="arrowLeft" xlink:href="#dirArrow" transform="rotate(270) translate(-36 17)" onmousedown="handlePan(-1,0)">
                  <use xlink:href="#rim" fill="#404040">
                        <set attributeName="fill" to="#808080" begin="arrowLeft.mouseover" end="arrowLeft.mouseout"/>
                  </use>
                  <path fill="none" stroke="white" stroke-width="1.5" d="M0,-3.0v7 M-2.5,-0.5L0,-3.0L2.5,-0.5"/>
                </g>
        </g>
        <svg viewBox="0 0 15 15" width="100%" height="30px" preserveAspectRatio="xMaxYMin meet">
         <g id="arrow_out" transform="scale(0.3 0.3)">
          <a xlink:href="sram__controller_8h__dep__incl_org.svg" target="_base">
           <rect id="button" ry="5" rx="5" y="6" x="6" height="38" width="38"
                fill="#f2f5e9" fill-opacity="0.5" stroke="#606060" stroke-width="1.0"/>
           <path id="arrow"
             d="M 11.500037,31.436501 C 11.940474,20.09759 22.043105,11.32322 32.158766,21.979434 L 37.068811,17.246167 C 37.068811,17.246167 37.088388,32 37.088388,32 L 22.160133,31.978069 C 22.160133,31.978069 26.997745,27.140456 26.997745,27.140456 C 18.528582,18.264221 13.291696,25.230495 11.500037,31.436501 z"
             style="fill:#404040;"/>
          </a>
         </g>
        </svg>
</svg>
