<?xml version="1.0" encoding="UTF-8" standalone="no"?>
<!DOCTYPE svg PUBLIC "-//W3C//DTD SVG 1.1//EN"
 "http://www.w3.org/Graphics/SVG/1.1/DTD/svg11.dtd">
<!-- Generated by graphviz version 2.46.0 (0)
 -->
<!-- Title: haldls::vx::NeuronBackendConfig&lt; Coordinates &gt;::InputClock Pages: 1 -->
<svg width="148pt" height="134pt"
 viewBox="0.00 0.00 147.64 134.00" xmlns="http://www.w3.org/2000/svg" xmlns:xlink="http://www.w3.org/1999/xlink">
<g id="graph0" class="graph" transform="scale(1 1) rotate(0) translate(4 130)">
<title>haldls::vx::NeuronBackendConfig&lt; Coordinates &gt;::InputClock</title>
<polygon fill="white" stroke="transparent" points="-4,4 -4,-130 143.64,-130 143.64,4 -4,4"/>
<!-- Node1 -->
<g id="node1" class="node">
<title>Node1</title>
<g id="a_node1"><a xlink:title="There are two independent but equivalent clocks available.">
<polygon fill="#bfbfbf" stroke="black" points="2.36,-0.5 2.36,-44.5 137.28,-44.5 137.28,-0.5 2.36,-0.5"/>
<text text-anchor="start" x="10.36" y="-31.5" font-family="Helvetica,sans-Serif" font-size="10.00">haldls::vx::NeuronBackend</text>
<text text-anchor="start" x="10.36" y="-19.5" font-family="Helvetica,sans-Serif" font-size="10.00">Config&lt; Coordinates &gt;::</text>
<text text-anchor="middle" x="69.82" y="-7.5" font-family="Helvetica,sans-Serif" font-size="10.00">InputClock</text>
</a>
</g>
</g>
<!-- Node2 -->
<g id="node2" class="node">
<title>Node2</title>
<g id="a_node2"><a xlink:title=" ">
<polygon fill="white" stroke="#bfbfbf" points="0,-81.5 0,-125.5 139.64,-125.5 139.64,-81.5 0,-81.5"/>
<text text-anchor="start" x="8" y="-112.5" font-family="Helvetica,sans-Serif" font-size="10.00">halco::common::detail</text>
<text text-anchor="start" x="8" y="-100.5" font-family="Helvetica,sans-Serif" font-size="10.00">::RantWrapper&lt; InputClock,</text>
<text text-anchor="middle" x="69.82" y="-88.5" font-family="Helvetica,sans-Serif" font-size="10.00"> uint_fast8_t, 1, 0 &gt;</text>
</a>
</g>
</g>
<!-- Node2&#45;&gt;Node1 -->
<g id="edge1" class="edge">
<title>Node2&#45;&gt;Node1</title>
<path fill="none" stroke="midnightblue" d="M69.82,-71.27C69.82,-62.37 69.82,-52.88 69.82,-44.73"/>
<polygon fill="midnightblue" stroke="midnightblue" points="66.32,-71.33 69.82,-81.33 73.32,-71.33 66.32,-71.33"/>
</g>
</g>
</svg>
