<?xml version="1.0" encoding="UTF-8" standalone="no"?>
<!DOCTYPE svg PUBLIC "-//W3C//DTD SVG 1.1//EN"
 "http://www.w3.org/Graphics/SVG/1.1/DTD/svg11.dtd">
<!-- Generated by graphviz version 2.46.0 (0)
 -->
<!-- Title: haldls::vx::MADCConfig::SampleDurationAdjust Pages: 1 -->
<svg width="169pt" height="122pt"
 viewBox="0.00 0.00 169.30 122.00" xmlns="http://www.w3.org/2000/svg" xmlns:xlink="http://www.w3.org/1999/xlink">
<g id="graph0" class="graph" transform="scale(1 1) rotate(0) translate(4 118)">
<title>haldls::vx::MADCConfig::SampleDurationAdjust</title>
<polygon fill="white" stroke="transparent" points="-4,4 -4,-118 165.3,-118 165.3,4 -4,4"/>
<!-- Node1 -->
<g id="node1" class="node">
<title>Node1</title>
<g id="a_node1"><a xlink:title=" ">
<polygon fill="#bfbfbf" stroke="black" points="19.87,-0.5 19.87,-32.5 141.43,-32.5 141.43,-0.5 19.87,-0.5"/>
<text text-anchor="start" x="27.87" y="-19.5" font-family="Helvetica,sans-Serif" font-size="10.00">haldls::vx::MADCConfig</text>
<text text-anchor="middle" x="80.65" y="-7.5" font-family="Helvetica,sans-Serif" font-size="10.00">::SampleDurationAdjust</text>
</a>
</g>
</g>
<!-- Node2 -->
<g id="node2" class="node">
<title>Node2</title>
<g id="a_node2"><a xlink:title=" ">
<polygon fill="white" stroke="#bfbfbf" points="0,-69.5 0,-113.5 161.3,-113.5 161.3,-69.5 0,-69.5"/>
<text text-anchor="start" x="8" y="-100.5" font-family="Helvetica,sans-Serif" font-size="10.00">halco::common::detail</text>
<text text-anchor="start" x="8" y="-88.5" font-family="Helvetica,sans-Serif" font-size="10.00">::RantWrapper&lt; SampleDuration</text>
<text text-anchor="middle" x="80.65" y="-76.5" font-family="Helvetica,sans-Serif" font-size="10.00">Adjust, uint_fast8_t, 7, 0 &gt;</text>
</a>
</g>
</g>
<!-- Node2&#45;&gt;Node1 -->
<g id="edge1" class="edge">
<title>Node2&#45;&gt;Node1</title>
<path fill="none" stroke="midnightblue" d="M80.65,-59.26C80.65,-50 80.65,-40.27 80.65,-32.54"/>
<polygon fill="midnightblue" stroke="midnightblue" points="77.15,-59.39 80.65,-69.39 84.15,-59.39 77.15,-59.39"/>
</g>
</g>
</svg>
