<?xml version="1.0" encoding="UTF-8" standalone="no"?>
<!DOCTYPE svg PUBLIC "-//W3C//DTD SVG 1.1//EN"
 "http://www.w3.org/Graphics/SVG/1.1/DTD/svg11.dtd">
<!-- Generated by graphviz version 2.46.0 (0)
 -->
<!-- Title: haldls::vx::detail::BackendContainerTrait&lt; SpikePack3ToChip &gt; Pages: 1 -->
<svg width="706pt" height="79pt"
 viewBox="0.00 0.00 706.38 78.50" xmlns="http://www.w3.org/2000/svg" xmlns:xlink="http://www.w3.org/1999/xlink">
<g id="graph0" class="graph" transform="scale(1 1) rotate(0) translate(4 74.5)">
<title>haldls::vx::detail::BackendContainerTrait&lt; SpikePack3ToChip &gt;</title>
<polygon fill="white" stroke="transparent" points="-4,4 -4,-74.5 702.38,-74.5 702.38,4 -4,4"/>
<!-- Node1 -->
<g id="node1" class="node">
<title>Node1</title>
<g id="a_node1"><a xlink:title=" ">
<polygon fill="#bfbfbf" stroke="black" points="574.58,-12.5 574.58,-56.5 698.38,-56.5 698.38,-12.5 574.58,-12.5"/>
<text text-anchor="start" x="582.58" y="-43.5" font-family="Helvetica,sans-Serif" font-size="10.00">haldls::vx::detail</text>
<text text-anchor="start" x="582.58" y="-31.5" font-family="Helvetica,sans-Serif" font-size="10.00">::BackendContainerTrait</text>
<text text-anchor="middle" x="636.48" y="-19.5" font-family="Helvetica,sans-Serif" font-size="10.00">&lt; SpikePack3ToChip &gt;</text>
</a>
</g>
</g>
<!-- Node2 -->
<g id="node2" class="node">
<title>Node2</title>
<g id="a_node2"><a xlink:href="structhaldls_1_1vx_1_1detail_1_1_backend_container_base.html" target="_top" xlink:title=" ">
<polygon fill="white" stroke="black" points="359.31,-0.5 359.31,-68.5 537.58,-68.5 537.58,-0.5 359.31,-0.5"/>
<text text-anchor="start" x="367.31" y="-55.5" font-family="Helvetica,sans-Serif" font-size="10.00">haldls::vx::detail</text>
<text text-anchor="start" x="367.31" y="-43.5" font-family="Helvetica,sans-Serif" font-size="10.00">::BackendContainerBase</text>
<text text-anchor="start" x="367.31" y="-31.5" font-family="Helvetica,sans-Serif" font-size="10.00">&lt; SpikePack3ToChip, fisch</text>
<text text-anchor="start" x="367.31" y="-19.5" font-family="Helvetica,sans-Serif" font-size="10.00">::vx::word_access_type::SpikePack3</text>
<text text-anchor="middle" x="448.44" y="-7.5" font-family="Helvetica,sans-Serif" font-size="10.00">ToChip &gt;</text>
</a>
</g>
</g>
<!-- Node2&#45;&gt;Node1 -->
<g id="edge1" class="edge">
<title>Node2&#45;&gt;Node1</title>
<path fill="none" stroke="midnightblue" d="M547.99,-34.5C556.98,-34.5 565.89,-34.5 574.4,-34.5"/>
<polygon fill="midnightblue" stroke="midnightblue" points="547.83,-31 537.83,-34.5 547.83,-38 547.83,-31"/>
</g>
<!-- Node3 -->
<g id="node3" class="node">
<title>Node3</title>
<g id="a_node3"><a xlink:href="structhaldls_1_1vx_1_1detail_1_1_backend_container_base.html" target="_top" xlink:title="Backend container trait base.">
<polygon fill="white" stroke="black" points="0,-6.5 0,-62.5 199.66,-62.5 199.66,-6.5 0,-6.5"/>
<text text-anchor="start" x="8" y="-49.5" font-family="Helvetica,sans-Serif" font-size="10.00">haldls::vx::detail</text>
<text text-anchor="start" x="8" y="-37.5" font-family="Helvetica,sans-Serif" font-size="10.00">::BackendContainerBase</text>
<text text-anchor="start" x="8" y="-25.5" font-family="Helvetica,sans-Serif" font-size="10.00">&lt; ContainerT, DefaultBackend</text>
<text text-anchor="middle" x="99.83" y="-13.5" font-family="Helvetica,sans-Serif" font-size="10.00">Container, AdditionalBackendContainer &gt;</text>
</a>
</g>
</g>
<!-- Node3&#45;&gt;Node2 -->
<g id="edge2" class="edge">
<title>Node3&#45;&gt;Node2</title>
<path fill="none" stroke="orange" stroke-dasharray="5,2" d="M209.83,-34.5C257.9,-34.5 313.67,-34.5 359.09,-34.5"/>
<polygon fill="orange" stroke="orange" points="209.69,-31 199.69,-34.5 209.69,-38 209.69,-31"/>
<text text-anchor="start" x="217.66" y="-61.5" font-family="Helvetica,sans-Serif" font-size="10.00"> &lt; SpikePack3ToChip,</text>
<text text-anchor="start" x="217.66" y="-49.5" font-family="Helvetica,sans-Serif" font-size="10.00"> fisch::vx::word_access</text>
<text text-anchor="middle" x="279.49" y="-37.5" font-family="Helvetica,sans-Serif" font-size="10.00">_type::SpikePack3ToChip &gt;</text>
</g>
</g>
</svg>
