<?xml version="1.0" encoding="UTF-8" standalone="no"?>
<!DOCTYPE svg PUBLIC "-//W3C//DTD SVG 1.1//EN"
 "http://www.w3.org/Graphics/SVG/1.1/DTD/svg11.dtd">
<!-- Generated by graphviz version 2.46.0 (0)
 -->
<!-- Title: haldls::vx::ADPLL::FilterShift Pages: 1 -->
<svg width="143pt" height="122pt"
 viewBox="0.00 0.00 142.62 122.00" xmlns="http://www.w3.org/2000/svg" xmlns:xlink="http://www.w3.org/1999/xlink">
<g id="graph0" class="graph" transform="scale(1 1) rotate(0) translate(4 118)">
<title>haldls::vx::ADPLL::FilterShift</title>
<polygon fill="white" stroke="transparent" points="-4,4 -4,-118 138.62,-118 138.62,4 -4,4"/>
<!-- Node1 -->
<g id="node1" class="node">
<title>Node1</title>
<g id="a_node1"><a xlink:title="Loop filter gain boost by 2^n during lock&#45;in, leads to lock time reduction.">
<polygon fill="#bfbfbf" stroke="black" points="17.08,-0.5 17.08,-32.5 117.54,-32.5 117.54,-0.5 17.08,-0.5"/>
<text text-anchor="start" x="25.08" y="-19.5" font-family="Helvetica,sans-Serif" font-size="10.00">haldls::vx::ADPLL::</text>
<text text-anchor="middle" x="67.31" y="-7.5" font-family="Helvetica,sans-Serif" font-size="10.00">FilterShift</text>
</a>
</g>
</g>
<!-- Node2 -->
<g id="node2" class="node">
<title>Node2</title>
<g id="a_node2"><a xlink:title=" ">
<polygon fill="white" stroke="#bfbfbf" points="0,-69.5 0,-113.5 134.62,-113.5 134.62,-69.5 0,-69.5"/>
<text text-anchor="start" x="8" y="-100.5" font-family="Helvetica,sans-Serif" font-size="10.00">halco::common::detail</text>
<text text-anchor="start" x="8" y="-88.5" font-family="Helvetica,sans-Serif" font-size="10.00">::RantWrapper&lt; FilterShift,</text>
<text text-anchor="middle" x="67.31" y="-76.5" font-family="Helvetica,sans-Serif" font-size="10.00"> uint_fast16_t, 3, 0 &gt;</text>
</a>
</g>
</g>
<!-- Node2&#45;&gt;Node1 -->
<g id="edge1" class="edge">
<title>Node2&#45;&gt;Node1</title>
<path fill="none" stroke="midnightblue" d="M67.31,-59.26C67.31,-50 67.31,-40.27 67.31,-32.54"/>
<polygon fill="midnightblue" stroke="midnightblue" points="63.81,-59.39 67.31,-69.39 70.81,-59.39 63.81,-59.39"/>
</g>
</g>
</svg>
