<?xml version="1.0" encoding="UTF-8" standalone="no"?>
<!DOCTYPE svg PUBLIC "-//W3C//DTD SVG 1.1//EN"
 "http://www.w3.org/Graphics/SVG/1.1/DTD/svg11.dtd">
<!-- Generated by graphviz version 2.46.0 (0)
 -->
<!-- Title: haldls::vx::SynapseLabelValue Pages: 1 -->
<svg width="161pt" height="122pt"
 viewBox="0.00 0.00 160.98 122.00" xmlns="http://www.w3.org/2000/svg" xmlns:xlink="http://www.w3.org/1999/xlink">
<g id="graph0" class="graph" transform="scale(1 1) rotate(0) translate(4 118)">
<title>haldls::vx::SynapseLabelValue</title>
<polygon fill="white" stroke="transparent" points="-4,4 -4,-118 156.98,-118 156.98,4 -4,4"/>
<!-- Node1 -->
<g id="node1" class="node">
<title>Node1</title>
<g id="a_node1"><a xlink:title="Value type of a single synapse label configuration.">
<polygon fill="#bfbfbf" stroke="black" points="13.2,-0.5 13.2,-32.5 139.79,-32.5 139.79,-0.5 13.2,-0.5"/>
<text text-anchor="start" x="21.2" y="-19.5" font-family="Helvetica,sans-Serif" font-size="10.00">haldls::vx::SynapseLabel</text>
<text text-anchor="middle" x="76.49" y="-7.5" font-family="Helvetica,sans-Serif" font-size="10.00">Value</text>
</a>
</g>
</g>
<!-- Node2 -->
<g id="node2" class="node">
<title>Node2</title>
<g id="a_node2"><a xlink:title=" ">
<polygon fill="white" stroke="#bfbfbf" points="0,-69.5 0,-113.5 152.98,-113.5 152.98,-69.5 0,-69.5"/>
<text text-anchor="start" x="8" y="-100.5" font-family="Helvetica,sans-Serif" font-size="10.00">halco::common::detail</text>
<text text-anchor="start" x="8" y="-88.5" font-family="Helvetica,sans-Serif" font-size="10.00">::RantWrapper&lt; SynapseLabel</text>
<text text-anchor="middle" x="76.49" y="-76.5" font-family="Helvetica,sans-Serif" font-size="10.00">Value, uint8_t, 63, 0 &gt;</text>
</a>
</g>
</g>
<!-- Node2&#45;&gt;Node1 -->
<g id="edge1" class="edge">
<title>Node2&#45;&gt;Node1</title>
<path fill="none" stroke="midnightblue" d="M76.49,-59.26C76.49,-50 76.49,-40.27 76.49,-32.54"/>
<polygon fill="midnightblue" stroke="midnightblue" points="72.99,-59.39 76.49,-69.39 79.99,-59.39 72.99,-59.39"/>
</g>
</g>
</svg>
