<?xml version="1.0" encoding="UTF-8" standalone="no"?>
<!DOCTYPE svg PUBLIC "-//W3C//DTD SVG 1.1//EN"
 "http://www.w3.org/Graphics/SVG/1.1/DTD/svg11.dtd">
<!-- Generated by graphviz version 2.46.0 (0)
 -->
<!-- Title: haldls::vx::VectorGeneratorControl::SourceCount Pages: 1 -->
<svg width="159pt" height="122pt"
 viewBox="0.00 0.00 158.75 122.00" xmlns="http://www.w3.org/2000/svg" xmlns:xlink="http://www.w3.org/1999/xlink">
<g id="graph0" class="graph" transform="scale(1 1) rotate(0) translate(4 118)">
<title>haldls::vx::VectorGeneratorControl::SourceCount</title>
<polygon fill="white" stroke="transparent" points="-4,4 -4,-118 154.75,-118 154.75,4 -4,4"/>
<!-- Node1 -->
<g id="node1" class="node">
<title>Node1</title>
<g id="a_node1"><a xlink:title="Number of sources to use.">
<polygon fill="#bfbfbf" stroke="black" points="6.81,-0.5 6.81,-32.5 143.95,-32.5 143.95,-0.5 6.81,-0.5"/>
<text text-anchor="start" x="14.81" y="-19.5" font-family="Helvetica,sans-Serif" font-size="10.00">haldls::vx::VectorGenerator</text>
<text text-anchor="middle" x="75.38" y="-7.5" font-family="Helvetica,sans-Serif" font-size="10.00">Control::SourceCount</text>
</a>
</g>
</g>
<!-- Node2 -->
<g id="node2" class="node">
<title>Node2</title>
<g id="a_node2"><a xlink:title=" ">
<polygon fill="white" stroke="#bfbfbf" points="0,-69.5 0,-113.5 150.75,-113.5 150.75,-69.5 0,-69.5"/>
<text text-anchor="start" x="8" y="-100.5" font-family="Helvetica,sans-Serif" font-size="10.00">halco::common::detail</text>
<text text-anchor="start" x="8" y="-88.5" font-family="Helvetica,sans-Serif" font-size="10.00">::RantWrapper&lt; SourceCount,</text>
<text text-anchor="middle" x="75.38" y="-76.5" font-family="Helvetica,sans-Serif" font-size="10.00"> uint_fast8_t, 2, 1 &gt;</text>
</a>
</g>
</g>
<!-- Node2&#45;&gt;Node1 -->
<g id="edge1" class="edge">
<title>Node2&#45;&gt;Node1</title>
<path fill="none" stroke="midnightblue" d="M75.38,-59.26C75.38,-50 75.38,-40.27 75.38,-32.54"/>
<polygon fill="midnightblue" stroke="midnightblue" points="71.88,-59.39 75.38,-69.39 78.88,-59.39 71.88,-59.39"/>
</g>
</g>
</svg>
