<?xml version="1.0" encoding="UTF-8" standalone="no"?>
<!DOCTYPE svg PUBLIC "-//W3C//DTD SVG 1.1//EN"
 "http://www.w3.org/Graphics/SVG/1.1/DTD/svg11.dtd">
<!-- Generated by graphviz version 2.46.0 (0)
 -->
<!-- Title: haldls::vx::detail::BackendContainerTrait&lt; SynapseQuad &gt; Pages: 1 -->
<svg width="750pt" height="97pt"
 viewBox="0.00 0.00 750.25 96.50" xmlns="http://www.w3.org/2000/svg" xmlns:xlink="http://www.w3.org/1999/xlink">
<g id="graph0" class="graph" transform="scale(1 1) rotate(0) translate(4 92.5)">
<title>haldls::vx::detail::BackendContainerTrait&lt; SynapseQuad &gt;</title>
<polygon fill="white" stroke="transparent" points="-4,4 -4,-92.5 746.25,-92.5 746.25,4 -4,4"/>
<!-- Node1 -->
<g id="node1" class="node">
<title>Node1</title>
<g id="a_node1"><a xlink:title=" ">
<polygon fill="#bfbfbf" stroke="black" points="618.45,-18.5 618.45,-62.5 742.25,-62.5 742.25,-18.5 618.45,-18.5"/>
<text text-anchor="start" x="626.45" y="-49.5" font-family="Helvetica,sans-Serif" font-size="10.00">haldls::vx::detail</text>
<text text-anchor="start" x="626.45" y="-37.5" font-family="Helvetica,sans-Serif" font-size="10.00">::BackendContainerTrait</text>
<text text-anchor="middle" x="680.35" y="-25.5" font-family="Helvetica,sans-Serif" font-size="10.00">&lt; SynapseQuad &gt;</text>
</a>
</g>
</g>
<!-- Node2 -->
<g id="node2" class="node">
<title>Node2</title>
<g id="a_node2"><a xlink:href="structhaldls_1_1vx_1_1detail_1_1_backend_container_base.html" target="_top" xlink:title=" ">
<polygon fill="white" stroke="black" points="418.76,-0.5 418.76,-80.5 581.45,-80.5 581.45,-0.5 418.76,-0.5"/>
<text text-anchor="start" x="426.76" y="-67.5" font-family="Helvetica,sans-Serif" font-size="10.00">haldls::vx::detail</text>
<text text-anchor="start" x="426.76" y="-55.5" font-family="Helvetica,sans-Serif" font-size="10.00">::BackendContainerBase</text>
<text text-anchor="start" x="426.76" y="-43.5" font-family="Helvetica,sans-Serif" font-size="10.00">&lt; SynapseQuad, fisch::</text>
<text text-anchor="start" x="426.76" y="-31.5" font-family="Helvetica,sans-Serif" font-size="10.00">vx::word_access_type::Omnibus,</text>
<text text-anchor="start" x="426.76" y="-19.5" font-family="Helvetica,sans-Serif" font-size="10.00"> fisch::vx::word_access_type</text>
<text text-anchor="middle" x="500.1" y="-7.5" font-family="Helvetica,sans-Serif" font-size="10.00">::OmnibusChipOverJTAG &gt;</text>
</a>
</g>
</g>
<!-- Node2&#45;&gt;Node1 -->
<g id="edge1" class="edge">
<title>Node2&#45;&gt;Node1</title>
<path fill="none" stroke="midnightblue" d="M591.8,-40.5C600.82,-40.5 609.81,-40.5 618.42,-40.5"/>
<polygon fill="midnightblue" stroke="midnightblue" points="591.62,-37 581.62,-40.5 591.62,-44 591.62,-37"/>
</g>
<!-- Node3 -->
<g id="node3" class="node">
<title>Node3</title>
<g id="a_node3"><a xlink:href="structhaldls_1_1vx_1_1detail_1_1_backend_container_base.html" target="_top" xlink:title="Backend container trait base.">
<polygon fill="white" stroke="black" points="0,-12.5 0,-68.5 199.66,-68.5 199.66,-12.5 0,-12.5"/>
<text text-anchor="start" x="8" y="-55.5" font-family="Helvetica,sans-Serif" font-size="10.00">haldls::vx::detail</text>
<text text-anchor="start" x="8" y="-43.5" font-family="Helvetica,sans-Serif" font-size="10.00">::BackendContainerBase</text>
<text text-anchor="start" x="8" y="-31.5" font-family="Helvetica,sans-Serif" font-size="10.00">&lt; ContainerT, DefaultBackend</text>
<text text-anchor="middle" x="99.83" y="-19.5" font-family="Helvetica,sans-Serif" font-size="10.00">Container, AdditionalBackendContainer &gt;</text>
</a>
</g>
</g>
<!-- Node3&#45;&gt;Node2 -->
<g id="edge2" class="edge">
<title>Node3&#45;&gt;Node2</title>
<path fill="none" stroke="orange" stroke-dasharray="5,2" d="M209.82,-40.5C275.85,-40.5 358.64,-40.5 418.72,-40.5"/>
<polygon fill="orange" stroke="orange" points="209.79,-37 199.79,-40.5 209.79,-44 209.79,-37"/>
<text text-anchor="start" x="217.66" y="-79.5" font-family="Helvetica,sans-Serif" font-size="10.00"> &lt; SynapseQuad, fisch</text>
<text text-anchor="start" x="217.66" y="-67.5" font-family="Helvetica,sans-Serif" font-size="10.00">::vx::word_access_type</text>
<text text-anchor="start" x="217.66" y="-55.5" font-family="Helvetica,sans-Serif" font-size="10.00">::Omnibus, fisch::vx::word</text>
<text text-anchor="middle" x="309.21" y="-43.5" font-family="Helvetica,sans-Serif" font-size="10.00">_access_type::OmnibusChipOverJTAG &gt;</text>
</g>
</g>
</svg>
