<?xml version="1.0" encoding="UTF-8" standalone="no"?>
<!DOCTYPE svg PUBLIC "-//W3C//DTD SVG 1.1//EN"
 "http://www.w3.org/Graphics/SVG/1.1/DTD/svg11.dtd">
<!-- Generated by graphviz version 2.46.0 (0)
 -->
<!-- Title: haldls::vx::AD5252ChannelConfigPersistent::WiperSetting Pages: 1 -->
<svg width="363pt" height="77pt"
 viewBox="0.00 0.00 362.98 77.00" xmlns="http://www.w3.org/2000/svg" xmlns:xlink="http://www.w3.org/1999/xlink">
<g id="graph0" class="graph" transform="scale(1 1) rotate(0) translate(4 73)">
<title>haldls::vx::AD5252ChannelConfigPersistent::WiperSetting</title>
<polygon fill="white" stroke="transparent" points="-4,4 -4,-73 358.98,-73 358.98,4 -4,4"/>
<!-- Node1 -->
<g id="node1" class="node">
<title>Node1</title>
<g id="a_node1"><a xlink:title=" ">
<polygon fill="#bfbfbf" stroke="black" points="202.85,-18.5 202.85,-50.5 354.98,-50.5 354.98,-18.5 202.85,-18.5"/>
<text text-anchor="start" x="210.85" y="-37.5" font-family="Helvetica,sans-Serif" font-size="10.00">haldls::vx::AD5252Channel</text>
<text text-anchor="middle" x="278.91" y="-25.5" font-family="Helvetica,sans-Serif" font-size="10.00">ConfigPersistent::WiperSetting</text>
</a>
</g>
</g>
<!-- Node2 -->
<g id="node2" class="node">
<title>Node2</title>
<g id="a_node2"><a xlink:title=" ">
<polygon fill="white" stroke="#bfbfbf" points="0,-0.5 0,-68.5 166.85,-68.5 166.85,-0.5 0,-0.5"/>
<text text-anchor="start" x="8" y="-55.5" font-family="Helvetica,sans-Serif" font-size="10.00">halco::common::detail</text>
<text text-anchor="start" x="8" y="-43.5" font-family="Helvetica,sans-Serif" font-size="10.00">::RantWrapper&lt; WiperSetting,</text>
<text text-anchor="start" x="8" y="-31.5" font-family="Helvetica,sans-Serif" font-size="10.00"> uint_fast16_t, std::numeric</text>
<text text-anchor="start" x="8" y="-19.5" font-family="Helvetica,sans-Serif" font-size="10.00">_limits&lt; uint8_t &gt;::max(), std</text>
<text text-anchor="middle" x="83.42" y="-7.5" font-family="Helvetica,sans-Serif" font-size="10.00">::numeric_limits&lt; uint8_t &gt;::min()&gt;</text>
</a>
</g>
</g>
<!-- Node2&#45;&gt;Node1 -->
<g id="edge1" class="edge">
<title>Node2&#45;&gt;Node1</title>
<path fill="none" stroke="midnightblue" d="M177.06,-34.5C185.63,-34.5 194.23,-34.5 202.61,-34.5"/>
<polygon fill="midnightblue" stroke="midnightblue" points="177.04,-31 167.04,-34.5 177.04,-38 177.04,-31"/>
</g>
</g>
</svg>
