<?xml version="1.0" encoding="UTF-8" standalone="no"?>
<!DOCTYPE svg PUBLIC "-//W3C//DTD SVG 1.1//EN"
 "http://www.w3.org/Graphics/SVG/1.1/DTD/svg11.dtd">
<!-- Generated by graphviz version 2.46.0 (0)
 -->
<!-- Title: haldls::vx::HasLocalData&lt; T, typename boost::enable_if_has_type&lt; typename T::has_local_data &gt;::type &gt; Pages: 1 -->
<svg width="151pt" height="122pt"
 viewBox="0.00 0.00 151.00 122.00" xmlns="http://www.w3.org/2000/svg" xmlns:xlink="http://www.w3.org/1999/xlink">
<g id="graph0" class="graph" transform="scale(1 1) rotate(0) translate(4 118)">
<title>haldls::vx::HasLocalData&lt; T, typename boost::enable_if_has_type&lt; typename T::has_local_data &gt;::type &gt;</title>
<polygon fill="white" stroke="transparent" points="-4,4 -4,-118 147,-118 147,4 -4,4"/>
<!-- Node1 -->
<g id="node1" class="node">
<title>Node1</title>
<g id="a_node1"><a xlink:title=" ">
<polygon fill="#bfbfbf" stroke="black" points="0,-0.5 0,-56.5 143,-56.5 143,-0.5 0,-0.5"/>
<text text-anchor="start" x="8" y="-43.5" font-family="Helvetica,sans-Serif" font-size="10.00">haldls::vx::HasLocalData</text>
<text text-anchor="start" x="8" y="-31.5" font-family="Helvetica,sans-Serif" font-size="10.00">&lt; T, typename boost::enable</text>
<text text-anchor="start" x="8" y="-19.5" font-family="Helvetica,sans-Serif" font-size="10.00">_if_has_type&lt; typename T::</text>
<text text-anchor="middle" x="71.5" y="-7.5" font-family="Helvetica,sans-Serif" font-size="10.00">has_local_data &gt;::type &gt;</text>
</a>
</g>
</g>
<!-- Node2 -->
<g id="node2" class="node">
<title>Node2</title>
<g id="a_node2"><a xlink:title=" ">
<polygon fill="white" stroke="#bfbfbf" points="24.04,-93.5 24.04,-113.5 118.96,-113.5 118.96,-93.5 24.04,-93.5"/>
<text text-anchor="middle" x="71.5" y="-100.5" font-family="Helvetica,sans-Serif" font-size="10.00">T::has_local_data</text>
</a>
</g>
</g>
<!-- Node2&#45;&gt;Node1 -->
<g id="edge1" class="edge">
<title>Node2&#45;&gt;Node1</title>
<path fill="none" stroke="midnightblue" d="M71.5,-82.98C71.5,-74.88 71.5,-65.33 71.5,-56.57"/>
<polygon fill="midnightblue" stroke="midnightblue" points="68,-83.25 71.5,-93.25 75,-83.25 68,-83.25"/>
</g>
</g>
</svg>
