<?xml version="1.0" encoding="UTF-8" standalone="no"?>
<!DOCTYPE svg PUBLIC "-//W3C//DTD SVG 1.1//EN"
 "http://www.w3.org/Graphics/SVG/1.1/DTD/svg11.dtd">
<!-- Generated by graphviz version 2.46.0 (0)
 -->
<!-- Title: haldls::vx::MADCConfig::ConversionCyclesOffset Pages: 1 -->
<svg width="343pt" height="53pt"
 viewBox="0.00 0.00 342.98 53.00" xmlns="http://www.w3.org/2000/svg" xmlns:xlink="http://www.w3.org/1999/xlink">
<g id="graph0" class="graph" transform="scale(1 1) rotate(0) translate(4 49)">
<title>haldls::vx::MADCConfig::ConversionCyclesOffset</title>
<polygon fill="white" stroke="transparent" points="-4,4 -4,-49 338.98,-49 338.98,4 -4,4"/>
<!-- Node1 -->
<g id="node1" class="node">
<title>Node1</title>
<g id="a_node1"><a xlink:title=" ">
<polygon fill="#bfbfbf" stroke="black" points="206.18,-6.5 206.18,-38.5 334.98,-38.5 334.98,-6.5 206.18,-6.5"/>
<text text-anchor="start" x="214.18" y="-25.5" font-family="Helvetica,sans-Serif" font-size="10.00">haldls::vx::MADCConfig</text>
<text text-anchor="middle" x="270.58" y="-13.5" font-family="Helvetica,sans-Serif" font-size="10.00">::ConversionCyclesOffset</text>
</a>
</g>
</g>
<!-- Node2 -->
<g id="node2" class="node">
<title>Node2</title>
<g id="a_node2"><a xlink:title=" ">
<polygon fill="white" stroke="#bfbfbf" points="0,-0.5 0,-44.5 170.18,-44.5 170.18,-0.5 0,-0.5"/>
<text text-anchor="start" x="8" y="-31.5" font-family="Helvetica,sans-Serif" font-size="10.00">halco::common::detail</text>
<text text-anchor="start" x="8" y="-19.5" font-family="Helvetica,sans-Serif" font-size="10.00">::RantWrapper&lt; ConversionCycles</text>
<text text-anchor="middle" x="85.09" y="-7.5" font-family="Helvetica,sans-Serif" font-size="10.00">Offset, uint_fast8_t, 15, 0 &gt;</text>
</a>
</g>
</g>
<!-- Node2&#45;&gt;Node1 -->
<g id="edge1" class="edge">
<title>Node2&#45;&gt;Node1</title>
<path fill="none" stroke="midnightblue" d="M180.52,-22.5C189.21,-22.5 197.86,-22.5 206.18,-22.5"/>
<polygon fill="midnightblue" stroke="midnightblue" points="180.32,-19 170.32,-22.5 180.32,-26 180.32,-19"/>
</g>
</g>
</svg>
