<?xml version="1.0" encoding="UTF-8" standalone="no"?>
<!DOCTYPE svg PUBLIC "-//W3C//DTD SVG 1.1//EN"
 "http://www.w3.org/Graphics/SVG/1.1/DTD/svg11.dtd">
<!-- Generated by graphviz version 2.46.0 (0)
 -->
<!-- Title: haldls::vx::PhyStatus::RxCount Pages: 1 -->
<svg width="125pt" height="122pt"
 viewBox="0.00 0.00 124.86 122.00" xmlns="http://www.w3.org/2000/svg" xmlns:xlink="http://www.w3.org/1999/xlink">
<g id="graph0" class="graph" transform="scale(1 1) rotate(0) translate(4 118)">
<title>haldls::vx::PhyStatus::RxCount</title>
<polygon fill="white" stroke="transparent" points="-4,4 -4,-118 120.86,-118 120.86,4 -4,4"/>
<!-- Node1 -->
<g id="node1" class="node">
<title>Node1</title>
<g id="a_node1"><a xlink:title="Number of rx words from Chip since last reset.">
<polygon fill="#bfbfbf" stroke="black" points="4.03,-0.5 4.03,-32.5 112.83,-32.5 112.83,-0.5 4.03,-0.5"/>
<text text-anchor="start" x="12.03" y="-19.5" font-family="Helvetica,sans-Serif" font-size="10.00">haldls::vx::PhyStatus</text>
<text text-anchor="middle" x="58.43" y="-7.5" font-family="Helvetica,sans-Serif" font-size="10.00">::RxCount</text>
</a>
</g>
</g>
<!-- Node2 -->
<g id="node2" class="node">
<title>Node2</title>
<g id="a_node2"><a xlink:title=" ">
<polygon fill="white" stroke="#bfbfbf" points="0,-69.5 0,-113.5 116.86,-113.5 116.86,-69.5 0,-69.5"/>
<text text-anchor="start" x="8" y="-100.5" font-family="Helvetica,sans-Serif" font-size="10.00">halco::common::detail</text>
<text text-anchor="start" x="8" y="-88.5" font-family="Helvetica,sans-Serif" font-size="10.00">::BaseType&lt; RxCount,</text>
<text text-anchor="middle" x="58.43" y="-76.5" font-family="Helvetica,sans-Serif" font-size="10.00"> uint32_t &gt;</text>
</a>
</g>
</g>
<!-- Node2&#45;&gt;Node1 -->
<g id="edge1" class="edge">
<title>Node2&#45;&gt;Node1</title>
<path fill="none" stroke="midnightblue" d="M58.43,-59.26C58.43,-50 58.43,-40.27 58.43,-32.54"/>
<polygon fill="midnightblue" stroke="midnightblue" points="54.93,-59.39 58.43,-69.39 61.93,-59.39 54.93,-59.39"/>
</g>
</g>
</svg>
