<?xml version="1.0" encoding="UTF-8" standalone="no"?>
<!DOCTYPE svg PUBLIC "-//W3C//DTD SVG 1.1//EN"
 "http://www.w3.org/Graphics/SVG/1.1/DTD/svg11.dtd">
<!-- Generated by graphviz version 2.46.0 (0)
 -->
<!-- Title: haldls::vx::detail::IsReadable&lt; T, std::enable_if_t&lt; hate::is_in_type_list&lt; T, NonLeafNodeReadableContainerList &gt;::value &gt; &gt; Pages: 1 -->
<svg width="181pt" height="134pt"
 viewBox="0.00 0.00 181.00 134.00" xmlns="http://www.w3.org/2000/svg" xmlns:xlink="http://www.w3.org/1999/xlink">
<g id="graph0" class="graph" transform="scale(1 1) rotate(0) translate(4 130)">
<title>haldls::vx::detail::IsReadable&lt; T, std::enable_if_t&lt; hate::is_in_type_list&lt; T, NonLeafNodeReadableContainerList &gt;::value &gt; &gt;</title>
<polygon fill="white" stroke="transparent" points="-4,4 -4,-130 177,-130 177,4 -4,4"/>
<!-- Node1 -->
<g id="node1" class="node">
<title>Node1</title>
<g id="a_node1"><a xlink:title=" ">
<polygon fill="#bfbfbf" stroke="black" points="0,-0.5 0,-68.5 173,-68.5 173,-0.5 0,-0.5"/>
<text text-anchor="start" x="8" y="-55.5" font-family="Helvetica,sans-Serif" font-size="10.00">haldls::vx::detail</text>
<text text-anchor="start" x="8" y="-43.5" font-family="Helvetica,sans-Serif" font-size="10.00">::IsReadable&lt; T, std</text>
<text text-anchor="start" x="8" y="-31.5" font-family="Helvetica,sans-Serif" font-size="10.00">::enable_if_t&lt; hate::</text>
<text text-anchor="start" x="8" y="-19.5" font-family="Helvetica,sans-Serif" font-size="10.00">is_in_type_list&lt; T, NonLeafNode</text>
<text text-anchor="middle" x="86.5" y="-7.5" font-family="Helvetica,sans-Serif" font-size="10.00">ReadableContainerList &gt;::value &gt; &gt;</text>
</a>
</g>
</g>
<!-- Node2 -->
<g id="node2" class="node">
<title>Node2</title>
<g id="a_node2"><a xlink:title=" ">
<polygon fill="white" stroke="#bfbfbf" points="48.21,-105.5 48.21,-125.5 124.79,-125.5 124.79,-105.5 48.21,-105.5"/>
<text text-anchor="middle" x="86.5" y="-112.5" font-family="Helvetica,sans-Serif" font-size="10.00">std::true_type</text>
</a>
</g>
</g>
<!-- Node2&#45;&gt;Node1 -->
<g id="edge1" class="edge">
<title>Node2&#45;&gt;Node1</title>
<path fill="none" stroke="midnightblue" d="M86.5,-95.35C86.5,-87.35 86.5,-77.82 86.5,-68.73"/>
<polygon fill="midnightblue" stroke="midnightblue" points="83,-95.44 86.5,-105.44 90,-95.44 83,-95.44"/>
</g>
</g>
</svg>
