<?xml version="1.0" encoding="UTF-8" standalone="no"?>
<!DOCTYPE svg PUBLIC "-//W3C//DTD SVG 1.1//EN"
 "http://www.w3.org/Graphics/SVG/1.1/DTD/svg11.dtd">
<!-- Generated by graphviz version 2.46.0 (0)
 -->
<!-- Title: haldls::vx::detail::BackendContainerTrait&lt; AD5252ChannelConfigPersistent &gt; Pages: 1 -->
<svg width="796pt" height="79pt"
 viewBox="0.00 0.00 795.58 78.50" xmlns="http://www.w3.org/2000/svg" xmlns:xlink="http://www.w3.org/1999/xlink">
<g id="graph0" class="graph" transform="scale(1 1) rotate(0) translate(4 74.5)">
<title>haldls::vx::detail::BackendContainerTrait&lt; AD5252ChannelConfigPersistent &gt;</title>
<polygon fill="white" stroke="transparent" points="-4,4 -4,-74.5 791.58,-74.5 791.58,4 -4,4"/>
<!-- Node1 -->
<g id="node1" class="node">
<title>Node1</title>
<g id="a_node1"><a xlink:title=" ">
<polygon fill="#bfbfbf" stroke="black" points="607.64,-12.5 607.64,-56.5 787.58,-56.5 787.58,-12.5 607.64,-12.5"/>
<text text-anchor="start" x="615.64" y="-43.5" font-family="Helvetica,sans-Serif" font-size="10.00">haldls::vx::detail</text>
<text text-anchor="start" x="615.64" y="-31.5" font-family="Helvetica,sans-Serif" font-size="10.00">::BackendContainerTrait</text>
<text text-anchor="middle" x="697.61" y="-19.5" font-family="Helvetica,sans-Serif" font-size="10.00">&lt; AD5252ChannelConfigPersistent &gt;</text>
</a>
</g>
</g>
<!-- Node2 -->
<g id="node2" class="node">
<title>Node2</title>
<g id="a_node2"><a xlink:href="structhaldls_1_1vx_1_1detail_1_1_backend_container_base.html" target="_top" xlink:title=" ">
<polygon fill="white" stroke="black" points="396.54,-0.5 396.54,-68.5 570.64,-68.5 570.64,-0.5 396.54,-0.5"/>
<text text-anchor="start" x="404.54" y="-55.5" font-family="Helvetica,sans-Serif" font-size="10.00">haldls::vx::detail</text>
<text text-anchor="start" x="404.54" y="-43.5" font-family="Helvetica,sans-Serif" font-size="10.00">::BackendContainerBase</text>
<text text-anchor="start" x="404.54" y="-31.5" font-family="Helvetica,sans-Serif" font-size="10.00">&lt; AD5252ChannelConfigPersistent,</text>
<text text-anchor="start" x="404.54" y="-19.5" font-family="Helvetica,sans-Serif" font-size="10.00"> fisch::vx::word_access_type</text>
<text text-anchor="middle" x="483.59" y="-7.5" font-family="Helvetica,sans-Serif" font-size="10.00">::I2CAD5252RwRegister &gt;</text>
</a>
</g>
</g>
<!-- Node2&#45;&gt;Node1 -->
<g id="edge1" class="edge">
<title>Node2&#45;&gt;Node1</title>
<path fill="none" stroke="midnightblue" d="M581.05,-34.5C589.81,-34.5 598.66,-34.5 607.35,-34.5"/>
<polygon fill="midnightblue" stroke="midnightblue" points="580.83,-31 570.83,-34.5 580.83,-38 580.83,-31"/>
</g>
<!-- Node3 -->
<g id="node3" class="node">
<title>Node3</title>
<g id="a_node3"><a xlink:href="structhaldls_1_1vx_1_1detail_1_1_backend_container_base.html" target="_top" xlink:title="Backend container trait base.">
<polygon fill="white" stroke="black" points="0,-6.5 0,-62.5 199.66,-62.5 199.66,-6.5 0,-6.5"/>
<text text-anchor="start" x="8" y="-49.5" font-family="Helvetica,sans-Serif" font-size="10.00">haldls::vx::detail</text>
<text text-anchor="start" x="8" y="-37.5" font-family="Helvetica,sans-Serif" font-size="10.00">::BackendContainerBase</text>
<text text-anchor="start" x="8" y="-25.5" font-family="Helvetica,sans-Serif" font-size="10.00">&lt; ContainerT, DefaultBackend</text>
<text text-anchor="middle" x="99.83" y="-13.5" font-family="Helvetica,sans-Serif" font-size="10.00">Container, AdditionalBackendContainer &gt;</text>
</a>
</g>
</g>
<!-- Node3&#45;&gt;Node2 -->
<g id="edge2" class="edge">
<title>Node3&#45;&gt;Node2</title>
<path fill="none" stroke="orange" stroke-dasharray="5,2" d="M210.26,-34.5C269.38,-34.5 341.33,-34.5 396.43,-34.5"/>
<polygon fill="orange" stroke="orange" points="210.14,-31 200.14,-34.5 210.14,-38 210.14,-31"/>
<text text-anchor="start" x="217.66" y="-61.5" font-family="Helvetica,sans-Serif" font-size="10.00"> &lt; AD5252ChannelConfigPersistent,</text>
<text text-anchor="start" x="217.66" y="-49.5" font-family="Helvetica,sans-Serif" font-size="10.00"> fisch::vx::word_access_type</text>
<text text-anchor="middle" x="298.1" y="-37.5" font-family="Helvetica,sans-Serif" font-size="10.00">::I2CAD5252RwRegister &gt;</text>
</g>
</g>
</svg>
