<?xml version="1.0" encoding="UTF-8" standalone="no"?>
<!DOCTYPE svg PUBLIC "-//W3C//DTD SVG 1.1//EN"
 "http://www.w3.org/Graphics/SVG/1.1/DTD/svg11.dtd">
<!-- Generated by graphviz version 2.46.0 (0)
 -->
<!-- Title: haldls::vx::MADCConfig::PreampGainCapacitorSize Pages: 1 -->
<svg width="372pt" height="53pt"
 viewBox="0.00 0.00 372.43 53.00" xmlns="http://www.w3.org/2000/svg" xmlns:xlink="http://www.w3.org/1999/xlink">
<g id="graph0" class="graph" transform="scale(1 1) rotate(0) translate(4 49)">
<title>haldls::vx::MADCConfig::PreampGainCapacitorSize</title>
<polygon fill="white" stroke="transparent" points="-4,4 -4,-49 368.43,-49 368.43,4 -4,4"/>
<!-- Node1 -->
<g id="node1" class="node">
<title>Node1</title>
<g id="a_node1"><a xlink:title=" ">
<polygon fill="#bfbfbf" stroke="black" points="224.53,-6.5 224.53,-38.5 364.43,-38.5 364.43,-6.5 224.53,-6.5"/>
<text text-anchor="start" x="232.53" y="-25.5" font-family="Helvetica,sans-Serif" font-size="10.00">haldls::vx::MADCConfig</text>
<text text-anchor="middle" x="294.48" y="-13.5" font-family="Helvetica,sans-Serif" font-size="10.00">::PreampGainCapacitorSize</text>
</a>
</g>
</g>
<!-- Node2 -->
<g id="node2" class="node">
<title>Node2</title>
<g id="a_node2"><a xlink:title=" ">
<polygon fill="white" stroke="#bfbfbf" points="0,-0.5 0,-44.5 188.53,-44.5 188.53,-0.5 0,-0.5"/>
<text text-anchor="start" x="8" y="-31.5" font-family="Helvetica,sans-Serif" font-size="10.00">halco::common::detail</text>
<text text-anchor="start" x="8" y="-19.5" font-family="Helvetica,sans-Serif" font-size="10.00">::RantWrapper&lt; PreampGainCapacitor</text>
<text text-anchor="middle" x="94.26" y="-7.5" font-family="Helvetica,sans-Serif" font-size="10.00">Size, uint_fast8_t, 31, 0 &gt;</text>
</a>
</g>
</g>
<!-- Node2&#45;&gt;Node1 -->
<g id="edge1" class="edge">
<title>Node2&#45;&gt;Node1</title>
<path fill="none" stroke="midnightblue" d="M198.75,-22.5C207.41,-22.5 216.03,-22.5 224.35,-22.5"/>
<polygon fill="midnightblue" stroke="midnightblue" points="198.57,-19 188.57,-22.5 198.57,-26 198.57,-19"/>
</g>
</g>
</svg>
