<?xml version="1.0" encoding="UTF-8" standalone="no"?>
<!DOCTYPE svg PUBLIC "-//W3C//DTD SVG 1.1//EN"
 "http://www.w3.org/Graphics/SVG/1.1/DTD/svg11.dtd">
<!-- Generated by graphviz version 2.46.0 (0)
 -->
<!-- Title: haldls::vx::Timer::Value Pages: 1 -->
<svg width="159pt" height="110pt"
 viewBox="0.00 0.00 158.50 110.00" xmlns="http://www.w3.org/2000/svg" xmlns:xlink="http://www.w3.org/1999/xlink">
<g id="graph0" class="graph" transform="scale(1 1) rotate(0) translate(4 106)">
<title>haldls::vx::Timer::Value</title>
<polygon fill="white" stroke="transparent" points="-4,4 -4,-106 154.5,-106 154.5,4 -4,4"/>
<!-- Node1 -->
<g id="node1" class="node">
<title>Node1</title>
<g id="a_node1"><a xlink:title=" ">
<polygon fill="#bfbfbf" stroke="black" points="28.08,-0.5 28.08,-32.5 122.42,-32.5 122.42,-0.5 28.08,-0.5"/>
<text text-anchor="start" x="36.08" y="-19.5" font-family="Helvetica,sans-Serif" font-size="10.00">haldls::vx::Timer::</text>
<text text-anchor="middle" x="75.25" y="-7.5" font-family="Helvetica,sans-Serif" font-size="10.00">Value</text>
</a>
</g>
</g>
<!-- Node2 -->
<g id="node2" class="node">
<title>Node2</title>
<g id="a_node2"><a xlink:title=" ">
<polygon fill="white" stroke="#bfbfbf" points="0,-69.5 0,-101.5 150.5,-101.5 150.5,-69.5 0,-69.5"/>
<text text-anchor="start" x="8" y="-88.5" font-family="Helvetica,sans-Serif" font-size="10.00">halco::common::detail</text>
<text text-anchor="middle" x="75.25" y="-76.5" font-family="Helvetica,sans-Serif" font-size="10.00">::BaseType&lt; Value, uint32_t &gt;</text>
</a>
</g>
</g>
<!-- Node2&#45;&gt;Node1 -->
<g id="edge1" class="edge">
<title>Node2&#45;&gt;Node1</title>
<path fill="none" stroke="midnightblue" d="M75.25,-59.02C75.25,-50.13 75.25,-40.43 75.25,-32.64"/>
<polygon fill="midnightblue" stroke="midnightblue" points="71.75,-59.3 75.25,-69.3 78.75,-59.3 71.75,-59.3"/>
</g>
</g>
</svg>
