<?xml version="1.0" encoding="UTF-8" standalone="no"?>
<!DOCTYPE svg PUBLIC "-//W3C//DTD SVG 1.1//EN"
 "http://www.w3.org/Graphics/SVG/1.1/DTD/svg11.dtd">
<!-- Generated by graphviz version 2.46.0 (0)
 -->
<!-- Title: haldls::vx::detail::BackendContainerTrait&lt; CurrentDAC &gt; Pages: 1 -->
<svg width="728pt" height="109pt"
 viewBox="0.00 0.00 727.74 108.50" xmlns="http://www.w3.org/2000/svg" xmlns:xlink="http://www.w3.org/1999/xlink">
<g id="graph0" class="graph" transform="scale(1 1) rotate(0) translate(4 104.5)">
<title>haldls::vx::detail::BackendContainerTrait&lt; CurrentDAC &gt;</title>
<polygon fill="white" stroke="transparent" points="-4,4 -4,-104.5 723.74,-104.5 723.74,4 -4,4"/>
<!-- Node1 -->
<g id="node1" class="node">
<title>Node1</title>
<g id="a_node1"><a xlink:title=" ">
<polygon fill="#bfbfbf" stroke="black" points="595.95,-18.5 595.95,-62.5 719.74,-62.5 719.74,-18.5 595.95,-18.5"/>
<text text-anchor="start" x="603.95" y="-49.5" font-family="Helvetica,sans-Serif" font-size="10.00">haldls::vx::detail</text>
<text text-anchor="start" x="603.95" y="-37.5" font-family="Helvetica,sans-Serif" font-size="10.00">::BackendContainerTrait</text>
<text text-anchor="middle" x="657.84" y="-25.5" font-family="Helvetica,sans-Serif" font-size="10.00">&lt; CurrentDAC &gt;</text>
</a>
</g>
</g>
<!-- Node2 -->
<g id="node2" class="node">
<title>Node2</title>
<g id="a_node2"><a xlink:href="structhaldls_1_1vx_1_1detail_1_1_backend_container_base.html" target="_top" xlink:title=" ">
<polygon fill="white" stroke="black" points="406.25,-0.5 406.25,-80.5 558.95,-80.5 558.95,-0.5 406.25,-0.5"/>
<text text-anchor="start" x="414.25" y="-67.5" font-family="Helvetica,sans-Serif" font-size="10.00">haldls::vx::detail</text>
<text text-anchor="start" x="414.25" y="-55.5" font-family="Helvetica,sans-Serif" font-size="10.00">::BackendContainerBase</text>
<text text-anchor="start" x="414.25" y="-43.5" font-family="Helvetica,sans-Serif" font-size="10.00">&lt; CurrentDAC, fisch::vx</text>
<text text-anchor="start" x="414.25" y="-31.5" font-family="Helvetica,sans-Serif" font-size="10.00">::word_access_type::Omnibus,</text>
<text text-anchor="start" x="414.25" y="-19.5" font-family="Helvetica,sans-Serif" font-size="10.00"> fisch::vx::word_access_type</text>
<text text-anchor="middle" x="482.6" y="-7.5" font-family="Helvetica,sans-Serif" font-size="10.00">::OmnibusChipOverJTAG &gt;</text>
</a>
</g>
</g>
<!-- Node2&#45;&gt;Node1 -->
<g id="edge1" class="edge">
<title>Node2&#45;&gt;Node1</title>
<path fill="none" stroke="midnightblue" d="M569.23,-40.5C578.24,-40.5 587.26,-40.5 595.91,-40.5"/>
<polygon fill="midnightblue" stroke="midnightblue" points="569.08,-37 559.08,-40.5 569.08,-44 569.08,-37"/>
</g>
<!-- Node3 -->
<g id="node3" class="node">
<title>Node3</title>
<g id="a_node3"><a xlink:href="structhaldls_1_1vx_1_1detail_1_1_backend_container_base.html" target="_top" xlink:title="Backend container trait base.">
<polygon fill="white" stroke="black" points="0,-12.5 0,-68.5 199.66,-68.5 199.66,-12.5 0,-12.5"/>
<text text-anchor="start" x="8" y="-55.5" font-family="Helvetica,sans-Serif" font-size="10.00">haldls::vx::detail</text>
<text text-anchor="start" x="8" y="-43.5" font-family="Helvetica,sans-Serif" font-size="10.00">::BackendContainerBase</text>
<text text-anchor="start" x="8" y="-31.5" font-family="Helvetica,sans-Serif" font-size="10.00">&lt; ContainerT, DefaultBackend</text>
<text text-anchor="middle" x="99.83" y="-19.5" font-family="Helvetica,sans-Serif" font-size="10.00">Container, AdditionalBackendContainer &gt;</text>
</a>
</g>
</g>
<!-- Node3&#45;&gt;Node2 -->
<g id="edge2" class="edge">
<title>Node3&#45;&gt;Node2</title>
<path fill="none" stroke="orange" stroke-dasharray="5,2" d="M210.22,-40.5C272.99,-40.5 350.2,-40.5 406.2,-40.5"/>
<polygon fill="orange" stroke="orange" points="209.88,-37 199.88,-40.5 209.88,-44 209.88,-37"/>
<text text-anchor="start" x="217.66" y="-91.5" font-family="Helvetica,sans-Serif" font-size="10.00"> &lt; CurrentDAC, fisch</text>
<text text-anchor="start" x="217.66" y="-79.5" font-family="Helvetica,sans-Serif" font-size="10.00">::vx::word_access_type</text>
<text text-anchor="start" x="217.66" y="-67.5" font-family="Helvetica,sans-Serif" font-size="10.00">::Omnibus, fisch::vx::</text>
<text text-anchor="start" x="217.66" y="-55.5" font-family="Helvetica,sans-Serif" font-size="10.00">word_access_type::OmnibusChipOver</text>
<text text-anchor="middle" x="302.95" y="-43.5" font-family="Helvetica,sans-Serif" font-size="10.00">JTAG &gt;</text>
</g>
</g>
</svg>
