<?xml version="1.0" encoding="UTF-8" standalone="no"?>
<!DOCTYPE svg PUBLIC "-//W3C//DTD SVG 1.1//EN"
 "http://www.w3.org/Graphics/SVG/1.1/DTD/svg11.dtd">
<!-- Generated by graphviz version 2.46.0 (0)
 -->
<!-- Title: haldls::vx::SynapseCorrelationCalibQuad::AmpCalib Pages: 1 -->
<svg width="159pt" height="122pt"
 viewBox="0.00 0.00 159.02 122.00" xmlns="http://www.w3.org/2000/svg" xmlns:xlink="http://www.w3.org/1999/xlink">
<g id="graph0" class="graph" transform="scale(1 1) rotate(0) translate(4 118)">
<title>haldls::vx::SynapseCorrelationCalibQuad::AmpCalib</title>
<polygon fill="white" stroke="transparent" points="-4,4 -4,-118 155.02,-118 155.02,4 -4,4"/>
<!-- Node1 -->
<g id="node1" class="node">
<title>Node1</title>
<g id="a_node1"><a xlink:title=" ">
<polygon fill="#bfbfbf" stroke="black" points="0,-0.5 0,-32.5 151.02,-32.5 151.02,-0.5 0,-0.5"/>
<text text-anchor="start" x="8" y="-19.5" font-family="Helvetica,sans-Serif" font-size="10.00">haldls::vx::SynapseCorrelation</text>
<text text-anchor="middle" x="75.51" y="-7.5" font-family="Helvetica,sans-Serif" font-size="10.00">CalibQuad::AmpCalib</text>
</a>
</g>
</g>
<!-- Node2 -->
<g id="node2" class="node">
<title>Node2</title>
<g id="a_node2"><a xlink:title=" ">
<polygon fill="white" stroke="#bfbfbf" points="7.64,-69.5 7.64,-113.5 143.38,-113.5 143.38,-69.5 7.64,-69.5"/>
<text text-anchor="start" x="15.64" y="-100.5" font-family="Helvetica,sans-Serif" font-size="10.00">halco::common::detail</text>
<text text-anchor="start" x="15.64" y="-88.5" font-family="Helvetica,sans-Serif" font-size="10.00">::RantWrapper&lt; AmpCalib,</text>
<text text-anchor="middle" x="75.51" y="-76.5" font-family="Helvetica,sans-Serif" font-size="10.00"> uint8_t, 3, 0 &gt;</text>
</a>
</g>
</g>
<!-- Node2&#45;&gt;Node1 -->
<g id="edge1" class="edge">
<title>Node2&#45;&gt;Node1</title>
<path fill="none" stroke="midnightblue" d="M75.51,-59.26C75.51,-50 75.51,-40.27 75.51,-32.54"/>
<polygon fill="midnightblue" stroke="midnightblue" points="72.01,-59.39 75.51,-69.39 79.01,-59.39 72.01,-59.39"/>
</g>
</g>
</svg>
