<?xml version="1.0" encoding="UTF-8" standalone="no"?>
<!DOCTYPE svg PUBLIC "-//W3C//DTD SVG 1.1//EN"
 "http://www.w3.org/Graphics/SVG/1.1/DTD/svg11.dtd">
<!-- Generated by graphviz version 2.46.0 (0)
 -->
<!-- Title: haldls::vx::detail::BackendContainerTrait&lt; CADCSampleQuad &gt; Pages: 1 -->
<svg width="666pt" height="79pt"
 viewBox="0.00 0.00 666.06 78.50" xmlns="http://www.w3.org/2000/svg" xmlns:xlink="http://www.w3.org/1999/xlink">
<g id="graph0" class="graph" transform="scale(1 1) rotate(0) translate(4 74.5)">
<title>haldls::vx::detail::BackendContainerTrait&lt; CADCSampleQuad &gt;</title>
<polygon fill="white" stroke="transparent" points="-4,4 -4,-74.5 662.06,-74.5 662.06,4 -4,4"/>
<!-- Node1 -->
<g id="node1" class="node">
<title>Node1</title>
<g id="a_node1"><a xlink:title=" ">
<polygon fill="#bfbfbf" stroke="black" points="534.26,-12.5 534.26,-56.5 658.06,-56.5 658.06,-12.5 534.26,-12.5"/>
<text text-anchor="start" x="542.26" y="-43.5" font-family="Helvetica,sans-Serif" font-size="10.00">haldls::vx::detail</text>
<text text-anchor="start" x="542.26" y="-31.5" font-family="Helvetica,sans-Serif" font-size="10.00">::BackendContainerTrait</text>
<text text-anchor="middle" x="596.16" y="-19.5" font-family="Helvetica,sans-Serif" font-size="10.00">&lt; CADCSampleQuad &gt;</text>
</a>
</g>
</g>
<!-- Node2 -->
<g id="node2" class="node">
<title>Node2</title>
<g id="a_node2"><a xlink:href="structhaldls_1_1vx_1_1detail_1_1_backend_container_base.html" target="_top" xlink:title=" ">
<polygon fill="white" stroke="black" points="359.85,-0.5 359.85,-68.5 497.26,-68.5 497.26,-0.5 359.85,-0.5"/>
<text text-anchor="start" x="367.85" y="-55.5" font-family="Helvetica,sans-Serif" font-size="10.00">haldls::vx::detail</text>
<text text-anchor="start" x="367.85" y="-43.5" font-family="Helvetica,sans-Serif" font-size="10.00">::BackendContainerBase</text>
<text text-anchor="start" x="367.85" y="-31.5" font-family="Helvetica,sans-Serif" font-size="10.00">&lt; CADCSampleQuad, fisch</text>
<text text-anchor="start" x="367.85" y="-19.5" font-family="Helvetica,sans-Serif" font-size="10.00">::vx::word_access_type::</text>
<text text-anchor="middle" x="428.56" y="-7.5" font-family="Helvetica,sans-Serif" font-size="10.00">Omnibus &gt;</text>
</a>
</g>
</g>
<!-- Node2&#45;&gt;Node1 -->
<g id="edge1" class="edge">
<title>Node2&#45;&gt;Node1</title>
<path fill="none" stroke="midnightblue" d="M507.43,-34.5C516.38,-34.5 525.4,-34.5 534.08,-34.5"/>
<polygon fill="midnightblue" stroke="midnightblue" points="507.39,-31 497.39,-34.5 507.39,-38 507.39,-31"/>
</g>
<!-- Node3 -->
<g id="node3" class="node">
<title>Node3</title>
<g id="a_node3"><a xlink:href="structhaldls_1_1vx_1_1detail_1_1_backend_container_base.html" target="_top" xlink:title="Backend container trait base.">
<polygon fill="white" stroke="black" points="0,-6.5 0,-62.5 199.66,-62.5 199.66,-6.5 0,-6.5"/>
<text text-anchor="start" x="8" y="-49.5" font-family="Helvetica,sans-Serif" font-size="10.00">haldls::vx::detail</text>
<text text-anchor="start" x="8" y="-37.5" font-family="Helvetica,sans-Serif" font-size="10.00">::BackendContainerBase</text>
<text text-anchor="start" x="8" y="-25.5" font-family="Helvetica,sans-Serif" font-size="10.00">&lt; ContainerT, DefaultBackend</text>
<text text-anchor="middle" x="99.83" y="-13.5" font-family="Helvetica,sans-Serif" font-size="10.00">Container, AdditionalBackendContainer &gt;</text>
</a>
</g>
</g>
<!-- Node3&#45;&gt;Node2 -->
<g id="edge2" class="edge">
<title>Node3&#45;&gt;Node2</title>
<path fill="none" stroke="orange" stroke-dasharray="5,2" d="M209.87,-34.5C259.42,-34.5 316.49,-34.5 359.76,-34.5"/>
<polygon fill="orange" stroke="orange" points="209.75,-31 199.75,-34.5 209.75,-38 209.75,-31"/>
<text text-anchor="start" x="217.66" y="-61.5" font-family="Helvetica,sans-Serif" font-size="10.00"> &lt; CADCSampleQuad, fisch</text>
<text text-anchor="start" x="217.66" y="-49.5" font-family="Helvetica,sans-Serif" font-size="10.00">::vx::word_access_type</text>
<text text-anchor="middle" x="279.76" y="-37.5" font-family="Helvetica,sans-Serif" font-size="10.00">::Omnibus &gt;</text>
</g>
</g>
</svg>
