<?xml version="1.0" encoding="UTF-8" standalone="no"?>
<!DOCTYPE svg PUBLIC "-//W3C//DTD SVG 1.1//EN"
 "http://www.w3.org/Graphics/SVG/1.1/DTD/svg11.dtd">
<!-- Generated by graphviz version 2.46.0 (0)
 -->
<!-- Title: haldls::vx::MADCConfig::PowerupWaitValue Pages: 1 -->
<svg width="185pt" height="122pt"
 viewBox="0.00 0.00 185.42 122.00" xmlns="http://www.w3.org/2000/svg" xmlns:xlink="http://www.w3.org/1999/xlink">
<g id="graph0" class="graph" transform="scale(1 1) rotate(0) translate(4 118)">
<title>haldls::vx::MADCConfig::PowerupWaitValue</title>
<polygon fill="white" stroke="transparent" points="-4,4 -4,-118 181.42,-118 181.42,4 -4,4"/>
<!-- Node1 -->
<g id="node1" class="node">
<title>Node1</title>
<g id="a_node1"><a xlink:title=" ">
<polygon fill="#bfbfbf" stroke="black" points="27.93,-0.5 27.93,-32.5 149.49,-32.5 149.49,-0.5 27.93,-0.5"/>
<text text-anchor="start" x="35.93" y="-19.5" font-family="Helvetica,sans-Serif" font-size="10.00">haldls::vx::MADCConfig</text>
<text text-anchor="middle" x="88.71" y="-7.5" font-family="Helvetica,sans-Serif" font-size="10.00">::PowerupWaitValue</text>
</a>
</g>
</g>
<!-- Node2 -->
<g id="node2" class="node">
<title>Node2</title>
<g id="a_node2"><a xlink:title=" ">
<polygon fill="white" stroke="#bfbfbf" points="0,-69.5 0,-113.5 177.42,-113.5 177.42,-69.5 0,-69.5"/>
<text text-anchor="start" x="8" y="-100.5" font-family="Helvetica,sans-Serif" font-size="10.00">halco::common::detail</text>
<text text-anchor="start" x="8" y="-88.5" font-family="Helvetica,sans-Serif" font-size="10.00">::RantWrapper&lt; PowerupWaitValue,</text>
<text text-anchor="middle" x="88.71" y="-76.5" font-family="Helvetica,sans-Serif" font-size="10.00"> uint_fast16_t, 1023, 0 &gt;</text>
</a>
</g>
</g>
<!-- Node2&#45;&gt;Node1 -->
<g id="edge1" class="edge">
<title>Node2&#45;&gt;Node1</title>
<path fill="none" stroke="midnightblue" d="M88.71,-59.26C88.71,-50 88.71,-40.27 88.71,-32.54"/>
<polygon fill="midnightblue" stroke="midnightblue" points="85.21,-59.39 88.71,-69.39 92.21,-59.39 85.21,-59.39"/>
</g>
</g>
</svg>
