<?xml version="1.0" encoding="UTF-8" standalone="no"?>
<!DOCTYPE svg PUBLIC "-//W3C//DTD SVG 1.1//EN"
 "http://www.w3.org/Graphics/SVG/1.1/DTD/svg11.dtd">
<!-- Generated by graphviz version 2.46.0 (0)
 -->
<!-- Title: haldls::vx::VectorGeneratorControl::ResendCount Pages: 1 -->
<svg width="162pt" height="122pt"
 viewBox="0.00 0.00 161.53 122.00" xmlns="http://www.w3.org/2000/svg" xmlns:xlink="http://www.w3.org/1999/xlink">
<g id="graph0" class="graph" transform="scale(1 1) rotate(0) translate(4 118)">
<title>haldls::vx::VectorGeneratorControl::ResendCount</title>
<polygon fill="white" stroke="transparent" points="-4,4 -4,-118 157.53,-118 157.53,4 -4,4"/>
<!-- Node1 -->
<g id="node1" class="node">
<title>Node1</title>
<g id="a_node1"><a xlink:title="Number of times to resend same input.">
<polygon fill="#bfbfbf" stroke="black" points="8.2,-0.5 8.2,-32.5 145.34,-32.5 145.34,-0.5 8.2,-0.5"/>
<text text-anchor="start" x="16.2" y="-19.5" font-family="Helvetica,sans-Serif" font-size="10.00">haldls::vx::VectorGenerator</text>
<text text-anchor="middle" x="76.77" y="-7.5" font-family="Helvetica,sans-Serif" font-size="10.00">Control::ResendCount</text>
</a>
</g>
</g>
<!-- Node2 -->
<g id="node2" class="node">
<title>Node2</title>
<g id="a_node2"><a xlink:title=" ">
<polygon fill="white" stroke="#bfbfbf" points="0,-69.5 0,-113.5 153.53,-113.5 153.53,-69.5 0,-69.5"/>
<text text-anchor="start" x="8" y="-100.5" font-family="Helvetica,sans-Serif" font-size="10.00">halco::common::detail</text>
<text text-anchor="start" x="8" y="-88.5" font-family="Helvetica,sans-Serif" font-size="10.00">::RantWrapper&lt; ResendCount,</text>
<text text-anchor="middle" x="76.77" y="-76.5" font-family="Helvetica,sans-Serif" font-size="10.00"> uint_fast8_t, 15, 0 &gt;</text>
</a>
</g>
</g>
<!-- Node2&#45;&gt;Node1 -->
<g id="edge1" class="edge">
<title>Node2&#45;&gt;Node1</title>
<path fill="none" stroke="midnightblue" d="M76.77,-59.26C76.77,-50 76.77,-40.27 76.77,-32.54"/>
<polygon fill="midnightblue" stroke="midnightblue" points="73.27,-59.39 76.77,-69.39 80.27,-59.39 73.27,-59.39"/>
</g>
</g>
</svg>
