<?xml version="1.0" encoding="UTF-8" standalone="no"?>
<!DOCTYPE svg PUBLIC "-//W3C//DTD SVG 1.1//EN"
 "http://www.w3.org/Graphics/SVG/1.1/DTD/svg11.dtd">
<!-- Generated by graphviz version 2.46.0 (0)
 -->
<!-- Title: haldls::vx::BackgroundSpikeSource::Period Pages: 1 -->
<svg width="314pt" height="65pt"
 viewBox="0.00 0.00 314.41 65.00" xmlns="http://www.w3.org/2000/svg" xmlns:xlink="http://www.w3.org/1999/xlink">
<g id="graph0" class="graph" transform="scale(1 1) rotate(0) translate(4 61)">
<title>haldls::vx::BackgroundSpikeSource::Period</title>
<polygon fill="white" stroke="transparent" points="-4,4 -4,-61 310.41,-61 310.41,4 -4,4"/>
<!-- Node1 -->
<g id="node1" class="node">
<title>Node1</title>
<g id="a_node1"><a xlink:title="Inter&#45;spike interval for regular and inter&#45;bin interval for Poisson spike generation.">
<polygon fill="#bfbfbf" stroke="black" points="164.82,-12.5 164.82,-44.5 306.41,-44.5 306.41,-12.5 164.82,-12.5"/>
<text text-anchor="start" x="172.82" y="-31.5" font-family="Helvetica,sans-Serif" font-size="10.00">haldls::vx::BackgroundSpike</text>
<text text-anchor="middle" x="235.62" y="-19.5" font-family="Helvetica,sans-Serif" font-size="10.00">Source::Period</text>
</a>
</g>
</g>
<!-- Node2 -->
<g id="node2" class="node">
<title>Node2</title>
<g id="a_node2"><a xlink:title=" ">
<polygon fill="white" stroke="#bfbfbf" points="0,-0.5 0,-56.5 128.82,-56.5 128.82,-0.5 0,-0.5"/>
<text text-anchor="start" x="8" y="-43.5" font-family="Helvetica,sans-Serif" font-size="10.00">halco::common::detail</text>
<text text-anchor="start" x="8" y="-31.5" font-family="Helvetica,sans-Serif" font-size="10.00">:: RantWrapper&lt; Period,</text>
<text text-anchor="start" x="8" y="-19.5" font-family="Helvetica,sans-Serif" font-size="10.00"> uint_fast32_t, hate::math</text>
<text text-anchor="middle" x="64.41" y="-7.5" font-family="Helvetica,sans-Serif" font-size="10.00">::pow(2, 16) &#45; 1, 0 &gt;</text>
</a>
</g>
</g>
<!-- Node2&#45;&gt;Node1 -->
<g id="edge1" class="edge">
<title>Node2&#45;&gt;Node1</title>
<path fill="none" stroke="midnightblue" d="M138.91,-28.5C147.51,-28.5 156.27,-28.5 164.82,-28.5"/>
<polygon fill="midnightblue" stroke="midnightblue" points="138.9,-25 128.9,-28.5 138.9,-32 138.9,-25"/>
</g>
</g>
</svg>
