<?xml version="1.0" encoding="UTF-8" standalone="no"?>
<!DOCTYPE svg PUBLIC "-//W3C//DTD SVG 1.1//EN"
 "http://www.w3.org/Graphics/SVG/1.1/DTD/svg11.dtd">
<!-- Generated by graphviz version 2.46.0 (0)
 -->
<!-- Title: haldls::vx::PADIEvent::HagenActivation Pages: 1 -->
<svg width="173pt" height="122pt"
 viewBox="0.00 0.00 173.20 122.00" xmlns="http://www.w3.org/2000/svg" xmlns:xlink="http://www.w3.org/1999/xlink">
<g id="graph0" class="graph" transform="scale(1 1) rotate(0) translate(4 118)">
<title>haldls::vx::PADIEvent::HagenActivation</title>
<polygon fill="white" stroke="transparent" points="-4,4 -4,-118 169.2,-118 169.2,4 -4,4"/>
<!-- Node1 -->
<g id="node1" class="node">
<title>Node1</title>
<g id="a_node1"><a xlink:title="Activation payload in Hagen&#45;mode.">
<polygon fill="#bfbfbf" stroke="black" points="26.53,-0.5 26.53,-32.5 138.67,-32.5 138.67,-0.5 26.53,-0.5"/>
<text text-anchor="start" x="34.53" y="-19.5" font-family="Helvetica,sans-Serif" font-size="10.00">haldls::vx::PADIEvent</text>
<text text-anchor="middle" x="82.6" y="-7.5" font-family="Helvetica,sans-Serif" font-size="10.00">::HagenActivation</text>
</a>
</g>
</g>
<!-- Node2 -->
<g id="node2" class="node">
<title>Node2</title>
<g id="a_node2"><a xlink:title=" ">
<polygon fill="white" stroke="#bfbfbf" points="0,-69.5 0,-113.5 165.2,-113.5 165.2,-69.5 0,-69.5"/>
<text text-anchor="start" x="8" y="-100.5" font-family="Helvetica,sans-Serif" font-size="10.00">halco::common::detail</text>
<text text-anchor="start" x="8" y="-88.5" font-family="Helvetica,sans-Serif" font-size="10.00">::RantWrapper&lt; HagenActivation,</text>
<text text-anchor="middle" x="82.6" y="-76.5" font-family="Helvetica,sans-Serif" font-size="10.00"> uint_fast16_t, 31, 0 &gt;</text>
</a>
</g>
</g>
<!-- Node2&#45;&gt;Node1 -->
<g id="edge1" class="edge">
<title>Node2&#45;&gt;Node1</title>
<path fill="none" stroke="midnightblue" d="M82.6,-59.26C82.6,-50 82.6,-40.27 82.6,-32.54"/>
<polygon fill="midnightblue" stroke="midnightblue" points="79.1,-59.39 82.6,-69.39 86.1,-59.39 79.1,-59.39"/>
</g>
</g>
</svg>
