<?xml version="1.0" encoding="UTF-8" standalone="no"?>
<!DOCTYPE svg PUBLIC "-//W3C//DTD SVG 1.1//EN"
 "http://www.w3.org/Graphics/SVG/1.1/DTD/svg11.dtd">
<!-- Generated by graphviz version 2.46.0 (0)
 -->
<!-- Title: haldls::vx::detail::SRAMTimingConfig::AddressSetupTime Pages: 1 -->
<svg width="314pt" height="65pt"
 viewBox="0.00 0.00 314.09 65.00" xmlns="http://www.w3.org/2000/svg" xmlns:xlink="http://www.w3.org/1999/xlink">
<g id="graph0" class="graph" transform="scale(1 1) rotate(0) translate(4 61)">
<title>haldls::vx::detail::SRAMTimingConfig::AddressSetupTime</title>
<polygon fill="white" stroke="transparent" points="-4,4 -4,-61 310.09,-61 310.09,4 -4,4"/>
<!-- Node1 -->
<g id="node1" class="node">
<title>Node1</title>
<g id="a_node1"><a xlink:title="Wait time for address value propagation after enable signal pull.">
<polygon fill="#bfbfbf" stroke="black" points="191.2,-6.5 191.2,-50.5 306.09,-50.5 306.09,-6.5 191.2,-6.5"/>
<text text-anchor="start" x="199.2" y="-37.5" font-family="Helvetica,sans-Serif" font-size="10.00">haldls::vx::detail</text>
<text text-anchor="start" x="199.2" y="-25.5" font-family="Helvetica,sans-Serif" font-size="10.00">::SRAMTimingConfig::</text>
<text text-anchor="middle" x="248.65" y="-13.5" font-family="Helvetica,sans-Serif" font-size="10.00">AddressSetupTime</text>
</a>
</g>
</g>
<!-- Node2 -->
<g id="node2" class="node">
<title>Node2</title>
<g id="a_node2"><a xlink:title=" ">
<polygon fill="white" stroke="#bfbfbf" points="0,-0.5 0,-56.5 155.2,-56.5 155.2,-0.5 0,-0.5"/>
<text text-anchor="start" x="8" y="-43.5" font-family="Helvetica,sans-Serif" font-size="10.00">halco::common::detail</text>
<text text-anchor="start" x="8" y="-31.5" font-family="Helvetica,sans-Serif" font-size="10.00">:: RantWrapper&lt; AddressSetup</text>
<text text-anchor="start" x="8" y="-19.5" font-family="Helvetica,sans-Serif" font-size="10.00">Time, uint_fast16_t, hate</text>
<text text-anchor="middle" x="77.6" y="-7.5" font-family="Helvetica,sans-Serif" font-size="10.00">::math::pow(2, 4) &#45; 1, 0 &gt;</text>
</a>
</g>
</g>
<!-- Node2&#45;&gt;Node1 -->
<g id="edge1" class="edge">
<title>Node2&#45;&gt;Node1</title>
<path fill="none" stroke="midnightblue" d="M165.41,-28.5C174.11,-28.5 182.77,-28.5 191.04,-28.5"/>
<polygon fill="midnightblue" stroke="midnightblue" points="165.21,-25 155.21,-28.5 165.21,-32 165.21,-25"/>
</g>
</g>
</svg>
