<?xml version="1.0" encoding="UTF-8" standalone="no"?>
<!DOCTYPE svg PUBLIC "-//W3C//DTD SVG 1.1//EN"
 "http://www.w3.org/Graphics/SVG/1.1/DTD/svg11.dtd">
<!-- Generated by graphviz version 2.46.0 (0)
 -->
<!-- Title: haldls::vx::NeuronBackendAddressOut Pages: 1 -->
<svg width="340pt" height="65pt"
 viewBox="0.00 0.00 340.23 65.00" xmlns="http://www.w3.org/2000/svg" xmlns:xlink="http://www.w3.org/1999/xlink">
<g id="graph0" class="graph" transform="scale(1 1) rotate(0) translate(4 61)">
<title>haldls::vx::NeuronBackendAddressOut</title>
<polygon fill="white" stroke="transparent" points="-4,4 -4,-61 336.23,-61 336.23,4 -4,4"/>
<!-- Node1 -->
<g id="node1" class="node">
<title>Node1</title>
<g id="a_node1"><a xlink:title="Address of the spikes sent out by a neuron.">
<polygon fill="#bfbfbf" stroke="black" points="197.31,-12.5 197.31,-44.5 332.23,-44.5 332.23,-12.5 197.31,-12.5"/>
<text text-anchor="start" x="205.31" y="-31.5" font-family="Helvetica,sans-Serif" font-size="10.00">haldls::vx::NeuronBackend</text>
<text text-anchor="middle" x="264.77" y="-19.5" font-family="Helvetica,sans-Serif" font-size="10.00">AddressOut</text>
</a>
</g>
</g>
<!-- Node2 -->
<g id="node2" class="node">
<title>Node2</title>
<g id="a_node2"><a xlink:title=" ">
<polygon fill="white" stroke="#bfbfbf" points="0,-0.5 0,-56.5 161.31,-56.5 161.31,-0.5 0,-0.5"/>
<text text-anchor="start" x="8" y="-43.5" font-family="Helvetica,sans-Serif" font-size="10.00">halco::common::detail</text>
<text text-anchor="start" x="8" y="-31.5" font-family="Helvetica,sans-Serif" font-size="10.00">::RantWrapper&lt; NeuronBackend</text>
<text text-anchor="start" x="8" y="-19.5" font-family="Helvetica,sans-Serif" font-size="10.00">AddressOut, uint_fast16_t,</text>
<text text-anchor="middle" x="80.66" y="-7.5" font-family="Helvetica,sans-Serif" font-size="10.00"> 255, 0 &gt;</text>
</a>
</g>
</g>
<!-- Node2&#45;&gt;Node1 -->
<g id="edge1" class="edge">
<title>Node2&#45;&gt;Node1</title>
<path fill="none" stroke="midnightblue" d="M171.58,-28.5C180.15,-28.5 188.74,-28.5 197.04,-28.5"/>
<polygon fill="midnightblue" stroke="midnightblue" points="171.54,-25 161.54,-28.5 171.54,-32 171.54,-25"/>
</g>
</g>
</svg>
