<?xml version="1.0" encoding="UTF-8" standalone="no"?>
<!DOCTYPE svg PUBLIC "-//W3C//DTD SVG 1.1//EN"
 "http://www.w3.org/Graphics/SVG/1.1/DTD/svg11.dtd">
<!-- Generated by graphviz version 2.46.0 (0)
 -->
<!-- Title: haldls::vx::detail::BackendContainerBase&lt; ContainerT, DefaultBackendContainer, AdditionalBackendContainer &gt; Pages: 1 -->
<svg width="261pt" height="308pt"
 viewBox="0.00 0.00 260.65 308.00" xmlns="http://www.w3.org/2000/svg" xmlns:xlink="http://www.w3.org/1999/xlink">
<g id="graph0" class="graph" transform="scale(1 1) rotate(0) translate(4 304)">
<title>haldls::vx::detail::BackendContainerBase&lt; ContainerT, DefaultBackendContainer, AdditionalBackendContainer &gt;</title>
<polygon fill="white" stroke="transparent" points="-4,4 -4,-304 256.65,-304 256.65,4 -4,4"/>
<!-- Node1 -->
<g id="node1" class="node">
<title>Node1</title>
<g id="a_node1"><a xlink:title="Backend container trait base.">
<polygon fill="#bfbfbf" stroke="black" points="0,-0.5 0,-56.5 199.66,-56.5 199.66,-0.5 0,-0.5"/>
<text text-anchor="start" x="8" y="-43.5" font-family="Helvetica,sans-Serif" font-size="10.00">haldls::vx::detail</text>
<text text-anchor="start" x="8" y="-31.5" font-family="Helvetica,sans-Serif" font-size="10.00">::BackendContainerBase</text>
<text text-anchor="start" x="8" y="-19.5" font-family="Helvetica,sans-Serif" font-size="10.00">&lt; ContainerT, DefaultBackend</text>
<text text-anchor="middle" x="99.83" y="-7.5" font-family="Helvetica,sans-Serif" font-size="10.00">Container, AdditionalBackendContainer &gt;</text>
</a>
</g>
</g>
<!-- Node2 -->
<g id="node2" class="node">
<title>Node2</title>
<g id="a_node2"><a xlink:title=" ">
<polygon fill="white" stroke="#bfbfbf" points="30.15,-105.5 30.15,-149.5 169.51,-149.5 169.51,-105.5 30.15,-105.5"/>
<text text-anchor="start" x="38.15" y="-136.5" font-family="Helvetica,sans-Serif" font-size="10.00">std::array&lt; Backend,</text>
<text text-anchor="start" x="38.15" y="-124.5" font-family="Helvetica,sans-Serif" font-size="10.00"> sizeof...(AdditionalBackend</text>
<text text-anchor="middle" x="99.83" y="-112.5" font-family="Helvetica,sans-Serif" font-size="10.00">Container)+1 &gt;</text>
</a>
</g>
</g>
<!-- Node2&#45;&gt;Node1 -->
<g id="edge1" class="edge">
<title>Node2&#45;&gt;Node1</title>
<path fill="none" stroke="#9a32cd" stroke-dasharray="5,2" d="M99.83,-95.13C99.83,-82.77 99.83,-68.71 99.83,-56.78"/>
<polygon fill="#9a32cd" stroke="#9a32cd" points="96.33,-95.45 99.83,-105.45 103.33,-95.45 96.33,-95.45"/>
<text text-anchor="middle" x="135.68" y="-78" font-family="Helvetica,sans-Serif" font-size="10.00"> valid_backends</text>
</g>
<!-- Node3 -->
<g id="node3" class="node">
<title>Node3</title>
<g id="a_node3"><a xlink:title=" ">
<polygon fill="white" stroke="#bfbfbf" points="59.32,-210.5 59.32,-230.5 140.34,-230.5 140.34,-210.5 59.32,-210.5"/>
<text text-anchor="middle" x="99.83" y="-217.5" font-family="Helvetica,sans-Serif" font-size="10.00">std::array&lt; T &gt;</text>
</a>
</g>
</g>
<!-- Node3&#45;&gt;Node2 -->
<g id="edge2" class="edge">
<title>Node3&#45;&gt;Node2</title>
<path fill="none" stroke="orange" stroke-dasharray="5,2" d="M99.83,-200.42C99.83,-185.64 99.83,-165.15 99.83,-149.82"/>
<polygon fill="orange" stroke="orange" points="96.33,-200.44 99.83,-210.44 103.33,-200.44 96.33,-200.44"/>
<text text-anchor="start" x="99.83" y="-183" font-family="Helvetica,sans-Serif" font-size="10.00"> &lt; Backend, sizeof...</text>
<text text-anchor="middle" x="176.24" y="-171" font-family="Helvetica,sans-Serif" font-size="10.00">(AdditionalBackendContainer)+1 &gt;</text>
</g>
<!-- Node4 -->
<g id="node4" class="node">
<title>Node4</title>
<g id="a_node4"><a xlink:title=" ">
<polygon fill="white" stroke="#bfbfbf" points="85.33,-279.5 85.33,-299.5 114.33,-299.5 114.33,-279.5 85.33,-279.5"/>
<text text-anchor="middle" x="99.39" y="-286.5" font-family="Helvetica,sans-Serif" font-size="10.00">T</text>
</a>
</g>
</g>
<!-- Node4&#45;&gt;Node3 -->
<g id="edge3" class="edge">
<title>Node4&#45;&gt;Node3</title>
<path fill="none" stroke="#9a32cd" stroke-dasharray="5,2" d="M99.83,-269.08C99.83,-256.5 99.83,-240.68 99.83,-230.82"/>
<polygon fill="#9a32cd" stroke="#9a32cd" points="96.33,-269.46 99.83,-279.46 103.33,-269.46 96.33,-269.46"/>
<text text-anchor="middle" x="121.5" y="-252" font-family="Helvetica,sans-Serif" font-size="10.00"> elements</text>
</g>
</g>
</svg>
