<?xml version="1.0" encoding="UTF-8" standalone="no"?>
<!DOCTYPE svg PUBLIC "-//W3C//DTD SVG 1.1//EN"
 "http://www.w3.org/Graphics/SVG/1.1/DTD/svg11.dtd">
<!-- Generated by graphviz version 2.46.0 (0)
 -->
<!-- Title: haldls::vx::detail::BackendContainerTrait&lt; PhyStatus &gt; Pages: 1 -->
<svg width="1292pt" height="107pt"
 viewBox="0.00 0.00 1292.15 106.50" xmlns="http://www.w3.org/2000/svg" xmlns:xlink="http://www.w3.org/1999/xlink">
<g id="graph0" class="graph" transform="scale(1 1) rotate(0) translate(4 102.5)">
<title>haldls::vx::detail::BackendContainerTrait&lt; PhyStatus &gt;</title>
<polygon fill="white" stroke="transparent" points="-4,4 -4,-102.5 1288.15,-102.5 1288.15,4 -4,4"/>
<!-- Node1 -->
<g id="node1" class="node">
<title>Node1</title>
<g id="a_node1"><a xlink:title=" ">
<polygon fill="#bfbfbf" stroke="black" points="1160.35,-38.5 1160.35,-82.5 1284.15,-82.5 1284.15,-38.5 1160.35,-38.5"/>
<text text-anchor="start" x="1168.35" y="-69.5" font-family="Helvetica,sans-Serif" font-size="10.00">haldls::vx::detail</text>
<text text-anchor="start" x="1168.35" y="-57.5" font-family="Helvetica,sans-Serif" font-size="10.00">::BackendContainerTrait</text>
<text text-anchor="middle" x="1222.25" y="-45.5" font-family="Helvetica,sans-Serif" font-size="10.00">&lt; PhyStatus &gt;</text>
</a>
</g>
</g>
<!-- Node2 -->
<g id="node2" class="node">
<title>Node2</title>
<g id="a_node2"><a xlink:href="structhaldls_1_1vx_1_1detail_1_1_backend_container_base.html" target="_top" xlink:title=" ">
<polygon fill="white" stroke="black" points="964.81,-32.5 964.81,-88.5 1123.35,-88.5 1123.35,-32.5 964.81,-32.5"/>
<text text-anchor="start" x="972.81" y="-75.5" font-family="Helvetica,sans-Serif" font-size="10.00">haldls::vx::detail</text>
<text text-anchor="start" x="972.81" y="-63.5" font-family="Helvetica,sans-Serif" font-size="10.00">::BackendContainerBase</text>
<text text-anchor="start" x="972.81" y="-51.5" font-family="Helvetica,sans-Serif" font-size="10.00">&lt; PhyStatus, fisch::vx</text>
<text text-anchor="middle" x="1044.08" y="-39.5" font-family="Helvetica,sans-Serif" font-size="10.00">::word_access_type::Omnibus &gt;</text>
</a>
</g>
</g>
<!-- Node2&#45;&gt;Node1 -->
<g id="edge1" class="edge">
<title>Node2&#45;&gt;Node1</title>
<path fill="none" stroke="midnightblue" d="M1133.52,-60.5C1142.51,-60.5 1151.5,-60.5 1160.11,-60.5"/>
<polygon fill="midnightblue" stroke="midnightblue" points="1133.38,-57 1123.38,-60.5 1133.38,-64 1133.38,-57"/>
</g>
<!-- Node3 -->
<g id="node3" class="node">
<title>Node3</title>
<g id="a_node3"><a xlink:title=" ">
<polygon fill="white" stroke="#bfbfbf" points="378.18,-38.5 378.18,-82.5 517.54,-82.5 517.54,-38.5 378.18,-38.5"/>
<text text-anchor="start" x="386.18" y="-69.5" font-family="Helvetica,sans-Serif" font-size="10.00">std::array&lt; Backend,</text>
<text text-anchor="start" x="386.18" y="-57.5" font-family="Helvetica,sans-Serif" font-size="10.00"> sizeof...(AdditionalBackend</text>
<text text-anchor="middle" x="447.86" y="-45.5" font-family="Helvetica,sans-Serif" font-size="10.00">Container)+1 &gt;</text>
</a>
</g>
</g>
<!-- Node3&#45;&gt;Node2 -->
<g id="edge2" class="edge">
<title>Node3&#45;&gt;Node2</title>
<path fill="none" stroke="#9a32cd" stroke-dasharray="5,2" d="M528.07,-70.12C626.48,-80.55 799.41,-93.91 946.81,-79.5 952.66,-78.93 958.68,-78.17 964.72,-77.27"/>
<polygon fill="#9a32cd" stroke="#9a32cd" points="528.22,-66.61 517.91,-69.02 527.47,-73.57 528.22,-66.61"/>
<text text-anchor="middle" x="725.07" y="-89.5" font-family="Helvetica,sans-Serif" font-size="10.00"> valid_backends</text>
</g>
<!-- Node6 -->
<g id="node6" class="node">
<title>Node6</title>
<g id="a_node6"><a xlink:href="structhaldls_1_1vx_1_1detail_1_1_backend_container_base.html" target="_top" xlink:title="Backend container trait base.">
<polygon fill="white" stroke="black" points="625.23,-0.5 625.23,-56.5 824.9,-56.5 824.9,-0.5 625.23,-0.5"/>
<text text-anchor="start" x="633.23" y="-43.5" font-family="Helvetica,sans-Serif" font-size="10.00">haldls::vx::detail</text>
<text text-anchor="start" x="633.23" y="-31.5" font-family="Helvetica,sans-Serif" font-size="10.00">::BackendContainerBase</text>
<text text-anchor="start" x="633.23" y="-19.5" font-family="Helvetica,sans-Serif" font-size="10.00">&lt; ContainerT, DefaultBackend</text>
<text text-anchor="middle" x="725.07" y="-7.5" font-family="Helvetica,sans-Serif" font-size="10.00">Container, AdditionalBackendContainer &gt;</text>
</a>
</g>
</g>
<!-- Node3&#45;&gt;Node6 -->
<g id="edge6" class="edge">
<title>Node3&#45;&gt;Node6</title>
<path fill="none" stroke="#9a32cd" stroke-dasharray="5,2" d="M527.7,-51.33C558.03,-47.81 593.07,-43.73 625.07,-40.01"/>
<polygon fill="#9a32cd" stroke="#9a32cd" points="527.13,-47.88 517.6,-52.51 527.93,-54.83 527.13,-47.88"/>
<text text-anchor="middle" x="571.39" y="-53.5" font-family="Helvetica,sans-Serif" font-size="10.00"> valid_backends</text>
</g>
<!-- Node4 -->
<g id="node4" class="node">
<title>Node4</title>
<g id="a_node4"><a xlink:title=" ">
<polygon fill="white" stroke="#bfbfbf" points="108.34,-50.5 108.34,-70.5 189.36,-70.5 189.36,-50.5 108.34,-50.5"/>
<text text-anchor="middle" x="148.85" y="-57.5" font-family="Helvetica,sans-Serif" font-size="10.00">std::array&lt; T &gt;</text>
</a>
</g>
</g>
<!-- Node4&#45;&gt;Node3 -->
<g id="edge3" class="edge">
<title>Node4&#45;&gt;Node3</title>
<path fill="none" stroke="orange" stroke-dasharray="5,2" d="M199.62,-60.5C248.5,-60.5 323.49,-60.5 378.06,-60.5"/>
<polygon fill="orange" stroke="orange" points="199.6,-57 189.6,-60.5 199.6,-64 199.6,-57"/>
<text text-anchor="start" x="207.36" y="-75.5" font-family="Helvetica,sans-Serif" font-size="10.00"> &lt; Backend, sizeof...</text>
<text text-anchor="middle" x="283.77" y="-63.5" font-family="Helvetica,sans-Serif" font-size="10.00">(AdditionalBackendContainer)+1 &gt;</text>
</g>
<!-- Node5 -->
<g id="node5" class="node">
<title>Node5</title>
<g id="a_node5"><a xlink:title=" ">
<polygon fill="white" stroke="#bfbfbf" points="0,-50.5 0,-70.5 29,-70.5 29,-50.5 0,-50.5"/>
<text text-anchor="middle" x="14.5" y="-57.5" font-family="Helvetica,sans-Serif" font-size="10.00">T</text>
</a>
</g>
</g>
<!-- Node5&#45;&gt;Node4 -->
<g id="edge4" class="edge">
<title>Node5&#45;&gt;Node4</title>
<path fill="none" stroke="#9a32cd" stroke-dasharray="5,2" d="M39.4,-60.5C58.55,-60.5 85.82,-60.5 108.22,-60.5"/>
<polygon fill="#9a32cd" stroke="#9a32cd" points="39.17,-57 29.17,-60.5 39.17,-64 39.17,-57"/>
<text text-anchor="middle" x="68.67" y="-63.5" font-family="Helvetica,sans-Serif" font-size="10.00"> elements</text>
</g>
<!-- Node6&#45;&gt;Node2 -->
<g id="edge5" class="edge">
<title>Node6&#45;&gt;Node2</title>
<path fill="none" stroke="orange" stroke-dasharray="5,2" d="M835.33,-33.6C870.95,-35.89 910.63,-39.09 946.81,-43.5 952.62,-44.21 958.62,-45.03 964.64,-45.93"/>
<polygon fill="orange" stroke="orange" points="835.1,-30.08 824.9,-32.95 834.67,-37.07 835.1,-30.08"/>
<text text-anchor="start" x="842.9" y="-70.5" font-family="Helvetica,sans-Serif" font-size="10.00"> &lt; PhyStatus, fisch</text>
<text text-anchor="start" x="842.9" y="-58.5" font-family="Helvetica,sans-Serif" font-size="10.00">::vx::word_access_type</text>
<text text-anchor="middle" x="894.85" y="-46.5" font-family="Helvetica,sans-Serif" font-size="10.00">::Omnibus &gt;</text>
</g>
</g>
</svg>
