<?xml version="1.0" encoding="UTF-8" standalone="no"?>
<!DOCTYPE svg PUBLIC "-//W3C//DTD SVG 1.1//EN"
 "http://www.w3.org/Graphics/SVG/1.1/DTD/svg11.dtd">
<!-- Generated by graphviz version 2.46.0 (0)
 -->
<!-- Title: haldls::vx::MADCConfig::ActiveMuxInputSelectLength Pages: 1 -->
<svg width="350pt" height="65pt"
 viewBox="0.00 0.00 350.24 65.00" xmlns="http://www.w3.org/2000/svg" xmlns:xlink="http://www.w3.org/1999/xlink">
<g id="graph0" class="graph" transform="scale(1 1) rotate(0) translate(4 61)">
<title>haldls::vx::MADCConfig::ActiveMuxInputSelectLength</title>
<polygon fill="white" stroke="transparent" points="-4,4 -4,-61 346.24,-61 346.24,4 -4,4"/>
<!-- Node1 -->
<g id="node1" class="node">
<title>Node1</title>
<g id="a_node1"><a xlink:title=" ">
<polygon fill="#bfbfbf" stroke="black" points="193.97,-12.5 193.97,-44.5 342.24,-44.5 342.24,-12.5 193.97,-12.5"/>
<text text-anchor="start" x="201.97" y="-31.5" font-family="Helvetica,sans-Serif" font-size="10.00">haldls::vx::MADCConfig</text>
<text text-anchor="middle" x="268.11" y="-19.5" font-family="Helvetica,sans-Serif" font-size="10.00">::ActiveMuxInputSelectLength</text>
</a>
</g>
</g>
<!-- Node2 -->
<g id="node2" class="node">
<title>Node2</title>
<g id="a_node2"><a xlink:title=" ">
<polygon fill="white" stroke="#bfbfbf" points="0,-0.5 0,-56.5 157.97,-56.5 157.97,-0.5 0,-0.5"/>
<text text-anchor="start" x="8" y="-43.5" font-family="Helvetica,sans-Serif" font-size="10.00">halco::common::detail</text>
<text text-anchor="start" x="8" y="-31.5" font-family="Helvetica,sans-Serif" font-size="10.00">::RantWrapper&lt; ActiveMuxInput</text>
<text text-anchor="start" x="8" y="-19.5" font-family="Helvetica,sans-Serif" font-size="10.00">SelectLength, uint_fast8_t,</text>
<text text-anchor="middle" x="78.99" y="-7.5" font-family="Helvetica,sans-Serif" font-size="10.00"> 15, 0 &gt;</text>
</a>
</g>
</g>
<!-- Node2&#45;&gt;Node1 -->
<g id="edge1" class="edge">
<title>Node2&#45;&gt;Node1</title>
<path fill="none" stroke="midnightblue" d="M168.04,-28.5C176.63,-28.5 185.29,-28.5 193.73,-28.5"/>
<polygon fill="midnightblue" stroke="midnightblue" points="167.99,-25 157.99,-28.5 167.99,-32 167.99,-25"/>
</g>
</g>
</svg>
