<?xml version="1.0" encoding="UTF-8" standalone="no"?>
<!DOCTYPE svg PUBLIC "-//W3C//DTD SVG 1.1//EN"
 "http://www.w3.org/Graphics/SVG/1.1/DTD/svg11.dtd">
<!-- Generated by graphviz version 2.46.0 (0)
 -->
<!-- Title: haldls::vx::BackgroundSpikeSource::Rate Pages: 1 -->
<svg width="305pt" height="65pt"
 viewBox="0.00 0.00 305.22 65.00" xmlns="http://www.w3.org/2000/svg" xmlns:xlink="http://www.w3.org/1999/xlink">
<g id="graph0" class="graph" transform="scale(1 1) rotate(0) translate(4 61)">
<title>haldls::vx::BackgroundSpikeSource::Rate</title>
<polygon fill="white" stroke="transparent" points="-4,4 -4,-61 301.22,-61 301.22,4 -4,4"/>
<!-- Node1 -->
<g id="node1" class="node">
<title>Node1</title>
<g id="a_node1"><a xlink:title="Rate of spike output in the Poisson spike generation mode, without effect in regular mode.">
<polygon fill="#bfbfbf" stroke="black" points="155.64,-12.5 155.64,-44.5 297.22,-44.5 297.22,-12.5 155.64,-12.5"/>
<text text-anchor="start" x="163.64" y="-31.5" font-family="Helvetica,sans-Serif" font-size="10.00">haldls::vx::BackgroundSpike</text>
<text text-anchor="middle" x="226.43" y="-19.5" font-family="Helvetica,sans-Serif" font-size="10.00">Source::Rate</text>
</a>
</g>
</g>
<!-- Node2 -->
<g id="node2" class="node">
<title>Node2</title>
<g id="a_node2"><a xlink:title=" ">
<polygon fill="white" stroke="#bfbfbf" points="0,-0.5 0,-56.5 119.64,-56.5 119.64,-0.5 0,-0.5"/>
<text text-anchor="start" x="8" y="-43.5" font-family="Helvetica,sans-Serif" font-size="10.00">halco::common::detail</text>
<text text-anchor="start" x="8" y="-31.5" font-family="Helvetica,sans-Serif" font-size="10.00">:: RantWrapper&lt; Rate,</text>
<text text-anchor="start" x="8" y="-19.5" font-family="Helvetica,sans-Serif" font-size="10.00"> uint_fast16_t, hate::</text>
<text text-anchor="middle" x="59.82" y="-7.5" font-family="Helvetica,sans-Serif" font-size="10.00">math::pow(2, 8) &#45; 1, 0 &gt;</text>
</a>
</g>
</g>
<!-- Node2&#45;&gt;Node1 -->
<g id="edge1" class="edge">
<title>Node2&#45;&gt;Node1</title>
<path fill="none" stroke="midnightblue" d="M129.92,-28.5C138.34,-28.5 146.94,-28.5 155.36,-28.5"/>
<polygon fill="midnightblue" stroke="midnightblue" points="129.78,-25 119.78,-28.5 129.78,-32 129.78,-25"/>
</g>
</g>
</svg>
