<?xml version="1.0" encoding="UTF-8" standalone="no"?>
<!DOCTYPE svg PUBLIC "-//W3C//DTD SVG 1.1//EN"
 "http://www.w3.org/Graphics/SVG/1.1/DTD/svg11.dtd">
<!-- Generated by graphviz version 2.46.0 (0)
 -->
<!-- Title: haldls::vx::CommonCorrelationConfig::SenseDelay Pages: 1 -->
<svg width="346pt" height="65pt"
 viewBox="0.00 0.00 345.76 65.00" xmlns="http://www.w3.org/2000/svg" xmlns:xlink="http://www.w3.org/1999/xlink">
<g id="graph0" class="graph" transform="scale(1 1) rotate(0) translate(4 61)">
<title>haldls::vx::CommonCorrelationConfig::SenseDelay</title>
<polygon fill="white" stroke="transparent" points="-4,4 -4,-61 341.76,-61 341.76,4 -4,4"/>
<!-- Node1 -->
<g id="node1" class="node">
<title>Node1</title>
<g id="a_node1"><a xlink:title="Wait time in PPU clock cycles between connecting the outputs of a synapse to the CADC inputs and star...">
<polygon fill="#bfbfbf" stroke="black" points="185.08,-12.5 185.08,-44.5 337.76,-44.5 337.76,-12.5 185.08,-12.5"/>
<text text-anchor="start" x="193.08" y="-31.5" font-family="Helvetica,sans-Serif" font-size="10.00">haldls::vx::CommonCorrelation</text>
<text text-anchor="middle" x="261.42" y="-19.5" font-family="Helvetica,sans-Serif" font-size="10.00">Config::SenseDelay</text>
</a>
</g>
</g>
<!-- Node2 -->
<g id="node2" class="node">
<title>Node2</title>
<g id="a_node2"><a xlink:title=" ">
<polygon fill="white" stroke="#bfbfbf" points="0,-0.5 0,-56.5 149.08,-56.5 149.08,-0.5 0,-0.5"/>
<text text-anchor="start" x="8" y="-43.5" font-family="Helvetica,sans-Serif" font-size="10.00">halco::common::detail</text>
<text text-anchor="start" x="8" y="-31.5" font-family="Helvetica,sans-Serif" font-size="10.00">:: RantWrapper&lt; SenseDelay,</text>
<text text-anchor="start" x="8" y="-19.5" font-family="Helvetica,sans-Serif" font-size="10.00"> uint_fast16_t, hate::math</text>
<text text-anchor="middle" x="74.54" y="-7.5" font-family="Helvetica,sans-Serif" font-size="10.00">::pow(2, 12) &#45; 1, 0 &gt;</text>
</a>
</g>
</g>
<!-- Node2&#45;&gt;Node1 -->
<g id="edge1" class="edge">
<title>Node2&#45;&gt;Node1</title>
<path fill="none" stroke="midnightblue" d="M159.17,-28.5C167.76,-28.5 176.46,-28.5 184.96,-28.5"/>
<polygon fill="midnightblue" stroke="midnightblue" points="159.14,-25 149.14,-28.5 159.14,-32 159.14,-25"/>
</g>
</g>
</svg>
