<?xml version="1.0" encoding="UTF-8" standalone="no"?>
<!DOCTYPE svg PUBLIC "-//W3C//DTD SVG 1.1//EN"
 "http://www.w3.org/Graphics/SVG/1.1/DTD/svg11.dtd">
<!-- Generated by graphviz version 2.46.0 (0)
 -->
<!-- Title: ReferenceGeneratorConfig::CapMemSlope Pages: 1 -->
<svg width="167pt" height="122pt"
 viewBox="0.00 0.00 166.52 122.00" xmlns="http://www.w3.org/2000/svg" xmlns:xlink="http://www.w3.org/1999/xlink">
<g id="graph0" class="graph" transform="scale(1 1) rotate(0) translate(4 118)">
<title>ReferenceGeneratorConfig::CapMemSlope</title>
<polygon fill="white" stroke="transparent" points="-4,4 -4,-118 162.52,-118 162.52,4 -4,4"/>
<!-- Node1 -->
<g id="node1" class="node">
<title>Node1</title>
<g id="a_node1"><a xlink:title=" ">
<polygon fill="#bfbfbf" stroke="black" points="11.25,-0.5 11.25,-32.5 147.27,-32.5 147.27,-0.5 11.25,-0.5"/>
<text text-anchor="start" x="19.25" y="-19.5" font-family="Helvetica,sans-Serif" font-size="10.00">ReferenceGeneratorConfig</text>
<text text-anchor="middle" x="79.26" y="-7.5" font-family="Helvetica,sans-Serif" font-size="10.00">::CapMemSlope</text>
</a>
</g>
</g>
<!-- Node2 -->
<g id="node2" class="node">
<title>Node2</title>
<g id="a_node2"><a xlink:title=" ">
<polygon fill="white" stroke="#bfbfbf" points="0,-69.5 0,-113.5 158.52,-113.5 158.52,-69.5 0,-69.5"/>
<text text-anchor="start" x="8" y="-100.5" font-family="Helvetica,sans-Serif" font-size="10.00">halco::common::detail</text>
<text text-anchor="start" x="8" y="-88.5" font-family="Helvetica,sans-Serif" font-size="10.00">::RantWrapper&lt; CapMemSlope,</text>
<text text-anchor="middle" x="79.26" y="-76.5" font-family="Helvetica,sans-Serif" font-size="10.00"> uint_fast8_t, 63, 0 &gt;</text>
</a>
</g>
</g>
<!-- Node2&#45;&gt;Node1 -->
<g id="edge1" class="edge">
<title>Node2&#45;&gt;Node1</title>
<path fill="none" stroke="midnightblue" d="M72.57,-59.26C72.35,-50 72.72,-40.27 73.68,-32.54"/>
<polygon fill="midnightblue" stroke="midnightblue" points="69.09,-59.57 73.08,-69.39 76.08,-59.22 69.09,-59.57"/>
</g>
<!-- Node2&#45;&gt;Node1 -->
<g id="edge2" class="edge">
<title>Node2&#45;&gt;Node1</title>
<path fill="none" stroke="midnightblue" d="M85.95,-59.26C86.17,-50 85.8,-40.27 84.84,-32.54"/>
<polygon fill="midnightblue" stroke="midnightblue" points="82.45,-59.22 85.45,-69.39 89.44,-59.57 82.45,-59.22"/>
</g>
</g>
</svg>
