<?xml version="1.0" encoding="UTF-8" standalone="no"?>
<!DOCTYPE svg PUBLIC "-//W3C//DTD SVG 1.1//EN"
 "http://www.w3.org/Graphics/SVG/1.1/DTD/svg11.dtd">
<!-- Generated by graphviz version 2.46.0 (0)
 -->
<!-- Title: haldls::vx::SynapseWeightQuad::Value Pages: 1 -->
<svg width="141pt" height="122pt"
 viewBox="0.00 0.00 141.25 122.00" xmlns="http://www.w3.org/2000/svg" xmlns:xlink="http://www.w3.org/1999/xlink">
<g id="graph0" class="graph" transform="scale(1 1) rotate(0) translate(4 118)">
<title>haldls::vx::SynapseWeightQuad::Value</title>
<polygon fill="white" stroke="transparent" points="-4,4 -4,-118 137.25,-118 137.25,4 -4,4"/>
<!-- Node1 -->
<g id="node1" class="node">
<title>Node1</title>
<g id="a_node1"><a xlink:title=" ">
<polygon fill="#bfbfbf" stroke="black" points="0,-0.5 0,-32.5 133.25,-32.5 133.25,-0.5 0,-0.5"/>
<text text-anchor="start" x="8" y="-19.5" font-family="Helvetica,sans-Serif" font-size="10.00">haldls::vx::SynapseWeight</text>
<text text-anchor="middle" x="66.62" y="-7.5" font-family="Helvetica,sans-Serif" font-size="10.00">Quad::Value</text>
</a>
</g>
</g>
<!-- Node2 -->
<g id="node2" class="node">
<title>Node2</title>
<g id="a_node2"><a xlink:title=" ">
<polygon fill="white" stroke="#bfbfbf" points="7.64,-69.5 7.64,-113.5 125.61,-113.5 125.61,-69.5 7.64,-69.5"/>
<text text-anchor="start" x="15.64" y="-100.5" font-family="Helvetica,sans-Serif" font-size="10.00">halco::common::detail</text>
<text text-anchor="start" x="15.64" y="-88.5" font-family="Helvetica,sans-Serif" font-size="10.00">::RantWrapper&lt; Value,</text>
<text text-anchor="middle" x="66.62" y="-76.5" font-family="Helvetica,sans-Serif" font-size="10.00"> uint8_t, 63, 0 &gt;</text>
</a>
</g>
</g>
<!-- Node2&#45;&gt;Node1 -->
<g id="edge1" class="edge">
<title>Node2&#45;&gt;Node1</title>
<path fill="none" stroke="midnightblue" d="M66.62,-59.26C66.62,-50 66.62,-40.27 66.62,-32.54"/>
<polygon fill="midnightblue" stroke="midnightblue" points="63.13,-59.39 66.62,-69.39 70.13,-59.39 63.13,-59.39"/>
</g>
</g>
</svg>
