<?xml version="1.0" encoding="UTF-8" standalone="no"?>
<!DOCTYPE svg PUBLIC "-//W3C//DTD SVG 1.1//EN"
 "http://www.w3.org/Graphics/SVG/1.1/DTD/svg11.dtd">
<!-- Generated by graphviz version 2.46.0 (0)
 -->
<!-- Title: haldls::vx::INA219Status::ShuntVoltage Pages: 1 -->
<svg width="160pt" height="122pt"
 viewBox="0.00 0.00 160.43 122.00" xmlns="http://www.w3.org/2000/svg" xmlns:xlink="http://www.w3.org/1999/xlink">
<g id="graph0" class="graph" transform="scale(1 1) rotate(0) translate(4 118)">
<title>haldls::vx::INA219Status::ShuntVoltage</title>
<polygon fill="white" stroke="transparent" points="-4,4 -4,-118 156.43,-118 156.43,4 -4,4"/>
<!-- Node1 -->
<g id="node1" class="node">
<title>Node1</title>
<g id="a_node1"><a xlink:title="Shunt voltage with linear conversion and LSB = 10uV.">
<polygon fill="#bfbfbf" stroke="black" points="13.76,-0.5 13.76,-32.5 138.68,-32.5 138.68,-0.5 13.76,-0.5"/>
<text text-anchor="start" x="21.76" y="-19.5" font-family="Helvetica,sans-Serif" font-size="10.00">haldls::vx::INA219Status</text>
<text text-anchor="middle" x="76.22" y="-7.5" font-family="Helvetica,sans-Serif" font-size="10.00">::ShuntVoltage</text>
</a>
</g>
</g>
<!-- Node2 -->
<g id="node2" class="node">
<title>Node2</title>
<g id="a_node2"><a xlink:title=" ">
<polygon fill="white" stroke="#bfbfbf" points="0,-69.5 0,-113.5 152.43,-113.5 152.43,-69.5 0,-69.5"/>
<text text-anchor="start" x="8" y="-100.5" font-family="Helvetica,sans-Serif" font-size="10.00">halco::common::detail</text>
<text text-anchor="start" x="8" y="-88.5" font-family="Helvetica,sans-Serif" font-size="10.00">::RantWrapper&lt; ShuntVoltage,</text>
<text text-anchor="middle" x="76.22" y="-76.5" font-family="Helvetica,sans-Serif" font-size="10.00"> int16_t, 4000, &#45;4000 &gt;</text>
</a>
</g>
</g>
<!-- Node2&#45;&gt;Node1 -->
<g id="edge1" class="edge">
<title>Node2&#45;&gt;Node1</title>
<path fill="none" stroke="midnightblue" d="M76.22,-59.26C76.22,-50 76.22,-40.27 76.22,-32.54"/>
<polygon fill="midnightblue" stroke="midnightblue" points="72.72,-59.39 76.22,-69.39 79.72,-59.39 72.72,-59.39"/>
</g>
</g>
</svg>
