<?xml version="1.0" encoding="UTF-8" standalone="no"?>
<!DOCTYPE svg PUBLIC "-//W3C//DTD SVG 1.1//EN"
 "http://www.w3.org/Graphics/SVG/1.1/DTD/svg11.dtd">
<!-- Generated by graphviz version 2.46.0 (0)
 -->
<!-- Title: haldls::vx::detail::BackendContainerTrait&lt; CrossbarOutputEventCounter &gt; Pages: 1 -->
<svg width="764pt" height="97pt"
 viewBox="0.00 0.00 763.87 96.50" xmlns="http://www.w3.org/2000/svg" xmlns:xlink="http://www.w3.org/1999/xlink">
<g id="graph0" class="graph" transform="scale(1 1) rotate(0) translate(4 92.5)">
<title>haldls::vx::detail::BackendContainerTrait&lt; CrossbarOutputEventCounter &gt;</title>
<polygon fill="white" stroke="transparent" points="-4,4 -4,-92.5 759.87,-92.5 759.87,4 -4,4"/>
<!-- Node1 -->
<g id="node1" class="node">
<title>Node1</title>
<g id="a_node1"><a xlink:title=" ">
<polygon fill="#bfbfbf" stroke="black" points="590.93,-18.5 590.93,-62.5 755.87,-62.5 755.87,-18.5 590.93,-18.5"/>
<text text-anchor="start" x="598.93" y="-49.5" font-family="Helvetica,sans-Serif" font-size="10.00">haldls::vx::detail</text>
<text text-anchor="start" x="598.93" y="-37.5" font-family="Helvetica,sans-Serif" font-size="10.00">::BackendContainerTrait</text>
<text text-anchor="middle" x="673.4" y="-25.5" font-family="Helvetica,sans-Serif" font-size="10.00">&lt; CrossbarOutputEventCounter &gt;</text>
</a>
</g>
</g>
<!-- Node2 -->
<g id="node2" class="node">
<title>Node2</title>
<g id="a_node2"><a xlink:href="structhaldls_1_1vx_1_1detail_1_1_backend_container_base.html" target="_top" xlink:title=" ">
<polygon fill="white" stroke="black" points="386.8,-0.5 386.8,-80.5 553.93,-80.5 553.93,-0.5 386.8,-0.5"/>
<text text-anchor="start" x="394.8" y="-67.5" font-family="Helvetica,sans-Serif" font-size="10.00">haldls::vx::detail</text>
<text text-anchor="start" x="394.8" y="-55.5" font-family="Helvetica,sans-Serif" font-size="10.00">::BackendContainerBase</text>
<text text-anchor="start" x="394.8" y="-43.5" font-family="Helvetica,sans-Serif" font-size="10.00">&lt; CrossbarOutputEventCounter,</text>
<text text-anchor="start" x="394.8" y="-31.5" font-family="Helvetica,sans-Serif" font-size="10.00"> fisch::vx::word_access_type</text>
<text text-anchor="start" x="394.8" y="-19.5" font-family="Helvetica,sans-Serif" font-size="10.00">::Omnibus, fisch::vx::word_access</text>
<text text-anchor="middle" x="470.37" y="-7.5" font-family="Helvetica,sans-Serif" font-size="10.00">_type::OmnibusChipOverJTAG &gt;</text>
</a>
</g>
</g>
<!-- Node2&#45;&gt;Node1 -->
<g id="edge1" class="edge">
<title>Node2&#45;&gt;Node1</title>
<path fill="none" stroke="midnightblue" d="M564.02,-40.5C572.94,-40.5 581.93,-40.5 590.73,-40.5"/>
<polygon fill="midnightblue" stroke="midnightblue" points="564.01,-37 554.01,-40.5 564.01,-44 564.01,-37"/>
</g>
<!-- Node3 -->
<g id="node3" class="node">
<title>Node3</title>
<g id="a_node3"><a xlink:href="structhaldls_1_1vx_1_1detail_1_1_backend_container_base.html" target="_top" xlink:title="Backend container trait base.">
<polygon fill="white" stroke="black" points="0,-12.5 0,-68.5 199.66,-68.5 199.66,-12.5 0,-12.5"/>
<text text-anchor="start" x="8" y="-55.5" font-family="Helvetica,sans-Serif" font-size="10.00">haldls::vx::detail</text>
<text text-anchor="start" x="8" y="-43.5" font-family="Helvetica,sans-Serif" font-size="10.00">::BackendContainerBase</text>
<text text-anchor="start" x="8" y="-31.5" font-family="Helvetica,sans-Serif" font-size="10.00">&lt; ContainerT, DefaultBackend</text>
<text text-anchor="middle" x="99.83" y="-19.5" font-family="Helvetica,sans-Serif" font-size="10.00">Container, AdditionalBackendContainer &gt;</text>
</a>
</g>
</g>
<!-- Node3&#45;&gt;Node2 -->
<g id="edge2" class="edge">
<title>Node3&#45;&gt;Node2</title>
<path fill="none" stroke="orange" stroke-dasharray="5,2" d="M210.14,-40.5C266.71,-40.5 334.64,-40.5 386.77,-40.5"/>
<polygon fill="orange" stroke="orange" points="210.08,-37 200.08,-40.5 210.08,-44 210.08,-37"/>
<text text-anchor="start" x="217.66" y="-79.5" font-family="Helvetica,sans-Serif" font-size="10.00"> &lt; CrossbarOutputEventCounter,</text>
<text text-anchor="start" x="217.66" y="-67.5" font-family="Helvetica,sans-Serif" font-size="10.00"> fisch::vx::word_access_type</text>
<text text-anchor="start" x="217.66" y="-55.5" font-family="Helvetica,sans-Serif" font-size="10.00">::Omnibus, fisch::vx::word_access</text>
<text text-anchor="middle" x="293.23" y="-43.5" font-family="Helvetica,sans-Serif" font-size="10.00">_type::OmnibusChipOverJTAG &gt;</text>
</g>
</g>
</svg>
