<?xml version="1.0" encoding="UTF-8" standalone="no"?>
<!DOCTYPE svg PUBLIC "-//W3C//DTD SVG 1.1//EN"
 "http://www.w3.org/Graphics/SVG/1.1/DTD/svg11.dtd">
<!-- Generated by graphviz version 2.46.0 (0)
 -->
<!-- Title: haldls::vx::CapMemBlockConfig&lt; Coordinates &gt;::PauseCounter Pages: 1 -->
<svg width="360pt" height="53pt"
 viewBox="0.00 0.00 360.22 53.00" xmlns="http://www.w3.org/2000/svg" xmlns:xlink="http://www.w3.org/1999/xlink">
<g id="graph0" class="graph" transform="scale(1 1) rotate(0) translate(4 49)">
<title>haldls::vx::CapMemBlockConfig&lt; Coordinates &gt;::PauseCounter</title>
<polygon fill="white" stroke="transparent" points="-4,4 -4,-49 356.22,-49 356.22,4 -4,4"/>
<!-- Node1 -->
<g id="node1" class="node">
<title>Node1</title>
<g id="a_node1"><a xlink:title=" ">
<polygon fill="#bfbfbf" stroke="black" points="195.09,-6.5 195.09,-38.5 352.22,-38.5 352.22,-6.5 195.09,-6.5"/>
<text text-anchor="start" x="203.09" y="-25.5" font-family="Helvetica,sans-Serif" font-size="10.00">haldls::vx::CapMemBlockConfig</text>
<text text-anchor="middle" x="273.65" y="-13.5" font-family="Helvetica,sans-Serif" font-size="10.00">&lt; Coordinates &gt;::PauseCounter</text>
</a>
</g>
</g>
<!-- Node2 -->
<g id="node2" class="node">
<title>Node2</title>
<g id="a_node2"><a xlink:title=" ">
<polygon fill="white" stroke="#bfbfbf" points="0,-0.5 0,-44.5 159.09,-44.5 159.09,-0.5 0,-0.5"/>
<text text-anchor="start" x="8" y="-31.5" font-family="Helvetica,sans-Serif" font-size="10.00">halco::common::detail</text>
<text text-anchor="start" x="8" y="-19.5" font-family="Helvetica,sans-Serif" font-size="10.00">:: RantWrapper&lt; PauseCounter,</text>
<text text-anchor="middle" x="79.55" y="-7.5" font-family="Helvetica,sans-Serif" font-size="10.00"> uint_fast32_t, 4294967295, 0 &gt;</text>
</a>
</g>
</g>
<!-- Node2&#45;&gt;Node1 -->
<g id="edge1" class="edge">
<title>Node2&#45;&gt;Node1</title>
<path fill="none" stroke="midnightblue" d="M169.27,-22.5C177.87,-22.5 186.54,-22.5 195.02,-22.5"/>
<polygon fill="midnightblue" stroke="midnightblue" points="169.24,-19 159.24,-22.5 169.24,-26 169.24,-19"/>
</g>
</g>
</svg>
