<?xml version="1.0" encoding="UTF-8" standalone="no"?>
<!DOCTYPE svg PUBLIC "-//W3C//DTD SVG 1.1//EN"
 "http://www.w3.org/Graphics/SVG/1.1/DTD/svg11.dtd">
<!-- Generated by graphviz version 2.46.0 (0)
 -->
<!-- Title: ReferenceGeneratorConfig::ReferenceControl Pages: 1 -->
<svg width="179pt" height="122pt"
 viewBox="0.00 0.00 178.75 122.00" xmlns="http://www.w3.org/2000/svg" xmlns:xlink="http://www.w3.org/1999/xlink">
<g id="graph0" class="graph" transform="scale(1 1) rotate(0) translate(4 118)">
<title>ReferenceGeneratorConfig::ReferenceControl</title>
<polygon fill="white" stroke="transparent" points="-4,4 -4,-118 174.75,-118 174.75,4 -4,4"/>
<!-- Node1 -->
<g id="node1" class="node">
<title>Node1</title>
<g id="a_node1"><a xlink:title=" ">
<polygon fill="#bfbfbf" stroke="black" points="17.36,-0.5 17.36,-32.5 153.39,-32.5 153.39,-0.5 17.36,-0.5"/>
<text text-anchor="start" x="25.36" y="-19.5" font-family="Helvetica,sans-Serif" font-size="10.00">ReferenceGeneratorConfig</text>
<text text-anchor="middle" x="85.37" y="-7.5" font-family="Helvetica,sans-Serif" font-size="10.00">::ReferenceControl</text>
</a>
</g>
</g>
<!-- Node2 -->
<g id="node2" class="node">
<title>Node2</title>
<g id="a_node2"><a xlink:title=" ">
<polygon fill="white" stroke="#bfbfbf" points="0,-69.5 0,-113.5 170.75,-113.5 170.75,-69.5 0,-69.5"/>
<text text-anchor="start" x="8" y="-100.5" font-family="Helvetica,sans-Serif" font-size="10.00">halco::common::detail</text>
<text text-anchor="start" x="8" y="-88.5" font-family="Helvetica,sans-Serif" font-size="10.00">::RantWrapper&lt; ReferenceControl,</text>
<text text-anchor="middle" x="85.37" y="-76.5" font-family="Helvetica,sans-Serif" font-size="10.00"> uint_fast8_t, 63, 0 &gt;</text>
</a>
</g>
</g>
<!-- Node2&#45;&gt;Node1 -->
<g id="edge1" class="edge">
<title>Node2&#45;&gt;Node1</title>
<path fill="none" stroke="midnightblue" d="M78.69,-59.26C78.47,-50 78.83,-40.27 79.79,-32.54"/>
<polygon fill="midnightblue" stroke="midnightblue" points="75.2,-59.57 79.19,-69.39 82.19,-59.22 75.2,-59.57"/>
</g>
<!-- Node2&#45;&gt;Node1 -->
<g id="edge2" class="edge">
<title>Node2&#45;&gt;Node1</title>
<path fill="none" stroke="midnightblue" d="M92.06,-59.26C92.28,-50 91.92,-40.27 90.96,-32.54"/>
<polygon fill="midnightblue" stroke="midnightblue" points="88.56,-59.22 91.56,-69.39 95.55,-59.57 88.56,-59.22"/>
</g>
</g>
</svg>
