<?xml version="1.0" encoding="UTF-8" standalone="no"?>
<!DOCTYPE svg PUBLIC "-//W3C//DTD SVG 1.1//EN"
 "http://www.w3.org/Graphics/SVG/1.1/DTD/svg11.dtd">
<!-- Generated by graphviz version 2.46.0 (0)
 -->
<!-- Title: haldls::vx::CurrentDAC::Current Pages: 1 -->
<svg width="126pt" height="122pt"
 viewBox="0.00 0.00 125.67 122.00" xmlns="http://www.w3.org/2000/svg" xmlns:xlink="http://www.w3.org/1999/xlink">
<g id="graph0" class="graph" transform="scale(1 1) rotate(0) translate(4 118)">
<title>haldls::vx::CurrentDAC::Current</title>
<polygon fill="white" stroke="transparent" points="-4,4 -4,-118 121.67,-118 121.67,4 -4,4"/>
<!-- Node1 -->
<g id="node1" class="node">
<title>Node1</title>
<g id="a_node1"><a xlink:title="Value of current DAC.">
<polygon fill="#bfbfbf" stroke="black" points="0,-0.5 0,-32.5 117.67,-32.5 117.67,-0.5 0,-0.5"/>
<text text-anchor="start" x="8" y="-19.5" font-family="Helvetica,sans-Serif" font-size="10.00">haldls::vx::CurrentDAC</text>
<text text-anchor="middle" x="58.84" y="-7.5" font-family="Helvetica,sans-Serif" font-size="10.00">::Current</text>
</a>
</g>
</g>
<!-- Node2 -->
<g id="node2" class="node">
<title>Node2</title>
<g id="a_node2"><a xlink:title=" ">
<polygon fill="white" stroke="#bfbfbf" points="2.21,-69.5 2.21,-113.5 115.46,-113.5 115.46,-69.5 2.21,-69.5"/>
<text text-anchor="start" x="10.21" y="-100.5" font-family="Helvetica,sans-Serif" font-size="10.00">halco::common::detail</text>
<text text-anchor="start" x="10.21" y="-88.5" font-family="Helvetica,sans-Serif" font-size="10.00">::BaseType&lt; Current,</text>
<text text-anchor="middle" x="58.84" y="-76.5" font-family="Helvetica,sans-Serif" font-size="10.00"> uint8_t &gt;</text>
</a>
</g>
</g>
<!-- Node2&#45;&gt;Node1 -->
<g id="edge1" class="edge">
<title>Node2&#45;&gt;Node1</title>
<path fill="none" stroke="midnightblue" d="M58.84,-59.26C58.84,-50 58.84,-40.27 58.84,-32.54"/>
<polygon fill="midnightblue" stroke="midnightblue" points="55.34,-59.39 58.84,-69.39 62.34,-59.39 55.34,-59.39"/>
</g>
</g>
</svg>
