<?xml version="1.0" encoding="UTF-8" standalone="no"?>
<!DOCTYPE svg PUBLIC "-//W3C//DTD SVG 1.1//EN"
 "http://www.w3.org/Graphics/SVG/1.1/DTD/svg11.dtd">
<!-- Generated by graphviz version 2.46.0 (0)
 -->
<!-- Title: haldls::vx::ExternalPPUMemoryByte::Value Pages: 1 -->
<svg width="165pt" height="110pt"
 viewBox="0.00 0.00 164.57 110.00" xmlns="http://www.w3.org/2000/svg" xmlns:xlink="http://www.w3.org/1999/xlink">
<g id="graph0" class="graph" transform="scale(1 1) rotate(0) translate(4 106)">
<title>haldls::vx::ExternalPPUMemoryByte::Value</title>
<polygon fill="white" stroke="transparent" points="-4,4 -4,-106 160.57,-106 160.57,4 -4,4"/>
<!-- Node1 -->
<g id="node1" class="node">
<title>Node1</title>
<g id="a_node1"><a xlink:title=" ">
<polygon fill="#bfbfbf" stroke="black" points="0,-0.5 0,-32.5 156.57,-32.5 156.57,-0.5 0,-0.5"/>
<text text-anchor="start" x="8" y="-19.5" font-family="Helvetica,sans-Serif" font-size="10.00">haldls::vx::ExternalPPUMemory</text>
<text text-anchor="middle" x="78.28" y="-7.5" font-family="Helvetica,sans-Serif" font-size="10.00">Byte::Value</text>
</a>
</g>
</g>
<!-- Node2 -->
<g id="node2" class="node">
<title>Node2</title>
<g id="a_node2"><a xlink:title=" ">
<polygon fill="white" stroke="#bfbfbf" points="5.81,-69.5 5.81,-101.5 150.75,-101.5 150.75,-69.5 5.81,-69.5"/>
<text text-anchor="start" x="13.81" y="-88.5" font-family="Helvetica,sans-Serif" font-size="10.00">halco::common::detail</text>
<text text-anchor="middle" x="78.28" y="-76.5" font-family="Helvetica,sans-Serif" font-size="10.00">::BaseType&lt; Value, uint8_t &gt;</text>
</a>
</g>
</g>
<!-- Node2&#45;&gt;Node1 -->
<g id="edge1" class="edge">
<title>Node2&#45;&gt;Node1</title>
<path fill="none" stroke="midnightblue" d="M78.28,-59.02C78.28,-50.13 78.28,-40.43 78.28,-32.64"/>
<polygon fill="midnightblue" stroke="midnightblue" points="74.78,-59.3 78.28,-69.3 81.78,-59.3 74.78,-59.3"/>
</g>
</g>
</svg>
