<?xml version="1.0" encoding="UTF-8" standalone="no"?>
<!DOCTYPE svg PUBLIC "-//W3C//DTD SVG 1.1//EN"
 "http://www.w3.org/Graphics/SVG/1.1/DTD/svg11.dtd">
<!-- Generated by graphviz version 2.46.0 (0)
 -->
<!-- Title: haldls::vx::SynapseDriverConfig::HagenDACOffset Pages: 1 -->
<svg width="178pt" height="122pt"
 viewBox="0.00 0.00 177.64 122.00" xmlns="http://www.w3.org/2000/svg" xmlns:xlink="http://www.w3.org/1999/xlink">
<g id="graph0" class="graph" transform="scale(1 1) rotate(0) translate(4 118)">
<title>haldls::vx::SynapseDriverConfig::HagenDACOffset</title>
<polygon fill="white" stroke="transparent" points="-4,4 -4,-118 173.64,-118 173.64,4 -4,4"/>
<!-- Node1 -->
<g id="node1" class="node">
<title>Node1</title>
<g id="a_node1"><a xlink:title=" ">
<polygon fill="#bfbfbf" stroke="black" points="20.42,-0.5 20.42,-32.5 149.22,-32.5 149.22,-0.5 20.42,-0.5"/>
<text text-anchor="start" x="28.42" y="-19.5" font-family="Helvetica,sans-Serif" font-size="10.00">haldls::vx::SynapseDriver</text>
<text text-anchor="middle" x="84.82" y="-7.5" font-family="Helvetica,sans-Serif" font-size="10.00">Config::HagenDACOffset</text>
</a>
</g>
</g>
<!-- Node2 -->
<g id="node2" class="node">
<title>Node2</title>
<g id="a_node2"><a xlink:title=" ">
<polygon fill="white" stroke="#bfbfbf" points="0,-69.5 0,-113.5 169.64,-113.5 169.64,-69.5 0,-69.5"/>
<text text-anchor="start" x="8" y="-100.5" font-family="Helvetica,sans-Serif" font-size="10.00">halco::common::detail</text>
<text text-anchor="start" x="8" y="-88.5" font-family="Helvetica,sans-Serif" font-size="10.00">::RantWrapper&lt; HagenDACOffset,</text>
<text text-anchor="middle" x="84.82" y="-76.5" font-family="Helvetica,sans-Serif" font-size="10.00"> uint_fast8_t, 63, 0 &gt;</text>
</a>
</g>
</g>
<!-- Node2&#45;&gt;Node1 -->
<g id="edge1" class="edge">
<title>Node2&#45;&gt;Node1</title>
<path fill="none" stroke="midnightblue" d="M84.82,-59.26C84.82,-50 84.82,-40.27 84.82,-32.54"/>
<polygon fill="midnightblue" stroke="midnightblue" points="81.32,-59.39 84.82,-69.39 88.32,-59.39 81.32,-59.39"/>
</g>
</g>
</svg>
