<?xml version="1.0" encoding="UTF-8" standalone="no"?>
<!DOCTYPE svg PUBLIC "-//W3C//DTD SVG 1.1//EN"
 "http://www.w3.org/Graphics/SVG/1.1/DTD/svg11.dtd">
<!-- Generated by graphviz version 2.46.0 (0)
 -->
<!-- Title: haldls::vx::detail::BackendContainerTrait&lt; JTAGIdCode &gt; Pages: 1 -->
<svg width="685pt" height="73pt"
 viewBox="0.00 0.00 684.70 72.50" xmlns="http://www.w3.org/2000/svg" xmlns:xlink="http://www.w3.org/1999/xlink">
<g id="graph0" class="graph" transform="scale(1 1) rotate(0) translate(4 68.5)">
<title>haldls::vx::detail::BackendContainerTrait&lt; JTAGIdCode &gt;</title>
<polygon fill="white" stroke="transparent" points="-4,4 -4,-68.5 680.7,-68.5 680.7,4 -4,4"/>
<!-- Node1 -->
<g id="node1" class="node">
<title>Node1</title>
<g id="a_node1"><a xlink:title=" ">
<polygon fill="#bfbfbf" stroke="black" points="552.9,-6.5 552.9,-50.5 676.7,-50.5 676.7,-6.5 552.9,-6.5"/>
<text text-anchor="start" x="560.9" y="-37.5" font-family="Helvetica,sans-Serif" font-size="10.00">haldls::vx::detail</text>
<text text-anchor="start" x="560.9" y="-25.5" font-family="Helvetica,sans-Serif" font-size="10.00">::BackendContainerTrait</text>
<text text-anchor="middle" x="614.8" y="-13.5" font-family="Helvetica,sans-Serif" font-size="10.00">&lt; JTAGIdCode &gt;</text>
</a>
</g>
</g>
<!-- Node2 -->
<g id="node2" class="node">
<title>Node2</title>
<g id="a_node2"><a xlink:href="structhaldls_1_1vx_1_1detail_1_1_backend_container_base.html" target="_top" xlink:title=" ">
<polygon fill="white" stroke="black" points="339.58,-0.5 339.58,-56.5 515.9,-56.5 515.9,-0.5 339.58,-0.5"/>
<text text-anchor="start" x="347.58" y="-43.5" font-family="Helvetica,sans-Serif" font-size="10.00">haldls::vx::detail</text>
<text text-anchor="start" x="347.58" y="-31.5" font-family="Helvetica,sans-Serif" font-size="10.00">::BackendContainerBase</text>
<text text-anchor="start" x="347.58" y="-19.5" font-family="Helvetica,sans-Serif" font-size="10.00">&lt; JTAGIdCode, fisch::vx</text>
<text text-anchor="middle" x="427.74" y="-7.5" font-family="Helvetica,sans-Serif" font-size="10.00">::word_access_type::JTAGIdCode &gt;</text>
</a>
</g>
</g>
<!-- Node2&#45;&gt;Node1 -->
<g id="edge1" class="edge">
<title>Node2&#45;&gt;Node1</title>
<path fill="none" stroke="midnightblue" d="M526.27,-28.5C535.24,-28.5 544.16,-28.5 552.67,-28.5"/>
<polygon fill="midnightblue" stroke="midnightblue" points="526.12,-25 516.12,-28.5 526.12,-32 526.12,-25"/>
</g>
<!-- Node3 -->
<g id="node3" class="node">
<title>Node3</title>
<g id="a_node3"><a xlink:href="structhaldls_1_1vx_1_1detail_1_1_backend_container_base.html" target="_top" xlink:title="Backend container trait base.">
<polygon fill="white" stroke="black" points="0,-0.5 0,-56.5 199.66,-56.5 199.66,-0.5 0,-0.5"/>
<text text-anchor="start" x="8" y="-43.5" font-family="Helvetica,sans-Serif" font-size="10.00">haldls::vx::detail</text>
<text text-anchor="start" x="8" y="-31.5" font-family="Helvetica,sans-Serif" font-size="10.00">::BackendContainerBase</text>
<text text-anchor="start" x="8" y="-19.5" font-family="Helvetica,sans-Serif" font-size="10.00">&lt; ContainerT, DefaultBackend</text>
<text text-anchor="middle" x="99.83" y="-7.5" font-family="Helvetica,sans-Serif" font-size="10.00">Container, AdditionalBackendContainer &gt;</text>
</a>
</g>
</g>
<!-- Node3&#45;&gt;Node2 -->
<g id="edge2" class="edge">
<title>Node3&#45;&gt;Node2</title>
<path fill="none" stroke="orange" stroke-dasharray="5,2" d="M209.96,-28.5C252.09,-28.5 299.63,-28.5 339.42,-28.5"/>
<polygon fill="orange" stroke="orange" points="209.94,-25 199.94,-28.5 209.94,-32 209.94,-25"/>
<text text-anchor="start" x="217.66" y="-55.5" font-family="Helvetica,sans-Serif" font-size="10.00"> &lt; JTAGIdCode, fisch</text>
<text text-anchor="start" x="217.66" y="-43.5" font-family="Helvetica,sans-Serif" font-size="10.00">::vx::word_access_type</text>
<text text-anchor="middle" x="269.62" y="-31.5" font-family="Helvetica,sans-Serif" font-size="10.00">::JTAGIdCode &gt;</text>
</g>
</g>
</svg>
