<?xml version="1.0" encoding="UTF-8" standalone="no"?>
<!DOCTYPE svg PUBLIC "-//W3C//DTD SVG 1.1//EN"
 "http://www.w3.org/Graphics/SVG/1.1/DTD/svg11.dtd">
<!-- Generated by graphviz version 2.46.0 (0)
 -->
<!-- Title: haldls::vx::SpikeLabel::PADILabel Pages: 1 -->
<svg width="148pt" height="122pt"
 viewBox="0.00 0.00 148.19 122.00" xmlns="http://www.w3.org/2000/svg" xmlns:xlink="http://www.w3.org/1999/xlink">
<g id="graph0" class="graph" transform="scale(1 1) rotate(0) translate(4 118)">
<title>haldls::vx::SpikeLabel::PADILabel</title>
<polygon fill="white" stroke="transparent" points="-4,4 -4,-118 144.19,-118 144.19,4 -4,4"/>
<!-- Node1 -->
<g id="node1" class="node">
<title>Node1</title>
<g id="a_node1"><a xlink:title="Label type processed by PADI&#45;bus, bits 0&#45;10.">
<polygon fill="#bfbfbf" stroke="black" points="13.75,-0.5 13.75,-32.5 126.44,-32.5 126.44,-0.5 13.75,-0.5"/>
<text text-anchor="start" x="21.75" y="-19.5" font-family="Helvetica,sans-Serif" font-size="10.00">haldls::vx::SpikeLabel</text>
<text text-anchor="middle" x="70.1" y="-7.5" font-family="Helvetica,sans-Serif" font-size="10.00">::PADILabel</text>
</a>
</g>
</g>
<!-- Node2 -->
<g id="node2" class="node">
<title>Node2</title>
<g id="a_node2"><a xlink:title=" ">
<polygon fill="white" stroke="#bfbfbf" points="0,-69.5 0,-113.5 140.19,-113.5 140.19,-69.5 0,-69.5"/>
<text text-anchor="start" x="8" y="-100.5" font-family="Helvetica,sans-Serif" font-size="10.00">halco::common::detail</text>
<text text-anchor="start" x="8" y="-88.5" font-family="Helvetica,sans-Serif" font-size="10.00">::RantWrapper&lt; PADILabel,</text>
<text text-anchor="middle" x="70.1" y="-76.5" font-family="Helvetica,sans-Serif" font-size="10.00"> uint_fast16_t, 0x3ff, 0 &gt;</text>
</a>
</g>
</g>
<!-- Node2&#45;&gt;Node1 -->
<g id="edge1" class="edge">
<title>Node2&#45;&gt;Node1</title>
<path fill="none" stroke="midnightblue" d="M70.1,-59.26C70.1,-50 70.1,-40.27 70.1,-32.54"/>
<polygon fill="midnightblue" stroke="midnightblue" points="66.6,-59.39 70.1,-69.39 73.6,-59.39 66.6,-59.39"/>
</g>
</g>
</svg>
