<?xml version="1.0" encoding="UTF-8" standalone="no"?>
<!DOCTYPE svg PUBLIC "-//W3C//DTD SVG 1.1//EN"
 "http://www.w3.org/Graphics/SVG/1.1/DTD/svg11.dtd">
<!-- Generated by graphviz version 2.46.0 (0)
 -->
<!-- Title: haldls::vx::detail::IsWriteable&lt; T, typename boost::enable_if_has_type&lt; decltype(T::config_size_in_words)&gt;::type &gt; Pages: 1 -->
<svg width="144pt" height="134pt"
 viewBox="0.00 0.00 143.75 134.00" xmlns="http://www.w3.org/2000/svg" xmlns:xlink="http://www.w3.org/1999/xlink">
<g id="graph0" class="graph" transform="scale(1 1) rotate(0) translate(4 130)">
<title>haldls::vx::detail::IsWriteable&lt; T, typename boost::enable_if_has_type&lt; decltype(T::config_size_in_words)&gt;::type &gt;</title>
<polygon fill="white" stroke="transparent" points="-4,4 -4,-130 139.75,-130 139.75,4 -4,4"/>
<!-- Node1 -->
<g id="node1" class="node">
<title>Node1</title>
<g id="a_node1"><a xlink:title=" ">
<polygon fill="#bfbfbf" stroke="black" points="0,-0.5 0,-68.5 135.75,-68.5 135.75,-0.5 0,-0.5"/>
<text text-anchor="start" x="8" y="-55.5" font-family="Helvetica,sans-Serif" font-size="10.00">haldls::vx::detail</text>
<text text-anchor="start" x="8" y="-43.5" font-family="Helvetica,sans-Serif" font-size="10.00">::IsWriteable&lt; T, typename</text>
<text text-anchor="start" x="8" y="-31.5" font-family="Helvetica,sans-Serif" font-size="10.00"> boost::enable_if_has_type</text>
<text text-anchor="start" x="8" y="-19.5" font-family="Helvetica,sans-Serif" font-size="10.00">&lt; decltype(T::config_size</text>
<text text-anchor="middle" x="67.87" y="-7.5" font-family="Helvetica,sans-Serif" font-size="10.00">_in_words)&gt;::type &gt;</text>
</a>
</g>
</g>
<!-- Node2 -->
<g id="node2" class="node">
<title>Node2</title>
<g id="a_node2"><a xlink:title=" ">
<polygon fill="white" stroke="#bfbfbf" points="29.58,-105.5 29.58,-125.5 106.16,-125.5 106.16,-105.5 29.58,-105.5"/>
<text text-anchor="middle" x="67.87" y="-112.5" font-family="Helvetica,sans-Serif" font-size="10.00">std::true_type</text>
</a>
</g>
</g>
<!-- Node2&#45;&gt;Node1 -->
<g id="edge1" class="edge">
<title>Node2&#45;&gt;Node1</title>
<path fill="none" stroke="midnightblue" d="M67.87,-95.35C67.87,-87.35 67.87,-77.82 67.87,-68.73"/>
<polygon fill="midnightblue" stroke="midnightblue" points="64.37,-95.44 67.87,-105.44 71.37,-95.44 64.37,-95.44"/>
</g>
</g>
</svg>
