<?xml version="1.0" encoding="UTF-8" standalone="no"?>
<!DOCTYPE svg PUBLIC "-//W3C//DTD SVG 1.1//EN"
 "http://www.w3.org/Graphics/SVG/1.1/DTD/svg11.dtd">
<!-- Generated by graphviz version 2.46.0 (0)
 -->
<!-- Title: haldls::vx::ADPLL::Tune Pages: 1 -->
<svg width="132pt" height="110pt"
 viewBox="0.00 0.00 131.56 110.00" xmlns="http://www.w3.org/2000/svg" xmlns:xlink="http://www.w3.org/1999/xlink">
<g id="graph0" class="graph" transform="scale(1 1) rotate(0) translate(4 106)">
<title>haldls::vx::ADPLL::Tune</title>
<polygon fill="white" stroke="transparent" points="-4,4 -4,-106 127.56,-106 127.56,4 -4,4"/>
<!-- Node1 -->
<g id="node1" class="node">
<title>Node1</title>
<g id="a_node1"><a xlink:title="Tune value of the DCO.">
<polygon fill="#bfbfbf" stroke="black" points="0.15,-0.5 0.15,-20.5 123.4,-20.5 123.4,-0.5 0.15,-0.5"/>
<text text-anchor="middle" x="61.78" y="-7.5" font-family="Helvetica,sans-Serif" font-size="10.00">haldls::vx::ADPLL::Tune</text>
</a>
</g>
</g>
<!-- Node2 -->
<g id="node2" class="node">
<title>Node2</title>
<g id="a_node2"><a xlink:title=" ">
<polygon fill="white" stroke="#bfbfbf" points="0,-57.5 0,-101.5 123.56,-101.5 123.56,-57.5 0,-57.5"/>
<text text-anchor="start" x="8" y="-88.5" font-family="Helvetica,sans-Serif" font-size="10.00">halco::common::detail</text>
<text text-anchor="start" x="8" y="-76.5" font-family="Helvetica,sans-Serif" font-size="10.00">::RantWrapper&lt; Tune,</text>
<text text-anchor="middle" x="61.78" y="-64.5" font-family="Helvetica,sans-Serif" font-size="10.00"> uint_fast16_t, 4095, 0 &gt;</text>
</a>
</g>
</g>
<!-- Node2&#45;&gt;Node1 -->
<g id="edge1" class="edge">
<title>Node2&#45;&gt;Node1</title>
<path fill="none" stroke="midnightblue" d="M61.78,-47.13C61.78,-37.54 61.78,-27.71 61.78,-20.82"/>
<polygon fill="midnightblue" stroke="midnightblue" points="58.28,-47.3 61.78,-57.3 65.28,-47.3 58.28,-47.3"/>
</g>
</g>
</svg>
