<?xml version="1.0" encoding="UTF-8" standalone="no"?>
<!DOCTYPE svg PUBLIC "-//W3C//DTD SVG 1.1//EN"
 "http://www.w3.org/Graphics/SVG/1.1/DTD/svg11.dtd">
<!-- Generated by graphviz version 2.46.0 (0)
 -->
<!-- Title: haldls::vx::NeuronBackendConfig&lt; Coordinates &gt;::ResetHoldoff Pages: 1 -->
<svg width="158pt" height="134pt"
 viewBox="0.00 0.00 158.19 134.00" xmlns="http://www.w3.org/2000/svg" xmlns:xlink="http://www.w3.org/1999/xlink">
<g id="graph0" class="graph" transform="scale(1 1) rotate(0) translate(4 130)">
<title>haldls::vx::NeuronBackendConfig&lt; Coordinates &gt;::ResetHoldoff</title>
<polygon fill="white" stroke="transparent" points="-4,4 -4,-130 154.19,-130 154.19,4 -4,4"/>
<!-- Node1 -->
<g id="node1" class="node">
<title>Node1</title>
<g id="a_node1"><a xlink:title="ResetHoldoff period: Adjusts the time delta between the reset and the refractory period.">
<polygon fill="#bfbfbf" stroke="black" points="7.64,-0.5 7.64,-44.5 142.56,-44.5 142.56,-0.5 7.64,-0.5"/>
<text text-anchor="start" x="15.64" y="-31.5" font-family="Helvetica,sans-Serif" font-size="10.00">haldls::vx::NeuronBackend</text>
<text text-anchor="start" x="15.64" y="-19.5" font-family="Helvetica,sans-Serif" font-size="10.00">Config&lt; Coordinates &gt;::</text>
<text text-anchor="middle" x="75.1" y="-7.5" font-family="Helvetica,sans-Serif" font-size="10.00">ResetHoldoff</text>
</a>
</g>
</g>
<!-- Node2 -->
<g id="node2" class="node">
<title>Node2</title>
<g id="a_node2"><a xlink:title=" ">
<polygon fill="white" stroke="#bfbfbf" points="0,-81.5 0,-125.5 150.19,-125.5 150.19,-81.5 0,-81.5"/>
<text text-anchor="start" x="8" y="-112.5" font-family="Helvetica,sans-Serif" font-size="10.00">halco::common::detail</text>
<text text-anchor="start" x="8" y="-100.5" font-family="Helvetica,sans-Serif" font-size="10.00">::RantWrapper&lt; ResetHoldoff,</text>
<text text-anchor="middle" x="75.1" y="-88.5" font-family="Helvetica,sans-Serif" font-size="10.00"> uint_fast8_t, 15, 0 &gt;</text>
</a>
</g>
</g>
<!-- Node2&#45;&gt;Node1 -->
<g id="edge1" class="edge">
<title>Node2&#45;&gt;Node1</title>
<path fill="none" stroke="midnightblue" d="M75.1,-71.27C75.1,-62.37 75.1,-52.88 75.1,-44.73"/>
<polygon fill="midnightblue" stroke="midnightblue" points="71.6,-71.33 75.1,-81.33 78.6,-71.33 71.6,-71.33"/>
</g>
</g>
</svg>
