<?xml version="1.0" encoding="UTF-8" standalone="no"?>
<!DOCTYPE svg PUBLIC "-//W3C//DTD SVG 1.1//EN"
 "http://www.w3.org/Graphics/SVG/1.1/DTD/svg11.dtd">
<!-- Generated by graphviz version 2.46.0 (0)
 -->
<!-- Title: ReferenceGeneratorConfig::CapMemOffset Pages: 1 -->
<svg width="168pt" height="122pt"
 viewBox="0.00 0.00 167.63 122.00" xmlns="http://www.w3.org/2000/svg" xmlns:xlink="http://www.w3.org/1999/xlink">
<g id="graph0" class="graph" transform="scale(1 1) rotate(0) translate(4 118)">
<title>ReferenceGeneratorConfig::CapMemOffset</title>
<polygon fill="white" stroke="transparent" points="-4,4 -4,-118 163.63,-118 163.63,4 -4,4"/>
<!-- Node1 -->
<g id="node1" class="node">
<title>Node1</title>
<g id="a_node1"><a xlink:title=" ">
<polygon fill="#bfbfbf" stroke="black" points="11.8,-0.5 11.8,-32.5 147.83,-32.5 147.83,-0.5 11.8,-0.5"/>
<text text-anchor="start" x="19.8" y="-19.5" font-family="Helvetica,sans-Serif" font-size="10.00">ReferenceGeneratorConfig</text>
<text text-anchor="middle" x="79.82" y="-7.5" font-family="Helvetica,sans-Serif" font-size="10.00">::CapMemOffset</text>
</a>
</g>
</g>
<!-- Node2 -->
<g id="node2" class="node">
<title>Node2</title>
<g id="a_node2"><a xlink:title=" ">
<polygon fill="white" stroke="#bfbfbf" points="0,-69.5 0,-113.5 159.63,-113.5 159.63,-69.5 0,-69.5"/>
<text text-anchor="start" x="8" y="-100.5" font-family="Helvetica,sans-Serif" font-size="10.00">halco::common::detail</text>
<text text-anchor="start" x="8" y="-88.5" font-family="Helvetica,sans-Serif" font-size="10.00">::RantWrapper&lt; CapMemOffset,</text>
<text text-anchor="middle" x="79.82" y="-76.5" font-family="Helvetica,sans-Serif" font-size="10.00"> uint_fast8_t, 63, 0 &gt;</text>
</a>
</g>
</g>
<!-- Node2&#45;&gt;Node1 -->
<g id="edge1" class="edge">
<title>Node2&#45;&gt;Node1</title>
<path fill="none" stroke="midnightblue" d="M73.13,-59.26C72.91,-50 73.28,-40.27 74.23,-32.54"/>
<polygon fill="midnightblue" stroke="midnightblue" points="69.64,-59.57 73.63,-69.39 76.63,-59.22 69.64,-59.57"/>
</g>
<!-- Node2&#45;&gt;Node1 -->
<g id="edge2" class="edge">
<title>Node2&#45;&gt;Node1</title>
<path fill="none" stroke="midnightblue" d="M86.5,-59.26C86.73,-50 86.36,-40.27 85.4,-32.54"/>
<polygon fill="midnightblue" stroke="midnightblue" points="83,-59.22 86,-69.39 89.99,-59.57 83,-59.22"/>
</g>
</g>
</svg>
