<?xml version="1.0" encoding="UTF-8" standalone="no"?>
<!DOCTYPE svg PUBLIC "-//W3C//DTD SVG 1.1//EN"
 "http://www.w3.org/Graphics/SVG/1.1/DTD/svg11.dtd">
<!-- Generated by graphviz version 2.46.0 (0)
 -->
<!-- Title: haldls::vx::detail::gen_is_read_and_writeable_lookup_table&lt; hate::type_list&lt; Ts... &gt; &gt; Pages: 1 -->
<svg width="176pt" height="272pt"
 viewBox="0.00 0.00 176.31 272.00" xmlns="http://www.w3.org/2000/svg" xmlns:xlink="http://www.w3.org/1999/xlink">
<g id="graph0" class="graph" transform="scale(1 1) rotate(0) translate(4 268)">
<title>haldls::vx::detail::gen_is_read_and_writeable_lookup_table&lt; hate::type_list&lt; Ts... &gt; &gt;</title>
<polygon fill="white" stroke="transparent" points="-4,4 -4,-268 172.31,-268 172.31,4 -4,4"/>
<!-- Node1 -->
<g id="node1" class="node">
<title>Node1</title>
<g id="a_node1"><a xlink:title=" ">
<polygon fill="#bfbfbf" stroke="black" points="2.21,-0.5 2.21,-56.5 146.59,-56.5 146.59,-0.5 2.21,-0.5"/>
<text text-anchor="start" x="10.21" y="-43.5" font-family="Helvetica,sans-Serif" font-size="10.00">haldls::vx::detail</text>
<text text-anchor="start" x="10.21" y="-31.5" font-family="Helvetica,sans-Serif" font-size="10.00">::gen_is_read_and_writeable</text>
<text text-anchor="start" x="10.21" y="-19.5" font-family="Helvetica,sans-Serif" font-size="10.00">_lookup_table&lt; hate::type</text>
<text text-anchor="middle" x="74.4" y="-7.5" font-family="Helvetica,sans-Serif" font-size="10.00">_list&lt; Ts... &gt; &gt;</text>
</a>
</g>
</g>
<!-- Node2 -->
<g id="node2" class="node">
<title>Node2</title>
<g id="a_node2"><a xlink:title=" ">
<polygon fill="white" stroke="#bfbfbf" points="0,-105.5 0,-125.5 148.8,-125.5 148.8,-105.5 0,-105.5"/>
<text text-anchor="middle" x="74.4" y="-112.5" font-family="Helvetica,sans-Serif" font-size="10.00">std::array&lt; bool, sizeof...(Ts)&gt;</text>
</a>
</g>
</g>
<!-- Node2&#45;&gt;Node1 -->
<g id="edge1" class="edge">
<title>Node2&#45;&gt;Node1</title>
<path fill="none" stroke="#9a32cd" stroke-dasharray="5,2" d="M74.4,-95.26C74.4,-83.83 74.4,-69.17 74.4,-56.59"/>
<polygon fill="#9a32cd" stroke="#9a32cd" points="70.9,-95.4 74.4,-105.4 77.9,-95.4 70.9,-95.4"/>
<text text-anchor="middle" x="87.74" y="-78" font-family="Helvetica,sans-Serif" font-size="10.00"> value</text>
</g>
<!-- Node3 -->
<g id="node3" class="node">
<title>Node3</title>
<g id="a_node3"><a xlink:title=" ">
<polygon fill="white" stroke="#bfbfbf" points="33.89,-174.5 33.89,-194.5 114.91,-194.5 114.91,-174.5 33.89,-174.5"/>
<text text-anchor="middle" x="74.4" y="-181.5" font-family="Helvetica,sans-Serif" font-size="10.00">std::array&lt; T &gt;</text>
</a>
</g>
</g>
<!-- Node3&#45;&gt;Node2 -->
<g id="edge2" class="edge">
<title>Node3&#45;&gt;Node2</title>
<path fill="none" stroke="orange" stroke-dasharray="5,2" d="M74.4,-164.08C74.4,-151.5 74.4,-135.68 74.4,-125.82"/>
<polygon fill="orange" stroke="orange" points="70.9,-164.46 74.4,-174.46 77.9,-164.46 70.9,-164.46"/>
<text text-anchor="middle" x="121.36" y="-147" font-family="Helvetica,sans-Serif" font-size="10.00"> &lt; bool, sizeof...(Ts)&gt;</text>
</g>
<!-- Node4 -->
<g id="node4" class="node">
<title>Node4</title>
<g id="a_node4"><a xlink:title=" ">
<polygon fill="white" stroke="#bfbfbf" points="59.9,-243.5 59.9,-263.5 88.9,-263.5 88.9,-243.5 59.9,-243.5"/>
<text text-anchor="middle" x="73.96" y="-250.5" font-family="Helvetica,sans-Serif" font-size="10.00">T</text>
</a>
</g>
</g>
<!-- Node4&#45;&gt;Node3 -->
<g id="edge3" class="edge">
<title>Node4&#45;&gt;Node3</title>
<path fill="none" stroke="#9a32cd" stroke-dasharray="5,2" d="M74.4,-233.08C74.4,-220.5 74.4,-204.68 74.4,-194.82"/>
<polygon fill="#9a32cd" stroke="#9a32cd" points="70.9,-233.46 74.4,-243.46 77.9,-233.46 70.9,-233.46"/>
<text text-anchor="middle" x="96.07" y="-216" font-family="Helvetica,sans-Serif" font-size="10.00"> elements</text>
</g>
</g>
</svg>
