<?xml version="1.0" encoding="UTF-8" standalone="no"?>
<!DOCTYPE svg PUBLIC "-//W3C//DTD SVG 1.1//EN"
 "http://www.w3.org/Graphics/SVG/1.1/DTD/svg11.dtd">
<!-- Generated by graphviz version 2.46.0 (0)
 -->
<!-- Title: haldls::vx::CommonPADIBusConfig::DacenPulseExtension Pages: 1 -->
<svg width="198pt" height="122pt"
 viewBox="0.00 0.00 198.21 122.00" xmlns="http://www.w3.org/2000/svg" xmlns:xlink="http://www.w3.org/1999/xlink">
<g id="graph0" class="graph" transform="scale(1 1) rotate(0) translate(4 118)">
<title>haldls::vx::CommonPADIBusConfig::DacenPulseExtension</title>
<polygon fill="white" stroke="transparent" points="-4,4 -4,-118 194.21,-118 194.21,4 -4,4"/>
<!-- Node1 -->
<g id="node1" class="node">
<title>Node1</title>
<g id="a_node1"><a xlink:title=" ">
<polygon fill="#bfbfbf" stroke="black" points="20.98,-0.5 20.98,-32.5 169.23,-32.5 169.23,-0.5 20.98,-0.5"/>
<text text-anchor="start" x="28.98" y="-19.5" font-family="Helvetica,sans-Serif" font-size="10.00">haldls::vx::CommonPADIBus</text>
<text text-anchor="middle" x="95.1" y="-7.5" font-family="Helvetica,sans-Serif" font-size="10.00">Config::DacenPulseExtension</text>
</a>
</g>
</g>
<!-- Node2 -->
<g id="node2" class="node">
<title>Node2</title>
<g id="a_node2"><a xlink:title=" ">
<polygon fill="white" stroke="#bfbfbf" points="0,-69.5 0,-113.5 190.21,-113.5 190.21,-69.5 0,-69.5"/>
<text text-anchor="start" x="8" y="-100.5" font-family="Helvetica,sans-Serif" font-size="10.00">halco::common::detail</text>
<text text-anchor="start" x="8" y="-88.5" font-family="Helvetica,sans-Serif" font-size="10.00">::RantWrapper&lt; DacenPulseExtension,</text>
<text text-anchor="middle" x="95.1" y="-76.5" font-family="Helvetica,sans-Serif" font-size="10.00"> uint_fast16_t, 15, 0 &gt;</text>
</a>
</g>
</g>
<!-- Node2&#45;&gt;Node1 -->
<g id="edge1" class="edge">
<title>Node2&#45;&gt;Node1</title>
<path fill="none" stroke="midnightblue" d="M95.1,-59.26C95.1,-50 95.1,-40.27 95.1,-32.54"/>
<polygon fill="midnightblue" stroke="midnightblue" points="91.6,-59.39 95.1,-69.39 98.6,-59.39 91.6,-59.39"/>
</g>
</g>
</svg>
