<?xml version="1.0" encoding="UTF-8" standalone="no"?>
<!DOCTYPE svg PUBLIC "-//W3C//DTD SVG 1.1//EN"
 "http://www.w3.org/Graphics/SVG/1.1/DTD/svg11.dtd">
<!-- Generated by graphviz version 2.46.0 (0)
 -->
<!-- Title: /jenkins/jenlib_workspaces_f9/bld_nightly&#45;haldls.YmxkX25pZ2h0bHktaGFsZGxzIzEzNzk.x/haldls/include/haldls/vx/synapse.h Pages: 1 -->
<!--zoomable 623 -->
<svg id="main" version="1.1" xmlns="http://www.w3.org/2000/svg" xmlns:xlink="http://www.w3.org/1999/xlink" xml:space="preserve" onload="init(evt)">
<style type="text/css"><![CDATA[
.edge:hover path { stroke: red; }
.edge:hover polygon { stroke: red; fill: red; }
]]></style>
<script type="text/javascript"><![CDATA[
var edges = document.getElementsByTagName('g');
if (edges && edges.length) {
  for (var i=0;i<edges.length;i++) {
    if (edges[i].id.substr(0,4)=='edge') {
      edges[i].setAttribute('class','edge');
    }
  }
}
]]></script>
        <defs>
                <circle id="rim" cx="0" cy="0" r="7"/>
                <circle id="rim2" cx="0" cy="0" r="3.5"/>
                <g id="zoomPlus">
                        <use xlink:href="#rim" fill="#404040">
                                <set attributeName="fill" to="#808080" begin="zoomplus.mouseover" end="zoomplus.mouseout"/>
                        </use>
                        <path d="M-4,0h8M0,-4v8" fill="none" stroke="white" stroke-width="1.5" pointer-events="none"/>
                </g>
                <g id="zoomMin">
                        <use xlink:href="#rim" fill="#404040">
                                <set attributeName="fill" to="#808080" begin="zoomminus.mouseover" end="zoomminus.mouseout"/>
                        </use>
                        <path d="M-4,0h8" fill="none" stroke="white" stroke-width="1.5" pointer-events="none"/>
                </g>
                <g id="dirArrow">
                        <path fill="none" stroke="white" stroke-width="1.5" d="M0,-3.0v7 M-2.5,-0.5L0,-3.0L2.5,-0.5"/>
                </g>
               <g id="resetDef">
                       <use xlink:href="#rim2" fill="#404040">
                               <set attributeName="fill" to="#808080" begin="reset.mouseover" end="reset.mouseout"/>
                       </use>
               </g>
        </defs>

<script type="text/javascript">
var viewWidth = 945;
var viewHeight = 623;
var sectionId = 'dynsection-1';
</script>
<script xlink:href="svgpan.js"/>
<svg id="graph" class="graph">
<g id="viewport">
<title>/jenkins/jenlib_workspaces_f9/bld_nightly&#45;haldls.YmxkX25pZ2h0bHktaGFsZGxzIzEzNzk.x/haldls/include/haldls/vx/synapse.h</title>
<polygon fill="white" stroke="transparent" points="-4,4 -4,-619 941.48,-619 941.48,4 -4,4"/>
<!-- Node1 -->
<g id="node1" class="node">
<title>Node1</title>
<g id="a_node1"><a xlink:title=" ">
<polygon fill="#bfbfbf" stroke="black" points="272.56,-558.5 272.56,-614.5 453.58,-614.5 453.58,-558.5 272.56,-558.5"/>
<text text-anchor="start" x="280.56" y="-601.5" font-family="Helvetica,sans-Serif" font-size="10.00">/jenkins/jenlib_workspaces</text>
<text text-anchor="start" x="280.56" y="-589.5" font-family="Helvetica,sans-Serif" font-size="10.00">_f9/bld_nightly&#45;haldls.YmxkX25p</text>
<text text-anchor="start" x="280.56" y="-577.5" font-family="Helvetica,sans-Serif" font-size="10.00">Z2h0bHktaGFsZGxzIzEzNzk.x/haldls</text>
<text text-anchor="middle" x="363.07" y="-565.5" font-family="Helvetica,sans-Serif" font-size="10.00">/include/haldls/vx/synapse.h</text>
</a>
</g>
</g>
<!-- Node2 -->
<g id="node2" class="node">
<title>Node2</title>
<g id="a_node2"><a xlink:href="event_8h.html" target="_top" xlink:title=" ">
<polygon fill="white" stroke="black" points="133.56,-372.5 133.56,-428.5 314.58,-428.5 314.58,-372.5 133.56,-372.5"/>
<text text-anchor="start" x="141.56" y="-415.5" font-family="Helvetica,sans-Serif" font-size="10.00">/jenkins/jenlib_workspaces</text>
<text text-anchor="start" x="141.56" y="-403.5" font-family="Helvetica,sans-Serif" font-size="10.00">_f9/bld_nightly&#45;haldls.YmxkX25p</text>
<text text-anchor="start" x="141.56" y="-391.5" font-family="Helvetica,sans-Serif" font-size="10.00">Z2h0bHktaGFsZGxzIzEzNzk.x/haldls</text>
<text text-anchor="middle" x="224.07" y="-379.5" font-family="Helvetica,sans-Serif" font-size="10.00">/include/haldls/vx/event.h</text>
</a>
</g>
</g>
<!-- Node1&#45;&gt;Node2 -->
<g id="edge1" class="edge">
<title>Node1&#45;&gt;Node2</title>
<path fill="none" stroke="midnightblue" d="M336.41,-550.21C309.66,-514.8 269.03,-461.02 244.66,-428.76"/>
<polygon fill="midnightblue" stroke="midnightblue" points="333.74,-552.48 342.56,-558.35 339.32,-548.26 333.74,-552.48"/>
</g>
<!-- Node11 -->
<g id="node11" class="node">
<title>Node11</title>
<g id="a_node11"><a xlink:href="padi_8h.html" target="_top" xlink:title=" ">
<polygon fill="white" stroke="black" points="332.56,-465.5 332.56,-521.5 513.58,-521.5 513.58,-465.5 332.56,-465.5"/>
<text text-anchor="start" x="340.56" y="-508.5" font-family="Helvetica,sans-Serif" font-size="10.00">/jenkins/jenlib_workspaces</text>
<text text-anchor="start" x="340.56" y="-496.5" font-family="Helvetica,sans-Serif" font-size="10.00">_f9/bld_nightly&#45;haldls.YmxkX25p</text>
<text text-anchor="start" x="340.56" y="-484.5" font-family="Helvetica,sans-Serif" font-size="10.00">Z2h0bHktaGFsZGxzIzEzNzk.x/haldls</text>
<text text-anchor="middle" x="423.07" y="-472.5" font-family="Helvetica,sans-Serif" font-size="10.00">/include/haldls/vx/padi.h</text>
</a>
</g>
</g>
<!-- Node1&#45;&gt;Node11 -->
<g id="edge10" class="edge">
<title>Node1&#45;&gt;Node11</title>
<path fill="none" stroke="midnightblue" d="M386.58,-549.84C392.73,-540.51 399.26,-530.6 405.08,-521.78"/>
<polygon fill="midnightblue" stroke="midnightblue" points="383.65,-547.92 381.07,-558.2 389.5,-551.77 383.65,-547.92"/>
</g>
<!-- Node17 -->
<g id="node17" class="node">
<title>Node17</title>
<g id="a_node17"><a xlink:href="v2_2synapse_8h.html" target="_top" xlink:title=" ">
<polygon fill="white" stroke="black" points="690.56,-465.5 690.56,-521.5 871.58,-521.5 871.58,-465.5 690.56,-465.5"/>
<text text-anchor="start" x="698.56" y="-508.5" font-family="Helvetica,sans-Serif" font-size="10.00">/jenkins/jenlib_workspaces</text>
<text text-anchor="start" x="698.56" y="-496.5" font-family="Helvetica,sans-Serif" font-size="10.00">_f9/bld_nightly&#45;haldls.YmxkX25p</text>
<text text-anchor="start" x="698.56" y="-484.5" font-family="Helvetica,sans-Serif" font-size="10.00">Z2h0bHktaGFsZGxzIzEzNzk.x/haldls</text>
<text text-anchor="middle" x="781.07" y="-472.5" font-family="Helvetica,sans-Serif" font-size="10.00">/include/haldls/vx/v2/synapse.h</text>
</a>
</g>
</g>
<!-- Node1&#45;&gt;Node17 -->
<g id="edge21" class="edge">
<title>Node1&#45;&gt;Node17</title>
<path fill="none" stroke="midnightblue" d="M463.8,-563.57C532.88,-548.53 623.76,-528.75 690.54,-514.21"/>
<polygon fill="midnightblue" stroke="midnightblue" points="462.79,-560.21 453.77,-565.75 464.28,-567.05 462.79,-560.21"/>
</g>
<!-- Node18 -->
<g id="node18" class="node">
<title>Node18</title>
<g id="a_node18"><a xlink:href="v3_2synapse_8h.html" target="_top" xlink:title=" ">
<polygon fill="white" stroke="black" points="5.56,-465.5 5.56,-521.5 186.58,-521.5 186.58,-465.5 5.56,-465.5"/>
<text text-anchor="start" x="13.56" y="-508.5" font-family="Helvetica,sans-Serif" font-size="10.00">/jenkins/jenlib_workspaces</text>
<text text-anchor="start" x="13.56" y="-496.5" font-family="Helvetica,sans-Serif" font-size="10.00">_f9/bld_nightly&#45;haldls.YmxkX25p</text>
<text text-anchor="start" x="13.56" y="-484.5" font-family="Helvetica,sans-Serif" font-size="10.00">Z2h0bHktaGFsZGxzIzEzNzk.x/haldls</text>
<text text-anchor="middle" x="96.07" y="-472.5" font-family="Helvetica,sans-Serif" font-size="10.00">/include/haldls/vx/v3/synapse.h</text>
</a>
</g>
</g>
<!-- Node1&#45;&gt;Node18 -->
<g id="edge23" class="edge">
<title>Node1&#45;&gt;Node18</title>
<path fill="none" stroke="midnightblue" d="M273.94,-555.12C242.14,-544.29 206.55,-532.16 175.61,-521.61"/>
<polygon fill="midnightblue" stroke="midnightblue" points="273.09,-558.53 283.68,-558.44 275.34,-551.9 273.09,-558.53"/>
</g>
<!-- Node3 -->
<g id="node3" class="node">
<title>Node3</title>
<g id="a_node3"><a xlink:href="v2_2event_8h.html" target="_top" xlink:title=" ">
<polygon fill="white" stroke="black" points="224.56,-279.5 224.56,-335.5 405.58,-335.5 405.58,-279.5 224.56,-279.5"/>
<text text-anchor="start" x="232.56" y="-322.5" font-family="Helvetica,sans-Serif" font-size="10.00">/jenkins/jenlib_workspaces</text>
<text text-anchor="start" x="232.56" y="-310.5" font-family="Helvetica,sans-Serif" font-size="10.00">_f9/bld_nightly&#45;haldls.YmxkX25p</text>
<text text-anchor="start" x="232.56" y="-298.5" font-family="Helvetica,sans-Serif" font-size="10.00">Z2h0bHktaGFsZGxzIzEzNzk.x/haldls</text>
<text text-anchor="middle" x="315.07" y="-286.5" font-family="Helvetica,sans-Serif" font-size="10.00">/include/haldls/vx/v2/event.h</text>
</a>
</g>
</g>
<!-- Node2&#45;&gt;Node3 -->
<g id="edge2" class="edge">
<title>Node2&#45;&gt;Node3</title>
<path fill="none" stroke="midnightblue" d="M258.59,-364.98C268.25,-355.32 278.61,-344.96 287.78,-335.78"/>
<polygon fill="midnightblue" stroke="midnightblue" points="255.97,-362.65 251.37,-372.2 260.92,-367.6 255.97,-362.65"/>
</g>
<!-- Node7 -->
<g id="node7" class="node">
<title>Node7</title>
<g id="a_node7"><a xlink:href="v3_2event_8h.html" target="_top" xlink:title=" ">
<polygon fill="white" stroke="black" points="25.56,-279.5 25.56,-335.5 206.58,-335.5 206.58,-279.5 25.56,-279.5"/>
<text text-anchor="start" x="33.56" y="-322.5" font-family="Helvetica,sans-Serif" font-size="10.00">/jenkins/jenlib_workspaces</text>
<text text-anchor="start" x="33.56" y="-310.5" font-family="Helvetica,sans-Serif" font-size="10.00">_f9/bld_nightly&#45;haldls.YmxkX25p</text>
<text text-anchor="start" x="33.56" y="-298.5" font-family="Helvetica,sans-Serif" font-size="10.00">Z2h0bHktaGFsZGxzIzEzNzk.x/haldls</text>
<text text-anchor="middle" x="116.07" y="-286.5" font-family="Helvetica,sans-Serif" font-size="10.00">/include/haldls/vx/v3/event.h</text>
</a>
</g>
</g>
<!-- Node2&#45;&gt;Node7 -->
<g id="edge6" class="edge">
<title>Node2&#45;&gt;Node7</title>
<path fill="none" stroke="midnightblue" d="M183.98,-365.72C172.2,-355.79 159.46,-345.06 148.24,-335.61"/>
<polygon fill="midnightblue" stroke="midnightblue" points="182.05,-368.68 191.96,-372.44 186.56,-363.32 182.05,-368.68"/>
</g>
<!-- Node4 -->
<g id="node4" class="node">
<title>Node4</title>
<g id="a_node4"><a xlink:href="v2_2container_8h.html" target="_top" xlink:title=" ">
<polygon fill="white" stroke="black" points="739.56,-186.5 739.56,-242.5 920.58,-242.5 920.58,-186.5 739.56,-186.5"/>
<text text-anchor="start" x="747.56" y="-229.5" font-family="Helvetica,sans-Serif" font-size="10.00">/jenkins/jenlib_workspaces</text>
<text text-anchor="start" x="747.56" y="-217.5" font-family="Helvetica,sans-Serif" font-size="10.00">_f9/bld_nightly&#45;haldls.YmxkX25p</text>
<text text-anchor="start" x="747.56" y="-205.5" font-family="Helvetica,sans-Serif" font-size="10.00">Z2h0bHktaGFsZGxzIzEzNzk.x/haldls</text>
<text text-anchor="middle" x="830.07" y="-193.5" font-family="Helvetica,sans-Serif" font-size="10.00">/include/haldls/vx/v2/container.h</text>
</a>
</g>
</g>
<!-- Node3&#45;&gt;Node4 -->
<g id="edge3" class="edge">
<title>Node3&#45;&gt;Node4</title>
<path fill="none" stroke="midnightblue" d="M415.91,-286.04C428.42,-283.61 441.03,-281.21 453.07,-279 550.66,-261.06 662.84,-242.42 739.28,-230.01"/>
<polygon fill="midnightblue" stroke="midnightblue" points="415.07,-282.64 405.93,-287.99 416.41,-289.51 415.07,-282.64"/>
</g>
<!-- Node5 -->
<g id="node5" class="node">
<title>Node5</title>
<g id="a_node5"><a xlink:href="v2_2haldls_8h.html" target="_top" xlink:title=" ">
<polygon fill="white" stroke="black" points="739.56,-93.5 739.56,-149.5 920.58,-149.5 920.58,-93.5 739.56,-93.5"/>
<text text-anchor="start" x="747.56" y="-136.5" font-family="Helvetica,sans-Serif" font-size="10.00">/jenkins/jenlib_workspaces</text>
<text text-anchor="start" x="747.56" y="-124.5" font-family="Helvetica,sans-Serif" font-size="10.00">_f9/bld_nightly&#45;haldls.YmxkX25p</text>
<text text-anchor="start" x="747.56" y="-112.5" font-family="Helvetica,sans-Serif" font-size="10.00">Z2h0bHktaGFsZGxzIzEzNzk.x/haldls</text>
<text text-anchor="middle" x="830.07" y="-100.5" font-family="Helvetica,sans-Serif" font-size="10.00">/include/haldls/vx/v2/haldls.h</text>
</a>
</g>
</g>
<!-- Node4&#45;&gt;Node5 -->
<g id="edge4" class="edge">
<title>Node4&#45;&gt;Node5</title>
<path fill="none" stroke="midnightblue" d="M830.07,-176.12C830.07,-167.3 830.07,-158.06 830.07,-149.78"/>
<polygon fill="midnightblue" stroke="midnightblue" points="826.57,-176.2 830.07,-186.2 833.57,-176.2 826.57,-176.2"/>
</g>
<!-- Node6 -->
<g id="node6" class="node">
<title>Node6</title>
<g id="a_node6"><a xlink:href="v2_2pyhaldls_8h.html" target="_top" xlink:title=" ">
<polygon fill="white" stroke="black" points="739.56,-0.5 739.56,-56.5 920.58,-56.5 920.58,-0.5 739.56,-0.5"/>
<text text-anchor="start" x="747.56" y="-43.5" font-family="Helvetica,sans-Serif" font-size="10.00">/jenkins/jenlib_workspaces</text>
<text text-anchor="start" x="747.56" y="-31.5" font-family="Helvetica,sans-Serif" font-size="10.00">_f9/bld_nightly&#45;haldls.YmxkX25p</text>
<text text-anchor="start" x="747.56" y="-19.5" font-family="Helvetica,sans-Serif" font-size="10.00">Z2h0bHktaGFsZGxzIzEzNzk.x/haldls</text>
<text text-anchor="middle" x="830.07" y="-7.5" font-family="Helvetica,sans-Serif" font-size="10.00">/include/haldls/vx/v2/pyhaldls.h</text>
</a>
</g>
</g>
<!-- Node5&#45;&gt;Node6 -->
<g id="edge5" class="edge">
<title>Node5&#45;&gt;Node6</title>
<path fill="none" stroke="midnightblue" d="M830.07,-83.12C830.07,-74.3 830.07,-65.06 830.07,-56.78"/>
<polygon fill="midnightblue" stroke="midnightblue" points="826.57,-83.2 830.07,-93.2 833.57,-83.2 826.57,-83.2"/>
</g>
<!-- Node8 -->
<g id="node8" class="node">
<title>Node8</title>
<g id="a_node8"><a xlink:href="v3_2container_8h.html" target="_top" xlink:title=" ">
<polygon fill="white" stroke="black" points="184.56,-186.5 184.56,-242.5 365.58,-242.5 365.58,-186.5 184.56,-186.5"/>
<text text-anchor="start" x="192.56" y="-229.5" font-family="Helvetica,sans-Serif" font-size="10.00">/jenkins/jenlib_workspaces</text>
<text text-anchor="start" x="192.56" y="-217.5" font-family="Helvetica,sans-Serif" font-size="10.00">_f9/bld_nightly&#45;haldls.YmxkX25p</text>
<text text-anchor="start" x="192.56" y="-205.5" font-family="Helvetica,sans-Serif" font-size="10.00">Z2h0bHktaGFsZGxzIzEzNzk.x/haldls</text>
<text text-anchor="middle" x="275.07" y="-193.5" font-family="Helvetica,sans-Serif" font-size="10.00">/include/haldls/vx/v3/container.h</text>
</a>
</g>
</g>
<!-- Node7&#45;&gt;Node8 -->
<g id="edge7" class="edge">
<title>Node7&#45;&gt;Node8</title>
<path fill="none" stroke="midnightblue" d="M172.1,-274.43C190.26,-264.04 210.23,-252.61 227.7,-242.61"/>
<polygon fill="midnightblue" stroke="midnightblue" points="170.28,-271.44 163.34,-279.44 173.76,-277.51 170.28,-271.44"/>
</g>
<!-- Node9 -->
<g id="node9" class="node">
<title>Node9</title>
<g id="a_node9"><a xlink:href="v3_2haldls_8h.html" target="_top" xlink:title=" ">
<polygon fill="white" stroke="black" points="184.56,-93.5 184.56,-149.5 365.58,-149.5 365.58,-93.5 184.56,-93.5"/>
<text text-anchor="start" x="192.56" y="-136.5" font-family="Helvetica,sans-Serif" font-size="10.00">/jenkins/jenlib_workspaces</text>
<text text-anchor="start" x="192.56" y="-124.5" font-family="Helvetica,sans-Serif" font-size="10.00">_f9/bld_nightly&#45;haldls.YmxkX25p</text>
<text text-anchor="start" x="192.56" y="-112.5" font-family="Helvetica,sans-Serif" font-size="10.00">Z2h0bHktaGFsZGxzIzEzNzk.x/haldls</text>
<text text-anchor="middle" x="275.07" y="-100.5" font-family="Helvetica,sans-Serif" font-size="10.00">/include/haldls/vx/v3/haldls.h</text>
</a>
</g>
</g>
<!-- Node8&#45;&gt;Node9 -->
<g id="edge8" class="edge">
<title>Node8&#45;&gt;Node9</title>
<path fill="none" stroke="midnightblue" d="M275.07,-176.12C275.07,-167.3 275.07,-158.06 275.07,-149.78"/>
<polygon fill="midnightblue" stroke="midnightblue" points="271.57,-176.2 275.07,-186.2 278.57,-176.2 271.57,-176.2"/>
</g>
<!-- Node10 -->
<g id="node10" class="node">
<title>Node10</title>
<g id="a_node10"><a xlink:href="v3_2pyhaldls_8h.html" target="_top" xlink:title=" ">
<polygon fill="white" stroke="black" points="184.56,-0.5 184.56,-56.5 365.58,-56.5 365.58,-0.5 184.56,-0.5"/>
<text text-anchor="start" x="192.56" y="-43.5" font-family="Helvetica,sans-Serif" font-size="10.00">/jenkins/jenlib_workspaces</text>
<text text-anchor="start" x="192.56" y="-31.5" font-family="Helvetica,sans-Serif" font-size="10.00">_f9/bld_nightly&#45;haldls.YmxkX25p</text>
<text text-anchor="start" x="192.56" y="-19.5" font-family="Helvetica,sans-Serif" font-size="10.00">Z2h0bHktaGFsZGxzIzEzNzk.x/haldls</text>
<text text-anchor="middle" x="275.07" y="-7.5" font-family="Helvetica,sans-Serif" font-size="10.00">/include/haldls/vx/v3/pyhaldls.h</text>
</a>
</g>
</g>
<!-- Node9&#45;&gt;Node10 -->
<g id="edge9" class="edge">
<title>Node9&#45;&gt;Node10</title>
<path fill="none" stroke="midnightblue" d="M275.07,-83.12C275.07,-74.3 275.07,-65.06 275.07,-56.78"/>
<polygon fill="midnightblue" stroke="midnightblue" points="271.57,-83.2 275.07,-93.2 278.57,-83.2 271.57,-83.2"/>
</g>
<!-- Node11&#45;&gt;Node2 -->
<g id="edge11" class="edge">
<title>Node11&#45;&gt;Node2</title>
<path fill="none" stroke="midnightblue" d="M354.8,-461.28C331.57,-450.66 305.82,-438.88 283.35,-428.61"/>
<polygon fill="midnightblue" stroke="midnightblue" points="353.35,-464.47 363.9,-465.44 356.26,-458.1 353.35,-464.47"/>
</g>
<!-- Node12 -->
<g id="node12" class="node">
<title>Node12</title>
<g id="a_node12"><a xlink:href="v2_2padi_8h.html" target="_top" xlink:title=" ">
<polygon fill="white" stroke="black" points="730.56,-372.5 730.56,-428.5 911.58,-428.5 911.58,-372.5 730.56,-372.5"/>
<text text-anchor="start" x="738.56" y="-415.5" font-family="Helvetica,sans-Serif" font-size="10.00">/jenkins/jenlib_workspaces</text>
<text text-anchor="start" x="738.56" y="-403.5" font-family="Helvetica,sans-Serif" font-size="10.00">_f9/bld_nightly&#45;haldls.YmxkX25p</text>
<text text-anchor="start" x="738.56" y="-391.5" font-family="Helvetica,sans-Serif" font-size="10.00">Z2h0bHktaGFsZGxzIzEzNzk.x/haldls</text>
<text text-anchor="middle" x="821.07" y="-379.5" font-family="Helvetica,sans-Serif" font-size="10.00">/include/haldls/vx/v2/padi.h</text>
</a>
</g>
</g>
<!-- Node11&#45;&gt;Node12 -->
<g id="edge12" class="edge">
<title>Node11&#45;&gt;Node12</title>
<path fill="none" stroke="midnightblue" d="M523.61,-472.76C581.79,-460.93 656.29,-445.1 722.07,-429 724.84,-428.32 727.65,-427.62 730.49,-426.9"/>
<polygon fill="midnightblue" stroke="midnightblue" points="522.78,-469.35 513.68,-474.77 524.17,-476.21 522.78,-469.35"/>
</g>
<!-- Node13 -->
<g id="node13" class="node">
<title>Node13</title>
<g id="a_node13"><a xlink:href="v3_2padi_8h.html" target="_top" xlink:title=" ">
<polygon fill="white" stroke="black" points="332.56,-372.5 332.56,-428.5 513.58,-428.5 513.58,-372.5 332.56,-372.5"/>
<text text-anchor="start" x="340.56" y="-415.5" font-family="Helvetica,sans-Serif" font-size="10.00">/jenkins/jenlib_workspaces</text>
<text text-anchor="start" x="340.56" y="-403.5" font-family="Helvetica,sans-Serif" font-size="10.00">_f9/bld_nightly&#45;haldls.YmxkX25p</text>
<text text-anchor="start" x="340.56" y="-391.5" font-family="Helvetica,sans-Serif" font-size="10.00">Z2h0bHktaGFsZGxzIzEzNzk.x/haldls</text>
<text text-anchor="middle" x="423.07" y="-379.5" font-family="Helvetica,sans-Serif" font-size="10.00">/include/haldls/vx/v3/padi.h</text>
</a>
</g>
</g>
<!-- Node11&#45;&gt;Node13 -->
<g id="edge14" class="edge">
<title>Node11&#45;&gt;Node13</title>
<path fill="none" stroke="midnightblue" d="M423.07,-455.12C423.07,-446.3 423.07,-437.06 423.07,-428.78"/>
<polygon fill="midnightblue" stroke="midnightblue" points="419.57,-455.2 423.07,-465.2 426.57,-455.2 419.57,-455.2"/>
</g>
<!-- Node14 -->
<g id="node14" class="node">
<title>Node14</title>
<g id="a_node14"><a xlink:href="vector__generator_8h.html" target="_top" xlink:title=" ">
<polygon fill="white" stroke="black" points="531.56,-372.5 531.56,-428.5 712.58,-428.5 712.58,-372.5 531.56,-372.5"/>
<text text-anchor="start" x="539.56" y="-415.5" font-family="Helvetica,sans-Serif" font-size="10.00">/jenkins/jenlib_workspaces</text>
<text text-anchor="start" x="539.56" y="-403.5" font-family="Helvetica,sans-Serif" font-size="10.00">_f9/bld_nightly&#45;haldls.YmxkX25p</text>
<text text-anchor="start" x="539.56" y="-391.5" font-family="Helvetica,sans-Serif" font-size="10.00">Z2h0bHktaGFsZGxzIzEzNzk.x/haldls</text>
<text text-anchor="middle" x="622.07" y="-379.5" font-family="Helvetica,sans-Serif" font-size="10.00">/include/haldls/vx/vector_generator.h</text>
</a>
</g>
</g>
<!-- Node11&#45;&gt;Node14 -->
<g id="edge16" class="edge">
<title>Node11&#45;&gt;Node14</title>
<path fill="none" stroke="midnightblue" d="M491.34,-461.28C514.56,-450.66 540.32,-438.88 562.78,-428.61"/>
<polygon fill="midnightblue" stroke="midnightblue" points="489.87,-458.1 482.23,-465.44 492.78,-464.47 489.87,-458.1"/>
</g>
<!-- Node12&#45;&gt;Node4 -->
<g id="edge13" class="edge">
<title>Node12&#45;&gt;Node4</title>
<path fill="none" stroke="midnightblue" d="M856.69,-364.52C863.4,-355.88 869.43,-346.17 873.07,-336 881.59,-312.14 880.5,-303.22 873.07,-279 869.08,-266.02 861.45,-253.3 853.7,-242.7"/>
<polygon fill="midnightblue" stroke="midnightblue" points="853.81,-362.51 850.12,-372.45 859.2,-366.98 853.81,-362.51"/>
</g>
<!-- Node13&#45;&gt;Node8 -->
<g id="edge15" class="edge">
<title>Node13&#45;&gt;Node8</title>
<path fill="none" stroke="midnightblue" d="M429.99,-361.94C432.59,-336.36 431.64,-302.94 415.07,-279 402.99,-261.56 384.91,-248.82 365.72,-239.56"/>
<polygon fill="midnightblue" stroke="midnightblue" points="426.49,-361.66 428.74,-372.02 433.44,-362.52 426.49,-361.66"/>
</g>
<!-- Node15 -->
<g id="node15" class="node">
<title>Node15</title>
<g id="a_node15"><a xlink:href="v2_2vector__generator_8h.html" target="_top" xlink:title=" ">
<polygon fill="white" stroke="black" points="671.99,-279.5 671.99,-335.5 864.15,-335.5 864.15,-279.5 671.99,-279.5"/>
<text text-anchor="start" x="679.99" y="-322.5" font-family="Helvetica,sans-Serif" font-size="10.00">/jenkins/jenlib_workspaces</text>
<text text-anchor="start" x="679.99" y="-310.5" font-family="Helvetica,sans-Serif" font-size="10.00">_f9/bld_nightly&#45;haldls.YmxkX25p</text>
<text text-anchor="start" x="679.99" y="-298.5" font-family="Helvetica,sans-Serif" font-size="10.00">Z2h0bHktaGFsZGxzIzEzNzk.x/haldls</text>
<text text-anchor="middle" x="768.07" y="-286.5" font-family="Helvetica,sans-Serif" font-size="10.00">/include/haldls/vx/v2/vector_generator.h</text>
</a>
</g>
</g>
<!-- Node14&#45;&gt;Node15 -->
<g id="edge17" class="edge">
<title>Node14&#45;&gt;Node15</title>
<path fill="none" stroke="midnightblue" d="M673.97,-367.15C690.53,-356.83 708.67,-345.52 724.57,-335.61"/>
<polygon fill="midnightblue" stroke="midnightblue" points="672.11,-364.18 665.48,-372.44 675.81,-370.12 672.11,-364.18"/>
</g>
<!-- Node16 -->
<g id="node16" class="node">
<title>Node16</title>
<g id="a_node16"><a xlink:href="v3_2vector__generator_8h.html" target="_top" xlink:title=" ">
<polygon fill="white" stroke="black" points="461.99,-279.5 461.99,-335.5 654.15,-335.5 654.15,-279.5 461.99,-279.5"/>
<text text-anchor="start" x="469.99" y="-322.5" font-family="Helvetica,sans-Serif" font-size="10.00">/jenkins/jenlib_workspaces</text>
<text text-anchor="start" x="469.99" y="-310.5" font-family="Helvetica,sans-Serif" font-size="10.00">_f9/bld_nightly&#45;haldls.YmxkX25p</text>
<text text-anchor="start" x="469.99" y="-298.5" font-family="Helvetica,sans-Serif" font-size="10.00">Z2h0bHktaGFsZGxzIzEzNzk.x/haldls</text>
<text text-anchor="middle" x="558.07" y="-286.5" font-family="Helvetica,sans-Serif" font-size="10.00">/include/haldls/vx/v3/vector_generator.h</text>
</a>
</g>
</g>
<!-- Node14&#45;&gt;Node16 -->
<g id="edge19" class="edge">
<title>Node14&#45;&gt;Node16</title>
<path fill="none" stroke="midnightblue" d="M596.99,-363.84C590.43,-354.51 583.46,-344.6 577.26,-335.78"/>
<polygon fill="midnightblue" stroke="midnightblue" points="594.25,-366.03 602.86,-372.2 599.98,-362 594.25,-366.03"/>
</g>
<!-- Node15&#45;&gt;Node4 -->
<g id="edge18" class="edge">
<title>Node15&#45;&gt;Node4</title>
<path fill="none" stroke="midnightblue" d="M792.36,-270.84C798.72,-261.51 805.47,-251.6 811.48,-242.78"/>
<polygon fill="midnightblue" stroke="midnightblue" points="789.41,-268.96 786.67,-279.2 795.19,-272.9 789.41,-268.96"/>
</g>
<!-- Node16&#45;&gt;Node8 -->
<g id="edge20" class="edge">
<title>Node16&#45;&gt;Node8</title>
<path fill="none" stroke="midnightblue" d="M464.04,-276.26C430.22,-265.39 392.31,-253.2 359.37,-242.61"/>
<polygon fill="midnightblue" stroke="midnightblue" points="463.33,-279.71 473.92,-279.44 465.48,-273.05 463.33,-279.71"/>
</g>
<!-- Node17&#45;&gt;Node4 -->
<g id="edge22" class="edge">
<title>Node17&#45;&gt;Node4</title>
<path fill="none" stroke="midnightblue" d="M880.83,-464.71C896.78,-455.86 911.25,-444.24 921.07,-429 957.95,-371.78 925.03,-337.41 890.07,-279 882.2,-265.86 871.2,-253.2 860.77,-242.69"/>
<polygon fill="midnightblue" stroke="midnightblue" points="879.12,-461.66 871.83,-469.35 882.33,-467.88 879.12,-461.66"/>
</g>
<!-- Node18&#45;&gt;Node8 -->
<g id="edge24" class="edge">
<title>Node18&#45;&gt;Node8</title>
<path fill="none" stroke="midnightblue" d="M63.65,-457.54C25.82,-412.39 -26.45,-333.21 16.07,-279 36.93,-252.41 118.23,-235.49 184.26,-225.87"/>
<polygon fill="midnightblue" stroke="midnightblue" points="61.12,-459.97 70.28,-465.29 66.44,-455.41 61.12,-459.97"/>
</g>
</g>
</svg>
        <g id="navigator" transform="translate(0 0)" fill="#404254">
                <rect fill="#f2f5e9" fill-opacity="0.5" stroke="#606060" stroke-width=".5" x="0" y="0" width="60" height="60"/>
                <use id="zoomplus" xlink:href="#zoomPlus" x="17" y="9" onmousedown="handleZoom(evt,'in')"/>
                <use id="zoomminus" xlink:href="#zoomMin" x="42" y="9" onmousedown="handleZoom(evt,'out')"/>
                <use id="reset" xlink:href="#resetDef" x="30" y="36" onmousedown="handleReset()"/>
                <g id="arrowUp" xlink:href="#dirArrow" transform="translate(30 24)" onmousedown="handlePan(0,-1)">
                  <use xlink:href="#rim" fill="#404040">
                        <set attributeName="fill" to="#808080" begin="arrowUp.mouseover" end="arrowUp.mouseout"/>
                  </use>
                  <path fill="none" stroke="white" stroke-width="1.5" d="M0,-3.0v7 M-2.5,-0.5L0,-3.0L2.5,-0.5"/>
                </g>
                <g id="arrowRight" xlink:href="#dirArrow" transform="rotate(90) translate(36 -43)" onmousedown="handlePan(1,0)">
                  <use xlink:href="#rim" fill="#404040">
                        <set attributeName="fill" to="#808080" begin="arrowRight.mouseover" end="arrowRight.mouseout"/>
                  </use>
                  <path fill="none" stroke="white" stroke-width="1.5" d="M0,-3.0v7 M-2.5,-0.5L0,-3.0L2.5,-0.5"/>
                </g>
                <g id="arrowDown" xlink:href="#dirArrow" transform="rotate(180) translate(-30 -48)" onmousedown="handlePan(0,1)">
                  <use xlink:href="#rim" fill="#404040">
                        <set attributeName="fill" to="#808080" begin="arrowDown.mouseover" end="arrowDown.mouseout"/>
                  </use>
                  <path fill="none" stroke="white" stroke-width="1.5" d="M0,-3.0v7 M-2.5,-0.5L0,-3.0L2.5,-0.5"/>
                </g>
                <g id="arrowLeft" xlink:href="#dirArrow" transform="rotate(270) translate(-36 17)" onmousedown="handlePan(-1,0)">
                  <use xlink:href="#rim" fill="#404040">
                        <set attributeName="fill" to="#808080" begin="arrowLeft.mouseover" end="arrowLeft.mouseout"/>
                  </use>
                  <path fill="none" stroke="white" stroke-width="1.5" d="M0,-3.0v7 M-2.5,-0.5L0,-3.0L2.5,-0.5"/>
                </g>
        </g>
        <svg viewBox="0 0 15 15" width="100%" height="30px" preserveAspectRatio="xMaxYMin meet">
         <g id="arrow_out" transform="scale(0.3 0.3)">
          <a xlink:href="synapse_8h__dep__incl_org.svg" target="_base">
           <rect id="button" ry="5" rx="5" y="6" x="6" height="38" width="38"
                fill="#f2f5e9" fill-opacity="0.5" stroke="#606060" stroke-width="1.0"/>
           <path id="arrow"
             d="M 11.500037,31.436501 C 11.940474,20.09759 22.043105,11.32322 32.158766,21.979434 L 37.068811,17.246167 C 37.068811,17.246167 37.088388,32 37.088388,32 L 22.160133,31.978069 C 22.160133,31.978069 26.997745,27.140456 26.997745,27.140456 C 18.528582,18.264221 13.291696,25.230495 11.500037,31.436501 z"
             style="fill:#404040;"/>
          </a>
         </g>
        </svg>
</svg>
