<?xml version="1.0" encoding="UTF-8" standalone="no"?>
<!DOCTYPE svg PUBLIC "-//W3C//DTD SVG 1.1//EN"
 "http://www.w3.org/Graphics/SVG/1.1/DTD/svg11.dtd">
<!-- Generated by graphviz version 2.46.0 (0)
 -->
<!-- Title: /jenkins/jenlib_workspaces_f9/bld_nightly&#45;haldls.YmxkX25pZ2h0bHktaGFsZGxzIzEzNzk.x/haldls/include/haldls/vx/synapse.h Pages: 1 -->
<svg width="1438pt" height="203pt"
 viewBox="0.00 0.00 1437.79 203.00" xmlns="http://www.w3.org/2000/svg" xmlns:xlink="http://www.w3.org/1999/xlink">
<g id="graph0" class="graph" transform="scale(1 1) rotate(0) translate(4 199)">
<title>/jenkins/jenlib_workspaces_f9/bld_nightly&#45;haldls.YmxkX25pZ2h0bHktaGFsZGxzIzEzNzk.x/haldls/include/haldls/vx/synapse.h</title>
<polygon fill="white" stroke="transparent" points="-4,4 -4,-199 1433.79,-199 1433.79,4 -4,4"/>
<!-- Node1 -->
<g id="node1" class="node">
<title>Node1</title>
<g id="a_node1"><a xlink:title=" ">
<polygon fill="#bfbfbf" stroke="black" points="538.66,-138.5 538.66,-194.5 719.68,-194.5 719.68,-138.5 538.66,-138.5"/>
<text text-anchor="start" x="546.66" y="-181.5" font-family="Helvetica,sans-Serif" font-size="10.00">/jenkins/jenlib_workspaces</text>
<text text-anchor="start" x="546.66" y="-169.5" font-family="Helvetica,sans-Serif" font-size="10.00">_f9/bld_nightly&#45;haldls.YmxkX25p</text>
<text text-anchor="start" x="546.66" y="-157.5" font-family="Helvetica,sans-Serif" font-size="10.00">Z2h0bHktaGFsZGxzIzEzNzk.x/haldls</text>
<text text-anchor="middle" x="629.17" y="-145.5" font-family="Helvetica,sans-Serif" font-size="10.00">/include/haldls/vx/synapse.h</text>
</a>
</g>
</g>
<!-- Node2 -->
<g id="node2" class="node">
<title>Node2</title>
<g id="a_node2"><a xlink:title=" ">
<polygon fill="white" stroke="#bfbfbf" points="133.78,-75.5 133.78,-95.5 172.56,-95.5 172.56,-75.5 133.78,-75.5"/>
<text text-anchor="middle" x="153.17" y="-82.5" font-family="Helvetica,sans-Serif" font-size="10.00">array</text>
</a>
</g>
</g>
<!-- Node1&#45;&gt;Node2 -->
<g id="edge1" class="edge">
<title>Node1&#45;&gt;Node2</title>
<path fill="none" stroke="midnightblue" d="M538.39,-160.38C447.64,-153.43 304.89,-137.52 186.17,-102 183.87,-101.31 181.52,-100.49 179.19,-99.58"/>
<polygon fill="midnightblue" stroke="midnightblue" points="180.48,-96.32 169.91,-95.54 177.69,-102.74 180.48,-96.32"/>
</g>
<!-- Node3 -->
<g id="node3" class="node">
<title>Node3</title>
<g id="a_node3"><a xlink:title=" ">
<polygon fill="white" stroke="#bfbfbf" points="0,-6.5 0,-26.5 44.34,-26.5 44.34,-6.5 0,-6.5"/>
<text text-anchor="middle" x="22.17" y="-13.5" font-family="Helvetica,sans-Serif" font-size="10.00">iosfwd</text>
</a>
</g>
</g>
<!-- Node1&#45;&gt;Node3 -->
<g id="edge2" class="edge">
<title>Node1&#45;&gt;Node3</title>
<path fill="none" stroke="midnightblue" d="M538.43,-157.36C435.38,-147.08 274.38,-127.61 219.17,-102 198.88,-92.59 200.85,-79.62 181.17,-69 129.15,-40.95 108.29,-54.31 53.17,-33 51.55,-32.37 49.9,-31.69 48.25,-30.97"/>
<polygon fill="midnightblue" stroke="midnightblue" points="49.5,-27.7 38.96,-26.62 46.53,-34.03 49.5,-27.7"/>
</g>
<!-- Node4 -->
<g id="node4" class="node">
<title>Node4</title>
<g id="a_node4"><a xlink:title=" ">
<polygon fill="white" stroke="#bfbfbf" points="691.27,-75.5 691.27,-95.5 825.07,-95.5 825.07,-75.5 691.27,-75.5"/>
<text text-anchor="middle" x="758.17" y="-82.5" font-family="Helvetica,sans-Serif" font-size="10.00">halco/common/geometry.h</text>
</a>
</g>
</g>
<!-- Node1&#45;&gt;Node4 -->
<g id="edge3" class="edge">
<title>Node1&#45;&gt;Node4</title>
<path fill="none" stroke="midnightblue" d="M673.56,-138.31C694.1,-125.73 717.66,-111.31 734.7,-100.87"/>
<polygon fill="midnightblue" stroke="midnightblue" points="736.73,-103.73 743.43,-95.53 733.07,-97.77 736.73,-103.73"/>
</g>
<!-- Node5 -->
<g id="node5" class="node">
<title>Node5</title>
<g id="a_node5"><a xlink:title=" ">
<polygon fill="white" stroke="#bfbfbf" points="843.05,-69.5 843.05,-101.5 951.29,-101.5 951.29,-69.5 843.05,-69.5"/>
<text text-anchor="start" x="851.05" y="-88.5" font-family="Helvetica,sans-Serif" font-size="10.00">halco/common/typed</text>
<text text-anchor="middle" x="897.17" y="-76.5" font-family="Helvetica,sans-Serif" font-size="10.00">_array.h</text>
</a>
</g>
</g>
<!-- Node1&#45;&gt;Node5 -->
<g id="edge4" class="edge">
<title>Node1&#45;&gt;Node5</title>
<path fill="none" stroke="midnightblue" d="M719.9,-138.75C758.18,-127.47 801.75,-114.63 836.11,-104.5"/>
<polygon fill="midnightblue" stroke="midnightblue" points="837.4,-107.77 846,-101.58 835.42,-101.05 837.4,-107.77"/>
</g>
<!-- Node6 -->
<g id="node6" class="node">
<title>Node6</title>
<g id="a_node6"><a xlink:title=" ">
<polygon fill="white" stroke="#bfbfbf" points="969.66,-69.5 969.66,-101.5 1070.68,-101.5 1070.68,-69.5 969.66,-69.5"/>
<text text-anchor="start" x="977.66" y="-88.5" font-family="Helvetica,sans-Serif" font-size="10.00">halco/hicann&#45;dls/vx</text>
<text text-anchor="middle" x="1020.17" y="-76.5" font-family="Helvetica,sans-Serif" font-size="10.00">/capmem.h</text>
</a>
</g>
</g>
<!-- Node1&#45;&gt;Node6 -->
<g id="edge5" class="edge">
<title>Node1&#45;&gt;Node6</title>
<path fill="none" stroke="midnightblue" d="M719.75,-149.72C784.04,-138.14 872.57,-121.45 959.69,-102.03"/>
<polygon fill="midnightblue" stroke="midnightblue" points="960.49,-105.44 969.48,-99.83 958.96,-98.61 960.49,-105.44"/>
</g>
<!-- Node7 -->
<g id="node7" class="node">
<title>Node7</title>
<g id="a_node7"><a xlink:title=" ">
<polygon fill="white" stroke="#bfbfbf" points="1088.66,-69.5 1088.66,-101.5 1189.68,-101.5 1189.68,-69.5 1088.66,-69.5"/>
<text text-anchor="start" x="1096.66" y="-88.5" font-family="Helvetica,sans-Serif" font-size="10.00">halco/hicann&#45;dls/vx</text>
<text text-anchor="middle" x="1139.17" y="-76.5" font-family="Helvetica,sans-Serif" font-size="10.00">/switch_rows.h</text>
</a>
</g>
</g>
<!-- Node1&#45;&gt;Node7 -->
<g id="edge6" class="edge">
<title>Node1&#45;&gt;Node7</title>
<path fill="none" stroke="midnightblue" d="M719.97,-155.88C809.1,-145.71 949.01,-127.83 1078.32,-102.25"/>
<polygon fill="midnightblue" stroke="midnightblue" points="1079.29,-105.63 1088.41,-100.24 1077.91,-98.77 1079.29,-105.63"/>
</g>
<!-- Node8 -->
<g id="node8" class="node">
<title>Node8</title>
<g id="a_node8"><a xlink:title=" ">
<polygon fill="white" stroke="#bfbfbf" points="1207.66,-69.5 1207.66,-101.5 1308.68,-101.5 1308.68,-69.5 1207.66,-69.5"/>
<text text-anchor="start" x="1215.66" y="-88.5" font-family="Helvetica,sans-Serif" font-size="10.00">halco/hicann&#45;dls/vx</text>
<text text-anchor="middle" x="1258.17" y="-76.5" font-family="Helvetica,sans-Serif" font-size="10.00">/synapse.h</text>
</a>
</g>
</g>
<!-- Node1&#45;&gt;Node8 -->
<g id="edge7" class="edge">
<title>Node1&#45;&gt;Node8</title>
<path fill="none" stroke="midnightblue" d="M720.1,-159.48C830.95,-151.22 1024,-133.86 1197.35,-102.19"/>
<polygon fill="midnightblue" stroke="midnightblue" points="1198.23,-105.59 1207.43,-100.33 1196.96,-98.71 1198.23,-105.59"/>
</g>
<!-- Node9 -->
<g id="node9" class="node">
<title>Node9</title>
<g id="a_node9"><a xlink:href="cerealization_8h.html" target="_top" xlink:title=" ">
<polygon fill="white" stroke="black" points="228.49,-75.5 228.49,-95.5 337.84,-95.5 337.84,-75.5 228.49,-75.5"/>
<text text-anchor="middle" x="283.17" y="-82.5" font-family="Helvetica,sans-Serif" font-size="10.00">haldls/cerealization.h</text>
</a>
</g>
</g>
<!-- Node1&#45;&gt;Node9 -->
<g id="edge8" class="edge">
<title>Node1&#45;&gt;Node9</title>
<path fill="none" stroke="midnightblue" d="M538.26,-144.74C472.61,-129.75 386.44,-110.08 332.94,-97.86"/>
<polygon fill="midnightblue" stroke="midnightblue" points="333.55,-94.41 323.02,-95.6 331.99,-101.24 333.55,-94.41"/>
</g>
<!-- Node11 -->
<g id="node11" class="node">
<title>Node11</title>
<g id="a_node11"><a xlink:title=" ">
<polygon fill="white" stroke="#bfbfbf" points="342.66,-6.5 342.66,-26.5 423.67,-26.5 423.67,-6.5 342.66,-6.5"/>
<text text-anchor="middle" x="383.17" y="-13.5" font-family="Helvetica,sans-Serif" font-size="10.00">hate/visibility.h</text>
</a>
</g>
</g>
<!-- Node1&#45;&gt;Node11 -->
<g id="edge29" class="edge">
<title>Node1&#45;&gt;Node11</title>
<path fill="none" stroke="midnightblue" d="M538.62,-156.77C496.93,-148.54 449.45,-132.64 416.17,-102 397.47,-84.79 389.24,-55.71 385.7,-36.56"/>
<polygon fill="midnightblue" stroke="midnightblue" points="389.14,-35.92 384.12,-26.59 382.23,-37.02 389.14,-35.92"/>
</g>
<!-- Node14 -->
<g id="node14" class="node">
<title>Node14</title>
<g id="a_node14"><a xlink:href="common_8h.html" target="_top" xlink:title=" ">
<polygon fill="white" stroke="black" points="424.99,-75.5 424.99,-95.5 529.34,-95.5 529.34,-75.5 424.99,-75.5"/>
<text text-anchor="middle" x="477.17" y="-82.5" font-family="Helvetica,sans-Serif" font-size="10.00">haldls/vx/common.h</text>
</a>
</g>
</g>
<!-- Node1&#45;&gt;Node14 -->
<g id="edge14" class="edge">
<title>Node1&#45;&gt;Node14</title>
<path fill="none" stroke="midnightblue" d="M576.86,-138.31C552.1,-125.44 523.61,-110.64 503.44,-100.16"/>
<polygon fill="midnightblue" stroke="midnightblue" points="505.02,-97.03 494.54,-95.53 501.8,-103.24 505.02,-97.03"/>
</g>
<!-- Node17 -->
<g id="node17" class="node">
<title>Node17</title>
<g id="a_node17"><a xlink:href="genpybind_8h.html" target="_top" xlink:title=" ">
<polygon fill="white" stroke="black" points="578.1,-6.5 578.1,-26.5 690.24,-26.5 690.24,-6.5 578.1,-6.5"/>
<text text-anchor="middle" x="634.17" y="-13.5" font-family="Helvetica,sans-Serif" font-size="10.00">haldls/vx/genpybind.h</text>
</a>
</g>
</g>
<!-- Node1&#45;&gt;Node17 -->
<g id="edge17" class="edge">
<title>Node1&#45;&gt;Node17</title>
<path fill="none" stroke="midnightblue" d="M598.88,-138.23C581.6,-119.22 565.36,-93.06 576.17,-69 583.07,-53.63 597.09,-40.98 609.61,-32.07"/>
<polygon fill="midnightblue" stroke="midnightblue" points="611.56,-34.97 617.93,-26.5 607.67,-29.15 611.56,-34.97"/>
</g>
<!-- Node18 -->
<g id="node18" class="node">
<title>Node18</title>
<g id="a_node18"><a xlink:href="traits_8h.html" target="_top" xlink:title=" ">
<polygon fill="white" stroke="black" points="585.33,-75.5 585.33,-95.5 673.01,-95.5 673.01,-75.5 585.33,-75.5"/>
<text text-anchor="middle" x="629.17" y="-82.5" font-family="Helvetica,sans-Serif" font-size="10.00">haldls/vx/traits.h</text>
</a>
</g>
</g>
<!-- Node1&#45;&gt;Node18 -->
<g id="edge19" class="edge">
<title>Node1&#45;&gt;Node18</title>
<path fill="none" stroke="midnightblue" d="M629.17,-138.31C629.17,-127.66 629.17,-115.68 629.17,-105.93"/>
<polygon fill="midnightblue" stroke="midnightblue" points="632.67,-105.71 629.17,-95.71 625.67,-105.71 632.67,-105.71"/>
</g>
<!-- Node24 -->
<g id="node24" class="node">
<title>Node24</title>
<g id="a_node24"><a xlink:title=" ">
<polygon fill="white" stroke="#bfbfbf" points="1326.55,-75.5 1326.55,-95.5 1429.79,-95.5 1429.79,-75.5 1326.55,-75.5"/>
<text text-anchor="middle" x="1378.17" y="-82.5" font-family="Helvetica,sans-Serif" font-size="10.00">hxcomm/vx/target.h</text>
</a>
</g>
</g>
<!-- Node1&#45;&gt;Node24 -->
<g id="edge30" class="edge">
<title>Node1&#45;&gt;Node24</title>
<path fill="none" stroke="midnightblue" d="M719.79,-161.8C852.11,-155.34 1105.59,-139.01 1318.17,-102 1324.43,-100.91 1330.99,-99.5 1337.39,-97.97"/>
<polygon fill="midnightblue" stroke="midnightblue" points="1338.38,-101.33 1347.23,-95.51 1336.68,-94.54 1338.38,-101.33"/>
</g>
<!-- Node9&#45;&gt;Node3 -->
<g id="edge12" class="edge">
<title>Node9&#45;&gt;Node3</title>
<path fill="none" stroke="midnightblue" d="M243.03,-75.48C233.57,-73.35 223.51,-71.09 214.17,-69 142.62,-52.96 122.25,-57.58 53.17,-33 51.49,-32.4 49.79,-31.74 48.09,-31.03"/>
<polygon fill="midnightblue" stroke="midnightblue" points="49.12,-27.65 38.57,-26.63 46.18,-34 49.12,-27.65"/>
</g>
<!-- Node10 -->
<g id="node10" class="node">
<title>Node10</title>
<g id="a_node10"><a xlink:title=" ">
<polygon fill="white" stroke="#bfbfbf" points="241.54,-6.5 241.54,-26.5 324.79,-26.5 324.79,-6.5 241.54,-6.5"/>
<text text-anchor="middle" x="283.17" y="-13.5" font-family="Helvetica,sans-Serif" font-size="10.00">hate/type_list.h</text>
</a>
</g>
</g>
<!-- Node9&#45;&gt;Node10 -->
<g id="edge9" class="edge">
<title>Node9&#45;&gt;Node10</title>
<path fill="none" stroke="midnightblue" d="M283.17,-75.46C283.17,-65.63 283.17,-49.61 283.17,-36.9"/>
<polygon fill="midnightblue" stroke="midnightblue" points="286.67,-36.82 283.17,-26.82 279.67,-36.82 286.67,-36.82"/>
</g>
<!-- Node9&#45;&gt;Node11 -->
<g id="edge10" class="edge">
<title>Node9&#45;&gt;Node11</title>
<path fill="none" stroke="midnightblue" d="M296.65,-75.46C313.2,-64.38 341.49,-45.42 361.2,-32.22"/>
<polygon fill="midnightblue" stroke="midnightblue" points="363.22,-35.08 369.58,-26.61 359.32,-29.27 363.22,-35.08"/>
</g>
<!-- Node12 -->
<g id="node12" class="node">
<title>Node12</title>
<g id="a_node12"><a xlink:title=" ">
<polygon fill="white" stroke="#bfbfbf" points="178.72,-6.5 178.72,-26.5 223.62,-26.5 223.62,-6.5 178.72,-6.5"/>
<text text-anchor="middle" x="201.17" y="-13.5" font-family="Helvetica,sans-Serif" font-size="10.00">cstdint</text>
</a>
</g>
</g>
<!-- Node9&#45;&gt;Node12 -->
<g id="edge11" class="edge">
<title>Node9&#45;&gt;Node12</title>
<path fill="none" stroke="midnightblue" d="M272.11,-75.46C258.78,-64.57 236.17,-46.1 220.06,-32.94"/>
<polygon fill="midnightblue" stroke="midnightblue" points="222.27,-30.22 212.31,-26.61 217.84,-35.64 222.27,-30.22"/>
</g>
<!-- Node13 -->
<g id="node13" class="node">
<title>Node13</title>
<g id="a_node13"><a xlink:title=" ">
<polygon fill="white" stroke="#bfbfbf" points="62.05,-6.5 62.05,-26.5 160.29,-26.5 160.29,-6.5 62.05,-6.5"/>
<text text-anchor="middle" x="111.17" y="-13.5" font-family="Helvetica,sans-Serif" font-size="10.00">cereal/macros.hpp</text>
</a>
</g>
</g>
<!-- Node9&#45;&gt;Node13 -->
<g id="edge13" class="edge">
<title>Node9&#45;&gt;Node13</title>
<path fill="none" stroke="midnightblue" d="M259.97,-75.46C230.09,-63.83 177.98,-43.52 144.03,-30.3"/>
<polygon fill="midnightblue" stroke="midnightblue" points="145.13,-26.98 134.55,-26.61 142.59,-33.5 145.13,-26.98"/>
</g>
<!-- Node15 -->
<g id="node15" class="node">
<title>Node15</title>
<g id="a_node15"><a xlink:title=" ">
<polygon fill="white" stroke="#bfbfbf" points="498.11,-6.5 498.11,-26.5 560.23,-26.5 560.23,-6.5 498.11,-6.5"/>
<text text-anchor="middle" x="529.17" y="-13.5" font-family="Helvetica,sans-Serif" font-size="10.00">type_traits</text>
</a>
</g>
</g>
<!-- Node14&#45;&gt;Node15 -->
<g id="edge15" class="edge">
<title>Node14&#45;&gt;Node15</title>
<path fill="none" stroke="midnightblue" d="M484.18,-75.46C492.2,-65.13 505.52,-47.97 515.58,-35"/>
<polygon fill="midnightblue" stroke="midnightblue" points="518.57,-36.87 521.93,-26.82 513.04,-32.58 518.57,-36.87"/>
</g>
<!-- Node16 -->
<g id="node16" class="node">
<title>Node16</title>
<g id="a_node16"><a xlink:title=" ">
<polygon fill="white" stroke="#bfbfbf" points="441.78,-6.5 441.78,-26.5 480.55,-26.5 480.55,-6.5 441.78,-6.5"/>
<text text-anchor="middle" x="461.17" y="-13.5" font-family="Helvetica,sans-Serif" font-size="10.00">utility</text>
</a>
</g>
</g>
<!-- Node14&#45;&gt;Node16 -->
<g id="edge16" class="edge">
<title>Node14&#45;&gt;Node16</title>
<path fill="none" stroke="midnightblue" d="M475.01,-75.46C472.66,-65.63 468.84,-49.61 465.8,-36.9"/>
<polygon fill="midnightblue" stroke="midnightblue" points="469.12,-35.74 463.39,-26.82 462.31,-37.36 469.12,-35.74"/>
</g>
<!-- Node17&#45;&gt;Node17 -->
<g id="edge18" class="edge">
<title>Node17&#45;&gt;Node17</title>
<path fill="none" stroke="midnightblue" d="M658.06,-26.54C681.89,-32.26 708.24,-28.92 708.24,-16.5 708.24,-5.78 688.6,-1.82 667.9,-4.62"/>
<polygon fill="midnightblue" stroke="midnightblue" points="667.25,-1.18 658.06,-6.46 668.54,-8.06 667.25,-1.18"/>
</g>
<!-- Node18&#45;&gt;Node10 -->
<g id="edge23" class="edge">
<title>Node18&#45;&gt;Node10</title>
<path fill="none" stroke="midnightblue" d="M585.2,-77C505.75,-63.43 345.34,-35.93 333.17,-33 328.77,-31.94 324.2,-30.71 319.69,-29.41"/>
<polygon fill="midnightblue" stroke="midnightblue" points="320.56,-26.02 309.98,-26.51 318.55,-32.73 320.56,-26.02"/>
</g>
<!-- Node18&#45;&gt;Node11 -->
<g id="edge24" class="edge">
<title>Node18&#45;&gt;Node11</title>
<path fill="none" stroke="midnightblue" d="M592.91,-75.48C553.48,-65.55 488.64,-48.88 433.17,-33 429.34,-31.91 425.37,-30.73 421.4,-29.54"/>
<polygon fill="midnightblue" stroke="midnightblue" points="422.25,-26.14 411.66,-26.57 420.2,-32.83 422.25,-26.14"/>
</g>
<!-- Node18&#45;&gt;Node15 -->
<g id="edge25" class="edge">
<title>Node18&#45;&gt;Node15</title>
<path fill="none" stroke="midnightblue" d="M615.68,-75.46C599.13,-64.38 570.84,-45.42 551.14,-32.22"/>
<polygon fill="midnightblue" stroke="midnightblue" points="553.02,-29.27 542.76,-26.61 549.12,-35.08 553.02,-29.27"/>
</g>
<!-- Node18&#45;&gt;Node17 -->
<g id="edge22" class="edge">
<title>Node18&#45;&gt;Node17</title>
<path fill="none" stroke="midnightblue" d="M629.84,-75.46C630.58,-65.63 631.77,-49.61 632.72,-36.9"/>
<polygon fill="midnightblue" stroke="midnightblue" points="636.22,-37.06 633.47,-26.82 629.24,-36.53 636.22,-37.06"/>
</g>
<!-- Node19 -->
<g id="node19" class="node">
<title>Node19</title>
<g id="a_node19"><a xlink:title=" ">
<polygon fill="white" stroke="#bfbfbf" points="854.11,-6.5 854.11,-26.5 936.23,-26.5 936.23,-6.5 854.11,-6.5"/>
<text text-anchor="middle" x="895.17" y="-13.5" font-family="Helvetica,sans-Serif" font-size="10.00">fisch/vx/traits.h</text>
</a>
</g>
</g>
<!-- Node18&#45;&gt;Node19 -->
<g id="edge20" class="edge">
<title>Node18&#45;&gt;Node19</title>
<path fill="none" stroke="midnightblue" d="M658.78,-75.46C666.38,-73.24 674.55,-70.95 682.17,-69 754.03,-50.58 773.45,-52 845.17,-33 849.27,-31.91 853.54,-30.71 857.78,-29.46"/>
<polygon fill="midnightblue" stroke="midnightblue" points="858.95,-32.76 867.52,-26.52 856.93,-26.06 858.95,-32.76"/>
</g>
<!-- Node20 -->
<g id="node20" class="node">
<title>Node20</title>
<g id="a_node20"><a xlink:title=" ">
<polygon fill="white" stroke="#bfbfbf" points="953.94,-0.5 953.94,-32.5 1064.4,-32.5 1064.4,-0.5 953.94,-0.5"/>
<text text-anchor="start" x="961.94" y="-19.5" font-family="Helvetica,sans-Serif" font-size="10.00">fisch/vx/word_access</text>
<text text-anchor="middle" x="1009.17" y="-7.5" font-family="Helvetica,sans-Serif" font-size="10.00">_type.h</text>
</a>
</g>
</g>
<!-- Node18&#45;&gt;Node20 -->
<g id="edge21" class="edge">
<title>Node18&#45;&gt;Node20</title>
<path fill="none" stroke="midnightblue" d="M657.3,-75.43C665.28,-73.09 674.01,-70.74 682.17,-69 794.39,-45.05 827.45,-54.36 943.73,-33.15"/>
<polygon fill="midnightblue" stroke="midnightblue" points="944.55,-36.56 953.74,-31.29 943.27,-29.68 944.55,-36.56"/>
</g>
<!-- Node21 -->
<g id="node21" class="node">
<title>Node21</title>
<g id="a_node21"><a xlink:title=" ">
<polygon fill="white" stroke="#bfbfbf" points="1082.77,-0.5 1082.77,-32.5 1181.57,-32.5 1181.57,-0.5 1082.77,-0.5"/>
<text text-anchor="start" x="1090.77" y="-19.5" font-family="Helvetica,sans-Serif" font-size="10.00">boost/utility/enable</text>
<text text-anchor="middle" x="1132.17" y="-7.5" font-family="Helvetica,sans-Serif" font-size="10.00">_if.hpp</text>
</a>
</g>
</g>
<!-- Node18&#45;&gt;Node21 -->
<g id="edge26" class="edge">
<title>Node18&#45;&gt;Node21</title>
<path fill="none" stroke="midnightblue" d="M656.43,-75.44C664.62,-73.01 673.69,-70.61 682.17,-69 850.42,-36.96 899.49,-62.3 1072.76,-32.85"/>
<polygon fill="midnightblue" stroke="midnightblue" points="1073.47,-36.28 1082.72,-31.12 1072.27,-29.38 1073.47,-36.28"/>
</g>
<!-- Node22 -->
<g id="node22" class="node">
<title>Node22</title>
<g id="a_node22"><a xlink:title=" ">
<polygon fill="white" stroke="#bfbfbf" points="1199.82,-6.5 1199.82,-26.5 1292.52,-26.5 1292.52,-6.5 1199.82,-6.5"/>
<text text-anchor="middle" x="1246.17" y="-13.5" font-family="Helvetica,sans-Serif" font-size="10.00">boost/variant.hpp</text>
</a>
</g>
</g>
<!-- Node18&#45;&gt;Node22 -->
<g id="edge27" class="edge">
<title>Node18&#45;&gt;Node22</title>
<path fill="none" stroke="midnightblue" d="M655.86,-75.49C664.2,-73 673.49,-70.56 682.17,-69 904.95,-29 967.1,-71.38 1190.17,-33 1195.96,-32 1202.02,-30.66 1207.93,-29.17"/>
<polygon fill="midnightblue" stroke="midnightblue" points="1208.88,-32.54 1217.64,-26.58 1207.08,-25.78 1208.88,-32.54"/>
</g>
<!-- Node23 -->
<g id="node23" class="node">
<title>Node23</title>
<g id="a_node23"><a xlink:title=" ">
<polygon fill="white" stroke="#bfbfbf" points="726.21,-6.5 726.21,-26.5 836.12,-26.5 836.12,-6.5 726.21,-6.5"/>
<text text-anchor="middle" x="781.17" y="-13.5" font-family="Helvetica,sans-Serif" font-size="10.00">fisch/vx/container.def</text>
</a>
</g>
</g>
<!-- Node18&#45;&gt;Node23 -->
<g id="edge28" class="edge">
<title>Node18&#45;&gt;Node23</title>
<path fill="none" stroke="midnightblue" d="M649.67,-75.46C675.84,-63.93 721.34,-43.87 751.35,-30.64"/>
<polygon fill="midnightblue" stroke="midnightblue" points="752.77,-33.84 760.51,-26.61 749.95,-27.44 752.77,-33.84"/>
</g>
</g>
</svg>
