<?xml version="1.0" encoding="UTF-8" standalone="no"?>
<!DOCTYPE svg PUBLIC "-//W3C//DTD SVG 1.1//EN"
 "http://www.w3.org/Graphics/SVG/1.1/DTD/svg11.dtd">
<!-- Generated by graphviz version 2.46.0 (0)
 -->
<!-- Title: /jenkins/jenlib_workspaces_f9/bld_nightly&#45;haldls.YmxkX25pZ2h0bHktaGFsZGxzIzEzNzk.x/haldls/include/haldls/vx/synapse_driver.h Pages: 1 -->
<!--zoomable 260 -->
<svg id="main" version="1.1" xmlns="http://www.w3.org/2000/svg" xmlns:xlink="http://www.w3.org/1999/xlink" xml:space="preserve" onload="init(evt)">
<style type="text/css"><![CDATA[
.edge:hover path { stroke: red; }
.edge:hover polygon { stroke: red; fill: red; }
]]></style>
<script type="text/javascript"><![CDATA[
var edges = document.getElementsByTagName('g');
if (edges && edges.length) {
  for (var i=0;i<edges.length;i++) {
    if (edges[i].id.substr(0,4)=='edge') {
      edges[i].setAttribute('class','edge');
    }
  }
}
]]></script>
        <defs>
                <circle id="rim" cx="0" cy="0" r="7"/>
                <circle id="rim2" cx="0" cy="0" r="3.5"/>
                <g id="zoomPlus">
                        <use xlink:href="#rim" fill="#404040">
                                <set attributeName="fill" to="#808080" begin="zoomplus.mouseover" end="zoomplus.mouseout"/>
                        </use>
                        <path d="M-4,0h8M0,-4v8" fill="none" stroke="white" stroke-width="1.5" pointer-events="none"/>
                </g>
                <g id="zoomMin">
                        <use xlink:href="#rim" fill="#404040">
                                <set attributeName="fill" to="#808080" begin="zoomminus.mouseover" end="zoomminus.mouseout"/>
                        </use>
                        <path d="M-4,0h8" fill="none" stroke="white" stroke-width="1.5" pointer-events="none"/>
                </g>
                <g id="dirArrow">
                        <path fill="none" stroke="white" stroke-width="1.5" d="M0,-3.0v7 M-2.5,-0.5L0,-3.0L2.5,-0.5"/>
                </g>
               <g id="resetDef">
                       <use xlink:href="#rim2" fill="#404040">
                               <set attributeName="fill" to="#808080" begin="reset.mouseover" end="reset.mouseout"/>
                       </use>
               </g>
        </defs>

<script type="text/javascript">
var viewWidth = 1346;
var viewHeight = 260;
var sectionId = 'dynsection-0';
</script>
<script xlink:href="svgpan.js"/>
<svg id="graph" class="graph">
<g id="viewport">
<title>/jenkins/jenlib_workspaces_f9/bld_nightly&#45;haldls.YmxkX25pZ2h0bHktaGFsZGxzIzEzNzk.x/haldls/include/haldls/vx/synapse_driver.h</title>
<polygon fill="white" stroke="transparent" points="-4,4 -4,-256 1342.46,-256 1342.46,4 -4,4"/>
<!-- Node1 -->
<g id="node1" class="node">
<title>Node1</title>
<g id="a_node1"><a xlink:title=" ">
<polygon fill="#bfbfbf" stroke="black" points="303.88,-195.5 303.88,-251.5 484.9,-251.5 484.9,-195.5 303.88,-195.5"/>
<text text-anchor="start" x="311.88" y="-238.5" font-family="Helvetica,sans-Serif" font-size="10.00">/jenkins/jenlib_workspaces</text>
<text text-anchor="start" x="311.88" y="-226.5" font-family="Helvetica,sans-Serif" font-size="10.00">_f9/bld_nightly&#45;haldls.YmxkX25p</text>
<text text-anchor="start" x="311.88" y="-214.5" font-family="Helvetica,sans-Serif" font-size="10.00">Z2h0bHktaGFsZGxzIzEzNzk.x/haldls</text>
<text text-anchor="middle" x="394.39" y="-202.5" font-family="Helvetica,sans-Serif" font-size="10.00">/include/haldls/vx/synapse_driver.h</text>
</a>
</g>
</g>
<!-- Node1&#45;&gt;Node1 -->
<g id="edge30" class="edge">
<title>Node1&#45;&gt;Node1</title>
<path fill="none" stroke="midnightblue" d="M485.02,-236.39C495.83,-234.05 502.9,-229.75 502.9,-223.5 502.9,-219.4 499.85,-216.14 494.71,-213.72"/>
<polygon fill="midnightblue" stroke="midnightblue" points="495.61,-210.33 485.02,-210.61 493.47,-217 495.61,-210.33"/>
</g>
<!-- Node2 -->
<g id="node2" class="node">
<title>Node2</title>
<g id="a_node2"><a xlink:title=" ">
<polygon fill="white" stroke="#bfbfbf" points="0,-132.5 0,-152.5 38.78,-152.5 38.78,-132.5 0,-132.5"/>
<text text-anchor="middle" x="19.39" y="-139.5" font-family="Helvetica,sans-Serif" font-size="10.00">array</text>
</a>
</g>
</g>
<!-- Node1&#45;&gt;Node2 -->
<g id="edge1" class="edge">
<title>Node1&#45;&gt;Node2</title>
<path fill="none" stroke="midnightblue" d="M303.54,-212.07C233.71,-202.52 135.46,-185.73 52.39,-159 50.23,-158.31 48.04,-157.5 45.85,-156.64"/>
<polygon fill="midnightblue" stroke="midnightblue" points="47.08,-153.36 36.52,-152.56 44.28,-159.77 47.08,-153.36"/>
</g>
<!-- Node3 -->
<g id="node3" class="node">
<title>Node3</title>
<g id="a_node3"><a xlink:title=" ">
<polygon fill="white" stroke="#bfbfbf" points="45.22,-6.5 45.22,-26.5 89.56,-26.5 89.56,-6.5 45.22,-6.5"/>
<text text-anchor="middle" x="67.39" y="-13.5" font-family="Helvetica,sans-Serif" font-size="10.00">iosfwd</text>
</a>
</g>
</g>
<!-- Node1&#45;&gt;Node3 -->
<g id="edge2" class="edge">
<title>Node1&#45;&gt;Node3</title>
<path fill="none" stroke="midnightblue" d="M303.84,-215.42C223.51,-207.17 114.52,-190.43 85.39,-159 54.34,-125.5 58.69,-66.82 63.54,-36.64"/>
<polygon fill="midnightblue" stroke="midnightblue" points="67.03,-37.04 65.36,-26.57 60.14,-35.79 67.03,-37.04"/>
</g>
<!-- Node4 -->
<g id="node4" class="node">
<title>Node4</title>
<g id="a_node4"><a xlink:title=" ">
<polygon fill="white" stroke="#bfbfbf" points="94.49,-132.5 94.49,-152.5 228.29,-152.5 228.29,-132.5 94.49,-132.5"/>
<text text-anchor="middle" x="161.39" y="-139.5" font-family="Helvetica,sans-Serif" font-size="10.00">halco/common/geometry.h</text>
</a>
</g>
</g>
<!-- Node1&#45;&gt;Node4 -->
<g id="edge3" class="edge">
<title>Node1&#45;&gt;Node4</title>
<path fill="none" stroke="midnightblue" d="M314.53,-195.42C274.83,-181.96 228.8,-166.36 197.65,-155.8"/>
<polygon fill="midnightblue" stroke="midnightblue" points="198.69,-152.45 188.09,-152.55 196.44,-159.08 198.69,-152.45"/>
</g>
<!-- Node5 -->
<g id="node5" class="node">
<title>Node5</title>
<g id="a_node5"><a xlink:title=" ">
<polygon fill="white" stroke="#bfbfbf" points="245.88,-126.5 245.88,-158.5 346.9,-158.5 346.9,-126.5 245.88,-126.5"/>
<text text-anchor="start" x="253.88" y="-145.5" font-family="Helvetica,sans-Serif" font-size="10.00">halco/hicann&#45;dls/vx</text>
<text text-anchor="middle" x="296.39" y="-133.5" font-family="Helvetica,sans-Serif" font-size="10.00">/synapse_driver.h</text>
</a>
</g>
</g>
<!-- Node1&#45;&gt;Node5 -->
<g id="edge4" class="edge">
<title>Node1&#45;&gt;Node5</title>
<path fill="none" stroke="midnightblue" d="M360.66,-195.31C348.37,-185.4 334.64,-174.34 323.05,-164.99"/>
<polygon fill="midnightblue" stroke="midnightblue" points="325.01,-162.08 315.03,-158.52 320.62,-167.53 325.01,-162.08"/>
</g>
<!-- Node6 -->
<g id="node6" class="node">
<title>Node6</title>
<g id="a_node6"><a xlink:href="genpybind_8h.html" target="_top" xlink:title=" ">
<polygon fill="white" stroke="black" points="1208.32,-6.5 1208.32,-26.5 1320.46,-26.5 1320.46,-6.5 1208.32,-6.5"/>
<text text-anchor="middle" x="1264.39" y="-13.5" font-family="Helvetica,sans-Serif" font-size="10.00">haldls/vx/genpybind.h</text>
</a>
</g>
</g>
<!-- Node1&#45;&gt;Node6 -->
<g id="edge5" class="edge">
<title>Node1&#45;&gt;Node6</title>
<path fill="none" stroke="midnightblue" d="M484.95,-201.27C633.97,-166.32 940.23,-94.4 1199.39,-33 1205.03,-31.66 1210.94,-30.26 1216.81,-28.86"/>
<polygon fill="midnightblue" stroke="midnightblue" points="1217.67,-32.26 1226.58,-26.53 1216.05,-25.45 1217.67,-32.26"/>
</g>
<!-- Node7 -->
<g id="node7" class="node">
<title>Node7</title>
<g id="a_node7"><a xlink:href="sram__controller_8h.html" target="_top" xlink:title=" ">
<polygon fill="white" stroke="black" points="444.94,-132.5 444.94,-152.5 579.84,-152.5 579.84,-132.5 444.94,-132.5"/>
<text text-anchor="middle" x="512.39" y="-139.5" font-family="Helvetica,sans-Serif" font-size="10.00">haldls/vx/sram_controller.h</text>
</a>
</g>
</g>
<!-- Node1&#45;&gt;Node7 -->
<g id="edge7" class="edge">
<title>Node1&#45;&gt;Node7</title>
<path fill="none" stroke="midnightblue" d="M435,-195.31C453.61,-182.85 474.94,-168.57 490.48,-158.17"/>
<polygon fill="midnightblue" stroke="midnightblue" points="492.54,-161 498.9,-152.53 488.65,-155.18 492.54,-161"/>
</g>
<!-- Node8 -->
<g id="node8" class="node">
<title>Node8</title>
<g id="a_node8"><a xlink:href="cerealization_8h.html" target="_top" xlink:title=" ">
<polygon fill="white" stroke="black" points="274.71,-69.5 274.71,-89.5 384.06,-89.5 384.06,-69.5 274.71,-69.5"/>
<text text-anchor="middle" x="329.39" y="-76.5" font-family="Helvetica,sans-Serif" font-size="10.00">haldls/cerealization.h</text>
</a>
</g>
</g>
<!-- Node1&#45;&gt;Node8 -->
<g id="edge33" class="edge">
<title>Node1&#45;&gt;Node8</title>
<path fill="none" stroke="midnightblue" d="M385.03,-195.38C377.95,-175.76 367.55,-148.8 356.39,-126 351.8,-116.63 345.97,-106.62 340.9,-98.38"/>
<polygon fill="midnightblue" stroke="midnightblue" points="343.71,-96.27 335.42,-89.67 337.78,-100 343.71,-96.27"/>
</g>
<!-- Node10 -->
<g id="node10" class="node">
<title>Node10</title>
<g id="a_node10"><a xlink:title=" ">
<polygon fill="white" stroke="#bfbfbf" points="388.89,-6.5 388.89,-26.5 469.89,-26.5 469.89,-6.5 388.89,-6.5"/>
<text text-anchor="middle" x="429.39" y="-13.5" font-family="Helvetica,sans-Serif" font-size="10.00">hate/visibility.h</text>
</a>
</g>
</g>
<!-- Node1&#45;&gt;Node10 -->
<g id="edge32" class="edge">
<title>Node1&#45;&gt;Node10</title>
<path fill="none" stroke="midnightblue" d="M399.04,-195.28C406.22,-153.21 419.83,-73.46 426.09,-36.8"/>
<polygon fill="midnightblue" stroke="midnightblue" points="429.61,-36.97 427.85,-26.52 422.71,-35.79 429.61,-36.97"/>
</g>
<!-- Node16 -->
<g id="node16" class="node">
<title>Node16</title>
<g id="a_node16"><a xlink:href="traits_8h.html" target="_top" xlink:title=" ">
<polygon fill="white" stroke="black" points="687.55,-69.5 687.55,-89.5 775.23,-89.5 775.23,-69.5 687.55,-69.5"/>
<text text-anchor="middle" x="731.39" y="-76.5" font-family="Helvetica,sans-Serif" font-size="10.00">haldls/vx/traits.h</text>
</a>
</g>
</g>
<!-- Node1&#45;&gt;Node16 -->
<g id="edge31" class="edge">
<title>Node1&#45;&gt;Node16</title>
<path fill="none" stroke="midnightblue" d="M485.02,-196.67C518.06,-186.26 555.39,-173.31 588.39,-159 632.28,-139.97 680.5,-111.88 708.23,-94.97"/>
<polygon fill="midnightblue" stroke="midnightblue" points="710.13,-97.91 716.82,-89.69 706.47,-91.95 710.13,-97.91"/>
</g>
<!-- Node23 -->
<g id="node23" class="node">
<title>Node23</title>
<g id="a_node23"><a xlink:title=" ">
<polygon fill="white" stroke="#bfbfbf" points="869.77,-132.5 869.77,-152.5 973.01,-152.5 973.01,-132.5 869.77,-132.5"/>
<text text-anchor="middle" x="921.39" y="-139.5" font-family="Helvetica,sans-Serif" font-size="10.00">hxcomm/vx/target.h</text>
</a>
</g>
</g>
<!-- Node1&#45;&gt;Node23 -->
<g id="edge34" class="edge">
<title>Node1&#45;&gt;Node23</title>
<path fill="none" stroke="midnightblue" d="M485.33,-212.53C578.6,-201.7 727.7,-182.73 855.39,-159 862,-157.77 868.94,-156.32 875.74,-154.81"/>
<polygon fill="midnightblue" stroke="midnightblue" points="876.58,-158.2 885.55,-152.56 875.02,-151.38 876.58,-158.2"/>
</g>
<!-- Node6&#45;&gt;Node6 -->
<g id="edge6" class="edge">
<title>Node6&#45;&gt;Node6</title>
<path fill="none" stroke="midnightblue" d="M1292.89,-26.56C1315.38,-30.45 1338.46,-27.1 1338.46,-16.5 1338.46,-7.48 1321.73,-3.71 1302.87,-5.19"/>
<polygon fill="midnightblue" stroke="midnightblue" points="1302.38,-1.72 1292.89,-6.44 1303.25,-8.67 1302.38,-1.72"/>
</g>
<!-- Node7&#45;&gt;Node6 -->
<g id="edge17" class="edge">
<title>Node7&#45;&gt;Node6</title>
<path fill="none" stroke="midnightblue" d="M579.88,-133.82C635.71,-126.27 716.54,-112.54 784.39,-90 804.57,-83.3 806.92,-74.78 827.39,-69 987.23,-23.83 1035.55,-60.33 1199.39,-33 1206.23,-31.86 1213.42,-30.4 1220.43,-28.85"/>
<polygon fill="midnightblue" stroke="midnightblue" points="1221.54,-32.18 1230.5,-26.51 1219.96,-25.36 1221.54,-32.18"/>
</g>
<!-- Node7&#45;&gt;Node8 -->
<g id="edge8" class="edge">
<title>Node7&#45;&gt;Node8</title>
<path fill="none" stroke="midnightblue" d="M485.39,-132.5C453.9,-122 401.67,-104.59 366.41,-92.84"/>
<polygon fill="midnightblue" stroke="midnightblue" points="367.09,-89.38 356.5,-89.54 364.88,-96.02 367.09,-89.38"/>
</g>
<!-- Node7&#45;&gt;Node10 -->
<g id="edge29" class="edge">
<title>Node7&#45;&gt;Node10</title>
<path fill="none" stroke="midnightblue" d="M503.9,-132.44C494.79,-122.47 480.17,-105.77 469.39,-90 457.39,-72.45 445.9,-50.99 438.34,-35.98"/>
<polygon fill="midnightblue" stroke="midnightblue" points="441.35,-34.17 433.78,-26.76 435.08,-37.27 441.35,-34.17"/>
</g>
<!-- Node13 -->
<g id="node13" class="node">
<title>Node13</title>
<g id="a_node13"><a xlink:href="common_8h.html" target="_top" xlink:title=" ">
<polygon fill="white" stroke="black" points="565.22,-69.5 565.22,-89.5 669.56,-89.5 669.56,-69.5 565.22,-69.5"/>
<text text-anchor="middle" x="617.39" y="-76.5" font-family="Helvetica,sans-Serif" font-size="10.00">haldls/vx/common.h</text>
</a>
</g>
</g>
<!-- Node7&#45;&gt;Node13 -->
<g id="edge14" class="edge">
<title>Node7&#45;&gt;Node13</title>
<path fill="none" stroke="midnightblue" d="M527.88,-132.5C545.02,-122.54 572.86,-106.37 592.95,-94.7"/>
<polygon fill="midnightblue" stroke="midnightblue" points="594.94,-97.59 601.83,-89.54 591.43,-91.53 594.94,-97.59"/>
</g>
<!-- Node7&#45;&gt;Node16 -->
<g id="edge18" class="edge">
<title>Node7&#45;&gt;Node16</title>
<path fill="none" stroke="midnightblue" d="M544.7,-132.5C583.03,-121.82 647.04,-103.99 689.24,-92.24"/>
<polygon fill="midnightblue" stroke="midnightblue" points="690.25,-95.59 698.94,-89.54 688.37,-88.85 690.25,-95.59"/>
</g>
<!-- Node22 -->
<g id="node22" class="node">
<title>Node22</title>
<g id="a_node22"><a xlink:title=" ">
<polygon fill="white" stroke="#bfbfbf" points="477.99,-69.5 477.99,-89.5 546.79,-89.5 546.79,-69.5 477.99,-69.5"/>
<text text-anchor="middle" x="512.39" y="-76.5" font-family="Helvetica,sans-Serif" font-size="10.00">hate/math.h</text>
</a>
</g>
</g>
<!-- Node7&#45;&gt;Node22 -->
<g id="edge28" class="edge">
<title>Node7&#45;&gt;Node22</title>
<path fill="none" stroke="midnightblue" d="M512.39,-132.5C512.39,-123.94 512.39,-110.78 512.39,-99.85"/>
<polygon fill="midnightblue" stroke="midnightblue" points="515.89,-99.54 512.39,-89.54 508.89,-99.54 515.89,-99.54"/>
</g>
<!-- Node8&#45;&gt;Node3 -->
<g id="edge12" class="edge">
<title>Node8&#45;&gt;Node3</title>
<path fill="none" stroke="midnightblue" d="M274.46,-71.67C227.22,-64.84 157.67,-52.52 99.39,-33 97.46,-32.35 95.49,-31.62 93.53,-30.82"/>
<polygon fill="midnightblue" stroke="midnightblue" points="94.55,-27.44 83.99,-26.54 91.68,-33.82 94.55,-27.44"/>
</g>
<!-- Node9 -->
<g id="node9" class="node">
<title>Node9</title>
<g id="a_node9"><a xlink:title=" ">
<polygon fill="white" stroke="#bfbfbf" points="287.77,-6.5 287.77,-26.5 371.01,-26.5 371.01,-6.5 287.77,-6.5"/>
<text text-anchor="middle" x="329.39" y="-13.5" font-family="Helvetica,sans-Serif" font-size="10.00">hate/type_list.h</text>
</a>
</g>
</g>
<!-- Node8&#45;&gt;Node9 -->
<g id="edge9" class="edge">
<title>Node8&#45;&gt;Node9</title>
<path fill="none" stroke="midnightblue" d="M329.39,-69.5C329.39,-60.94 329.39,-47.78 329.39,-36.85"/>
<polygon fill="midnightblue" stroke="midnightblue" points="332.89,-36.54 329.39,-26.54 325.89,-36.54 332.89,-36.54"/>
</g>
<!-- Node8&#45;&gt;Node10 -->
<g id="edge10" class="edge">
<title>Node8&#45;&gt;Node10</title>
<path fill="none" stroke="midnightblue" d="M344.14,-69.5C360.39,-59.59 386.74,-43.51 405.85,-31.86"/>
<polygon fill="midnightblue" stroke="midnightblue" points="407.86,-34.73 414.57,-26.54 404.21,-28.76 407.86,-34.73"/>
</g>
<!-- Node11 -->
<g id="node11" class="node">
<title>Node11</title>
<g id="a_node11"><a xlink:title=" ">
<polygon fill="white" stroke="#bfbfbf" points="107.94,-6.5 107.94,-26.5 152.84,-26.5 152.84,-6.5 107.94,-6.5"/>
<text text-anchor="middle" x="130.39" y="-13.5" font-family="Helvetica,sans-Serif" font-size="10.00">cstdint</text>
</a>
</g>
</g>
<!-- Node8&#45;&gt;Node11 -->
<g id="edge11" class="edge">
<title>Node8&#45;&gt;Node11</title>
<path fill="none" stroke="midnightblue" d="M287.88,-69.45C253.68,-61.46 204.17,-48.66 162.39,-33 160.57,-32.32 158.71,-31.57 156.85,-30.78"/>
<polygon fill="midnightblue" stroke="midnightblue" points="158.29,-27.59 147.74,-26.62 155.39,-33.96 158.29,-27.59"/>
</g>
<!-- Node12 -->
<g id="node12" class="node">
<title>Node12</title>
<g id="a_node12"><a xlink:title=" ">
<polygon fill="white" stroke="#bfbfbf" points="171.27,-6.5 171.27,-26.5 269.51,-26.5 269.51,-6.5 171.27,-6.5"/>
<text text-anchor="middle" x="220.39" y="-13.5" font-family="Helvetica,sans-Serif" font-size="10.00">cereal/macros.hpp</text>
</a>
</g>
</g>
<!-- Node8&#45;&gt;Node12 -->
<g id="edge13" class="edge">
<title>Node8&#45;&gt;Node12</title>
<path fill="none" stroke="midnightblue" d="M313.3,-69.5C295.43,-59.5 266.35,-43.22 245.48,-31.54"/>
<polygon fill="midnightblue" stroke="midnightblue" points="246.97,-28.37 236.54,-26.54 243.55,-34.48 246.97,-28.37"/>
</g>
<!-- Node14 -->
<g id="node14" class="node">
<title>Node14</title>
<g id="a_node14"><a xlink:title=" ">
<polygon fill="white" stroke="#bfbfbf" points="544.33,-6.5 544.33,-26.5 606.45,-26.5 606.45,-6.5 544.33,-6.5"/>
<text text-anchor="middle" x="575.39" y="-13.5" font-family="Helvetica,sans-Serif" font-size="10.00">type_traits</text>
</a>
</g>
</g>
<!-- Node13&#45;&gt;Node14 -->
<g id="edge15" class="edge">
<title>Node13&#45;&gt;Node14</title>
<path fill="none" stroke="midnightblue" d="M611.19,-69.5C604.92,-60.4 595.08,-46.1 587.3,-34.8"/>
<polygon fill="midnightblue" stroke="midnightblue" points="590.16,-32.79 581.61,-26.54 584.4,-36.76 590.16,-32.79"/>
</g>
<!-- Node15 -->
<g id="node15" class="node">
<title>Node15</title>
<g id="a_node15"><a xlink:title=" ">
<polygon fill="white" stroke="#bfbfbf" points="488,-6.5 488,-26.5 526.78,-26.5 526.78,-6.5 488,-6.5"/>
<text text-anchor="middle" x="507.39" y="-13.5" font-family="Helvetica,sans-Serif" font-size="10.00">utility</text>
</a>
</g>
</g>
<!-- Node13&#45;&gt;Node15 -->
<g id="edge16" class="edge">
<title>Node13&#45;&gt;Node15</title>
<path fill="none" stroke="midnightblue" d="M601.16,-69.5C583.12,-59.5 553.77,-43.22 532.71,-31.54"/>
<polygon fill="midnightblue" stroke="midnightblue" points="534.13,-28.33 523.69,-26.54 530.73,-34.45 534.13,-28.33"/>
</g>
<!-- Node16&#45;&gt;Node6 -->
<g id="edge21" class="edge">
<title>Node16&#45;&gt;Node6</title>
<path fill="none" stroke="midnightblue" d="M775.36,-70.94C780.09,-70.24 784.83,-69.57 789.39,-69 970.88,-46.2 1018.83,-62.29 1199.39,-33 1206.24,-31.89 1213.43,-30.45 1220.44,-28.9"/>
<polygon fill="midnightblue" stroke="midnightblue" points="1221.55,-32.24 1230.51,-26.57 1219.97,-25.42 1221.55,-32.24"/>
</g>
<!-- Node16&#45;&gt;Node9 -->
<g id="edge22" class="edge">
<title>Node16&#45;&gt;Node9</title>
<path fill="none" stroke="midnightblue" d="M687.46,-70.43C684.39,-69.92 681.35,-69.44 678.39,-69 546.01,-49.18 510.29,-60.93 379.39,-33 374.69,-32 369.8,-30.75 365,-29.4"/>
<polygon fill="midnightblue" stroke="midnightblue" points="365.94,-26.03 355.36,-26.53 363.95,-32.74 365.94,-26.03"/>
</g>
<!-- Node16&#45;&gt;Node10 -->
<g id="edge23" class="edge">
<title>Node16&#45;&gt;Node10</title>
<path fill="none" stroke="midnightblue" d="M687.46,-70.6C615.93,-57.74 481.92,-33.62 479.39,-33 475.05,-31.94 470.53,-30.72 466.07,-29.43"/>
<polygon fill="midnightblue" stroke="midnightblue" points="467.05,-26.07 456.47,-26.55 465.04,-32.78 467.05,-26.07"/>
</g>
<!-- Node16&#45;&gt;Node14 -->
<g id="edge24" class="edge">
<title>Node16&#45;&gt;Node14</title>
<path fill="none" stroke="midnightblue" d="M708.37,-69.5C681.87,-59.14 638.15,-42.04 608.12,-30.3"/>
<polygon fill="midnightblue" stroke="midnightblue" points="609.09,-26.92 598.5,-26.54 606.54,-33.44 609.09,-26.92"/>
</g>
<!-- Node17 -->
<g id="node17" class="node">
<title>Node17</title>
<g id="a_node17"><a xlink:title=" ">
<polygon fill="white" stroke="#bfbfbf" points="752.33,-6.5 752.33,-26.5 834.45,-26.5 834.45,-6.5 752.33,-6.5"/>
<text text-anchor="middle" x="793.39" y="-13.5" font-family="Helvetica,sans-Serif" font-size="10.00">fisch/vx/traits.h</text>
</a>
</g>
</g>
<!-- Node16&#45;&gt;Node17 -->
<g id="edge19" class="edge">
<title>Node16&#45;&gt;Node17</title>
<path fill="none" stroke="midnightblue" d="M740.54,-69.5C750.06,-60.13 765.18,-45.25 776.82,-33.8"/>
<polygon fill="midnightblue" stroke="midnightblue" points="779.53,-36.05 784.2,-26.54 774.62,-31.06 779.53,-36.05"/>
</g>
<!-- Node18 -->
<g id="node18" class="node">
<title>Node18</title>
<g id="a_node18"><a xlink:title=" ">
<polygon fill="white" stroke="#bfbfbf" points="852.16,-0.5 852.16,-32.5 962.62,-32.5 962.62,-0.5 852.16,-0.5"/>
<text text-anchor="start" x="860.16" y="-19.5" font-family="Helvetica,sans-Serif" font-size="10.00">fisch/vx/word_access</text>
<text text-anchor="middle" x="907.39" y="-7.5" font-family="Helvetica,sans-Serif" font-size="10.00">_type.h</text>
</a>
</g>
</g>
<!-- Node16&#45;&gt;Node18 -->
<g id="edge20" class="edge">
<title>Node16&#45;&gt;Node18</title>
<path fill="none" stroke="midnightblue" d="M757.36,-69.5C782.75,-60.7 822.15,-47.04 854.21,-35.93"/>
<polygon fill="midnightblue" stroke="midnightblue" points="855.6,-39.15 863.9,-32.57 853.31,-32.54 855.6,-39.15"/>
</g>
<!-- Node19 -->
<g id="node19" class="node">
<title>Node19</title>
<g id="a_node19"><a xlink:title=" ">
<polygon fill="white" stroke="#bfbfbf" points="980.99,-0.5 980.99,-32.5 1079.79,-32.5 1079.79,-0.5 980.99,-0.5"/>
<text text-anchor="start" x="988.99" y="-19.5" font-family="Helvetica,sans-Serif" font-size="10.00">boost/utility/enable</text>
<text text-anchor="middle" x="1030.39" y="-7.5" font-family="Helvetica,sans-Serif" font-size="10.00">_if.hpp</text>
</a>
</g>
</g>
<!-- Node16&#45;&gt;Node19 -->
<g id="edge25" class="edge">
<title>Node16&#45;&gt;Node19</title>
<path fill="none" stroke="midnightblue" d="M775.37,-71.11C821.57,-63.13 896.55,-49.6 970.87,-33.02"/>
<polygon fill="midnightblue" stroke="midnightblue" points="971.89,-36.38 980.87,-30.77 970.35,-29.55 971.89,-36.38"/>
</g>
<!-- Node20 -->
<g id="node20" class="node">
<title>Node20</title>
<g id="a_node20"><a xlink:title=" ">
<polygon fill="white" stroke="#bfbfbf" points="1098.04,-6.5 1098.04,-26.5 1190.74,-26.5 1190.74,-6.5 1098.04,-6.5"/>
<text text-anchor="middle" x="1144.39" y="-13.5" font-family="Helvetica,sans-Serif" font-size="10.00">boost/variant.hpp</text>
</a>
</g>
</g>
<!-- Node16&#45;&gt;Node20 -->
<g id="edge26" class="edge">
<title>Node16&#45;&gt;Node20</title>
<path fill="none" stroke="midnightblue" d="M775.38,-71.09C780.1,-70.36 784.84,-69.65 789.39,-69 921.91,-50.18 957.07,-58.93 1088.39,-33 1093.83,-31.93 1099.52,-30.6 1105.1,-29.17"/>
<polygon fill="midnightblue" stroke="midnightblue" points="1106.18,-32.51 1114.94,-26.54 1104.38,-25.74 1106.18,-32.51"/>
</g>
<!-- Node21 -->
<g id="node21" class="node">
<title>Node21</title>
<g id="a_node21"><a xlink:title=" ">
<polygon fill="white" stroke="#bfbfbf" points="624.43,-6.5 624.43,-26.5 734.34,-26.5 734.34,-6.5 624.43,-6.5"/>
<text text-anchor="middle" x="679.39" y="-13.5" font-family="Helvetica,sans-Serif" font-size="10.00">fisch/vx/container.def</text>
</a>
</g>
</g>
<!-- Node16&#45;&gt;Node21 -->
<g id="edge27" class="edge">
<title>Node16&#45;&gt;Node21</title>
<path fill="none" stroke="midnightblue" d="M723.72,-69.5C715.88,-60.31 703.53,-45.82 693.85,-34.47"/>
<polygon fill="midnightblue" stroke="midnightblue" points="696.24,-31.88 687.09,-26.54 690.92,-36.42 696.24,-31.88"/>
</g>
</g>
</svg>
        <g id="navigator" transform="translate(0 0)" fill="#404254">
                <rect fill="#f2f5e9" fill-opacity="0.5" stroke="#606060" stroke-width=".5" x="0" y="0" width="60" height="60"/>
                <use id="zoomplus" xlink:href="#zoomPlus" x="17" y="9" onmousedown="handleZoom(evt,'in')"/>
                <use id="zoomminus" xlink:href="#zoomMin" x="42" y="9" onmousedown="handleZoom(evt,'out')"/>
                <use id="reset" xlink:href="#resetDef" x="30" y="36" onmousedown="handleReset()"/>
                <g id="arrowUp" xlink:href="#dirArrow" transform="translate(30 24)" onmousedown="handlePan(0,-1)">
                  <use xlink:href="#rim" fill="#404040">
                        <set attributeName="fill" to="#808080" begin="arrowUp.mouseover" end="arrowUp.mouseout"/>
                  </use>
                  <path fill="none" stroke="white" stroke-width="1.5" d="M0,-3.0v7 M-2.5,-0.5L0,-3.0L2.5,-0.5"/>
                </g>
                <g id="arrowRight" xlink:href="#dirArrow" transform="rotate(90) translate(36 -43)" onmousedown="handlePan(1,0)">
                  <use xlink:href="#rim" fill="#404040">
                        <set attributeName="fill" to="#808080" begin="arrowRight.mouseover" end="arrowRight.mouseout"/>
                  </use>
                  <path fill="none" stroke="white" stroke-width="1.5" d="M0,-3.0v7 M-2.5,-0.5L0,-3.0L2.5,-0.5"/>
                </g>
                <g id="arrowDown" xlink:href="#dirArrow" transform="rotate(180) translate(-30 -48)" onmousedown="handlePan(0,1)">
                  <use xlink:href="#rim" fill="#404040">
                        <set attributeName="fill" to="#808080" begin="arrowDown.mouseover" end="arrowDown.mouseout"/>
                  </use>
                  <path fill="none" stroke="white" stroke-width="1.5" d="M0,-3.0v7 M-2.5,-0.5L0,-3.0L2.5,-0.5"/>
                </g>
                <g id="arrowLeft" xlink:href="#dirArrow" transform="rotate(270) translate(-36 17)" onmousedown="handlePan(-1,0)">
                  <use xlink:href="#rim" fill="#404040">
                        <set attributeName="fill" to="#808080" begin="arrowLeft.mouseover" end="arrowLeft.mouseout"/>
                  </use>
                  <path fill="none" stroke="white" stroke-width="1.5" d="M0,-3.0v7 M-2.5,-0.5L0,-3.0L2.5,-0.5"/>
                </g>
        </g>
        <svg viewBox="0 0 15 15" width="100%" height="30px" preserveAspectRatio="xMaxYMin meet">
         <g id="arrow_out" transform="scale(0.3 0.3)">
          <a xlink:href="synapse__driver_8h__incl_org.svg" target="_base">
           <rect id="button" ry="5" rx="5" y="6" x="6" height="38" width="38"
                fill="#f2f5e9" fill-opacity="0.5" stroke="#606060" stroke-width="1.0"/>
           <path id="arrow"
             d="M 11.500037,31.436501 C 11.940474,20.09759 22.043105,11.32322 32.158766,21.979434 L 37.068811,17.246167 C 37.068811,17.246167 37.088388,32 37.088388,32 L 22.160133,31.978069 C 22.160133,31.978069 26.997745,27.140456 26.997745,27.140456 C 18.528582,18.264221 13.291696,25.230495 11.500037,31.436501 z"
             style="fill:#404040;"/>
          </a>
         </g>
        </svg>
</svg>
