<?xml version="1.0" encoding="UTF-8" standalone="no"?>
<!DOCTYPE svg PUBLIC "-//W3C//DTD SVG 1.1//EN"
 "http://www.w3.org/Graphics/SVG/1.1/DTD/svg11.dtd">
<!-- Generated by graphviz version 2.46.0 (0)
 -->
<!-- Title: /jenkins/jenlib_workspaces_f9/bld_nightly&#45;haldls.YmxkX25pZ2h0bHktaGFsZGxzIzEzNzk.x/haldls/include/haldls/vx/traits.h Pages: 1 -->
<svg width="1002pt" height="134pt"
 viewBox="0.00 0.00 1002.02 134.00" xmlns="http://www.w3.org/2000/svg" xmlns:xlink="http://www.w3.org/1999/xlink">
<g id="graph0" class="graph" transform="scale(1 1) rotate(0) translate(4 130)">
<title>/jenkins/jenlib_workspaces_f9/bld_nightly&#45;haldls.YmxkX25pZ2h0bHktaGFsZGxzIzEzNzk.x/haldls/include/haldls/vx/traits.h</title>
<polygon fill="white" stroke="transparent" points="-4,4 -4,-130 998.02,-130 998.02,4 -4,4"/>
<!-- Node1 -->
<g id="node1" class="node">
<title>Node1</title>
<g id="a_node1"><a xlink:title=" ">
<polygon fill="#bfbfbf" stroke="black" points="427.55,-69.5 427.55,-125.5 608.57,-125.5 608.57,-69.5 427.55,-69.5"/>
<text text-anchor="start" x="435.55" y="-112.5" font-family="Helvetica,sans-Serif" font-size="10.00">/jenkins/jenlib_workspaces</text>
<text text-anchor="start" x="435.55" y="-100.5" font-family="Helvetica,sans-Serif" font-size="10.00">_f9/bld_nightly&#45;haldls.YmxkX25p</text>
<text text-anchor="start" x="435.55" y="-88.5" font-family="Helvetica,sans-Serif" font-size="10.00">Z2h0bHktaGFsZGxzIzEzNzk.x/haldls</text>
<text text-anchor="middle" x="518.06" y="-76.5" font-family="Helvetica,sans-Serif" font-size="10.00">/include/haldls/vx/traits.h</text>
</a>
</g>
</g>
<!-- Node2 -->
<g id="node2" class="node">
<title>Node2</title>
<g id="a_node2"><a xlink:title=" ">
<polygon fill="white" stroke="#bfbfbf" points="0,-6.5 0,-26.5 82.12,-26.5 82.12,-6.5 0,-6.5"/>
<text text-anchor="middle" x="41.06" y="-13.5" font-family="Helvetica,sans-Serif" font-size="10.00">fisch/vx/traits.h</text>
</a>
</g>
</g>
<!-- Node1&#45;&gt;Node2 -->
<g id="edge1" class="edge">
<title>Node1&#45;&gt;Node2</title>
<path fill="none" stroke="midnightblue" d="M427.35,-87.09C340.39,-77.11 205.78,-59.15 91.06,-33 86.6,-31.98 81.97,-30.77 77.39,-29.47"/>
<polygon fill="midnightblue" stroke="midnightblue" points="78.16,-26.05 67.58,-26.55 76.17,-32.76 78.16,-26.05"/>
</g>
<!-- Node3 -->
<g id="node3" class="node">
<title>Node3</title>
<g id="a_node3"><a xlink:title=" ">
<polygon fill="white" stroke="#bfbfbf" points="99.83,-0.5 99.83,-32.5 210.29,-32.5 210.29,-0.5 99.83,-0.5"/>
<text text-anchor="start" x="107.83" y="-19.5" font-family="Helvetica,sans-Serif" font-size="10.00">fisch/vx/word_access</text>
<text text-anchor="middle" x="155.06" y="-7.5" font-family="Helvetica,sans-Serif" font-size="10.00">_type.h</text>
</a>
</g>
</g>
<!-- Node1&#45;&gt;Node3 -->
<g id="edge2" class="edge">
<title>Node1&#45;&gt;Node3</title>
<path fill="none" stroke="midnightblue" d="M427.3,-77.92C370.5,-66.13 295.56,-50.28 220.63,-33.33"/>
<polygon fill="midnightblue" stroke="midnightblue" points="221.07,-29.84 210.54,-31.04 219.52,-36.66 221.07,-29.84"/>
</g>
<!-- Node4 -->
<g id="node4" class="node">
<title>Node4</title>
<g id="a_node4"><a xlink:href="genpybind_8h.html" target="_top" xlink:title=" ">
<polygon fill="white" stroke="black" points="227.99,-6.5 227.99,-26.5 340.13,-26.5 340.13,-6.5 227.99,-6.5"/>
<text text-anchor="middle" x="284.06" y="-13.5" font-family="Helvetica,sans-Serif" font-size="10.00">haldls/vx/genpybind.h</text>
</a>
</g>
</g>
<!-- Node1&#45;&gt;Node4 -->
<g id="edge3" class="edge">
<title>Node1&#45;&gt;Node4</title>
<path fill="none" stroke="midnightblue" d="M437.86,-69.42C397.98,-55.96 351.76,-40.36 320.48,-29.8"/>
<polygon fill="midnightblue" stroke="midnightblue" points="321.47,-26.44 310.88,-26.55 319.23,-33.07 321.47,-26.44"/>
</g>
<!-- Node5 -->
<g id="node5" class="node">
<title>Node5</title>
<g id="a_node5"><a xlink:title=" ">
<polygon fill="white" stroke="#bfbfbf" points="376.44,-6.5 376.44,-26.5 459.68,-26.5 459.68,-6.5 376.44,-6.5"/>
<text text-anchor="middle" x="418.06" y="-13.5" font-family="Helvetica,sans-Serif" font-size="10.00">hate/type_list.h</text>
</a>
</g>
</g>
<!-- Node1&#45;&gt;Node5 -->
<g id="edge5" class="edge">
<title>Node1&#45;&gt;Node5</title>
<path fill="none" stroke="midnightblue" d="M483.64,-69.31C468.26,-57.16 450.68,-43.27 437.6,-32.94"/>
<polygon fill="midnightblue" stroke="midnightblue" points="439.74,-30.17 429.72,-26.71 435.4,-35.66 439.74,-30.17"/>
</g>
<!-- Node6 -->
<g id="node6" class="node">
<title>Node6</title>
<g id="a_node6"><a xlink:title=" ">
<polygon fill="white" stroke="#bfbfbf" points="477.56,-6.5 477.56,-26.5 558.56,-26.5 558.56,-6.5 477.56,-6.5"/>
<text text-anchor="middle" x="518.06" y="-13.5" font-family="Helvetica,sans-Serif" font-size="10.00">hate/visibility.h</text>
</a>
</g>
</g>
<!-- Node1&#45;&gt;Node6 -->
<g id="edge6" class="edge">
<title>Node1&#45;&gt;Node6</title>
<path fill="none" stroke="midnightblue" d="M518.06,-69.31C518.06,-58.66 518.06,-46.68 518.06,-36.93"/>
<polygon fill="midnightblue" stroke="midnightblue" points="521.56,-36.71 518.06,-26.71 514.56,-36.71 521.56,-36.71"/>
</g>
<!-- Node7 -->
<g id="node7" class="node">
<title>Node7</title>
<g id="a_node7"><a xlink:title=" ">
<polygon fill="white" stroke="#bfbfbf" points="577,-6.5 577,-26.5 639.12,-26.5 639.12,-6.5 577,-6.5"/>
<text text-anchor="middle" x="608.06" y="-13.5" font-family="Helvetica,sans-Serif" font-size="10.00">type_traits</text>
</a>
</g>
</g>
<!-- Node1&#45;&gt;Node7 -->
<g id="edge7" class="edge">
<title>Node1&#45;&gt;Node7</title>
<path fill="none" stroke="midnightblue" d="M549.03,-69.31C562.62,-57.39 578.1,-43.8 589.79,-33.53"/>
<polygon fill="midnightblue" stroke="midnightblue" points="592.35,-35.94 597.56,-26.71 587.74,-30.68 592.35,-35.94"/>
</g>
<!-- Node8 -->
<g id="node8" class="node">
<title>Node8</title>
<g id="a_node8"><a xlink:title=" ">
<polygon fill="white" stroke="#bfbfbf" points="656.66,-0.5 656.66,-32.5 755.46,-32.5 755.46,-0.5 656.66,-0.5"/>
<text text-anchor="start" x="664.66" y="-19.5" font-family="Helvetica,sans-Serif" font-size="10.00">boost/utility/enable</text>
<text text-anchor="middle" x="706.06" y="-7.5" font-family="Helvetica,sans-Serif" font-size="10.00">_if.hpp</text>
</a>
</g>
</g>
<!-- Node1&#45;&gt;Node8 -->
<g id="edge8" class="edge">
<title>Node1&#45;&gt;Node8</title>
<path fill="none" stroke="midnightblue" d="M582.49,-69.42C608.28,-58.59 637.37,-46.36 660.84,-36.5"/>
<polygon fill="midnightblue" stroke="midnightblue" points="662.34,-39.67 670.2,-32.57 659.63,-33.22 662.34,-39.67"/>
</g>
<!-- Node9 -->
<g id="node9" class="node">
<title>Node9</title>
<g id="a_node9"><a xlink:title=" ">
<polygon fill="white" stroke="#bfbfbf" points="773.71,-6.5 773.71,-26.5 866.41,-26.5 866.41,-6.5 773.71,-6.5"/>
<text text-anchor="middle" x="820.06" y="-13.5" font-family="Helvetica,sans-Serif" font-size="10.00">boost/variant.hpp</text>
</a>
</g>
</g>
<!-- Node1&#45;&gt;Node9 -->
<g id="edge9" class="edge">
<title>Node1&#45;&gt;Node9</title>
<path fill="none" stroke="midnightblue" d="M608.7,-73.5C655.2,-61.61 712.71,-46.73 764.06,-33 768.63,-31.78 773.41,-30.48 778.16,-29.18"/>
<polygon fill="midnightblue" stroke="midnightblue" points="779.09,-32.56 787.81,-26.53 777.24,-25.81 779.09,-32.56"/>
</g>
<!-- Node10 -->
<g id="node10" class="node">
<title>Node10</title>
<g id="a_node10"><a xlink:title=" ">
<polygon fill="white" stroke="#bfbfbf" points="884.1,-6.5 884.1,-26.5 994.02,-26.5 994.02,-6.5 884.1,-6.5"/>
<text text-anchor="middle" x="939.06" y="-13.5" font-family="Helvetica,sans-Serif" font-size="10.00">fisch/vx/container.def</text>
</a>
</g>
</g>
<!-- Node1&#45;&gt;Node10 -->
<g id="edge10" class="edge">
<title>Node1&#45;&gt;Node10</title>
<path fill="none" stroke="midnightblue" d="M608.59,-81.98C680.93,-70 784.8,-51.94 875.06,-33 880.94,-31.77 887.1,-30.39 893.18,-28.97"/>
<polygon fill="midnightblue" stroke="midnightblue" points="894.34,-32.29 903.27,-26.58 892.73,-25.48 894.34,-32.29"/>
</g>
<!-- Node4&#45;&gt;Node4 -->
<g id="edge4" class="edge">
<title>Node4&#45;&gt;Node4</title>
<path fill="none" stroke="midnightblue" d="M302.66,-26.62C327.69,-35.58 358.13,-32.2 358.13,-16.5 358.13,-2.82 335.03,1.5 312.53,-3.53"/>
<polygon fill="midnightblue" stroke="midnightblue" points="311.29,-0.24 302.66,-6.38 313.24,-6.97 311.29,-0.24"/>
</g>
</g>
</svg>
