<?xml version="1.0" encoding="UTF-8" standalone="no"?>
<!DOCTYPE svg PUBLIC "-//W3C//DTD SVG 1.1//EN"
 "http://www.w3.org/Graphics/SVG/1.1/DTD/svg11.dtd">
<!-- Generated by graphviz version 2.46.0 (0)
 -->
<!-- Title: /jenkins/jenlib_workspaces_f9/bld_nightly&#45;haldls.YmxkX25pZ2h0bHktaGFsZGxzIzEzNzk.x/haldls/include/haldls/vx/v2/synapse_driver.h Pages: 1 -->
<svg width="1332pt" height="317pt"
 viewBox="0.00 0.00 1332.44 317.00" xmlns="http://www.w3.org/2000/svg" xmlns:xlink="http://www.w3.org/1999/xlink">
<g id="graph0" class="graph" transform="scale(1 1) rotate(0) translate(4 313)">
<title>/jenkins/jenlib_workspaces_f9/bld_nightly&#45;haldls.YmxkX25pZ2h0bHktaGFsZGxzIzEzNzk.x/haldls/include/haldls/vx/v2/synapse_driver.h</title>
<polygon fill="white" stroke="transparent" points="-4,4 -4,-313 1328.44,-313 1328.44,4 -4,4"/>
<!-- Node1 -->
<g id="node1" class="node">
<title>Node1</title>
<g id="a_node1"><a xlink:title=" ">
<polygon fill="#bfbfbf" stroke="black" points="230.89,-252.5 230.89,-308.5 415.26,-308.5 415.26,-252.5 230.89,-252.5"/>
<text text-anchor="start" x="238.89" y="-295.5" font-family="Helvetica,sans-Serif" font-size="10.00">/jenkins/jenlib_workspaces</text>
<text text-anchor="start" x="238.89" y="-283.5" font-family="Helvetica,sans-Serif" font-size="10.00">_f9/bld_nightly&#45;haldls.YmxkX25p</text>
<text text-anchor="start" x="238.89" y="-271.5" font-family="Helvetica,sans-Serif" font-size="10.00">Z2h0bHktaGFsZGxzIzEzNzk.x/haldls</text>
<text text-anchor="middle" x="323.07" y="-259.5" font-family="Helvetica,sans-Serif" font-size="10.00">/include/haldls/vx/v2/synapse_driver.h</text>
</a>
</g>
</g>
<!-- Node2 -->
<g id="node2" class="node">
<title>Node2</title>
<g id="a_node2"><a xlink:href="genpybind_8h.html" target="_top" xlink:title=" ">
<polygon fill="white" stroke="black" points="0,-6.5 0,-26.5 112.14,-26.5 112.14,-6.5 0,-6.5"/>
<text text-anchor="middle" x="56.07" y="-13.5" font-family="Helvetica,sans-Serif" font-size="10.00">haldls/vx/genpybind.h</text>
</a>
</g>
</g>
<!-- Node1&#45;&gt;Node2 -->
<g id="edge1" class="edge">
<title>Node1&#45;&gt;Node2</title>
<path fill="none" stroke="midnightblue" d="M295.5,-252.45C240.2,-198.18 117.2,-77.49 72.62,-33.74"/>
<polygon fill="midnightblue" stroke="midnightblue" points="75.06,-31.22 65.47,-26.72 70.15,-36.22 75.06,-31.22"/>
</g>
<!-- Node3 -->
<g id="node3" class="node">
<title>Node3</title>
<g id="a_node3"><a xlink:href="synapse__driver_8h.html" target="_top" xlink:title=" ">
<polygon fill="white" stroke="black" points="791.17,-195.5 791.17,-215.5 924.97,-215.5 924.97,-195.5 791.17,-195.5"/>
<text text-anchor="middle" x="858.07" y="-202.5" font-family="Helvetica,sans-Serif" font-size="10.00">haldls/vx/synapse_driver.h</text>
</a>
</g>
</g>
<!-- Node1&#45;&gt;Node3 -->
<g id="edge3" class="edge">
<title>Node1&#45;&gt;Node3</title>
<path fill="none" stroke="midnightblue" d="M415.35,-266.91C518.99,-252.77 685.29,-230.08 781.86,-216.9"/>
<polygon fill="midnightblue" stroke="midnightblue" points="782.41,-220.36 791.84,-215.54 781.46,-213.42 782.41,-220.36"/>
</g>
<!-- Node2&#45;&gt;Node2 -->
<g id="edge2" class="edge">
<title>Node2&#45;&gt;Node2</title>
<path fill="none" stroke="midnightblue" d="M84.58,-26.56C107.07,-30.45 130.14,-27.1 130.14,-16.5 130.14,-7.48 113.41,-3.71 94.55,-5.19"/>
<polygon fill="midnightblue" stroke="midnightblue" points="94.06,-1.72 84.58,-6.44 94.94,-8.67 94.06,-1.72"/>
</g>
<!-- Node3&#45;&gt;Node2 -->
<g id="edge8" class="edge">
<title>Node3&#45;&gt;Node2</title>
<path fill="none" stroke="midnightblue" d="M795.72,-195.5C741.42,-187.27 660.69,-174.11 591.07,-159 404.16,-118.44 184.42,-55.39 95.94,-29.36"/>
<polygon fill="midnightblue" stroke="midnightblue" points="96.88,-25.99 86.3,-26.52 94.9,-32.7 96.88,-25.99"/>
</g>
<!-- Node3&#45;&gt;Node3 -->
<g id="edge32" class="edge">
<title>Node3&#45;&gt;Node3</title>
<path fill="none" stroke="midnightblue" d="M890.74,-215.56C916.52,-219.45 942.97,-216.1 942.97,-205.5 942.97,-196.27 922.9,-192.54 900.69,-194.3"/>
<polygon fill="midnightblue" stroke="midnightblue" points="900.28,-190.82 890.74,-195.44 901.08,-197.78 900.28,-190.82"/>
</g>
<!-- Node4 -->
<g id="node4" class="node">
<title>Node4</title>
<g id="a_node4"><a xlink:title=" ">
<polygon fill="white" stroke="#bfbfbf" points="638.68,-132.5 638.68,-152.5 677.46,-152.5 677.46,-132.5 638.68,-132.5"/>
<text text-anchor="middle" x="658.07" y="-139.5" font-family="Helvetica,sans-Serif" font-size="10.00">array</text>
</a>
</g>
</g>
<!-- Node3&#45;&gt;Node4 -->
<g id="edge4" class="edge">
<title>Node3&#45;&gt;Node4</title>
<path fill="none" stroke="midnightblue" d="M812.88,-195.47C777.87,-187.76 728.51,-175.33 687.07,-159 685.64,-158.44 684.2,-157.82 682.75,-157.17"/>
<polygon fill="midnightblue" stroke="midnightblue" points="683.92,-153.85 673.41,-152.55 680.82,-160.12 683.92,-153.85"/>
</g>
<!-- Node5 -->
<g id="node5" class="node">
<title>Node5</title>
<g id="a_node5"><a xlink:title=" ">
<polygon fill="white" stroke="#bfbfbf" points="1276.9,-6.5 1276.9,-26.5 1321.24,-26.5 1321.24,-6.5 1276.9,-6.5"/>
<text text-anchor="middle" x="1299.07" y="-13.5" font-family="Helvetica,sans-Serif" font-size="10.00">iosfwd</text>
</a>
</g>
</g>
<!-- Node3&#45;&gt;Node5 -->
<g id="edge5" class="edge">
<title>Node3&#45;&gt;Node5</title>
<path fill="none" stroke="midnightblue" d="M925.36,-202.56C1044.39,-198.42 1281.99,-186.76 1307.07,-159 1337.77,-125.04 1319.62,-65.7 1307.41,-35.81"/>
<polygon fill="midnightblue" stroke="midnightblue" points="1310.6,-34.36 1303.43,-26.55 1304.17,-37.12 1310.6,-34.36"/>
</g>
<!-- Node6 -->
<g id="node6" class="node">
<title>Node6</title>
<g id="a_node6"><a xlink:title=" ">
<polygon fill="white" stroke="#bfbfbf" points="924.17,-132.5 924.17,-152.5 1057.97,-152.5 1057.97,-132.5 924.17,-132.5"/>
<text text-anchor="middle" x="991.07" y="-139.5" font-family="Helvetica,sans-Serif" font-size="10.00">halco/common/geometry.h</text>
</a>
</g>
</g>
<!-- Node3&#45;&gt;Node6 -->
<g id="edge6" class="edge">
<title>Node3&#45;&gt;Node6</title>
<path fill="none" stroke="midnightblue" d="M877.7,-195.5C899.99,-185.27 936.6,-168.48 962.16,-156.76"/>
<polygon fill="midnightblue" stroke="midnightblue" points="963.74,-159.89 971.37,-152.54 960.82,-153.53 963.74,-159.89"/>
</g>
<!-- Node7 -->
<g id="node7" class="node">
<title>Node7</title>
<g id="a_node7"><a xlink:title=" ">
<polygon fill="white" stroke="#bfbfbf" points="1075.56,-126.5 1075.56,-158.5 1176.58,-158.5 1176.58,-126.5 1075.56,-126.5"/>
<text text-anchor="start" x="1083.56" y="-145.5" font-family="Helvetica,sans-Serif" font-size="10.00">halco/hicann&#45;dls/vx</text>
<text text-anchor="middle" x="1126.07" y="-133.5" font-family="Helvetica,sans-Serif" font-size="10.00">/synapse_driver.h</text>
</a>
</g>
</g>
<!-- Node3&#45;&gt;Node7 -->
<g id="edge7" class="edge">
<title>Node3&#45;&gt;Node7</title>
<path fill="none" stroke="midnightblue" d="M902.23,-195.46C942.46,-187.09 1003.76,-174.02 1065.37,-159.36"/>
<polygon fill="midnightblue" stroke="midnightblue" points="1066.35,-162.73 1075.26,-157 1064.72,-155.92 1066.35,-162.73"/>
</g>
<!-- Node8 -->
<g id="node8" class="node">
<title>Node8</title>
<g id="a_node8"><a xlink:href="sram__controller_8h.html" target="_top" xlink:title=" ">
<polygon fill="white" stroke="black" points="695.62,-132.5 695.62,-152.5 830.52,-152.5 830.52,-132.5 695.62,-132.5"/>
<text text-anchor="middle" x="763.07" y="-139.5" font-family="Helvetica,sans-Serif" font-size="10.00">haldls/vx/sram_controller.h</text>
</a>
</g>
</g>
<!-- Node3&#45;&gt;Node8 -->
<g id="edge9" class="edge">
<title>Node3&#45;&gt;Node8</title>
<path fill="none" stroke="midnightblue" d="M844.05,-195.5C828.76,-185.68 804.04,-169.81 785.93,-158.18"/>
<polygon fill="midnightblue" stroke="midnightblue" points="787.45,-155 777.15,-152.54 783.67,-160.89 787.45,-155"/>
</g>
<!-- Node9 -->
<g id="node9" class="node">
<title>Node9</title>
<g id="a_node9"><a xlink:href="cerealization_8h.html" target="_top" xlink:title=" ">
<polygon fill="white" stroke="black" points="956.4,-69.5 956.4,-89.5 1065.75,-89.5 1065.75,-69.5 956.4,-69.5"/>
<text text-anchor="middle" x="1011.07" y="-76.5" font-family="Helvetica,sans-Serif" font-size="10.00">haldls/cerealization.h</text>
</a>
</g>
</g>
<!-- Node3&#45;&gt;Node9 -->
<g id="edge35" class="edge">
<title>Node3&#45;&gt;Node9</title>
<path fill="none" stroke="midnightblue" d="M862.71,-195.36C871.18,-179.43 890.58,-146.33 915.07,-126 932.23,-111.76 954.6,-100.82 973.43,-93.24"/>
<polygon fill="midnightblue" stroke="midnightblue" points="974.84,-96.45 982.91,-89.58 972.32,-89.92 974.84,-96.45"/>
</g>
<!-- Node11 -->
<g id="node11" class="node">
<title>Node11</title>
<g id="a_node11"><a xlink:title=" ">
<polygon fill="white" stroke="#bfbfbf" points="970.57,-6.5 970.57,-26.5 1051.57,-26.5 1051.57,-6.5 970.57,-6.5"/>
<text text-anchor="middle" x="1011.07" y="-13.5" font-family="Helvetica,sans-Serif" font-size="10.00">hate/visibility.h</text>
</a>
</g>
</g>
<!-- Node3&#45;&gt;Node11 -->
<g id="edge34" class="edge">
<title>Node3&#45;&gt;Node11</title>
<path fill="none" stroke="midnightblue" d="M859.25,-195.1C861.53,-179.61 867.68,-148.26 882.07,-126 909.02,-84.31 956.9,-50.23 986.14,-31.98"/>
<polygon fill="midnightblue" stroke="midnightblue" points="988.21,-34.81 994.92,-26.62 984.56,-28.84 988.21,-34.81"/>
</g>
<!-- Node17 -->
<g id="node17" class="node">
<title>Node17</title>
<g id="a_node17"><a xlink:href="traits_8h.html" target="_top" xlink:title=" ">
<polygon fill="white" stroke="black" points="518.23,-69.5 518.23,-89.5 605.91,-89.5 605.91,-69.5 518.23,-69.5"/>
<text text-anchor="middle" x="562.07" y="-76.5" font-family="Helvetica,sans-Serif" font-size="10.00">haldls/vx/traits.h</text>
</a>
</g>
</g>
<!-- Node3&#45;&gt;Node17 -->
<g id="edge33" class="edge">
<title>Node3&#45;&gt;Node17</title>
<path fill="none" stroke="midnightblue" d="M791.16,-202.53C743.43,-198.52 679.26,-187.62 630.07,-159 604.59,-144.17 583.92,-116.27 572.31,-98.03"/>
<polygon fill="midnightblue" stroke="midnightblue" points="575.29,-96.2 567.09,-89.5 569.32,-99.86 575.29,-96.2"/>
</g>
<!-- Node24 -->
<g id="node24" class="node">
<title>Node24</title>
<g id="a_node24"><a xlink:title=" ">
<polygon fill="white" stroke="#bfbfbf" points="1194.45,-132.5 1194.45,-152.5 1297.69,-152.5 1297.69,-132.5 1194.45,-132.5"/>
<text text-anchor="middle" x="1246.07" y="-139.5" font-family="Helvetica,sans-Serif" font-size="10.00">hxcomm/vx/target.h</text>
</a>
</g>
</g>
<!-- Node3&#45;&gt;Node24 -->
<g id="edge36" class="edge">
<title>Node3&#45;&gt;Node24</title>
<path fill="none" stroke="midnightblue" d="M925.04,-197.49C991.59,-190 1096.4,-176.74 1186.07,-159 1191.89,-157.85 1197.98,-156.48 1203.96,-155.03"/>
<polygon fill="midnightblue" stroke="midnightblue" points="1204.99,-158.38 1213.84,-152.55 1203.29,-151.59 1204.99,-158.38"/>
</g>
<!-- Node8&#45;&gt;Node2 -->
<g id="edge19" class="edge">
<title>Node8&#45;&gt;Node2</title>
<path fill="none" stroke="midnightblue" d="M719.54,-132.5C708.63,-130.31 696.93,-128.02 686.07,-126 443.61,-81 381.84,-76.3 139.07,-33 130.88,-31.54 122.23,-29.96 113.75,-28.4"/>
<polygon fill="midnightblue" stroke="midnightblue" points="114.36,-24.95 103.89,-26.57 113.08,-31.83 114.36,-24.95"/>
</g>
<!-- Node8&#45;&gt;Node9 -->
<g id="edge10" class="edge">
<title>Node8&#45;&gt;Node9</title>
<path fill="none" stroke="midnightblue" d="M799.66,-132.5C843.44,-121.73 916.78,-103.69 964.54,-91.94"/>
<polygon fill="midnightblue" stroke="midnightblue" points="965.45,-95.32 974.33,-89.54 963.78,-88.53 965.45,-95.32"/>
</g>
<!-- Node8&#45;&gt;Node11 -->
<g id="edge31" class="edge">
<title>Node8&#45;&gt;Node11</title>
<path fill="none" stroke="midnightblue" d="M773.99,-132.41C792.27,-117.53 830.69,-87.76 867.07,-69 885.95,-59.27 937.45,-41.59 973.45,-29.7"/>
<polygon fill="midnightblue" stroke="midnightblue" points="974.74,-32.96 983.15,-26.51 972.55,-26.31 974.74,-32.96"/>
</g>
<!-- Node14 -->
<g id="node14" class="node">
<title>Node14</title>
<g id="a_node14"><a xlink:href="common_8h.html" target="_top" xlink:title=" ">
<polygon fill="white" stroke="black" points="710.9,-69.5 710.9,-89.5 815.24,-89.5 815.24,-69.5 710.9,-69.5"/>
<text text-anchor="middle" x="763.07" y="-76.5" font-family="Helvetica,sans-Serif" font-size="10.00">haldls/vx/common.h</text>
</a>
</g>
</g>
<!-- Node8&#45;&gt;Node14 -->
<g id="edge16" class="edge">
<title>Node8&#45;&gt;Node14</title>
<path fill="none" stroke="midnightblue" d="M763.07,-132.5C763.07,-123.94 763.07,-110.78 763.07,-99.85"/>
<polygon fill="midnightblue" stroke="midnightblue" points="766.57,-99.54 763.07,-89.54 759.57,-99.54 766.57,-99.54"/>
</g>
<!-- Node8&#45;&gt;Node17 -->
<g id="edge20" class="edge">
<title>Node8&#45;&gt;Node17</title>
<path fill="none" stroke="midnightblue" d="M733.41,-132.5C698.53,-121.91 640.47,-104.29 601.74,-92.54"/>
<polygon fill="midnightblue" stroke="midnightblue" points="602.44,-89.09 591.85,-89.54 600.4,-95.79 602.44,-89.09"/>
</g>
<!-- Node23 -->
<g id="node23" class="node">
<title>Node23</title>
<g id="a_node23"><a xlink:title=" ">
<polygon fill="white" stroke="#bfbfbf" points="623.67,-69.5 623.67,-89.5 692.47,-89.5 692.47,-69.5 623.67,-69.5"/>
<text text-anchor="middle" x="658.07" y="-76.5" font-family="Helvetica,sans-Serif" font-size="10.00">hate/math.h</text>
</a>
</g>
</g>
<!-- Node8&#45;&gt;Node23 -->
<g id="edge30" class="edge">
<title>Node8&#45;&gt;Node23</title>
<path fill="none" stroke="midnightblue" d="M747.58,-132.5C730.44,-122.54 702.6,-106.37 682.51,-94.7"/>
<polygon fill="midnightblue" stroke="midnightblue" points="684.03,-91.53 673.63,-89.54 680.52,-97.59 684.03,-91.53"/>
</g>
<!-- Node9&#45;&gt;Node5 -->
<g id="edge14" class="edge">
<title>Node9&#45;&gt;Node5</title>
<path fill="none" stroke="midnightblue" d="M1061.29,-69.43C1107.81,-60.81 1178.85,-47.11 1240.07,-33 1248.82,-30.98 1258.25,-28.6 1266.95,-26.32"/>
<polygon fill="midnightblue" stroke="midnightblue" points="1267.98,-29.67 1276.74,-23.71 1266.17,-22.9 1267.98,-29.67"/>
</g>
<!-- Node10 -->
<g id="node10" class="node">
<title>Node10</title>
<g id="a_node10"><a xlink:title=" ">
<polygon fill="white" stroke="#bfbfbf" points="812.45,-6.5 812.45,-26.5 895.69,-26.5 895.69,-6.5 812.45,-6.5"/>
<text text-anchor="middle" x="854.07" y="-13.5" font-family="Helvetica,sans-Serif" font-size="10.00">hate/type_list.h</text>
</a>
</g>
</g>
<!-- Node9&#45;&gt;Node10 -->
<g id="edge11" class="edge">
<title>Node9&#45;&gt;Node10</title>
<path fill="none" stroke="midnightblue" d="M987.91,-69.5C961.24,-59.14 917.23,-42.04 887.01,-30.3"/>
<polygon fill="midnightblue" stroke="midnightblue" points="887.92,-26.9 877.33,-26.54 885.39,-33.42 887.92,-26.9"/>
</g>
<!-- Node9&#45;&gt;Node11 -->
<g id="edge12" class="edge">
<title>Node9&#45;&gt;Node11</title>
<path fill="none" stroke="midnightblue" d="M1011.07,-69.5C1011.07,-60.94 1011.07,-47.78 1011.07,-36.85"/>
<polygon fill="midnightblue" stroke="midnightblue" points="1014.57,-36.54 1011.07,-26.54 1007.57,-36.54 1014.57,-36.54"/>
</g>
<!-- Node12 -->
<g id="node12" class="node">
<title>Node12</title>
<g id="a_node12"><a xlink:title=" ">
<polygon fill="white" stroke="#bfbfbf" points="1069.62,-6.5 1069.62,-26.5 1114.52,-26.5 1114.52,-6.5 1069.62,-6.5"/>
<text text-anchor="middle" x="1092.07" y="-13.5" font-family="Helvetica,sans-Serif" font-size="10.00">cstdint</text>
</a>
</g>
</g>
<!-- Node9&#45;&gt;Node12 -->
<g id="edge13" class="edge">
<title>Node9&#45;&gt;Node12</title>
<path fill="none" stroke="midnightblue" d="M1023.02,-69.5C1035.83,-59.86 1056.37,-44.39 1071.73,-32.82"/>
<polygon fill="midnightblue" stroke="midnightblue" points="1074.19,-35.35 1080.07,-26.54 1069.98,-29.76 1074.19,-35.35"/>
</g>
<!-- Node13 -->
<g id="node13" class="node">
<title>Node13</title>
<g id="a_node13"><a xlink:title=" ">
<polygon fill="white" stroke="#bfbfbf" points="1132.95,-6.5 1132.95,-26.5 1231.19,-26.5 1231.19,-6.5 1132.95,-6.5"/>
<text text-anchor="middle" x="1182.07" y="-13.5" font-family="Helvetica,sans-Serif" font-size="10.00">cereal/macros.hpp</text>
</a>
</g>
</g>
<!-- Node9&#45;&gt;Node13 -->
<g id="edge15" class="edge">
<title>Node9&#45;&gt;Node13</title>
<path fill="none" stroke="midnightblue" d="M1036.3,-69.5C1065.6,-59.05 1114.11,-41.74 1147.05,-29.99"/>
<polygon fill="midnightblue" stroke="midnightblue" points="1148.49,-33.19 1156.74,-26.54 1146.14,-26.6 1148.49,-33.19"/>
</g>
<!-- Node15 -->
<g id="node15" class="node">
<title>Node15</title>
<g id="a_node15"><a xlink:title=" ">
<polygon fill="white" stroke="#bfbfbf" points="732.01,-6.5 732.01,-26.5 794.13,-26.5 794.13,-6.5 732.01,-6.5"/>
<text text-anchor="middle" x="763.07" y="-13.5" font-family="Helvetica,sans-Serif" font-size="10.00">type_traits</text>
</a>
</g>
</g>
<!-- Node14&#45;&gt;Node15 -->
<g id="edge17" class="edge">
<title>Node14&#45;&gt;Node15</title>
<path fill="none" stroke="midnightblue" d="M763.07,-69.5C763.07,-60.94 763.07,-47.78 763.07,-36.85"/>
<polygon fill="midnightblue" stroke="midnightblue" points="766.57,-36.54 763.07,-26.54 759.57,-36.54 766.57,-36.54"/>
</g>
<!-- Node16 -->
<g id="node16" class="node">
<title>Node16</title>
<g id="a_node16"><a xlink:title=" ">
<polygon fill="white" stroke="#bfbfbf" points="913.68,-6.5 913.68,-26.5 952.46,-26.5 952.46,-6.5 913.68,-6.5"/>
<text text-anchor="middle" x="933.07" y="-13.5" font-family="Helvetica,sans-Serif" font-size="10.00">utility</text>
</a>
</g>
</g>
<!-- Node14&#45;&gt;Node16 -->
<g id="edge18" class="edge">
<title>Node14&#45;&gt;Node16</title>
<path fill="none" stroke="midnightblue" d="M797.61,-69.48C826.8,-61.38 869.43,-48.4 905.07,-33 906.28,-32.48 907.5,-31.92 908.72,-31.34"/>
<polygon fill="midnightblue" stroke="midnightblue" points="910.66,-34.28 917.94,-26.58 907.45,-28.06 910.66,-34.28"/>
</g>
<!-- Node17&#45;&gt;Node2 -->
<g id="edge23" class="edge">
<title>Node17&#45;&gt;Node2</title>
<path fill="none" stroke="midnightblue" d="M517.91,-74.19C424.89,-65.03 211.42,-43.63 139.07,-33 129.91,-31.65 120.22,-30.03 110.82,-28.34"/>
<polygon fill="midnightblue" stroke="midnightblue" points="111.23,-24.86 100.76,-26.5 109.97,-31.75 111.23,-24.86"/>
</g>
<!-- Node17&#45;&gt;Node10 -->
<g id="edge24" class="edge">
<title>Node17&#45;&gt;Node10</title>
<path fill="none" stroke="midnightblue" d="M606.13,-70.45C670.39,-58.67 784.26,-37.62 803.07,-33 807.44,-31.93 811.98,-30.71 816.48,-29.43"/>
<polygon fill="midnightblue" stroke="midnightblue" points="817.56,-32.76 826.16,-26.58 815.58,-26.04 817.56,-32.76"/>
</g>
<!-- Node17&#45;&gt;Node11 -->
<g id="edge25" class="edge">
<title>Node17&#45;&gt;Node11</title>
<path fill="none" stroke="midnightblue" d="M605.99,-70.37C609.06,-69.88 612.11,-69.42 615.07,-69 768.16,-47.35 809.61,-64.04 961.07,-33 965.83,-32.02 970.78,-30.78 975.63,-29.42"/>
<polygon fill="midnightblue" stroke="midnightblue" points="976.79,-32.73 985.37,-26.53 974.79,-26.02 976.79,-32.73"/>
</g>
<!-- Node17&#45;&gt;Node15 -->
<g id="edge26" class="edge">
<title>Node17&#45;&gt;Node15</title>
<path fill="none" stroke="midnightblue" d="M597.86,-69.42C630.68,-60.85 680.51,-47.23 723.07,-33 725.79,-32.09 728.59,-31.11 731.39,-30.09"/>
<polygon fill="midnightblue" stroke="midnightblue" points="732.65,-33.36 740.78,-26.56 730.19,-26.8 732.65,-33.36"/>
</g>
<!-- Node18 -->
<g id="node18" class="node">
<title>Node18</title>
<g id="a_node18"><a xlink:title=" ">
<polygon fill="white" stroke="#bfbfbf" points="632.01,-6.5 632.01,-26.5 714.13,-26.5 714.13,-6.5 632.01,-6.5"/>
<text text-anchor="middle" x="673.07" y="-13.5" font-family="Helvetica,sans-Serif" font-size="10.00">fisch/vx/traits.h</text>
</a>
</g>
</g>
<!-- Node17&#45;&gt;Node18 -->
<g id="edge21" class="edge">
<title>Node17&#45;&gt;Node18</title>
<path fill="none" stroke="midnightblue" d="M578.45,-69.5C596.73,-59.45 626.53,-43.07 647.81,-31.38"/>
<polygon fill="midnightblue" stroke="midnightblue" points="649.55,-34.42 656.63,-26.54 646.18,-28.29 649.55,-34.42"/>
</g>
<!-- Node19 -->
<g id="node19" class="node">
<title>Node19</title>
<g id="a_node19"><a xlink:title=" ">
<polygon fill="white" stroke="#bfbfbf" points="147.84,-0.5 147.84,-32.5 258.3,-32.5 258.3,-0.5 147.84,-0.5"/>
<text text-anchor="start" x="155.84" y="-19.5" font-family="Helvetica,sans-Serif" font-size="10.00">fisch/vx/word_access</text>
<text text-anchor="middle" x="203.07" y="-7.5" font-family="Helvetica,sans-Serif" font-size="10.00">_type.h</text>
</a>
</g>
</g>
<!-- Node17&#45;&gt;Node19 -->
<g id="edge22" class="edge">
<title>Node17&#45;&gt;Node19</title>
<path fill="none" stroke="midnightblue" d="M518.05,-72.81C462.36,-65.37 363.32,-51.31 268.39,-32.96"/>
<polygon fill="midnightblue" stroke="midnightblue" points="268.81,-29.48 258.32,-31 267.47,-36.35 268.81,-29.48"/>
</g>
<!-- Node20 -->
<g id="node20" class="node">
<title>Node20</title>
<g id="a_node20"><a xlink:title=" ">
<polygon fill="white" stroke="#bfbfbf" points="276.67,-0.5 276.67,-32.5 375.47,-32.5 375.47,-0.5 276.67,-0.5"/>
<text text-anchor="start" x="284.67" y="-19.5" font-family="Helvetica,sans-Serif" font-size="10.00">boost/utility/enable</text>
<text text-anchor="middle" x="326.07" y="-7.5" font-family="Helvetica,sans-Serif" font-size="10.00">_if.hpp</text>
</a>
</g>
</g>
<!-- Node17&#45;&gt;Node20 -->
<g id="edge27" class="edge">
<title>Node17&#45;&gt;Node20</title>
<path fill="none" stroke="midnightblue" d="M526.8,-69.49C493.09,-60.87 440.58,-47.4 385.57,-33.12"/>
<polygon fill="midnightblue" stroke="midnightblue" points="386.2,-29.67 375.64,-30.54 384.44,-36.44 386.2,-29.67"/>
</g>
<!-- Node21 -->
<g id="node21" class="node">
<title>Node21</title>
<g id="a_node21"><a xlink:title=" ">
<polygon fill="white" stroke="#bfbfbf" points="393.72,-6.5 393.72,-26.5 486.42,-26.5 486.42,-6.5 393.72,-6.5"/>
<text text-anchor="middle" x="440.07" y="-13.5" font-family="Helvetica,sans-Serif" font-size="10.00">boost/variant.hpp</text>
</a>
</g>
</g>
<!-- Node17&#45;&gt;Node21 -->
<g id="edge28" class="edge">
<title>Node17&#45;&gt;Node21</title>
<path fill="none" stroke="midnightblue" d="M544.07,-69.5C523.8,-59.36 490.63,-42.78 467.21,-31.07"/>
<polygon fill="midnightblue" stroke="midnightblue" points="468.66,-27.88 458.15,-26.54 465.53,-34.14 468.66,-27.88"/>
</g>
<!-- Node22 -->
<g id="node22" class="node">
<title>Node22</title>
<g id="a_node22"><a xlink:title=" ">
<polygon fill="white" stroke="#bfbfbf" points="504.12,-6.5 504.12,-26.5 614.03,-26.5 614.03,-6.5 504.12,-6.5"/>
<text text-anchor="middle" x="559.07" y="-13.5" font-family="Helvetica,sans-Serif" font-size="10.00">fisch/vx/container.def</text>
</a>
</g>
</g>
<!-- Node17&#45;&gt;Node22 -->
<g id="edge29" class="edge">
<title>Node17&#45;&gt;Node22</title>
<path fill="none" stroke="midnightblue" d="M561.63,-69.5C561.21,-60.94 560.56,-47.78 560.02,-36.85"/>
<polygon fill="midnightblue" stroke="midnightblue" points="563.5,-36.35 559.52,-26.54 556.51,-36.7 563.5,-36.35"/>
</g>
</g>
</svg>
