<?xml version="1.0" encoding="UTF-8" standalone="no"?>
<!DOCTYPE svg PUBLIC "-//W3C//DTD SVG 1.1//EN"
 "http://www.w3.org/Graphics/SVG/1.1/DTD/svg11.dtd">
<!-- Generated by graphviz version 2.46.0 (0)
 -->
<!-- Title: /jenkins/jenlib_workspaces_f9/bld_nightly&#45;haldls.YmxkX25pZ2h0bHktaGFsZGxzIzEzNzk.x/haldls/include/haldls/vx/v2/fpga.h Pages: 1 -->
<svg width="1245pt" height="329pt"
 viewBox="0.00 0.00 1245.24 329.00" xmlns="http://www.w3.org/2000/svg" xmlns:xlink="http://www.w3.org/1999/xlink">
<g id="graph0" class="graph" transform="scale(1 1) rotate(0) translate(4 325)">
<title>/jenkins/jenlib_workspaces_f9/bld_nightly&#45;haldls.YmxkX25pZ2h0bHktaGFsZGxzIzEzNzk.x/haldls/include/haldls/vx/v2/fpga.h</title>
<polygon fill="white" stroke="transparent" points="-4,4 -4,-325 1241.24,-325 1241.24,4 -4,4"/>
<!-- Node1 -->
<g id="node1" class="node">
<title>Node1</title>
<g id="a_node1"><a xlink:title=" ">
<polygon fill="#bfbfbf" stroke="black" points="828.66,-264.5 828.66,-320.5 1009.68,-320.5 1009.68,-264.5 828.66,-264.5"/>
<text text-anchor="start" x="836.66" y="-307.5" font-family="Helvetica,sans-Serif" font-size="10.00">/jenkins/jenlib_workspaces</text>
<text text-anchor="start" x="836.66" y="-295.5" font-family="Helvetica,sans-Serif" font-size="10.00">_f9/bld_nightly&#45;haldls.YmxkX25p</text>
<text text-anchor="start" x="836.66" y="-283.5" font-family="Helvetica,sans-Serif" font-size="10.00">Z2h0bHktaGFsZGxzIzEzNzk.x/haldls</text>
<text text-anchor="middle" x="919.17" y="-271.5" font-family="Helvetica,sans-Serif" font-size="10.00">/include/haldls/vx/v2/fpga.h</text>
</a>
</g>
</g>
<!-- Node2 -->
<g id="node2" class="node">
<title>Node2</title>
<g id="a_node2"><a xlink:href="fpga_8h.html" target="_top" xlink:title=" ">
<polygon fill="white" stroke="black" points="595.43,-207.5 595.43,-227.5 680.9,-227.5 680.9,-207.5 595.43,-207.5"/>
<text text-anchor="middle" x="638.17" y="-214.5" font-family="Helvetica,sans-Serif" font-size="10.00">haldls/vx/fpga.h</text>
</a>
</g>
</g>
<!-- Node1&#45;&gt;Node2 -->
<g id="edge1" class="edge">
<title>Node1&#45;&gt;Node2</title>
<path fill="none" stroke="midnightblue" d="M828.32,-267.9C779.75,-255.28 722.09,-240.3 683.1,-230.17"/>
<polygon fill="midnightblue" stroke="midnightblue" points="683.67,-226.7 673.11,-227.58 681.91,-233.48 683.67,-226.7"/>
</g>
<!-- Node17 -->
<g id="node17" class="node">
<title>Node17</title>
<g id="a_node17"><a xlink:href="genpybind_8h.html" target="_top" xlink:title=" ">
<polygon fill="white" stroke="black" points="1107.1,-6.5 1107.1,-26.5 1219.24,-26.5 1219.24,-6.5 1107.1,-6.5"/>
<text text-anchor="middle" x="1163.17" y="-13.5" font-family="Helvetica,sans-Serif" font-size="10.00">haldls/vx/genpybind.h</text>
</a>
</g>
</g>
<!-- Node1&#45;&gt;Node17 -->
<g id="edge40" class="edge">
<title>Node1&#45;&gt;Node17</title>
<path fill="none" stroke="midnightblue" d="M1009.76,-268.26C1062.91,-250.14 1127.25,-219.67 1167.17,-171 1196.36,-135.4 1194.4,-114.1 1185.17,-69 1182.79,-57.41 1177.7,-45.19 1173.02,-35.57"/>
<polygon fill="midnightblue" stroke="midnightblue" points="1176.1,-33.91 1168.41,-26.62 1169.87,-37.11 1176.1,-33.91"/>
</g>
<!-- Node3 -->
<g id="node3" class="node">
<title>Node3</title>
<g id="a_node3"><a xlink:title=" ">
<polygon fill="white" stroke="#bfbfbf" points="706.78,-75.5 706.78,-95.5 745.56,-95.5 745.56,-75.5 706.78,-75.5"/>
<text text-anchor="middle" x="726.17" y="-82.5" font-family="Helvetica,sans-Serif" font-size="10.00">array</text>
</a>
</g>
</g>
<!-- Node2&#45;&gt;Node3 -->
<g id="edge2" class="edge">
<title>Node2&#45;&gt;Node3</title>
<path fill="none" stroke="midnightblue" d="M632.57,-207.02C624.18,-191.43 610.67,-159.93 624.17,-138 626.33,-134.49 668.59,-113.87 698.03,-99.81"/>
<polygon fill="midnightblue" stroke="midnightblue" points="699.54,-102.97 707.07,-95.51 696.53,-96.65 699.54,-102.97"/>
</g>
<!-- Node4 -->
<g id="node4" class="node">
<title>Node4</title>
<g id="a_node4"><a xlink:title=" ">
<polygon fill="white" stroke="#bfbfbf" points="0,-6.5 0,-26.5 44.34,-26.5 44.34,-6.5 0,-6.5"/>
<text text-anchor="middle" x="22.17" y="-13.5" font-family="Helvetica,sans-Serif" font-size="10.00">iosfwd</text>
</a>
</g>
</g>
<!-- Node2&#45;&gt;Node4 -->
<g id="edge3" class="edge">
<title>Node2&#45;&gt;Node4</title>
<path fill="none" stroke="midnightblue" d="M595.23,-217.3C514.79,-217.66 336.66,-213.1 194.17,-171 129.55,-151.91 105.37,-151.05 59.17,-102 41.63,-83.38 31.57,-55.09 26.49,-36.45"/>
<polygon fill="midnightblue" stroke="midnightblue" points="29.82,-35.36 24,-26.51 23.03,-37.06 29.82,-35.36"/>
</g>
<!-- Node5 -->
<g id="node5" class="node">
<title>Node5</title>
<g id="a_node5"><a xlink:title=" ">
<polygon fill="white" stroke="#bfbfbf" points="763.27,-75.5 763.27,-95.5 897.07,-95.5 897.07,-75.5 763.27,-75.5"/>
<text text-anchor="middle" x="830.17" y="-82.5" font-family="Helvetica,sans-Serif" font-size="10.00">halco/common/geometry.h</text>
</a>
</g>
</g>
<!-- Node2&#45;&gt;Node5 -->
<g id="edge4" class="edge">
<title>Node2&#45;&gt;Node5</title>
<path fill="none" stroke="midnightblue" d="M637.65,-207.39C637.24,-191.2 638.82,-157.32 657.17,-138 666.03,-128.66 734.79,-110.1 782.9,-97.99"/>
<polygon fill="midnightblue" stroke="midnightblue" points="783.97,-101.33 792.82,-95.52 782.27,-94.54 783.97,-101.33"/>
</g>
<!-- Node6 -->
<g id="node6" class="node">
<title>Node6</title>
<g id="a_node6"><a xlink:title=" ">
<polygon fill="white" stroke="#bfbfbf" points="666.05,-138.5 666.05,-170.5 774.29,-170.5 774.29,-138.5 666.05,-138.5"/>
<text text-anchor="start" x="674.05" y="-157.5" font-family="Helvetica,sans-Serif" font-size="10.00">halco/common/typed</text>
<text text-anchor="middle" x="720.17" y="-145.5" font-family="Helvetica,sans-Serif" font-size="10.00">_array.h</text>
</a>
</g>
</g>
<!-- Node2&#45;&gt;Node6 -->
<g id="edge5" class="edge">
<title>Node2&#45;&gt;Node6</title>
<path fill="none" stroke="midnightblue" d="M650.27,-207.5C661.14,-199.41 677.53,-187.21 691.71,-176.67"/>
<polygon fill="midnightblue" stroke="midnightblue" points="693.81,-179.47 699.75,-170.69 689.63,-173.85 693.81,-179.47"/>
</g>
<!-- Node7 -->
<g id="node7" class="node">
<title>Node7</title>
<g id="a_node7"><a xlink:title=" ">
<polygon fill="white" stroke="#bfbfbf" points="792.66,-138.5 792.66,-170.5 893.68,-170.5 893.68,-138.5 792.66,-138.5"/>
<text text-anchor="start" x="800.66" y="-157.5" font-family="Helvetica,sans-Serif" font-size="10.00">halco/hicann&#45;dls/vx</text>
<text text-anchor="middle" x="843.17" y="-145.5" font-family="Helvetica,sans-Serif" font-size="10.00">/fpga.h</text>
</a>
</g>
</g>
<!-- Node2&#45;&gt;Node7 -->
<g id="edge6" class="edge">
<title>Node2&#45;&gt;Node7</title>
<path fill="none" stroke="midnightblue" d="M668.42,-207.5C698.37,-198.59 745.08,-184.69 782.67,-173.5"/>
<polygon fill="midnightblue" stroke="midnightblue" points="783.93,-176.78 792.51,-170.57 781.93,-170.07 783.93,-176.78"/>
</g>
<!-- Node8 -->
<g id="node8" class="node">
<title>Node8</title>
<g id="a_node8"><a xlink:title=" ">
<polygon fill="white" stroke="#bfbfbf" points="911.66,-138.5 911.66,-170.5 1012.68,-170.5 1012.68,-138.5 911.66,-138.5"/>
<text text-anchor="start" x="919.66" y="-157.5" font-family="Helvetica,sans-Serif" font-size="10.00">halco/hicann&#45;dls/vx</text>
<text text-anchor="middle" x="962.17" y="-145.5" font-family="Helvetica,sans-Serif" font-size="10.00">/quad.h</text>
</a>
</g>
</g>
<!-- Node2&#45;&gt;Node8 -->
<g id="edge7" class="edge">
<title>Node2&#45;&gt;Node8</title>
<path fill="none" stroke="midnightblue" d="M681.07,-210.31C731.66,-202.75 818.45,-188.96 901.54,-171.26"/>
<polygon fill="midnightblue" stroke="midnightblue" points="902.35,-174.67 911.39,-169.14 900.87,-167.82 902.35,-174.67"/>
</g>
<!-- Node9 -->
<g id="node9" class="node">
<title>Node9</title>
<g id="a_node9"><a xlink:href="cerealization_8h.html" target="_top" xlink:title=" ">
<polygon fill="white" stroke="black" points="111.49,-75.5 111.49,-95.5 220.84,-95.5 220.84,-75.5 111.49,-75.5"/>
<text text-anchor="middle" x="166.17" y="-82.5" font-family="Helvetica,sans-Serif" font-size="10.00">haldls/cerealization.h</text>
</a>
</g>
</g>
<!-- Node2&#45;&gt;Node9 -->
<g id="edge8" class="edge">
<title>Node2&#45;&gt;Node9</title>
<path fill="none" stroke="midnightblue" d="M595.25,-215.7C504.5,-213.36 296.44,-204.41 235.17,-171 207.43,-155.87 186.54,-124.58 175.36,-104.61"/>
<polygon fill="midnightblue" stroke="midnightblue" points="178.33,-102.76 170.53,-95.6 172.16,-106.06 178.33,-102.76"/>
</g>
<!-- Node11 -->
<g id="node11" class="node">
<title>Node11</title>
<g id="a_node11"><a xlink:title=" ">
<polygon fill="white" stroke="#bfbfbf" points="242.66,-6.5 242.66,-26.5 323.67,-26.5 323.67,-6.5 242.66,-6.5"/>
<text text-anchor="middle" x="283.17" y="-13.5" font-family="Helvetica,sans-Serif" font-size="10.00">hate/visibility.h</text>
</a>
</g>
</g>
<!-- Node2&#45;&gt;Node11 -->
<g id="edge39" class="edge">
<title>Node2&#45;&gt;Node11</title>
<path fill="none" stroke="midnightblue" d="M595.17,-209.99C505.82,-195.44 305.24,-157.19 268.17,-102 254.78,-82.07 264.19,-53.75 273,-35.49"/>
<polygon fill="midnightblue" stroke="midnightblue" points="276.17,-36.99 277.69,-26.51 269.96,-33.76 276.17,-36.99"/>
</g>
<!-- Node14 -->
<g id="node14" class="node">
<title>Node14</title>
<g id="a_node14"><a xlink:href="common_8h.html" target="_top" xlink:title=" ">
<polygon fill="white" stroke="black" points="1030.99,-144.5 1030.99,-164.5 1135.34,-164.5 1135.34,-144.5 1030.99,-144.5"/>
<text text-anchor="middle" x="1083.17" y="-151.5" font-family="Helvetica,sans-Serif" font-size="10.00">haldls/vx/common.h</text>
</a>
</g>
</g>
<!-- Node2&#45;&gt;Node14 -->
<g id="edge14" class="edge">
<title>Node2&#45;&gt;Node14</title>
<path fill="none" stroke="midnightblue" d="M681.06,-213.26C752.31,-207.47 899.39,-193.77 1022.17,-171 1028.16,-169.89 1034.43,-168.53 1040.58,-167.08"/>
<polygon fill="midnightblue" stroke="midnightblue" points="1041.86,-170.37 1050.73,-164.58 1040.19,-163.57 1041.86,-170.37"/>
</g>
<!-- Node2&#45;&gt;Node17 -->
<g id="edge17" class="edge">
<title>Node2&#45;&gt;Node17</title>
<path fill="none" stroke="midnightblue" d="M680.97,-215.67C797.01,-213.02 1111.16,-202.92 1144.17,-171 1180.43,-135.93 1173.7,-69.68 1167.55,-36.89"/>
<polygon fill="midnightblue" stroke="midnightblue" points="1170.92,-35.88 1165.47,-26.79 1164.06,-37.29 1170.92,-35.88"/>
</g>
<!-- Node18 -->
<g id="node18" class="node">
<title>Node18</title>
<g id="a_node18"><a xlink:href="timer_8h.html" target="_top" xlink:title=" ">
<polygon fill="white" stroke="black" points="446.05,-144.5 446.05,-164.5 534.28,-164.5 534.28,-144.5 446.05,-144.5"/>
<text text-anchor="middle" x="490.17" y="-151.5" font-family="Helvetica,sans-Serif" font-size="10.00">haldls/vx/timer.h</text>
</a>
</g>
</g>
<!-- Node2&#45;&gt;Node18 -->
<g id="edge19" class="edge">
<title>Node2&#45;&gt;Node18</title>
<path fill="none" stroke="midnightblue" d="M616.33,-207.5C591.3,-197.18 550.07,-180.19 521.59,-168.45"/>
<polygon fill="midnightblue" stroke="midnightblue" points="522.67,-165.11 512.1,-164.54 520.01,-171.58 522.67,-165.11"/>
</g>
<!-- Node21 -->
<g id="node21" class="node">
<title>Node21</title>
<g id="a_node21"><a xlink:href="traits_8h.html" target="_top" xlink:title=" ">
<polygon fill="white" stroke="black" points="563.33,-75.5 563.33,-95.5 651.01,-95.5 651.01,-75.5 563.33,-75.5"/>
<text text-anchor="middle" x="607.17" y="-82.5" font-family="Helvetica,sans-Serif" font-size="10.00">haldls/vx/traits.h</text>
</a>
</g>
</g>
<!-- Node2&#45;&gt;Node21 -->
<g id="edge38" class="edge">
<title>Node2&#45;&gt;Node21</title>
<path fill="none" stroke="midnightblue" d="M621.62,-207.35C609.3,-199.51 593.4,-186.95 586.17,-171 576.35,-149.37 586.5,-122.45 595.8,-104.89"/>
<polygon fill="midnightblue" stroke="midnightblue" points="599.11,-106.16 601.02,-95.74 593.03,-102.69 599.11,-106.16"/>
</g>
<!-- Node9&#45;&gt;Node4 -->
<g id="edge12" class="edge">
<title>Node9&#45;&gt;Node4</title>
<path fill="none" stroke="midnightblue" d="M145.88,-75.32C123.4,-65.11 86.1,-48.07 54.17,-33 52.81,-32.36 51.42,-31.7 50.01,-31.03"/>
<polygon fill="midnightblue" stroke="midnightblue" points="51.28,-27.75 40.75,-26.58 48.25,-34.06 51.28,-27.75"/>
</g>
<!-- Node10 -->
<g id="node10" class="node">
<title>Node10</title>
<g id="a_node10"><a xlink:title=" ">
<polygon fill="white" stroke="#bfbfbf" points="341.54,-6.5 341.54,-26.5 424.79,-26.5 424.79,-6.5 341.54,-6.5"/>
<text text-anchor="middle" x="383.17" y="-13.5" font-family="Helvetica,sans-Serif" font-size="10.00">hate/type_list.h</text>
</a>
</g>
</g>
<!-- Node9&#45;&gt;Node10 -->
<g id="edge9" class="edge">
<title>Node9&#45;&gt;Node10</title>
<path fill="none" stroke="midnightblue" d="M195.43,-75.49C228.78,-65.22 284.91,-47.92 333.17,-33 336.77,-31.89 340.51,-30.73 344.26,-29.57"/>
<polygon fill="midnightblue" stroke="midnightblue" points="345.57,-32.83 354.09,-26.52 343.5,-26.14 345.57,-32.83"/>
</g>
<!-- Node9&#45;&gt;Node11 -->
<g id="edge10" class="edge">
<title>Node9&#45;&gt;Node11</title>
<path fill="none" stroke="midnightblue" d="M181.95,-75.46C201.57,-64.23 235.3,-44.91 258.39,-31.69"/>
<polygon fill="midnightblue" stroke="midnightblue" points="260.33,-34.61 267.26,-26.61 256.85,-28.54 260.33,-34.61"/>
</g>
<!-- Node12 -->
<g id="node12" class="node">
<title>Node12</title>
<g id="a_node12"><a xlink:title=" ">
<polygon fill="white" stroke="#bfbfbf" points="62.72,-6.5 62.72,-26.5 107.62,-26.5 107.62,-6.5 62.72,-6.5"/>
<text text-anchor="middle" x="85.17" y="-13.5" font-family="Helvetica,sans-Serif" font-size="10.00">cstdint</text>
</a>
</g>
</g>
<!-- Node9&#45;&gt;Node12 -->
<g id="edge11" class="edge">
<title>Node9&#45;&gt;Node12</title>
<path fill="none" stroke="midnightblue" d="M155.24,-75.46C142.2,-64.67 120.16,-46.44 104.27,-33.3"/>
<polygon fill="midnightblue" stroke="midnightblue" points="106.11,-30.28 96.18,-26.61 101.65,-35.68 106.11,-30.28"/>
</g>
<!-- Node13 -->
<g id="node13" class="node">
<title>Node13</title>
<g id="a_node13"><a xlink:title=" ">
<polygon fill="white" stroke="#bfbfbf" points="126.05,-6.5 126.05,-26.5 224.29,-26.5 224.29,-6.5 126.05,-6.5"/>
<text text-anchor="middle" x="175.17" y="-13.5" font-family="Helvetica,sans-Serif" font-size="10.00">cereal/macros.hpp</text>
</a>
</g>
</g>
<!-- Node9&#45;&gt;Node13 -->
<g id="edge13" class="edge">
<title>Node9&#45;&gt;Node13</title>
<path fill="none" stroke="midnightblue" d="M167.38,-75.46C168.7,-65.63 170.85,-49.61 172.56,-36.9"/>
<polygon fill="midnightblue" stroke="midnightblue" points="176.05,-37.2 173.92,-26.82 169.11,-36.27 176.05,-37.2"/>
</g>
<!-- Node15 -->
<g id="node15" class="node">
<title>Node15</title>
<g id="a_node15"><a xlink:title=" ">
<polygon fill="white" stroke="#bfbfbf" points="1027.11,-6.5 1027.11,-26.5 1089.23,-26.5 1089.23,-6.5 1027.11,-6.5"/>
<text text-anchor="middle" x="1058.17" y="-13.5" font-family="Helvetica,sans-Serif" font-size="10.00">type_traits</text>
</a>
</g>
</g>
<!-- Node14&#45;&gt;Node15 -->
<g id="edge15" class="edge">
<title>Node14&#45;&gt;Node15</title>
<path fill="none" stroke="midnightblue" d="M1081.45,-144.15C1077.38,-122.02 1067.09,-66.04 1061.65,-36.47"/>
<polygon fill="midnightblue" stroke="midnightblue" points="1065.08,-35.76 1059.83,-26.56 1058.2,-37.02 1065.08,-35.76"/>
</g>
<!-- Node16 -->
<g id="node16" class="node">
<title>Node16</title>
<g id="a_node16"><a xlink:title=" ">
<polygon fill="white" stroke="#bfbfbf" points="1085.78,-75.5 1085.78,-95.5 1124.55,-95.5 1124.55,-75.5 1085.78,-75.5"/>
<text text-anchor="middle" x="1105.17" y="-82.5" font-family="Helvetica,sans-Serif" font-size="10.00">utility</text>
</a>
</g>
</g>
<!-- Node14&#45;&gt;Node16 -->
<g id="edge16" class="edge">
<title>Node14&#45;&gt;Node16</title>
<path fill="none" stroke="midnightblue" d="M1086.13,-144.46C1089.4,-134.53 1094.73,-118.28 1098.92,-105.52"/>
<polygon fill="midnightblue" stroke="midnightblue" points="1102.31,-106.42 1102.11,-95.82 1095.66,-104.23 1102.31,-106.42"/>
</g>
<!-- Node17&#45;&gt;Node17 -->
<g id="edge18" class="edge">
<title>Node17&#45;&gt;Node17</title>
<path fill="none" stroke="midnightblue" d="M1187.06,-26.54C1210.89,-32.26 1237.24,-28.92 1237.24,-16.5 1237.24,-5.78 1217.6,-1.82 1196.9,-4.62"/>
<polygon fill="midnightblue" stroke="midnightblue" points="1196.25,-1.18 1187.06,-6.46 1197.54,-8.06 1196.25,-1.18"/>
</g>
<!-- Node18&#45;&gt;Node3 -->
<g id="edge20" class="edge">
<title>Node18&#45;&gt;Node3</title>
<path fill="none" stroke="midnightblue" d="M534.45,-144.82C576.07,-136.06 639.77,-121.12 693.17,-102 695.09,-101.31 697.05,-100.55 699.01,-99.75"/>
<polygon fill="midnightblue" stroke="midnightblue" points="700.89,-102.74 708.62,-95.5 698.06,-96.34 700.89,-102.74"/>
</g>
<!-- Node18&#45;&gt;Node4 -->
<g id="edge21" class="edge">
<title>Node18&#45;&gt;Node4</title>
<path fill="none" stroke="midnightblue" d="M445.99,-151.33C357.4,-146.39 161.47,-132.3 102.17,-102 71.88,-86.53 46.84,-54.86 33.23,-35"/>
<polygon fill="midnightblue" stroke="midnightblue" points="36.09,-32.97 27.65,-26.55 30.25,-36.83 36.09,-32.97"/>
</g>
<!-- Node18&#45;&gt;Node5 -->
<g id="edge23" class="edge">
<title>Node18&#45;&gt;Node5</title>
<path fill="none" stroke="midnightblue" d="M534.57,-144.96C587.05,-134.84 677,-117.39 754.17,-102 761.25,-100.59 768.7,-99.09 776.05,-97.6"/>
<polygon fill="midnightblue" stroke="midnightblue" points="776.87,-101 785.97,-95.58 775.48,-94.14 776.87,-101"/>
</g>
<!-- Node18&#45;&gt;Node9 -->
<g id="edge25" class="edge">
<title>Node18&#45;&gt;Node9</title>
<path fill="none" stroke="midnightblue" d="M446.47,-144.46C387.69,-132.31 283.22,-110.71 219.77,-97.58"/>
<polygon fill="midnightblue" stroke="midnightblue" points="220.45,-94.15 209.95,-95.55 219.03,-101.01 220.45,-94.15"/>
</g>
<!-- Node18&#45;&gt;Node11 -->
<g id="edge37" class="edge">
<title>Node18&#45;&gt;Node11</title>
<path fill="none" stroke="midnightblue" d="M497.95,-144.3C511.16,-127.53 534.8,-91.63 516.17,-69 463.2,-4.67 412.91,-53.6 332.17,-33 328.08,-31.96 323.84,-30.77 319.63,-29.53"/>
<polygon fill="midnightblue" stroke="midnightblue" points="320.55,-26.16 309.97,-26.58 318.51,-32.85 320.55,-26.16"/>
</g>
<!-- Node18&#45;&gt;Node17 -->
<g id="edge26" class="edge">
<title>Node18&#45;&gt;Node17</title>
<path fill="none" stroke="midnightblue" d="M534.44,-145.44C569.98,-137.74 620.35,-123.99 660.17,-102 679.75,-91.19 677.59,-77.76 698.17,-69 862.4,0.91 922.01,-61.78 1098.17,-33 1105.01,-31.88 1112.21,-30.44 1119.21,-28.89"/>
<polygon fill="midnightblue" stroke="midnightblue" points="1120.33,-32.22 1129.28,-26.56 1118.75,-25.4 1120.33,-32.22"/>
</g>
<!-- Node19 -->
<g id="node19" class="node">
<title>Node19</title>
<g id="a_node19"><a xlink:title=" ">
<polygon fill="white" stroke="#bfbfbf" points="276.94,-69.5 276.94,-101.5 387.4,-101.5 387.4,-69.5 276.94,-69.5"/>
<text text-anchor="start" x="284.94" y="-88.5" font-family="Helvetica,sans-Serif" font-size="10.00">fisch/vx/word_access</text>
<text text-anchor="middle" x="332.17" y="-76.5" font-family="Helvetica,sans-Serif" font-size="10.00">/type/timer.h</text>
</a>
</g>
</g>
<!-- Node18&#45;&gt;Node19 -->
<g id="edge22" class="edge">
<title>Node18&#45;&gt;Node19</title>
<path fill="none" stroke="midnightblue" d="M468.86,-144.46C445.45,-134.54 407.18,-118.31 377.08,-105.54"/>
<polygon fill="midnightblue" stroke="midnightblue" points="378.19,-102.22 367.62,-101.53 375.46,-108.66 378.19,-102.22"/>
</g>
<!-- Node20 -->
<g id="node20" class="node">
<title>Node20</title>
<g id="a_node20"><a xlink:title=" ">
<polygon fill="white" stroke="#bfbfbf" points="405.66,-69.5 405.66,-101.5 506.68,-101.5 506.68,-69.5 405.66,-69.5"/>
<text text-anchor="start" x="413.66" y="-88.5" font-family="Helvetica,sans-Serif" font-size="10.00">halco/hicann&#45;dls/vx</text>
<text text-anchor="middle" x="456.17" y="-76.5" font-family="Helvetica,sans-Serif" font-size="10.00">/timing.h</text>
</a>
</g>
</g>
<!-- Node18&#45;&gt;Node20 -->
<g id="edge24" class="edge">
<title>Node18&#45;&gt;Node20</title>
<path fill="none" stroke="midnightblue" d="M485.58,-144.46C481.18,-135.78 474.33,-122.28 468.34,-110.5"/>
<polygon fill="midnightblue" stroke="midnightblue" points="471.44,-108.87 463.8,-101.53 465.2,-112.03 471.44,-108.87"/>
</g>
<!-- Node18&#45;&gt;Node21 -->
<g id="edge27" class="edge">
<title>Node18&#45;&gt;Node21</title>
<path fill="none" stroke="midnightblue" d="M505.95,-144.46C525.57,-133.23 559.3,-113.91 582.39,-100.69"/>
<polygon fill="midnightblue" stroke="midnightblue" points="584.33,-103.61 591.26,-95.61 580.85,-97.54 584.33,-103.61"/>
</g>
<!-- Node21&#45;&gt;Node10 -->
<g id="edge31" class="edge">
<title>Node21&#45;&gt;Node10</title>
<path fill="none" stroke="midnightblue" d="M576.53,-75.44C541.94,-65.19 483.98,-47.98 434.17,-33 430.39,-31.86 426.45,-30.67 422.52,-29.48"/>
<polygon fill="midnightblue" stroke="midnightblue" points="423.41,-26.1 412.82,-26.54 421.38,-32.8 423.41,-26.1"/>
</g>
<!-- Node21&#45;&gt;Node11 -->
<g id="edge32" class="edge">
<title>Node21&#45;&gt;Node11</title>
<path fill="none" stroke="midnightblue" d="M575.7,-75.5C567.13,-73.21 557.83,-70.87 549.17,-69 453.61,-48.36 427.23,-55.8 332.17,-33 327.97,-31.99 323.61,-30.81 319.3,-29.56"/>
<polygon fill="midnightblue" stroke="midnightblue" points="320.01,-26.12 309.42,-26.56 317.97,-32.82 320.01,-26.12"/>
</g>
<!-- Node21&#45;&gt;Node15 -->
<g id="edge33" class="edge">
<title>Node21&#45;&gt;Node15</title>
<path fill="none" stroke="midnightblue" d="M637.36,-75.45C646.25,-73.06 656.04,-70.67 665.17,-69 820.28,-40.55 864.82,-69.82 1018.17,-33 1021.43,-32.22 1024.78,-31.23 1028.08,-30.14"/>
<polygon fill="midnightblue" stroke="midnightblue" points="1029.54,-33.33 1037.74,-26.63 1027.15,-26.75 1029.54,-33.33"/>
</g>
<!-- Node21&#45;&gt;Node17 -->
<g id="edge30" class="edge">
<title>Node21&#45;&gt;Node17</title>
<path fill="none" stroke="midnightblue" d="M637.04,-75.43C646.01,-73 655.93,-70.61 665.17,-69 855.43,-35.94 907.48,-63.48 1098.17,-33 1105.09,-31.89 1112.38,-30.44 1119.46,-28.88"/>
<polygon fill="midnightblue" stroke="midnightblue" points="1120.67,-32.19 1129.63,-26.52 1119.09,-25.37 1120.67,-32.19"/>
</g>
<!-- Node22 -->
<g id="node22" class="node">
<title>Node22</title>
<g id="a_node22"><a xlink:title=" ">
<polygon fill="white" stroke="#bfbfbf" points="443.11,-6.5 443.11,-26.5 525.23,-26.5 525.23,-6.5 443.11,-6.5"/>
<text text-anchor="middle" x="484.17" y="-13.5" font-family="Helvetica,sans-Serif" font-size="10.00">fisch/vx/traits.h</text>
</a>
</g>
</g>
<!-- Node21&#45;&gt;Node22 -->
<g id="edge28" class="edge">
<title>Node21&#45;&gt;Node22</title>
<path fill="none" stroke="midnightblue" d="M590.58,-75.46C569.85,-64.18 534.17,-44.74 509.89,-31.51"/>
<polygon fill="midnightblue" stroke="midnightblue" points="511.34,-28.32 500.89,-26.61 507.99,-34.46 511.34,-28.32"/>
</g>
<!-- Node23 -->
<g id="node23" class="node">
<title>Node23</title>
<g id="a_node23"><a xlink:title=" ">
<polygon fill="white" stroke="#bfbfbf" points="542.94,-0.5 542.94,-32.5 653.4,-32.5 653.4,-0.5 542.94,-0.5"/>
<text text-anchor="start" x="550.94" y="-19.5" font-family="Helvetica,sans-Serif" font-size="10.00">fisch/vx/word_access</text>
<text text-anchor="middle" x="598.17" y="-7.5" font-family="Helvetica,sans-Serif" font-size="10.00">_type.h</text>
</a>
</g>
</g>
<!-- Node21&#45;&gt;Node23 -->
<g id="edge29" class="edge">
<title>Node21&#45;&gt;Node23</title>
<path fill="none" stroke="midnightblue" d="M605.95,-75.46C604.82,-67.04 603.08,-54.08 601.53,-42.55"/>
<polygon fill="midnightblue" stroke="midnightblue" points="604.99,-41.98 600.19,-32.53 598.05,-42.91 604.99,-41.98"/>
</g>
<!-- Node24 -->
<g id="node24" class="node">
<title>Node24</title>
<g id="a_node24"><a xlink:title=" ">
<polygon fill="white" stroke="#bfbfbf" points="671.77,-0.5 671.77,-32.5 770.57,-32.5 770.57,-0.5 671.77,-0.5"/>
<text text-anchor="start" x="679.77" y="-19.5" font-family="Helvetica,sans-Serif" font-size="10.00">boost/utility/enable</text>
<text text-anchor="middle" x="721.17" y="-7.5" font-family="Helvetica,sans-Serif" font-size="10.00">_if.hpp</text>
</a>
</g>
</g>
<!-- Node21&#45;&gt;Node24 -->
<g id="edge34" class="edge">
<title>Node21&#45;&gt;Node24</title>
<path fill="none" stroke="midnightblue" d="M622.54,-75.46C638.92,-65.84 665.38,-50.29 686.77,-37.71"/>
<polygon fill="midnightblue" stroke="midnightblue" points="688.74,-40.62 695.59,-32.53 685.19,-34.58 688.74,-40.62"/>
</g>
<!-- Node25 -->
<g id="node25" class="node">
<title>Node25</title>
<g id="a_node25"><a xlink:title=" ">
<polygon fill="white" stroke="#bfbfbf" points="788.82,-6.5 788.82,-26.5 881.51,-26.5 881.51,-6.5 788.82,-6.5"/>
<text text-anchor="middle" x="835.17" y="-13.5" font-family="Helvetica,sans-Serif" font-size="10.00">boost/variant.hpp</text>
</a>
</g>
</g>
<!-- Node21&#45;&gt;Node25 -->
<g id="edge35" class="edge">
<title>Node21&#45;&gt;Node25</title>
<path fill="none" stroke="midnightblue" d="M637.92,-75.46C678.37,-63.58 749.58,-42.65 794.47,-29.46"/>
<polygon fill="midnightblue" stroke="midnightblue" points="795.57,-32.78 804.18,-26.61 793.6,-26.07 795.57,-32.78"/>
</g>
<!-- Node26 -->
<g id="node26" class="node">
<title>Node26</title>
<g id="a_node26"><a xlink:title=" ">
<polygon fill="white" stroke="#bfbfbf" points="899.21,-6.5 899.21,-26.5 1009.12,-26.5 1009.12,-6.5 899.21,-6.5"/>
<text text-anchor="middle" x="954.17" y="-13.5" font-family="Helvetica,sans-Serif" font-size="10.00">fisch/vx/container.def</text>
</a>
</g>
</g>
<!-- Node21&#45;&gt;Node26 -->
<g id="edge36" class="edge">
<title>Node21&#45;&gt;Node26</title>
<path fill="none" stroke="midnightblue" d="M638.63,-75.46C647.2,-73.17 656.5,-70.85 665.17,-69 764.22,-47.9 790.88,-52.93 890.17,-33 896.35,-31.76 902.83,-30.33 909.21,-28.86"/>
<polygon fill="midnightblue" stroke="midnightblue" points="910.14,-32.24 919.07,-26.53 908.53,-25.43 910.14,-32.24"/>
</g>
</g>
</svg>
