<?xml version="1.0" encoding="UTF-8" standalone="no"?>
<!DOCTYPE svg PUBLIC "-//W3C//DTD SVG 1.1//EN"
 "http://www.w3.org/Graphics/SVG/1.1/DTD/svg11.dtd">
<!-- Generated by graphviz version 2.46.0 (0)
 -->
<!-- Title: /jenkins/jenlib_workspaces_f9/bld_nightly&#45;haldls.YmxkX25pZ2h0bHktaGFsZGxzIzEzNzk.x/haldls/include/haldls/vx/v2/synapse.h Pages: 1 -->
<!--zoomable 260 -->
<svg id="main" version="1.1" xmlns="http://www.w3.org/2000/svg" xmlns:xlink="http://www.w3.org/1999/xlink" xml:space="preserve" onload="init(evt)">
<style type="text/css"><![CDATA[
.edge:hover path { stroke: red; }
.edge:hover polygon { stroke: red; fill: red; }
]]></style>
<script type="text/javascript"><![CDATA[
var edges = document.getElementsByTagName('g');
if (edges && edges.length) {
  for (var i=0;i<edges.length;i++) {
    if (edges[i].id.substr(0,4)=='edge') {
      edges[i].setAttribute('class','edge');
    }
  }
}
]]></script>
        <defs>
                <circle id="rim" cx="0" cy="0" r="7"/>
                <circle id="rim2" cx="0" cy="0" r="3.5"/>
                <g id="zoomPlus">
                        <use xlink:href="#rim" fill="#404040">
                                <set attributeName="fill" to="#808080" begin="zoomplus.mouseover" end="zoomplus.mouseout"/>
                        </use>
                        <path d="M-4,0h8M0,-4v8" fill="none" stroke="white" stroke-width="1.5" pointer-events="none"/>
                </g>
                <g id="zoomMin">
                        <use xlink:href="#rim" fill="#404040">
                                <set attributeName="fill" to="#808080" begin="zoomminus.mouseover" end="zoomminus.mouseout"/>
                        </use>
                        <path d="M-4,0h8" fill="none" stroke="white" stroke-width="1.5" pointer-events="none"/>
                </g>
                <g id="dirArrow">
                        <path fill="none" stroke="white" stroke-width="1.5" d="M0,-3.0v7 M-2.5,-0.5L0,-3.0L2.5,-0.5"/>
                </g>
               <g id="resetDef">
                       <use xlink:href="#rim2" fill="#404040">
                               <set attributeName="fill" to="#808080" begin="reset.mouseover" end="reset.mouseout"/>
                       </use>
               </g>
        </defs>

<script type="text/javascript">
var viewWidth = 1560;
var viewHeight = 260;
var sectionId = 'dynsection-0';
</script>
<script xlink:href="svgpan.js"/>
<svg id="graph" class="graph">
<g id="viewport">
<title>/jenkins/jenlib_workspaces_f9/bld_nightly&#45;haldls.YmxkX25pZ2h0bHktaGFsZGxzIzEzNzk.x/haldls/include/haldls/vx/v2/synapse.h</title>
<polygon fill="white" stroke="transparent" points="-4,4 -4,-256 1556.24,-256 1556.24,4 -4,4"/>
<!-- Node1 -->
<g id="node1" class="node">
<title>Node1</title>
<g id="a_node1"><a xlink:title=" ">
<polygon fill="#bfbfbf" stroke="black" points="884.66,-195.5 884.66,-251.5 1065.68,-251.5 1065.68,-195.5 884.66,-195.5"/>
<text text-anchor="start" x="892.66" y="-238.5" font-family="Helvetica,sans-Serif" font-size="10.00">/jenkins/jenlib_workspaces</text>
<text text-anchor="start" x="892.66" y="-226.5" font-family="Helvetica,sans-Serif" font-size="10.00">_f9/bld_nightly&#45;haldls.YmxkX25p</text>
<text text-anchor="start" x="892.66" y="-214.5" font-family="Helvetica,sans-Serif" font-size="10.00">Z2h0bHktaGFsZGxzIzEzNzk.x/haldls</text>
<text text-anchor="middle" x="975.17" y="-202.5" font-family="Helvetica,sans-Serif" font-size="10.00">/include/haldls/vx/v2/synapse.h</text>
</a>
</g>
</g>
<!-- Node2 -->
<g id="node2" class="node">
<title>Node2</title>
<g id="a_node2"><a xlink:href="genpybind_8h.html" target="_top" xlink:title=" ">
<polygon fill="white" stroke="black" points="1422.1,-6.5 1422.1,-26.5 1534.24,-26.5 1534.24,-6.5 1422.1,-6.5"/>
<text text-anchor="middle" x="1478.17" y="-13.5" font-family="Helvetica,sans-Serif" font-size="10.00">haldls/vx/genpybind.h</text>
</a>
</g>
</g>
<!-- Node1&#45;&gt;Node2 -->
<g id="edge1" class="edge">
<title>Node1&#45;&gt;Node2</title>
<path fill="none" stroke="midnightblue" d="M1053.2,-195.41C1119.06,-172.07 1215.54,-136.74 1298.17,-102 1353.29,-78.82 1416.23,-48.33 1451.17,-31.02"/>
<polygon fill="midnightblue" stroke="midnightblue" points="1452.85,-34.1 1460.25,-26.51 1449.73,-27.83 1452.85,-34.1"/>
</g>
<!-- Node3 -->
<g id="node3" class="node">
<title>Node3</title>
<g id="a_node3"><a xlink:href="synapse_8h.html" target="_top" xlink:title=" ">
<polygon fill="white" stroke="black" points="671.54,-138.5 671.54,-158.5 774.79,-158.5 774.79,-138.5 671.54,-138.5"/>
<text text-anchor="middle" x="723.17" y="-145.5" font-family="Helvetica,sans-Serif" font-size="10.00">haldls/vx/synapse.h</text>
</a>
</g>
</g>
<!-- Node1&#45;&gt;Node3 -->
<g id="edge3" class="edge">
<title>Node1&#45;&gt;Node3</title>
<path fill="none" stroke="midnightblue" d="M884.55,-196.25C843.24,-184.28 796.42,-170.72 763.89,-161.3"/>
<polygon fill="midnightblue" stroke="midnightblue" points="764.85,-157.93 754.27,-158.51 762.9,-164.65 764.85,-157.93"/>
</g>
<!-- Node2&#45;&gt;Node2 -->
<g id="edge2" class="edge">
<title>Node2&#45;&gt;Node2</title>
<path fill="none" stroke="midnightblue" d="M1502.06,-26.54C1525.89,-32.26 1552.24,-28.92 1552.24,-16.5 1552.24,-5.78 1532.6,-1.82 1511.9,-4.62"/>
<polygon fill="midnightblue" stroke="midnightblue" points="1511.25,-1.18 1502.06,-6.46 1512.54,-8.06 1511.25,-1.18"/>
</g>
<!-- Node3&#45;&gt;Node2 -->
<g id="edge20" class="edge">
<title>Node3&#45;&gt;Node2</title>
<path fill="none" stroke="midnightblue" d="M775.12,-146.88C867.47,-144.88 1065.86,-136.54 1229.17,-102 1310.1,-84.88 1401.21,-49.66 1447.55,-30.54"/>
<polygon fill="midnightblue" stroke="midnightblue" points="1449.11,-33.68 1457,-26.61 1446.42,-27.22 1449.11,-33.68"/>
</g>
<!-- Node4 -->
<g id="node4" class="node">
<title>Node4</title>
<g id="a_node4"><a xlink:title=" ">
<polygon fill="white" stroke="#bfbfbf" points="30.78,-75.5 30.78,-95.5 69.56,-95.5 69.56,-75.5 30.78,-75.5"/>
<text text-anchor="middle" x="50.17" y="-82.5" font-family="Helvetica,sans-Serif" font-size="10.00">array</text>
</a>
</g>
</g>
<!-- Node3&#45;&gt;Node4 -->
<g id="edge4" class="edge">
<title>Node3&#45;&gt;Node4</title>
<path fill="none" stroke="midnightblue" d="M671.17,-146.72C538.28,-144.27 188.9,-134.8 78.17,-102 76.48,-101.5 74.79,-100.89 73.11,-100.2"/>
<polygon fill="midnightblue" stroke="midnightblue" points="74.4,-96.93 63.88,-95.65 71.3,-103.21 74.4,-96.93"/>
</g>
<!-- Node5 -->
<g id="node5" class="node">
<title>Node5</title>
<g id="a_node5"><a xlink:title=" ">
<polygon fill="white" stroke="#bfbfbf" points="0,-6.5 0,-26.5 44.34,-26.5 44.34,-6.5 0,-6.5"/>
<text text-anchor="middle" x="22.17" y="-13.5" font-family="Helvetica,sans-Serif" font-size="10.00">iosfwd</text>
</a>
</g>
</g>
<!-- Node3&#45;&gt;Node5 -->
<g id="edge5" class="edge">
<title>Node3&#45;&gt;Node5</title>
<path fill="none" stroke="midnightblue" d="M671.53,-148.11C517.04,-149.41 66.32,-149.11 22.17,-102 5.91,-84.65 10.24,-55.39 15.6,-36.27"/>
<polygon fill="midnightblue" stroke="midnightblue" points="18.99,-37.17 18.65,-26.58 12.31,-35.07 18.99,-37.17"/>
</g>
<!-- Node6 -->
<g id="node6" class="node">
<title>Node6</title>
<g id="a_node6"><a xlink:title=" ">
<polygon fill="white" stroke="#bfbfbf" points="215.27,-75.5 215.27,-95.5 349.07,-95.5 349.07,-75.5 215.27,-75.5"/>
<text text-anchor="middle" x="282.17" y="-82.5" font-family="Helvetica,sans-Serif" font-size="10.00">halco/common/geometry.h</text>
</a>
</g>
</g>
<!-- Node3&#45;&gt;Node6 -->
<g id="edge6" class="edge">
<title>Node3&#45;&gt;Node6</title>
<path fill="none" stroke="midnightblue" d="M671.31,-142.31C600.38,-134.92 469.23,-120.22 358.17,-102 350.14,-100.68 341.66,-99.12 333.4,-97.51"/>
<polygon fill="midnightblue" stroke="midnightblue" points="333.97,-94.05 323.48,-95.53 332.6,-100.92 333.97,-94.05"/>
</g>
<!-- Node7 -->
<g id="node7" class="node">
<title>Node7</title>
<g id="a_node7"><a xlink:title=" ">
<polygon fill="white" stroke="#bfbfbf" points="367.05,-69.5 367.05,-101.5 475.29,-101.5 475.29,-69.5 367.05,-69.5"/>
<text text-anchor="start" x="375.05" y="-88.5" font-family="Helvetica,sans-Serif" font-size="10.00">halco/common/typed</text>
<text text-anchor="middle" x="421.17" y="-76.5" font-family="Helvetica,sans-Serif" font-size="10.00">_array.h</text>
</a>
</g>
</g>
<!-- Node3&#45;&gt;Node7 -->
<g id="edge7" class="edge">
<title>Node3&#45;&gt;Node7</title>
<path fill="none" stroke="midnightblue" d="M671.26,-138.44C624.91,-130.16 554.97,-117.22 485.25,-102.18"/>
<polygon fill="midnightblue" stroke="midnightblue" points="485.94,-98.74 475.42,-100.04 484.45,-105.59 485.94,-98.74"/>
</g>
<!-- Node8 -->
<g id="node8" class="node">
<title>Node8</title>
<g id="a_node8"><a xlink:title=" ">
<polygon fill="white" stroke="#bfbfbf" points="493.66,-69.5 493.66,-101.5 594.68,-101.5 594.68,-69.5 493.66,-69.5"/>
<text text-anchor="start" x="501.66" y="-88.5" font-family="Helvetica,sans-Serif" font-size="10.00">halco/hicann&#45;dls/vx</text>
<text text-anchor="middle" x="544.17" y="-76.5" font-family="Helvetica,sans-Serif" font-size="10.00">/capmem.h</text>
</a>
</g>
</g>
<!-- Node3&#45;&gt;Node8 -->
<g id="edge8" class="edge">
<title>Node3&#45;&gt;Node8</title>
<path fill="none" stroke="midnightblue" d="M696.76,-138.5C670.93,-129.7 630.85,-116.04 598.25,-104.93"/>
<polygon fill="midnightblue" stroke="midnightblue" points="598.99,-101.49 588.4,-101.57 596.73,-108.11 598.99,-101.49"/>
</g>
<!-- Node9 -->
<g id="node9" class="node">
<title>Node9</title>
<g id="a_node9"><a xlink:title=" ">
<polygon fill="white" stroke="#bfbfbf" points="612.66,-69.5 612.66,-101.5 713.68,-101.5 713.68,-69.5 612.66,-69.5"/>
<text text-anchor="start" x="620.66" y="-88.5" font-family="Helvetica,sans-Serif" font-size="10.00">halco/hicann&#45;dls/vx</text>
<text text-anchor="middle" x="663.17" y="-76.5" font-family="Helvetica,sans-Serif" font-size="10.00">/switch_rows.h</text>
</a>
</g>
</g>
<!-- Node3&#45;&gt;Node9 -->
<g id="edge9" class="edge">
<title>Node3&#45;&gt;Node9</title>
<path fill="none" stroke="midnightblue" d="M714.31,-138.5C706.65,-130.71 695.25,-119.12 685.16,-108.86"/>
<polygon fill="midnightblue" stroke="midnightblue" points="687.62,-106.37 678.11,-101.69 682.63,-111.27 687.62,-106.37"/>
</g>
<!-- Node10 -->
<g id="node10" class="node">
<title>Node10</title>
<g id="a_node10"><a xlink:title=" ">
<polygon fill="white" stroke="#bfbfbf" points="731.66,-69.5 731.66,-101.5 832.68,-101.5 832.68,-69.5 731.66,-69.5"/>
<text text-anchor="start" x="739.66" y="-88.5" font-family="Helvetica,sans-Serif" font-size="10.00">halco/hicann&#45;dls/vx</text>
<text text-anchor="middle" x="782.17" y="-76.5" font-family="Helvetica,sans-Serif" font-size="10.00">/synapse.h</text>
</a>
</g>
</g>
<!-- Node3&#45;&gt;Node10 -->
<g id="edge10" class="edge">
<title>Node3&#45;&gt;Node10</title>
<path fill="none" stroke="midnightblue" d="M731.87,-138.5C739.33,-130.79 750.4,-119.35 760.25,-109.16"/>
<polygon fill="midnightblue" stroke="midnightblue" points="763.04,-111.31 767.47,-101.69 758.01,-106.45 763.04,-111.31"/>
</g>
<!-- Node11 -->
<g id="node11" class="node">
<title>Node11</title>
<g id="a_node11"><a xlink:href="cerealization_8h.html" target="_top" xlink:title=" ">
<polygon fill="white" stroke="black" points="87.49,-75.5 87.49,-95.5 196.84,-95.5 196.84,-75.5 87.49,-75.5"/>
<text text-anchor="middle" x="142.17" y="-82.5" font-family="Helvetica,sans-Serif" font-size="10.00">haldls/cerealization.h</text>
</a>
</g>
</g>
<!-- Node3&#45;&gt;Node11 -->
<g id="edge11" class="edge">
<title>Node3&#45;&gt;Node11</title>
<path fill="none" stroke="midnightblue" d="M671.48,-145.52C578.06,-141.36 375.1,-129.73 206.17,-102 199.42,-100.89 192.34,-99.46 185.44,-97.91"/>
<polygon fill="midnightblue" stroke="midnightblue" points="186.06,-94.46 175.52,-95.58 184.46,-101.27 186.06,-94.46"/>
</g>
<!-- Node13 -->
<g id="node13" class="node">
<title>Node13</title>
<g id="a_node13"><a xlink:title=" ">
<polygon fill="white" stroke="#bfbfbf" points="501.66,-6.5 501.66,-26.5 582.67,-26.5 582.67,-6.5 501.66,-6.5"/>
<text text-anchor="middle" x="542.17" y="-13.5" font-family="Helvetica,sans-Serif" font-size="10.00">hate/visibility.h</text>
</a>
</g>
</g>
<!-- Node3&#45;&gt;Node13 -->
<g id="edge31" class="edge">
<title>Node3&#45;&gt;Node13</title>
<path fill="none" stroke="midnightblue" d="M774.88,-141.28C799.58,-135.42 826.99,-124.05 842.17,-102 850.48,-89.92 851.77,-80.08 842.17,-69 805.26,-26.42 646.1,-45.54 591.17,-33 586.74,-31.99 582.14,-30.77 577.61,-29.46"/>
<polygon fill="midnightblue" stroke="midnightblue" points="578.47,-26.07 567.89,-26.51 576.44,-32.76 578.47,-26.07"/>
</g>
<!-- Node16 -->
<g id="node16" class="node">
<title>Node16</title>
<g id="a_node16"><a xlink:href="common_8h.html" target="_top" xlink:title=" ">
<polygon fill="white" stroke="black" points="888.99,-75.5 888.99,-95.5 993.34,-95.5 993.34,-75.5 888.99,-75.5"/>
<text text-anchor="middle" x="941.17" y="-82.5" font-family="Helvetica,sans-Serif" font-size="10.00">haldls/vx/common.h</text>
</a>
</g>
</g>
<!-- Node3&#45;&gt;Node16 -->
<g id="edge17" class="edge">
<title>Node3&#45;&gt;Node16</title>
<path fill="none" stroke="midnightblue" d="M755.33,-138.5C793.49,-127.82 857.21,-109.99 899.21,-98.24"/>
<polygon fill="midnightblue" stroke="midnightblue" points="900.18,-101.6 908.87,-95.54 898.3,-94.86 900.18,-101.6"/>
</g>
<!-- Node19 -->
<g id="node19" class="node">
<title>Node19</title>
<g id="a_node19"><a xlink:href="traits_8h.html" target="_top" xlink:title=" ">
<polygon fill="white" stroke="black" points="1011.33,-75.5 1011.33,-95.5 1099.01,-95.5 1099.01,-75.5 1011.33,-75.5"/>
<text text-anchor="middle" x="1055.17" y="-82.5" font-family="Helvetica,sans-Serif" font-size="10.00">haldls/vx/traits.h</text>
</a>
</g>
</g>
<!-- Node3&#45;&gt;Node19 -->
<g id="edge21" class="edge">
<title>Node3&#45;&gt;Node19</title>
<path fill="none" stroke="midnightblue" d="M774.96,-140.99C831.25,-133.47 923.68,-119.81 1002.17,-102 1006.94,-100.92 1011.92,-99.65 1016.83,-98.31"/>
<polygon fill="midnightblue" stroke="midnightblue" points="1018.06,-101.6 1026.73,-95.51 1016.15,-94.87 1018.06,-101.6"/>
</g>
<!-- Node25 -->
<g id="node25" class="node">
<title>Node25</title>
<g id="a_node25"><a xlink:title=" ">
<polygon fill="white" stroke="#bfbfbf" points="1116.55,-75.5 1116.55,-95.5 1219.79,-95.5 1219.79,-75.5 1116.55,-75.5"/>
<text text-anchor="middle" x="1168.17" y="-82.5" font-family="Helvetica,sans-Serif" font-size="10.00">hxcomm/vx/target.h</text>
</a>
</g>
</g>
<!-- Node3&#45;&gt;Node25 -->
<g id="edge32" class="edge">
<title>Node3&#45;&gt;Node25</title>
<path fill="none" stroke="midnightblue" d="M774.88,-143.62C849.1,-137.55 989.92,-124.16 1108.17,-102 1114.13,-100.88 1120.37,-99.51 1126.49,-98.04"/>
<polygon fill="midnightblue" stroke="midnightblue" points="1127.73,-101.33 1136.59,-95.51 1126.04,-94.54 1127.73,-101.33"/>
</g>
<!-- Node11&#45;&gt;Node5 -->
<g id="edge15" class="edge">
<title>Node11&#45;&gt;Node5</title>
<path fill="none" stroke="midnightblue" d="M125.98,-75.46C105.76,-64.18 70.95,-44.74 47.26,-31.51"/>
<polygon fill="midnightblue" stroke="midnightblue" points="48.92,-28.43 38.48,-26.61 45.5,-34.54 48.92,-28.43"/>
</g>
<!-- Node12 -->
<g id="node12" class="node">
<title>Node12</title>
<g id="a_node12"><a xlink:title=" ">
<polygon fill="white" stroke="#bfbfbf" points="600.54,-6.5 600.54,-26.5 683.79,-26.5 683.79,-6.5 600.54,-6.5"/>
<text text-anchor="middle" x="642.17" y="-13.5" font-family="Helvetica,sans-Serif" font-size="10.00">hate/type_list.h</text>
</a>
</g>
</g>
<!-- Node11&#45;&gt;Node12 -->
<g id="edge12" class="edge">
<title>Node11&#45;&gt;Node12</title>
<path fill="none" stroke="midnightblue" d="M175.53,-75.46C185.34,-73.06 196.13,-70.67 206.17,-69 376.12,-40.65 423.19,-66.69 592.17,-33 596.98,-32.04 601.99,-30.79 606.9,-29.43"/>
<polygon fill="midnightblue" stroke="midnightblue" points="608.15,-32.71 616.74,-26.5 606.15,-26 608.15,-32.71"/>
</g>
<!-- Node11&#45;&gt;Node13 -->
<g id="edge13" class="edge">
<title>Node11&#45;&gt;Node13</title>
<path fill="none" stroke="midnightblue" d="M177.26,-75.43C186.62,-73.17 196.75,-70.86 206.17,-69 306.74,-49.15 425.53,-32.53 491.51,-23.89"/>
<polygon fill="midnightblue" stroke="midnightblue" points="492.17,-27.33 501.63,-22.57 491.26,-20.39 492.17,-27.33"/>
</g>
<!-- Node14 -->
<g id="node14" class="node">
<title>Node14</title>
<g id="a_node14"><a xlink:title=" ">
<polygon fill="white" stroke="#bfbfbf" points="100.72,-6.5 100.72,-26.5 145.62,-26.5 145.62,-6.5 100.72,-6.5"/>
<text text-anchor="middle" x="123.17" y="-13.5" font-family="Helvetica,sans-Serif" font-size="10.00">cstdint</text>
</a>
</g>
</g>
<!-- Node11&#45;&gt;Node14 -->
<g id="edge14" class="edge">
<title>Node11&#45;&gt;Node14</title>
<path fill="none" stroke="midnightblue" d="M139.61,-75.46C136.79,-65.53 132.18,-49.28 128.56,-36.52"/>
<polygon fill="midnightblue" stroke="midnightblue" points="131.91,-35.49 125.81,-26.82 125.17,-37.4 131.91,-35.49"/>
</g>
<!-- Node15 -->
<g id="node15" class="node">
<title>Node15</title>
<g id="a_node15"><a xlink:title=" ">
<polygon fill="white" stroke="#bfbfbf" points="164.05,-6.5 164.05,-26.5 262.29,-26.5 262.29,-6.5 164.05,-6.5"/>
<text text-anchor="middle" x="213.17" y="-13.5" font-family="Helvetica,sans-Serif" font-size="10.00">cereal/macros.hpp</text>
</a>
</g>
</g>
<!-- Node11&#45;&gt;Node15 -->
<g id="edge16" class="edge">
<title>Node11&#45;&gt;Node15</title>
<path fill="none" stroke="midnightblue" d="M151.74,-75.46C163.01,-64.83 181.93,-46.98 195.8,-33.89"/>
<polygon fill="midnightblue" stroke="midnightblue" points="198.42,-36.23 203.29,-26.82 193.61,-31.14 198.42,-36.23"/>
</g>
<!-- Node17 -->
<g id="node17" class="node">
<title>Node17</title>
<g id="a_node17"><a xlink:title=" ">
<polygon fill="white" stroke="#bfbfbf" points="758.11,-6.5 758.11,-26.5 820.23,-26.5 820.23,-6.5 758.11,-6.5"/>
<text text-anchor="middle" x="789.17" y="-13.5" font-family="Helvetica,sans-Serif" font-size="10.00">type_traits</text>
</a>
</g>
</g>
<!-- Node16&#45;&gt;Node17 -->
<g id="edge18" class="edge">
<title>Node16&#45;&gt;Node17</title>
<path fill="none" stroke="midnightblue" d="M920.67,-75.46C894.49,-63.93 849,-43.87 818.98,-30.64"/>
<polygon fill="midnightblue" stroke="midnightblue" points="820.39,-27.44 809.83,-26.61 817.57,-33.84 820.39,-27.44"/>
</g>
<!-- Node18 -->
<g id="node18" class="node">
<title>Node18</title>
<g id="a_node18"><a xlink:title=" ">
<polygon fill="white" stroke="#bfbfbf" points="701.78,-6.5 701.78,-26.5 740.55,-26.5 740.55,-6.5 701.78,-6.5"/>
<text text-anchor="middle" x="721.17" y="-13.5" font-family="Helvetica,sans-Serif" font-size="10.00">utility</text>
</a>
</g>
</g>
<!-- Node16&#45;&gt;Node18 -->
<g id="edge19" class="edge">
<title>Node16&#45;&gt;Node18</title>
<path fill="none" stroke="midnightblue" d="M903.26,-75.49C855.7,-63.99 777.01,-44.24 749.17,-33 747.78,-32.44 746.38,-31.83 744.98,-31.18"/>
<polygon fill="midnightblue" stroke="midnightblue" points="746.45,-28 735.95,-26.56 743.26,-34.23 746.45,-28"/>
</g>
<!-- Node19&#45;&gt;Node2 -->
<g id="edge24" class="edge">
<title>Node19&#45;&gt;Node2</title>
<path fill="none" stroke="midnightblue" d="M1082.2,-75.48C1090.17,-73.08 1098.96,-70.69 1107.17,-69 1241.28,-41.34 1278.34,-56.92 1413.17,-33 1419.84,-31.82 1426.86,-30.36 1433.71,-28.83"/>
<polygon fill="midnightblue" stroke="midnightblue" points="1434.63,-32.21 1443.58,-26.54 1433.05,-25.39 1434.63,-32.21"/>
</g>
<!-- Node19&#45;&gt;Node12 -->
<g id="edge25" class="edge">
<title>Node19&#45;&gt;Node12</title>
<path fill="none" stroke="midnightblue" d="M1027.61,-75.48C1019.48,-73.09 1010.53,-70.7 1002.17,-69 866.67,-41.5 828.52,-61.22 693.17,-33 688.38,-32 683.4,-30.76 678.5,-29.41"/>
<polygon fill="midnightblue" stroke="midnightblue" points="679.25,-25.98 668.67,-26.54 677.29,-32.7 679.25,-25.98"/>
</g>
<!-- Node19&#45;&gt;Node13 -->
<g id="edge26" class="edge">
<title>Node19&#45;&gt;Node13</title>
<path fill="none" stroke="midnightblue" d="M1028.18,-75.49C1019.92,-73.04 1010.74,-70.61 1002.17,-69 821.96,-35.1 770.99,-68.87 591.17,-33 586.44,-32.06 581.52,-30.82 576.71,-29.46"/>
<polygon fill="midnightblue" stroke="midnightblue" points="577.66,-26.09 567.07,-26.54 575.63,-32.79 577.66,-26.09"/>
</g>
<!-- Node19&#45;&gt;Node17 -->
<g id="edge27" class="edge">
<title>Node19&#45;&gt;Node17</title>
<path fill="none" stroke="midnightblue" d="M1025.84,-75.47C1018.17,-73.24 1009.89,-70.93 1002.17,-69 925.97,-49.96 904.48,-55.26 829.17,-33 826.19,-32.12 823.13,-31.12 820.08,-30.05"/>
<polygon fill="midnightblue" stroke="midnightblue" points="821.13,-26.71 810.53,-26.53 818.7,-33.27 821.13,-26.71"/>
</g>
<!-- Node20 -->
<g id="node20" class="node">
<title>Node20</title>
<g id="a_node20"><a xlink:title=" ">
<polygon fill="white" stroke="#bfbfbf" points="838.11,-6.5 838.11,-26.5 920.23,-26.5 920.23,-6.5 838.11,-6.5"/>
<text text-anchor="middle" x="879.17" y="-13.5" font-family="Helvetica,sans-Serif" font-size="10.00">fisch/vx/traits.h</text>
</a>
</g>
</g>
<!-- Node19&#45;&gt;Node20 -->
<g id="edge22" class="edge">
<title>Node19&#45;&gt;Node20</title>
<path fill="none" stroke="midnightblue" d="M1031.43,-75.46C1000.86,-63.83 947.53,-43.52 912.79,-30.3"/>
<polygon fill="midnightblue" stroke="midnightblue" points="913.68,-26.89 903.09,-26.61 911.19,-33.44 913.68,-26.89"/>
</g>
<!-- Node21 -->
<g id="node21" class="node">
<title>Node21</title>
<g id="a_node21"><a xlink:title=" ">
<polygon fill="white" stroke="#bfbfbf" points="937.94,-0.5 937.94,-32.5 1048.4,-32.5 1048.4,-0.5 937.94,-0.5"/>
<text text-anchor="start" x="945.94" y="-19.5" font-family="Helvetica,sans-Serif" font-size="10.00">fisch/vx/word_access</text>
<text text-anchor="middle" x="993.17" y="-7.5" font-family="Helvetica,sans-Serif" font-size="10.00">_type.h</text>
</a>
</g>
</g>
<!-- Node19&#45;&gt;Node21 -->
<g id="edge23" class="edge">
<title>Node19&#45;&gt;Node21</title>
<path fill="none" stroke="midnightblue" d="M1046.81,-75.46C1038.45,-66.44 1025.28,-52.21 1014.08,-40.1"/>
<polygon fill="midnightblue" stroke="midnightblue" points="1016.44,-37.5 1007.08,-32.53 1011.3,-42.25 1016.44,-37.5"/>
</g>
<!-- Node22 -->
<g id="node22" class="node">
<title>Node22</title>
<g id="a_node22"><a xlink:title=" ">
<polygon fill="white" stroke="#bfbfbf" points="1066.77,-0.5 1066.77,-32.5 1165.57,-32.5 1165.57,-0.5 1066.77,-0.5"/>
<text text-anchor="start" x="1074.77" y="-19.5" font-family="Helvetica,sans-Serif" font-size="10.00">boost/utility/enable</text>
<text text-anchor="middle" x="1116.17" y="-7.5" font-family="Helvetica,sans-Serif" font-size="10.00">_if.hpp</text>
</a>
</g>
</g>
<!-- Node19&#45;&gt;Node22 -->
<g id="edge28" class="edge">
<title>Node19&#45;&gt;Node22</title>
<path fill="none" stroke="midnightblue" d="M1063.39,-75.46C1071.61,-66.44 1084.57,-52.21 1095.59,-40.1"/>
<polygon fill="midnightblue" stroke="midnightblue" points="1098.34,-42.28 1102.48,-32.53 1093.16,-37.57 1098.34,-42.28"/>
</g>
<!-- Node23 -->
<g id="node23" class="node">
<title>Node23</title>
<g id="a_node23"><a xlink:title=" ">
<polygon fill="white" stroke="#bfbfbf" points="1183.82,-6.5 1183.82,-26.5 1276.52,-26.5 1276.52,-6.5 1183.82,-6.5"/>
<text text-anchor="middle" x="1230.17" y="-13.5" font-family="Helvetica,sans-Serif" font-size="10.00">boost/variant.hpp</text>
</a>
</g>
</g>
<!-- Node19&#45;&gt;Node23 -->
<g id="edge29" class="edge">
<title>Node19&#45;&gt;Node23</title>
<path fill="none" stroke="midnightblue" d="M1078.77,-75.46C1109.17,-63.83 1162.19,-43.52 1196.73,-30.3"/>
<polygon fill="midnightblue" stroke="midnightblue" points="1198.29,-33.45 1206.38,-26.61 1195.79,-26.91 1198.29,-33.45"/>
</g>
<!-- Node24 -->
<g id="node24" class="node">
<title>Node24</title>
<g id="a_node24"><a xlink:title=" ">
<polygon fill="white" stroke="#bfbfbf" points="1294.21,-6.5 1294.21,-26.5 1404.12,-26.5 1404.12,-6.5 1294.21,-6.5"/>
<text text-anchor="middle" x="1349.17" y="-13.5" font-family="Helvetica,sans-Serif" font-size="10.00">fisch/vx/container.def</text>
</a>
</g>
</g>
<!-- Node19&#45;&gt;Node24 -->
<g id="edge30" class="edge">
<title>Node19&#45;&gt;Node24</title>
<path fill="none" stroke="midnightblue" d="M1083.92,-75.43C1091.45,-73.19 1099.58,-70.89 1107.17,-69 1185.48,-49.45 1206.38,-50.5 1285.17,-33 1290.96,-31.71 1297.03,-30.31 1303.03,-28.89"/>
<polygon fill="midnightblue" stroke="midnightblue" points="1304.09,-32.24 1313.01,-26.51 1302.47,-25.43 1304.09,-32.24"/>
</g>
</g>
</svg>
        <g id="navigator" transform="translate(0 0)" fill="#404254">
                <rect fill="#f2f5e9" fill-opacity="0.5" stroke="#606060" stroke-width=".5" x="0" y="0" width="60" height="60"/>
                <use id="zoomplus" xlink:href="#zoomPlus" x="17" y="9" onmousedown="handleZoom(evt,'in')"/>
                <use id="zoomminus" xlink:href="#zoomMin" x="42" y="9" onmousedown="handleZoom(evt,'out')"/>
                <use id="reset" xlink:href="#resetDef" x="30" y="36" onmousedown="handleReset()"/>
                <g id="arrowUp" xlink:href="#dirArrow" transform="translate(30 24)" onmousedown="handlePan(0,-1)">
                  <use xlink:href="#rim" fill="#404040">
                        <set attributeName="fill" to="#808080" begin="arrowUp.mouseover" end="arrowUp.mouseout"/>
                  </use>
                  <path fill="none" stroke="white" stroke-width="1.5" d="M0,-3.0v7 M-2.5,-0.5L0,-3.0L2.5,-0.5"/>
                </g>
                <g id="arrowRight" xlink:href="#dirArrow" transform="rotate(90) translate(36 -43)" onmousedown="handlePan(1,0)">
                  <use xlink:href="#rim" fill="#404040">
                        <set attributeName="fill" to="#808080" begin="arrowRight.mouseover" end="arrowRight.mouseout"/>
                  </use>
                  <path fill="none" stroke="white" stroke-width="1.5" d="M0,-3.0v7 M-2.5,-0.5L0,-3.0L2.5,-0.5"/>
                </g>
                <g id="arrowDown" xlink:href="#dirArrow" transform="rotate(180) translate(-30 -48)" onmousedown="handlePan(0,1)">
                  <use xlink:href="#rim" fill="#404040">
                        <set attributeName="fill" to="#808080" begin="arrowDown.mouseover" end="arrowDown.mouseout"/>
                  </use>
                  <path fill="none" stroke="white" stroke-width="1.5" d="M0,-3.0v7 M-2.5,-0.5L0,-3.0L2.5,-0.5"/>
                </g>
                <g id="arrowLeft" xlink:href="#dirArrow" transform="rotate(270) translate(-36 17)" onmousedown="handlePan(-1,0)">
                  <use xlink:href="#rim" fill="#404040">
                        <set attributeName="fill" to="#808080" begin="arrowLeft.mouseover" end="arrowLeft.mouseout"/>
                  </use>
                  <path fill="none" stroke="white" stroke-width="1.5" d="M0,-3.0v7 M-2.5,-0.5L0,-3.0L2.5,-0.5"/>
                </g>
        </g>
        <svg viewBox="0 0 15 15" width="100%" height="30px" preserveAspectRatio="xMaxYMin meet">
         <g id="arrow_out" transform="scale(0.3 0.3)">
          <a xlink:href="v2_2synapse_8h__incl_org.svg" target="_base">
           <rect id="button" ry="5" rx="5" y="6" x="6" height="38" width="38"
                fill="#f2f5e9" fill-opacity="0.5" stroke="#606060" stroke-width="1.0"/>
           <path id="arrow"
             d="M 11.500037,31.436501 C 11.940474,20.09759 22.043105,11.32322 32.158766,21.979434 L 37.068811,17.246167 C 37.068811,17.246167 37.088388,32 37.088388,32 L 22.160133,31.978069 C 22.160133,31.978069 26.997745,27.140456 26.997745,27.140456 C 18.528582,18.264221 13.291696,25.230495 11.500037,31.436501 z"
             style="fill:#404040;"/>
          </a>
         </g>
        </svg>
</svg>
