<?xml version="1.0" encoding="UTF-8" standalone="no"?>
<!DOCTYPE svg PUBLIC "-//W3C//DTD SVG 1.1//EN"
 "http://www.w3.org/Graphics/SVG/1.1/DTD/svg11.dtd">
<!-- Generated by graphviz version 2.46.0 (0)
 -->
<!-- Title: /jenkins/jenlib_workspaces_f9/bld_nightly&#45;haldls.YmxkX25pZ2h0bHktaGFsZGxzIzEzNzk.x/haldls/include/haldls/vx/v2/ppu.h Pages: 1 -->
<svg width="1630pt" height="260pt"
 viewBox="0.00 0.00 1629.65 260.00" xmlns="http://www.w3.org/2000/svg" xmlns:xlink="http://www.w3.org/1999/xlink">
<g id="graph0" class="graph" transform="scale(1 1) rotate(0) translate(4 256)">
<title>/jenkins/jenlib_workspaces_f9/bld_nightly&#45;haldls.YmxkX25pZ2h0bHktaGFsZGxzIzEzNzk.x/haldls/include/haldls/vx/v2/ppu.h</title>
<polygon fill="white" stroke="transparent" points="-4,4 -4,-256 1625.65,-256 1625.65,4 -4,4"/>
<!-- Node1 -->
<g id="node1" class="node">
<title>Node1</title>
<g id="a_node1"><a xlink:title=" ">
<polygon fill="#bfbfbf" stroke="black" points="844.07,-195.5 844.07,-251.5 1025.09,-251.5 1025.09,-195.5 844.07,-195.5"/>
<text text-anchor="start" x="852.07" y="-238.5" font-family="Helvetica,sans-Serif" font-size="10.00">/jenkins/jenlib_workspaces</text>
<text text-anchor="start" x="852.07" y="-226.5" font-family="Helvetica,sans-Serif" font-size="10.00">_f9/bld_nightly&#45;haldls.YmxkX25p</text>
<text text-anchor="start" x="852.07" y="-214.5" font-family="Helvetica,sans-Serif" font-size="10.00">Z2h0bHktaGFsZGxzIzEzNzk.x/haldls</text>
<text text-anchor="middle" x="934.58" y="-202.5" font-family="Helvetica,sans-Serif" font-size="10.00">/include/haldls/vx/v2/ppu.h</text>
</a>
</g>
</g>
<!-- Node2 -->
<g id="node2" class="node">
<title>Node2</title>
<g id="a_node2"><a xlink:href="genpybind_8h.html" target="_top" xlink:title=" ">
<polygon fill="white" stroke="black" points="1491.51,-6.5 1491.51,-26.5 1603.65,-26.5 1603.65,-6.5 1491.51,-6.5"/>
<text text-anchor="middle" x="1547.58" y="-13.5" font-family="Helvetica,sans-Serif" font-size="10.00">haldls/vx/genpybind.h</text>
</a>
</g>
</g>
<!-- Node1&#45;&gt;Node2 -->
<g id="edge1" class="edge">
<title>Node1&#45;&gt;Node2</title>
<path fill="none" stroke="midnightblue" d="M1015.35,-195.49C1149.74,-150.55 1414.05,-62.15 1510.9,-29.77"/>
<polygon fill="midnightblue" stroke="midnightblue" points="1512.16,-33.03 1520.54,-26.54 1509.94,-26.4 1512.16,-33.03"/>
</g>
<!-- Node3 -->
<g id="node3" class="node">
<title>Node3</title>
<g id="a_node3"><a xlink:href="ppu_8h.html" target="_top" xlink:title=" ">
<polygon fill="white" stroke="black" points="652.23,-138.5 652.23,-158.5 734.92,-158.5 734.92,-138.5 652.23,-138.5"/>
<text text-anchor="middle" x="693.58" y="-145.5" font-family="Helvetica,sans-Serif" font-size="10.00">haldls/vx/ppu.h</text>
</a>
</g>
</g>
<!-- Node1&#45;&gt;Node3 -->
<g id="edge3" class="edge">
<title>Node1&#45;&gt;Node3</title>
<path fill="none" stroke="midnightblue" d="M845.18,-195.42C806.67,-183.76 763.61,-170.71 733.25,-161.52"/>
<polygon fill="midnightblue" stroke="midnightblue" points="734.05,-158.1 723.46,-158.55 732.02,-164.8 734.05,-158.1"/>
</g>
<!-- Node2&#45;&gt;Node2 -->
<g id="edge2" class="edge">
<title>Node2&#45;&gt;Node2</title>
<path fill="none" stroke="midnightblue" d="M1571.47,-26.54C1595.3,-32.26 1621.65,-28.92 1621.65,-16.5 1621.65,-5.78 1602.01,-1.82 1581.31,-4.62"/>
<polygon fill="midnightblue" stroke="midnightblue" points="1580.66,-1.18 1571.47,-6.46 1581.95,-8.06 1580.66,-1.18"/>
</g>
<!-- Node3&#45;&gt;Node2 -->
<g id="edge21" class="edge">
<title>Node3&#45;&gt;Node2</title>
<path fill="none" stroke="midnightblue" d="M735.05,-144.18C811.24,-137.83 978.56,-122.73 1118.58,-102 1281.46,-77.88 1321.56,-67.44 1482.58,-33 1488.47,-31.74 1494.64,-30.36 1500.73,-28.95"/>
<polygon fill="midnightblue" stroke="midnightblue" points="1501.93,-32.26 1510.87,-26.57 1500.33,-25.45 1501.93,-32.26"/>
</g>
<!-- Node4 -->
<g id="node4" class="node">
<title>Node4</title>
<g id="a_node4"><a xlink:title=" ">
<polygon fill="white" stroke="#bfbfbf" points="1071.19,-75.5 1071.19,-95.5 1109.97,-95.5 1109.97,-75.5 1071.19,-75.5"/>
<text text-anchor="middle" x="1090.58" y="-82.5" font-family="Helvetica,sans-Serif" font-size="10.00">array</text>
</a>
</g>
</g>
<!-- Node3&#45;&gt;Node4 -->
<g id="edge4" class="edge">
<title>Node3&#45;&gt;Node4</title>
<path fill="none" stroke="midnightblue" d="M735.09,-147.48C804.57,-146.35 948.09,-139.2 1062.58,-102 1064.21,-101.47 1065.86,-100.84 1067.5,-100.14"/>
<polygon fill="midnightblue" stroke="midnightblue" points="1069.13,-103.24 1076.53,-95.65 1066.01,-96.97 1069.13,-103.24"/>
</g>
<!-- Node5 -->
<g id="node5" class="node">
<title>Node5</title>
<g id="a_node5"><a xlink:title=" ">
<polygon fill="white" stroke="#bfbfbf" points="148.41,-6.5 148.41,-26.5 192.75,-26.5 192.75,-6.5 148.41,-6.5"/>
<text text-anchor="middle" x="170.58" y="-13.5" font-family="Helvetica,sans-Serif" font-size="10.00">iosfwd</text>
</a>
</g>
</g>
<!-- Node3&#45;&gt;Node5 -->
<g id="edge5" class="edge">
<title>Node3&#45;&gt;Node5</title>
<path fill="none" stroke="midnightblue" d="M651.92,-147.95C510.25,-149.06 53.49,-148.93 9.58,-102 -31.94,-57.62 80.04,-32.2 138.13,-22.32"/>
<polygon fill="midnightblue" stroke="midnightblue" points="139,-25.73 148.3,-20.66 137.86,-18.82 139,-25.73"/>
</g>
<!-- Node6 -->
<g id="node6" class="node">
<title>Node6</title>
<g id="a_node6"><a xlink:title=" ">
<polygon fill="white" stroke="#bfbfbf" points="18.68,-75.5 18.68,-95.5 152.48,-95.5 152.48,-75.5 18.68,-75.5"/>
<text text-anchor="middle" x="85.58" y="-82.5" font-family="Helvetica,sans-Serif" font-size="10.00">halco/common/geometry.h</text>
</a>
</g>
</g>
<!-- Node3&#45;&gt;Node6 -->
<g id="edge6" class="edge">
<title>Node3&#45;&gt;Node6</title>
<path fill="none" stroke="midnightblue" d="M652,-145.59C562.14,-141.09 343.24,-128.2 161.58,-102 153.15,-100.78 144.25,-99.22 135.62,-97.56"/>
<polygon fill="midnightblue" stroke="midnightblue" points="136.15,-94.1 125.66,-95.58 134.78,-100.96 136.15,-94.1"/>
</g>
<!-- Node7 -->
<g id="node7" class="node">
<title>Node7</title>
<g id="a_node7"><a xlink:title=" ">
<polygon fill="white" stroke="#bfbfbf" points="170.79,-75.5 170.79,-95.5 292.36,-95.5 292.36,-75.5 170.79,-75.5"/>
<text text-anchor="middle" x="231.58" y="-82.5" font-family="Helvetica,sans-Serif" font-size="10.00">halco/common/iter_all.h</text>
</a>
</g>
</g>
<!-- Node3&#45;&gt;Node7 -->
<g id="edge7" class="edge">
<title>Node3&#45;&gt;Node7</title>
<path fill="none" stroke="midnightblue" d="M652.18,-144.1C580.46,-137.89 428.6,-123.38 301.58,-102 294.32,-100.78 286.68,-99.29 279.23,-97.73"/>
<polygon fill="midnightblue" stroke="midnightblue" points="279.74,-94.26 269.22,-95.58 278.26,-101.11 279.74,-94.26"/>
</g>
<!-- Node8 -->
<g id="node8" class="node">
<title>Node8</title>
<g id="a_node8"><a xlink:title=" ">
<polygon fill="white" stroke="#bfbfbf" points="310.46,-69.5 310.46,-101.5 418.7,-101.5 418.7,-69.5 310.46,-69.5"/>
<text text-anchor="start" x="318.46" y="-88.5" font-family="Helvetica,sans-Serif" font-size="10.00">halco/common/typed</text>
<text text-anchor="middle" x="364.58" y="-76.5" font-family="Helvetica,sans-Serif" font-size="10.00">_heap_array.h</text>
</a>
</g>
</g>
<!-- Node3&#45;&gt;Node8 -->
<g id="edge8" class="edge">
<title>Node3&#45;&gt;Node8</title>
<path fill="none" stroke="midnightblue" d="M651.94,-141.33C601.43,-133.63 513.49,-119.55 428.85,-102.19"/>
<polygon fill="midnightblue" stroke="midnightblue" points="429.32,-98.71 418.82,-100.11 427.9,-105.56 429.32,-98.71"/>
</g>
<!-- Node9 -->
<g id="node9" class="node">
<title>Node9</title>
<g id="a_node9"><a xlink:title=" ">
<polygon fill="white" stroke="#bfbfbf" points="437.07,-69.5 437.07,-101.5 538.09,-101.5 538.09,-69.5 437.07,-69.5"/>
<text text-anchor="start" x="445.07" y="-88.5" font-family="Helvetica,sans-Serif" font-size="10.00">halco/hicann&#45;dls/vx</text>
<text text-anchor="middle" x="487.58" y="-76.5" font-family="Helvetica,sans-Serif" font-size="10.00">/ppu.h</text>
</a>
</g>
</g>
<!-- Node3&#45;&gt;Node9 -->
<g id="edge9" class="edge">
<title>Node3&#45;&gt;Node9</title>
<path fill="none" stroke="midnightblue" d="M663.18,-138.5C633.08,-129.59 586.14,-115.69 548.37,-104.5"/>
<polygon fill="midnightblue" stroke="midnightblue" points="549.06,-101.06 538.48,-101.57 547.07,-107.77 549.06,-101.06"/>
</g>
<!-- Node10 -->
<g id="node10" class="node">
<title>Node10</title>
<g id="a_node10"><a xlink:href="cerealization_8h.html" target="_top" xlink:title=" ">
<polygon fill="white" stroke="black" points="555.9,-75.5 555.9,-95.5 665.25,-95.5 665.25,-75.5 555.9,-75.5"/>
<text text-anchor="middle" x="610.58" y="-82.5" font-family="Helvetica,sans-Serif" font-size="10.00">haldls/cerealization.h</text>
</a>
</g>
</g>
<!-- Node3&#45;&gt;Node10 -->
<g id="edge10" class="edge">
<title>Node3&#45;&gt;Node10</title>
<path fill="none" stroke="midnightblue" d="M681.33,-138.5C668.09,-128.77 646.77,-113.1 630.99,-101.5"/>
<polygon fill="midnightblue" stroke="midnightblue" points="633.01,-98.64 622.88,-95.54 628.86,-104.28 633.01,-98.64"/>
</g>
<!-- Node12 -->
<g id="node12" class="node">
<title>Node12</title>
<g id="a_node12"><a xlink:title=" ">
<polygon fill="white" stroke="#bfbfbf" points="570.08,-6.5 570.08,-26.5 651.08,-26.5 651.08,-6.5 570.08,-6.5"/>
<text text-anchor="middle" x="610.58" y="-13.5" font-family="Helvetica,sans-Serif" font-size="10.00">hate/visibility.h</text>
</a>
</g>
</g>
<!-- Node3&#45;&gt;Node12 -->
<g id="edge32" class="edge">
<title>Node3&#45;&gt;Node12</title>
<path fill="none" stroke="midnightblue" d="M693.23,-138.04C692.25,-122.48 688.55,-91.02 674.58,-69 664.86,-53.69 649.01,-40.88 635.52,-31.87"/>
<polygon fill="midnightblue" stroke="midnightblue" points="637.39,-28.92 627.07,-26.51 633.64,-34.82 637.39,-28.92"/>
</g>
<!-- Node15 -->
<g id="node15" class="node">
<title>Node15</title>
<g id="a_node15"><a xlink:href="common_8h.html" target="_top" xlink:title=" ">
<polygon fill="white" stroke="black" points="721.41,-75.5 721.41,-95.5 825.75,-95.5 825.75,-75.5 721.41,-75.5"/>
<text text-anchor="middle" x="773.58" y="-82.5" font-family="Helvetica,sans-Serif" font-size="10.00">haldls/vx/common.h</text>
</a>
</g>
</g>
<!-- Node3&#45;&gt;Node15 -->
<g id="edge16" class="edge">
<title>Node3&#45;&gt;Node15</title>
<path fill="none" stroke="midnightblue" d="M705.38,-138.5C718.03,-128.86 738.32,-113.39 753.48,-101.82"/>
<polygon fill="midnightblue" stroke="midnightblue" points="755.9,-104.38 761.73,-95.54 751.65,-98.82 755.9,-104.38"/>
</g>
<!-- Node18 -->
<g id="node18" class="node">
<title>Node18</title>
<g id="a_node18"><a xlink:href="coordinate__to__container_8h.html" target="_top" xlink:title=" ">
<polygon fill="white" stroke="black" points="843.4,-69.5 843.4,-101.5 947.76,-101.5 947.76,-69.5 843.4,-69.5"/>
<text text-anchor="start" x="851.4" y="-88.5" font-family="Helvetica,sans-Serif" font-size="10.00">haldls/vx/coordinate</text>
<text text-anchor="middle" x="895.58" y="-76.5" font-family="Helvetica,sans-Serif" font-size="10.00">_to_container.h</text>
</a>
</g>
</g>
<!-- Node3&#45;&gt;Node18 -->
<g id="edge19" class="edge">
<title>Node3&#45;&gt;Node18</title>
<path fill="none" stroke="midnightblue" d="M723.38,-138.5C752.9,-129.59 798.93,-115.69 835.97,-104.5"/>
<polygon fill="midnightblue" stroke="midnightblue" points="837.11,-107.81 845.67,-101.57 835.08,-101.11 837.11,-107.81"/>
</g>
<!-- Node19 -->
<g id="node19" class="node">
<title>Node19</title>
<g id="a_node19"><a xlink:href="traits_8h.html" target="_top" xlink:title=" ">
<polygon fill="white" stroke="black" points="965.74,-75.5 965.74,-95.5 1053.42,-95.5 1053.42,-75.5 965.74,-75.5"/>
<text text-anchor="middle" x="1009.58" y="-82.5" font-family="Helvetica,sans-Serif" font-size="10.00">haldls/vx/traits.h</text>
</a>
</g>
</g>
<!-- Node3&#45;&gt;Node19 -->
<g id="edge22" class="edge">
<title>Node3&#45;&gt;Node19</title>
<path fill="none" stroke="midnightblue" d="M735.32,-141.77C787.44,-134.27 879.16,-119.96 956.58,-102 961.29,-100.91 966.21,-99.64 971.06,-98.32"/>
<polygon fill="midnightblue" stroke="midnightblue" points="972.18,-101.64 980.85,-95.54 970.28,-94.9 972.18,-101.64"/>
</g>
<!-- Node10&#45;&gt;Node5 -->
<g id="edge14" class="edge">
<title>Node10&#45;&gt;Node5</title>
<path fill="none" stroke="midnightblue" d="M576.72,-75.47C567.33,-73.16 557.09,-70.82 547.58,-69 420.96,-44.84 268.32,-27.59 202.9,-20.75"/>
<polygon fill="midnightblue" stroke="midnightblue" points="203.11,-17.26 192.81,-19.71 202.39,-24.22 203.11,-17.26"/>
</g>
<!-- Node11 -->
<g id="node11" class="node">
<title>Node11</title>
<g id="a_node11"><a xlink:title=" ">
<polygon fill="white" stroke="#bfbfbf" points="725.96,-6.5 725.96,-26.5 809.2,-26.5 809.2,-6.5 725.96,-6.5"/>
<text text-anchor="middle" x="767.58" y="-13.5" font-family="Helvetica,sans-Serif" font-size="10.00">hate/type_list.h</text>
</a>
</g>
</g>
<!-- Node10&#45;&gt;Node11 -->
<g id="edge11" class="edge">
<title>Node10&#45;&gt;Node11</title>
<path fill="none" stroke="midnightblue" d="M631.75,-75.46C658.79,-63.93 705.78,-43.87 736.78,-30.64"/>
<polygon fill="midnightblue" stroke="midnightblue" points="738.42,-33.75 746.24,-26.61 735.67,-27.31 738.42,-33.75"/>
</g>
<!-- Node10&#45;&gt;Node12 -->
<g id="edge12" class="edge">
<title>Node10&#45;&gt;Node12</title>
<path fill="none" stroke="midnightblue" d="M610.58,-75.46C610.58,-65.63 610.58,-49.61 610.58,-36.9"/>
<polygon fill="midnightblue" stroke="midnightblue" points="614.08,-36.82 610.58,-26.82 607.08,-36.82 614.08,-36.82"/>
</g>
<!-- Node13 -->
<g id="node13" class="node">
<title>Node13</title>
<g id="a_node13"><a xlink:title=" ">
<polygon fill="white" stroke="#bfbfbf" points="507.13,-6.5 507.13,-26.5 552.03,-26.5 552.03,-6.5 507.13,-6.5"/>
<text text-anchor="middle" x="529.58" y="-13.5" font-family="Helvetica,sans-Serif" font-size="10.00">cstdint</text>
</a>
</g>
</g>
<!-- Node10&#45;&gt;Node13 -->
<g id="edge13" class="edge">
<title>Node10&#45;&gt;Node13</title>
<path fill="none" stroke="midnightblue" d="M599.65,-75.46C586.61,-64.67 564.57,-46.44 548.68,-33.3"/>
<polygon fill="midnightblue" stroke="midnightblue" points="550.52,-30.28 540.59,-26.61 546.06,-35.68 550.52,-30.28"/>
</g>
<!-- Node14 -->
<g id="node14" class="node">
<title>Node14</title>
<g id="a_node14"><a xlink:title=" ">
<polygon fill="white" stroke="#bfbfbf" points="390.46,-6.5 390.46,-26.5 488.7,-26.5 488.7,-6.5 390.46,-6.5"/>
<text text-anchor="middle" x="439.58" y="-13.5" font-family="Helvetica,sans-Serif" font-size="10.00">cereal/macros.hpp</text>
</a>
</g>
</g>
<!-- Node10&#45;&gt;Node14 -->
<g id="edge15" class="edge">
<title>Node10&#45;&gt;Node14</title>
<path fill="none" stroke="midnightblue" d="M587.52,-75.46C557.81,-63.83 506,-43.52 472.25,-30.3"/>
<polygon fill="midnightblue" stroke="midnightblue" points="473.41,-27 462.82,-26.61 470.86,-33.51 473.41,-27"/>
</g>
<!-- Node16 -->
<g id="node16" class="node">
<title>Node16</title>
<g id="a_node16"><a xlink:title=" ">
<polygon fill="white" stroke="#bfbfbf" points="827.52,-6.5 827.52,-26.5 889.64,-26.5 889.64,-6.5 827.52,-6.5"/>
<text text-anchor="middle" x="858.58" y="-13.5" font-family="Helvetica,sans-Serif" font-size="10.00">type_traits</text>
</a>
</g>
</g>
<!-- Node15&#45;&gt;Node16 -->
<g id="edge17" class="edge">
<title>Node15&#45;&gt;Node16</title>
<path fill="none" stroke="midnightblue" d="M785.04,-75.46C798.86,-64.57 822.29,-46.1 838.99,-32.94"/>
<polygon fill="midnightblue" stroke="midnightblue" points="841.34,-35.55 847.03,-26.61 837.01,-30.05 841.34,-35.55"/>
</g>
<!-- Node17 -->
<g id="node17" class="node">
<title>Node17</title>
<g id="a_node17"><a xlink:title=" ">
<polygon fill="white" stroke="#bfbfbf" points="669.19,-6.5 669.19,-26.5 707.97,-26.5 707.97,-6.5 669.19,-6.5"/>
<text text-anchor="middle" x="688.58" y="-13.5" font-family="Helvetica,sans-Serif" font-size="10.00">utility</text>
</a>
</g>
</g>
<!-- Node15&#45;&gt;Node17 -->
<g id="edge18" class="edge">
<title>Node15&#45;&gt;Node17</title>
<path fill="none" stroke="midnightblue" d="M762.12,-75.46C748.3,-64.57 724.87,-46.1 708.17,-32.94"/>
<polygon fill="midnightblue" stroke="midnightblue" points="710.15,-30.05 700.13,-26.61 705.82,-35.55 710.15,-30.05"/>
</g>
<!-- Node18&#45;&gt;Node16 -->
<g id="edge20" class="edge">
<title>Node18&#45;&gt;Node16</title>
<path fill="none" stroke="midnightblue" d="M887.18,-69.3C881.63,-59.25 874.33,-46.03 868.5,-35.46"/>
<polygon fill="midnightblue" stroke="midnightblue" points="871.54,-33.73 863.64,-26.66 865.41,-37.11 871.54,-33.73"/>
</g>
<!-- Node19&#45;&gt;Node2 -->
<g id="edge25" class="edge">
<title>Node19&#45;&gt;Node2</title>
<path fill="none" stroke="midnightblue" d="M1036.56,-75.48C1044.83,-73.03 1054,-70.6 1062.58,-69 1246.73,-34.54 1297.61,-62.81 1482.58,-33 1489.5,-31.88 1496.78,-30.43 1503.87,-28.86"/>
<polygon fill="midnightblue" stroke="midnightblue" points="1505.08,-32.17 1514.03,-26.5 1503.5,-25.35 1505.08,-32.17"/>
</g>
<!-- Node19&#45;&gt;Node11 -->
<g id="edge26" class="edge">
<title>Node19&#45;&gt;Node11</title>
<path fill="none" stroke="midnightblue" d="M979.35,-75.49C971.92,-73.32 963.97,-71.04 956.58,-69 895.49,-52.1 879.58,-50.22 818.58,-33 814.57,-31.87 810.4,-30.66 806.24,-29.43"/>
<polygon fill="midnightblue" stroke="midnightblue" points="807.23,-26.07 796.65,-26.55 805.22,-32.78 807.23,-26.07"/>
</g>
<!-- Node19&#45;&gt;Node12 -->
<g id="edge27" class="edge">
<title>Node19&#45;&gt;Node12</title>
<path fill="none" stroke="midnightblue" d="M981.74,-75.43C973.69,-73.06 964.84,-70.7 956.58,-69 826.77,-42.31 790.17,-60.73 660.58,-33 655.88,-32 650.99,-30.74 646.19,-29.39"/>
<polygon fill="midnightblue" stroke="midnightblue" points="647.14,-26.02 636.55,-26.52 645.14,-32.73 647.14,-26.02"/>
</g>
<!-- Node19&#45;&gt;Node16 -->
<g id="edge28" class="edge">
<title>Node19&#45;&gt;Node16</title>
<path fill="none" stroke="midnightblue" d="M989.21,-75.46C963.32,-63.98 918.41,-44.05 888.59,-30.82"/>
<polygon fill="midnightblue" stroke="midnightblue" points="889.66,-27.46 879.1,-26.61 886.82,-33.86 889.66,-27.46"/>
</g>
<!-- Node20 -->
<g id="node20" class="node">
<title>Node20</title>
<g id="a_node20"><a xlink:title=" ">
<polygon fill="white" stroke="#bfbfbf" points="1391.52,-6.5 1391.52,-26.5 1473.64,-26.5 1473.64,-6.5 1391.52,-6.5"/>
<text text-anchor="middle" x="1432.58" y="-13.5" font-family="Helvetica,sans-Serif" font-size="10.00">fisch/vx/traits.h</text>
</a>
</g>
</g>
<!-- Node19&#45;&gt;Node20 -->
<g id="edge23" class="edge">
<title>Node19&#45;&gt;Node20</title>
<path fill="none" stroke="midnightblue" d="M1037.14,-75.46C1045.26,-73.07 1054.21,-70.68 1062.58,-69 1202.89,-40.81 1242.49,-62.32 1382.58,-33 1387.28,-32.02 1392.17,-30.78 1396.97,-29.43"/>
<polygon fill="midnightblue" stroke="midnightblue" points="1398.03,-32.77 1406.61,-26.57 1396.03,-26.06 1398.03,-32.77"/>
</g>
<!-- Node21 -->
<g id="node21" class="node">
<title>Node21</title>
<g id="a_node21"><a xlink:title=" ">
<polygon fill="white" stroke="#bfbfbf" points="907.35,-0.5 907.35,-32.5 1017.81,-32.5 1017.81,-0.5 907.35,-0.5"/>
<text text-anchor="start" x="915.35" y="-19.5" font-family="Helvetica,sans-Serif" font-size="10.00">fisch/vx/word_access</text>
<text text-anchor="middle" x="962.58" y="-7.5" font-family="Helvetica,sans-Serif" font-size="10.00">_type.h</text>
</a>
</g>
</g>
<!-- Node19&#45;&gt;Node21 -->
<g id="edge24" class="edge">
<title>Node19&#45;&gt;Node21</title>
<path fill="none" stroke="midnightblue" d="M1003.24,-75.46C997.03,-66.61 987.3,-52.75 978.92,-40.8"/>
<polygon fill="midnightblue" stroke="midnightblue" points="981.73,-38.71 973.12,-32.53 976,-42.73 981.73,-38.71"/>
</g>
<!-- Node22 -->
<g id="node22" class="node">
<title>Node22</title>
<g id="a_node22"><a xlink:title=" ">
<polygon fill="white" stroke="#bfbfbf" points="1036.18,-0.5 1036.18,-32.5 1134.98,-32.5 1134.98,-0.5 1036.18,-0.5"/>
<text text-anchor="start" x="1044.18" y="-19.5" font-family="Helvetica,sans-Serif" font-size="10.00">boost/utility/enable</text>
<text text-anchor="middle" x="1085.58" y="-7.5" font-family="Helvetica,sans-Serif" font-size="10.00">_if.hpp</text>
</a>
</g>
</g>
<!-- Node19&#45;&gt;Node22 -->
<g id="edge29" class="edge">
<title>Node19&#45;&gt;Node22</title>
<path fill="none" stroke="midnightblue" d="M1019.83,-75.46C1030.26,-66.27 1046.83,-51.66 1060.72,-39.41"/>
<polygon fill="midnightblue" stroke="midnightblue" points="1063.34,-41.77 1068.53,-32.53 1058.71,-36.52 1063.34,-41.77"/>
</g>
<!-- Node23 -->
<g id="node23" class="node">
<title>Node23</title>
<g id="a_node23"><a xlink:title=" ">
<polygon fill="white" stroke="#bfbfbf" points="1153.23,-6.5 1153.23,-26.5 1245.93,-26.5 1245.93,-6.5 1153.23,-6.5"/>
<text text-anchor="middle" x="1199.58" y="-13.5" font-family="Helvetica,sans-Serif" font-size="10.00">boost/variant.hpp</text>
</a>
</g>
</g>
<!-- Node19&#45;&gt;Node23 -->
<g id="edge30" class="edge">
<title>Node19&#45;&gt;Node23</title>
<path fill="none" stroke="midnightblue" d="M1035.2,-75.46C1068.49,-63.73 1126.77,-43.18 1164.24,-29.96"/>
<polygon fill="midnightblue" stroke="midnightblue" points="1165.49,-33.23 1173.75,-26.61 1163.16,-26.63 1165.49,-33.23"/>
</g>
<!-- Node24 -->
<g id="node24" class="node">
<title>Node24</title>
<g id="a_node24"><a xlink:title=" ">
<polygon fill="white" stroke="#bfbfbf" points="1263.62,-6.5 1263.62,-26.5 1373.54,-26.5 1373.54,-6.5 1263.62,-6.5"/>
<text text-anchor="middle" x="1318.58" y="-13.5" font-family="Helvetica,sans-Serif" font-size="10.00">fisch/vx/container.def</text>
</a>
</g>
</g>
<!-- Node19&#45;&gt;Node24 -->
<g id="edge31" class="edge">
<title>Node19&#45;&gt;Node24</title>
<path fill="none" stroke="midnightblue" d="M1038.6,-75.45C1046.35,-73.19 1054.75,-70.87 1062.58,-69 1147.01,-48.79 1169.69,-51.22 1254.58,-33 1260.45,-31.74 1266.61,-30.34 1272.69,-28.92"/>
<polygon fill="midnightblue" stroke="midnightblue" points="1273.86,-32.24 1282.77,-26.52 1272.24,-25.43 1273.86,-32.24"/>
</g>
</g>
</svg>
