<?xml version="1.0" encoding="UTF-8" standalone="no"?>
<!DOCTYPE svg PUBLIC "-//W3C//DTD SVG 1.1//EN"
 "http://www.w3.org/Graphics/SVG/1.1/DTD/svg11.dtd">
<!-- Generated by graphviz version 2.46.0 (0)
 -->
<!-- Title: /jenkins/jenlib_workspaces_f9/bld_nightly&#45;haldls.YmxkX25pZ2h0bHktaGFsZGxzIzEzNzk.x/haldls/include/haldls/vx/v2/sram_controller.h Pages: 1 -->
<svg width="1301pt" height="248pt"
 viewBox="0.00 0.00 1300.52 248.00" xmlns="http://www.w3.org/2000/svg" xmlns:xlink="http://www.w3.org/1999/xlink">
<g id="graph0" class="graph" transform="scale(1 1) rotate(0) translate(4 244)">
<title>/jenkins/jenlib_workspaces_f9/bld_nightly&#45;haldls.YmxkX25pZ2h0bHktaGFsZGxzIzEzNzk.x/haldls/include/haldls/vx/v2/sram_controller.h</title>
<polygon fill="white" stroke="transparent" points="-4,4 -4,-244 1296.52,-244 1296.52,4 -4,4"/>
<!-- Node1 -->
<g id="node1" class="node">
<title>Node1</title>
<g id="a_node1"><a xlink:title=" ">
<polygon fill="#bfbfbf" stroke="black" points="693.71,-183.5 693.71,-239.5 879.18,-239.5 879.18,-183.5 693.71,-183.5"/>
<text text-anchor="start" x="701.71" y="-226.5" font-family="Helvetica,sans-Serif" font-size="10.00">/jenkins/jenlib_workspaces</text>
<text text-anchor="start" x="701.71" y="-214.5" font-family="Helvetica,sans-Serif" font-size="10.00">_f9/bld_nightly&#45;haldls.YmxkX25p</text>
<text text-anchor="start" x="701.71" y="-202.5" font-family="Helvetica,sans-Serif" font-size="10.00">Z2h0bHktaGFsZGxzIzEzNzk.x/haldls</text>
<text text-anchor="middle" x="786.45" y="-190.5" font-family="Helvetica,sans-Serif" font-size="10.00">/include/haldls/vx/v2/sram_controller.h</text>
</a>
</g>
</g>
<!-- Node2 -->
<g id="node2" class="node">
<title>Node2</title>
<g id="a_node2"><a xlink:href="genpybind_8h.html" target="_top" xlink:title=" ">
<polygon fill="white" stroke="black" points="1162.38,-6.5 1162.38,-26.5 1274.52,-26.5 1274.52,-6.5 1162.38,-6.5"/>
<text text-anchor="middle" x="1218.45" y="-13.5" font-family="Helvetica,sans-Serif" font-size="10.00">haldls/vx/genpybind.h</text>
</a>
</g>
</g>
<!-- Node1&#45;&gt;Node2 -->
<g id="edge1" class="edge">
<title>Node1&#45;&gt;Node2</title>
<path fill="none" stroke="midnightblue" d="M846.97,-183.46C941.01,-141.45 1118.67,-62.08 1188.85,-30.72"/>
<polygon fill="midnightblue" stroke="midnightblue" points="1190.32,-33.9 1198.02,-26.62 1187.47,-27.51 1190.32,-33.9"/>
</g>
<!-- Node3 -->
<g id="node3" class="node">
<title>Node3</title>
<g id="a_node3"><a xlink:href="sram__controller_8h.html" target="_top" xlink:title=" ">
<polygon fill="white" stroke="black" points="621,-126.5 621,-146.5 755.9,-146.5 755.9,-126.5 621,-126.5"/>
<text text-anchor="middle" x="688.45" y="-133.5" font-family="Helvetica,sans-Serif" font-size="10.00">haldls/vx/sram_controller.h</text>
</a>
</g>
</g>
<!-- Node1&#45;&gt;Node3 -->
<g id="edge3" class="edge">
<title>Node1&#45;&gt;Node3</title>
<path fill="none" stroke="midnightblue" d="M749.96,-183.32C736.08,-172.98 720.77,-161.58 708.89,-152.73"/>
<polygon fill="midnightblue" stroke="midnightblue" points="710.67,-149.69 700.56,-146.52 706.49,-155.31 710.67,-149.69"/>
</g>
<!-- Node2&#45;&gt;Node2 -->
<g id="edge2" class="edge">
<title>Node2&#45;&gt;Node2</title>
<path fill="none" stroke="midnightblue" d="M1246.95,-26.56C1269.44,-30.45 1292.52,-27.1 1292.52,-16.5 1292.52,-7.48 1275.79,-3.71 1256.93,-5.19"/>
<polygon fill="midnightblue" stroke="midnightblue" points="1256.44,-1.72 1246.95,-6.44 1257.31,-8.67 1256.44,-1.72"/>
</g>
<!-- Node3&#45;&gt;Node2 -->
<g id="edge13" class="edge">
<title>Node3&#45;&gt;Node2</title>
<path fill="none" stroke="midnightblue" d="M699.37,-126.36C719.48,-109.75 761.89,-75.68 779.45,-69 935.53,-9.62 988.73,-60.43 1153.45,-33 1160.29,-31.86 1167.48,-30.41 1174.49,-28.85"/>
<polygon fill="midnightblue" stroke="midnightblue" points="1175.6,-32.18 1184.56,-26.52 1174.02,-25.36 1175.6,-32.18"/>
</g>
<!-- Node4 -->
<g id="node4" class="node">
<title>Node4</title>
<g id="a_node4"><a xlink:href="cerealization_8h.html" target="_top" xlink:title=" ">
<polygon fill="white" stroke="black" points="173.77,-69.5 173.77,-89.5 283.12,-89.5 283.12,-69.5 173.77,-69.5"/>
<text text-anchor="middle" x="228.45" y="-76.5" font-family="Helvetica,sans-Serif" font-size="10.00">haldls/cerealization.h</text>
</a>
</g>
</g>
<!-- Node3&#45;&gt;Node4 -->
<g id="edge4" class="edge">
<title>Node3&#45;&gt;Node4</title>
<path fill="none" stroke="midnightblue" d="M620.57,-127.38C532.47,-116.85 379.78,-98.59 293.22,-88.24"/>
<polygon fill="midnightblue" stroke="midnightblue" points="293.6,-84.77 283.26,-87.05 292.77,-91.72 293.6,-84.77"/>
</g>
<!-- Node6 -->
<g id="node6" class="node">
<title>Node6</title>
<g id="a_node6"><a xlink:title=" ">
<polygon fill="white" stroke="#bfbfbf" points="241.94,-6.5 241.94,-26.5 322.95,-26.5 322.95,-6.5 241.94,-6.5"/>
<text text-anchor="middle" x="282.45" y="-13.5" font-family="Helvetica,sans-Serif" font-size="10.00">hate/visibility.h</text>
</a>
</g>
</g>
<!-- Node3&#45;&gt;Node6 -->
<g id="edge25" class="edge">
<title>Node3&#45;&gt;Node6</title>
<path fill="none" stroke="midnightblue" d="M631.74,-126.47C586.93,-118.69 523.05,-106.16 468.45,-90 411.8,-73.23 348.11,-46.65 311.89,-30.75"/>
<polygon fill="midnightblue" stroke="midnightblue" points="312.99,-27.41 302.43,-26.57 310.16,-33.82 312.99,-27.41"/>
</g>
<!-- Node10 -->
<g id="node10" class="node">
<title>Node10</title>
<g id="a_node10"><a xlink:href="common_8h.html" target="_top" xlink:title=" ">
<polygon fill="white" stroke="black" points="477.27,-69.5 477.27,-89.5 581.62,-89.5 581.62,-69.5 477.27,-69.5"/>
<text text-anchor="middle" x="529.45" y="-76.5" font-family="Helvetica,sans-Serif" font-size="10.00">haldls/vx/common.h</text>
</a>
</g>
</g>
<!-- Node3&#45;&gt;Node10 -->
<g id="edge10" class="edge">
<title>Node3&#45;&gt;Node10</title>
<path fill="none" stroke="midnightblue" d="M662.19,-126.42C635.64,-117.23 594.44,-102.98 564.98,-92.79"/>
<polygon fill="midnightblue" stroke="midnightblue" points="566.07,-89.47 555.48,-89.5 563.78,-96.08 566.07,-89.47"/>
</g>
<!-- Node13 -->
<g id="node13" class="node">
<title>Node13</title>
<g id="a_node13"><a xlink:href="traits_8h.html" target="_top" xlink:title=" ">
<polygon fill="white" stroke="black" points="644.61,-69.5 644.61,-89.5 732.29,-89.5 732.29,-69.5 644.61,-69.5"/>
<text text-anchor="middle" x="688.45" y="-76.5" font-family="Helvetica,sans-Serif" font-size="10.00">haldls/vx/traits.h</text>
</a>
</g>
</g>
<!-- Node3&#45;&gt;Node13 -->
<g id="edge14" class="edge">
<title>Node3&#45;&gt;Node13</title>
<path fill="none" stroke="midnightblue" d="M688.45,-126.42C688.45,-119.22 688.45,-108.9 688.45,-99.86"/>
<polygon fill="midnightblue" stroke="midnightblue" points="691.95,-99.78 688.45,-89.78 684.95,-99.78 691.95,-99.78"/>
</g>
<!-- Node19 -->
<g id="node19" class="node">
<title>Node19</title>
<g id="a_node19"><a xlink:title=" ">
<polygon fill="white" stroke="#bfbfbf" points="788.05,-69.5 788.05,-89.5 856.85,-89.5 856.85,-69.5 788.05,-69.5"/>
<text text-anchor="middle" x="822.45" y="-76.5" font-family="Helvetica,sans-Serif" font-size="10.00">hate/math.h</text>
</a>
</g>
</g>
<!-- Node3&#45;&gt;Node19 -->
<g id="edge24" class="edge">
<title>Node3&#45;&gt;Node19</title>
<path fill="none" stroke="midnightblue" d="M710.57,-126.42C732.49,-117.42 766.27,-103.56 790.98,-93.42"/>
<polygon fill="midnightblue" stroke="midnightblue" points="792.37,-96.63 800.29,-89.6 789.71,-90.15 792.37,-96.63"/>
</g>
<!-- Node5 -->
<g id="node5" class="node">
<title>Node5</title>
<g id="a_node5"><a xlink:title=" ">
<polygon fill="white" stroke="#bfbfbf" points="340.82,-6.5 340.82,-26.5 424.07,-26.5 424.07,-6.5 340.82,-6.5"/>
<text text-anchor="middle" x="382.45" y="-13.5" font-family="Helvetica,sans-Serif" font-size="10.00">hate/type_list.h</text>
</a>
</g>
</g>
<!-- Node4&#45;&gt;Node5 -->
<g id="edge5" class="edge">
<title>Node4&#45;&gt;Node5</title>
<path fill="none" stroke="midnightblue" d="M251.17,-69.5C277.33,-59.14 320.49,-42.04 350.14,-30.3"/>
<polygon fill="midnightblue" stroke="midnightblue" points="351.62,-33.47 359.63,-26.54 349.04,-26.97 351.62,-33.47"/>
</g>
<!-- Node4&#45;&gt;Node6 -->
<g id="edge6" class="edge">
<title>Node4&#45;&gt;Node6</title>
<path fill="none" stroke="midnightblue" d="M236.42,-69.5C244.63,-60.22 257.63,-45.53 267.72,-34.13"/>
<polygon fill="midnightblue" stroke="midnightblue" points="270.44,-36.35 274.45,-26.54 265.2,-31.71 270.44,-36.35"/>
</g>
<!-- Node7 -->
<g id="node7" class="node">
<title>Node7</title>
<g id="a_node7"><a xlink:title=" ">
<polygon fill="white" stroke="#bfbfbf" points="0,-6.5 0,-26.5 44.89,-26.5 44.89,-6.5 0,-6.5"/>
<text text-anchor="middle" x="22.45" y="-13.5" font-family="Helvetica,sans-Serif" font-size="10.00">cstdint</text>
</a>
</g>
</g>
<!-- Node4&#45;&gt;Node7 -->
<g id="edge7" class="edge">
<title>Node4&#45;&gt;Node7</title>
<path fill="none" stroke="midnightblue" d="M184.46,-69.5C148.84,-61.62 97.66,-48.94 54.45,-33 52.62,-32.33 50.76,-31.58 48.9,-30.8"/>
<polygon fill="midnightblue" stroke="midnightblue" points="50.34,-27.61 39.78,-26.66 47.44,-33.98 50.34,-27.61"/>
</g>
<!-- Node8 -->
<g id="node8" class="node">
<title>Node8</title>
<g id="a_node8"><a xlink:title=" ">
<polygon fill="white" stroke="#bfbfbf" points="63.28,-6.5 63.28,-26.5 107.61,-26.5 107.61,-6.5 63.28,-6.5"/>
<text text-anchor="middle" x="85.45" y="-13.5" font-family="Helvetica,sans-Serif" font-size="10.00">iosfwd</text>
</a>
</g>
</g>
<!-- Node4&#45;&gt;Node8 -->
<g id="edge8" class="edge">
<title>Node4&#45;&gt;Node8</title>
<path fill="none" stroke="midnightblue" d="M204.62,-69.44C181.79,-60.62 146.47,-46.58 116.45,-33 115.08,-32.38 113.68,-31.73 112.27,-31.07"/>
<polygon fill="midnightblue" stroke="midnightblue" points="113.56,-27.81 103.04,-26.59 110.51,-34.11 113.56,-27.81"/>
</g>
<!-- Node9 -->
<g id="node9" class="node">
<title>Node9</title>
<g id="a_node9"><a xlink:title=" ">
<polygon fill="white" stroke="#bfbfbf" points="125.33,-6.5 125.33,-26.5 223.57,-26.5 223.57,-6.5 125.33,-6.5"/>
<text text-anchor="middle" x="174.45" y="-13.5" font-family="Helvetica,sans-Serif" font-size="10.00">cereal/macros.hpp</text>
</a>
</g>
</g>
<!-- Node4&#45;&gt;Node9 -->
<g id="edge9" class="edge">
<title>Node4&#45;&gt;Node9</title>
<path fill="none" stroke="midnightblue" d="M220.48,-69.5C212.26,-60.22 199.27,-45.53 189.17,-34.13"/>
<polygon fill="midnightblue" stroke="midnightblue" points="191.7,-31.71 182.45,-26.54 186.46,-36.35 191.7,-31.71"/>
</g>
<!-- Node11 -->
<g id="node11" class="node">
<title>Node11</title>
<g id="a_node11"><a xlink:title=" ">
<polygon fill="white" stroke="#bfbfbf" points="498.39,-6.5 498.39,-26.5 560.51,-26.5 560.51,-6.5 498.39,-6.5"/>
<text text-anchor="middle" x="529.45" y="-13.5" font-family="Helvetica,sans-Serif" font-size="10.00">type_traits</text>
</a>
</g>
</g>
<!-- Node10&#45;&gt;Node11 -->
<g id="edge11" class="edge">
<title>Node10&#45;&gt;Node11</title>
<path fill="none" stroke="midnightblue" d="M529.45,-69.5C529.45,-60.94 529.45,-47.78 529.45,-36.85"/>
<polygon fill="midnightblue" stroke="midnightblue" points="532.95,-36.54 529.45,-26.54 525.95,-36.54 532.95,-36.54"/>
</g>
<!-- Node12 -->
<g id="node12" class="node">
<title>Node12</title>
<g id="a_node12"><a xlink:title=" ">
<polygon fill="white" stroke="#bfbfbf" points="442.06,-6.5 442.06,-26.5 480.83,-26.5 480.83,-6.5 442.06,-6.5"/>
<text text-anchor="middle" x="461.45" y="-13.5" font-family="Helvetica,sans-Serif" font-size="10.00">utility</text>
</a>
</g>
</g>
<!-- Node10&#45;&gt;Node12 -->
<g id="edge12" class="edge">
<title>Node10&#45;&gt;Node12</title>
<path fill="none" stroke="midnightblue" d="M519.41,-69.5C508.87,-60.04 492.06,-44.96 479.25,-33.47"/>
<polygon fill="midnightblue" stroke="midnightblue" points="481.3,-30.61 471.52,-26.54 476.63,-35.82 481.3,-30.61"/>
</g>
<!-- Node13&#45;&gt;Node2 -->
<g id="edge17" class="edge">
<title>Node13&#45;&gt;Node2</title>
<path fill="none" stroke="midnightblue" d="M732.42,-70.95C737.15,-70.24 741.89,-69.57 746.45,-69 926.62,-46.31 974.21,-62.14 1153.45,-33 1160.29,-31.89 1167.49,-30.45 1174.5,-28.9"/>
<polygon fill="midnightblue" stroke="midnightblue" points="1175.61,-32.23 1184.56,-26.57 1174.03,-25.41 1175.61,-32.23"/>
</g>
<!-- Node13&#45;&gt;Node5 -->
<g id="edge18" class="edge">
<title>Node13&#45;&gt;Node5</title>
<path fill="none" stroke="midnightblue" d="M644.35,-72.26C593.25,-64.65 506.69,-50.6 433.45,-33 429.03,-31.94 424.42,-30.71 419.87,-29.42"/>
<polygon fill="midnightblue" stroke="midnightblue" points="420.66,-26.01 410.08,-26.55 418.68,-32.72 420.66,-26.01"/>
</g>
<!-- Node13&#45;&gt;Node6 -->
<g id="edge19" class="edge">
<title>Node13&#45;&gt;Node6</title>
<path fill="none" stroke="midnightblue" d="M644.61,-73.91C562.89,-65.19 390.26,-45.94 331.45,-33 326.96,-32.01 322.3,-30.8 317.72,-29.48"/>
<polygon fill="midnightblue" stroke="midnightblue" points="318.48,-26.06 307.9,-26.5 316.45,-32.76 318.48,-26.06"/>
</g>
<!-- Node13&#45;&gt;Node11 -->
<g id="edge20" class="edge">
<title>Node13&#45;&gt;Node11</title>
<path fill="none" stroke="midnightblue" d="M664.73,-69.47C640.7,-60.31 602.47,-45.71 569.45,-33 567.08,-32.09 564.63,-31.14 562.16,-30.19"/>
<polygon fill="midnightblue" stroke="midnightblue" points="563.3,-26.88 552.71,-26.53 560.77,-33.41 563.3,-26.88"/>
</g>
<!-- Node14 -->
<g id="node14" class="node">
<title>Node14</title>
<g id="a_node14"><a xlink:title=" ">
<polygon fill="white" stroke="#bfbfbf" points="578.39,-6.5 578.39,-26.5 660.51,-26.5 660.51,-6.5 578.39,-6.5"/>
<text text-anchor="middle" x="619.45" y="-13.5" font-family="Helvetica,sans-Serif" font-size="10.00">fisch/vx/traits.h</text>
</a>
</g>
</g>
<!-- Node13&#45;&gt;Node14 -->
<g id="edge15" class="edge">
<title>Node13&#45;&gt;Node14</title>
<path fill="none" stroke="midnightblue" d="M678.27,-69.5C667.56,-60.04 650.51,-44.96 637.52,-33.47"/>
<polygon fill="midnightblue" stroke="midnightblue" points="639.48,-30.54 629.67,-26.54 634.84,-35.78 639.48,-30.54"/>
</g>
<!-- Node15 -->
<g id="node15" class="node">
<title>Node15</title>
<g id="a_node15"><a xlink:title=" ">
<polygon fill="white" stroke="#bfbfbf" points="678.22,-0.5 678.22,-32.5 788.68,-32.5 788.68,-0.5 678.22,-0.5"/>
<text text-anchor="start" x="686.22" y="-19.5" font-family="Helvetica,sans-Serif" font-size="10.00">fisch/vx/word_access</text>
<text text-anchor="middle" x="733.45" y="-7.5" font-family="Helvetica,sans-Serif" font-size="10.00">_type.h</text>
</a>
</g>
</g>
<!-- Node13&#45;&gt;Node15 -->
<g id="edge16" class="edge">
<title>Node13&#45;&gt;Node15</title>
<path fill="none" stroke="midnightblue" d="M695.09,-69.5C700.66,-61.94 708.89,-50.79 716.29,-40.76"/>
<polygon fill="midnightblue" stroke="midnightblue" points="719.12,-42.82 722.24,-32.69 713.49,-38.66 719.12,-42.82"/>
</g>
<!-- Node16 -->
<g id="node16" class="node">
<title>Node16</title>
<g id="a_node16"><a xlink:title=" ">
<polygon fill="white" stroke="#bfbfbf" points="807.05,-0.5 807.05,-32.5 905.85,-32.5 905.85,-0.5 807.05,-0.5"/>
<text text-anchor="start" x="815.05" y="-19.5" font-family="Helvetica,sans-Serif" font-size="10.00">boost/utility/enable</text>
<text text-anchor="middle" x="856.45" y="-7.5" font-family="Helvetica,sans-Serif" font-size="10.00">_if.hpp</text>
</a>
</g>
</g>
<!-- Node13&#45;&gt;Node16 -->
<g id="edge21" class="edge">
<title>Node13&#45;&gt;Node16</title>
<path fill="none" stroke="midnightblue" d="M713.24,-69.5C737.37,-60.74 774.76,-47.16 805.29,-36.07"/>
<polygon fill="midnightblue" stroke="midnightblue" points="806.73,-39.28 814.94,-32.57 804.34,-32.7 806.73,-39.28"/>
</g>
<!-- Node17 -->
<g id="node17" class="node">
<title>Node17</title>
<g id="a_node17"><a xlink:title=" ">
<polygon fill="white" stroke="#bfbfbf" points="924.1,-6.5 924.1,-26.5 1016.79,-26.5 1016.79,-6.5 924.1,-6.5"/>
<text text-anchor="middle" x="970.45" y="-13.5" font-family="Helvetica,sans-Serif" font-size="10.00">boost/variant.hpp</text>
</a>
</g>
</g>
<!-- Node13&#45;&gt;Node17 -->
<g id="edge22" class="edge">
<title>Node13&#45;&gt;Node17</title>
<path fill="none" stroke="midnightblue" d="M732.4,-70.61C778.09,-62.19 851.58,-48.01 914.45,-33 919.41,-31.82 924.6,-30.49 929.73,-29.14"/>
<polygon fill="midnightblue" stroke="midnightblue" points="930.71,-32.5 939.45,-26.5 928.88,-25.74 930.71,-32.5"/>
</g>
<!-- Node18 -->
<g id="node18" class="node">
<title>Node18</title>
<g id="a_node18"><a xlink:title=" ">
<polygon fill="white" stroke="#bfbfbf" points="1034.49,-6.5 1034.49,-26.5 1144.4,-26.5 1144.4,-6.5 1034.49,-6.5"/>
<text text-anchor="middle" x="1089.45" y="-13.5" font-family="Helvetica,sans-Serif" font-size="10.00">fisch/vx/container.def</text>
</a>
</g>
</g>
<!-- Node13&#45;&gt;Node18 -->
<g id="edge23" class="edge">
<title>Node13&#45;&gt;Node18</title>
<path fill="none" stroke="midnightblue" d="M732.44,-71.13C737.17,-70.39 741.9,-69.66 746.45,-69 870.16,-50.89 902.51,-55.75 1025.45,-33 1031.79,-31.83 1038.45,-30.42 1044.97,-28.93"/>
<polygon fill="midnightblue" stroke="midnightblue" points="1046.12,-32.26 1055.05,-26.56 1044.52,-25.44 1046.12,-32.26"/>
</g>
</g>
</svg>
