<?xml version="1.0" encoding="UTF-8" standalone="no"?>
<!DOCTYPE svg PUBLIC "-//W3C//DTD SVG 1.1//EN"
 "http://www.w3.org/Graphics/SVG/1.1/DTD/svg11.dtd">
<!-- Generated by graphviz version 2.46.0 (0)
 -->
<!-- Title: /jenkins/jenlib_workspaces_f9/bld_nightly&#45;haldls.YmxkX25pZ2h0bHktaGFsZGxzIzEzNzk.x/haldls/include/haldls/vx/v2/common.h Pages: 1 -->
<svg width="273pt" height="179pt"
 viewBox="0.00 0.00 273.13 179.00" xmlns="http://www.w3.org/2000/svg" xmlns:xlink="http://www.w3.org/1999/xlink">
<g id="graph0" class="graph" transform="scale(1 1) rotate(0) translate(4 175)">
<title>/jenkins/jenlib_workspaces_f9/bld_nightly&#45;haldls.YmxkX25pZ2h0bHktaGFsZGxzIzEzNzk.x/haldls/include/haldls/vx/v2/common.h</title>
<polygon fill="white" stroke="transparent" points="-4,4 -4,-175 269.13,-175 269.13,4 -4,4"/>
<!-- Node1 -->
<g id="node1" class="node">
<title>Node1</title>
<g id="a_node1"><a xlink:title=" ">
<polygon fill="#bfbfbf" stroke="black" points="37.55,-114.5 37.55,-170.5 218.57,-170.5 218.57,-114.5 37.55,-114.5"/>
<text text-anchor="start" x="45.55" y="-157.5" font-family="Helvetica,sans-Serif" font-size="10.00">/jenkins/jenlib_workspaces</text>
<text text-anchor="start" x="45.55" y="-145.5" font-family="Helvetica,sans-Serif" font-size="10.00">_f9/bld_nightly&#45;haldls.YmxkX25p</text>
<text text-anchor="start" x="45.55" y="-133.5" font-family="Helvetica,sans-Serif" font-size="10.00">Z2h0bHktaGFsZGxzIzEzNzk.x/haldls</text>
<text text-anchor="middle" x="128.06" y="-121.5" font-family="Helvetica,sans-Serif" font-size="10.00">/include/haldls/vx/v2/common.h</text>
</a>
</g>
</g>
<!-- Node2 -->
<g id="node2" class="node">
<title>Node2</title>
<g id="a_node2"><a xlink:href="common_8h.html" target="_top" xlink:title=" ">
<polygon fill="white" stroke="black" points="12.89,-57.5 12.89,-77.5 117.23,-77.5 117.23,-57.5 12.89,-57.5"/>
<text text-anchor="middle" x="65.06" y="-64.5" font-family="Helvetica,sans-Serif" font-size="10.00">haldls/vx/common.h</text>
</a>
</g>
</g>
<!-- Node1&#45;&gt;Node2 -->
<g id="edge1" class="edge">
<title>Node1&#45;&gt;Node2</title>
<path fill="none" stroke="midnightblue" d="M104.6,-114.32C96.21,-104.59 86.99,-93.91 79.57,-85.32"/>
<polygon fill="midnightblue" stroke="midnightblue" points="82.03,-82.81 72.85,-77.52 76.73,-87.38 82.03,-82.81"/>
</g>
<!-- Node5 -->
<g id="node5" class="node">
<title>Node5</title>
<g id="a_node5"><a xlink:href="genpybind_8h.html" target="_top" xlink:title=" ">
<polygon fill="white" stroke="black" points="134.99,-57.5 134.99,-77.5 247.13,-77.5 247.13,-57.5 134.99,-57.5"/>
<text text-anchor="middle" x="191.06" y="-64.5" font-family="Helvetica,sans-Serif" font-size="10.00">haldls/vx/genpybind.h</text>
</a>
</g>
</g>
<!-- Node1&#45;&gt;Node5 -->
<g id="edge4" class="edge">
<title>Node1&#45;&gt;Node5</title>
<path fill="none" stroke="midnightblue" d="M151.52,-114.32C159.92,-104.59 169.13,-93.91 176.55,-85.32"/>
<polygon fill="midnightblue" stroke="midnightblue" points="179.39,-87.38 183.27,-77.52 174.09,-82.81 179.39,-87.38"/>
</g>
<!-- Node3 -->
<g id="node3" class="node">
<title>Node3</title>
<g id="a_node3"><a xlink:title=" ">
<polygon fill="white" stroke="#bfbfbf" points="0,-0.5 0,-20.5 62.12,-20.5 62.12,-0.5 0,-0.5"/>
<text text-anchor="middle" x="31.06" y="-7.5" font-family="Helvetica,sans-Serif" font-size="10.00">type_traits</text>
</a>
</g>
</g>
<!-- Node2&#45;&gt;Node3 -->
<g id="edge2" class="edge">
<title>Node2&#45;&gt;Node3</title>
<path fill="none" stroke="midnightblue" d="M59.45,-57.42C54.75,-49.82 47.91,-38.75 42.12,-29.39"/>
<polygon fill="midnightblue" stroke="midnightblue" points="45.03,-27.45 36.8,-20.78 39.08,-31.13 45.03,-27.45"/>
</g>
<!-- Node4 -->
<g id="node4" class="node">
<title>Node4</title>
<g id="a_node4"><a xlink:title=" ">
<polygon fill="white" stroke="#bfbfbf" points="79.67,-0.5 79.67,-20.5 118.45,-20.5 118.45,-0.5 79.67,-0.5"/>
<text text-anchor="middle" x="99.06" y="-7.5" font-family="Helvetica,sans-Serif" font-size="10.00">utility</text>
</a>
</g>
</g>
<!-- Node2&#45;&gt;Node4 -->
<g id="edge3" class="edge">
<title>Node2&#45;&gt;Node4</title>
<path fill="none" stroke="midnightblue" d="M70.67,-57.42C75.37,-49.82 82.21,-38.75 88,-29.39"/>
<polygon fill="midnightblue" stroke="midnightblue" points="91.04,-31.13 93.32,-20.78 85.09,-27.45 91.04,-31.13"/>
</g>
<!-- Node5&#45;&gt;Node5 -->
<g id="edge5" class="edge">
<title>Node5&#45;&gt;Node5</title>
<path fill="none" stroke="midnightblue" d="M227.26,-77.53C247.03,-79.32 265.13,-75.98 265.13,-67.5 265.13,-60.55 252.95,-57.05 237.66,-57"/>
<polygon fill="midnightblue" stroke="midnightblue" points="237.1,-53.52 227.26,-57.47 237.41,-60.52 237.1,-53.52"/>
</g>
</g>
</svg>
