<?xml version="1.0" encoding="UTF-8" standalone="no"?>
<!DOCTYPE svg PUBLIC "-//W3C//DTD SVG 1.1//EN"
 "http://www.w3.org/Graphics/SVG/1.1/DTD/svg11.dtd">
<!-- Generated by graphviz version 2.46.0 (0)
 -->
<!-- Title: /jenkins/jenlib_workspaces_f9/bld_nightly&#45;haldls.YmxkX25pZ2h0bHktaGFsZGxzIzEzNzk.x/haldls/include/haldls/vx/v2/neuron.h Pages: 1 -->
<!--zoomable 329 -->
<svg id="main" version="1.1" xmlns="http://www.w3.org/2000/svg" xmlns:xlink="http://www.w3.org/1999/xlink" xml:space="preserve" onload="init(evt)">
<style type="text/css"><![CDATA[
.edge:hover path { stroke: red; }
.edge:hover polygon { stroke: red; fill: red; }
]]></style>
<script type="text/javascript"><![CDATA[
var edges = document.getElementsByTagName('g');
if (edges && edges.length) {
  for (var i=0;i<edges.length;i++) {
    if (edges[i].id.substr(0,4)=='edge') {
      edges[i].setAttribute('class','edge');
    }
  }
}
]]></script>
        <defs>
                <circle id="rim" cx="0" cy="0" r="7"/>
                <circle id="rim2" cx="0" cy="0" r="3.5"/>
                <g id="zoomPlus">
                        <use xlink:href="#rim" fill="#404040">
                                <set attributeName="fill" to="#808080" begin="zoomplus.mouseover" end="zoomplus.mouseout"/>
                        </use>
                        <path d="M-4,0h8M0,-4v8" fill="none" stroke="white" stroke-width="1.5" pointer-events="none"/>
                </g>
                <g id="zoomMin">
                        <use xlink:href="#rim" fill="#404040">
                                <set attributeName="fill" to="#808080" begin="zoomminus.mouseover" end="zoomminus.mouseout"/>
                        </use>
                        <path d="M-4,0h8" fill="none" stroke="white" stroke-width="1.5" pointer-events="none"/>
                </g>
                <g id="dirArrow">
                        <path fill="none" stroke="white" stroke-width="1.5" d="M0,-3.0v7 M-2.5,-0.5L0,-3.0L2.5,-0.5"/>
                </g>
               <g id="resetDef">
                       <use xlink:href="#rim2" fill="#404040">
                               <set attributeName="fill" to="#808080" begin="reset.mouseover" end="reset.mouseout"/>
                       </use>
               </g>
        </defs>

<script type="text/javascript">
var viewWidth = 1568;
var viewHeight = 329;
var sectionId = 'dynsection-0';
</script>
<script xlink:href="svgpan.js"/>
<svg id="graph" class="graph">
<g id="viewport">
<title>/jenkins/jenlib_workspaces_f9/bld_nightly&#45;haldls.YmxkX25pZ2h0bHktaGFsZGxzIzEzNzk.x/haldls/include/haldls/vx/v2/neuron.h</title>
<polygon fill="white" stroke="transparent" points="-4,4 -4,-325 1563.58,-325 1563.58,4 -4,4"/>
<!-- Node1 -->
<g id="node1" class="node">
<title>Node1</title>
<g id="a_node1"><a xlink:title=" ">
<polygon fill="#bfbfbf" stroke="black" points="158,-264.5 158,-320.5 339.02,-320.5 339.02,-264.5 158,-264.5"/>
<text text-anchor="start" x="166" y="-307.5" font-family="Helvetica,sans-Serif" font-size="10.00">/jenkins/jenlib_workspaces</text>
<text text-anchor="start" x="166" y="-295.5" font-family="Helvetica,sans-Serif" font-size="10.00">_f9/bld_nightly&#45;haldls.YmxkX25p</text>
<text text-anchor="start" x="166" y="-283.5" font-family="Helvetica,sans-Serif" font-size="10.00">Z2h0bHktaGFsZGxzIzEzNzk.x/haldls</text>
<text text-anchor="middle" x="248.51" y="-271.5" font-family="Helvetica,sans-Serif" font-size="10.00">/include/haldls/vx/v2/neuron.h</text>
</a>
</g>
</g>
<!-- Node2 -->
<g id="node2" class="node">
<title>Node2</title>
<g id="a_node2"><a xlink:title=" ">
<polygon fill="white" stroke="#bfbfbf" points="0,-195.5 0,-227.5 101.02,-227.5 101.02,-195.5 0,-195.5"/>
<text text-anchor="start" x="8" y="-214.5" font-family="Helvetica,sans-Serif" font-size="10.00">halco/hicann&#45;dls/vx</text>
<text text-anchor="middle" x="50.51" y="-202.5" font-family="Helvetica,sans-Serif" font-size="10.00">/v2/coordinates.h</text>
</a>
</g>
</g>
<!-- Node1&#45;&gt;Node2 -->
<g id="edge1" class="edge">
<title>Node1&#45;&gt;Node2</title>
<path fill="none" stroke="midnightblue" d="M180.64,-264.42C153.37,-253.54 122.58,-241.26 97.8,-231.37"/>
<polygon fill="midnightblue" stroke="midnightblue" points="98.86,-228.02 88.27,-227.57 96.26,-234.52 98.86,-228.02"/>
</g>
<!-- Node3 -->
<g id="node3" class="node">
<title>Node3</title>
<g id="a_node3"><a xlink:title=" ">
<polygon fill="white" stroke="#bfbfbf" points="119,-195.5 119,-227.5 220.02,-227.5 220.02,-195.5 119,-195.5"/>
<text text-anchor="start" x="127" y="-214.5" font-family="Helvetica,sans-Serif" font-size="10.00">halco/hicann&#45;dls/vx</text>
<text text-anchor="middle" x="169.51" y="-202.5" font-family="Helvetica,sans-Serif" font-size="10.00">/v2/neuron.h</text>
</a>
</g>
</g>
<!-- Node1&#45;&gt;Node3 -->
<g id="edge2" class="edge">
<title>Node1&#45;&gt;Node3</title>
<path fill="none" stroke="midnightblue" d="M221.32,-264.31C211.7,-254.69 200.99,-243.98 191.82,-234.81"/>
<polygon fill="midnightblue" stroke="midnightblue" points="194.08,-232.12 184.53,-227.52 189.13,-237.07 194.08,-232.12"/>
</g>
<!-- Node4 -->
<g id="node4" class="node">
<title>Node4</title>
<g id="a_node4"><a xlink:href="genpybind_8h.html" target="_top" xlink:title=" ">
<polygon fill="white" stroke="black" points="1429.44,-6.5 1429.44,-26.5 1541.58,-26.5 1541.58,-6.5 1429.44,-6.5"/>
<text text-anchor="middle" x="1485.51" y="-13.5" font-family="Helvetica,sans-Serif" font-size="10.00">haldls/vx/genpybind.h</text>
</a>
</g>
</g>
<!-- Node1&#45;&gt;Node4 -->
<g id="edge3" class="edge">
<title>Node1&#45;&gt;Node4</title>
<path fill="none" stroke="midnightblue" d="M339.16,-287.08C511.93,-276.89 899.06,-245.62 1212.51,-159 1287.94,-138.15 1305.48,-126.87 1374.51,-90 1407.52,-72.37 1443.37,-47.89 1465.14,-32.37"/>
<polygon fill="midnightblue" stroke="midnightblue" points="1467.22,-35.19 1473.3,-26.51 1463.13,-29.5 1467.22,-35.19"/>
</g>
<!-- Node5 -->
<g id="node5" class="node">
<title>Node5</title>
<g id="a_node5"><a xlink:href="neuron_8h.html" target="_top" xlink:title=" ">
<polygon fill="white" stroke="black" points="587.94,-201.5 587.94,-221.5 685.08,-221.5 685.08,-201.5 587.94,-201.5"/>
<text text-anchor="middle" x="636.51" y="-208.5" font-family="Helvetica,sans-Serif" font-size="10.00">haldls/vx/neuron.h</text>
</a>
</g>
</g>
<!-- Node1&#45;&gt;Node5 -->
<g id="edge5" class="edge">
<title>Node1&#45;&gt;Node5</title>
<path fill="none" stroke="midnightblue" d="M339.48,-272.98C414.8,-257.64 519.31,-236.36 582.18,-223.56"/>
<polygon fill="midnightblue" stroke="midnightblue" points="583.18,-226.93 592.28,-221.51 581.78,-220.07 583.18,-226.93"/>
</g>
<!-- Node12 -->
<g id="node12" class="node">
<title>Node12</title>
<g id="a_node12"><a xlink:href="cerealization_8h.html" target="_top" xlink:title=" ">
<polygon fill="white" stroke="black" points="387.83,-69.5 387.83,-89.5 497.18,-89.5 497.18,-69.5 387.83,-69.5"/>
<text text-anchor="middle" x="442.51" y="-76.5" font-family="Helvetica,sans-Serif" font-size="10.00">haldls/cerealization.h</text>
</a>
</g>
</g>
<!-- Node1&#45;&gt;Node12 -->
<g id="edge39" class="edge">
<title>Node1&#45;&gt;Node12</title>
<path fill="none" stroke="midnightblue" d="M250.55,-264.44C254.73,-228.1 267.37,-163.72 305.51,-126 324.86,-106.86 352.44,-95.77 377.79,-89.35"/>
<polygon fill="midnightblue" stroke="midnightblue" points="378.8,-92.71 387.74,-87.03 377.21,-85.89 378.8,-92.71"/>
</g>
<!-- Node4&#45;&gt;Node4 -->
<g id="edge4" class="edge">
<title>Node4&#45;&gt;Node4</title>
<path fill="none" stroke="midnightblue" d="M1514.01,-26.56C1536.5,-30.45 1559.58,-27.1 1559.58,-16.5 1559.58,-7.48 1542.85,-3.71 1523.99,-5.19"/>
<polygon fill="midnightblue" stroke="midnightblue" points="1523.5,-1.72 1514.01,-6.44 1524.37,-8.67 1523.5,-1.72"/>
</g>
<!-- Node5&#45;&gt;Node4 -->
<g id="edge11" class="edge">
<title>Node5&#45;&gt;Node4</title>
<path fill="none" stroke="midnightblue" d="M685.24,-210.35C777.1,-209.02 981.57,-201.1 1147.51,-159 1269.37,-128.08 1404.52,-60.57 1459.81,-31.39"/>
<polygon fill="midnightblue" stroke="midnightblue" points="1461.7,-34.35 1468.89,-26.57 1458.42,-28.17 1461.7,-34.35"/>
</g>
<!-- Node6 -->
<g id="node6" class="node">
<title>Node6</title>
<g id="a_node6"><a xlink:title=" ">
<polygon fill="white" stroke="#bfbfbf" points="594.12,-132.5 594.12,-152.5 632.9,-152.5 632.9,-132.5 594.12,-132.5"/>
<text text-anchor="middle" x="613.51" y="-139.5" font-family="Helvetica,sans-Serif" font-size="10.00">array</text>
</a>
</g>
</g>
<!-- Node5&#45;&gt;Node6 -->
<g id="edge6" class="edge">
<title>Node5&#45;&gt;Node6</title>
<path fill="none" stroke="midnightblue" d="M633.41,-201.46C630,-191.53 624.42,-175.28 620.04,-162.52"/>
<polygon fill="midnightblue" stroke="midnightblue" points="623.27,-161.14 616.71,-152.82 616.64,-163.42 623.27,-161.14"/>
</g>
<!-- Node7 -->
<g id="node7" class="node">
<title>Node7</title>
<g id="a_node7"><a xlink:title=" ">
<polygon fill="white" stroke="#bfbfbf" points="265.34,-6.5 265.34,-26.5 309.68,-26.5 309.68,-6.5 265.34,-6.5"/>
<text text-anchor="middle" x="287.51" y="-13.5" font-family="Helvetica,sans-Serif" font-size="10.00">iosfwd</text>
</a>
</g>
</g>
<!-- Node5&#45;&gt;Node7 -->
<g id="edge7" class="edge">
<title>Node5&#45;&gt;Node7</title>
<path fill="none" stroke="midnightblue" d="M587.91,-209.85C505.55,-207.67 343.77,-198.35 305.51,-159 273.66,-126.26 278.36,-67.25 283.48,-36.81"/>
<polygon fill="midnightblue" stroke="midnightblue" points="286.98,-37.14 285.38,-26.66 280.1,-35.85 286.98,-37.14"/>
</g>
<!-- Node8 -->
<g id="node8" class="node">
<title>Node8</title>
<g id="a_node8"><a xlink:title=" ">
<polygon fill="white" stroke="#bfbfbf" points="840.61,-132.5 840.61,-152.5 974.41,-152.5 974.41,-132.5 840.61,-132.5"/>
<text text-anchor="middle" x="907.51" y="-139.5" font-family="Helvetica,sans-Serif" font-size="10.00">halco/common/geometry.h</text>
</a>
</g>
</g>
<!-- Node5&#45;&gt;Node8 -->
<g id="edge8" class="edge">
<title>Node5&#45;&gt;Node8</title>
<path fill="none" stroke="midnightblue" d="M673.06,-201.46C721.65,-189.45 807.57,-168.21 860.81,-155.05"/>
<polygon fill="midnightblue" stroke="midnightblue" points="861.81,-158.4 870.67,-152.61 860.13,-151.61 861.81,-158.4"/>
</g>
<!-- Node9 -->
<g id="node9" class="node">
<title>Node9</title>
<g id="a_node9"><a xlink:title=" ">
<polygon fill="white" stroke="#bfbfbf" points="1030.39,-126.5 1030.39,-158.5 1138.63,-158.5 1138.63,-126.5 1030.39,-126.5"/>
<text text-anchor="start" x="1038.39" y="-145.5" font-family="Helvetica,sans-Serif" font-size="10.00">halco/common/typed</text>
<text text-anchor="middle" x="1084.51" y="-133.5" font-family="Helvetica,sans-Serif" font-size="10.00">_array.h</text>
</a>
</g>
</g>
<!-- Node5&#45;&gt;Node9 -->
<g id="edge9" class="edge">
<title>Node5&#45;&gt;Node9</title>
<path fill="none" stroke="midnightblue" d="M685.32,-205.3C757.85,-197.25 898.27,-180.44 1016.51,-159 1017.61,-158.8 1018.72,-158.59 1019.84,-158.38"/>
<polygon fill="midnightblue" stroke="midnightblue" points="1020.91,-161.74 1030.04,-156.37 1019.55,-154.87 1020.91,-161.74"/>
</g>
<!-- Node10 -->
<g id="node10" class="node">
<title>Node10</title>
<g id="a_node10"><a xlink:title=" ">
<polygon fill="white" stroke="#bfbfbf" points="315,-126.5 315,-158.5 416.02,-158.5 416.02,-126.5 315,-126.5"/>
<text text-anchor="start" x="323" y="-145.5" font-family="Helvetica,sans-Serif" font-size="10.00">halco/hicann&#45;dls/vx</text>
<text text-anchor="middle" x="365.51" y="-133.5" font-family="Helvetica,sans-Serif" font-size="10.00">/neuron.h</text>
</a>
</g>
</g>
<!-- Node5&#45;&gt;Node10 -->
<g id="edge10" class="edge">
<title>Node5&#45;&gt;Node10</title>
<path fill="none" stroke="midnightblue" d="M599.96,-201.46C555.44,-190.46 479.59,-171.7 426.24,-158.52"/>
<polygon fill="midnightblue" stroke="midnightblue" points="426.77,-155.04 416.22,-156.04 425.09,-161.84 426.77,-155.04"/>
</g>
<!-- Node11 -->
<g id="node11" class="node">
<title>Node11</title>
<g id="a_node11"><a xlink:href="sram__controller_8h.html" target="_top" xlink:title=" ">
<polygon fill="white" stroke="black" points="688.06,-132.5 688.06,-152.5 822.96,-152.5 822.96,-132.5 688.06,-132.5"/>
<text text-anchor="middle" x="755.51" y="-139.5" font-family="Helvetica,sans-Serif" font-size="10.00">haldls/vx/sram_controller.h</text>
</a>
</g>
</g>
<!-- Node5&#45;&gt;Node11 -->
<g id="edge12" class="edge">
<title>Node5&#45;&gt;Node11</title>
<path fill="none" stroke="midnightblue" d="M652.56,-201.46C672.52,-190.23 706.83,-170.91 730.31,-157.69"/>
<polygon fill="midnightblue" stroke="midnightblue" points="732.34,-160.56 739.33,-152.61 728.9,-154.46 732.34,-160.56"/>
</g>
<!-- Node5&#45;&gt;Node12 -->
<g id="edge37" class="edge">
<title>Node5&#45;&gt;Node12</title>
<path fill="none" stroke="midnightblue" d="M587.77,-208.53C548.97,-204.35 495.95,-192.36 463.51,-159 448.11,-143.16 443.69,-117.33 442.58,-99.65"/>
<polygon fill="midnightblue" stroke="midnightblue" points="446.08,-99.51 442.25,-89.63 439.08,-99.74 446.08,-99.51"/>
</g>
<!-- Node14 -->
<g id="node14" class="node">
<title>Node14</title>
<g id="a_node14"><a xlink:title=" ">
<polygon fill="white" stroke="#bfbfbf" points="509.01,-6.5 509.01,-26.5 590.01,-26.5 590.01,-6.5 509.01,-6.5"/>
<text text-anchor="middle" x="549.51" y="-13.5" font-family="Helvetica,sans-Serif" font-size="10.00">hate/visibility.h</text>
</a>
</g>
</g>
<!-- Node5&#45;&gt;Node14 -->
<g id="edge36" class="edge">
<title>Node5&#45;&gt;Node14</title>
<path fill="none" stroke="midnightblue" d="M639.39,-201.27C643.87,-185.35 651.02,-151.94 641.51,-126 627.18,-86.94 591.86,-52.3 569.39,-33.18"/>
<polygon fill="midnightblue" stroke="midnightblue" points="571.41,-30.31 561.48,-26.63 566.95,-35.7 571.41,-30.31"/>
</g>
<!-- Node20 -->
<g id="node20" class="node">
<title>Node20</title>
<g id="a_node20"><a xlink:href="traits_8h.html" target="_top" xlink:title=" ">
<polygon fill="white" stroke="black" points="958.67,-69.5 958.67,-89.5 1046.35,-89.5 1046.35,-69.5 958.67,-69.5"/>
<text text-anchor="middle" x="1002.51" y="-76.5" font-family="Helvetica,sans-Serif" font-size="10.00">haldls/vx/traits.h</text>
</a>
</g>
</g>
<!-- Node5&#45;&gt;Node20 -->
<g id="edge35" class="edge">
<title>Node5&#45;&gt;Node20</title>
<path fill="none" stroke="midnightblue" d="M685.29,-209.78C770.34,-207.49 940.79,-198.03 983.51,-159 999.8,-144.11 1003.24,-117.85 1003.47,-99.83"/>
<polygon fill="midnightblue" stroke="midnightblue" points="1006.97,-99.55 1003.28,-89.62 999.97,-99.68 1006.97,-99.55"/>
</g>
<!-- Node27 -->
<g id="node27" class="node">
<title>Node27</title>
<g id="a_node27"><a xlink:title=" ">
<polygon fill="white" stroke="#bfbfbf" points="472.89,-132.5 472.89,-152.5 576.13,-152.5 576.13,-132.5 472.89,-132.5"/>
<text text-anchor="middle" x="524.51" y="-139.5" font-family="Helvetica,sans-Serif" font-size="10.00">hxcomm/vx/target.h</text>
</a>
</g>
</g>
<!-- Node5&#45;&gt;Node27 -->
<g id="edge38" class="edge">
<title>Node5&#45;&gt;Node27</title>
<path fill="none" stroke="midnightblue" d="M621.4,-201.46C602.7,-190.28 570.61,-171.08 548.52,-157.86"/>
<polygon fill="midnightblue" stroke="midnightblue" points="550.11,-154.74 539.73,-152.61 546.52,-160.74 550.11,-154.74"/>
</g>
<!-- Node11&#45;&gt;Node4 -->
<g id="edge22" class="edge">
<title>Node11&#45;&gt;Node4</title>
<path fill="none" stroke="midnightblue" d="M798.05,-132.48C808.94,-130.26 820.64,-127.96 831.51,-126 1092.3,-78.84 1160.53,-84.44 1420.51,-33 1426.78,-31.76 1433.37,-30.33 1439.84,-28.86"/>
<polygon fill="midnightblue" stroke="midnightblue" points="1440.91,-32.2 1449.86,-26.53 1439.32,-25.39 1440.91,-32.2"/>
</g>
<!-- Node11&#45;&gt;Node12 -->
<g id="edge13" class="edge">
<title>Node11&#45;&gt;Node12</title>
<path fill="none" stroke="midnightblue" d="M709.32,-132.5C653.38,-121.6 559.18,-103.24 498.97,-91.5"/>
<polygon fill="midnightblue" stroke="midnightblue" points="499.37,-88.02 488.88,-89.54 498.03,-94.89 499.37,-88.02"/>
</g>
<!-- Node11&#45;&gt;Node14 -->
<g id="edge34" class="edge">
<title>Node11&#45;&gt;Node14</title>
<path fill="none" stroke="midnightblue" d="M746.67,-132.48C731.81,-117.7 700.42,-88.08 669.51,-69 643.23,-52.78 610.93,-39.24 586.47,-30.12"/>
<polygon fill="midnightblue" stroke="midnightblue" points="587.44,-26.75 576.84,-26.61 585.04,-33.32 587.44,-26.75"/>
</g>
<!-- Node17 -->
<g id="node17" class="node">
<title>Node17</title>
<g id="a_node17"><a xlink:href="common_8h.html" target="_top" xlink:title=" ">
<polygon fill="white" stroke="black" points="808.34,-69.5 808.34,-89.5 912.68,-89.5 912.68,-69.5 808.34,-69.5"/>
<text text-anchor="middle" x="860.51" y="-76.5" font-family="Helvetica,sans-Serif" font-size="10.00">haldls/vx/common.h</text>
</a>
</g>
</g>
<!-- Node11&#45;&gt;Node17 -->
<g id="edge19" class="edge">
<title>Node11&#45;&gt;Node17</title>
<path fill="none" stroke="midnightblue" d="M771,-132.5C788.14,-122.54 815.98,-106.37 836.07,-94.7"/>
<polygon fill="midnightblue" stroke="midnightblue" points="838.06,-97.59 844.95,-89.54 834.55,-91.53 838.06,-97.59"/>
</g>
<!-- Node11&#45;&gt;Node20 -->
<g id="edge23" class="edge">
<title>Node11&#45;&gt;Node20</title>
<path fill="none" stroke="midnightblue" d="M791.95,-132.5C835.55,-121.73 908.6,-103.69 956.17,-91.94"/>
<polygon fill="midnightblue" stroke="midnightblue" points="957.04,-95.33 965.91,-89.54 955.37,-88.54 957.04,-95.33"/>
</g>
<!-- Node26 -->
<g id="node26" class="node">
<title>Node26</title>
<g id="a_node26"><a xlink:title=" ">
<polygon fill="white" stroke="#bfbfbf" points="721.11,-69.5 721.11,-89.5 789.91,-89.5 789.91,-69.5 721.11,-69.5"/>
<text text-anchor="middle" x="755.51" y="-76.5" font-family="Helvetica,sans-Serif" font-size="10.00">hate/math.h</text>
</a>
</g>
</g>
<!-- Node11&#45;&gt;Node26 -->
<g id="edge33" class="edge">
<title>Node11&#45;&gt;Node26</title>
<path fill="none" stroke="midnightblue" d="M755.51,-132.5C755.51,-123.94 755.51,-110.78 755.51,-99.85"/>
<polygon fill="midnightblue" stroke="midnightblue" points="759.01,-99.54 755.51,-89.54 752.01,-99.54 759.01,-99.54"/>
</g>
<!-- Node12&#45;&gt;Node7 -->
<g id="edge17" class="edge">
<title>Node12&#45;&gt;Node7</title>
<path fill="none" stroke="midnightblue" d="M416.09,-69.35C391.21,-60.57 353.02,-46.67 320.51,-33 318.9,-32.33 317.26,-31.62 315.61,-30.89"/>
<polygon fill="midnightblue" stroke="midnightblue" points="316.79,-27.58 306.24,-26.62 313.89,-33.95 316.79,-27.58"/>
</g>
<!-- Node13 -->
<g id="node13" class="node">
<title>Node13</title>
<g id="a_node13"><a xlink:title=" ">
<polygon fill="white" stroke="#bfbfbf" points="664.88,-6.5 664.88,-26.5 748.13,-26.5 748.13,-6.5 664.88,-6.5"/>
<text text-anchor="middle" x="706.51" y="-13.5" font-family="Helvetica,sans-Serif" font-size="10.00">hate/type_list.h</text>
</a>
</g>
</g>
<!-- Node12&#45;&gt;Node13 -->
<g id="edge14" class="edge">
<title>Node12&#45;&gt;Node13</title>
<path fill="none" stroke="midnightblue" d="M490.58,-69.44C533.92,-60.98 599.31,-47.51 655.51,-33 659.69,-31.92 664.04,-30.72 668.37,-29.47"/>
<polygon fill="midnightblue" stroke="midnightblue" points="669.71,-32.73 678.3,-26.54 667.72,-26.02 669.71,-32.73"/>
</g>
<!-- Node12&#45;&gt;Node14 -->
<g id="edge15" class="edge">
<title>Node12&#45;&gt;Node14</title>
<path fill="none" stroke="midnightblue" d="M458.3,-69.5C475.84,-59.5 504.39,-43.22 524.88,-31.54"/>
<polygon fill="midnightblue" stroke="midnightblue" points="526.7,-34.53 533.66,-26.54 523.23,-28.45 526.7,-34.53"/>
</g>
<!-- Node15 -->
<g id="node15" class="node">
<title>Node15</title>
<g id="a_node15"><a xlink:title=" ">
<polygon fill="white" stroke="#bfbfbf" points="329.06,-6.5 329.06,-26.5 373.96,-26.5 373.96,-6.5 329.06,-6.5"/>
<text text-anchor="middle" x="351.51" y="-13.5" font-family="Helvetica,sans-Serif" font-size="10.00">cstdint</text>
</a>
</g>
</g>
<!-- Node12&#45;&gt;Node15 -->
<g id="edge16" class="edge">
<title>Node12&#45;&gt;Node15</title>
<path fill="none" stroke="midnightblue" d="M429.08,-69.5C414.43,-59.68 390.75,-43.81 373.4,-32.18"/>
<polygon fill="midnightblue" stroke="midnightblue" points="375.25,-29.2 364.99,-26.54 371.35,-35.01 375.25,-29.2"/>
</g>
<!-- Node16 -->
<g id="node16" class="node">
<title>Node16</title>
<g id="a_node16"><a xlink:title=" ">
<polygon fill="white" stroke="#bfbfbf" points="392.39,-6.5 392.39,-26.5 490.63,-26.5 490.63,-6.5 392.39,-6.5"/>
<text text-anchor="middle" x="441.51" y="-13.5" font-family="Helvetica,sans-Serif" font-size="10.00">cereal/macros.hpp</text>
</a>
</g>
</g>
<!-- Node12&#45;&gt;Node16 -->
<g id="edge18" class="edge">
<title>Node12&#45;&gt;Node16</title>
<path fill="none" stroke="midnightblue" d="M442.36,-69.5C442.22,-60.94 442,-47.78 441.83,-36.85"/>
<polygon fill="midnightblue" stroke="midnightblue" points="445.32,-36.48 441.66,-26.54 438.32,-36.59 445.32,-36.48"/>
</g>
<!-- Node18 -->
<g id="node18" class="node">
<title>Node18</title>
<g id="a_node18"><a xlink:title=" ">
<polygon fill="white" stroke="#bfbfbf" points="766.45,-6.5 766.45,-26.5 828.57,-26.5 828.57,-6.5 766.45,-6.5"/>
<text text-anchor="middle" x="797.51" y="-13.5" font-family="Helvetica,sans-Serif" font-size="10.00">type_traits</text>
</a>
</g>
</g>
<!-- Node17&#45;&gt;Node18 -->
<g id="edge20" class="edge">
<title>Node17&#45;&gt;Node18</title>
<path fill="none" stroke="midnightblue" d="M851.21,-69.5C841.53,-60.13 826.17,-45.25 814.35,-33.8"/>
<polygon fill="midnightblue" stroke="midnightblue" points="816.46,-30.98 806.84,-26.54 811.59,-36.01 816.46,-30.98"/>
</g>
<!-- Node19 -->
<g id="node19" class="node">
<title>Node19</title>
<g id="a_node19"><a xlink:title=" ">
<polygon fill="white" stroke="#bfbfbf" points="608.12,-6.5 608.12,-26.5 646.89,-26.5 646.89,-6.5 608.12,-6.5"/>
<text text-anchor="middle" x="627.51" y="-13.5" font-family="Helvetica,sans-Serif" font-size="10.00">utility</text>
</a>
</g>
</g>
<!-- Node17&#45;&gt;Node19 -->
<g id="edge21" class="edge">
<title>Node17&#45;&gt;Node19</title>
<path fill="none" stroke="midnightblue" d="M812.34,-69.47C761.13,-59.57 683.72,-43.68 655.51,-33 654.08,-32.46 652.63,-31.86 651.19,-31.21"/>
<polygon fill="midnightblue" stroke="midnightblue" points="652.45,-27.92 641.95,-26.53 649.29,-34.17 652.45,-27.92"/>
</g>
<!-- Node20&#45;&gt;Node4 -->
<g id="edge26" class="edge">
<title>Node20&#45;&gt;Node4</title>
<path fill="none" stroke="midnightblue" d="M1046.39,-75.55C1122.81,-70 1285.1,-56.42 1420.51,-33 1427.27,-31.83 1434.37,-30.38 1441.3,-28.83"/>
<polygon fill="midnightblue" stroke="midnightblue" points="1442.32,-32.18 1451.27,-26.52 1440.73,-25.37 1442.32,-32.18"/>
</g>
<!-- Node20&#45;&gt;Node13 -->
<g id="edge27" class="edge">
<title>Node20&#45;&gt;Node13</title>
<path fill="none" stroke="midnightblue" d="M958.38,-71.83C909.08,-64.02 827.07,-49.97 757.51,-33 753.09,-31.92 748.49,-30.69 743.94,-29.39"/>
<polygon fill="midnightblue" stroke="midnightblue" points="744.73,-25.98 734.15,-26.51 742.75,-32.69 744.73,-25.98"/>
</g>
<!-- Node20&#45;&gt;Node14 -->
<g id="edge28" class="edge">
<title>Node20&#45;&gt;Node14</title>
<path fill="none" stroke="midnightblue" d="M958.37,-73.28C946.41,-71.88 933.46,-70.37 921.51,-69 778.44,-52.61 740.47,-62.45 599.51,-33 594.81,-32.02 589.92,-30.78 585.11,-29.44"/>
<polygon fill="midnightblue" stroke="midnightblue" points="586.06,-26.06 575.47,-26.57 584.06,-32.77 586.06,-26.06"/>
</g>
<!-- Node20&#45;&gt;Node18 -->
<g id="edge29" class="edge">
<title>Node20&#45;&gt;Node18</title>
<path fill="none" stroke="midnightblue" d="M965.49,-69.43C931.84,-60.91 880.96,-47.37 837.51,-33 834.79,-32.1 831.99,-31.12 829.18,-30.11"/>
<polygon fill="midnightblue" stroke="midnightblue" points="830.38,-26.82 819.79,-26.59 827.93,-33.38 830.38,-26.82"/>
</g>
<!-- Node21 -->
<g id="node21" class="node">
<title>Node21</title>
<g id="a_node21"><a xlink:title=" ">
<polygon fill="white" stroke="#bfbfbf" points="1201.45,-6.5 1201.45,-26.5 1283.57,-26.5 1283.57,-6.5 1201.45,-6.5"/>
<text text-anchor="middle" x="1242.51" y="-13.5" font-family="Helvetica,sans-Serif" font-size="10.00">fisch/vx/traits.h</text>
</a>
</g>
</g>
<!-- Node20&#45;&gt;Node21 -->
<g id="edge24" class="edge">
<title>Node20&#45;&gt;Node21</title>
<path fill="none" stroke="midnightblue" d="M1043.85,-69.42C1082.47,-60.75 1141.64,-46.96 1192.51,-33 1196.55,-31.89 1200.76,-30.68 1204.94,-29.44"/>
<polygon fill="midnightblue" stroke="midnightblue" points="1206.02,-32.77 1214.57,-26.51 1203.99,-26.07 1206.02,-32.77"/>
</g>
<!-- Node22 -->
<g id="node22" class="node">
<title>Node22</title>
<g id="a_node22"><a xlink:title=" ">
<polygon fill="white" stroke="#bfbfbf" points="1301.28,-0.5 1301.28,-32.5 1411.74,-32.5 1411.74,-0.5 1301.28,-0.5"/>
<text text-anchor="start" x="1309.28" y="-19.5" font-family="Helvetica,sans-Serif" font-size="10.00">fisch/vx/word_access</text>
<text text-anchor="middle" x="1356.51" y="-7.5" font-family="Helvetica,sans-Serif" font-size="10.00">_type.h</text>
</a>
</g>
</g>
<!-- Node20&#45;&gt;Node22 -->
<g id="edge25" class="edge">
<title>Node20&#45;&gt;Node22</title>
<path fill="none" stroke="midnightblue" d="M1046.43,-72.75C1101.41,-65.3 1198.65,-51.3 1290.99,-33.21"/>
<polygon fill="midnightblue" stroke="midnightblue" points="1291.94,-36.6 1301.07,-31.22 1290.58,-29.73 1291.94,-36.6"/>
</g>
<!-- Node23 -->
<g id="node23" class="node">
<title>Node23</title>
<g id="a_node23"><a xlink:title=" ">
<polygon fill="white" stroke="#bfbfbf" points="846.11,-0.5 846.11,-32.5 944.91,-32.5 944.91,-0.5 846.11,-0.5"/>
<text text-anchor="start" x="854.11" y="-19.5" font-family="Helvetica,sans-Serif" font-size="10.00">boost/utility/enable</text>
<text text-anchor="middle" x="895.51" y="-7.5" font-family="Helvetica,sans-Serif" font-size="10.00">_if.hpp</text>
</a>
</g>
</g>
<!-- Node20&#45;&gt;Node23 -->
<g id="edge30" class="edge">
<title>Node20&#45;&gt;Node23</title>
<path fill="none" stroke="midnightblue" d="M986.72,-69.5C972.13,-61.18 949.93,-48.53 931.09,-37.78"/>
<polygon fill="midnightblue" stroke="midnightblue" points="932.58,-34.6 922.16,-32.69 929.11,-40.68 932.58,-34.6"/>
</g>
<!-- Node24 -->
<g id="node24" class="node">
<title>Node24</title>
<g id="a_node24"><a xlink:title=" ">
<polygon fill="white" stroke="#bfbfbf" points="963.16,-6.5 963.16,-26.5 1055.86,-26.5 1055.86,-6.5 963.16,-6.5"/>
<text text-anchor="middle" x="1009.51" y="-13.5" font-family="Helvetica,sans-Serif" font-size="10.00">boost/variant.hpp</text>
</a>
</g>
</g>
<!-- Node20&#45;&gt;Node24 -->
<g id="edge31" class="edge">
<title>Node20&#45;&gt;Node24</title>
<path fill="none" stroke="midnightblue" d="M1003.54,-69.5C1004.53,-60.85 1006.06,-47.51 1007.33,-36.5"/>
<polygon fill="midnightblue" stroke="midnightblue" points="1010.81,-36.87 1008.47,-26.54 1003.85,-36.07 1010.81,-36.87"/>
</g>
<!-- Node25 -->
<g id="node25" class="node">
<title>Node25</title>
<g id="a_node25"><a xlink:title=" ">
<polygon fill="white" stroke="#bfbfbf" points="1073.55,-6.5 1073.55,-26.5 1183.46,-26.5 1183.46,-6.5 1073.55,-6.5"/>
<text text-anchor="middle" x="1128.51" y="-13.5" font-family="Helvetica,sans-Serif" font-size="10.00">fisch/vx/container.def</text>
</a>
</g>
</g>
<!-- Node20&#45;&gt;Node25 -->
<g id="edge32" class="edge">
<title>Node20&#45;&gt;Node25</title>
<path fill="none" stroke="midnightblue" d="M1021.1,-69.5C1042.13,-59.32 1076.59,-42.63 1100.8,-30.91"/>
<polygon fill="midnightblue" stroke="midnightblue" points="1102.36,-34.05 1109.84,-26.54 1099.31,-27.74 1102.36,-34.05"/>
</g>
</g>
</svg>
        <g id="navigator" transform="translate(0 0)" fill="#404254">
                <rect fill="#f2f5e9" fill-opacity="0.5" stroke="#606060" stroke-width=".5" x="0" y="0" width="60" height="60"/>
                <use id="zoomplus" xlink:href="#zoomPlus" x="17" y="9" onmousedown="handleZoom(evt,'in')"/>
                <use id="zoomminus" xlink:href="#zoomMin" x="42" y="9" onmousedown="handleZoom(evt,'out')"/>
                <use id="reset" xlink:href="#resetDef" x="30" y="36" onmousedown="handleReset()"/>
                <g id="arrowUp" xlink:href="#dirArrow" transform="translate(30 24)" onmousedown="handlePan(0,-1)">
                  <use xlink:href="#rim" fill="#404040">
                        <set attributeName="fill" to="#808080" begin="arrowUp.mouseover" end="arrowUp.mouseout"/>
                  </use>
                  <path fill="none" stroke="white" stroke-width="1.5" d="M0,-3.0v7 M-2.5,-0.5L0,-3.0L2.5,-0.5"/>
                </g>
                <g id="arrowRight" xlink:href="#dirArrow" transform="rotate(90) translate(36 -43)" onmousedown="handlePan(1,0)">
                  <use xlink:href="#rim" fill="#404040">
                        <set attributeName="fill" to="#808080" begin="arrowRight.mouseover" end="arrowRight.mouseout"/>
                  </use>
                  <path fill="none" stroke="white" stroke-width="1.5" d="M0,-3.0v7 M-2.5,-0.5L0,-3.0L2.5,-0.5"/>
                </g>
                <g id="arrowDown" xlink:href="#dirArrow" transform="rotate(180) translate(-30 -48)" onmousedown="handlePan(0,1)">
                  <use xlink:href="#rim" fill="#404040">
                        <set attributeName="fill" to="#808080" begin="arrowDown.mouseover" end="arrowDown.mouseout"/>
                  </use>
                  <path fill="none" stroke="white" stroke-width="1.5" d="M0,-3.0v7 M-2.5,-0.5L0,-3.0L2.5,-0.5"/>
                </g>
                <g id="arrowLeft" xlink:href="#dirArrow" transform="rotate(270) translate(-36 17)" onmousedown="handlePan(-1,0)">
                  <use xlink:href="#rim" fill="#404040">
                        <set attributeName="fill" to="#808080" begin="arrowLeft.mouseover" end="arrowLeft.mouseout"/>
                  </use>
                  <path fill="none" stroke="white" stroke-width="1.5" d="M0,-3.0v7 M-2.5,-0.5L0,-3.0L2.5,-0.5"/>
                </g>
        </g>
        <svg viewBox="0 0 15 15" width="100%" height="30px" preserveAspectRatio="xMaxYMin meet">
         <g id="arrow_out" transform="scale(0.3 0.3)">
          <a xlink:href="v2_2neuron_8h__incl_org.svg" target="_base">
           <rect id="button" ry="5" rx="5" y="6" x="6" height="38" width="38"
                fill="#f2f5e9" fill-opacity="0.5" stroke="#606060" stroke-width="1.0"/>
           <path id="arrow"
             d="M 11.500037,31.436501 C 11.940474,20.09759 22.043105,11.32322 32.158766,21.979434 L 37.068811,17.246167 C 37.068811,17.246167 37.088388,32 37.088388,32 L 22.160133,31.978069 C 22.160133,31.978069 26.997745,27.140456 26.997745,27.140456 C 18.528582,18.264221 13.291696,25.230495 11.500037,31.436501 z"
             style="fill:#404040;"/>
          </a>
         </g>
        </svg>
</svg>
