<?xml version="1.0" encoding="UTF-8" standalone="no"?>
<!DOCTYPE svg PUBLIC "-//W3C//DTD SVG 1.1//EN"
 "http://www.w3.org/Graphics/SVG/1.1/DTD/svg11.dtd">
<!-- Generated by graphviz version 2.46.0 (0)
 -->
<!-- Title: /jenkins/jenlib_workspaces_f9/bld_nightly&#45;haldls.YmxkX25pZ2h0bHktaGFsZGxzIzEzNzk.x/haldls/include/haldls/vx/v2/pll.h Pages: 1 -->
<!--zoomable 386 -->
<svg id="main" version="1.1" xmlns="http://www.w3.org/2000/svg" xmlns:xlink="http://www.w3.org/1999/xlink" xml:space="preserve" onload="init(evt)">
<style type="text/css"><![CDATA[
.edge:hover path { stroke: red; }
.edge:hover polygon { stroke: red; fill: red; }
]]></style>
<script type="text/javascript"><![CDATA[
var edges = document.getElementsByTagName('g');
if (edges && edges.length) {
  for (var i=0;i<edges.length;i++) {
    if (edges[i].id.substr(0,4)=='edge') {
      edges[i].setAttribute('class','edge');
    }
  }
}
]]></script>
        <defs>
                <circle id="rim" cx="0" cy="0" r="7"/>
                <circle id="rim2" cx="0" cy="0" r="3.5"/>
                <g id="zoomPlus">
                        <use xlink:href="#rim" fill="#404040">
                                <set attributeName="fill" to="#808080" begin="zoomplus.mouseover" end="zoomplus.mouseout"/>
                        </use>
                        <path d="M-4,0h8M0,-4v8" fill="none" stroke="white" stroke-width="1.5" pointer-events="none"/>
                </g>
                <g id="zoomMin">
                        <use xlink:href="#rim" fill="#404040">
                                <set attributeName="fill" to="#808080" begin="zoomminus.mouseover" end="zoomminus.mouseout"/>
                        </use>
                        <path d="M-4,0h8" fill="none" stroke="white" stroke-width="1.5" pointer-events="none"/>
                </g>
                <g id="dirArrow">
                        <path fill="none" stroke="white" stroke-width="1.5" d="M0,-3.0v7 M-2.5,-0.5L0,-3.0L2.5,-0.5"/>
                </g>
               <g id="resetDef">
                       <use xlink:href="#rim2" fill="#404040">
                               <set attributeName="fill" to="#808080" begin="reset.mouseover" end="reset.mouseout"/>
                       </use>
               </g>
        </defs>

<script type="text/javascript">
var viewWidth = 1288;
var viewHeight = 386;
var sectionId = 'dynsection-0';
</script>
<script xlink:href="svgpan.js"/>
<svg id="graph" class="graph">
<g id="viewport">
<title>/jenkins/jenlib_workspaces_f9/bld_nightly&#45;haldls.YmxkX25pZ2h0bHktaGFsZGxzIzEzNzk.x/haldls/include/haldls/vx/v2/pll.h</title>
<polygon fill="white" stroke="transparent" points="-4,4 -4,-382 1284.39,-382 1284.39,4 -4,4"/>
<!-- Node1 -->
<g id="node1" class="node">
<title>Node1</title>
<g id="a_node1"><a xlink:title=" ">
<polygon fill="#bfbfbf" stroke="black" points="276.56,-321.5 276.56,-377.5 457.58,-377.5 457.58,-321.5 276.56,-321.5"/>
<text text-anchor="start" x="284.56" y="-364.5" font-family="Helvetica,sans-Serif" font-size="10.00">/jenkins/jenlib_workspaces</text>
<text text-anchor="start" x="284.56" y="-352.5" font-family="Helvetica,sans-Serif" font-size="10.00">_f9/bld_nightly&#45;haldls.YmxkX25p</text>
<text text-anchor="start" x="284.56" y="-340.5" font-family="Helvetica,sans-Serif" font-size="10.00">Z2h0bHktaGFsZGxzIzEzNzk.x/haldls</text>
<text text-anchor="middle" x="367.07" y="-328.5" font-family="Helvetica,sans-Serif" font-size="10.00">/include/haldls/vx/v2/pll.h</text>
</a>
</g>
</g>
<!-- Node2 -->
<g id="node2" class="node">
<title>Node2</title>
<g id="a_node2"><a xlink:href="genpybind_8h.html" target="_top" xlink:title=" ">
<polygon fill="white" stroke="black" points="0,-6.5 0,-26.5 112.14,-26.5 112.14,-6.5 0,-6.5"/>
<text text-anchor="middle" x="56.07" y="-13.5" font-family="Helvetica,sans-Serif" font-size="10.00">haldls/vx/genpybind.h</text>
</a>
</g>
</g>
<!-- Node1&#45;&gt;Node2 -->
<g id="edge1" class="edge">
<title>Node1&#45;&gt;Node2</title>
<path fill="none" stroke="midnightblue" d="M276.51,-343.15C191.42,-332.64 77.07,-301.89 77.07,-212.5 77.07,-212.5 77.07,-212.5 77.07,-147.5 77.07,-107.47 67.25,-61.39 61.04,-36.25"/>
<polygon fill="midnightblue" stroke="midnightblue" points="64.43,-35.38 58.56,-26.56 57.65,-37.12 64.43,-35.38"/>
</g>
<!-- Node3 -->
<g id="node3" class="node">
<title>Node3</title>
<g id="a_node3"><a xlink:href="pll_8h.html" target="_top" xlink:title=" ">
<polygon fill="white" stroke="black" points="866.07,-264.5 866.07,-284.5 942.08,-284.5 942.08,-264.5 866.07,-264.5"/>
<text text-anchor="middle" x="904.07" y="-271.5" font-family="Helvetica,sans-Serif" font-size="10.00">haldls/vx/pll.h</text>
</a>
</g>
</g>
<!-- Node1&#45;&gt;Node3 -->
<g id="edge3" class="edge">
<title>Node1&#45;&gt;Node3</title>
<path fill="none" stroke="midnightblue" d="M457.86,-336.16C572.65,-320.55 766.08,-294.26 855.75,-282.07"/>
<polygon fill="midnightblue" stroke="midnightblue" points="856.46,-285.5 865.9,-280.69 855.52,-278.57 856.46,-285.5"/>
</g>
<!-- Node2&#45;&gt;Node2 -->
<g id="edge2" class="edge">
<title>Node2&#45;&gt;Node2</title>
<path fill="none" stroke="midnightblue" d="M79.97,-26.54C103.79,-32.26 130.14,-28.92 130.14,-16.5 130.14,-5.78 110.51,-1.82 89.81,-4.62"/>
<polygon fill="midnightblue" stroke="midnightblue" points="89.15,-1.18 79.97,-6.46 90.44,-8.06 89.15,-1.18"/>
</g>
<!-- Node3&#45;&gt;Node2 -->
<g id="edge36" class="edge">
<title>Node3&#45;&gt;Node2</title>
<path fill="none" stroke="midnightblue" d="M865.78,-268.06C816.61,-260.72 728.83,-246.42 655.07,-228 476.29,-183.35 433.12,-165.31 260.07,-102 197.18,-78.99 125.13,-48.03 85.7,-30.69"/>
<polygon fill="midnightblue" stroke="midnightblue" points="86.97,-27.43 76.41,-26.59 84.14,-33.83 86.97,-27.43"/>
</g>
<!-- Node4 -->
<g id="node4" class="node">
<title>Node4</title>
<g id="a_node4"><a xlink:title=" ">
<polygon fill="white" stroke="#bfbfbf" points="1059.68,-75.5 1059.68,-95.5 1098.46,-95.5 1098.46,-75.5 1059.68,-75.5"/>
<text text-anchor="middle" x="1079.07" y="-82.5" font-family="Helvetica,sans-Serif" font-size="10.00">array</text>
</a>
</g>
</g>
<!-- Node3&#45;&gt;Node4 -->
<g id="edge4" class="edge">
<title>Node3&#45;&gt;Node4</title>
<path fill="none" stroke="midnightblue" d="M908.54,-264.48C913.05,-255.33 920.16,-240.74 926.07,-228 944.49,-188.29 935.19,-169.02 966.07,-138 993.58,-110.37 1010.65,-118.29 1046.07,-102 1047.61,-101.29 1049.19,-100.56 1050.79,-99.82"/>
<polygon fill="midnightblue" stroke="midnightblue" points="1052.32,-102.97 1059.9,-95.57 1049.36,-96.63 1052.32,-102.97"/>
</g>
<!-- Node5 -->
<g id="node5" class="node">
<title>Node5</title>
<g id="a_node5"><a xlink:title=" ">
<polygon fill="white" stroke="#bfbfbf" points="1190.9,-6.5 1190.9,-26.5 1235.24,-26.5 1235.24,-6.5 1190.9,-6.5"/>
<text text-anchor="middle" x="1213.07" y="-13.5" font-family="Helvetica,sans-Serif" font-size="10.00">iosfwd</text>
</a>
</g>
</g>
<!-- Node3&#45;&gt;Node5 -->
<g id="edge5" class="edge">
<title>Node3&#45;&gt;Node5</title>
<path fill="none" stroke="midnightblue" d="M942.28,-274.06C1022.35,-274.37 1203.72,-270.27 1245.07,-228 1294.68,-177.29 1284.36,-135.28 1259.07,-69 1253.74,-55.04 1242.69,-42.46 1232.76,-33.23"/>
<polygon fill="midnightblue" stroke="midnightblue" points="1235,-30.53 1225.16,-26.58 1230.39,-35.8 1235,-30.53"/>
</g>
<!-- Node6 -->
<g id="node6" class="node">
<title>Node6</title>
<g id="a_node6"><a xlink:title=" ">
<polygon fill="white" stroke="#bfbfbf" points="1116.17,-75.5 1116.17,-95.5 1249.97,-95.5 1249.97,-75.5 1116.17,-75.5"/>
<text text-anchor="middle" x="1183.07" y="-82.5" font-family="Helvetica,sans-Serif" font-size="10.00">halco/common/geometry.h</text>
</a>
</g>
</g>
<!-- Node3&#45;&gt;Node6 -->
<g id="edge6" class="edge">
<title>Node3&#45;&gt;Node6</title>
<path fill="none" stroke="midnightblue" d="M913.92,-264.47C930.72,-249.27 966.32,-217.98 999.07,-195 1052.86,-157.27 1120.33,-119.8 1156.78,-100.3"/>
<polygon fill="midnightblue" stroke="midnightblue" points="1158.59,-103.3 1165.77,-95.51 1155.3,-97.12 1158.59,-103.3"/>
</g>
<!-- Node7 -->
<g id="node7" class="node">
<title>Node7</title>
<g id="a_node7"><a xlink:title=" ">
<polygon fill="white" stroke="#bfbfbf" points="1007.95,-195.5 1007.95,-227.5 1116.19,-227.5 1116.19,-195.5 1007.95,-195.5"/>
<text text-anchor="start" x="1015.95" y="-214.5" font-family="Helvetica,sans-Serif" font-size="10.00">halco/common/typed</text>
<text text-anchor="middle" x="1062.07" y="-202.5" font-family="Helvetica,sans-Serif" font-size="10.00">_array.h</text>
</a>
</g>
</g>
<!-- Node3&#45;&gt;Node7 -->
<g id="edge7" class="edge">
<title>Node3&#45;&gt;Node7</title>
<path fill="none" stroke="midnightblue" d="M927.38,-264.5C949.98,-255.78 984.95,-242.28 1013.59,-231.22"/>
<polygon fill="midnightblue" stroke="midnightblue" points="1014.96,-234.44 1023.03,-227.57 1012.44,-227.91 1014.96,-234.44"/>
</g>
<!-- Node8 -->
<g id="node8" class="node">
<title>Node8</title>
<g id="a_node8"><a xlink:title=" ">
<polygon fill="white" stroke="#bfbfbf" points="1134.56,-195.5 1134.56,-227.5 1235.58,-227.5 1235.58,-195.5 1134.56,-195.5"/>
<text text-anchor="start" x="1142.56" y="-214.5" font-family="Helvetica,sans-Serif" font-size="10.00">halco/hicann&#45;dls/vx</text>
<text text-anchor="middle" x="1185.07" y="-202.5" font-family="Helvetica,sans-Serif" font-size="10.00">/pll.h</text>
</a>
</g>
</g>
<!-- Node3&#45;&gt;Node8 -->
<g id="edge8" class="edge">
<title>Node3&#45;&gt;Node8</title>
<path fill="none" stroke="midnightblue" d="M942.13,-266.26C984.28,-258.11 1054.49,-244.15 1124.5,-228.07"/>
<polygon fill="midnightblue" stroke="midnightblue" points="1125.42,-231.45 1134.38,-225.79 1123.84,-224.63 1125.42,-231.45"/>
</g>
<!-- Node9 -->
<g id="node9" class="node">
<title>Node9</title>
<g id="a_node9"><a xlink:href="cerealization_8h.html" target="_top" xlink:title=" ">
<polygon fill="white" stroke="black" points="894.4,-75.5 894.4,-95.5 1003.75,-95.5 1003.75,-75.5 894.4,-75.5"/>
<text text-anchor="middle" x="949.07" y="-82.5" font-family="Helvetica,sans-Serif" font-size="10.00">haldls/cerealization.h</text>
</a>
</g>
</g>
<!-- Node3&#45;&gt;Node9 -->
<g id="edge9" class="edge">
<title>Node3&#45;&gt;Node9</title>
<path fill="none" stroke="midnightblue" d="M905,-264.47C907.41,-242.49 914.61,-184.59 928.07,-138 931.3,-126.83 936.14,-114.77 940.36,-105.13"/>
<polygon fill="midnightblue" stroke="midnightblue" points="943.66,-106.33 944.59,-95.78 937.28,-103.45 943.66,-106.33"/>
</g>
<!-- Node11 -->
<g id="node11" class="node">
<title>Node11</title>
<g id="a_node11"><a xlink:title=" ">
<polygon fill="white" stroke="#bfbfbf" points="912.57,-6.5 912.57,-26.5 993.57,-26.5 993.57,-6.5 912.57,-6.5"/>
<text text-anchor="middle" x="953.07" y="-13.5" font-family="Helvetica,sans-Serif" font-size="10.00">hate/visibility.h</text>
</a>
</g>
</g>
<!-- Node3&#45;&gt;Node11 -->
<g id="edge38" class="edge">
<title>Node3&#45;&gt;Node11</title>
<path fill="none" stroke="midnightblue" d="M899.96,-264.31C887.2,-234.32 851.11,-137.33 885.07,-69 893.13,-52.79 908.99,-40.32 923.37,-31.71"/>
<polygon fill="midnightblue" stroke="midnightblue" points="925.48,-34.54 932.51,-26.61 922.07,-28.43 925.48,-34.54"/>
</g>
<!-- Node14 -->
<g id="node14" class="node">
<title>Node14</title>
<g id="a_node14"><a xlink:href="constants_8h.html" target="_top" xlink:title=" ">
<polygon fill="white" stroke="black" points="729.67,-201.5 729.67,-221.5 838.47,-221.5 838.47,-201.5 729.67,-201.5"/>
<text text-anchor="middle" x="784.07" y="-208.5" font-family="Helvetica,sans-Serif" font-size="10.00">haldls/vx/constants.h</text>
</a>
</g>
</g>
<!-- Node3&#45;&gt;Node14 -->
<g id="edge15" class="edge">
<title>Node3&#45;&gt;Node14</title>
<path fill="none" stroke="midnightblue" d="M886.37,-264.5C866.42,-254.36 833.8,-237.78 810.77,-226.07"/>
<polygon fill="midnightblue" stroke="midnightblue" points="812.35,-222.95 801.85,-221.54 809.18,-229.19 812.35,-222.95"/>
</g>
<!-- Node18 -->
<g id="node18" class="node">
<title>Node18</title>
<g id="a_node18"><a xlink:href="traits_8h.html" target="_top" xlink:title=" ">
<polygon fill="white" stroke="black" points="465.23,-75.5 465.23,-95.5 552.91,-95.5 552.91,-75.5 465.23,-75.5"/>
<text text-anchor="middle" x="509.07" y="-82.5" font-family="Helvetica,sans-Serif" font-size="10.00">haldls/vx/traits.h</text>
</a>
</g>
</g>
<!-- Node3&#45;&gt;Node18 -->
<g id="edge37" class="edge">
<title>Node3&#45;&gt;Node18</title>
<path fill="none" stroke="midnightblue" d="M866.03,-267.98C828.12,-261.58 768.83,-249.11 721.07,-228 643.46,-193.7 563.18,-131.4 527.76,-102.28"/>
<polygon fill="midnightblue" stroke="midnightblue" points="529.69,-99.33 519.76,-95.63 525.21,-104.72 529.69,-99.33"/>
</g>
<!-- Node9&#45;&gt;Node5 -->
<g id="edge13" class="edge">
<title>Node9&#45;&gt;Node5</title>
<path fill="none" stroke="midnightblue" d="M989.2,-75.45C998.67,-73.33 1008.72,-71.08 1018.07,-69 1090.92,-52.82 1111.72,-57.88 1182.07,-33 1183.75,-32.41 1185.45,-31.74 1187.15,-31.04"/>
<polygon fill="midnightblue" stroke="midnightblue" points="1189.06,-34.01 1196.67,-26.65 1186.12,-27.66 1189.06,-34.01"/>
</g>
<!-- Node10 -->
<g id="node10" class="node">
<title>Node10</title>
<g id="a_node10"><a xlink:title=" ">
<polygon fill="white" stroke="#bfbfbf" points="811.45,-6.5 811.45,-26.5 894.69,-26.5 894.69,-6.5 811.45,-6.5"/>
<text text-anchor="middle" x="853.07" y="-13.5" font-family="Helvetica,sans-Serif" font-size="10.00">hate/type_list.h</text>
</a>
</g>
</g>
<!-- Node9&#45;&gt;Node10 -->
<g id="edge10" class="edge">
<title>Node9&#45;&gt;Node10</title>
<path fill="none" stroke="midnightblue" d="M936.12,-75.46C920.31,-64.42 893.32,-45.59 874.42,-32.4"/>
<polygon fill="midnightblue" stroke="midnightblue" points="876.32,-29.46 866.12,-26.61 872.32,-35.2 876.32,-29.46"/>
</g>
<!-- Node9&#45;&gt;Node11 -->
<g id="edge11" class="edge">
<title>Node9&#45;&gt;Node11</title>
<path fill="none" stroke="midnightblue" d="M949.61,-75.46C950.2,-65.63 951.15,-49.61 951.91,-36.9"/>
<polygon fill="midnightblue" stroke="midnightblue" points="955.41,-37.01 952.51,-26.82 948.43,-36.6 955.41,-37.01"/>
</g>
<!-- Node12 -->
<g id="node12" class="node">
<title>Node12</title>
<g id="a_node12"><a xlink:title=" ">
<polygon fill="white" stroke="#bfbfbf" points="1011.62,-6.5 1011.62,-26.5 1056.52,-26.5 1056.52,-6.5 1011.62,-6.5"/>
<text text-anchor="middle" x="1034.07" y="-13.5" font-family="Helvetica,sans-Serif" font-size="10.00">cstdint</text>
</a>
</g>
</g>
<!-- Node9&#45;&gt;Node12 -->
<g id="edge12" class="edge">
<title>Node9&#45;&gt;Node12</title>
<path fill="none" stroke="midnightblue" d="M960.53,-75.46C974.35,-64.57 997.78,-46.1 1014.49,-32.94"/>
<polygon fill="midnightblue" stroke="midnightblue" points="1016.83,-35.55 1022.52,-26.61 1012.5,-30.05 1016.83,-35.55"/>
</g>
<!-- Node13 -->
<g id="node13" class="node">
<title>Node13</title>
<g id="a_node13"><a xlink:title=" ">
<polygon fill="white" stroke="#bfbfbf" points="1074.95,-6.5 1074.95,-26.5 1173.19,-26.5 1173.19,-6.5 1074.95,-6.5"/>
<text text-anchor="middle" x="1124.07" y="-13.5" font-family="Helvetica,sans-Serif" font-size="10.00">cereal/macros.hpp</text>
</a>
</g>
</g>
<!-- Node9&#45;&gt;Node13 -->
<g id="edge14" class="edge">
<title>Node9&#45;&gt;Node13</title>
<path fill="none" stroke="midnightblue" d="M972.67,-75.46C1003.07,-63.83 1056.1,-43.52 1090.64,-30.3"/>
<polygon fill="midnightblue" stroke="midnightblue" points="1092.2,-33.45 1100.29,-26.61 1089.69,-26.91 1092.2,-33.45"/>
</g>
<!-- Node14&#45;&gt;Node2 -->
<g id="edge16" class="edge">
<title>Node14&#45;&gt;Node2</title>
<path fill="none" stroke="midnightblue" d="M746.24,-201.46C672.41,-183.65 504.12,-142.28 364.07,-102 317.47,-88.6 306.71,-82.27 260.07,-69 207.33,-53.99 146.29,-38.87 104.83,-28.94"/>
<polygon fill="midnightblue" stroke="midnightblue" points="105.52,-25.51 94.98,-26.59 103.9,-32.32 105.52,-25.51"/>
</g>
<!-- Node15 -->
<g id="node15" class="node">
<title>Node15</title>
<g id="a_node15"><a xlink:href="timer_8h.html" target="_top" xlink:title=" ">
<polygon fill="white" stroke="black" points="744.96,-138.5 744.96,-158.5 833.18,-158.5 833.18,-138.5 744.96,-138.5"/>
<text text-anchor="middle" x="789.07" y="-145.5" font-family="Helvetica,sans-Serif" font-size="10.00">haldls/vx/timer.h</text>
</a>
</g>
</g>
<!-- Node14&#45;&gt;Node15 -->
<g id="edge17" class="edge">
<title>Node14&#45;&gt;Node15</title>
<path fill="none" stroke="midnightblue" d="M784.81,-201.5C785.51,-192.94 786.59,-179.78 787.49,-168.85"/>
<polygon fill="midnightblue" stroke="midnightblue" points="791,-168.79 788.33,-158.54 784.03,-168.22 791,-168.79"/>
</g>
<!-- Node15&#45;&gt;Node2 -->
<g id="edge24" class="edge">
<title>Node15&#45;&gt;Node2</title>
<path fill="none" stroke="midnightblue" d="M744.89,-144.41C680.59,-139.26 557.8,-126.91 456.07,-102 413.88,-91.67 406.14,-79.81 364.07,-69 265.99,-43.8 238.86,-50.3 139.07,-33 130.77,-31.56 122,-29.99 113.41,-28.41"/>
<polygon fill="midnightblue" stroke="midnightblue" points="113.91,-24.94 103.44,-26.56 112.63,-31.82 113.91,-24.94"/>
</g>
<!-- Node15&#45;&gt;Node4 -->
<g id="edge18" class="edge">
<title>Node15&#45;&gt;Node4</title>
<path fill="none" stroke="midnightblue" d="M833.58,-143.23C885.51,-137.42 973.51,-125.02 1046.07,-102 1048.23,-101.32 1050.43,-100.52 1052.61,-99.66"/>
<polygon fill="midnightblue" stroke="midnightblue" points="1054.18,-102.79 1061.95,-95.59 1051.38,-96.38 1054.18,-102.79"/>
</g>
<!-- Node15&#45;&gt;Node5 -->
<g id="edge19" class="edge">
<title>Node15&#45;&gt;Node5</title>
<path fill="none" stroke="midnightblue" d="M833.31,-145.17C880.1,-141.22 955.05,-130.59 1013.07,-102 1033.14,-92.11 1031.35,-79.56 1051.07,-69 1104.3,-40.5 1125.69,-54.6 1182.07,-33 1183.69,-32.38 1185.34,-31.7 1187,-30.98"/>
<polygon fill="midnightblue" stroke="midnightblue" points="1188.71,-34.05 1196.29,-26.64 1185.74,-27.71 1188.71,-34.05"/>
</g>
<!-- Node15&#45;&gt;Node6 -->
<g id="edge21" class="edge">
<title>Node15&#45;&gt;Node6</title>
<path fill="none" stroke="midnightblue" d="M833.44,-141.99C895.02,-134.16 1009.81,-118.86 1107.07,-102 1114.81,-100.66 1122.98,-99.12 1130.97,-97.55"/>
<polygon fill="midnightblue" stroke="midnightblue" points="1131.83,-100.95 1140.95,-95.55 1130.45,-94.08 1131.83,-100.95"/>
</g>
<!-- Node15&#45;&gt;Node9 -->
<g id="edge23" class="edge">
<title>Node15&#45;&gt;Node9</title>
<path fill="none" stroke="midnightblue" d="M812.68,-138.5C839.98,-128.09 885.09,-110.89 915.91,-99.14"/>
<polygon fill="midnightblue" stroke="midnightblue" points="917.27,-102.37 925.37,-95.54 914.78,-95.83 917.27,-102.37"/>
</g>
<!-- Node15&#45;&gt;Node11 -->
<g id="edge35" class="edge">
<title>Node15&#45;&gt;Node11</title>
<path fill="none" stroke="midnightblue" d="M794.49,-138.47C804.32,-122.7 826.45,-89.84 852.07,-69 872.24,-52.59 898.48,-39.41 919.16,-30.49"/>
<polygon fill="midnightblue" stroke="midnightblue" points="920.65,-33.66 928.52,-26.57 917.95,-27.2 920.65,-33.66"/>
</g>
<!-- Node16 -->
<g id="node16" class="node">
<title>Node16</title>
<g id="a_node16"><a xlink:title=" ">
<polygon fill="white" stroke="#bfbfbf" points="689.84,-69.5 689.84,-101.5 800.3,-101.5 800.3,-69.5 689.84,-69.5"/>
<text text-anchor="start" x="697.84" y="-88.5" font-family="Helvetica,sans-Serif" font-size="10.00">fisch/vx/word_access</text>
<text text-anchor="middle" x="745.07" y="-76.5" font-family="Helvetica,sans-Serif" font-size="10.00">/type/timer.h</text>
</a>
</g>
</g>
<!-- Node15&#45;&gt;Node16 -->
<g id="edge20" class="edge">
<title>Node15&#45;&gt;Node16</title>
<path fill="none" stroke="midnightblue" d="M782.58,-138.5C777.18,-131.01 769.25,-120.02 762.06,-110.06"/>
<polygon fill="midnightblue" stroke="midnightblue" points="764.72,-107.75 756.03,-101.69 759.04,-111.85 764.72,-107.75"/>
</g>
<!-- Node17 -->
<g id="node17" class="node">
<title>Node17</title>
<g id="a_node17"><a xlink:title=" ">
<polygon fill="white" stroke="#bfbfbf" points="570.56,-69.5 570.56,-101.5 671.58,-101.5 671.58,-69.5 570.56,-69.5"/>
<text text-anchor="start" x="578.56" y="-88.5" font-family="Helvetica,sans-Serif" font-size="10.00">halco/hicann&#45;dls/vx</text>
<text text-anchor="middle" x="621.07" y="-76.5" font-family="Helvetica,sans-Serif" font-size="10.00">/timing.h</text>
</a>
</g>
</g>
<!-- Node15&#45;&gt;Node17 -->
<g id="edge22" class="edge">
<title>Node15&#45;&gt;Node17</title>
<path fill="none" stroke="midnightblue" d="M764.28,-138.5C740.15,-129.74 702.75,-116.16 672.23,-105.07"/>
<polygon fill="midnightblue" stroke="midnightblue" points="673.18,-101.7 662.58,-101.57 670.79,-108.28 673.18,-101.7"/>
</g>
<!-- Node15&#45;&gt;Node18 -->
<g id="edge25" class="edge">
<title>Node15&#45;&gt;Node18</title>
<path fill="none" stroke="midnightblue" d="M744.67,-139.9C698.52,-131.7 624.34,-117.71 561.07,-102 556.63,-100.9 552,-99.66 547.42,-98.37"/>
<polygon fill="midnightblue" stroke="midnightblue" points="548.13,-94.93 537.55,-95.51 546.18,-101.65 548.13,-94.93"/>
</g>
<!-- Node18&#45;&gt;Node2 -->
<g id="edge28" class="edge">
<title>Node18&#45;&gt;Node2</title>
<path fill="none" stroke="midnightblue" d="M468.86,-75.43C457.94,-73.14 446.08,-70.82 435.07,-69 304.32,-47.4 270.05,-53.17 139.07,-33 130.13,-31.62 120.68,-30.01 111.49,-28.35"/>
<polygon fill="midnightblue" stroke="midnightblue" points="112.11,-24.91 101.65,-26.55 110.85,-31.8 112.11,-24.91"/>
</g>
<!-- Node18&#45;&gt;Node10 -->
<g id="edge29" class="edge">
<title>Node18&#45;&gt;Node10</title>
<path fill="none" stroke="midnightblue" d="M536.68,-75.48C544.5,-73.14 553.07,-70.78 561.07,-69 666.78,-45.47 696.42,-56.81 802.07,-33 806.73,-31.95 811.59,-30.69 816.38,-29.35"/>
<polygon fill="midnightblue" stroke="midnightblue" points="817.39,-32.7 826.01,-26.53 815.43,-25.98 817.39,-32.7"/>
</g>
<!-- Node18&#45;&gt;Node11 -->
<g id="edge30" class="edge">
<title>Node18&#45;&gt;Node11</title>
<path fill="none" stroke="midnightblue" d="M535.82,-75.49C543.86,-73.07 552.76,-70.66 561.07,-69 711.38,-38.98 754.01,-64.27 904.07,-33 908.62,-32.05 913.34,-30.85 917.98,-29.54"/>
<polygon fill="midnightblue" stroke="midnightblue" points="919.34,-32.78 927.9,-26.53 917.31,-26.08 919.34,-32.78"/>
</g>
<!-- Node19 -->
<g id="node19" class="node">
<title>Node19</title>
<g id="a_node19"><a xlink:title=" ">
<polygon fill="white" stroke="#bfbfbf" points="148.01,-6.5 148.01,-26.5 230.13,-26.5 230.13,-6.5 148.01,-6.5"/>
<text text-anchor="middle" x="189.07" y="-13.5" font-family="Helvetica,sans-Serif" font-size="10.00">fisch/vx/traits.h</text>
</a>
</g>
</g>
<!-- Node18&#45;&gt;Node19 -->
<g id="edge26" class="edge">
<title>Node18&#45;&gt;Node19</title>
<path fill="none" stroke="midnightblue" d="M466.84,-75.47C456.47,-73.3 445.38,-71.03 435.07,-69 348.17,-51.92 325.08,-54.15 239.07,-33 234.73,-31.93 230.22,-30.71 225.76,-29.42"/>
<polygon fill="midnightblue" stroke="midnightblue" points="226.74,-26.06 216.15,-26.54 224.73,-32.76 226.74,-26.06"/>
</g>
<!-- Node20 -->
<g id="node20" class="node">
<title>Node20</title>
<g id="a_node20"><a xlink:title=" ">
<polygon fill="white" stroke="#bfbfbf" points="247.84,-0.5 247.84,-32.5 358.3,-32.5 358.3,-0.5 247.84,-0.5"/>
<text text-anchor="start" x="255.84" y="-19.5" font-family="Helvetica,sans-Serif" font-size="10.00">fisch/vx/word_access</text>
<text text-anchor="middle" x="303.07" y="-7.5" font-family="Helvetica,sans-Serif" font-size="10.00">_type.h</text>
</a>
</g>
</g>
<!-- Node18&#45;&gt;Node20 -->
<g id="edge27" class="edge">
<title>Node18&#45;&gt;Node20</title>
<path fill="none" stroke="midnightblue" d="M481.29,-75.46C450.04,-65.3 398.48,-48.53 358.84,-35.64"/>
<polygon fill="midnightblue" stroke="midnightblue" points="359.89,-32.3 349.29,-32.53 357.72,-38.95 359.89,-32.3"/>
</g>
<!-- Node21 -->
<g id="node21" class="node">
<title>Node21</title>
<g id="a_node21"><a xlink:title=" ">
<polygon fill="white" stroke="#bfbfbf" points="376.01,-6.5 376.01,-26.5 438.13,-26.5 438.13,-6.5 376.01,-6.5"/>
<text text-anchor="middle" x="407.07" y="-13.5" font-family="Helvetica,sans-Serif" font-size="10.00">type_traits</text>
</a>
</g>
</g>
<!-- Node18&#45;&gt;Node21 -->
<g id="edge31" class="edge">
<title>Node18&#45;&gt;Node21</title>
<path fill="none" stroke="midnightblue" d="M495.32,-75.46C478.43,-64.38 449.58,-45.42 429.48,-32.22"/>
<polygon fill="midnightblue" stroke="midnightblue" points="431.22,-29.17 420.94,-26.61 427.37,-35.02 431.22,-29.17"/>
</g>
<!-- Node22 -->
<g id="node22" class="node">
<title>Node22</title>
<g id="a_node22"><a xlink:title=" ">
<polygon fill="white" stroke="#bfbfbf" points="455.67,-0.5 455.67,-32.5 554.47,-32.5 554.47,-0.5 455.67,-0.5"/>
<text text-anchor="start" x="463.67" y="-19.5" font-family="Helvetica,sans-Serif" font-size="10.00">boost/utility/enable</text>
<text text-anchor="middle" x="505.07" y="-7.5" font-family="Helvetica,sans-Serif" font-size="10.00">_if.hpp</text>
</a>
</g>
</g>
<!-- Node18&#45;&gt;Node22 -->
<g id="edge32" class="edge">
<title>Node18&#45;&gt;Node22</title>
<path fill="none" stroke="midnightblue" d="M508.53,-75.46C508.03,-67.04 507.26,-54.08 506.57,-42.55"/>
<polygon fill="midnightblue" stroke="midnightblue" points="510.06,-42.31 505.97,-32.53 503.07,-42.72 510.06,-42.31"/>
</g>
<!-- Node23 -->
<g id="node23" class="node">
<title>Node23</title>
<g id="a_node23"><a xlink:title=" ">
<polygon fill="white" stroke="#bfbfbf" points="572.72,-6.5 572.72,-26.5 665.42,-26.5 665.42,-6.5 572.72,-6.5"/>
<text text-anchor="middle" x="619.07" y="-13.5" font-family="Helvetica,sans-Serif" font-size="10.00">boost/variant.hpp</text>
</a>
</g>
</g>
<!-- Node18&#45;&gt;Node23 -->
<g id="edge33" class="edge">
<title>Node18&#45;&gt;Node23</title>
<path fill="none" stroke="midnightblue" d="M523.91,-75.46C542.28,-64.28 573.79,-45.08 595.49,-31.86"/>
<polygon fill="midnightblue" stroke="midnightblue" points="597.4,-34.8 604.12,-26.61 593.76,-28.82 597.4,-34.8"/>
</g>
<!-- Node24 -->
<g id="node24" class="node">
<title>Node24</title>
<g id="a_node24"><a xlink:title=" ">
<polygon fill="white" stroke="#bfbfbf" points="683.12,-6.5 683.12,-26.5 793.03,-26.5 793.03,-6.5 683.12,-6.5"/>
<text text-anchor="middle" x="738.07" y="-13.5" font-family="Helvetica,sans-Serif" font-size="10.00">fisch/vx/container.def</text>
</a>
</g>
</g>
<!-- Node18&#45;&gt;Node24 -->
<g id="edge34" class="edge">
<title>Node18&#45;&gt;Node24</title>
<path fill="none" stroke="midnightblue" d="M539.31,-75.45C546.44,-73.33 554.02,-71.08 561.07,-69 607.65,-55.28 661.2,-39.73 697.09,-29.34"/>
<polygon fill="midnightblue" stroke="midnightblue" points="698.09,-32.7 706.72,-26.55 696.14,-25.97 698.09,-32.7"/>
</g>
</g>
</svg>
        <g id="navigator" transform="translate(0 0)" fill="#404254">
                <rect fill="#f2f5e9" fill-opacity="0.5" stroke="#606060" stroke-width=".5" x="0" y="0" width="60" height="60"/>
                <use id="zoomplus" xlink:href="#zoomPlus" x="17" y="9" onmousedown="handleZoom(evt,'in')"/>
                <use id="zoomminus" xlink:href="#zoomMin" x="42" y="9" onmousedown="handleZoom(evt,'out')"/>
                <use id="reset" xlink:href="#resetDef" x="30" y="36" onmousedown="handleReset()"/>
                <g id="arrowUp" xlink:href="#dirArrow" transform="translate(30 24)" onmousedown="handlePan(0,-1)">
                  <use xlink:href="#rim" fill="#404040">
                        <set attributeName="fill" to="#808080" begin="arrowUp.mouseover" end="arrowUp.mouseout"/>
                  </use>
                  <path fill="none" stroke="white" stroke-width="1.5" d="M0,-3.0v7 M-2.5,-0.5L0,-3.0L2.5,-0.5"/>
                </g>
                <g id="arrowRight" xlink:href="#dirArrow" transform="rotate(90) translate(36 -43)" onmousedown="handlePan(1,0)">
                  <use xlink:href="#rim" fill="#404040">
                        <set attributeName="fill" to="#808080" begin="arrowRight.mouseover" end="arrowRight.mouseout"/>
                  </use>
                  <path fill="none" stroke="white" stroke-width="1.5" d="M0,-3.0v7 M-2.5,-0.5L0,-3.0L2.5,-0.5"/>
                </g>
                <g id="arrowDown" xlink:href="#dirArrow" transform="rotate(180) translate(-30 -48)" onmousedown="handlePan(0,1)">
                  <use xlink:href="#rim" fill="#404040">
                        <set attributeName="fill" to="#808080" begin="arrowDown.mouseover" end="arrowDown.mouseout"/>
                  </use>
                  <path fill="none" stroke="white" stroke-width="1.5" d="M0,-3.0v7 M-2.5,-0.5L0,-3.0L2.5,-0.5"/>
                </g>
                <g id="arrowLeft" xlink:href="#dirArrow" transform="rotate(270) translate(-36 17)" onmousedown="handlePan(-1,0)">
                  <use xlink:href="#rim" fill="#404040">
                        <set attributeName="fill" to="#808080" begin="arrowLeft.mouseover" end="arrowLeft.mouseout"/>
                  </use>
                  <path fill="none" stroke="white" stroke-width="1.5" d="M0,-3.0v7 M-2.5,-0.5L0,-3.0L2.5,-0.5"/>
                </g>
        </g>
        <svg viewBox="0 0 15 15" width="100%" height="30px" preserveAspectRatio="xMaxYMin meet">
         <g id="arrow_out" transform="scale(0.3 0.3)">
          <a xlink:href="v2_2pll_8h__incl_org.svg" target="_base">
           <rect id="button" ry="5" rx="5" y="6" x="6" height="38" width="38"
                fill="#f2f5e9" fill-opacity="0.5" stroke="#606060" stroke-width="1.0"/>
           <path id="arrow"
             d="M 11.500037,31.436501 C 11.940474,20.09759 22.043105,11.32322 32.158766,21.979434 L 37.068811,17.246167 C 37.068811,17.246167 37.088388,32 37.088388,32 L 22.160133,31.978069 C 22.160133,31.978069 26.997745,27.140456 26.997745,27.140456 C 18.528582,18.264221 13.291696,25.230495 11.500037,31.436501 z"
             style="fill:#404040;"/>
          </a>
         </g>
        </svg>
</svg>
