<?xml version="1.0" encoding="UTF-8" standalone="no"?>
<!DOCTYPE svg PUBLIC "-//W3C//DTD SVG 1.1//EN"
 "http://www.w3.org/Graphics/SVG/1.1/DTD/svg11.dtd">
<!-- Generated by graphviz version 2.46.0 (0)
 -->
<!-- Title: /jenkins/jenlib_workspaces_f9/bld_nightly&#45;haldls.YmxkX25pZ2h0bHktaGFsZGxzIzEzNzk.x/haldls/include/haldls/vx/v2/i2c.h Pages: 1 -->
<!--zoomable 260 -->
<svg id="main" version="1.1" xmlns="http://www.w3.org/2000/svg" xmlns:xlink="http://www.w3.org/1999/xlink" xml:space="preserve" onload="init(evt)">
<style type="text/css"><![CDATA[
.edge:hover path { stroke: red; }
.edge:hover polygon { stroke: red; fill: red; }
]]></style>
<script type="text/javascript"><![CDATA[
var edges = document.getElementsByTagName('g');
if (edges && edges.length) {
  for (var i=0;i<edges.length;i++) {
    if (edges[i].id.substr(0,4)=='edge') {
      edges[i].setAttribute('class','edge');
    }
  }
}
]]></script>
        <defs>
                <circle id="rim" cx="0" cy="0" r="7"/>
                <circle id="rim2" cx="0" cy="0" r="3.5"/>
                <g id="zoomPlus">
                        <use xlink:href="#rim" fill="#404040">
                                <set attributeName="fill" to="#808080" begin="zoomplus.mouseover" end="zoomplus.mouseout"/>
                        </use>
                        <path d="M-4,0h8M0,-4v8" fill="none" stroke="white" stroke-width="1.5" pointer-events="none"/>
                </g>
                <g id="zoomMin">
                        <use xlink:href="#rim" fill="#404040">
                                <set attributeName="fill" to="#808080" begin="zoomminus.mouseover" end="zoomminus.mouseout"/>
                        </use>
                        <path d="M-4,0h8" fill="none" stroke="white" stroke-width="1.5" pointer-events="none"/>
                </g>
                <g id="dirArrow">
                        <path fill="none" stroke="white" stroke-width="1.5" d="M0,-3.0v7 M-2.5,-0.5L0,-3.0L2.5,-0.5"/>
                </g>
               <g id="resetDef">
                       <use xlink:href="#rim2" fill="#404040">
                               <set attributeName="fill" to="#808080" begin="reset.mouseover" end="reset.mouseout"/>
                       </use>
               </g>
        </defs>

<script type="text/javascript">
var viewWidth = 1791;
var viewHeight = 260;
var sectionId = 'dynsection-0';
</script>
<script xlink:href="svgpan.js"/>
<svg id="graph" class="graph">
<g id="viewport">
<title>/jenkins/jenlib_workspaces_f9/bld_nightly&#45;haldls.YmxkX25pZ2h0bHktaGFsZGxzIzEzNzk.x/haldls/include/haldls/vx/v2/i2c.h</title>
<polygon fill="white" stroke="transparent" points="-4,4 -4,-256 1787.24,-256 1787.24,4 -4,4"/>
<!-- Node1 -->
<g id="node1" class="node">
<title>Node1</title>
<g id="a_node1"><a xlink:title=" ">
<polygon fill="#bfbfbf" stroke="black" points="1197.66,-195.5 1197.66,-251.5 1378.68,-251.5 1378.68,-195.5 1197.66,-195.5"/>
<text text-anchor="start" x="1205.66" y="-238.5" font-family="Helvetica,sans-Serif" font-size="10.00">/jenkins/jenlib_workspaces</text>
<text text-anchor="start" x="1205.66" y="-226.5" font-family="Helvetica,sans-Serif" font-size="10.00">_f9/bld_nightly&#45;haldls.YmxkX25p</text>
<text text-anchor="start" x="1205.66" y="-214.5" font-family="Helvetica,sans-Serif" font-size="10.00">Z2h0bHktaGFsZGxzIzEzNzk.x/haldls</text>
<text text-anchor="middle" x="1288.17" y="-202.5" font-family="Helvetica,sans-Serif" font-size="10.00">/include/haldls/vx/v2/i2c.h</text>
</a>
</g>
</g>
<!-- Node2 -->
<g id="node2" class="node">
<title>Node2</title>
<g id="a_node2"><a xlink:href="genpybind_8h.html" target="_top" xlink:title=" ">
<polygon fill="white" stroke="black" points="1653.1,-6.5 1653.1,-26.5 1765.24,-26.5 1765.24,-6.5 1653.1,-6.5"/>
<text text-anchor="middle" x="1709.17" y="-13.5" font-family="Helvetica,sans-Serif" font-size="10.00">haldls/vx/genpybind.h</text>
</a>
</g>
</g>
<!-- Node1&#45;&gt;Node2 -->
<g id="edge1" class="edge">
<title>Node1&#45;&gt;Node2</title>
<path fill="none" stroke="midnightblue" d="M1378.94,-216.78C1465.86,-206.66 1595.53,-178.76 1677.17,-102 1695.61,-84.66 1703.51,-55.62 1706.84,-36.51"/>
<polygon fill="midnightblue" stroke="midnightblue" points="1710.31,-36.97 1708.31,-26.57 1703.39,-35.94 1710.31,-36.97"/>
</g>
<!-- Node3 -->
<g id="node3" class="node">
<title>Node3</title>
<g id="a_node3"><a xlink:href="i2c_8h.html" target="_top" xlink:title=" ">
<polygon fill="white" stroke="black" points="895.77,-138.5 895.77,-158.5 974.56,-158.5 974.56,-138.5 895.77,-138.5"/>
<text text-anchor="middle" x="935.17" y="-145.5" font-family="Helvetica,sans-Serif" font-size="10.00">haldls/vx/i2c.h</text>
</a>
</g>
</g>
<!-- Node1&#45;&gt;Node3 -->
<g id="edge3" class="edge">
<title>Node1&#45;&gt;Node3</title>
<path fill="none" stroke="midnightblue" d="M1197.26,-203.7C1129.57,-189.7 1039.71,-171.12 984.74,-159.75"/>
<polygon fill="midnightblue" stroke="midnightblue" points="985.39,-156.31 974.89,-157.71 983.97,-163.17 985.39,-156.31"/>
</g>
<!-- Node2&#45;&gt;Node2 -->
<g id="edge2" class="edge">
<title>Node2&#45;&gt;Node2</title>
<path fill="none" stroke="midnightblue" d="M1733.06,-26.54C1756.89,-32.26 1783.24,-28.92 1783.24,-16.5 1783.24,-5.78 1763.6,-1.82 1742.9,-4.62"/>
<polygon fill="midnightblue" stroke="midnightblue" points="1742.25,-1.18 1733.06,-6.46 1743.54,-8.06 1742.25,-1.18"/>
</g>
<!-- Node3&#45;&gt;Node2 -->
<g id="edge21" class="edge">
<title>Node3&#45;&gt;Node2</title>
<path fill="none" stroke="midnightblue" d="M974.56,-146.9C1115.16,-144.49 1587.05,-134.07 1646.17,-102 1673,-87.45 1691.61,-55.98 1701.33,-35.82"/>
<polygon fill="midnightblue" stroke="midnightblue" points="1704.52,-37.26 1705.48,-26.71 1698.15,-34.35 1704.52,-37.26"/>
</g>
<!-- Node4 -->
<g id="node4" class="node">
<title>Node4</title>
<g id="a_node4"><a xlink:title=" ">
<polygon fill="white" stroke="#bfbfbf" points="36.78,-75.5 36.78,-95.5 75.56,-95.5 75.56,-75.5 36.78,-75.5"/>
<text text-anchor="middle" x="56.17" y="-82.5" font-family="Helvetica,sans-Serif" font-size="10.00">array</text>
</a>
</g>
</g>
<!-- Node3&#45;&gt;Node4 -->
<g id="edge4" class="edge">
<title>Node3&#45;&gt;Node4</title>
<path fill="none" stroke="midnightblue" d="M895.74,-147.73C749.63,-148.21 239.53,-146.59 84.17,-102 82.44,-101.5 80.71,-100.89 78.99,-100.19"/>
<polygon fill="midnightblue" stroke="midnightblue" points="80.1,-96.83 69.58,-95.53 76.99,-103.11 80.1,-96.83"/>
</g>
<!-- Node5 -->
<g id="node5" class="node">
<title>Node5</title>
<g id="a_node5"><a xlink:title=" ">
<polygon fill="white" stroke="#bfbfbf" points="0,-6.5 0,-26.5 44.34,-26.5 44.34,-6.5 0,-6.5"/>
<text text-anchor="middle" x="22.17" y="-13.5" font-family="Helvetica,sans-Serif" font-size="10.00">iosfwd</text>
</a>
</g>
</g>
<!-- Node3&#45;&gt;Node5 -->
<g id="edge5" class="edge">
<title>Node3&#45;&gt;Node5</title>
<path fill="none" stroke="midnightblue" d="M895.69,-146.96C725.24,-144.47 59.58,-132.77 28.17,-102 11.14,-85.32 13.27,-55.89 17.12,-36.54"/>
<polygon fill="midnightblue" stroke="midnightblue" points="20.55,-37.26 19.39,-26.73 13.73,-35.68 20.55,-37.26"/>
</g>
<!-- Node6 -->
<g id="node6" class="node">
<title>Node6</title>
<g id="a_node6"><a xlink:title=" ">
<polygon fill="white" stroke="#bfbfbf" points="220.79,-75.5 220.79,-95.5 259.55,-95.5 259.55,-75.5 220.79,-75.5"/>
<text text-anchor="middle" x="240.17" y="-82.5" font-family="Helvetica,sans-Serif" font-size="10.00">limits</text>
</a>
</g>
</g>
<!-- Node3&#45;&gt;Node6 -->
<g id="edge6" class="edge">
<title>Node3&#45;&gt;Node6</title>
<path fill="none" stroke="midnightblue" d="M895.51,-147.05C770.64,-145.27 386.87,-137.01 268.17,-102 266.48,-101.5 264.79,-100.89 263.11,-100.2"/>
<polygon fill="midnightblue" stroke="midnightblue" points="264.4,-96.94 253.88,-95.65 261.3,-103.22 264.4,-96.94"/>
</g>
<!-- Node7 -->
<g id="node7" class="node">
<title>Node7</title>
<g id="a_node7"><a xlink:title=" ">
<polygon fill="white" stroke="#bfbfbf" points="277.54,-75.5 277.54,-95.5 380.79,-95.5 380.79,-75.5 277.54,-75.5"/>
<text text-anchor="middle" x="329.17" y="-82.5" font-family="Helvetica,sans-Serif" font-size="10.00">fisch/vx/constants.h</text>
</a>
</g>
</g>
<!-- Node3&#45;&gt;Node7 -->
<g id="edge7" class="edge">
<title>Node3&#45;&gt;Node7</title>
<path fill="none" stroke="midnightblue" d="M895.56,-146.44C805.31,-143.53 577.68,-133.43 390.17,-102 383.8,-100.93 377.13,-99.53 370.62,-98.01"/>
<polygon fill="midnightblue" stroke="midnightblue" points="371.16,-94.54 360.62,-95.55 369.49,-101.34 371.16,-94.54"/>
</g>
<!-- Node8 -->
<g id="node8" class="node">
<title>Node8</title>
<g id="a_node8"><a xlink:title=" ">
<polygon fill="white" stroke="#bfbfbf" points="398.94,-69.5 398.94,-101.5 509.4,-101.5 509.4,-69.5 398.94,-69.5"/>
<text text-anchor="start" x="406.94" y="-88.5" font-family="Helvetica,sans-Serif" font-size="10.00">fisch/vx/word_access</text>
<text text-anchor="middle" x="454.17" y="-76.5" font-family="Helvetica,sans-Serif" font-size="10.00">/type/i2c.h</text>
</a>
</g>
</g>
<!-- Node3&#45;&gt;Node8 -->
<g id="edge8" class="edge">
<title>Node3&#45;&gt;Node8</title>
<path fill="none" stroke="midnightblue" d="M895.55,-144.89C822.84,-139.72 663.11,-126.66 519.45,-102.09"/>
<polygon fill="midnightblue" stroke="midnightblue" points="520.03,-98.64 509.58,-100.38 518.83,-105.54 520.03,-98.64"/>
</g>
<!-- Node9 -->
<g id="node9" class="node">
<title>Node9</title>
<g id="a_node9"><a xlink:title=" ">
<polygon fill="white" stroke="#bfbfbf" points="527.27,-75.5 527.27,-95.5 661.07,-95.5 661.07,-75.5 527.27,-75.5"/>
<text text-anchor="middle" x="594.17" y="-82.5" font-family="Helvetica,sans-Serif" font-size="10.00">halco/common/geometry.h</text>
</a>
</g>
</g>
<!-- Node3&#45;&gt;Node9 -->
<g id="edge9" class="edge">
<title>Node3&#45;&gt;Node9</title>
<path fill="none" stroke="midnightblue" d="M895.59,-141.1C843.73,-132.62 750,-116.99 670.17,-102 662.71,-100.6 654.86,-99.07 647.15,-97.52"/>
<polygon fill="midnightblue" stroke="midnightblue" points="647.62,-94.05 637.13,-95.5 646.24,-100.91 647.62,-94.05"/>
</g>
<!-- Node10 -->
<g id="node10" class="node">
<title>Node10</title>
<g id="a_node10"><a xlink:title=" ">
<polygon fill="white" stroke="#bfbfbf" points="679.38,-75.5 679.38,-95.5 800.95,-95.5 800.95,-75.5 679.38,-75.5"/>
<text text-anchor="middle" x="740.17" y="-82.5" font-family="Helvetica,sans-Serif" font-size="10.00">halco/common/iter_all.h</text>
</a>
</g>
</g>
<!-- Node3&#45;&gt;Node10 -->
<g id="edge10" class="edge">
<title>Node3&#45;&gt;Node10</title>
<path fill="none" stroke="midnightblue" d="M906.39,-138.5C872.55,-127.91 816.23,-110.29 778.65,-98.54"/>
<polygon fill="midnightblue" stroke="midnightblue" points="779.65,-95.18 769.06,-95.54 777.56,-101.86 779.65,-95.18"/>
</g>
<!-- Node11 -->
<g id="node11" class="node">
<title>Node11</title>
<g id="a_node11"><a xlink:title=" ">
<polygon fill="white" stroke="#bfbfbf" points="819.05,-69.5 819.05,-101.5 927.29,-101.5 927.29,-69.5 819.05,-69.5"/>
<text text-anchor="start" x="827.05" y="-88.5" font-family="Helvetica,sans-Serif" font-size="10.00">halco/common/typed</text>
<text text-anchor="middle" x="873.17" y="-76.5" font-family="Helvetica,sans-Serif" font-size="10.00">_array.h</text>
</a>
</g>
</g>
<!-- Node3&#45;&gt;Node11 -->
<g id="edge11" class="edge">
<title>Node3&#45;&gt;Node11</title>
<path fill="none" stroke="midnightblue" d="M926.02,-138.5C918.1,-130.71 906.32,-119.12 895.89,-108.86"/>
<polygon fill="midnightblue" stroke="midnightblue" points="898.19,-106.21 888.61,-101.69 893.28,-111.2 898.19,-106.21"/>
</g>
<!-- Node12 -->
<g id="node12" class="node">
<title>Node12</title>
<g id="a_node12"><a xlink:title=" ">
<polygon fill="white" stroke="#bfbfbf" points="945.66,-69.5 945.66,-101.5 1046.68,-101.5 1046.68,-69.5 945.66,-69.5"/>
<text text-anchor="start" x="953.66" y="-88.5" font-family="Helvetica,sans-Serif" font-size="10.00">halco/hicann&#45;dls/vx</text>
<text text-anchor="middle" x="996.17" y="-76.5" font-family="Helvetica,sans-Serif" font-size="10.00">/i2c.h</text>
</a>
</g>
</g>
<!-- Node3&#45;&gt;Node12 -->
<g id="edge12" class="edge">
<title>Node3&#45;&gt;Node12</title>
<path fill="none" stroke="midnightblue" d="M944.17,-138.5C951.96,-130.71 963.55,-119.12 973.81,-108.86"/>
<polygon fill="midnightblue" stroke="midnightblue" points="976.38,-111.24 980.98,-101.69 971.43,-106.29 976.38,-111.24"/>
</g>
<!-- Node13 -->
<g id="node13" class="node">
<title>Node13</title>
<g id="a_node13"><a xlink:title=" ">
<polygon fill="white" stroke="#bfbfbf" points="1064.66,-69.5 1064.66,-101.5 1165.68,-101.5 1165.68,-69.5 1064.66,-69.5"/>
<text text-anchor="start" x="1072.66" y="-88.5" font-family="Helvetica,sans-Serif" font-size="10.00">halco/hicann&#45;dls/vx</text>
<text text-anchor="middle" x="1115.17" y="-76.5" font-family="Helvetica,sans-Serif" font-size="10.00">/ultra96.h</text>
</a>
</g>
</g>
<!-- Node3&#45;&gt;Node13 -->
<g id="edge13" class="edge">
<title>Node3&#45;&gt;Node13</title>
<path fill="none" stroke="midnightblue" d="M961.73,-138.5C987.81,-129.66 1028.34,-115.92 1061.21,-104.79"/>
<polygon fill="midnightblue" stroke="midnightblue" points="1062.34,-108.1 1070.69,-101.57 1060.1,-101.47 1062.34,-108.1"/>
</g>
<!-- Node14 -->
<g id="node14" class="node">
<title>Node14</title>
<g id="a_node14"><a xlink:title=" ">
<polygon fill="white" stroke="#bfbfbf" points="1183.66,-69.5 1183.66,-101.5 1284.68,-101.5 1284.68,-69.5 1183.66,-69.5"/>
<text text-anchor="start" x="1191.66" y="-88.5" font-family="Helvetica,sans-Serif" font-size="10.00">halco/hicann&#45;dls/vx</text>
<text text-anchor="middle" x="1234.17" y="-76.5" font-family="Helvetica,sans-Serif" font-size="10.00">/xboard.h</text>
</a>
</g>
</g>
<!-- Node3&#45;&gt;Node14 -->
<g id="edge14" class="edge">
<title>Node3&#45;&gt;Node14</title>
<path fill="none" stroke="midnightblue" d="M974.84,-140.85C1020.52,-133 1098.03,-119.1 1173.26,-102.36"/>
<polygon fill="midnightblue" stroke="midnightblue" points="1174.38,-105.69 1183.37,-100.08 1172.85,-98.86 1174.38,-105.69"/>
</g>
<!-- Node15 -->
<g id="node15" class="node">
<title>Node15</title>
<g id="a_node15"><a xlink:href="cerealization_8h.html" target="_top" xlink:title=" ">
<polygon fill="white" stroke="black" points="93.49,-75.5 93.49,-95.5 202.84,-95.5 202.84,-75.5 93.49,-75.5"/>
<text text-anchor="middle" x="148.17" y="-82.5" font-family="Helvetica,sans-Serif" font-size="10.00">haldls/cerealization.h</text>
</a>
</g>
</g>
<!-- Node3&#45;&gt;Node15 -->
<g id="edge15" class="edge">
<title>Node3&#45;&gt;Node15</title>
<path fill="none" stroke="midnightblue" d="M895.73,-147.43C786.46,-146.72 470.82,-141.15 212.17,-102 205.26,-100.95 198,-99.52 190.95,-97.95"/>
<polygon fill="midnightblue" stroke="midnightblue" points="191.37,-94.46 180.84,-95.58 189.77,-101.27 191.37,-94.46"/>
</g>
<!-- Node17 -->
<g id="node17" class="node">
<title>Node17</title>
<g id="a_node17"><a xlink:title=" ">
<polygon fill="white" stroke="#bfbfbf" points="891.66,-6.5 891.66,-26.5 972.67,-26.5 972.67,-6.5 891.66,-6.5"/>
<text text-anchor="middle" x="932.17" y="-13.5" font-family="Helvetica,sans-Serif" font-size="10.00">hate/visibility.h</text>
</a>
</g>
</g>
<!-- Node3&#45;&gt;Node17 -->
<g id="edge33" class="edge">
<title>Node3&#45;&gt;Node17</title>
<path fill="none" stroke="midnightblue" d="M974.87,-145.38C1063.89,-140.23 1273.29,-125.68 1294.17,-102 1303.86,-91 1303.93,-79.95 1294.17,-69 1247.73,-16.9 1050.46,-47.39 982.17,-33 977.47,-32.01 972.58,-30.77 967.78,-29.42"/>
<polygon fill="midnightblue" stroke="midnightblue" points="968.72,-26.05 958.14,-26.55 966.72,-32.76 968.72,-26.05"/>
</g>
<!-- Node20 -->
<g id="node20" class="node">
<title>Node20</title>
<g id="a_node20"><a xlink:href="traits_8h.html" target="_top" xlink:title=" ">
<polygon fill="white" stroke="black" points="1341.33,-75.5 1341.33,-95.5 1429.01,-95.5 1429.01,-75.5 1341.33,-75.5"/>
<text text-anchor="middle" x="1385.17" y="-82.5" font-family="Helvetica,sans-Serif" font-size="10.00">haldls/vx/traits.h</text>
</a>
</g>
</g>
<!-- Node3&#45;&gt;Node20 -->
<g id="edge22" class="edge">
<title>Node3&#45;&gt;Node20</title>
<path fill="none" stroke="midnightblue" d="M974.68,-144.83C1045.71,-139.6 1199.46,-126.34 1327.17,-102 1332.94,-100.9 1338.98,-99.53 1344.9,-98.07"/>
<polygon fill="midnightblue" stroke="midnightblue" points="1345.85,-101.44 1354.66,-95.55 1344.1,-94.66 1345.85,-101.44"/>
</g>
<!-- Node27 -->
<g id="node27" class="node">
<title>Node27</title>
<g id="a_node27"><a xlink:title=" ">
<polygon fill="white" stroke="#bfbfbf" points="1446.77,-75.5 1446.77,-95.5 1515.57,-95.5 1515.57,-75.5 1446.77,-75.5"/>
<text text-anchor="middle" x="1481.17" y="-82.5" font-family="Helvetica,sans-Serif" font-size="10.00">hate/math.h</text>
</a>
</g>
</g>
<!-- Node3&#45;&gt;Node27 -->
<g id="edge32" class="edge">
<title>Node3&#45;&gt;Node27</title>
<path fill="none" stroke="midnightblue" d="M974.82,-147.34C1060.47,-146.24 1268.67,-139.56 1438.17,-102 1441.87,-101.18 1445.69,-100.12 1449.46,-98.95"/>
<polygon fill="midnightblue" stroke="midnightblue" points="1450.83,-102.18 1459.17,-95.65 1448.58,-95.55 1450.83,-102.18"/>
</g>
<!-- Node28 -->
<g id="node28" class="node">
<title>Node28</title>
<g id="a_node28"><a xlink:title=" ">
<polygon fill="white" stroke="#bfbfbf" points="1533.55,-75.5 1533.55,-95.5 1636.79,-95.5 1636.79,-75.5 1533.55,-75.5"/>
<text text-anchor="middle" x="1585.17" y="-82.5" font-family="Helvetica,sans-Serif" font-size="10.00">hxcomm/vx/target.h</text>
</a>
</g>
</g>
<!-- Node3&#45;&gt;Node28 -->
<g id="edge34" class="edge">
<title>Node3&#45;&gt;Node28</title>
<path fill="none" stroke="midnightblue" d="M974.74,-146.78C1069.97,-144.55 1319.23,-135.7 1524.17,-102 1530.61,-100.94 1537.36,-99.53 1543.93,-98"/>
<polygon fill="midnightblue" stroke="midnightblue" points="1545.17,-101.3 1554.04,-95.51 1543.49,-94.5 1545.17,-101.3"/>
</g>
<!-- Node15&#45;&gt;Node5 -->
<g id="edge19" class="edge">
<title>Node15&#45;&gt;Node5</title>
<path fill="none" stroke="midnightblue" d="M131.17,-75.46C109.85,-64.13 73.07,-44.56 48.19,-31.34"/>
<polygon fill="midnightblue" stroke="midnightblue" points="49.77,-28.21 39.29,-26.61 46.48,-34.39 49.77,-28.21"/>
</g>
<!-- Node16 -->
<g id="node16" class="node">
<title>Node16</title>
<g id="a_node16"><a xlink:title=" ">
<polygon fill="white" stroke="#bfbfbf" points="522.54,-6.5 522.54,-26.5 605.79,-26.5 605.79,-6.5 522.54,-6.5"/>
<text text-anchor="middle" x="564.17" y="-13.5" font-family="Helvetica,sans-Serif" font-size="10.00">hate/type_list.h</text>
</a>
</g>
</g>
<!-- Node15&#45;&gt;Node16 -->
<g id="edge16" class="edge">
<title>Node15&#45;&gt;Node16</title>
<path fill="none" stroke="midnightblue" d="M182.92,-75.47C192.37,-73.18 202.63,-70.85 212.17,-69 318.14,-48.46 443.49,-31.96 512.35,-23.56"/>
<polygon fill="midnightblue" stroke="midnightblue" points="513,-27.01 522.5,-22.33 512.16,-20.06 513,-27.01"/>
</g>
<!-- Node15&#45;&gt;Node17 -->
<g id="edge17" class="edge">
<title>Node15&#45;&gt;Node17</title>
<path fill="none" stroke="midnightblue" d="M180.85,-75.48C190.83,-73.02 201.89,-70.6 212.17,-69 341.58,-48.84 739.65,-27.27 881.4,-20.03"/>
<polygon fill="midnightblue" stroke="midnightblue" points="881.74,-23.52 891.55,-19.51 881.38,-16.53 881.74,-23.52"/>
</g>
<!-- Node18 -->
<g id="node18" class="node">
<title>Node18</title>
<g id="a_node18"><a xlink:title=" ">
<polygon fill="white" stroke="#bfbfbf" points="190.72,-6.5 190.72,-26.5 235.62,-26.5 235.62,-6.5 190.72,-6.5"/>
<text text-anchor="middle" x="213.17" y="-13.5" font-family="Helvetica,sans-Serif" font-size="10.00">cstdint</text>
</a>
</g>
</g>
<!-- Node15&#45;&gt;Node18 -->
<g id="edge18" class="edge">
<title>Node15&#45;&gt;Node18</title>
<path fill="none" stroke="midnightblue" d="M156.93,-75.46C167.15,-64.93 184.25,-47.31 196.91,-34.26"/>
<polygon fill="midnightblue" stroke="midnightblue" points="199.67,-36.44 204.12,-26.82 194.65,-31.56 199.67,-36.44"/>
</g>
<!-- Node19 -->
<g id="node19" class="node">
<title>Node19</title>
<g id="a_node19"><a xlink:title=" ">
<polygon fill="white" stroke="#bfbfbf" points="74.05,-6.5 74.05,-26.5 172.29,-26.5 172.29,-6.5 74.05,-6.5"/>
<text text-anchor="middle" x="123.17" y="-13.5" font-family="Helvetica,sans-Serif" font-size="10.00">cereal/macros.hpp</text>
</a>
</g>
</g>
<!-- Node15&#45;&gt;Node19 -->
<g id="edge20" class="edge">
<title>Node15&#45;&gt;Node19</title>
<path fill="none" stroke="midnightblue" d="M144.8,-75.46C141.09,-65.53 135.03,-49.28 130.26,-36.52"/>
<polygon fill="midnightblue" stroke="midnightblue" points="133.42,-34.97 126.65,-26.82 126.86,-37.42 133.42,-34.97"/>
</g>
<!-- Node20&#45;&gt;Node2 -->
<g id="edge25" class="edge">
<title>Node20&#45;&gt;Node2</title>
<path fill="none" stroke="midnightblue" d="M1413.9,-75.47C1421.72,-73.18 1430.23,-70.85 1438.17,-69 1528.69,-47.92 1553.14,-51.79 1644.17,-33 1650.36,-31.72 1656.85,-30.29 1663.25,-28.82"/>
<polygon fill="midnightblue" stroke="midnightblue" points="1664.21,-32.19 1673.15,-26.5 1662.62,-25.37 1664.21,-32.19"/>
</g>
<!-- Node20&#45;&gt;Node16 -->
<g id="edge26" class="edge">
<title>Node20&#45;&gt;Node16</title>
<path fill="none" stroke="midnightblue" d="M1341.32,-76.14C1326.4,-73.53 1309.6,-70.85 1294.17,-69 1041.01,-38.58 736.13,-24.21 616.21,-19.41"/>
<polygon fill="midnightblue" stroke="midnightblue" points="616,-15.9 605.87,-19.01 615.72,-22.9 616,-15.9"/>
</g>
<!-- Node20&#45;&gt;Node17 -->
<g id="edge27" class="edge">
<title>Node20&#45;&gt;Node17</title>
<path fill="none" stroke="midnightblue" d="M1354.97,-75.47C1346.08,-73.07 1336.29,-70.68 1327.17,-69 1175.56,-41.01 1133.19,-63.97 982.17,-33 977.41,-32.02 972.46,-30.78 967.61,-29.42"/>
<polygon fill="midnightblue" stroke="midnightblue" points="968.45,-26.02 957.87,-26.53 966.45,-32.73 968.45,-26.02"/>
</g>
<!-- Node21 -->
<g id="node21" class="node">
<title>Node21</title>
<g id="a_node21"><a xlink:title=" ">
<polygon fill="white" stroke="#bfbfbf" points="1229.11,-6.5 1229.11,-26.5 1311.23,-26.5 1311.23,-6.5 1229.11,-6.5"/>
<text text-anchor="middle" x="1270.17" y="-13.5" font-family="Helvetica,sans-Serif" font-size="10.00">fisch/vx/traits.h</text>
</a>
</g>
</g>
<!-- Node20&#45;&gt;Node21 -->
<g id="edge23" class="edge">
<title>Node20&#45;&gt;Node21</title>
<path fill="none" stroke="midnightblue" d="M1369.66,-75.46C1350.37,-64.23 1317.21,-44.91 1294.52,-31.69"/>
<polygon fill="midnightblue" stroke="midnightblue" points="1296.2,-28.62 1285.8,-26.61 1292.68,-34.67 1296.2,-28.62"/>
</g>
<!-- Node22 -->
<g id="node22" class="node">
<title>Node22</title>
<g id="a_node22"><a xlink:title=" ">
<polygon fill="white" stroke="#bfbfbf" points="1328.94,-0.5 1328.94,-32.5 1439.4,-32.5 1439.4,-0.5 1328.94,-0.5"/>
<text text-anchor="start" x="1336.94" y="-19.5" font-family="Helvetica,sans-Serif" font-size="10.00">fisch/vx/word_access</text>
<text text-anchor="middle" x="1384.17" y="-7.5" font-family="Helvetica,sans-Serif" font-size="10.00">_type.h</text>
</a>
</g>
</g>
<!-- Node20&#45;&gt;Node22 -->
<g id="edge24" class="edge">
<title>Node20&#45;&gt;Node22</title>
<path fill="none" stroke="midnightblue" d="M1385.03,-75.46C1384.91,-67.04 1384.71,-54.08 1384.54,-42.55"/>
<polygon fill="midnightblue" stroke="midnightblue" points="1388.04,-42.48 1384.39,-32.53 1381.04,-42.58 1388.04,-42.48"/>
</g>
<!-- Node23 -->
<g id="node23" class="node">
<title>Node23</title>
<g id="a_node23"><a xlink:title=" ">
<polygon fill="white" stroke="#bfbfbf" points="1457.11,-6.5 1457.11,-26.5 1519.23,-26.5 1519.23,-6.5 1457.11,-6.5"/>
<text text-anchor="middle" x="1488.17" y="-13.5" font-family="Helvetica,sans-Serif" font-size="10.00">type_traits</text>
</a>
</g>
</g>
<!-- Node20&#45;&gt;Node23 -->
<g id="edge28" class="edge">
<title>Node20&#45;&gt;Node23</title>
<path fill="none" stroke="midnightblue" d="M1399.06,-75.46C1416.11,-64.38 1445.24,-45.42 1465.54,-32.22"/>
<polygon fill="midnightblue" stroke="midnightblue" points="1467.69,-34.99 1474.17,-26.61 1463.88,-29.13 1467.69,-34.99"/>
</g>
<!-- Node24 -->
<g id="node24" class="node">
<title>Node24</title>
<g id="a_node24"><a xlink:title=" ">
<polygon fill="white" stroke="#bfbfbf" points="1536.77,-0.5 1536.77,-32.5 1635.57,-32.5 1635.57,-0.5 1536.77,-0.5"/>
<text text-anchor="start" x="1544.77" y="-19.5" font-family="Helvetica,sans-Serif" font-size="10.00">boost/utility/enable</text>
<text text-anchor="middle" x="1586.17" y="-7.5" font-family="Helvetica,sans-Serif" font-size="10.00">_if.hpp</text>
</a>
</g>
</g>
<!-- Node20&#45;&gt;Node24 -->
<g id="edge29" class="edge">
<title>Node20&#45;&gt;Node24</title>
<path fill="none" stroke="midnightblue" d="M1412.28,-75.46C1442.7,-65.32 1492.86,-48.6 1531.51,-35.72"/>
<polygon fill="midnightblue" stroke="midnightblue" points="1532.69,-39.02 1541.07,-32.53 1530.47,-32.38 1532.69,-39.02"/>
</g>
<!-- Node25 -->
<g id="node25" class="node">
<title>Node25</title>
<g id="a_node25"><a xlink:title=" ">
<polygon fill="white" stroke="#bfbfbf" points="990.82,-6.5 990.82,-26.5 1083.52,-26.5 1083.52,-6.5 990.82,-6.5"/>
<text text-anchor="middle" x="1037.17" y="-13.5" font-family="Helvetica,sans-Serif" font-size="10.00">boost/variant.hpp</text>
</a>
</g>
</g>
<!-- Node20&#45;&gt;Node25 -->
<g id="edge30" class="edge">
<title>Node20&#45;&gt;Node25</title>
<path fill="none" stroke="midnightblue" d="M1353.71,-75.42C1345.15,-73.14 1335.84,-70.82 1327.17,-69 1223.75,-47.33 1195.43,-55.37 1092.17,-33 1087.09,-31.9 1081.78,-30.6 1076.56,-29.23"/>
<polygon fill="midnightblue" stroke="midnightblue" points="1077.25,-25.79 1066.69,-26.54 1075.41,-32.54 1077.25,-25.79"/>
</g>
<!-- Node26 -->
<g id="node26" class="node">
<title>Node26</title>
<g id="a_node26"><a xlink:title=" ">
<polygon fill="white" stroke="#bfbfbf" points="1101.21,-6.5 1101.21,-26.5 1211.12,-26.5 1211.12,-6.5 1101.21,-6.5"/>
<text text-anchor="middle" x="1156.17" y="-13.5" font-family="Helvetica,sans-Serif" font-size="10.00">fisch/vx/container.def</text>
</a>
</g>
</g>
<!-- Node20&#45;&gt;Node26 -->
<g id="edge31" class="edge">
<title>Node20&#45;&gt;Node26</title>
<path fill="none" stroke="midnightblue" d="M1354.28,-75.46C1313.65,-63.58 1242.13,-42.65 1197.04,-29.46"/>
<polygon fill="midnightblue" stroke="midnightblue" points="1197.87,-26.06 1187.29,-26.61 1195.91,-32.77 1197.87,-26.06"/>
</g>
</g>
</svg>
        <g id="navigator" transform="translate(0 0)" fill="#404254">
                <rect fill="#f2f5e9" fill-opacity="0.5" stroke="#606060" stroke-width=".5" x="0" y="0" width="60" height="60"/>
                <use id="zoomplus" xlink:href="#zoomPlus" x="17" y="9" onmousedown="handleZoom(evt,'in')"/>
                <use id="zoomminus" xlink:href="#zoomMin" x="42" y="9" onmousedown="handleZoom(evt,'out')"/>
                <use id="reset" xlink:href="#resetDef" x="30" y="36" onmousedown="handleReset()"/>
                <g id="arrowUp" xlink:href="#dirArrow" transform="translate(30 24)" onmousedown="handlePan(0,-1)">
                  <use xlink:href="#rim" fill="#404040">
                        <set attributeName="fill" to="#808080" begin="arrowUp.mouseover" end="arrowUp.mouseout"/>
                  </use>
                  <path fill="none" stroke="white" stroke-width="1.5" d="M0,-3.0v7 M-2.5,-0.5L0,-3.0L2.5,-0.5"/>
                </g>
                <g id="arrowRight" xlink:href="#dirArrow" transform="rotate(90) translate(36 -43)" onmousedown="handlePan(1,0)">
                  <use xlink:href="#rim" fill="#404040">
                        <set attributeName="fill" to="#808080" begin="arrowRight.mouseover" end="arrowRight.mouseout"/>
                  </use>
                  <path fill="none" stroke="white" stroke-width="1.5" d="M0,-3.0v7 M-2.5,-0.5L0,-3.0L2.5,-0.5"/>
                </g>
                <g id="arrowDown" xlink:href="#dirArrow" transform="rotate(180) translate(-30 -48)" onmousedown="handlePan(0,1)">
                  <use xlink:href="#rim" fill="#404040">
                        <set attributeName="fill" to="#808080" begin="arrowDown.mouseover" end="arrowDown.mouseout"/>
                  </use>
                  <path fill="none" stroke="white" stroke-width="1.5" d="M0,-3.0v7 M-2.5,-0.5L0,-3.0L2.5,-0.5"/>
                </g>
                <g id="arrowLeft" xlink:href="#dirArrow" transform="rotate(270) translate(-36 17)" onmousedown="handlePan(-1,0)">
                  <use xlink:href="#rim" fill="#404040">
                        <set attributeName="fill" to="#808080" begin="arrowLeft.mouseover" end="arrowLeft.mouseout"/>
                  </use>
                  <path fill="none" stroke="white" stroke-width="1.5" d="M0,-3.0v7 M-2.5,-0.5L0,-3.0L2.5,-0.5"/>
                </g>
        </g>
        <svg viewBox="0 0 15 15" width="100%" height="30px" preserveAspectRatio="xMaxYMin meet">
         <g id="arrow_out" transform="scale(0.3 0.3)">
          <a xlink:href="v2_2i2c_8h__incl_org.svg" target="_base">
           <rect id="button" ry="5" rx="5" y="6" x="6" height="38" width="38"
                fill="#f2f5e9" fill-opacity="0.5" stroke="#606060" stroke-width="1.0"/>
           <path id="arrow"
             d="M 11.500037,31.436501 C 11.940474,20.09759 22.043105,11.32322 32.158766,21.979434 L 37.068811,17.246167 C 37.068811,17.246167 37.088388,32 37.088388,32 L 22.160133,31.978069 C 22.160133,31.978069 26.997745,27.140456 26.997745,27.140456 C 18.528582,18.264221 13.291696,25.230495 11.500037,31.436501 z"
             style="fill:#404040;"/>
          </a>
         </g>
        </svg>
</svg>
