<?xml version="1.0" encoding="UTF-8" standalone="no"?>
<!DOCTYPE svg PUBLIC "-//W3C//DTD SVG 1.1//EN"
 "http://www.w3.org/Graphics/SVG/1.1/DTD/svg11.dtd">
<!-- Generated by graphviz version 2.46.0 (0)
 -->
<!-- Title: /jenkins/jenlib_workspaces_f9/bld_nightly&#45;haldls.YmxkX25pZ2h0bHktaGFsZGxzIzEzNzk.x/haldls/include/haldls/vx/v3/background.h Pages: 1 -->
<svg width="1262pt" height="260pt"
 viewBox="0.00 0.00 1261.58 260.00" xmlns="http://www.w3.org/2000/svg" xmlns:xlink="http://www.w3.org/1999/xlink">
<g id="graph0" class="graph" transform="scale(1 1) rotate(0) translate(4 256)">
<title>/jenkins/jenlib_workspaces_f9/bld_nightly&#45;haldls.YmxkX25pZ2h0bHktaGFsZGxzIzEzNzk.x/haldls/include/haldls/vx/v3/background.h</title>
<polygon fill="white" stroke="transparent" points="-4,4 -4,-256 1257.58,-256 1257.58,4 -4,4"/>
<!-- Node1 -->
<g id="node1" class="node">
<title>Node1</title>
<g id="a_node1"><a xlink:title=" ">
<polygon fill="#bfbfbf" stroke="black" points="718,-195.5 718,-251.5 899.02,-251.5 899.02,-195.5 718,-195.5"/>
<text text-anchor="start" x="726" y="-238.5" font-family="Helvetica,sans-Serif" font-size="10.00">/jenkins/jenlib_workspaces</text>
<text text-anchor="start" x="726" y="-226.5" font-family="Helvetica,sans-Serif" font-size="10.00">_f9/bld_nightly&#45;haldls.YmxkX25p</text>
<text text-anchor="start" x="726" y="-214.5" font-family="Helvetica,sans-Serif" font-size="10.00">Z2h0bHktaGFsZGxzIzEzNzk.x/haldls</text>
<text text-anchor="middle" x="808.51" y="-202.5" font-family="Helvetica,sans-Serif" font-size="10.00">/include/haldls/vx/v3/background.h</text>
</a>
</g>
</g>
<!-- Node2 -->
<g id="node2" class="node">
<title>Node2</title>
<g id="a_node2"><a xlink:href="background_8h.html" target="_top" xlink:title=" ">
<polygon fill="white" stroke="black" points="534.38,-138.5 534.38,-158.5 652.63,-158.5 652.63,-138.5 534.38,-138.5"/>
<text text-anchor="middle" x="593.51" y="-145.5" font-family="Helvetica,sans-Serif" font-size="10.00">haldls/vx/background.h</text>
</a>
</g>
</g>
<!-- Node1&#45;&gt;Node2 -->
<g id="edge1" class="edge">
<title>Node1&#45;&gt;Node2</title>
<path fill="none" stroke="midnightblue" d="M728.76,-195.42C694.85,-183.91 656.98,-171.05 629.96,-161.88"/>
<polygon fill="midnightblue" stroke="midnightblue" points="630.76,-158.45 620.17,-158.55 628.51,-165.08 630.76,-158.45"/>
</g>
<!-- Node13 -->
<g id="node13" class="node">
<title>Node13</title>
<g id="a_node13"><a xlink:href="genpybind_8h.html" target="_top" xlink:title=" ">
<polygon fill="white" stroke="black" points="1123.44,-6.5 1123.44,-26.5 1235.58,-26.5 1235.58,-6.5 1123.44,-6.5"/>
<text text-anchor="middle" x="1179.51" y="-13.5" font-family="Helvetica,sans-Serif" font-size="10.00">haldls/vx/genpybind.h</text>
</a>
</g>
</g>
<!-- Node1&#45;&gt;Node13 -->
<g id="edge28" class="edge">
<title>Node1&#45;&gt;Node13</title>
<path fill="none" stroke="midnightblue" d="M868.54,-195.49C918.62,-172.33 991.42,-137.21 1052.51,-102 1091.13,-79.74 1133.87,-50.22 1158.61,-32.61"/>
<polygon fill="midnightblue" stroke="midnightblue" points="1160.78,-35.36 1166.88,-26.7 1156.71,-29.67 1160.78,-35.36"/>
</g>
<!-- Node3 -->
<g id="node3" class="node">
<title>Node3</title>
<g id="a_node3"><a xlink:title=" ">
<polygon fill="white" stroke="#bfbfbf" points="815.12,-75.5 815.12,-95.5 853.9,-95.5 853.9,-75.5 815.12,-75.5"/>
<text text-anchor="middle" x="834.51" y="-82.5" font-family="Helvetica,sans-Serif" font-size="10.00">array</text>
</a>
</g>
</g>
<!-- Node2&#45;&gt;Node3 -->
<g id="edge2" class="edge">
<title>Node2&#45;&gt;Node3</title>
<path fill="none" stroke="midnightblue" d="M652.69,-139.66C696.18,-132.76 756.22,-120.82 806.51,-102 807.94,-101.46 809.39,-100.87 810.83,-100.22"/>
<polygon fill="midnightblue" stroke="midnightblue" points="812.73,-103.18 820.08,-95.55 809.57,-96.94 812.73,-103.18"/>
</g>
<!-- Node4 -->
<g id="node4" class="node">
<title>Node4</title>
<g id="a_node4"><a xlink:title=" ">
<polygon fill="white" stroke="#bfbfbf" points="18.34,-6.5 18.34,-26.5 62.68,-26.5 62.68,-6.5 18.34,-6.5"/>
<text text-anchor="middle" x="40.51" y="-13.5" font-family="Helvetica,sans-Serif" font-size="10.00">iosfwd</text>
</a>
</g>
</g>
<!-- Node2&#45;&gt;Node4 -->
<g id="edge3" class="edge">
<title>Node2&#45;&gt;Node4</title>
<path fill="none" stroke="midnightblue" d="M534.05,-143.27C453.33,-136.83 313.8,-123.06 267.51,-102 247.15,-92.74 249.46,-79.12 229.51,-69 165.28,-36.41 139.31,-57.28 71.51,-33 69.83,-32.4 68.13,-31.73 66.43,-31.02"/>
<polygon fill="midnightblue" stroke="midnightblue" points="67.46,-27.64 56.92,-26.62 64.53,-33.99 67.46,-27.64"/>
</g>
<!-- Node5 -->
<g id="node5" class="node">
<title>Node5</title>
<g id="a_node5"><a xlink:title=" ">
<polygon fill="white" stroke="#bfbfbf" points="909.61,-75.5 909.61,-95.5 1043.41,-95.5 1043.41,-75.5 909.61,-75.5"/>
<text text-anchor="middle" x="976.51" y="-82.5" font-family="Helvetica,sans-Serif" font-size="10.00">halco/common/geometry.h</text>
</a>
</g>
</g>
<!-- Node2&#45;&gt;Node5 -->
<g id="edge4" class="edge">
<title>Node2&#45;&gt;Node5</title>
<path fill="none" stroke="midnightblue" d="M652.64,-139.3C713.61,-130.67 811.36,-116.38 895.51,-102 903.83,-100.58 912.61,-98.99 921.2,-97.39"/>
<polygon fill="midnightblue" stroke="midnightblue" points="921.98,-100.8 931.15,-95.51 920.68,-93.92 921.98,-100.8"/>
</g>
<!-- Node6 -->
<g id="node6" class="node">
<title>Node6</title>
<g id="a_node6"><a xlink:title=" ">
<polygon fill="white" stroke="#bfbfbf" points="0,-69.5 0,-101.5 101.02,-101.5 101.02,-69.5 0,-69.5"/>
<text text-anchor="start" x="8" y="-88.5" font-family="Helvetica,sans-Serif" font-size="10.00">halco/hicann&#45;dls/vx</text>
<text text-anchor="middle" x="50.51" y="-76.5" font-family="Helvetica,sans-Serif" font-size="10.00">/background.h</text>
</a>
</g>
</g>
<!-- Node2&#45;&gt;Node6 -->
<g id="edge5" class="edge">
<title>Node2&#45;&gt;Node6</title>
<path fill="none" stroke="midnightblue" d="M534.23,-145.05C444.45,-140.64 268.58,-129.34 111.11,-102.12"/>
<polygon fill="midnightblue" stroke="midnightblue" points="111.69,-98.67 101.24,-100.39 110.48,-105.57 111.69,-98.67"/>
</g>
<!-- Node7 -->
<g id="node7" class="node">
<title>Node7</title>
<g id="a_node7"><a xlink:title=" ">
<polygon fill="white" stroke="#bfbfbf" points="119,-69.5 119,-101.5 220.02,-101.5 220.02,-69.5 119,-69.5"/>
<text text-anchor="start" x="127" y="-88.5" font-family="Helvetica,sans-Serif" font-size="10.00">halco/hicann&#45;dls/vx</text>
<text text-anchor="middle" x="169.51" y="-76.5" font-family="Helvetica,sans-Serif" font-size="10.00">/event.h</text>
</a>
</g>
</g>
<!-- Node2&#45;&gt;Node7 -->
<g id="edge6" class="edge">
<title>Node2&#45;&gt;Node7</title>
<path fill="none" stroke="midnightblue" d="M534.13,-141.96C462.69,-134.84 339.27,-121.07 234.51,-102 233.05,-101.73 231.57,-101.46 230.08,-101.17"/>
<polygon fill="midnightblue" stroke="midnightblue" points="230.64,-97.71 220.14,-99.13 229.23,-104.57 230.64,-97.71"/>
</g>
<!-- Node8 -->
<g id="node8" class="node">
<title>Node8</title>
<g id="a_node8"><a xlink:href="cerealization_8h.html" target="_top" xlink:title=" ">
<polygon fill="white" stroke="black" points="276.83,-75.5 276.83,-95.5 386.18,-95.5 386.18,-75.5 276.83,-75.5"/>
<text text-anchor="middle" x="331.51" y="-82.5" font-family="Helvetica,sans-Serif" font-size="10.00">haldls/cerealization.h</text>
</a>
</g>
</g>
<!-- Node2&#45;&gt;Node8 -->
<g id="edge7" class="edge">
<title>Node2&#45;&gt;Node8</title>
<path fill="none" stroke="midnightblue" d="M554.85,-138.5C508.51,-127.71 430.79,-109.62 380.35,-97.87"/>
<polygon fill="midnightblue" stroke="midnightblue" points="380.86,-94.4 370.33,-95.54 379.27,-101.21 380.86,-94.4"/>
</g>
<!-- Node10 -->
<g id="node10" class="node">
<title>Node10</title>
<g id="a_node10"><a xlink:title=" ">
<polygon fill="white" stroke="#bfbfbf" points="260,-6.5 260,-26.5 341.01,-26.5 341.01,-6.5 260,-6.5"/>
<text text-anchor="middle" x="300.51" y="-13.5" font-family="Helvetica,sans-Serif" font-size="10.00">hate/visibility.h</text>
</a>
</g>
</g>
<!-- Node2&#45;&gt;Node10 -->
<g id="edge26" class="edge">
<title>Node2&#45;&gt;Node10</title>
<path fill="none" stroke="midnightblue" d="M572.9,-138.36C521.94,-115.75 389.82,-57.13 330.32,-30.73"/>
<polygon fill="midnightblue" stroke="midnightblue" points="331.65,-27.49 321.09,-26.63 328.81,-33.89 331.65,-27.49"/>
</g>
<!-- Node2&#45;&gt;Node13 -->
<g id="edge13" class="edge">
<title>Node2&#45;&gt;Node13</title>
<path fill="none" stroke="midnightblue" d="M652.65,-146.61C709.06,-143.71 795.16,-133.81 862.51,-102 882.73,-92.45 880.28,-78.55 900.51,-69 987.73,-27.84 1019.99,-52.2 1114.51,-33 1120.7,-31.74 1127.2,-30.32 1133.6,-28.86"/>
<polygon fill="midnightblue" stroke="midnightblue" points="1134.56,-32.22 1143.5,-26.54 1132.97,-25.41 1134.56,-32.22"/>
</g>
<!-- Node14 -->
<g id="node14" class="node">
<title>Node14</title>
<g id="a_node14"><a xlink:href="traits_8h.html" target="_top" xlink:title=" ">
<polygon fill="white" stroke="black" points="501.67,-75.5 501.67,-95.5 589.35,-95.5 589.35,-75.5 501.67,-75.5"/>
<text text-anchor="middle" x="545.51" y="-82.5" font-family="Helvetica,sans-Serif" font-size="10.00">haldls/vx/traits.h</text>
</a>
</g>
</g>
<!-- Node2&#45;&gt;Node14 -->
<g id="edge15" class="edge">
<title>Node2&#45;&gt;Node14</title>
<path fill="none" stroke="midnightblue" d="M586.43,-138.5C579.19,-129.31 567.79,-114.82 558.86,-103.47"/>
<polygon fill="midnightblue" stroke="midnightblue" points="561.55,-101.23 552.62,-95.54 556.05,-105.56 561.55,-101.23"/>
</g>
<!-- Node21 -->
<g id="node21" class="node">
<title>Node21</title>
<g id="a_node21"><a xlink:title=" ">
<polygon fill="white" stroke="#bfbfbf" points="607.11,-75.5 607.11,-95.5 675.91,-95.5 675.91,-75.5 607.11,-75.5"/>
<text text-anchor="middle" x="641.51" y="-82.5" font-family="Helvetica,sans-Serif" font-size="10.00">hate/math.h</text>
</a>
</g>
</g>
<!-- Node2&#45;&gt;Node21 -->
<g id="edge25" class="edge">
<title>Node2&#45;&gt;Node21</title>
<path fill="none" stroke="midnightblue" d="M600.59,-138.5C607.82,-129.31 619.22,-114.82 628.16,-103.47"/>
<polygon fill="midnightblue" stroke="midnightblue" points="630.96,-105.56 634.4,-95.54 625.46,-101.23 630.96,-105.56"/>
</g>
<!-- Node22 -->
<g id="node22" class="node">
<title>Node22</title>
<g id="a_node22"><a xlink:title=" ">
<polygon fill="white" stroke="#bfbfbf" points="693.89,-75.5 693.89,-95.5 797.13,-95.5 797.13,-75.5 693.89,-75.5"/>
<text text-anchor="middle" x="745.51" y="-82.5" font-family="Helvetica,sans-Serif" font-size="10.00">hxcomm/vx/target.h</text>
</a>
</g>
</g>
<!-- Node2&#45;&gt;Node22 -->
<g id="edge27" class="edge">
<title>Node2&#45;&gt;Node22</title>
<path fill="none" stroke="midnightblue" d="M615.94,-138.5C641.76,-128.14 684.36,-111.04 713.62,-99.3"/>
<polygon fill="midnightblue" stroke="midnightblue" points="715.01,-102.51 722.99,-95.54 712.4,-96.01 715.01,-102.51"/>
</g>
<!-- Node8&#45;&gt;Node4 -->
<g id="edge11" class="edge">
<title>Node8&#45;&gt;Node4</title>
<path fill="none" stroke="midnightblue" d="M292.51,-75.49C282.73,-73.3 272.25,-71.01 262.51,-69 177.91,-51.53 153.37,-60.58 71.51,-33 69.63,-32.37 67.71,-31.64 65.81,-30.85"/>
<polygon fill="midnightblue" stroke="midnightblue" points="67.1,-27.59 56.55,-26.58 64.17,-33.95 67.1,-27.59"/>
</g>
<!-- Node9 -->
<g id="node9" class="node">
<title>Node9</title>
<g id="a_node9"><a xlink:title=" ">
<polygon fill="white" stroke="#bfbfbf" points="358.88,-6.5 358.88,-26.5 442.13,-26.5 442.13,-6.5 358.88,-6.5"/>
<text text-anchor="middle" x="400.51" y="-13.5" font-family="Helvetica,sans-Serif" font-size="10.00">hate/type_list.h</text>
</a>
</g>
</g>
<!-- Node8&#45;&gt;Node9 -->
<g id="edge8" class="edge">
<title>Node8&#45;&gt;Node9</title>
<path fill="none" stroke="midnightblue" d="M340.81,-75.46C351.76,-64.83 370.15,-46.98 383.63,-33.89"/>
<polygon fill="midnightblue" stroke="midnightblue" points="386.17,-36.3 390.91,-26.82 381.29,-31.28 386.17,-36.3"/>
</g>
<!-- Node8&#45;&gt;Node10 -->
<g id="edge9" class="edge">
<title>Node8&#45;&gt;Node10</title>
<path fill="none" stroke="midnightblue" d="M327.33,-75.46C322.68,-65.43 315.06,-48.96 309.13,-36.13"/>
<polygon fill="midnightblue" stroke="midnightblue" points="312.2,-34.43 304.82,-26.82 305.84,-37.37 312.2,-34.43"/>
</g>
<!-- Node11 -->
<g id="node11" class="node">
<title>Node11</title>
<g id="a_node11"><a xlink:title=" ">
<polygon fill="white" stroke="#bfbfbf" points="197.06,-6.5 197.06,-26.5 241.96,-26.5 241.96,-6.5 197.06,-6.5"/>
<text text-anchor="middle" x="219.51" y="-13.5" font-family="Helvetica,sans-Serif" font-size="10.00">cstdint</text>
</a>
</g>
</g>
<!-- Node8&#45;&gt;Node11 -->
<g id="edge10" class="edge">
<title>Node8&#45;&gt;Node11</title>
<path fill="none" stroke="midnightblue" d="M316.4,-75.46C297.7,-64.28 265.61,-45.08 243.52,-31.86"/>
<polygon fill="midnightblue" stroke="midnightblue" points="245.11,-28.74 234.73,-26.61 241.52,-34.74 245.11,-28.74"/>
</g>
<!-- Node12 -->
<g id="node12" class="node">
<title>Node12</title>
<g id="a_node12"><a xlink:title=" ">
<polygon fill="white" stroke="#bfbfbf" points="80.39,-6.5 80.39,-26.5 178.63,-26.5 178.63,-6.5 80.39,-6.5"/>
<text text-anchor="middle" x="129.51" y="-13.5" font-family="Helvetica,sans-Serif" font-size="10.00">cereal/macros.hpp</text>
</a>
</g>
</g>
<!-- Node8&#45;&gt;Node12 -->
<g id="edge12" class="edge">
<title>Node8&#45;&gt;Node12</title>
<path fill="none" stroke="midnightblue" d="M304.27,-75.46C268.72,-63.68 206.39,-43 166.57,-29.79"/>
<polygon fill="midnightblue" stroke="midnightblue" points="167.56,-26.43 156.96,-26.61 165.35,-33.08 167.56,-26.43"/>
</g>
<!-- Node13&#45;&gt;Node13 -->
<g id="edge14" class="edge">
<title>Node13&#45;&gt;Node13</title>
<path fill="none" stroke="midnightblue" d="M1203.4,-26.54C1227.23,-32.26 1253.58,-28.92 1253.58,-16.5 1253.58,-5.78 1233.94,-1.82 1213.24,-4.62"/>
<polygon fill="midnightblue" stroke="midnightblue" points="1212.59,-1.18 1203.4,-6.46 1213.88,-8.06 1212.59,-1.18"/>
</g>
<!-- Node14&#45;&gt;Node9 -->
<g id="edge19" class="edge">
<title>Node14&#45;&gt;Node9</title>
<path fill="none" stroke="midnightblue" d="M525.95,-75.46C501.09,-63.98 457.96,-44.05 429.32,-30.82"/>
<polygon fill="midnightblue" stroke="midnightblue" points="430.76,-27.62 420.22,-26.61 427.83,-33.98 430.76,-27.62"/>
</g>
<!-- Node14&#45;&gt;Node10 -->
<g id="edge20" class="edge">
<title>Node14&#45;&gt;Node10</title>
<path fill="none" stroke="midnightblue" d="M508.88,-75.45C469.39,-65.56 404.77,-48.99 349.51,-33 345.71,-31.9 341.76,-30.72 337.83,-29.51"/>
<polygon fill="midnightblue" stroke="midnightblue" points="338.75,-26.14 328.16,-26.51 336.67,-32.82 338.75,-26.14"/>
</g>
<!-- Node14&#45;&gt;Node13 -->
<g id="edge18" class="edge">
<title>Node14&#45;&gt;Node13</title>
<path fill="none" stroke="midnightblue" d="M572.2,-75.48C580.54,-72.99 589.83,-70.55 598.51,-69 824.8,-28.5 887.26,-67.78 1114.51,-33 1121.68,-31.9 1129.23,-30.41 1136.55,-28.79"/>
<polygon fill="midnightblue" stroke="midnightblue" points="1137.36,-32.2 1146.31,-26.53 1135.78,-25.38 1137.36,-32.2"/>
</g>
<!-- Node15 -->
<g id="node15" class="node">
<title>Node15</title>
<g id="a_node15"><a xlink:title=" ">
<polygon fill="white" stroke="#bfbfbf" points="815.45,-6.5 815.45,-26.5 897.57,-26.5 897.57,-6.5 815.45,-6.5"/>
<text text-anchor="middle" x="856.51" y="-13.5" font-family="Helvetica,sans-Serif" font-size="10.00">fisch/vx/traits.h</text>
</a>
</g>
</g>
<!-- Node14&#45;&gt;Node15 -->
<g id="edge16" class="edge">
<title>Node14&#45;&gt;Node15</title>
<path fill="none" stroke="midnightblue" d="M574.23,-75.46C582.06,-73.17 590.57,-70.84 598.51,-69 689.9,-47.8 715.29,-54.94 806.51,-33 810.9,-31.94 815.47,-30.71 819.99,-29.42"/>
<polygon fill="midnightblue" stroke="midnightblue" points="821.12,-32.73 829.7,-26.51 819.11,-26.02 821.12,-32.73"/>
</g>
<!-- Node16 -->
<g id="node16" class="node">
<title>Node16</title>
<g id="a_node16"><a xlink:title=" ">
<polygon fill="white" stroke="#bfbfbf" points="915.28,-0.5 915.28,-32.5 1025.74,-32.5 1025.74,-0.5 915.28,-0.5"/>
<text text-anchor="start" x="923.28" y="-19.5" font-family="Helvetica,sans-Serif" font-size="10.00">fisch/vx/word_access</text>
<text text-anchor="middle" x="970.51" y="-7.5" font-family="Helvetica,sans-Serif" font-size="10.00">_type.h</text>
</a>
</g>
</g>
<!-- Node14&#45;&gt;Node16 -->
<g id="edge17" class="edge">
<title>Node14&#45;&gt;Node16</title>
<path fill="none" stroke="midnightblue" d="M573.07,-75.49C581.19,-73.09 590.15,-70.7 598.51,-69 730.4,-42.2 769.04,-56.55 905.12,-33.11"/>
<polygon fill="midnightblue" stroke="midnightblue" points="905.85,-36.54 915.09,-31.36 904.64,-29.64 905.85,-36.54"/>
</g>
<!-- Node17 -->
<g id="node17" class="node">
<title>Node17</title>
<g id="a_node17"><a xlink:title=" ">
<polygon fill="white" stroke="#bfbfbf" points="1043.45,-6.5 1043.45,-26.5 1105.57,-26.5 1105.57,-6.5 1043.45,-6.5"/>
<text text-anchor="middle" x="1074.51" y="-13.5" font-family="Helvetica,sans-Serif" font-size="10.00">type_traits</text>
</a>
</g>
</g>
<!-- Node14&#45;&gt;Node17 -->
<g id="edge21" class="edge">
<title>Node14&#45;&gt;Node17</title>
<path fill="none" stroke="midnightblue" d="M572.49,-75.47C580.75,-73.01 589.93,-70.59 598.51,-69 789.68,-33.53 845.02,-76.58 1034.51,-33 1037.95,-32.21 1041.49,-31.18 1044.98,-30.02"/>
<polygon fill="midnightblue" stroke="midnightblue" points="1046.32,-33.26 1054.51,-26.54 1043.92,-26.68 1046.32,-33.26"/>
</g>
<!-- Node18 -->
<g id="node18" class="node">
<title>Node18</title>
<g id="a_node18"><a xlink:title=" ">
<polygon fill="white" stroke="#bfbfbf" points="460.11,-0.5 460.11,-32.5 558.91,-32.5 558.91,-0.5 460.11,-0.5"/>
<text text-anchor="start" x="468.11" y="-19.5" font-family="Helvetica,sans-Serif" font-size="10.00">boost/utility/enable</text>
<text text-anchor="middle" x="509.51" y="-7.5" font-family="Helvetica,sans-Serif" font-size="10.00">_if.hpp</text>
</a>
</g>
</g>
<!-- Node14&#45;&gt;Node18 -->
<g id="edge22" class="edge">
<title>Node14&#45;&gt;Node18</title>
<path fill="none" stroke="midnightblue" d="M540.65,-75.46C535.99,-66.78 528.73,-53.28 522.4,-41.5"/>
<polygon fill="midnightblue" stroke="midnightblue" points="525.4,-39.69 517.59,-32.53 519.24,-43 525.4,-39.69"/>
</g>
<!-- Node19 -->
<g id="node19" class="node">
<title>Node19</title>
<g id="a_node19"><a xlink:title=" ">
<polygon fill="white" stroke="#bfbfbf" points="577.16,-6.5 577.16,-26.5 669.86,-26.5 669.86,-6.5 577.16,-6.5"/>
<text text-anchor="middle" x="623.51" y="-13.5" font-family="Helvetica,sans-Serif" font-size="10.00">boost/variant.hpp</text>
</a>
</g>
</g>
<!-- Node14&#45;&gt;Node19 -->
<g id="edge23" class="edge">
<title>Node14&#45;&gt;Node19</title>
<path fill="none" stroke="midnightblue" d="M556.03,-75.46C568.59,-64.67 589.82,-46.44 605.11,-33.3"/>
<polygon fill="midnightblue" stroke="midnightblue" points="607.6,-35.78 612.91,-26.61 603.04,-30.47 607.6,-35.78"/>
</g>
<!-- Node20 -->
<g id="node20" class="node">
<title>Node20</title>
<g id="a_node20"><a xlink:title=" ">
<polygon fill="white" stroke="#bfbfbf" points="687.55,-6.5 687.55,-26.5 797.46,-26.5 797.46,-6.5 687.55,-6.5"/>
<text text-anchor="middle" x="742.51" y="-13.5" font-family="Helvetica,sans-Serif" font-size="10.00">fisch/vx/container.def</text>
</a>
</g>
</g>
<!-- Node14&#45;&gt;Node20 -->
<g id="edge24" class="edge">
<title>Node14&#45;&gt;Node20</title>
<path fill="none" stroke="midnightblue" d="M572.08,-75.46C606.59,-63.73 667.01,-43.18 705.87,-29.96"/>
<polygon fill="midnightblue" stroke="midnightblue" points="707.39,-33.14 715.73,-26.61 705.14,-26.51 707.39,-33.14"/>
</g>
</g>
</svg>
