<?xml version="1.0" encoding="UTF-8" standalone="no"?>
<!DOCTYPE svg PUBLIC "-//W3C//DTD SVG 1.1//EN"
 "http://www.w3.org/Graphics/SVG/1.1/DTD/svg11.dtd">
<!-- Generated by graphviz version 2.46.0 (0)
 -->
<!-- Title: /jenkins/jenlib_workspaces_f9/bld_nightly&#45;haldls.YmxkX25pZ2h0bHktaGFsZGxzIzEzNzk.x/haldls/include/haldls/vx/v3/current_dac.h Pages: 1 -->
<svg width="1410pt" height="260pt"
 viewBox="0.00 0.00 1409.58 260.00" xmlns="http://www.w3.org/2000/svg" xmlns:xlink="http://www.w3.org/1999/xlink">
<g id="graph0" class="graph" transform="scale(1 1) rotate(0) translate(4 256)">
<title>/jenkins/jenlib_workspaces_f9/bld_nightly&#45;haldls.YmxkX25pZ2h0bHktaGFsZGxzIzEzNzk.x/haldls/include/haldls/vx/v3/current_dac.h</title>
<polygon fill="white" stroke="transparent" points="-4,4 -4,-256 1405.58,-256 1405.58,4 -4,4"/>
<!-- Node1 -->
<g id="node1" class="node">
<title>Node1</title>
<g id="a_node1"><a xlink:title=" ">
<polygon fill="#bfbfbf" stroke="black" points="686,-195.5 686,-251.5 867.02,-251.5 867.02,-195.5 686,-195.5"/>
<text text-anchor="start" x="694" y="-238.5" font-family="Helvetica,sans-Serif" font-size="10.00">/jenkins/jenlib_workspaces</text>
<text text-anchor="start" x="694" y="-226.5" font-family="Helvetica,sans-Serif" font-size="10.00">_f9/bld_nightly&#45;haldls.YmxkX25p</text>
<text text-anchor="start" x="694" y="-214.5" font-family="Helvetica,sans-Serif" font-size="10.00">Z2h0bHktaGFsZGxzIzEzNzk.x/haldls</text>
<text text-anchor="middle" x="776.51" y="-202.5" font-family="Helvetica,sans-Serif" font-size="10.00">/include/haldls/vx/v3/current_dac.h</text>
</a>
</g>
</g>
<!-- Node2 -->
<g id="node2" class="node">
<title>Node2</title>
<g id="a_node2"><a xlink:href="current__dac_8h.html" target="_top" xlink:title=" ">
<polygon fill="white" stroke="black" points="483.11,-138.5 483.11,-158.5 601.91,-158.5 601.91,-138.5 483.11,-138.5"/>
<text text-anchor="middle" x="542.51" y="-145.5" font-family="Helvetica,sans-Serif" font-size="10.00">haldls/vx/current_dac.h</text>
</a>
</g>
</g>
<!-- Node1&#45;&gt;Node2 -->
<g id="edge1" class="edge">
<title>Node1&#45;&gt;Node2</title>
<path fill="none" stroke="midnightblue" d="M689.71,-195.42C652.48,-183.81 610.86,-170.83 581.41,-161.64"/>
<polygon fill="midnightblue" stroke="midnightblue" points="582.11,-158.19 571.52,-158.55 580.03,-164.87 582.11,-158.19"/>
</g>
<!-- Node14 -->
<g id="node14" class="node">
<title>Node14</title>
<g id="a_node14"><a xlink:href="genpybind_8h.html" target="_top" xlink:title=" ">
<polygon fill="white" stroke="black" points="1271.44,-6.5 1271.44,-26.5 1383.58,-26.5 1383.58,-6.5 1271.44,-6.5"/>
<text text-anchor="middle" x="1327.51" y="-13.5" font-family="Helvetica,sans-Serif" font-size="10.00">haldls/vx/genpybind.h</text>
</a>
</g>
</g>
<!-- Node1&#45;&gt;Node14 -->
<g id="edge27" class="edge">
<title>Node1&#45;&gt;Node14</title>
<path fill="none" stroke="midnightblue" d="M849.11,-195.49C969.54,-150.68 1206.05,-62.69 1293.74,-30.06"/>
<polygon fill="midnightblue" stroke="midnightblue" points="1295.05,-33.31 1303.2,-26.54 1292.61,-26.75 1295.05,-33.31"/>
</g>
<!-- Node3 -->
<g id="node3" class="node">
<title>Node3</title>
<g id="a_node3"><a xlink:title=" ">
<polygon fill="white" stroke="#bfbfbf" points="523.12,-75.5 523.12,-95.5 561.9,-95.5 561.9,-75.5 523.12,-75.5"/>
<text text-anchor="middle" x="542.51" y="-82.5" font-family="Helvetica,sans-Serif" font-size="10.00">array</text>
</a>
</g>
</g>
<!-- Node2&#45;&gt;Node3 -->
<g id="edge2" class="edge">
<title>Node2&#45;&gt;Node3</title>
<path fill="none" stroke="midnightblue" d="M542.51,-138.5C542.51,-129.94 542.51,-116.78 542.51,-105.85"/>
<polygon fill="midnightblue" stroke="midnightblue" points="546.01,-105.54 542.51,-95.54 539.01,-105.54 546.01,-105.54"/>
</g>
<!-- Node4 -->
<g id="node4" class="node">
<title>Node4</title>
<g id="a_node4"><a xlink:title=" ">
<polygon fill="white" stroke="#bfbfbf" points="167.34,-6.5 167.34,-26.5 211.68,-26.5 211.68,-6.5 167.34,-6.5"/>
<text text-anchor="middle" x="189.51" y="-13.5" font-family="Helvetica,sans-Serif" font-size="10.00">iosfwd</text>
</a>
</g>
</g>
<!-- Node2&#45;&gt;Node4 -->
<g id="edge3" class="edge">
<title>Node2&#45;&gt;Node4</title>
<path fill="none" stroke="midnightblue" d="M491.53,-138.45C459.96,-131.46 419.32,-119.9 386.51,-102 366.87,-91.29 368.2,-79.62 348.51,-69 296.49,-40.95 275.63,-54.31 220.51,-33 218.89,-32.37 217.24,-31.69 215.59,-30.97"/>
<polygon fill="midnightblue" stroke="midnightblue" points="216.84,-27.7 206.3,-26.62 213.87,-34.03 216.84,-27.7"/>
</g>
<!-- Node5 -->
<g id="node5" class="node">
<title>Node5</title>
<g id="a_node5"><a xlink:title=" ">
<polygon fill="white" stroke="#bfbfbf" points="836.39,-69.5 836.39,-101.5 944.63,-101.5 944.63,-69.5 836.39,-69.5"/>
<text text-anchor="start" x="844.39" y="-88.5" font-family="Helvetica,sans-Serif" font-size="10.00">halco/common/typed</text>
<text text-anchor="middle" x="890.51" y="-76.5" font-family="Helvetica,sans-Serif" font-size="10.00">_array.h</text>
</a>
</g>
</g>
<!-- Node2&#45;&gt;Node5 -->
<g id="edge4" class="edge">
<title>Node2&#45;&gt;Node5</title>
<path fill="none" stroke="midnightblue" d="M601.99,-139.47C657.62,-131.63 743.21,-118.72 826.41,-102.13"/>
<polygon fill="midnightblue" stroke="midnightblue" points="827.16,-105.55 836.28,-100.15 825.78,-98.69 827.16,-105.55"/>
</g>
<!-- Node6 -->
<g id="node6" class="node">
<title>Node6</title>
<g id="a_node6"><a xlink:title=" ">
<polygon fill="white" stroke="#bfbfbf" points="0,-69.5 0,-101.5 101.02,-101.5 101.02,-69.5 0,-69.5"/>
<text text-anchor="start" x="8" y="-88.5" font-family="Helvetica,sans-Serif" font-size="10.00">halco/hicann&#45;dls/vx</text>
<text text-anchor="middle" x="50.51" y="-76.5" font-family="Helvetica,sans-Serif" font-size="10.00">/chip.h</text>
</a>
</g>
</g>
<!-- Node2&#45;&gt;Node6 -->
<g id="edge5" class="edge">
<title>Node2&#45;&gt;Node6</title>
<path fill="none" stroke="midnightblue" d="M482.92,-144.12C401.02,-138.83 249.01,-126.74 111.15,-102.15"/>
<polygon fill="midnightblue" stroke="midnightblue" points="111.71,-98.69 101.25,-100.35 110.46,-105.58 111.71,-98.69"/>
</g>
<!-- Node7 -->
<g id="node7" class="node">
<title>Node7</title>
<g id="a_node7"><a xlink:title=" ">
<polygon fill="white" stroke="#bfbfbf" points="119,-69.5 119,-101.5 220.02,-101.5 220.02,-69.5 119,-69.5"/>
<text text-anchor="start" x="127" y="-88.5" font-family="Helvetica,sans-Serif" font-size="10.00">halco/hicann&#45;dls/vx</text>
<text text-anchor="middle" x="169.51" y="-76.5" font-family="Helvetica,sans-Serif" font-size="10.00">/current_dac.h</text>
</a>
</g>
</g>
<!-- Node2&#45;&gt;Node7 -->
<g id="edge6" class="edge">
<title>Node2&#45;&gt;Node7</title>
<path fill="none" stroke="midnightblue" d="M482.84,-140.89C421.59,-133.65 323.36,-120.76 230.15,-102.22"/>
<polygon fill="midnightblue" stroke="midnightblue" points="230.77,-98.77 220.27,-100.23 229.38,-105.63 230.77,-98.77"/>
</g>
<!-- Node8 -->
<g id="node8" class="node">
<title>Node8</title>
<g id="a_node8"><a xlink:title=" ">
<polygon fill="white" stroke="#bfbfbf" points="238,-69.5 238,-101.5 339.02,-101.5 339.02,-69.5 238,-69.5"/>
<text text-anchor="start" x="246" y="-88.5" font-family="Helvetica,sans-Serif" font-size="10.00">halco/hicann&#45;dls/vx</text>
<text text-anchor="middle" x="288.51" y="-76.5" font-family="Helvetica,sans-Serif" font-size="10.00">/synapse.h</text>
</a>
</g>
</g>
<!-- Node2&#45;&gt;Node8 -->
<g id="edge7" class="edge">
<title>Node2&#45;&gt;Node8</title>
<path fill="none" stroke="midnightblue" d="M505.03,-138.5C463.97,-128.64 397.53,-112.68 349.06,-101.04"/>
<polygon fill="midnightblue" stroke="midnightblue" points="349.85,-97.63 339.31,-98.7 348.21,-104.44 349.85,-97.63"/>
</g>
<!-- Node9 -->
<g id="node9" class="node">
<title>Node9</title>
<g id="a_node9"><a xlink:href="cerealization_8h.html" target="_top" xlink:title=" ">
<polygon fill="white" stroke="black" points="395.83,-75.5 395.83,-95.5 505.18,-95.5 505.18,-75.5 395.83,-75.5"/>
<text text-anchor="middle" x="450.51" y="-82.5" font-family="Helvetica,sans-Serif" font-size="10.00">haldls/cerealization.h</text>
</a>
</g>
</g>
<!-- Node2&#45;&gt;Node9 -->
<g id="edge8" class="edge">
<title>Node2&#45;&gt;Node9</title>
<path fill="none" stroke="midnightblue" d="M528.93,-138.5C514.12,-128.68 490.18,-112.81 472.64,-101.18"/>
<polygon fill="midnightblue" stroke="midnightblue" points="474.41,-98.15 464.14,-95.54 470.54,-103.98 474.41,-98.15"/>
</g>
<!-- Node11 -->
<g id="node11" class="node">
<title>Node11</title>
<g id="a_node11"><a xlink:title=" ">
<polygon fill="white" stroke="#bfbfbf" points="510.01,-6.5 510.01,-26.5 591.01,-26.5 591.01,-6.5 510.01,-6.5"/>
<text text-anchor="middle" x="550.51" y="-13.5" font-family="Helvetica,sans-Serif" font-size="10.00">hate/visibility.h</text>
</a>
</g>
</g>
<!-- Node2&#45;&gt;Node11 -->
<g id="edge26" class="edge">
<title>Node2&#45;&gt;Node11</title>
<path fill="none" stroke="midnightblue" d="M550.18,-138.47C557.03,-129.77 566.57,-115.92 570.51,-102 576.87,-79.54 568.21,-53.33 560.38,-36.13"/>
<polygon fill="midnightblue" stroke="midnightblue" points="563.3,-34.13 555.76,-26.7 557.02,-37.21 563.3,-34.13"/>
</g>
<!-- Node2&#45;&gt;Node14 -->
<g id="edge14" class="edge">
<title>Node2&#45;&gt;Node14</title>
<path fill="none" stroke="midnightblue" d="M602,-142.97C682.19,-136.4 829.23,-122.69 953.51,-102 1092.31,-78.89 1125.4,-64.65 1262.51,-33 1268.23,-31.68 1274.23,-30.27 1280.17,-28.87"/>
<polygon fill="midnightblue" stroke="midnightblue" points="1281.14,-32.24 1290.06,-26.53 1279.53,-25.43 1281.14,-32.24"/>
</g>
<!-- Node15 -->
<g id="node15" class="node">
<title>Node15</title>
<g id="a_node15"><a xlink:href="traits_8h.html" target="_top" xlink:title=" ">
<polygon fill="white" stroke="black" points="730.67,-75.5 730.67,-95.5 818.35,-95.5 818.35,-75.5 730.67,-75.5"/>
<text text-anchor="middle" x="774.51" y="-82.5" font-family="Helvetica,sans-Serif" font-size="10.00">haldls/vx/traits.h</text>
</a>
</g>
</g>
<!-- Node2&#45;&gt;Node15 -->
<g id="edge16" class="edge">
<title>Node2&#45;&gt;Node15</title>
<path fill="none" stroke="midnightblue" d="M576.74,-138.5C617.52,-127.78 685.73,-109.84 730.42,-98.09"/>
<polygon fill="midnightblue" stroke="midnightblue" points="731.35,-101.47 740.14,-95.54 729.57,-94.7 731.35,-101.47"/>
</g>
<!-- Node9&#45;&gt;Node4 -->
<g id="edge12" class="edge">
<title>Node9&#45;&gt;Node4</title>
<path fill="none" stroke="midnightblue" d="M410.37,-75.48C400.91,-73.35 390.85,-71.09 381.51,-69 309.96,-52.96 289.59,-57.58 220.51,-33 218.83,-32.4 217.13,-31.74 215.43,-31.03"/>
<polygon fill="midnightblue" stroke="midnightblue" points="216.46,-27.65 205.91,-26.63 213.52,-34 216.46,-27.65"/>
</g>
<!-- Node10 -->
<g id="node10" class="node">
<title>Node10</title>
<g id="a_node10"><a xlink:title=" ">
<polygon fill="white" stroke="#bfbfbf" points="408.88,-6.5 408.88,-26.5 492.13,-26.5 492.13,-6.5 408.88,-6.5"/>
<text text-anchor="middle" x="450.51" y="-13.5" font-family="Helvetica,sans-Serif" font-size="10.00">hate/type_list.h</text>
</a>
</g>
</g>
<!-- Node9&#45;&gt;Node10 -->
<g id="edge9" class="edge">
<title>Node9&#45;&gt;Node10</title>
<path fill="none" stroke="midnightblue" d="M450.51,-75.46C450.51,-65.63 450.51,-49.61 450.51,-36.9"/>
<polygon fill="midnightblue" stroke="midnightblue" points="454.01,-36.82 450.51,-26.82 447.01,-36.82 454.01,-36.82"/>
</g>
<!-- Node9&#45;&gt;Node11 -->
<g id="edge10" class="edge">
<title>Node9&#45;&gt;Node11</title>
<path fill="none" stroke="midnightblue" d="M463.99,-75.46C480.55,-64.38 508.83,-45.42 528.54,-32.22"/>
<polygon fill="midnightblue" stroke="midnightblue" points="530.56,-35.08 536.92,-26.61 526.66,-29.27 530.56,-35.08"/>
</g>
<!-- Node12 -->
<g id="node12" class="node">
<title>Node12</title>
<g id="a_node12"><a xlink:title=" ">
<polygon fill="white" stroke="#bfbfbf" points="346.06,-6.5 346.06,-26.5 390.96,-26.5 390.96,-6.5 346.06,-6.5"/>
<text text-anchor="middle" x="368.51" y="-13.5" font-family="Helvetica,sans-Serif" font-size="10.00">cstdint</text>
</a>
</g>
</g>
<!-- Node9&#45;&gt;Node12 -->
<g id="edge11" class="edge">
<title>Node9&#45;&gt;Node12</title>
<path fill="none" stroke="midnightblue" d="M439.45,-75.46C426.12,-64.57 403.51,-46.1 387.4,-32.94"/>
<polygon fill="midnightblue" stroke="midnightblue" points="389.61,-30.22 379.65,-26.61 385.18,-35.64 389.61,-30.22"/>
</g>
<!-- Node13 -->
<g id="node13" class="node">
<title>Node13</title>
<g id="a_node13"><a xlink:title=" ">
<polygon fill="white" stroke="#bfbfbf" points="229.39,-6.5 229.39,-26.5 327.63,-26.5 327.63,-6.5 229.39,-6.5"/>
<text text-anchor="middle" x="278.51" y="-13.5" font-family="Helvetica,sans-Serif" font-size="10.00">cereal/macros.hpp</text>
</a>
</g>
</g>
<!-- Node9&#45;&gt;Node13 -->
<g id="edge13" class="edge">
<title>Node9&#45;&gt;Node13</title>
<path fill="none" stroke="midnightblue" d="M427.31,-75.46C397.43,-63.83 345.32,-43.52 311.37,-30.3"/>
<polygon fill="midnightblue" stroke="midnightblue" points="312.47,-26.98 301.89,-26.61 309.93,-33.5 312.47,-26.98"/>
</g>
<!-- Node14&#45;&gt;Node14 -->
<g id="edge15" class="edge">
<title>Node14&#45;&gt;Node14</title>
<path fill="none" stroke="midnightblue" d="M1351.4,-26.54C1375.23,-32.26 1401.58,-28.92 1401.58,-16.5 1401.58,-5.78 1381.94,-1.82 1361.24,-4.62"/>
<polygon fill="midnightblue" stroke="midnightblue" points="1360.59,-1.18 1351.4,-6.46 1361.88,-8.06 1360.59,-1.18"/>
</g>
<!-- Node15&#45;&gt;Node10 -->
<g id="edge20" class="edge">
<title>Node15&#45;&gt;Node10</title>
<path fill="none" stroke="midnightblue" d="M730.51,-77.83C676.11,-69.21 580.84,-52.93 500.51,-33 496.17,-31.92 491.66,-30.69 487.2,-29.4"/>
<polygon fill="midnightblue" stroke="midnightblue" points="488.18,-26.04 477.6,-26.52 486.17,-32.74 488.18,-26.04"/>
</g>
<!-- Node15&#45;&gt;Node11 -->
<g id="edge21" class="edge">
<title>Node15&#45;&gt;Node11</title>
<path fill="none" stroke="midnightblue" d="M743.35,-75.41C708.51,-65.21 650.41,-48.12 600.51,-33 596.9,-31.91 593.16,-30.76 589.41,-29.61"/>
<polygon fill="midnightblue" stroke="midnightblue" points="590.16,-26.18 579.57,-26.58 588.1,-32.87 590.16,-26.18"/>
</g>
<!-- Node15&#45;&gt;Node14 -->
<g id="edge19" class="edge">
<title>Node15&#45;&gt;Node14</title>
<path fill="none" stroke="midnightblue" d="M801.49,-75.47C809.75,-73.01 818.93,-70.59 827.51,-69 1018.24,-33.59 1070.94,-63.59 1262.51,-33 1269.44,-31.89 1276.72,-30.45 1283.8,-28.88"/>
<polygon fill="midnightblue" stroke="midnightblue" points="1285.01,-32.19 1293.97,-26.52 1283.43,-25.37 1285.01,-32.19"/>
</g>
<!-- Node16 -->
<g id="node16" class="node">
<title>Node16</title>
<g id="a_node16"><a xlink:title=" ">
<polygon fill="white" stroke="#bfbfbf" points="847.45,-6.5 847.45,-26.5 929.57,-26.5 929.57,-6.5 847.45,-6.5"/>
<text text-anchor="middle" x="888.51" y="-13.5" font-family="Helvetica,sans-Serif" font-size="10.00">fisch/vx/traits.h</text>
</a>
</g>
</g>
<!-- Node15&#45;&gt;Node16 -->
<g id="edge17" class="edge">
<title>Node15&#45;&gt;Node16</title>
<path fill="none" stroke="midnightblue" d="M789.88,-75.46C809.01,-64.23 841.87,-44.91 864.37,-31.69"/>
<polygon fill="midnightblue" stroke="midnightblue" points="866.17,-34.69 873.01,-26.61 862.62,-28.66 866.17,-34.69"/>
</g>
<!-- Node17 -->
<g id="node17" class="node">
<title>Node17</title>
<g id="a_node17"><a xlink:title=" ">
<polygon fill="white" stroke="#bfbfbf" points="947.28,-0.5 947.28,-32.5 1057.74,-32.5 1057.74,-0.5 947.28,-0.5"/>
<text text-anchor="start" x="955.28" y="-19.5" font-family="Helvetica,sans-Serif" font-size="10.00">fisch/vx/word_access</text>
<text text-anchor="middle" x="1002.51" y="-7.5" font-family="Helvetica,sans-Serif" font-size="10.00">_type.h</text>
</a>
</g>
</g>
<!-- Node15&#45;&gt;Node17 -->
<g id="edge18" class="edge">
<title>Node15&#45;&gt;Node17</title>
<path fill="none" stroke="midnightblue" d="M805.26,-75.46C840.06,-65.24 897.63,-48.32 941.62,-35.39"/>
<polygon fill="midnightblue" stroke="midnightblue" points="942.74,-38.71 951.35,-32.53 940.77,-31.99 942.74,-38.71"/>
</g>
<!-- Node18 -->
<g id="node18" class="node">
<title>Node18</title>
<g id="a_node18"><a xlink:title=" ">
<polygon fill="white" stroke="#bfbfbf" points="1075.45,-6.5 1075.45,-26.5 1137.57,-26.5 1137.57,-6.5 1075.45,-6.5"/>
<text text-anchor="middle" x="1106.51" y="-13.5" font-family="Helvetica,sans-Serif" font-size="10.00">type_traits</text>
</a>
</g>
</g>
<!-- Node15&#45;&gt;Node18 -->
<g id="edge22" class="edge">
<title>Node15&#45;&gt;Node18</title>
<path fill="none" stroke="midnightblue" d="M802.93,-75.42C810.83,-73.11 819.46,-70.78 827.51,-69 932.41,-45.87 962.69,-60.57 1066.51,-33 1069.68,-32.16 1072.94,-31.15 1076.16,-30.05"/>
<polygon fill="midnightblue" stroke="midnightblue" points="1077.43,-33.31 1085.62,-26.59 1075.03,-26.74 1077.43,-33.31"/>
</g>
<!-- Node19 -->
<g id="node19" class="node">
<title>Node19</title>
<g id="a_node19"><a xlink:title=" ">
<polygon fill="white" stroke="#bfbfbf" points="1155.11,-0.5 1155.11,-32.5 1253.91,-32.5 1253.91,-0.5 1155.11,-0.5"/>
<text text-anchor="start" x="1163.11" y="-19.5" font-family="Helvetica,sans-Serif" font-size="10.00">boost/utility/enable</text>
<text text-anchor="middle" x="1204.51" y="-7.5" font-family="Helvetica,sans-Serif" font-size="10.00">_if.hpp</text>
</a>
</g>
</g>
<!-- Node15&#45;&gt;Node19 -->
<g id="edge23" class="edge">
<title>Node15&#45;&gt;Node19</title>
<path fill="none" stroke="midnightblue" d="M802.07,-75.47C810.19,-73.07 819.14,-70.68 827.51,-69 964.24,-41.5 1004.51,-58.68 1145.09,-33.1"/>
<polygon fill="midnightblue" stroke="midnightblue" points="1145.75,-36.53 1154.95,-31.26 1144.47,-29.65 1145.75,-36.53"/>
</g>
<!-- Node20 -->
<g id="node20" class="node">
<title>Node20</title>
<g id="a_node20"><a xlink:title=" ">
<polygon fill="white" stroke="#bfbfbf" points="609.16,-6.5 609.16,-26.5 701.86,-26.5 701.86,-6.5 609.16,-6.5"/>
<text text-anchor="middle" x="655.51" y="-13.5" font-family="Helvetica,sans-Serif" font-size="10.00">boost/variant.hpp</text>
</a>
</g>
</g>
<!-- Node15&#45;&gt;Node20 -->
<g id="edge24" class="edge">
<title>Node15&#45;&gt;Node20</title>
<path fill="none" stroke="midnightblue" d="M758.46,-75.46C738.5,-64.23 704.19,-44.91 680.71,-31.69"/>
<polygon fill="midnightblue" stroke="midnightblue" points="682.11,-28.46 671.68,-26.61 678.68,-34.56 682.11,-28.46"/>
</g>
<!-- Node21 -->
<g id="node21" class="node">
<title>Node21</title>
<g id="a_node21"><a xlink:title=" ">
<polygon fill="white" stroke="#bfbfbf" points="719.55,-6.5 719.55,-26.5 829.46,-26.5 829.46,-6.5 719.55,-6.5"/>
<text text-anchor="middle" x="774.51" y="-13.5" font-family="Helvetica,sans-Serif" font-size="10.00">fisch/vx/container.def</text>
</a>
</g>
</g>
<!-- Node15&#45;&gt;Node21 -->
<g id="edge25" class="edge">
<title>Node15&#45;&gt;Node21</title>
<path fill="none" stroke="midnightblue" d="M774.51,-75.46C774.51,-65.63 774.51,-49.61 774.51,-36.9"/>
<polygon fill="midnightblue" stroke="midnightblue" points="778.01,-36.82 774.51,-26.82 771.01,-36.82 778.01,-36.82"/>
</g>
</g>
</svg>
