<?xml version="1.0" encoding="UTF-8" standalone="no"?>
<!DOCTYPE svg PUBLIC "-//W3C//DTD SVG 1.1//EN"
 "http://www.w3.org/Graphics/SVG/1.1/DTD/svg11.dtd">
<!-- Generated by graphviz version 2.46.0 (0)
 -->
<!-- Title: /jenkins/jenlib_workspaces_f9/bld_nightly&#45;haldls.YmxkX25pZ2h0bHktaGFsZGxzIzEzNzk.x/haldls/include/haldls/vx/v3/capmem.h Pages: 1 -->
<!--zoomable 272 -->
<svg id="main" version="1.1" xmlns="http://www.w3.org/2000/svg" xmlns:xlink="http://www.w3.org/1999/xlink" xml:space="preserve" onload="init(evt)">
<style type="text/css"><![CDATA[
.edge:hover path { stroke: red; }
.edge:hover polygon { stroke: red; fill: red; }
]]></style>
<script type="text/javascript"><![CDATA[
var edges = document.getElementsByTagName('g');
if (edges && edges.length) {
  for (var i=0;i<edges.length;i++) {
    if (edges[i].id.substr(0,4)=='edge') {
      edges[i].setAttribute('class','edge');
    }
  }
}
]]></script>
        <defs>
                <circle id="rim" cx="0" cy="0" r="7"/>
                <circle id="rim2" cx="0" cy="0" r="3.5"/>
                <g id="zoomPlus">
                        <use xlink:href="#rim" fill="#404040">
                                <set attributeName="fill" to="#808080" begin="zoomplus.mouseover" end="zoomplus.mouseout"/>
                        </use>
                        <path d="M-4,0h8M0,-4v8" fill="none" stroke="white" stroke-width="1.5" pointer-events="none"/>
                </g>
                <g id="zoomMin">
                        <use xlink:href="#rim" fill="#404040">
                                <set attributeName="fill" to="#808080" begin="zoomminus.mouseover" end="zoomminus.mouseout"/>
                        </use>
                        <path d="M-4,0h8" fill="none" stroke="white" stroke-width="1.5" pointer-events="none"/>
                </g>
                <g id="dirArrow">
                        <path fill="none" stroke="white" stroke-width="1.5" d="M0,-3.0v7 M-2.5,-0.5L0,-3.0L2.5,-0.5"/>
                </g>
               <g id="resetDef">
                       <use xlink:href="#rim2" fill="#404040">
                               <set attributeName="fill" to="#808080" begin="reset.mouseover" end="reset.mouseout"/>
                       </use>
               </g>
        </defs>

<script type="text/javascript">
var viewWidth = 1687;
var viewHeight = 272;
var sectionId = 'dynsection-0';
</script>
<script xlink:href="svgpan.js"/>
<svg id="graph" class="graph">
<g id="viewport">
<title>/jenkins/jenlib_workspaces_f9/bld_nightly&#45;haldls.YmxkX25pZ2h0bHktaGFsZGxzIzEzNzk.x/haldls/include/haldls/vx/v3/capmem.h</title>
<polygon fill="white" stroke="transparent" points="-4,4 -4,-268 1682.98,-268 1682.98,4 -4,4"/>
<!-- Node1 -->
<g id="node1" class="node">
<title>Node1</title>
<g id="a_node1"><a xlink:title=" ">
<polygon fill="#bfbfbf" stroke="black" points="619.94,-207.5 619.94,-263.5 800.96,-263.5 800.96,-207.5 619.94,-207.5"/>
<text text-anchor="start" x="627.94" y="-250.5" font-family="Helvetica,sans-Serif" font-size="10.00">/jenkins/jenlib_workspaces</text>
<text text-anchor="start" x="627.94" y="-238.5" font-family="Helvetica,sans-Serif" font-size="10.00">_f9/bld_nightly&#45;haldls.YmxkX25p</text>
<text text-anchor="start" x="627.94" y="-226.5" font-family="Helvetica,sans-Serif" font-size="10.00">Z2h0bHktaGFsZGxzIzEzNzk.x/haldls</text>
<text text-anchor="middle" x="710.45" y="-214.5" font-family="Helvetica,sans-Serif" font-size="10.00">/include/haldls/vx/v3/capmem.h</text>
</a>
</g>
</g>
<!-- Node2 -->
<g id="node2" class="node">
<title>Node2</title>
<g id="a_node2"><a xlink:title=" ">
<polygon fill="white" stroke="#bfbfbf" points="461.94,-138.5 461.94,-170.5 562.96,-170.5 562.96,-138.5 461.94,-138.5"/>
<text text-anchor="start" x="469.94" y="-157.5" font-family="Helvetica,sans-Serif" font-size="10.00">halco/hicann&#45;dls/vx</text>
<text text-anchor="middle" x="512.45" y="-145.5" font-family="Helvetica,sans-Serif" font-size="10.00">/v3/capmem.h</text>
</a>
</g>
</g>
<!-- Node1&#45;&gt;Node2 -->
<g id="edge1" class="edge">
<title>Node1&#45;&gt;Node2</title>
<path fill="none" stroke="midnightblue" d="M642.58,-207.42C615.31,-196.54 584.52,-184.26 559.74,-174.37"/>
<polygon fill="midnightblue" stroke="midnightblue" points="560.8,-171.02 550.21,-170.57 558.2,-177.52 560.8,-171.02"/>
</g>
<!-- Node3 -->
<g id="node3" class="node">
<title>Node3</title>
<g id="a_node3"><a xlink:title=" ">
<polygon fill="white" stroke="#bfbfbf" points="580.94,-138.5 580.94,-170.5 681.96,-170.5 681.96,-138.5 580.94,-138.5"/>
<text text-anchor="start" x="588.94" y="-157.5" font-family="Helvetica,sans-Serif" font-size="10.00">halco/hicann&#45;dls/vx</text>
<text text-anchor="middle" x="631.45" y="-145.5" font-family="Helvetica,sans-Serif" font-size="10.00">/v3/coordinates.h</text>
</a>
</g>
</g>
<!-- Node1&#45;&gt;Node3 -->
<g id="edge2" class="edge">
<title>Node1&#45;&gt;Node3</title>
<path fill="none" stroke="midnightblue" d="M683.26,-207.31C673.64,-197.69 662.93,-186.98 653.76,-177.81"/>
<polygon fill="midnightblue" stroke="midnightblue" points="656.02,-175.12 646.47,-170.52 651.07,-180.07 656.02,-175.12"/>
</g>
<!-- Node4 -->
<g id="node4" class="node">
<title>Node4</title>
<g id="a_node4"><a xlink:href="cerealization_8h.html" target="_top" xlink:title=" ">
<polygon fill="white" stroke="black" points="228.77,-75.5 228.77,-95.5 338.12,-95.5 338.12,-75.5 228.77,-75.5"/>
<text text-anchor="middle" x="283.45" y="-82.5" font-family="Helvetica,sans-Serif" font-size="10.00">haldls/cerealization.h</text>
</a>
</g>
</g>
<!-- Node1&#45;&gt;Node4 -->
<g id="edge3" class="edge">
<title>Node1&#45;&gt;Node4</title>
<path fill="none" stroke="midnightblue" d="M713.06,-207.07C713.5,-185.13 710.13,-155.27 691.45,-138 640.51,-90.93 450.16,-111.42 381.45,-102 370.6,-100.51 359.1,-98.81 347.94,-97.09"/>
<polygon fill="midnightblue" stroke="midnightblue" points="348.24,-93.59 337.82,-95.51 347.16,-100.51 348.24,-93.59"/>
</g>
<!-- Node10 -->
<g id="node10" class="node">
<title>Node10</title>
<g id="a_node10"><a xlink:href="capmem_8h.html" target="_top" xlink:title=" ">
<polygon fill="white" stroke="black" points="738.27,-144.5 738.27,-164.5 842.62,-164.5 842.62,-144.5 738.27,-144.5"/>
<text text-anchor="middle" x="790.45" y="-151.5" font-family="Helvetica,sans-Serif" font-size="10.00">haldls/vx/capmem.h</text>
</a>
</g>
</g>
<!-- Node1&#45;&gt;Node10 -->
<g id="edge9" class="edge">
<title>Node1&#45;&gt;Node10</title>
<path fill="none" stroke="midnightblue" d="M737.98,-207.31C749.94,-195.5 763.55,-182.07 773.91,-171.83"/>
<polygon fill="midnightblue" stroke="midnightblue" points="776.46,-174.23 781.12,-164.71 771.54,-169.25 776.46,-174.23"/>
</g>
<!-- Node22 -->
<g id="node22" class="node">
<title>Node22</title>
<g id="a_node22"><a xlink:href="genpybind_8h.html" target="_top" xlink:title=" ">
<polygon fill="white" stroke="black" points="1397.38,-6.5 1397.38,-26.5 1509.52,-26.5 1509.52,-6.5 1397.38,-6.5"/>
<text text-anchor="middle" x="1453.45" y="-13.5" font-family="Helvetica,sans-Serif" font-size="10.00">haldls/vx/genpybind.h</text>
</a>
</g>
</g>
<!-- Node1&#45;&gt;Node22 -->
<g id="edge38" class="edge">
<title>Node1&#45;&gt;Node22</title>
<path fill="none" stroke="midnightblue" d="M800.96,-228.66C1028.77,-213.04 1611.78,-167.04 1668.45,-102 1714.21,-49.47 1598.89,-29.32 1520.01,-21.8"/>
<polygon fill="midnightblue" stroke="midnightblue" points="1519.9,-18.27 1509.62,-20.86 1519.27,-25.25 1519.9,-18.27"/>
</g>
<!-- Node5 -->
<g id="node5" class="node">
<title>Node5</title>
<g id="a_node5"><a xlink:title=" ">
<polygon fill="white" stroke="#bfbfbf" points="241.82,-6.5 241.82,-26.5 325.07,-26.5 325.07,-6.5 241.82,-6.5"/>
<text text-anchor="middle" x="283.45" y="-13.5" font-family="Helvetica,sans-Serif" font-size="10.00">hate/type_list.h</text>
</a>
</g>
</g>
<!-- Node4&#45;&gt;Node5 -->
<g id="edge4" class="edge">
<title>Node4&#45;&gt;Node5</title>
<path fill="none" stroke="midnightblue" d="M283.45,-75.46C283.45,-65.63 283.45,-49.61 283.45,-36.9"/>
<polygon fill="midnightblue" stroke="midnightblue" points="286.95,-36.82 283.45,-26.82 279.95,-36.82 286.95,-36.82"/>
</g>
<!-- Node6 -->
<g id="node6" class="node">
<title>Node6</title>
<g id="a_node6"><a xlink:title=" ">
<polygon fill="white" stroke="#bfbfbf" points="342.94,-6.5 342.94,-26.5 423.95,-26.5 423.95,-6.5 342.94,-6.5"/>
<text text-anchor="middle" x="383.45" y="-13.5" font-family="Helvetica,sans-Serif" font-size="10.00">hate/visibility.h</text>
</a>
</g>
</g>
<!-- Node4&#45;&gt;Node6 -->
<g id="edge5" class="edge">
<title>Node4&#45;&gt;Node6</title>
<path fill="none" stroke="midnightblue" d="M296.93,-75.46C313.48,-64.38 341.77,-45.42 361.48,-32.22"/>
<polygon fill="midnightblue" stroke="midnightblue" points="363.5,-35.08 369.86,-26.61 359.6,-29.27 363.5,-35.08"/>
</g>
<!-- Node7 -->
<g id="node7" class="node">
<title>Node7</title>
<g id="a_node7"><a xlink:title=" ">
<polygon fill="white" stroke="#bfbfbf" points="0,-6.5 0,-26.5 44.9,-26.5 44.9,-6.5 0,-6.5"/>
<text text-anchor="middle" x="22.45" y="-13.5" font-family="Helvetica,sans-Serif" font-size="10.00">cstdint</text>
</a>
</g>
</g>
<!-- Node4&#45;&gt;Node7 -->
<g id="edge6" class="edge">
<title>Node4&#45;&gt;Node7</title>
<path fill="none" stroke="midnightblue" d="M228.33,-75.78C181.31,-67.47 112.34,-53.23 54.45,-33 52.57,-32.34 50.65,-31.61 48.74,-30.82"/>
<polygon fill="midnightblue" stroke="midnightblue" points="49.96,-27.53 39.41,-26.61 47.09,-33.91 49.96,-27.53"/>
</g>
<!-- Node8 -->
<g id="node8" class="node">
<title>Node8</title>
<g id="a_node8"><a xlink:title=" ">
<polygon fill="white" stroke="#bfbfbf" points="63.28,-6.5 63.28,-26.5 107.62,-26.5 107.62,-6.5 63.28,-6.5"/>
<text text-anchor="middle" x="85.45" y="-13.5" font-family="Helvetica,sans-Serif" font-size="10.00">iosfwd</text>
</a>
</g>
</g>
<!-- Node4&#45;&gt;Node8 -->
<g id="edge7" class="edge">
<title>Node4&#45;&gt;Node8</title>
<path fill="none" stroke="midnightblue" d="M248.33,-75.48C214.13,-66.28 160.94,-50.84 116.45,-33 114.83,-32.35 113.19,-31.66 111.55,-30.93"/>
<polygon fill="midnightblue" stroke="midnightblue" points="112.81,-27.65 102.27,-26.54 109.82,-33.98 112.81,-27.65"/>
</g>
<!-- Node9 -->
<g id="node9" class="node">
<title>Node9</title>
<g id="a_node9"><a xlink:title=" ">
<polygon fill="white" stroke="#bfbfbf" points="125.33,-6.5 125.33,-26.5 223.57,-26.5 223.57,-6.5 125.33,-6.5"/>
<text text-anchor="middle" x="174.45" y="-13.5" font-family="Helvetica,sans-Serif" font-size="10.00">cereal/macros.hpp</text>
</a>
</g>
</g>
<!-- Node4&#45;&gt;Node9 -->
<g id="edge8" class="edge">
<title>Node4&#45;&gt;Node9</title>
<path fill="none" stroke="midnightblue" d="M268.75,-75.46C250.54,-64.28 219.32,-45.08 197.82,-31.86"/>
<polygon fill="midnightblue" stroke="midnightblue" points="199.62,-28.86 189.26,-26.61 195.95,-34.83 199.62,-28.86"/>
</g>
<!-- Node10&#45;&gt;Node4 -->
<g id="edge19" class="edge">
<title>Node10&#45;&gt;Node4</title>
<path fill="none" stroke="midnightblue" d="M755.68,-144.44C745.65,-142.08 734.66,-139.71 724.45,-138 568.04,-111.82 526.49,-124.08 369.45,-102 359.86,-100.65 349.7,-99.01 339.86,-97.31"/>
<polygon fill="midnightblue" stroke="midnightblue" points="340.22,-93.82 329.76,-95.52 339,-100.71 340.22,-93.82"/>
</g>
<!-- Node10&#45;&gt;Node6 -->
<g id="edge36" class="edge">
<title>Node10&#45;&gt;Node6</title>
<path fill="none" stroke="midnightblue" d="M755.33,-144.43C745.39,-142.09 734.54,-139.74 724.45,-138 653.5,-125.75 456.08,-150.04 402.45,-102 384.28,-85.73 381.51,-56.16 381.91,-36.68"/>
<polygon fill="midnightblue" stroke="midnightblue" points="385.42,-36.71 382.43,-26.54 378.43,-36.35 385.42,-36.71"/>
</g>
<!-- Node10&#45;&gt;Node7 -->
<g id="edge11" class="edge">
<title>Node10&#45;&gt;Node7</title>
<path fill="none" stroke="midnightblue" d="M738.15,-144.52C723.1,-142.15 706.65,-139.77 691.45,-138 482.47,-113.71 424,-151.21 219.45,-102 154.51,-86.38 83.81,-51.13 47.33,-31.45"/>
<polygon fill="midnightblue" stroke="midnightblue" points="48.86,-28.3 38.4,-26.58 45.5,-34.44 48.86,-28.3"/>
</g>
<!-- Node11 -->
<g id="node11" class="node">
<title>Node11</title>
<g id="a_node11"><a xlink:title=" ">
<polygon fill="white" stroke="#bfbfbf" points="517.06,-75.5 517.06,-95.5 555.84,-95.5 555.84,-75.5 517.06,-75.5"/>
<text text-anchor="middle" x="536.45" y="-82.5" font-family="Helvetica,sans-Serif" font-size="10.00">array</text>
</a>
</g>
</g>
<!-- Node10&#45;&gt;Node11 -->
<g id="edge10" class="edge">
<title>Node10&#45;&gt;Node11</title>
<path fill="none" stroke="midnightblue" d="M752.07,-144.42C743.02,-142.3 733.39,-140.06 724.45,-138 653.41,-121.67 632.58,-127.91 564.45,-102 563.02,-101.46 561.57,-100.85 560.13,-100.2"/>
<polygon fill="midnightblue" stroke="midnightblue" points="561.39,-96.92 550.89,-95.52 558.23,-103.16 561.39,-96.92"/>
</g>
<!-- Node12 -->
<g id="node12" class="node">
<title>Node12</title>
<g id="a_node12"><a xlink:title=" ">
<polygon fill="white" stroke="#bfbfbf" points="573.39,-75.5 573.39,-95.5 625.5,-95.5 625.5,-75.5 573.39,-75.5"/>
<text text-anchor="middle" x="599.45" y="-82.5" font-family="Helvetica,sans-Serif" font-size="10.00">ostream</text>
</a>
</g>
</g>
<!-- Node10&#45;&gt;Node12 -->
<g id="edge12" class="edge">
<title>Node10&#45;&gt;Node12</title>
<path fill="none" stroke="midnightblue" d="M760.23,-144.49C728.58,-134.83 677.56,-118.62 634.45,-102 632.38,-101.2 630.26,-100.35 628.13,-99.47"/>
<polygon fill="midnightblue" stroke="midnightblue" points="629.5,-96.25 618.93,-95.53 626.74,-102.69 629.5,-96.25"/>
</g>
<!-- Node13 -->
<g id="node13" class="node">
<title>Node13</title>
<g id="a_node13"><a xlink:title=" ">
<polygon fill="white" stroke="#bfbfbf" points="643.67,-75.5 643.67,-95.5 695.23,-95.5 695.23,-75.5 643.67,-75.5"/>
<text text-anchor="middle" x="669.45" y="-82.5" font-family="Helvetica,sans-Serif" font-size="10.00">sstream</text>
</a>
</g>
</g>
<!-- Node10&#45;&gt;Node13 -->
<g id="edge13" class="edge">
<title>Node10&#45;&gt;Node13</title>
<path fill="none" stroke="midnightblue" d="M774.13,-144.46C753.74,-133.18 718.64,-113.74 694.75,-100.51"/>
<polygon fill="midnightblue" stroke="midnightblue" points="696.34,-97.39 685.89,-95.61 692.95,-103.51 696.34,-97.39"/>
</g>
<!-- Node14 -->
<g id="node14" class="node">
<title>Node14</title>
<g id="a_node14"><a xlink:title=" ">
<polygon fill="white" stroke="#bfbfbf" points="713.45,-75.5 713.45,-95.5 759.45,-95.5 759.45,-75.5 713.45,-75.5"/>
<text text-anchor="middle" x="736.45" y="-82.5" font-family="Helvetica,sans-Serif" font-size="10.00">variant</text>
</a>
</g>
</g>
<!-- Node10&#45;&gt;Node14 -->
<g id="edge14" class="edge">
<title>Node10&#45;&gt;Node14</title>
<path fill="none" stroke="midnightblue" d="M783.16,-144.46C774.76,-134.03 760.74,-116.64 750.25,-103.63"/>
<polygon fill="midnightblue" stroke="midnightblue" points="752.96,-101.41 743.96,-95.82 747.51,-105.81 752.96,-101.41"/>
</g>
<!-- Node15 -->
<g id="node15" class="node">
<title>Node15</title>
<g id="a_node15"><a xlink:title=" ">
<polygon fill="white" stroke="#bfbfbf" points="777.55,-75.5 777.55,-95.5 911.35,-95.5 911.35,-75.5 777.55,-75.5"/>
<text text-anchor="middle" x="844.45" y="-82.5" font-family="Helvetica,sans-Serif" font-size="10.00">halco/common/geometry.h</text>
</a>
</g>
</g>
<!-- Node10&#45;&gt;Node15 -->
<g id="edge15" class="edge">
<title>Node10&#45;&gt;Node15</title>
<path fill="none" stroke="midnightblue" d="M797.73,-144.46C806.14,-134.03 820.15,-116.64 830.64,-103.63"/>
<polygon fill="midnightblue" stroke="midnightblue" points="833.38,-105.81 836.93,-95.82 827.93,-101.41 833.38,-105.81"/>
</g>
<!-- Node16 -->
<g id="node16" class="node">
<title>Node16</title>
<g id="a_node16"><a xlink:title=" ">
<polygon fill="white" stroke="#bfbfbf" points="929.66,-75.5 929.66,-95.5 1051.23,-95.5 1051.23,-75.5 929.66,-75.5"/>
<text text-anchor="middle" x="990.45" y="-82.5" font-family="Helvetica,sans-Serif" font-size="10.00">halco/common/iter_all.h</text>
</a>
</g>
</g>
<!-- Node10&#45;&gt;Node16 -->
<g id="edge16" class="edge">
<title>Node10&#45;&gt;Node16</title>
<path fill="none" stroke="midnightblue" d="M817.42,-144.46C852.61,-132.68 914.33,-112 953.75,-98.79"/>
<polygon fill="midnightblue" stroke="midnightblue" points="954.89,-102.1 963.26,-95.61 952.67,-95.46 954.89,-102.1"/>
</g>
<!-- Node17 -->
<g id="node17" class="node">
<title>Node17</title>
<g id="a_node17"><a xlink:title=" ">
<polygon fill="white" stroke="#bfbfbf" points="1069.33,-69.5 1069.33,-101.5 1177.57,-101.5 1177.57,-69.5 1069.33,-69.5"/>
<text text-anchor="start" x="1077.33" y="-88.5" font-family="Helvetica,sans-Serif" font-size="10.00">halco/common/typed</text>
<text text-anchor="middle" x="1123.45" y="-76.5" font-family="Helvetica,sans-Serif" font-size="10.00">_heap_array.h</text>
</a>
</g>
</g>
<!-- Node10&#45;&gt;Node17 -->
<g id="edge17" class="edge">
<title>Node10&#45;&gt;Node17</title>
<path fill="none" stroke="midnightblue" d="M842.12,-144.48C894.46,-135.16 977.96,-119.77 1059.29,-102.19"/>
<polygon fill="midnightblue" stroke="midnightblue" points="1060.17,-105.59 1069.19,-100.04 1058.68,-98.75 1060.17,-105.59"/>
</g>
<!-- Node18 -->
<g id="node18" class="node">
<title>Node18</title>
<g id="a_node18"><a xlink:title=" ">
<polygon fill="white" stroke="#bfbfbf" points="1195.94,-69.5 1195.94,-101.5 1296.96,-101.5 1296.96,-69.5 1195.94,-69.5"/>
<text text-anchor="start" x="1203.94" y="-88.5" font-family="Helvetica,sans-Serif" font-size="10.00">halco/hicann&#45;dls/vx</text>
<text text-anchor="middle" x="1246.45" y="-76.5" font-family="Helvetica,sans-Serif" font-size="10.00">/capmem.h</text>
</a>
</g>
</g>
<!-- Node10&#45;&gt;Node18 -->
<g id="edge18" class="edge">
<title>Node10&#45;&gt;Node18</title>
<path fill="none" stroke="midnightblue" d="M842.67,-148.78C916.8,-141.63 1056.92,-126.43 1185.76,-101.98"/>
<polygon fill="midnightblue" stroke="midnightblue" points="1186.65,-105.37 1195.81,-100.05 1185.33,-98.5 1186.65,-105.37"/>
</g>
<!-- Node19 -->
<g id="node19" class="node">
<title>Node19</title>
<g id="a_node19"><a xlink:href="common_8h.html" target="_top" xlink:title=" ">
<polygon fill="white" stroke="black" points="1315.27,-75.5 1315.27,-95.5 1419.62,-95.5 1419.62,-75.5 1315.27,-75.5"/>
<text text-anchor="middle" x="1367.45" y="-82.5" font-family="Helvetica,sans-Serif" font-size="10.00">haldls/vx/common.h</text>
</a>
</g>
</g>
<!-- Node10&#45;&gt;Node19 -->
<g id="edge20" class="edge">
<title>Node10&#45;&gt;Node19</title>
<path fill="none" stroke="midnightblue" d="M842.8,-150.86C936.41,-145.58 1138.42,-131.56 1306.45,-102 1312.73,-100.89 1319.33,-99.49 1325.76,-97.97"/>
<polygon fill="midnightblue" stroke="midnightblue" points="1326.79,-101.32 1335.67,-95.53 1325.12,-94.52 1326.79,-101.32"/>
</g>
<!-- Node10&#45;&gt;Node22 -->
<g id="edge23" class="edge">
<title>Node10&#45;&gt;Node22</title>
<path fill="none" stroke="midnightblue" d="M842.77,-152.62C987.13,-149.75 1383.39,-138.57 1428.45,-102 1447.71,-86.36 1452.6,-56.63 1453.6,-36.93"/>
<polygon fill="midnightblue" stroke="midnightblue" points="1457.1,-36.75 1453.81,-26.68 1450.1,-36.6 1457.1,-36.75"/>
</g>
<!-- Node23 -->
<g id="node23" class="node">
<title>Node23</title>
<g id="a_node23"><a xlink:href="traits_8h.html" target="_top" xlink:title=" ">
<polygon fill="white" stroke="black" points="411.61,-75.5 411.61,-95.5 499.29,-95.5 499.29,-75.5 411.61,-75.5"/>
<text text-anchor="middle" x="455.45" y="-82.5" font-family="Helvetica,sans-Serif" font-size="10.00">haldls/vx/traits.h</text>
</a>
</g>
</g>
<!-- Node10&#45;&gt;Node23 -->
<g id="edge25" class="edge">
<title>Node10&#45;&gt;Node23</title>
<path fill="none" stroke="midnightblue" d="M753.89,-144.46C744.33,-142.23 734.03,-139.92 724.45,-138 629.02,-118.86 603.32,-123.7 508.45,-102 503.73,-100.92 498.81,-99.67 493.96,-98.34"/>
<polygon fill="midnightblue" stroke="midnightblue" points="494.74,-94.93 484.17,-95.58 492.84,-101.66 494.74,-94.93"/>
</g>
<!-- Node29 -->
<g id="node29" class="node">
<title>Node29</title>
<g id="a_node29"><a xlink:title=" ">
<polygon fill="white" stroke="#bfbfbf" points="1475.38,-75.5 1475.38,-95.5 1537.51,-95.5 1537.51,-75.5 1475.38,-75.5"/>
<text text-anchor="middle" x="1506.45" y="-82.5" font-family="Helvetica,sans-Serif" font-size="10.00">hate/join.h</text>
</a>
</g>
</g>
<!-- Node10&#45;&gt;Node29 -->
<g id="edge35" class="edge">
<title>Node10&#45;&gt;Node29</title>
<path fill="none" stroke="midnightblue" d="M842.85,-153.99C956.7,-154.07 1234.63,-148.96 1461.45,-102 1465.63,-101.13 1469.97,-99.98 1474.22,-98.7"/>
<polygon fill="midnightblue" stroke="midnightblue" points="1475.46,-101.98 1483.87,-95.54 1473.28,-95.32 1475.46,-101.98"/>
</g>
<!-- Node30 -->
<g id="node30" class="node">
<title>Node30</title>
<g id="a_node30"><a xlink:title=" ">
<polygon fill="white" stroke="#bfbfbf" points="1555.83,-75.5 1555.83,-95.5 1659.07,-95.5 1659.07,-75.5 1555.83,-75.5"/>
<text text-anchor="middle" x="1607.45" y="-82.5" font-family="Helvetica,sans-Serif" font-size="10.00">hxcomm/vx/target.h</text>
</a>
</g>
</g>
<!-- Node10&#45;&gt;Node30 -->
<g id="edge37" class="edge">
<title>Node10&#45;&gt;Node30</title>
<path fill="none" stroke="midnightblue" d="M843.06,-153.18C966.62,-151.71 1284.69,-143.82 1546.45,-102 1552.89,-100.97 1559.65,-99.58 1566.22,-98.05"/>
<polygon fill="midnightblue" stroke="midnightblue" points="1567.45,-101.35 1576.33,-95.56 1565.78,-94.55 1567.45,-101.35"/>
</g>
<!-- Node20 -->
<g id="node20" class="node">
<title>Node20</title>
<g id="a_node20"><a xlink:title=" ">
<polygon fill="white" stroke="#bfbfbf" points="1147.39,-6.5 1147.39,-26.5 1209.51,-26.5 1209.51,-6.5 1147.39,-6.5"/>
<text text-anchor="middle" x="1178.45" y="-13.5" font-family="Helvetica,sans-Serif" font-size="10.00">type_traits</text>
</a>
</g>
</g>
<!-- Node19&#45;&gt;Node20 -->
<g id="edge21" class="edge">
<title>Node19&#45;&gt;Node20</title>
<path fill="none" stroke="midnightblue" d="M1341.96,-75.46C1308.85,-63.73 1250.88,-43.18 1213.6,-29.96"/>
<polygon fill="midnightblue" stroke="midnightblue" points="1214.73,-26.65 1204.14,-26.61 1212.39,-33.25 1214.73,-26.65"/>
</g>
<!-- Node21 -->
<g id="node21" class="node">
<title>Node21</title>
<g id="a_node21"><a xlink:title=" ">
<polygon fill="white" stroke="#bfbfbf" points="1341.06,-6.5 1341.06,-26.5 1379.83,-26.5 1379.83,-6.5 1341.06,-6.5"/>
<text text-anchor="middle" x="1360.45" y="-13.5" font-family="Helvetica,sans-Serif" font-size="10.00">utility</text>
</a>
</g>
</g>
<!-- Node19&#45;&gt;Node21 -->
<g id="edge22" class="edge">
<title>Node19&#45;&gt;Node21</title>
<path fill="none" stroke="midnightblue" d="M1366.5,-75.46C1365.48,-65.63 1363.8,-49.61 1362.47,-36.9"/>
<polygon fill="midnightblue" stroke="midnightblue" points="1365.94,-36.4 1361.42,-26.82 1358.98,-37.13 1365.94,-36.4"/>
</g>
<!-- Node22&#45;&gt;Node22 -->
<g id="edge24" class="edge">
<title>Node22&#45;&gt;Node22</title>
<path fill="none" stroke="midnightblue" d="M1477.34,-26.54C1501.17,-32.26 1527.52,-28.92 1527.52,-16.5 1527.52,-5.78 1507.88,-1.82 1487.18,-4.62"/>
<polygon fill="midnightblue" stroke="midnightblue" points="1486.53,-1.18 1477.34,-6.46 1487.82,-8.06 1486.53,-1.18"/>
</g>
<!-- Node23&#45;&gt;Node5 -->
<g id="edge29" class="edge">
<title>Node23&#45;&gt;Node5</title>
<path fill="none" stroke="midnightblue" d="M432.25,-75.46C402.37,-63.83 350.26,-43.52 316.31,-30.3"/>
<polygon fill="midnightblue" stroke="midnightblue" points="317.41,-26.98 306.83,-26.61 314.87,-33.5 317.41,-26.98"/>
</g>
<!-- Node23&#45;&gt;Node6 -->
<g id="edge30" class="edge">
<title>Node23&#45;&gt;Node6</title>
<path fill="none" stroke="midnightblue" d="M445.74,-75.46C434.31,-64.83 415.13,-46.98 401.06,-33.89"/>
<polygon fill="midnightblue" stroke="midnightblue" points="403.17,-31.07 393.47,-26.82 398.4,-36.2 403.17,-31.07"/>
</g>
<!-- Node23&#45;&gt;Node20 -->
<g id="edge31" class="edge">
<title>Node23&#45;&gt;Node20</title>
<path fill="none" stroke="midnightblue" d="M482.14,-75.48C490.48,-73 499.77,-70.56 508.45,-69 731.67,-28.94 791.45,-51.87 1017.45,-33 1058.23,-29.6 1104.75,-25.04 1137.26,-21.76"/>
<polygon fill="midnightblue" stroke="midnightblue" points="1137.71,-25.23 1147.3,-20.73 1137,-18.26 1137.71,-25.23"/>
</g>
<!-- Node23&#45;&gt;Node22 -->
<g id="edge28" class="edge">
<title>Node23&#45;&gt;Node22</title>
<path fill="none" stroke="midnightblue" d="M481.57,-75.49C490.05,-72.94 499.55,-70.46 508.45,-69 894.72,-5.59 1000.7,-86.65 1388.45,-33 1395.79,-31.98 1403.53,-30.51 1410.99,-28.87"/>
<polygon fill="midnightblue" stroke="midnightblue" points="1412,-32.22 1420.95,-26.55 1410.41,-25.41 1412,-32.22"/>
</g>
<!-- Node24 -->
<g id="node24" class="node">
<title>Node24</title>
<g id="a_node24"><a xlink:title=" ">
<polygon fill="white" stroke="#bfbfbf" points="442.39,-6.5 442.39,-26.5 524.51,-26.5 524.51,-6.5 442.39,-6.5"/>
<text text-anchor="middle" x="483.45" y="-13.5" font-family="Helvetica,sans-Serif" font-size="10.00">fisch/vx/traits.h</text>
</a>
</g>
</g>
<!-- Node23&#45;&gt;Node24 -->
<g id="edge26" class="edge">
<title>Node23&#45;&gt;Node24</title>
<path fill="none" stroke="midnightblue" d="M459.22,-75.46C463.42,-65.43 470.3,-48.96 475.66,-36.13"/>
<polygon fill="midnightblue" stroke="midnightblue" points="478.92,-37.4 479.55,-26.82 472.47,-34.7 478.92,-37.4"/>
</g>
<!-- Node25 -->
<g id="node25" class="node">
<title>Node25</title>
<g id="a_node25"><a xlink:title=" ">
<polygon fill="white" stroke="#bfbfbf" points="542.22,-0.5 542.22,-32.5 652.68,-32.5 652.68,-0.5 542.22,-0.5"/>
<text text-anchor="start" x="550.22" y="-19.5" font-family="Helvetica,sans-Serif" font-size="10.00">fisch/vx/word_access</text>
<text text-anchor="middle" x="597.45" y="-7.5" font-family="Helvetica,sans-Serif" font-size="10.00">_type.h</text>
</a>
</g>
</g>
<!-- Node23&#45;&gt;Node25 -->
<g id="edge27" class="edge">
<title>Node23&#45;&gt;Node25</title>
<path fill="none" stroke="midnightblue" d="M474.6,-75.46C495.46,-65.62 529.44,-49.59 556.38,-36.88"/>
<polygon fill="midnightblue" stroke="midnightblue" points="558.04,-39.97 565.59,-32.53 555.05,-33.64 558.04,-39.97"/>
</g>
<!-- Node26 -->
<g id="node26" class="node">
<title>Node26</title>
<g id="a_node26"><a xlink:title=" ">
<polygon fill="white" stroke="#bfbfbf" points="671.05,-0.5 671.05,-32.5 769.85,-32.5 769.85,-0.5 671.05,-0.5"/>
<text text-anchor="start" x="679.05" y="-19.5" font-family="Helvetica,sans-Serif" font-size="10.00">boost/utility/enable</text>
<text text-anchor="middle" x="720.45" y="-7.5" font-family="Helvetica,sans-Serif" font-size="10.00">_if.hpp</text>
</a>
</g>
</g>
<!-- Node23&#45;&gt;Node26 -->
<g id="edge32" class="edge">
<title>Node23&#45;&gt;Node26</title>
<path fill="none" stroke="midnightblue" d="M485.36,-75.45C492.88,-73.26 500.94,-70.98 508.45,-69 572.96,-51.99 591.97,-50.03 660.84,-33.11"/>
<polygon fill="midnightblue" stroke="midnightblue" points="662.03,-36.42 670.9,-30.62 660.35,-29.62 662.03,-36.42"/>
</g>
<!-- Node27 -->
<g id="node27" class="node">
<title>Node27</title>
<g id="a_node27"><a xlink:title=" ">
<polygon fill="white" stroke="#bfbfbf" points="788.1,-6.5 788.1,-26.5 880.8,-26.5 880.8,-6.5 788.1,-6.5"/>
<text text-anchor="middle" x="834.45" y="-13.5" font-family="Helvetica,sans-Serif" font-size="10.00">boost/variant.hpp</text>
</a>
</g>
</g>
<!-- Node23&#45;&gt;Node27 -->
<g id="edge33" class="edge">
<title>Node23&#45;&gt;Node27</title>
<path fill="none" stroke="midnightblue" d="M483.3,-75.49C491.35,-73.12 500.19,-70.75 508.45,-69 626.89,-43.94 659.83,-57.2 778.45,-33 783.82,-31.9 789.44,-30.57 794.96,-29.16"/>
<polygon fill="midnightblue" stroke="midnightblue" points="795.94,-32.52 804.7,-26.55 794.13,-25.76 795.94,-32.52"/>
</g>
<!-- Node28 -->
<g id="node28" class="node">
<title>Node28</title>
<g id="a_node28"><a xlink:title=" ">
<polygon fill="white" stroke="#bfbfbf" points="898.49,-6.5 898.49,-26.5 1008.4,-26.5 1008.4,-6.5 898.49,-6.5"/>
<text text-anchor="middle" x="953.45" y="-13.5" font-family="Helvetica,sans-Serif" font-size="10.00">fisch/vx/container.def</text>
</a>
</g>
</g>
<!-- Node23&#45;&gt;Node28 -->
<g id="edge34" class="edge">
<title>Node23&#45;&gt;Node28</title>
<path fill="none" stroke="midnightblue" d="M482.71,-75.45C490.91,-73.02 499.97,-70.62 508.45,-69 675.49,-36.98 721.7,-61.09 889.45,-33 896.19,-31.87 903.27,-30.42 910.17,-28.87"/>
<polygon fill="midnightblue" stroke="midnightblue" points="911.15,-32.23 920.09,-26.54 909.55,-25.42 911.15,-32.23"/>
</g>
</g>
</svg>
        <g id="navigator" transform="translate(0 0)" fill="#404254">
                <rect fill="#f2f5e9" fill-opacity="0.5" stroke="#606060" stroke-width=".5" x="0" y="0" width="60" height="60"/>
                <use id="zoomplus" xlink:href="#zoomPlus" x="17" y="9" onmousedown="handleZoom(evt,'in')"/>
                <use id="zoomminus" xlink:href="#zoomMin" x="42" y="9" onmousedown="handleZoom(evt,'out')"/>
                <use id="reset" xlink:href="#resetDef" x="30" y="36" onmousedown="handleReset()"/>
                <g id="arrowUp" xlink:href="#dirArrow" transform="translate(30 24)" onmousedown="handlePan(0,-1)">
                  <use xlink:href="#rim" fill="#404040">
                        <set attributeName="fill" to="#808080" begin="arrowUp.mouseover" end="arrowUp.mouseout"/>
                  </use>
                  <path fill="none" stroke="white" stroke-width="1.5" d="M0,-3.0v7 M-2.5,-0.5L0,-3.0L2.5,-0.5"/>
                </g>
                <g id="arrowRight" xlink:href="#dirArrow" transform="rotate(90) translate(36 -43)" onmousedown="handlePan(1,0)">
                  <use xlink:href="#rim" fill="#404040">
                        <set attributeName="fill" to="#808080" begin="arrowRight.mouseover" end="arrowRight.mouseout"/>
                  </use>
                  <path fill="none" stroke="white" stroke-width="1.5" d="M0,-3.0v7 M-2.5,-0.5L0,-3.0L2.5,-0.5"/>
                </g>
                <g id="arrowDown" xlink:href="#dirArrow" transform="rotate(180) translate(-30 -48)" onmousedown="handlePan(0,1)">
                  <use xlink:href="#rim" fill="#404040">
                        <set attributeName="fill" to="#808080" begin="arrowDown.mouseover" end="arrowDown.mouseout"/>
                  </use>
                  <path fill="none" stroke="white" stroke-width="1.5" d="M0,-3.0v7 M-2.5,-0.5L0,-3.0L2.5,-0.5"/>
                </g>
                <g id="arrowLeft" xlink:href="#dirArrow" transform="rotate(270) translate(-36 17)" onmousedown="handlePan(-1,0)">
                  <use xlink:href="#rim" fill="#404040">
                        <set attributeName="fill" to="#808080" begin="arrowLeft.mouseover" end="arrowLeft.mouseout"/>
                  </use>
                  <path fill="none" stroke="white" stroke-width="1.5" d="M0,-3.0v7 M-2.5,-0.5L0,-3.0L2.5,-0.5"/>
                </g>
        </g>
        <svg viewBox="0 0 15 15" width="100%" height="30px" preserveAspectRatio="xMaxYMin meet">
         <g id="arrow_out" transform="scale(0.3 0.3)">
          <a xlink:href="v3_2capmem_8h__incl_org.svg" target="_base">
           <rect id="button" ry="5" rx="5" y="6" x="6" height="38" width="38"
                fill="#f2f5e9" fill-opacity="0.5" stroke="#606060" stroke-width="1.0"/>
           <path id="arrow"
             d="M 11.500037,31.436501 C 11.940474,20.09759 22.043105,11.32322 32.158766,21.979434 L 37.068811,17.246167 C 37.068811,17.246167 37.088388,32 37.088388,32 L 22.160133,31.978069 C 22.160133,31.978069 26.997745,27.140456 26.997745,27.140456 C 18.528582,18.264221 13.291696,25.230495 11.500037,31.436501 z"
             style="fill:#404040;"/>
          </a>
         </g>
        </svg>
</svg>
