<?xml version="1.0" encoding="UTF-8" standalone="no"?>
<!DOCTYPE svg PUBLIC "-//W3C//DTD SVG 1.1//EN"
 "http://www.w3.org/Graphics/SVG/1.1/DTD/svg11.dtd">
<!-- Generated by graphviz version 2.46.0 (0)
 -->
<!-- Title: /jenkins/jenlib_workspaces_f9/bld_nightly&#45;haldls.YmxkX25pZ2h0bHktaGFsZGxzIzEzNzk.x/haldls/include/haldls/vx/v3/reset.h Pages: 1 -->
<svg width="1242pt" height="260pt"
 viewBox="0.00 0.00 1242.24 260.00" xmlns="http://www.w3.org/2000/svg" xmlns:xlink="http://www.w3.org/1999/xlink">
<g id="graph0" class="graph" transform="scale(1 1) rotate(0) translate(4 256)">
<title>/jenkins/jenlib_workspaces_f9/bld_nightly&#45;haldls.YmxkX25pZ2h0bHktaGFsZGxzIzEzNzk.x/haldls/include/haldls/vx/v3/reset.h</title>
<polygon fill="white" stroke="transparent" points="-4,4 -4,-256 1238.24,-256 1238.24,4 -4,4"/>
<!-- Node1 -->
<g id="node1" class="node">
<title>Node1</title>
<g id="a_node1"><a xlink:title=" ">
<polygon fill="#bfbfbf" stroke="black" points="441.66,-195.5 441.66,-251.5 622.68,-251.5 622.68,-195.5 441.66,-195.5"/>
<text text-anchor="start" x="449.66" y="-238.5" font-family="Helvetica,sans-Serif" font-size="10.00">/jenkins/jenlib_workspaces</text>
<text text-anchor="start" x="449.66" y="-226.5" font-family="Helvetica,sans-Serif" font-size="10.00">_f9/bld_nightly&#45;haldls.YmxkX25p</text>
<text text-anchor="start" x="449.66" y="-214.5" font-family="Helvetica,sans-Serif" font-size="10.00">Z2h0bHktaGFsZGxzIzEzNzk.x/haldls</text>
<text text-anchor="middle" x="532.17" y="-202.5" font-family="Helvetica,sans-Serif" font-size="10.00">/include/haldls/vx/v3/reset.h</text>
</a>
</g>
</g>
<!-- Node2 -->
<g id="node2" class="node">
<title>Node2</title>
<g id="a_node2"><a xlink:href="genpybind_8h.html" target="_top" xlink:title=" ">
<polygon fill="white" stroke="black" points="1104.1,-6.5 1104.1,-26.5 1216.24,-26.5 1216.24,-6.5 1104.1,-6.5"/>
<text text-anchor="middle" x="1160.17" y="-13.5" font-family="Helvetica,sans-Serif" font-size="10.00">haldls/vx/genpybind.h</text>
</a>
</g>
</g>
<!-- Node1&#45;&gt;Node2 -->
<g id="edge1" class="edge">
<title>Node1&#45;&gt;Node2</title>
<path fill="none" stroke="midnightblue" d="M614.91,-195.49C752.73,-150.5 1023.92,-61.97 1122.89,-29.67"/>
<polygon fill="midnightblue" stroke="midnightblue" points="1124.04,-32.97 1132.47,-26.54 1121.87,-26.32 1124.04,-32.97"/>
</g>
<!-- Node3 -->
<g id="node3" class="node">
<title>Node3</title>
<g id="a_node3"><a xlink:href="reset_8h.html" target="_top" xlink:title=" ">
<polygon fill="white" stroke="black" points="372.05,-138.5 372.05,-158.5 460.29,-158.5 460.29,-138.5 372.05,-138.5"/>
<text text-anchor="middle" x="416.17" y="-145.5" font-family="Helvetica,sans-Serif" font-size="10.00">haldls/vx/reset.h</text>
</a>
</g>
</g>
<!-- Node1&#45;&gt;Node3 -->
<g id="edge3" class="edge">
<title>Node1&#45;&gt;Node3</title>
<path fill="none" stroke="midnightblue" d="M488.97,-195.32C472.06,-184.68 453.36,-172.9 439.14,-163.96"/>
<polygon fill="midnightblue" stroke="midnightblue" points="440.84,-160.89 430.51,-158.52 437.11,-166.81 440.84,-160.89"/>
</g>
<!-- Node2&#45;&gt;Node2 -->
<g id="edge2" class="edge">
<title>Node2&#45;&gt;Node2</title>
<path fill="none" stroke="midnightblue" d="M1184.06,-26.54C1207.89,-32.26 1234.24,-28.92 1234.24,-16.5 1234.24,-5.78 1214.6,-1.82 1193.9,-4.62"/>
<polygon fill="midnightblue" stroke="midnightblue" points="1193.25,-1.18 1184.06,-6.46 1194.54,-8.06 1193.25,-1.18"/>
</g>
<!-- Node3&#45;&gt;Node2 -->
<g id="edge13" class="edge">
<title>Node3&#45;&gt;Node2</title>
<path fill="none" stroke="midnightblue" d="M460.49,-141.28C569.16,-125.74 857.37,-82.9 1095.17,-33 1101.28,-31.72 1107.69,-30.29 1114.01,-28.83"/>
<polygon fill="midnightblue" stroke="midnightblue" points="1114.87,-32.23 1123.81,-26.54 1113.27,-25.41 1114.87,-32.23"/>
</g>
<!-- Node4 -->
<g id="node4" class="node">
<title>Node4</title>
<g id="a_node4"><a xlink:title=" ">
<polygon fill="white" stroke="#bfbfbf" points="141.78,-75.5 141.78,-95.5 180.56,-95.5 180.56,-75.5 141.78,-75.5"/>
<text text-anchor="middle" x="161.17" y="-82.5" font-family="Helvetica,sans-Serif" font-size="10.00">array</text>
</a>
</g>
</g>
<!-- Node3&#45;&gt;Node4 -->
<g id="edge4" class="edge">
<title>Node3&#45;&gt;Node4</title>
<path fill="none" stroke="midnightblue" d="M371.98,-142.73C325.42,-136.77 250.48,-124.5 189.17,-102 187.73,-101.47 186.28,-100.88 184.84,-100.24"/>
<polygon fill="midnightblue" stroke="midnightblue" points="186.09,-96.96 175.59,-95.59 182.95,-103.21 186.09,-96.96"/>
</g>
<!-- Node5 -->
<g id="node5" class="node">
<title>Node5</title>
<g id="a_node5"><a xlink:title=" ">
<polygon fill="white" stroke="#bfbfbf" points="0,-6.5 0,-26.5 44.34,-26.5 44.34,-6.5 0,-6.5"/>
<text text-anchor="middle" x="22.17" y="-13.5" font-family="Helvetica,sans-Serif" font-size="10.00">iosfwd</text>
</a>
</g>
</g>
<!-- Node3&#45;&gt;Node5 -->
<g id="edge5" class="edge">
<title>Node3&#45;&gt;Node5</title>
<path fill="none" stroke="midnightblue" d="M371.66,-146.97C314.3,-144.83 212.52,-136.02 133.17,-102 95.04,-85.65 58.25,-53.36 38.07,-33.77"/>
<polygon fill="midnightblue" stroke="midnightblue" points="40.51,-31.27 30.95,-26.71 35.58,-36.24 40.51,-31.27"/>
</g>
<!-- Node6 -->
<g id="node6" class="node">
<title>Node6</title>
<g id="a_node6"><a xlink:title=" ">
<polygon fill="white" stroke="#bfbfbf" points="325.66,-69.5 325.66,-101.5 426.68,-101.5 426.68,-69.5 325.66,-69.5"/>
<text text-anchor="start" x="333.66" y="-88.5" font-family="Helvetica,sans-Serif" font-size="10.00">halco/hicann&#45;dls/vx</text>
<text text-anchor="middle" x="376.17" y="-76.5" font-family="Helvetica,sans-Serif" font-size="10.00">/reset.h</text>
</a>
</g>
</g>
<!-- Node3&#45;&gt;Node6 -->
<g id="edge6" class="edge">
<title>Node3&#45;&gt;Node6</title>
<path fill="none" stroke="midnightblue" d="M410.27,-138.5C405.36,-131.01 398.14,-120.02 391.62,-110.06"/>
<polygon fill="midnightblue" stroke="midnightblue" points="394.54,-108.13 386.13,-101.69 388.69,-111.97 394.54,-108.13"/>
</g>
<!-- Node7 -->
<g id="node7" class="node">
<title>Node7</title>
<g id="a_node7"><a xlink:href="cerealization_8h.html" target="_top" xlink:title=" ">
<polygon fill="white" stroke="black" points="198.49,-75.5 198.49,-95.5 307.84,-95.5 307.84,-75.5 198.49,-75.5"/>
<text text-anchor="middle" x="253.17" y="-82.5" font-family="Helvetica,sans-Serif" font-size="10.00">haldls/cerealization.h</text>
</a>
</g>
</g>
<!-- Node3&#45;&gt;Node7 -->
<g id="edge7" class="edge">
<title>Node3&#45;&gt;Node7</title>
<path fill="none" stroke="midnightblue" d="M392.12,-138.5C364.31,-128.09 318.34,-110.89 286.96,-99.14"/>
<polygon fill="midnightblue" stroke="midnightblue" points="287.91,-95.76 277.32,-95.54 285.46,-102.32 287.91,-95.76"/>
</g>
<!-- Node9 -->
<g id="node9" class="node">
<title>Node9</title>
<g id="a_node9"><a xlink:title=" ">
<polygon fill="white" stroke="#bfbfbf" points="342.66,-6.5 342.66,-26.5 423.67,-26.5 423.67,-6.5 342.66,-6.5"/>
<text text-anchor="middle" x="383.17" y="-13.5" font-family="Helvetica,sans-Serif" font-size="10.00">hate/visibility.h</text>
</a>
</g>
</g>
<!-- Node3&#45;&gt;Node9 -->
<g id="edge24" class="edge">
<title>Node3&#45;&gt;Node9</title>
<path fill="none" stroke="midnightblue" d="M422.41,-138.02C431.5,-122.96 446.24,-92.84 436.17,-69 430.04,-54.5 417.61,-42.06 406.32,-33.05"/>
<polygon fill="midnightblue" stroke="midnightblue" points="408.14,-30.04 398.04,-26.84 403.95,-35.64 408.14,-30.04"/>
</g>
<!-- Node12 -->
<g id="node12" class="node">
<title>Node12</title>
<g id="a_node12"><a xlink:href="traits_8h.html" target="_top" xlink:title=" ">
<polygon fill="white" stroke="black" points="618.33,-75.5 618.33,-95.5 706.01,-95.5 706.01,-75.5 618.33,-75.5"/>
<text text-anchor="middle" x="662.17" y="-82.5" font-family="Helvetica,sans-Serif" font-size="10.00">haldls/vx/traits.h</text>
</a>
</g>
</g>
<!-- Node3&#45;&gt;Node12 -->
<g id="edge14" class="edge">
<title>Node3&#45;&gt;Node12</title>
<path fill="none" stroke="midnightblue" d="M452.47,-138.5C495.8,-127.75 568.34,-109.77 615.72,-98.02"/>
<polygon fill="midnightblue" stroke="midnightblue" points="616.86,-101.34 625.72,-95.54 615.17,-94.55 616.86,-101.34"/>
</g>
<!-- Node7&#45;&gt;Node5 -->
<g id="edge11" class="edge">
<title>Node7&#45;&gt;Node5</title>
<path fill="none" stroke="midnightblue" d="M216.08,-75.4C162.57,-62.2 68.41,-38.7 53.17,-33 51.5,-32.38 49.81,-31.69 48.11,-30.97"/>
<polygon fill="midnightblue" stroke="midnightblue" points="49.15,-27.59 38.61,-26.53 46.19,-33.93 49.15,-27.59"/>
</g>
<!-- Node8 -->
<g id="node8" class="node">
<title>Node8</title>
<g id="a_node8"><a xlink:title=" ">
<polygon fill="white" stroke="#bfbfbf" points="241.54,-6.5 241.54,-26.5 324.79,-26.5 324.79,-6.5 241.54,-6.5"/>
<text text-anchor="middle" x="283.17" y="-13.5" font-family="Helvetica,sans-Serif" font-size="10.00">hate/type_list.h</text>
</a>
</g>
</g>
<!-- Node7&#45;&gt;Node8 -->
<g id="edge8" class="edge">
<title>Node7&#45;&gt;Node8</title>
<path fill="none" stroke="midnightblue" d="M257.21,-75.46C261.71,-65.43 269.08,-48.96 274.82,-36.13"/>
<polygon fill="midnightblue" stroke="midnightblue" points="278.1,-37.38 278.99,-26.82 271.71,-34.52 278.1,-37.38"/>
</g>
<!-- Node7&#45;&gt;Node9 -->
<g id="edge9" class="edge">
<title>Node7&#45;&gt;Node9</title>
<path fill="none" stroke="midnightblue" d="M270.7,-75.46C292.7,-64.13 330.65,-44.56 356.32,-31.34"/>
<polygon fill="midnightblue" stroke="midnightblue" points="358.21,-34.3 365.5,-26.61 355.01,-28.08 358.21,-34.3"/>
</g>
<!-- Node10 -->
<g id="node10" class="node">
<title>Node10</title>
<g id="a_node10"><a xlink:title=" ">
<polygon fill="white" stroke="#bfbfbf" points="178.72,-6.5 178.72,-26.5 223.62,-26.5 223.62,-6.5 178.72,-6.5"/>
<text text-anchor="middle" x="201.17" y="-13.5" font-family="Helvetica,sans-Serif" font-size="10.00">cstdint</text>
</a>
</g>
</g>
<!-- Node7&#45;&gt;Node10 -->
<g id="edge10" class="edge">
<title>Node7&#45;&gt;Node10</title>
<path fill="none" stroke="midnightblue" d="M246.15,-75.46C238.14,-65.13 224.82,-47.97 214.75,-35"/>
<polygon fill="midnightblue" stroke="midnightblue" points="217.3,-32.58 208.4,-26.82 211.77,-36.87 217.3,-32.58"/>
</g>
<!-- Node11 -->
<g id="node11" class="node">
<title>Node11</title>
<g id="a_node11"><a xlink:title=" ">
<polygon fill="white" stroke="#bfbfbf" points="62.05,-6.5 62.05,-26.5 160.29,-26.5 160.29,-6.5 62.05,-6.5"/>
<text text-anchor="middle" x="111.17" y="-13.5" font-family="Helvetica,sans-Serif" font-size="10.00">cereal/macros.hpp</text>
</a>
</g>
</g>
<!-- Node7&#45;&gt;Node11 -->
<g id="edge12" class="edge">
<title>Node7&#45;&gt;Node11</title>
<path fill="none" stroke="midnightblue" d="M234.02,-75.46C209.77,-64.03 167.8,-44.22 139.75,-30.99"/>
<polygon fill="midnightblue" stroke="midnightblue" points="141.01,-27.71 130.47,-26.61 138.02,-34.04 141.01,-27.71"/>
</g>
<!-- Node12&#45;&gt;Node2 -->
<g id="edge17" class="edge">
<title>Node12&#45;&gt;Node2</title>
<path fill="none" stroke="midnightblue" d="M706.05,-80.97C784.53,-74.29 953.93,-58.15 1095.17,-33 1101.84,-31.81 1108.86,-30.36 1115.71,-28.82"/>
<polygon fill="midnightblue" stroke="midnightblue" points="1116.63,-32.2 1125.58,-26.53 1115.05,-25.38 1116.63,-32.2"/>
</g>
<!-- Node12&#45;&gt;Node8 -->
<g id="edge18" class="edge">
<title>Node12&#45;&gt;Node8</title>
<path fill="none" stroke="midnightblue" d="M618.14,-79.67C554.66,-72.25 433.98,-56.38 333.17,-33 328.71,-31.97 324.08,-30.74 319.51,-29.44"/>
<polygon fill="midnightblue" stroke="midnightblue" points="320.28,-26.02 309.7,-26.51 318.28,-32.72 320.28,-26.02"/>
</g>
<!-- Node12&#45;&gt;Node9 -->
<g id="edge19" class="edge">
<title>Node12&#45;&gt;Node9</title>
<path fill="none" stroke="midnightblue" d="M618.01,-75.66C571.71,-66.13 496.95,-50.03 433.17,-33 429.07,-31.91 424.8,-30.69 420.56,-29.45"/>
<polygon fill="midnightblue" stroke="midnightblue" points="421.41,-26.05 410.82,-26.5 419.38,-32.75 421.41,-26.05"/>
</g>
<!-- Node13 -->
<g id="node13" class="node">
<title>Node13</title>
<g id="a_node13"><a xlink:title=" ">
<polygon fill="white" stroke="#bfbfbf" points="680.11,-6.5 680.11,-26.5 762.23,-26.5 762.23,-6.5 680.11,-6.5"/>
<text text-anchor="middle" x="721.17" y="-13.5" font-family="Helvetica,sans-Serif" font-size="10.00">fisch/vx/traits.h</text>
</a>
</g>
</g>
<!-- Node12&#45;&gt;Node13 -->
<g id="edge15" class="edge">
<title>Node12&#45;&gt;Node13</title>
<path fill="none" stroke="midnightblue" d="M670.12,-75.46C679.31,-65.03 694.62,-47.64 706.08,-34.63"/>
<polygon fill="midnightblue" stroke="midnightblue" points="708.98,-36.64 712.96,-26.82 703.72,-32.01 708.98,-36.64"/>
</g>
<!-- Node14 -->
<g id="node14" class="node">
<title>Node14</title>
<g id="a_node14"><a xlink:title=" ">
<polygon fill="white" stroke="#bfbfbf" points="779.94,-0.5 779.94,-32.5 890.4,-32.5 890.4,-0.5 779.94,-0.5"/>
<text text-anchor="start" x="787.94" y="-19.5" font-family="Helvetica,sans-Serif" font-size="10.00">fisch/vx/word_access</text>
<text text-anchor="middle" x="835.17" y="-7.5" font-family="Helvetica,sans-Serif" font-size="10.00">_type.h</text>
</a>
</g>
</g>
<!-- Node12&#45;&gt;Node14 -->
<g id="edge16" class="edge">
<title>Node12&#45;&gt;Node14</title>
<path fill="none" stroke="midnightblue" d="M685.5,-75.46C711.35,-65.45 753.76,-49.03 786.85,-36.21"/>
<polygon fill="midnightblue" stroke="midnightblue" points="788.29,-39.41 796.35,-32.53 785.76,-32.88 788.29,-39.41"/>
</g>
<!-- Node15 -->
<g id="node15" class="node">
<title>Node15</title>
<g id="a_node15"><a xlink:title=" ">
<polygon fill="white" stroke="#bfbfbf" points="908.11,-6.5 908.11,-26.5 970.23,-26.5 970.23,-6.5 908.11,-6.5"/>
<text text-anchor="middle" x="939.17" y="-13.5" font-family="Helvetica,sans-Serif" font-size="10.00">type_traits</text>
</a>
</g>
</g>
<!-- Node12&#45;&gt;Node15 -->
<g id="edge20" class="edge">
<title>Node12&#45;&gt;Node15</title>
<path fill="none" stroke="midnightblue" d="M706.37,-77.02C754.37,-68.42 833.03,-52.87 899.17,-33 901.98,-32.16 904.87,-31.21 907.75,-30.2"/>
<polygon fill="midnightblue" stroke="midnightblue" points="909.2,-33.39 917.38,-26.65 906.78,-26.83 909.2,-33.39"/>
</g>
<!-- Node16 -->
<g id="node16" class="node">
<title>Node16</title>
<g id="a_node16"><a xlink:title=" ">
<polygon fill="white" stroke="#bfbfbf" points="987.77,-0.5 987.77,-32.5 1086.57,-32.5 1086.57,-0.5 987.77,-0.5"/>
<text text-anchor="start" x="995.77" y="-19.5" font-family="Helvetica,sans-Serif" font-size="10.00">boost/utility/enable</text>
<text text-anchor="middle" x="1037.17" y="-7.5" font-family="Helvetica,sans-Serif" font-size="10.00">_if.hpp</text>
</a>
</g>
</g>
<!-- Node12&#45;&gt;Node16 -->
<g id="edge21" class="edge">
<title>Node12&#45;&gt;Node16</title>
<path fill="none" stroke="midnightblue" d="M706.01,-78.79C765.5,-70.74 875.26,-54.77 977.69,-33.21"/>
<polygon fill="midnightblue" stroke="midnightblue" points="978.52,-36.61 987.57,-31.1 977.06,-29.76 978.52,-36.61"/>
</g>
<!-- Node17 -->
<g id="node17" class="node">
<title>Node17</title>
<g id="a_node17"><a xlink:title=" ">
<polygon fill="white" stroke="#bfbfbf" points="441.82,-6.5 441.82,-26.5 534.51,-26.5 534.51,-6.5 441.82,-6.5"/>
<text text-anchor="middle" x="488.17" y="-13.5" font-family="Helvetica,sans-Serif" font-size="10.00">boost/variant.hpp</text>
</a>
</g>
</g>
<!-- Node12&#45;&gt;Node17 -->
<g id="edge22" class="edge">
<title>Node12&#45;&gt;Node17</title>
<path fill="none" stroke="midnightblue" d="M638.7,-75.46C608.48,-63.83 555.75,-43.52 521.41,-30.3"/>
<polygon fill="midnightblue" stroke="midnightblue" points="522.41,-26.93 511.82,-26.61 519.89,-33.47 522.41,-26.93"/>
</g>
<!-- Node18 -->
<g id="node18" class="node">
<title>Node18</title>
<g id="a_node18"><a xlink:title=" ">
<polygon fill="white" stroke="#bfbfbf" points="552.21,-6.5 552.21,-26.5 662.12,-26.5 662.12,-6.5 552.21,-6.5"/>
<text text-anchor="middle" x="607.17" y="-13.5" font-family="Helvetica,sans-Serif" font-size="10.00">fisch/vx/container.def</text>
</a>
</g>
</g>
<!-- Node12&#45;&gt;Node18 -->
<g id="edge23" class="edge">
<title>Node12&#45;&gt;Node18</title>
<path fill="none" stroke="midnightblue" d="M654.75,-75.46C646.19,-65.03 631.91,-47.64 621.23,-34.63"/>
<polygon fill="midnightblue" stroke="midnightblue" points="623.87,-32.33 614.82,-26.82 618.46,-36.77 623.87,-32.33"/>
</g>
</g>
</svg>
