<?xml version="1.0" encoding="UTF-8" standalone="no"?>
<!DOCTYPE svg PUBLIC "-//W3C//DTD SVG 1.1//EN"
 "http://www.w3.org/Graphics/SVG/1.1/DTD/svg11.dtd">
<!-- Generated by graphviz version 2.46.0 (0)
 -->
<!-- Title: /jenkins/jenlib_workspaces_f9/bld_nightly&#45;haldls.YmxkX25pZ2h0bHktaGFsZGxzIzEzNzk.x/haldls/include/haldls/vx/v3/event.h Pages: 1 -->
<svg width="2191pt" height="398pt"
 viewBox="0.00 0.00 2191.06 398.00" xmlns="http://www.w3.org/2000/svg" xmlns:xlink="http://www.w3.org/1999/xlink">
<g id="graph0" class="graph" transform="scale(1 1) rotate(0) translate(4 394)">
<title>/jenkins/jenlib_workspaces_f9/bld_nightly&#45;haldls.YmxkX25pZ2h0bHktaGFsZGxzIzEzNzk.x/haldls/include/haldls/vx/v3/event.h</title>
<polygon fill="white" stroke="transparent" points="-4,4 -4,-394 2187.06,-394 2187.06,4 -4,4"/>
<!-- Node1 -->
<g id="node1" class="node">
<title>Node1</title>
<g id="a_node1"><a xlink:title=" ">
<polygon fill="#bfbfbf" stroke="black" points="1620.55,-333.5 1620.55,-389.5 1801.57,-389.5 1801.57,-333.5 1620.55,-333.5"/>
<text text-anchor="start" x="1628.55" y="-376.5" font-family="Helvetica,sans-Serif" font-size="10.00">/jenkins/jenlib_workspaces</text>
<text text-anchor="start" x="1628.55" y="-364.5" font-family="Helvetica,sans-Serif" font-size="10.00">_f9/bld_nightly&#45;haldls.YmxkX25p</text>
<text text-anchor="start" x="1628.55" y="-352.5" font-family="Helvetica,sans-Serif" font-size="10.00">Z2h0bHktaGFsZGxzIzEzNzk.x/haldls</text>
<text text-anchor="middle" x="1711.06" y="-340.5" font-family="Helvetica,sans-Serif" font-size="10.00">/include/haldls/vx/v3/event.h</text>
</a>
</g>
</g>
<!-- Node2 -->
<g id="node2" class="node">
<title>Node2</title>
<g id="a_node2"><a xlink:href="event_8h.html" target="_top" xlink:title=" ">
<polygon fill="white" stroke="black" points="1197.83,-276.5 1197.83,-296.5 1288.29,-296.5 1288.29,-276.5 1197.83,-276.5"/>
<text text-anchor="middle" x="1243.06" y="-283.5" font-family="Helvetica,sans-Serif" font-size="10.00">haldls/vx/event.h</text>
</a>
</g>
</g>
<!-- Node1&#45;&gt;Node2 -->
<g id="edge1" class="edge">
<title>Node1&#45;&gt;Node2</title>
<path fill="none" stroke="midnightblue" d="M1620.55,-346.38C1525.31,-331.53 1378.43,-308.62 1298.88,-296.21"/>
<polygon fill="midnightblue" stroke="midnightblue" points="1299,-292.68 1288.58,-294.6 1297.92,-299.6 1299,-292.68"/>
</g>
<!-- Node14 -->
<g id="node14" class="node">
<title>Node14</title>
<g id="a_node14"><a xlink:href="genpybind_8h.html" target="_top" xlink:title=" ">
<polygon fill="white" stroke="black" points="2012.99,-6.5 2012.99,-26.5 2125.13,-26.5 2125.13,-6.5 2012.99,-6.5"/>
<text text-anchor="middle" x="2069.06" y="-13.5" font-family="Helvetica,sans-Serif" font-size="10.00">haldls/vx/genpybind.h</text>
</a>
</g>
</g>
<!-- Node1&#45;&gt;Node14 -->
<g id="edge71" class="edge">
<title>Node1&#45;&gt;Node14</title>
<path fill="none" stroke="midnightblue" d="M1801.79,-352.92C1938.89,-338.94 2183.06,-303.01 2183.06,-224.5 2183.06,-224.5 2183.06,-224.5 2183.06,-153.5 2183.06,-98.59 2127.79,-54.21 2094.22,-32.32"/>
<polygon fill="midnightblue" stroke="midnightblue" points="2095.72,-29.13 2085.39,-26.75 2091.98,-35.05 2095.72,-29.13"/>
</g>
<!-- Node3 -->
<g id="node3" class="node">
<title>Node3</title>
<g id="a_node3"><a xlink:title=" ">
<polygon fill="white" stroke="#bfbfbf" points="1051.6,-213.5 1051.6,-233.5 1136.51,-233.5 1136.51,-213.5 1051.6,-213.5"/>
<text text-anchor="middle" x="1094.06" y="-220.5" font-family="Helvetica,sans-Serif" font-size="10.00">fisch/vx/event.h</text>
</a>
</g>
</g>
<!-- Node2&#45;&gt;Node3 -->
<g id="edge2" class="edge">
<title>Node2&#45;&gt;Node3</title>
<path fill="none" stroke="midnightblue" d="M1221.07,-276.5C1195.87,-266.18 1154.36,-249.19 1125.69,-237.45"/>
<polygon fill="midnightblue" stroke="midnightblue" points="1126.72,-234.09 1116.13,-233.54 1124.06,-240.57 1126.72,-234.09"/>
</g>
<!-- Node4 -->
<g id="node4" class="node">
<title>Node4</title>
<g id="a_node4"><a xlink:title=" ">
<polygon fill="white" stroke="#bfbfbf" points="1219.16,-75.5 1219.16,-95.5 1352.96,-95.5 1352.96,-75.5 1219.16,-75.5"/>
<text text-anchor="middle" x="1286.06" y="-82.5" font-family="Helvetica,sans-Serif" font-size="10.00">halco/common/geometry.h</text>
</a>
</g>
</g>
<!-- Node2&#45;&gt;Node4 -->
<g id="edge3" class="edge">
<title>Node2&#45;&gt;Node4</title>
<path fill="none" stroke="midnightblue" d="M1222.87,-276.36C1208.87,-268.81 1191.32,-256.63 1183.06,-240 1176.53,-226.86 1177.98,-220.76 1183.06,-207 1199.59,-162.23 1240.98,-122.83 1265.97,-102.06"/>
<polygon fill="midnightblue" stroke="midnightblue" points="1268.19,-104.76 1273.76,-95.75 1263.78,-99.32 1268.19,-104.76"/>
</g>
<!-- Node5 -->
<g id="node5" class="node">
<title>Node5</title>
<g id="a_node5"><a xlink:title=" ">
<polygon fill="white" stroke="#bfbfbf" points="1192.55,-207.5 1192.55,-239.5 1293.57,-239.5 1293.57,-207.5 1192.55,-207.5"/>
<text text-anchor="start" x="1200.55" y="-226.5" font-family="Helvetica,sans-Serif" font-size="10.00">halco/hicann&#45;dls/vx</text>
<text text-anchor="middle" x="1243.06" y="-214.5" font-family="Helvetica,sans-Serif" font-size="10.00">/event.h</text>
</a>
</g>
</g>
<!-- Node2&#45;&gt;Node5 -->
<g id="edge4" class="edge">
<title>Node2&#45;&gt;Node5</title>
<path fill="none" stroke="midnightblue" d="M1243.06,-276.5C1243.06,-269.47 1243.06,-259.34 1243.06,-249.88"/>
<polygon fill="midnightblue" stroke="midnightblue" points="1246.56,-249.69 1243.06,-239.69 1239.56,-249.69 1246.56,-249.69"/>
</g>
<!-- Node6 -->
<g id="node6" class="node">
<title>Node6</title>
<g id="a_node6"><a xlink:title=" ">
<polygon fill="white" stroke="#bfbfbf" points="1311.55,-207.5 1311.55,-239.5 1412.57,-239.5 1412.57,-207.5 1311.55,-207.5"/>
<text text-anchor="start" x="1319.55" y="-226.5" font-family="Helvetica,sans-Serif" font-size="10.00">halco/hicann&#45;dls/vx</text>
<text text-anchor="middle" x="1362.06" y="-214.5" font-family="Helvetica,sans-Serif" font-size="10.00">/highspeed_link.h</text>
</a>
</g>
</g>
<!-- Node2&#45;&gt;Node6 -->
<g id="edge5" class="edge">
<title>Node2&#45;&gt;Node6</title>
<path fill="none" stroke="midnightblue" d="M1260.62,-276.5C1277.06,-268.07 1302.2,-255.18 1323.34,-244.35"/>
<polygon fill="midnightblue" stroke="midnightblue" points="1325.12,-247.37 1332.42,-239.69 1321.93,-241.14 1325.12,-247.37"/>
</g>
<!-- Node7 -->
<g id="node7" class="node">
<title>Node7</title>
<g id="a_node7"><a xlink:title=" ">
<polygon fill="white" stroke="#bfbfbf" points="1430.55,-207.5 1430.55,-239.5 1531.57,-239.5 1531.57,-207.5 1430.55,-207.5"/>
<text text-anchor="start" x="1438.55" y="-226.5" font-family="Helvetica,sans-Serif" font-size="10.00">halco/hicann&#45;dls/vx</text>
<text text-anchor="middle" x="1481.06" y="-214.5" font-family="Helvetica,sans-Serif" font-size="10.00">/readout.h</text>
</a>
</g>
</g>
<!-- Node2&#45;&gt;Node7 -->
<g id="edge6" class="edge">
<title>Node2&#45;&gt;Node7</title>
<path fill="none" stroke="midnightblue" d="M1279.08,-276.43C1313.19,-267.83 1366.12,-254.42 1420.69,-240.34"/>
<polygon fill="midnightblue" stroke="midnightblue" points="1421.73,-243.69 1430.54,-237.8 1419.98,-236.91 1421.73,-243.69"/>
</g>
<!-- Node8 -->
<g id="node8" class="node">
<title>Node8</title>
<g id="a_node8"><a xlink:href="cerealization_8h.html" target="_top" xlink:title=" ">
<polygon fill="white" stroke="black" points="889.38,-75.5 889.38,-95.5 998.73,-95.5 998.73,-75.5 889.38,-75.5"/>
<text text-anchor="middle" x="944.06" y="-82.5" font-family="Helvetica,sans-Serif" font-size="10.00">haldls/cerealization.h</text>
</a>
</g>
</g>
<!-- Node2&#45;&gt;Node8 -->
<g id="edge7" class="edge">
<title>Node2&#45;&gt;Node8</title>
<path fill="none" stroke="midnightblue" d="M1197.77,-282.09C1122.31,-275.89 974.48,-261.42 927.06,-240 874.3,-216.17 816.12,-187.55 846.06,-138 857.42,-119.2 878.17,-106.92 897.66,-99.09"/>
<polygon fill="midnightblue" stroke="midnightblue" points="898.93,-102.35 907.08,-95.59 896.49,-95.79 898.93,-102.35"/>
</g>
<!-- Node10 -->
<g id="node10" class="node">
<title>Node10</title>
<g id="a_node10"><a xlink:title=" ">
<polygon fill="white" stroke="#bfbfbf" points="765.56,-6.5 765.56,-26.5 846.56,-26.5 846.56,-6.5 765.56,-6.5"/>
<text text-anchor="middle" x="806.06" y="-13.5" font-family="Helvetica,sans-Serif" font-size="10.00">hate/visibility.h</text>
</a>
</g>
</g>
<!-- Node2&#45;&gt;Node10 -->
<g id="edge70" class="edge">
<title>Node2&#45;&gt;Node10</title>
<path fill="none" stroke="midnightblue" d="M1197.76,-283.62C1067.34,-277.25 694.86,-252.2 610.06,-171 576.56,-138.93 558.88,-105.05 588.06,-69 636.38,-9.31 682.81,-52.6 757.06,-33 760.97,-31.97 765.04,-30.81 769.08,-29.61"/>
<polygon fill="midnightblue" stroke="midnightblue" points="770.45,-32.86 778.98,-26.58 768.39,-26.16 770.45,-32.86"/>
</g>
<!-- Node2&#45;&gt;Node14 -->
<g id="edge13" class="edge">
<title>Node2&#45;&gt;Node14</title>
<path fill="none" stroke="midnightblue" d="M1288.31,-282.82C1457.8,-272.36 2048.16,-231.76 2104.06,-171 2134.79,-137.6 2123.77,-111.94 2109.06,-69 2104.52,-55.75 2095.02,-43.27 2086.42,-33.92"/>
<polygon fill="midnightblue" stroke="midnightblue" points="2088.73,-31.28 2079.24,-26.57 2083.72,-36.17 2088.73,-31.28"/>
</g>
<!-- Node15 -->
<g id="node15" class="node">
<title>Node15</title>
<g id="a_node15"><a xlink:href="neuron_8h.html" target="_top" xlink:title=" ">
<polygon fill="white" stroke="black" points="936.49,-213.5 936.49,-233.5 1033.63,-233.5 1033.63,-213.5 936.49,-213.5"/>
<text text-anchor="middle" x="985.06" y="-220.5" font-family="Helvetica,sans-Serif" font-size="10.00">haldls/vx/neuron.h</text>
</a>
</g>
</g>
<!-- Node2&#45;&gt;Node15 -->
<g id="edge15" class="edge">
<title>Node2&#45;&gt;Node15</title>
<path fill="none" stroke="midnightblue" d="M1201.2,-276.45C1160.66,-267.58 1097.5,-253.46 1043.06,-240 1038.13,-238.78 1032.97,-237.46 1027.85,-236.13"/>
<polygon fill="midnightblue" stroke="midnightblue" points="1028.69,-232.73 1018.13,-233.57 1026.91,-239.5 1028.69,-232.73"/>
</g>
<!-- Node23 -->
<g id="node23" class="node">
<title>Node23</title>
<g id="a_node23"><a xlink:href="traits_8h.html" target="_top" xlink:title=" ">
<polygon fill="white" stroke="black" points="423.22,-75.5 423.22,-95.5 510.9,-95.5 510.9,-75.5 423.22,-75.5"/>
<text text-anchor="middle" x="467.06" y="-82.5" font-family="Helvetica,sans-Serif" font-size="10.00">haldls/vx/traits.h</text>
</a>
</g>
</g>
<!-- Node2&#45;&gt;Node23 -->
<g id="edge69" class="edge">
<title>Node2&#45;&gt;Node23</title>
<path fill="none" stroke="midnightblue" d="M1197.81,-284.67C1049.65,-281.68 585.05,-269.97 525.06,-240 488.96,-221.97 480.04,-208.85 466.06,-171 458.22,-149.78 460.19,-123.46 462.99,-105.88"/>
<polygon fill="midnightblue" stroke="midnightblue" points="466.49,-106.21 464.86,-95.74 459.61,-104.94 466.49,-106.21"/>
</g>
<!-- Node31 -->
<g id="node31" class="node">
<title>Node31</title>
<g id="a_node31"><a xlink:href="padi_8h.html" target="_top" xlink:title=" ">
<polygon fill="white" stroke="black" points="1549.61,-213.5 1549.61,-233.5 1634.51,-233.5 1634.51,-213.5 1549.61,-213.5"/>
<text text-anchor="middle" x="1592.06" y="-220.5" font-family="Helvetica,sans-Serif" font-size="10.00">haldls/vx/padi.h</text>
</a>
</g>
</g>
<!-- Node2&#45;&gt;Node31 -->
<g id="edge44" class="edge">
<title>Node2&#45;&gt;Node31</title>
<path fill="none" stroke="midnightblue" d="M1288.37,-280.63C1347.11,-273.86 1452.51,-260.11 1541.06,-240 1545.72,-238.94 1550.58,-237.68 1555.36,-236.34"/>
<polygon fill="midnightblue" stroke="midnightblue" points="1556.38,-239.69 1564.99,-233.52 1554.41,-232.97 1556.38,-239.69"/>
</g>
<!-- Node33 -->
<g id="node33" class="node">
<title>Node33</title>
<g id="a_node33"><a xlink:href="synapse_8h.html" target="_top" xlink:title=" ">
<polygon fill="white" stroke="black" points="1605.44,-144.5 1605.44,-164.5 1708.68,-164.5 1708.68,-144.5 1605.44,-144.5"/>
<text text-anchor="middle" x="1657.06" y="-151.5" font-family="Helvetica,sans-Serif" font-size="10.00">haldls/vx/synapse.h</text>
</a>
</g>
</g>
<!-- Node2&#45;&gt;Node33 -->
<g id="edge68" class="edge">
<title>Node2&#45;&gt;Node33</title>
<path fill="none" stroke="midnightblue" d="M1288.47,-283.38C1387.84,-278.3 1617.73,-264.07 1643.06,-240 1660.45,-223.47 1661.48,-194.22 1659.87,-174.84"/>
<polygon fill="midnightblue" stroke="midnightblue" points="1663.32,-174.28 1658.71,-164.74 1656.37,-175.07 1663.32,-174.28"/>
</g>
<!-- Node9 -->
<g id="node9" class="node">
<title>Node9</title>
<g id="a_node9"><a xlink:title=" ">
<polygon fill="white" stroke="#bfbfbf" points="664.44,-6.5 664.44,-26.5 747.68,-26.5 747.68,-6.5 664.44,-6.5"/>
<text text-anchor="middle" x="706.06" y="-13.5" font-family="Helvetica,sans-Serif" font-size="10.00">hate/type_list.h</text>
</a>
</g>
</g>
<!-- Node8&#45;&gt;Node9 -->
<g id="edge8" class="edge">
<title>Node8&#45;&gt;Node9</title>
<path fill="none" stroke="midnightblue" d="M909.66,-75.44C871.89,-65.41 809.5,-48.6 756.06,-33 752.24,-31.89 748.27,-30.7 744.31,-29.5"/>
<polygon fill="midnightblue" stroke="midnightblue" points="745.15,-26.1 734.57,-26.52 743.1,-32.79 745.15,-26.1"/>
</g>
<!-- Node8&#45;&gt;Node10 -->
<g id="edge9" class="edge">
<title>Node8&#45;&gt;Node10</title>
<path fill="none" stroke="midnightblue" d="M925.45,-75.46C901.89,-64.03 861.09,-44.22 833.84,-30.99"/>
<polygon fill="midnightblue" stroke="midnightblue" points="835.34,-27.83 824.82,-26.61 832.28,-34.12 835.34,-27.83"/>
</g>
<!-- Node11 -->
<g id="node11" class="node">
<title>Node11</title>
<g id="a_node11"><a xlink:title=" ">
<polygon fill="white" stroke="#bfbfbf" points="921.61,-6.5 921.61,-26.5 966.51,-26.5 966.51,-6.5 921.61,-6.5"/>
<text text-anchor="middle" x="944.06" y="-13.5" font-family="Helvetica,sans-Serif" font-size="10.00">cstdint</text>
</a>
</g>
</g>
<!-- Node8&#45;&gt;Node11 -->
<g id="edge10" class="edge">
<title>Node8&#45;&gt;Node11</title>
<path fill="none" stroke="midnightblue" d="M944.06,-75.46C944.06,-65.63 944.06,-49.61 944.06,-36.9"/>
<polygon fill="midnightblue" stroke="midnightblue" points="947.56,-36.82 944.06,-26.82 940.56,-36.82 947.56,-36.82"/>
</g>
<!-- Node12 -->
<g id="node12" class="node">
<title>Node12</title>
<g id="a_node12"><a xlink:title=" ">
<polygon fill="white" stroke="#bfbfbf" points="1229.89,-6.5 1229.89,-26.5 1274.23,-26.5 1274.23,-6.5 1229.89,-6.5"/>
<text text-anchor="middle" x="1252.06" y="-13.5" font-family="Helvetica,sans-Serif" font-size="10.00">iosfwd</text>
</a>
</g>
</g>
<!-- Node8&#45;&gt;Node12 -->
<g id="edge11" class="edge">
<title>Node8&#45;&gt;Node12</title>
<path fill="none" stroke="midnightblue" d="M984.18,-75.43C993.65,-73.3 1003.71,-71.06 1013.06,-69 1086.9,-52.75 1173.69,-34.18 1219.66,-24.39"/>
<polygon fill="midnightblue" stroke="midnightblue" points="1220.59,-27.77 1229.64,-22.26 1219.13,-20.92 1220.59,-27.77"/>
</g>
<!-- Node13 -->
<g id="node13" class="node">
<title>Node13</title>
<g id="a_node13"><a xlink:title=" ">
<polygon fill="white" stroke="#bfbfbf" points="984.94,-6.5 984.94,-26.5 1083.18,-26.5 1083.18,-6.5 984.94,-6.5"/>
<text text-anchor="middle" x="1034.06" y="-13.5" font-family="Helvetica,sans-Serif" font-size="10.00">cereal/macros.hpp</text>
</a>
</g>
</g>
<!-- Node8&#45;&gt;Node13 -->
<g id="edge12" class="edge">
<title>Node8&#45;&gt;Node13</title>
<path fill="none" stroke="midnightblue" d="M956.2,-75.46C970.82,-64.57 995.64,-46.1 1013.32,-32.94"/>
<polygon fill="midnightblue" stroke="midnightblue" points="1015.89,-35.39 1021.83,-26.61 1011.71,-29.77 1015.89,-35.39"/>
</g>
<!-- Node14&#45;&gt;Node14 -->
<g id="edge14" class="edge">
<title>Node14&#45;&gt;Node14</title>
<path fill="none" stroke="midnightblue" d="M2092.95,-26.54C2116.78,-32.26 2143.13,-28.92 2143.13,-16.5 2143.13,-5.78 2123.49,-1.82 2102.79,-4.62"/>
<polygon fill="midnightblue" stroke="midnightblue" points="2102.14,-1.18 2092.95,-6.46 2103.43,-8.06 2102.14,-1.18"/>
</g>
<!-- Node15&#45;&gt;Node4 -->
<g id="edge18" class="edge">
<title>Node15&#45;&gt;Node4</title>
<path fill="none" stroke="midnightblue" d="M1005.28,-213.37C1057.22,-189.9 1195.53,-127.4 1256.5,-99.86"/>
<polygon fill="midnightblue" stroke="midnightblue" points="1258.26,-102.9 1265.93,-95.59 1255.38,-96.52 1258.26,-102.9"/>
</g>
<!-- Node15&#45;&gt;Node8 -->
<g id="edge42" class="edge">
<title>Node15&#45;&gt;Node8</title>
<path fill="none" stroke="midnightblue" d="M983.59,-213.48C980.92,-197.86 974.75,-164.9 966.06,-138 962.46,-126.86 957.38,-114.8 953,-105.16"/>
<polygon fill="midnightblue" stroke="midnightblue" points="956.04,-103.38 948.64,-95.79 949.69,-106.34 956.04,-103.38"/>
</g>
<!-- Node15&#45;&gt;Node10 -->
<g id="edge41" class="edge">
<title>Node15&#45;&gt;Node10</title>
<path fill="none" stroke="midnightblue" d="M936.23,-218.97C856.7,-212.54 703.3,-197.13 656.06,-171 620.5,-151.33 610.29,-140.06 596.06,-102 568.79,-29.08 681.89,-53.25 757.06,-33 760.97,-31.95 765.03,-30.78 769.07,-29.57"/>
<polygon fill="midnightblue" stroke="midnightblue" points="770.44,-32.81 778.97,-26.53 768.38,-26.12 770.44,-32.81"/>
</g>
<!-- Node15&#45;&gt;Node12 -->
<g id="edge17" class="edge">
<title>Node15&#45;&gt;Node12</title>
<path fill="none" stroke="midnightblue" d="M988.36,-213.3C998.36,-186.73 1030.95,-109.18 1084.06,-69 1124.58,-38.34 1183.49,-25.78 1219.71,-20.74"/>
<polygon fill="midnightblue" stroke="midnightblue" points="1220.25,-24.2 1229.73,-19.46 1219.36,-17.25 1220.25,-24.2"/>
</g>
<!-- Node15&#45;&gt;Node14 -->
<g id="edge21" class="edge">
<title>Node15&#45;&gt;Node14</title>
<path fill="none" stroke="midnightblue" d="M1014.01,-213.47C1023.21,-210.95 1033.48,-208.5 1043.06,-207 1366.63,-156.44 1455.19,-219.65 1779.06,-171 1901.97,-152.54 1963.42,-191.11 2050.06,-102 2066.89,-84.69 2070.08,-55.85 2070.12,-36.75"/>
<polygon fill="midnightblue" stroke="midnightblue" points="2073.62,-36.46 2069.85,-26.55 2066.62,-36.64 2073.62,-36.46"/>
</g>
<!-- Node16 -->
<g id="node16" class="node">
<title>Node16</title>
<g id="a_node16"><a xlink:title=" ">
<polygon fill="white" stroke="#bfbfbf" points="2002.67,-75.5 2002.67,-95.5 2041.45,-95.5 2041.45,-75.5 2002.67,-75.5"/>
<text text-anchor="middle" x="2022.06" y="-82.5" font-family="Helvetica,sans-Serif" font-size="10.00">array</text>
</a>
</g>
</g>
<!-- Node15&#45;&gt;Node16 -->
<g id="edge16" class="edge">
<title>Node15&#45;&gt;Node16</title>
<path fill="none" stroke="midnightblue" d="M1014.01,-213.5C1023.21,-210.98 1033.49,-208.52 1043.06,-207 1339.78,-159.96 1423.26,-228.86 1718.06,-171 1761.92,-162.39 1769.93,-149.72 1813.06,-138 1892.21,-116.49 1917.04,-130.2 1994.06,-102 1995.49,-101.47 1996.94,-100.88 1998.39,-100.25"/>
<polygon fill="midnightblue" stroke="midnightblue" points="2000.28,-103.21 2007.64,-95.59 1997.14,-96.96 2000.28,-103.21"/>
</g>
<!-- Node17 -->
<g id="node17" class="node">
<title>Node17</title>
<g id="a_node17"><a xlink:title=" ">
<polygon fill="white" stroke="#bfbfbf" points="1092.94,-69.5 1092.94,-101.5 1201.18,-101.5 1201.18,-69.5 1092.94,-69.5"/>
<text text-anchor="start" x="1100.94" y="-88.5" font-family="Helvetica,sans-Serif" font-size="10.00">halco/common/typed</text>
<text text-anchor="middle" x="1147.06" y="-76.5" font-family="Helvetica,sans-Serif" font-size="10.00">_array.h</text>
</a>
</g>
</g>
<!-- Node15&#45;&gt;Node17 -->
<g id="edge19" class="edge">
<title>Node15&#45;&gt;Node17</title>
<path fill="none" stroke="midnightblue" d="M995.94,-213.37C1021.4,-191.99 1085.41,-138.26 1121.42,-108.02"/>
<polygon fill="midnightblue" stroke="midnightblue" points="1123.67,-110.7 1129.08,-101.59 1119.17,-105.34 1123.67,-110.7"/>
</g>
<!-- Node18 -->
<g id="node18" class="node">
<title>Node18</title>
<g id="a_node18"><a xlink:title=" ">
<polygon fill="white" stroke="#bfbfbf" points="855.55,-138.5 855.55,-170.5 956.57,-170.5 956.57,-138.5 855.55,-138.5"/>
<text text-anchor="start" x="863.55" y="-157.5" font-family="Helvetica,sans-Serif" font-size="10.00">halco/hicann&#45;dls/vx</text>
<text text-anchor="middle" x="906.06" y="-145.5" font-family="Helvetica,sans-Serif" font-size="10.00">/neuron.h</text>
</a>
</g>
</g>
<!-- Node15&#45;&gt;Node18 -->
<g id="edge20" class="edge">
<title>Node15&#45;&gt;Node18</title>
<path fill="none" stroke="midnightblue" d="M974.4,-213.46C963.46,-204.18 946.02,-189.39 931.49,-177.07"/>
<polygon fill="midnightblue" stroke="midnightblue" points="933.68,-174.33 923.79,-170.53 929.15,-179.67 933.68,-174.33"/>
</g>
<!-- Node19 -->
<g id="node19" class="node">
<title>Node19</title>
<g id="a_node19"><a xlink:href="sram__controller_8h.html" target="_top" xlink:title=" ">
<polygon fill="white" stroke="black" points="664.61,-144.5 664.61,-164.5 799.51,-164.5 799.51,-144.5 664.61,-144.5"/>
<text text-anchor="middle" x="732.06" y="-151.5" font-family="Helvetica,sans-Serif" font-size="10.00">haldls/vx/sram_controller.h</text>
</a>
</g>
</g>
<!-- Node15&#45;&gt;Node19 -->
<g id="edge22" class="edge">
<title>Node15&#45;&gt;Node19</title>
<path fill="none" stroke="midnightblue" d="M950.94,-213.46C905.76,-201.5 826.03,-180.39 776.28,-167.21"/>
<polygon fill="midnightblue" stroke="midnightblue" points="777.01,-163.78 766.45,-164.61 775.22,-170.55 777.01,-163.78"/>
</g>
<!-- Node15&#45;&gt;Node23 -->
<g id="edge40" class="edge">
<title>Node15&#45;&gt;Node23</title>
<path fill="none" stroke="midnightblue" d="M936.32,-220.63C817.55,-215.62 520.41,-200.29 487.06,-171 468.69,-154.87 465.57,-125.26 465.75,-105.73"/>
<polygon fill="midnightblue" stroke="midnightblue" points="469.25,-105.7 466.14,-95.57 462.26,-105.43 469.25,-105.7"/>
</g>
<!-- Node30 -->
<g id="node30" class="node">
<title>Node30</title>
<g id="a_node30"><a xlink:title=" ">
<polygon fill="white" stroke="#bfbfbf" points="1409.44,-75.5 1409.44,-95.5 1512.68,-95.5 1512.68,-75.5 1409.44,-75.5"/>
<text text-anchor="middle" x="1461.06" y="-82.5" font-family="Helvetica,sans-Serif" font-size="10.00">hxcomm/vx/target.h</text>
</a>
</g>
</g>
<!-- Node15&#45;&gt;Node30 -->
<g id="edge43" class="edge">
<title>Node15&#45;&gt;Node30</title>
<path fill="none" stroke="midnightblue" d="M1016.66,-213.47C1100.1,-189.63 1326.32,-125 1419.79,-98.29"/>
<polygon fill="midnightblue" stroke="midnightblue" points="1420.82,-101.64 1429.47,-95.53 1418.89,-94.91 1420.82,-101.64"/>
</g>
<!-- Node19&#45;&gt;Node8 -->
<g id="edge23" class="edge">
<title>Node19&#45;&gt;Node8</title>
<path fill="none" stroke="midnightblue" d="M760.65,-144.46C798.11,-132.63 863.93,-111.83 905.69,-98.63"/>
<polygon fill="midnightblue" stroke="midnightblue" points="906.76,-101.96 915.24,-95.61 904.65,-95.28 906.76,-101.96"/>
</g>
<!-- Node19&#45;&gt;Node10 -->
<g id="edge39" class="edge">
<title>Node19&#45;&gt;Node10</title>
<path fill="none" stroke="midnightblue" d="M727.31,-144.43C719.51,-128.18 706.18,-93.49 720.06,-69 730.2,-51.12 749.29,-38.77 766.91,-30.66"/>
<polygon fill="midnightblue" stroke="midnightblue" points="768.66,-33.72 776.49,-26.58 765.92,-27.28 768.66,-33.72"/>
</g>
<!-- Node19&#45;&gt;Node14 -->
<g id="edge27" class="edge">
<title>Node19&#45;&gt;Node14</title>
<path fill="none" stroke="midnightblue" d="M788.76,-144.47C857.16,-133.3 967.98,-114.27 1008.06,-102 1043.27,-91.22 1048.21,-77.43 1084.06,-69 1259.3,-27.79 1811.12,-19.53 2002.74,-17.9"/>
<polygon fill="midnightblue" stroke="midnightblue" points="2002.97,-21.4 2012.94,-17.81 2002.91,-14.4 2002.97,-21.4"/>
</g>
<!-- Node20 -->
<g id="node20" class="node">
<title>Node20</title>
<g id="a_node20"><a xlink:href="common_8h.html" target="_top" xlink:title=" ">
<polygon fill="white" stroke="black" points="728.89,-75.5 728.89,-95.5 833.23,-95.5 833.23,-75.5 728.89,-75.5"/>
<text text-anchor="middle" x="781.06" y="-82.5" font-family="Helvetica,sans-Serif" font-size="10.00">haldls/vx/common.h</text>
</a>
</g>
</g>
<!-- Node19&#45;&gt;Node20 -->
<g id="edge24" class="edge">
<title>Node19&#45;&gt;Node20</title>
<path fill="none" stroke="midnightblue" d="M738.67,-144.46C746.22,-134.13 758.77,-116.97 768.26,-104"/>
<polygon fill="midnightblue" stroke="midnightblue" points="771.16,-105.96 774.24,-95.82 765.51,-101.83 771.16,-105.96"/>
</g>
<!-- Node19&#45;&gt;Node23 -->
<g id="edge28" class="edge">
<title>Node19&#45;&gt;Node23</title>
<path fill="none" stroke="midnightblue" d="M696.32,-144.46C648.9,-132.48 565.14,-111.3 513.05,-98.13"/>
<polygon fill="midnightblue" stroke="midnightblue" points="513.63,-94.66 503.08,-95.61 511.92,-101.45 513.63,-94.66"/>
</g>
<!-- Node29 -->
<g id="node29" class="node">
<title>Node29</title>
<g id="a_node29"><a xlink:title=" ">
<polygon fill="white" stroke="#bfbfbf" points="604.66,-75.5 604.66,-95.5 673.46,-95.5 673.46,-75.5 604.66,-75.5"/>
<text text-anchor="middle" x="639.06" y="-82.5" font-family="Helvetica,sans-Serif" font-size="10.00">hate/math.h</text>
</a>
</g>
</g>
<!-- Node19&#45;&gt;Node29 -->
<g id="edge38" class="edge">
<title>Node19&#45;&gt;Node29</title>
<path fill="none" stroke="midnightblue" d="M719.52,-144.46C704.26,-133.47 678.29,-114.76 659.99,-101.58"/>
<polygon fill="midnightblue" stroke="midnightblue" points="661.86,-98.61 651.7,-95.61 657.77,-104.29 661.86,-98.61"/>
</g>
<!-- Node21 -->
<g id="node21" class="node">
<title>Node21</title>
<g id="a_node21"><a xlink:title=" ">
<polygon fill="white" stroke="#bfbfbf" points="584,-6.5 584,-26.5 646.12,-26.5 646.12,-6.5 584,-6.5"/>
<text text-anchor="middle" x="615.06" y="-13.5" font-family="Helvetica,sans-Serif" font-size="10.00">type_traits</text>
</a>
</g>
</g>
<!-- Node20&#45;&gt;Node21 -->
<g id="edge25" class="edge">
<title>Node20&#45;&gt;Node21</title>
<path fill="none" stroke="midnightblue" d="M758.67,-75.46C729.96,-63.88 679.97,-43.7 647.2,-30.47"/>
<polygon fill="midnightblue" stroke="midnightblue" points="648.21,-27.1 637.62,-26.61 645.59,-33.6 648.21,-27.1"/>
</g>
<!-- Node22 -->
<g id="node22" class="node">
<title>Node22</title>
<g id="a_node22"><a xlink:title=" ">
<polygon fill="white" stroke="#bfbfbf" points="864.67,-6.5 864.67,-26.5 903.45,-26.5 903.45,-6.5 864.67,-6.5"/>
<text text-anchor="middle" x="884.06" y="-13.5" font-family="Helvetica,sans-Serif" font-size="10.00">utility</text>
</a>
</g>
</g>
<!-- Node20&#45;&gt;Node22 -->
<g id="edge26" class="edge">
<title>Node20&#45;&gt;Node22</title>
<path fill="none" stroke="midnightblue" d="M794.95,-75.46C812,-64.38 841.13,-45.42 861.43,-32.22"/>
<polygon fill="midnightblue" stroke="midnightblue" points="863.58,-34.99 870.06,-26.61 859.77,-29.13 863.58,-34.99"/>
</g>
<!-- Node23&#45;&gt;Node9 -->
<g id="edge32" class="edge">
<title>Node23&#45;&gt;Node9</title>
<path fill="none" stroke="midnightblue" d="M500.72,-75.4C546.54,-62.99 626.12,-41.36 655.06,-33 658.9,-31.89 662.9,-30.71 666.89,-29.52"/>
<polygon fill="midnightblue" stroke="midnightblue" points="668.14,-32.8 676.7,-26.57 666.12,-26.1 668.14,-32.8"/>
</g>
<!-- Node23&#45;&gt;Node10 -->
<g id="edge33" class="edge">
<title>Node23&#45;&gt;Node10</title>
<path fill="none" stroke="midnightblue" d="M498.52,-75.44C507.08,-73.15 516.39,-70.83 525.06,-69 627.16,-47.5 655.47,-56.8 757.06,-33 761.43,-31.98 765.97,-30.76 770.45,-29.46"/>
<polygon fill="midnightblue" stroke="midnightblue" points="771.52,-32.79 780.07,-26.53 769.49,-26.09 771.52,-32.79"/>
</g>
<!-- Node23&#45;&gt;Node14 -->
<g id="edge31" class="edge">
<title>Node23&#45;&gt;Node14</title>
<path fill="none" stroke="midnightblue" d="M511.15,-78.27C536.03,-74.98 567.72,-71.19 596.06,-69 875.08,-47.4 1752.65,-25.11 2002.24,-19.08"/>
<polygon fill="midnightblue" stroke="midnightblue" points="2002.69,-22.57 2012.6,-18.83 2002.52,-15.58 2002.69,-22.57"/>
</g>
<!-- Node23&#45;&gt;Node21 -->
<g id="edge34" class="edge">
<title>Node23&#45;&gt;Node21</title>
<path fill="none" stroke="midnightblue" d="M487.02,-75.46C512.4,-63.98 556.42,-44.05 585.65,-30.82"/>
<polygon fill="midnightblue" stroke="midnightblue" points="587.28,-33.92 594.94,-26.61 584.39,-27.54 587.28,-33.92"/>
</g>
<!-- Node24 -->
<g id="node24" class="node">
<title>Node24</title>
<g id="a_node24"><a xlink:title=" ">
<polygon fill="white" stroke="#bfbfbf" points="0,-6.5 0,-26.5 82.12,-26.5 82.12,-6.5 0,-6.5"/>
<text text-anchor="middle" x="41.06" y="-13.5" font-family="Helvetica,sans-Serif" font-size="10.00">fisch/vx/traits.h</text>
</a>
</g>
</g>
<!-- Node23&#45;&gt;Node24 -->
<g id="edge29" class="edge">
<title>Node23&#45;&gt;Node24</title>
<path fill="none" stroke="midnightblue" d="M422.94,-80.83C352.26,-74.42 209.57,-59.3 91.06,-33 86.55,-32 81.85,-30.78 77.23,-29.48"/>
<polygon fill="midnightblue" stroke="midnightblue" points="77.89,-26.02 67.31,-26.53 75.9,-32.73 77.89,-26.02"/>
</g>
<!-- Node25 -->
<g id="node25" class="node">
<title>Node25</title>
<g id="a_node25"><a xlink:title=" ">
<polygon fill="white" stroke="#bfbfbf" points="99.83,-0.5 99.83,-32.5 210.29,-32.5 210.29,-0.5 99.83,-0.5"/>
<text text-anchor="start" x="107.83" y="-19.5" font-family="Helvetica,sans-Serif" font-size="10.00">fisch/vx/word_access</text>
<text text-anchor="middle" x="155.06" y="-7.5" font-family="Helvetica,sans-Serif" font-size="10.00">_type.h</text>
</a>
</g>
</g>
<!-- Node23&#45;&gt;Node25 -->
<g id="edge30" class="edge">
<title>Node23&#45;&gt;Node25</title>
<path fill="none" stroke="midnightblue" d="M422.8,-75.67C375.34,-66.11 297.52,-50.18 220.26,-33.01"/>
<polygon fill="midnightblue" stroke="midnightblue" points="220.87,-29.56 210.35,-30.8 219.35,-36.39 220.87,-29.56"/>
</g>
<!-- Node26 -->
<g id="node26" class="node">
<title>Node26</title>
<g id="a_node26"><a xlink:title=" ">
<polygon fill="white" stroke="#bfbfbf" points="228.66,-0.5 228.66,-32.5 327.46,-32.5 327.46,-0.5 228.66,-0.5"/>
<text text-anchor="start" x="236.66" y="-19.5" font-family="Helvetica,sans-Serif" font-size="10.00">boost/utility/enable</text>
<text text-anchor="middle" x="278.06" y="-7.5" font-family="Helvetica,sans-Serif" font-size="10.00">_if.hpp</text>
</a>
</g>
</g>
<!-- Node23&#45;&gt;Node26 -->
<g id="edge35" class="edge">
<title>Node23&#45;&gt;Node26</title>
<path fill="none" stroke="midnightblue" d="M441.57,-75.46C413.08,-65.37 366.2,-48.74 329.92,-35.88"/>
<polygon fill="midnightblue" stroke="midnightblue" points="331.06,-32.58 320.47,-32.53 328.72,-39.17 331.06,-32.58"/>
</g>
<!-- Node27 -->
<g id="node27" class="node">
<title>Node27</title>
<g id="a_node27"><a xlink:title=" ">
<polygon fill="white" stroke="#bfbfbf" points="345.71,-6.5 345.71,-26.5 438.41,-26.5 438.41,-6.5 345.71,-6.5"/>
<text text-anchor="middle" x="392.06" y="-13.5" font-family="Helvetica,sans-Serif" font-size="10.00">boost/variant.hpp</text>
</a>
</g>
</g>
<!-- Node23&#45;&gt;Node27 -->
<g id="edge36" class="edge">
<title>Node23&#45;&gt;Node27</title>
<path fill="none" stroke="midnightblue" d="M456.94,-75.46C444.93,-64.73 424.68,-46.64 410,-33.52"/>
<polygon fill="midnightblue" stroke="midnightblue" points="412.28,-30.87 402.49,-26.82 407.62,-36.1 412.28,-30.87"/>
</g>
<!-- Node28 -->
<g id="node28" class="node">
<title>Node28</title>
<g id="a_node28"><a xlink:title=" ">
<polygon fill="white" stroke="#bfbfbf" points="456.1,-6.5 456.1,-26.5 566.02,-26.5 566.02,-6.5 456.1,-6.5"/>
<text text-anchor="middle" x="511.06" y="-13.5" font-family="Helvetica,sans-Serif" font-size="10.00">fisch/vx/container.def</text>
</a>
</g>
</g>
<!-- Node23&#45;&gt;Node28 -->
<g id="edge37" class="edge">
<title>Node23&#45;&gt;Node28</title>
<path fill="none" stroke="midnightblue" d="M472.99,-75.46C479.71,-65.23 490.83,-48.3 499.32,-35.38"/>
<polygon fill="midnightblue" stroke="midnightblue" points="502.37,-37.1 504.94,-26.82 496.52,-33.26 502.37,-37.1"/>
</g>
<!-- Node31&#45;&gt;Node4 -->
<g id="edge47" class="edge">
<title>Node31&#45;&gt;Node4</title>
<path fill="none" stroke="midnightblue" d="M1563.86,-213.43C1556.48,-211.19 1548.5,-208.9 1541.06,-207 1464.53,-187.5 1436.16,-209.23 1367.06,-171 1337.28,-154.53 1311.8,-123.44 1297.73,-103.91"/>
<polygon fill="midnightblue" stroke="midnightblue" points="1300.53,-101.81 1291.94,-95.61 1294.79,-105.81 1300.53,-101.81"/>
</g>
<!-- Node31&#45;&gt;Node8 -->
<g id="edge49" class="edge">
<title>Node31&#45;&gt;Node8</title>
<path fill="none" stroke="midnightblue" d="M1564.71,-213.47C1557.11,-211.15 1548.81,-208.81 1541.06,-207 1445.43,-184.67 1419.46,-189.69 1323.06,-171 1203.05,-147.73 1062.9,-115.03 991.35,-97.93"/>
<polygon fill="midnightblue" stroke="midnightblue" points="991.84,-94.45 981.3,-95.53 990.21,-101.26 991.84,-94.45"/>
</g>
<!-- Node31&#45;&gt;Node10 -->
<g id="edge66" class="edge">
<title>Node31&#45;&gt;Node10</title>
<path fill="none" stroke="midnightblue" d="M1565.84,-213.43C1557.96,-211.01 1549.23,-208.61 1541.06,-207 1375.06,-174.23 1328.9,-199.18 1162.06,-171 1098.44,-160.25 935.2,-135.49 880.06,-102 852.27,-85.12 829.29,-54.39 816.64,-35.01"/>
<polygon fill="midnightblue" stroke="midnightblue" points="819.58,-33.11 811.29,-26.51 813.66,-36.84 819.58,-33.11"/>
</g>
<!-- Node31&#45;&gt;Node12 -->
<g id="edge46" class="edge">
<title>Node31&#45;&gt;Node12</title>
<path fill="none" stroke="midnightblue" d="M1563.61,-213.47C1520.57,-199.74 1443.31,-174.8 1438.06,-171 1392.26,-137.85 1405.87,-104.73 1362.06,-69 1338.75,-49.99 1307.27,-36.18 1283.96,-27.67"/>
<polygon fill="midnightblue" stroke="midnightblue" points="1285.11,-24.37 1274.52,-24.35 1282.79,-30.97 1285.11,-24.37"/>
</g>
<!-- Node31&#45;&gt;Node14 -->
<g id="edge50" class="edge">
<title>Node31&#45;&gt;Node14</title>
<path fill="none" stroke="midnightblue" d="M1634.64,-221.23C1748.47,-217.39 2053.27,-204.08 2083.06,-171 2116.99,-133.32 2093.02,-67.32 2078.27,-35.57"/>
<polygon fill="midnightblue" stroke="midnightblue" points="2081.41,-34.01 2073.9,-26.54 2075.11,-37.07 2081.41,-34.01"/>
</g>
<!-- Node31&#45;&gt;Node16 -->
<g id="edge45" class="edge">
<title>Node31&#45;&gt;Node16</title>
<path fill="none" stroke="midnightblue" d="M1634.88,-214.31C1679.74,-205.32 1752.02,-189.65 1813.06,-171 1895.39,-145.84 1915.98,-138.27 1994.06,-102 1995.22,-101.46 1996.4,-100.89 1997.59,-100.3"/>
<polygon fill="midnightblue" stroke="midnightblue" points="1999.34,-103.34 2006.56,-95.59 1996.08,-97.14 1999.34,-103.34"/>
</g>
<!-- Node31&#45;&gt;Node23 -->
<g id="edge65" class="edge">
<title>Node31&#45;&gt;Node23</title>
<path fill="none" stroke="midnightblue" d="M1566.94,-213.48C1558.79,-210.93 1549.64,-208.45 1541.06,-207 1152.93,-141.23 1039.3,-260.95 656.06,-171 593.37,-156.29 525.86,-120.78 490.98,-100.79"/>
<polygon fill="midnightblue" stroke="midnightblue" points="492.44,-97.59 482.04,-95.6 488.92,-103.65 492.44,-97.59"/>
</g>
<!-- Node31&#45;&gt;Node30 -->
<g id="edge67" class="edge">
<title>Node31&#45;&gt;Node30</title>
<path fill="none" stroke="midnightblue" d="M1590.5,-213.27C1587.24,-196.44 1578.26,-160.45 1558.06,-138 1542.17,-120.34 1518.77,-107.67 1498.93,-99.31"/>
<polygon fill="midnightblue" stroke="midnightblue" points="1500.11,-96.02 1489.52,-95.56 1497.51,-102.52 1500.11,-96.02"/>
</g>
<!-- Node32 -->
<g id="node32" class="node">
<title>Node32</title>
<g id="a_node32"><a xlink:title=" ">
<polygon fill="white" stroke="#bfbfbf" points="1447.55,-138.5 1447.55,-170.5 1548.57,-170.5 1548.57,-138.5 1447.55,-138.5"/>
<text text-anchor="start" x="1455.55" y="-157.5" font-family="Helvetica,sans-Serif" font-size="10.00">halco/hicann&#45;dls/vx</text>
<text text-anchor="middle" x="1498.06" y="-145.5" font-family="Helvetica,sans-Serif" font-size="10.00">/padi.h</text>
</a>
</g>
</g>
<!-- Node31&#45;&gt;Node32 -->
<g id="edge48" class="edge">
<title>Node31&#45;&gt;Node32</title>
<path fill="none" stroke="midnightblue" d="M1579.38,-213.46C1566.12,-204.01 1544.83,-188.84 1527.37,-176.39"/>
<polygon fill="midnightblue" stroke="midnightblue" points="1529.33,-173.49 1519.15,-170.53 1525.26,-179.19 1529.33,-173.49"/>
</g>
<!-- Node31&#45;&gt;Node33 -->
<g id="edge51" class="edge">
<title>Node31&#45;&gt;Node33</title>
<path fill="none" stroke="midnightblue" d="M1600.83,-213.46C1611.04,-202.93 1628.14,-185.31 1640.8,-172.26"/>
<polygon fill="midnightblue" stroke="midnightblue" points="1643.56,-174.44 1648.01,-164.82 1638.54,-169.56 1643.56,-174.44"/>
</g>
<!-- Node33&#45;&gt;Node4 -->
<g id="edge54" class="edge">
<title>Node33&#45;&gt;Node4</title>
<path fill="none" stroke="midnightblue" d="M1607.02,-144.46C1539.3,-132.23 1418.62,-110.44 1346.09,-97.34"/>
<polygon fill="midnightblue" stroke="midnightblue" points="1346.65,-93.89 1336.19,-95.55 1345.41,-100.77 1346.65,-93.89"/>
</g>
<!-- Node33&#45;&gt;Node8 -->
<g id="edge59" class="edge">
<title>Node33&#45;&gt;Node8</title>
<path fill="none" stroke="midnightblue" d="M1605.27,-144.6C1590.09,-142.2 1573.44,-139.79 1558.06,-138 1348.19,-113.64 1294.42,-121.63 1084.06,-102 1059.56,-99.71 1032.7,-96.83 1009.11,-94.17"/>
<polygon fill="midnightblue" stroke="midnightblue" points="1009.2,-90.66 998.87,-93.01 1008.41,-97.62 1009.2,-90.66"/>
</g>
<!-- Node33&#45;&gt;Node10 -->
<g id="edge63" class="edge">
<title>Node33&#45;&gt;Node10</title>
<path fill="none" stroke="midnightblue" d="M1634,-144.37C1612.52,-135.3 1580.13,-120.14 1555.06,-102 1538.26,-89.84 1541,-77.45 1522.06,-69 1386.71,-8.6 1001.95,-59.14 856.06,-33 850.99,-32.09 845.71,-30.83 840.57,-29.41"/>
<polygon fill="midnightblue" stroke="midnightblue" points="841.52,-26.04 830.94,-26.54 839.52,-32.75 841.52,-26.04"/>
</g>
<!-- Node33&#45;&gt;Node12 -->
<g id="edge53" class="edge">
<title>Node33&#45;&gt;Node12</title>
<path fill="none" stroke="midnightblue" d="M1647.23,-144.22C1625.95,-124.31 1575.86,-78.54 1555.06,-69 1463.48,-26.99 1342.14,-18.93 1284.78,-17.6"/>
<polygon fill="midnightblue" stroke="midnightblue" points="1284.57,-14.09 1274.51,-17.42 1284.44,-21.09 1284.57,-14.09"/>
</g>
<!-- Node33&#45;&gt;Node14 -->
<g id="edge61" class="edge">
<title>Node33&#45;&gt;Node14</title>
<path fill="none" stroke="midnightblue" d="M1650.16,-144.37C1638.24,-127.38 1616.79,-90.7 1636.06,-69 1659.97,-42.08 1887.5,-26.73 2002.79,-20.62"/>
<polygon fill="midnightblue" stroke="midnightblue" points="2003.11,-24.11 2012.91,-20.09 2002.74,-17.12 2003.11,-24.11"/>
</g>
<!-- Node33&#45;&gt;Node16 -->
<g id="edge52" class="edge">
<title>Node33&#45;&gt;Node16</title>
<path fill="none" stroke="midnightblue" d="M1708.79,-146.62C1796.52,-134.79 1967.59,-111.03 1994.06,-102 1995.69,-101.45 1997.33,-100.8 1998.96,-100.09"/>
<polygon fill="midnightblue" stroke="midnightblue" points="2000.61,-103.18 2007.98,-95.56 1997.47,-96.92 2000.61,-103.18"/>
</g>
<!-- Node33&#45;&gt;Node17 -->
<g id="edge55" class="edge">
<title>Node33&#45;&gt;Node17</title>
<path fill="none" stroke="midnightblue" d="M1605.24,-144.86C1590.06,-142.48 1573.41,-139.99 1558.06,-138 1407.18,-118.4 1365.05,-128.19 1211.53,-102.11"/>
<polygon fill="midnightblue" stroke="midnightblue" points="1211.7,-98.59 1201.25,-100.34 1210.51,-105.49 1211.7,-98.59"/>
</g>
<!-- Node33&#45;&gt;Node20 -->
<g id="edge60" class="edge">
<title>Node33&#45;&gt;Node20</title>
<path fill="none" stroke="midnightblue" d="M1606.06,-144.49C1590.68,-142.05 1573.72,-139.64 1558.06,-138 1257.94,-106.62 1180.18,-133.38 880.06,-102 867.7,-100.71 854.54,-98.93 841.97,-97.04"/>
<polygon fill="midnightblue" stroke="midnightblue" points="842.47,-93.58 832.06,-95.51 841.4,-100.49 842.47,-93.58"/>
</g>
<!-- Node33&#45;&gt;Node23 -->
<g id="edge62" class="edge">
<title>Node33&#45;&gt;Node23</title>
<path fill="none" stroke="midnightblue" d="M1606.84,-144.46C1591.26,-141.97 1573.99,-139.54 1558.06,-138 1132.19,-96.84 1022.6,-135.55 596.06,-102 571.38,-100.06 544.15,-96.93 521.09,-93.99"/>
<polygon fill="midnightblue" stroke="midnightblue" points="521.52,-90.52 511.15,-92.71 520.62,-97.46 521.52,-90.52"/>
</g>
<!-- Node33&#45;&gt;Node30 -->
<g id="edge64" class="edge">
<title>Node33&#45;&gt;Node30</title>
<path fill="none" stroke="midnightblue" d="M1630.63,-144.46C1596.29,-132.73 1536.17,-112.18 1497.51,-98.96"/>
<polygon fill="midnightblue" stroke="midnightblue" points="1498.29,-95.53 1487.7,-95.61 1496.03,-102.15 1498.29,-95.53"/>
</g>
<!-- Node34 -->
<g id="node34" class="node">
<title>Node34</title>
<g id="a_node34"><a xlink:title=" ">
<polygon fill="white" stroke="#bfbfbf" points="1764.55,-69.5 1764.55,-101.5 1865.57,-101.5 1865.57,-69.5 1764.55,-69.5"/>
<text text-anchor="start" x="1772.55" y="-88.5" font-family="Helvetica,sans-Serif" font-size="10.00">halco/hicann&#45;dls/vx</text>
<text text-anchor="middle" x="1815.06" y="-76.5" font-family="Helvetica,sans-Serif" font-size="10.00">/capmem.h</text>
</a>
</g>
</g>
<!-- Node33&#45;&gt;Node34 -->
<g id="edge56" class="edge">
<title>Node33&#45;&gt;Node34</title>
<path fill="none" stroke="midnightblue" d="M1678.37,-144.46C1701.78,-134.54 1740.05,-118.31 1770.15,-105.54"/>
<polygon fill="midnightblue" stroke="midnightblue" points="1771.77,-108.66 1779.61,-101.53 1769.03,-102.22 1771.77,-108.66"/>
</g>
<!-- Node35 -->
<g id="node35" class="node">
<title>Node35</title>
<g id="a_node35"><a xlink:title=" ">
<polygon fill="white" stroke="#bfbfbf" points="1883.55,-69.5 1883.55,-101.5 1984.57,-101.5 1984.57,-69.5 1883.55,-69.5"/>
<text text-anchor="start" x="1891.55" y="-88.5" font-family="Helvetica,sans-Serif" font-size="10.00">halco/hicann&#45;dls/vx</text>
<text text-anchor="middle" x="1934.06" y="-76.5" font-family="Helvetica,sans-Serif" font-size="10.00">/switch_rows.h</text>
</a>
</g>
</g>
<!-- Node33&#45;&gt;Node35 -->
<g id="edge57" class="edge">
<title>Node33&#45;&gt;Node35</title>
<path fill="none" stroke="midnightblue" d="M1696.51,-144.49C1738.19,-134.91 1806.06,-119.1 1873.59,-102.34"/>
<polygon fill="midnightblue" stroke="midnightblue" points="1874.69,-105.67 1883.55,-99.86 1873,-98.88 1874.69,-105.67"/>
</g>
<!-- Node36 -->
<g id="node36" class="node">
<title>Node36</title>
<g id="a_node36"><a xlink:title=" ">
<polygon fill="white" stroke="#bfbfbf" points="1645.55,-69.5 1645.55,-101.5 1746.57,-101.5 1746.57,-69.5 1645.55,-69.5"/>
<text text-anchor="start" x="1653.55" y="-88.5" font-family="Helvetica,sans-Serif" font-size="10.00">halco/hicann&#45;dls/vx</text>
<text text-anchor="middle" x="1696.06" y="-76.5" font-family="Helvetica,sans-Serif" font-size="10.00">/synapse.h</text>
</a>
</g>
</g>
<!-- Node33&#45;&gt;Node36 -->
<g id="edge58" class="edge">
<title>Node33&#45;&gt;Node36</title>
<path fill="none" stroke="midnightblue" d="M1662.32,-144.46C1667.37,-135.78 1675.23,-122.28 1682.09,-110.5"/>
<polygon fill="midnightblue" stroke="midnightblue" points="1685.3,-111.94 1687.31,-101.53 1679.25,-108.42 1685.3,-111.94"/>
</g>
</g>
</svg>
