<?xml version="1.0" encoding="UTF-8" standalone="no"?>
<!DOCTYPE svg PUBLIC "-//W3C//DTD SVG 1.1//EN"
 "http://www.w3.org/Graphics/SVG/1.1/DTD/svg11.dtd">
<!-- Generated by graphviz version 2.46.0 (0)
 -->
<!-- Title: /jenkins/jenlib_workspaces_f9/bld_nightly&#45;haldls.YmxkX25pZ2h0bHktaGFsZGxzIzEzNzk.x/haldls/include/haldls/vx/v3/readout.h Pages: 1 -->
<!--zoomable 260 -->
<svg id="main" version="1.1" xmlns="http://www.w3.org/2000/svg" xmlns:xlink="http://www.w3.org/1999/xlink" xml:space="preserve" onload="init(evt)">
<style type="text/css"><![CDATA[
.edge:hover path { stroke: red; }
.edge:hover polygon { stroke: red; fill: red; }
]]></style>
<script type="text/javascript"><![CDATA[
var edges = document.getElementsByTagName('g');
if (edges && edges.length) {
  for (var i=0;i<edges.length;i++) {
    if (edges[i].id.substr(0,4)=='edge') {
      edges[i].setAttribute('class','edge');
    }
  }
}
]]></script>
        <defs>
                <circle id="rim" cx="0" cy="0" r="7"/>
                <circle id="rim2" cx="0" cy="0" r="3.5"/>
                <g id="zoomPlus">
                        <use xlink:href="#rim" fill="#404040">
                                <set attributeName="fill" to="#808080" begin="zoomplus.mouseover" end="zoomplus.mouseout"/>
                        </use>
                        <path d="M-4,0h8M0,-4v8" fill="none" stroke="white" stroke-width="1.5" pointer-events="none"/>
                </g>
                <g id="zoomMin">
                        <use xlink:href="#rim" fill="#404040">
                                <set attributeName="fill" to="#808080" begin="zoomminus.mouseover" end="zoomminus.mouseout"/>
                        </use>
                        <path d="M-4,0h8" fill="none" stroke="white" stroke-width="1.5" pointer-events="none"/>
                </g>
                <g id="dirArrow">
                        <path fill="none" stroke="white" stroke-width="1.5" d="M0,-3.0v7 M-2.5,-0.5L0,-3.0L2.5,-0.5"/>
                </g>
               <g id="resetDef">
                       <use xlink:href="#rim2" fill="#404040">
                               <set attributeName="fill" to="#808080" begin="reset.mouseover" end="reset.mouseout"/>
                       </use>
               </g>
        </defs>

<script type="text/javascript">
var viewWidth = 1242;
var viewHeight = 260;
var sectionId = 'dynsection-0';
</script>
<script xlink:href="svgpan.js"/>
<svg id="graph" class="graph">
<g id="viewport">
<title>/jenkins/jenlib_workspaces_f9/bld_nightly&#45;haldls.YmxkX25pZ2h0bHktaGFsZGxzIzEzNzk.x/haldls/include/haldls/vx/v3/readout.h</title>
<polygon fill="white" stroke="transparent" points="-4,4 -4,-256 1238.24,-256 1238.24,4 -4,4"/>
<!-- Node1 -->
<g id="node1" class="node">
<title>Node1</title>
<g id="a_node1"><a xlink:title=" ">
<polygon fill="#bfbfbf" stroke="black" points="616.66,-195.5 616.66,-251.5 797.68,-251.5 797.68,-195.5 616.66,-195.5"/>
<text text-anchor="start" x="624.66" y="-238.5" font-family="Helvetica,sans-Serif" font-size="10.00">/jenkins/jenlib_workspaces</text>
<text text-anchor="start" x="624.66" y="-226.5" font-family="Helvetica,sans-Serif" font-size="10.00">_f9/bld_nightly&#45;haldls.YmxkX25p</text>
<text text-anchor="start" x="624.66" y="-214.5" font-family="Helvetica,sans-Serif" font-size="10.00">Z2h0bHktaGFsZGxzIzEzNzk.x/haldls</text>
<text text-anchor="middle" x="707.17" y="-202.5" font-family="Helvetica,sans-Serif" font-size="10.00">/include/haldls/vx/v3/readout.h</text>
</a>
</g>
</g>
<!-- Node2 -->
<g id="node2" class="node">
<title>Node2</title>
<g id="a_node2"><a xlink:href="genpybind_8h.html" target="_top" xlink:title=" ">
<polygon fill="white" stroke="black" points="1104.1,-6.5 1104.1,-26.5 1216.24,-26.5 1216.24,-6.5 1104.1,-6.5"/>
<text text-anchor="middle" x="1160.17" y="-13.5" font-family="Helvetica,sans-Serif" font-size="10.00">haldls/vx/genpybind.h</text>
</a>
</g>
</g>
<!-- Node1&#45;&gt;Node2 -->
<g id="edge1" class="edge">
<title>Node1&#45;&gt;Node2</title>
<path fill="none" stroke="midnightblue" d="M766.86,-195.49C865.06,-151.05 1057.16,-64.11 1130.63,-30.87"/>
<polygon fill="midnightblue" stroke="midnightblue" points="1132.52,-33.85 1140.18,-26.54 1129.63,-27.48 1132.52,-33.85"/>
</g>
<!-- Node3 -->
<g id="node3" class="node">
<title>Node3</title>
<g id="a_node3"><a xlink:href="readout_8h.html" target="_top" xlink:title=" ">
<polygon fill="white" stroke="black" points="527.21,-138.5 527.21,-158.5 627.12,-158.5 627.12,-138.5 527.21,-138.5"/>
<text text-anchor="middle" x="577.17" y="-145.5" font-family="Helvetica,sans-Serif" font-size="10.00">haldls/vx/readout.h</text>
</a>
</g>
</g>
<!-- Node1&#45;&gt;Node3 -->
<g id="edge3" class="edge">
<title>Node1&#45;&gt;Node3</title>
<path fill="none" stroke="midnightblue" d="M658.76,-195.32C639.45,-184.47 618.05,-172.45 602.01,-163.45"/>
<polygon fill="midnightblue" stroke="midnightblue" points="603.67,-160.37 593.24,-158.52 600.24,-166.47 603.67,-160.37"/>
</g>
<!-- Node2&#45;&gt;Node2 -->
<g id="edge2" class="edge">
<title>Node2&#45;&gt;Node2</title>
<path fill="none" stroke="midnightblue" d="M1184.06,-26.54C1207.89,-32.26 1234.24,-28.92 1234.24,-16.5 1234.24,-5.78 1214.6,-1.82 1193.9,-4.62"/>
<polygon fill="midnightblue" stroke="midnightblue" points="1193.25,-1.18 1184.06,-6.46 1194.54,-8.06 1193.25,-1.18"/>
</g>
<!-- Node3&#45;&gt;Node2 -->
<g id="edge15" class="edge">
<title>Node3&#45;&gt;Node2</title>
<path fill="none" stroke="midnightblue" d="M627.35,-140.15C680.46,-132.05 766.6,-118.05 840.17,-102 941.53,-79.89 1059.09,-46.94 1119.58,-29.43"/>
<polygon fill="midnightblue" stroke="midnightblue" points="1120.86,-32.7 1129.49,-26.55 1118.91,-25.98 1120.86,-32.7"/>
</g>
<!-- Node4 -->
<g id="node4" class="node">
<title>Node4</title>
<g id="a_node4"><a xlink:title=" ">
<polygon fill="white" stroke="#bfbfbf" points="0,-6.5 0,-26.5 44.34,-26.5 44.34,-6.5 0,-6.5"/>
<text text-anchor="middle" x="22.17" y="-13.5" font-family="Helvetica,sans-Serif" font-size="10.00">iosfwd</text>
</a>
</g>
</g>
<!-- Node3&#45;&gt;Node4 -->
<g id="edge4" class="edge">
<title>Node3&#45;&gt;Node4</title>
<path fill="none" stroke="midnightblue" d="M527.04,-148C417.15,-148.28 158.88,-144.28 84.17,-102 57.87,-87.12 39.6,-55.99 30.01,-35.95"/>
<polygon fill="midnightblue" stroke="midnightblue" points="33.1,-34.3 25.79,-26.63 26.73,-37.18 33.1,-34.3"/>
</g>
<!-- Node5 -->
<g id="node5" class="node">
<title>Node5</title>
<g id="a_node5"><a xlink:title=" ">
<polygon fill="white" stroke="#bfbfbf" points="221.05,-69.5 221.05,-101.5 329.29,-101.5 329.29,-69.5 221.05,-69.5"/>
<text text-anchor="start" x="229.05" y="-88.5" font-family="Helvetica,sans-Serif" font-size="10.00">halco/common/typed</text>
<text text-anchor="middle" x="275.17" y="-76.5" font-family="Helvetica,sans-Serif" font-size="10.00">_array.h</text>
</a>
</g>
</g>
<!-- Node3&#45;&gt;Node5 -->
<g id="edge5" class="edge">
<title>Node3&#45;&gt;Node5</title>
<path fill="none" stroke="midnightblue" d="M527.12,-138.77C480.83,-130.52 409.89,-117.42 339.37,-102.2"/>
<polygon fill="midnightblue" stroke="midnightblue" points="339.94,-98.74 329.42,-100.04 338.45,-105.58 339.94,-98.74"/>
</g>
<!-- Node6 -->
<g id="node6" class="node">
<title>Node6</title>
<g id="a_node6"><a xlink:title=" ">
<polygon fill="white" stroke="#bfbfbf" points="347.66,-69.5 347.66,-101.5 448.68,-101.5 448.68,-69.5 347.66,-69.5"/>
<text text-anchor="start" x="355.66" y="-88.5" font-family="Helvetica,sans-Serif" font-size="10.00">halco/hicann&#45;dls/vx</text>
<text text-anchor="middle" x="398.17" y="-76.5" font-family="Helvetica,sans-Serif" font-size="10.00">/capmem.h</text>
</a>
</g>
</g>
<!-- Node3&#45;&gt;Node6 -->
<g id="edge6" class="edge">
<title>Node3&#45;&gt;Node6</title>
<path fill="none" stroke="midnightblue" d="M550.76,-138.5C524.93,-129.7 484.85,-116.04 452.25,-104.93"/>
<polygon fill="midnightblue" stroke="midnightblue" points="452.99,-101.49 442.4,-101.57 450.73,-108.11 452.99,-101.49"/>
</g>
<!-- Node7 -->
<g id="node7" class="node">
<title>Node7</title>
<g id="a_node7"><a xlink:title=" ">
<polygon fill="white" stroke="#bfbfbf" points="466.66,-69.5 466.66,-101.5 567.68,-101.5 567.68,-69.5 466.66,-69.5"/>
<text text-anchor="start" x="474.66" y="-88.5" font-family="Helvetica,sans-Serif" font-size="10.00">halco/hicann&#45;dls/vx</text>
<text text-anchor="middle" x="517.17" y="-76.5" font-family="Helvetica,sans-Serif" font-size="10.00">/chip.h</text>
</a>
</g>
</g>
<!-- Node3&#45;&gt;Node7 -->
<g id="edge7" class="edge">
<title>Node3&#45;&gt;Node7</title>
<path fill="none" stroke="midnightblue" d="M568.31,-138.5C560.65,-130.71 549.25,-119.12 539.16,-108.86"/>
<polygon fill="midnightblue" stroke="midnightblue" points="541.62,-106.37 532.11,-101.69 536.63,-111.27 541.62,-106.37"/>
</g>
<!-- Node8 -->
<g id="node8" class="node">
<title>Node8</title>
<g id="a_node8"><a xlink:title=" ">
<polygon fill="white" stroke="#bfbfbf" points="585.66,-69.5 585.66,-101.5 686.68,-101.5 686.68,-69.5 585.66,-69.5"/>
<text text-anchor="start" x="593.66" y="-88.5" font-family="Helvetica,sans-Serif" font-size="10.00">halco/hicann&#45;dls/vx</text>
<text text-anchor="middle" x="636.17" y="-76.5" font-family="Helvetica,sans-Serif" font-size="10.00">/readout.h</text>
</a>
</g>
</g>
<!-- Node3&#45;&gt;Node8 -->
<g id="edge8" class="edge">
<title>Node3&#45;&gt;Node8</title>
<path fill="none" stroke="midnightblue" d="M585.87,-138.5C593.33,-130.79 604.4,-119.35 614.25,-109.16"/>
<polygon fill="midnightblue" stroke="midnightblue" points="617.04,-111.31 621.47,-101.69 612.01,-106.45 617.04,-111.31"/>
</g>
<!-- Node9 -->
<g id="node9" class="node">
<title>Node9</title>
<g id="a_node9"><a xlink:href="cerealization_8h.html" target="_top" xlink:title=" ">
<polygon fill="white" stroke="black" points="93.49,-75.5 93.49,-95.5 202.84,-95.5 202.84,-75.5 93.49,-75.5"/>
<text text-anchor="middle" x="148.17" y="-82.5" font-family="Helvetica,sans-Serif" font-size="10.00">haldls/cerealization.h</text>
</a>
</g>
</g>
<!-- Node3&#45;&gt;Node9 -->
<g id="edge9" class="edge">
<title>Node3&#45;&gt;Node9</title>
<path fill="none" stroke="midnightblue" d="M527.01,-143.07C456.39,-136.41 323.83,-122.41 212.17,-102 205.75,-100.83 199.01,-99.41 192.41,-97.91"/>
<polygon fill="midnightblue" stroke="midnightblue" points="192.76,-94.39 182.22,-95.51 191.16,-101.21 192.76,-94.39"/>
</g>
<!-- Node11 -->
<g id="node11" class="node">
<title>Node11</title>
<g id="a_node11"><a xlink:title=" ">
<polygon fill="white" stroke="#bfbfbf" points="342.66,-6.5 342.66,-26.5 423.67,-26.5 423.67,-6.5 342.66,-6.5"/>
<text text-anchor="middle" x="383.17" y="-13.5" font-family="Helvetica,sans-Serif" font-size="10.00">hate/visibility.h</text>
</a>
</g>
</g>
<!-- Node3&#45;&gt;Node11 -->
<g id="edge26" class="edge">
<title>Node3&#45;&gt;Node11</title>
<path fill="none" stroke="midnightblue" d="M627.36,-141.63C652.44,-135.88 680.68,-124.5 696.17,-102 704.48,-89.92 705.81,-80.05 696.17,-69 657.39,-24.55 490.76,-45.78 433.17,-33 428.65,-32 423.96,-30.78 419.33,-29.48"/>
<polygon fill="midnightblue" stroke="midnightblue" points="420,-26.02 409.42,-26.53 418,-32.73 420,-26.02"/>
</g>
<!-- Node14 -->
<g id="node14" class="node">
<title>Node14</title>
<g id="a_node14"><a xlink:href="traits_8h.html" target="_top" xlink:title=" ">
<polygon fill="white" stroke="black" points="743.33,-75.5 743.33,-95.5 831.01,-95.5 831.01,-75.5 743.33,-75.5"/>
<text text-anchor="middle" x="787.17" y="-82.5" font-family="Helvetica,sans-Serif" font-size="10.00">haldls/vx/traits.h</text>
</a>
</g>
</g>
<!-- Node3&#45;&gt;Node14 -->
<g id="edge16" class="edge">
<title>Node3&#45;&gt;Node14</title>
<path fill="none" stroke="midnightblue" d="M608.15,-138.5C644.76,-127.87 705.77,-110.14 746.24,-98.39"/>
<polygon fill="midnightblue" stroke="midnightblue" points="747.43,-101.69 756.05,-95.54 745.47,-94.97 747.43,-101.69"/>
</g>
<!-- Node9&#45;&gt;Node4 -->
<g id="edge13" class="edge">
<title>Node9&#45;&gt;Node4</title>
<path fill="none" stroke="midnightblue" d="M131.17,-75.46C109.85,-64.13 73.07,-44.56 48.19,-31.34"/>
<polygon fill="midnightblue" stroke="midnightblue" points="49.77,-28.21 39.29,-26.61 46.48,-34.39 49.77,-28.21"/>
</g>
<!-- Node10 -->
<g id="node10" class="node">
<title>Node10</title>
<g id="a_node10"><a xlink:title=" ">
<polygon fill="white" stroke="#bfbfbf" points="241.54,-6.5 241.54,-26.5 324.79,-26.5 324.79,-6.5 241.54,-6.5"/>
<text text-anchor="middle" x="283.17" y="-13.5" font-family="Helvetica,sans-Serif" font-size="10.00">hate/type_list.h</text>
</a>
</g>
</g>
<!-- Node9&#45;&gt;Node10 -->
<g id="edge10" class="edge">
<title>Node9&#45;&gt;Node10</title>
<path fill="none" stroke="midnightblue" d="M166.37,-75.46C189.32,-64.08 228.98,-44.39 255.64,-31.16"/>
<polygon fill="midnightblue" stroke="midnightblue" points="257.42,-34.19 264.82,-26.61 254.3,-27.92 257.42,-34.19"/>
</g>
<!-- Node9&#45;&gt;Node11 -->
<g id="edge11" class="edge">
<title>Node9&#45;&gt;Node11</title>
<path fill="none" stroke="midnightblue" d="M182.21,-75.47C219.59,-65.47 281.32,-48.67 334.17,-33 337.91,-31.89 341.8,-30.71 345.69,-29.51"/>
<polygon fill="midnightblue" stroke="midnightblue" points="346.73,-32.85 355.24,-26.53 344.65,-26.17 346.73,-32.85"/>
</g>
<!-- Node12 -->
<g id="node12" class="node">
<title>Node12</title>
<g id="a_node12"><a xlink:title=" ">
<polygon fill="white" stroke="#bfbfbf" points="178.72,-6.5 178.72,-26.5 223.62,-26.5 223.62,-6.5 178.72,-6.5"/>
<text text-anchor="middle" x="201.17" y="-13.5" font-family="Helvetica,sans-Serif" font-size="10.00">cstdint</text>
</a>
</g>
</g>
<!-- Node9&#45;&gt;Node12 -->
<g id="edge12" class="edge">
<title>Node9&#45;&gt;Node12</title>
<path fill="none" stroke="midnightblue" d="M155.32,-75.46C163.49,-65.13 177.06,-47.97 187.32,-35"/>
<polygon fill="midnightblue" stroke="midnightblue" points="190.33,-36.84 193.79,-26.82 184.84,-32.49 190.33,-36.84"/>
</g>
<!-- Node13 -->
<g id="node13" class="node">
<title>Node13</title>
<g id="a_node13"><a xlink:title=" ">
<polygon fill="white" stroke="#bfbfbf" points="62.05,-6.5 62.05,-26.5 160.29,-26.5 160.29,-6.5 62.05,-6.5"/>
<text text-anchor="middle" x="111.17" y="-13.5" font-family="Helvetica,sans-Serif" font-size="10.00">cereal/macros.hpp</text>
</a>
</g>
</g>
<!-- Node9&#45;&gt;Node13 -->
<g id="edge14" class="edge">
<title>Node9&#45;&gt;Node13</title>
<path fill="none" stroke="midnightblue" d="M143.18,-75.46C137.58,-65.33 128.36,-48.63 121.25,-35.75"/>
<polygon fill="midnightblue" stroke="midnightblue" points="124.21,-33.88 116.32,-26.82 118.09,-37.27 124.21,-33.88"/>
</g>
<!-- Node14&#45;&gt;Node2 -->
<g id="edge19" class="edge">
<title>Node14&#45;&gt;Node2</title>
<path fill="none" stroke="midnightblue" d="M831.21,-78.11C891.14,-69.18 1001.65,-51.95 1095.17,-33 1101.36,-31.75 1107.86,-30.32 1114.26,-28.86"/>
<polygon fill="midnightblue" stroke="midnightblue" points="1115.22,-32.23 1124.16,-26.55 1113.63,-25.41 1115.22,-32.23"/>
</g>
<!-- Node14&#45;&gt;Node10 -->
<g id="edge20" class="edge">
<title>Node14&#45;&gt;Node10</title>
<path fill="none" stroke="midnightblue" d="M743.29,-76.39C728.37,-73.8 711.57,-71.07 696.17,-69 535.49,-47.38 492.07,-65.17 333.17,-33 328.41,-32.04 323.46,-30.8 318.6,-29.45"/>
<polygon fill="midnightblue" stroke="midnightblue" points="319.44,-26.05 308.86,-26.55 317.45,-32.76 319.44,-26.05"/>
</g>
<!-- Node14&#45;&gt;Node11 -->
<g id="edge21" class="edge">
<title>Node14&#45;&gt;Node11</title>
<path fill="none" stroke="midnightblue" d="M756.65,-75.49C747.84,-73.12 738.17,-70.74 729.17,-69 599.05,-43.83 562.76,-60.73 433.17,-33 428.47,-32 423.58,-30.74 418.78,-29.39"/>
<polygon fill="midnightblue" stroke="midnightblue" points="419.73,-26.02 409.14,-26.52 417.73,-32.73 419.73,-26.02"/>
</g>
<!-- Node15 -->
<g id="node15" class="node">
<title>Node15</title>
<g id="a_node15"><a xlink:title=" ">
<polygon fill="white" stroke="#bfbfbf" points="680.11,-6.5 680.11,-26.5 762.23,-26.5 762.23,-6.5 680.11,-6.5"/>
<text text-anchor="middle" x="721.17" y="-13.5" font-family="Helvetica,sans-Serif" font-size="10.00">fisch/vx/traits.h</text>
</a>
</g>
</g>
<!-- Node14&#45;&gt;Node15 -->
<g id="edge17" class="edge">
<title>Node14&#45;&gt;Node15</title>
<path fill="none" stroke="midnightblue" d="M778.27,-75.46C767.89,-64.93 750.53,-47.31 737.67,-34.26"/>
<polygon fill="midnightblue" stroke="midnightblue" points="739.86,-31.49 730.35,-26.82 734.88,-36.4 739.86,-31.49"/>
</g>
<!-- Node16 -->
<g id="node16" class="node">
<title>Node16</title>
<g id="a_node16"><a xlink:title=" ">
<polygon fill="white" stroke="#bfbfbf" points="779.94,-0.5 779.94,-32.5 890.4,-32.5 890.4,-0.5 779.94,-0.5"/>
<text text-anchor="start" x="787.94" y="-19.5" font-family="Helvetica,sans-Serif" font-size="10.00">fisch/vx/word_access</text>
<text text-anchor="middle" x="835.17" y="-7.5" font-family="Helvetica,sans-Serif" font-size="10.00">_type.h</text>
</a>
</g>
</g>
<!-- Node14&#45;&gt;Node16 -->
<g id="edge18" class="edge">
<title>Node14&#45;&gt;Node16</title>
<path fill="none" stroke="midnightblue" d="M793.64,-75.46C799.98,-66.61 809.92,-52.75 818.48,-40.8"/>
<polygon fill="midnightblue" stroke="midnightblue" points="821.42,-42.7 824.4,-32.53 815.73,-38.62 821.42,-42.7"/>
</g>
<!-- Node17 -->
<g id="node17" class="node">
<title>Node17</title>
<g id="a_node17"><a xlink:title=" ">
<polygon fill="white" stroke="#bfbfbf" points="908.11,-6.5 908.11,-26.5 970.23,-26.5 970.23,-6.5 908.11,-6.5"/>
<text text-anchor="middle" x="939.17" y="-13.5" font-family="Helvetica,sans-Serif" font-size="10.00">type_traits</text>
</a>
</g>
</g>
<!-- Node14&#45;&gt;Node17 -->
<g id="edge22" class="edge">
<title>Node14&#45;&gt;Node17</title>
<path fill="none" stroke="midnightblue" d="M807.67,-75.46C833.84,-63.93 879.34,-43.87 909.35,-30.64"/>
<polygon fill="midnightblue" stroke="midnightblue" points="910.77,-33.84 918.51,-26.61 907.95,-27.44 910.77,-33.84"/>
</g>
<!-- Node18 -->
<g id="node18" class="node">
<title>Node18</title>
<g id="a_node18"><a xlink:title=" ">
<polygon fill="white" stroke="#bfbfbf" points="987.77,-0.5 987.77,-32.5 1086.57,-32.5 1086.57,-0.5 987.77,-0.5"/>
<text text-anchor="start" x="995.77" y="-19.5" font-family="Helvetica,sans-Serif" font-size="10.00">boost/utility/enable</text>
<text text-anchor="middle" x="1037.17" y="-7.5" font-family="Helvetica,sans-Serif" font-size="10.00">_if.hpp</text>
</a>
</g>
</g>
<!-- Node14&#45;&gt;Node18 -->
<g id="edge23" class="edge">
<title>Node14&#45;&gt;Node18</title>
<path fill="none" stroke="midnightblue" d="M820.88,-75.46C861.03,-64.7 928.81,-46.54 977.81,-33.41"/>
<polygon fill="midnightblue" stroke="midnightblue" points="978.9,-36.74 987.65,-30.77 977.08,-29.98 978.9,-36.74"/>
</g>
<!-- Node19 -->
<g id="node19" class="node">
<title>Node19</title>
<g id="a_node19"><a xlink:title=" ">
<polygon fill="white" stroke="#bfbfbf" points="441.82,-6.5 441.82,-26.5 534.51,-26.5 534.51,-6.5 441.82,-6.5"/>
<text text-anchor="middle" x="488.17" y="-13.5" font-family="Helvetica,sans-Serif" font-size="10.00">boost/variant.hpp</text>
</a>
</g>
</g>
<!-- Node14&#45;&gt;Node19 -->
<g id="edge24" class="edge">
<title>Node14&#45;&gt;Node19</title>
<path fill="none" stroke="midnightblue" d="M755.05,-75.49C746.66,-73.25 737.6,-70.94 729.17,-69 647.11,-50.12 625.09,-52.44 543.17,-33 538.41,-31.87 533.45,-30.6 528.53,-29.29"/>
<polygon fill="midnightblue" stroke="midnightblue" points="529.17,-25.83 518.6,-26.56 527.31,-32.59 529.17,-25.83"/>
</g>
<!-- Node20 -->
<g id="node20" class="node">
<title>Node20</title>
<g id="a_node20"><a xlink:title=" ">
<polygon fill="white" stroke="#bfbfbf" points="552.21,-6.5 552.21,-26.5 662.12,-26.5 662.12,-6.5 552.21,-6.5"/>
<text text-anchor="middle" x="607.17" y="-13.5" font-family="Helvetica,sans-Serif" font-size="10.00">fisch/vx/container.def</text>
</a>
</g>
</g>
<!-- Node14&#45;&gt;Node20 -->
<g id="edge25" class="edge">
<title>Node14&#45;&gt;Node20</title>
<path fill="none" stroke="midnightblue" d="M762.89,-75.46C731.49,-63.78 676.62,-43.35 641.1,-30.13"/>
<polygon fill="midnightblue" stroke="midnightblue" points="642.23,-26.82 631.63,-26.61 639.78,-33.38 642.23,-26.82"/>
</g>
</g>
</svg>
        <g id="navigator" transform="translate(0 0)" fill="#404254">
                <rect fill="#f2f5e9" fill-opacity="0.5" stroke="#606060" stroke-width=".5" x="0" y="0" width="60" height="60"/>
                <use id="zoomplus" xlink:href="#zoomPlus" x="17" y="9" onmousedown="handleZoom(evt,'in')"/>
                <use id="zoomminus" xlink:href="#zoomMin" x="42" y="9" onmousedown="handleZoom(evt,'out')"/>
                <use id="reset" xlink:href="#resetDef" x="30" y="36" onmousedown="handleReset()"/>
                <g id="arrowUp" xlink:href="#dirArrow" transform="translate(30 24)" onmousedown="handlePan(0,-1)">
                  <use xlink:href="#rim" fill="#404040">
                        <set attributeName="fill" to="#808080" begin="arrowUp.mouseover" end="arrowUp.mouseout"/>
                  </use>
                  <path fill="none" stroke="white" stroke-width="1.5" d="M0,-3.0v7 M-2.5,-0.5L0,-3.0L2.5,-0.5"/>
                </g>
                <g id="arrowRight" xlink:href="#dirArrow" transform="rotate(90) translate(36 -43)" onmousedown="handlePan(1,0)">
                  <use xlink:href="#rim" fill="#404040">
                        <set attributeName="fill" to="#808080" begin="arrowRight.mouseover" end="arrowRight.mouseout"/>
                  </use>
                  <path fill="none" stroke="white" stroke-width="1.5" d="M0,-3.0v7 M-2.5,-0.5L0,-3.0L2.5,-0.5"/>
                </g>
                <g id="arrowDown" xlink:href="#dirArrow" transform="rotate(180) translate(-30 -48)" onmousedown="handlePan(0,1)">
                  <use xlink:href="#rim" fill="#404040">
                        <set attributeName="fill" to="#808080" begin="arrowDown.mouseover" end="arrowDown.mouseout"/>
                  </use>
                  <path fill="none" stroke="white" stroke-width="1.5" d="M0,-3.0v7 M-2.5,-0.5L0,-3.0L2.5,-0.5"/>
                </g>
                <g id="arrowLeft" xlink:href="#dirArrow" transform="rotate(270) translate(-36 17)" onmousedown="handlePan(-1,0)">
                  <use xlink:href="#rim" fill="#404040">
                        <set attributeName="fill" to="#808080" begin="arrowLeft.mouseover" end="arrowLeft.mouseout"/>
                  </use>
                  <path fill="none" stroke="white" stroke-width="1.5" d="M0,-3.0v7 M-2.5,-0.5L0,-3.0L2.5,-0.5"/>
                </g>
        </g>
        <svg viewBox="0 0 15 15" width="100%" height="30px" preserveAspectRatio="xMaxYMin meet">
         <g id="arrow_out" transform="scale(0.3 0.3)">
          <a xlink:href="v3_2readout_8h__incl_org.svg" target="_base">
           <rect id="button" ry="5" rx="5" y="6" x="6" height="38" width="38"
                fill="#f2f5e9" fill-opacity="0.5" stroke="#606060" stroke-width="1.0"/>
           <path id="arrow"
             d="M 11.500037,31.436501 C 11.940474,20.09759 22.043105,11.32322 32.158766,21.979434 L 37.068811,17.246167 C 37.068811,17.246167 37.088388,32 37.088388,32 L 22.160133,31.978069 C 22.160133,31.978069 26.997745,27.140456 26.997745,27.140456 C 18.528582,18.264221 13.291696,25.230495 11.500037,31.436501 z"
             style="fill:#404040;"/>
          </a>
         </g>
        </svg>
</svg>
