<?xml version="1.0" encoding="UTF-8" standalone="no"?>
<!DOCTYPE svg PUBLIC "-//W3C//DTD SVG 1.1//EN"
 "http://www.w3.org/Graphics/SVG/1.1/DTD/svg11.dtd">
<!-- Generated by graphviz version 2.46.0 (0)
 -->
<!-- Title: /jenkins/jenlib_workspaces_f9/bld_nightly&#45;haldls.YmxkX25pZ2h0bHktaGFsZGxzIzEzNzk.x/haldls/include/haldls/vx/v3/phy.h Pages: 1 -->
<!--zoomable 260 -->
<svg id="main" version="1.1" xmlns="http://www.w3.org/2000/svg" xmlns:xlink="http://www.w3.org/1999/xlink" xml:space="preserve" onload="init(evt)">
<style type="text/css"><![CDATA[
.edge:hover path { stroke: red; }
.edge:hover polygon { stroke: red; fill: red; }
]]></style>
<script type="text/javascript"><![CDATA[
var edges = document.getElementsByTagName('g');
if (edges && edges.length) {
  for (var i=0;i<edges.length;i++) {
    if (edges[i].id.substr(0,4)=='edge') {
      edges[i].setAttribute('class','edge');
    }
  }
}
]]></script>
        <defs>
                <circle id="rim" cx="0" cy="0" r="7"/>
                <circle id="rim2" cx="0" cy="0" r="3.5"/>
                <g id="zoomPlus">
                        <use xlink:href="#rim" fill="#404040">
                                <set attributeName="fill" to="#808080" begin="zoomplus.mouseover" end="zoomplus.mouseout"/>
                        </use>
                        <path d="M-4,0h8M0,-4v8" fill="none" stroke="white" stroke-width="1.5" pointer-events="none"/>
                </g>
                <g id="zoomMin">
                        <use xlink:href="#rim" fill="#404040">
                                <set attributeName="fill" to="#808080" begin="zoomminus.mouseover" end="zoomminus.mouseout"/>
                        </use>
                        <path d="M-4,0h8" fill="none" stroke="white" stroke-width="1.5" pointer-events="none"/>
                </g>
                <g id="dirArrow">
                        <path fill="none" stroke="white" stroke-width="1.5" d="M0,-3.0v7 M-2.5,-0.5L0,-3.0L2.5,-0.5"/>
                </g>
               <g id="resetDef">
                       <use xlink:href="#rim2" fill="#404040">
                               <set attributeName="fill" to="#808080" begin="reset.mouseover" end="reset.mouseout"/>
                       </use>
               </g>
        </defs>

<script type="text/javascript">
var viewWidth = 1242;
var viewHeight = 260;
var sectionId = 'dynsection-0';
</script>
<script xlink:href="svgpan.js"/>
<svg id="graph" class="graph">
<g id="viewport">
<title>/jenkins/jenlib_workspaces_f9/bld_nightly&#45;haldls.YmxkX25pZ2h0bHktaGFsZGxzIzEzNzk.x/haldls/include/haldls/vx/v3/phy.h</title>
<polygon fill="white" stroke="transparent" points="-4,4 -4,-256 1238.24,-256 1238.24,4 -4,4"/>
<!-- Node1 -->
<g id="node1" class="node">
<title>Node1</title>
<g id="a_node1"><a xlink:title=" ">
<polygon fill="#bfbfbf" stroke="black" points="564.66,-195.5 564.66,-251.5 745.68,-251.5 745.68,-195.5 564.66,-195.5"/>
<text text-anchor="start" x="572.66" y="-238.5" font-family="Helvetica,sans-Serif" font-size="10.00">/jenkins/jenlib_workspaces</text>
<text text-anchor="start" x="572.66" y="-226.5" font-family="Helvetica,sans-Serif" font-size="10.00">_f9/bld_nightly&#45;haldls.YmxkX25p</text>
<text text-anchor="start" x="572.66" y="-214.5" font-family="Helvetica,sans-Serif" font-size="10.00">Z2h0bHktaGFsZGxzIzEzNzk.x/haldls</text>
<text text-anchor="middle" x="655.17" y="-202.5" font-family="Helvetica,sans-Serif" font-size="10.00">/include/haldls/vx/v3/phy.h</text>
</a>
</g>
</g>
<!-- Node2 -->
<g id="node2" class="node">
<title>Node2</title>
<g id="a_node2"><a xlink:href="genpybind_8h.html" target="_top" xlink:title=" ">
<polygon fill="white" stroke="black" points="1104.1,-6.5 1104.1,-26.5 1216.24,-26.5 1216.24,-6.5 1104.1,-6.5"/>
<text text-anchor="middle" x="1160.17" y="-13.5" font-family="Helvetica,sans-Serif" font-size="10.00">haldls/vx/genpybind.h</text>
</a>
</g>
</g>
<!-- Node1&#45;&gt;Node2 -->
<g id="edge1" class="edge">
<title>Node1&#45;&gt;Node2</title>
<path fill="none" stroke="midnightblue" d="M721.71,-195.49C831.64,-150.86 1047.09,-63.4 1128.24,-30.46"/>
<polygon fill="midnightblue" stroke="midnightblue" points="1129.94,-33.55 1137.89,-26.54 1127.31,-27.06 1129.94,-33.55"/>
</g>
<!-- Node3 -->
<g id="node3" class="node">
<title>Node3</title>
<g id="a_node3"><a xlink:href="phy_8h.html" target="_top" xlink:title=" ">
<polygon fill="white" stroke="black" points="484.1,-138.5 484.1,-158.5 566.23,-158.5 566.23,-138.5 484.1,-138.5"/>
<text text-anchor="middle" x="525.17" y="-145.5" font-family="Helvetica,sans-Serif" font-size="10.00">haldls/vx/phy.h</text>
</a>
</g>
</g>
<!-- Node1&#45;&gt;Node3 -->
<g id="edge3" class="edge">
<title>Node1&#45;&gt;Node3</title>
<path fill="none" stroke="midnightblue" d="M606.76,-195.32C587.45,-184.47 566.05,-172.45 550.01,-163.45"/>
<polygon fill="midnightblue" stroke="midnightblue" points="551.67,-160.37 541.24,-158.52 548.24,-166.47 551.67,-160.37"/>
</g>
<!-- Node2&#45;&gt;Node2 -->
<g id="edge2" class="edge">
<title>Node2&#45;&gt;Node2</title>
<path fill="none" stroke="midnightblue" d="M1184.06,-26.54C1207.89,-32.26 1234.24,-28.92 1234.24,-16.5 1234.24,-5.78 1214.6,-1.82 1193.9,-4.62"/>
<polygon fill="midnightblue" stroke="midnightblue" points="1193.25,-1.18 1184.06,-6.46 1194.54,-8.06 1193.25,-1.18"/>
</g>
<!-- Node3&#45;&gt;Node2 -->
<g id="edge15" class="edge">
<title>Node3&#45;&gt;Node2</title>
<path fill="none" stroke="midnightblue" d="M566.6,-141.08C618.86,-132.81 711.42,-117.66 790.17,-102 926.48,-74.9 959.79,-64.45 1095.17,-33 1100.89,-31.67 1106.88,-30.26 1112.83,-28.86"/>
<polygon fill="midnightblue" stroke="midnightblue" points="1113.8,-32.22 1122.72,-26.51 1112.18,-25.41 1113.8,-32.22"/>
</g>
<!-- Node4 -->
<g id="node4" class="node">
<title>Node4</title>
<g id="a_node4"><a xlink:title=" ">
<polygon fill="white" stroke="#bfbfbf" points="72.78,-75.5 72.78,-95.5 111.56,-95.5 111.56,-75.5 72.78,-75.5"/>
<text text-anchor="middle" x="92.17" y="-82.5" font-family="Helvetica,sans-Serif" font-size="10.00">array</text>
</a>
</g>
</g>
<!-- Node3&#45;&gt;Node4 -->
<g id="edge4" class="edge">
<title>Node3&#45;&gt;Node4</title>
<path fill="none" stroke="midnightblue" d="M483.83,-148.13C409.3,-148.13 248.25,-142.85 120.17,-102 118.49,-101.47 116.81,-100.83 115.13,-100.12"/>
<polygon fill="midnightblue" stroke="midnightblue" points="116.43,-96.86 105.92,-95.52 113.31,-103.12 116.43,-96.86"/>
</g>
<!-- Node5 -->
<g id="node5" class="node">
<title>Node5</title>
<g id="a_node5"><a xlink:title=" ">
<polygon fill="white" stroke="#bfbfbf" points="0,-6.5 0,-26.5 44.34,-26.5 44.34,-6.5 0,-6.5"/>
<text text-anchor="middle" x="22.17" y="-13.5" font-family="Helvetica,sans-Serif" font-size="10.00">iosfwd</text>
</a>
</g>
</g>
<!-- Node3&#45;&gt;Node5 -->
<g id="edge5" class="edge">
<title>Node3&#45;&gt;Node5</title>
<path fill="none" stroke="midnightblue" d="M483.96,-145.7C377.34,-140.72 98.34,-125.58 64.17,-102 41.98,-86.69 30.96,-56.16 25.92,-36.29"/>
<polygon fill="midnightblue" stroke="midnightblue" points="29.33,-35.49 23.71,-26.52 22.51,-37.04 29.33,-35.49"/>
</g>
<!-- Node6 -->
<g id="node6" class="node">
<title>Node6</title>
<g id="a_node6"><a xlink:title=" ">
<polygon fill="white" stroke="#bfbfbf" points="257.27,-75.5 257.27,-95.5 391.07,-95.5 391.07,-75.5 257.27,-75.5"/>
<text text-anchor="middle" x="324.17" y="-82.5" font-family="Helvetica,sans-Serif" font-size="10.00">halco/common/geometry.h</text>
</a>
</g>
</g>
<!-- Node3&#45;&gt;Node6 -->
<g id="edge6" class="edge">
<title>Node3&#45;&gt;Node6</title>
<path fill="none" stroke="midnightblue" d="M495.51,-138.5C460.62,-127.91 402.57,-110.29 363.84,-98.54"/>
<polygon fill="midnightblue" stroke="midnightblue" points="364.53,-95.09 353.95,-95.54 362.5,-101.79 364.53,-95.09"/>
</g>
<!-- Node7 -->
<g id="node7" class="node">
<title>Node7</title>
<g id="a_node7"><a xlink:title=" ">
<polygon fill="white" stroke="#bfbfbf" points="409.05,-69.5 409.05,-101.5 517.29,-101.5 517.29,-69.5 409.05,-69.5"/>
<text text-anchor="start" x="417.05" y="-88.5" font-family="Helvetica,sans-Serif" font-size="10.00">halco/common/typed</text>
<text text-anchor="middle" x="463.17" y="-76.5" font-family="Helvetica,sans-Serif" font-size="10.00">_array.h</text>
</a>
</g>
</g>
<!-- Node3&#45;&gt;Node7 -->
<g id="edge7" class="edge">
<title>Node3&#45;&gt;Node7</title>
<path fill="none" stroke="midnightblue" d="M516.02,-138.5C508.1,-130.71 496.32,-119.12 485.89,-108.86"/>
<polygon fill="midnightblue" stroke="midnightblue" points="488.19,-106.21 478.61,-101.69 483.28,-111.2 488.19,-106.21"/>
</g>
<!-- Node8 -->
<g id="node8" class="node">
<title>Node8</title>
<g id="a_node8"><a xlink:title=" ">
<polygon fill="white" stroke="#bfbfbf" points="535.66,-69.5 535.66,-101.5 636.68,-101.5 636.68,-69.5 535.66,-69.5"/>
<text text-anchor="start" x="543.66" y="-88.5" font-family="Helvetica,sans-Serif" font-size="10.00">halco/hicann&#45;dls/vx</text>
<text text-anchor="middle" x="586.17" y="-76.5" font-family="Helvetica,sans-Serif" font-size="10.00">/highspeed_link.h</text>
</a>
</g>
</g>
<!-- Node3&#45;&gt;Node8 -->
<g id="edge8" class="edge">
<title>Node3&#45;&gt;Node8</title>
<path fill="none" stroke="midnightblue" d="M534.17,-138.5C541.96,-130.71 553.55,-119.12 563.81,-108.86"/>
<polygon fill="midnightblue" stroke="midnightblue" points="566.38,-111.24 570.98,-101.69 561.43,-106.29 566.38,-111.24"/>
</g>
<!-- Node9 -->
<g id="node9" class="node">
<title>Node9</title>
<g id="a_node9"><a xlink:href="cerealization_8h.html" target="_top" xlink:title=" ">
<polygon fill="white" stroke="black" points="129.49,-75.5 129.49,-95.5 238.84,-95.5 238.84,-75.5 129.49,-75.5"/>
<text text-anchor="middle" x="184.17" y="-82.5" font-family="Helvetica,sans-Serif" font-size="10.00">haldls/cerealization.h</text>
</a>
</g>
</g>
<!-- Node3&#45;&gt;Node9 -->
<g id="edge9" class="edge">
<title>Node3&#45;&gt;Node9</title>
<path fill="none" stroke="midnightblue" d="M483.69,-141.68C429.37,-133.82 331.27,-118.86 248.17,-102 241.99,-100.75 235.51,-99.31 229.13,-97.84"/>
<polygon fill="midnightblue" stroke="midnightblue" points="229.81,-94.4 219.27,-95.5 228.2,-101.21 229.81,-94.4"/>
</g>
<!-- Node11 -->
<g id="node11" class="node">
<title>Node11</title>
<g id="a_node11"><a xlink:title=" ">
<polygon fill="white" stroke="#bfbfbf" points="342.66,-6.5 342.66,-26.5 423.67,-26.5 423.67,-6.5 342.66,-6.5"/>
<text text-anchor="middle" x="383.17" y="-13.5" font-family="Helvetica,sans-Serif" font-size="10.00">hate/visibility.h</text>
</a>
</g>
</g>
<!-- Node3&#45;&gt;Node11 -->
<g id="edge26" class="edge">
<title>Node3&#45;&gt;Node11</title>
<path fill="none" stroke="midnightblue" d="M566.46,-143.8C594.02,-138.94 628.35,-127.74 646.17,-102 654.52,-89.94 655.63,-80.2 646.17,-69 615.18,-32.34 479.86,-44.13 433.17,-33 428.77,-31.95 424.2,-30.73 419.68,-29.43"/>
<polygon fill="midnightblue" stroke="midnightblue" points="420.56,-26.04 409.97,-26.53 418.55,-32.75 420.56,-26.04"/>
</g>
<!-- Node14 -->
<g id="node14" class="node">
<title>Node14</title>
<g id="a_node14"><a xlink:href="traits_8h.html" target="_top" xlink:title=" ">
<polygon fill="white" stroke="black" points="693.33,-75.5 693.33,-95.5 781.01,-95.5 781.01,-75.5 693.33,-75.5"/>
<text text-anchor="middle" x="737.17" y="-82.5" font-family="Helvetica,sans-Serif" font-size="10.00">haldls/vx/traits.h</text>
</a>
</g>
</g>
<!-- Node3&#45;&gt;Node14 -->
<g id="edge16" class="edge">
<title>Node3&#45;&gt;Node14</title>
<path fill="none" stroke="midnightblue" d="M556.45,-138.5C593.48,-127.84 655.26,-110.07 696.11,-98.31"/>
<polygon fill="midnightblue" stroke="midnightblue" points="697.12,-101.67 705.76,-95.54 695.18,-94.94 697.12,-101.67"/>
</g>
<!-- Node9&#45;&gt;Node5 -->
<g id="edge13" class="edge">
<title>Node9&#45;&gt;Node5</title>
<path fill="none" stroke="midnightblue" d="M159.27,-75.47C132.71,-65.66 89.55,-49.21 53.17,-33 51.79,-32.39 50.39,-31.75 48.98,-31.09"/>
<polygon fill="midnightblue" stroke="midnightblue" points="50.27,-27.83 39.74,-26.63 47.22,-34.13 50.27,-27.83"/>
</g>
<!-- Node10 -->
<g id="node10" class="node">
<title>Node10</title>
<g id="a_node10"><a xlink:title=" ">
<polygon fill="white" stroke="#bfbfbf" points="241.54,-6.5 241.54,-26.5 324.79,-26.5 324.79,-6.5 241.54,-6.5"/>
<text text-anchor="middle" x="283.17" y="-13.5" font-family="Helvetica,sans-Serif" font-size="10.00">hate/type_list.h</text>
</a>
</g>
</g>
<!-- Node9&#45;&gt;Node10 -->
<g id="edge10" class="edge">
<title>Node9&#45;&gt;Node10</title>
<path fill="none" stroke="midnightblue" d="M197.52,-75.46C213.9,-64.38 241.91,-45.42 261.42,-32.22"/>
<polygon fill="midnightblue" stroke="midnightblue" points="263.39,-35.11 269.71,-26.61 259.47,-29.31 263.39,-35.11"/>
</g>
<!-- Node9&#45;&gt;Node11 -->
<g id="edge11" class="edge">
<title>Node9&#45;&gt;Node11</title>
<path fill="none" stroke="midnightblue" d="M211.01,-75.46C245.94,-63.7 307.17,-43.09 346.4,-29.88"/>
<polygon fill="midnightblue" stroke="midnightblue" points="347.76,-33.11 356.12,-26.61 345.53,-26.48 347.76,-33.11"/>
</g>
<!-- Node12 -->
<g id="node12" class="node">
<title>Node12</title>
<g id="a_node12"><a xlink:title=" ">
<polygon fill="white" stroke="#bfbfbf" points="178.72,-6.5 178.72,-26.5 223.62,-26.5 223.62,-6.5 178.72,-6.5"/>
<text text-anchor="middle" x="201.17" y="-13.5" font-family="Helvetica,sans-Serif" font-size="10.00">cstdint</text>
</a>
</g>
</g>
<!-- Node9&#45;&gt;Node12 -->
<g id="edge12" class="edge">
<title>Node9&#45;&gt;Node12</title>
<path fill="none" stroke="midnightblue" d="M186.46,-75.46C188.98,-65.53 193.1,-49.28 196.34,-36.52"/>
<polygon fill="midnightblue" stroke="midnightblue" points="199.74,-37.38 198.8,-26.82 192.95,-35.65 199.74,-37.38"/>
</g>
<!-- Node13 -->
<g id="node13" class="node">
<title>Node13</title>
<g id="a_node13"><a xlink:title=" ">
<polygon fill="white" stroke="#bfbfbf" points="62.05,-6.5 62.05,-26.5 160.29,-26.5 160.29,-6.5 62.05,-6.5"/>
<text text-anchor="middle" x="111.17" y="-13.5" font-family="Helvetica,sans-Serif" font-size="10.00">cereal/macros.hpp</text>
</a>
</g>
</g>
<!-- Node9&#45;&gt;Node13 -->
<g id="edge14" class="edge">
<title>Node9&#45;&gt;Node13</title>
<path fill="none" stroke="midnightblue" d="M174.32,-75.46C162.74,-64.83 143.29,-46.98 129.02,-33.89"/>
<polygon fill="midnightblue" stroke="midnightblue" points="131.06,-31.01 121.33,-26.82 126.33,-36.16 131.06,-31.01"/>
</g>
<!-- Node14&#45;&gt;Node2 -->
<g id="edge19" class="edge">
<title>Node14&#45;&gt;Node2</title>
<path fill="none" stroke="midnightblue" d="M781.19,-79.48C848.96,-71.46 982.75,-54.44 1095.17,-33 1101.52,-31.79 1108.2,-30.37 1114.75,-28.89"/>
<polygon fill="midnightblue" stroke="midnightblue" points="1115.92,-32.21 1124.87,-26.54 1114.34,-25.39 1115.92,-32.21"/>
</g>
<!-- Node14&#45;&gt;Node10 -->
<g id="edge20" class="edge">
<title>Node14&#45;&gt;Node10</title>
<path fill="none" stroke="midnightblue" d="M693.27,-76.53C678.35,-73.95 661.56,-71.19 646.17,-69 507.54,-49.24 470.19,-61.86 333.17,-33 328.47,-32.01 323.58,-30.77 318.78,-29.42"/>
<polygon fill="midnightblue" stroke="midnightblue" points="319.72,-26.05 309.14,-26.55 317.72,-32.76 319.72,-26.05"/>
</g>
<!-- Node14&#45;&gt;Node11 -->
<g id="edge21" class="edge">
<title>Node14&#45;&gt;Node11</title>
<path fill="none" stroke="midnightblue" d="M706.02,-75.47C697.37,-73.15 687.95,-70.81 679.17,-69 570.94,-46.7 540.93,-57.43 433.17,-33 428.71,-31.99 424.07,-30.78 419.5,-29.48"/>
<polygon fill="midnightblue" stroke="midnightblue" points="420.27,-26.06 409.69,-26.56 418.27,-32.77 420.27,-26.06"/>
</g>
<!-- Node15 -->
<g id="node15" class="node">
<title>Node15</title>
<g id="a_node15"><a xlink:title=" ">
<polygon fill="white" stroke="#bfbfbf" points="680.11,-6.5 680.11,-26.5 762.23,-26.5 762.23,-6.5 680.11,-6.5"/>
<text text-anchor="middle" x="721.17" y="-13.5" font-family="Helvetica,sans-Serif" font-size="10.00">fisch/vx/traits.h</text>
</a>
</g>
</g>
<!-- Node14&#45;&gt;Node15 -->
<g id="edge17" class="edge">
<title>Node14&#45;&gt;Node15</title>
<path fill="none" stroke="midnightblue" d="M735.01,-75.46C732.66,-65.63 728.84,-49.61 725.8,-36.9"/>
<polygon fill="midnightblue" stroke="midnightblue" points="729.12,-35.74 723.39,-26.82 722.31,-37.36 729.12,-35.74"/>
</g>
<!-- Node16 -->
<g id="node16" class="node">
<title>Node16</title>
<g id="a_node16"><a xlink:title=" ">
<polygon fill="white" stroke="#bfbfbf" points="779.94,-0.5 779.94,-32.5 890.4,-32.5 890.4,-0.5 779.94,-0.5"/>
<text text-anchor="start" x="787.94" y="-19.5" font-family="Helvetica,sans-Serif" font-size="10.00">fisch/vx/word_access</text>
<text text-anchor="middle" x="835.17" y="-7.5" font-family="Helvetica,sans-Serif" font-size="10.00">_type.h</text>
</a>
</g>
</g>
<!-- Node14&#45;&gt;Node16 -->
<g id="edge18" class="edge">
<title>Node14&#45;&gt;Node16</title>
<path fill="none" stroke="midnightblue" d="M750.38,-75.46C764.21,-66.01 786.4,-50.84 804.61,-38.39"/>
<polygon fill="midnightblue" stroke="midnightblue" points="806.9,-41.07 813.18,-32.53 802.95,-35.29 806.9,-41.07"/>
</g>
<!-- Node17 -->
<g id="node17" class="node">
<title>Node17</title>
<g id="a_node17"><a xlink:title=" ">
<polygon fill="white" stroke="#bfbfbf" points="908.11,-6.5 908.11,-26.5 970.23,-26.5 970.23,-6.5 908.11,-6.5"/>
<text text-anchor="middle" x="939.17" y="-13.5" font-family="Helvetica,sans-Serif" font-size="10.00">type_traits</text>
</a>
</g>
</g>
<!-- Node14&#45;&gt;Node17 -->
<g id="edge22" class="edge">
<title>Node14&#45;&gt;Node17</title>
<path fill="none" stroke="midnightblue" d="M767.51,-75.47C800.2,-65.59 853.66,-49.03 899.17,-33 901.71,-32.1 904.34,-31.15 906.98,-30.17"/>
<polygon fill="midnightblue" stroke="midnightblue" points="908.3,-33.41 916.41,-26.6 905.82,-26.87 908.3,-33.41"/>
</g>
<!-- Node18 -->
<g id="node18" class="node">
<title>Node18</title>
<g id="a_node18"><a xlink:title=" ">
<polygon fill="white" stroke="#bfbfbf" points="987.77,-0.5 987.77,-32.5 1086.57,-32.5 1086.57,-0.5 987.77,-0.5"/>
<text text-anchor="start" x="995.77" y="-19.5" font-family="Helvetica,sans-Serif" font-size="10.00">boost/utility/enable</text>
<text text-anchor="middle" x="1037.17" y="-7.5" font-family="Helvetica,sans-Serif" font-size="10.00">_if.hpp</text>
</a>
</g>
</g>
<!-- Node14&#45;&gt;Node18 -->
<g id="edge23" class="edge">
<title>Node14&#45;&gt;Node18</title>
<path fill="none" stroke="midnightblue" d="M781.04,-75.87C827.55,-66.56 903.38,-50.95 977.56,-33.33"/>
<polygon fill="midnightblue" stroke="midnightblue" points="978.62,-36.67 987.54,-30.94 977,-29.86 978.62,-36.67"/>
</g>
<!-- Node19 -->
<g id="node19" class="node">
<title>Node19</title>
<g id="a_node19"><a xlink:title=" ">
<polygon fill="white" stroke="#bfbfbf" points="441.82,-6.5 441.82,-26.5 534.51,-26.5 534.51,-6.5 441.82,-6.5"/>
<text text-anchor="middle" x="488.17" y="-13.5" font-family="Helvetica,sans-Serif" font-size="10.00">boost/variant.hpp</text>
</a>
</g>
</g>
<!-- Node14&#45;&gt;Node19 -->
<g id="edge24" class="edge">
<title>Node14&#45;&gt;Node19</title>
<path fill="none" stroke="midnightblue" d="M703.43,-75.47C695.48,-73.34 687.02,-71.09 679.17,-69 618.74,-52.93 603.48,-49.48 543.17,-33 538.8,-31.81 534.24,-30.54 529.69,-29.28"/>
<polygon fill="midnightblue" stroke="midnightblue" points="530.42,-25.85 519.85,-26.52 528.53,-32.59 530.42,-25.85"/>
</g>
<!-- Node20 -->
<g id="node20" class="node">
<title>Node20</title>
<g id="a_node20"><a xlink:title=" ">
<polygon fill="white" stroke="#bfbfbf" points="552.21,-6.5 552.21,-26.5 662.12,-26.5 662.12,-6.5 552.21,-6.5"/>
<text text-anchor="middle" x="607.17" y="-13.5" font-family="Helvetica,sans-Serif" font-size="10.00">fisch/vx/container.def</text>
</a>
</g>
</g>
<!-- Node14&#45;&gt;Node20 -->
<g id="edge25" class="edge">
<title>Node14&#45;&gt;Node20</title>
<path fill="none" stroke="midnightblue" d="M719.64,-75.46C697.63,-64.13 659.68,-44.56 634.01,-31.34"/>
<polygon fill="midnightblue" stroke="midnightblue" points="635.33,-28.08 624.84,-26.61 632.12,-34.3 635.33,-28.08"/>
</g>
</g>
</svg>
        <g id="navigator" transform="translate(0 0)" fill="#404254">
                <rect fill="#f2f5e9" fill-opacity="0.5" stroke="#606060" stroke-width=".5" x="0" y="0" width="60" height="60"/>
                <use id="zoomplus" xlink:href="#zoomPlus" x="17" y="9" onmousedown="handleZoom(evt,'in')"/>
                <use id="zoomminus" xlink:href="#zoomMin" x="42" y="9" onmousedown="handleZoom(evt,'out')"/>
                <use id="reset" xlink:href="#resetDef" x="30" y="36" onmousedown="handleReset()"/>
                <g id="arrowUp" xlink:href="#dirArrow" transform="translate(30 24)" onmousedown="handlePan(0,-1)">
                  <use xlink:href="#rim" fill="#404040">
                        <set attributeName="fill" to="#808080" begin="arrowUp.mouseover" end="arrowUp.mouseout"/>
                  </use>
                  <path fill="none" stroke="white" stroke-width="1.5" d="M0,-3.0v7 M-2.5,-0.5L0,-3.0L2.5,-0.5"/>
                </g>
                <g id="arrowRight" xlink:href="#dirArrow" transform="rotate(90) translate(36 -43)" onmousedown="handlePan(1,0)">
                  <use xlink:href="#rim" fill="#404040">
                        <set attributeName="fill" to="#808080" begin="arrowRight.mouseover" end="arrowRight.mouseout"/>
                  </use>
                  <path fill="none" stroke="white" stroke-width="1.5" d="M0,-3.0v7 M-2.5,-0.5L0,-3.0L2.5,-0.5"/>
                </g>
                <g id="arrowDown" xlink:href="#dirArrow" transform="rotate(180) translate(-30 -48)" onmousedown="handlePan(0,1)">
                  <use xlink:href="#rim" fill="#404040">
                        <set attributeName="fill" to="#808080" begin="arrowDown.mouseover" end="arrowDown.mouseout"/>
                  </use>
                  <path fill="none" stroke="white" stroke-width="1.5" d="M0,-3.0v7 M-2.5,-0.5L0,-3.0L2.5,-0.5"/>
                </g>
                <g id="arrowLeft" xlink:href="#dirArrow" transform="rotate(270) translate(-36 17)" onmousedown="handlePan(-1,0)">
                  <use xlink:href="#rim" fill="#404040">
                        <set attributeName="fill" to="#808080" begin="arrowLeft.mouseover" end="arrowLeft.mouseout"/>
                  </use>
                  <path fill="none" stroke="white" stroke-width="1.5" d="M0,-3.0v7 M-2.5,-0.5L0,-3.0L2.5,-0.5"/>
                </g>
        </g>
        <svg viewBox="0 0 15 15" width="100%" height="30px" preserveAspectRatio="xMaxYMin meet">
         <g id="arrow_out" transform="scale(0.3 0.3)">
          <a xlink:href="v3_2phy_8h__incl_org.svg" target="_base">
           <rect id="button" ry="5" rx="5" y="6" x="6" height="38" width="38"
                fill="#f2f5e9" fill-opacity="0.5" stroke="#606060" stroke-width="1.0"/>
           <path id="arrow"
             d="M 11.500037,31.436501 C 11.940474,20.09759 22.043105,11.32322 32.158766,21.979434 L 37.068811,17.246167 C 37.068811,17.246167 37.088388,32 37.088388,32 L 22.160133,31.978069 C 22.160133,31.978069 26.997745,27.140456 26.997745,27.140456 C 18.528582,18.264221 13.291696,25.230495 11.500037,31.436501 z"
             style="fill:#404040;"/>
          </a>
         </g>
        </svg>
</svg>
