<?xml version="1.0" encoding="UTF-8" standalone="no"?>
<!DOCTYPE svg PUBLIC "-//W3C//DTD SVG 1.1//EN"
 "http://www.w3.org/Graphics/SVG/1.1/DTD/svg11.dtd">
<!-- Generated by graphviz version 2.46.0 (0)
 -->
<!-- Title: /jenkins/jenlib_workspaces_f9/bld_nightly&#45;haldls.YmxkX25pZ2h0bHktaGFsZGxzIzEzNzk.x/haldls/include/lola/vx/capmem.h Pages: 1 -->
<!--zoomable 191 -->
<svg id="main" version="1.1" xmlns="http://www.w3.org/2000/svg" xmlns:xlink="http://www.w3.org/1999/xlink" xml:space="preserve" onload="init(evt)">
<style type="text/css"><![CDATA[
.edge:hover path { stroke: red; }
.edge:hover polygon { stroke: red; fill: red; }
]]></style>
<script type="text/javascript"><![CDATA[
var edges = document.getElementsByTagName('g');
if (edges && edges.length) {
  for (var i=0;i<edges.length;i++) {
    if (edges[i].id.substr(0,4)=='edge') {
      edges[i].setAttribute('class','edge');
    }
  }
}
]]></script>
        <defs>
                <circle id="rim" cx="0" cy="0" r="7"/>
                <circle id="rim2" cx="0" cy="0" r="3.5"/>
                <g id="zoomPlus">
                        <use xlink:href="#rim" fill="#404040">
                                <set attributeName="fill" to="#808080" begin="zoomplus.mouseover" end="zoomplus.mouseout"/>
                        </use>
                        <path d="M-4,0h8M0,-4v8" fill="none" stroke="white" stroke-width="1.5" pointer-events="none"/>
                </g>
                <g id="zoomMin">
                        <use xlink:href="#rim" fill="#404040">
                                <set attributeName="fill" to="#808080" begin="zoomminus.mouseover" end="zoomminus.mouseout"/>
                        </use>
                        <path d="M-4,0h8" fill="none" stroke="white" stroke-width="1.5" pointer-events="none"/>
                </g>
                <g id="dirArrow">
                        <path fill="none" stroke="white" stroke-width="1.5" d="M0,-3.0v7 M-2.5,-0.5L0,-3.0L2.5,-0.5"/>
                </g>
               <g id="resetDef">
                       <use xlink:href="#rim2" fill="#404040">
                               <set attributeName="fill" to="#808080" begin="reset.mouseover" end="reset.mouseout"/>
                       </use>
               </g>
        </defs>

<script type="text/javascript">
var viewWidth = 1181;
var viewHeight = 191;
var sectionId = 'dynsection-0';
</script>
<script xlink:href="svgpan.js"/>
<svg id="graph" class="graph">
<g id="viewport">
<title>/jenkins/jenlib_workspaces_f9/bld_nightly&#45;haldls.YmxkX25pZ2h0bHktaGFsZGxzIzEzNzk.x/haldls/include/lola/vx/capmem.h</title>
<polygon fill="white" stroke="transparent" points="-4,4 -4,-187 1177.17,-187 1177.17,4 -4,4"/>
<!-- Node1 -->
<g id="node1" class="node">
<title>Node1</title>
<g id="a_node1"><a xlink:title=" ">
<polygon fill="#bfbfbf" stroke="black" points="543.16,-126.5 543.16,-182.5 724.18,-182.5 724.18,-126.5 543.16,-126.5"/>
<text text-anchor="start" x="551.16" y="-169.5" font-family="Helvetica,sans-Serif" font-size="10.00">/jenkins/jenlib_workspaces</text>
<text text-anchor="start" x="551.16" y="-157.5" font-family="Helvetica,sans-Serif" font-size="10.00">_f9/bld_nightly&#45;haldls.YmxkX25p</text>
<text text-anchor="start" x="551.16" y="-145.5" font-family="Helvetica,sans-Serif" font-size="10.00">Z2h0bHktaGFsZGxzIzEzNzk.x/haldls</text>
<text text-anchor="middle" x="633.67" y="-133.5" font-family="Helvetica,sans-Serif" font-size="10.00">/include/lola/vx/capmem.h</text>
</a>
</g>
</g>
<!-- Node2 -->
<g id="node2" class="node">
<title>Node2</title>
<g id="a_node2"><a xlink:title=" ">
<polygon fill="white" stroke="#bfbfbf" points="0,-57.5 0,-89.5 149.34,-89.5 149.34,-57.5 0,-57.5"/>
<text text-anchor="start" x="8" y="-76.5" font-family="Helvetica,sans-Serif" font-size="10.00">haldlsID(/)vxID(/)vID</text>
<text text-anchor="middle" x="74.67" y="-64.5" font-family="Helvetica,sans-Serif" font-size="10.00">(CHIP_REVISION)/capmem.h</text>
</a>
</g>
</g>
<!-- Node1&#45;&gt;Node2 -->
<g id="edge1" class="edge">
<title>Node1&#45;&gt;Node2</title>
<path fill="none" stroke="midnightblue" d="M542.86,-142.72C449.36,-131.31 299.22,-112.12 159.76,-90.13"/>
<polygon fill="midnightblue" stroke="midnightblue" points="160.17,-86.65 149.74,-88.54 159.07,-93.57 160.17,-86.65"/>
</g>
<!-- Node3 -->
<g id="node3" class="node">
<title>Node3</title>
<g id="a_node3"><a xlink:title=" ">
<polygon fill="white" stroke="#bfbfbf" points="167.55,-57.5 167.55,-89.5 315.79,-89.5 315.79,-57.5 167.55,-57.5"/>
<text text-anchor="start" x="175.55" y="-76.5" font-family="Helvetica,sans-Serif" font-size="10.00">haldlsID(/)vxID(/)vID</text>
<text text-anchor="middle" x="241.67" y="-64.5" font-family="Helvetica,sans-Serif" font-size="10.00">(CHIP_REVISION)/synapse.h</text>
</a>
</g>
</g>
<!-- Node1&#45;&gt;Node3 -->
<g id="edge2" class="edge">
<title>Node1&#45;&gt;Node3</title>
<path fill="none" stroke="midnightblue" d="M542.75,-135.18C477.38,-122 389.86,-104.37 326.04,-91.5"/>
<polygon fill="midnightblue" stroke="midnightblue" points="326.5,-88.03 316.01,-89.48 325.12,-94.89 326.5,-88.03"/>
</g>
<!-- Node4 -->
<g id="node4" class="node">
<title>Node4</title>
<g id="a_node4"><a xlink:title=" ">
<polygon fill="white" stroke="#bfbfbf" points="333.55,-57.5 333.55,-89.5 441.79,-89.5 441.79,-57.5 333.55,-57.5"/>
<text text-anchor="start" x="341.55" y="-76.5" font-family="Helvetica,sans-Serif" font-size="10.00">halco/common/typed</text>
<text text-anchor="middle" x="387.67" y="-64.5" font-family="Helvetica,sans-Serif" font-size="10.00">_array.h</text>
</a>
</g>
</g>
<!-- Node1&#45;&gt;Node4 -->
<g id="edge3" class="edge">
<title>Node1&#45;&gt;Node4</title>
<path fill="none" stroke="midnightblue" d="M549.35,-126.42C514.71,-115.3 475.52,-102.71 444.39,-92.72"/>
<polygon fill="midnightblue" stroke="midnightblue" points="445.18,-89.29 434.59,-89.57 443.04,-95.96 445.18,-89.29"/>
</g>
<!-- Node5 -->
<g id="node5" class="node">
<title>Node5</title>
<g id="a_node5"><a xlink:title=" ">
<polygon fill="white" stroke="#bfbfbf" points="460.16,-57.5 460.16,-89.5 561.18,-89.5 561.18,-57.5 460.16,-57.5"/>
<text text-anchor="start" x="468.16" y="-76.5" font-family="Helvetica,sans-Serif" font-size="10.00">halco/hicann&#45;dls/vx</text>
<text text-anchor="middle" x="510.67" y="-64.5" font-family="Helvetica,sans-Serif" font-size="10.00">/capmem.h</text>
</a>
</g>
</g>
<!-- Node1&#45;&gt;Node5 -->
<g id="edge4" class="edge">
<title>Node1&#45;&gt;Node5</title>
<path fill="none" stroke="midnightblue" d="M591.34,-126.31C575.46,-116.11 557.68,-104.69 542.86,-95.18"/>
<polygon fill="midnightblue" stroke="midnightblue" points="544.37,-91.98 534.06,-89.52 540.58,-97.87 544.37,-91.98"/>
</g>
<!-- Node6 -->
<g id="node6" class="node">
<title>Node6</title>
<g id="a_node6"><a xlink:title=" ">
<polygon fill="white" stroke="#bfbfbf" points="578.99,-63.5 578.99,-83.5 688.34,-83.5 688.34,-63.5 578.99,-63.5"/>
<text text-anchor="middle" x="633.67" y="-70.5" font-family="Helvetica,sans-Serif" font-size="10.00">haldls/cerealization.h</text>
</a>
</g>
</g>
<!-- Node1&#45;&gt;Node6 -->
<g id="edge5" class="edge">
<title>Node1&#45;&gt;Node6</title>
<path fill="none" stroke="midnightblue" d="M633.67,-126.31C633.67,-115.66 633.67,-103.68 633.67,-93.93"/>
<polygon fill="midnightblue" stroke="midnightblue" points="637.17,-93.71 633.67,-83.71 630.17,-93.71 637.17,-93.71"/>
</g>
<!-- Node7 -->
<g id="node7" class="node">
<title>Node7</title>
<g id="a_node7"><a xlink:title=" ">
<polygon fill="white" stroke="#bfbfbf" points="706.17,-63.5 706.17,-83.5 787.17,-83.5 787.17,-63.5 706.17,-63.5"/>
<text text-anchor="middle" x="746.67" y="-70.5" font-family="Helvetica,sans-Serif" font-size="10.00">hate/visibility.h</text>
</a>
</g>
</g>
<!-- Node1&#45;&gt;Node7 -->
<g id="edge6" class="edge">
<title>Node1&#45;&gt;Node7</title>
<path fill="none" stroke="midnightblue" d="M672.56,-126.31C690.21,-113.97 710.42,-99.84 725.27,-89.46"/>
<polygon fill="midnightblue" stroke="midnightblue" points="727.57,-92.13 733.76,-83.53 723.55,-86.39 727.57,-92.13"/>
</g>
<!-- Node8 -->
<g id="node8" class="node">
<title>Node8</title>
<g id="a_node8"><a xlink:href="cerealization_8h.html" target="_top" xlink:title=" ">
<polygon fill="white" stroke="black" points="804.88,-63.5 804.88,-83.5 916.45,-83.5 916.45,-63.5 804.88,-63.5"/>
<text text-anchor="middle" x="860.67" y="-70.5" font-family="Helvetica,sans-Serif" font-size="10.00">lola/vx/cerealization.h</text>
</a>
</g>
</g>
<!-- Node1&#45;&gt;Node8 -->
<g id="edge7" class="edge">
<title>Node1&#45;&gt;Node8</title>
<path fill="none" stroke="midnightblue" d="M711.47,-126.42C749.98,-113.02 794.6,-97.49 824.94,-86.93"/>
<polygon fill="midnightblue" stroke="midnightblue" points="826.36,-90.15 834.65,-83.55 824.06,-83.54 826.36,-90.15"/>
</g>
<!-- Node12 -->
<g id="node12" class="node">
<title>Node12</title>
<g id="a_node12"><a xlink:href="genpybind_8h.html" target="_top" xlink:title=" ">
<polygon fill="white" stroke="black" points="934.88,-63.5 934.88,-83.5 1036.46,-83.5 1036.46,-63.5 934.88,-63.5"/>
<text text-anchor="middle" x="985.67" y="-70.5" font-family="Helvetica,sans-Serif" font-size="10.00">lola/vx/genpybind.h</text>
</a>
</g>
</g>
<!-- Node1&#45;&gt;Node12 -->
<g id="edge11" class="edge">
<title>Node1&#45;&gt;Node12</title>
<path fill="none" stroke="midnightblue" d="M724.3,-134.73C782.06,-122.54 858.41,-105.99 925.67,-90 930.97,-88.74 936.52,-87.37 942.01,-85.99"/>
<polygon fill="midnightblue" stroke="midnightblue" points="942.95,-89.36 951.77,-83.5 941.22,-82.58 942.95,-89.36"/>
</g>
<!-- Node13 -->
<g id="node13" class="node">
<title>Node13</title>
<g id="a_node13"><a xlink:title=" ">
<polygon fill="white" stroke="#bfbfbf" points="1072.16,-63.5 1072.16,-83.5 1173.17,-83.5 1173.17,-63.5 1072.16,-63.5"/>
<text text-anchor="middle" x="1122.67" y="-70.5" font-family="Helvetica,sans-Serif" font-size="10.00">lola/vx/capmem.tcc</text>
</a>
</g>
</g>
<!-- Node1&#45;&gt;Node13 -->
<g id="edge13" class="edge">
<title>Node1&#45;&gt;Node13</title>
<path fill="none" stroke="midnightblue" d="M724.36,-143.06C811.73,-132.31 947.41,-113.78 1063.67,-90 1069.38,-88.83 1075.37,-87.45 1081.25,-85.99"/>
<polygon fill="midnightblue" stroke="midnightblue" points="1082.15,-89.38 1090.97,-83.51 1080.42,-82.6 1082.15,-89.38"/>
</g>
<!-- Node9 -->
<g id="node9" class="node">
<title>Node9</title>
<g id="a_node9"><a xlink:title=" ">
<polygon fill="white" stroke="#bfbfbf" points="737.61,-0.5 737.61,-20.5 799.73,-20.5 799.73,-0.5 737.61,-0.5"/>
<text text-anchor="middle" x="768.67" y="-7.5" font-family="Helvetica,sans-Serif" font-size="10.00">type_traits</text>
</a>
</g>
</g>
<!-- Node8&#45;&gt;Node9 -->
<g id="edge8" class="edge">
<title>Node8&#45;&gt;Node9</title>
<path fill="none" stroke="midnightblue" d="M847.09,-63.5C832.28,-53.68 808.34,-37.81 790.8,-26.18"/>
<polygon fill="midnightblue" stroke="midnightblue" points="792.57,-23.15 782.3,-20.54 788.7,-28.98 792.57,-23.15"/>
</g>
<!-- Node10 -->
<g id="node10" class="node">
<title>Node10</title>
<g id="a_node10"><a xlink:title=" ">
<polygon fill="white" stroke="#bfbfbf" points="818.21,-0.5 818.21,-20.5 903.13,-20.5 903.13,-0.5 818.21,-0.5"/>
<text text-anchor="middle" x="860.67" y="-7.5" font-family="Helvetica,sans-Serif" font-size="10.00">boost/hana.hpp</text>
</a>
</g>
</g>
<!-- Node8&#45;&gt;Node10 -->
<g id="edge9" class="edge">
<title>Node8&#45;&gt;Node10</title>
<path fill="none" stroke="midnightblue" d="M860.67,-63.5C860.67,-54.94 860.67,-41.78 860.67,-30.85"/>
<polygon fill="midnightblue" stroke="midnightblue" points="864.17,-30.54 860.67,-20.54 857.17,-30.54 864.17,-30.54"/>
</g>
<!-- Node11 -->
<g id="node11" class="node">
<title>Node11</title>
<g id="a_node11"><a xlink:title=" ">
<polygon fill="white" stroke="#bfbfbf" points="921.55,-0.5 921.55,-20.5 1019.79,-20.5 1019.79,-0.5 921.55,-0.5"/>
<text text-anchor="middle" x="970.67" y="-7.5" font-family="Helvetica,sans-Serif" font-size="10.00">cereal/macros.hpp</text>
</a>
</g>
</g>
<!-- Node8&#45;&gt;Node11 -->
<g id="edge10" class="edge">
<title>Node8&#45;&gt;Node11</title>
<path fill="none" stroke="midnightblue" d="M876.9,-63.5C894.93,-53.5 924.29,-37.22 945.35,-25.54"/>
<polygon fill="midnightblue" stroke="midnightblue" points="947.32,-28.45 954.37,-20.54 943.93,-22.33 947.32,-28.45"/>
</g>
<!-- Node12&#45;&gt;Node12 -->
<g id="edge12" class="edge">
<title>Node12&#45;&gt;Node12</title>
<path fill="none" stroke="midnightblue" d="M1012.14,-83.56C1033.03,-87.45 1054.46,-84.1 1054.46,-73.5 1054.46,-64.64 1039.48,-60.85 1022.37,-62.11"/>
<polygon fill="midnightblue" stroke="midnightblue" points="1021.61,-58.68 1012.14,-63.44 1022.51,-65.62 1021.61,-58.68"/>
</g>
</g>
</svg>
        <g id="navigator" transform="translate(0 0)" fill="#404254">
                <rect fill="#f2f5e9" fill-opacity="0.5" stroke="#606060" stroke-width=".5" x="0" y="0" width="60" height="60"/>
                <use id="zoomplus" xlink:href="#zoomPlus" x="17" y="9" onmousedown="handleZoom(evt,'in')"/>
                <use id="zoomminus" xlink:href="#zoomMin" x="42" y="9" onmousedown="handleZoom(evt,'out')"/>
                <use id="reset" xlink:href="#resetDef" x="30" y="36" onmousedown="handleReset()"/>
                <g id="arrowUp" xlink:href="#dirArrow" transform="translate(30 24)" onmousedown="handlePan(0,-1)">
                  <use xlink:href="#rim" fill="#404040">
                        <set attributeName="fill" to="#808080" begin="arrowUp.mouseover" end="arrowUp.mouseout"/>
                  </use>
                  <path fill="none" stroke="white" stroke-width="1.5" d="M0,-3.0v7 M-2.5,-0.5L0,-3.0L2.5,-0.5"/>
                </g>
                <g id="arrowRight" xlink:href="#dirArrow" transform="rotate(90) translate(36 -43)" onmousedown="handlePan(1,0)">
                  <use xlink:href="#rim" fill="#404040">
                        <set attributeName="fill" to="#808080" begin="arrowRight.mouseover" end="arrowRight.mouseout"/>
                  </use>
                  <path fill="none" stroke="white" stroke-width="1.5" d="M0,-3.0v7 M-2.5,-0.5L0,-3.0L2.5,-0.5"/>
                </g>
                <g id="arrowDown" xlink:href="#dirArrow" transform="rotate(180) translate(-30 -48)" onmousedown="handlePan(0,1)">
                  <use xlink:href="#rim" fill="#404040">
                        <set attributeName="fill" to="#808080" begin="arrowDown.mouseover" end="arrowDown.mouseout"/>
                  </use>
                  <path fill="none" stroke="white" stroke-width="1.5" d="M0,-3.0v7 M-2.5,-0.5L0,-3.0L2.5,-0.5"/>
                </g>
                <g id="arrowLeft" xlink:href="#dirArrow" transform="rotate(270) translate(-36 17)" onmousedown="handlePan(-1,0)">
                  <use xlink:href="#rim" fill="#404040">
                        <set attributeName="fill" to="#808080" begin="arrowLeft.mouseover" end="arrowLeft.mouseout"/>
                  </use>
                  <path fill="none" stroke="white" stroke-width="1.5" d="M0,-3.0v7 M-2.5,-0.5L0,-3.0L2.5,-0.5"/>
                </g>
        </g>
        <svg viewBox="0 0 15 15" width="100%" height="30px" preserveAspectRatio="xMaxYMin meet">
         <g id="arrow_out" transform="scale(0.3 0.3)">
          <a xlink:href="capmem_8h__incl_org.svg" target="_base">
           <rect id="button" ry="5" rx="5" y="6" x="6" height="38" width="38"
                fill="#f2f5e9" fill-opacity="0.5" stroke="#606060" stroke-width="1.0"/>
           <path id="arrow"
             d="M 11.500037,31.436501 C 11.940474,20.09759 22.043105,11.32322 32.158766,21.979434 L 37.068811,17.246167 C 37.068811,17.246167 37.088388,32 37.088388,32 L 22.160133,31.978069 C 22.160133,31.978069 26.997745,27.140456 26.997745,27.140456 C 18.528582,18.264221 13.291696,25.230495 11.500037,31.436501 z"
             style="fill:#404040;"/>
          </a>
         </g>
        </svg>
</svg>
