<?xml version="1.0" encoding="UTF-8" standalone="no"?>
<!DOCTYPE svg PUBLIC "-//W3C//DTD SVG 1.1//EN"
 "http://www.w3.org/Graphics/SVG/1.1/DTD/svg11.dtd">
<!-- Generated by graphviz version 2.46.0 (0)
 -->
<!-- Title: GENPYBIND_TAG_LOLA_VX_VY::CADCReadoutChain Pages: 1 -->
<svg width="429pt" height="104pt"
 viewBox="0.00 0.00 428.84 104.00" xmlns="http://www.w3.org/2000/svg" xmlns:xlink="http://www.w3.org/1999/xlink">
<g id="graph0" class="graph" transform="scale(1 1) rotate(0) translate(4 100)">
<title>GENPYBIND_TAG_LOLA_VX_VY::CADCReadoutChain</title>
<polygon fill="white" stroke="transparent" points="-4,4 -4,-100 424.84,-100 424.84,4 -4,4"/>
<!-- Node1 -->
<g id="node1" class="node">
<title>Node1</title>
<g id="a_node1"><a xlink:title="Configuration container for CADC and correlation/neuron&#45;readout related settings.">
<polygon fill="#bfbfbf" stroke="black" points="269.26,-28.5 269.26,-60.5 420.84,-60.5 420.84,-28.5 269.26,-28.5"/>
<text text-anchor="start" x="277.26" y="-47.5" font-family="Helvetica,sans-Serif" font-size="10.00">GENPYBIND_TAG_LOLA</text>
<text text-anchor="middle" x="345.05" y="-35.5" font-family="Helvetica,sans-Serif" font-size="10.00">_VX_VY::CADCReadoutChain</text>
</a>
</g>
</g>
<!-- Node2 -->
<g id="node2" class="node">
<title>Node2</title>
<g id="a_node2"><a xlink:href="struct_g_e_n_p_y_b_i_n_d___t_a_g___l_o_l_a___v_x___v_y_1_1_c_a_d_c_readout_chain_1_1_correlation.html" target="_top" xlink:title="Synapses&#39; correlation settings, affecting correlation reset, measurement and readout,...">
<polygon fill="white" stroke="black" points="16.11,-51.5 16.11,-95.5 167.7,-95.5 167.7,-51.5 16.11,-51.5"/>
<text text-anchor="start" x="24.11" y="-82.5" font-family="Helvetica,sans-Serif" font-size="10.00">GENPYBIND_TAG_LOLA</text>
<text text-anchor="start" x="24.11" y="-70.5" font-family="Helvetica,sans-Serif" font-size="10.00">_VX_VY::CADCReadoutChain</text>
<text text-anchor="middle" x="91.9" y="-58.5" font-family="Helvetica,sans-Serif" font-size="10.00">::Correlation</text>
</a>
</g>
</g>
<!-- Node2&#45;&gt;Node1 -->
<g id="edge1" class="edge">
<title>Node2&#45;&gt;Node1</title>
<path fill="none" stroke="#9a32cd" stroke-dasharray="5,2" d="M178.19,-63.65C207.65,-60.25 240.41,-56.47 268.99,-53.17"/>
<polygon fill="#9a32cd" stroke="#9a32cd" points="177.45,-60.21 167.92,-64.84 178.25,-67.17 177.45,-60.21"/>
<text text-anchor="middle" x="226.53" y="-63.5" font-family="Helvetica,sans-Serif" font-size="10.00"> correlation</text>
</g>
<!-- Node3 -->
<g id="node3" class="node">
<title>Node3</title>
<g id="a_node3"><a xlink:href="class_g_e_n_p_y_b_i_n_d___t_a_g___l_o_l_a___v_x___v_y_1_1_c_a_d_c_readout_chain_1_1_ramp.html" target="_top" xlink:title="CADC ramp generation settings.">
<polygon fill="white" stroke="black" points="0,-0.5 0,-32.5 183.81,-32.5 183.81,-0.5 0,-0.5"/>
<text text-anchor="start" x="8" y="-19.5" font-family="Helvetica,sans-Serif" font-size="10.00">GENPYBIND_TAG_LOLA</text>
<text text-anchor="middle" x="91.9" y="-7.5" font-family="Helvetica,sans-Serif" font-size="10.00">_VX_VY::CADCReadoutChain::Ramp</text>
</a>
</g>
</g>
<!-- Node3&#45;&gt;Node1 -->
<g id="edge2" class="edge">
<title>Node3&#45;&gt;Node1</title>
<path fill="none" stroke="#9a32cd" stroke-dasharray="5,2" d="M194.18,-27.79C219.18,-30.58 245.51,-33.51 269.01,-36.13"/>
<polygon fill="#9a32cd" stroke="#9a32cd" points="194.26,-24.28 183.93,-26.65 193.48,-31.23 194.26,-24.28"/>
<text text-anchor="middle" x="226.53" y="-36.5" font-family="Helvetica,sans-Serif" font-size="10.00"> ramp</text>
</g>
</g>
</svg>
