<?xml version="1.0" encoding="UTF-8" standalone="no"?>
<!DOCTYPE svg PUBLIC "-//W3C//DTD SVG 1.1//EN"
 "http://www.w3.org/Graphics/SVG/1.1/DTD/svg11.dtd">
<!-- Generated by graphviz version 2.46.0 (0)
 -->
<!-- Title: lola::vx::v2::AtomicNeuron Pages: 1 -->
<svg width="418pt" height="683pt"
 viewBox="0.00 0.00 417.73 683.00" xmlns="http://www.w3.org/2000/svg" xmlns:xlink="http://www.w3.org/1999/xlink">
<g id="graph0" class="graph" transform="scale(1 1) rotate(0) translate(4 679)">
<title>lola::vx::v2::AtomicNeuron</title>
<polygon fill="white" stroke="transparent" points="-4,4 -4,-679 413.73,-679 413.73,4 -4,4"/>
<!-- Node1 -->
<g id="node1" class="node">
<title>Node1</title>
<g id="a_node1"><a xlink:title="Configuration of digital and analog parameters for a single&#45;denmem neuron.">
<polygon fill="#bfbfbf" stroke="black" points="277.6,-304.5 277.6,-324.5 409.73,-324.5 409.73,-304.5 277.6,-304.5"/>
<text text-anchor="middle" x="343.66" y="-311.5" font-family="Helvetica,sans-Serif" font-size="10.00">lola::vx::v2::AtomicNeuron</text>
</a>
</g>
</g>
<!-- Node2 -->
<g id="node2" class="node">
<title>Node2</title>
<g id="a_node2"><a xlink:href="structlola_1_1vx_1_1v2_1_1_atomic_neuron_1_1_refractory_period.html" target="_top" xlink:title=" ">
<polygon fill="white" stroke="black" points="0,-642.5 0,-674.5 132.13,-674.5 132.13,-642.5 0,-642.5"/>
<text text-anchor="start" x="8" y="-661.5" font-family="Helvetica,sans-Serif" font-size="10.00">lola::vx::v2::AtomicNeuron</text>
<text text-anchor="middle" x="66.06" y="-649.5" font-family="Helvetica,sans-Serif" font-size="10.00">::RefractoryPeriod</text>
</a>
</g>
</g>
<!-- Node2&#45;&gt;Node1 -->
<g id="edge1" class="edge">
<title>Node2&#45;&gt;Node1</title>
<path fill="none" stroke="#9a32cd" stroke-dasharray="5,2" d="M142.55,-662.07C182.04,-659.89 228.5,-650.36 259.6,-621.5 305.23,-579.15 334.92,-373.2 341.35,-324.73"/>
<polygon fill="#9a32cd" stroke="#9a32cd" points="142.26,-658.58 132.41,-662.48 142.55,-665.57 142.26,-658.58"/>
<text text-anchor="middle" x="204.86" y="-663.5" font-family="Helvetica,sans-Serif" font-size="10.00"> refractory_period</text>
</g>
<!-- Node3 -->
<g id="node3" class="node">
<title>Node3</title>
<g id="a_node3"><a xlink:href="structlola_1_1vx_1_1v2_1_1_atomic_neuron_1_1_reset.html" target="_top" xlink:title=" ">
<polygon fill="white" stroke="black" points="0,-591.5 0,-623.5 132.13,-623.5 132.13,-591.5 0,-591.5"/>
<text text-anchor="start" x="8" y="-610.5" font-family="Helvetica,sans-Serif" font-size="10.00">lola::vx::v2::AtomicNeuron</text>
<text text-anchor="middle" x="66.06" y="-598.5" font-family="Helvetica,sans-Serif" font-size="10.00">::Reset</text>
</a>
</g>
</g>
<!-- Node3&#45;&gt;Node1 -->
<g id="edge2" class="edge">
<title>Node3&#45;&gt;Node1</title>
<path fill="none" stroke="#9a32cd" stroke-dasharray="5,2" d="M142.55,-607.27C181.81,-603.32 228.06,-592.11 259.6,-563.5 333.35,-496.6 341.72,-362.51 342.59,-324.66"/>
<polygon fill="#9a32cd" stroke="#9a32cd" points="142.12,-603.8 132.47,-608.15 142.73,-610.77 142.12,-603.8"/>
<text text-anchor="middle" x="204.86" y="-608.5" font-family="Helvetica,sans-Serif" font-size="10.00"> reset</text>
</g>
<!-- Node4 -->
<g id="node4" class="node">
<title>Node4</title>
<g id="a_node4"><a xlink:href="structlola_1_1vx_1_1v2_1_1_atomic_neuron_1_1_bayesian.html" target="_top" xlink:title=" ">
<polygon fill="white" stroke="black" points="0,-540.5 0,-572.5 132.13,-572.5 132.13,-540.5 0,-540.5"/>
<text text-anchor="start" x="8" y="-559.5" font-family="Helvetica,sans-Serif" font-size="10.00">lola::vx::v2::AtomicNeuron</text>
<text text-anchor="middle" x="66.06" y="-547.5" font-family="Helvetica,sans-Serif" font-size="10.00">::Bayesian</text>
</a>
</g>
</g>
<!-- Node4&#45;&gt;Node1 -->
<g id="edge3" class="edge">
<title>Node4&#45;&gt;Node1</title>
<path fill="none" stroke="#9a32cd" stroke-dasharray="5,2" d="M142.39,-549.72C181.27,-542.77 227.2,-528.74 259.6,-500.5 316.12,-451.24 335.99,-356.01 341.15,-324.73"/>
<polygon fill="#9a32cd" stroke="#9a32cd" points="141.45,-546.33 132.15,-551.42 142.59,-553.24 141.45,-546.33"/>
<text text-anchor="middle" x="204.86" y="-550.5" font-family="Helvetica,sans-Serif" font-size="10.00"> bayesian</text>
</g>
<!-- Node5 -->
<g id="node5" class="node">
<title>Node5</title>
<g id="a_node5"><a xlink:href="structlola_1_1vx_1_1v2_1_1_atomic_neuron_1_1_multicompartment.html" target="_top" xlink:title="Multicompartment configuration of connectivity to adjacent neurons.">
<polygon fill="white" stroke="black" points="0,-489.5 0,-521.5 132.13,-521.5 132.13,-489.5 0,-489.5"/>
<text text-anchor="start" x="8" y="-508.5" font-family="Helvetica,sans-Serif" font-size="10.00">lola::vx::v2::AtomicNeuron</text>
<text text-anchor="middle" x="66.06" y="-496.5" font-family="Helvetica,sans-Serif" font-size="10.00">::Multicompartment</text>
</a>
</g>
</g>
<!-- Node5&#45;&gt;Node1 -->
<g id="edge4" class="edge">
<title>Node5&#45;&gt;Node1</title>
<path fill="none" stroke="#9a32cd" stroke-dasharray="5,2" d="M142.51,-487.69C180.36,-476.11 225.33,-458.11 259.6,-431.5 298.76,-401.1 327.23,-347.26 337.97,-324.8"/>
<polygon fill="#9a32cd" stroke="#9a32cd" points="141.14,-484.44 132.54,-490.64 143.12,-491.15 141.14,-484.44"/>
<text text-anchor="middle" x="204.86" y="-487.5" font-family="Helvetica,sans-Serif" font-size="10.00"> multicompartment</text>
</g>
<!-- Node6 -->
<g id="node6" class="node">
<title>Node6</title>
<g id="a_node6"><a xlink:href="structlola_1_1vx_1_1v2_1_1_atomic_neuron_1_1_event_routing.html" target="_top" xlink:title=" ">
<polygon fill="white" stroke="black" points="0,-408.5 0,-440.5 132.13,-440.5 132.13,-408.5 0,-408.5"/>
<text text-anchor="start" x="8" y="-427.5" font-family="Helvetica,sans-Serif" font-size="10.00">lola::vx::v2::AtomicNeuron</text>
<text text-anchor="middle" x="66.06" y="-415.5" font-family="Helvetica,sans-Serif" font-size="10.00">::EventRouting</text>
</a>
</g>
</g>
<!-- Node6&#45;&gt;Node1 -->
<g id="edge5" class="edge">
<title>Node6&#45;&gt;Node1</title>
<path fill="none" stroke="#9a32cd" stroke-dasharray="5,2" d="M142.66,-417.57C179.36,-412.05 223.26,-402.17 259.6,-384.5 290.64,-369.41 319.75,-340.12 333.82,-324.65"/>
<polygon fill="#9a32cd" stroke="#9a32cd" points="141.92,-414.14 132.51,-419.01 142.91,-421.07 141.92,-414.14"/>
<text text-anchor="middle" x="204.86" y="-418.5" font-family="Helvetica,sans-Serif" font-size="10.00"> event_routing</text>
</g>
<!-- Node6&#45;&gt;Node6 -->
<g id="edge6" class="edge">
<title>Node6&#45;&gt;Node6</title>
<path fill="none" stroke="#9a32cd" stroke-dasharray="5,2" d="M41.78,-451.08C44.99,-455.75 53.09,-459 66.06,-459 87.36,-459 95.51,-450.24 90.52,-440.83"/>
<polygon fill="#9a32cd" stroke="#9a32cd" points="45.27,-450.77 41.61,-440.83 38.27,-450.88 45.27,-450.77"/>
<text text-anchor="middle" x="66.06" y="-462" font-family="Helvetica,sans-Serif" font-size="10.00"> SYMBOL_VISIBLE</text>
</g>
<!-- Node7 -->
<g id="node7" class="node">
<title>Node7</title>
<g id="a_node7"><a xlink:href="structlola_1_1vx_1_1v2_1_1_atomic_neuron_1_1_membrane_capacitance.html" target="_top" xlink:title=" ">
<polygon fill="white" stroke="black" points="0,-357.5 0,-389.5 132.13,-389.5 132.13,-357.5 0,-357.5"/>
<text text-anchor="start" x="8" y="-376.5" font-family="Helvetica,sans-Serif" font-size="10.00">lola::vx::v2::AtomicNeuron</text>
<text text-anchor="middle" x="66.06" y="-364.5" font-family="Helvetica,sans-Serif" font-size="10.00">::MembraneCapacitance</text>
</a>
</g>
</g>
<!-- Node7&#45;&gt;Node1 -->
<g id="edge7" class="edge">
<title>Node7&#45;&gt;Node1</title>
<path fill="none" stroke="#9a32cd" stroke-dasharray="5,2" d="M142.59,-370.21C178.52,-367.3 221.79,-361.82 259.6,-351.5 282.9,-345.14 308.02,-333.17 324.46,-324.56"/>
<polygon fill="#9a32cd" stroke="#9a32cd" points="141.88,-366.76 132.17,-371 142.41,-373.74 141.88,-366.76"/>
<text text-anchor="middle" x="204.86" y="-371.5" font-family="Helvetica,sans-Serif" font-size="10.00"> membrane_capacitance</text>
</g>
<!-- Node8 -->
<g id="node8" class="node">
<title>Node8</title>
<g id="a_node8"><a xlink:href="structlola_1_1vx_1_1v2_1_1_atomic_neuron_1_1_synaptic_input.html" target="_top" xlink:title=" ">
<polygon fill="white" stroke="black" points="0,-306.5 0,-338.5 132.13,-338.5 132.13,-306.5 0,-306.5"/>
<text text-anchor="start" x="8" y="-325.5" font-family="Helvetica,sans-Serif" font-size="10.00">lola::vx::v2::AtomicNeuron</text>
<text text-anchor="middle" x="66.06" y="-313.5" font-family="Helvetica,sans-Serif" font-size="10.00">::SynapticInput</text>
</a>
</g>
</g>
<!-- Node8&#45;&gt;Node1 -->
<g id="edge8" class="edge">
<title>Node8&#45;&gt;Node1</title>
<path fill="none" stroke="#9a32cd" stroke-dasharray="5,2" d="M142.43,-315.89C145.03,-315.74 147.6,-315.61 150.13,-315.5 192.54,-313.61 240.25,-313.34 277.57,-313.56"/>
<polygon fill="#9a32cd" stroke="#9a32cd" points="142.09,-312.4 132.33,-316.51 142.52,-319.39 142.09,-312.4"/>
<text text-anchor="middle" x="204.86" y="-342.5" font-family="Helvetica,sans-Serif" font-size="10.00"> excitatory_input</text>
<text text-anchor="middle" x="204.86" y="-330.5" font-family="Helvetica,sans-Serif" font-size="10.00">inhibitory_input</text>
<text text-anchor="middle" x="204.86" y="-318.5" font-family="Helvetica,sans-Serif" font-size="10.00">set_from</text>
</g>
<!-- Node9 -->
<g id="node9" class="node">
<title>Node9</title>
<g id="a_node9"><a xlink:href="structlola_1_1vx_1_1v2_1_1_atomic_neuron_1_1_readout.html" target="_top" xlink:title=" ">
<polygon fill="white" stroke="black" points="0,-255.5 0,-287.5 132.13,-287.5 132.13,-255.5 0,-255.5"/>
<text text-anchor="start" x="8" y="-274.5" font-family="Helvetica,sans-Serif" font-size="10.00">lola::vx::v2::AtomicNeuron</text>
<text text-anchor="middle" x="66.06" y="-262.5" font-family="Helvetica,sans-Serif" font-size="10.00">::Readout</text>
</a>
</g>
</g>
<!-- Node9&#45;&gt;Node1 -->
<g id="edge9" class="edge">
<title>Node9&#45;&gt;Node1</title>
<path fill="none" stroke="#9a32cd" stroke-dasharray="5,2" d="M142.64,-279.82C178.23,-284.12 221.21,-289.86 259.6,-296.5 272.69,-298.76 286.84,-301.66 299.69,-304.46"/>
<polygon fill="#9a32cd" stroke="#9a32cd" points="142.67,-276.3 132.33,-278.59 141.84,-283.25 142.67,-276.3"/>
<text text-anchor="middle" x="204.86" y="-299.5" font-family="Helvetica,sans-Serif" font-size="10.00"> readout</text>
</g>
<!-- Node10 -->
<g id="node10" class="node">
<title>Node10</title>
<g id="a_node10"><a xlink:href="structlola_1_1vx_1_1v2_1_1_atomic_neuron_1_1_exponential.html" target="_top" xlink:title=" ">
<polygon fill="white" stroke="black" points="0,-204.5 0,-236.5 132.13,-236.5 132.13,-204.5 0,-204.5"/>
<text text-anchor="start" x="8" y="-223.5" font-family="Helvetica,sans-Serif" font-size="10.00">lola::vx::v2::AtomicNeuron</text>
<text text-anchor="middle" x="66.06" y="-211.5" font-family="Helvetica,sans-Serif" font-size="10.00">::Exponential</text>
</a>
</g>
</g>
<!-- Node10&#45;&gt;Node1 -->
<g id="edge10" class="edge">
<title>Node10&#45;&gt;Node1</title>
<path fill="none" stroke="#9a32cd" stroke-dasharray="5,2" d="M142.38,-231.98C178.64,-238.94 222.25,-249.44 259.6,-264.5 285.67,-275.01 313.07,-293.09 328.98,-304.38"/>
<polygon fill="#9a32cd" stroke="#9a32cd" points="142.83,-228.5 132.36,-230.11 141.55,-235.38 142.83,-228.5"/>
<text text-anchor="middle" x="204.86" y="-267.5" font-family="Helvetica,sans-Serif" font-size="10.00"> exponential</text>
</g>
<!-- Node11 -->
<g id="node11" class="node">
<title>Node11</title>
<g id="a_node11"><a xlink:href="structlola_1_1vx_1_1v2_1_1_atomic_neuron_1_1_constant_current.html" target="_top" xlink:title=" ">
<polygon fill="white" stroke="black" points="0,-153.5 0,-185.5 132.13,-185.5 132.13,-153.5 0,-153.5"/>
<text text-anchor="start" x="8" y="-172.5" font-family="Helvetica,sans-Serif" font-size="10.00">lola::vx::v2::AtomicNeuron</text>
<text text-anchor="middle" x="66.06" y="-160.5" font-family="Helvetica,sans-Serif" font-size="10.00">::ConstantCurrent</text>
</a>
</g>
</g>
<!-- Node11&#45;&gt;Node1 -->
<g id="edge11" class="edge">
<title>Node11&#45;&gt;Node1</title>
<path fill="none" stroke="#9a32cd" stroke-dasharray="5,2" d="M142.81,-177.39C180.12,-183.92 224.51,-195.82 259.6,-217.5 296.38,-240.23 325.32,-284.61 337.03,-304.47"/>
<polygon fill="#9a32cd" stroke="#9a32cd" points="142.92,-173.86 132.49,-175.69 141.79,-180.77 142.92,-173.86"/>
<text text-anchor="middle" x="204.86" y="-220.5" font-family="Helvetica,sans-Serif" font-size="10.00"> constant_current</text>
</g>
<!-- Node12 -->
<g id="node12" class="node">
<title>Node12</title>
<g id="a_node12"><a xlink:href="structlola_1_1vx_1_1v2_1_1_atomic_neuron_1_1_threshold.html" target="_top" xlink:title=" ">
<polygon fill="white" stroke="black" points="0,-102.5 0,-134.5 132.13,-134.5 132.13,-102.5 0,-102.5"/>
<text text-anchor="start" x="8" y="-121.5" font-family="Helvetica,sans-Serif" font-size="10.00">lola::vx::v2::AtomicNeuron</text>
<text text-anchor="middle" x="66.06" y="-109.5" font-family="Helvetica,sans-Serif" font-size="10.00">::Threshold</text>
</a>
</g>
</g>
<!-- Node12&#45;&gt;Node1 -->
<g id="edge12" class="edge">
<title>Node12&#45;&gt;Node1</title>
<path fill="none" stroke="#9a32cd" stroke-dasharray="5,2" d="M142.58,-121.77C180.87,-126.77 226.2,-138.18 259.6,-163.5 308.95,-200.92 332.8,-276.55 340.12,-304.13"/>
<polygon fill="#9a32cd" stroke="#9a32cd" points="142.84,-118.28 132.5,-120.58 142.02,-125.23 142.84,-118.28"/>
<text text-anchor="middle" x="204.86" y="-166.5" font-family="Helvetica,sans-Serif" font-size="10.00"> threshold</text>
</g>
<!-- Node13 -->
<g id="node13" class="node">
<title>Node13</title>
<g id="a_node13"><a xlink:href="structlola_1_1vx_1_1v2_1_1_atomic_neuron_1_1_adaptation.html" target="_top" xlink:title=" ">
<polygon fill="white" stroke="black" points="0,-51.5 0,-83.5 132.13,-83.5 132.13,-51.5 0,-51.5"/>
<text text-anchor="start" x="8" y="-70.5" font-family="Helvetica,sans-Serif" font-size="10.00">lola::vx::v2::AtomicNeuron</text>
<text text-anchor="middle" x="66.06" y="-58.5" font-family="Helvetica,sans-Serif" font-size="10.00">::Adaptation</text>
</a>
</g>
</g>
<!-- Node13&#45;&gt;Node1 -->
<g id="edge13" class="edge">
<title>Node13&#45;&gt;Node1</title>
<path fill="none" stroke="#9a32cd" stroke-dasharray="5,2" d="M142.45,-66.34C181.34,-69.5 227.27,-79.52 259.6,-106.5 323.79,-160.06 338.75,-270.37 341.89,-304.32"/>
<polygon fill="#9a32cd" stroke="#9a32cd" points="142.42,-62.83 132.2,-65.66 141.95,-69.82 142.42,-62.83"/>
<text text-anchor="middle" x="204.86" y="-109.5" font-family="Helvetica,sans-Serif" font-size="10.00"> adaptation</text>
</g>
<!-- Node14 -->
<g id="node14" class="node">
<title>Node14</title>
<g id="a_node14"><a xlink:href="structlola_1_1vx_1_1v2_1_1_atomic_neuron_1_1_leak.html" target="_top" xlink:title=" ">
<polygon fill="white" stroke="black" points="0,-0.5 0,-32.5 132.13,-32.5 132.13,-0.5 0,-0.5"/>
<text text-anchor="start" x="8" y="-19.5" font-family="Helvetica,sans-Serif" font-size="10.00">lola::vx::v2::AtomicNeuron</text>
<text text-anchor="middle" x="66.06" y="-7.5" font-family="Helvetica,sans-Serif" font-size="10.00">::Leak</text>
</a>
</g>
</g>
<!-- Node14&#45;&gt;Node1 -->
<g id="edge14" class="edge">
<title>Node14&#45;&gt;Node1</title>
<path fill="none" stroke="#9a32cd" stroke-dasharray="5,2" d="M142.43,-12.14C181.66,-13.86 227.92,-22.69 259.6,-50.5 339.04,-120.23 343.29,-265.08 342.91,-304.44"/>
<polygon fill="#9a32cd" stroke="#9a32cd" points="142.46,-8.64 132.36,-11.85 142.25,-15.64 142.46,-8.64"/>
<text text-anchor="middle" x="204.86" y="-53.5" font-family="Helvetica,sans-Serif" font-size="10.00"> leak</text>
</g>
</g>
</svg>
