<?xml version="1.0" encoding="UTF-8" standalone="no"?>
<!DOCTYPE svg PUBLIC "-//W3C//DTD SVG 1.1//EN"
 "http://www.w3.org/Graphics/SVG/1.1/DTD/svg11.dtd">
<!-- Generated by graphviz version 2.46.0 (0)
 -->
<!-- Title: /jenkins/jenlib_workspaces_f9/bld_nightly&#45;haldls.YmxkX25pZ2h0bHktaGFsZGxzIzEzNzk.x/haldls/include/lola/vx/gray_scale.h Pages: 1 -->
<svg width="189pt" height="122pt"
 viewBox="0.00 0.00 189.02 122.00" xmlns="http://www.w3.org/2000/svg" xmlns:xlink="http://www.w3.org/1999/xlink">
<g id="graph0" class="graph" transform="scale(1 1) rotate(0) translate(4 118)">
<title>/jenkins/jenlib_workspaces_f9/bld_nightly&#45;haldls.YmxkX25pZ2h0bHktaGFsZGxzIzEzNzk.x/haldls/include/lola/vx/gray_scale.h</title>
<polygon fill="white" stroke="transparent" points="-4,4 -4,-118 185.02,-118 185.02,4 -4,4"/>
<!-- Node1 -->
<g id="node1" class="node">
<title>Node1</title>
<g id="a_node1"><a xlink:title=" ">
<polygon fill="#bfbfbf" stroke="black" points="0,-57.5 0,-113.5 181.02,-113.5 181.02,-57.5 0,-57.5"/>
<text text-anchor="start" x="8" y="-100.5" font-family="Helvetica,sans-Serif" font-size="10.00">/jenkins/jenlib_workspaces</text>
<text text-anchor="start" x="8" y="-88.5" font-family="Helvetica,sans-Serif" font-size="10.00">_f9/bld_nightly&#45;haldls.YmxkX25p</text>
<text text-anchor="start" x="8" y="-76.5" font-family="Helvetica,sans-Serif" font-size="10.00">Z2h0bHktaGFsZGxzIzEzNzk.x/haldls</text>
<text text-anchor="middle" x="90.51" y="-64.5" font-family="Helvetica,sans-Serif" font-size="10.00">/include/lola/vx/gray_scale.h</text>
</a>
</g>
</g>
<!-- Node2 -->
<g id="node2" class="node">
<title>Node2</title>
<g id="a_node2"><a xlink:title=" ">
<polygon fill="white" stroke="#bfbfbf" points="31.29,-0.5 31.29,-20.5 71.73,-20.5 71.73,-0.5 31.29,-0.5"/>
<text text-anchor="middle" x="51.51" y="-7.5" font-family="Helvetica,sans-Serif" font-size="10.00">string</text>
</a>
</g>
</g>
<!-- Node1&#45;&gt;Node2 -->
<g id="edge1" class="edge">
<title>Node1&#45;&gt;Node2</title>
<path fill="none" stroke="midnightblue" d="M75.99,-57.32C71.01,-47.99 65.56,-37.8 61.07,-29.4"/>
<polygon fill="midnightblue" stroke="midnightblue" points="64.13,-27.7 56.33,-20.52 57.96,-30.99 64.13,-27.7"/>
</g>
<!-- Node3 -->
<g id="node3" class="node">
<title>Node3</title>
<g id="a_node3"><a xlink:title=" ">
<polygon fill="white" stroke="#bfbfbf" points="90.01,-0.5 90.01,-20.5 171.01,-20.5 171.01,-0.5 90.01,-0.5"/>
<text text-anchor="middle" x="130.51" y="-7.5" font-family="Helvetica,sans-Serif" font-size="10.00">hate/visibility.h</text>
</a>
</g>
</g>
<!-- Node1&#45;&gt;Node3 -->
<g id="edge2" class="edge">
<title>Node1&#45;&gt;Node3</title>
<path fill="none" stroke="midnightblue" d="M105.4,-57.32C110.51,-47.99 116.1,-37.8 120.7,-29.4"/>
<polygon fill="midnightblue" stroke="midnightblue" points="123.83,-30.98 125.56,-20.52 117.69,-27.61 123.83,-30.98"/>
</g>
</g>
</svg>
