<?xml version="1.0" encoding="UTF-8" standalone="no"?>
<!DOCTYPE svg PUBLIC "-//W3C//DTD SVG 1.1//EN"
 "http://www.w3.org/Graphics/SVG/1.1/DTD/svg11.dtd">
<!-- Generated by graphviz version 2.46.0 (0)
 -->
<!-- Title: Graphical Class Hierarchy Pages: 1 -->
<svg width="311pt" height="404pt"
 viewBox="0.00 0.00 311.01 404.00" xmlns="http://www.w3.org/2000/svg" xmlns:xlink="http://www.w3.org/1999/xlink">
<g id="graph0" class="graph" transform="scale(1 1) rotate(0) translate(4 400)">
<title>Graphical Class Hierarchy</title>
<polygon fill="white" stroke="transparent" points="-4,4 -4,-400 307.01,-400 307.01,4 -4,4"/>
<!-- Node45 -->
<g id="node1" class="node">
<title>Node45</title>
<g id="a_node1"><a xlink:title=" ">
<polygon fill="white" stroke="#bfbfbf" points="0,-169.5 0,-201.5 111.01,-201.5 111.01,-169.5 0,-169.5"/>
<text text-anchor="start" x="8" y="-188.5" font-family="Helvetica,sans-Serif" font-size="10.00">haldls::vx::Differential</text>
<text text-anchor="middle" x="55.5" y="-176.5" font-family="Helvetica,sans-Serif" font-size="10.00">WriteTrait</text>
</a>
</g>
</g>
<!-- Node0 -->
<g id="node2" class="node">
<title>Node0</title>
<g id="a_node2"><a xlink:href="classlola_1_1vx_1_1_column_correlation_row.html" target="_top" xlink:title=" ">
<polygon fill="white" stroke="black" points="147.01,-375.5 147.01,-395.5 303.01,-395.5 303.01,-375.5 147.01,-375.5"/>
<text text-anchor="middle" x="225.01" y="-382.5" font-family="Helvetica,sans-Serif" font-size="10.00">lola::vx::ColumnCorrelationRow</text>
</a>
</g>
</g>
<!-- Node45&#45;&gt;Node0 -->
<g id="edge1" class="edge">
<title>Node45&#45;&gt;Node0</title>
<path fill="none" stroke="midnightblue" d="M62.18,-211.63C72.19,-251.32 96.87,-326.4 147.01,-366.5 151.53,-370.11 156.63,-373.05 162.02,-375.44"/>
<polygon fill="midnightblue" stroke="midnightblue" points="65.52,-210.57 59.78,-201.66 58.72,-212.2 65.52,-210.57"/>
</g>
<!-- Node47 -->
<g id="node3" class="node">
<title>Node47</title>
<g id="a_node3"><a xlink:href="classlola_1_1vx_1_1_column_current_row.html" target="_top" xlink:title=" ">
<polygon fill="white" stroke="black" points="154.79,-336.5 154.79,-356.5 295.23,-356.5 295.23,-336.5 154.79,-336.5"/>
<text text-anchor="middle" x="225.01" y="-343.5" font-family="Helvetica,sans-Serif" font-size="10.00">lola::vx::ColumnCurrentRow</text>
</a>
</g>
</g>
<!-- Node45&#45;&gt;Node47 -->
<g id="edge2" class="edge">
<title>Node45&#45;&gt;Node47</title>
<path fill="none" stroke="midnightblue" d="M65.86,-211.16C78.96,-243.37 105.87,-297.96 147.01,-327.5 152.04,-331.11 157.69,-334.04 163.57,-336.42"/>
<polygon fill="midnightblue" stroke="midnightblue" points="69,-209.58 62.1,-201.55 62.49,-212.14 69,-209.58"/>
</g>
<!-- Node48 -->
<g id="node4" class="node">
<title>Node48</title>
<g id="a_node4"><a xlink:href="classlola_1_1vx_1_1_synapse_correlation_calib_matrix.html" target="_top" xlink:title=" ">
<polygon fill="white" stroke="black" points="154.78,-285.5 154.78,-317.5 295.24,-317.5 295.24,-285.5 154.78,-285.5"/>
<text text-anchor="start" x="162.78" y="-304.5" font-family="Helvetica,sans-Serif" font-size="10.00">lola::vx::SynapseCorrelation</text>
<text text-anchor="middle" x="225.01" y="-292.5" font-family="Helvetica,sans-Serif" font-size="10.00">CalibMatrix</text>
</a>
</g>
</g>
<!-- Node45&#45;&gt;Node48 -->
<g id="edge3" class="edge">
<title>Node45&#45;&gt;Node48</title>
<path fill="none" stroke="midnightblue" d="M74.88,-209.55C91.64,-229.99 118.14,-258.76 147.01,-276.5 152.52,-279.89 158.53,-282.86 164.69,-285.47"/>
<polygon fill="midnightblue" stroke="midnightblue" points="77.51,-207.24 68.52,-201.63 72.05,-211.62 77.51,-207.24"/>
</g>
<!-- Node49 -->
<g id="node5" class="node">
<title>Node49</title>
<g id="a_node5"><a xlink:href="classlola_1_1vx_1_1_synapse_correlation_calib_row.html" target="_top" xlink:title=" ">
<polygon fill="white" stroke="black" points="154.78,-234.5 154.78,-266.5 295.24,-266.5 295.24,-234.5 154.78,-234.5"/>
<text text-anchor="start" x="162.78" y="-253.5" font-family="Helvetica,sans-Serif" font-size="10.00">lola::vx::SynapseCorrelation</text>
<text text-anchor="middle" x="225.01" y="-241.5" font-family="Helvetica,sans-Serif" font-size="10.00">CalibRow</text>
</a>
</g>
</g>
<!-- Node45&#45;&gt;Node49 -->
<g id="edge4" class="edge">
<title>Node45&#45;&gt;Node49</title>
<path fill="none" stroke="midnightblue" d="M99.95,-205.78C114.75,-212.4 131.48,-219.56 147.01,-225.5 155.02,-228.56 163.58,-231.58 171.98,-234.41"/>
<polygon fill="midnightblue" stroke="midnightblue" points="101.1,-202.46 90.54,-201.53 98.22,-208.84 101.1,-202.46"/>
</g>
<!-- Node50 -->
<g id="node6" class="node">
<title>Node50</title>
<g id="a_node6"><a xlink:href="classlola_1_1vx_1_1_synapse_label_matrix.html" target="_top" xlink:title=" ">
<polygon fill="white" stroke="black" points="153.39,-195.5 153.39,-215.5 296.63,-215.5 296.63,-195.5 153.39,-195.5"/>
<text text-anchor="middle" x="225.01" y="-202.5" font-family="Helvetica,sans-Serif" font-size="10.00">lola::vx::SynapseLabelMatrix</text>
</a>
</g>
</g>
<!-- Node45&#45;&gt;Node50 -->
<g id="edge5" class="edge">
<title>Node45&#45;&gt;Node50</title>
<path fill="none" stroke="midnightblue" d="M121.55,-193.27C131.92,-194.5 142.68,-195.79 153.17,-197.04"/>
<polygon fill="midnightblue" stroke="midnightblue" points="121.7,-189.76 111.35,-192.05 120.87,-196.71 121.7,-189.76"/>
</g>
<!-- Node51 -->
<g id="node7" class="node">
<title>Node51</title>
<g id="a_node7"><a xlink:href="classlola_1_1vx_1_1_synapse_label_row.html" target="_top" xlink:title=" ">
<polygon fill="white" stroke="black" points="157,-156.5 157,-176.5 293.02,-176.5 293.02,-156.5 157,-156.5"/>
<text text-anchor="middle" x="225.01" y="-163.5" font-family="Helvetica,sans-Serif" font-size="10.00">lola::vx::SynapseLabelRow</text>
</a>
</g>
</g>
<!-- Node45&#45;&gt;Node51 -->
<g id="edge6" class="edge">
<title>Node45&#45;&gt;Node51</title>
<path fill="none" stroke="midnightblue" d="M121.39,-178.14C132.99,-176.82 145.09,-175.45 156.75,-174.13"/>
<polygon fill="midnightblue" stroke="midnightblue" points="120.89,-174.67 111.35,-179.28 121.68,-181.63 120.89,-174.67"/>
</g>
<!-- Node52 -->
<g id="node8" class="node">
<title>Node52</title>
<g id="a_node8"><a xlink:href="classlola_1_1vx_1_1_synapse_matrix.html" target="_top" xlink:title=" ">
<polygon fill="white" stroke="black" points="165.61,-117.5 165.61,-137.5 284.41,-137.5 284.41,-117.5 165.61,-117.5"/>
<text text-anchor="middle" x="225.01" y="-124.5" font-family="Helvetica,sans-Serif" font-size="10.00">lola::vx::SynapseMatrix</text>
</a>
</g>
</g>
<!-- Node45&#45;&gt;Node52 -->
<g id="edge7" class="edge">
<title>Node45&#45;&gt;Node52</title>
<path fill="none" stroke="midnightblue" d="M100.98,-165.33C115.48,-159.16 131.78,-152.65 147.01,-147.5 157.87,-143.83 169.78,-140.44 180.92,-137.53"/>
<polygon fill="midnightblue" stroke="midnightblue" points="99.52,-162.15 91.73,-169.32 102.3,-168.57 99.52,-162.15"/>
</g>
<!-- Node53 -->
<g id="node9" class="node">
<title>Node53</title>
<g id="a_node9"><a xlink:href="classlola_1_1vx_1_1_synapse_row.html" target="_top" xlink:title=" ">
<polygon fill="white" stroke="black" points="169.22,-78.5 169.22,-98.5 280.8,-98.5 280.8,-78.5 169.22,-78.5"/>
<text text-anchor="middle" x="225.01" y="-85.5" font-family="Helvetica,sans-Serif" font-size="10.00">lola::vx::SynapseRow</text>
</a>
</g>
</g>
<!-- Node45&#45;&gt;Node53 -->
<g id="edge8" class="edge">
<title>Node45&#45;&gt;Node53</title>
<path fill="none" stroke="midnightblue" d="M78.2,-162.03C95.33,-144.84 120.66,-122.2 147.01,-108.5 154.73,-104.49 163.31,-101.24 171.87,-98.62"/>
<polygon fill="midnightblue" stroke="midnightblue" points="75.4,-159.89 70.93,-169.5 80.42,-164.78 75.4,-159.89"/>
</g>
<!-- Node54 -->
<g id="node10" class="node">
<title>Node54</title>
<g id="a_node10"><a xlink:href="classlola_1_1vx_1_1_synapse_weight_matrix.html" target="_top" xlink:title=" ">
<polygon fill="white" stroke="black" points="150.06,-39.5 150.06,-59.5 299.96,-59.5 299.96,-39.5 150.06,-39.5"/>
<text text-anchor="middle" x="225.01" y="-46.5" font-family="Helvetica,sans-Serif" font-size="10.00">lola::vx::SynapseWeightMatrix</text>
</a>
</g>
</g>
<!-- Node45&#45;&gt;Node54 -->
<g id="edge9" class="edge">
<title>Node45&#45;&gt;Node54</title>
<path fill="none" stroke="midnightblue" d="M69.64,-160.17C84.74,-133.57 112.02,-92.48 147.01,-69.5 153.24,-65.41 160.27,-62.15 167.49,-59.56"/>
<polygon fill="midnightblue" stroke="midnightblue" points="66.39,-158.81 64.63,-169.26 72.52,-162.19 66.39,-158.81"/>
</g>
<!-- Node55 -->
<g id="node11" class="node">
<title>Node55</title>
<g id="a_node11"><a xlink:href="classlola_1_1vx_1_1_synapse_weight_row.html" target="_top" xlink:title=" ">
<polygon fill="white" stroke="black" points="153.67,-0.5 153.67,-20.5 296.35,-20.5 296.35,-0.5 153.67,-0.5"/>
<text text-anchor="middle" x="225.01" y="-7.5" font-family="Helvetica,sans-Serif" font-size="10.00">lola::vx::SynapseWeightRow</text>
</a>
</g>
</g>
<!-- Node45&#45;&gt;Node55 -->
<g id="edge10" class="edge">
<title>Node45&#45;&gt;Node55</title>
<path fill="none" stroke="midnightblue" d="M64.73,-159.14C76.96,-124.33 103.34,-63.58 147.01,-30.5 152.4,-26.41 158.55,-23.16 164.97,-20.57"/>
<polygon fill="midnightblue" stroke="midnightblue" points="61.26,-158.46 61.38,-169.05 67.89,-160.7 61.26,-158.46"/>
</g>
</g>
</svg>
