<?xml version="1.0" encoding="UTF-8" standalone="no"?>
<!DOCTYPE svg PUBLIC "-//W3C//DTD SVG 1.1//EN"
 "http://www.w3.org/Graphics/SVG/1.1/DTD/svg11.dtd">
<!-- Generated by graphviz version 2.46.0 (0)
 -->
<!-- Title: /jenkins/jenlib_workspaces_f9/bld_nightly&#45;haldls.YmxkX25pZ2h0bHktaGFsZGxzIzEzNzk.x/haldls/include/lola/vx/routing_crossbar.h Pages: 1 -->
<svg width="1029pt" height="134pt"
 viewBox="0.00 0.00 1028.69 134.00" xmlns="http://www.w3.org/2000/svg" xmlns:xlink="http://www.w3.org/1999/xlink">
<g id="graph0" class="graph" transform="scale(1 1) rotate(0) translate(4 130)">
<title>/jenkins/jenlib_workspaces_f9/bld_nightly&#45;haldls.YmxkX25pZ2h0bHktaGFsZGxzIzEzNzk.x/haldls/include/lola/vx/routing_crossbar.h</title>
<polygon fill="white" stroke="transparent" points="-4,4 -4,-130 1024.69,-130 1024.69,4 -4,4"/>
<!-- Node1 -->
<g id="node1" class="node">
<title>Node1</title>
<g id="a_node1"><a xlink:title=" ">
<polygon fill="#bfbfbf" stroke="black" points="411.61,-69.5 411.61,-125.5 592.63,-125.5 592.63,-69.5 411.61,-69.5"/>
<text text-anchor="start" x="419.61" y="-112.5" font-family="Helvetica,sans-Serif" font-size="10.00">/jenkins/jenlib_workspaces</text>
<text text-anchor="start" x="419.61" y="-100.5" font-family="Helvetica,sans-Serif" font-size="10.00">_f9/bld_nightly&#45;haldls.YmxkX25p</text>
<text text-anchor="start" x="419.61" y="-88.5" font-family="Helvetica,sans-Serif" font-size="10.00">Z2h0bHktaGFsZGxzIzEzNzk.x/haldls</text>
<text text-anchor="middle" x="502.12" y="-76.5" font-family="Helvetica,sans-Serif" font-size="10.00">/include/lola/vx/routing_crossbar.h</text>
</a>
</g>
</g>
<!-- Node2 -->
<g id="node2" class="node">
<title>Node2</title>
<g id="a_node2"><a xlink:title=" ">
<polygon fill="white" stroke="#bfbfbf" points="0,-0.5 0,-32.5 108.24,-32.5 108.24,-0.5 0,-0.5"/>
<text text-anchor="start" x="8" y="-19.5" font-family="Helvetica,sans-Serif" font-size="10.00">halco/common/typed</text>
<text text-anchor="middle" x="54.12" y="-7.5" font-family="Helvetica,sans-Serif" font-size="10.00">_array.h</text>
</a>
</g>
</g>
<!-- Node1&#45;&gt;Node2 -->
<g id="edge1" class="edge">
<title>Node1&#45;&gt;Node2</title>
<path fill="none" stroke="midnightblue" d="M411.52,-83.59C335.64,-72.31 224.31,-54.67 118.27,-33.15"/>
<polygon fill="midnightblue" stroke="midnightblue" points="118.86,-29.7 108.36,-31.13 117.45,-36.56 118.86,-29.7"/>
</g>
<!-- Node3 -->
<g id="node3" class="node">
<title>Node3</title>
<g id="a_node3"><a xlink:title=" ">
<polygon fill="white" stroke="#bfbfbf" points="126.34,-0.5 126.34,-32.5 227.91,-32.5 227.91,-0.5 126.34,-0.5"/>
<text text-anchor="start" x="134.34" y="-19.5" font-family="Helvetica,sans-Serif" font-size="10.00">halco/hicann&#45;dls/vx</text>
<text text-anchor="middle" x="177.12" y="-7.5" font-family="Helvetica,sans-Serif" font-size="10.00">/routing_crossbar.h</text>
</a>
</g>
</g>
<!-- Node1&#45;&gt;Node3 -->
<g id="edge2" class="edge">
<title>Node1&#45;&gt;Node3</title>
<path fill="none" stroke="midnightblue" d="M411.57,-75.22C362.83,-63.66 301.42,-48.95 237.96,-33.19"/>
<polygon fill="midnightblue" stroke="midnightblue" points="238.72,-29.77 228.17,-30.75 237.03,-36.56 238.72,-29.77"/>
</g>
<!-- Node4 -->
<g id="node4" class="node">
<title>Node4</title>
<g id="a_node4"><a xlink:title=" ">
<polygon fill="white" stroke="#bfbfbf" points="245.95,-6.5 245.95,-26.5 350.3,-26.5 350.3,-6.5 245.95,-6.5"/>
<text text-anchor="middle" x="298.12" y="-13.5" font-family="Helvetica,sans-Serif" font-size="10.00">haldls/vx/common.h</text>
</a>
</g>
</g>
<!-- Node1&#45;&gt;Node4 -->
<g id="edge3" class="edge">
<title>Node1&#45;&gt;Node4</title>
<path fill="none" stroke="midnightblue" d="M432.2,-69.42C397.89,-56.14 358.19,-40.76 330.94,-30.21"/>
<polygon fill="midnightblue" stroke="midnightblue" points="332.09,-26.9 321.5,-26.55 329.56,-33.43 332.09,-26.9"/>
</g>
<!-- Node5 -->
<g id="node5" class="node">
<title>Node5</title>
<g id="a_node5"><a xlink:title=" ">
<polygon fill="white" stroke="#bfbfbf" points="367.89,-6.5 367.89,-26.5 508.36,-26.5 508.36,-6.5 367.89,-6.5"/>
<text text-anchor="middle" x="438.12" y="-13.5" font-family="Helvetica,sans-Serif" font-size="10.00">haldls/vx/routing_crossbar.h</text>
</a>
</g>
</g>
<!-- Node1&#45;&gt;Node5 -->
<g id="edge4" class="edge">
<title>Node1&#45;&gt;Node5</title>
<path fill="none" stroke="midnightblue" d="M480.1,-69.31C470.81,-57.85 460.28,-44.85 452.09,-34.74"/>
<polygon fill="midnightblue" stroke="midnightblue" points="454.6,-32.28 445.59,-26.71 449.16,-36.69 454.6,-32.28"/>
</g>
<!-- Node6 -->
<g id="node6" class="node">
<title>Node6</title>
<g id="a_node6"><a xlink:title=" ">
<polygon fill="white" stroke="#bfbfbf" points="526.62,-6.5 526.62,-26.5 607.63,-26.5 607.63,-6.5 526.62,-6.5"/>
<text text-anchor="middle" x="567.12" y="-13.5" font-family="Helvetica,sans-Serif" font-size="10.00">hate/visibility.h</text>
</a>
</g>
</g>
<!-- Node1&#45;&gt;Node6 -->
<g id="edge5" class="edge">
<title>Node1&#45;&gt;Node6</title>
<path fill="none" stroke="midnightblue" d="M524.49,-69.31C534.02,-57.74 544.83,-44.59 553.19,-34.44"/>
<polygon fill="midnightblue" stroke="midnightblue" points="555.89,-36.66 559.54,-26.71 550.48,-32.21 555.89,-36.66"/>
</g>
<!-- Node7 -->
<g id="node7" class="node">
<title>Node7</title>
<g id="a_node7"><a xlink:title=" ">
<polygon fill="white" stroke="#bfbfbf" points="625.5,-6.5 625.5,-26.5 728.74,-26.5 728.74,-6.5 625.5,-6.5"/>
<text text-anchor="middle" x="677.12" y="-13.5" font-family="Helvetica,sans-Serif" font-size="10.00">hxcomm/vx/target.h</text>
</a>
</g>
</g>
<!-- Node1&#45;&gt;Node7 -->
<g id="edge6" class="edge">
<title>Node1&#45;&gt;Node7</title>
<path fill="none" stroke="midnightblue" d="M562.35,-69.31C591.24,-56.27 624.55,-41.23 647.81,-30.73"/>
<polygon fill="midnightblue" stroke="midnightblue" points="649.45,-33.83 657.13,-26.53 646.57,-27.45 649.45,-33.83"/>
</g>
<!-- Node8 -->
<g id="node8" class="node">
<title>Node8</title>
<g id="a_node8"><a xlink:href="genpybind_8h.html" target="_top" xlink:title=" ">
<polygon fill="white" stroke="black" points="746.33,-6.5 746.33,-26.5 847.91,-26.5 847.91,-6.5 746.33,-6.5"/>
<text text-anchor="middle" x="797.12" y="-13.5" font-family="Helvetica,sans-Serif" font-size="10.00">lola/vx/genpybind.h</text>
</a>
</g>
</g>
<!-- Node1&#45;&gt;Node8 -->
<g id="edge7" class="edge">
<title>Node1&#45;&gt;Node8</title>
<path fill="none" stroke="midnightblue" d="M592.64,-72.26C646.11,-57.94 711.38,-40.46 753.57,-29.16"/>
<polygon fill="midnightblue" stroke="midnightblue" points="754.5,-32.54 763.26,-26.57 752.69,-25.78 754.5,-32.54"/>
</g>
<!-- Node9 -->
<g id="node9" class="node">
<title>Node9</title>
<g id="a_node9"><a xlink:title=" ">
<polygon fill="white" stroke="#bfbfbf" points="883.56,-6.5 883.56,-26.5 1020.69,-26.5 1020.69,-6.5 883.56,-6.5"/>
<text text-anchor="middle" x="952.12" y="-13.5" font-family="Helvetica,sans-Serif" font-size="10.00">lola/vx/routing_crossbar.tcc</text>
</a>
</g>
</g>
<!-- Node1&#45;&gt;Node9 -->
<g id="edge9" class="edge">
<title>Node1&#45;&gt;Node9</title>
<path fill="none" stroke="midnightblue" d="M592.7,-81.86C668.32,-69.45 778.89,-50.87 875.12,-33 882.58,-31.61 890.43,-30.1 898.16,-28.58"/>
<polygon fill="midnightblue" stroke="midnightblue" points="899.07,-31.96 908.19,-26.58 897.7,-25.1 899.07,-31.96"/>
</g>
<!-- Node8&#45;&gt;Node8 -->
<g id="edge8" class="edge">
<title>Node8&#45;&gt;Node8</title>
<path fill="none" stroke="midnightblue" d="M814.4,-26.62C837.64,-35.58 865.91,-32.2 865.91,-16.5 865.91,-2.94 844.84,1.42 824.13,-3.4"/>
<polygon fill="midnightblue" stroke="midnightblue" points="822.93,-0.1 814.4,-6.38 824.98,-6.8 822.93,-0.1"/>
</g>
</g>
</svg>
