<?xml version="1.0" encoding="UTF-8" standalone="no"?>
<!DOCTYPE svg PUBLIC "-//W3C//DTD SVG 1.1//EN"
 "http://www.w3.org/Graphics/SVG/1.1/DTD/svg11.dtd">
<!-- Generated by graphviz version 2.46.0 (0)
 -->
<!-- Title: haldls::vx::detail::BackendContainerTrait&lt; lola::vx::SynapseMatrix &gt; Pages: 1 -->
<svg width="406pt" height="77pt"
 viewBox="0.00 0.00 406.35 77.00" xmlns="http://www.w3.org/2000/svg" xmlns:xlink="http://www.w3.org/1999/xlink">
<g id="graph0" class="graph" transform="scale(1 1) rotate(0) translate(4 73)">
<title>haldls::vx::detail::BackendContainerTrait&lt; lola::vx::SynapseMatrix &gt;</title>
<polygon fill="white" stroke="transparent" points="-4,4 -4,-73 402.35,-73 402.35,4 -4,4"/>
<!-- Node1 -->
<g id="node1" class="node">
<title>Node1</title>
<g id="a_node1"><a xlink:title=" ">
<polygon fill="#bfbfbf" stroke="black" points="262.32,-12.5 262.32,-56.5 398.35,-56.5 398.35,-12.5 262.32,-12.5"/>
<text text-anchor="start" x="270.32" y="-43.5" font-family="Helvetica,sans-Serif" font-size="10.00">haldls::vx::detail</text>
<text text-anchor="start" x="270.32" y="-31.5" font-family="Helvetica,sans-Serif" font-size="10.00">::BackendContainerTrait</text>
<text text-anchor="middle" x="330.33" y="-19.5" font-family="Helvetica,sans-Serif" font-size="10.00">&lt; lola::vx::SynapseMatrix &gt;</text>
</a>
</g>
</g>
<!-- Node2 -->
<g id="node2" class="node">
<title>Node2</title>
<g id="a_node2"><a xlink:title=" ">
<polygon fill="white" stroke="#bfbfbf" points="0,-0.5 0,-68.5 226.32,-68.5 226.32,-0.5 0,-0.5"/>
<text text-anchor="start" x="8" y="-55.5" font-family="Helvetica,sans-Serif" font-size="10.00">BackendContainerBase</text>
<text text-anchor="start" x="8" y="-43.5" font-family="Helvetica,sans-Serif" font-size="10.00">&lt; lola::vx::SynapseMatrix,</text>
<text text-anchor="start" x="8" y="-31.5" font-family="Helvetica,sans-Serif" font-size="10.00"> fisch::vx::word_access</text>
<text text-anchor="start" x="8" y="-19.5" font-family="Helvetica,sans-Serif" font-size="10.00">_type::Omnibus, fisch::vx</text>
<text text-anchor="middle" x="113.16" y="-7.5" font-family="Helvetica,sans-Serif" font-size="10.00">::word_access_type::OmnibusChipOverJTAG &gt;</text>
</a>
</g>
</g>
<!-- Node2&#45;&gt;Node1 -->
<g id="edge1" class="edge">
<title>Node2&#45;&gt;Node1</title>
<path fill="none" stroke="midnightblue" d="M236.76,-34.5C245.47,-34.5 254.06,-34.5 262.28,-34.5"/>
<polygon fill="midnightblue" stroke="midnightblue" points="236.47,-31 226.47,-34.5 236.47,-38 236.47,-31"/>
</g>
</g>
</svg>
