<?xml version="1.0" encoding="UTF-8" standalone="no"?>
<!DOCTYPE svg PUBLIC "-//W3C//DTD SVG 1.1//EN"
 "http://www.w3.org/Graphics/SVG/1.1/DTD/svg11.dtd">
<!-- Generated by graphviz version 2.46.0 (0)
 -->
<!-- Title: haldls::vx::detail::BackendContainerTrait&lt; lola::vx::CHIP_REVISION_STR::SynapseBlock &gt; Pages: 1 -->
<svg width="351pt" height="89pt"
 viewBox="0.00 0.00 350.77 89.00" xmlns="http://www.w3.org/2000/svg" xmlns:xlink="http://www.w3.org/1999/xlink">
<g id="graph0" class="graph" transform="scale(1 1) rotate(0) translate(4 85)">
<title>haldls::vx::detail::BackendContainerTrait&lt; lola::vx::CHIP_REVISION_STR::SynapseBlock &gt;</title>
<polygon fill="white" stroke="transparent" points="-4,4 -4,-85 346.77,-85 346.77,4 -4,4"/>
<!-- Node1 -->
<g id="node1" class="node">
<title>Node1</title>
<g id="a_node1"><a xlink:title=" ">
<polygon fill="#bfbfbf" stroke="black" points="204.26,-12.5 204.26,-68.5 342.77,-68.5 342.77,-12.5 204.26,-12.5"/>
<text text-anchor="start" x="212.26" y="-55.5" font-family="Helvetica,sans-Serif" font-size="10.00">haldls::vx::detail</text>
<text text-anchor="start" x="212.26" y="-43.5" font-family="Helvetica,sans-Serif" font-size="10.00">::BackendContainerTrait</text>
<text text-anchor="start" x="212.26" y="-31.5" font-family="Helvetica,sans-Serif" font-size="10.00">&lt; lola::vx::CHIP_REVISION</text>
<text text-anchor="middle" x="273.51" y="-19.5" font-family="Helvetica,sans-Serif" font-size="10.00">_STR::SynapseBlock &gt;</text>
</a>
</g>
</g>
<!-- Node2 -->
<g id="node2" class="node">
<title>Node2</title>
<g id="a_node2"><a xlink:title=" ">
<polygon fill="white" stroke="#bfbfbf" points="0,-0.5 0,-80.5 168.26,-80.5 168.26,-0.5 0,-0.5"/>
<text text-anchor="start" x="8" y="-67.5" font-family="Helvetica,sans-Serif" font-size="10.00">BackendContainerBase</text>
<text text-anchor="start" x="8" y="-55.5" font-family="Helvetica,sans-Serif" font-size="10.00">&lt; lola::vx::CHIP_REVISION</text>
<text text-anchor="start" x="8" y="-43.5" font-family="Helvetica,sans-Serif" font-size="10.00">_STR::SynapseBlock, fisch</text>
<text text-anchor="start" x="8" y="-31.5" font-family="Helvetica,sans-Serif" font-size="10.00">::vx::word_access_type::Omnibus,</text>
<text text-anchor="start" x="8" y="-19.5" font-family="Helvetica,sans-Serif" font-size="10.00"> fisch::vx::word_access_type::</text>
<text text-anchor="middle" x="84.13" y="-7.5" font-family="Helvetica,sans-Serif" font-size="10.00">OmnibusChipOverJTAG &gt;</text>
</a>
</g>
</g>
<!-- Node2&#45;&gt;Node1 -->
<g id="edge1" class="edge">
<title>Node2&#45;&gt;Node1</title>
<path fill="none" stroke="midnightblue" d="M178.51,-40.5C187.13,-40.5 195.75,-40.5 204.08,-40.5"/>
<polygon fill="midnightblue" stroke="midnightblue" points="178.41,-37 168.41,-40.5 178.41,-44 178.41,-37"/>
</g>
</g>
</svg>
