<?xml version="1.0" encoding="UTF-8" standalone="no"?>
<!DOCTYPE svg PUBLIC "-//W3C//DTD SVG 1.1//EN"
 "http://www.w3.org/Graphics/SVG/1.1/DTD/svg11.dtd">
<!-- Generated by graphviz version 2.46.0 (0)
 -->
<!-- Title: haldls::vx::detail::BackendContainerTrait&lt; lola::vx::CorrelationResetRow &gt; Pages: 1 -->
<svg width="430pt" height="77pt"
 viewBox="0.00 0.00 429.67 77.00" xmlns="http://www.w3.org/2000/svg" xmlns:xlink="http://www.w3.org/1999/xlink">
<g id="graph0" class="graph" transform="scale(1 1) rotate(0) translate(4 73)">
<title>haldls::vx::detail::BackendContainerTrait&lt; lola::vx::CorrelationResetRow &gt;</title>
<polygon fill="white" stroke="transparent" points="-4,4 -4,-73 425.67,-73 425.67,4 -4,4"/>
<!-- Node1 -->
<g id="node1" class="node">
<title>Node1</title>
<g id="a_node1"><a xlink:title=" ">
<polygon fill="#bfbfbf" stroke="black" points="256.76,-12.5 256.76,-56.5 421.67,-56.5 421.67,-12.5 256.76,-12.5"/>
<text text-anchor="start" x="264.76" y="-43.5" font-family="Helvetica,sans-Serif" font-size="10.00">haldls::vx::detail</text>
<text text-anchor="start" x="264.76" y="-31.5" font-family="Helvetica,sans-Serif" font-size="10.00">::BackendContainerTrait</text>
<text text-anchor="middle" x="339.21" y="-19.5" font-family="Helvetica,sans-Serif" font-size="10.00">&lt; lola::vx::CorrelationResetRow &gt;</text>
</a>
</g>
</g>
<!-- Node2 -->
<g id="node2" class="node">
<title>Node2</title>
<g id="a_node2"><a xlink:title=" ">
<polygon fill="white" stroke="#bfbfbf" points="0,-0.5 0,-68.5 220.76,-68.5 220.76,-0.5 0,-0.5"/>
<text text-anchor="start" x="8" y="-55.5" font-family="Helvetica,sans-Serif" font-size="10.00">BackendContainerBase</text>
<text text-anchor="start" x="8" y="-43.5" font-family="Helvetica,sans-Serif" font-size="10.00">&lt; lola::vx::CorrelationReset</text>
<text text-anchor="start" x="8" y="-31.5" font-family="Helvetica,sans-Serif" font-size="10.00">Row, fisch::vx::word_access</text>
<text text-anchor="start" x="8" y="-19.5" font-family="Helvetica,sans-Serif" font-size="10.00">_type::Omnibus, fisch::vx::</text>
<text text-anchor="middle" x="110.38" y="-7.5" font-family="Helvetica,sans-Serif" font-size="10.00">word_access_type::OmnibusChipOverJTAG &gt;</text>
</a>
</g>
</g>
<!-- Node2&#45;&gt;Node1 -->
<g id="edge1" class="edge">
<title>Node2&#45;&gt;Node1</title>
<path fill="none" stroke="midnightblue" d="M230.94,-34.5C239.57,-34.5 248.15,-34.5 256.48,-34.5"/>
<polygon fill="midnightblue" stroke="midnightblue" points="230.81,-31 220.81,-34.5 230.81,-38 230.81,-31"/>
</g>
</g>
</svg>
