<?xml version="1.0" encoding="UTF-8" standalone="no"?>
<!DOCTYPE svg PUBLIC "-//W3C//DTD SVG 1.1//EN"
 "http://www.w3.org/Graphics/SVG/1.1/DTD/svg11.dtd">
<!-- Generated by graphviz version 2.46.0 (0)
 -->
<!-- Title: haldls::vx::detail::BackendContainerTrait&lt; lola::vx::ColumnCorrelationRow &gt; Pages: 1 -->
<svg width="416pt" height="77pt"
 viewBox="0.00 0.00 416.33 77.00" xmlns="http://www.w3.org/2000/svg" xmlns:xlink="http://www.w3.org/1999/xlink">
<g id="graph0" class="graph" transform="scale(1 1) rotate(0) translate(4 73)">
<title>haldls::vx::detail::BackendContainerTrait&lt; lola::vx::ColumnCorrelationRow &gt;</title>
<polygon fill="white" stroke="transparent" points="-4,4 -4,-73 412.33,-73 412.33,4 -4,4"/>
<!-- Node1 -->
<g id="node1" class="node">
<title>Node1</title>
<g id="a_node1"><a xlink:title=" ">
<polygon fill="#bfbfbf" stroke="black" points="235.09,-12.5 235.09,-56.5 408.33,-56.5 408.33,-12.5 235.09,-12.5"/>
<text text-anchor="start" x="243.09" y="-43.5" font-family="Helvetica,sans-Serif" font-size="10.00">haldls::vx::detail</text>
<text text-anchor="start" x="243.09" y="-31.5" font-family="Helvetica,sans-Serif" font-size="10.00">::BackendContainerTrait</text>
<text text-anchor="middle" x="321.71" y="-19.5" font-family="Helvetica,sans-Serif" font-size="10.00">&lt; lola::vx::ColumnCorrelationRow &gt;</text>
</a>
</g>
</g>
<!-- Node2 -->
<g id="node2" class="node">
<title>Node2</title>
<g id="a_node2"><a xlink:title=" ">
<polygon fill="white" stroke="#bfbfbf" points="0,-0.5 0,-68.5 199.09,-68.5 199.09,-0.5 0,-0.5"/>
<text text-anchor="start" x="8" y="-55.5" font-family="Helvetica,sans-Serif" font-size="10.00">BackendContainerBase</text>
<text text-anchor="start" x="8" y="-43.5" font-family="Helvetica,sans-Serif" font-size="10.00">&lt; lola::vx::ColumnCorrelation</text>
<text text-anchor="start" x="8" y="-31.5" font-family="Helvetica,sans-Serif" font-size="10.00">Row, fisch::vx::word_access</text>
<text text-anchor="start" x="8" y="-19.5" font-family="Helvetica,sans-Serif" font-size="10.00">_type::Omnibus, fisch::vx::word</text>
<text text-anchor="middle" x="99.55" y="-7.5" font-family="Helvetica,sans-Serif" font-size="10.00">_access_type::OmnibusChipOverJTAG &gt;</text>
</a>
</g>
</g>
<!-- Node2&#45;&gt;Node1 -->
<g id="edge1" class="edge">
<title>Node2&#45;&gt;Node1</title>
<path fill="none" stroke="midnightblue" d="M209.42,-34.5C218,-34.5 226.6,-34.5 234.99,-34.5"/>
<polygon fill="midnightblue" stroke="midnightblue" points="209.36,-31 199.36,-34.5 209.36,-38 209.36,-31"/>
</g>
</g>
</svg>
