<?xml version="1.0" encoding="UTF-8" standalone="no"?>
<!DOCTYPE svg PUBLIC "-//W3C//DTD SVG 1.1//EN"
 "http://www.w3.org/Graphics/SVG/1.1/DTD/svg11.dtd">
<!-- Generated by graphviz version 2.46.0 (0)
 -->
<!-- Title: haldls::vx::detail::BackendContainerTrait&lt; lola::vx::DACChannelBlock &gt; Pages: 1 -->
<svg width="344pt" height="65pt"
 viewBox="0.00 0.00 343.55 65.00" xmlns="http://www.w3.org/2000/svg" xmlns:xlink="http://www.w3.org/1999/xlink">
<g id="graph0" class="graph" transform="scale(1 1) rotate(0) translate(4 61)">
<title>haldls::vx::detail::BackendContainerTrait&lt; lola::vx::DACChannelBlock &gt;</title>
<polygon fill="white" stroke="transparent" points="-4,4 -4,-61 339.55,-61 339.55,4 -4,4"/>
<!-- Node1 -->
<g id="node1" class="node">
<title>Node1</title>
<g id="a_node1"><a xlink:title=" ">
<polygon fill="#bfbfbf" stroke="black" points="182.86,-6.5 182.86,-50.5 335.55,-50.5 335.55,-6.5 182.86,-6.5"/>
<text text-anchor="start" x="190.86" y="-37.5" font-family="Helvetica,sans-Serif" font-size="10.00">haldls::vx::detail</text>
<text text-anchor="start" x="190.86" y="-25.5" font-family="Helvetica,sans-Serif" font-size="10.00">::BackendContainerTrait</text>
<text text-anchor="middle" x="259.2" y="-13.5" font-family="Helvetica,sans-Serif" font-size="10.00">&lt; lola::vx::DACChannelBlock &gt;</text>
</a>
</g>
</g>
<!-- Node2 -->
<g id="node2" class="node">
<title>Node2</title>
<g id="a_node2"><a xlink:title=" ">
<polygon fill="white" stroke="#bfbfbf" points="0,-0.5 0,-56.5 146.86,-56.5 146.86,-0.5 0,-0.5"/>
<text text-anchor="start" x="8" y="-43.5" font-family="Helvetica,sans-Serif" font-size="10.00">BackendContainerBase</text>
<text text-anchor="start" x="8" y="-31.5" font-family="Helvetica,sans-Serif" font-size="10.00">&lt; lola::vx::DACChannelBlock,</text>
<text text-anchor="start" x="8" y="-19.5" font-family="Helvetica,sans-Serif" font-size="10.00"> fisch::vx::word_access_type</text>
<text text-anchor="middle" x="73.43" y="-7.5" font-family="Helvetica,sans-Serif" font-size="10.00">::SPIDACDataRegister &gt;</text>
</a>
</g>
</g>
<!-- Node2&#45;&gt;Node1 -->
<g id="edge1" class="edge">
<title>Node2&#45;&gt;Node1</title>
<path fill="none" stroke="midnightblue" d="M157.33,-28.5C165.81,-28.5 174.39,-28.5 182.78,-28.5"/>
<polygon fill="midnightblue" stroke="midnightblue" points="157.06,-25 147.06,-28.5 157.06,-32 157.06,-25"/>
</g>
</g>
</svg>
