<?xml version="1.0" encoding="UTF-8" standalone="no"?>
<!DOCTYPE svg PUBLIC "-//W3C//DTD SVG 1.1//EN"
 "http://www.w3.org/Graphics/SVG/1.1/DTD/svg11.dtd">
<!-- Generated by graphviz version 2.46.0 (0)
 -->
<!-- Title: /jenkins/jenlib_workspaces_f9/bld_nightly&#45;haldls.YmxkX25pZ2h0bHktaGFsZGxzIzEzNzk.x/haldls/include/lola/vx/synapse_driver.h Pages: 1 -->
<svg width="1612pt" height="203pt"
 viewBox="0.00 0.00 1612.03 203.00" xmlns="http://www.w3.org/2000/svg" xmlns:xlink="http://www.w3.org/1999/xlink">
<g id="graph0" class="graph" transform="scale(1 1) rotate(0) translate(4 199)">
<title>/jenkins/jenlib_workspaces_f9/bld_nightly&#45;haldls.YmxkX25pZ2h0bHktaGFsZGxzIzEzNzk.x/haldls/include/lola/vx/synapse_driver.h</title>
<polygon fill="white" stroke="transparent" points="-4,4 -4,-199 1608.03,-199 1608.03,4 -4,4"/>
<!-- Node1 -->
<g id="node1" class="node">
<title>Node1</title>
<g id="a_node1"><a xlink:title=" ">
<polygon fill="#bfbfbf" stroke="black" points="766.16,-138.5 766.16,-194.5 947.18,-194.5 947.18,-138.5 766.16,-138.5"/>
<text text-anchor="start" x="774.16" y="-181.5" font-family="Helvetica,sans-Serif" font-size="10.00">/jenkins/jenlib_workspaces</text>
<text text-anchor="start" x="774.16" y="-169.5" font-family="Helvetica,sans-Serif" font-size="10.00">_f9/bld_nightly&#45;haldls.YmxkX25p</text>
<text text-anchor="start" x="774.16" y="-157.5" font-family="Helvetica,sans-Serif" font-size="10.00">Z2h0bHktaGFsZGxzIzEzNzk.x/haldls</text>
<text text-anchor="middle" x="856.67" y="-145.5" font-family="Helvetica,sans-Serif" font-size="10.00">/include/lola/vx/synapse_driver.h</text>
</a>
</g>
</g>
<!-- Node2 -->
<g id="node2" class="node">
<title>Node2</title>
<g id="a_node2"><a xlink:title=" ">
<polygon fill="white" stroke="#bfbfbf" points="0,-63.5 0,-95.5 149.34,-95.5 149.34,-63.5 0,-63.5"/>
<text text-anchor="start" x="8" y="-82.5" font-family="Helvetica,sans-Serif" font-size="10.00">haldlsID(/)vxID(/)vID</text>
<text text-anchor="middle" x="74.67" y="-70.5" font-family="Helvetica,sans-Serif" font-size="10.00">(CHIP_REVISION)/capmem.h</text>
</a>
</g>
</g>
<!-- Node1&#45;&gt;Node2 -->
<g id="edge1" class="edge">
<title>Node1&#45;&gt;Node2</title>
<path fill="none" stroke="midnightblue" d="M765.99,-161.88C632.26,-155.5 374.66,-139.22 158.67,-102 151.99,-100.85 145.06,-99.44 138.18,-97.89"/>
<polygon fill="midnightblue" stroke="midnightblue" points="138.7,-94.42 128.17,-95.55 137.11,-101.24 138.7,-94.42"/>
</g>
<!-- Node3 -->
<g id="node3" class="node">
<title>Node3</title>
<g id="a_node3"><a xlink:title=" ">
<polygon fill="white" stroke="#bfbfbf" points="167.72,-63.5 167.72,-95.5 297.62,-95.5 297.62,-63.5 167.72,-63.5"/>
<text text-anchor="start" x="175.72" y="-82.5" font-family="Helvetica,sans-Serif" font-size="10.00">haldlsID(/)vxID(/)vID</text>
<text text-anchor="middle" x="232.67" y="-70.5" font-family="Helvetica,sans-Serif" font-size="10.00">(CHIP_REVISION)/padi.h</text>
</a>
</g>
</g>
<!-- Node1&#45;&gt;Node3 -->
<g id="edge2" class="edge">
<title>Node1&#45;&gt;Node3</title>
<path fill="none" stroke="midnightblue" d="M765.91,-159.71C656.27,-151.64 466.62,-134.23 306.67,-102 301.26,-100.91 295.67,-99.61 290.1,-98.2"/>
<polygon fill="midnightblue" stroke="midnightblue" points="290.71,-94.74 280.14,-95.57 288.92,-101.51 290.71,-94.74"/>
</g>
<!-- Node4 -->
<g id="node4" class="node">
<title>Node4</title>
<g id="a_node4"><a xlink:title=" ">
<polygon fill="white" stroke="#bfbfbf" points="315.72,-57.5 315.72,-101.5 455.62,-101.5 455.62,-57.5 315.72,-57.5"/>
<text text-anchor="start" x="323.72" y="-88.5" font-family="Helvetica,sans-Serif" font-size="10.00">haldlsID(/)vxID(/)vID</text>
<text text-anchor="start" x="323.72" y="-76.5" font-family="Helvetica,sans-Serif" font-size="10.00">(CHIP_REVISION)/synapse</text>
<text text-anchor="middle" x="385.67" y="-64.5" font-family="Helvetica,sans-Serif" font-size="10.00">_driver.h</text>
</a>
</g>
</g>
<!-- Node1&#45;&gt;Node4 -->
<g id="edge3" class="edge">
<title>Node1&#45;&gt;Node4</title>
<path fill="none" stroke="midnightblue" d="M765.86,-153.55C688.42,-142.72 574.03,-125.23 465.59,-102.1"/>
<polygon fill="midnightblue" stroke="midnightblue" points="466.3,-98.68 455.79,-99.99 464.83,-105.52 466.3,-98.68"/>
</g>
<!-- Node5 -->
<g id="node5" class="node">
<title>Node5</title>
<g id="a_node5"><a xlink:title=" ">
<polygon fill="white" stroke="#bfbfbf" points="473.88,-69.5 473.88,-89.5 595.45,-89.5 595.45,-69.5 473.88,-69.5"/>
<text text-anchor="middle" x="534.67" y="-76.5" font-family="Helvetica,sans-Serif" font-size="10.00">halco/common/iter_all.h</text>
</a>
</g>
</g>
<!-- Node1&#45;&gt;Node5 -->
<g id="edge4" class="edge">
<title>Node1&#45;&gt;Node5</title>
<path fill="none" stroke="midnightblue" d="M765.98,-143.84C717.89,-132.05 657.9,-116.87 604.67,-102 594.18,-99.07 582.88,-95.7 572.48,-92.5"/>
<polygon fill="midnightblue" stroke="midnightblue" points="573.43,-89.13 562.84,-89.51 571.36,-95.82 573.43,-89.13"/>
</g>
<!-- Node6 -->
<g id="node6" class="node">
<title>Node6</title>
<g id="a_node6"><a xlink:title=" ">
<polygon fill="white" stroke="#bfbfbf" points="613.55,-63.5 613.55,-95.5 721.79,-95.5 721.79,-63.5 613.55,-63.5"/>
<text text-anchor="start" x="621.55" y="-82.5" font-family="Helvetica,sans-Serif" font-size="10.00">halco/common/typed</text>
<text text-anchor="middle" x="667.67" y="-70.5" font-family="Helvetica,sans-Serif" font-size="10.00">_array.h</text>
</a>
</g>
</g>
<!-- Node1&#45;&gt;Node6 -->
<g id="edge5" class="edge">
<title>Node1&#45;&gt;Node6</title>
<path fill="none" stroke="midnightblue" d="M796.61,-138.49C768.62,-125.9 735.97,-111.22 710.52,-99.77"/>
<polygon fill="midnightblue" stroke="midnightblue" points="711.7,-96.47 701.15,-95.56 708.83,-102.85 711.7,-96.47"/>
</g>
<!-- Node7 -->
<g id="node7" class="node">
<title>Node7</title>
<g id="a_node7"><a xlink:title=" ">
<polygon fill="white" stroke="#bfbfbf" points="739.99,-69.5 739.99,-89.5 849.34,-89.5 849.34,-69.5 739.99,-69.5"/>
<text text-anchor="middle" x="794.67" y="-76.5" font-family="Helvetica,sans-Serif" font-size="10.00">haldls/cerealization.h</text>
</a>
</g>
</g>
<!-- Node1&#45;&gt;Node7 -->
<g id="edge6" class="edge">
<title>Node1&#45;&gt;Node7</title>
<path fill="none" stroke="midnightblue" d="M836.71,-138.14C827.1,-124.96 815.86,-109.56 807.43,-97.99"/>
<polygon fill="midnightblue" stroke="midnightblue" points="810.06,-95.67 801.34,-89.65 804.41,-99.79 810.06,-95.67"/>
</g>
<!-- Node8 -->
<g id="node8" class="node">
<title>Node8</title>
<g id="a_node8"><a xlink:title=" ">
<polygon fill="white" stroke="#bfbfbf" points="867.5,-69.5 867.5,-89.5 971.84,-89.5 971.84,-69.5 867.5,-69.5"/>
<text text-anchor="middle" x="919.67" y="-76.5" font-family="Helvetica,sans-Serif" font-size="10.00">haldls/vx/common.h</text>
</a>
</g>
</g>
<!-- Node1&#45;&gt;Node8 -->
<g id="edge7" class="edge">
<title>Node1&#45;&gt;Node8</title>
<path fill="none" stroke="midnightblue" d="M876.95,-138.14C886.71,-124.96 898.13,-109.56 906.7,-97.99"/>
<polygon fill="midnightblue" stroke="midnightblue" points="909.74,-99.77 912.89,-89.65 904.12,-95.6 909.74,-99.77"/>
</g>
<!-- Node9 -->
<g id="node9" class="node">
<title>Node9</title>
<g id="a_node9"><a xlink:title=" ">
<polygon fill="white" stroke="#bfbfbf" points="989.83,-69.5 989.83,-89.5 1077.51,-89.5 1077.51,-69.5 989.83,-69.5"/>
<text text-anchor="middle" x="1033.67" y="-76.5" font-family="Helvetica,sans-Serif" font-size="10.00">haldls/vx/traits.h</text>
</a>
</g>
</g>
<!-- Node1&#45;&gt;Node9 -->
<g id="edge8" class="edge">
<title>Node1&#45;&gt;Node9</title>
<path fill="none" stroke="midnightblue" d="M913.16,-138.37C944.06,-123.53 980.98,-105.8 1005.74,-93.91"/>
<polygon fill="midnightblue" stroke="midnightblue" points="1007.42,-96.99 1014.92,-89.5 1004.39,-90.68 1007.42,-96.99"/>
</g>
<!-- Node10 -->
<g id="node10" class="node">
<title>Node10</title>
<g id="a_node10"><a xlink:title=" ">
<polygon fill="white" stroke="#bfbfbf" points="1095.17,-69.5 1095.17,-89.5 1176.17,-89.5 1176.17,-69.5 1095.17,-69.5"/>
<text text-anchor="middle" x="1135.67" y="-76.5" font-family="Helvetica,sans-Serif" font-size="10.00">hate/visibility.h</text>
</a>
</g>
</g>
<!-- Node1&#45;&gt;Node10 -->
<g id="edge9" class="edge">
<title>Node1&#45;&gt;Node10</title>
<path fill="none" stroke="midnightblue" d="M947.44,-143.66C990.14,-132.57 1041.49,-118.05 1086.67,-102 1093.49,-99.58 1100.7,-96.63 1107.43,-93.72"/>
<polygon fill="midnightblue" stroke="midnightblue" points="1109.14,-96.79 1116.84,-89.52 1106.29,-90.39 1109.14,-96.79"/>
</g>
<!-- Node11 -->
<g id="node11" class="node">
<title>Node11</title>
<g id="a_node11"><a xlink:href="cerealization_8h.html" target="_top" xlink:title=" ">
<polygon fill="white" stroke="black" points="1193.88,-69.5 1193.88,-89.5 1305.45,-89.5 1305.45,-69.5 1193.88,-69.5"/>
<text text-anchor="middle" x="1249.67" y="-76.5" font-family="Helvetica,sans-Serif" font-size="10.00">lola/vx/cerealization.h</text>
</a>
</g>
</g>
<!-- Node1&#45;&gt;Node11 -->
<g id="edge10" class="edge">
<title>Node1&#45;&gt;Node11</title>
<path fill="none" stroke="midnightblue" d="M947.47,-151.33C1013.95,-140.14 1106.07,-122.95 1185.67,-102 1195.51,-99.41 1206.04,-96.1 1215.66,-92.86"/>
<polygon fill="midnightblue" stroke="midnightblue" points="1216.97,-96.11 1225.28,-89.54 1214.69,-89.5 1216.97,-96.11"/>
</g>
<!-- Node15 -->
<g id="node15" class="node">
<title>Node15</title>
<g id="a_node15"><a xlink:href="genpybind_8h.html" target="_top" xlink:title=" ">
<polygon fill="white" stroke="black" points="1323.88,-69.5 1323.88,-89.5 1425.46,-89.5 1425.46,-69.5 1323.88,-69.5"/>
<text text-anchor="middle" x="1374.67" y="-76.5" font-family="Helvetica,sans-Serif" font-size="10.00">lola/vx/genpybind.h</text>
</a>
</g>
</g>
<!-- Node1&#45;&gt;Node15 -->
<g id="edge14" class="edge">
<title>Node1&#45;&gt;Node15</title>
<path fill="none" stroke="midnightblue" d="M947.22,-158.5C1040.37,-150 1189.16,-132.84 1314.67,-102 1324.14,-99.67 1334.2,-96.4 1343.32,-93.11"/>
<polygon fill="midnightblue" stroke="midnightblue" points="1344.64,-96.35 1352.78,-89.57 1342.18,-89.8 1344.64,-96.35"/>
</g>
<!-- Node16 -->
<g id="node16" class="node">
<title>Node16</title>
<g id="a_node16"><a xlink:title=" ">
<polygon fill="white" stroke="#bfbfbf" points="1461.31,-69.5 1461.31,-89.5 1604.03,-89.5 1604.03,-69.5 1461.31,-69.5"/>
<text text-anchor="middle" x="1532.67" y="-76.5" font-family="Helvetica,sans-Serif" font-size="10.00">boost/hana/adapt_struct.hpp</text>
</a>
</g>
</g>
<!-- Node1&#45;&gt;Node16 -->
<g id="edge16" class="edge">
<title>Node1&#45;&gt;Node16</title>
<path fill="none" stroke="midnightblue" d="M947.42,-160.26C1064.82,-152.47 1275.31,-135.07 1452.67,-102 1466.06,-99.5 1480.48,-95.91 1493.35,-92.38"/>
<polygon fill="midnightblue" stroke="midnightblue" points="1494.61,-95.66 1503.29,-89.58 1492.71,-88.92 1494.61,-95.66"/>
</g>
<!-- Node12 -->
<g id="node12" class="node">
<title>Node12</title>
<g id="a_node12"><a xlink:title=" ">
<polygon fill="white" stroke="#bfbfbf" points="1126.61,-0.5 1126.61,-20.5 1188.73,-20.5 1188.73,-0.5 1126.61,-0.5"/>
<text text-anchor="middle" x="1157.67" y="-7.5" font-family="Helvetica,sans-Serif" font-size="10.00">type_traits</text>
</a>
</g>
</g>
<!-- Node11&#45;&gt;Node12 -->
<g id="edge11" class="edge">
<title>Node11&#45;&gt;Node12</title>
<path fill="none" stroke="midnightblue" d="M1237.26,-69.46C1222.17,-58.47 1196.48,-39.76 1178.37,-26.58"/>
<polygon fill="midnightblue" stroke="midnightblue" points="1180.32,-23.66 1170.17,-20.61 1176.2,-29.32 1180.32,-23.66"/>
</g>
<!-- Node13 -->
<g id="node13" class="node">
<title>Node13</title>
<g id="a_node13"><a xlink:title=" ">
<polygon fill="white" stroke="#bfbfbf" points="1207.2,-0.5 1207.2,-20.5 1292.13,-20.5 1292.13,-0.5 1207.2,-0.5"/>
<text text-anchor="middle" x="1249.67" y="-7.5" font-family="Helvetica,sans-Serif" font-size="10.00">boost/hana.hpp</text>
</a>
</g>
</g>
<!-- Node11&#45;&gt;Node13 -->
<g id="edge12" class="edge">
<title>Node11&#45;&gt;Node13</title>
<path fill="none" stroke="midnightblue" d="M1249.67,-69.46C1249.67,-59.63 1249.67,-43.61 1249.67,-30.9"/>
<polygon fill="midnightblue" stroke="midnightblue" points="1253.17,-30.82 1249.67,-20.82 1246.17,-30.82 1253.17,-30.82"/>
</g>
<!-- Node14 -->
<g id="node14" class="node">
<title>Node14</title>
<g id="a_node14"><a xlink:title=" ">
<polygon fill="white" stroke="#bfbfbf" points="1310.55,-0.5 1310.55,-20.5 1408.79,-20.5 1408.79,-0.5 1310.55,-0.5"/>
<text text-anchor="middle" x="1359.67" y="-7.5" font-family="Helvetica,sans-Serif" font-size="10.00">cereal/macros.hpp</text>
</a>
</g>
</g>
<!-- Node11&#45;&gt;Node14 -->
<g id="edge13" class="edge">
<title>Node11&#45;&gt;Node14</title>
<path fill="none" stroke="midnightblue" d="M1264.5,-69.46C1282.87,-58.28 1314.39,-39.08 1336.09,-25.86"/>
<polygon fill="midnightblue" stroke="midnightblue" points="1338,-28.8 1344.72,-20.61 1334.36,-22.82 1338,-28.8"/>
</g>
<!-- Node15&#45;&gt;Node15 -->
<g id="edge15" class="edge">
<title>Node15&#45;&gt;Node15</title>
<path fill="none" stroke="midnightblue" d="M1396.86,-89.54C1418.99,-95.26 1443.46,-91.92 1443.46,-79.5 1443.46,-68.93 1425.72,-64.93 1406.78,-67.51"/>
<polygon fill="midnightblue" stroke="midnightblue" points="1406,-64.1 1396.86,-69.46 1407.35,-70.97 1406,-64.1"/>
</g>
</g>
</svg>
