<?xml version="1.0" encoding="UTF-8" standalone="no"?>
<!DOCTYPE svg PUBLIC "-//W3C//DTD SVG 1.1//EN"
 "http://www.w3.org/Graphics/SVG/1.1/DTD/svg11.dtd">
<!-- Generated by graphviz version 2.46.0 (0)
 -->
<!-- Title: /jenkins/jenlib_workspaces_f9/bld_nightly&#45;haldls.YmxkX25pZ2h0bHktaGFsZGxzIzEzNzk.x/haldls/include/lola/vx/synapse.h Pages: 1 -->
<!--zoomable 623 -->
<svg id="main" version="1.1" xmlns="http://www.w3.org/2000/svg" xmlns:xlink="http://www.w3.org/1999/xlink" xml:space="preserve" onload="init(evt)">
<style type="text/css"><![CDATA[
.edge:hover path { stroke: red; }
.edge:hover polygon { stroke: red; fill: red; }
]]></style>
<script type="text/javascript"><![CDATA[
var edges = document.getElementsByTagName('g');
if (edges && edges.length) {
  for (var i=0;i<edges.length;i++) {
    if (edges[i].id.substr(0,4)=='edge') {
      edges[i].setAttribute('class','edge');
    }
  }
}
]]></script>
        <defs>
                <circle id="rim" cx="0" cy="0" r="7"/>
                <circle id="rim2" cx="0" cy="0" r="3.5"/>
                <g id="zoomPlus">
                        <use xlink:href="#rim" fill="#404040">
                                <set attributeName="fill" to="#808080" begin="zoomplus.mouseover" end="zoomplus.mouseout"/>
                        </use>
                        <path d="M-4,0h8M0,-4v8" fill="none" stroke="white" stroke-width="1.5" pointer-events="none"/>
                </g>
                <g id="zoomMin">
                        <use xlink:href="#rim" fill="#404040">
                                <set attributeName="fill" to="#808080" begin="zoomminus.mouseover" end="zoomminus.mouseout"/>
                        </use>
                        <path d="M-4,0h8" fill="none" stroke="white" stroke-width="1.5" pointer-events="none"/>
                </g>
                <g id="dirArrow">
                        <path fill="none" stroke="white" stroke-width="1.5" d="M0,-3.0v7 M-2.5,-0.5L0,-3.0L2.5,-0.5"/>
                </g>
               <g id="resetDef">
                       <use xlink:href="#rim2" fill="#404040">
                               <set attributeName="fill" to="#808080" begin="reset.mouseover" end="reset.mouseout"/>
                       </use>
               </g>
        </defs>

<script type="text/javascript">
var viewWidth = 821;
var viewHeight = 623;
var sectionId = 'dynsection-1';
</script>
<script xlink:href="svgpan.js"/>
<svg id="graph" class="graph">
<g id="viewport">
<title>/jenkins/jenlib_workspaces_f9/bld_nightly&#45;haldls.YmxkX25pZ2h0bHktaGFsZGxzIzEzNzk.x/haldls/include/lola/vx/synapse.h</title>
<polygon fill="white" stroke="transparent" points="-4,4 -4,-619 816.58,-619 816.58,4 -4,4"/>
<!-- Node1 -->
<g id="node1" class="node">
<title>Node1</title>
<g id="a_node1"><a xlink:title=" ">
<polygon fill="#bfbfbf" stroke="black" points="316.39,-558.5 316.39,-614.5 497.41,-614.5 497.41,-558.5 316.39,-558.5"/>
<text text-anchor="start" x="324.39" y="-601.5" font-family="Helvetica,sans-Serif" font-size="10.00">/jenkins/jenlib_workspaces</text>
<text text-anchor="start" x="324.39" y="-589.5" font-family="Helvetica,sans-Serif" font-size="10.00">_f9/bld_nightly&#45;haldls.YmxkX25p</text>
<text text-anchor="start" x="324.39" y="-577.5" font-family="Helvetica,sans-Serif" font-size="10.00">Z2h0bHktaGFsZGxzIzEzNzk.x/haldls</text>
<text text-anchor="middle" x="406.9" y="-565.5" font-family="Helvetica,sans-Serif" font-size="10.00">/include/lola/vx/synapse.h</text>
</a>
</g>
</g>
<!-- Node2 -->
<g id="node2" class="node">
<title>Node2</title>
<g id="a_node2"><a xlink:href="cadc_8h.html" target="_top" xlink:title=" ">
<polygon fill="white" stroke="black" points="316.39,-465.5 316.39,-521.5 497.41,-521.5 497.41,-465.5 316.39,-465.5"/>
<text text-anchor="start" x="324.39" y="-508.5" font-family="Helvetica,sans-Serif" font-size="10.00">/jenkins/jenlib_workspaces</text>
<text text-anchor="start" x="324.39" y="-496.5" font-family="Helvetica,sans-Serif" font-size="10.00">_f9/bld_nightly&#45;haldls.YmxkX25p</text>
<text text-anchor="start" x="324.39" y="-484.5" font-family="Helvetica,sans-Serif" font-size="10.00">Z2h0bHktaGFsZGxzIzEzNzk.x/haldls</text>
<text text-anchor="middle" x="406.9" y="-472.5" font-family="Helvetica,sans-Serif" font-size="10.00">/include/lola/vx/cadc.h</text>
</a>
</g>
</g>
<!-- Node1&#45;&gt;Node2 -->
<g id="edge1" class="edge">
<title>Node1&#45;&gt;Node2</title>
<path fill="none" stroke="midnightblue" d="M406.9,-548.12C406.9,-539.3 406.9,-530.06 406.9,-521.78"/>
<polygon fill="midnightblue" stroke="midnightblue" points="403.4,-548.2 406.9,-558.2 410.4,-548.2 403.4,-548.2"/>
</g>
<!-- Node13 -->
<g id="node13" class="node">
<title>Node13</title>
<g id="a_node13"><a xlink:href="v2_2synapse_8h.html" target="_top" xlink:title=" ">
<polygon fill="white" stroke="black" points="17.39,-465.5 17.39,-521.5 198.41,-521.5 198.41,-465.5 17.39,-465.5"/>
<text text-anchor="start" x="25.39" y="-508.5" font-family="Helvetica,sans-Serif" font-size="10.00">/jenkins/jenlib_workspaces</text>
<text text-anchor="start" x="25.39" y="-496.5" font-family="Helvetica,sans-Serif" font-size="10.00">_f9/bld_nightly&#45;haldls.YmxkX25p</text>
<text text-anchor="start" x="25.39" y="-484.5" font-family="Helvetica,sans-Serif" font-size="10.00">Z2h0bHktaGFsZGxzIzEzNzk.x/haldls</text>
<text text-anchor="middle" x="107.9" y="-472.5" font-family="Helvetica,sans-Serif" font-size="10.00">/include/lola/vx/v2/synapse.h</text>
</a>
</g>
</g>
<!-- Node1&#45;&gt;Node13 -->
<g id="edge14" class="edge">
<title>Node1&#45;&gt;Node13</title>
<path fill="none" stroke="midnightblue" d="M307.99,-555.4C272.06,-544.46 231.71,-532.18 196.71,-521.53"/>
<polygon fill="midnightblue" stroke="midnightblue" points="307.41,-558.88 318,-558.44 309.45,-552.18 307.41,-558.88"/>
</g>
<!-- Node15 -->
<g id="node15" class="node">
<title>Node15</title>
<g id="a_node15"><a xlink:href="v3_2synapse_8h.html" target="_top" xlink:title=" ">
<polygon fill="white" stroke="black" points="614.39,-465.5 614.39,-521.5 795.41,-521.5 795.41,-465.5 614.39,-465.5"/>
<text text-anchor="start" x="622.39" y="-508.5" font-family="Helvetica,sans-Serif" font-size="10.00">/jenkins/jenlib_workspaces</text>
<text text-anchor="start" x="622.39" y="-496.5" font-family="Helvetica,sans-Serif" font-size="10.00">_f9/bld_nightly&#45;haldls.YmxkX25p</text>
<text text-anchor="start" x="622.39" y="-484.5" font-family="Helvetica,sans-Serif" font-size="10.00">Z2h0bHktaGFsZGxzIzEzNzk.x/haldls</text>
<text text-anchor="middle" x="704.9" y="-472.5" font-family="Helvetica,sans-Serif" font-size="10.00">/include/lola/vx/v3/synapse.h</text>
</a>
</g>
</g>
<!-- Node1&#45;&gt;Node15 -->
<g id="edge19" class="edge">
<title>Node1&#45;&gt;Node15</title>
<path fill="none" stroke="midnightblue" d="M505.47,-555.4C541.28,-544.46 581.49,-532.18 616.38,-521.53"/>
<polygon fill="midnightblue" stroke="midnightblue" points="504.04,-552.18 495.5,-558.44 506.09,-558.87 504.04,-552.18"/>
</g>
<!-- Node3 -->
<g id="node3" class="node">
<title>Node3</title>
<g id="a_node3"><a xlink:href="v2_2cadc_8h.html" target="_top" xlink:title=" ">
<polygon fill="white" stroke="black" points="216.39,-372.5 216.39,-428.5 397.41,-428.5 397.41,-372.5 216.39,-372.5"/>
<text text-anchor="start" x="224.39" y="-415.5" font-family="Helvetica,sans-Serif" font-size="10.00">/jenkins/jenlib_workspaces</text>
<text text-anchor="start" x="224.39" y="-403.5" font-family="Helvetica,sans-Serif" font-size="10.00">_f9/bld_nightly&#45;haldls.YmxkX25p</text>
<text text-anchor="start" x="224.39" y="-391.5" font-family="Helvetica,sans-Serif" font-size="10.00">Z2h0bHktaGFsZGxzIzEzNzk.x/haldls</text>
<text text-anchor="middle" x="306.9" y="-379.5" font-family="Helvetica,sans-Serif" font-size="10.00">/include/lola/vx/v2/cadc.h</text>
</a>
</g>
</g>
<!-- Node2&#45;&gt;Node3 -->
<g id="edge2" class="edge">
<title>Node2&#45;&gt;Node3</title>
<path fill="none" stroke="midnightblue" d="M369.46,-458.44C358.64,-448.59 346.98,-437.97 336.69,-428.61"/>
<polygon fill="midnightblue" stroke="midnightblue" points="367.41,-461.3 377.16,-465.44 372.12,-456.12 367.41,-461.3"/>
</g>
<!-- Node8 -->
<g id="node8" class="node">
<title>Node8</title>
<g id="a_node8"><a xlink:href="v3_2cadc_8h.html" target="_top" xlink:title=" ">
<polygon fill="white" stroke="black" points="415.39,-372.5 415.39,-428.5 596.41,-428.5 596.41,-372.5 415.39,-372.5"/>
<text text-anchor="start" x="423.39" y="-415.5" font-family="Helvetica,sans-Serif" font-size="10.00">/jenkins/jenlib_workspaces</text>
<text text-anchor="start" x="423.39" y="-403.5" font-family="Helvetica,sans-Serif" font-size="10.00">_f9/bld_nightly&#45;haldls.YmxkX25p</text>
<text text-anchor="start" x="423.39" y="-391.5" font-family="Helvetica,sans-Serif" font-size="10.00">Z2h0bHktaGFsZGxzIzEzNzk.x/haldls</text>
<text text-anchor="middle" x="505.9" y="-379.5" font-family="Helvetica,sans-Serif" font-size="10.00">/include/lola/vx/v3/cadc.h</text>
</a>
</g>
</g>
<!-- Node2&#45;&gt;Node8 -->
<g id="edge8" class="edge">
<title>Node2&#45;&gt;Node8</title>
<path fill="none" stroke="midnightblue" d="M443.96,-458.44C454.67,-448.59 466.22,-437.97 476.4,-428.61"/>
<polygon fill="midnightblue" stroke="midnightblue" points="441.33,-456.1 436.33,-465.44 446.06,-461.25 441.33,-456.1"/>
</g>
<!-- Node4 -->
<g id="node4" class="node">
<title>Node4</title>
<g id="a_node4"><a xlink:href="v2_2chip_8h.html" target="_top" xlink:title=" ">
<polygon fill="white" stroke="black" points="97.39,-279.5 97.39,-335.5 278.41,-335.5 278.41,-279.5 97.39,-279.5"/>
<text text-anchor="start" x="105.39" y="-322.5" font-family="Helvetica,sans-Serif" font-size="10.00">/jenkins/jenlib_workspaces</text>
<text text-anchor="start" x="105.39" y="-310.5" font-family="Helvetica,sans-Serif" font-size="10.00">_f9/bld_nightly&#45;haldls.YmxkX25p</text>
<text text-anchor="start" x="105.39" y="-298.5" font-family="Helvetica,sans-Serif" font-size="10.00">Z2h0bHktaGFsZGxzIzEzNzk.x/haldls</text>
<text text-anchor="middle" x="187.9" y="-286.5" font-family="Helvetica,sans-Serif" font-size="10.00">/include/lola/vx/v2/chip.h</text>
</a>
</g>
</g>
<!-- Node3&#45;&gt;Node4 -->
<g id="edge3" class="edge">
<title>Node3&#45;&gt;Node4</title>
<path fill="none" stroke="midnightblue" d="M263.47,-366.29C250.28,-356.21 235.95,-345.25 223.35,-335.61"/>
<polygon fill="midnightblue" stroke="midnightblue" points="261.45,-369.15 271.51,-372.44 265.7,-363.59 261.45,-369.15"/>
</g>
<!-- Node5 -->
<g id="node5" class="node">
<title>Node5</title>
<g id="a_node5"><a xlink:href="v2_2container_8h.html" target="_top" xlink:title=" ">
<polygon fill="white" stroke="black" points="38.39,-186.5 38.39,-242.5 219.41,-242.5 219.41,-186.5 38.39,-186.5"/>
<text text-anchor="start" x="46.39" y="-229.5" font-family="Helvetica,sans-Serif" font-size="10.00">/jenkins/jenlib_workspaces</text>
<text text-anchor="start" x="46.39" y="-217.5" font-family="Helvetica,sans-Serif" font-size="10.00">_f9/bld_nightly&#45;haldls.YmxkX25p</text>
<text text-anchor="start" x="46.39" y="-205.5" font-family="Helvetica,sans-Serif" font-size="10.00">Z2h0bHktaGFsZGxzIzEzNzk.x/haldls</text>
<text text-anchor="middle" x="128.9" y="-193.5" font-family="Helvetica,sans-Serif" font-size="10.00">/include/lola/vx/v2/container.h</text>
</a>
</g>
</g>
<!-- Node3&#45;&gt;Node5 -->
<g id="edge7" class="edge">
<title>Node3&#45;&gt;Node5</title>
<path fill="none" stroke="midnightblue" d="M310.12,-362.08C310.35,-336.13 306.42,-302.2 287.9,-279 270.74,-257.51 245.23,-243.26 219.63,-233.82"/>
<polygon fill="midnightblue" stroke="midnightblue" points="306.62,-362.2 309.82,-372.3 313.61,-362.41 306.62,-362.2"/>
</g>
<!-- Node4&#45;&gt;Node5 -->
<g id="edge4" class="edge">
<title>Node4&#45;&gt;Node5</title>
<path fill="none" stroke="midnightblue" d="M164.59,-270.55C158.6,-261.31 152.24,-251.51 146.59,-242.78"/>
<polygon fill="midnightblue" stroke="midnightblue" points="161.82,-272.71 170.19,-279.2 167.69,-268.9 161.82,-272.71"/>
</g>
<!-- Node6 -->
<g id="node6" class="node">
<title>Node6</title>
<g id="a_node6"><a xlink:href="v2_2lola_8h.html" target="_top" xlink:title=" ">
<polygon fill="white" stroke="black" points="38.39,-93.5 38.39,-149.5 219.41,-149.5 219.41,-93.5 38.39,-93.5"/>
<text text-anchor="start" x="46.39" y="-136.5" font-family="Helvetica,sans-Serif" font-size="10.00">/jenkins/jenlib_workspaces</text>
<text text-anchor="start" x="46.39" y="-124.5" font-family="Helvetica,sans-Serif" font-size="10.00">_f9/bld_nightly&#45;haldls.YmxkX25p</text>
<text text-anchor="start" x="46.39" y="-112.5" font-family="Helvetica,sans-Serif" font-size="10.00">Z2h0bHktaGFsZGxzIzEzNzk.x/haldls</text>
<text text-anchor="middle" x="128.9" y="-100.5" font-family="Helvetica,sans-Serif" font-size="10.00">/include/lola/vx/v2/lola.h</text>
</a>
</g>
</g>
<!-- Node5&#45;&gt;Node6 -->
<g id="edge5" class="edge">
<title>Node5&#45;&gt;Node6</title>
<path fill="none" stroke="midnightblue" d="M128.9,-176.12C128.9,-167.3 128.9,-158.06 128.9,-149.78"/>
<polygon fill="midnightblue" stroke="midnightblue" points="125.4,-176.2 128.9,-186.2 132.4,-176.2 125.4,-176.2"/>
</g>
<!-- Node7 -->
<g id="node7" class="node">
<title>Node7</title>
<g id="a_node7"><a xlink:href="v2_2pylola_8h.html" target="_top" xlink:title=" ">
<polygon fill="white" stroke="black" points="38.39,-0.5 38.39,-56.5 219.41,-56.5 219.41,-0.5 38.39,-0.5"/>
<text text-anchor="start" x="46.39" y="-43.5" font-family="Helvetica,sans-Serif" font-size="10.00">/jenkins/jenlib_workspaces</text>
<text text-anchor="start" x="46.39" y="-31.5" font-family="Helvetica,sans-Serif" font-size="10.00">_f9/bld_nightly&#45;haldls.YmxkX25p</text>
<text text-anchor="start" x="46.39" y="-19.5" font-family="Helvetica,sans-Serif" font-size="10.00">Z2h0bHktaGFsZGxzIzEzNzk.x/haldls</text>
<text text-anchor="middle" x="128.9" y="-7.5" font-family="Helvetica,sans-Serif" font-size="10.00">/include/lola/vx/v2/pylola.h</text>
</a>
</g>
</g>
<!-- Node6&#45;&gt;Node7 -->
<g id="edge6" class="edge">
<title>Node6&#45;&gt;Node7</title>
<path fill="none" stroke="midnightblue" d="M128.9,-83.12C128.9,-74.3 128.9,-65.06 128.9,-56.78"/>
<polygon fill="midnightblue" stroke="midnightblue" points="125.4,-83.2 128.9,-93.2 132.4,-83.2 125.4,-83.2"/>
</g>
<!-- Node9 -->
<g id="node9" class="node">
<title>Node9</title>
<g id="a_node9"><a xlink:href="v3_2chip_8h.html" target="_top" xlink:title=" ">
<polygon fill="white" stroke="black" points="534.39,-279.5 534.39,-335.5 715.41,-335.5 715.41,-279.5 534.39,-279.5"/>
<text text-anchor="start" x="542.39" y="-322.5" font-family="Helvetica,sans-Serif" font-size="10.00">/jenkins/jenlib_workspaces</text>
<text text-anchor="start" x="542.39" y="-310.5" font-family="Helvetica,sans-Serif" font-size="10.00">_f9/bld_nightly&#45;haldls.YmxkX25p</text>
<text text-anchor="start" x="542.39" y="-298.5" font-family="Helvetica,sans-Serif" font-size="10.00">Z2h0bHktaGFsZGxzIzEzNzk.x/haldls</text>
<text text-anchor="middle" x="624.9" y="-286.5" font-family="Helvetica,sans-Serif" font-size="10.00">/include/lola/vx/v3/chip.h</text>
</a>
</g>
</g>
<!-- Node8&#45;&gt;Node9 -->
<g id="edge9" class="edge">
<title>Node8&#45;&gt;Node9</title>
<path fill="none" stroke="midnightblue" d="M549.32,-366.29C562.51,-356.21 576.84,-345.25 589.45,-335.61"/>
<polygon fill="midnightblue" stroke="midnightblue" points="547.1,-363.59 541.28,-372.44 551.35,-369.15 547.1,-363.59"/>
</g>
<!-- Node10 -->
<g id="node10" class="node">
<title>Node10</title>
<g id="a_node10"><a xlink:href="v3_2container_8h.html" target="_top" xlink:title=" ">
<polygon fill="white" stroke="black" points="593.39,-186.5 593.39,-242.5 774.41,-242.5 774.41,-186.5 593.39,-186.5"/>
<text text-anchor="start" x="601.39" y="-229.5" font-family="Helvetica,sans-Serif" font-size="10.00">/jenkins/jenlib_workspaces</text>
<text text-anchor="start" x="601.39" y="-217.5" font-family="Helvetica,sans-Serif" font-size="10.00">_f9/bld_nightly&#45;haldls.YmxkX25p</text>
<text text-anchor="start" x="601.39" y="-205.5" font-family="Helvetica,sans-Serif" font-size="10.00">Z2h0bHktaGFsZGxzIzEzNzk.x/haldls</text>
<text text-anchor="middle" x="683.9" y="-193.5" font-family="Helvetica,sans-Serif" font-size="10.00">/include/lola/vx/v3/container.h</text>
</a>
</g>
</g>
<!-- Node8&#45;&gt;Node10 -->
<g id="edge13" class="edge">
<title>Node8&#45;&gt;Node10</title>
<path fill="none" stroke="midnightblue" d="M502.67,-362.08C502.44,-336.13 506.38,-302.2 524.9,-279 542.05,-257.51 567.56,-243.26 593.16,-233.82"/>
<polygon fill="midnightblue" stroke="midnightblue" points="499.18,-362.41 502.98,-372.3 506.18,-362.2 499.18,-362.41"/>
</g>
<!-- Node9&#45;&gt;Node10 -->
<g id="edge10" class="edge">
<title>Node9&#45;&gt;Node10</title>
<path fill="none" stroke="midnightblue" d="M648.2,-270.55C654.2,-261.31 660.55,-251.51 666.21,-242.78"/>
<polygon fill="midnightblue" stroke="midnightblue" points="645.1,-268.9 642.6,-279.2 650.98,-272.71 645.1,-268.9"/>
</g>
<!-- Node11 -->
<g id="node11" class="node">
<title>Node11</title>
<g id="a_node11"><a xlink:href="v3_2lola_8h.html" target="_top" xlink:title=" ">
<polygon fill="white" stroke="black" points="593.39,-93.5 593.39,-149.5 774.41,-149.5 774.41,-93.5 593.39,-93.5"/>
<text text-anchor="start" x="601.39" y="-136.5" font-family="Helvetica,sans-Serif" font-size="10.00">/jenkins/jenlib_workspaces</text>
<text text-anchor="start" x="601.39" y="-124.5" font-family="Helvetica,sans-Serif" font-size="10.00">_f9/bld_nightly&#45;haldls.YmxkX25p</text>
<text text-anchor="start" x="601.39" y="-112.5" font-family="Helvetica,sans-Serif" font-size="10.00">Z2h0bHktaGFsZGxzIzEzNzk.x/haldls</text>
<text text-anchor="middle" x="683.9" y="-100.5" font-family="Helvetica,sans-Serif" font-size="10.00">/include/lola/vx/v3/lola.h</text>
</a>
</g>
</g>
<!-- Node10&#45;&gt;Node11 -->
<g id="edge11" class="edge">
<title>Node10&#45;&gt;Node11</title>
<path fill="none" stroke="midnightblue" d="M683.9,-176.12C683.9,-167.3 683.9,-158.06 683.9,-149.78"/>
<polygon fill="midnightblue" stroke="midnightblue" points="680.4,-176.2 683.9,-186.2 687.4,-176.2 680.4,-176.2"/>
</g>
<!-- Node12 -->
<g id="node12" class="node">
<title>Node12</title>
<g id="a_node12"><a xlink:href="v3_2pylola_8h.html" target="_top" xlink:title=" ">
<polygon fill="white" stroke="black" points="593.39,-0.5 593.39,-56.5 774.41,-56.5 774.41,-0.5 593.39,-0.5"/>
<text text-anchor="start" x="601.39" y="-43.5" font-family="Helvetica,sans-Serif" font-size="10.00">/jenkins/jenlib_workspaces</text>
<text text-anchor="start" x="601.39" y="-31.5" font-family="Helvetica,sans-Serif" font-size="10.00">_f9/bld_nightly&#45;haldls.YmxkX25p</text>
<text text-anchor="start" x="601.39" y="-19.5" font-family="Helvetica,sans-Serif" font-size="10.00">Z2h0bHktaGFsZGxzIzEzNzk.x/haldls</text>
<text text-anchor="middle" x="683.9" y="-7.5" font-family="Helvetica,sans-Serif" font-size="10.00">/include/lola/vx/v3/pylola.h</text>
</a>
</g>
</g>
<!-- Node11&#45;&gt;Node12 -->
<g id="edge12" class="edge">
<title>Node11&#45;&gt;Node12</title>
<path fill="none" stroke="midnightblue" d="M683.9,-83.12C683.9,-74.3 683.9,-65.06 683.9,-56.78"/>
<polygon fill="midnightblue" stroke="midnightblue" points="680.4,-83.2 683.9,-93.2 687.4,-83.2 680.4,-83.2"/>
</g>
<!-- Node13&#45;&gt;Node5 -->
<g id="edge15" class="edge">
<title>Node13&#45;&gt;Node5</title>
<path fill="none" stroke="midnightblue" d="M35.81,-459.59C24.6,-451.24 14.55,-441.11 7.9,-429 -4.3,-406.8 -0.29,-395.97 7.9,-372 25.77,-319.67 69.02,-271.26 98.66,-242.54"/>
<polygon fill="midnightblue" stroke="midnightblue" points="33.93,-462.54 44.14,-465.36 37.91,-456.79 33.93,-462.54"/>
</g>
<!-- Node14 -->
<g id="node14" class="node">
<title>Node14</title>
<g id="a_node14"><a xlink:href="v2_2neuron_8h.html" target="_top" xlink:title=" ">
<polygon fill="white" stroke="black" points="17.39,-372.5 17.39,-428.5 198.41,-428.5 198.41,-372.5 17.39,-372.5"/>
<text text-anchor="start" x="25.39" y="-415.5" font-family="Helvetica,sans-Serif" font-size="10.00">/jenkins/jenlib_workspaces</text>
<text text-anchor="start" x="25.39" y="-403.5" font-family="Helvetica,sans-Serif" font-size="10.00">_f9/bld_nightly&#45;haldls.YmxkX25p</text>
<text text-anchor="start" x="25.39" y="-391.5" font-family="Helvetica,sans-Serif" font-size="10.00">Z2h0bHktaGFsZGxzIzEzNzk.x/haldls</text>
<text text-anchor="middle" x="107.9" y="-379.5" font-family="Helvetica,sans-Serif" font-size="10.00">/include/lola/vx/v2/neuron.h</text>
</a>
</g>
</g>
<!-- Node13&#45;&gt;Node14 -->
<g id="edge16" class="edge">
<title>Node13&#45;&gt;Node14</title>
<path fill="none" stroke="midnightblue" d="M107.9,-455.12C107.9,-446.3 107.9,-437.06 107.9,-428.78"/>
<polygon fill="midnightblue" stroke="midnightblue" points="104.4,-455.2 107.9,-465.2 111.4,-455.2 104.4,-455.2"/>
</g>
<!-- Node14&#45;&gt;Node4 -->
<g id="edge17" class="edge">
<title>Node14&#45;&gt;Node4</title>
<path fill="none" stroke="midnightblue" d="M138.74,-364.41C147.09,-354.91 156,-344.78 163.91,-335.78"/>
<polygon fill="midnightblue" stroke="midnightblue" points="135.87,-362.38 131.9,-372.2 141.13,-367 135.87,-362.38"/>
</g>
<!-- Node14&#45;&gt;Node5 -->
<g id="edge18" class="edge">
<title>Node14&#45;&gt;Node5</title>
<path fill="none" stroke="midnightblue" d="M93.35,-362.78C85.84,-338.64 79.78,-306.53 87.9,-279 91.72,-266.04 99.1,-253.22 106.56,-242.54"/>
<polygon fill="midnightblue" stroke="midnightblue" points="90.03,-363.89 96.5,-372.27 96.67,-361.68 90.03,-363.89"/>
</g>
<!-- Node15&#45;&gt;Node10 -->
<g id="edge20" class="edge">
<title>Node15&#45;&gt;Node10</title>
<path fill="none" stroke="midnightblue" d="M776.99,-459.59C788.19,-451.24 798.24,-441.11 804.9,-429 817.1,-406.8 812.42,-396.19 804.9,-372 788.53,-319.36 745.13,-271.21 715.02,-242.61"/>
<polygon fill="midnightblue" stroke="midnightblue" points="774.88,-456.79 768.65,-465.36 778.87,-462.54 774.88,-456.79"/>
</g>
<!-- Node16 -->
<g id="node16" class="node">
<title>Node16</title>
<g id="a_node16"><a xlink:href="v3_2neuron_8h.html" target="_top" xlink:title=" ">
<polygon fill="white" stroke="black" points="614.39,-372.5 614.39,-428.5 795.41,-428.5 795.41,-372.5 614.39,-372.5"/>
<text text-anchor="start" x="622.39" y="-415.5" font-family="Helvetica,sans-Serif" font-size="10.00">/jenkins/jenlib_workspaces</text>
<text text-anchor="start" x="622.39" y="-403.5" font-family="Helvetica,sans-Serif" font-size="10.00">_f9/bld_nightly&#45;haldls.YmxkX25p</text>
<text text-anchor="start" x="622.39" y="-391.5" font-family="Helvetica,sans-Serif" font-size="10.00">Z2h0bHktaGFsZGxzIzEzNzk.x/haldls</text>
<text text-anchor="middle" x="704.9" y="-379.5" font-family="Helvetica,sans-Serif" font-size="10.00">/include/lola/vx/v3/neuron.h</text>
</a>
</g>
</g>
<!-- Node15&#45;&gt;Node16 -->
<g id="edge21" class="edge">
<title>Node15&#45;&gt;Node16</title>
<path fill="none" stroke="midnightblue" d="M704.9,-455.12C704.9,-446.3 704.9,-437.06 704.9,-428.78"/>
<polygon fill="midnightblue" stroke="midnightblue" points="701.4,-455.2 704.9,-465.2 708.4,-455.2 701.4,-455.2"/>
</g>
<!-- Node16&#45;&gt;Node9 -->
<g id="edge22" class="edge">
<title>Node16&#45;&gt;Node9</title>
<path fill="none" stroke="midnightblue" d="M674.05,-364.41C665.7,-354.91 656.79,-344.78 648.88,-335.78"/>
<polygon fill="midnightblue" stroke="midnightblue" points="671.66,-367 680.89,-372.2 676.92,-362.38 671.66,-367"/>
</g>
<!-- Node16&#45;&gt;Node10 -->
<g id="edge23" class="edge">
<title>Node16&#45;&gt;Node10</title>
<path fill="none" stroke="midnightblue" d="M719.44,-362.78C726.96,-338.64 733.01,-306.53 724.9,-279 721.07,-266.04 713.69,-253.22 706.23,-242.54"/>
<polygon fill="midnightblue" stroke="midnightblue" points="716.12,-361.68 716.29,-372.27 722.76,-363.89 716.12,-361.68"/>
</g>
</g>
</svg>
        <g id="navigator" transform="translate(0 0)" fill="#404254">
                <rect fill="#f2f5e9" fill-opacity="0.5" stroke="#606060" stroke-width=".5" x="0" y="0" width="60" height="60"/>
                <use id="zoomplus" xlink:href="#zoomPlus" x="17" y="9" onmousedown="handleZoom(evt,'in')"/>
                <use id="zoomminus" xlink:href="#zoomMin" x="42" y="9" onmousedown="handleZoom(evt,'out')"/>
                <use id="reset" xlink:href="#resetDef" x="30" y="36" onmousedown="handleReset()"/>
                <g id="arrowUp" xlink:href="#dirArrow" transform="translate(30 24)" onmousedown="handlePan(0,-1)">
                  <use xlink:href="#rim" fill="#404040">
                        <set attributeName="fill" to="#808080" begin="arrowUp.mouseover" end="arrowUp.mouseout"/>
                  </use>
                  <path fill="none" stroke="white" stroke-width="1.5" d="M0,-3.0v7 M-2.5,-0.5L0,-3.0L2.5,-0.5"/>
                </g>
                <g id="arrowRight" xlink:href="#dirArrow" transform="rotate(90) translate(36 -43)" onmousedown="handlePan(1,0)">
                  <use xlink:href="#rim" fill="#404040">
                        <set attributeName="fill" to="#808080" begin="arrowRight.mouseover" end="arrowRight.mouseout"/>
                  </use>
                  <path fill="none" stroke="white" stroke-width="1.5" d="M0,-3.0v7 M-2.5,-0.5L0,-3.0L2.5,-0.5"/>
                </g>
                <g id="arrowDown" xlink:href="#dirArrow" transform="rotate(180) translate(-30 -48)" onmousedown="handlePan(0,1)">
                  <use xlink:href="#rim" fill="#404040">
                        <set attributeName="fill" to="#808080" begin="arrowDown.mouseover" end="arrowDown.mouseout"/>
                  </use>
                  <path fill="none" stroke="white" stroke-width="1.5" d="M0,-3.0v7 M-2.5,-0.5L0,-3.0L2.5,-0.5"/>
                </g>
                <g id="arrowLeft" xlink:href="#dirArrow" transform="rotate(270) translate(-36 17)" onmousedown="handlePan(-1,0)">
                  <use xlink:href="#rim" fill="#404040">
                        <set attributeName="fill" to="#808080" begin="arrowLeft.mouseover" end="arrowLeft.mouseout"/>
                  </use>
                  <path fill="none" stroke="white" stroke-width="1.5" d="M0,-3.0v7 M-2.5,-0.5L0,-3.0L2.5,-0.5"/>
                </g>
        </g>
        <svg viewBox="0 0 15 15" width="100%" height="30px" preserveAspectRatio="xMaxYMin meet">
         <g id="arrow_out" transform="scale(0.3 0.3)">
          <a xlink:href="synapse_8h__dep__incl_org.svg" target="_base">
           <rect id="button" ry="5" rx="5" y="6" x="6" height="38" width="38"
                fill="#f2f5e9" fill-opacity="0.5" stroke="#606060" stroke-width="1.0"/>
           <path id="arrow"
             d="M 11.500037,31.436501 C 11.940474,20.09759 22.043105,11.32322 32.158766,21.979434 L 37.068811,17.246167 C 37.068811,17.246167 37.088388,32 37.088388,32 L 22.160133,31.978069 C 22.160133,31.978069 26.997745,27.140456 26.997745,27.140456 C 18.528582,18.264221 13.291696,25.230495 11.500037,31.436501 z"
             style="fill:#404040;"/>
          </a>
         </g>
        </svg>
</svg>
