<?xml version="1.0" encoding="UTF-8" standalone="no"?>
<!DOCTYPE svg PUBLIC "-//W3C//DTD SVG 1.1//EN"
 "http://www.w3.org/Graphics/SVG/1.1/DTD/svg11.dtd">
<!-- Generated by graphviz version 2.46.0 (0)
 -->
<!-- Title: /jenkins/jenlib_workspaces_f9/bld_nightly&#45;haldls.YmxkX25pZ2h0bHktaGFsZGxzIzEzNzk.x/haldls/include/lola/vx/synapse_block.h Pages: 1 -->
<!--zoomable 191 -->
<svg id="main" version="1.1" xmlns="http://www.w3.org/2000/svg" xmlns:xlink="http://www.w3.org/1999/xlink" xml:space="preserve" onload="init(evt)">
<style type="text/css"><![CDATA[
.edge:hover path { stroke: red; }
.edge:hover polygon { stroke: red; fill: red; }
]]></style>
<script type="text/javascript"><![CDATA[
var edges = document.getElementsByTagName('g');
if (edges && edges.length) {
  for (var i=0;i<edges.length;i++) {
    if (edges[i].id.substr(0,4)=='edge') {
      edges[i].setAttribute('class','edge');
    }
  }
}
]]></script>
        <defs>
                <circle id="rim" cx="0" cy="0" r="7"/>
                <circle id="rim2" cx="0" cy="0" r="3.5"/>
                <g id="zoomPlus">
                        <use xlink:href="#rim" fill="#404040">
                                <set attributeName="fill" to="#808080" begin="zoomplus.mouseover" end="zoomplus.mouseout"/>
                        </use>
                        <path d="M-4,0h8M0,-4v8" fill="none" stroke="white" stroke-width="1.5" pointer-events="none"/>
                </g>
                <g id="zoomMin">
                        <use xlink:href="#rim" fill="#404040">
                                <set attributeName="fill" to="#808080" begin="zoomminus.mouseover" end="zoomminus.mouseout"/>
                        </use>
                        <path d="M-4,0h8" fill="none" stroke="white" stroke-width="1.5" pointer-events="none"/>
                </g>
                <g id="dirArrow">
                        <path fill="none" stroke="white" stroke-width="1.5" d="M0,-3.0v7 M-2.5,-0.5L0,-3.0L2.5,-0.5"/>
                </g>
               <g id="resetDef">
                       <use xlink:href="#rim2" fill="#404040">
                               <set attributeName="fill" to="#808080" begin="reset.mouseover" end="reset.mouseout"/>
                       </use>
               </g>
        </defs>

<script type="text/javascript">
var viewWidth = 1598;
var viewHeight = 191;
var sectionId = 'dynsection-0';
</script>
<script xlink:href="svgpan.js"/>
<svg id="graph" class="graph">
<g id="viewport">
<title>/jenkins/jenlib_workspaces_f9/bld_nightly&#45;haldls.YmxkX25pZ2h0bHktaGFsZGxzIzEzNzk.x/haldls/include/lola/vx/synapse_block.h</title>
<polygon fill="white" stroke="transparent" points="-4,4 -4,-187 1593.9,-187 1593.9,4 -4,4"/>
<!-- Node1 -->
<g id="node1" class="node">
<title>Node1</title>
<g id="a_node1"><a xlink:title=" ">
<polygon fill="#bfbfbf" stroke="black" points="646.28,-126.5 646.28,-182.5 827.29,-182.5 827.29,-126.5 646.28,-126.5"/>
<text text-anchor="start" x="654.28" y="-169.5" font-family="Helvetica,sans-Serif" font-size="10.00">/jenkins/jenlib_workspaces</text>
<text text-anchor="start" x="654.28" y="-157.5" font-family="Helvetica,sans-Serif" font-size="10.00">_f9/bld_nightly&#45;haldls.YmxkX25p</text>
<text text-anchor="start" x="654.28" y="-145.5" font-family="Helvetica,sans-Serif" font-size="10.00">Z2h0bHktaGFsZGxzIzEzNzk.x/haldls</text>
<text text-anchor="middle" x="736.78" y="-133.5" font-family="Helvetica,sans-Serif" font-size="10.00">/include/lola/vx/synapse_block.h</text>
</a>
</g>
</g>
<!-- Node2 -->
<g id="node2" class="node">
<title>Node2</title>
<g id="a_node2"><a xlink:title=" ">
<polygon fill="white" stroke="#bfbfbf" points="0,-63.5 0,-83.5 121.57,-83.5 121.57,-63.5 0,-63.5"/>
<text text-anchor="middle" x="60.78" y="-70.5" font-family="Helvetica,sans-Serif" font-size="10.00">halco/common/iter_all.h</text>
</a>
</g>
</g>
<!-- Node1&#45;&gt;Node2 -->
<g id="edge1" class="edge">
<title>Node1&#45;&gt;Node2</title>
<path fill="none" stroke="midnightblue" d="M646.27,-147.24C527.44,-138.28 312.59,-119.56 130.78,-90 123.35,-88.79 115.52,-87.29 107.9,-85.7"/>
<polygon fill="midnightblue" stroke="midnightblue" points="108.56,-82.26 98.05,-83.57 107.09,-89.1 108.56,-82.26"/>
</g>
<!-- Node3 -->
<g id="node3" class="node">
<title>Node3</title>
<g id="a_node3"><a xlink:title=" ">
<polygon fill="white" stroke="#bfbfbf" points="139.66,-57.5 139.66,-89.5 247.91,-89.5 247.91,-57.5 139.66,-57.5"/>
<text text-anchor="start" x="147.66" y="-76.5" font-family="Helvetica,sans-Serif" font-size="10.00">halco/common/typed</text>
<text text-anchor="middle" x="193.78" y="-64.5" font-family="Helvetica,sans-Serif" font-size="10.00">_array.h</text>
</a>
</g>
</g>
<!-- Node1&#45;&gt;Node3 -->
<g id="edge2" class="edge">
<title>Node1&#45;&gt;Node3</title>
<path fill="none" stroke="midnightblue" d="M646.08,-144.5C551.48,-134.43 398.79,-116.27 258.11,-90.13"/>
<polygon fill="midnightblue" stroke="midnightblue" points="258.47,-86.64 248,-88.24 257.18,-93.52 258.47,-86.64"/>
</g>
<!-- Node4 -->
<g id="node4" class="node">
<title>Node4</title>
<g id="a_node4"><a xlink:title=" ">
<polygon fill="white" stroke="#bfbfbf" points="265.66,-57.5 265.66,-89.5 373.91,-89.5 373.91,-57.5 265.66,-57.5"/>
<text text-anchor="start" x="273.66" y="-76.5" font-family="Helvetica,sans-Serif" font-size="10.00">halco/common/typed</text>
<text text-anchor="middle" x="319.78" y="-64.5" font-family="Helvetica,sans-Serif" font-size="10.00">_heap_array.h</text>
</a>
</g>
</g>
<!-- Node1&#45;&gt;Node4 -->
<g id="edge3" class="edge">
<title>Node1&#45;&gt;Node4</title>
<path fill="none" stroke="midnightblue" d="M646.27,-138.9C577.01,-127.35 478.93,-110.17 384.09,-90.21"/>
<polygon fill="midnightblue" stroke="midnightblue" points="384.54,-86.73 374.03,-88.08 383.09,-93.57 384.54,-86.73"/>
</g>
<!-- Node5 -->
<g id="node5" class="node">
<title>Node5</title>
<g id="a_node5"><a xlink:title=" ">
<polygon fill="white" stroke="#bfbfbf" points="392.11,-63.5 392.11,-83.5 501.46,-83.5 501.46,-63.5 392.11,-63.5"/>
<text text-anchor="middle" x="446.78" y="-70.5" font-family="Helvetica,sans-Serif" font-size="10.00">haldls/cerealization.h</text>
</a>
</g>
</g>
<!-- Node1&#45;&gt;Node5 -->
<g id="edge4" class="edge">
<title>Node1&#45;&gt;Node5</title>
<path fill="none" stroke="midnightblue" d="M646.22,-128.83C594.02,-114.61 530.81,-97.39 489.74,-86.2"/>
<polygon fill="midnightblue" stroke="midnightblue" points="490.62,-82.81 480.05,-83.56 488.78,-89.57 490.62,-82.81"/>
</g>
<!-- Node6 -->
<g id="node6" class="node">
<title>Node6</title>
<g id="a_node6"><a xlink:title=" ">
<polygon fill="white" stroke="#bfbfbf" points="519.61,-63.5 519.61,-83.5 623.96,-83.5 623.96,-63.5 519.61,-63.5"/>
<text text-anchor="middle" x="571.78" y="-70.5" font-family="Helvetica,sans-Serif" font-size="10.00">haldls/vx/common.h</text>
</a>
</g>
</g>
<!-- Node1&#45;&gt;Node6 -->
<g id="edge5" class="edge">
<title>Node1&#45;&gt;Node6</title>
<path fill="none" stroke="midnightblue" d="M680,-126.31C652.88,-113.33 621.64,-98.37 599.72,-87.87"/>
<polygon fill="midnightblue" stroke="midnightblue" points="601.17,-84.69 590.64,-83.53 598.15,-91 601.17,-84.69"/>
</g>
<!-- Node7 -->
<g id="node7" class="node">
<title>Node7</title>
<g id="a_node7"><a xlink:title=" ">
<polygon fill="white" stroke="#bfbfbf" points="641.95,-63.5 641.95,-83.5 729.62,-83.5 729.62,-63.5 641.95,-63.5"/>
<text text-anchor="middle" x="685.78" y="-70.5" font-family="Helvetica,sans-Serif" font-size="10.00">haldls/vx/traits.h</text>
</a>
</g>
</g>
<!-- Node1&#45;&gt;Node7 -->
<g id="edge6" class="edge">
<title>Node1&#45;&gt;Node7</title>
<path fill="none" stroke="midnightblue" d="M719.23,-126.31C711.98,-115.08 703.78,-102.38 697.31,-92.36"/>
<polygon fill="midnightblue" stroke="midnightblue" points="700.1,-90.22 691.73,-83.71 694.22,-94.01 700.1,-90.22"/>
</g>
<!-- Node8 -->
<g id="node8" class="node">
<title>Node8</title>
<g id="a_node8"><a xlink:title=" ">
<polygon fill="white" stroke="#bfbfbf" points="747.28,-63.5 747.28,-83.5 828.29,-83.5 828.29,-63.5 747.28,-63.5"/>
<text text-anchor="middle" x="787.78" y="-70.5" font-family="Helvetica,sans-Serif" font-size="10.00">hate/visibility.h</text>
</a>
</g>
</g>
<!-- Node1&#45;&gt;Node8 -->
<g id="edge7" class="edge">
<title>Node1&#45;&gt;Node8</title>
<path fill="none" stroke="midnightblue" d="M754.34,-126.31C761.59,-115.08 769.79,-102.38 776.25,-92.36"/>
<polygon fill="midnightblue" stroke="midnightblue" points="779.35,-94.01 781.84,-83.71 773.47,-90.22 779.35,-94.01"/>
</g>
<!-- Node9 -->
<g id="node9" class="node">
<title>Node9</title>
<g id="a_node9"><a xlink:href="cerealization_8h.html" target="_top" xlink:title=" ">
<polygon fill="white" stroke="black" points="846,-63.5 846,-83.5 957.57,-83.5 957.57,-63.5 846,-63.5"/>
<text text-anchor="middle" x="901.78" y="-70.5" font-family="Helvetica,sans-Serif" font-size="10.00">lola/vx/cerealization.h</text>
</a>
</g>
</g>
<!-- Node1&#45;&gt;Node9 -->
<g id="edge8" class="edge">
<title>Node1&#45;&gt;Node9</title>
<path fill="none" stroke="midnightblue" d="M793.57,-126.31C820.69,-113.33 851.93,-98.37 873.85,-87.87"/>
<polygon fill="midnightblue" stroke="midnightblue" points="875.42,-91 882.93,-83.53 872.4,-84.69 875.42,-91"/>
</g>
<!-- Node13 -->
<g id="node13" class="node">
<title>Node13</title>
<g id="a_node13"><a xlink:href="genpybind_8h.html" target="_top" xlink:title=" ">
<polygon fill="white" stroke="black" points="975.99,-63.5 975.99,-83.5 1077.58,-83.5 1077.58,-63.5 975.99,-63.5"/>
<text text-anchor="middle" x="1026.78" y="-70.5" font-family="Helvetica,sans-Serif" font-size="10.00">lola/vx/genpybind.h</text>
</a>
</g>
</g>
<!-- Node1&#45;&gt;Node13 -->
<g id="edge12" class="edge">
<title>Node1&#45;&gt;Node13</title>
<path fill="none" stroke="midnightblue" d="M827.35,-128.83C879.55,-114.61 942.76,-97.39 983.83,-86.2"/>
<polygon fill="midnightblue" stroke="midnightblue" points="984.79,-89.57 993.52,-83.56 982.95,-82.81 984.79,-89.57"/>
</g>
<!-- Node14 -->
<g id="node14" class="node">
<title>Node14</title>
<g id="a_node14"><a xlink:title=" ">
<polygon fill="white" stroke="#bfbfbf" points="1113.42,-63.5 1113.42,-83.5 1256.15,-83.5 1256.15,-63.5 1113.42,-63.5"/>
<text text-anchor="middle" x="1184.78" y="-70.5" font-family="Helvetica,sans-Serif" font-size="10.00">boost/hana/adapt_struct.hpp</text>
</a>
</g>
</g>
<!-- Node1&#45;&gt;Node14 -->
<g id="edge14" class="edge">
<title>Node1&#45;&gt;Node14</title>
<path fill="none" stroke="midnightblue" d="M827.62,-138.36C902.15,-125.81 1010.4,-107.28 1104.78,-90 1112.7,-88.55 1121.05,-86.98 1129.24,-85.41"/>
<polygon fill="midnightblue" stroke="midnightblue" points="1129.97,-88.84 1139.12,-83.51 1128.64,-81.96 1129.97,-88.84"/>
</g>
<!-- Node15 -->
<g id="node15" class="node">
<title>Node15</title>
<g id="a_node15"><a xlink:title=" ">
<polygon fill="white" stroke="#bfbfbf" points="1274.12,-57.5 1274.12,-89.5 1423.45,-89.5 1423.45,-57.5 1274.12,-57.5"/>
<text text-anchor="start" x="1282.12" y="-76.5" font-family="Helvetica,sans-Serif" font-size="10.00">haldlsID(/)vxID(/)vID</text>
<text text-anchor="middle" x="1348.78" y="-64.5" font-family="Helvetica,sans-Serif" font-size="10.00">(CHIP_REVISION)/capmem.h</text>
</a>
</g>
</g>
<!-- Node1&#45;&gt;Node15 -->
<g id="edge15" class="edge">
<title>Node1&#45;&gt;Node15</title>
<path fill="none" stroke="midnightblue" d="M827.65,-144.33C930.88,-133.5 1104.59,-114.09 1263.74,-90.11"/>
<polygon fill="midnightblue" stroke="midnightblue" points="1264.36,-93.55 1273.72,-88.59 1263.31,-86.63 1264.36,-93.55"/>
</g>
<!-- Node16 -->
<g id="node16" class="node">
<title>Node16</title>
<g id="a_node16"><a xlink:title=" ">
<polygon fill="white" stroke="#bfbfbf" points="1441.67,-57.5 1441.67,-89.5 1589.9,-89.5 1589.9,-57.5 1441.67,-57.5"/>
<text text-anchor="start" x="1449.67" y="-76.5" font-family="Helvetica,sans-Serif" font-size="10.00">lolaID(/)vxID(/)vID</text>
<text text-anchor="middle" x="1515.78" y="-64.5" font-family="Helvetica,sans-Serif" font-size="10.00">(CHIP_REVISION)/synapse.h</text>
</a>
</g>
</g>
<!-- Node1&#45;&gt;Node16 -->
<g id="edge16" class="edge">
<title>Node1&#45;&gt;Node16</title>
<path fill="none" stroke="midnightblue" d="M827.47,-147.95C958.65,-139.31 1209.13,-120.54 1431.72,-90.07"/>
<polygon fill="midnightblue" stroke="midnightblue" points="1432.2,-93.54 1441.63,-88.7 1431.24,-86.6 1432.2,-93.54"/>
</g>
<!-- Node10 -->
<g id="node10" class="node">
<title>Node10</title>
<g id="a_node10"><a xlink:title=" ">
<polygon fill="white" stroke="#bfbfbf" points="778.72,-0.5 778.72,-20.5 840.85,-20.5 840.85,-0.5 778.72,-0.5"/>
<text text-anchor="middle" x="809.78" y="-7.5" font-family="Helvetica,sans-Serif" font-size="10.00">type_traits</text>
</a>
</g>
</g>
<!-- Node9&#45;&gt;Node10 -->
<g id="edge9" class="edge">
<title>Node9&#45;&gt;Node10</title>
<path fill="none" stroke="midnightblue" d="M888.21,-63.5C873.4,-53.68 849.46,-37.81 831.92,-26.18"/>
<polygon fill="midnightblue" stroke="midnightblue" points="833.68,-23.15 823.42,-20.54 829.82,-28.98 833.68,-23.15"/>
</g>
<!-- Node11 -->
<g id="node11" class="node">
<title>Node11</title>
<g id="a_node11"><a xlink:title=" ">
<polygon fill="white" stroke="#bfbfbf" points="859.32,-0.5 859.32,-20.5 944.25,-20.5 944.25,-0.5 859.32,-0.5"/>
<text text-anchor="middle" x="901.78" y="-7.5" font-family="Helvetica,sans-Serif" font-size="10.00">boost/hana.hpp</text>
</a>
</g>
</g>
<!-- Node9&#45;&gt;Node11 -->
<g id="edge10" class="edge">
<title>Node9&#45;&gt;Node11</title>
<path fill="none" stroke="midnightblue" d="M901.78,-63.5C901.78,-54.94 901.78,-41.78 901.78,-30.85"/>
<polygon fill="midnightblue" stroke="midnightblue" points="905.28,-30.54 901.78,-20.54 898.28,-30.54 905.28,-30.54"/>
</g>
<!-- Node12 -->
<g id="node12" class="node">
<title>Node12</title>
<g id="a_node12"><a xlink:title=" ">
<polygon fill="white" stroke="#bfbfbf" points="962.67,-0.5 962.67,-20.5 1060.9,-20.5 1060.9,-0.5 962.67,-0.5"/>
<text text-anchor="middle" x="1011.78" y="-7.5" font-family="Helvetica,sans-Serif" font-size="10.00">cereal/macros.hpp</text>
</a>
</g>
</g>
<!-- Node9&#45;&gt;Node12 -->
<g id="edge11" class="edge">
<title>Node9&#45;&gt;Node12</title>
<path fill="none" stroke="midnightblue" d="M918.02,-63.5C936.05,-53.5 965.4,-37.22 986.46,-25.54"/>
<polygon fill="midnightblue" stroke="midnightblue" points="988.44,-28.45 995.49,-20.54 985.04,-22.33 988.44,-28.45"/>
</g>
<!-- Node13&#45;&gt;Node13 -->
<g id="edge13" class="edge">
<title>Node13&#45;&gt;Node13</title>
<path fill="none" stroke="midnightblue" d="M1053.26,-83.56C1074.15,-87.45 1095.58,-84.1 1095.58,-73.5 1095.58,-64.64 1080.6,-60.85 1063.49,-62.11"/>
<polygon fill="midnightblue" stroke="midnightblue" points="1062.72,-58.68 1053.26,-63.44 1063.63,-65.62 1062.72,-58.68"/>
</g>
</g>
</svg>
        <g id="navigator" transform="translate(0 0)" fill="#404254">
                <rect fill="#f2f5e9" fill-opacity="0.5" stroke="#606060" stroke-width=".5" x="0" y="0" width="60" height="60"/>
                <use id="zoomplus" xlink:href="#zoomPlus" x="17" y="9" onmousedown="handleZoom(evt,'in')"/>
                <use id="zoomminus" xlink:href="#zoomMin" x="42" y="9" onmousedown="handleZoom(evt,'out')"/>
                <use id="reset" xlink:href="#resetDef" x="30" y="36" onmousedown="handleReset()"/>
                <g id="arrowUp" xlink:href="#dirArrow" transform="translate(30 24)" onmousedown="handlePan(0,-1)">
                  <use xlink:href="#rim" fill="#404040">
                        <set attributeName="fill" to="#808080" begin="arrowUp.mouseover" end="arrowUp.mouseout"/>
                  </use>
                  <path fill="none" stroke="white" stroke-width="1.5" d="M0,-3.0v7 M-2.5,-0.5L0,-3.0L2.5,-0.5"/>
                </g>
                <g id="arrowRight" xlink:href="#dirArrow" transform="rotate(90) translate(36 -43)" onmousedown="handlePan(1,0)">
                  <use xlink:href="#rim" fill="#404040">
                        <set attributeName="fill" to="#808080" begin="arrowRight.mouseover" end="arrowRight.mouseout"/>
                  </use>
                  <path fill="none" stroke="white" stroke-width="1.5" d="M0,-3.0v7 M-2.5,-0.5L0,-3.0L2.5,-0.5"/>
                </g>
                <g id="arrowDown" xlink:href="#dirArrow" transform="rotate(180) translate(-30 -48)" onmousedown="handlePan(0,1)">
                  <use xlink:href="#rim" fill="#404040">
                        <set attributeName="fill" to="#808080" begin="arrowDown.mouseover" end="arrowDown.mouseout"/>
                  </use>
                  <path fill="none" stroke="white" stroke-width="1.5" d="M0,-3.0v7 M-2.5,-0.5L0,-3.0L2.5,-0.5"/>
                </g>
                <g id="arrowLeft" xlink:href="#dirArrow" transform="rotate(270) translate(-36 17)" onmousedown="handlePan(-1,0)">
                  <use xlink:href="#rim" fill="#404040">
                        <set attributeName="fill" to="#808080" begin="arrowLeft.mouseover" end="arrowLeft.mouseout"/>
                  </use>
                  <path fill="none" stroke="white" stroke-width="1.5" d="M0,-3.0v7 M-2.5,-0.5L0,-3.0L2.5,-0.5"/>
                </g>
        </g>
        <svg viewBox="0 0 15 15" width="100%" height="30px" preserveAspectRatio="xMaxYMin meet">
         <g id="arrow_out" transform="scale(0.3 0.3)">
          <a xlink:href="synapse__block_8h__incl_org.svg" target="_base">
           <rect id="button" ry="5" rx="5" y="6" x="6" height="38" width="38"
                fill="#f2f5e9" fill-opacity="0.5" stroke="#606060" stroke-width="1.0"/>
           <path id="arrow"
             d="M 11.500037,31.436501 C 11.940474,20.09759 22.043105,11.32322 32.158766,21.979434 L 37.068811,17.246167 C 37.068811,17.246167 37.088388,32 37.088388,32 L 22.160133,31.978069 C 22.160133,31.978069 26.997745,27.140456 26.997745,27.140456 C 18.528582,18.264221 13.291696,25.230495 11.500037,31.436501 z"
             style="fill:#404040;"/>
          </a>
         </g>
        </svg>
</svg>
