<?xml version="1.0" encoding="UTF-8" standalone="no"?>
<!DOCTYPE svg PUBLIC "-//W3C//DTD SVG 1.1//EN"
 "http://www.w3.org/Graphics/SVG/1.1/DTD/svg11.dtd">
<!-- Generated by graphviz version 2.46.0 (0)
 -->
<!-- Title: /jenkins/jenlib_workspaces_f9/bld_nightly&#45;haldls.YmxkX25pZ2h0bHktaGFsZGxzIzEzNzk.x/haldls/include/lola/vx/synapse.h Pages: 1 -->
<svg width="1385pt" height="191pt"
 viewBox="0.00 0.00 1385.15 191.00" xmlns="http://www.w3.org/2000/svg" xmlns:xlink="http://www.w3.org/1999/xlink">
<g id="graph0" class="graph" transform="scale(1 1) rotate(0) translate(4 187)">
<title>/jenkins/jenlib_workspaces_f9/bld_nightly&#45;haldls.YmxkX25pZ2h0bHktaGFsZGxzIzEzNzk.x/haldls/include/lola/vx/synapse.h</title>
<polygon fill="white" stroke="transparent" points="-4,4 -4,-187 1381.15,-187 1381.15,4 -4,4"/>
<!-- Node1 -->
<g id="node1" class="node">
<title>Node1</title>
<g id="a_node1"><a xlink:title=" ">
<polygon fill="#bfbfbf" stroke="black" points="603.28,-126.5 603.28,-182.5 784.29,-182.5 784.29,-126.5 603.28,-126.5"/>
<text text-anchor="start" x="611.28" y="-169.5" font-family="Helvetica,sans-Serif" font-size="10.00">/jenkins/jenlib_workspaces</text>
<text text-anchor="start" x="611.28" y="-157.5" font-family="Helvetica,sans-Serif" font-size="10.00">_f9/bld_nightly&#45;haldls.YmxkX25p</text>
<text text-anchor="start" x="611.28" y="-145.5" font-family="Helvetica,sans-Serif" font-size="10.00">Z2h0bHktaGFsZGxzIzEzNzk.x/haldls</text>
<text text-anchor="middle" x="693.78" y="-133.5" font-family="Helvetica,sans-Serif" font-size="10.00">/include/lola/vx/synapse.h</text>
</a>
</g>
</g>
<!-- Node2 -->
<g id="node2" class="node">
<title>Node2</title>
<g id="a_node2"><a xlink:title=" ">
<polygon fill="white" stroke="#bfbfbf" points="0,-63.5 0,-83.5 121.57,-83.5 121.57,-63.5 0,-63.5"/>
<text text-anchor="middle" x="60.78" y="-70.5" font-family="Helvetica,sans-Serif" font-size="10.00">halco/common/iter_all.h</text>
</a>
</g>
</g>
<!-- Node1&#45;&gt;Node2 -->
<g id="edge1" class="edge">
<title>Node1&#45;&gt;Node2</title>
<path fill="none" stroke="midnightblue" d="M603.18,-146.25C491.59,-136.64 296.45,-117.61 130.78,-90 123.36,-88.76 115.53,-87.24 107.91,-85.65"/>
<polygon fill="midnightblue" stroke="midnightblue" points="108.57,-82.21 98.06,-83.52 107.1,-89.05 108.57,-82.21"/>
</g>
<!-- Node3 -->
<g id="node3" class="node">
<title>Node3</title>
<g id="a_node3"><a xlink:title=" ">
<polygon fill="white" stroke="#bfbfbf" points="139.66,-57.5 139.66,-89.5 247.91,-89.5 247.91,-57.5 139.66,-57.5"/>
<text text-anchor="start" x="147.66" y="-76.5" font-family="Helvetica,sans-Serif" font-size="10.00">halco/common/typed</text>
<text text-anchor="middle" x="193.78" y="-64.5" font-family="Helvetica,sans-Serif" font-size="10.00">_array.h</text>
</a>
</g>
</g>
<!-- Node1&#45;&gt;Node3 -->
<g id="edge2" class="edge">
<title>Node1&#45;&gt;Node3</title>
<path fill="none" stroke="midnightblue" d="M602.96,-142.91C516.61,-132.24 382.95,-114.19 258.13,-90.16"/>
<polygon fill="midnightblue" stroke="midnightblue" points="258.49,-86.66 248.01,-88.19 257.16,-93.54 258.49,-86.66"/>
</g>
<!-- Node4 -->
<g id="node4" class="node">
<title>Node4</title>
<g id="a_node4"><a xlink:title=" ">
<polygon fill="white" stroke="#bfbfbf" points="265.66,-57.5 265.66,-89.5 373.91,-89.5 373.91,-57.5 265.66,-57.5"/>
<text text-anchor="start" x="273.66" y="-76.5" font-family="Helvetica,sans-Serif" font-size="10.00">halco/common/typed</text>
<text text-anchor="middle" x="319.78" y="-64.5" font-family="Helvetica,sans-Serif" font-size="10.00">_heap_array.h</text>
</a>
</g>
</g>
<!-- Node1&#45;&gt;Node4 -->
<g id="edge3" class="edge">
<title>Node1&#45;&gt;Node4</title>
<path fill="none" stroke="midnightblue" d="M603.08,-135.97C543.49,-124.22 463.58,-108.03 384.23,-90.28"/>
<polygon fill="midnightblue" stroke="midnightblue" points="384.57,-86.77 374.05,-88 383.04,-93.6 384.57,-86.77"/>
</g>
<!-- Node5 -->
<g id="node5" class="node">
<title>Node5</title>
<g id="a_node5"><a xlink:title=" ">
<polygon fill="white" stroke="#bfbfbf" points="392.11,-63.5 392.11,-83.5 501.46,-83.5 501.46,-63.5 392.11,-63.5"/>
<text text-anchor="middle" x="446.78" y="-70.5" font-family="Helvetica,sans-Serif" font-size="10.00">haldls/cerealization.h</text>
</a>
</g>
</g>
<!-- Node1&#45;&gt;Node5 -->
<g id="edge4" class="edge">
<title>Node1&#45;&gt;Node5</title>
<path fill="none" stroke="midnightblue" d="M609.13,-126.42C566.86,-112.9 517.83,-97.22 484.8,-86.66"/>
<polygon fill="midnightblue" stroke="midnightblue" points="485.68,-83.27 475.09,-83.55 483.55,-89.93 485.68,-83.27"/>
</g>
<!-- Node6 -->
<g id="node6" class="node">
<title>Node6</title>
<g id="a_node6"><a xlink:title=" ">
<polygon fill="white" stroke="#bfbfbf" points="519.61,-63.5 519.61,-83.5 623.96,-83.5 623.96,-63.5 519.61,-63.5"/>
<text text-anchor="middle" x="571.78" y="-70.5" font-family="Helvetica,sans-Serif" font-size="10.00">haldls/vx/common.h</text>
</a>
</g>
</g>
<!-- Node1&#45;&gt;Node6 -->
<g id="edge5" class="edge">
<title>Node1&#45;&gt;Node6</title>
<path fill="none" stroke="midnightblue" d="M651.8,-126.31C632.55,-113.85 610.5,-99.57 594.43,-89.17"/>
<polygon fill="midnightblue" stroke="midnightblue" points="596.02,-86.02 585.73,-83.53 592.22,-91.9 596.02,-86.02"/>
</g>
<!-- Node7 -->
<g id="node7" class="node">
<title>Node7</title>
<g id="a_node7"><a xlink:title=" ">
<polygon fill="white" stroke="#bfbfbf" points="642.16,-63.5 642.16,-83.5 745.41,-83.5 745.41,-63.5 642.16,-63.5"/>
<text text-anchor="middle" x="693.78" y="-70.5" font-family="Helvetica,sans-Serif" font-size="10.00">haldls/vx/synapse.h</text>
</a>
</g>
</g>
<!-- Node1&#45;&gt;Node7 -->
<g id="edge6" class="edge">
<title>Node1&#45;&gt;Node7</title>
<path fill="none" stroke="midnightblue" d="M693.78,-126.31C693.78,-115.66 693.78,-103.68 693.78,-93.93"/>
<polygon fill="midnightblue" stroke="midnightblue" points="697.28,-93.71 693.78,-83.71 690.28,-93.71 697.28,-93.71"/>
</g>
<!-- Node8 -->
<g id="node8" class="node">
<title>Node8</title>
<g id="a_node8"><a xlink:title=" ">
<polygon fill="white" stroke="#bfbfbf" points="762.95,-63.5 762.95,-83.5 850.62,-83.5 850.62,-63.5 762.95,-63.5"/>
<text text-anchor="middle" x="806.78" y="-70.5" font-family="Helvetica,sans-Serif" font-size="10.00">haldls/vx/traits.h</text>
</a>
</g>
</g>
<!-- Node1&#45;&gt;Node8 -->
<g id="edge7" class="edge">
<title>Node1&#45;&gt;Node8</title>
<path fill="none" stroke="midnightblue" d="M732.67,-126.31C750.33,-113.97 770.54,-99.84 785.39,-89.46"/>
<polygon fill="midnightblue" stroke="midnightblue" points="787.68,-92.13 793.87,-83.53 783.67,-86.39 787.68,-92.13"/>
</g>
<!-- Node9 -->
<g id="node9" class="node">
<title>Node9</title>
<g id="a_node9"><a xlink:title=" ">
<polygon fill="white" stroke="#bfbfbf" points="868.28,-63.5 868.28,-83.5 949.29,-83.5 949.29,-63.5 868.28,-63.5"/>
<text text-anchor="middle" x="908.78" y="-70.5" font-family="Helvetica,sans-Serif" font-size="10.00">hate/visibility.h</text>
</a>
</g>
</g>
<!-- Node1&#45;&gt;Node9 -->
<g id="edge8" class="edge">
<title>Node1&#45;&gt;Node9</title>
<path fill="none" stroke="midnightblue" d="M767.47,-126.42C803.79,-113.08 845.84,-97.63 874.57,-87.07"/>
<polygon fill="midnightblue" stroke="midnightblue" points="875.96,-90.29 884.14,-83.55 873.55,-83.72 875.96,-90.29"/>
</g>
<!-- Node10 -->
<g id="node10" class="node">
<title>Node10</title>
<g id="a_node10"><a xlink:href="cerealization_8h.html" target="_top" xlink:title=" ">
<polygon fill="white" stroke="black" points="967,-63.5 967,-83.5 1078.57,-83.5 1078.57,-63.5 967,-63.5"/>
<text text-anchor="middle" x="1022.78" y="-70.5" font-family="Helvetica,sans-Serif" font-size="10.00">lola/vx/cerealization.h</text>
</a>
</g>
</g>
<!-- Node1&#45;&gt;Node10 -->
<g id="edge9" class="edge">
<title>Node1&#45;&gt;Node10</title>
<path fill="none" stroke="midnightblue" d="M784.56,-131.81C835.73,-119.56 900.83,-103.96 958.78,-90 964.2,-88.69 969.88,-87.32 975.52,-85.96"/>
<polygon fill="midnightblue" stroke="midnightblue" points="976.67,-89.28 985.56,-83.53 975.02,-82.48 976.67,-89.28"/>
</g>
<!-- Node14 -->
<g id="node14" class="node">
<title>Node14</title>
<g id="a_node14"><a xlink:href="genpybind_8h.html" target="_top" xlink:title=" ">
<polygon fill="white" stroke="black" points="1096.99,-63.5 1096.99,-83.5 1198.58,-83.5 1198.58,-63.5 1096.99,-63.5"/>
<text text-anchor="middle" x="1147.78" y="-70.5" font-family="Helvetica,sans-Serif" font-size="10.00">lola/vx/genpybind.h</text>
</a>
</g>
</g>
<!-- Node1&#45;&gt;Node14 -->
<g id="edge13" class="edge">
<title>Node1&#45;&gt;Node14</title>
<path fill="none" stroke="midnightblue" d="M784.6,-141.31C864.74,-129.97 984.53,-111.61 1087.78,-90 1093.52,-88.8 1099.53,-87.41 1105.44,-85.96"/>
<polygon fill="midnightblue" stroke="midnightblue" points="1106.37,-89.34 1115.22,-83.5 1104.67,-82.55 1106.37,-89.34"/>
</g>
<!-- Node15 -->
<g id="node15" class="node">
<title>Node15</title>
<g id="a_node15"><a xlink:title=" ">
<polygon fill="white" stroke="#bfbfbf" points="1234.42,-63.5 1234.42,-83.5 1377.15,-83.5 1377.15,-63.5 1234.42,-63.5"/>
<text text-anchor="middle" x="1305.78" y="-70.5" font-family="Helvetica,sans-Serif" font-size="10.00">boost/hana/adapt_struct.hpp</text>
</a>
</g>
</g>
<!-- Node1&#45;&gt;Node15 -->
<g id="edge15" class="edge">
<title>Node1&#45;&gt;Node15</title>
<path fill="none" stroke="midnightblue" d="M784.42,-144.71C890.53,-133.94 1071.39,-114.14 1225.78,-90 1234.42,-88.65 1243.54,-87.05 1252.41,-85.4"/>
<polygon fill="midnightblue" stroke="midnightblue" points="1253.12,-88.83 1262.29,-83.52 1251.81,-81.95 1253.12,-88.83"/>
</g>
<!-- Node11 -->
<g id="node11" class="node">
<title>Node11</title>
<g id="a_node11"><a xlink:title=" ">
<polygon fill="white" stroke="#bfbfbf" points="899.72,-0.5 899.72,-20.5 961.85,-20.5 961.85,-0.5 899.72,-0.5"/>
<text text-anchor="middle" x="930.78" y="-7.5" font-family="Helvetica,sans-Serif" font-size="10.00">type_traits</text>
</a>
</g>
</g>
<!-- Node10&#45;&gt;Node11 -->
<g id="edge10" class="edge">
<title>Node10&#45;&gt;Node11</title>
<path fill="none" stroke="midnightblue" d="M1009.21,-63.5C994.4,-53.68 970.46,-37.81 952.92,-26.18"/>
<polygon fill="midnightblue" stroke="midnightblue" points="954.68,-23.15 944.42,-20.54 950.82,-28.98 954.68,-23.15"/>
</g>
<!-- Node12 -->
<g id="node12" class="node">
<title>Node12</title>
<g id="a_node12"><a xlink:title=" ">
<polygon fill="white" stroke="#bfbfbf" points="980.32,-0.5 980.32,-20.5 1065.25,-20.5 1065.25,-0.5 980.32,-0.5"/>
<text text-anchor="middle" x="1022.78" y="-7.5" font-family="Helvetica,sans-Serif" font-size="10.00">boost/hana.hpp</text>
</a>
</g>
</g>
<!-- Node10&#45;&gt;Node12 -->
<g id="edge11" class="edge">
<title>Node10&#45;&gt;Node12</title>
<path fill="none" stroke="midnightblue" d="M1022.78,-63.5C1022.78,-54.94 1022.78,-41.78 1022.78,-30.85"/>
<polygon fill="midnightblue" stroke="midnightblue" points="1026.28,-30.54 1022.78,-20.54 1019.28,-30.54 1026.28,-30.54"/>
</g>
<!-- Node13 -->
<g id="node13" class="node">
<title>Node13</title>
<g id="a_node13"><a xlink:title=" ">
<polygon fill="white" stroke="#bfbfbf" points="1083.67,-0.5 1083.67,-20.5 1181.9,-20.5 1181.9,-0.5 1083.67,-0.5"/>
<text text-anchor="middle" x="1132.78" y="-7.5" font-family="Helvetica,sans-Serif" font-size="10.00">cereal/macros.hpp</text>
</a>
</g>
</g>
<!-- Node10&#45;&gt;Node13 -->
<g id="edge12" class="edge">
<title>Node10&#45;&gt;Node13</title>
<path fill="none" stroke="midnightblue" d="M1039.02,-63.5C1057.05,-53.5 1086.4,-37.22 1107.46,-25.54"/>
<polygon fill="midnightblue" stroke="midnightblue" points="1109.44,-28.45 1116.49,-20.54 1106.04,-22.33 1109.44,-28.45"/>
</g>
<!-- Node14&#45;&gt;Node14 -->
<g id="edge14" class="edge">
<title>Node14&#45;&gt;Node14</title>
<path fill="none" stroke="midnightblue" d="M1174.26,-83.56C1195.15,-87.45 1216.58,-84.1 1216.58,-73.5 1216.58,-64.64 1201.6,-60.85 1184.49,-62.11"/>
<polygon fill="midnightblue" stroke="midnightblue" points="1183.72,-58.68 1174.26,-63.44 1184.63,-65.62 1183.72,-58.68"/>
</g>
</g>
</svg>
