<?xml version="1.0" encoding="UTF-8" standalone="no"?>
<!DOCTYPE svg PUBLIC "-//W3C//DTD SVG 1.1//EN"
 "http://www.w3.org/Graphics/SVG/1.1/DTD/svg11.dtd">
<!-- Generated by graphviz version 2.46.0 (0)
 -->
<!-- Title: /jenkins/jenlib_workspaces_f9/bld_nightly&#45;haldls.YmxkX25pZ2h0bHktaGFsZGxzIzEzNzk.x/haldls/include/lola/vx/v2/neuron.h Pages: 1 -->
<!--zoomable 305 -->
<svg id="main" version="1.1" xmlns="http://www.w3.org/2000/svg" xmlns:xlink="http://www.w3.org/1999/xlink" xml:space="preserve" onload="init(evt)">
<style type="text/css"><![CDATA[
.edge:hover path { stroke: red; }
.edge:hover polygon { stroke: red; fill: red; }
]]></style>
<script type="text/javascript"><![CDATA[
var edges = document.getElementsByTagName('g');
if (edges && edges.length) {
  for (var i=0;i<edges.length;i++) {
    if (edges[i].id.substr(0,4)=='edge') {
      edges[i].setAttribute('class','edge');
    }
  }
}
]]></script>
        <defs>
                <circle id="rim" cx="0" cy="0" r="7"/>
                <circle id="rim2" cx="0" cy="0" r="3.5"/>
                <g id="zoomPlus">
                        <use xlink:href="#rim" fill="#404040">
                                <set attributeName="fill" to="#808080" begin="zoomplus.mouseover" end="zoomplus.mouseout"/>
                        </use>
                        <path d="M-4,0h8M0,-4v8" fill="none" stroke="white" stroke-width="1.5" pointer-events="none"/>
                </g>
                <g id="zoomMin">
                        <use xlink:href="#rim" fill="#404040">
                                <set attributeName="fill" to="#808080" begin="zoomminus.mouseover" end="zoomminus.mouseout"/>
                        </use>
                        <path d="M-4,0h8" fill="none" stroke="white" stroke-width="1.5" pointer-events="none"/>
                </g>
                <g id="dirArrow">
                        <path fill="none" stroke="white" stroke-width="1.5" d="M0,-3.0v7 M-2.5,-0.5L0,-3.0L2.5,-0.5"/>
                </g>
               <g id="resetDef">
                       <use xlink:href="#rim2" fill="#404040">
                               <set attributeName="fill" to="#808080" begin="reset.mouseover" end="reset.mouseout"/>
                       </use>
               </g>
        </defs>

<script type="text/javascript">
var viewWidth = 1575;
var viewHeight = 305;
var sectionId = 'dynsection-0';
</script>
<script xlink:href="svgpan.js"/>
<svg id="graph" class="graph">
<g id="viewport">
<title>/jenkins/jenlib_workspaces_f9/bld_nightly&#45;haldls.YmxkX25pZ2h0bHktaGFsZGxzIzEzNzk.x/haldls/include/lola/vx/v2/neuron.h</title>
<polygon fill="white" stroke="transparent" points="-4,4 -4,-301 1571.47,-301 1571.47,4 -4,4"/>
<!-- Node1 -->
<g id="node1" class="node">
<title>Node1</title>
<g id="a_node1"><a xlink:title=" ">
<polygon fill="#bfbfbf" stroke="black" points="202.33,-240.5 202.33,-296.5 383.35,-296.5 383.35,-240.5 202.33,-240.5"/>
<text text-anchor="start" x="210.33" y="-283.5" font-family="Helvetica,sans-Serif" font-size="10.00">/jenkins/jenlib_workspaces</text>
<text text-anchor="start" x="210.33" y="-271.5" font-family="Helvetica,sans-Serif" font-size="10.00">_f9/bld_nightly&#45;haldls.YmxkX25p</text>
<text text-anchor="start" x="210.33" y="-259.5" font-family="Helvetica,sans-Serif" font-size="10.00">Z2h0bHktaGFsZGxzIzEzNzk.x/haldls</text>
<text text-anchor="middle" x="292.84" y="-247.5" font-family="Helvetica,sans-Serif" font-size="10.00">/include/lola/vx/v2/neuron.h</text>
</a>
</g>
</g>
<!-- Node2 -->
<g id="node2" class="node">
<title>Node2</title>
<g id="a_node2"><a xlink:title=" ">
<polygon fill="white" stroke="#bfbfbf" points="0,-183.5 0,-203.5 117.68,-203.5 117.68,-183.5 0,-183.5"/>
<text text-anchor="middle" x="58.84" y="-190.5" font-family="Helvetica,sans-Serif" font-size="10.00">haldls/vx/v2/capmem.h</text>
</a>
</g>
</g>
<!-- Node1&#45;&gt;Node2 -->
<g id="edge1" class="edge">
<title>Node1&#45;&gt;Node2</title>
<path fill="none" stroke="midnightblue" d="M206.04,-240.42C168.81,-228.81 127.2,-215.83 97.74,-206.64"/>
<polygon fill="midnightblue" stroke="midnightblue" points="98.45,-203.19 87.86,-203.55 96.36,-209.87 98.45,-203.19"/>
</g>
<!-- Node3 -->
<g id="node3" class="node">
<title>Node3</title>
<g id="a_node3"><a xlink:title=" ">
<polygon fill="white" stroke="#bfbfbf" points="135.61,-183.5 135.61,-203.5 246.08,-203.5 246.08,-183.5 135.61,-183.5"/>
<text text-anchor="middle" x="190.84" y="-190.5" font-family="Helvetica,sans-Serif" font-size="10.00">haldls/vx/v2/neuron.h</text>
</a>
</g>
</g>
<!-- Node1&#45;&gt;Node3 -->
<g id="edge2" class="edge">
<title>Node1&#45;&gt;Node3</title>
<path fill="none" stroke="midnightblue" d="M254.86,-240.32C240.28,-229.88 224.17,-218.35 211.76,-209.47"/>
<polygon fill="midnightblue" stroke="midnightblue" points="213.62,-206.5 203.45,-203.52 209.55,-212.19 213.62,-206.5"/>
</g>
<!-- Node4 -->
<g id="node4" class="node">
<title>Node4</title>
<g id="a_node4"><a xlink:title=" ">
<polygon fill="white" stroke="#bfbfbf" points="189.34,-63.5 189.34,-83.5 270.34,-83.5 270.34,-63.5 189.34,-63.5"/>
<text text-anchor="middle" x="229.84" y="-70.5" font-family="Helvetica,sans-Serif" font-size="10.00">hate/visibility.h</text>
</a>
</g>
</g>
<!-- Node1&#45;&gt;Node4 -->
<g id="edge3" class="edge">
<title>Node1&#45;&gt;Node4</title>
<path fill="none" stroke="midnightblue" d="M283.95,-240.26C270.97,-200.5 247.18,-127.6 235.98,-93.29"/>
<polygon fill="midnightblue" stroke="midnightblue" points="239.24,-92.02 232.81,-83.6 232.59,-94.19 239.24,-92.02"/>
</g>
<!-- Node5 -->
<g id="node5" class="node">
<title>Node5</title>
<g id="a_node5"><a xlink:href="genpybind_8h.html" target="_top" xlink:title=" ">
<polygon fill="white" stroke="black" points="288.05,-63.5 288.05,-83.5 389.63,-83.5 389.63,-63.5 288.05,-63.5"/>
<text text-anchor="middle" x="338.84" y="-70.5" font-family="Helvetica,sans-Serif" font-size="10.00">lola/vx/genpybind.h</text>
</a>
</g>
</g>
<!-- Node1&#45;&gt;Node5 -->
<g id="edge4" class="edge">
<title>Node1&#45;&gt;Node5</title>
<path fill="none" stroke="midnightblue" d="M299.34,-240.26C308.77,-200.67 326.03,-128.24 334.26,-93.74"/>
<polygon fill="midnightblue" stroke="midnightblue" points="337.76,-94.14 336.67,-83.6 330.95,-92.52 337.76,-94.14"/>
</g>
<!-- Node6 -->
<g id="node6" class="node">
<title>Node6</title>
<g id="a_node6"><a xlink:href="v2_2synapse_8h.html" target="_top" xlink:title=" ">
<polygon fill="white" stroke="black" points="339.83,-183.5 339.83,-203.5 445.86,-203.5 445.86,-183.5 339.83,-183.5"/>
<text text-anchor="middle" x="392.84" y="-190.5" font-family="Helvetica,sans-Serif" font-size="10.00">lola/vx/v2/synapse.h</text>
</a>
</g>
</g>
<!-- Node1&#45;&gt;Node6 -->
<g id="edge6" class="edge">
<title>Node1&#45;&gt;Node6</title>
<path fill="none" stroke="midnightblue" d="M330.08,-240.32C344.38,-229.88 360.17,-218.35 372.33,-209.47"/>
<polygon fill="midnightblue" stroke="midnightblue" points="374.47,-212.25 380.48,-203.52 370.34,-206.59 374.47,-212.25"/>
</g>
<!-- Node20 -->
<g id="node20" class="node">
<title>Node20</title>
<g id="a_node20"><a xlink:title=" ">
<polygon fill="white" stroke="#bfbfbf" points="464.27,-183.5 464.27,-203.5 571.41,-203.5 571.41,-183.5 464.27,-183.5"/>
<text text-anchor="middle" x="517.84" y="-190.5" font-family="Helvetica,sans-Serif" font-size="10.00">lola/vx/v2/neuron.tcc</text>
</a>
</g>
</g>
<!-- Node1&#45;&gt;Node20 -->
<g id="edge23" class="edge">
<title>Node1&#45;&gt;Node20</title>
<path fill="none" stroke="midnightblue" d="M376.3,-240.42C411.95,-228.86 451.76,-215.94 480.07,-206.76"/>
<polygon fill="midnightblue" stroke="midnightblue" points="481.51,-209.97 489.94,-203.55 479.35,-203.31 481.51,-209.97"/>
</g>
<!-- Node5&#45;&gt;Node5 -->
<g id="edge5" class="edge">
<title>Node5&#45;&gt;Node5</title>
<path fill="none" stroke="midnightblue" d="M365.32,-83.56C386.2,-87.45 407.63,-84.1 407.63,-73.5 407.63,-64.64 392.66,-60.85 375.54,-62.11"/>
<polygon fill="midnightblue" stroke="midnightblue" points="374.78,-58.68 365.32,-63.44 375.68,-65.62 374.78,-58.68"/>
</g>
<!-- Node6&#45;&gt;Node5 -->
<g id="edge7" class="edge">
<title>Node6&#45;&gt;Node5</title>
<path fill="none" stroke="midnightblue" d="M388.6,-183.24C379.73,-163.85 359.06,-118.67 347.34,-93.07"/>
<polygon fill="midnightblue" stroke="midnightblue" points="350.4,-91.35 343.06,-83.72 344.04,-94.27 350.4,-91.35"/>
</g>
<!-- Node7 -->
<g id="node7" class="node">
<title>Node7</title>
<g id="a_node7"><a xlink:href="synapse_8h.html" target="_top" xlink:title=" ">
<polygon fill="white" stroke="black" points="761.5,-126.5 761.5,-146.5 854.19,-146.5 854.19,-126.5 761.5,-126.5"/>
<text text-anchor="middle" x="807.84" y="-133.5" font-family="Helvetica,sans-Serif" font-size="10.00">lola/vx/synapse.h</text>
</a>
</g>
</g>
<!-- Node6&#45;&gt;Node7 -->
<g id="edge8" class="edge">
<title>Node6&#45;&gt;Node7</title>
<path fill="none" stroke="midnightblue" d="M445.93,-184.28C448.94,-183.84 451.93,-183.41 454.84,-183 559.16,-168.29 681.11,-152.99 750.92,-144.41"/>
<polygon fill="midnightblue" stroke="midnightblue" points="751.76,-147.84 761.25,-143.15 750.9,-140.89 751.76,-147.84"/>
</g>
<!-- Node7&#45;&gt;Node4 -->
<g id="edge16" class="edge">
<title>Node7&#45;&gt;Node4</title>
<path fill="none" stroke="midnightblue" d="M761.37,-134.93C668.7,-133.05 454.7,-124.93 278.84,-90 274.11,-89.06 269.2,-87.83 264.39,-86.47"/>
<polygon fill="midnightblue" stroke="midnightblue" points="265.33,-83.1 254.74,-83.55 263.3,-89.79 265.33,-83.1"/>
</g>
<!-- Node7&#45;&gt;Node5 -->
<g id="edge21" class="edge">
<title>Node7&#45;&gt;Node5</title>
<path fill="none" stroke="midnightblue" d="M761.33,-131.31C687.9,-124.41 540.72,-109.48 416.84,-90 408.51,-88.69 399.71,-87.12 391.15,-85.49"/>
<polygon fill="midnightblue" stroke="midnightblue" points="391.72,-82.04 381.24,-83.57 390.39,-88.91 391.72,-82.04"/>
</g>
<!-- Node8 -->
<g id="node8" class="node">
<title>Node8</title>
<g id="a_node8"><a xlink:title=" ">
<polygon fill="white" stroke="#bfbfbf" points="822.06,-63.5 822.06,-83.5 943.63,-83.5 943.63,-63.5 822.06,-63.5"/>
<text text-anchor="middle" x="882.84" y="-70.5" font-family="Helvetica,sans-Serif" font-size="10.00">halco/common/iter_all.h</text>
</a>
</g>
</g>
<!-- Node7&#45;&gt;Node8 -->
<g id="edge9" class="edge">
<title>Node7&#45;&gt;Node8</title>
<path fill="none" stroke="midnightblue" d="M818.91,-126.5C830.65,-116.95 849.43,-101.67 863.6,-90.15"/>
<polygon fill="midnightblue" stroke="midnightblue" points="866.18,-92.56 871.73,-83.54 861.76,-87.13 866.18,-92.56"/>
</g>
<!-- Node9 -->
<g id="node9" class="node">
<title>Node9</title>
<g id="a_node9"><a xlink:title=" ">
<polygon fill="white" stroke="#bfbfbf" points="961.72,-57.5 961.72,-89.5 1069.96,-89.5 1069.96,-57.5 961.72,-57.5"/>
<text text-anchor="start" x="969.72" y="-76.5" font-family="Helvetica,sans-Serif" font-size="10.00">halco/common/typed</text>
<text text-anchor="middle" x="1015.84" y="-64.5" font-family="Helvetica,sans-Serif" font-size="10.00">_array.h</text>
</a>
</g>
</g>
<!-- Node7&#45;&gt;Node9 -->
<g id="edge10" class="edge">
<title>Node7&#45;&gt;Node9</title>
<path fill="none" stroke="midnightblue" d="M838.53,-126.5C868.93,-117.59 916.32,-103.69 954.46,-92.5"/>
<polygon fill="midnightblue" stroke="midnightblue" points="955.84,-95.75 964.45,-89.57 953.87,-89.03 955.84,-95.75"/>
</g>
<!-- Node10 -->
<g id="node10" class="node">
<title>Node10</title>
<g id="a_node10"><a xlink:title=" ">
<polygon fill="white" stroke="#bfbfbf" points="1087.72,-57.5 1087.72,-89.5 1195.96,-89.5 1195.96,-57.5 1087.72,-57.5"/>
<text text-anchor="start" x="1095.72" y="-76.5" font-family="Helvetica,sans-Serif" font-size="10.00">halco/common/typed</text>
<text text-anchor="middle" x="1141.84" y="-64.5" font-family="Helvetica,sans-Serif" font-size="10.00">_heap_array.h</text>
</a>
</g>
</g>
<!-- Node7&#45;&gt;Node10 -->
<g id="edge11" class="edge">
<title>Node7&#45;&gt;Node10</title>
<path fill="none" stroke="midnightblue" d="M854.55,-128.74C906.66,-120.97 993.64,-107.27 1077.64,-90.16"/>
<polygon fill="midnightblue" stroke="midnightblue" points="1078.51,-93.56 1087.6,-88.12 1077.1,-86.7 1078.51,-93.56"/>
</g>
<!-- Node11 -->
<g id="node11" class="node">
<title>Node11</title>
<g id="a_node11"><a xlink:title=" ">
<polygon fill="white" stroke="#bfbfbf" points="1214.17,-63.5 1214.17,-83.5 1323.52,-83.5 1323.52,-63.5 1214.17,-63.5"/>
<text text-anchor="middle" x="1268.84" y="-70.5" font-family="Helvetica,sans-Serif" font-size="10.00">haldls/cerealization.h</text>
</a>
</g>
</g>
<!-- Node7&#45;&gt;Node11 -->
<g id="edge12" class="edge">
<title>Node7&#45;&gt;Node11</title>
<path fill="none" stroke="midnightblue" d="M854.26,-132.05C928.65,-126.11 1078.99,-112.36 1204.84,-90 1211.27,-88.86 1218.01,-87.45 1224.61,-85.96"/>
<polygon fill="midnightblue" stroke="midnightblue" points="1225.86,-89.26 1234.8,-83.57 1224.26,-82.45 1225.86,-89.26"/>
</g>
<!-- Node12 -->
<g id="node12" class="node">
<title>Node12</title>
<g id="a_node12"><a xlink:title=" ">
<polygon fill="white" stroke="#bfbfbf" points="1341.67,-63.5 1341.67,-83.5 1446.02,-83.5 1446.02,-63.5 1341.67,-63.5"/>
<text text-anchor="middle" x="1393.84" y="-70.5" font-family="Helvetica,sans-Serif" font-size="10.00">haldls/vx/common.h</text>
</a>
</g>
</g>
<!-- Node7&#45;&gt;Node12 -->
<g id="edge13" class="edge">
<title>Node7&#45;&gt;Node12</title>
<path fill="none" stroke="midnightblue" d="M854.51,-134C946.58,-130.47 1157.84,-119.61 1332.84,-90 1339.21,-88.92 1345.88,-87.52 1352.38,-85.99"/>
<polygon fill="midnightblue" stroke="midnightblue" points="1353.52,-89.32 1362.39,-83.53 1351.84,-82.52 1353.52,-89.32"/>
</g>
<!-- Node13 -->
<g id="node13" class="node">
<title>Node13</title>
<g id="a_node13"><a xlink:title=" ">
<polygon fill="white" stroke="#bfbfbf" points="1464.22,-63.5 1464.22,-83.5 1567.47,-83.5 1567.47,-63.5 1464.22,-63.5"/>
<text text-anchor="middle" x="1515.84" y="-70.5" font-family="Helvetica,sans-Serif" font-size="10.00">haldls/vx/synapse.h</text>
</a>
</g>
</g>
<!-- Node7&#45;&gt;Node13 -->
<g id="edge14" class="edge">
<title>Node7&#45;&gt;Node13</title>
<path fill="none" stroke="midnightblue" d="M854.46,-135.07C961.32,-133.46 1231.94,-125.86 1454.84,-90 1461.28,-88.96 1468.04,-87.57 1474.61,-86.04"/>
<polygon fill="midnightblue" stroke="midnightblue" points="1475.85,-89.34 1484.72,-83.55 1474.17,-82.54 1475.85,-89.34"/>
</g>
<!-- Node14 -->
<g id="node14" class="node">
<title>Node14</title>
<g id="a_node14"><a xlink:title=" ">
<polygon fill="white" stroke="#bfbfbf" points="426,-63.5 426,-83.5 513.68,-83.5 513.68,-63.5 426,-63.5"/>
<text text-anchor="middle" x="469.84" y="-70.5" font-family="Helvetica,sans-Serif" font-size="10.00">haldls/vx/traits.h</text>
</a>
</g>
</g>
<!-- Node7&#45;&gt;Node14 -->
<g id="edge15" class="edge">
<title>Node7&#45;&gt;Node14</title>
<path fill="none" stroke="midnightblue" d="M761.1,-129.88C704.35,-122.63 605.94,-108.71 522.84,-90 518.07,-88.92 513.09,-87.66 508.18,-86.33"/>
<polygon fill="midnightblue" stroke="midnightblue" points="508.85,-82.88 498.28,-83.53 506.95,-89.62 508.85,-82.88"/>
</g>
<!-- Node15 -->
<g id="node15" class="node">
<title>Node15</title>
<g id="a_node15"><a xlink:href="cerealization_8h.html" target="_top" xlink:title=" ">
<polygon fill="white" stroke="black" points="532.06,-63.5 532.06,-83.5 643.63,-83.5 643.63,-63.5 532.06,-63.5"/>
<text text-anchor="middle" x="587.84" y="-70.5" font-family="Helvetica,sans-Serif" font-size="10.00">lola/vx/cerealization.h</text>
</a>
</g>
</g>
<!-- Node7&#45;&gt;Node15 -->
<g id="edge17" class="edge">
<title>Node7&#45;&gt;Node15</title>
<path fill="none" stroke="midnightblue" d="M775.38,-126.5C736.87,-115.82 672.57,-97.99 630.18,-86.24"/>
<polygon fill="midnightblue" stroke="midnightblue" points="631.01,-82.84 620.44,-83.54 629.14,-89.58 631.01,-82.84"/>
</g>
<!-- Node19 -->
<g id="node19" class="node">
<title>Node19</title>
<g id="a_node19"><a xlink:title=" ">
<polygon fill="white" stroke="#bfbfbf" points="661.48,-63.5 661.48,-83.5 804.2,-83.5 804.2,-63.5 661.48,-63.5"/>
<text text-anchor="middle" x="732.84" y="-70.5" font-family="Helvetica,sans-Serif" font-size="10.00">boost/hana/adapt_struct.hpp</text>
</a>
</g>
</g>
<!-- Node7&#45;&gt;Node19 -->
<g id="edge22" class="edge">
<title>Node7&#45;&gt;Node19</title>
<path fill="none" stroke="midnightblue" d="M796.78,-126.5C785.03,-116.95 766.25,-101.67 752.08,-90.15"/>
<polygon fill="midnightblue" stroke="midnightblue" points="753.92,-87.13 743.95,-83.54 749.5,-92.56 753.92,-87.13"/>
</g>
<!-- Node16 -->
<g id="node16" class="node">
<title>Node16</title>
<g id="a_node16"><a xlink:title=" ">
<polygon fill="white" stroke="#bfbfbf" points="464.78,-0.5 464.78,-20.5 526.9,-20.5 526.9,-0.5 464.78,-0.5"/>
<text text-anchor="middle" x="495.84" y="-7.5" font-family="Helvetica,sans-Serif" font-size="10.00">type_traits</text>
</a>
</g>
</g>
<!-- Node15&#45;&gt;Node16 -->
<g id="edge18" class="edge">
<title>Node15&#45;&gt;Node16</title>
<path fill="none" stroke="midnightblue" d="M574.27,-63.5C559.45,-53.68 535.52,-37.81 517.98,-26.18"/>
<polygon fill="midnightblue" stroke="midnightblue" points="519.74,-23.15 509.47,-20.54 515.87,-28.98 519.74,-23.15"/>
</g>
<!-- Node17 -->
<g id="node17" class="node">
<title>Node17</title>
<g id="a_node17"><a xlink:title=" ">
<polygon fill="white" stroke="#bfbfbf" points="545.38,-0.5 545.38,-20.5 630.31,-20.5 630.31,-0.5 545.38,-0.5"/>
<text text-anchor="middle" x="587.84" y="-7.5" font-family="Helvetica,sans-Serif" font-size="10.00">boost/hana.hpp</text>
</a>
</g>
</g>
<!-- Node15&#45;&gt;Node17 -->
<g id="edge19" class="edge">
<title>Node15&#45;&gt;Node17</title>
<path fill="none" stroke="midnightblue" d="M587.84,-63.5C587.84,-54.94 587.84,-41.78 587.84,-30.85"/>
<polygon fill="midnightblue" stroke="midnightblue" points="591.34,-30.54 587.84,-20.54 584.34,-30.54 591.34,-30.54"/>
</g>
<!-- Node18 -->
<g id="node18" class="node">
<title>Node18</title>
<g id="a_node18"><a xlink:title=" ">
<polygon fill="white" stroke="#bfbfbf" points="648.72,-0.5 648.72,-20.5 746.96,-20.5 746.96,-0.5 648.72,-0.5"/>
<text text-anchor="middle" x="697.84" y="-7.5" font-family="Helvetica,sans-Serif" font-size="10.00">cereal/macros.hpp</text>
</a>
</g>
</g>
<!-- Node15&#45;&gt;Node18 -->
<g id="edge20" class="edge">
<title>Node15&#45;&gt;Node18</title>
<path fill="none" stroke="midnightblue" d="M604.07,-63.5C622.11,-53.5 651.46,-37.22 672.52,-25.54"/>
<polygon fill="midnightblue" stroke="midnightblue" points="674.5,-28.45 681.54,-20.54 671.1,-22.33 674.5,-28.45"/>
</g>
</g>
</svg>
        <g id="navigator" transform="translate(0 0)" fill="#404254">
                <rect fill="#f2f5e9" fill-opacity="0.5" stroke="#606060" stroke-width=".5" x="0" y="0" width="60" height="60"/>
                <use id="zoomplus" xlink:href="#zoomPlus" x="17" y="9" onmousedown="handleZoom(evt,'in')"/>
                <use id="zoomminus" xlink:href="#zoomMin" x="42" y="9" onmousedown="handleZoom(evt,'out')"/>
                <use id="reset" xlink:href="#resetDef" x="30" y="36" onmousedown="handleReset()"/>
                <g id="arrowUp" xlink:href="#dirArrow" transform="translate(30 24)" onmousedown="handlePan(0,-1)">
                  <use xlink:href="#rim" fill="#404040">
                        <set attributeName="fill" to="#808080" begin="arrowUp.mouseover" end="arrowUp.mouseout"/>
                  </use>
                  <path fill="none" stroke="white" stroke-width="1.5" d="M0,-3.0v7 M-2.5,-0.5L0,-3.0L2.5,-0.5"/>
                </g>
                <g id="arrowRight" xlink:href="#dirArrow" transform="rotate(90) translate(36 -43)" onmousedown="handlePan(1,0)">
                  <use xlink:href="#rim" fill="#404040">
                        <set attributeName="fill" to="#808080" begin="arrowRight.mouseover" end="arrowRight.mouseout"/>
                  </use>
                  <path fill="none" stroke="white" stroke-width="1.5" d="M0,-3.0v7 M-2.5,-0.5L0,-3.0L2.5,-0.5"/>
                </g>
                <g id="arrowDown" xlink:href="#dirArrow" transform="rotate(180) translate(-30 -48)" onmousedown="handlePan(0,1)">
                  <use xlink:href="#rim" fill="#404040">
                        <set attributeName="fill" to="#808080" begin="arrowDown.mouseover" end="arrowDown.mouseout"/>
                  </use>
                  <path fill="none" stroke="white" stroke-width="1.5" d="M0,-3.0v7 M-2.5,-0.5L0,-3.0L2.5,-0.5"/>
                </g>
                <g id="arrowLeft" xlink:href="#dirArrow" transform="rotate(270) translate(-36 17)" onmousedown="handlePan(-1,0)">
                  <use xlink:href="#rim" fill="#404040">
                        <set attributeName="fill" to="#808080" begin="arrowLeft.mouseover" end="arrowLeft.mouseout"/>
                  </use>
                  <path fill="none" stroke="white" stroke-width="1.5" d="M0,-3.0v7 M-2.5,-0.5L0,-3.0L2.5,-0.5"/>
                </g>
        </g>
        <svg viewBox="0 0 15 15" width="100%" height="30px" preserveAspectRatio="xMaxYMin meet">
         <g id="arrow_out" transform="scale(0.3 0.3)">
          <a xlink:href="v2_2neuron_8h__incl_org.svg" target="_base">
           <rect id="button" ry="5" rx="5" y="6" x="6" height="38" width="38"
                fill="#f2f5e9" fill-opacity="0.5" stroke="#606060" stroke-width="1.0"/>
           <path id="arrow"
             d="M 11.500037,31.436501 C 11.940474,20.09759 22.043105,11.32322 32.158766,21.979434 L 37.068811,17.246167 C 37.068811,17.246167 37.088388,32 37.088388,32 L 22.160133,31.978069 C 22.160133,31.978069 26.997745,27.140456 26.997745,27.140456 C 18.528582,18.264221 13.291696,25.230495 11.500037,31.436501 z"
             style="fill:#404040;"/>
          </a>
         </g>
        </svg>
</svg>
