<?xml version="1.0" encoding="UTF-8" standalone="no"?>
<!DOCTYPE svg PUBLIC "-//W3C//DTD SVG 1.1//EN"
 "http://www.w3.org/Graphics/SVG/1.1/DTD/svg11.dtd">
<!-- Generated by graphviz version 2.46.0 (0)
 -->
<!-- Title: /jenkins/jenlib_workspaces_f9/bld_nightly&#45;haldls.YmxkX25pZ2h0bHktaGFsZGxzIzEzNzk.x/haldls/include/lola/vx/v2/readout_chain.h Pages: 1 -->
<!--zoomable 248 -->
<svg id="main" version="1.1" xmlns="http://www.w3.org/2000/svg" xmlns:xlink="http://www.w3.org/1999/xlink" xml:space="preserve" onload="init(evt)">
<style type="text/css"><![CDATA[
.edge:hover path { stroke: red; }
.edge:hover polygon { stroke: red; fill: red; }
]]></style>
<script type="text/javascript"><![CDATA[
var edges = document.getElementsByTagName('g');
if (edges && edges.length) {
  for (var i=0;i<edges.length;i++) {
    if (edges[i].id.substr(0,4)=='edge') {
      edges[i].setAttribute('class','edge');
    }
  }
}
]]></script>
        <defs>
                <circle id="rim" cx="0" cy="0" r="7"/>
                <circle id="rim2" cx="0" cy="0" r="3.5"/>
                <g id="zoomPlus">
                        <use xlink:href="#rim" fill="#404040">
                                <set attributeName="fill" to="#808080" begin="zoomplus.mouseover" end="zoomplus.mouseout"/>
                        </use>
                        <path d="M-4,0h8M0,-4v8" fill="none" stroke="white" stroke-width="1.5" pointer-events="none"/>
                </g>
                <g id="zoomMin">
                        <use xlink:href="#rim" fill="#404040">
                                <set attributeName="fill" to="#808080" begin="zoomminus.mouseover" end="zoomminus.mouseout"/>
                        </use>
                        <path d="M-4,0h8" fill="none" stroke="white" stroke-width="1.5" pointer-events="none"/>
                </g>
                <g id="dirArrow">
                        <path fill="none" stroke="white" stroke-width="1.5" d="M0,-3.0v7 M-2.5,-0.5L0,-3.0L2.5,-0.5"/>
                </g>
               <g id="resetDef">
                       <use xlink:href="#rim2" fill="#404040">
                               <set attributeName="fill" to="#808080" begin="reset.mouseover" end="reset.mouseout"/>
                       </use>
               </g>
        </defs>

<script type="text/javascript">
var viewWidth = 1523;
var viewHeight = 248;
var sectionId = 'dynsection-0';
</script>
<script xlink:href="svgpan.js"/>
<svg id="graph" class="graph">
<g id="viewport">
<title>/jenkins/jenlib_workspaces_f9/bld_nightly&#45;haldls.YmxkX25pZ2h0bHktaGFsZGxzIzEzNzk.x/haldls/include/lola/vx/v2/readout_chain.h</title>
<polygon fill="white" stroke="transparent" points="-4,4 -4,-244 1518.68,-244 1518.68,4 -4,4"/>
<!-- Node1 -->
<g id="node1" class="node">
<title>Node1</title>
<g id="a_node1"><a xlink:title=" ">
<polygon fill="#bfbfbf" stroke="black" points="675.16,-183.5 675.16,-239.5 856.18,-239.5 856.18,-183.5 675.16,-183.5"/>
<text text-anchor="start" x="683.16" y="-226.5" font-family="Helvetica,sans-Serif" font-size="10.00">/jenkins/jenlib_workspaces</text>
<text text-anchor="start" x="683.16" y="-214.5" font-family="Helvetica,sans-Serif" font-size="10.00">_f9/bld_nightly&#45;haldls.YmxkX25p</text>
<text text-anchor="start" x="683.16" y="-202.5" font-family="Helvetica,sans-Serif" font-size="10.00">Z2h0bHktaGFsZGxzIzEzNzk.x/haldls</text>
<text text-anchor="middle" x="765.67" y="-190.5" font-family="Helvetica,sans-Serif" font-size="10.00">/include/lola/vx/v2/readout_chain.h</text>
</a>
</g>
</g>
<!-- Node2 -->
<g id="node2" class="node">
<title>Node2</title>
<g id="a_node2"><a xlink:href="readout__chain_8h.html" target="_top" xlink:title=" ">
<polygon fill="white" stroke="black" points="706.26,-126.5 706.26,-146.5 825.07,-146.5 825.07,-126.5 706.26,-126.5"/>
<text text-anchor="middle" x="765.67" y="-133.5" font-family="Helvetica,sans-Serif" font-size="10.00">lola/vx/readout_chain.h</text>
</a>
</g>
</g>
<!-- Node1&#45;&gt;Node2 -->
<g id="edge1" class="edge">
<title>Node1&#45;&gt;Node2</title>
<path fill="none" stroke="midnightblue" d="M765.67,-183.32C765.67,-174.5 765.67,-164.91 765.67,-156.79"/>
<polygon fill="midnightblue" stroke="midnightblue" points="769.17,-156.52 765.67,-146.52 762.17,-156.52 769.17,-156.52"/>
</g>
<!-- Node3 -->
<g id="node3" class="node">
<title>Node3</title>
<g id="a_node3"><a xlink:title=" ">
<polygon fill="white" stroke="#bfbfbf" points="0,-57.5 0,-89.5 149.34,-89.5 149.34,-57.5 0,-57.5"/>
<text text-anchor="start" x="8" y="-76.5" font-family="Helvetica,sans-Serif" font-size="10.00">haldlsID(/)vxID(/)vID</text>
<text text-anchor="middle" x="74.67" y="-64.5" font-family="Helvetica,sans-Serif" font-size="10.00">(CHIP_REVISION)/capmem.h</text>
</a>
</g>
</g>
<!-- Node2&#45;&gt;Node3 -->
<g id="edge2" class="edge">
<title>Node2&#45;&gt;Node3</title>
<path fill="none" stroke="midnightblue" d="M706,-133.16C598.71,-128.49 365.98,-116.23 159.82,-90.06"/>
<polygon fill="midnightblue" stroke="midnightblue" points="160.08,-86.56 149.71,-88.76 159.18,-93.51 160.08,-86.56"/>
</g>
<!-- Node4 -->
<g id="node4" class="node">
<title>Node4</title>
<g id="a_node4"><a xlink:title=" ">
<polygon fill="white" stroke="#bfbfbf" points="167.55,-57.5 167.55,-89.5 275.79,-89.5 275.79,-57.5 167.55,-57.5"/>
<text text-anchor="start" x="175.55" y="-76.5" font-family="Helvetica,sans-Serif" font-size="10.00">halco/common/typed</text>
<text text-anchor="middle" x="221.67" y="-64.5" font-family="Helvetica,sans-Serif" font-size="10.00">_array.h</text>
</a>
</g>
</g>
<!-- Node2&#45;&gt;Node4 -->
<g id="edge3" class="edge">
<title>Node2&#45;&gt;Node4</title>
<path fill="none" stroke="midnightblue" d="M706.06,-132.68C616.76,-127.84 442.86,-116.02 286.16,-90.1"/>
<polygon fill="midnightblue" stroke="midnightblue" points="286.3,-86.57 275.86,-88.37 285.14,-93.48 286.3,-86.57"/>
</g>
<!-- Node5 -->
<g id="node5" class="node">
<title>Node5</title>
<g id="a_node5"><a xlink:title=" ">
<polygon fill="white" stroke="#bfbfbf" points="294.16,-57.5 294.16,-89.5 395.18,-89.5 395.18,-57.5 294.16,-57.5"/>
<text text-anchor="start" x="302.16" y="-76.5" font-family="Helvetica,sans-Serif" font-size="10.00">halco/hicann&#45;dls/vx</text>
<text text-anchor="middle" x="344.67" y="-64.5" font-family="Helvetica,sans-Serif" font-size="10.00">/readout.h</text>
</a>
</g>
</g>
<!-- Node2&#45;&gt;Node5 -->
<g id="edge4" class="edge">
<title>Node2&#45;&gt;Node5</title>
<path fill="none" stroke="midnightblue" d="M706.03,-130.44C636.08,-123.95 516.5,-111.19 405.45,-90.21"/>
<polygon fill="midnightblue" stroke="midnightblue" points="405.9,-86.73 395.42,-88.29 404.58,-93.61 405.9,-86.73"/>
</g>
<!-- Node6 -->
<g id="node6" class="node">
<title>Node6</title>
<g id="a_node6"><a xlink:title=" ">
<polygon fill="white" stroke="#bfbfbf" points="413.16,-57.5 413.16,-89.5 514.18,-89.5 514.18,-57.5 413.16,-57.5"/>
<text text-anchor="start" x="421.16" y="-76.5" font-family="Helvetica,sans-Serif" font-size="10.00">halco/hicann&#45;dls/vx</text>
<text text-anchor="middle" x="463.67" y="-64.5" font-family="Helvetica,sans-Serif" font-size="10.00">/current_dac.h</text>
</a>
</g>
</g>
<!-- Node2&#45;&gt;Node6 -->
<g id="edge5" class="edge">
<title>Node2&#45;&gt;Node6</title>
<path fill="none" stroke="midnightblue" d="M711.39,-126.49C664.21,-118.39 593.83,-105.69 524.27,-90.28"/>
<polygon fill="midnightblue" stroke="midnightblue" points="524.98,-86.86 514.46,-88.09 523.46,-93.69 524.98,-86.86"/>
</g>
<!-- Node7 -->
<g id="node7" class="node">
<title>Node7</title>
<g id="a_node7"><a xlink:title=" ">
<polygon fill="white" stroke="#bfbfbf" points="531.99,-63.5 531.99,-83.5 641.34,-83.5 641.34,-63.5 531.99,-63.5"/>
<text text-anchor="middle" x="586.67" y="-70.5" font-family="Helvetica,sans-Serif" font-size="10.00">haldls/cerealization.h</text>
</a>
</g>
</g>
<!-- Node2&#45;&gt;Node7 -->
<g id="edge6" class="edge">
<title>Node2&#45;&gt;Node7</title>
<path fill="none" stroke="midnightblue" d="M739.26,-126.5C708.45,-116 657.37,-98.59 622.88,-86.84"/>
<polygon fill="midnightblue" stroke="midnightblue" points="623.78,-83.45 613.19,-83.54 621.53,-90.08 623.78,-83.45"/>
</g>
<!-- Node8 -->
<g id="node8" class="node">
<title>Node8</title>
<g id="a_node8"><a xlink:title=" ">
<polygon fill="white" stroke="#bfbfbf" points="659.44,-63.5 659.44,-83.5 749.9,-83.5 749.9,-63.5 659.44,-63.5"/>
<text text-anchor="middle" x="704.67" y="-70.5" font-family="Helvetica,sans-Serif" font-size="10.00">haldls/vx/madc.h</text>
</a>
</g>
</g>
<!-- Node2&#45;&gt;Node8 -->
<g id="edge7" class="edge">
<title>Node2&#45;&gt;Node8</title>
<path fill="none" stroke="midnightblue" d="M756.67,-126.5C747.3,-117.13 732.42,-102.25 720.97,-90.8"/>
<polygon fill="midnightblue" stroke="midnightblue" points="723.25,-88.13 713.71,-83.54 718.3,-93.08 723.25,-88.13"/>
</g>
<!-- Node9 -->
<g id="node9" class="node">
<title>Node9</title>
<g id="a_node9"><a xlink:title=" ">
<polygon fill="white" stroke="#bfbfbf" points="768.27,-63.5 768.27,-83.5 887.07,-83.5 887.07,-63.5 768.27,-63.5"/>
<text text-anchor="middle" x="827.67" y="-70.5" font-family="Helvetica,sans-Serif" font-size="10.00">haldls/vx/current_dac.h</text>
</a>
</g>
</g>
<!-- Node2&#45;&gt;Node9 -->
<g id="edge8" class="edge">
<title>Node2&#45;&gt;Node9</title>
<path fill="none" stroke="midnightblue" d="M774.82,-126.5C784.34,-117.13 799.46,-102.25 811.1,-90.8"/>
<polygon fill="midnightblue" stroke="midnightblue" points="813.81,-93.05 818.48,-83.54 808.9,-88.06 813.81,-93.05"/>
</g>
<!-- Node10 -->
<g id="node10" class="node">
<title>Node10</title>
<g id="a_node10"><a xlink:title=" ">
<polygon fill="white" stroke="#bfbfbf" points="904.71,-63.5 904.71,-83.5 1004.63,-83.5 1004.63,-63.5 904.71,-63.5"/>
<text text-anchor="middle" x="954.67" y="-70.5" font-family="Helvetica,sans-Serif" font-size="10.00">haldls/vx/readout.h</text>
</a>
</g>
</g>
<!-- Node2&#45;&gt;Node10 -->
<g id="edge9" class="edge">
<title>Node2&#45;&gt;Node10</title>
<path fill="none" stroke="midnightblue" d="M793.56,-126.5C826.22,-115.96 880.48,-98.44 916.9,-86.69"/>
<polygon fill="midnightblue" stroke="midnightblue" points="918.22,-89.94 926.67,-83.54 916.07,-83.28 918.22,-89.94"/>
</g>
<!-- Node11 -->
<g id="node11" class="node">
<title>Node11</title>
<g id="a_node11"><a xlink:title=" ">
<polygon fill="white" stroke="#bfbfbf" points="1022.17,-63.5 1022.17,-83.5 1103.17,-83.5 1103.17,-63.5 1022.17,-63.5"/>
<text text-anchor="middle" x="1062.67" y="-70.5" font-family="Helvetica,sans-Serif" font-size="10.00">hate/visibility.h</text>
</a>
</g>
</g>
<!-- Node2&#45;&gt;Node11 -->
<g id="edge10" class="edge">
<title>Node2&#45;&gt;Node11</title>
<path fill="none" stroke="midnightblue" d="M825.24,-126.71C875.76,-118.75 949.95,-105.86 1013.67,-90 1017.81,-88.97 1022.11,-87.78 1026.37,-86.54"/>
<polygon fill="midnightblue" stroke="midnightblue" points="1027.59,-89.82 1036.14,-83.56 1025.55,-83.13 1027.59,-89.82"/>
</g>
<!-- Node12 -->
<g id="node12" class="node">
<title>Node12</title>
<g id="a_node12"><a xlink:href="cerealization_8h.html" target="_top" xlink:title=" ">
<polygon fill="white" stroke="black" points="1120.88,-63.5 1120.88,-83.5 1232.45,-83.5 1232.45,-63.5 1120.88,-63.5"/>
<text text-anchor="middle" x="1176.67" y="-70.5" font-family="Helvetica,sans-Serif" font-size="10.00">lola/vx/cerealization.h</text>
</a>
</g>
</g>
<!-- Node2&#45;&gt;Node12 -->
<g id="edge11" class="edge">
<title>Node2&#45;&gt;Node12</title>
<path fill="none" stroke="midnightblue" d="M825.22,-129.65C894.59,-122.39 1012.47,-108.65 1112.67,-90 1119.01,-88.82 1125.67,-87.41 1132.19,-85.92"/>
<polygon fill="midnightblue" stroke="midnightblue" points="1133.34,-89.25 1142.27,-83.55 1131.74,-82.43 1133.34,-89.25"/>
</g>
<!-- Node16 -->
<g id="node16" class="node">
<title>Node16</title>
<g id="a_node16"><a xlink:href="genpybind_8h.html" target="_top" xlink:title=" ">
<polygon fill="white" stroke="black" points="1250.88,-63.5 1250.88,-83.5 1352.46,-83.5 1352.46,-63.5 1250.88,-63.5"/>
<text text-anchor="middle" x="1301.67" y="-70.5" font-family="Helvetica,sans-Serif" font-size="10.00">lola/vx/genpybind.h</text>
</a>
</g>
</g>
<!-- Node2&#45;&gt;Node16 -->
<g id="edge15" class="edge">
<title>Node2&#45;&gt;Node16</title>
<path fill="none" stroke="midnightblue" d="M825.44,-132.81C916.03,-128.06 1093.27,-116.09 1241.67,-90 1247.86,-88.91 1254.35,-87.51 1260.67,-86"/>
<polygon fill="midnightblue" stroke="midnightblue" points="1261.57,-89.39 1270.42,-83.57 1259.87,-82.6 1261.57,-89.39"/>
</g>
<!-- Node17 -->
<g id="node17" class="node">
<title>Node17</title>
<g id="a_node17"><a xlink:title=" ">
<polygon fill="white" stroke="#bfbfbf" points="1388.65,-63.5 1388.65,-83.5 1514.68,-83.5 1514.68,-63.5 1388.65,-63.5"/>
<text text-anchor="middle" x="1451.67" y="-70.5" font-family="Helvetica,sans-Serif" font-size="10.00">lola/vx/readout_chain.tcc</text>
</a>
</g>
</g>
<!-- Node2&#45;&gt;Node17 -->
<g id="edge17" class="edge">
<title>Node2&#45;&gt;Node17</title>
<path fill="none" stroke="midnightblue" d="M825.24,-133.82C935.27,-130.1 1177.59,-119.1 1379.67,-90 1387.77,-88.83 1396.31,-87.28 1404.58,-85.61"/>
<polygon fill="midnightblue" stroke="midnightblue" points="1405.41,-89.01 1414.48,-83.53 1403.97,-82.16 1405.41,-89.01"/>
</g>
<!-- Node13 -->
<g id="node13" class="node">
<title>Node13</title>
<g id="a_node13"><a xlink:title=" ">
<polygon fill="white" stroke="#bfbfbf" points="1053.61,-0.5 1053.61,-20.5 1115.73,-20.5 1115.73,-0.5 1053.61,-0.5"/>
<text text-anchor="middle" x="1084.67" y="-7.5" font-family="Helvetica,sans-Serif" font-size="10.00">type_traits</text>
</a>
</g>
</g>
<!-- Node12&#45;&gt;Node13 -->
<g id="edge12" class="edge">
<title>Node12&#45;&gt;Node13</title>
<path fill="none" stroke="midnightblue" d="M1163.09,-63.5C1148.28,-53.68 1124.34,-37.81 1106.8,-26.18"/>
<polygon fill="midnightblue" stroke="midnightblue" points="1108.57,-23.15 1098.3,-20.54 1104.7,-28.98 1108.57,-23.15"/>
</g>
<!-- Node14 -->
<g id="node14" class="node">
<title>Node14</title>
<g id="a_node14"><a xlink:title=" ">
<polygon fill="white" stroke="#bfbfbf" points="1134.2,-0.5 1134.2,-20.5 1219.13,-20.5 1219.13,-0.5 1134.2,-0.5"/>
<text text-anchor="middle" x="1176.67" y="-7.5" font-family="Helvetica,sans-Serif" font-size="10.00">boost/hana.hpp</text>
</a>
</g>
</g>
<!-- Node12&#45;&gt;Node14 -->
<g id="edge13" class="edge">
<title>Node12&#45;&gt;Node14</title>
<path fill="none" stroke="midnightblue" d="M1176.67,-63.5C1176.67,-54.94 1176.67,-41.78 1176.67,-30.85"/>
<polygon fill="midnightblue" stroke="midnightblue" points="1180.17,-30.54 1176.67,-20.54 1173.17,-30.54 1180.17,-30.54"/>
</g>
<!-- Node15 -->
<g id="node15" class="node">
<title>Node15</title>
<g id="a_node15"><a xlink:title=" ">
<polygon fill="white" stroke="#bfbfbf" points="1237.55,-0.5 1237.55,-20.5 1335.79,-20.5 1335.79,-0.5 1237.55,-0.5"/>
<text text-anchor="middle" x="1286.67" y="-7.5" font-family="Helvetica,sans-Serif" font-size="10.00">cereal/macros.hpp</text>
</a>
</g>
</g>
<!-- Node12&#45;&gt;Node15 -->
<g id="edge14" class="edge">
<title>Node12&#45;&gt;Node15</title>
<path fill="none" stroke="midnightblue" d="M1192.9,-63.5C1210.93,-53.5 1240.29,-37.22 1261.35,-25.54"/>
<polygon fill="midnightblue" stroke="midnightblue" points="1263.32,-28.45 1270.37,-20.54 1259.93,-22.33 1263.32,-28.45"/>
</g>
<!-- Node16&#45;&gt;Node16 -->
<g id="edge16" class="edge">
<title>Node16&#45;&gt;Node16</title>
<path fill="none" stroke="midnightblue" d="M1328.14,-83.56C1349.03,-87.45 1370.46,-84.1 1370.46,-73.5 1370.46,-64.64 1355.48,-60.85 1338.37,-62.11"/>
<polygon fill="midnightblue" stroke="midnightblue" points="1337.61,-58.68 1328.14,-63.44 1338.51,-65.62 1337.61,-58.68"/>
</g>
</g>
</svg>
        <g id="navigator" transform="translate(0 0)" fill="#404254">
                <rect fill="#f2f5e9" fill-opacity="0.5" stroke="#606060" stroke-width=".5" x="0" y="0" width="60" height="60"/>
                <use id="zoomplus" xlink:href="#zoomPlus" x="17" y="9" onmousedown="handleZoom(evt,'in')"/>
                <use id="zoomminus" xlink:href="#zoomMin" x="42" y="9" onmousedown="handleZoom(evt,'out')"/>
                <use id="reset" xlink:href="#resetDef" x="30" y="36" onmousedown="handleReset()"/>
                <g id="arrowUp" xlink:href="#dirArrow" transform="translate(30 24)" onmousedown="handlePan(0,-1)">
                  <use xlink:href="#rim" fill="#404040">
                        <set attributeName="fill" to="#808080" begin="arrowUp.mouseover" end="arrowUp.mouseout"/>
                  </use>
                  <path fill="none" stroke="white" stroke-width="1.5" d="M0,-3.0v7 M-2.5,-0.5L0,-3.0L2.5,-0.5"/>
                </g>
                <g id="arrowRight" xlink:href="#dirArrow" transform="rotate(90) translate(36 -43)" onmousedown="handlePan(1,0)">
                  <use xlink:href="#rim" fill="#404040">
                        <set attributeName="fill" to="#808080" begin="arrowRight.mouseover" end="arrowRight.mouseout"/>
                  </use>
                  <path fill="none" stroke="white" stroke-width="1.5" d="M0,-3.0v7 M-2.5,-0.5L0,-3.0L2.5,-0.5"/>
                </g>
                <g id="arrowDown" xlink:href="#dirArrow" transform="rotate(180) translate(-30 -48)" onmousedown="handlePan(0,1)">
                  <use xlink:href="#rim" fill="#404040">
                        <set attributeName="fill" to="#808080" begin="arrowDown.mouseover" end="arrowDown.mouseout"/>
                  </use>
                  <path fill="none" stroke="white" stroke-width="1.5" d="M0,-3.0v7 M-2.5,-0.5L0,-3.0L2.5,-0.5"/>
                </g>
                <g id="arrowLeft" xlink:href="#dirArrow" transform="rotate(270) translate(-36 17)" onmousedown="handlePan(-1,0)">
                  <use xlink:href="#rim" fill="#404040">
                        <set attributeName="fill" to="#808080" begin="arrowLeft.mouseover" end="arrowLeft.mouseout"/>
                  </use>
                  <path fill="none" stroke="white" stroke-width="1.5" d="M0,-3.0v7 M-2.5,-0.5L0,-3.0L2.5,-0.5"/>
                </g>
        </g>
        <svg viewBox="0 0 15 15" width="100%" height="30px" preserveAspectRatio="xMaxYMin meet">
         <g id="arrow_out" transform="scale(0.3 0.3)">
          <a xlink:href="v2_2readout__chain_8h__incl_org.svg" target="_base">
           <rect id="button" ry="5" rx="5" y="6" x="6" height="38" width="38"
                fill="#f2f5e9" fill-opacity="0.5" stroke="#606060" stroke-width="1.0"/>
           <path id="arrow"
             d="M 11.500037,31.436501 C 11.940474,20.09759 22.043105,11.32322 32.158766,21.979434 L 37.068811,17.246167 C 37.068811,17.246167 37.088388,32 37.088388,32 L 22.160133,31.978069 C 22.160133,31.978069 26.997745,27.140456 26.997745,27.140456 C 18.528582,18.264221 13.291696,25.230495 11.500037,31.436501 z"
             style="fill:#404040;"/>
          </a>
         </g>
        </svg>
</svg>
