<?xml version="1.0" encoding="UTF-8" standalone="no"?>
<!DOCTYPE svg PUBLIC "-//W3C//DTD SVG 1.1//EN"
 "http://www.w3.org/Graphics/SVG/1.1/DTD/svg11.dtd">
<!-- Generated by graphviz version 2.46.0 (0)
 -->
<!-- Title: /jenkins/jenlib_workspaces_f9/bld_nightly&#45;haldls.YmxkX25pZ2h0bHktaGFsZGxzIzEzNzk.x/haldls/include/lola/vx/v3/synapse_driver.h Pages: 1 -->
<!--zoomable 260 -->
<svg id="main" version="1.1" xmlns="http://www.w3.org/2000/svg" xmlns:xlink="http://www.w3.org/1999/xlink" xml:space="preserve" onload="init(evt)">
<style type="text/css"><![CDATA[
.edge:hover path { stroke: red; }
.edge:hover polygon { stroke: red; fill: red; }
]]></style>
<script type="text/javascript"><![CDATA[
var edges = document.getElementsByTagName('g');
if (edges && edges.length) {
  for (var i=0;i<edges.length;i++) {
    if (edges[i].id.substr(0,4)=='edge') {
      edges[i].setAttribute('class','edge');
    }
  }
}
]]></script>
        <defs>
                <circle id="rim" cx="0" cy="0" r="7"/>
                <circle id="rim2" cx="0" cy="0" r="3.5"/>
                <g id="zoomPlus">
                        <use xlink:href="#rim" fill="#404040">
                                <set attributeName="fill" to="#808080" begin="zoomplus.mouseover" end="zoomplus.mouseout"/>
                        </use>
                        <path d="M-4,0h8M0,-4v8" fill="none" stroke="white" stroke-width="1.5" pointer-events="none"/>
                </g>
                <g id="zoomMin">
                        <use xlink:href="#rim" fill="#404040">
                                <set attributeName="fill" to="#808080" begin="zoomminus.mouseover" end="zoomminus.mouseout"/>
                        </use>
                        <path d="M-4,0h8" fill="none" stroke="white" stroke-width="1.5" pointer-events="none"/>
                </g>
                <g id="dirArrow">
                        <path fill="none" stroke="white" stroke-width="1.5" d="M0,-3.0v7 M-2.5,-0.5L0,-3.0L2.5,-0.5"/>
                </g>
               <g id="resetDef">
                       <use xlink:href="#rim2" fill="#404040">
                               <set attributeName="fill" to="#808080" begin="reset.mouseover" end="reset.mouseout"/>
                       </use>
               </g>
        </defs>

<script type="text/javascript">
var viewWidth = 1612;
var viewHeight = 260;
var sectionId = 'dynsection-0';
</script>
<script xlink:href="svgpan.js"/>
<svg id="graph" class="graph">
<g id="viewport">
<title>/jenkins/jenlib_workspaces_f9/bld_nightly&#45;haldls.YmxkX25pZ2h0bHktaGFsZGxzIzEzNzk.x/haldls/include/lola/vx/v3/synapse_driver.h</title>
<polygon fill="white" stroke="transparent" points="-4,4 -4,-256 1608.03,-256 1608.03,4 -4,4"/>
<!-- Node1 -->
<g id="node1" class="node">
<title>Node1</title>
<g id="a_node1"><a xlink:title=" ">
<polygon fill="#bfbfbf" stroke="black" points="766.16,-195.5 766.16,-251.5 947.18,-251.5 947.18,-195.5 766.16,-195.5"/>
<text text-anchor="start" x="774.16" y="-238.5" font-family="Helvetica,sans-Serif" font-size="10.00">/jenkins/jenlib_workspaces</text>
<text text-anchor="start" x="774.16" y="-226.5" font-family="Helvetica,sans-Serif" font-size="10.00">_f9/bld_nightly&#45;haldls.YmxkX25p</text>
<text text-anchor="start" x="774.16" y="-214.5" font-family="Helvetica,sans-Serif" font-size="10.00">Z2h0bHktaGFsZGxzIzEzNzk.x/haldls</text>
<text text-anchor="middle" x="856.67" y="-202.5" font-family="Helvetica,sans-Serif" font-size="10.00">/include/lola/vx/v3/synapse_driver.h</text>
</a>
</g>
</g>
<!-- Node2 -->
<g id="node2" class="node">
<title>Node2</title>
<g id="a_node2"><a xlink:href="synapse__driver_8h.html" target="_top" xlink:title=" ">
<polygon fill="white" stroke="black" points="795.05,-138.5 795.05,-158.5 918.29,-158.5 918.29,-138.5 795.05,-138.5"/>
<text text-anchor="middle" x="856.67" y="-145.5" font-family="Helvetica,sans-Serif" font-size="10.00">lola/vx/synapse_driver.h</text>
</a>
</g>
</g>
<!-- Node1&#45;&gt;Node2 -->
<g id="edge1" class="edge">
<title>Node1&#45;&gt;Node2</title>
<path fill="none" stroke="midnightblue" d="M856.67,-195.32C856.67,-186.5 856.67,-176.91 856.67,-168.79"/>
<polygon fill="midnightblue" stroke="midnightblue" points="860.17,-168.52 856.67,-158.52 853.17,-168.52 860.17,-168.52"/>
</g>
<!-- Node3 -->
<g id="node3" class="node">
<title>Node3</title>
<g id="a_node3"><a xlink:title=" ">
<polygon fill="white" stroke="#bfbfbf" points="0,-63.5 0,-95.5 149.34,-95.5 149.34,-63.5 0,-63.5"/>
<text text-anchor="start" x="8" y="-82.5" font-family="Helvetica,sans-Serif" font-size="10.00">haldlsID(/)vxID(/)vID</text>
<text text-anchor="middle" x="74.67" y="-70.5" font-family="Helvetica,sans-Serif" font-size="10.00">(CHIP_REVISION)/capmem.h</text>
</a>
</g>
</g>
<!-- Node2&#45;&gt;Node3 -->
<g id="edge2" class="edge">
<title>Node2&#45;&gt;Node3</title>
<path fill="none" stroke="midnightblue" d="M794.62,-147.3C672.21,-146.07 391.33,-139.03 158.67,-102 151.62,-100.88 144.29,-99.43 137.04,-97.82"/>
<polygon fill="midnightblue" stroke="midnightblue" points="137.76,-94.4 127.23,-95.54 136.18,-101.22 137.76,-94.4"/>
</g>
<!-- Node4 -->
<g id="node4" class="node">
<title>Node4</title>
<g id="a_node4"><a xlink:title=" ">
<polygon fill="white" stroke="#bfbfbf" points="167.72,-63.5 167.72,-95.5 297.62,-95.5 297.62,-63.5 167.72,-63.5"/>
<text text-anchor="start" x="175.72" y="-82.5" font-family="Helvetica,sans-Serif" font-size="10.00">haldlsID(/)vxID(/)vID</text>
<text text-anchor="middle" x="232.67" y="-70.5" font-family="Helvetica,sans-Serif" font-size="10.00">(CHIP_REVISION)/padi.h</text>
</a>
</g>
</g>
<!-- Node2&#45;&gt;Node4 -->
<g id="edge3" class="edge">
<title>Node2&#45;&gt;Node4</title>
<path fill="none" stroke="midnightblue" d="M794.69,-146.4C692.28,-143.7 481.68,-134.33 306.67,-102 300.94,-100.94 295.01,-99.62 289.13,-98.16"/>
<polygon fill="midnightblue" stroke="midnightblue" points="289.87,-94.73 279.3,-95.58 288.09,-101.5 289.87,-94.73"/>
</g>
<!-- Node5 -->
<g id="node5" class="node">
<title>Node5</title>
<g id="a_node5"><a xlink:title=" ">
<polygon fill="white" stroke="#bfbfbf" points="315.72,-57.5 315.72,-101.5 455.62,-101.5 455.62,-57.5 315.72,-57.5"/>
<text text-anchor="start" x="323.72" y="-88.5" font-family="Helvetica,sans-Serif" font-size="10.00">haldlsID(/)vxID(/)vID</text>
<text text-anchor="start" x="323.72" y="-76.5" font-family="Helvetica,sans-Serif" font-size="10.00">(CHIP_REVISION)/synapse</text>
<text text-anchor="middle" x="385.67" y="-64.5" font-family="Helvetica,sans-Serif" font-size="10.00">_driver.h</text>
</a>
</g>
</g>
<!-- Node2&#45;&gt;Node5 -->
<g id="edge4" class="edge">
<title>Node2&#45;&gt;Node5</title>
<path fill="none" stroke="midnightblue" d="M794.78,-143.2C719.2,-137.31 587.39,-124.97 465.62,-102.05"/>
<polygon fill="midnightblue" stroke="midnightblue" points="466.23,-98.6 455.75,-100.16 464.92,-105.47 466.23,-98.6"/>
</g>
<!-- Node6 -->
<g id="node6" class="node">
<title>Node6</title>
<g id="a_node6"><a xlink:title=" ">
<polygon fill="white" stroke="#bfbfbf" points="473.88,-69.5 473.88,-89.5 595.45,-89.5 595.45,-69.5 473.88,-69.5"/>
<text text-anchor="middle" x="534.67" y="-76.5" font-family="Helvetica,sans-Serif" font-size="10.00">halco/common/iter_all.h</text>
</a>
</g>
</g>
<!-- Node2&#45;&gt;Node6 -->
<g id="edge5" class="edge">
<title>Node2&#45;&gt;Node6</title>
<path fill="none" stroke="midnightblue" d="M795.13,-138.49C743.84,-130.49 669.04,-117.64 604.67,-102 593.6,-99.31 581.71,-95.87 570.92,-92.54"/>
<polygon fill="midnightblue" stroke="midnightblue" points="571.98,-89.2 561.39,-89.53 569.87,-95.87 571.98,-89.2"/>
</g>
<!-- Node7 -->
<g id="node7" class="node">
<title>Node7</title>
<g id="a_node7"><a xlink:title=" ">
<polygon fill="white" stroke="#bfbfbf" points="613.55,-63.5 613.55,-95.5 721.79,-95.5 721.79,-63.5 613.55,-63.5"/>
<text text-anchor="start" x="621.55" y="-82.5" font-family="Helvetica,sans-Serif" font-size="10.00">halco/common/typed</text>
<text text-anchor="middle" x="667.67" y="-70.5" font-family="Helvetica,sans-Serif" font-size="10.00">_array.h</text>
</a>
</g>
</g>
<!-- Node2&#45;&gt;Node7 -->
<g id="edge6" class="edge">
<title>Node2&#45;&gt;Node7</title>
<path fill="none" stroke="midnightblue" d="M831.18,-138.46C802.69,-128.37 755.8,-111.74 719.53,-98.88"/>
<polygon fill="midnightblue" stroke="midnightblue" points="720.67,-95.58 710.08,-95.53 718.33,-102.17 720.67,-95.58"/>
</g>
<!-- Node8 -->
<g id="node8" class="node">
<title>Node8</title>
<g id="a_node8"><a xlink:title=" ">
<polygon fill="white" stroke="#bfbfbf" points="739.99,-69.5 739.99,-89.5 849.34,-89.5 849.34,-69.5 739.99,-69.5"/>
<text text-anchor="middle" x="794.67" y="-76.5" font-family="Helvetica,sans-Serif" font-size="10.00">haldls/cerealization.h</text>
</a>
</g>
</g>
<!-- Node2&#45;&gt;Node8 -->
<g id="edge7" class="edge">
<title>Node2&#45;&gt;Node8</title>
<path fill="none" stroke="midnightblue" d="M848.31,-138.46C838.56,-127.93 822.26,-110.31 810.17,-97.26"/>
<polygon fill="midnightblue" stroke="midnightblue" points="812.66,-94.79 803.3,-89.82 807.52,-99.54 812.66,-94.79"/>
</g>
<!-- Node9 -->
<g id="node9" class="node">
<title>Node9</title>
<g id="a_node9"><a xlink:title=" ">
<polygon fill="white" stroke="#bfbfbf" points="867.5,-69.5 867.5,-89.5 971.84,-89.5 971.84,-69.5 867.5,-69.5"/>
<text text-anchor="middle" x="919.67" y="-76.5" font-family="Helvetica,sans-Serif" font-size="10.00">haldls/vx/common.h</text>
</a>
</g>
</g>
<!-- Node2&#45;&gt;Node9 -->
<g id="edge8" class="edge">
<title>Node2&#45;&gt;Node9</title>
<path fill="none" stroke="midnightblue" d="M865.16,-138.46C875.07,-127.93 891.64,-110.31 903.91,-97.26"/>
<polygon fill="midnightblue" stroke="midnightblue" points="906.6,-99.51 910.9,-89.82 901.5,-94.71 906.6,-99.51"/>
</g>
<!-- Node10 -->
<g id="node10" class="node">
<title>Node10</title>
<g id="a_node10"><a xlink:title=" ">
<polygon fill="white" stroke="#bfbfbf" points="989.83,-69.5 989.83,-89.5 1077.51,-89.5 1077.51,-69.5 989.83,-69.5"/>
<text text-anchor="middle" x="1033.67" y="-76.5" font-family="Helvetica,sans-Serif" font-size="10.00">haldls/vx/traits.h</text>
</a>
</g>
</g>
<!-- Node2&#45;&gt;Node10 -->
<g id="edge9" class="edge">
<title>Node2&#45;&gt;Node10</title>
<path fill="none" stroke="midnightblue" d="M882.41,-138.34C907.56,-129.32 946.87,-115.05 980.67,-102 987.74,-99.27 995.3,-96.26 1002.44,-93.37"/>
<polygon fill="midnightblue" stroke="midnightblue" points="1003.87,-96.57 1011.82,-89.56 1001.23,-90.08 1003.87,-96.57"/>
</g>
<!-- Node11 -->
<g id="node11" class="node">
<title>Node11</title>
<g id="a_node11"><a xlink:title=" ">
<polygon fill="white" stroke="#bfbfbf" points="1095.17,-69.5 1095.17,-89.5 1176.17,-89.5 1176.17,-69.5 1095.17,-69.5"/>
<text text-anchor="middle" x="1135.67" y="-76.5" font-family="Helvetica,sans-Serif" font-size="10.00">hate/visibility.h</text>
</a>
</g>
</g>
<!-- Node2&#45;&gt;Node11 -->
<g id="edge10" class="edge">
<title>Node2&#45;&gt;Node11</title>
<path fill="none" stroke="midnightblue" d="M918.6,-139C965.42,-131.68 1030.94,-119.51 1086.67,-102 1093.7,-99.79 1101.07,-96.89 1107.9,-93.94"/>
<polygon fill="midnightblue" stroke="midnightblue" points="1109.74,-96.94 1117.42,-89.64 1106.87,-90.56 1109.74,-96.94"/>
</g>
<!-- Node12 -->
<g id="node12" class="node">
<title>Node12</title>
<g id="a_node12"><a xlink:href="cerealization_8h.html" target="_top" xlink:title=" ">
<polygon fill="white" stroke="black" points="1193.88,-69.5 1193.88,-89.5 1305.45,-89.5 1305.45,-69.5 1193.88,-69.5"/>
<text text-anchor="middle" x="1249.67" y="-76.5" font-family="Helvetica,sans-Serif" font-size="10.00">lola/vx/cerealization.h</text>
</a>
</g>
</g>
<!-- Node2&#45;&gt;Node12 -->
<g id="edge11" class="edge">
<title>Node2&#45;&gt;Node12</title>
<path fill="none" stroke="midnightblue" d="M918.54,-142.42C985.14,-136.14 1093.89,-123.56 1185.67,-102 1195.94,-99.59 1206.9,-96.21 1216.79,-92.85"/>
<polygon fill="midnightblue" stroke="midnightblue" points="1217.99,-96.14 1226.27,-89.53 1215.67,-89.54 1217.99,-96.14"/>
</g>
<!-- Node16 -->
<g id="node16" class="node">
<title>Node16</title>
<g id="a_node16"><a xlink:href="genpybind_8h.html" target="_top" xlink:title=" ">
<polygon fill="white" stroke="black" points="1323.88,-69.5 1323.88,-89.5 1425.46,-89.5 1425.46,-69.5 1323.88,-69.5"/>
<text text-anchor="middle" x="1374.67" y="-76.5" font-family="Helvetica,sans-Serif" font-size="10.00">lola/vx/genpybind.h</text>
</a>
</g>
</g>
<!-- Node2&#45;&gt;Node16 -->
<g id="edge15" class="edge">
<title>Node2&#45;&gt;Node16</title>
<path fill="none" stroke="midnightblue" d="M918.55,-146.14C1007.28,-143.13 1175.33,-133.39 1314.67,-102 1324.34,-99.82 1334.59,-96.53 1343.83,-93.18"/>
<polygon fill="midnightblue" stroke="midnightblue" points="1345.27,-96.38 1353.39,-89.57 1342.79,-89.83 1345.27,-96.38"/>
</g>
<!-- Node17 -->
<g id="node17" class="node">
<title>Node17</title>
<g id="a_node17"><a xlink:title=" ">
<polygon fill="white" stroke="#bfbfbf" points="1461.31,-69.5 1461.31,-89.5 1604.03,-89.5 1604.03,-69.5 1461.31,-69.5"/>
<text text-anchor="middle" x="1532.67" y="-76.5" font-family="Helvetica,sans-Serif" font-size="10.00">boost/hana/adapt_struct.hpp</text>
</a>
</g>
</g>
<!-- Node2&#45;&gt;Node17 -->
<g id="edge17" class="edge">
<title>Node2&#45;&gt;Node17</title>
<path fill="none" stroke="midnightblue" d="M918.48,-146.57C1027.24,-144.08 1259.6,-135.02 1452.67,-102 1466.45,-99.64 1481.3,-95.98 1494.42,-92.33"/>
<polygon fill="midnightblue" stroke="midnightblue" points="1495.42,-95.69 1504.07,-89.57 1493.5,-88.96 1495.42,-95.69"/>
</g>
<!-- Node13 -->
<g id="node13" class="node">
<title>Node13</title>
<g id="a_node13"><a xlink:title=" ">
<polygon fill="white" stroke="#bfbfbf" points="1126.61,-0.5 1126.61,-20.5 1188.73,-20.5 1188.73,-0.5 1126.61,-0.5"/>
<text text-anchor="middle" x="1157.67" y="-7.5" font-family="Helvetica,sans-Serif" font-size="10.00">type_traits</text>
</a>
</g>
</g>
<!-- Node12&#45;&gt;Node13 -->
<g id="edge12" class="edge">
<title>Node12&#45;&gt;Node13</title>
<path fill="none" stroke="midnightblue" d="M1237.26,-69.46C1222.17,-58.47 1196.48,-39.76 1178.37,-26.58"/>
<polygon fill="midnightblue" stroke="midnightblue" points="1180.32,-23.66 1170.17,-20.61 1176.2,-29.32 1180.32,-23.66"/>
</g>
<!-- Node14 -->
<g id="node14" class="node">
<title>Node14</title>
<g id="a_node14"><a xlink:title=" ">
<polygon fill="white" stroke="#bfbfbf" points="1207.2,-0.5 1207.2,-20.5 1292.13,-20.5 1292.13,-0.5 1207.2,-0.5"/>
<text text-anchor="middle" x="1249.67" y="-7.5" font-family="Helvetica,sans-Serif" font-size="10.00">boost/hana.hpp</text>
</a>
</g>
</g>
<!-- Node12&#45;&gt;Node14 -->
<g id="edge13" class="edge">
<title>Node12&#45;&gt;Node14</title>
<path fill="none" stroke="midnightblue" d="M1249.67,-69.46C1249.67,-59.63 1249.67,-43.61 1249.67,-30.9"/>
<polygon fill="midnightblue" stroke="midnightblue" points="1253.17,-30.82 1249.67,-20.82 1246.17,-30.82 1253.17,-30.82"/>
</g>
<!-- Node15 -->
<g id="node15" class="node">
<title>Node15</title>
<g id="a_node15"><a xlink:title=" ">
<polygon fill="white" stroke="#bfbfbf" points="1310.55,-0.5 1310.55,-20.5 1408.79,-20.5 1408.79,-0.5 1310.55,-0.5"/>
<text text-anchor="middle" x="1359.67" y="-7.5" font-family="Helvetica,sans-Serif" font-size="10.00">cereal/macros.hpp</text>
</a>
</g>
</g>
<!-- Node12&#45;&gt;Node15 -->
<g id="edge14" class="edge">
<title>Node12&#45;&gt;Node15</title>
<path fill="none" stroke="midnightblue" d="M1264.5,-69.46C1282.87,-58.28 1314.39,-39.08 1336.09,-25.86"/>
<polygon fill="midnightblue" stroke="midnightblue" points="1338,-28.8 1344.72,-20.61 1334.36,-22.82 1338,-28.8"/>
</g>
<!-- Node16&#45;&gt;Node16 -->
<g id="edge16" class="edge">
<title>Node16&#45;&gt;Node16</title>
<path fill="none" stroke="midnightblue" d="M1396.86,-89.54C1418.99,-95.26 1443.46,-91.92 1443.46,-79.5 1443.46,-68.93 1425.72,-64.93 1406.78,-67.51"/>
<polygon fill="midnightblue" stroke="midnightblue" points="1406,-64.1 1396.86,-69.46 1407.35,-70.97 1406,-64.1"/>
</g>
</g>
</svg>
        <g id="navigator" transform="translate(0 0)" fill="#404254">
                <rect fill="#f2f5e9" fill-opacity="0.5" stroke="#606060" stroke-width=".5" x="0" y="0" width="60" height="60"/>
                <use id="zoomplus" xlink:href="#zoomPlus" x="17" y="9" onmousedown="handleZoom(evt,'in')"/>
                <use id="zoomminus" xlink:href="#zoomMin" x="42" y="9" onmousedown="handleZoom(evt,'out')"/>
                <use id="reset" xlink:href="#resetDef" x="30" y="36" onmousedown="handleReset()"/>
                <g id="arrowUp" xlink:href="#dirArrow" transform="translate(30 24)" onmousedown="handlePan(0,-1)">
                  <use xlink:href="#rim" fill="#404040">
                        <set attributeName="fill" to="#808080" begin="arrowUp.mouseover" end="arrowUp.mouseout"/>
                  </use>
                  <path fill="none" stroke="white" stroke-width="1.5" d="M0,-3.0v7 M-2.5,-0.5L0,-3.0L2.5,-0.5"/>
                </g>
                <g id="arrowRight" xlink:href="#dirArrow" transform="rotate(90) translate(36 -43)" onmousedown="handlePan(1,0)">
                  <use xlink:href="#rim" fill="#404040">
                        <set attributeName="fill" to="#808080" begin="arrowRight.mouseover" end="arrowRight.mouseout"/>
                  </use>
                  <path fill="none" stroke="white" stroke-width="1.5" d="M0,-3.0v7 M-2.5,-0.5L0,-3.0L2.5,-0.5"/>
                </g>
                <g id="arrowDown" xlink:href="#dirArrow" transform="rotate(180) translate(-30 -48)" onmousedown="handlePan(0,1)">
                  <use xlink:href="#rim" fill="#404040">
                        <set attributeName="fill" to="#808080" begin="arrowDown.mouseover" end="arrowDown.mouseout"/>
                  </use>
                  <path fill="none" stroke="white" stroke-width="1.5" d="M0,-3.0v7 M-2.5,-0.5L0,-3.0L2.5,-0.5"/>
                </g>
                <g id="arrowLeft" xlink:href="#dirArrow" transform="rotate(270) translate(-36 17)" onmousedown="handlePan(-1,0)">
                  <use xlink:href="#rim" fill="#404040">
                        <set attributeName="fill" to="#808080" begin="arrowLeft.mouseover" end="arrowLeft.mouseout"/>
                  </use>
                  <path fill="none" stroke="white" stroke-width="1.5" d="M0,-3.0v7 M-2.5,-0.5L0,-3.0L2.5,-0.5"/>
                </g>
        </g>
        <svg viewBox="0 0 15 15" width="100%" height="30px" preserveAspectRatio="xMaxYMin meet">
         <g id="arrow_out" transform="scale(0.3 0.3)">
          <a xlink:href="v3_2synapse__driver_8h__incl_org.svg" target="_base">
           <rect id="button" ry="5" rx="5" y="6" x="6" height="38" width="38"
                fill="#f2f5e9" fill-opacity="0.5" stroke="#606060" stroke-width="1.0"/>
           <path id="arrow"
             d="M 11.500037,31.436501 C 11.940474,20.09759 22.043105,11.32322 32.158766,21.979434 L 37.068811,17.246167 C 37.068811,17.246167 37.088388,32 37.088388,32 L 22.160133,31.978069 C 22.160133,31.978069 26.997745,27.140456 26.997745,27.140456 C 18.528582,18.264221 13.291696,25.230495 11.500037,31.436501 z"
             style="fill:#404040;"/>
          </a>
         </g>
        </svg>
</svg>
