<?xml version="1.0" encoding="UTF-8" standalone="no"?>
<!DOCTYPE svg PUBLIC "-//W3C//DTD SVG 1.1//EN"
 "http://www.w3.org/Graphics/SVG/1.1/DTD/svg11.dtd">
<!-- Generated by graphviz version 2.46.0 (0)
 -->
<!-- Title: stadls::vx::v3::detail::InitGenerator Pages: 1 -->
<svg width="290pt" height="98pt"
 viewBox="0.00 0.00 289.85 98.00" xmlns="http://www.w3.org/2000/svg" xmlns:xlink="http://www.w3.org/1999/xlink">
<g id="graph0" class="graph" transform="scale(1 1) rotate(0) translate(4 94)">
<title>stadls::vx::v3::detail::InitGenerator</title>
<polygon fill="white" stroke="transparent" points="-4,4 -4,-94 285.85,-94 285.85,4 -4,4"/>
<!-- Node1 -->
<g id="node1" class="node">
<title>Node1</title>
<g id="a_node1"><a xlink:title=" ">
<polygon fill="#bfbfbf" stroke="black" points="83.61,-57.5 83.61,-89.5 186.85,-89.5 186.85,-57.5 83.61,-57.5"/>
<text text-anchor="start" x="91.61" y="-76.5" font-family="Helvetica,sans-Serif" font-size="10.00">stadls::vx::v3::detail</text>
<text text-anchor="middle" x="135.23" y="-64.5" font-family="Helvetica,sans-Serif" font-size="10.00">::InitGenerator</text>
</a>
</g>
</g>
<!-- Node2 -->
<g id="node2" class="node">
<title>Node2</title>
<g id="a_node2"><a xlink:href="classstadls_1_1vx_1_1v3_1_1_digital_init.html" target="_top" xlink:title="Generator for initialization of the chip up to digital communication.">
<polygon fill="white" stroke="black" points="0,-0.5 0,-20.5 120.46,-20.5 120.46,-0.5 0,-0.5"/>
<text text-anchor="middle" x="60.23" y="-7.5" font-family="Helvetica,sans-Serif" font-size="10.00">stadls::vx::v3::DigitalInit</text>
</a>
</g>
</g>
<!-- Node1&#45;&gt;Node2 -->
<g id="edge1" class="edge">
<title>Node1&#45;&gt;Node2</title>
<path fill="none" stroke="midnightblue" d="M108.61,-50.85C95.81,-40.44 81.15,-28.51 71.35,-20.55"/>
<polygon fill="midnightblue" stroke="midnightblue" points="106.72,-53.83 116.69,-57.42 111.14,-48.4 106.72,-53.83"/>
</g>
<!-- Node3 -->
<g id="node3" class="node">
<title>Node3</title>
<g id="a_node3"><a xlink:href="classstadls_1_1vx_1_1v3_1_1_experiment_init.html" target="_top" xlink:title="Generator for initialization required for typical experiments.">
<polygon fill="white" stroke="black" points="138.61,-0.5 138.61,-20.5 281.85,-20.5 281.85,-0.5 138.61,-0.5"/>
<text text-anchor="middle" x="210.23" y="-7.5" font-family="Helvetica,sans-Serif" font-size="10.00">stadls::vx::v3::ExperimentInit</text>
</a>
</g>
</g>
<!-- Node1&#45;&gt;Node3 -->
<g id="edge2" class="edge">
<title>Node1&#45;&gt;Node3</title>
<path fill="none" stroke="midnightblue" d="M161.85,-50.85C174.65,-40.44 189.31,-28.51 199.11,-20.55"/>
<polygon fill="midnightblue" stroke="midnightblue" points="159.32,-48.4 153.77,-57.42 163.73,-53.83 159.32,-48.4"/>
</g>
</g>
</svg>
