<?xml version="1.0" encoding="UTF-8" standalone="no"?>
<!DOCTYPE svg PUBLIC "-//W3C//DTD SVG 1.1//EN"
 "http://www.w3.org/Graphics/SVG/1.1/DTD/svg11.dtd">
<!-- Generated by graphviz version 2.46.0 (0)
 -->
<!-- Title: /jenkins/jenlib_workspaces_f9/bld_nightly&#45;haldls.YmxkX25pZ2h0bHktaGFsZGxzIzEzNzk.x/haldls/include/stadls/vx/constants.h Pages: 1 -->
<svg width="189pt" height="122pt"
 viewBox="0.00 0.00 189.02 122.00" xmlns="http://www.w3.org/2000/svg" xmlns:xlink="http://www.w3.org/1999/xlink">
<g id="graph0" class="graph" transform="scale(1 1) rotate(0) translate(4 118)">
<title>/jenkins/jenlib_workspaces_f9/bld_nightly&#45;haldls.YmxkX25pZ2h0bHktaGFsZGxzIzEzNzk.x/haldls/include/stadls/vx/constants.h</title>
<polygon fill="white" stroke="transparent" points="-4,4 -4,-118 185.02,-118 185.02,4 -4,4"/>
<!-- Node1 -->
<g id="node1" class="node">
<title>Node1</title>
<g id="a_node1"><a xlink:title=" ">
<polygon fill="#bfbfbf" stroke="black" points="0,-57.5 0,-113.5 181.02,-113.5 181.02,-57.5 0,-57.5"/>
<text text-anchor="start" x="8" y="-100.5" font-family="Helvetica,sans-Serif" font-size="10.00">/jenkins/jenlib_workspaces</text>
<text text-anchor="start" x="8" y="-88.5" font-family="Helvetica,sans-Serif" font-size="10.00">_f9/bld_nightly&#45;haldls.YmxkX25p</text>
<text text-anchor="start" x="8" y="-76.5" font-family="Helvetica,sans-Serif" font-size="10.00">Z2h0bHktaGFsZGxzIzEzNzk.x/haldls</text>
<text text-anchor="middle" x="90.51" y="-64.5" font-family="Helvetica,sans-Serif" font-size="10.00">/include/stadls/vx/constants.h</text>
</a>
</g>
</g>
<!-- Node2 -->
<g id="node2" class="node">
<title>Node2</title>
<g id="a_node2"><a xlink:title=" ">
<polygon fill="white" stroke="#bfbfbf" points="38.89,-0.5 38.89,-20.5 142.13,-20.5 142.13,-0.5 38.89,-0.5"/>
<text text-anchor="middle" x="90.51" y="-7.5" font-family="Helvetica,sans-Serif" font-size="10.00">fisch/vx/constants.h</text>
</a>
</g>
</g>
<!-- Node1&#45;&gt;Node2 -->
<g id="edge1" class="edge">
<title>Node1&#45;&gt;Node2</title>
<path fill="none" stroke="midnightblue" d="M90.51,-57.32C90.51,-48.5 90.51,-38.91 90.51,-30.79"/>
<polygon fill="midnightblue" stroke="midnightblue" points="94.01,-30.52 90.51,-20.52 87.01,-30.52 94.01,-30.52"/>
</g>
</g>
</svg>
