<?xml version="1.0" encoding="UTF-8" standalone="no"?>
<!DOCTYPE svg PUBLIC "-//W3C//DTD SVG 1.1//EN"
 "http://www.w3.org/Graphics/SVG/1.1/DTD/svg11.dtd">
<!-- Generated by graphviz version 2.46.0 (0)
 -->
<!-- Title: /jenkins/jenlib_workspaces_f9/bld_nightly&#45;haldls.YmxkX25pZ2h0bHktaGFsZGxzIzEzNzk.x/haldls/include/stadls/vx/dumper.h Pages: 1 -->
<svg width="2030pt" height="262pt"
 viewBox="0.00 0.00 2030.02 261.55" xmlns="http://www.w3.org/2000/svg" xmlns:xlink="http://www.w3.org/1999/xlink">
<g id="graph0" class="graph" transform="scale(1 1) rotate(0) translate(4 257.55)">
<title>/jenkins/jenlib_workspaces_f9/bld_nightly&#45;haldls.YmxkX25pZ2h0bHktaGFsZGxzIzEzNzk.x/haldls/include/stadls/vx/dumper.h</title>
<polygon fill="white" stroke="transparent" points="-4,4 -4,-257.55 2026.02,-257.55 2026.02,4 -4,4"/>
<!-- Node1 -->
<g id="node1" class="node">
<title>Node1</title>
<g id="a_node1"><a xlink:title=" ">
<polygon fill="#bfbfbf" stroke="black" points="305,-197.05 305,-253.05 486.02,-253.05 486.02,-197.05 305,-197.05"/>
<text text-anchor="start" x="313" y="-240.05" font-family="Helvetica,sans-Serif" font-size="10.00">/jenkins/jenlib_workspaces</text>
<text text-anchor="start" x="313" y="-228.05" font-family="Helvetica,sans-Serif" font-size="10.00">_f9/bld_nightly&#45;haldls.YmxkX25p</text>
<text text-anchor="start" x="313" y="-216.05" font-family="Helvetica,sans-Serif" font-size="10.00">Z2h0bHktaGFsZGxzIzEzNzk.x/haldls</text>
<text text-anchor="middle" x="395.51" y="-204.05" font-family="Helvetica,sans-Serif" font-size="10.00">/include/stadls/vx/dumper.h</text>
</a>
</g>
</g>
<!-- Node2 -->
<g id="node2" class="node">
<title>Node2</title>
<g id="a_node2"><a xlink:title=" ">
<polygon fill="white" stroke="#bfbfbf" points="0,-128.05 0,-160.05 101.02,-160.05 101.02,-128.05 0,-128.05"/>
<text text-anchor="start" x="8" y="-147.05" font-family="Helvetica,sans-Serif" font-size="10.00">halco/hicann&#45;dls/vx</text>
<text text-anchor="middle" x="50.51" y="-135.05" font-family="Helvetica,sans-Serif" font-size="10.00">/barrier.h</text>
</a>
</g>
</g>
<!-- Node1&#45;&gt;Node2 -->
<g id="edge1" class="edge">
<title>Node1&#45;&gt;Node2</title>
<path fill="none" stroke="midnightblue" d="M304.82,-204.85C251.01,-193.23 181.23,-177.79 111.21,-160.92"/>
<polygon fill="midnightblue" stroke="midnightblue" points="111.87,-157.48 101.33,-158.54 110.22,-164.29 111.87,-157.48"/>
</g>
<!-- Node3 -->
<g id="node3" class="node">
<title>Node3</title>
<g id="a_node3"><a xlink:title=" ">
<polygon fill="white" stroke="#bfbfbf" points="119,-128.05 119,-160.05 220.02,-160.05 220.02,-128.05 119,-128.05"/>
<text text-anchor="start" x="127" y="-147.05" font-family="Helvetica,sans-Serif" font-size="10.00">halco/hicann&#45;dls/vx</text>
<text text-anchor="middle" x="169.51" y="-135.05" font-family="Helvetica,sans-Serif" font-size="10.00">/omnibus.h</text>
</a>
</g>
</g>
<!-- Node1&#45;&gt;Node3 -->
<g id="edge2" class="edge">
<title>Node1&#45;&gt;Node3</title>
<path fill="none" stroke="midnightblue" d="M318.05,-196.98C286.5,-185.95 250.84,-173.48 222.37,-163.53"/>
<polygon fill="midnightblue" stroke="midnightblue" points="223.21,-160.12 212.61,-160.12 220.9,-166.72 223.21,-160.12"/>
</g>
<!-- Node4 -->
<g id="node4" class="node">
<title>Node4</title>
<g id="a_node4"><a xlink:title=" ">
<polygon fill="white" stroke="#bfbfbf" points="238.06,-134.05 238.06,-154.05 332.96,-154.05 332.96,-134.05 238.06,-134.05"/>
<text text-anchor="middle" x="285.51" y="-141.05" font-family="Helvetica,sans-Serif" font-size="10.00">haldls/vx/barrier.h</text>
</a>
</g>
</g>
<!-- Node1&#45;&gt;Node4 -->
<g id="edge3" class="edge">
<title>Node1&#45;&gt;Node4</title>
<path fill="none" stroke="midnightblue" d="M357.65,-196.87C340.46,-184.52 320.79,-170.39 306.34,-160.01"/>
<polygon fill="midnightblue" stroke="midnightblue" points="308.24,-157.07 298.08,-154.08 304.16,-162.76 308.24,-157.07"/>
</g>
<!-- Node5 -->
<g id="node5" class="node">
<title>Node5</title>
<g id="a_node5"><a xlink:title=" ">
<polygon fill="white" stroke="#bfbfbf" points="350.83,-134.05 350.83,-154.05 440.18,-154.05 440.18,-134.05 350.83,-134.05"/>
<text text-anchor="middle" x="395.51" y="-141.05" font-family="Helvetica,sans-Serif" font-size="10.00">haldls/vx/block.h</text>
</a>
</g>
</g>
<!-- Node1&#45;&gt;Node5 -->
<g id="edge4" class="edge">
<title>Node1&#45;&gt;Node5</title>
<path fill="none" stroke="midnightblue" d="M395.51,-196.87C395.51,-186.21 395.51,-174.24 395.51,-164.48"/>
<polygon fill="midnightblue" stroke="midnightblue" points="399.01,-164.27 395.51,-154.27 392.01,-164.27 399.01,-164.27"/>
</g>
<!-- Node6 -->
<g id="node6" class="node">
<title>Node6</title>
<g id="a_node6"><a xlink:title=" ">
<polygon fill="white" stroke="#bfbfbf" points="458.4,-134.05 458.4,-154.05 546.62,-154.05 546.62,-134.05 458.4,-134.05"/>
<text text-anchor="middle" x="502.51" y="-141.05" font-family="Helvetica,sans-Serif" font-size="10.00">haldls/vx/timer.h</text>
</a>
</g>
</g>
<!-- Node1&#45;&gt;Node6 -->
<g id="edge5" class="edge">
<title>Node1&#45;&gt;Node6</title>
<path fill="none" stroke="midnightblue" d="M432.33,-196.87C448.89,-184.64 467.83,-170.66 481.85,-160.31"/>
<polygon fill="midnightblue" stroke="midnightblue" points="484.31,-162.84 490.28,-154.08 480.16,-157.2 484.31,-162.84"/>
</g>
<!-- Node7 -->
<g id="node7" class="node">
<title>Node7</title>
<g id="a_node7"><a xlink:title=" ">
<polygon fill="white" stroke="#bfbfbf" points="303.01,-65.05 303.01,-85.05 384.01,-85.05 384.01,-65.05 303.01,-65.05"/>
<text text-anchor="middle" x="343.51" y="-72.05" font-family="Helvetica,sans-Serif" font-size="10.00">hate/visibility.h</text>
</a>
</g>
</g>
<!-- Node1&#45;&gt;Node7 -->
<g id="edge6" class="edge">
<title>Node1&#45;&gt;Node7</title>
<path fill="none" stroke="midnightblue" d="M486.21,-203C536.23,-187.05 583.11,-161.97 555.51,-127.55 509.36,-70.02 464.79,-110.49 393.51,-91.55 389.41,-90.46 385.14,-89.26 380.9,-88.01"/>
<polygon fill="midnightblue" stroke="midnightblue" points="381.75,-84.61 371.16,-85.07 379.72,-91.31 381.75,-84.61"/>
</g>
<!-- Node8 -->
<g id="node8" class="node">
<title>Node8</title>
<g id="a_node8"><a xlink:href="playback__program_8h.html" target="_top" xlink:title=" ">
<polygon fill="white" stroke="black" points="888.94,-128.05 888.94,-160.05 986.07,-160.05 986.07,-128.05 888.94,-128.05"/>
<text text-anchor="start" x="896.94" y="-147.05" font-family="Helvetica,sans-Serif" font-size="10.00">stadls/vx/playback</text>
<text text-anchor="middle" x="937.51" y="-135.05" font-family="Helvetica,sans-Serif" font-size="10.00">_program.h</text>
</a>
</g>
</g>
<!-- Node1&#45;&gt;Node8 -->
<g id="edge7" class="edge">
<title>Node1&#45;&gt;Node8</title>
<path fill="none" stroke="midnightblue" d="M486.23,-210.83C597.88,-194.56 784.25,-167.39 878.74,-153.62"/>
<polygon fill="midnightblue" stroke="midnightblue" points="879.3,-157.07 888.69,-152.17 878.29,-150.15 879.3,-157.07"/>
</g>
<!-- Node8&#45;&gt;Node7 -->
<g id="edge21" class="edge">
<title>Node8&#45;&gt;Node7</title>
<path fill="none" stroke="midnightblue" d="M888.62,-141.8C792.76,-138.59 573.74,-127.62 393.51,-91.55 388.75,-90.6 383.79,-89.37 378.94,-88.02"/>
<polygon fill="midnightblue" stroke="midnightblue" points="379.78,-84.62 369.2,-85.13 377.79,-91.33 379.78,-84.62"/>
</g>
<!-- Node9 -->
<g id="node9" class="node">
<title>Node9</title>
<g id="a_node9"><a xlink:title=" ">
<polygon fill="white" stroke="#bfbfbf" points="402.06,-65.05 402.06,-85.05 446.96,-85.05 446.96,-65.05 402.06,-65.05"/>
<text text-anchor="middle" x="424.51" y="-72.05" font-family="Helvetica,sans-Serif" font-size="10.00">cstdint</text>
</a>
</g>
</g>
<!-- Node8&#45;&gt;Node9 -->
<g id="edge8" class="edge">
<title>Node8&#45;&gt;Node9</title>
<path fill="none" stroke="midnightblue" d="M888.86,-143.52C800.64,-143.12 609.16,-136.57 455.51,-91.55 453.35,-90.92 451.16,-90.14 449,-89.27"/>
<polygon fill="midnightblue" stroke="midnightblue" points="450.38,-86.06 439.83,-85.07 447.46,-92.42 450.38,-86.06"/>
</g>
<!-- Node10 -->
<g id="node10" class="node">
<title>Node10</title>
<g id="a_node10"><a xlink:title=" ">
<polygon fill="white" stroke="#bfbfbf" points="464.46,-65.05 464.46,-85.05 516.56,-85.05 516.56,-65.05 464.46,-65.05"/>
<text text-anchor="middle" x="490.51" y="-72.05" font-family="Helvetica,sans-Serif" font-size="10.00">memory</text>
</a>
</g>
</g>
<!-- Node8&#45;&gt;Node10 -->
<g id="edge9" class="edge">
<title>Node8&#45;&gt;Node10</title>
<path fill="none" stroke="midnightblue" d="M888.72,-141.55C810.67,-138.13 653.49,-127.06 525.51,-91.55 522.9,-90.83 520.23,-89.94 517.59,-88.96"/>
<polygon fill="midnightblue" stroke="midnightblue" points="518.88,-85.71 508.3,-85.14 516.21,-92.18 518.88,-85.71"/>
</g>
<!-- Node11 -->
<g id="node11" class="node">
<title>Node11</title>
<g id="a_node11"><a xlink:title=" ">
<polygon fill="white" stroke="#bfbfbf" points="535,-65.05 535,-85.05 586.01,-85.05 586.01,-65.05 535,-65.05"/>
<text text-anchor="middle" x="560.51" y="-72.05" font-family="Helvetica,sans-Serif" font-size="10.00">optional</text>
</a>
</g>
</g>
<!-- Node8&#45;&gt;Node11 -->
<g id="edge10" class="edge">
<title>Node8&#45;&gt;Node11</title>
<path fill="none" stroke="midnightblue" d="M888.77,-139.83C821.63,-134.46 697.41,-121.21 595.51,-91.55 593.05,-90.84 590.54,-89.99 588.05,-89.06"/>
<polygon fill="midnightblue" stroke="midnightblue" points="589.27,-85.77 578.69,-85.21 586.61,-92.25 589.27,-85.77"/>
</g>
<!-- Node12 -->
<g id="node12" class="node">
<title>Node12</title>
<g id="a_node12"><a xlink:title=" ">
<polygon fill="white" stroke="#bfbfbf" points="604.29,-65.05 604.29,-85.05 644.73,-85.05 644.73,-65.05 604.29,-65.05"/>
<text text-anchor="middle" x="624.51" y="-72.05" font-family="Helvetica,sans-Serif" font-size="10.00">string</text>
</a>
</g>
</g>
<!-- Node8&#45;&gt;Node12 -->
<g id="edge11" class="edge">
<title>Node8&#45;&gt;Node12</title>
<path fill="none" stroke="midnightblue" d="M888.86,-138.87C831.34,-132.89 733.36,-119.36 653.51,-91.55 651.88,-90.98 650.23,-90.33 648.58,-89.63"/>
<polygon fill="midnightblue" stroke="midnightblue" points="649.98,-86.41 639.45,-85.18 646.91,-92.71 649.98,-86.41"/>
</g>
<!-- Node13 -->
<g id="node13" class="node">
<title>Node13</title>
<g id="a_node13"><a xlink:title=" ">
<polygon fill="white" stroke="#bfbfbf" points="662.89,-65.05 662.89,-85.05 706.12,-85.05 706.12,-65.05 662.89,-65.05"/>
<text text-anchor="middle" x="684.51" y="-72.05" font-family="Helvetica,sans-Serif" font-size="10.00">vector</text>
</a>
</g>
</g>
<!-- Node8&#45;&gt;Node13 -->
<g id="edge12" class="edge">
<title>Node8&#45;&gt;Node13</title>
<path fill="none" stroke="midnightblue" d="M888.93,-135.19C843.31,-127.02 773.58,-112.47 715.51,-91.55 713.83,-90.95 712.13,-90.28 710.44,-89.56"/>
<polygon fill="midnightblue" stroke="midnightblue" points="711.47,-86.19 700.92,-85.16 708.53,-92.54 711.47,-86.19"/>
</g>
<!-- Node14 -->
<g id="node14" class="node">
<title>Node14</title>
<g id="a_node14"><a xlink:title=" ">
<polygon fill="white" stroke="#bfbfbf" points="724.16,-65.05 724.16,-85.05 816.86,-85.05 816.86,-65.05 724.16,-65.05"/>
<text text-anchor="middle" x="770.51" y="-72.05" font-family="Helvetica,sans-Serif" font-size="10.00">boost/variant.hpp</text>
</a>
</g>
</g>
<!-- Node8&#45;&gt;Node14 -->
<g id="edge13" class="edge">
<title>Node8&#45;&gt;Node14</title>
<path fill="none" stroke="midnightblue" d="M900.03,-128.02C870.74,-116.26 830.46,-100.1 802.63,-88.94"/>
<polygon fill="midnightblue" stroke="midnightblue" points="803.57,-85.55 792.99,-85.07 800.96,-92.04 803.57,-85.55"/>
</g>
<!-- Node15 -->
<g id="node15" class="node">
<title>Node15</title>
<g id="a_node15"><a xlink:title=" ">
<polygon fill="white" stroke="#bfbfbf" points="834.89,-59.05 834.89,-91.05 928.13,-91.05 928.13,-59.05 834.89,-59.05"/>
<text text-anchor="start" x="842.89" y="-78.05" font-family="Helvetica,sans-Serif" font-size="10.00">fisch/vx/container</text>
<text text-anchor="middle" x="881.51" y="-66.05" font-family="Helvetica,sans-Serif" font-size="10.00">_cast.h</text>
</a>
</g>
</g>
<!-- Node8&#45;&gt;Node15 -->
<g id="edge14" class="edge">
<title>Node8&#45;&gt;Node15</title>
<path fill="none" stroke="midnightblue" d="M924.8,-127.85C917.71,-119.37 908.74,-108.63 900.8,-99.13"/>
<polygon fill="midnightblue" stroke="midnightblue" points="903.26,-96.62 894.16,-91.2 897.89,-101.11 903.26,-96.62"/>
</g>
<!-- Node16 -->
<g id="node16" class="node">
<title>Node16</title>
<g id="a_node16"><a xlink:title=" ">
<polygon fill="white" stroke="#bfbfbf" points="945.89,-59.05 945.89,-91.05 1039.13,-91.05 1039.13,-59.05 945.89,-59.05"/>
<text text-anchor="start" x="953.89" y="-78.05" font-family="Helvetica,sans-Serif" font-size="10.00">fisch/vx/container</text>
<text text-anchor="middle" x="992.51" y="-66.05" font-family="Helvetica,sans-Serif" font-size="10.00">_ticket.h</text>
</a>
</g>
</g>
<!-- Node8&#45;&gt;Node16 -->
<g id="edge15" class="edge">
<title>Node8&#45;&gt;Node16</title>
<path fill="none" stroke="midnightblue" d="M949.99,-127.85C956.95,-119.37 965.76,-108.63 973.56,-99.13"/>
<polygon fill="midnightblue" stroke="midnightblue" points="976.44,-101.15 980.08,-91.2 971.03,-96.7 976.44,-101.15"/>
</g>
<!-- Node17 -->
<g id="node17" class="node">
<title>Node17</title>
<g id="a_node17"><a xlink:title=" ">
<polygon fill="white" stroke="#bfbfbf" points="1057.16,-65.05 1057.16,-85.05 1199.85,-85.05 1199.85,-65.05 1057.16,-65.05"/>
<text text-anchor="middle" x="1128.51" y="-72.05" font-family="Helvetica,sans-Serif" font-size="10.00">fisch/vx/playback_program.h</text>
</a>
</g>
</g>
<!-- Node8&#45;&gt;Node17 -->
<g id="edge16" class="edge">
<title>Node8&#45;&gt;Node17</title>
<path fill="none" stroke="midnightblue" d="M980.37,-128.02C1014.31,-116.11 1061.16,-99.68 1093.02,-88.5"/>
<polygon fill="midnightblue" stroke="midnightblue" points="1094.52,-91.68 1102.8,-85.07 1092.21,-85.08 1094.52,-91.68"/>
</g>
<!-- Node18 -->
<g id="node18" class="node">
<title>Node18</title>
<g id="a_node18"><a xlink:title=" ">
<polygon fill="white" stroke="#bfbfbf" points="1217.83,-65.05 1217.83,-85.05 1327.18,-85.05 1327.18,-65.05 1217.83,-65.05"/>
<text text-anchor="middle" x="1272.51" y="-72.05" font-family="Helvetica,sans-Serif" font-size="10.00">haldls/cerealization.h</text>
</a>
</g>
</g>
<!-- Node8&#45;&gt;Node18 -->
<g id="edge17" class="edge">
<title>Node8&#45;&gt;Node18</title>
<path fill="none" stroke="midnightblue" d="M986.12,-134.57C1040.47,-124.91 1131.04,-108.28 1208.51,-91.55 1214.38,-90.28 1220.53,-88.88 1226.61,-87.46"/>
<polygon fill="midnightblue" stroke="midnightblue" points="1227.78,-90.78 1236.7,-85.06 1226.16,-83.97 1227.78,-90.78"/>
</g>
<!-- Node19 -->
<g id="node19" class="node">
<title>Node19</title>
<g id="a_node19"><a xlink:title=" ">
<polygon fill="white" stroke="#bfbfbf" points="1345.34,-65.05 1345.34,-85.05 1449.68,-85.05 1449.68,-65.05 1345.34,-65.05"/>
<text text-anchor="middle" x="1397.51" y="-72.05" font-family="Helvetica,sans-Serif" font-size="10.00">haldls/vx/common.h</text>
</a>
</g>
</g>
<!-- Node8&#45;&gt;Node19 -->
<g id="edge18" class="edge">
<title>Node8&#45;&gt;Node19</title>
<path fill="none" stroke="midnightblue" d="M986.33,-138.66C1061.83,-131.45 1211.3,-115.45 1336.51,-91.55 1342.49,-90.41 1348.76,-89.03 1354.91,-87.57"/>
<polygon fill="midnightblue" stroke="midnightblue" points="1356.19,-90.86 1365.06,-85.07 1354.52,-84.06 1356.19,-90.86"/>
</g>
<!-- Node20 -->
<g id="node20" class="node">
<title>Node20</title>
<g id="a_node20"><a xlink:title=" ">
<polygon fill="white" stroke="#bfbfbf" points="1467.27,-65.05 1467.27,-85.05 1557.74,-85.05 1557.74,-65.05 1467.27,-65.05"/>
<text text-anchor="middle" x="1512.51" y="-72.05" font-family="Helvetica,sans-Serif" font-size="10.00">haldls/vx/event.h</text>
</a>
</g>
</g>
<!-- Node8&#45;&gt;Node20 -->
<g id="edge19" class="edge">
<title>Node8&#45;&gt;Node20</title>
<path fill="none" stroke="midnightblue" d="M986.41,-141.17C1079.2,-136.95 1286.88,-124.39 1458.51,-91.55 1463.9,-90.52 1469.52,-89.2 1475.03,-87.75"/>
<polygon fill="midnightblue" stroke="midnightblue" points="1476.01,-91.11 1484.71,-85.07 1474.14,-84.37 1476.01,-91.11"/>
</g>
<!-- Node21 -->
<g id="node21" class="node">
<title>Node21</title>
<g id="a_node21"><a xlink:title=" ">
<polygon fill="white" stroke="#bfbfbf" points="1575.88,-65.05 1575.88,-85.05 1659.13,-85.05 1659.13,-65.05 1575.88,-65.05"/>
<text text-anchor="middle" x="1617.51" y="-72.05" font-family="Helvetica,sans-Serif" font-size="10.00">hate/type_list.h</text>
</a>
</g>
</g>
<!-- Node8&#45;&gt;Node21 -->
<g id="edge20" class="edge">
<title>Node8&#45;&gt;Node21</title>
<path fill="none" stroke="midnightblue" d="M986.12,-142.59C1092.36,-140.81 1352.87,-132.28 1566.51,-91.55 1571.55,-90.59 1576.8,-89.32 1581.93,-87.92"/>
<polygon fill="midnightblue" stroke="midnightblue" points="1582.95,-91.27 1591.57,-85.1 1580.99,-84.55 1582.95,-91.27"/>
</g>
<!-- Node22 -->
<g id="node22" class="node">
<title>Node22</title>
<g id="a_node22"><a xlink:title=" ">
<polygon fill="white" stroke="#bfbfbf" points="1676.89,-65.05 1676.89,-85.05 1780.13,-85.05 1780.13,-65.05 1676.89,-65.05"/>
<text text-anchor="middle" x="1728.51" y="-72.05" font-family="Helvetica,sans-Serif" font-size="10.00">hxcomm/vx/target.h</text>
</a>
</g>
</g>
<!-- Node8&#45;&gt;Node22 -->
<g id="edge22" class="edge">
<title>Node8&#45;&gt;Node22</title>
<path fill="none" stroke="midnightblue" d="M986.19,-142.68C1104.07,-141.12 1413.92,-133.05 1668.51,-91.55 1674.85,-90.52 1681.5,-89.12 1687.96,-87.59"/>
<polygon fill="midnightblue" stroke="midnightblue" points="1689.05,-90.93 1697.9,-85.11 1687.35,-84.14 1689.05,-90.93"/>
</g>
<!-- Node23 -->
<g id="node23" class="node">
<title>Node23</title>
<g id="a_node23"><a xlink:href="genpybind_8h.html" target="_top" xlink:title=" ">
<polygon fill="white" stroke="black" points="1752.44,-2.05 1752.44,-22.05 1864.58,-22.05 1864.58,-2.05 1752.44,-2.05"/>
<text text-anchor="middle" x="1808.51" y="-9.05" font-family="Helvetica,sans-Serif" font-size="10.00">stadls/vx/genpybind.h</text>
</a>
</g>
</g>
<!-- Node8&#45;&gt;Node23 -->
<g id="edge23" class="edge">
<title>Node8&#45;&gt;Node23</title>
<path fill="none" stroke="midnightblue" d="M986.22,-143.42C1157.89,-144.28 1727.82,-143.18 1789.51,-91.55 1806.61,-77.24 1809.79,-50.43 1809.76,-32.16"/>
<polygon fill="midnightblue" stroke="midnightblue" points="1813.25,-31.95 1809.41,-22.08 1806.25,-32.19 1813.25,-31.95"/>
</g>
<!-- Node24 -->
<g id="node24" class="node">
<title>Node24</title>
<g id="a_node24"><a xlink:href="run__time__info_8h.html" target="_top" xlink:title=" ">
<polygon fill="white" stroke="black" points="1836.23,-59.05 1836.23,-91.05 1932.79,-91.05 1932.79,-59.05 1836.23,-59.05"/>
<text text-anchor="start" x="1844.23" y="-78.05" font-family="Helvetica,sans-Serif" font-size="10.00">stadls/vx/run_time</text>
<text text-anchor="middle" x="1884.51" y="-66.05" font-family="Helvetica,sans-Serif" font-size="10.00">_info.h</text>
</a>
</g>
</g>
<!-- Node8&#45;&gt;Node24 -->
<g id="edge25" class="edge">
<title>Node8&#45;&gt;Node24</title>
<path fill="none" stroke="midnightblue" d="M986.29,-143.4C1120.53,-143.67 1506.43,-139.82 1822.51,-91.55 1823.6,-91.38 1824.71,-91.21 1825.82,-91.02"/>
<polygon fill="midnightblue" stroke="midnightblue" points="1826.77,-94.4 1835.95,-89.1 1825.47,-87.52 1826.77,-94.4"/>
</g>
<!-- Node23&#45;&gt;Node23 -->
<g id="edge24" class="edge">
<title>Node23&#45;&gt;Node23</title>
<path fill="none" stroke="midnightblue" d="M1837.01,-22.11C1859.5,-26 1882.58,-22.65 1882.58,-12.05 1882.58,-3.03 1865.85,0.74 1846.99,-0.74"/>
<polygon fill="midnightblue" stroke="midnightblue" points="1846.5,2.72 1837.01,-1.99 1847.37,-4.22 1846.5,2.72"/>
</g>
<!-- Node24&#45;&gt;Node23 -->
<g id="edge27" class="edge">
<title>Node24&#45;&gt;Node23</title>
<path fill="none" stroke="midnightblue" d="M1865.72,-58.97C1854.12,-49.66 1839.28,-37.75 1827.61,-28.39"/>
<polygon fill="midnightblue" stroke="midnightblue" points="1829.77,-25.63 1819.78,-22.1 1825.39,-31.09 1829.77,-25.63"/>
</g>
<!-- Node25 -->
<g id="node25" class="node">
<title>Node25</title>
<g id="a_node25"><a xlink:title=" ">
<polygon fill="white" stroke="#bfbfbf" points="1901,-2.05 1901,-22.05 2022.02,-22.05 2022.02,-2.05 1901,-2.05"/>
<text text-anchor="middle" x="1961.51" y="-9.05" font-family="Helvetica,sans-Serif" font-size="10.00">fisch/vx/run_time_info.h</text>
</a>
</g>
</g>
<!-- Node24&#45;&gt;Node25 -->
<g id="edge26" class="edge">
<title>Node24&#45;&gt;Node25</title>
<path fill="none" stroke="midnightblue" d="M1903.54,-58.97C1915.3,-49.66 1930.34,-37.75 1942.15,-28.39"/>
<polygon fill="midnightblue" stroke="midnightblue" points="1944.42,-31.05 1950.09,-22.1 1940.08,-25.56 1944.42,-31.05"/>
</g>
</g>
</svg>
