<?xml version="1.0" encoding="UTF-8" standalone="no"?>
<!DOCTYPE svg PUBLIC "-//W3C//DTD SVG 1.1//EN"
 "http://www.w3.org/Graphics/SVG/1.1/DTD/svg11.dtd">
<!-- Generated by graphviz version 2.46.0 (0)
 -->
<!-- Title: /jenkins/jenlib_workspaces_f9/bld_nightly&#45;haldls.YmxkX25pZ2h0bHktaGFsZGxzIzEzNzk.x/haldls/include/stadls/vx/playback_program_builder.h Pages: 1 -->
<svg width="1739pt" height="331pt"
 viewBox="0.00 0.00 1738.79 330.55" xmlns="http://www.w3.org/2000/svg" xmlns:xlink="http://www.w3.org/1999/xlink">
<g id="graph0" class="graph" transform="scale(1 1) rotate(0) translate(4 326.55)">
<title>/jenkins/jenlib_workspaces_f9/bld_nightly&#45;haldls.YmxkX25pZ2h0bHktaGFsZGxzIzEzNzk.x/haldls/include/stadls/vx/playback_program_builder.h</title>
<polygon fill="white" stroke="transparent" points="-4,4 -4,-326.55 1734.79,-326.55 1734.79,4 -4,4"/>
<!-- Node1 -->
<g id="node1" class="node">
<title>Node1</title>
<g id="a_node1"><a xlink:title=" ">
<polygon fill="#bfbfbf" stroke="black" points="687.66,-254.05 687.66,-322.05 868.68,-322.05 868.68,-254.05 687.66,-254.05"/>
<text text-anchor="start" x="695.66" y="-309.05" font-family="Helvetica,sans-Serif" font-size="10.00">/jenkins/jenlib_workspaces</text>
<text text-anchor="start" x="695.66" y="-297.05" font-family="Helvetica,sans-Serif" font-size="10.00">_f9/bld_nightly&#45;haldls.YmxkX25p</text>
<text text-anchor="start" x="695.66" y="-285.05" font-family="Helvetica,sans-Serif" font-size="10.00">Z2h0bHktaGFsZGxzIzEzNzk.x/haldls</text>
<text text-anchor="start" x="695.66" y="-273.05" font-family="Helvetica,sans-Serif" font-size="10.00">/include/stadls/vx/playback_program</text>
<text text-anchor="middle" x="778.17" y="-261.05" font-family="Helvetica,sans-Serif" font-size="10.00">_builder.h</text>
</a>
</g>
</g>
<!-- Node2 -->
<g id="node2" class="node">
<title>Node2</title>
<g id="a_node2"><a xlink:title=" ">
<polygon fill="white" stroke="#bfbfbf" points="0,-197.05 0,-217.05 44.34,-217.05 44.34,-197.05 0,-197.05"/>
<text text-anchor="middle" x="22.17" y="-204.05" font-family="Helvetica,sans-Serif" font-size="10.00">iosfwd</text>
</a>
</g>
</g>
<!-- Node1&#45;&gt;Node2 -->
<g id="edge1" class="edge">
<title>Node1&#45;&gt;Node2</title>
<path fill="none" stroke="midnightblue" d="M687.45,-283.01C550.3,-275.84 282.38,-257.68 58.17,-217.55 56.91,-217.33 55.64,-217.08 54.36,-216.82"/>
<polygon fill="midnightblue" stroke="midnightblue" points="55.04,-213.38 44.51,-214.55 53.47,-220.21 55.04,-213.38"/>
</g>
<!-- Node3 -->
<g id="node3" class="node">
<title>Node3</title>
<g id="a_node3"><a xlink:title=" ">
<polygon fill="white" stroke="#bfbfbf" points="100.12,-65.05 100.12,-85.05 152.22,-85.05 152.22,-65.05 100.12,-65.05"/>
<text text-anchor="middle" x="126.17" y="-72.05" font-family="Helvetica,sans-Serif" font-size="10.00">memory</text>
</a>
</g>
</g>
<!-- Node1&#45;&gt;Node3 -->
<g id="edge2" class="edge">
<title>Node1&#45;&gt;Node3</title>
<path fill="none" stroke="midnightblue" d="M687.54,-260.37C644.13,-247.53 591.42,-231.85 544.17,-217.55 372.65,-165.66 327.84,-157.37 161.17,-91.55 159.31,-90.82 157.41,-90.05 155.5,-89.25"/>
<polygon fill="midnightblue" stroke="midnightblue" points="156.61,-85.92 146.04,-85.19 153.85,-92.35 156.61,-85.92"/>
</g>
<!-- Node4 -->
<g id="node4" class="node">
<title>Node4</title>
<g id="a_node4"><a xlink:title=" ">
<polygon fill="white" stroke="#bfbfbf" points="1445.93,-197.05 1445.93,-217.05 1526.4,-217.05 1526.4,-197.05 1445.93,-197.05"/>
<text text-anchor="middle" x="1486.17" y="-204.05" font-family="Helvetica,sans-Serif" font-size="10.00">unordered_set</text>
</a>
</g>
</g>
<!-- Node1&#45;&gt;Node4 -->
<g id="edge3" class="edge">
<title>Node1&#45;&gt;Node4</title>
<path fill="none" stroke="midnightblue" d="M868.86,-279.39C995.35,-268.25 1231.76,-245.8 1432.17,-217.55 1433.28,-217.4 1434.39,-217.23 1435.52,-217.07"/>
<polygon fill="midnightblue" stroke="midnightblue" points="1436.48,-220.46 1445.82,-215.46 1435.4,-213.55 1436.48,-220.46"/>
</g>
<!-- Node5 -->
<g id="node5" class="node">
<title>Node5</title>
<g id="a_node5"><a xlink:title=" ">
<polygon fill="white" stroke="#bfbfbf" points="806.66,-128.05 806.66,-160.05 907.68,-160.05 907.68,-128.05 806.66,-128.05"/>
<text text-anchor="start" x="814.66" y="-147.05" font-family="Helvetica,sans-Serif" font-size="10.00">halco/hicann&#45;dls/vx</text>
<text text-anchor="middle" x="857.17" y="-135.05" font-family="Helvetica,sans-Serif" font-size="10.00">/barrier.h</text>
</a>
</g>
</g>
<!-- Node1&#45;&gt;Node5 -->
<g id="edge4" class="edge">
<title>Node1&#45;&gt;Node5</title>
<path fill="none" stroke="midnightblue" d="M796.69,-253.76C811.12,-227.82 830.81,-192.43 843.75,-169.17"/>
<polygon fill="midnightblue" stroke="midnightblue" points="846.88,-170.74 848.68,-160.3 840.76,-167.34 846.88,-170.74"/>
</g>
<!-- Node6 -->
<g id="node6" class="node">
<title>Node6</title>
<g id="a_node6"><a xlink:title=" ">
<polygon fill="white" stroke="#bfbfbf" points="1295.72,-134.05 1295.72,-154.05 1390.61,-154.05 1390.61,-134.05 1295.72,-134.05"/>
<text text-anchor="middle" x="1343.17" y="-141.05" font-family="Helvetica,sans-Serif" font-size="10.00">haldls/vx/barrier.h</text>
</a>
</g>
</g>
<!-- Node1&#45;&gt;Node6 -->
<g id="edge5" class="edge">
<title>Node1&#45;&gt;Node6</title>
<path fill="none" stroke="midnightblue" d="M868.92,-268.45C931.59,-255.22 1016.73,-236.51 1091.17,-217.55 1167.11,-198.22 1254.86,-172.1 1304.21,-157.07"/>
<polygon fill="midnightblue" stroke="midnightblue" points="1305.3,-160.4 1313.84,-154.13 1303.26,-153.7 1305.3,-160.4"/>
</g>
<!-- Node7 -->
<g id="node7" class="node">
<title>Node7</title>
<g id="a_node7"><a xlink:title=" ">
<polygon fill="white" stroke="#bfbfbf" points="169.99,-65.05 169.99,-85.05 274.34,-85.05 274.34,-65.05 169.99,-65.05"/>
<text text-anchor="middle" x="222.17" y="-72.05" font-family="Helvetica,sans-Serif" font-size="10.00">haldls/vx/common.h</text>
</a>
</g>
</g>
<!-- Node1&#45;&gt;Node7 -->
<g id="edge6" class="edge">
<title>Node1&#45;&gt;Node7</title>
<path fill="none" stroke="midnightblue" d="M690.99,-253.97C565.61,-206.39 340.15,-120.83 255.5,-88.7"/>
<polygon fill="midnightblue" stroke="midnightblue" points="256.71,-85.42 246.12,-85.14 254.23,-91.96 256.71,-85.42"/>
</g>
<!-- Node8 -->
<g id="node8" class="node">
<title>Node8</title>
<g id="a_node8"><a xlink:title=" ">
<polygon fill="white" stroke="#bfbfbf" points="1528.66,-65.05 1528.66,-85.05 1609.67,-85.05 1609.67,-65.05 1528.66,-65.05"/>
<text text-anchor="middle" x="1569.17" y="-72.05" font-family="Helvetica,sans-Serif" font-size="10.00">hate/visibility.h</text>
</a>
</g>
</g>
<!-- Node1&#45;&gt;Node8 -->
<g id="edge7" class="edge">
<title>Node1&#45;&gt;Node8</title>
<path fill="none" stroke="midnightblue" d="M771.06,-253.82C765.4,-217.18 763.23,-159.24 797.17,-127.55 855.96,-72.67 1441.01,-105.8 1520.17,-91.55 1525.02,-90.68 1530.05,-89.46 1534.97,-88.09"/>
<polygon fill="midnightblue" stroke="midnightblue" points="1536.24,-91.36 1544.8,-85.11 1534.22,-84.66 1536.24,-91.36"/>
</g>
<!-- Node9 -->
<g id="node9" class="node">
<title>Node9</title>
<g id="a_node9"><a xlink:title=" ">
<polygon fill="white" stroke="#bfbfbf" points="1627.55,-65.05 1627.55,-85.05 1730.79,-85.05 1730.79,-65.05 1627.55,-65.05"/>
<text text-anchor="middle" x="1679.17" y="-72.05" font-family="Helvetica,sans-Serif" font-size="10.00">hxcomm/vx/target.h</text>
</a>
</g>
</g>
<!-- Node1&#45;&gt;Node9 -->
<g id="edge8" class="edge">
<title>Node1&#45;&gt;Node9</title>
<path fill="none" stroke="midnightblue" d="M868.87,-271.81C990.47,-250.65 1212.63,-209.39 1399.17,-160.55 1486.85,-137.59 1588.38,-105.57 1641.82,-88.29"/>
<polygon fill="midnightblue" stroke="midnightblue" points="1643.11,-91.55 1651.54,-85.13 1640.95,-84.89 1643.11,-91.55"/>
</g>
<!-- Node10 -->
<g id="node10" class="node">
<title>Node10</title>
<g id="a_node10"><a xlink:href="dumper_8h.html" target="_top" xlink:title=" ">
<polygon fill="white" stroke="black" points="982.21,-197.05 982.21,-217.05 1082.12,-217.05 1082.12,-197.05 982.21,-197.05"/>
<text text-anchor="middle" x="1032.17" y="-204.05" font-family="Helvetica,sans-Serif" font-size="10.00">stadls/vx/dumper.h</text>
</a>
</g>
</g>
<!-- Node1&#45;&gt;Node10 -->
<g id="edge9" class="edge">
<title>Node1&#45;&gt;Node10</title>
<path fill="none" stroke="midnightblue" d="M868.79,-258.87C911.53,-245.57 960.27,-230.42 993.31,-220.14"/>
<polygon fill="midnightblue" stroke="midnightblue" points="994.52,-223.43 1003.03,-217.11 992.44,-216.74 994.52,-223.43"/>
</g>
<!-- Node14 -->
<g id="node14" class="node">
<title>Node14</title>
<g id="a_node14"><a xlink:href="playback__program_8h.html" target="_top" xlink:title=" ">
<polygon fill="white" stroke="black" points="652.6,-128.05 652.6,-160.05 749.73,-160.05 749.73,-128.05 652.6,-128.05"/>
<text text-anchor="start" x="660.6" y="-147.05" font-family="Helvetica,sans-Serif" font-size="10.00">stadls/vx/playback</text>
<text text-anchor="middle" x="701.17" y="-135.05" font-family="Helvetica,sans-Serif" font-size="10.00">_program.h</text>
</a>
</g>
</g>
<!-- Node1&#45;&gt;Node14 -->
<g id="edge38" class="edge">
<title>Node1&#45;&gt;Node14</title>
<path fill="none" stroke="midnightblue" d="M760.11,-253.76C746.05,-227.82 726.86,-192.43 714.24,-169.17"/>
<polygon fill="midnightblue" stroke="midnightblue" points="717.28,-167.43 709.44,-160.3 711.13,-170.76 717.28,-167.43"/>
</g>
<!-- Node26 -->
<g id="node26" class="node">
<title>Node26</title>
<g id="a_node26"><a xlink:href="genpybind_8h.html" target="_top" xlink:title=" ">
<polygon fill="white" stroke="black" points="309.1,-2.05 309.1,-22.05 421.24,-22.05 421.24,-2.05 309.1,-2.05"/>
<text text-anchor="middle" x="365.17" y="-9.05" font-family="Helvetica,sans-Serif" font-size="10.00">stadls/vx/genpybind.h</text>
</a>
</g>
</g>
<!-- Node1&#45;&gt;Node26 -->
<g id="edge37" class="edge">
<title>Node1&#45;&gt;Node26</title>
<path fill="none" stroke="midnightblue" d="M687.54,-275.69C516.59,-252.09 157.7,-191.49 91.17,-91.55 83.04,-79.34 81.68,-69.74 91.17,-58.55 117.25,-27.79 226.23,-17.8 298.64,-14.57"/>
<polygon fill="midnightblue" stroke="midnightblue" points="299.2,-18.05 309.04,-14.15 298.91,-11.06 299.2,-18.05"/>
</g>
<!-- Node10&#45;&gt;Node5 -->
<g id="edge10" class="edge">
<title>Node10&#45;&gt;Node5</title>
<path fill="none" stroke="midnightblue" d="M1006.35,-197.05C981.1,-188.25 941.92,-174.59 910.04,-163.48"/>
<polygon fill="midnightblue" stroke="midnightblue" points="911,-160.11 900.41,-160.12 908.7,-166.72 911,-160.11"/>
</g>
<!-- Node10&#45;&gt;Node6 -->
<g id="edge12" class="edge">
<title>Node10&#45;&gt;Node6</title>
<path fill="none" stroke="midnightblue" d="M1082.17,-197.99C1132.78,-189.59 1213.2,-175.57 1282.17,-160.55 1287.84,-159.32 1293.79,-157.92 1299.66,-156.5"/>
<polygon fill="midnightblue" stroke="midnightblue" points="1300.53,-159.89 1309.39,-154.08 1298.84,-153.09 1300.53,-159.89"/>
</g>
<!-- Node10&#45;&gt;Node8 -->
<g id="edge15" class="edge">
<title>Node10&#45;&gt;Node8</title>
<path fill="none" stroke="midnightblue" d="M1082.33,-202.74C1127.89,-198.1 1195.9,-187 1249.17,-160.55 1269.2,-150.6 1266.87,-136.96 1287.17,-127.55 1382.23,-83.47 1418.14,-115.42 1520.17,-91.55 1524.54,-90.53 1529.08,-89.31 1533.56,-88.01"/>
<polygon fill="midnightblue" stroke="midnightblue" points="1534.63,-91.35 1543.18,-85.09 1532.59,-84.65 1534.63,-91.35"/>
</g>
<!-- Node11 -->
<g id="node11" class="node">
<title>Node11</title>
<g id="a_node11"><a xlink:title=" ">
<polygon fill="white" stroke="#bfbfbf" points="925.66,-128.05 925.66,-160.05 1026.68,-160.05 1026.68,-128.05 925.66,-128.05"/>
<text text-anchor="start" x="933.66" y="-147.05" font-family="Helvetica,sans-Serif" font-size="10.00">halco/hicann&#45;dls/vx</text>
<text text-anchor="middle" x="976.17" y="-135.05" font-family="Helvetica,sans-Serif" font-size="10.00">/omnibus.h</text>
</a>
</g>
</g>
<!-- Node10&#45;&gt;Node11 -->
<g id="edge11" class="edge">
<title>Node10&#45;&gt;Node11</title>
<path fill="none" stroke="midnightblue" d="M1023.9,-197.05C1016.83,-189.34 1006.32,-177.9 996.97,-167.71"/>
<polygon fill="midnightblue" stroke="midnightblue" points="999.45,-165.24 990.11,-160.24 994.3,-169.98 999.45,-165.24"/>
</g>
<!-- Node12 -->
<g id="node12" class="node">
<title>Node12</title>
<g id="a_node12"><a xlink:title=" ">
<polygon fill="white" stroke="#bfbfbf" points="1044.49,-134.05 1044.49,-154.05 1133.84,-154.05 1133.84,-134.05 1044.49,-134.05"/>
<text text-anchor="middle" x="1089.17" y="-141.05" font-family="Helvetica,sans-Serif" font-size="10.00">haldls/vx/block.h</text>
</a>
</g>
</g>
<!-- Node10&#45;&gt;Node12 -->
<g id="edge13" class="edge">
<title>Node10&#45;&gt;Node12</title>
<path fill="none" stroke="midnightblue" d="M1040.58,-197.05C1049.25,-187.77 1062.97,-173.09 1073.62,-161.69"/>
<polygon fill="midnightblue" stroke="midnightblue" points="1076.45,-163.79 1080.72,-154.09 1071.34,-159.01 1076.45,-163.79"/>
</g>
<!-- Node13 -->
<g id="node13" class="node">
<title>Node13</title>
<g id="a_node13"><a xlink:title=" ">
<polygon fill="white" stroke="#bfbfbf" points="1152.05,-134.05 1152.05,-154.05 1240.28,-154.05 1240.28,-134.05 1152.05,-134.05"/>
<text text-anchor="middle" x="1196.17" y="-141.05" font-family="Helvetica,sans-Serif" font-size="10.00">haldls/vx/timer.h</text>
</a>
</g>
</g>
<!-- Node10&#45;&gt;Node13 -->
<g id="edge14" class="edge">
<title>Node10&#45;&gt;Node13</title>
<path fill="none" stroke="midnightblue" d="M1056.37,-197.05C1084.35,-186.64 1130.59,-169.44 1162.17,-157.7"/>
<polygon fill="midnightblue" stroke="midnightblue" points="1163.72,-160.86 1171.87,-154.09 1161.28,-154.3 1163.72,-160.86"/>
</g>
<!-- Node10&#45;&gt;Node14 -->
<g id="edge16" class="edge">
<title>Node10&#45;&gt;Node14</title>
<path fill="none" stroke="midnightblue" d="M983.33,-197.05C923.84,-186.09 823.44,-167.59 759.82,-155.86"/>
<polygon fill="midnightblue" stroke="midnightblue" points="760.41,-152.41 749.94,-154.04 759.14,-159.29 760.41,-152.41"/>
</g>
<!-- Node14&#45;&gt;Node3 -->
<g id="edge18" class="edge">
<title>Node14&#45;&gt;Node3</title>
<path fill="none" stroke="midnightblue" d="M652.59,-143.59C556.89,-143.54 337.91,-137.81 161.17,-91.55 158.49,-90.85 155.75,-89.97 153.05,-88.98"/>
<polygon fill="midnightblue" stroke="midnightblue" points="154.15,-85.65 143.57,-85.08 151.49,-92.12 154.15,-85.65"/>
</g>
<!-- Node14&#45;&gt;Node7 -->
<g id="edge27" class="edge">
<title>Node14&#45;&gt;Node7</title>
<path fill="none" stroke="midnightblue" d="M652.4,-138.98C574.24,-132.01 416.3,-116.13 284.17,-91.55 277.94,-90.39 271.41,-88.98 265.01,-87.49"/>
<polygon fill="midnightblue" stroke="midnightblue" points="265.69,-84.05 255.15,-85.09 264.04,-90.85 265.69,-84.05"/>
</g>
<!-- Node14&#45;&gt;Node8 -->
<g id="edge30" class="edge">
<title>Node14&#45;&gt;Node8</title>
<path fill="none" stroke="midnightblue" d="M749.82,-130.09C754.64,-129.11 759.49,-128.23 764.17,-127.55 1097.05,-79.14 1189.04,-150.77 1520.17,-91.55 1525.02,-90.68 1530.05,-89.47 1534.97,-88.1"/>
<polygon fill="midnightblue" stroke="midnightblue" points="1536.25,-91.37 1544.8,-85.13 1534.22,-84.67 1536.25,-91.37"/>
</g>
<!-- Node14&#45;&gt;Node9 -->
<g id="edge31" class="edge">
<title>Node14&#45;&gt;Node9</title>
<path fill="none" stroke="midnightblue" d="M749.86,-134.06C764.97,-131.58 781.72,-129.13 797.17,-127.55 1160.95,-90.35 1257.5,-145.58 1619.17,-91.55 1625.66,-90.58 1632.47,-89.19 1639.07,-87.64"/>
<polygon fill="midnightblue" stroke="midnightblue" points="1640.35,-90.93 1649.2,-85.1 1638.65,-84.14 1640.35,-90.93"/>
</g>
<!-- Node15 -->
<g id="node15" class="node">
<title>Node15</title>
<g id="a_node15"><a xlink:title=" ">
<polygon fill="white" stroke="#bfbfbf" points="292.72,-65.05 292.72,-85.05 337.62,-85.05 337.62,-65.05 292.72,-65.05"/>
<text text-anchor="middle" x="315.17" y="-72.05" font-family="Helvetica,sans-Serif" font-size="10.00">cstdint</text>
</a>
</g>
</g>
<!-- Node14&#45;&gt;Node15 -->
<g id="edge17" class="edge">
<title>Node14&#45;&gt;Node15</title>
<path fill="none" stroke="midnightblue" d="M652.5,-139.91C584.11,-134.59 456.2,-121.34 351.17,-91.55 348.56,-90.81 345.89,-89.93 343.24,-88.96"/>
<polygon fill="midnightblue" stroke="midnightblue" points="344.47,-85.68 333.89,-85.21 341.86,-92.18 344.47,-85.68"/>
</g>
<!-- Node16 -->
<g id="node16" class="node">
<title>Node16</title>
<g id="a_node16"><a xlink:title=" ">
<polygon fill="white" stroke="#bfbfbf" points="393.66,-65.05 393.66,-85.05 444.67,-85.05 444.67,-65.05 393.66,-65.05"/>
<text text-anchor="middle" x="419.17" y="-72.05" font-family="Helvetica,sans-Serif" font-size="10.00">optional</text>
</a>
</g>
</g>
<!-- Node14&#45;&gt;Node16 -->
<g id="edge19" class="edge">
<title>Node14&#45;&gt;Node16</title>
<path fill="none" stroke="midnightblue" d="M652.57,-136.04C602.19,-128.04 521.51,-113.22 454.17,-91.55 451.87,-90.81 449.52,-89.97 447.19,-89.07"/>
<polygon fill="midnightblue" stroke="midnightblue" points="448.35,-85.77 437.77,-85.16 445.67,-92.23 448.35,-85.77"/>
</g>
<!-- Node17 -->
<g id="node17" class="node">
<title>Node17</title>
<g id="a_node17"><a xlink:title=" ">
<polygon fill="white" stroke="#bfbfbf" points="462.95,-65.05 462.95,-85.05 503.39,-85.05 503.39,-65.05 462.95,-65.05"/>
<text text-anchor="middle" x="483.17" y="-72.05" font-family="Helvetica,sans-Serif" font-size="10.00">string</text>
</a>
</g>
</g>
<!-- Node14&#45;&gt;Node17 -->
<g id="edge20" class="edge">
<title>Node14&#45;&gt;Node17</title>
<path fill="none" stroke="midnightblue" d="M652.36,-132.65C613.87,-123.74 559.19,-109.52 513.17,-91.55 511.55,-90.92 509.91,-90.23 508.27,-89.5"/>
<polygon fill="midnightblue" stroke="midnightblue" points="509.6,-86.26 499.07,-85.05 506.55,-92.56 509.6,-86.26"/>
</g>
<!-- Node18 -->
<g id="node18" class="node">
<title>Node18</title>
<g id="a_node18"><a xlink:title=" ">
<polygon fill="white" stroke="#bfbfbf" points="636.55,-65.05 636.55,-85.05 679.78,-85.05 679.78,-65.05 636.55,-65.05"/>
<text text-anchor="middle" x="658.17" y="-72.05" font-family="Helvetica,sans-Serif" font-size="10.00">vector</text>
</a>
</g>
</g>
<!-- Node14&#45;&gt;Node18 -->
<g id="edge21" class="edge">
<title>Node14&#45;&gt;Node18</title>
<path fill="none" stroke="midnightblue" d="M691.41,-127.85C684.89,-117.7 676.3,-104.31 669.49,-93.69"/>
<polygon fill="midnightblue" stroke="midnightblue" points="672.4,-91.74 664.05,-85.22 666.5,-95.52 672.4,-91.74"/>
</g>
<!-- Node19 -->
<g id="node19" class="node">
<title>Node19</title>
<g id="a_node19"><a xlink:title=" ">
<polygon fill="white" stroke="#bfbfbf" points="697.82,-65.05 697.82,-85.05 790.51,-85.05 790.51,-65.05 697.82,-65.05"/>
<text text-anchor="middle" x="744.17" y="-72.05" font-family="Helvetica,sans-Serif" font-size="10.00">boost/variant.hpp</text>
</a>
</g>
</g>
<!-- Node14&#45;&gt;Node19 -->
<g id="edge22" class="edge">
<title>Node14&#45;&gt;Node19</title>
<path fill="none" stroke="midnightblue" d="M710.92,-127.85C717.44,-117.7 726.03,-104.31 732.85,-93.69"/>
<polygon fill="midnightblue" stroke="midnightblue" points="735.83,-95.52 738.29,-85.22 729.94,-91.74 735.83,-95.52"/>
</g>
<!-- Node20 -->
<g id="node20" class="node">
<title>Node20</title>
<g id="a_node20"><a xlink:title=" ">
<polygon fill="white" stroke="#bfbfbf" points="808.55,-59.05 808.55,-91.05 901.79,-91.05 901.79,-59.05 808.55,-59.05"/>
<text text-anchor="start" x="816.55" y="-78.05" font-family="Helvetica,sans-Serif" font-size="10.00">fisch/vx/container</text>
<text text-anchor="middle" x="855.17" y="-66.05" font-family="Helvetica,sans-Serif" font-size="10.00">_cast.h</text>
</a>
</g>
</g>
<!-- Node14&#45;&gt;Node20 -->
<g id="edge23" class="edge">
<title>Node14&#45;&gt;Node20</title>
<path fill="none" stroke="midnightblue" d="M735.73,-128.02C758.04,-118.31 787.27,-105.59 811.22,-95.17"/>
<polygon fill="midnightblue" stroke="midnightblue" points="812.68,-98.35 820.46,-91.15 809.89,-91.93 812.68,-98.35"/>
</g>
<!-- Node21 -->
<g id="node21" class="node">
<title>Node21</title>
<g id="a_node21"><a xlink:title=" ">
<polygon fill="white" stroke="#bfbfbf" points="919.55,-59.05 919.55,-91.05 1012.79,-91.05 1012.79,-59.05 919.55,-59.05"/>
<text text-anchor="start" x="927.55" y="-78.05" font-family="Helvetica,sans-Serif" font-size="10.00">fisch/vx/container</text>
<text text-anchor="middle" x="966.17" y="-66.05" font-family="Helvetica,sans-Serif" font-size="10.00">_ticket.h</text>
</a>
</g>
</g>
<!-- Node14&#45;&gt;Node21 -->
<g id="edge24" class="edge">
<title>Node14&#45;&gt;Node21</title>
<path fill="none" stroke="midnightblue" d="M750.01,-131.03C754.79,-129.86 759.57,-128.68 764.17,-127.55 826.43,-112.27 844.45,-108.97 909.45,-91.97"/>
<polygon fill="midnightblue" stroke="midnightblue" points="910.61,-95.28 919.39,-89.35 908.83,-88.51 910.61,-95.28"/>
</g>
<!-- Node22 -->
<g id="node22" class="node">
<title>Node22</title>
<g id="a_node22"><a xlink:title=" ">
<polygon fill="white" stroke="#bfbfbf" points="1030.82,-65.05 1030.82,-85.05 1173.51,-85.05 1173.51,-65.05 1030.82,-65.05"/>
<text text-anchor="middle" x="1102.17" y="-72.05" font-family="Helvetica,sans-Serif" font-size="10.00">fisch/vx/playback_program.h</text>
</a>
</g>
</g>
<!-- Node14&#45;&gt;Node22 -->
<g id="edge25" class="edge">
<title>Node14&#45;&gt;Node22</title>
<path fill="none" stroke="midnightblue" d="M749.9,-130.54C754.7,-129.46 759.52,-128.45 764.17,-127.55 877.86,-105.69 907.96,-110.57 1022.17,-91.55 1030.49,-90.17 1039.28,-88.58 1047.87,-86.97"/>
<polygon fill="midnightblue" stroke="midnightblue" points="1048.64,-90.39 1057.81,-85.08 1047.33,-83.51 1048.64,-90.39"/>
</g>
<!-- Node23 -->
<g id="node23" class="node">
<title>Node23</title>
<g id="a_node23"><a xlink:title=" ">
<polygon fill="white" stroke="#bfbfbf" points="1191.49,-65.05 1191.49,-85.05 1300.84,-85.05 1300.84,-65.05 1191.49,-65.05"/>
<text text-anchor="middle" x="1246.17" y="-72.05" font-family="Helvetica,sans-Serif" font-size="10.00">haldls/cerealization.h</text>
</a>
</g>
</g>
<!-- Node14&#45;&gt;Node23 -->
<g id="edge26" class="edge">
<title>Node14&#45;&gt;Node23</title>
<path fill="none" stroke="midnightblue" d="M749.85,-130.28C754.67,-129.26 759.5,-128.32 764.17,-127.55 948.14,-97.19 998.14,-121.58 1182.17,-91.55 1188.99,-90.44 1196.16,-88.99 1203.13,-87.42"/>
<polygon fill="midnightblue" stroke="midnightblue" points="1204.21,-90.76 1213.15,-85.06 1202.61,-83.95 1204.21,-90.76"/>
</g>
<!-- Node24 -->
<g id="node24" class="node">
<title>Node24</title>
<g id="a_node24"><a xlink:title=" ">
<polygon fill="white" stroke="#bfbfbf" points="1318.93,-65.05 1318.93,-85.05 1409.4,-85.05 1409.4,-65.05 1318.93,-65.05"/>
<text text-anchor="middle" x="1364.17" y="-72.05" font-family="Helvetica,sans-Serif" font-size="10.00">haldls/vx/event.h</text>
</a>
</g>
</g>
<!-- Node14&#45;&gt;Node24 -->
<g id="edge28" class="edge">
<title>Node14&#45;&gt;Node24</title>
<path fill="none" stroke="midnightblue" d="M749.84,-130.18C754.66,-129.18 759.49,-128.28 764.17,-127.55 1004.5,-90.36 1070.59,-133.34 1310.17,-91.55 1315.69,-90.59 1321.46,-89.28 1327.08,-87.82"/>
<polygon fill="midnightblue" stroke="midnightblue" points="1328.26,-91.13 1336.96,-85.09 1326.39,-84.38 1328.26,-91.13"/>
</g>
<!-- Node25 -->
<g id="node25" class="node">
<title>Node25</title>
<g id="a_node25"><a xlink:title=" ">
<polygon fill="white" stroke="#bfbfbf" points="1427.54,-65.05 1427.54,-85.05 1510.79,-85.05 1510.79,-65.05 1427.54,-65.05"/>
<text text-anchor="middle" x="1469.17" y="-72.05" font-family="Helvetica,sans-Serif" font-size="10.00">hate/type_list.h</text>
</a>
</g>
</g>
<!-- Node14&#45;&gt;Node25 -->
<g id="edge29" class="edge">
<title>Node14&#45;&gt;Node25</title>
<path fill="none" stroke="midnightblue" d="M749.83,-130.13C754.65,-129.14 759.49,-128.25 764.17,-127.55 1052.09,-84.59 1131.51,-142.24 1418.17,-91.55 1423.33,-90.64 1428.71,-89.37 1433.95,-87.95"/>
<polygon fill="midnightblue" stroke="midnightblue" points="1435.16,-91.24 1443.78,-85.08 1433.2,-84.52 1435.16,-91.24"/>
</g>
<!-- Node14&#45;&gt;Node26 -->
<g id="edge32" class="edge">
<title>Node14&#45;&gt;Node26</title>
<path fill="none" stroke="midnightblue" d="M652.51,-141.55C573.52,-138.1 422.36,-126.93 384.17,-91.55 367.97,-76.55 364.51,-50.31 364.25,-32.33"/>
<polygon fill="midnightblue" stroke="midnightblue" points="367.75,-32.2 364.42,-22.14 360.75,-32.08 367.75,-32.2"/>
</g>
<!-- Node27 -->
<g id="node27" class="node">
<title>Node27</title>
<g id="a_node27"><a xlink:href="run__time__info_8h.html" target="_top" xlink:title=" ">
<polygon fill="white" stroke="black" points="521.88,-59.05 521.88,-91.05 618.45,-91.05 618.45,-59.05 521.88,-59.05"/>
<text text-anchor="start" x="529.88" y="-78.05" font-family="Helvetica,sans-Serif" font-size="10.00">stadls/vx/run_time</text>
<text text-anchor="middle" x="570.17" y="-66.05" font-family="Helvetica,sans-Serif" font-size="10.00">_info.h</text>
</a>
</g>
</g>
<!-- Node14&#45;&gt;Node27 -->
<g id="edge34" class="edge">
<title>Node14&#45;&gt;Node27</title>
<path fill="none" stroke="midnightblue" d="M671.77,-128.02C653.19,-118.51 628.98,-106.13 608.85,-95.84"/>
<polygon fill="midnightblue" stroke="midnightblue" points="610.42,-92.71 599.92,-91.27 607.23,-98.94 610.42,-92.71"/>
</g>
<!-- Node26&#45;&gt;Node26 -->
<g id="edge33" class="edge">
<title>Node26&#45;&gt;Node26</title>
<path fill="none" stroke="midnightblue" d="M393.67,-22.11C416.16,-26 439.24,-22.65 439.24,-12.05 439.24,-3.03 422.51,0.74 403.65,-0.74"/>
<polygon fill="midnightblue" stroke="midnightblue" points="403.16,2.72 393.67,-1.99 404.03,-4.22 403.16,2.72"/>
</g>
<!-- Node27&#45;&gt;Node26 -->
<g id="edge36" class="edge">
<title>Node27&#45;&gt;Node26</title>
<path fill="none" stroke="midnightblue" d="M521.84,-59.67C486.44,-49.14 438.94,-35.01 405.56,-25.07"/>
<polygon fill="midnightblue" stroke="midnightblue" points="406.26,-21.63 395.68,-22.13 404.26,-28.34 406.26,-21.63"/>
</g>
<!-- Node28 -->
<g id="node28" class="node">
<title>Node28</title>
<g id="a_node28"><a xlink:title=" ">
<polygon fill="white" stroke="#bfbfbf" points="509.66,-2.05 509.66,-22.05 630.68,-22.05 630.68,-2.05 509.66,-2.05"/>
<text text-anchor="middle" x="570.17" y="-9.05" font-family="Helvetica,sans-Serif" font-size="10.00">fisch/vx/run_time_info.h</text>
</a>
</g>
</g>
<!-- Node27&#45;&gt;Node28 -->
<g id="edge35" class="edge">
<title>Node27&#45;&gt;Node28</title>
<path fill="none" stroke="midnightblue" d="M570.17,-58.97C570.17,-50.93 570.17,-40.94 570.17,-32.33"/>
<polygon fill="midnightblue" stroke="midnightblue" points="573.67,-32.1 570.17,-22.1 566.67,-32.1 573.67,-32.1"/>
</g>
</g>
</svg>
