<?xml version="1.0" encoding="UTF-8" standalone="no"?>
<!DOCTYPE svg PUBLIC "-//W3C//DTD SVG 1.1//EN"
 "http://www.w3.org/Graphics/SVG/1.1/DTD/svg11.dtd">
<!-- Generated by graphviz version 2.46.0 (0)
 -->
<!-- Title: /jenkins/jenlib_workspaces_f9/bld_nightly&#45;haldls.YmxkX25pZ2h0bHktaGFsZGxzIzEzNzk.x/haldls/include/stadls/vx/playback_program.h Pages: 1 -->
<svg width="1083pt" height="857pt"
 viewBox="0.00 0.00 1082.51 857.00" xmlns="http://www.w3.org/2000/svg" xmlns:xlink="http://www.w3.org/1999/xlink">
<g id="graph0" class="graph" transform="scale(1 1) rotate(0) translate(4 853)">
<title>/jenkins/jenlib_workspaces_f9/bld_nightly&#45;haldls.YmxkX25pZ2h0bHktaGFsZGxzIzEzNzk.x/haldls/include/stadls/vx/playback_program.h</title>
<polygon fill="white" stroke="transparent" points="-4,4 -4,-853 1078.51,-853 1078.51,4 -4,4"/>
<!-- Node1 -->
<g id="node1" class="node">
<title>Node1</title>
<g id="a_node1"><a xlink:title=" ">
<polygon fill="#bfbfbf" stroke="black" points="417.26,-792.5 417.26,-848.5 602.74,-848.5 602.74,-792.5 417.26,-792.5"/>
<text text-anchor="start" x="425.26" y="-835.5" font-family="Helvetica,sans-Serif" font-size="10.00">/jenkins/jenlib_workspaces</text>
<text text-anchor="start" x="425.26" y="-823.5" font-family="Helvetica,sans-Serif" font-size="10.00">_f9/bld_nightly&#45;haldls.YmxkX25p</text>
<text text-anchor="start" x="425.26" y="-811.5" font-family="Helvetica,sans-Serif" font-size="10.00">Z2h0bHktaGFsZGxzIzEzNzk.x/haldls</text>
<text text-anchor="middle" x="510" y="-799.5" font-family="Helvetica,sans-Serif" font-size="10.00">/include/stadls/vx/playback_program.h</text>
</a>
</g>
</g>
<!-- Node2 -->
<g id="node2" class="node">
<title>Node2</title>
<g id="a_node2"><a xlink:href="dumper_8h.html" target="_top" xlink:title=" ">
<polygon fill="white" stroke="black" points="360.49,-693.5 360.49,-749.5 541.51,-749.5 541.51,-693.5 360.49,-693.5"/>
<text text-anchor="start" x="368.49" y="-736.5" font-family="Helvetica,sans-Serif" font-size="10.00">/jenkins/jenlib_workspaces</text>
<text text-anchor="start" x="368.49" y="-724.5" font-family="Helvetica,sans-Serif" font-size="10.00">_f9/bld_nightly&#45;haldls.YmxkX25p</text>
<text text-anchor="start" x="368.49" y="-712.5" font-family="Helvetica,sans-Serif" font-size="10.00">Z2h0bHktaGFsZGxzIzEzNzk.x/haldls</text>
<text text-anchor="middle" x="451" y="-700.5" font-family="Helvetica,sans-Serif" font-size="10.00">/include/stadls/vx/dumper.h</text>
</a>
</g>
</g>
<!-- Node1&#45;&gt;Node2 -->
<g id="edge1" class="edge">
<title>Node1&#45;&gt;Node2</title>
<path fill="none" stroke="midnightblue" d="M488.24,-783.73C481.4,-772.48 473.97,-760.26 467.55,-749.71"/>
<polygon fill="midnightblue" stroke="midnightblue" points="485.38,-785.76 493.57,-792.48 491.36,-782.12 485.38,-785.76"/>
</g>
<!-- Node3 -->
<g id="node3" class="node">
<title>Node3</title>
<g id="a_node3"><a xlink:href="playback__program__builder_8h.html" target="_top" xlink:title=" ">
<polygon fill="white" stroke="black" points="241.49,-582.5 241.49,-650.5 422.51,-650.5 422.51,-582.5 241.49,-582.5"/>
<text text-anchor="start" x="249.49" y="-637.5" font-family="Helvetica,sans-Serif" font-size="10.00">/jenkins/jenlib_workspaces</text>
<text text-anchor="start" x="249.49" y="-625.5" font-family="Helvetica,sans-Serif" font-size="10.00">_f9/bld_nightly&#45;haldls.YmxkX25p</text>
<text text-anchor="start" x="249.49" y="-613.5" font-family="Helvetica,sans-Serif" font-size="10.00">Z2h0bHktaGFsZGxzIzEzNzk.x/haldls</text>
<text text-anchor="start" x="249.49" y="-601.5" font-family="Helvetica,sans-Serif" font-size="10.00">/include/stadls/vx/playback_program</text>
<text text-anchor="middle" x="332" y="-589.5" font-family="Helvetica,sans-Serif" font-size="10.00">_builder.h</text>
</a>
</g>
</g>
<!-- Node1&#45;&gt;Node3 -->
<g id="edge28" class="edge">
<title>Node1&#45;&gt;Node3</title>
<path fill="none" stroke="midnightblue" d="M407.62,-796.85C386.01,-787.54 365.42,-774.44 351,-756 327.68,-726.17 325.73,-681.27 327.76,-650.74"/>
<polygon fill="midnightblue" stroke="midnightblue" points="406.34,-800.11 416.92,-800.61 408.96,-793.62 406.34,-800.11"/>
</g>
<!-- Node4 -->
<g id="node4" class="node">
<title>Node4</title>
<g id="a_node4"><a xlink:href="stadls_8h.html" target="_top" xlink:title=" ">
<polygon fill="white" stroke="black" points="559.49,-489.5 559.49,-545.5 740.51,-545.5 740.51,-489.5 559.49,-489.5"/>
<text text-anchor="start" x="567.49" y="-532.5" font-family="Helvetica,sans-Serif" font-size="10.00">/jenkins/jenlib_workspaces</text>
<text text-anchor="start" x="567.49" y="-520.5" font-family="Helvetica,sans-Serif" font-size="10.00">_f9/bld_nightly&#45;haldls.YmxkX25p</text>
<text text-anchor="start" x="567.49" y="-508.5" font-family="Helvetica,sans-Serif" font-size="10.00">Z2h0bHktaGFsZGxzIzEzNzk.x/haldls</text>
<text text-anchor="middle" x="650" y="-496.5" font-family="Helvetica,sans-Serif" font-size="10.00">/include/stadls/vx/stadls.h</text>
</a>
</g>
</g>
<!-- Node1&#45;&gt;Node4 -->
<g id="edge35" class="edge">
<title>Node1&#45;&gt;Node4</title>
<path fill="none" stroke="midnightblue" d="M534.67,-783.74C540.35,-774.86 546.14,-765.23 551,-756 589.67,-682.46 624.41,-590.41 640.52,-545.57"/>
<polygon fill="midnightblue" stroke="midnightblue" points="531.6,-782.04 529.06,-792.33 537.46,-785.86 531.6,-782.04"/>
</g>
<!-- Node17 -->
<g id="node17" class="node">
<title>Node17</title>
<g id="a_node17"><a xlink:href="reinit__stack__entry_8h.html" target="_top" xlink:title=" ">
<polygon fill="white" stroke="black" points="658.21,-588.5 658.21,-644.5 839.79,-644.5 839.79,-588.5 658.21,-588.5"/>
<text text-anchor="start" x="666.21" y="-631.5" font-family="Helvetica,sans-Serif" font-size="10.00">/jenkins/jenlib_workspaces</text>
<text text-anchor="start" x="666.21" y="-619.5" font-family="Helvetica,sans-Serif" font-size="10.00">_f9/bld_nightly&#45;haldls.YmxkX25p</text>
<text text-anchor="start" x="666.21" y="-607.5" font-family="Helvetica,sans-Serif" font-size="10.00">Z2h0bHktaGFsZGxzIzEzNzk.x/haldls</text>
<text text-anchor="middle" x="749" y="-595.5" font-family="Helvetica,sans-Serif" font-size="10.00">/include/stadls/vx/reinit_stack_entry.h</text>
</a>
</g>
</g>
<!-- Node1&#45;&gt;Node17 -->
<g id="edge29" class="edge">
<title>Node1&#45;&gt;Node17</title>
<path fill="none" stroke="midnightblue" d="M576.1,-787.5C592.44,-778.31 609.42,-767.61 624,-756 665.94,-722.61 705.89,-674.51 728.9,-644.67"/>
<polygon fill="midnightblue" stroke="midnightblue" points="574.19,-784.55 567.11,-792.44 577.56,-790.69 574.19,-784.55"/>
</g>
<!-- Node20 -->
<g id="node20" class="node">
<title>Node20</title>
<g id="a_node20"><a xlink:href="v2_2playback__program_8h.html" target="_top" xlink:title=" ">
<polygon fill="white" stroke="black" points="893.49,-582.5 893.49,-650.5 1074.51,-650.5 1074.51,-582.5 893.49,-582.5"/>
<text text-anchor="start" x="901.49" y="-637.5" font-family="Helvetica,sans-Serif" font-size="10.00">/jenkins/jenlib_workspaces</text>
<text text-anchor="start" x="901.49" y="-625.5" font-family="Helvetica,sans-Serif" font-size="10.00">_f9/bld_nightly&#45;haldls.YmxkX25p</text>
<text text-anchor="start" x="901.49" y="-613.5" font-family="Helvetica,sans-Serif" font-size="10.00">Z2h0bHktaGFsZGxzIzEzNzk.x/haldls</text>
<text text-anchor="start" x="901.49" y="-601.5" font-family="Helvetica,sans-Serif" font-size="10.00">/include/stadls/vx/v2/playback</text>
<text text-anchor="middle" x="984" y="-589.5" font-family="Helvetica,sans-Serif" font-size="10.00">_program.h</text>
</a>
</g>
</g>
<!-- Node1&#45;&gt;Node20 -->
<g id="edge36" class="edge">
<title>Node1&#45;&gt;Node20</title>
<path fill="none" stroke="midnightblue" d="M590.7,-788.68C616.75,-778.51 645.68,-766.99 672,-756 754.85,-721.39 848.91,-679.24 911.89,-650.59"/>
<polygon fill="midnightblue" stroke="midnightblue" points="589.29,-785.47 581.24,-792.36 591.83,-791.99 589.29,-785.47"/>
</g>
<!-- Node21 -->
<g id="node21" class="node">
<title>Node21</title>
<g id="a_node21"><a xlink:href="v3_2playback__program_8h.html" target="_top" xlink:title=" ">
<polygon fill="white" stroke="black" points="25.49,-687.5 25.49,-755.5 206.51,-755.5 206.51,-687.5 25.49,-687.5"/>
<text text-anchor="start" x="33.49" y="-742.5" font-family="Helvetica,sans-Serif" font-size="10.00">/jenkins/jenlib_workspaces</text>
<text text-anchor="start" x="33.49" y="-730.5" font-family="Helvetica,sans-Serif" font-size="10.00">_f9/bld_nightly&#45;haldls.YmxkX25p</text>
<text text-anchor="start" x="33.49" y="-718.5" font-family="Helvetica,sans-Serif" font-size="10.00">Z2h0bHktaGFsZGxzIzEzNzk.x/haldls</text>
<text text-anchor="start" x="33.49" y="-706.5" font-family="Helvetica,sans-Serif" font-size="10.00">/include/stadls/vx/v3/playback</text>
<text text-anchor="middle" x="116" y="-694.5" font-family="Helvetica,sans-Serif" font-size="10.00">_program.h</text>
</a>
</g>
</g>
<!-- Node1&#45;&gt;Node21 -->
<g id="edge38" class="edge">
<title>Node1&#45;&gt;Node21</title>
<path fill="none" stroke="midnightblue" d="M407.29,-794.21C345.07,-778.9 266.43,-759.54 206.55,-744.79"/>
<polygon fill="midnightblue" stroke="midnightblue" points="406.58,-797.64 417.13,-796.64 408.25,-790.85 406.58,-797.64"/>
</g>
<!-- Node2&#45;&gt;Node3 -->
<g id="edge2" class="edge">
<title>Node2&#45;&gt;Node3</title>
<path fill="none" stroke="midnightblue" d="M412.05,-686.78C398.63,-675.17 383.63,-662.19 370.28,-650.63"/>
<polygon fill="midnightblue" stroke="midnightblue" points="409.88,-689.54 419.73,-693.44 414.46,-684.25 409.88,-689.54"/>
</g>
<!-- Node5 -->
<g id="node5" class="node">
<title>Node5</title>
<g id="a_node5"><a xlink:href="v2_2dumper_8h.html" target="_top" xlink:title=" ">
<polygon fill="white" stroke="black" points="360.49,-489.5 360.49,-545.5 541.51,-545.5 541.51,-489.5 360.49,-489.5"/>
<text text-anchor="start" x="368.49" y="-532.5" font-family="Helvetica,sans-Serif" font-size="10.00">/jenkins/jenlib_workspaces</text>
<text text-anchor="start" x="368.49" y="-520.5" font-family="Helvetica,sans-Serif" font-size="10.00">_f9/bld_nightly&#45;haldls.YmxkX25p</text>
<text text-anchor="start" x="368.49" y="-508.5" font-family="Helvetica,sans-Serif" font-size="10.00">Z2h0bHktaGFsZGxzIzEzNzk.x/haldls</text>
<text text-anchor="middle" x="451" y="-496.5" font-family="Helvetica,sans-Serif" font-size="10.00">/include/stadls/vx/v2/dumper.h</text>
</a>
</g>
</g>
<!-- Node2&#45;&gt;Node5 -->
<g id="edge26" class="edge">
<title>Node2&#45;&gt;Node5</title>
<path fill="none" stroke="midnightblue" d="M451,-683.14C451,-643.27 451,-581.07 451,-545.63"/>
<polygon fill="midnightblue" stroke="midnightblue" points="447.5,-683.26 451,-693.26 454.5,-683.26 447.5,-683.26"/>
</g>
<!-- Node11 -->
<g id="node11" class="node">
<title>Node11</title>
<g id="a_node11"><a xlink:href="v3_2dumper_8h.html" target="_top" xlink:title=" ">
<polygon fill="white" stroke="black" points="84.49,-489.5 84.49,-545.5 265.51,-545.5 265.51,-489.5 84.49,-489.5"/>
<text text-anchor="start" x="92.49" y="-532.5" font-family="Helvetica,sans-Serif" font-size="10.00">/jenkins/jenlib_workspaces</text>
<text text-anchor="start" x="92.49" y="-520.5" font-family="Helvetica,sans-Serif" font-size="10.00">_f9/bld_nightly&#45;haldls.YmxkX25p</text>
<text text-anchor="start" x="92.49" y="-508.5" font-family="Helvetica,sans-Serif" font-size="10.00">Z2h0bHktaGFsZGxzIzEzNzk.x/haldls</text>
<text text-anchor="middle" x="175" y="-496.5" font-family="Helvetica,sans-Serif" font-size="10.00">/include/stadls/vx/v3/dumper.h</text>
</a>
</g>
</g>
<!-- Node2&#45;&gt;Node11 -->
<g id="edge27" class="edge">
<title>Node2&#45;&gt;Node11</title>
<path fill="none" stroke="midnightblue" d="M350.47,-707.25C309.67,-697.48 264.57,-680.5 232,-651 201.19,-623.1 186.37,-575.67 179.76,-545.77"/>
<polygon fill="midnightblue" stroke="midnightblue" points="349.94,-710.72 360.47,-709.53 351.5,-703.9 349.94,-710.72"/>
</g>
<!-- Node3&#45;&gt;Node4 -->
<g id="edge3" class="edge">
<title>Node3&#45;&gt;Node4</title>
<path fill="none" stroke="midnightblue" d="M432.52,-584.84C473.87,-572.23 521.35,-557.74 561.38,-545.53"/>
<polygon fill="midnightblue" stroke="midnightblue" points="431.24,-581.57 422.7,-587.83 433.29,-588.26 431.24,-581.57"/>
</g>
<!-- Node3&#45;&gt;Node5 -->
<g id="edge4" class="edge">
<title>Node3&#45;&gt;Node5</title>
<path fill="none" stroke="midnightblue" d="M380.67,-575.82C393.11,-565.69 406.2,-555.02 417.67,-545.67"/>
<polygon fill="midnightblue" stroke="midnightblue" points="378.16,-573.36 372.62,-582.39 382.58,-578.78 378.16,-573.36"/>
</g>
<!-- Node6 -->
<g id="node6" class="node">
<title>Node6</title>
<g id="a_node6"><a xlink:href="v2_2playback__program__builder_8h.html" target="_top" xlink:title=" ">
<polygon fill="white" stroke="black" points="527.49,-384.5 527.49,-452.5 708.51,-452.5 708.51,-384.5 527.49,-384.5"/>
<text text-anchor="start" x="535.49" y="-439.5" font-family="Helvetica,sans-Serif" font-size="10.00">/jenkins/jenlib_workspaces</text>
<text text-anchor="start" x="535.49" y="-427.5" font-family="Helvetica,sans-Serif" font-size="10.00">_f9/bld_nightly&#45;haldls.YmxkX25p</text>
<text text-anchor="start" x="535.49" y="-415.5" font-family="Helvetica,sans-Serif" font-size="10.00">Z2h0bHktaGFsZGxzIzEzNzk.x/haldls</text>
<text text-anchor="start" x="535.49" y="-403.5" font-family="Helvetica,sans-Serif" font-size="10.00">/include/stadls/vx/v2/playback</text>
<text text-anchor="middle" x="618" y="-391.5" font-family="Helvetica,sans-Serif" font-size="10.00">_program_builder.h</text>
</a>
</g>
</g>
<!-- Node3&#45;&gt;Node6 -->
<g id="edge14" class="edge">
<title>Node3&#45;&gt;Node6</title>
<path fill="none" stroke="midnightblue" d="M327.28,-572.24C326.77,-545.14 330.98,-511.25 351,-489 374.59,-462.78 459.38,-443.73 527.16,-432.28"/>
<polygon fill="midnightblue" stroke="midnightblue" points="323.78,-572.4 327.68,-582.26 330.78,-572.12 323.78,-572.4"/>
</g>
<!-- Node3&#45;&gt;Node11 -->
<g id="edge15" class="edge">
<title>Node3&#45;&gt;Node11</title>
<path fill="none" stroke="midnightblue" d="M269.61,-576.96C252.57,-566.43 234.48,-555.25 218.72,-545.51"/>
<polygon fill="midnightblue" stroke="midnightblue" points="268.06,-580.11 278.41,-582.39 271.74,-574.16 268.06,-580.11"/>
</g>
<!-- Node12 -->
<g id="node12" class="node">
<title>Node12</title>
<g id="a_node12"><a xlink:href="v3_2playback__program__builder_8h.html" target="_top" xlink:title=" ">
<polygon fill="white" stroke="black" points="84.49,-384.5 84.49,-452.5 265.51,-452.5 265.51,-384.5 84.49,-384.5"/>
<text text-anchor="start" x="92.49" y="-439.5" font-family="Helvetica,sans-Serif" font-size="10.00">/jenkins/jenlib_workspaces</text>
<text text-anchor="start" x="92.49" y="-427.5" font-family="Helvetica,sans-Serif" font-size="10.00">_f9/bld_nightly&#45;haldls.YmxkX25p</text>
<text text-anchor="start" x="92.49" y="-415.5" font-family="Helvetica,sans-Serif" font-size="10.00">Z2h0bHktaGFsZGxzIzEzNzk.x/haldls</text>
<text text-anchor="start" x="92.49" y="-403.5" font-family="Helvetica,sans-Serif" font-size="10.00">/include/stadls/vx/v3/playback</text>
<text text-anchor="middle" x="175" y="-391.5" font-family="Helvetica,sans-Serif" font-size="10.00">_program_builder.h</text>
</a>
</g>
</g>
<!-- Node3&#45;&gt;Node12 -->
<g id="edge25" class="edge">
<title>Node3&#45;&gt;Node12</title>
<path fill="none" stroke="midnightblue" d="M319.26,-572.76C309.97,-546.6 295.41,-513.56 275,-489 263.51,-475.18 248.63,-462.87 233.87,-452.6"/>
<polygon fill="midnightblue" stroke="midnightblue" points="316.01,-574.09 322.56,-582.42 322.64,-571.82 316.01,-574.09"/>
</g>
<!-- Node5&#45;&gt;Node6 -->
<g id="edge5" class="edge">
<title>Node5&#45;&gt;Node6</title>
<path fill="none" stroke="midnightblue" d="M506.49,-484.27C524.02,-474.09 543.41,-462.83 561.03,-452.59"/>
<polygon fill="midnightblue" stroke="midnightblue" points="504.41,-481.43 497.52,-489.48 507.92,-487.48 504.41,-481.43"/>
</g>
<!-- Node8 -->
<g id="node8" class="node">
<title>Node8</title>
<g id="a_node8"><a xlink:href="v2_2stadls_8h.html" target="_top" xlink:title=" ">
<polygon fill="white" stroke="black" points="730.49,-93.5 730.49,-149.5 911.51,-149.5 911.51,-93.5 730.49,-93.5"/>
<text text-anchor="start" x="738.49" y="-136.5" font-family="Helvetica,sans-Serif" font-size="10.00">/jenkins/jenlib_workspaces</text>
<text text-anchor="start" x="738.49" y="-124.5" font-family="Helvetica,sans-Serif" font-size="10.00">_f9/bld_nightly&#45;haldls.YmxkX25p</text>
<text text-anchor="start" x="738.49" y="-112.5" font-family="Helvetica,sans-Serif" font-size="10.00">Z2h0bHktaGFsZGxzIzEzNzk.x/haldls</text>
<text text-anchor="middle" x="821" y="-100.5" font-family="Helvetica,sans-Serif" font-size="10.00">/include/stadls/vx/v2/stadls.h</text>
</a>
</g>
</g>
<!-- Node5&#45;&gt;Node8 -->
<g id="edge13" class="edge">
<title>Node5&#45;&gt;Node8</title>
<path fill="none" stroke="midnightblue" d="M551.48,-488.81C626.6,-472.53 655.91,-491.83 718,-453 751.02,-432.35 744.05,-411.11 772,-384 791.4,-365.18 808.8,-372.11 821,-348 853.8,-283.21 839.06,-193.91 828.46,-149.64"/>
<polygon fill="midnightblue" stroke="midnightblue" points="550.53,-485.44 541.58,-491.11 552.11,-492.26 550.53,-485.44"/>
</g>
<!-- Node7 -->
<g id="node7" class="node">
<title>Node7</title>
<g id="a_node7"><a xlink:href="v2_2init__generator_8h.html" target="_top" xlink:title=" ">
<polygon fill="white" stroke="black" points="592.49,-186.5 592.49,-242.5 773.51,-242.5 773.51,-186.5 592.49,-186.5"/>
<text text-anchor="start" x="600.49" y="-229.5" font-family="Helvetica,sans-Serif" font-size="10.00">/jenkins/jenlib_workspaces</text>
<text text-anchor="start" x="600.49" y="-217.5" font-family="Helvetica,sans-Serif" font-size="10.00">_f9/bld_nightly&#45;haldls.YmxkX25p</text>
<text text-anchor="start" x="600.49" y="-205.5" font-family="Helvetica,sans-Serif" font-size="10.00">Z2h0bHktaGFsZGxzIzEzNzk.x/haldls</text>
<text text-anchor="middle" x="683" y="-193.5" font-family="Helvetica,sans-Serif" font-size="10.00">/include/stadls/vx/v2/init_generator.h</text>
</a>
</g>
</g>
<!-- Node6&#45;&gt;Node7 -->
<g id="edge6" class="edge">
<title>Node6&#45;&gt;Node7</title>
<path fill="none" stroke="midnightblue" d="M611,-374.5C608.28,-346.26 608.35,-309.12 621,-279 626.79,-265.22 637.09,-252.77 647.65,-242.61"/>
<polygon fill="midnightblue" stroke="midnightblue" points="607.53,-374.92 612.11,-384.47 614.48,-374.15 607.53,-374.92"/>
</g>
<!-- Node6&#45;&gt;Node8 -->
<g id="edge12" class="edge">
<title>Node6&#45;&gt;Node8</title>
<path fill="none" stroke="midnightblue" d="M594.52,-375.16C570.13,-324.83 540.92,-240.77 583,-186 601.27,-162.22 670.95,-145.44 730.24,-135.12"/>
<polygon fill="midnightblue" stroke="midnightblue" points="591.41,-376.76 599,-384.15 597.67,-373.64 591.41,-376.76"/>
</g>
<!-- Node10 -->
<g id="node10" class="node">
<title>Node10</title>
<g id="a_node10"><a xlink:href="v2_2playback__generator_8h.html" target="_top" xlink:title=" ">
<polygon fill="white" stroke="black" points="630.49,-279.5 630.49,-347.5 811.51,-347.5 811.51,-279.5 630.49,-279.5"/>
<text text-anchor="start" x="638.49" y="-334.5" font-family="Helvetica,sans-Serif" font-size="10.00">/jenkins/jenlib_workspaces</text>
<text text-anchor="start" x="638.49" y="-322.5" font-family="Helvetica,sans-Serif" font-size="10.00">_f9/bld_nightly&#45;haldls.YmxkX25p</text>
<text text-anchor="start" x="638.49" y="-310.5" font-family="Helvetica,sans-Serif" font-size="10.00">Z2h0bHktaGFsZGxzIzEzNzk.x/haldls</text>
<text text-anchor="start" x="638.49" y="-298.5" font-family="Helvetica,sans-Serif" font-size="10.00">/include/stadls/vx/v2/playback</text>
<text text-anchor="middle" x="721" y="-286.5" font-family="Helvetica,sans-Serif" font-size="10.00">_generator.h</text>
</a>
</g>
</g>
<!-- Node6&#45;&gt;Node10 -->
<g id="edge9" class="edge">
<title>Node6&#45;&gt;Node10</title>
<path fill="none" stroke="midnightblue" d="M658.48,-377.02C668.23,-367.27 678.54,-356.96 687.91,-347.59"/>
<polygon fill="midnightblue" stroke="midnightblue" points="655.75,-374.8 651.16,-384.34 660.7,-379.75 655.75,-374.8"/>
</g>
<!-- Node7&#45;&gt;Node8 -->
<g id="edge7" class="edge">
<title>Node7&#45;&gt;Node8</title>
<path fill="none" stroke="midnightblue" d="M732.49,-180.86C748.03,-170.62 765,-159.43 779.89,-149.61"/>
<polygon fill="midnightblue" stroke="midnightblue" points="730.45,-178.02 724.03,-186.44 734.31,-183.86 730.45,-178.02"/>
</g>
<!-- Node9 -->
<g id="node9" class="node">
<title>Node9</title>
<g id="a_node9"><a xlink:href="v2_2pystadls_8h.html" target="_top" xlink:title=" ">
<polygon fill="white" stroke="black" points="730.49,-0.5 730.49,-56.5 911.51,-56.5 911.51,-0.5 730.49,-0.5"/>
<text text-anchor="start" x="738.49" y="-43.5" font-family="Helvetica,sans-Serif" font-size="10.00">/jenkins/jenlib_workspaces</text>
<text text-anchor="start" x="738.49" y="-31.5" font-family="Helvetica,sans-Serif" font-size="10.00">_f9/bld_nightly&#45;haldls.YmxkX25p</text>
<text text-anchor="start" x="738.49" y="-19.5" font-family="Helvetica,sans-Serif" font-size="10.00">Z2h0bHktaGFsZGxzIzEzNzk.x/haldls</text>
<text text-anchor="middle" x="821" y="-7.5" font-family="Helvetica,sans-Serif" font-size="10.00">/include/stadls/vx/v2/pystadls.h</text>
</a>
</g>
</g>
<!-- Node8&#45;&gt;Node9 -->
<g id="edge8" class="edge">
<title>Node8&#45;&gt;Node9</title>
<path fill="none" stroke="midnightblue" d="M821,-83.12C821,-74.3 821,-65.06 821,-56.78"/>
<polygon fill="midnightblue" stroke="midnightblue" points="817.5,-83.2 821,-93.2 824.5,-83.2 817.5,-83.2"/>
</g>
<!-- Node10&#45;&gt;Node7 -->
<g id="edge10" class="edge">
<title>Node10&#45;&gt;Node7</title>
<path fill="none" stroke="midnightblue" d="M704.32,-269.92C700.69,-260.67 696.96,-251.13 693.64,-242.67"/>
<polygon fill="midnightblue" stroke="midnightblue" points="701.12,-271.36 708.03,-279.39 707.64,-268.8 701.12,-271.36"/>
</g>
<!-- Node10&#45;&gt;Node8 -->
<g id="edge11" class="edge">
<title>Node10&#45;&gt;Node8</title>
<path fill="none" stroke="midnightblue" d="M762.4,-271.77C770,-262.81 777.31,-253 783,-243 799.91,-213.25 810.32,-175.01 815.88,-149.68"/>
<polygon fill="midnightblue" stroke="midnightblue" points="759.66,-269.58 755.68,-279.4 764.92,-274.2 759.66,-269.58"/>
</g>
<!-- Node11&#45;&gt;Node12 -->
<g id="edge16" class="edge">
<title>Node11&#45;&gt;Node12</title>
<path fill="none" stroke="midnightblue" d="M175,-479.43C175,-470.6 175,-461.23 175,-452.59"/>
<polygon fill="midnightblue" stroke="midnightblue" points="171.5,-479.48 175,-489.48 178.5,-479.48 171.5,-479.48"/>
</g>
<!-- Node14 -->
<g id="node14" class="node">
<title>Node14</title>
<g id="a_node14"><a xlink:href="v3_2stadls_8h.html" target="_top" xlink:title=" ">
<polygon fill="white" stroke="black" points="44.49,-93.5 44.49,-149.5 225.51,-149.5 225.51,-93.5 44.49,-93.5"/>
<text text-anchor="start" x="52.49" y="-136.5" font-family="Helvetica,sans-Serif" font-size="10.00">/jenkins/jenlib_workspaces</text>
<text text-anchor="start" x="52.49" y="-124.5" font-family="Helvetica,sans-Serif" font-size="10.00">_f9/bld_nightly&#45;haldls.YmxkX25p</text>
<text text-anchor="start" x="52.49" y="-112.5" font-family="Helvetica,sans-Serif" font-size="10.00">Z2h0bHktaGFsZGxzIzEzNzk.x/haldls</text>
<text text-anchor="middle" x="135" y="-100.5" font-family="Helvetica,sans-Serif" font-size="10.00">/include/stadls/vx/v3/stadls.h</text>
</a>
</g>
</g>
<!-- Node11&#45;&gt;Node14 -->
<g id="edge24" class="edge">
<title>Node11&#45;&gt;Node14</title>
<path fill="none" stroke="midnightblue" d="M245.35,-483.64C256.96,-475.23 267.6,-465.06 275,-453 306.1,-402.28 328.42,-235.22 295,-186 278.97,-162.39 252.63,-147.56 225.91,-138.24"/>
<polygon fill="midnightblue" stroke="midnightblue" points="243.07,-480.96 236.76,-489.47 247,-486.76 243.07,-480.96"/>
</g>
<!-- Node13 -->
<g id="node13" class="node">
<title>Node13</title>
<g id="a_node13"><a xlink:href="v3_2init__generator_8h.html" target="_top" xlink:title=" ">
<polygon fill="white" stroke="black" points="104.49,-186.5 104.49,-242.5 285.51,-242.5 285.51,-186.5 104.49,-186.5"/>
<text text-anchor="start" x="112.49" y="-229.5" font-family="Helvetica,sans-Serif" font-size="10.00">/jenkins/jenlib_workspaces</text>
<text text-anchor="start" x="112.49" y="-217.5" font-family="Helvetica,sans-Serif" font-size="10.00">_f9/bld_nightly&#45;haldls.YmxkX25p</text>
<text text-anchor="start" x="112.49" y="-205.5" font-family="Helvetica,sans-Serif" font-size="10.00">Z2h0bHktaGFsZGxzIzEzNzk.x/haldls</text>
<text text-anchor="middle" x="195" y="-193.5" font-family="Helvetica,sans-Serif" font-size="10.00">/include/stadls/vx/v3/init_generator.h</text>
</a>
</g>
</g>
<!-- Node12&#45;&gt;Node13 -->
<g id="edge17" class="edge">
<title>Node12&#45;&gt;Node13</title>
<path fill="none" stroke="midnightblue" d="M235.37,-377.48C244.14,-368.86 251.91,-358.98 257,-348 269.89,-320.17 268.57,-307.4 257,-279 251.36,-265.16 241.1,-252.69 230.52,-242.54"/>
<polygon fill="midnightblue" stroke="midnightblue" points="232.8,-375.09 227.81,-384.43 237.54,-380.25 232.8,-375.09"/>
</g>
<!-- Node12&#45;&gt;Node14 -->
<g id="edge23" class="edge">
<title>Node12&#45;&gt;Node14</title>
<path fill="none" stroke="midnightblue" d="M84.67,-378.54C73.62,-370.06 63.84,-359.96 57,-348 20.74,-284.56 51.28,-250.82 85,-186 91.67,-173.18 101.07,-160.4 109.92,-149.69"/>
<polygon fill="midnightblue" stroke="midnightblue" points="82.74,-381.47 92.92,-384.43 86.81,-375.77 82.74,-381.47"/>
</g>
<!-- Node16 -->
<g id="node16" class="node">
<title>Node16</title>
<g id="a_node16"><a xlink:href="v3_2playback__generator_8h.html" target="_top" xlink:title=" ">
<polygon fill="white" stroke="black" points="66.49,-279.5 66.49,-347.5 247.51,-347.5 247.51,-279.5 66.49,-279.5"/>
<text text-anchor="start" x="74.49" y="-334.5" font-family="Helvetica,sans-Serif" font-size="10.00">/jenkins/jenlib_workspaces</text>
<text text-anchor="start" x="74.49" y="-322.5" font-family="Helvetica,sans-Serif" font-size="10.00">_f9/bld_nightly&#45;haldls.YmxkX25p</text>
<text text-anchor="start" x="74.49" y="-310.5" font-family="Helvetica,sans-Serif" font-size="10.00">Z2h0bHktaGFsZGxzIzEzNzk.x/haldls</text>
<text text-anchor="start" x="74.49" y="-298.5" font-family="Helvetica,sans-Serif" font-size="10.00">/include/stadls/vx/v3/playback</text>
<text text-anchor="middle" x="157" y="-286.5" font-family="Helvetica,sans-Serif" font-size="10.00">_generator.h</text>
</a>
</g>
</g>
<!-- Node12&#45;&gt;Node16 -->
<g id="edge20" class="edge">
<title>Node12&#45;&gt;Node16</title>
<path fill="none" stroke="midnightblue" d="M167.47,-374.43C165.9,-365.46 164.28,-356.14 162.78,-347.59"/>
<polygon fill="midnightblue" stroke="midnightblue" points="164.04,-375.1 169.21,-384.34 170.93,-373.89 164.04,-375.1"/>
</g>
<!-- Node13&#45;&gt;Node14 -->
<g id="edge18" class="edge">
<title>Node13&#45;&gt;Node14</title>
<path fill="none" stroke="midnightblue" d="M171.49,-177.84C165.34,-168.51 158.8,-158.6 152.99,-149.78"/>
<polygon fill="midnightblue" stroke="midnightblue" points="168.57,-179.77 177,-186.2 174.42,-175.92 168.57,-179.77"/>
</g>
<!-- Node15 -->
<g id="node15" class="node">
<title>Node15</title>
<g id="a_node15"><a xlink:href="v3_2pystadls_8h.html" target="_top" xlink:title=" ">
<polygon fill="white" stroke="black" points="44.49,-0.5 44.49,-56.5 225.51,-56.5 225.51,-0.5 44.49,-0.5"/>
<text text-anchor="start" x="52.49" y="-43.5" font-family="Helvetica,sans-Serif" font-size="10.00">/jenkins/jenlib_workspaces</text>
<text text-anchor="start" x="52.49" y="-31.5" font-family="Helvetica,sans-Serif" font-size="10.00">_f9/bld_nightly&#45;haldls.YmxkX25p</text>
<text text-anchor="start" x="52.49" y="-19.5" font-family="Helvetica,sans-Serif" font-size="10.00">Z2h0bHktaGFsZGxzIzEzNzk.x/haldls</text>
<text text-anchor="middle" x="135" y="-7.5" font-family="Helvetica,sans-Serif" font-size="10.00">/include/stadls/vx/v3/pystadls.h</text>
</a>
</g>
</g>
<!-- Node14&#45;&gt;Node15 -->
<g id="edge19" class="edge">
<title>Node14&#45;&gt;Node15</title>
<path fill="none" stroke="midnightblue" d="M135,-83.12C135,-74.3 135,-65.06 135,-56.78"/>
<polygon fill="midnightblue" stroke="midnightblue" points="131.5,-83.2 135,-93.2 138.5,-83.2 131.5,-83.2"/>
</g>
<!-- Node16&#45;&gt;Node13 -->
<g id="edge21" class="edge">
<title>Node16&#45;&gt;Node13</title>
<path fill="none" stroke="midnightblue" d="M173.68,-269.92C177.31,-260.67 181.04,-251.13 184.36,-242.67"/>
<polygon fill="midnightblue" stroke="midnightblue" points="170.36,-268.8 169.97,-279.39 176.88,-271.36 170.36,-268.8"/>
</g>
<!-- Node16&#45;&gt;Node14 -->
<g id="edge22" class="edge">
<title>Node16&#45;&gt;Node14</title>
<path fill="none" stroke="midnightblue" d="M111.94,-271.49C105.01,-262.81 98.88,-253.18 95,-243 85.98,-219.33 87.97,-210.34 95,-186 98.72,-173.11 105.92,-160.31 113.2,-149.62"/>
<polygon fill="midnightblue" stroke="midnightblue" points="109.34,-273.83 118.49,-279.17 114.67,-269.29 109.34,-273.83"/>
</g>
<!-- Node17&#45;&gt;Node4 -->
<g id="edge30" class="edge">
<title>Node17&#45;&gt;Node4</title>
<path fill="none" stroke="midnightblue" d="M714.18,-581.39C702.25,-569.7 689.07,-556.78 677.77,-545.71"/>
<polygon fill="midnightblue" stroke="midnightblue" points="711.83,-583.98 721.42,-588.48 716.73,-578.98 711.83,-583.98"/>
</g>
<!-- Node18 -->
<g id="node18" class="node">
<title>Node18</title>
<g id="a_node18"><a xlink:href="v2_2reinit__stack__entry_8h.html" target="_top" xlink:title=" ">
<polygon fill="white" stroke="black" points="780.54,-390.5 780.54,-446.5 975.46,-446.5 975.46,-390.5 780.54,-390.5"/>
<text text-anchor="start" x="788.54" y="-433.5" font-family="Helvetica,sans-Serif" font-size="10.00">/jenkins/jenlib_workspaces</text>
<text text-anchor="start" x="788.54" y="-421.5" font-family="Helvetica,sans-Serif" font-size="10.00">_f9/bld_nightly&#45;haldls.YmxkX25p</text>
<text text-anchor="start" x="788.54" y="-409.5" font-family="Helvetica,sans-Serif" font-size="10.00">Z2h0bHktaGFsZGxzIzEzNzk.x/haldls</text>
<text text-anchor="middle" x="878" y="-397.5" font-family="Helvetica,sans-Serif" font-size="10.00">/include/stadls/vx/v2/reinit_stack_entry.h</text>
</a>
</g>
</g>
<!-- Node17&#45;&gt;Node18 -->
<g id="edge31" class="edge">
<title>Node17&#45;&gt;Node18</title>
<path fill="none" stroke="midnightblue" d="M772.73,-579.45C798.02,-541.03 837.47,-481.08 860.22,-446.52"/>
<polygon fill="midnightblue" stroke="midnightblue" points="769.51,-577.97 766.94,-588.25 775.36,-581.82 769.51,-577.97"/>
</g>
<!-- Node19 -->
<g id="node19" class="node">
<title>Node19</title>
<g id="a_node19"><a xlink:href="v3_2reinit__stack__entry_8h.html" target="_top" xlink:title=" ">
<polygon fill="white" stroke="black" points="341.54,-285.5 341.54,-341.5 536.46,-341.5 536.46,-285.5 341.54,-285.5"/>
<text text-anchor="start" x="349.54" y="-328.5" font-family="Helvetica,sans-Serif" font-size="10.00">/jenkins/jenlib_workspaces</text>
<text text-anchor="start" x="349.54" y="-316.5" font-family="Helvetica,sans-Serif" font-size="10.00">_f9/bld_nightly&#45;haldls.YmxkX25p</text>
<text text-anchor="start" x="349.54" y="-304.5" font-family="Helvetica,sans-Serif" font-size="10.00">Z2h0bHktaGFsZGxzIzEzNzk.x/haldls</text>
<text text-anchor="middle" x="439" y="-292.5" font-family="Helvetica,sans-Serif" font-size="10.00">/include/stadls/vx/v3/reinit_stack_entry.h</text>
</a>
</g>
</g>
<!-- Node17&#45;&gt;Node19 -->
<g id="edge33" class="edge">
<title>Node17&#45;&gt;Node19</title>
<path fill="none" stroke="midnightblue" d="M761.06,-578.52C767.64,-550.64 770.74,-513.21 750,-489 682.11,-409.76 603.93,-512.19 518,-453 479.13,-426.23 456.99,-373.68 446.54,-341.57"/>
<polygon fill="midnightblue" stroke="midnightblue" points="757.65,-577.75 758.52,-588.31 764.42,-579.51 757.65,-577.75"/>
</g>
<!-- Node18&#45;&gt;Node8 -->
<g id="edge32" class="edge">
<title>Node18&#45;&gt;Node8</title>
<path fill="none" stroke="midnightblue" d="M878.39,-380.29C877.92,-333.84 873.92,-252.43 854,-186 850.25,-173.5 844.03,-160.58 837.99,-149.67"/>
<polygon fill="midnightblue" stroke="midnightblue" points="874.89,-380.5 878.44,-390.48 881.89,-380.46 874.89,-380.5"/>
</g>
<!-- Node19&#45;&gt;Node14 -->
<g id="edge34" class="edge">
<title>Node19&#45;&gt;Node14</title>
<path fill="none" stroke="midnightblue" d="M415.92,-277.05C395.8,-248.73 364.22,-209.95 328,-186 297.4,-165.77 259.81,-151.49 225.96,-141.68"/>
<polygon fill="midnightblue" stroke="midnightblue" points="413.2,-279.26 421.78,-285.47 418.94,-275.26 413.2,-279.26"/>
</g>
<!-- Node20&#45;&gt;Node8 -->
<g id="edge37" class="edge">
<title>Node20&#45;&gt;Node8</title>
<path fill="none" stroke="midnightblue" d="M990.62,-572.19C996.1,-532.55 1003,-472.22 1003,-419.5 1003,-419.5 1003,-419.5 1003,-312.5 1003,-237.82 928.76,-181.03 875.11,-149.74"/>
<polygon fill="midnightblue" stroke="midnightblue" points="987.13,-571.91 989.19,-582.3 994.06,-572.89 987.13,-571.91"/>
</g>
<!-- Node21&#45;&gt;Node14 -->
<g id="edge39" class="edge">
<title>Node21&#45;&gt;Node14</title>
<path fill="none" stroke="midnightblue" d="M75.46,-679.54C42,-641.26 0,-580.8 0,-518.5 0,-518.5 0,-518.5 0,-312.5 0,-251.71 15.03,-234.25 52,-186 62.59,-172.18 76.91,-159.79 90.68,-149.71"/>
<polygon fill="midnightblue" stroke="midnightblue" points="73.18,-682.24 82.45,-687.37 78.4,-677.58 73.18,-682.24"/>
</g>
</g>
</svg>
