<?xml version="1.0" encoding="UTF-8" standalone="no"?>
<!DOCTYPE svg PUBLIC "-//W3C//DTD SVG 1.1//EN"
 "http://www.w3.org/Graphics/SVG/1.1/DTD/svg11.dtd">
<!-- Generated by graphviz version 2.46.0 (0)
 -->
<!-- Title: /jenkins/jenlib_workspaces_f9/bld_nightly&#45;haldls.YmxkX25pZ2h0bHktaGFsZGxzIzEzNzk.x/haldls/include/stadls/vx/playback_generator.h Pages: 1 -->
<svg width="606pt" height="449pt"
 viewBox="0.00 0.00 606.02 449.00" xmlns="http://www.w3.org/2000/svg" xmlns:xlink="http://www.w3.org/1999/xlink">
<g id="graph0" class="graph" transform="scale(1 1) rotate(0) translate(4 445)">
<title>/jenkins/jenlib_workspaces_f9/bld_nightly&#45;haldls.YmxkX25pZ2h0bHktaGFsZGxzIzEzNzk.x/haldls/include/stadls/vx/playback_generator.h</title>
<polygon fill="white" stroke="transparent" points="-4,4 -4,-445 602.02,-445 602.02,4 -4,4"/>
<!-- Node1 -->
<g id="node1" class="node">
<title>Node1</title>
<g id="a_node1"><a xlink:title=" ">
<polygon fill="#bfbfbf" stroke="black" points="193.98,-384.5 193.98,-440.5 385.03,-440.5 385.03,-384.5 193.98,-384.5"/>
<text text-anchor="start" x="201.98" y="-427.5" font-family="Helvetica,sans-Serif" font-size="10.00">/jenkins/jenlib_workspaces</text>
<text text-anchor="start" x="201.98" y="-415.5" font-family="Helvetica,sans-Serif" font-size="10.00">_f9/bld_nightly&#45;haldls.YmxkX25p</text>
<text text-anchor="start" x="201.98" y="-403.5" font-family="Helvetica,sans-Serif" font-size="10.00">Z2h0bHktaGFsZGxzIzEzNzk.x/haldls</text>
<text text-anchor="middle" x="289.51" y="-391.5" font-family="Helvetica,sans-Serif" font-size="10.00">/include/stadls/vx/playback_generator.h</text>
</a>
</g>
</g>
<!-- Node2 -->
<g id="node2" class="node">
<title>Node2</title>
<g id="a_node2"><a xlink:href="stadls_8h.html" target="_top" xlink:title=" ">
<polygon fill="white" stroke="black" points="0,-285.5 0,-341.5 181.02,-341.5 181.02,-285.5 0,-285.5"/>
<text text-anchor="start" x="8" y="-328.5" font-family="Helvetica,sans-Serif" font-size="10.00">/jenkins/jenlib_workspaces</text>
<text text-anchor="start" x="8" y="-316.5" font-family="Helvetica,sans-Serif" font-size="10.00">_f9/bld_nightly&#45;haldls.YmxkX25p</text>
<text text-anchor="start" x="8" y="-304.5" font-family="Helvetica,sans-Serif" font-size="10.00">Z2h0bHktaGFsZGxzIzEzNzk.x/haldls</text>
<text text-anchor="middle" x="90.51" y="-292.5" font-family="Helvetica,sans-Serif" font-size="10.00">/include/stadls/vx/stadls.h</text>
</a>
</g>
</g>
<!-- Node1&#45;&gt;Node2 -->
<g id="edge1" class="edge">
<title>Node1&#45;&gt;Node2</title>
<path fill="none" stroke="midnightblue" d="M224.87,-379.99C199.41,-367.58 170.47,-353.48 145.99,-341.54"/>
<polygon fill="midnightblue" stroke="midnightblue" points="223.55,-383.24 234.08,-384.48 226.62,-376.95 223.55,-383.24"/>
</g>
<!-- Node3 -->
<g id="node3" class="node">
<title>Node3</title>
<g id="a_node3"><a xlink:href="v2_2playback__generator_8h.html" target="_top" xlink:title=" ">
<polygon fill="white" stroke="black" points="199,-279.5 199,-347.5 380.02,-347.5 380.02,-279.5 199,-279.5"/>
<text text-anchor="start" x="207" y="-334.5" font-family="Helvetica,sans-Serif" font-size="10.00">/jenkins/jenlib_workspaces</text>
<text text-anchor="start" x="207" y="-322.5" font-family="Helvetica,sans-Serif" font-size="10.00">_f9/bld_nightly&#45;haldls.YmxkX25p</text>
<text text-anchor="start" x="207" y="-310.5" font-family="Helvetica,sans-Serif" font-size="10.00">Z2h0bHktaGFsZGxzIzEzNzk.x/haldls</text>
<text text-anchor="start" x="207" y="-298.5" font-family="Helvetica,sans-Serif" font-size="10.00">/include/stadls/vx/v2/playback</text>
<text text-anchor="middle" x="289.51" y="-286.5" font-family="Helvetica,sans-Serif" font-size="10.00">_generator.h</text>
</a>
</g>
</g>
<!-- Node1&#45;&gt;Node3 -->
<g id="edge2" class="edge">
<title>Node1&#45;&gt;Node3</title>
<path fill="none" stroke="midnightblue" d="M289.51,-374.43C289.51,-365.6 289.51,-356.23 289.51,-347.59"/>
<polygon fill="midnightblue" stroke="midnightblue" points="286.01,-374.48 289.51,-384.48 293.01,-374.48 286.01,-374.48"/>
</g>
<!-- Node7 -->
<g id="node7" class="node">
<title>Node7</title>
<g id="a_node7"><a xlink:href="v3_2playback__generator_8h.html" target="_top" xlink:title=" ">
<polygon fill="white" stroke="black" points="398,-279.5 398,-347.5 579.02,-347.5 579.02,-279.5 398,-279.5"/>
<text text-anchor="start" x="406" y="-334.5" font-family="Helvetica,sans-Serif" font-size="10.00">/jenkins/jenlib_workspaces</text>
<text text-anchor="start" x="406" y="-322.5" font-family="Helvetica,sans-Serif" font-size="10.00">_f9/bld_nightly&#45;haldls.YmxkX25p</text>
<text text-anchor="start" x="406" y="-310.5" font-family="Helvetica,sans-Serif" font-size="10.00">Z2h0bHktaGFsZGxzIzEzNzk.x/haldls</text>
<text text-anchor="start" x="406" y="-298.5" font-family="Helvetica,sans-Serif" font-size="10.00">/include/stadls/vx/v3/playback</text>
<text text-anchor="middle" x="488.51" y="-286.5" font-family="Helvetica,sans-Serif" font-size="10.00">_generator.h</text>
</a>
</g>
</g>
<!-- Node1&#45;&gt;Node7 -->
<g id="edge7" class="edge">
<title>Node1&#45;&gt;Node7</title>
<path fill="none" stroke="midnightblue" d="M354.2,-379.97C375.46,-369.6 399.14,-358.06 420.62,-347.59"/>
<polygon fill="midnightblue" stroke="midnightblue" points="352.4,-376.95 344.94,-384.48 355.46,-383.24 352.4,-376.95"/>
</g>
<!-- Node4 -->
<g id="node4" class="node">
<title>Node4</title>
<g id="a_node4"><a xlink:href="v2_2init__generator_8h.html" target="_top" xlink:title=" ">
<polygon fill="white" stroke="black" points="100,-186.5 100,-242.5 281.02,-242.5 281.02,-186.5 100,-186.5"/>
<text text-anchor="start" x="108" y="-229.5" font-family="Helvetica,sans-Serif" font-size="10.00">/jenkins/jenlib_workspaces</text>
<text text-anchor="start" x="108" y="-217.5" font-family="Helvetica,sans-Serif" font-size="10.00">_f9/bld_nightly&#45;haldls.YmxkX25p</text>
<text text-anchor="start" x="108" y="-205.5" font-family="Helvetica,sans-Serif" font-size="10.00">Z2h0bHktaGFsZGxzIzEzNzk.x/haldls</text>
<text text-anchor="middle" x="190.51" y="-193.5" font-family="Helvetica,sans-Serif" font-size="10.00">/include/stadls/vx/v2/init_generator.h</text>
</a>
</g>
</g>
<!-- Node3&#45;&gt;Node4 -->
<g id="edge3" class="edge">
<title>Node3&#45;&gt;Node4</title>
<path fill="none" stroke="midnightblue" d="M248.42,-272.24C238.26,-262.28 227.6,-251.84 218.24,-242.67"/>
<polygon fill="midnightblue" stroke="midnightblue" points="246.12,-274.89 255.72,-279.39 251.02,-269.89 246.12,-274.89"/>
</g>
<!-- Node5 -->
<g id="node5" class="node">
<title>Node5</title>
<g id="a_node5"><a xlink:href="v2_2stadls_8h.html" target="_top" xlink:title=" ">
<polygon fill="white" stroke="black" points="179,-93.5 179,-149.5 360.02,-149.5 360.02,-93.5 179,-93.5"/>
<text text-anchor="start" x="187" y="-136.5" font-family="Helvetica,sans-Serif" font-size="10.00">/jenkins/jenlib_workspaces</text>
<text text-anchor="start" x="187" y="-124.5" font-family="Helvetica,sans-Serif" font-size="10.00">_f9/bld_nightly&#45;haldls.YmxkX25p</text>
<text text-anchor="start" x="187" y="-112.5" font-family="Helvetica,sans-Serif" font-size="10.00">Z2h0bHktaGFsZGxzIzEzNzk.x/haldls</text>
<text text-anchor="middle" x="269.51" y="-100.5" font-family="Helvetica,sans-Serif" font-size="10.00">/include/stadls/vx/v2/stadls.h</text>
</a>
</g>
</g>
<!-- Node3&#45;&gt;Node5 -->
<g id="edge6" class="edge">
<title>Node3&#45;&gt;Node5</title>
<path fill="none" stroke="midnightblue" d="M293.41,-269.16C294.73,-244.61 294.92,-213.42 290.51,-186 288.53,-173.73 284.54,-160.63 280.56,-149.53"/>
<polygon fill="midnightblue" stroke="midnightblue" points="289.91,-269.05 292.78,-279.24 296.9,-269.48 289.91,-269.05"/>
</g>
<!-- Node4&#45;&gt;Node5 -->
<g id="edge4" class="edge">
<title>Node4&#45;&gt;Node5</title>
<path fill="none" stroke="midnightblue" d="M220.97,-178.41C229.21,-168.91 238.01,-158.78 245.82,-149.78"/>
<polygon fill="midnightblue" stroke="midnightblue" points="218.12,-176.35 214.21,-186.2 223.41,-180.94 218.12,-176.35"/>
</g>
<!-- Node6 -->
<g id="node6" class="node">
<title>Node6</title>
<g id="a_node6"><a xlink:href="v2_2pystadls_8h.html" target="_top" xlink:title=" ">
<polygon fill="white" stroke="black" points="179,-0.5 179,-56.5 360.02,-56.5 360.02,-0.5 179,-0.5"/>
<text text-anchor="start" x="187" y="-43.5" font-family="Helvetica,sans-Serif" font-size="10.00">/jenkins/jenlib_workspaces</text>
<text text-anchor="start" x="187" y="-31.5" font-family="Helvetica,sans-Serif" font-size="10.00">_f9/bld_nightly&#45;haldls.YmxkX25p</text>
<text text-anchor="start" x="187" y="-19.5" font-family="Helvetica,sans-Serif" font-size="10.00">Z2h0bHktaGFsZGxzIzEzNzk.x/haldls</text>
<text text-anchor="middle" x="269.51" y="-7.5" font-family="Helvetica,sans-Serif" font-size="10.00">/include/stadls/vx/v2/pystadls.h</text>
</a>
</g>
</g>
<!-- Node5&#45;&gt;Node6 -->
<g id="edge5" class="edge">
<title>Node5&#45;&gt;Node6</title>
<path fill="none" stroke="midnightblue" d="M269.51,-83.12C269.51,-74.3 269.51,-65.06 269.51,-56.78"/>
<polygon fill="midnightblue" stroke="midnightblue" points="266.01,-83.2 269.51,-93.2 273.01,-83.2 266.01,-83.2"/>
</g>
<!-- Node8 -->
<g id="node8" class="node">
<title>Node8</title>
<g id="a_node8"><a xlink:href="v3_2init__generator_8h.html" target="_top" xlink:title=" ">
<polygon fill="white" stroke="black" points="378,-186.5 378,-242.5 559.02,-242.5 559.02,-186.5 378,-186.5"/>
<text text-anchor="start" x="386" y="-229.5" font-family="Helvetica,sans-Serif" font-size="10.00">/jenkins/jenlib_workspaces</text>
<text text-anchor="start" x="386" y="-217.5" font-family="Helvetica,sans-Serif" font-size="10.00">_f9/bld_nightly&#45;haldls.YmxkX25p</text>
<text text-anchor="start" x="386" y="-205.5" font-family="Helvetica,sans-Serif" font-size="10.00">Z2h0bHktaGFsZGxzIzEzNzk.x/haldls</text>
<text text-anchor="middle" x="468.51" y="-193.5" font-family="Helvetica,sans-Serif" font-size="10.00">/include/stadls/vx/v3/init_generator.h</text>
</a>
</g>
</g>
<!-- Node7&#45;&gt;Node8 -->
<g id="edge8" class="edge">
<title>Node7&#45;&gt;Node8</title>
<path fill="none" stroke="midnightblue" d="M479.61,-269.33C477.74,-260.27 475.82,-250.95 474.11,-242.67"/>
<polygon fill="midnightblue" stroke="midnightblue" points="476.23,-270.3 481.68,-279.39 483.09,-268.89 476.23,-270.3"/>
</g>
<!-- Node9 -->
<g id="node9" class="node">
<title>Node9</title>
<g id="a_node9"><a xlink:href="v3_2stadls_8h.html" target="_top" xlink:title=" ">
<polygon fill="white" stroke="black" points="417,-93.5 417,-149.5 598.02,-149.5 598.02,-93.5 417,-93.5"/>
<text text-anchor="start" x="425" y="-136.5" font-family="Helvetica,sans-Serif" font-size="10.00">/jenkins/jenlib_workspaces</text>
<text text-anchor="start" x="425" y="-124.5" font-family="Helvetica,sans-Serif" font-size="10.00">_f9/bld_nightly&#45;haldls.YmxkX25p</text>
<text text-anchor="start" x="425" y="-112.5" font-family="Helvetica,sans-Serif" font-size="10.00">Z2h0bHktaGFsZGxzIzEzNzk.x/haldls</text>
<text text-anchor="middle" x="507.51" y="-100.5" font-family="Helvetica,sans-Serif" font-size="10.00">/include/stadls/vx/v3/stadls.h</text>
</a>
</g>
</g>
<!-- Node7&#45;&gt;Node9 -->
<g id="edge11" class="edge">
<title>Node7&#45;&gt;Node9</title>
<path fill="none" stroke="midnightblue" d="M547.43,-272.28C555.99,-263.67 563.56,-253.86 568.51,-243 579.02,-219.95 577.97,-209.5 568.51,-186 562.97,-172.24 552.87,-159.8 542.46,-149.64"/>
<polygon fill="midnightblue" stroke="midnightblue" points="544.94,-269.81 540.05,-279.22 549.74,-274.91 544.94,-269.81"/>
</g>
<!-- Node8&#45;&gt;Node9 -->
<g id="edge9" class="edge">
<title>Node8&#45;&gt;Node9</title>
<path fill="none" stroke="midnightblue" d="M484.16,-176.98C488.05,-167.9 492.15,-158.33 495.82,-149.78"/>
<polygon fill="midnightblue" stroke="midnightblue" points="480.93,-175.63 480.21,-186.2 487.37,-178.38 480.93,-175.63"/>
</g>
<!-- Node10 -->
<g id="node10" class="node">
<title>Node10</title>
<g id="a_node10"><a xlink:href="v3_2pystadls_8h.html" target="_top" xlink:title=" ">
<polygon fill="white" stroke="black" points="417,-0.5 417,-56.5 598.02,-56.5 598.02,-0.5 417,-0.5"/>
<text text-anchor="start" x="425" y="-43.5" font-family="Helvetica,sans-Serif" font-size="10.00">/jenkins/jenlib_workspaces</text>
<text text-anchor="start" x="425" y="-31.5" font-family="Helvetica,sans-Serif" font-size="10.00">_f9/bld_nightly&#45;haldls.YmxkX25p</text>
<text text-anchor="start" x="425" y="-19.5" font-family="Helvetica,sans-Serif" font-size="10.00">Z2h0bHktaGFsZGxzIzEzNzk.x/haldls</text>
<text text-anchor="middle" x="507.51" y="-7.5" font-family="Helvetica,sans-Serif" font-size="10.00">/include/stadls/vx/v3/pystadls.h</text>
</a>
</g>
</g>
<!-- Node9&#45;&gt;Node10 -->
<g id="edge10" class="edge">
<title>Node9&#45;&gt;Node10</title>
<path fill="none" stroke="midnightblue" d="M507.51,-83.12C507.51,-74.3 507.51,-65.06 507.51,-56.78"/>
<polygon fill="midnightblue" stroke="midnightblue" points="504.01,-83.2 507.51,-93.2 511.01,-83.2 504.01,-83.2"/>
</g>
</g>
</svg>
