<?xml version="1.0" encoding="UTF-8" standalone="no"?>
<!DOCTYPE svg PUBLIC "-//W3C//DTD SVG 1.1//EN"
 "http://www.w3.org/Graphics/SVG/1.1/DTD/svg11.dtd">
<!-- Generated by graphviz version 2.46.0 (0)
 -->
<!-- Title: /jenkins/jenlib_workspaces_f9/bld_nightly&#45;haldls.YmxkX25pZ2h0bHktaGFsZGxzIzEzNzk.x/haldls/include/stadls/vx/run_time_info.h Pages: 1 -->
<svg width="278pt" height="125pt"
 viewBox="0.00 0.00 277.58 125.40" xmlns="http://www.w3.org/2000/svg" xmlns:xlink="http://www.w3.org/1999/xlink">
<g id="graph0" class="graph" transform="scale(1 1) rotate(0) translate(4 121.4)">
<title>/jenkins/jenlib_workspaces_f9/bld_nightly&#45;haldls.YmxkX25pZ2h0bHktaGFsZGxzIzEzNzk.x/haldls/include/stadls/vx/run_time_info.h</title>
<polygon fill="white" stroke="transparent" points="-4,4 -4,-121.4 273.58,-121.4 273.58,4 -4,4"/>
<!-- Node1 -->
<g id="node1" class="node">
<title>Node1</title>
<g id="a_node1"><a xlink:title=" ">
<polygon fill="#bfbfbf" stroke="black" points="37,-60.9 37,-116.9 218.02,-116.9 218.02,-60.9 37,-60.9"/>
<text text-anchor="start" x="45" y="-103.9" font-family="Helvetica,sans-Serif" font-size="10.00">/jenkins/jenlib_workspaces</text>
<text text-anchor="start" x="45" y="-91.9" font-family="Helvetica,sans-Serif" font-size="10.00">_f9/bld_nightly&#45;haldls.YmxkX25p</text>
<text text-anchor="start" x="45" y="-79.9" font-family="Helvetica,sans-Serif" font-size="10.00">Z2h0bHktaGFsZGxzIzEzNzk.x/haldls</text>
<text text-anchor="middle" x="127.51" y="-67.9" font-family="Helvetica,sans-Serif" font-size="10.00">/include/stadls/vx/run_time_info.h</text>
</a>
</g>
</g>
<!-- Node2 -->
<g id="node2" class="node">
<title>Node2</title>
<g id="a_node2"><a xlink:title=" ">
<polygon fill="white" stroke="#bfbfbf" points="0,-3.9 0,-23.9 121.02,-23.9 121.02,-3.9 0,-3.9"/>
<text text-anchor="middle" x="60.51" y="-10.9" font-family="Helvetica,sans-Serif" font-size="10.00">fisch/vx/run_time_info.h</text>
</a>
</g>
</g>
<!-- Node1&#45;&gt;Node2 -->
<g id="edge1" class="edge">
<title>Node1&#45;&gt;Node2</title>
<path fill="none" stroke="midnightblue" d="M102.56,-60.72C93.54,-50.89 83.63,-40.09 75.7,-31.45"/>
<polygon fill="midnightblue" stroke="midnightblue" points="78.13,-28.93 68.79,-23.93 72.98,-33.66 78.13,-28.93"/>
</g>
<!-- Node3 -->
<g id="node3" class="node">
<title>Node3</title>
<g id="a_node3"><a xlink:href="genpybind_8h.html" target="_top" xlink:title=" ">
<polygon fill="white" stroke="black" points="139.44,-3.9 139.44,-23.9 251.58,-23.9 251.58,-3.9 139.44,-3.9"/>
<text text-anchor="middle" x="195.51" y="-10.9" font-family="Helvetica,sans-Serif" font-size="10.00">stadls/vx/genpybind.h</text>
</a>
</g>
</g>
<!-- Node1&#45;&gt;Node3 -->
<g id="edge2" class="edge">
<title>Node1&#45;&gt;Node3</title>
<path fill="none" stroke="midnightblue" d="M152.83,-60.72C161.99,-50.89 172.04,-40.09 180.1,-31.45"/>
<polygon fill="midnightblue" stroke="midnightblue" points="182.85,-33.63 187.1,-23.93 177.73,-28.86 182.85,-33.63"/>
</g>
<!-- Node3&#45;&gt;Node3 -->
<g id="edge3" class="edge">
<title>Node3&#45;&gt;Node3</title>
<path fill="none" stroke="midnightblue" d="M216.36,-23.98C240.93,-31.35 269.58,-27.99 269.58,-13.9 269.58,-1.68 248.04,2.47 226.29,-1.46"/>
<polygon fill="midnightblue" stroke="midnightblue" points="225.28,1.9 216.36,-3.83 226.9,-4.91 225.28,1.9"/>
</g>
</g>
</svg>
