<?xml version="1.0" encoding="UTF-8" standalone="no"?>
<!DOCTYPE svg PUBLIC "-//W3C//DTD SVG 1.1//EN"
 "http://www.w3.org/Graphics/SVG/1.1/DTD/svg11.dtd">
<!-- Generated by graphviz version 2.46.0 (0)
 -->
<!-- Title: /jenkins/jenlib_workspaces_f9/bld_nightly&#45;haldls.YmxkX25pZ2h0bHktaGFsZGxzIzEzNzk.x/haldls/include/stadls/vx/stadls.h Pages: 1 -->
<svg width="2081pt" height="400pt"
 viewBox="0.00 0.00 2081.12 399.55" xmlns="http://www.w3.org/2000/svg" xmlns:xlink="http://www.w3.org/1999/xlink">
<g id="graph0" class="graph" transform="scale(1 1) rotate(0) translate(4 395.55)">
<title>/jenkins/jenlib_workspaces_f9/bld_nightly&#45;haldls.YmxkX25pZ2h0bHktaGFsZGxzIzEzNzk.x/haldls/include/stadls/vx/stadls.h</title>
<polygon fill="white" stroke="transparent" points="-4,4 -4,-395.55 2077.12,-395.55 2077.12,4 -4,4"/>
<!-- Node1 -->
<g id="node1" class="node">
<title>Node1</title>
<g id="a_node1"><a xlink:title=" ">
<polygon fill="#bfbfbf" stroke="black" points="808.78,-335.05 808.78,-391.05 989.79,-391.05 989.79,-335.05 808.78,-335.05"/>
<text text-anchor="start" x="816.78" y="-378.05" font-family="Helvetica,sans-Serif" font-size="10.00">/jenkins/jenlib_workspaces</text>
<text text-anchor="start" x="816.78" y="-366.05" font-family="Helvetica,sans-Serif" font-size="10.00">_f9/bld_nightly&#45;haldls.YmxkX25p</text>
<text text-anchor="start" x="816.78" y="-354.05" font-family="Helvetica,sans-Serif" font-size="10.00">Z2h0bHktaGFsZGxzIzEzNzk.x/haldls</text>
<text text-anchor="middle" x="899.29" y="-342.05" font-family="Helvetica,sans-Serif" font-size="10.00">/include/stadls/vx/stadls.h</text>
</a>
</g>
</g>
<!-- Node2 -->
<g id="node2" class="node">
<title>Node2</title>
<g id="a_node2"><a xlink:href="constants_8h.html" target="_top" xlink:title=" ">
<polygon fill="white" stroke="black" points="224.88,-272.05 224.88,-292.05 333.69,-292.05 333.69,-272.05 224.88,-272.05"/>
<text text-anchor="middle" x="279.29" y="-279.05" font-family="Helvetica,sans-Serif" font-size="10.00">stadls/vx/constants.h</text>
</a>
</g>
</g>
<!-- Node1&#45;&gt;Node2 -->
<g id="edge1" class="edge">
<title>Node1&#45;&gt;Node2</title>
<path fill="none" stroke="midnightblue" d="M808.57,-355.29C697.9,-346.22 505.39,-327.79 342.29,-298.55 335.88,-297.4 329.16,-295.99 322.59,-294.48"/>
<polygon fill="midnightblue" stroke="midnightblue" points="323,-290.98 312.46,-292.06 321.38,-297.78 323,-290.98"/>
</g>
<!-- Node4 -->
<g id="node4" class="node">
<title>Node4</title>
<g id="a_node4"><a xlink:title=" ">
<polygon fill="white" stroke="#bfbfbf" points="351.72,-272.05 351.72,-292.05 478.85,-292.05 478.85,-272.05 351.72,-272.05"/>
<text text-anchor="middle" x="415.29" y="-279.05" font-family="Helvetica,sans-Serif" font-size="10.00">stadls/vx/init_generator.h</text>
</a>
</g>
</g>
<!-- Node1&#45;&gt;Node4 -->
<g id="edge3" class="edge">
<title>Node1&#45;&gt;Node4</title>
<path fill="none" stroke="midnightblue" d="M808.4,-348.93C726.01,-336.77 601.29,-317.72 493.29,-298.55 485.36,-297.15 477,-295.58 468.81,-293.99"/>
<polygon fill="midnightblue" stroke="midnightblue" points="469.44,-290.55 458.95,-292.06 468.09,-297.42 469.44,-290.55"/>
</g>
<!-- Node5 -->
<g id="node5" class="node">
<title>Node5</title>
<g id="a_node5"><a xlink:href="playback__generator_8h.html" target="_top" xlink:title=" ">
<polygon fill="white" stroke="black" points="146.72,-128.05 146.72,-160.05 243.85,-160.05 243.85,-128.05 146.72,-128.05"/>
<text text-anchor="start" x="154.72" y="-147.05" font-family="Helvetica,sans-Serif" font-size="10.00">stadls/vx/playback</text>
<text text-anchor="middle" x="195.29" y="-135.05" font-family="Helvetica,sans-Serif" font-size="10.00">_generator.h</text>
</a>
</g>
</g>
<!-- Node1&#45;&gt;Node5 -->
<g id="edge4" class="edge">
<title>Node1&#45;&gt;Node5</title>
<path fill="none" stroke="midnightblue" d="M811.55,-335.01C665.66,-290.04 377.07,-201.09 253.58,-163.02"/>
<polygon fill="midnightblue" stroke="midnightblue" points="254.5,-159.64 243.91,-160.04 252.44,-166.33 254.5,-159.64"/>
</g>
<!-- Node10 -->
<g id="node10" class="node">
<title>Node10</title>
<g id="a_node10"><a xlink:href="playback__program_8h.html" target="_top" xlink:title=" ">
<polygon fill="white" stroke="black" points="1041.72,-128.05 1041.72,-160.05 1138.85,-160.05 1138.85,-128.05 1041.72,-128.05"/>
<text text-anchor="start" x="1049.72" y="-147.05" font-family="Helvetica,sans-Serif" font-size="10.00">stadls/vx/playback</text>
<text text-anchor="middle" x="1090.29" y="-135.05" font-family="Helvetica,sans-Serif" font-size="10.00">_program.h</text>
</a>
</g>
</g>
<!-- Node1&#45;&gt;Node10 -->
<g id="edge10" class="edge">
<title>Node1&#45;&gt;Node10</title>
<path fill="none" stroke="midnightblue" d="M941.62,-335.01C976.42,-310.94 1024.93,-272.9 1056.29,-229.55 1069.38,-211.45 1078.37,-187.59 1083.81,-169.85"/>
<polygon fill="midnightblue" stroke="midnightblue" points="1087.18,-170.77 1086.6,-160.19 1080.46,-168.83 1087.18,-170.77"/>
</g>
<!-- Node27 -->
<g id="node27" class="node">
<title>Node27</title>
<g id="a_node27"><a xlink:href="playback__program__builder_8h.html" target="_top" xlink:title=" ">
<polygon fill="white" stroke="black" points="847.94,-266.05 847.94,-298.05 950.63,-298.05 950.63,-266.05 847.94,-266.05"/>
<text text-anchor="start" x="855.94" y="-285.05" font-family="Helvetica,sans-Serif" font-size="10.00">stadls/vx/playback</text>
<text text-anchor="middle" x="899.29" y="-273.05" font-family="Helvetica,sans-Serif" font-size="10.00">_program_builder.h</text>
</a>
</g>
</g>
<!-- Node1&#45;&gt;Node27 -->
<g id="edge30" class="edge">
<title>Node1&#45;&gt;Node27</title>
<path fill="none" stroke="midnightblue" d="M899.29,-334.87C899.29,-326.2 899.29,-316.66 899.29,-308.16"/>
<polygon fill="midnightblue" stroke="midnightblue" points="902.79,-308.08 899.29,-298.08 895.79,-308.08 902.79,-308.08"/>
</g>
<!-- Node36 -->
<g id="node36" class="node">
<title>Node36</title>
<g id="a_node36"><a xlink:href="reinit__stack__entry_8h.html" target="_top" xlink:title=" ">
<polygon fill="white" stroke="black" points="1308.17,-197.05 1308.17,-229.05 1416.4,-229.05 1416.4,-197.05 1308.17,-197.05"/>
<text text-anchor="start" x="1316.17" y="-216.05" font-family="Helvetica,sans-Serif" font-size="10.00">stadls/vx/reinit_stack</text>
<text text-anchor="middle" x="1362.29" y="-204.05" font-family="Helvetica,sans-Serif" font-size="10.00">_entry.h</text>
</a>
</g>
</g>
<!-- Node1&#45;&gt;Node36 -->
<g id="edge49" class="edge">
<title>Node1&#45;&gt;Node36</title>
<path fill="none" stroke="midnightblue" d="M987.67,-335.01C1023.86,-323.86 1066.12,-310.71 1104.29,-298.55 1174.53,-276.17 1255.25,-249.59 1307.43,-232.3"/>
<polygon fill="midnightblue" stroke="midnightblue" points="1308.76,-235.55 1317.15,-229.08 1306.56,-228.91 1308.76,-235.55"/>
</g>
<!-- Node38 -->
<g id="node38" class="node">
<title>Node38</title>
<g id="a_node38"><a xlink:href="run_8h.html" target="_top" xlink:title=" ">
<polygon fill="white" stroke="black" points="1856.06,-134.05 1856.06,-154.05 1936.51,-154.05 1936.51,-134.05 1856.06,-134.05"/>
<text text-anchor="middle" x="1896.29" y="-141.05" font-family="Helvetica,sans-Serif" font-size="10.00">stadls/vx/run.h</text>
</a>
</g>
</g>
<!-- Node1&#45;&gt;Node38 -->
<g id="edge56" class="edge">
<title>Node1&#45;&gt;Node38</title>
<path fill="none" stroke="midnightblue" d="M990.1,-356.75C1192.98,-343.68 1676.35,-305.32 1819.29,-229.55 1848.67,-213.98 1872.58,-182.58 1885.59,-162.76"/>
<polygon fill="midnightblue" stroke="midnightblue" points="1888.69,-164.4 1891.08,-154.07 1882.78,-160.66 1888.69,-164.4"/>
</g>
<!-- Node3 -->
<g id="node3" class="node">
<title>Node3</title>
<g id="a_node3"><a xlink:title=" ">
<polygon fill="white" stroke="#bfbfbf" points="227.66,-203.05 227.66,-223.05 330.91,-223.05 330.91,-203.05 227.66,-203.05"/>
<text text-anchor="middle" x="279.29" y="-210.05" font-family="Helvetica,sans-Serif" font-size="10.00">fisch/vx/constants.h</text>
</a>
</g>
</g>
<!-- Node2&#45;&gt;Node3 -->
<g id="edge2" class="edge">
<title>Node2&#45;&gt;Node3</title>
<path fill="none" stroke="midnightblue" d="M279.29,-272.02C279.29,-262.18 279.29,-246.16 279.29,-233.45"/>
<polygon fill="midnightblue" stroke="midnightblue" points="282.79,-233.38 279.29,-223.38 275.79,-233.38 282.79,-233.38"/>
</g>
<!-- Node6 -->
<g id="node6" class="node">
<title>Node6</title>
<g id="a_node6"><a xlink:title=" ">
<polygon fill="white" stroke="#bfbfbf" points="0,-65.05 0,-85.05 56.57,-85.05 56.57,-65.05 0,-65.05"/>
<text text-anchor="middle" x="28.29" y="-72.05" font-family="Helvetica,sans-Serif" font-size="10.00">hate/nil.h</text>
</a>
</g>
</g>
<!-- Node5&#45;&gt;Node6 -->
<g id="edge5" class="edge">
<title>Node5&#45;&gt;Node6</title>
<path fill="none" stroke="midnightblue" d="M157.44,-128.03C131.71,-117.8 96.92,-103.92 66.29,-91.55 64.19,-90.71 62.03,-89.83 59.86,-88.95"/>
<polygon fill="midnightblue" stroke="midnightblue" points="60.96,-85.62 50.38,-85.1 58.32,-92.11 60.96,-85.62"/>
</g>
<!-- Node7 -->
<g id="node7" class="node">
<title>Node7</title>
<g id="a_node7"><a xlink:title=" ">
<polygon fill="white" stroke="#bfbfbf" points="74.94,-65.05 74.94,-85.05 167.63,-85.05 167.63,-65.05 74.94,-65.05"/>
<text text-anchor="middle" x="121.29" y="-72.05" font-family="Helvetica,sans-Serif" font-size="10.00">hate/type_traits.h</text>
</a>
</g>
</g>
<!-- Node5&#45;&gt;Node7 -->
<g id="edge6" class="edge">
<title>Node5&#45;&gt;Node7</title>
<path fill="none" stroke="midnightblue" d="M178.49,-127.85C166.71,-117.18 150.99,-102.95 139.01,-92.1"/>
<polygon fill="midnightblue" stroke="midnightblue" points="141.17,-89.33 131.41,-85.22 136.47,-94.52 141.17,-89.33"/>
</g>
<!-- Node8 -->
<g id="node8" class="node">
<title>Node8</title>
<g id="a_node8"><a xlink:title=" ">
<polygon fill="white" stroke="#bfbfbf" points="223.78,-65.05 223.78,-85.05 304.79,-85.05 304.79,-65.05 223.78,-65.05"/>
<text text-anchor="middle" x="264.29" y="-72.05" font-family="Helvetica,sans-Serif" font-size="10.00">hate/visibility.h</text>
</a>
</g>
</g>
<!-- Node5&#45;&gt;Node8 -->
<g id="edge7" class="edge">
<title>Node5&#45;&gt;Node8</title>
<path fill="none" stroke="midnightblue" d="M210.94,-127.85C221.82,-117.29 236.3,-103.22 247.43,-92.41"/>
<polygon fill="midnightblue" stroke="midnightblue" points="250.11,-94.69 254.85,-85.22 245.23,-89.67 250.11,-94.69"/>
</g>
<!-- Node9 -->
<g id="node9" class="node">
<title>Node9</title>
<g id="a_node9"><a xlink:href="genpybind_8h.html" target="_top" xlink:title=" ">
<polygon fill="white" stroke="black" points="1711.21,-2.05 1711.21,-22.05 1823.36,-22.05 1823.36,-2.05 1711.21,-2.05"/>
<text text-anchor="middle" x="1767.29" y="-9.05" font-family="Helvetica,sans-Serif" font-size="10.00">stadls/vx/genpybind.h</text>
</a>
</g>
</g>
<!-- Node5&#45;&gt;Node9 -->
<g id="edge8" class="edge">
<title>Node5&#45;&gt;Node9</title>
<path fill="none" stroke="midnightblue" d="M193.67,-127.72C192.57,-108.25 194.1,-75.2 214.29,-58.55 272.39,-10.65 1411.38,-11.7 1700.84,-12.75"/>
<polygon fill="midnightblue" stroke="midnightblue" points="1701.16,-16.25 1711.18,-12.79 1701.19,-9.25 1701.16,-16.25"/>
</g>
<!-- Node9&#45;&gt;Node9 -->
<g id="edge9" class="edge">
<title>Node9&#45;&gt;Node9</title>
<path fill="none" stroke="midnightblue" d="M1795.79,-22.11C1818.28,-26 1841.36,-22.65 1841.36,-12.05 1841.36,-3.03 1824.62,0.74 1805.77,-0.74"/>
<polygon fill="midnightblue" stroke="midnightblue" points="1805.28,2.72 1795.79,-1.99 1806.15,-4.22 1805.28,2.72"/>
</g>
<!-- Node10&#45;&gt;Node8 -->
<g id="edge24" class="edge">
<title>Node10&#45;&gt;Node8</title>
<path fill="none" stroke="midnightblue" d="M1041.61,-134.58C1025.05,-131.97 1006.4,-129.32 989.29,-127.55 690,-96.7 609.31,-145.35 313.29,-91.55 308.44,-90.67 303.4,-89.45 298.48,-88.07"/>
<polygon fill="midnightblue" stroke="midnightblue" points="299.24,-84.65 288.65,-85.1 297.21,-91.35 299.24,-84.65"/>
</g>
<!-- Node10&#45;&gt;Node9 -->
<g id="edge26" class="edge">
<title>Node10&#45;&gt;Node9</title>
<path fill="none" stroke="midnightblue" d="M1139.01,-134.99C1155.57,-132.41 1174.21,-129.67 1191.29,-127.55 1359.2,-106.71 1414.76,-158.21 1570.29,-91.55 1590.84,-82.74 1588.62,-69.22 1608.29,-58.55 1638.1,-42.38 1674.26,-31.45 1704.56,-24.36"/>
<polygon fill="midnightblue" stroke="midnightblue" points="1705.61,-27.71 1714.59,-22.1 1704.07,-20.88 1705.61,-27.71"/>
</g>
<!-- Node11 -->
<g id="node11" class="node">
<title>Node11</title>
<g id="a_node11"><a xlink:title=" ">
<polygon fill="white" stroke="#bfbfbf" points="1516.84,-65.05 1516.84,-85.05 1561.73,-85.05 1561.73,-65.05 1516.84,-65.05"/>
<text text-anchor="middle" x="1539.29" y="-72.05" font-family="Helvetica,sans-Serif" font-size="10.00">cstdint</text>
</a>
</g>
</g>
<!-- Node10&#45;&gt;Node11 -->
<g id="edge11" class="edge">
<title>Node10&#45;&gt;Node11</title>
<path fill="none" stroke="midnightblue" d="M1139.03,-135.18C1155.6,-132.61 1174.23,-129.83 1191.29,-127.55 1331.83,-108.79 1372.35,-131.88 1508.29,-91.55 1510.23,-90.97 1512.2,-90.28 1514.16,-89.51"/>
<polygon fill="midnightblue" stroke="midnightblue" points="1515.98,-92.53 1523.63,-85.21 1513.08,-86.16 1515.98,-92.53"/>
</g>
<!-- Node12 -->
<g id="node12" class="node">
<title>Node12</title>
<g id="a_node12"><a xlink:title=" ">
<polygon fill="white" stroke="#bfbfbf" points="1617.23,-65.05 1617.23,-85.05 1669.34,-85.05 1669.34,-65.05 1617.23,-65.05"/>
<text text-anchor="middle" x="1643.29" y="-72.05" font-family="Helvetica,sans-Serif" font-size="10.00">memory</text>
</a>
</g>
</g>
<!-- Node10&#45;&gt;Node12 -->
<g id="edge12" class="edge">
<title>Node10&#45;&gt;Node12</title>
<path fill="none" stroke="midnightblue" d="M1139,-134.92C1155.56,-132.33 1174.2,-129.61 1191.29,-127.55 1373.78,-105.6 1424.25,-133.17 1603.29,-91.55 1606.73,-90.75 1610.27,-89.72 1613.75,-88.56"/>
<polygon fill="midnightblue" stroke="midnightblue" points="1615.09,-91.79 1623.29,-85.08 1612.69,-85.22 1615.09,-91.79"/>
</g>
<!-- Node13 -->
<g id="node13" class="node">
<title>Node13</title>
<g id="a_node13"><a xlink:title=" ">
<polygon fill="white" stroke="#bfbfbf" points="1687.78,-65.05 1687.78,-85.05 1738.79,-85.05 1738.79,-65.05 1687.78,-65.05"/>
<text text-anchor="middle" x="1713.29" y="-72.05" font-family="Helvetica,sans-Serif" font-size="10.00">optional</text>
</a>
</g>
</g>
<!-- Node10&#45;&gt;Node13 -->
<g id="edge13" class="edge">
<title>Node10&#45;&gt;Node13</title>
<path fill="none" stroke="midnightblue" d="M1138.89,-140.85C1260.7,-135.02 1576.57,-117.76 1678.29,-91.55 1680.97,-90.86 1683.7,-89.98 1686.41,-89"/>
<polygon fill="midnightblue" stroke="midnightblue" points="1687.97,-92.14 1695.89,-85.11 1685.31,-85.67 1687.97,-92.14"/>
</g>
<!-- Node14 -->
<g id="node14" class="node">
<title>Node14</title>
<g id="a_node14"><a xlink:title=" ">
<polygon fill="white" stroke="#bfbfbf" points="566.06,-65.05 566.06,-85.05 606.51,-85.05 606.51,-65.05 566.06,-65.05"/>
<text text-anchor="middle" x="586.29" y="-72.05" font-family="Helvetica,sans-Serif" font-size="10.00">string</text>
</a>
</g>
</g>
<!-- Node10&#45;&gt;Node14 -->
<g id="edge14" class="edge">
<title>Node10&#45;&gt;Node14</title>
<path fill="none" stroke="midnightblue" d="M1041.6,-130.29C1036.78,-129.26 1031.95,-128.33 1027.29,-127.55 845.95,-97.51 791.47,-143.94 615.29,-91.55 613.4,-90.99 611.49,-90.3 609.61,-89.52"/>
<polygon fill="midnightblue" stroke="midnightblue" points="611.07,-86.34 600.54,-85.14 608.02,-92.65 611.07,-86.34"/>
</g>
<!-- Node15 -->
<g id="node15" class="node">
<title>Node15</title>
<g id="a_node15"><a xlink:title=" ">
<polygon fill="white" stroke="#bfbfbf" points="624.67,-65.05 624.67,-85.05 667.9,-85.05 667.9,-65.05 624.67,-65.05"/>
<text text-anchor="middle" x="646.29" y="-72.05" font-family="Helvetica,sans-Serif" font-size="10.00">vector</text>
</a>
</g>
</g>
<!-- Node10&#45;&gt;Node15 -->
<g id="edge15" class="edge">
<title>Node10&#45;&gt;Node15</title>
<path fill="none" stroke="midnightblue" d="M1041.59,-130.36C1036.77,-129.32 1031.95,-128.36 1027.29,-127.55 873.21,-100.81 827.44,-135.23 677.29,-91.55 675.13,-90.92 672.94,-90.15 670.77,-89.28"/>
<polygon fill="midnightblue" stroke="midnightblue" points="672.16,-86.07 661.61,-85.08 669.24,-92.43 672.16,-86.07"/>
</g>
<!-- Node16 -->
<g id="node16" class="node">
<title>Node16</title>
<g id="a_node16"><a xlink:title=" ">
<polygon fill="white" stroke="#bfbfbf" points="685.94,-65.05 685.94,-85.05 778.63,-85.05 778.63,-65.05 685.94,-65.05"/>
<text text-anchor="middle" x="732.29" y="-72.05" font-family="Helvetica,sans-Serif" font-size="10.00">boost/variant.hpp</text>
</a>
</g>
</g>
<!-- Node10&#45;&gt;Node16 -->
<g id="edge16" class="edge">
<title>Node10&#45;&gt;Node16</title>
<path fill="none" stroke="midnightblue" d="M1041.55,-130.59C1036.74,-129.5 1031.93,-128.47 1027.29,-127.55 921.47,-106.65 892.73,-114.23 787.29,-91.55 782.2,-90.46 776.9,-89.16 771.67,-87.8"/>
<polygon fill="midnightblue" stroke="midnightblue" points="772.37,-84.36 761.8,-85.11 770.53,-91.11 772.37,-84.36"/>
</g>
<!-- Node17 -->
<g id="node17" class="node">
<title>Node17</title>
<g id="a_node17"><a xlink:title=" ">
<polygon fill="white" stroke="#bfbfbf" points="796.67,-59.05 796.67,-91.05 889.9,-91.05 889.9,-59.05 796.67,-59.05"/>
<text text-anchor="start" x="804.67" y="-78.05" font-family="Helvetica,sans-Serif" font-size="10.00">fisch/vx/container</text>
<text text-anchor="middle" x="843.29" y="-66.05" font-family="Helvetica,sans-Serif" font-size="10.00">_cast.h</text>
</a>
</g>
</g>
<!-- Node10&#45;&gt;Node17 -->
<g id="edge17" class="edge">
<title>Node10&#45;&gt;Node17</title>
<path fill="none" stroke="midnightblue" d="M1041.71,-130.2C1005.07,-120.47 953.3,-106.64 899.75,-91.94"/>
<polygon fill="midnightblue" stroke="midnightblue" points="900.65,-88.56 890.08,-89.28 898.8,-95.31 900.65,-88.56"/>
</g>
<!-- Node18 -->
<g id="node18" class="node">
<title>Node18</title>
<g id="a_node18"><a xlink:title=" ">
<polygon fill="white" stroke="#bfbfbf" points="907.67,-59.05 907.67,-91.05 1000.9,-91.05 1000.9,-59.05 907.67,-59.05"/>
<text text-anchor="start" x="915.67" y="-78.05" font-family="Helvetica,sans-Serif" font-size="10.00">fisch/vx/container</text>
<text text-anchor="middle" x="954.29" y="-66.05" font-family="Helvetica,sans-Serif" font-size="10.00">_ticket.h</text>
</a>
</g>
</g>
<!-- Node10&#45;&gt;Node18 -->
<g id="edge18" class="edge">
<title>Node10&#45;&gt;Node18</title>
<path fill="none" stroke="midnightblue" d="M1059.76,-128.02C1040.39,-118.47 1015.11,-106.02 994.16,-95.7"/>
<polygon fill="midnightblue" stroke="midnightblue" points="995.69,-92.55 985.17,-91.27 992.6,-98.83 995.69,-92.55"/>
</g>
<!-- Node19 -->
<g id="node19" class="node">
<title>Node19</title>
<g id="a_node19"><a xlink:title=" ">
<polygon fill="white" stroke="#bfbfbf" points="1018.94,-65.05 1018.94,-85.05 1161.63,-85.05 1161.63,-65.05 1018.94,-65.05"/>
<text text-anchor="middle" x="1090.29" y="-72.05" font-family="Helvetica,sans-Serif" font-size="10.00">fisch/vx/playback_program.h</text>
</a>
</g>
</g>
<!-- Node10&#45;&gt;Node19 -->
<g id="edge19" class="edge">
<title>Node10&#45;&gt;Node19</title>
<path fill="none" stroke="midnightblue" d="M1090.29,-127.85C1090.29,-118.21 1090.29,-105.65 1090.29,-95.32"/>
<polygon fill="midnightblue" stroke="midnightblue" points="1093.79,-95.22 1090.29,-85.22 1086.79,-95.22 1093.79,-95.22"/>
</g>
<!-- Node20 -->
<g id="node20" class="node">
<title>Node20</title>
<g id="a_node20"><a xlink:title=" ">
<polygon fill="white" stroke="#bfbfbf" points="1179.61,-65.05 1179.61,-85.05 1288.96,-85.05 1288.96,-65.05 1179.61,-65.05"/>
<text text-anchor="middle" x="1234.29" y="-72.05" font-family="Helvetica,sans-Serif" font-size="10.00">haldls/cerealization.h</text>
</a>
</g>
</g>
<!-- Node10&#45;&gt;Node20 -->
<g id="edge20" class="edge">
<title>Node10&#45;&gt;Node20</title>
<path fill="none" stroke="midnightblue" d="M1122.6,-128.02C1147.53,-116.42 1181.68,-100.53 1205.63,-89.38"/>
<polygon fill="midnightblue" stroke="midnightblue" points="1207.31,-92.46 1214.9,-85.07 1204.36,-86.12 1207.31,-92.46"/>
</g>
<!-- Node21 -->
<g id="node21" class="node">
<title>Node21</title>
<g id="a_node21"><a xlink:title=" ">
<polygon fill="white" stroke="#bfbfbf" points="444.11,-65.05 444.11,-85.05 548.46,-85.05 548.46,-65.05 444.11,-65.05"/>
<text text-anchor="middle" x="496.29" y="-72.05" font-family="Helvetica,sans-Serif" font-size="10.00">haldls/vx/common.h</text>
</a>
</g>
</g>
<!-- Node10&#45;&gt;Node21 -->
<g id="edge21" class="edge">
<title>Node10&#45;&gt;Node21</title>
<path fill="none" stroke="midnightblue" d="M1041.61,-130.24C1036.79,-129.22 1031.96,-128.3 1027.29,-127.55 820.42,-94.41 764.02,-125.48 557.29,-91.55 550.85,-90.5 544.09,-89.09 537.52,-87.55"/>
<polygon fill="midnightblue" stroke="midnightblue" points="537.96,-84.06 527.41,-85.06 536.29,-90.85 537.96,-84.06"/>
</g>
<!-- Node22 -->
<g id="node22" class="node">
<title>Node22</title>
<g id="a_node22"><a xlink:title=" ">
<polygon fill="white" stroke="#bfbfbf" points="1307.05,-65.05 1307.05,-85.05 1397.52,-85.05 1397.52,-65.05 1307.05,-65.05"/>
<text text-anchor="middle" x="1352.29" y="-72.05" font-family="Helvetica,sans-Serif" font-size="10.00">haldls/vx/event.h</text>
</a>
</g>
</g>
<!-- Node10&#45;&gt;Node22 -->
<g id="edge22" class="edge">
<title>Node10&#45;&gt;Node22</title>
<path fill="none" stroke="midnightblue" d="M1139.17,-131.49C1181.4,-121.37 1244.01,-106.05 1298.29,-91.55 1302.64,-90.39 1307.19,-89.14 1311.71,-87.87"/>
<polygon fill="midnightblue" stroke="midnightblue" points="1312.83,-91.19 1321.5,-85.1 1310.92,-84.46 1312.83,-91.19"/>
</g>
<!-- Node23 -->
<g id="node23" class="node">
<title>Node23</title>
<g id="a_node23"><a xlink:title=" ">
<polygon fill="white" stroke="#bfbfbf" points="1415.66,-65.05 1415.66,-85.05 1498.91,-85.05 1498.91,-65.05 1415.66,-65.05"/>
<text text-anchor="middle" x="1457.29" y="-72.05" font-family="Helvetica,sans-Serif" font-size="10.00">hate/type_list.h</text>
</a>
</g>
</g>
<!-- Node10&#45;&gt;Node23 -->
<g id="edge23" class="edge">
<title>Node10&#45;&gt;Node23</title>
<path fill="none" stroke="midnightblue" d="M1138.96,-135.49C1221.08,-122.67 1380.74,-97.49 1406.29,-91.55 1410.77,-90.51 1415.43,-89.29 1420.04,-88"/>
<polygon fill="midnightblue" stroke="midnightblue" points="1421.33,-91.27 1429.94,-85.1 1419.36,-84.55 1421.33,-91.27"/>
</g>
<!-- Node24 -->
<g id="node24" class="node">
<title>Node24</title>
<g id="a_node24"><a xlink:title=" ">
<polygon fill="white" stroke="#bfbfbf" points="322.67,-65.05 322.67,-85.05 425.9,-85.05 425.9,-65.05 322.67,-65.05"/>
<text text-anchor="middle" x="374.29" y="-72.05" font-family="Helvetica,sans-Serif" font-size="10.00">hxcomm/vx/target.h</text>
</a>
</g>
</g>
<!-- Node10&#45;&gt;Node24 -->
<g id="edge25" class="edge">
<title>Node10&#45;&gt;Node24</title>
<path fill="none" stroke="midnightblue" d="M1041.59,-134.7C1025.03,-132.09 1006.39,-129.42 989.29,-127.55 744,-100.81 679,-130.1 435.29,-91.55 428.84,-90.53 422.08,-89.15 415.51,-87.62"/>
<polygon fill="midnightblue" stroke="midnightblue" points="415.95,-84.12 405.4,-85.13 414.28,-90.92 415.95,-84.12"/>
</g>
<!-- Node25 -->
<g id="node25" class="node">
<title>Node25</title>
<g id="a_node25"><a xlink:href="run__time__info_8h.html" target="_top" xlink:title=" ">
<polygon fill="white" stroke="black" points="1871,-59.05 1871,-91.05 1967.57,-91.05 1967.57,-59.05 1871,-59.05"/>
<text text-anchor="start" x="1879" y="-78.05" font-family="Helvetica,sans-Serif" font-size="10.00">stadls/vx/run_time</text>
<text text-anchor="middle" x="1919.29" y="-66.05" font-family="Helvetica,sans-Serif" font-size="10.00">_info.h</text>
</a>
</g>
</g>
<!-- Node10&#45;&gt;Node25 -->
<g id="edge27" class="edge">
<title>Node10&#45;&gt;Node25</title>
<path fill="none" stroke="midnightblue" d="M1139,-139.45C1248.13,-131.32 1520.5,-110.79 1748.29,-91.55 1785.54,-88.41 1827.34,-84.62 1860.28,-81.58"/>
<polygon fill="midnightblue" stroke="midnightblue" points="1861.02,-85.03 1870.65,-80.62 1860.37,-78.06 1861.02,-85.03"/>
</g>
<!-- Node25&#45;&gt;Node9 -->
<g id="edge29" class="edge">
<title>Node25&#45;&gt;Node9</title>
<path fill="none" stroke="midnightblue" d="M1881.71,-58.97C1856.37,-48.8 1823.29,-35.53 1799.22,-25.87"/>
<polygon fill="midnightblue" stroke="midnightblue" points="1800.41,-22.57 1789.83,-22.1 1797.8,-29.07 1800.41,-22.57"/>
</g>
<!-- Node26 -->
<g id="node26" class="node">
<title>Node26</title>
<g id="a_node26"><a xlink:title=" ">
<polygon fill="white" stroke="#bfbfbf" points="1859.78,-2.05 1859.78,-22.05 1980.8,-22.05 1980.8,-2.05 1859.78,-2.05"/>
<text text-anchor="middle" x="1920.29" y="-9.05" font-family="Helvetica,sans-Serif" font-size="10.00">fisch/vx/run_time_info.h</text>
</a>
</g>
</g>
<!-- Node25&#45;&gt;Node26 -->
<g id="edge28" class="edge">
<title>Node25&#45;&gt;Node26</title>
<path fill="none" stroke="midnightblue" d="M1919.53,-58.97C1919.66,-50.93 1919.83,-40.94 1919.97,-32.33"/>
<polygon fill="midnightblue" stroke="midnightblue" points="1923.47,-32.15 1920.14,-22.1 1916.47,-32.04 1923.47,-32.15"/>
</g>
<!-- Node27&#45;&gt;Node8 -->
<g id="edge37" class="edge">
<title>Node27&#45;&gt;Node8</title>
<path fill="none" stroke="midnightblue" d="M902.96,-265.66C909.38,-234.45 918.6,-163.64 880.29,-127.55 834.33,-84.27 375.34,-103.16 313.29,-91.55 308.49,-90.66 303.52,-89.44 298.65,-88.07"/>
<polygon fill="midnightblue" stroke="midnightblue" points="299.5,-84.67 288.91,-85.13 297.47,-91.37 299.5,-84.67"/>
</g>
<!-- Node27&#45;&gt;Node9 -->
<g id="edge47" class="edge">
<title>Node27&#45;&gt;Node9</title>
<path fill="none" stroke="midnightblue" d="M950.78,-278.62C1045.37,-273.58 1252.9,-259.84 1425.29,-229.55 1547.27,-208.12 1586.61,-219.97 1695.29,-160.55 1734.74,-138.98 1751.35,-132.79 1769.29,-91.55 1777.5,-72.66 1775.32,-48.72 1772.15,-32.27"/>
<polygon fill="midnightblue" stroke="midnightblue" points="1775.51,-31.24 1769.92,-22.23 1768.68,-32.76 1775.51,-31.24"/>
</g>
<!-- Node27&#45;&gt;Node10 -->
<g id="edge48" class="edge">
<title>Node27&#45;&gt;Node10</title>
<path fill="none" stroke="midnightblue" d="M950.93,-267.43C975.7,-259.19 1004.8,-246.87 1027.29,-229.55 1048.62,-213.12 1066.24,-187.66 1077.37,-168.98"/>
<polygon fill="midnightblue" stroke="midnightblue" points="1080.49,-170.58 1082.44,-160.17 1074.42,-167.09 1080.49,-170.58"/>
</g>
<!-- Node27&#45;&gt;Node12 -->
<g id="edge32" class="edge">
<title>Node27&#45;&gt;Node12</title>
<path fill="none" stroke="midnightblue" d="M945.34,-266.05C976.65,-255.82 1018.99,-241.95 1056.29,-229.55 1191.13,-184.74 1221.12,-160.72 1359.29,-127.55 1465.88,-101.96 1497.3,-119.53 1603.29,-91.55 1606.45,-90.72 1609.71,-89.71 1612.94,-88.62"/>
<polygon fill="midnightblue" stroke="midnightblue" points="1614.21,-91.88 1622.4,-85.16 1611.81,-85.3 1614.21,-91.88"/>
</g>
<!-- Node27&#45;&gt;Node21 -->
<g id="edge36" class="edge">
<title>Node27&#45;&gt;Node21</title>
<path fill="none" stroke="midnightblue" d="M921.4,-265.91C932.63,-256.83 945.17,-244.21 951.29,-229.55 968.73,-187.71 981.85,-161.03 951.29,-127.55 921.65,-95.08 600.61,-98.99 557.29,-91.55 550.92,-90.46 544.25,-89.05 537.75,-87.52"/>
<polygon fill="midnightblue" stroke="midnightblue" points="538.29,-84.05 527.74,-85.05 536.61,-90.84 538.29,-84.05"/>
</g>
<!-- Node27&#45;&gt;Node24 -->
<g id="edge38" class="edge">
<title>Node27&#45;&gt;Node24</title>
<path fill="none" stroke="midnightblue" d="M907.11,-266.05C921.8,-235.56 948.95,-166.01 913.29,-127.55 877.07,-88.5 487.85,-100.14 435.29,-91.55 428.85,-90.5 422.09,-89.09 415.52,-87.56"/>
<polygon fill="midnightblue" stroke="midnightblue" points="415.96,-84.06 405.41,-85.07 414.28,-90.86 415.96,-84.06"/>
</g>
<!-- Node28 -->
<g id="node28" class="node">
<title>Node28</title>
<g id="a_node28"><a xlink:title=" ">
<polygon fill="white" stroke="#bfbfbf" points="611.12,-203.05 611.12,-223.05 655.45,-223.05 655.45,-203.05 611.12,-203.05"/>
<text text-anchor="middle" x="633.29" y="-210.05" font-family="Helvetica,sans-Serif" font-size="10.00">iosfwd</text>
</a>
</g>
</g>
<!-- Node27&#45;&gt;Node28 -->
<g id="edge31" class="edge">
<title>Node27&#45;&gt;Node28</title>
<path fill="none" stroke="midnightblue" d="M847.85,-273.55C799.54,-265.64 725.72,-251.26 664.29,-229.55 662.61,-228.96 660.9,-228.3 659.2,-227.59"/>
<polygon fill="midnightblue" stroke="midnightblue" points="660.23,-224.21 649.69,-223.2 657.3,-230.57 660.23,-224.21"/>
</g>
<!-- Node29 -->
<g id="node29" class="node">
<title>Node29</title>
<g id="a_node29"><a xlink:title=" ">
<polygon fill="white" stroke="#bfbfbf" points="673.05,-203.05 673.05,-223.05 753.52,-223.05 753.52,-203.05 673.05,-203.05"/>
<text text-anchor="middle" x="713.29" y="-210.05" font-family="Helvetica,sans-Serif" font-size="10.00">unordered_set</text>
</a>
</g>
</g>
<!-- Node27&#45;&gt;Node29 -->
<g id="edge33" class="edge">
<title>Node27&#45;&gt;Node29</title>
<path fill="none" stroke="midnightblue" d="M857.54,-266.02C824.49,-254.11 778.87,-237.68 747.85,-226.5"/>
<polygon fill="midnightblue" stroke="midnightblue" points="748.91,-223.17 738.32,-223.07 746.54,-229.75 748.91,-223.17"/>
</g>
<!-- Node30 -->
<g id="node30" class="node">
<title>Node30</title>
<g id="a_node30"><a xlink:title=" ">
<polygon fill="white" stroke="#bfbfbf" points="285.78,-128.05 285.78,-160.05 386.79,-160.05 386.79,-128.05 285.78,-128.05"/>
<text text-anchor="start" x="293.78" y="-147.05" font-family="Helvetica,sans-Serif" font-size="10.00">halco/hicann&#45;dls/vx</text>
<text text-anchor="middle" x="336.29" y="-135.05" font-family="Helvetica,sans-Serif" font-size="10.00">/barrier.h</text>
</a>
</g>
</g>
<!-- Node27&#45;&gt;Node30 -->
<g id="edge34" class="edge">
<title>Node27&#45;&gt;Node30</title>
<path fill="none" stroke="midnightblue" d="M847.9,-276.8C765.91,-269.43 609.62,-252.8 559.29,-229.55 538.98,-220.17 540.99,-207.14 521.29,-196.55 515.58,-193.48 448.56,-175.15 396.82,-161.22"/>
<polygon fill="midnightblue" stroke="midnightblue" points="397.59,-157.8 387.02,-158.59 395.77,-164.56 397.59,-157.8"/>
</g>
<!-- Node31 -->
<g id="node31" class="node">
<title>Node31</title>
<g id="a_node31"><a xlink:title=" ">
<polygon fill="white" stroke="#bfbfbf" points="404.84,-134.05 404.84,-154.05 499.73,-154.05 499.73,-134.05 404.84,-134.05"/>
<text text-anchor="middle" x="452.29" y="-141.05" font-family="Helvetica,sans-Serif" font-size="10.00">haldls/vx/barrier.h</text>
</a>
</g>
</g>
<!-- Node27&#45;&gt;Node31 -->
<g id="edge35" class="edge">
<title>Node27&#45;&gt;Node31</title>
<path fill="none" stroke="midnightblue" d="M847.76,-279.55C786.77,-276.13 683.29,-265.06 602.29,-229.55 580.22,-219.88 579.8,-209.18 559.29,-196.55 534.92,-181.56 505.54,-167.69 483.73,-158.13"/>
<polygon fill="midnightblue" stroke="midnightblue" points="484.86,-154.81 474.29,-154.05 482.08,-161.23 484.86,-154.81"/>
</g>
<!-- Node32 -->
<g id="node32" class="node">
<title>Node32</title>
<g id="a_node32"><a xlink:href="dumper_8h.html" target="_top" xlink:title=" ">
<polygon fill="white" stroke="black" points="771.33,-203.05 771.33,-223.05 871.24,-223.05 871.24,-203.05 771.33,-203.05"/>
<text text-anchor="middle" x="821.29" y="-210.05" font-family="Helvetica,sans-Serif" font-size="10.00">stadls/vx/dumper.h</text>
</a>
</g>
</g>
<!-- Node27&#45;&gt;Node32 -->
<g id="edge39" class="edge">
<title>Node27&#45;&gt;Node32</title>
<path fill="none" stroke="midnightblue" d="M881.59,-265.85C869.05,-255.08 852.28,-240.67 839.6,-229.79"/>
<polygon fill="midnightblue" stroke="midnightblue" points="841.82,-227.08 831.95,-223.22 837.26,-232.39 841.82,-227.08"/>
</g>
<!-- Node32&#45;&gt;Node8 -->
<g id="edge45" class="edge">
<title>Node32&#45;&gt;Node8</title>
<path fill="none" stroke="midnightblue" d="M788.95,-202.99C780.33,-200.73 770.98,-198.42 762.29,-196.55 667.12,-176.17 634.33,-202.02 546.29,-160.55 526.05,-151.02 528.44,-137.26 508.29,-127.55 428.88,-89.31 398.8,-112.88 313.29,-91.55 309.15,-90.52 304.84,-89.33 300.58,-88.08"/>
<polygon fill="midnightblue" stroke="midnightblue" points="301.4,-84.67 290.82,-85.1 299.36,-91.37 301.4,-84.67"/>
</g>
<!-- Node32&#45;&gt;Node10 -->
<g id="edge46" class="edge">
<title>Node32&#45;&gt;Node10</title>
<path fill="none" stroke="midnightblue" d="M857.56,-203.02C902.16,-191.91 978.43,-172.91 1031.45,-159.71"/>
<polygon fill="midnightblue" stroke="midnightblue" points="1032.54,-163.04 1041.39,-157.23 1030.84,-156.25 1032.54,-163.04"/>
</g>
<!-- Node32&#45;&gt;Node30 -->
<g id="edge40" class="edge">
<title>Node32&#45;&gt;Node30</title>
<path fill="none" stroke="midnightblue" d="M790.56,-202.99C781.52,-200.6 771.56,-198.22 762.29,-196.55 604.7,-168.29 559.09,-188.22 397.22,-160.52"/>
<polygon fill="midnightblue" stroke="midnightblue" points="397.36,-156.99 386.9,-158.72 396.15,-163.89 397.36,-156.99"/>
</g>
<!-- Node32&#45;&gt;Node31 -->
<g id="edge42" class="edge">
<title>Node32&#45;&gt;Node31</title>
<path fill="none" stroke="midnightblue" d="M789.6,-203.02C780.8,-200.71 771.21,-198.36 762.29,-196.55 652.7,-174.31 622.96,-182.35 513.29,-160.55 507.38,-159.38 501.19,-157.99 495.12,-156.54"/>
<polygon fill="midnightblue" stroke="midnightblue" points="495.61,-153.06 485.06,-154.06 493.93,-159.85 495.61,-153.06"/>
</g>
<!-- Node33 -->
<g id="node33" class="node">
<title>Node33</title>
<g id="a_node33"><a xlink:title=" ">
<polygon fill="white" stroke="#bfbfbf" points="769.78,-128.05 769.78,-160.05 870.79,-160.05 870.79,-128.05 769.78,-128.05"/>
<text text-anchor="start" x="777.78" y="-147.05" font-family="Helvetica,sans-Serif" font-size="10.00">halco/hicann&#45;dls/vx</text>
<text text-anchor="middle" x="820.29" y="-135.05" font-family="Helvetica,sans-Serif" font-size="10.00">/omnibus.h</text>
</a>
</g>
</g>
<!-- Node32&#45;&gt;Node33 -->
<g id="edge41" class="edge">
<title>Node32&#45;&gt;Node33</title>
<path fill="none" stroke="midnightblue" d="M821.15,-203.02C821.02,-194.59 820.83,-181.63 820.66,-170.1"/>
<polygon fill="midnightblue" stroke="midnightblue" points="824.16,-170.03 820.51,-160.09 817.16,-170.14 824.16,-170.03"/>
</g>
<!-- Node34 -->
<g id="node34" class="node">
<title>Node34</title>
<g id="a_node34"><a xlink:title=" ">
<polygon fill="white" stroke="#bfbfbf" points="555.61,-134.05 555.61,-154.05 644.96,-154.05 644.96,-134.05 555.61,-134.05"/>
<text text-anchor="middle" x="600.29" y="-141.05" font-family="Helvetica,sans-Serif" font-size="10.00">haldls/vx/block.h</text>
</a>
</g>
</g>
<!-- Node32&#45;&gt;Node34 -->
<g id="edge43" class="edge">
<title>Node32&#45;&gt;Node34</title>
<path fill="none" stroke="midnightblue" d="M791.48,-203.02C752.35,-191.15 683.53,-170.29 640.01,-157.1"/>
<polygon fill="midnightblue" stroke="midnightblue" points="640.91,-153.71 630.32,-154.16 638.88,-160.41 640.91,-153.71"/>
</g>
<!-- Node35 -->
<g id="node35" class="node">
<title>Node35</title>
<g id="a_node35"><a xlink:title=" ">
<polygon fill="white" stroke="#bfbfbf" points="663.17,-134.05 663.17,-154.05 751.4,-154.05 751.4,-134.05 663.17,-134.05"/>
<text text-anchor="middle" x="707.29" y="-141.05" font-family="Helvetica,sans-Serif" font-size="10.00">haldls/vx/timer.h</text>
</a>
</g>
</g>
<!-- Node32&#45;&gt;Node35 -->
<g id="edge44" class="edge">
<title>Node32&#45;&gt;Node35</title>
<path fill="none" stroke="midnightblue" d="M805.91,-203.02C786.79,-191.78 753.92,-172.46 731.42,-159.24"/>
<polygon fill="midnightblue" stroke="midnightblue" points="733.17,-156.21 722.78,-154.16 729.63,-162.24 733.17,-156.21"/>
</g>
<!-- Node36&#45;&gt;Node8 -->
<g id="edge50" class="edge">
<title>Node36&#45;&gt;Node8</title>
<path fill="none" stroke="midnightblue" d="M1307.91,-205.53C1242.21,-197.19 1128.5,-181.33 1032.29,-160.55 978.64,-148.97 967.42,-136.58 913.29,-127.55 649.78,-83.61 575.96,-140.21 313.29,-91.55 308.44,-90.66 303.41,-89.42 298.49,-88.04"/>
<polygon fill="midnightblue" stroke="midnightblue" points="299.25,-84.62 288.66,-85.06 297.21,-91.31 299.25,-84.62"/>
</g>
<!-- Node36&#45;&gt;Node9 -->
<g id="edge51" class="edge">
<title>Node36&#45;&gt;Node9</title>
<path fill="none" stroke="midnightblue" d="M1416.69,-211.72C1501.05,-208.06 1662.59,-187.98 1748.29,-91.55 1762.73,-75.3 1766.64,-49.94 1767.49,-32.47"/>
<polygon fill="midnightblue" stroke="midnightblue" points="1770.99,-32.36 1767.68,-22.3 1763.99,-32.23 1770.99,-32.36"/>
</g>
<!-- Node36&#45;&gt;Node10 -->
<g id="edge52" class="edge">
<title>Node36&#45;&gt;Node10</title>
<path fill="none" stroke="midnightblue" d="M1307.9,-198.65C1261.87,-187.32 1196.05,-171.11 1148.87,-159.48"/>
<polygon fill="midnightblue" stroke="midnightblue" points="1149.65,-156.07 1139.1,-157.08 1147.97,-162.87 1149.65,-156.07"/>
</g>
<!-- Node36&#45;&gt;Node12 -->
<g id="edge53" class="edge">
<title>Node36&#45;&gt;Node12</title>
<path fill="none" stroke="midnightblue" d="M1361.01,-196.79C1360.33,-177.7 1362.34,-145.38 1381.29,-127.55 1454.07,-59.04 1506.82,-117.75 1603.29,-91.55 1606.45,-90.69 1609.7,-89.67 1612.93,-88.57"/>
<polygon fill="midnightblue" stroke="midnightblue" points="1614.21,-91.83 1622.39,-85.1 1611.79,-85.26 1614.21,-91.83"/>
</g>
<!-- Node36&#45;&gt;Node13 -->
<g id="edge54" class="edge">
<title>Node36&#45;&gt;Node13</title>
<path fill="none" stroke="midnightblue" d="M1406.24,-196.98C1435.08,-186.96 1473.56,-173.34 1507.29,-160.55 1583.92,-131.5 1602.81,-123.48 1678.29,-91.55 1680.08,-90.8 1681.91,-90.01 1683.76,-89.21"/>
<polygon fill="midnightblue" stroke="midnightblue" points="1685.22,-92.39 1692.98,-85.18 1682.41,-85.98 1685.22,-92.39"/>
</g>
<!-- Node37 -->
<g id="node37" class="node">
<title>Node37</title>
<g id="a_node37"><a xlink:title=" ">
<polygon fill="white" stroke="#bfbfbf" points="1390.17,-128.05 1390.17,-160.05 1498.4,-160.05 1498.4,-128.05 1390.17,-128.05"/>
<text text-anchor="start" x="1398.17" y="-147.05" font-family="Helvetica,sans-Serif" font-size="10.00">stadls/vx/reinit_stack</text>
<text text-anchor="middle" x="1444.29" y="-135.05" font-family="Helvetica,sans-Serif" font-size="10.00">_entry.tcc</text>
</a>
</g>
</g>
<!-- Node36&#45;&gt;Node37 -->
<g id="edge55" class="edge">
<title>Node36&#45;&gt;Node37</title>
<path fill="none" stroke="midnightblue" d="M1380.89,-196.85C1391.8,-187.94 1405.75,-176.54 1417.78,-166.71"/>
<polygon fill="midnightblue" stroke="midnightblue" points="1420.22,-169.23 1425.75,-160.2 1415.79,-163.81 1420.22,-169.23"/>
</g>
<!-- Node38&#45;&gt;Node9 -->
<g id="edge57" class="edge">
<title>Node38&#45;&gt;Node9</title>
<path fill="none" stroke="midnightblue" d="M1888.51,-133.86C1874.97,-118 1845.93,-84.67 1819.29,-58.55 1808.71,-48.19 1796.24,-37.24 1786.17,-28.68"/>
<polygon fill="midnightblue" stroke="midnightblue" points="1788.27,-25.87 1778.36,-22.12 1783.76,-31.23 1788.27,-25.87"/>
</g>
<!-- Node38&#45;&gt;Node25 -->
<g id="edge58" class="edge">
<title>Node38&#45;&gt;Node25</title>
<path fill="none" stroke="midnightblue" d="M1899.39,-134.02C1902.31,-125.51 1906.82,-112.37 1910.81,-100.75"/>
<polygon fill="midnightblue" stroke="midnightblue" points="1914.19,-101.68 1914.12,-91.09 1907.57,-99.41 1914.19,-101.68"/>
</g>
<!-- Node39 -->
<g id="node39" class="node">
<title>Node39</title>
<g id="a_node39"><a xlink:title=" ">
<polygon fill="white" stroke="#bfbfbf" points="1985.45,-65.05 1985.45,-85.05 2073.12,-85.05 2073.12,-65.05 1985.45,-65.05"/>
<text text-anchor="middle" x="2029.29" y="-72.05" font-family="Helvetica,sans-Serif" font-size="10.00">stadls/vx/run.tcc</text>
</a>
</g>
</g>
<!-- Node38&#45;&gt;Node39 -->
<g id="edge59" class="edge">
<title>Node38&#45;&gt;Node39</title>
<path fill="none" stroke="midnightblue" d="M1914.22,-134.02C1936.83,-122.63 1975.9,-102.94 2002.17,-89.71"/>
<polygon fill="midnightblue" stroke="midnightblue" points="2003.85,-92.78 2011.21,-85.16 2000.7,-86.53 2003.85,-92.78"/>
</g>
</g>
</svg>
