<?xml version="1.0" encoding="UTF-8" standalone="no"?>
<!DOCTYPE svg PUBLIC "-//W3C//DTD SVG 1.1//EN"
 "http://www.w3.org/Graphics/SVG/1.1/DTD/svg11.dtd">
<!-- Generated by graphviz version 2.46.0 (0)
 -->
<!-- Title: /jenkins/jenlib_workspaces_f9/bld_nightly&#45;haldls.YmxkX25pZ2h0bHktaGFsZGxzIzEzNzk.x/haldls/include/stadls/vx/v2/playback_generator.h Pages: 1 -->
<svg width="2490pt" height="526pt"
 viewBox="0.00 0.00 2489.90 525.55" xmlns="http://www.w3.org/2000/svg" xmlns:xlink="http://www.w3.org/1999/xlink">
<g id="graph0" class="graph" transform="scale(1 1) rotate(0) translate(4 521.55)">
<title>/jenkins/jenlib_workspaces_f9/bld_nightly&#45;haldls.YmxkX25pZ2h0bHktaGFsZGxzIzEzNzk.x/haldls/include/stadls/vx/v2/playback_generator.h</title>
<polygon fill="white" stroke="transparent" points="-4,4 -4,-521.55 2485.9,-521.55 2485.9,4 -4,4"/>
<!-- Node1 -->
<g id="node1" class="node">
<title>Node1</title>
<g id="a_node1"><a xlink:title=" ">
<polygon fill="#bfbfbf" stroke="black" points="142.78,-449.05 142.78,-517.05 323.79,-517.05 323.79,-449.05 142.78,-449.05"/>
<text text-anchor="start" x="150.78" y="-504.05" font-family="Helvetica,sans-Serif" font-size="10.00">/jenkins/jenlib_workspaces</text>
<text text-anchor="start" x="150.78" y="-492.05" font-family="Helvetica,sans-Serif" font-size="10.00">_f9/bld_nightly&#45;haldls.YmxkX25p</text>
<text text-anchor="start" x="150.78" y="-480.05" font-family="Helvetica,sans-Serif" font-size="10.00">Z2h0bHktaGFsZGxzIzEzNzk.x/haldls</text>
<text text-anchor="start" x="150.78" y="-468.05" font-family="Helvetica,sans-Serif" font-size="10.00">/include/stadls/vx/v2/playback</text>
<text text-anchor="middle" x="233.29" y="-456.05" font-family="Helvetica,sans-Serif" font-size="10.00">_generator.h</text>
</a>
</g>
</g>
<!-- Node2 -->
<g id="node2" class="node">
<title>Node2</title>
<g id="a_node2"><a xlink:href="genpybind_8h.html" target="_top" xlink:title=" ">
<polygon fill="white" stroke="black" points="797.21,-2.05 797.21,-22.05 909.36,-22.05 909.36,-2.05 797.21,-2.05"/>
<text text-anchor="middle" x="853.29" y="-9.05" font-family="Helvetica,sans-Serif" font-size="10.00">stadls/vx/genpybind.h</text>
</a>
</g>
</g>
<!-- Node1&#45;&gt;Node2 -->
<g id="edge1" class="edge">
<title>Node1&#45;&gt;Node2</title>
<path fill="none" stroke="midnightblue" d="M233.29,-448.84C233.29,-418.85 233.29,-373.49 233.29,-334.05 233.29,-334.05 233.29,-334.05 233.29,-143.05 233.29,-93.13 262.72,-81.04 307.29,-58.55 389.57,-17.03 660.19,-12.3 786.83,-12.45"/>
<polygon fill="midnightblue" stroke="midnightblue" points="787.15,-15.95 797.16,-12.47 787.17,-8.95 787.15,-15.95"/>
</g>
<!-- Node3 -->
<g id="node3" class="node">
<title>Node3</title>
<g id="a_node3"><a xlink:href="playback__generator_8h.html" target="_top" xlink:title=" ">
<polygon fill="white" stroke="black" points="107.72,-128.05 107.72,-160.05 204.85,-160.05 204.85,-128.05 107.72,-128.05"/>
<text text-anchor="start" x="115.72" y="-147.05" font-family="Helvetica,sans-Serif" font-size="10.00">stadls/vx/playback</text>
<text text-anchor="middle" x="156.29" y="-135.05" font-family="Helvetica,sans-Serif" font-size="10.00">_generator.h</text>
</a>
</g>
</g>
<!-- Node1&#45;&gt;Node3 -->
<g id="edge3" class="edge">
<title>Node1&#45;&gt;Node3</title>
<path fill="none" stroke="midnightblue" d="M212.38,-448.77C196.12,-419.65 176.29,-375.63 176.29,-334.05 176.29,-334.05 176.29,-334.05 176.29,-269.05 176.29,-234.33 168.55,-194.82 162.7,-169.92"/>
<polygon fill="midnightblue" stroke="midnightblue" points="166.1,-169.09 160.33,-160.2 159.29,-170.74 166.1,-169.09"/>
</g>
<!-- Node7 -->
<g id="node7" class="node">
<title>Node7</title>
<g id="a_node7"><a xlink:href="v2_2playback__program__builder_8h.html" target="_top" xlink:title=" ">
<polygon fill="white" stroke="black" points="605.05,-380.05 605.05,-412.05 715.52,-412.05 715.52,-380.05 605.05,-380.05"/>
<text text-anchor="start" x="613.05" y="-399.05" font-family="Helvetica,sans-Serif" font-size="10.00">stadls/vx/v2/playback</text>
<text text-anchor="middle" x="660.29" y="-387.05" font-family="Helvetica,sans-Serif" font-size="10.00">_program_builder.h</text>
</a>
</g>
</g>
<!-- Node1&#45;&gt;Node7 -->
<g id="edge8" class="edge">
<title>Node1&#45;&gt;Node7</title>
<path fill="none" stroke="midnightblue" d="M323.84,-464.03C405.09,-447.85 522.38,-424.51 594.84,-410.08"/>
<polygon fill="midnightblue" stroke="midnightblue" points="595.63,-413.49 604.76,-408.11 594.27,-406.63 595.63,-413.49"/>
</g>
<!-- Node2&#45;&gt;Node2 -->
<g id="edge2" class="edge">
<title>Node2&#45;&gt;Node2</title>
<path fill="none" stroke="midnightblue" d="M881.79,-22.11C904.28,-26 927.36,-22.65 927.36,-12.05 927.36,-3.03 910.62,0.74 891.77,-0.74"/>
<polygon fill="midnightblue" stroke="midnightblue" points="891.28,2.72 881.79,-1.99 892.15,-4.22 891.28,2.72"/>
</g>
<!-- Node3&#45;&gt;Node2 -->
<g id="edge7" class="edge">
<title>Node3&#45;&gt;Node2</title>
<path fill="none" stroke="midnightblue" d="M162.62,-127.98C171.85,-108.16 191.04,-74.02 219.29,-58.55 268.16,-31.79 634.59,-18.94 787.05,-14.7"/>
<polygon fill="midnightblue" stroke="midnightblue" points="787.31,-18.19 797.21,-14.42 787.12,-11.2 787.31,-18.19"/>
</g>
<!-- Node4 -->
<g id="node4" class="node">
<title>Node4</title>
<g id="a_node4"><a xlink:title=" ">
<polygon fill="white" stroke="#bfbfbf" points="0,-65.05 0,-85.05 56.57,-85.05 56.57,-65.05 0,-65.05"/>
<text text-anchor="middle" x="28.29" y="-72.05" font-family="Helvetica,sans-Serif" font-size="10.00">hate/nil.h</text>
</a>
</g>
</g>
<!-- Node3&#45;&gt;Node4 -->
<g id="edge4" class="edge">
<title>Node3&#45;&gt;Node4</title>
<path fill="none" stroke="midnightblue" d="M127.56,-128.02C105.7,-116.57 75.85,-100.95 54.61,-89.83"/>
<polygon fill="midnightblue" stroke="midnightblue" points="56,-86.61 45.51,-85.07 52.75,-92.81 56,-86.61"/>
</g>
<!-- Node5 -->
<g id="node5" class="node">
<title>Node5</title>
<g id="a_node5"><a xlink:title=" ">
<polygon fill="white" stroke="#bfbfbf" points="74.94,-65.05 74.94,-85.05 167.63,-85.05 167.63,-65.05 74.94,-65.05"/>
<text text-anchor="middle" x="121.29" y="-72.05" font-family="Helvetica,sans-Serif" font-size="10.00">hate/type_traits.h</text>
</a>
</g>
</g>
<!-- Node3&#45;&gt;Node5 -->
<g id="edge5" class="edge">
<title>Node3&#45;&gt;Node5</title>
<path fill="none" stroke="midnightblue" d="M148.34,-127.85C143.15,-117.9 136.33,-104.85 130.84,-94.33"/>
<polygon fill="midnightblue" stroke="midnightblue" points="133.8,-92.46 126.07,-85.22 127.6,-95.7 133.8,-92.46"/>
</g>
<!-- Node6 -->
<g id="node6" class="node">
<title>Node6</title>
<g id="a_node6"><a xlink:title=" ">
<polygon fill="white" stroke="#bfbfbf" points="938.78,-65.05 938.78,-85.05 1019.79,-85.05 1019.79,-65.05 938.78,-65.05"/>
<text text-anchor="middle" x="979.29" y="-72.05" font-family="Helvetica,sans-Serif" font-size="10.00">hate/visibility.h</text>
</a>
</g>
</g>
<!-- Node3&#45;&gt;Node6 -->
<g id="edge6" class="edge">
<title>Node3&#45;&gt;Node6</title>
<path fill="none" stroke="midnightblue" d="M205,-139.09C350.34,-127.25 779.98,-92.28 928.27,-80.21"/>
<polygon fill="midnightblue" stroke="midnightblue" points="928.77,-83.68 938.45,-79.38 928.2,-76.7 928.77,-83.68"/>
</g>
<!-- Node7&#45;&gt;Node2 -->
<g id="edge12" class="edge">
<title>Node7&#45;&gt;Node2</title>
<path fill="none" stroke="midnightblue" d="M604.97,-394.43C541.97,-391.78 437.28,-381.39 356.29,-343.55 311.3,-322.54 271.29,-320.71 271.29,-271.05 271.29,-271.05 271.29,-271.05 271.29,-143.05 271.29,-38.43 634.03,-17.98 786.76,-14"/>
<polygon fill="midnightblue" stroke="midnightblue" points="787.04,-17.5 796.95,-13.75 786.87,-10.5 787.04,-17.5"/>
</g>
<!-- Node8 -->
<g id="node8" class="node">
<title>Node8</title>
<g id="a_node8"><a xlink:title=" ">
<polygon fill="white" stroke="#bfbfbf" points="471.61,-65.05 471.61,-85.05 580.96,-85.05 580.96,-65.05 471.61,-65.05"/>
<text text-anchor="middle" x="526.29" y="-72.05" font-family="Helvetica,sans-Serif" font-size="10.00">haldls/cerealization.h</text>
</a>
</g>
</g>
<!-- Node7&#45;&gt;Node8 -->
<g id="edge9" class="edge">
<title>Node7&#45;&gt;Node8</title>
<path fill="none" stroke="midnightblue" d="M604.67,-387.19C505.7,-371.62 309.29,-332.93 309.29,-271.05 309.29,-271.05 309.29,-271.05 309.29,-206.05 309.29,-134.35 397.55,-101.23 461.49,-86.64"/>
<polygon fill="midnightblue" stroke="midnightblue" points="462.5,-90.01 471.53,-84.46 461.01,-83.17 462.5,-90.01"/>
</g>
<!-- Node9 -->
<g id="node9" class="node">
<title>Node9</title>
<g id="a_node9"><a xlink:title=" ">
<polygon fill="white" stroke="#bfbfbf" points="375.05,-197.05 375.05,-217.05 495.52,-217.05 495.52,-197.05 375.05,-197.05"/>
<text text-anchor="middle" x="435.29" y="-204.05" font-family="Helvetica,sans-Serif" font-size="10.00">haldls/vx/v2/container.h</text>
</a>
</g>
</g>
<!-- Node7&#45;&gt;Node9 -->
<g id="edge10" class="edge">
<title>Node7&#45;&gt;Node9</title>
<path fill="none" stroke="midnightblue" d="M641.87,-379.75C599.75,-344.74 496.72,-259.11 454.16,-223.74"/>
<polygon fill="midnightblue" stroke="midnightblue" points="456.19,-220.88 446.26,-217.18 451.72,-226.26 456.19,-220.88"/>
</g>
<!-- Node10 -->
<g id="node10" class="node">
<title>Node10</title>
<g id="a_node10"><a xlink:title=" ">
<polygon fill="white" stroke="#bfbfbf" points="1073.33,-197.05 1073.33,-217.05 1183.24,-217.05 1183.24,-197.05 1073.33,-197.05"/>
<text text-anchor="middle" x="1128.29" y="-204.05" font-family="Helvetica,sans-Serif" font-size="10.00">lola/vx/v2/container.h</text>
</a>
</g>
</g>
<!-- Node7&#45;&gt;Node10 -->
<g id="edge11" class="edge">
<title>Node7&#45;&gt;Node10</title>
<path fill="none" stroke="midnightblue" d="M715.66,-394.9C780.21,-392.73 888.69,-382.84 972.29,-343.55 1033.75,-314.66 1089.62,-254.4 1114.55,-224.97"/>
<polygon fill="midnightblue" stroke="midnightblue" points="1117.3,-227.13 1121.01,-217.21 1111.92,-222.66 1117.3,-227.13"/>
</g>
<!-- Node11 -->
<g id="node11" class="node">
<title>Node11</title>
<g id="a_node11"><a xlink:href="playback__program__builder_8h.html" target="_top" xlink:title=" ">
<polygon fill="white" stroke="black" points="1575.94,-254.05 1575.94,-286.05 1678.63,-286.05 1678.63,-254.05 1575.94,-254.05"/>
<text text-anchor="start" x="1583.94" y="-273.05" font-family="Helvetica,sans-Serif" font-size="10.00">stadls/vx/playback</text>
<text text-anchor="middle" x="1627.29" y="-261.05" font-family="Helvetica,sans-Serif" font-size="10.00">_program_builder.h</text>
</a>
</g>
</g>
<!-- Node7&#45;&gt;Node11 -->
<g id="edge13" class="edge">
<title>Node7&#45;&gt;Node11</title>
<path fill="none" stroke="midnightblue" d="M715.61,-392.72C824.17,-387.65 1072.52,-373.58 1279.29,-343.55 1380.57,-328.84 1496.67,-302.77 1565.89,-286.22"/>
<polygon fill="midnightblue" stroke="midnightblue" points="1566.85,-289.59 1575.75,-283.85 1565.21,-282.79 1566.85,-289.59"/>
</g>
<!-- Node36 -->
<g id="node36" class="node">
<title>Node36</title>
<g id="a_node36"><a xlink:href="v2_2coordinate__to__container_8h.html" target="_top" xlink:title=" ">
<polygon fill="white" stroke="black" points="664.44,-254.05 664.44,-286.05 782.13,-286.05 782.13,-254.05 664.44,-254.05"/>
<text text-anchor="start" x="672.44" y="-273.05" font-family="Helvetica,sans-Serif" font-size="10.00">stadls/vx/v2/coordinate</text>
<text text-anchor="middle" x="723.29" y="-261.05" font-family="Helvetica,sans-Serif" font-size="10.00">_to_container.h</text>
</a>
</g>
</g>
<!-- Node7&#45;&gt;Node36 -->
<g id="edge51" class="edge">
<title>Node7&#45;&gt;Node36</title>
<path fill="none" stroke="midnightblue" d="M668.01,-379.85C678.68,-358.84 698.07,-320.69 710.81,-295.61"/>
<polygon fill="midnightblue" stroke="midnightblue" points="714.09,-296.88 715.5,-286.38 707.85,-293.71 714.09,-296.88"/>
</g>
<!-- Node37 -->
<g id="node37" class="node">
<title>Node37</title>
<g id="a_node37"><a xlink:title=" ">
<polygon fill="white" stroke="#bfbfbf" points="1200.88,-197.05 1200.88,-217.05 1329.69,-217.05 1329.69,-197.05 1200.88,-197.05"/>
<text text-anchor="middle" x="1265.29" y="-204.05" font-family="Helvetica,sans-Serif" font-size="10.00">haldls/vx/v2/container.def</text>
</a>
</g>
</g>
<!-- Node7&#45;&gt;Node37 -->
<g id="edge81" class="edge">
<title>Node7&#45;&gt;Node37</title>
<path fill="none" stroke="midnightblue" d="M715.78,-392.37C784.87,-387.76 905.78,-375.51 1004.29,-343.55 1098.59,-312.96 1200,-250.81 1243.48,-222.59"/>
<polygon fill="midnightblue" stroke="midnightblue" points="1245.4,-225.51 1251.85,-217.1 1241.57,-219.65 1245.4,-225.51"/>
</g>
<!-- Node38 -->
<g id="node38" class="node">
<title>Node38</title>
<g id="a_node38"><a xlink:title=" ">
<polygon fill="white" stroke="#bfbfbf" points="551.16,-197.05 551.16,-217.05 669.41,-217.05 669.41,-197.05 551.16,-197.05"/>
<text text-anchor="middle" x="610.29" y="-204.05" font-family="Helvetica,sans-Serif" font-size="10.00">lola/vx/v2/container.def</text>
</a>
</g>
</g>
<!-- Node7&#45;&gt;Node38 -->
<g id="edge82" class="edge">
<title>Node7&#45;&gt;Node38</title>
<path fill="none" stroke="midnightblue" d="M656.19,-379.75C647.15,-345.92 625.46,-264.81 615.48,-227.47"/>
<polygon fill="midnightblue" stroke="midnightblue" points="618.74,-226.14 612.78,-217.39 611.98,-227.95 618.74,-226.14"/>
</g>
<!-- Node39 -->
<g id="node39" class="node">
<title>Node39</title>
<g id="a_node39"><a xlink:href="v2_2dumper_8h.html" target="_top" xlink:title=" ">
<polygon fill="white" stroke="black" points="849.66,-323.05 849.66,-343.05 962.91,-343.05 962.91,-323.05 849.66,-323.05"/>
<text text-anchor="middle" x="906.29" y="-330.05" font-family="Helvetica,sans-Serif" font-size="10.00">stadls/vx/v2/dumper.h</text>
</a>
</g>
</g>
<!-- Node7&#45;&gt;Node39 -->
<g id="edge57" class="edge">
<title>Node7&#45;&gt;Node39</title>
<path fill="none" stroke="midnightblue" d="M715.8,-381.29C759.26,-370.51 819.01,-355.69 859.93,-345.55"/>
<polygon fill="midnightblue" stroke="midnightblue" points="860.79,-348.94 869.65,-343.14 859.11,-342.15 860.79,-348.94"/>
</g>
<!-- Node11&#45;&gt;Node2 -->
<g id="edge49" class="edge">
<title>Node11&#45;&gt;Node2</title>
<path fill="none" stroke="midnightblue" d="M1629.04,-253.68C1631.47,-223.96 1631.93,-158.82 1594.29,-127.55 1521.21,-66.84 1255.8,-128.52 1168.29,-91.55 1147.68,-82.85 1150.53,-68.06 1130.29,-58.55 1063.08,-27 977.76,-16.89 919.69,-13.87"/>
<polygon fill="midnightblue" stroke="midnightblue" points="919.68,-10.37 909.53,-13.4 919.36,-17.36 919.68,-10.37"/>
</g>
<!-- Node11&#45;&gt;Node6 -->
<g id="edge20" class="edge">
<title>Node11&#45;&gt;Node6</title>
<path fill="none" stroke="midnightblue" d="M1623.37,-253.93C1614.46,-220.72 1591.73,-143.09 1570.29,-127.55 1521.41,-92.14 1087.6,-102.73 1028.29,-91.55 1023.5,-90.65 1018.52,-89.43 1013.65,-88.06"/>
<polygon fill="midnightblue" stroke="midnightblue" points="1014.5,-84.66 1003.92,-85.11 1012.47,-91.36 1014.5,-84.66"/>
</g>
<!-- Node12 -->
<g id="node12" class="node">
<title>Node12</title>
<g id="a_node12"><a xlink:title=" ">
<polygon fill="white" stroke="#bfbfbf" points="1655.12,-197.05 1655.12,-217.05 1699.45,-217.05 1699.45,-197.05 1655.12,-197.05"/>
<text text-anchor="middle" x="1677.29" y="-204.05" font-family="Helvetica,sans-Serif" font-size="10.00">iosfwd</text>
</a>
</g>
</g>
<!-- Node11&#45;&gt;Node12 -->
<g id="edge14" class="edge">
<title>Node11&#45;&gt;Node12</title>
<path fill="none" stroke="midnightblue" d="M1639.64,-253.97C1646.83,-245.2 1655.91,-234.13 1663.35,-225.05"/>
<polygon fill="midnightblue" stroke="midnightblue" points="1666.24,-227.05 1669.87,-217.1 1660.82,-222.61 1666.24,-227.05"/>
</g>
<!-- Node13 -->
<g id="node13" class="node">
<title>Node13</title>
<g id="a_node13"><a xlink:title=" ">
<polygon fill="white" stroke="#bfbfbf" points="2186.23,-65.05 2186.23,-85.05 2238.34,-85.05 2238.34,-65.05 2186.23,-65.05"/>
<text text-anchor="middle" x="2212.28" y="-72.05" font-family="Helvetica,sans-Serif" font-size="10.00">memory</text>
</a>
</g>
</g>
<!-- Node11&#45;&gt;Node13 -->
<g id="edge15" class="edge">
<title>Node11&#45;&gt;Node13</title>
<path fill="none" stroke="midnightblue" d="M1662.73,-253.92C1681.93,-244.84 1705.5,-232.22 1724.29,-217.55 1766.7,-184.43 1757.24,-151.79 1805.29,-127.55 1953.59,-52.74 2016.62,-133.72 2177.28,-91.55 2179.96,-90.85 2182.7,-89.96 2185.4,-88.97"/>
<polygon fill="midnightblue" stroke="midnightblue" points="2186.96,-92.12 2194.88,-85.07 2184.3,-85.64 2186.96,-92.12"/>
</g>
<!-- Node14 -->
<g id="node14" class="node">
<title>Node14</title>
<g id="a_node14"><a xlink:title=" ">
<polygon fill="white" stroke="#bfbfbf" points="1847.05,-197.05 1847.05,-217.05 1927.52,-217.05 1927.52,-197.05 1847.05,-197.05"/>
<text text-anchor="middle" x="1887.29" y="-204.05" font-family="Helvetica,sans-Serif" font-size="10.00">unordered_set</text>
</a>
</g>
</g>
<!-- Node11&#45;&gt;Node14 -->
<g id="edge16" class="edge">
<title>Node11&#45;&gt;Node14</title>
<path fill="none" stroke="midnightblue" d="M1678.65,-257C1725.16,-246.09 1793.16,-230.13 1838.76,-219.44"/>
<polygon fill="midnightblue" stroke="midnightblue" points="1839.77,-222.8 1848.71,-217.1 1838.17,-215.98 1839.77,-222.8"/>
</g>
<!-- Node15 -->
<g id="node15" class="node">
<title>Node15</title>
<g id="a_node15"><a xlink:title=" ">
<polygon fill="white" stroke="#bfbfbf" points="1082.78,-128.05 1082.78,-160.05 1183.79,-160.05 1183.79,-128.05 1082.78,-128.05"/>
<text text-anchor="start" x="1090.78" y="-147.05" font-family="Helvetica,sans-Serif" font-size="10.00">halco/hicann&#45;dls/vx</text>
<text text-anchor="middle" x="1133.29" y="-135.05" font-family="Helvetica,sans-Serif" font-size="10.00">/barrier.h</text>
</a>
</g>
</g>
<!-- Node11&#45;&gt;Node15 -->
<g id="edge17" class="edge">
<title>Node11&#45;&gt;Node15</title>
<path fill="none" stroke="midnightblue" d="M1575.89,-261C1530.94,-253.01 1464.43,-238.84 1409.29,-217.55 1391.28,-210.6 1389.4,-203.21 1371.29,-196.55 1298.49,-169.8 1273.86,-177.93 1194,-160.6"/>
<polygon fill="midnightblue" stroke="midnightblue" points="1194.5,-157.12 1183.98,-158.35 1192.97,-163.95 1194.5,-157.12"/>
</g>
<!-- Node16 -->
<g id="node16" class="node">
<title>Node16</title>
<g id="a_node16"><a xlink:title=" ">
<polygon fill="white" stroke="#bfbfbf" points="1201.84,-134.05 1201.84,-154.05 1296.73,-154.05 1296.73,-134.05 1201.84,-134.05"/>
<text text-anchor="middle" x="1249.29" y="-141.05" font-family="Helvetica,sans-Serif" font-size="10.00">haldls/vx/barrier.h</text>
</a>
</g>
</g>
<!-- Node11&#45;&gt;Node16 -->
<g id="edge18" class="edge">
<title>Node11&#45;&gt;Node16</title>
<path fill="none" stroke="midnightblue" d="M1575.6,-256.29C1540.35,-247 1492.88,-233.31 1452.29,-217.55 1432.46,-209.86 1429.01,-204.5 1409.29,-196.55 1370.16,-180.8 1324.21,-166.41 1291.61,-156.88"/>
<polygon fill="midnightblue" stroke="midnightblue" points="1292.52,-153.5 1281.95,-154.08 1290.58,-160.22 1292.52,-153.5"/>
</g>
<!-- Node17 -->
<g id="node17" class="node">
<title>Node17</title>
<g id="a_node17"><a xlink:title=" ">
<polygon fill="white" stroke="#bfbfbf" points="2256.11,-65.05 2256.11,-85.05 2360.46,-85.05 2360.46,-65.05 2256.11,-65.05"/>
<text text-anchor="middle" x="2308.28" y="-72.05" font-family="Helvetica,sans-Serif" font-size="10.00">haldls/vx/common.h</text>
</a>
</g>
</g>
<!-- Node11&#45;&gt;Node17 -->
<g id="edge19" class="edge">
<title>Node11&#45;&gt;Node17</title>
<path fill="none" stroke="midnightblue" d="M1667.82,-254.04C1710.07,-238.66 1778.36,-214.5 1838.29,-196.55 1858.99,-190.35 2148.77,-116.6 2262.73,-87.63"/>
<polygon fill="midnightblue" stroke="midnightblue" points="2263.72,-90.99 2272.55,-85.13 2262,-84.2 2263.72,-90.99"/>
</g>
<!-- Node18 -->
<g id="node18" class="node">
<title>Node18</title>
<g id="a_node18"><a xlink:title=" ">
<polygon fill="white" stroke="#bfbfbf" points="2378.67,-65.05 2378.67,-85.05 2481.9,-85.05 2481.9,-65.05 2378.67,-65.05"/>
<text text-anchor="middle" x="2430.28" y="-72.05" font-family="Helvetica,sans-Serif" font-size="10.00">hxcomm/vx/target.h</text>
</a>
</g>
</g>
<!-- Node11&#45;&gt;Node18 -->
<g id="edge21" class="edge">
<title>Node11&#45;&gt;Node18</title>
<path fill="none" stroke="midnightblue" d="M1678.75,-262.3C1740.37,-253.8 1846.5,-237.82 1936.29,-217.55 2109.42,-178.46 2311.81,-114.67 2393.42,-88.18"/>
<polygon fill="midnightblue" stroke="midnightblue" points="2394.56,-91.49 2402.99,-85.06 2392.39,-84.83 2394.56,-91.49"/>
</g>
<!-- Node19 -->
<g id="node19" class="node">
<title>Node19</title>
<g id="a_node19"><a xlink:href="dumper_8h.html" target="_top" xlink:title=" ">
<polygon fill="white" stroke="black" points="1461.33,-197.05 1461.33,-217.05 1561.24,-217.05 1561.24,-197.05 1461.33,-197.05"/>
<text text-anchor="middle" x="1511.29" y="-204.05" font-family="Helvetica,sans-Serif" font-size="10.00">stadls/vx/dumper.h</text>
</a>
</g>
</g>
<!-- Node11&#45;&gt;Node19 -->
<g id="edge22" class="edge">
<title>Node11&#45;&gt;Node19</title>
<path fill="none" stroke="midnightblue" d="M1598.61,-253.97C1579.87,-244.12 1555.59,-231.35 1537.39,-221.78"/>
<polygon fill="midnightblue" stroke="midnightblue" points="1538.97,-218.65 1528.49,-217.1 1535.71,-224.85 1538.97,-218.65"/>
</g>
<!-- Node23 -->
<g id="node23" class="node">
<title>Node23</title>
<g id="a_node23"><a xlink:href="playback__program_8h.html" target="_top" xlink:title=" ">
<polygon fill="white" stroke="black" points="1655.72,-128.05 1655.72,-160.05 1752.85,-160.05 1752.85,-128.05 1655.72,-128.05"/>
<text text-anchor="start" x="1663.72" y="-147.05" font-family="Helvetica,sans-Serif" font-size="10.00">stadls/vx/playback</text>
<text text-anchor="middle" x="1704.29" y="-135.05" font-family="Helvetica,sans-Serif" font-size="10.00">_program.h</text>
</a>
</g>
</g>
<!-- Node11&#45;&gt;Node23 -->
<g id="edge50" class="edge">
<title>Node11&#45;&gt;Node23</title>
<path fill="none" stroke="midnightblue" d="M1666.81,-254.03C1682.67,-245.81 1699.3,-233.91 1708.29,-217.55 1716.15,-203.24 1715.03,-184.84 1712,-170.17"/>
<polygon fill="midnightblue" stroke="midnightblue" points="1715.35,-169.12 1709.56,-160.25 1708.55,-170.79 1715.35,-169.12"/>
</g>
<!-- Node19&#45;&gt;Node6 -->
<g id="edge28" class="edge">
<title>Node19&#45;&gt;Node6</title>
<path fill="none" stroke="midnightblue" d="M1461.31,-198.61C1426.69,-192.03 1380.35,-180.31 1343.29,-160.55 1323.55,-150.03 1325.69,-136.72 1305.29,-127.55 1192.04,-76.68 1149.5,-118.38 1028.29,-91.55 1023.85,-90.57 1019.25,-89.37 1014.71,-88.07"/>
<polygon fill="midnightblue" stroke="midnightblue" points="1015.58,-84.67 1004.99,-85.12 1013.55,-91.37 1015.58,-84.67"/>
</g>
<!-- Node19&#45;&gt;Node15 -->
<g id="edge23" class="edge">
<title>Node19&#45;&gt;Node15</title>
<path fill="none" stroke="midnightblue" d="M1461.15,-200.62C1400.27,-193.63 1294.32,-180.24 1193.94,-160.55"/>
<polygon fill="midnightblue" stroke="midnightblue" points="1194.42,-157.07 1183.93,-158.56 1193.06,-163.94 1194.42,-157.07"/>
</g>
<!-- Node19&#45;&gt;Node16 -->
<g id="edge25" class="edge">
<title>Node19&#45;&gt;Node16</title>
<path fill="none" stroke="midnightblue" d="M1470.02,-197.04C1429.34,-188.08 1365.43,-173.8 1310.29,-160.55 1304.97,-159.28 1299.41,-157.91 1293.89,-156.53"/>
<polygon fill="midnightblue" stroke="midnightblue" points="1294.64,-153.11 1284.08,-154.06 1292.93,-159.9 1294.64,-153.11"/>
</g>
<!-- Node20 -->
<g id="node20" class="node">
<title>Node20</title>
<g id="a_node20"><a xlink:title=" ">
<polygon fill="white" stroke="#bfbfbf" points="1352.78,-128.05 1352.78,-160.05 1453.79,-160.05 1453.79,-128.05 1352.78,-128.05"/>
<text text-anchor="start" x="1360.78" y="-147.05" font-family="Helvetica,sans-Serif" font-size="10.00">halco/hicann&#45;dls/vx</text>
<text text-anchor="middle" x="1403.29" y="-135.05" font-family="Helvetica,sans-Serif" font-size="10.00">/omnibus.h</text>
</a>
</g>
</g>
<!-- Node19&#45;&gt;Node20 -->
<g id="edge24" class="edge">
<title>Node19&#45;&gt;Node20</title>
<path fill="none" stroke="midnightblue" d="M1495.35,-197.05C1480.56,-188.7 1458.02,-175.96 1438.94,-165.19"/>
<polygon fill="midnightblue" stroke="midnightblue" points="1440.61,-162.11 1430.18,-160.24 1437.17,-168.21 1440.61,-162.11"/>
</g>
<!-- Node21 -->
<g id="node21" class="node">
<title>Node21</title>
<g id="a_node21"><a xlink:title=" ">
<polygon fill="white" stroke="#bfbfbf" points="1471.61,-134.05 1471.61,-154.05 1560.96,-154.05 1560.96,-134.05 1471.61,-134.05"/>
<text text-anchor="middle" x="1516.29" y="-141.05" font-family="Helvetica,sans-Serif" font-size="10.00">haldls/vx/block.h</text>
</a>
</g>
</g>
<!-- Node19&#45;&gt;Node21 -->
<g id="edge26" class="edge">
<title>Node19&#45;&gt;Node21</title>
<path fill="none" stroke="midnightblue" d="M1512.02,-197.05C1512.72,-188.49 1513.8,-175.34 1514.7,-164.4"/>
<polygon fill="midnightblue" stroke="midnightblue" points="1518.22,-164.34 1515.54,-154.09 1511.24,-163.77 1518.22,-164.34"/>
</g>
<!-- Node22 -->
<g id="node22" class="node">
<title>Node22</title>
<g id="a_node22"><a xlink:title=" ">
<polygon fill="white" stroke="#bfbfbf" points="938.17,-134.05 938.17,-154.05 1026.4,-154.05 1026.4,-134.05 938.17,-134.05"/>
<text text-anchor="middle" x="982.29" y="-141.05" font-family="Helvetica,sans-Serif" font-size="10.00">haldls/vx/timer.h</text>
</a>
</g>
</g>
<!-- Node19&#45;&gt;Node22 -->
<g id="edge27" class="edge">
<title>Node19&#45;&gt;Node22</title>
<path fill="none" stroke="midnightblue" d="M1461.24,-201.92C1379.75,-194.96 1213.41,-179.74 1073.29,-160.55 1061.38,-158.92 1048.64,-156.92 1036.57,-154.89"/>
<polygon fill="midnightblue" stroke="midnightblue" points="1037.08,-151.43 1026.63,-153.2 1035.9,-158.33 1037.08,-151.43"/>
</g>
<!-- Node19&#45;&gt;Node23 -->
<g id="edge29" class="edge">
<title>Node19&#45;&gt;Node23</title>
<path fill="none" stroke="midnightblue" d="M1539.76,-197.05C1567.85,-188.18 1611.57,-174.36 1646.88,-163.2"/>
<polygon fill="midnightblue" stroke="midnightblue" points="1648.12,-166.48 1656.6,-160.12 1646.01,-159.8 1648.12,-166.48"/>
</g>
<!-- Node23&#45;&gt;Node2 -->
<g id="edge45" class="edge">
<title>Node23&#45;&gt;Node2</title>
<path fill="none" stroke="midnightblue" d="M1655.59,-130.33C1650.78,-129.3 1645.95,-128.35 1641.29,-127.55 1477.1,-99.58 1421.32,-157.28 1268.29,-91.55 1247.73,-82.73 1250.73,-67.62 1230.29,-58.55 1176.19,-34.55 1012.58,-21.84 919.64,-16.38"/>
<polygon fill="midnightblue" stroke="midnightblue" points="919.68,-12.88 909.5,-15.8 919.28,-19.87 919.68,-12.88"/>
</g>
<!-- Node23&#45;&gt;Node6 -->
<g id="edge43" class="edge">
<title>Node23&#45;&gt;Node6</title>
<path fill="none" stroke="midnightblue" d="M1655.6,-134.68C1639.04,-132.07 1620.39,-129.4 1603.29,-127.55 1348.7,-100.1 1280,-138.51 1028.29,-91.55 1023.49,-90.66 1018.52,-89.44 1013.65,-88.08"/>
<polygon fill="midnightblue" stroke="midnightblue" points="1014.5,-84.68 1003.91,-85.13 1012.47,-91.38 1014.5,-84.68"/>
</g>
<!-- Node23&#45;&gt;Node8 -->
<g id="edge39" class="edge">
<title>Node23&#45;&gt;Node8</title>
<path fill="none" stroke="midnightblue" d="M1655.67,-136.65C1630.27,-133.5 1598.64,-129.89 1570.29,-127.55 1378.61,-111.76 788.66,-86.81 591.33,-78.7"/>
<polygon fill="midnightblue" stroke="midnightblue" points="591.26,-75.19 581.12,-78.28 590.97,-82.19 591.26,-75.19"/>
</g>
<!-- Node23&#45;&gt;Node13 -->
<g id="edge31" class="edge">
<title>Node23&#45;&gt;Node13</title>
<path fill="none" stroke="midnightblue" d="M1752.97,-130.29C1757.79,-129.26 1762.62,-128.33 1767.29,-127.55 1947.74,-97.61 2000.15,-137.21 2177.28,-91.55 2179.97,-90.86 2182.7,-89.98 2185.41,-89"/>
<polygon fill="midnightblue" stroke="midnightblue" points="2186.97,-92.14 2194.89,-85.11 2184.31,-85.67 2186.97,-92.14"/>
</g>
<!-- Node23&#45;&gt;Node17 -->
<g id="edge40" class="edge">
<title>Node23&#45;&gt;Node17</title>
<path fill="none" stroke="midnightblue" d="M1752.99,-134.86C1769.55,-132.27 1788.19,-129.56 1805.29,-127.55 2001.04,-104.59 2052.87,-123.94 2247.28,-91.55 2253.65,-90.49 2260.33,-89.1 2266.83,-87.58"/>
<polygon fill="midnightblue" stroke="midnightblue" points="2267.96,-90.9 2276.84,-85.11 2266.29,-84.1 2267.96,-90.9"/>
</g>
<!-- Node23&#45;&gt;Node18 -->
<g id="edge44" class="edge">
<title>Node23&#45;&gt;Node18</title>
<path fill="none" stroke="midnightblue" d="M1753.02,-142.13C1863.42,-139.43 2140.76,-129.15 2369.28,-91.55 2375.72,-90.49 2382.48,-89.08 2389.05,-87.55"/>
<polygon fill="midnightblue" stroke="midnightblue" points="2390.28,-90.85 2399.16,-85.06 2388.61,-84.05 2390.28,-90.85"/>
</g>
<!-- Node24 -->
<g id="node24" class="node">
<title>Node24</title>
<g id="a_node24"><a xlink:title=" ">
<polygon fill="white" stroke="#bfbfbf" points="2008.84,-65.05 2008.84,-85.05 2053.73,-85.05 2053.73,-65.05 2008.84,-65.05"/>
<text text-anchor="middle" x="2031.29" y="-72.05" font-family="Helvetica,sans-Serif" font-size="10.00">cstdint</text>
</a>
</g>
</g>
<!-- Node23&#45;&gt;Node24 -->
<g id="edge30" class="edge">
<title>Node23&#45;&gt;Node24</title>
<path fill="none" stroke="midnightblue" d="M1753.03,-130.61C1757.83,-129.52 1762.65,-128.48 1767.29,-127.55 1869.6,-107.07 1899.68,-122.64 1999.29,-91.55 2001.44,-90.88 2003.63,-90.08 2005.81,-89.21"/>
<polygon fill="midnightblue" stroke="midnightblue" points="2007.37,-92.35 2015.06,-85.06 2004.5,-85.96 2007.37,-92.35"/>
</g>
<!-- Node25 -->
<g id="node25" class="node">
<title>Node25</title>
<g id="a_node25"><a xlink:title=" ">
<polygon fill="white" stroke="#bfbfbf" points="1277.78,-65.05 1277.78,-85.05 1328.79,-85.05 1328.79,-65.05 1277.78,-65.05"/>
<text text-anchor="middle" x="1303.29" y="-72.05" font-family="Helvetica,sans-Serif" font-size="10.00">optional</text>
</a>
</g>
</g>
<!-- Node23&#45;&gt;Node25 -->
<g id="edge32" class="edge">
<title>Node23&#45;&gt;Node25</title>
<path fill="none" stroke="midnightblue" d="M1655.57,-130.44C1650.76,-129.38 1645.94,-128.4 1641.29,-127.55 1507.86,-103.31 1469.07,-127.41 1338.29,-91.55 1335.67,-90.84 1333,-89.95 1330.36,-88.98"/>
<polygon fill="midnightblue" stroke="midnightblue" points="1331.65,-85.72 1321.07,-85.16 1328.99,-92.2 1331.65,-85.72"/>
</g>
<!-- Node26 -->
<g id="node26" class="node">
<title>Node26</title>
<g id="a_node26"><a xlink:title=" ">
<polygon fill="white" stroke="#bfbfbf" points="1347.06,-65.05 1347.06,-85.05 1387.51,-85.05 1387.51,-65.05 1347.06,-65.05"/>
<text text-anchor="middle" x="1367.29" y="-72.05" font-family="Helvetica,sans-Serif" font-size="10.00">string</text>
</a>
</g>
</g>
<!-- Node23&#45;&gt;Node26 -->
<g id="edge33" class="edge">
<title>Node23&#45;&gt;Node26</title>
<path fill="none" stroke="midnightblue" d="M1655.55,-130.58C1650.74,-129.49 1645.93,-128.46 1641.29,-127.55 1533.72,-106.43 1501.62,-125.17 1397.29,-91.55 1395.4,-90.95 1393.49,-90.23 1391.6,-89.44"/>
<polygon fill="midnightblue" stroke="midnightblue" points="1392.97,-86.22 1382.43,-85.11 1389.98,-92.55 1392.97,-86.22"/>
</g>
<!-- Node27 -->
<g id="node27" class="node">
<title>Node27</title>
<g id="a_node27"><a xlink:title=" ">
<polygon fill="white" stroke="#bfbfbf" points="1177.67,-65.05 1177.67,-85.05 1220.9,-85.05 1220.9,-65.05 1177.67,-65.05"/>
<text text-anchor="middle" x="1199.29" y="-72.05" font-family="Helvetica,sans-Serif" font-size="10.00">vector</text>
</a>
</g>
</g>
<!-- Node23&#45;&gt;Node27 -->
<g id="edge34" class="edge">
<title>Node23&#45;&gt;Node27</title>
<path fill="none" stroke="midnightblue" d="M1655.6,-130.29C1650.78,-129.27 1645.95,-128.33 1641.29,-127.55 1462.59,-97.83 1410.92,-135.93 1235.29,-91.55 1232.44,-90.83 1229.53,-89.92 1226.66,-88.89"/>
<polygon fill="midnightblue" stroke="midnightblue" points="1227.79,-85.57 1217.21,-85.1 1225.18,-92.07 1227.79,-85.57"/>
</g>
<!-- Node28 -->
<g id="node28" class="node">
<title>Node28</title>
<g id="a_node28"><a xlink:title=" ">
<polygon fill="white" stroke="#bfbfbf" points="1405.94,-65.05 1405.94,-85.05 1498.63,-85.05 1498.63,-65.05 1405.94,-65.05"/>
<text text-anchor="middle" x="1452.29" y="-72.05" font-family="Helvetica,sans-Serif" font-size="10.00">boost/variant.hpp</text>
</a>
</g>
</g>
<!-- Node23&#45;&gt;Node28 -->
<g id="edge35" class="edge">
<title>Node23&#45;&gt;Node28</title>
<path fill="none" stroke="midnightblue" d="M1655.64,-130.61C1615.73,-120.34 1557.78,-105.27 1507.29,-91.55 1502.91,-90.36 1498.35,-89.11 1493.8,-87.84"/>
<polygon fill="midnightblue" stroke="midnightblue" points="1494.53,-84.41 1483.96,-85.09 1492.65,-91.15 1494.53,-84.41"/>
</g>
<!-- Node29 -->
<g id="node29" class="node">
<title>Node29</title>
<g id="a_node29"><a xlink:title=" ">
<polygon fill="white" stroke="#bfbfbf" points="1516.67,-59.05 1516.67,-91.05 1609.9,-91.05 1609.9,-59.05 1516.67,-59.05"/>
<text text-anchor="start" x="1524.67" y="-78.05" font-family="Helvetica,sans-Serif" font-size="10.00">fisch/vx/container</text>
<text text-anchor="middle" x="1563.29" y="-66.05" font-family="Helvetica,sans-Serif" font-size="10.00">_cast.h</text>
</a>
</g>
</g>
<!-- Node23&#45;&gt;Node29 -->
<g id="edge36" class="edge">
<title>Node23&#45;&gt;Node29</title>
<path fill="none" stroke="midnightblue" d="M1672.64,-128.02C1652.56,-118.47 1626.35,-106.02 1604.63,-95.7"/>
<polygon fill="midnightblue" stroke="midnightblue" points="1605.84,-92.4 1595.31,-91.27 1602.84,-98.72 1605.84,-92.4"/>
</g>
<!-- Node30 -->
<g id="node30" class="node">
<title>Node30</title>
<g id="a_node30"><a xlink:title=" ">
<polygon fill="white" stroke="#bfbfbf" points="1627.67,-59.05 1627.67,-91.05 1720.9,-91.05 1720.9,-59.05 1627.67,-59.05"/>
<text text-anchor="start" x="1635.67" y="-78.05" font-family="Helvetica,sans-Serif" font-size="10.00">fisch/vx/container</text>
<text text-anchor="middle" x="1674.29" y="-66.05" font-family="Helvetica,sans-Serif" font-size="10.00">_ticket.h</text>
</a>
</g>
</g>
<!-- Node23&#45;&gt;Node30 -->
<g id="edge37" class="edge">
<title>Node23&#45;&gt;Node30</title>
<path fill="none" stroke="midnightblue" d="M1697.48,-127.85C1693.87,-119.8 1689.36,-109.71 1685.27,-100.58"/>
<polygon fill="midnightblue" stroke="midnightblue" points="1688.35,-98.89 1681.07,-91.2 1681.96,-101.75 1688.35,-98.89"/>
</g>
<!-- Node31 -->
<g id="node31" class="node">
<title>Node31</title>
<g id="a_node31"><a xlink:title=" ">
<polygon fill="white" stroke="#bfbfbf" points="1738.94,-65.05 1738.94,-85.05 1881.63,-85.05 1881.63,-65.05 1738.94,-65.05"/>
<text text-anchor="middle" x="1810.29" y="-72.05" font-family="Helvetica,sans-Serif" font-size="10.00">fisch/vx/playback_program.h</text>
</a>
</g>
</g>
<!-- Node23&#45;&gt;Node31 -->
<g id="edge38" class="edge">
<title>Node23&#45;&gt;Node31</title>
<path fill="none" stroke="midnightblue" d="M1728.07,-128.02C1745.85,-116.78 1770,-101.51 1787.53,-90.44"/>
<polygon fill="midnightblue" stroke="midnightblue" points="1789.43,-93.37 1796.02,-85.07 1785.69,-87.45 1789.43,-93.37"/>
</g>
<!-- Node32 -->
<g id="node32" class="node">
<title>Node32</title>
<g id="a_node32"><a xlink:title=" ">
<polygon fill="white" stroke="#bfbfbf" points="1900.05,-65.05 1900.05,-85.05 1990.52,-85.05 1990.52,-65.05 1900.05,-65.05"/>
<text text-anchor="middle" x="1945.29" y="-72.05" font-family="Helvetica,sans-Serif" font-size="10.00">haldls/vx/event.h</text>
</a>
</g>
</g>
<!-- Node23&#45;&gt;Node32 -->
<g id="edge41" class="edge">
<title>Node23&#45;&gt;Node32</title>
<path fill="none" stroke="midnightblue" d="M1752.86,-129.67C1790.4,-119.31 1843.65,-104.58 1890.29,-91.55 1894.59,-90.35 1899.09,-89.09 1903.58,-87.83"/>
<polygon fill="midnightblue" stroke="midnightblue" points="1904.62,-91.17 1913.3,-85.09 1902.73,-84.43 1904.62,-91.17"/>
</g>
<!-- Node33 -->
<g id="node33" class="node">
<title>Node33</title>
<g id="a_node33"><a xlink:title=" ">
<polygon fill="white" stroke="#bfbfbf" points="1037.66,-65.05 1037.66,-85.05 1120.91,-85.05 1120.91,-65.05 1037.66,-65.05"/>
<text text-anchor="middle" x="1079.29" y="-72.05" font-family="Helvetica,sans-Serif" font-size="10.00">hate/type_list.h</text>
</a>
</g>
</g>
<!-- Node23&#45;&gt;Node33 -->
<g id="edge42" class="edge">
<title>Node23&#45;&gt;Node33</title>
<path fill="none" stroke="midnightblue" d="M1655.57,-134.88C1639.01,-132.28 1620.37,-129.57 1603.29,-127.55 1410.63,-104.83 1360.7,-116.22 1168.29,-91.55 1156.25,-90.01 1143.37,-87.98 1131.24,-85.91"/>
<polygon fill="midnightblue" stroke="midnightblue" points="1131.73,-82.44 1121.27,-84.16 1130.52,-89.34 1131.73,-82.44"/>
</g>
<!-- Node34 -->
<g id="node34" class="node">
<title>Node34</title>
<g id="a_node34"><a xlink:href="run__time__info_8h.html" target="_top" xlink:title=" ">
<polygon fill="white" stroke="black" points="2072,-59.05 2072,-91.05 2168.57,-91.05 2168.57,-59.05 2072,-59.05"/>
<text text-anchor="start" x="2080" y="-78.05" font-family="Helvetica,sans-Serif" font-size="10.00">stadls/vx/run_time</text>
<text text-anchor="middle" x="2120.28" y="-66.05" font-family="Helvetica,sans-Serif" font-size="10.00">_info.h</text>
</a>
</g>
</g>
<!-- Node23&#45;&gt;Node34 -->
<g id="edge46" class="edge">
<title>Node23&#45;&gt;Node34</title>
<path fill="none" stroke="midnightblue" d="M1753,-130.46C1757.81,-129.4 1762.63,-128.41 1767.29,-127.55 1894.03,-104.31 1930.83,-116.05 2061.96,-91.42"/>
<polygon fill="midnightblue" stroke="midnightblue" points="2062.82,-94.82 2071.98,-89.5 2061.5,-87.94 2062.82,-94.82"/>
</g>
<!-- Node34&#45;&gt;Node2 -->
<g id="edge48" class="edge">
<title>Node34&#45;&gt;Node2</title>
<path fill="none" stroke="midnightblue" d="M2071.72,-60.23C2068.54,-59.59 2065.38,-59.02 2062.28,-58.55 1839.17,-24.97 1139.06,-15.71 919.69,-13.6"/>
<polygon fill="midnightblue" stroke="midnightblue" points="919.65,-10.1 909.61,-13.5 919.58,-17.1 919.65,-10.1"/>
</g>
<!-- Node35 -->
<g id="node35" class="node">
<title>Node35</title>
<g id="a_node35"><a xlink:title=" ">
<polygon fill="white" stroke="#bfbfbf" points="2059.77,-2.05 2059.77,-22.05 2180.8,-22.05 2180.8,-2.05 2059.77,-2.05"/>
<text text-anchor="middle" x="2120.28" y="-9.05" font-family="Helvetica,sans-Serif" font-size="10.00">fisch/vx/run_time_info.h</text>
</a>
</g>
</g>
<!-- Node34&#45;&gt;Node35 -->
<g id="edge47" class="edge">
<title>Node34&#45;&gt;Node35</title>
<path fill="none" stroke="midnightblue" d="M2120.28,-58.97C2120.28,-50.93 2120.28,-40.94 2120.28,-32.33"/>
<polygon fill="midnightblue" stroke="midnightblue" points="2123.79,-32.1 2120.28,-22.1 2116.79,-32.1 2123.79,-32.1"/>
</g>
<!-- Node36&#45;&gt;Node9 -->
<g id="edge52" class="edge">
<title>Node36&#45;&gt;Node9</title>
<path fill="none" stroke="midnightblue" d="M664.32,-256.53C659.57,-255.52 654.85,-254.52 650.29,-253.55 594.88,-241.81 531.44,-228.39 487.92,-219.18"/>
<polygon fill="midnightblue" stroke="midnightblue" points="488.63,-215.75 478.12,-217.11 487.18,-222.6 488.63,-215.75"/>
</g>
<!-- Node36&#45;&gt;Node10 -->
<g id="edge54" class="edge">
<title>Node36&#45;&gt;Node10</title>
<path fill="none" stroke="midnightblue" d="M782.18,-260.18C856.92,-248.92 985.45,-229.57 1063.08,-217.87"/>
<polygon fill="midnightblue" stroke="midnightblue" points="1063.86,-221.3 1073.22,-216.35 1062.81,-214.37 1063.86,-221.3"/>
</g>
<!-- Node36&#45;&gt;Node33 -->
<g id="edge53" class="edge">
<title>Node36&#45;&gt;Node33</title>
<path fill="none" stroke="midnightblue" d="M664.42,-260.1C617.45,-251.62 557.15,-237.24 542.29,-217.55 536.66,-210.1 536.42,-203.81 542.29,-196.55 681.38,-24.28 815.11,-147.72 1029.29,-91.55 1033.39,-90.48 1037.66,-89.28 1041.9,-88.04"/>
<polygon fill="midnightblue" stroke="midnightblue" points="1043.08,-91.34 1051.64,-85.1 1041.06,-84.63 1043.08,-91.34"/>
</g>
<!-- Node36&#45;&gt;Node37 -->
<g id="edge55" class="edge">
<title>Node36&#45;&gt;Node37</title>
<path fill="none" stroke="midnightblue" d="M782.37,-259.92C797.63,-257.69 814.06,-255.42 829.29,-253.55 986.9,-234.22 1029.48,-235.93 1190.54,-217.72"/>
<polygon fill="midnightblue" stroke="midnightblue" points="1191.27,-221.16 1200.81,-216.55 1190.48,-214.21 1191.27,-221.16"/>
</g>
<!-- Node36&#45;&gt;Node38 -->
<g id="edge56" class="edge">
<title>Node36&#45;&gt;Node38</title>
<path fill="none" stroke="midnightblue" d="M695.35,-253.97C677.26,-244.21 653.88,-231.58 636.2,-222.04"/>
<polygon fill="midnightblue" stroke="midnightblue" points="637.5,-218.77 627.04,-217.1 634.18,-224.93 637.5,-218.77"/>
</g>
<!-- Node39&#45;&gt;Node2 -->
<g id="edge62" class="edge">
<title>Node39&#45;&gt;Node2</title>
<path fill="none" stroke="midnightblue" d="M959.98,-323.04C999.5,-315.56 1054.14,-303.4 1100.29,-286.55 1130.72,-275.44 1134.71,-264.28 1165.29,-253.55 1241.67,-226.75 1392.96,-256.25 1338.29,-196.55 1276.66,-129.27 1004.1,-212.77 929.29,-160.55 888.2,-131.88 905.12,-102.62 881.29,-58.55 876.22,-49.19 870.07,-39.07 864.82,-30.76"/>
<polygon fill="midnightblue" stroke="midnightblue" points="867.73,-28.82 859.39,-22.28 861.84,-32.59 867.73,-28.82"/>
</g>
<!-- Node39&#45;&gt;Node8 -->
<g id="edge58" class="edge">
<title>Node39&#45;&gt;Node8</title>
<path fill="none" stroke="midnightblue" d="M849.32,-329.42C721.94,-322.13 420.93,-296.72 366.29,-217.55 326.75,-160.29 431.14,-110.95 489.7,-88.68"/>
<polygon fill="midnightblue" stroke="midnightblue" points="491.21,-91.85 499.37,-85.09 488.77,-85.29 491.21,-91.85"/>
</g>
<!-- Node39&#45;&gt;Node9 -->
<g id="edge59" class="edge">
<title>Node39&#45;&gt;Node9</title>
<path fill="none" stroke="midnightblue" d="M849.63,-324.48C798.37,-317 721.07,-304.13 655.29,-286.55 586.55,-268.19 508.7,-238.13 466.51,-221.03"/>
<polygon fill="midnightblue" stroke="midnightblue" points="467.66,-217.71 457.08,-217.18 465.01,-224.2 467.66,-217.71"/>
</g>
<!-- Node39&#45;&gt;Node10 -->
<g id="edge60" class="edge">
<title>Node39&#45;&gt;Node10</title>
<path fill="none" stroke="midnightblue" d="M922.61,-322.93C961.02,-301.48 1057.31,-247.69 1103.21,-222.06"/>
<polygon fill="midnightblue" stroke="midnightblue" points="1104.91,-225.12 1111.94,-217.18 1101.5,-219 1104.91,-225.12"/>
</g>
<!-- Node39&#45;&gt;Node11 -->
<g id="edge63" class="edge">
<title>Node39&#45;&gt;Node11</title>
<path fill="none" stroke="midnightblue" d="M963.16,-327.24C1096.36,-315.97 1427.63,-287.94 1565.53,-276.28"/>
<polygon fill="midnightblue" stroke="midnightblue" points="1566.24,-279.73 1575.91,-275.4 1565.65,-272.75 1566.24,-279.73"/>
</g>
<!-- Node39&#45;&gt;Node19 -->
<g id="edge61" class="edge">
<title>Node39&#45;&gt;Node19</title>
<path fill="none" stroke="midnightblue" d="M962.26,-323.04C1014.82,-314.38 1095.58,-300.57 1165.29,-286.55 1272.84,-264.92 1398.21,-235.39 1464.55,-219.42"/>
<polygon fill="midnightblue" stroke="midnightblue" points="1465.39,-222.82 1474.29,-217.07 1463.75,-216.02 1465.39,-222.82"/>
</g>
<!-- Node39&#45;&gt;Node36 -->
<g id="edge64" class="edge">
<title>Node39&#45;&gt;Node36</title>
<path fill="none" stroke="midnightblue" d="M879.28,-323.05C852.77,-314.21 811.55,-300.48 778.15,-289.34"/>
<polygon fill="midnightblue" stroke="midnightblue" points="779.1,-285.97 768.5,-286.12 776.88,-292.61 779.1,-285.97"/>
</g>
<!-- Node39&#45;&gt;Node37 -->
<g id="edge79" class="edge">
<title>Node39&#45;&gt;Node37</title>
<path fill="none" stroke="midnightblue" d="M932.39,-323.03C995.57,-301.21 1156.83,-245.51 1229.19,-220.52"/>
<polygon fill="midnightblue" stroke="midnightblue" points="1230.48,-223.78 1238.79,-217.2 1228.2,-217.16 1230.48,-223.78"/>
</g>
<!-- Node39&#45;&gt;Node38 -->
<g id="edge80" class="edge">
<title>Node39&#45;&gt;Node38</title>
<path fill="none" stroke="midnightblue" d="M888.9,-322.96C872.92,-314.33 848.81,-300.62 829.29,-286.55 811.14,-273.48 811.12,-263.9 791.29,-253.55 756.64,-235.48 714.47,-224.34 679.55,-217.61"/>
<polygon fill="midnightblue" stroke="midnightblue" points="679.91,-214.12 669.44,-215.74 678.64,-221 679.91,-214.12"/>
</g>
<!-- Node40 -->
<g id="node40" class="node">
<title>Node40</title>
<g id="a_node40"><a xlink:href="v2_2dumperdone_8h.html" target="_top" xlink:title=" ">
<polygon fill="white" stroke="black" points="838.55,-260.05 838.55,-280.05 974.03,-280.05 974.03,-260.05 838.55,-260.05"/>
<text text-anchor="middle" x="906.29" y="-267.05" font-family="Helvetica,sans-Serif" font-size="10.00">stadls/vx/v2/dumperdone.h</text>
</a>
</g>
</g>
<!-- Node39&#45;&gt;Node40 -->
<g id="edge65" class="edge">
<title>Node39&#45;&gt;Node40</title>
<path fill="none" stroke="midnightblue" d="M906.29,-323.05C906.29,-314.49 906.29,-301.34 906.29,-290.4"/>
<polygon fill="midnightblue" stroke="midnightblue" points="909.79,-290.09 906.29,-280.09 902.79,-290.09 909.79,-290.09"/>
</g>
<!-- Node40&#45;&gt;Node2 -->
<g id="edge73" class="edge">
<title>Node40&#45;&gt;Node2</title>
<path fill="none" stroke="midnightblue" d="M904.4,-259.94C896.74,-222.93 867.84,-83.35 857.23,-32.09"/>
<polygon fill="midnightblue" stroke="midnightblue" points="860.6,-31.14 855.15,-22.05 853.75,-32.56 860.6,-31.14"/>
</g>
<!-- Node40&#45;&gt;Node6 -->
<g id="edge71" class="edge">
<title>Node40&#45;&gt;Node6</title>
<path fill="none" stroke="midnightblue" d="M907.04,-260.04C909.44,-232.69 917.43,-151.12 929.29,-127.55 936.26,-113.67 948.3,-101.1 958.82,-91.85"/>
<polygon fill="midnightblue" stroke="midnightblue" points="961.37,-94.28 966.8,-85.18 956.88,-88.91 961.37,-94.28"/>
</g>
<!-- Node40&#45;&gt;Node8 -->
<g id="edge67" class="edge">
<title>Node40&#45;&gt;Node8</title>
<path fill="none" stroke="midnightblue" d="M869.03,-260.01C835.92,-251.3 786.65,-236.63 746.29,-217.55 667.6,-180.37 583.44,-119.56 546.09,-91.34"/>
<polygon fill="midnightblue" stroke="midnightblue" points="548.11,-88.48 538.04,-85.21 543.87,-94.05 548.11,-88.48"/>
</g>
<!-- Node40&#45;&gt;Node9 -->
<g id="edge70" class="edge">
<title>Node40&#45;&gt;Node9</title>
<path fill="none" stroke="midnightblue" d="M840.01,-260.04C824.06,-257.89 807.06,-255.62 791.29,-253.55 692.36,-240.56 577.91,-226.02 506.06,-216.95"/>
<polygon fill="midnightblue" stroke="midnightblue" points="506.13,-213.43 495.77,-215.65 505.25,-220.38 506.13,-213.43"/>
</g>
<!-- Node40&#45;&gt;Node10 -->
<g id="edge72" class="edge">
<title>Node40&#45;&gt;Node10</title>
<path fill="none" stroke="midnightblue" d="M939.04,-260.05C977.9,-249.37 1042.79,-231.55 1085.56,-219.79"/>
<polygon fill="midnightblue" stroke="midnightblue" points="1086.68,-223.11 1095.39,-217.09 1084.82,-216.36 1086.68,-223.11"/>
</g>
<!-- Node40&#45;&gt;Node15 -->
<g id="edge66" class="edge">
<title>Node40&#45;&gt;Node15</title>
<path fill="none" stroke="midnightblue" d="M921.52,-259.83C944.9,-245.77 991.14,-218.31 1031.29,-196.55 1051.43,-185.64 1074.16,-174.09 1093.04,-164.7"/>
<polygon fill="midnightblue" stroke="midnightblue" points="1094.84,-167.72 1102.25,-160.14 1091.73,-161.44 1094.84,-167.72"/>
</g>
<!-- Node40&#45;&gt;Node16 -->
<g id="edge68" class="edge">
<title>Node40&#45;&gt;Node16</title>
<path fill="none" stroke="midnightblue" d="M930.54,-259.88C955.46,-250.21 995.18,-234.11 1028.29,-217.55 1044.85,-209.27 1047.22,-203.76 1064.29,-196.55 1065.97,-195.84 1152.82,-171.75 1206.91,-156.78"/>
<polygon fill="midnightblue" stroke="midnightblue" points="1207.9,-160.14 1216.6,-154.09 1206.03,-153.39 1207.9,-160.14"/>
</g>
<!-- Node40&#45;&gt;Node22 -->
<g id="edge69" class="edge">
<title>Node40&#45;&gt;Node22</title>
<path fill="none" stroke="midnightblue" d="M861.77,-259.97C821.66,-250.77 767.07,-235.38 754.29,-217.55 748.85,-209.97 748.46,-203.84 754.29,-196.55 775.6,-169.88 867.4,-156.02 927.81,-149.66"/>
<polygon fill="midnightblue" stroke="midnightblue" points="928.37,-153.12 937.96,-148.62 927.66,-146.15 928.37,-153.12"/>
</g>
<!-- Node40&#45;&gt;Node27 -->
<g id="edge76" class="edge">
<title>Node40&#45;&gt;Node27</title>
<path fill="none" stroke="midnightblue" d="M917.38,-259.82C939.76,-241.17 991.9,-197.63 1035.29,-160.55 1052.29,-146.02 1054.23,-139.27 1073.29,-127.55 1103.31,-109.08 1141.14,-94.64 1167.47,-85.82"/>
<polygon fill="midnightblue" stroke="midnightblue" points="1168.89,-89.04 1177.3,-82.6 1166.71,-82.38 1168.89,-89.04"/>
</g>
<!-- Node40&#45;&gt;Node37 -->
<g id="edge77" class="edge">
<title>Node40&#45;&gt;Node37</title>
<path fill="none" stroke="midnightblue" d="M959.26,-260.05C1023.95,-249.06 1133.26,-230.49 1202.22,-218.77"/>
<polygon fill="midnightblue" stroke="midnightblue" points="1202.82,-222.22 1212.1,-217.09 1201.65,-215.31 1202.82,-222.22"/>
</g>
<!-- Node40&#45;&gt;Node38 -->
<g id="edge78" class="edge">
<title>Node40&#45;&gt;Node38</title>
<path fill="none" stroke="midnightblue" d="M862.61,-260.05C809.82,-249.17 720.99,-230.87 664.04,-219.13"/>
<polygon fill="midnightblue" stroke="midnightblue" points="664.64,-215.68 654.14,-217.09 663.23,-222.54 664.64,-215.68"/>
</g>
<!-- Node41 -->
<g id="node41" class="node">
<title>Node41</title>
<g id="a_node41"><a xlink:title=" ">
<polygon fill="white" stroke="#bfbfbf" points="762.9,-197.05 762.9,-217.05 801.67,-217.05 801.67,-197.05 762.9,-197.05"/>
<text text-anchor="middle" x="782.29" y="-204.05" font-family="Helvetica,sans-Serif" font-size="10.00">utility</text>
</a>
</g>
</g>
<!-- Node40&#45;&gt;Node41 -->
<g id="edge74" class="edge">
<title>Node40&#45;&gt;Node41</title>
<path fill="none" stroke="midnightblue" d="M887.99,-260.05C867.38,-249.92 833.67,-233.33 809.87,-221.62"/>
<polygon fill="midnightblue" stroke="midnightblue" points="811.17,-218.36 800.66,-217.09 808.08,-224.64 811.17,-218.36"/>
</g>
<!-- Node42 -->
<g id="node42" class="node">
<title>Node42</title>
<g id="a_node42"><a xlink:title=" ">
<polygon fill="white" stroke="#bfbfbf" points="819.28,-197.05 819.28,-217.05 865.29,-217.05 865.29,-197.05 819.28,-197.05"/>
<text text-anchor="middle" x="842.29" y="-204.05" font-family="Helvetica,sans-Serif" font-size="10.00">variant</text>
</a>
</g>
</g>
<!-- Node40&#45;&gt;Node42 -->
<g id="edge75" class="edge">
<title>Node40&#45;&gt;Node42</title>
<path fill="none" stroke="midnightblue" d="M896.84,-260.05C886.92,-250.59 871.1,-235.52 859.04,-224.03"/>
<polygon fill="midnightblue" stroke="midnightblue" points="861.42,-221.46 851.77,-217.09 856.59,-226.52 861.42,-221.46"/>
</g>
</g>
</svg>
