<?xml version="1.0" encoding="UTF-8" standalone="no"?>
<!DOCTYPE svg PUBLIC "-//W3C//DTD SVG 1.1//EN"
 "http://www.w3.org/Graphics/SVG/1.1/DTD/svg11.dtd">
<!-- Generated by graphviz version 2.46.0 (0)
 -->
<!-- Title: /jenkins/jenlib_workspaces_f9/bld_nightly&#45;haldls.YmxkX25pZ2h0bHktaGFsZGxzIzEzNzk.x/haldls/include/stadls/vx/v2/run.h Pages: 1 -->
<svg width="332pt" height="250pt"
 viewBox="0.00 0.00 332.35 249.55" xmlns="http://www.w3.org/2000/svg" xmlns:xlink="http://www.w3.org/1999/xlink">
<g id="graph0" class="graph" transform="scale(1 1) rotate(0) translate(4 245.55)">
<title>/jenkins/jenlib_workspaces_f9/bld_nightly&#45;haldls.YmxkX25pZ2h0bHktaGFsZGxzIzEzNzk.x/haldls/include/stadls/vx/v2/run.h</title>
<polygon fill="white" stroke="transparent" points="-4,4 -4,-245.55 328.35,-245.55 328.35,4 -4,4"/>
<!-- Node1 -->
<g id="node1" class="node">
<title>Node1</title>
<g id="a_node1"><a xlink:title=" ">
<polygon fill="#bfbfbf" stroke="black" points="0,-185.05 0,-241.05 181.02,-241.05 181.02,-185.05 0,-185.05"/>
<text text-anchor="start" x="8" y="-228.05" font-family="Helvetica,sans-Serif" font-size="10.00">/jenkins/jenlib_workspaces</text>
<text text-anchor="start" x="8" y="-216.05" font-family="Helvetica,sans-Serif" font-size="10.00">_f9/bld_nightly&#45;haldls.YmxkX25p</text>
<text text-anchor="start" x="8" y="-204.05" font-family="Helvetica,sans-Serif" font-size="10.00">Z2h0bHktaGFsZGxzIzEzNzk.x/haldls</text>
<text text-anchor="middle" x="90.51" y="-192.05" font-family="Helvetica,sans-Serif" font-size="10.00">/include/stadls/vx/v2/run.h</text>
</a>
</g>
</g>
<!-- Node2 -->
<g id="node2" class="node">
<title>Node2</title>
<g id="a_node2"><a xlink:href="genpybind_8h.html" target="_top" xlink:title=" ">
<polygon fill="white" stroke="black" points="19.44,-2.05 19.44,-22.05 131.58,-22.05 131.58,-2.05 19.44,-2.05"/>
<text text-anchor="middle" x="75.51" y="-9.05" font-family="Helvetica,sans-Serif" font-size="10.00">stadls/vx/genpybind.h</text>
</a>
</g>
</g>
<!-- Node1&#45;&gt;Node2 -->
<g id="edge1" class="edge">
<title>Node1&#45;&gt;Node2</title>
<path fill="none" stroke="midnightblue" d="M88.45,-184.8C85.37,-143.88 79.62,-67.6 76.95,-32.11"/>
<polygon fill="midnightblue" stroke="midnightblue" points="80.43,-31.83 76.19,-22.12 73.45,-32.36 80.43,-31.83"/>
</g>
<!-- Node3 -->
<g id="node3" class="node">
<title>Node3</title>
<g id="a_node3"><a xlink:href="run_8h.html" target="_top" xlink:title=" ">
<polygon fill="white" stroke="black" points="107.28,-128.05 107.28,-148.05 187.74,-148.05 187.74,-128.05 107.28,-128.05"/>
<text text-anchor="middle" x="147.51" y="-135.05" font-family="Helvetica,sans-Serif" font-size="10.00">stadls/vx/run.h</text>
</a>
</g>
</g>
<!-- Node1&#45;&gt;Node3 -->
<g id="edge3" class="edge">
<title>Node1&#45;&gt;Node3</title>
<path fill="none" stroke="midnightblue" d="M111.73,-184.87C119.25,-175.24 127.49,-164.69 134.17,-156.14"/>
<polygon fill="midnightblue" stroke="midnightblue" points="137.07,-158.11 140.46,-148.08 131.55,-153.8 137.07,-158.11"/>
</g>
<!-- Node2&#45;&gt;Node2 -->
<g id="edge2" class="edge">
<title>Node2&#45;&gt;Node2</title>
<path fill="none" stroke="midnightblue" d="M104.02,-22.11C126.51,-26 149.58,-22.65 149.58,-12.05 149.58,-3.03 132.85,0.74 113.99,-0.74"/>
<polygon fill="midnightblue" stroke="midnightblue" points="113.5,2.72 104.02,-1.99 114.37,-4.22 113.5,2.72"/>
</g>
<!-- Node3&#45;&gt;Node2 -->
<g id="edge4" class="edge">
<title>Node3&#45;&gt;Node2</title>
<path fill="none" stroke="midnightblue" d="M139.93,-128.01C132.66,-119.08 121.6,-104.87 113.51,-91.55 101.51,-71.81 90.31,-47.72 83.23,-31.47"/>
<polygon fill="midnightblue" stroke="midnightblue" points="86.35,-29.87 79.2,-22.05 79.91,-32.62 86.35,-29.87"/>
</g>
<!-- Node4 -->
<g id="node4" class="node">
<title>Node4</title>
<g id="a_node4"><a xlink:href="run__time__info_8h.html" target="_top" xlink:title=" ">
<polygon fill="white" stroke="black" points="122.23,-59.05 122.23,-91.05 218.79,-91.05 218.79,-59.05 122.23,-59.05"/>
<text text-anchor="start" x="130.23" y="-78.05" font-family="Helvetica,sans-Serif" font-size="10.00">stadls/vx/run_time</text>
<text text-anchor="middle" x="170.51" y="-66.05" font-family="Helvetica,sans-Serif" font-size="10.00">_info.h</text>
</a>
</g>
</g>
<!-- Node3&#45;&gt;Node4 -->
<g id="edge5" class="edge">
<title>Node3&#45;&gt;Node4</title>
<path fill="none" stroke="midnightblue" d="M150.9,-128.05C153.61,-120.87 157.54,-110.45 161.17,-100.82"/>
<polygon fill="midnightblue" stroke="midnightblue" points="164.53,-101.84 164.78,-91.24 157.98,-99.37 164.53,-101.84"/>
</g>
<!-- Node6 -->
<g id="node6" class="node">
<title>Node6</title>
<g id="a_node6"><a xlink:title=" ">
<polygon fill="white" stroke="#bfbfbf" points="236.67,-65.05 236.67,-85.05 324.35,-85.05 324.35,-65.05 236.67,-65.05"/>
<text text-anchor="middle" x="280.51" y="-72.05" font-family="Helvetica,sans-Serif" font-size="10.00">stadls/vx/run.tcc</text>
</a>
</g>
</g>
<!-- Node3&#45;&gt;Node6 -->
<g id="edge8" class="edge">
<title>Node3&#45;&gt;Node6</title>
<path fill="none" stroke="midnightblue" d="M167.13,-128.05C189.43,-117.83 226.03,-101.04 251.6,-89.31"/>
<polygon fill="midnightblue" stroke="midnightblue" points="253.17,-92.44 260.8,-85.09 250.26,-86.08 253.17,-92.44"/>
</g>
<!-- Node4&#45;&gt;Node2 -->
<g id="edge7" class="edge">
<title>Node4&#45;&gt;Node2</title>
<path fill="none" stroke="midnightblue" d="M147.03,-58.97C132.1,-49.39 112.88,-37.05 98.13,-27.58"/>
<polygon fill="midnightblue" stroke="midnightblue" points="99.9,-24.56 89.6,-22.1 96.12,-30.45 99.9,-24.56"/>
</g>
<!-- Node5 -->
<g id="node5" class="node">
<title>Node5</title>
<g id="a_node5"><a xlink:title=" ">
<polygon fill="white" stroke="#bfbfbf" points="168,-2.05 168,-22.05 289.02,-22.05 289.02,-2.05 168,-2.05"/>
<text text-anchor="middle" x="228.51" y="-9.05" font-family="Helvetica,sans-Serif" font-size="10.00">fisch/vx/run_time_info.h</text>
</a>
</g>
</g>
<!-- Node4&#45;&gt;Node5 -->
<g id="edge6" class="edge">
<title>Node4&#45;&gt;Node5</title>
<path fill="none" stroke="midnightblue" d="M184.85,-58.97C193.36,-50.02 204.15,-38.67 212.88,-29.49"/>
<polygon fill="midnightblue" stroke="midnightblue" points="215.55,-31.76 219.91,-22.1 210.48,-26.93 215.55,-31.76"/>
</g>
</g>
</svg>
