<?xml version="1.0" encoding="UTF-8" standalone="no"?>
<!DOCTYPE svg PUBLIC "-//W3C//DTD SVG 1.1//EN"
 "http://www.w3.org/Graphics/SVG/1.1/DTD/svg11.dtd">
<!-- Generated by graphviz version 2.46.0 (0)
 -->
<!-- Title: /jenkins/jenlib_workspaces_f9/bld_nightly&#45;haldls.YmxkX25pZ2h0bHktaGFsZGxzIzEzNzk.x/haldls/include/stadls/vx/v2/reinit_stack_entry.h Pages: 1 -->
<svg width="1703pt" height="331pt"
 viewBox="0.00 0.00 1702.97 330.55" xmlns="http://www.w3.org/2000/svg" xmlns:xlink="http://www.w3.org/1999/xlink">
<g id="graph0" class="graph" transform="scale(1 1) rotate(0) translate(4 326.55)">
<title>/jenkins/jenlib_workspaces_f9/bld_nightly&#45;haldls.YmxkX25pZ2h0bHktaGFsZGxzIzEzNzk.x/haldls/include/stadls/vx/v2/reinit_stack_entry.h</title>
<polygon fill="white" stroke="transparent" points="-4,4 -4,-326.55 1698.97,-326.55 1698.97,4 -4,4"/>
<!-- Node1 -->
<g id="node1" class="node">
<title>Node1</title>
<g id="a_node1"><a xlink:title=" ">
<polygon fill="#bfbfbf" stroke="black" points="1500.04,-266.05 1500.04,-322.05 1694.97,-322.05 1694.97,-266.05 1500.04,-266.05"/>
<text text-anchor="start" x="1508.04" y="-309.05" font-family="Helvetica,sans-Serif" font-size="10.00">/jenkins/jenlib_workspaces</text>
<text text-anchor="start" x="1508.04" y="-297.05" font-family="Helvetica,sans-Serif" font-size="10.00">_f9/bld_nightly&#45;haldls.YmxkX25p</text>
<text text-anchor="start" x="1508.04" y="-285.05" font-family="Helvetica,sans-Serif" font-size="10.00">Z2h0bHktaGFsZGxzIzEzNzk.x/haldls</text>
<text text-anchor="middle" x="1597.51" y="-273.05" font-family="Helvetica,sans-Serif" font-size="10.00">/include/stadls/vx/v2/reinit_stack_entry.h</text>
</a>
</g>
</g>
<!-- Node2 -->
<g id="node2" class="node">
<title>Node2</title>
<g id="a_node2"><a xlink:href="genpybind_8h.html" target="_top" xlink:title=" ">
<polygon fill="white" stroke="black" points="1499.43,-2.05 1499.43,-22.05 1611.58,-22.05 1611.58,-2.05 1499.43,-2.05"/>
<text text-anchor="middle" x="1555.51" y="-9.05" font-family="Helvetica,sans-Serif" font-size="10.00">stadls/vx/genpybind.h</text>
</a>
</g>
</g>
<!-- Node1&#45;&gt;Node2 -->
<g id="edge1" class="edge">
<title>Node1&#45;&gt;Node2</title>
<path fill="none" stroke="midnightblue" d="M1617.1,-265.87C1647.72,-219.73 1699.23,-124.66 1656.51,-58.55 1646.24,-42.68 1628.97,-32.28 1611.59,-25.5"/>
<polygon fill="midnightblue" stroke="midnightblue" points="1612.55,-22.13 1601.96,-22.1 1610.22,-28.73 1612.55,-22.13"/>
</g>
<!-- Node3 -->
<g id="node3" class="node">
<title>Node3</title>
<g id="a_node3"><a xlink:href="reinit__stack__entry_8h.html" target="_top" xlink:title=" ">
<polygon fill="white" stroke="black" points="1478.39,-197.05 1478.39,-229.05 1586.62,-229.05 1586.62,-197.05 1478.39,-197.05"/>
<text text-anchor="start" x="1486.39" y="-216.05" font-family="Helvetica,sans-Serif" font-size="10.00">stadls/vx/reinit_stack</text>
<text text-anchor="middle" x="1532.51" y="-204.05" font-family="Helvetica,sans-Serif" font-size="10.00">_entry.h</text>
</a>
</g>
</g>
<!-- Node1&#45;&gt;Node3 -->
<g id="edge3" class="edge">
<title>Node1&#45;&gt;Node3</title>
<path fill="none" stroke="midnightblue" d="M1575.14,-265.87C1567.38,-256.43 1558.76,-245.96 1551.32,-236.91"/>
<polygon fill="midnightblue" stroke="midnightblue" points="1553.92,-234.58 1544.87,-229.08 1548.52,-239.02 1553.92,-234.58"/>
</g>
<!-- Node2&#45;&gt;Node2 -->
<g id="edge2" class="edge">
<title>Node2&#45;&gt;Node2</title>
<path fill="none" stroke="midnightblue" d="M1584.01,-22.11C1606.5,-26 1629.58,-22.65 1629.58,-12.05 1629.58,-3.03 1612.84,0.74 1593.99,-0.74"/>
<polygon fill="midnightblue" stroke="midnightblue" points="1593.5,2.72 1584.01,-1.99 1594.37,-4.22 1593.5,2.72"/>
</g>
<!-- Node3&#45;&gt;Node2 -->
<g id="edge5" class="edge">
<title>Node3&#45;&gt;Node2</title>
<path fill="none" stroke="midnightblue" d="M1553.5,-197.02C1579.89,-176.64 1623.77,-137.48 1640.51,-91.55 1645.53,-77.77 1648.04,-71.13 1640.51,-58.55 1631.46,-43.45 1615.5,-33.08 1599.84,-26.1"/>
<polygon fill="midnightblue" stroke="midnightblue" points="1600.77,-22.7 1590.18,-22.18 1598.13,-29.18 1600.77,-22.7"/>
</g>
<!-- Node4 -->
<g id="node4" class="node">
<title>Node4</title>
<g id="a_node4"><a xlink:title=" ">
<polygon fill="white" stroke="#bfbfbf" points="1480,-65.05 1480,-85.05 1561.01,-85.05 1561.01,-65.05 1480,-65.05"/>
<text text-anchor="middle" x="1520.51" y="-72.05" font-family="Helvetica,sans-Serif" font-size="10.00">hate/visibility.h</text>
</a>
</g>
</g>
<!-- Node3&#45;&gt;Node4 -->
<g id="edge4" class="edge">
<title>Node3&#45;&gt;Node4</title>
<path fill="none" stroke="midnightblue" d="M1531.18,-196.98C1528.99,-172.17 1524.63,-122.76 1522.21,-95.4"/>
<polygon fill="midnightblue" stroke="midnightblue" points="1525.68,-94.82 1521.31,-85.16 1518.7,-95.43 1525.68,-94.82"/>
</g>
<!-- Node5 -->
<g id="node5" class="node">
<title>Node5</title>
<g id="a_node5"><a xlink:href="playback__program_8h.html" target="_top" xlink:title=" ">
<polygon fill="white" stroke="black" points="751.94,-128.05 751.94,-160.05 849.07,-160.05 849.07,-128.05 751.94,-128.05"/>
<text text-anchor="start" x="759.94" y="-147.05" font-family="Helvetica,sans-Serif" font-size="10.00">stadls/vx/playback</text>
<text text-anchor="middle" x="800.51" y="-135.05" font-family="Helvetica,sans-Serif" font-size="10.00">_program.h</text>
</a>
</g>
</g>
<!-- Node3&#45;&gt;Node5 -->
<g id="edge6" class="edge">
<title>Node3&#45;&gt;Node5</title>
<path fill="none" stroke="midnightblue" d="M1478.38,-207.1C1344.47,-194.84 998.47,-163.17 859.53,-150.46"/>
<polygon fill="midnightblue" stroke="midnightblue" points="859.78,-146.96 849.5,-149.54 859.14,-153.93 859.78,-146.96"/>
</g>
<!-- Node7 -->
<g id="node7" class="node">
<title>Node7</title>
<g id="a_node7"><a xlink:title=" ">
<polygon fill="white" stroke="#bfbfbf" points="1579.45,-65.05 1579.45,-85.05 1631.56,-85.05 1631.56,-65.05 1579.45,-65.05"/>
<text text-anchor="middle" x="1605.51" y="-72.05" font-family="Helvetica,sans-Serif" font-size="10.00">memory</text>
</a>
</g>
</g>
<!-- Node3&#45;&gt;Node7 -->
<g id="edge26" class="edge">
<title>Node3&#45;&gt;Node7</title>
<path fill="none" stroke="midnightblue" d="M1540.6,-196.98C1554.09,-171.84 1581.15,-121.43 1595.7,-94.31"/>
<polygon fill="midnightblue" stroke="midnightblue" points="1598.97,-95.63 1600.62,-85.16 1592.8,-92.32 1598.97,-95.63"/>
</g>
<!-- Node8 -->
<g id="node8" class="node">
<title>Node8</title>
<g id="a_node8"><a xlink:title=" ">
<polygon fill="white" stroke="#bfbfbf" points="0,-65.05 0,-85.05 51.01,-85.05 51.01,-65.05 0,-65.05"/>
<text text-anchor="middle" x="25.51" y="-72.05" font-family="Helvetica,sans-Serif" font-size="10.00">optional</text>
</a>
</g>
</g>
<!-- Node3&#45;&gt;Node8 -->
<g id="edge27" class="edge">
<title>Node3&#45;&gt;Node8</title>
<path fill="none" stroke="midnightblue" d="M1478.04,-210.17C1245.65,-201.73 336.41,-164.61 60.51,-91.55 57.83,-90.84 55.09,-89.95 52.39,-88.96"/>
<polygon fill="midnightblue" stroke="midnightblue" points="53.5,-85.63 42.92,-85.06 50.83,-92.1 53.5,-85.63"/>
</g>
<!-- Node22 -->
<g id="node22" class="node">
<title>Node22</title>
<g id="a_node22"><a xlink:title=" ">
<polygon fill="white" stroke="#bfbfbf" points="1396.39,-128.05 1396.39,-160.05 1504.62,-160.05 1504.62,-128.05 1396.39,-128.05"/>
<text text-anchor="start" x="1404.39" y="-147.05" font-family="Helvetica,sans-Serif" font-size="10.00">stadls/vx/reinit_stack</text>
<text text-anchor="middle" x="1450.51" y="-135.05" font-family="Helvetica,sans-Serif" font-size="10.00">_entry.tcc</text>
</a>
</g>
</g>
<!-- Node3&#45;&gt;Node22 -->
<g id="edge28" class="edge">
<title>Node3&#45;&gt;Node22</title>
<path fill="none" stroke="midnightblue" d="M1513.9,-196.85C1503,-187.94 1489.04,-176.54 1477.01,-166.71"/>
<polygon fill="midnightblue" stroke="midnightblue" points="1479,-163.81 1469.04,-160.2 1474.57,-169.23 1479,-163.81"/>
</g>
<!-- Node5&#45;&gt;Node2 -->
<g id="edge22" class="edge">
<title>Node5&#45;&gt;Node2</title>
<path fill="none" stroke="midnightblue" d="M849.09,-142.97C978.24,-142.15 1327.35,-135.79 1432.51,-91.55 1453.12,-82.88 1452.09,-71.24 1470.51,-58.55 1488.13,-46.41 1509.37,-35.04 1526.2,-26.71"/>
<polygon fill="midnightblue" stroke="midnightblue" points="1528.08,-29.68 1535.54,-22.17 1525.02,-23.39 1528.08,-29.68"/>
</g>
<!-- Node5&#45;&gt;Node4 -->
<g id="edge20" class="edge">
<title>Node5&#45;&gt;Node4</title>
<path fill="none" stroke="midnightblue" d="M849.32,-142.56C959.86,-140.73 1237.49,-132.1 1465.51,-91.55 1471.06,-90.56 1476.86,-89.25 1482.53,-87.8"/>
<polygon fill="midnightblue" stroke="midnightblue" points="1483.76,-91.1 1492.49,-85.1 1481.92,-84.34 1483.76,-91.1"/>
</g>
<!-- Node6 -->
<g id="node6" class="node">
<title>Node6</title>
<g id="a_node6"><a xlink:title=" ">
<polygon fill="white" stroke="#bfbfbf" points="400.06,-65.05 400.06,-85.05 444.95,-85.05 444.95,-65.05 400.06,-65.05"/>
<text text-anchor="middle" x="422.51" y="-72.05" font-family="Helvetica,sans-Serif" font-size="10.00">cstdint</text>
</a>
</g>
</g>
<!-- Node5&#45;&gt;Node6 -->
<g id="edge7" class="edge">
<title>Node5&#45;&gt;Node6</title>
<path fill="none" stroke="midnightblue" d="M751.91,-140.46C684.01,-135.81 557.51,-123.35 454.51,-91.55 452.35,-90.89 450.16,-90.09 447.98,-89.23"/>
<polygon fill="midnightblue" stroke="midnightblue" points="449.28,-85.98 438.73,-85.09 446.42,-92.36 449.28,-85.98"/>
</g>
<!-- Node5&#45;&gt;Node7 -->
<g id="edge8" class="edge">
<title>Node5&#45;&gt;Node7</title>
<path fill="none" stroke="midnightblue" d="M849.23,-142.01C996.08,-138.53 1432.78,-125.52 1570.51,-91.55 1573.2,-90.89 1575.94,-90.03 1578.64,-89.06"/>
<polygon fill="midnightblue" stroke="midnightblue" points="1580.19,-92.21 1588.13,-85.18 1577.55,-85.73 1580.19,-92.21"/>
</g>
<!-- Node5&#45;&gt;Node8 -->
<g id="edge9" class="edge">
<title>Node5&#45;&gt;Node8</title>
<path fill="none" stroke="midnightblue" d="M751.92,-141.86C609.08,-138.02 192.3,-124.25 60.51,-91.55 57.82,-90.89 55.08,-90.02 52.37,-89.05"/>
<polygon fill="midnightblue" stroke="midnightblue" points="53.47,-85.72 42.89,-85.17 50.82,-92.2 53.47,-85.72"/>
</g>
<!-- Node9 -->
<g id="node9" class="node">
<title>Node9</title>
<g id="a_node9"><a xlink:title=" ">
<polygon fill="white" stroke="#bfbfbf" points="463.28,-65.05 463.28,-85.05 503.73,-85.05 503.73,-65.05 463.28,-65.05"/>
<text text-anchor="middle" x="483.51" y="-72.05" font-family="Helvetica,sans-Serif" font-size="10.00">string</text>
</a>
</g>
</g>
<!-- Node5&#45;&gt;Node9 -->
<g id="edge10" class="edge">
<title>Node5&#45;&gt;Node9</title>
<path fill="none" stroke="midnightblue" d="M751.92,-138.81C693.94,-132.73 594.64,-119.09 513.51,-91.55 511.83,-90.98 510.13,-90.33 508.43,-89.62"/>
<polygon fill="midnightblue" stroke="midnightblue" points="509.53,-86.28 499,-85.17 506.55,-92.61 509.53,-86.28"/>
</g>
<!-- Node10 -->
<g id="node10" class="node">
<title>Node10</title>
<g id="a_node10"><a xlink:title=" ">
<polygon fill="white" stroke="#bfbfbf" points="636.89,-65.05 636.89,-85.05 680.12,-85.05 680.12,-65.05 636.89,-65.05"/>
<text text-anchor="middle" x="658.51" y="-72.05" font-family="Helvetica,sans-Serif" font-size="10.00">vector</text>
</a>
</g>
</g>
<!-- Node5&#45;&gt;Node10 -->
<g id="edge11" class="edge">
<title>Node5&#45;&gt;Node10</title>
<path fill="none" stroke="midnightblue" d="M767.36,-127.98C745.23,-117.84 715.53,-104.09 689.51,-91.55 688.18,-90.92 686.83,-90.26 685.47,-89.59"/>
<polygon fill="midnightblue" stroke="midnightblue" points="687.01,-86.45 676.49,-85.16 683.91,-92.73 687.01,-86.45"/>
</g>
<!-- Node11 -->
<g id="node11" class="node">
<title>Node11</title>
<g id="a_node11"><a xlink:title=" ">
<polygon fill="white" stroke="#bfbfbf" points="698.16,-65.05 698.16,-85.05 790.85,-85.05 790.85,-65.05 698.16,-65.05"/>
<text text-anchor="middle" x="744.51" y="-72.05" font-family="Helvetica,sans-Serif" font-size="10.00">boost/variant.hpp</text>
</a>
</g>
</g>
<!-- Node5&#45;&gt;Node11 -->
<g id="edge12" class="edge">
<title>Node5&#45;&gt;Node11</title>
<path fill="none" stroke="midnightblue" d="M787.8,-127.85C779.14,-117.49 767.67,-103.77 758.71,-93.05"/>
<polygon fill="midnightblue" stroke="midnightblue" points="761.26,-90.65 752.17,-85.22 755.89,-95.13 761.26,-90.65"/>
</g>
<!-- Node12 -->
<g id="node12" class="node">
<title>Node12</title>
<g id="a_node12"><a xlink:title=" ">
<polygon fill="white" stroke="#bfbfbf" points="808.89,-59.05 808.89,-91.05 902.12,-91.05 902.12,-59.05 808.89,-59.05"/>
<text text-anchor="start" x="816.89" y="-78.05" font-family="Helvetica,sans-Serif" font-size="10.00">fisch/vx/container</text>
<text text-anchor="middle" x="855.51" y="-66.05" font-family="Helvetica,sans-Serif" font-size="10.00">_cast.h</text>
</a>
</g>
</g>
<!-- Node5&#45;&gt;Node12 -->
<g id="edge13" class="edge">
<title>Node5&#45;&gt;Node12</title>
<path fill="none" stroke="midnightblue" d="M812.99,-127.85C819.95,-119.37 828.76,-108.63 836.56,-99.13"/>
<polygon fill="midnightblue" stroke="midnightblue" points="839.44,-101.15 843.08,-91.2 834.02,-96.7 839.44,-101.15"/>
</g>
<!-- Node13 -->
<g id="node13" class="node">
<title>Node13</title>
<g id="a_node13"><a xlink:title=" ">
<polygon fill="white" stroke="#bfbfbf" points="919.89,-59.05 919.89,-91.05 1013.12,-91.05 1013.12,-59.05 919.89,-59.05"/>
<text text-anchor="start" x="927.89" y="-78.05" font-family="Helvetica,sans-Serif" font-size="10.00">fisch/vx/container</text>
<text text-anchor="middle" x="966.51" y="-66.05" font-family="Helvetica,sans-Serif" font-size="10.00">_ticket.h</text>
</a>
</g>
</g>
<!-- Node5&#45;&gt;Node13 -->
<g id="edge14" class="edge">
<title>Node5&#45;&gt;Node13</title>
<path fill="none" stroke="midnightblue" d="M837.76,-128.02C861.92,-118.27 893.59,-105.48 919.48,-95.03"/>
<polygon fill="midnightblue" stroke="midnightblue" points="921.13,-98.14 929.09,-91.15 918.51,-91.65 921.13,-98.14"/>
</g>
<!-- Node14 -->
<g id="node14" class="node">
<title>Node14</title>
<g id="a_node14"><a xlink:title=" ">
<polygon fill="white" stroke="#bfbfbf" points="1031.16,-65.05 1031.16,-85.05 1173.85,-85.05 1173.85,-65.05 1031.16,-65.05"/>
<text text-anchor="middle" x="1102.51" y="-72.05" font-family="Helvetica,sans-Serif" font-size="10.00">fisch/vx/playback_program.h</text>
</a>
</g>
</g>
<!-- Node5&#45;&gt;Node14 -->
<g id="edge15" class="edge">
<title>Node5&#45;&gt;Node14</title>
<path fill="none" stroke="midnightblue" d="M849.36,-132.21C904.95,-119.88 995.32,-99.83 1051.7,-87.32"/>
<polygon fill="midnightblue" stroke="midnightblue" points="1052.47,-90.74 1061.48,-85.15 1050.96,-83.9 1052.47,-90.74"/>
</g>
<!-- Node15 -->
<g id="node15" class="node">
<title>Node15</title>
<g id="a_node15"><a xlink:title=" ">
<polygon fill="white" stroke="#bfbfbf" points="1191.83,-65.05 1191.83,-85.05 1301.18,-85.05 1301.18,-65.05 1191.83,-65.05"/>
<text text-anchor="middle" x="1246.51" y="-72.05" font-family="Helvetica,sans-Serif" font-size="10.00">haldls/cerealization.h</text>
</a>
</g>
</g>
<!-- Node5&#45;&gt;Node15 -->
<g id="edge16" class="edge">
<title>Node5&#45;&gt;Node15</title>
<path fill="none" stroke="midnightblue" d="M849.31,-138.11C922.19,-130.36 1063.63,-113.9 1182.51,-91.55 1188.85,-90.36 1195.5,-88.94 1202.03,-87.45"/>
<polygon fill="midnightblue" stroke="midnightblue" points="1203.17,-90.78 1212.1,-85.08 1201.57,-83.96 1203.17,-90.78"/>
</g>
<!-- Node16 -->
<g id="node16" class="node">
<title>Node16</title>
<g id="a_node16"><a xlink:title=" ">
<polygon fill="white" stroke="#bfbfbf" points="1319.33,-65.05 1319.33,-85.05 1423.68,-85.05 1423.68,-65.05 1319.33,-65.05"/>
<text text-anchor="middle" x="1371.51" y="-72.05" font-family="Helvetica,sans-Serif" font-size="10.00">haldls/vx/common.h</text>
</a>
</g>
</g>
<!-- Node5&#45;&gt;Node16 -->
<g id="edge17" class="edge">
<title>Node5&#45;&gt;Node16</title>
<path fill="none" stroke="midnightblue" d="M849.36,-140.53C940.56,-135.3 1142.68,-121.18 1310.51,-91.55 1316.79,-90.44 1323.38,-89.03 1329.82,-87.52"/>
<polygon fill="midnightblue" stroke="midnightblue" points="1330.85,-90.87 1339.72,-85.08 1329.18,-84.07 1330.85,-90.87"/>
</g>
<!-- Node17 -->
<g id="node17" class="node">
<title>Node17</title>
<g id="a_node17"><a xlink:title=" ">
<polygon fill="white" stroke="#bfbfbf" points="69.27,-65.05 69.27,-85.05 159.74,-85.05 159.74,-65.05 69.27,-65.05"/>
<text text-anchor="middle" x="114.51" y="-72.05" font-family="Helvetica,sans-Serif" font-size="10.00">haldls/vx/event.h</text>
</a>
</g>
</g>
<!-- Node5&#45;&gt;Node17 -->
<g id="edge18" class="edge">
<title>Node5&#45;&gt;Node17</title>
<path fill="none" stroke="midnightblue" d="M751.71,-142.36C645.05,-140.13 383.48,-130.76 168.51,-91.55 163.05,-90.56 157.35,-89.24 151.79,-87.79"/>
<polygon fill="midnightblue" stroke="midnightblue" points="152.58,-84.38 142.01,-85.08 150.71,-91.12 152.58,-84.38"/>
</g>
<!-- Node18 -->
<g id="node18" class="node">
<title>Node18</title>
<g id="a_node18"><a xlink:title=" ">
<polygon fill="white" stroke="#bfbfbf" points="177.88,-65.05 177.88,-85.05 261.13,-85.05 261.13,-65.05 177.88,-65.05"/>
<text text-anchor="middle" x="219.51" y="-72.05" font-family="Helvetica,sans-Serif" font-size="10.00">hate/type_list.h</text>
</a>
</g>
</g>
<!-- Node5&#45;&gt;Node18 -->
<g id="edge19" class="edge">
<title>Node5&#45;&gt;Node18</title>
<path fill="none" stroke="midnightblue" d="M751.7,-141.64C657.56,-138.19 444.75,-126.83 269.51,-91.55 264.75,-90.59 259.79,-89.36 254.94,-88.01"/>
<polygon fill="midnightblue" stroke="midnightblue" points="255.78,-84.61 245.2,-85.12 253.79,-91.32 255.78,-84.61"/>
</g>
<!-- Node19 -->
<g id="node19" class="node">
<title>Node19</title>
<g id="a_node19"><a xlink:title=" ">
<polygon fill="white" stroke="#bfbfbf" points="278.89,-65.05 278.89,-85.05 382.12,-85.05 382.12,-65.05 278.89,-65.05"/>
<text text-anchor="middle" x="330.51" y="-72.05" font-family="Helvetica,sans-Serif" font-size="10.00">hxcomm/vx/target.h</text>
</a>
</g>
</g>
<!-- Node5&#45;&gt;Node19 -->
<g id="edge21" class="edge">
<title>Node5&#45;&gt;Node19</title>
<path fill="none" stroke="midnightblue" d="M751.72,-138.88C674.74,-131.85 520.54,-115.97 391.51,-91.55 385.52,-90.42 379.25,-89.05 373.11,-87.59"/>
<polygon fill="midnightblue" stroke="midnightblue" points="373.49,-84.08 362.95,-85.09 371.82,-90.88 373.49,-84.08"/>
</g>
<!-- Node20 -->
<g id="node20" class="node">
<title>Node20</title>
<g id="a_node20"><a xlink:href="run__time__info_8h.html" target="_top" xlink:title=" ">
<polygon fill="white" stroke="black" points="522.22,-59.05 522.22,-91.05 618.79,-91.05 618.79,-59.05 522.22,-59.05"/>
<text text-anchor="start" x="530.22" y="-78.05" font-family="Helvetica,sans-Serif" font-size="10.00">stadls/vx/run_time</text>
<text text-anchor="middle" x="570.51" y="-66.05" font-family="Helvetica,sans-Serif" font-size="10.00">_info.h</text>
</a>
</g>
</g>
<!-- Node5&#45;&gt;Node20 -->
<g id="edge23" class="edge">
<title>Node5&#45;&gt;Node20</title>
<path fill="none" stroke="midnightblue" d="M751.73,-128.84C715.78,-118.37 666.73,-104.08 628.72,-93.01"/>
<polygon fill="midnightblue" stroke="midnightblue" points="629.4,-89.56 618.82,-90.13 627.44,-96.28 629.4,-89.56"/>
</g>
<!-- Node20&#45;&gt;Node2 -->
<g id="edge25" class="edge">
<title>Node20&#45;&gt;Node2</title>
<path fill="none" stroke="midnightblue" d="M618.86,-60.14C621.77,-59.54 624.67,-59 627.51,-58.55 793.73,-32.2 1305.59,-18.57 1489.14,-14.44"/>
<polygon fill="midnightblue" stroke="midnightblue" points="1489.28,-17.94 1499.2,-14.22 1489.12,-10.94 1489.28,-17.94"/>
</g>
<!-- Node21 -->
<g id="node21" class="node">
<title>Node21</title>
<g id="a_node21"><a xlink:title=" ">
<polygon fill="white" stroke="#bfbfbf" points="510,-2.05 510,-22.05 631.02,-22.05 631.02,-2.05 510,-2.05"/>
<text text-anchor="middle" x="570.51" y="-9.05" font-family="Helvetica,sans-Serif" font-size="10.00">fisch/vx/run_time_info.h</text>
</a>
</g>
</g>
<!-- Node20&#45;&gt;Node21 -->
<g id="edge24" class="edge">
<title>Node20&#45;&gt;Node21</title>
<path fill="none" stroke="midnightblue" d="M570.51,-58.97C570.51,-50.93 570.51,-40.94 570.51,-32.33"/>
<polygon fill="midnightblue" stroke="midnightblue" points="574.01,-32.1 570.51,-22.1 567.01,-32.1 574.01,-32.1"/>
</g>
</g>
</svg>
