<?xml version="1.0" encoding="UTF-8" standalone="no"?>
<!DOCTYPE svg PUBLIC "-//W3C//DTD SVG 1.1//EN"
 "http://www.w3.org/Graphics/SVG/1.1/DTD/svg11.dtd">
<!-- Generated by graphviz version 2.46.0 (0)
 -->
<!-- Title: /jenkins/jenlib_workspaces_f9/bld_nightly&#45;haldls.YmxkX25pZ2h0bHktaGFsZGxzIzEzNzk.x/haldls/include/stadls/vx/v2/dumper.h Pages: 1 -->
<svg width="2331pt" height="400pt"
 viewBox="0.00 0.00 2331.22 399.55" xmlns="http://www.w3.org/2000/svg" xmlns:xlink="http://www.w3.org/1999/xlink">
<g id="graph0" class="graph" transform="scale(1 1) rotate(0) translate(4 395.55)">
<title>/jenkins/jenlib_workspaces_f9/bld_nightly&#45;haldls.YmxkX25pZ2h0bHktaGFsZGxzIzEzNzk.x/haldls/include/stadls/vx/v2/dumper.h</title>
<polygon fill="white" stroke="transparent" points="-4,4 -4,-395.55 2327.22,-395.55 2327.22,4 -4,4"/>
<!-- Node1 -->
<g id="node1" class="node">
<title>Node1</title>
<g id="a_node1"><a xlink:title=" ">
<polygon fill="#bfbfbf" stroke="black" points="411.68,-335.05 411.68,-391.05 592.69,-391.05 592.69,-335.05 411.68,-335.05"/>
<text text-anchor="start" x="419.68" y="-378.05" font-family="Helvetica,sans-Serif" font-size="10.00">/jenkins/jenlib_workspaces</text>
<text text-anchor="start" x="419.68" y="-366.05" font-family="Helvetica,sans-Serif" font-size="10.00">_f9/bld_nightly&#45;haldls.YmxkX25p</text>
<text text-anchor="start" x="419.68" y="-354.05" font-family="Helvetica,sans-Serif" font-size="10.00">Z2h0bHktaGFsZGxzIzEzNzk.x/haldls</text>
<text text-anchor="middle" x="502.18" y="-342.05" font-family="Helvetica,sans-Serif" font-size="10.00">/include/stadls/vx/v2/dumper.h</text>
</a>
</g>
</g>
<!-- Node2 -->
<g id="node2" class="node">
<title>Node2</title>
<g id="a_node2"><a xlink:title=" ">
<polygon fill="white" stroke="#bfbfbf" points="577.51,-65.05 577.51,-85.05 686.86,-85.05 686.86,-65.05 577.51,-65.05"/>
<text text-anchor="middle" x="632.18" y="-72.05" font-family="Helvetica,sans-Serif" font-size="10.00">haldls/cerealization.h</text>
</a>
</g>
</g>
<!-- Node1&#45;&gt;Node2 -->
<g id="edge1" class="edge">
<title>Node1&#45;&gt;Node2</title>
<path fill="none" stroke="midnightblue" d="M411.66,-350.75C242.28,-326.23 -94.95,-259.42 26.18,-127.55 62.22,-88.33 417.94,-78.94 567,-76.73"/>
<polygon fill="midnightblue" stroke="midnightblue" points="567.42,-80.22 577.37,-76.58 567.32,-73.22 567.42,-80.22"/>
</g>
<!-- Node3 -->
<g id="node3" class="node">
<title>Node3</title>
<g id="a_node3"><a xlink:title=" ">
<polygon fill="white" stroke="#bfbfbf" points="162.95,-134.05 162.95,-154.05 283.42,-154.05 283.42,-134.05 162.95,-134.05"/>
<text text-anchor="middle" x="223.18" y="-141.05" font-family="Helvetica,sans-Serif" font-size="10.00">haldls/vx/v2/container.h</text>
</a>
</g>
</g>
<!-- Node1&#45;&gt;Node3 -->
<g id="edge2" class="edge">
<title>Node1&#45;&gt;Node3</title>
<path fill="none" stroke="midnightblue" d="M459.35,-334.85C419.95,-309.21 360.49,-268.95 312.18,-229.55 285.12,-207.48 256.23,-179.03 238.95,-161.42"/>
<polygon fill="midnightblue" stroke="midnightblue" points="241.35,-158.88 231.87,-154.16 236.34,-163.76 241.35,-158.88"/>
</g>
<!-- Node4 -->
<g id="node4" class="node">
<title>Node4</title>
<g id="a_node4"><a xlink:title=" ">
<polygon fill="white" stroke="#bfbfbf" points="35.23,-134.05 35.23,-154.05 145.14,-154.05 145.14,-134.05 35.23,-134.05"/>
<text text-anchor="middle" x="90.18" y="-141.05" font-family="Helvetica,sans-Serif" font-size="10.00">lola/vx/v2/container.h</text>
</a>
</g>
</g>
<!-- Node1&#45;&gt;Node4 -->
<g id="edge3" class="edge">
<title>Node1&#45;&gt;Node4</title>
<path fill="none" stroke="midnightblue" d="M434.83,-334.92C409.55,-324.22 380.76,-311.43 355.18,-298.55 263,-252.14 158.24,-187.85 112.99,-159.49"/>
<polygon fill="midnightblue" stroke="midnightblue" points="114.83,-156.51 104.5,-154.15 111.11,-162.44 114.83,-156.51"/>
</g>
<!-- Node5 -->
<g id="node5" class="node">
<title>Node5</title>
<g id="a_node5"><a xlink:href="dumper_8h.html" target="_top" xlink:title=" ">
<polygon fill="white" stroke="black" points="1193.23,-203.05 1193.23,-223.05 1293.14,-223.05 1293.14,-203.05 1193.23,-203.05"/>
<text text-anchor="middle" x="1243.18" y="-210.05" font-family="Helvetica,sans-Serif" font-size="10.00">stadls/vx/dumper.h</text>
</a>
</g>
</g>
<!-- Node1&#45;&gt;Node5 -->
<g id="edge4" class="edge">
<title>Node1&#45;&gt;Node5</title>
<path fill="none" stroke="midnightblue" d="M593.05,-343.9C748.63,-312.83 1061.52,-250.34 1188.13,-225.05"/>
<polygon fill="midnightblue" stroke="midnightblue" points="1188.88,-228.47 1198,-223.08 1187.51,-221.6 1188.88,-228.47"/>
</g>
<!-- Node26 -->
<g id="node26" class="node">
<title>Node26</title>
<g id="a_node26"><a xlink:href="genpybind_8h.html" target="_top" xlink:title=" ">
<polygon fill="white" stroke="black" points="1193.11,-2.05 1193.11,-22.05 1305.26,-22.05 1305.26,-2.05 1193.11,-2.05"/>
<text text-anchor="middle" x="1249.18" y="-9.05" font-family="Helvetica,sans-Serif" font-size="10.00">stadls/vx/genpybind.h</text>
</a>
</g>
</g>
<!-- Node1&#45;&gt;Node26 -->
<g id="edge32" class="edge">
<title>Node1&#45;&gt;Node26</title>
<path fill="none" stroke="midnightblue" d="M592.8,-359.49C960.7,-348.49 2323.18,-301.85 2323.18,-214.05 2323.18,-214.05 2323.18,-214.05 2323.18,-143.05 2323.18,-102.89 2323.72,-82.09 2291.18,-58.55 2251.63,-29.94 1538.97,-17.24 1315.58,-13.95"/>
<polygon fill="midnightblue" stroke="midnightblue" points="1315.36,-10.45 1305.31,-13.8 1315.26,-17.45 1315.36,-10.45"/>
</g>
<!-- Node29 -->
<g id="node29" class="node">
<title>Node29</title>
<g id="a_node29"><a xlink:href="playback__program__builder_8h.html" target="_top" xlink:title=" ">
<polygon fill="white" stroke="black" points="1546.84,-266.05 1546.84,-298.05 1649.53,-298.05 1649.53,-266.05 1546.84,-266.05"/>
<text text-anchor="start" x="1554.84" y="-285.05" font-family="Helvetica,sans-Serif" font-size="10.00">stadls/vx/playback</text>
<text text-anchor="middle" x="1598.18" y="-273.05" font-family="Helvetica,sans-Serif" font-size="10.00">_program_builder.h</text>
</a>
</g>
</g>
<!-- Node1&#45;&gt;Node29 -->
<g id="edge33" class="edge">
<title>Node1&#45;&gt;Node29</title>
<path fill="none" stroke="midnightblue" d="M592.81,-355.52C809.5,-339.9 1353.2,-300.71 1536.64,-287.49"/>
<polygon fill="midnightblue" stroke="midnightblue" points="1536.93,-290.98 1546.65,-286.77 1536.43,-283.99 1536.93,-290.98"/>
</g>
<!-- Node32 -->
<g id="node32" class="node">
<title>Node32</title>
<g id="a_node32"><a xlink:href="v2_2coordinate__to__container_8h.html" target="_top" xlink:title=" ">
<polygon fill="white" stroke="black" points="321.34,-197.05 321.34,-229.05 439.03,-229.05 439.03,-197.05 321.34,-197.05"/>
<text text-anchor="start" x="329.34" y="-216.05" font-family="Helvetica,sans-Serif" font-size="10.00">stadls/vx/v2/coordinate</text>
<text text-anchor="middle" x="380.18" y="-204.05" font-family="Helvetica,sans-Serif" font-size="10.00">_to_container.h</text>
</a>
</g>
</g>
<!-- Node1&#45;&gt;Node32 -->
<g id="edge45" class="edge">
<title>Node1&#45;&gt;Node32</title>
<path fill="none" stroke="midnightblue" d="M479.81,-334.91C456.72,-306.9 421.08,-263.67 399.28,-237.21"/>
<polygon fill="midnightblue" stroke="midnightblue" points="401.78,-234.75 392.72,-229.26 396.38,-239.2 401.78,-234.75"/>
</g>
<!-- Node33 -->
<g id="node33" class="node">
<title>Node33</title>
<g id="a_node33"><a xlink:title=" ">
<polygon fill="white" stroke="#bfbfbf" points="338.78,-134.05 338.78,-154.05 467.59,-154.05 467.59,-134.05 338.78,-134.05"/>
<text text-anchor="middle" x="403.18" y="-141.05" font-family="Helvetica,sans-Serif" font-size="10.00">haldls/vx/v2/container.def</text>
</a>
</g>
</g>
<!-- Node1&#45;&gt;Node33 -->
<g id="edge65" class="edge">
<title>Node1&#45;&gt;Node33</title>
<path fill="none" stroke="midnightblue" d="M496.85,-334.89C489.42,-300.92 473.87,-241.75 448.18,-196.55 440.85,-183.65 429.95,-171.07 420.71,-161.57"/>
<polygon fill="midnightblue" stroke="midnightblue" points="423.03,-158.94 413.46,-154.38 418.1,-163.91 423.03,-158.94"/>
</g>
<!-- Node34 -->
<g id="node34" class="node">
<title>Node34</title>
<g id="a_node34"><a xlink:title=" ">
<polygon fill="white" stroke="#bfbfbf" points="486.06,-134.05 486.06,-154.05 604.31,-154.05 604.31,-134.05 486.06,-134.05"/>
<text text-anchor="middle" x="545.18" y="-141.05" font-family="Helvetica,sans-Serif" font-size="10.00">lola/vx/v2/container.def</text>
</a>
</g>
</g>
<!-- Node1&#45;&gt;Node34 -->
<g id="edge66" class="edge">
<title>Node1&#45;&gt;Node34</title>
<path fill="none" stroke="midnightblue" d="M507.54,-335.01C516.35,-290.54 533.69,-203.07 541.37,-164.31"/>
<polygon fill="midnightblue" stroke="midnightblue" points="544.83,-164.84 543.34,-154.35 537.97,-163.48 544.83,-164.84"/>
</g>
<!-- Node35 -->
<g id="node35" class="node">
<title>Node35</title>
<g id="a_node35"><a xlink:href="v2_2dumperdone_8h.html" target="_top" xlink:title=" ">
<polygon fill="white" stroke="black" points="635.44,-203.05 635.44,-223.05 770.92,-223.05 770.92,-203.05 635.44,-203.05"/>
<text text-anchor="middle" x="703.18" y="-210.05" font-family="Helvetica,sans-Serif" font-size="10.00">stadls/vx/v2/dumperdone.h</text>
</a>
</g>
</g>
<!-- Node1&#45;&gt;Node35 -->
<g id="edge51" class="edge">
<title>Node1&#45;&gt;Node35</title>
<path fill="none" stroke="midnightblue" d="M539.05,-334.91C581.29,-303.81 649,-253.95 682.73,-229.12"/>
<polygon fill="midnightblue" stroke="midnightblue" points="684.93,-231.84 690.91,-223.09 680.78,-226.2 684.93,-231.84"/>
</g>
<!-- Node6 -->
<g id="node6" class="node">
<title>Node6</title>
<g id="a_node6"><a xlink:title=" ">
<polygon fill="white" stroke="#bfbfbf" points="1113.68,-128.05 1113.68,-160.05 1214.69,-160.05 1214.69,-128.05 1113.68,-128.05"/>
<text text-anchor="start" x="1121.68" y="-147.05" font-family="Helvetica,sans-Serif" font-size="10.00">halco/hicann&#45;dls/vx</text>
<text text-anchor="middle" x="1164.18" y="-135.05" font-family="Helvetica,sans-Serif" font-size="10.00">/barrier.h</text>
</a>
</g>
</g>
<!-- Node5&#45;&gt;Node6 -->
<g id="edge5" class="edge">
<title>Node5&#45;&gt;Node6</title>
<path fill="none" stroke="midnightblue" d="M1232.53,-203.02C1221.59,-193.73 1204.14,-178.94 1189.62,-166.62"/>
<polygon fill="midnightblue" stroke="midnightblue" points="1191.8,-163.88 1181.91,-160.09 1187.27,-169.22 1191.8,-163.88"/>
</g>
<!-- Node7 -->
<g id="node7" class="node">
<title>Node7</title>
<g id="a_node7"><a xlink:title=" ">
<polygon fill="white" stroke="#bfbfbf" points="1271.68,-128.05 1271.68,-160.05 1372.69,-160.05 1372.69,-128.05 1271.68,-128.05"/>
<text text-anchor="start" x="1279.68" y="-147.05" font-family="Helvetica,sans-Serif" font-size="10.00">halco/hicann&#45;dls/vx</text>
<text text-anchor="middle" x="1322.18" y="-135.05" font-family="Helvetica,sans-Serif" font-size="10.00">/omnibus.h</text>
</a>
</g>
</g>
<!-- Node5&#45;&gt;Node7 -->
<g id="edge6" class="edge">
<title>Node5&#45;&gt;Node7</title>
<path fill="none" stroke="midnightblue" d="M1253.84,-203.02C1264.78,-193.73 1282.23,-178.94 1296.75,-166.62"/>
<polygon fill="midnightblue" stroke="midnightblue" points="1299.1,-169.22 1304.46,-160.09 1294.57,-163.88 1299.1,-169.22"/>
</g>
<!-- Node8 -->
<g id="node8" class="node">
<title>Node8</title>
<g id="a_node8"><a xlink:title=" ">
<polygon fill="white" stroke="#bfbfbf" points="893.74,-134.05 893.74,-154.05 988.63,-154.05 988.63,-134.05 893.74,-134.05"/>
<text text-anchor="middle" x="941.18" y="-141.05" font-family="Helvetica,sans-Serif" font-size="10.00">haldls/vx/barrier.h</text>
</a>
</g>
</g>
<!-- Node5&#45;&gt;Node8 -->
<g id="edge7" class="edge">
<title>Node5&#45;&gt;Node8</title>
<path fill="none" stroke="midnightblue" d="M1196.03,-202.99C1146.57,-193.28 1066.64,-177.04 998.18,-160.55 993.2,-159.35 987.99,-158.03 982.84,-156.68"/>
<polygon fill="midnightblue" stroke="midnightblue" points="983.62,-153.27 973.06,-154.07 981.82,-160.03 983.62,-153.27"/>
</g>
<!-- Node9 -->
<g id="node9" class="node">
<title>Node9</title>
<g id="a_node9"><a xlink:title=" ">
<polygon fill="white" stroke="#bfbfbf" points="1390.51,-134.05 1390.51,-154.05 1479.86,-154.05 1479.86,-134.05 1390.51,-134.05"/>
<text text-anchor="middle" x="1435.18" y="-141.05" font-family="Helvetica,sans-Serif" font-size="10.00">haldls/vx/block.h</text>
</a>
</g>
</g>
<!-- Node5&#45;&gt;Node9 -->
<g id="edge8" class="edge">
<title>Node5&#45;&gt;Node9</title>
<path fill="none" stroke="midnightblue" d="M1269.08,-203.02C1302.72,-191.28 1361.61,-170.73 1399.47,-157.51"/>
<polygon fill="midnightblue" stroke="midnightblue" points="1400.8,-160.76 1409.09,-154.16 1398.49,-154.15 1400.8,-160.76"/>
</g>
<!-- Node10 -->
<g id="node10" class="node">
<title>Node10</title>
<g id="a_node10"><a xlink:title=" ">
<polygon fill="white" stroke="#bfbfbf" points="1007.07,-134.05 1007.07,-154.05 1095.3,-154.05 1095.3,-134.05 1007.07,-134.05"/>
<text text-anchor="middle" x="1051.18" y="-141.05" font-family="Helvetica,sans-Serif" font-size="10.00">haldls/vx/timer.h</text>
</a>
</g>
</g>
<!-- Node5&#45;&gt;Node10 -->
<g id="edge9" class="edge">
<title>Node5&#45;&gt;Node10</title>
<path fill="none" stroke="midnightblue" d="M1217.29,-203.02C1183.65,-191.28 1124.76,-170.73 1086.9,-157.51"/>
<polygon fill="midnightblue" stroke="midnightblue" points="1087.88,-154.15 1077.28,-154.16 1085.57,-160.76 1087.88,-154.15"/>
</g>
<!-- Node11 -->
<g id="node11" class="node">
<title>Node11</title>
<g id="a_node11"><a xlink:title=" ">
<polygon fill="white" stroke="#bfbfbf" points="916.68,-65.05 916.68,-85.05 997.69,-85.05 997.69,-65.05 916.68,-65.05"/>
<text text-anchor="middle" x="957.18" y="-72.05" font-family="Helvetica,sans-Serif" font-size="10.00">hate/visibility.h</text>
</a>
</g>
</g>
<!-- Node5&#45;&gt;Node11 -->
<g id="edge10" class="edge">
<title>Node5&#45;&gt;Node11</title>
<path fill="none" stroke="midnightblue" d="M1244.13,-202.84C1245.37,-185.39 1245.28,-147.48 1224.18,-127.55 1153.12,-60.41 1102.32,-114.08 1007.18,-91.55 1002.79,-90.51 998.21,-89.29 993.69,-88"/>
<polygon fill="midnightblue" stroke="midnightblue" points="994.57,-84.61 983.99,-85.1 992.57,-91.31 994.57,-84.61"/>
</g>
<!-- Node12 -->
<g id="node12" class="node">
<title>Node12</title>
<g id="a_node12"><a xlink:href="playback__program_8h.html" target="_top" xlink:title=" ">
<polygon fill="white" stroke="black" points="1536.62,-128.05 1536.62,-160.05 1633.75,-160.05 1633.75,-128.05 1536.62,-128.05"/>
<text text-anchor="start" x="1544.62" y="-147.05" font-family="Helvetica,sans-Serif" font-size="10.00">stadls/vx/playback</text>
<text text-anchor="middle" x="1585.18" y="-135.05" font-family="Helvetica,sans-Serif" font-size="10.00">_program.h</text>
</a>
</g>
</g>
<!-- Node5&#45;&gt;Node12 -->
<g id="edge11" class="edge">
<title>Node5&#45;&gt;Node12</title>
<path fill="none" stroke="midnightblue" d="M1289.31,-203.02C1350.7,-190.99 1459.31,-169.71 1526.48,-156.55"/>
<polygon fill="midnightblue" stroke="midnightblue" points="1527.34,-159.95 1536.48,-154.59 1526,-153.08 1527.34,-159.95"/>
</g>
<!-- Node12&#45;&gt;Node2 -->
<g id="edge21" class="edge">
<title>Node12&#45;&gt;Node2</title>
<path fill="none" stroke="midnightblue" d="M1536.49,-134.11C1521.38,-131.62 1504.63,-129.17 1489.18,-127.55 1159.93,-93.11 1074.83,-122.08 745.18,-91.55 729.58,-90.11 712.82,-88.07 697.11,-85.95"/>
<polygon fill="midnightblue" stroke="midnightblue" points="697.35,-82.45 686.96,-84.55 696.39,-89.39 697.35,-82.45"/>
</g>
<!-- Node12&#45;&gt;Node11 -->
<g id="edge25" class="edge">
<title>Node12&#45;&gt;Node11</title>
<path fill="none" stroke="midnightblue" d="M1536.51,-130.2C1531.69,-129.19 1526.86,-128.29 1522.18,-127.55 1295.51,-92.01 1232.71,-133.8 1007.18,-91.55 1002.3,-90.64 997.23,-89.41 992.27,-88.04"/>
<polygon fill="midnightblue" stroke="midnightblue" points="992.92,-84.58 982.34,-85.09 990.93,-91.29 992.92,-84.58"/>
</g>
<!-- Node13 -->
<g id="node13" class="node">
<title>Node13</title>
<g id="a_node13"><a xlink:title=" ">
<polygon fill="white" stroke="#bfbfbf" points="1276.74,-65.05 1276.74,-85.05 1321.63,-85.05 1321.63,-65.05 1276.74,-65.05"/>
<text text-anchor="middle" x="1299.18" y="-72.05" font-family="Helvetica,sans-Serif" font-size="10.00">cstdint</text>
</a>
</g>
</g>
<!-- Node12&#45;&gt;Node13 -->
<g id="edge12" class="edge">
<title>Node12&#45;&gt;Node13</title>
<path fill="none" stroke="midnightblue" d="M1536.41,-130.77C1531.61,-129.64 1526.81,-128.55 1522.18,-127.55 1437.33,-109.17 1412.47,-119.23 1330.18,-91.55 1328.3,-90.92 1326.39,-90.19 1324.49,-89.4"/>
<polygon fill="midnightblue" stroke="midnightblue" points="1325.78,-86.14 1315.23,-85.14 1322.84,-92.5 1325.78,-86.14"/>
</g>
<!-- Node14 -->
<g id="node14" class="node">
<title>Node14</title>
<g id="a_node14"><a xlink:title=" ">
<polygon fill="white" stroke="#bfbfbf" points="2083.13,-65.05 2083.13,-85.05 2135.24,-85.05 2135.24,-65.05 2083.13,-65.05"/>
<text text-anchor="middle" x="2109.18" y="-72.05" font-family="Helvetica,sans-Serif" font-size="10.00">memory</text>
</a>
</g>
</g>
<!-- Node12&#45;&gt;Node14 -->
<g id="edge13" class="edge">
<title>Node12&#45;&gt;Node14</title>
<path fill="none" stroke="midnightblue" d="M1633.98,-142.9C1723,-141.54 1917.07,-133.5 2074.18,-91.55 2076.8,-90.85 2079.48,-89.98 2082.12,-89.02"/>
<polygon fill="midnightblue" stroke="midnightblue" points="2083.48,-92.24 2091.41,-85.21 2080.83,-85.76 2083.48,-92.24"/>
</g>
<!-- Node15 -->
<g id="node15" class="node">
<title>Node15</title>
<g id="a_node15"><a xlink:title=" ">
<polygon fill="white" stroke="#bfbfbf" points="1339.68,-65.05 1339.68,-85.05 1390.69,-85.05 1390.69,-65.05 1339.68,-65.05"/>
<text text-anchor="middle" x="1365.18" y="-72.05" font-family="Helvetica,sans-Serif" font-size="10.00">optional</text>
</a>
</g>
</g>
<!-- Node12&#45;&gt;Node15 -->
<g id="edge14" class="edge">
<title>Node12&#45;&gt;Node15</title>
<path fill="none" stroke="midnightblue" d="M1536.38,-130.33C1490.46,-118.2 1425.13,-100.5 1400.18,-91.55 1398.05,-90.79 1395.86,-89.95 1393.67,-89.08"/>
<polygon fill="midnightblue" stroke="midnightblue" points="1394.81,-85.76 1384.24,-85.09 1392.09,-92.2 1394.81,-85.76"/>
</g>
<!-- Node16 -->
<g id="node16" class="node">
<title>Node16</title>
<g id="a_node16"><a xlink:title=" ">
<polygon fill="white" stroke="#bfbfbf" points="1408.96,-65.05 1408.96,-85.05 1449.41,-85.05 1449.41,-65.05 1408.96,-65.05"/>
<text text-anchor="middle" x="1429.18" y="-72.05" font-family="Helvetica,sans-Serif" font-size="10.00">string</text>
</a>
</g>
</g>
<!-- Node12&#45;&gt;Node16 -->
<g id="edge15" class="edge">
<title>Node12&#45;&gt;Node16</title>
<path fill="none" stroke="midnightblue" d="M1545.92,-128.04C1520.86,-118.21 1487.83,-104.77 1459.18,-91.55 1457.99,-91 1456.77,-90.42 1455.54,-89.83"/>
<polygon fill="midnightblue" stroke="midnightblue" points="1456.7,-86.5 1446.19,-85.17 1453.58,-92.77 1456.7,-86.5"/>
</g>
<!-- Node17 -->
<g id="node17" class="node">
<title>Node17</title>
<g id="a_node17"><a xlink:title=" ">
<polygon fill="white" stroke="#bfbfbf" points="855.57,-65.05 855.57,-85.05 898.8,-85.05 898.8,-65.05 855.57,-65.05"/>
<text text-anchor="middle" x="877.18" y="-72.05" font-family="Helvetica,sans-Serif" font-size="10.00">vector</text>
</a>
</g>
</g>
<!-- Node12&#45;&gt;Node17 -->
<g id="edge16" class="edge">
<title>Node12&#45;&gt;Node17</title>
<path fill="none" stroke="midnightblue" d="M1536.47,-134.24C1521.36,-131.76 1504.62,-129.27 1489.18,-127.55 1231.62,-98.86 1157,-160.51 907.18,-91.55 905.03,-90.96 902.84,-90.19 900.69,-89.33"/>
<polygon fill="midnightblue" stroke="midnightblue" points="902.18,-86.16 891.64,-85.06 899.19,-92.49 902.18,-86.16"/>
</g>
<!-- Node18 -->
<g id="node18" class="node">
<title>Node18</title>
<g id="a_node18"><a xlink:title=" ">
<polygon fill="white" stroke="#bfbfbf" points="1467.84,-65.05 1467.84,-85.05 1560.53,-85.05 1560.53,-65.05 1467.84,-65.05"/>
<text text-anchor="middle" x="1514.18" y="-72.05" font-family="Helvetica,sans-Serif" font-size="10.00">boost/variant.hpp</text>
</a>
</g>
</g>
<!-- Node12&#45;&gt;Node18 -->
<g id="edge17" class="edge">
<title>Node12&#45;&gt;Node18</title>
<path fill="none" stroke="midnightblue" d="M1569.07,-127.85C1557.77,-117.18 1542.69,-102.95 1531.19,-92.1"/>
<polygon fill="midnightblue" stroke="midnightblue" points="1533.57,-89.53 1523.9,-85.22 1528.77,-94.63 1533.57,-89.53"/>
</g>
<!-- Node19 -->
<g id="node19" class="node">
<title>Node19</title>
<g id="a_node19"><a xlink:title=" ">
<polygon fill="white" stroke="#bfbfbf" points="1578.57,-59.05 1578.57,-91.05 1671.8,-91.05 1671.8,-59.05 1578.57,-59.05"/>
<text text-anchor="start" x="1586.57" y="-78.05" font-family="Helvetica,sans-Serif" font-size="10.00">fisch/vx/container</text>
<text text-anchor="middle" x="1625.18" y="-66.05" font-family="Helvetica,sans-Serif" font-size="10.00">_cast.h</text>
</a>
</g>
</g>
<!-- Node12&#45;&gt;Node19 -->
<g id="edge18" class="edge">
<title>Node12&#45;&gt;Node19</title>
<path fill="none" stroke="midnightblue" d="M1594.26,-127.85C1599.17,-119.63 1605.35,-109.28 1610.89,-100"/>
<polygon fill="midnightblue" stroke="midnightblue" points="1614.02,-101.58 1616.14,-91.2 1608.01,-97.99 1614.02,-101.58"/>
</g>
<!-- Node20 -->
<g id="node20" class="node">
<title>Node20</title>
<g id="a_node20"><a xlink:title=" ">
<polygon fill="white" stroke="#bfbfbf" points="1689.57,-59.05 1689.57,-91.05 1782.8,-91.05 1782.8,-59.05 1689.57,-59.05"/>
<text text-anchor="start" x="1697.57" y="-78.05" font-family="Helvetica,sans-Serif" font-size="10.00">fisch/vx/container</text>
<text text-anchor="middle" x="1736.18" y="-66.05" font-family="Helvetica,sans-Serif" font-size="10.00">_ticket.h</text>
</a>
</g>
</g>
<!-- Node12&#45;&gt;Node20 -->
<g id="edge19" class="edge">
<title>Node12&#45;&gt;Node20</title>
<path fill="none" stroke="midnightblue" d="M1619.07,-128.02C1640.85,-118.35 1669.35,-105.71 1692.78,-95.31"/>
<polygon fill="midnightblue" stroke="midnightblue" points="1694.43,-98.41 1702.15,-91.15 1691.59,-92.01 1694.43,-98.41"/>
</g>
<!-- Node21 -->
<g id="node21" class="node">
<title>Node21</title>
<g id="a_node21"><a xlink:title=" ">
<polygon fill="white" stroke="#bfbfbf" points="1800.84,-65.05 1800.84,-85.05 1943.53,-85.05 1943.53,-65.05 1800.84,-65.05"/>
<text text-anchor="middle" x="1872.18" y="-72.05" font-family="Helvetica,sans-Serif" font-size="10.00">fisch/vx/playback_program.h</text>
</a>
</g>
</g>
<!-- Node12&#45;&gt;Node21 -->
<g id="edge20" class="edge">
<title>Node12&#45;&gt;Node21</title>
<path fill="none" stroke="midnightblue" d="M1633.87,-131.69C1686.76,-119.34 1770.74,-99.73 1823.59,-87.4"/>
<polygon fill="midnightblue" stroke="midnightblue" points="1824.46,-90.79 1833.4,-85.11 1822.87,-83.97 1824.46,-90.79"/>
</g>
<!-- Node22 -->
<g id="node22" class="node">
<title>Node22</title>
<g id="a_node22"><a xlink:title=" ">
<polygon fill="white" stroke="#bfbfbf" points="2153.01,-65.05 2153.01,-85.05 2257.36,-85.05 2257.36,-65.05 2153.01,-65.05"/>
<text text-anchor="middle" x="2205.18" y="-72.05" font-family="Helvetica,sans-Serif" font-size="10.00">haldls/vx/common.h</text>
</a>
</g>
</g>
<!-- Node12&#45;&gt;Node22 -->
<g id="edge22" class="edge">
<title>Node12&#45;&gt;Node22</title>
<path fill="none" stroke="midnightblue" d="M1634.12,-141.13C1731.75,-136.72 1957.37,-123.69 2144.18,-91.55 2150.47,-90.47 2157.07,-89.08 2163.5,-87.57"/>
<polygon fill="midnightblue" stroke="midnightblue" points="2164.54,-90.92 2173.41,-85.13 2162.87,-84.12 2164.54,-90.92"/>
</g>
<!-- Node23 -->
<g id="node23" class="node">
<title>Node23</title>
<g id="a_node23"><a xlink:title=" ">
<polygon fill="white" stroke="#bfbfbf" points="1130.95,-65.05 1130.95,-85.05 1221.42,-85.05 1221.42,-65.05 1130.95,-65.05"/>
<text text-anchor="middle" x="1176.18" y="-72.05" font-family="Helvetica,sans-Serif" font-size="10.00">haldls/vx/event.h</text>
</a>
</g>
</g>
<!-- Node12&#45;&gt;Node23 -->
<g id="edge23" class="edge">
<title>Node12&#45;&gt;Node23</title>
<path fill="none" stroke="midnightblue" d="M1536.47,-130.47C1531.66,-129.41 1526.84,-128.41 1522.18,-127.55 1395.78,-104.16 1361.41,-115.94 1235.18,-91.55 1229.39,-90.43 1223.32,-89.07 1217.37,-87.61"/>
<polygon fill="midnightblue" stroke="midnightblue" points="1218.1,-84.19 1207.55,-85.11 1216.37,-90.97 1218.1,-84.19"/>
</g>
<!-- Node24 -->
<g id="node24" class="node">
<title>Node24</title>
<g id="a_node24"><a xlink:title=" ">
<polygon fill="white" stroke="#bfbfbf" points="754.56,-65.05 754.56,-85.05 837.81,-85.05 837.81,-65.05 754.56,-65.05"/>
<text text-anchor="middle" x="796.18" y="-72.05" font-family="Helvetica,sans-Serif" font-size="10.00">hate/type_list.h</text>
</a>
</g>
</g>
<!-- Node12&#45;&gt;Node24 -->
<g id="edge24" class="edge">
<title>Node12&#45;&gt;Node24</title>
<path fill="none" stroke="midnightblue" d="M1536.48,-134.18C1521.37,-131.7 1504.63,-129.23 1489.18,-127.55 1204.63,-96.7 1127.87,-142.31 846.18,-91.55 841.12,-90.64 835.84,-89.37 830.7,-87.95"/>
<polygon fill="midnightblue" stroke="midnightblue" points="831.65,-84.58 821.07,-85.08 829.65,-91.29 831.65,-84.58"/>
</g>
<!-- Node25 -->
<g id="node25" class="node">
<title>Node25</title>
<g id="a_node25"><a xlink:title=" ">
<polygon fill="white" stroke="#bfbfbf" points="1961.57,-65.05 1961.57,-85.05 2064.8,-85.05 2064.8,-65.05 1961.57,-65.05"/>
<text text-anchor="middle" x="2013.18" y="-72.05" font-family="Helvetica,sans-Serif" font-size="10.00">hxcomm/vx/target.h</text>
</a>
</g>
</g>
<!-- Node12&#45;&gt;Node25 -->
<g id="edge26" class="edge">
<title>Node12&#45;&gt;Node25</title>
<path fill="none" stroke="midnightblue" d="M1633.85,-137.94C1704.4,-130.14 1839.02,-113.8 1952.18,-91.55 1958.09,-90.39 1964.28,-89.01 1970.36,-87.56"/>
<polygon fill="midnightblue" stroke="midnightblue" points="1971.54,-90.88 1980.41,-85.08 1969.86,-84.08 1971.54,-90.88"/>
</g>
<!-- Node12&#45;&gt;Node26 -->
<g id="edge27" class="edge">
<title>Node12&#45;&gt;Node26</title>
<path fill="none" stroke="midnightblue" d="M1536.45,-130.55C1531.65,-129.47 1526.83,-128.45 1522.18,-127.55 1466.21,-116.73 1310.4,-129.87 1268.18,-91.55 1251.84,-76.72 1248.41,-50.44 1248.2,-32.41"/>
<polygon fill="midnightblue" stroke="midnightblue" points="1251.7,-32.25 1248.4,-22.18 1244.7,-32.11 1251.7,-32.25"/>
</g>
<!-- Node27 -->
<g id="node27" class="node">
<title>Node27</title>
<g id="a_node27"><a xlink:href="run__time__info_8h.html" target="_top" xlink:title=" ">
<polygon fill="white" stroke="black" points="1015.9,-59.05 1015.9,-91.05 1112.47,-91.05 1112.47,-59.05 1015.9,-59.05"/>
<text text-anchor="start" x="1023.9" y="-78.05" font-family="Helvetica,sans-Serif" font-size="10.00">stadls/vx/run_time</text>
<text text-anchor="middle" x="1064.18" y="-66.05" font-family="Helvetica,sans-Serif" font-size="10.00">_info.h</text>
</a>
</g>
</g>
<!-- Node12&#45;&gt;Node27 -->
<g id="edge29" class="edge">
<title>Node12&#45;&gt;Node27</title>
<path fill="none" stroke="midnightblue" d="M1536.5,-130.3C1531.68,-129.27 1526.85,-128.33 1522.18,-127.55 1349.31,-98.68 1299.72,-121.84 1122.69,-91.42"/>
<polygon fill="midnightblue" stroke="midnightblue" points="1123.24,-87.96 1112.78,-89.69 1122.03,-94.86 1123.24,-87.96"/>
</g>
<!-- Node26&#45;&gt;Node26 -->
<g id="edge28" class="edge">
<title>Node26&#45;&gt;Node26</title>
<path fill="none" stroke="midnightblue" d="M1277.69,-22.11C1300.18,-26 1323.26,-22.65 1323.26,-12.05 1323.26,-3.03 1306.52,0.74 1287.67,-0.74"/>
<polygon fill="midnightblue" stroke="midnightblue" points="1287.18,2.72 1277.69,-1.99 1288.05,-4.22 1287.18,2.72"/>
</g>
<!-- Node27&#45;&gt;Node26 -->
<g id="edge31" class="edge">
<title>Node27&#45;&gt;Node26</title>
<path fill="none" stroke="midnightblue" d="M1109.91,-58.97C1141.31,-48.62 1182.46,-35.05 1211.87,-25.36"/>
<polygon fill="midnightblue" stroke="midnightblue" points="1213.35,-28.55 1221.75,-22.1 1211.16,-21.91 1213.35,-28.55"/>
</g>
<!-- Node28 -->
<g id="node28" class="node">
<title>Node28</title>
<g id="a_node28"><a xlink:title=" ">
<polygon fill="white" stroke="#bfbfbf" points="1003.67,-2.05 1003.67,-22.05 1124.69,-22.05 1124.69,-2.05 1003.67,-2.05"/>
<text text-anchor="middle" x="1064.18" y="-9.05" font-family="Helvetica,sans-Serif" font-size="10.00">fisch/vx/run_time_info.h</text>
</a>
</g>
</g>
<!-- Node27&#45;&gt;Node28 -->
<g id="edge30" class="edge">
<title>Node27&#45;&gt;Node28</title>
<path fill="none" stroke="midnightblue" d="M1064.18,-58.97C1064.18,-50.93 1064.18,-40.94 1064.18,-32.33"/>
<polygon fill="midnightblue" stroke="midnightblue" points="1067.68,-32.1 1064.18,-22.1 1060.68,-32.1 1067.68,-32.1"/>
</g>
<!-- Node29&#45;&gt;Node5 -->
<g id="edge42" class="edge">
<title>Node29&#45;&gt;Node5</title>
<path fill="none" stroke="midnightblue" d="M1546.56,-271.31C1481.26,-258.99 1369.14,-237.82 1301.02,-224.97"/>
<polygon fill="midnightblue" stroke="midnightblue" points="1301.36,-221.47 1290.89,-223.06 1300.06,-228.35 1301.36,-221.47"/>
</g>
<!-- Node29&#45;&gt;Node6 -->
<g id="edge37" class="edge">
<title>Node29&#45;&gt;Node6</title>
<path fill="none" stroke="midnightblue" d="M1546.68,-281.71C1447.81,-281.86 1236.55,-276.52 1184.18,-229.55 1167.78,-214.84 1163.59,-189.39 1163.01,-170.26"/>
<polygon fill="midnightblue" stroke="midnightblue" points="1166.51,-170.12 1163.02,-160.12 1159.51,-170.12 1166.51,-170.12"/>
</g>
<!-- Node29&#45;&gt;Node8 -->
<g id="edge38" class="edge">
<title>Node29&#45;&gt;Node8</title>
<path fill="none" stroke="midnightblue" d="M1546.56,-279.04C1464.35,-274.93 1299.08,-262.92 1163.18,-229.55 1091.25,-211.89 1010.98,-177.42 969.48,-158.42"/>
<polygon fill="midnightblue" stroke="midnightblue" points="970.82,-155.18 960.27,-154.16 967.88,-161.54 970.82,-155.18"/>
</g>
<!-- Node29&#45;&gt;Node11 -->
<g id="edge40" class="edge">
<title>Node29&#45;&gt;Node11</title>
<path fill="none" stroke="midnightblue" d="M1569.78,-265.87C1555.35,-256.93 1538.52,-244.46 1527.18,-229.55 1497.91,-191.04 1527.86,-156.61 1489.18,-127.55 1403.31,-63.03 1112.71,-111.58 1007.18,-91.55 1002.31,-90.63 997.23,-89.39 992.27,-88.02"/>
<polygon fill="midnightblue" stroke="midnightblue" points="992.92,-84.56 982.34,-85.07 990.93,-91.27 992.92,-84.56"/>
</g>
<!-- Node29&#45;&gt;Node12 -->
<g id="edge44" class="edge">
<title>Node29&#45;&gt;Node12</title>
<path fill="none" stroke="midnightblue" d="M1643.84,-265.84C1660.53,-257.81 1677.64,-246.1 1687.18,-229.55 1694.51,-216.85 1694.87,-209.04 1687.18,-196.55 1677.23,-180.37 1660.45,-169.09 1643.34,-161.31"/>
<polygon fill="midnightblue" stroke="midnightblue" points="1644.42,-157.97 1633.85,-157.33 1641.72,-164.42 1644.42,-157.97"/>
</g>
<!-- Node29&#45;&gt;Node14 -->
<g id="edge35" class="edge">
<title>Node29&#45;&gt;Node14</title>
<path fill="none" stroke="midnightblue" d="M1646.41,-266.05C1676.95,-256.27 1717.14,-242.89 1752.18,-229.55 1876.11,-182.37 2020.2,-117.15 2080.42,-89.4"/>
<polygon fill="midnightblue" stroke="midnightblue" points="2082.07,-92.5 2089.69,-85.13 2079.14,-86.14 2082.07,-92.5"/>
</g>
<!-- Node29&#45;&gt;Node22 -->
<g id="edge39" class="edge">
<title>Node29&#45;&gt;Node22</title>
<path fill="none" stroke="midnightblue" d="M1649.71,-270.08C1691.89,-260.66 1752.91,-246.02 1805.18,-229.55 1945.88,-185.24 2108.64,-117.46 2174.84,-89.17"/>
<polygon fill="midnightblue" stroke="midnightblue" points="2176.45,-92.29 2184.26,-85.13 2173.69,-85.86 2176.45,-92.29"/>
</g>
<!-- Node29&#45;&gt;Node25 -->
<g id="edge41" class="edge">
<title>Node29&#45;&gt;Node25</title>
<path fill="none" stroke="midnightblue" d="M1629.3,-266.03C1650.44,-255.79 1679.03,-241.91 1704.18,-229.55 1808.45,-178.33 1932.07,-116.63 1985.88,-89.71"/>
<polygon fill="midnightblue" stroke="midnightblue" points="1987.72,-92.71 1995.1,-85.1 1984.59,-86.45 1987.72,-92.71"/>
</g>
<!-- Node29&#45;&gt;Node26 -->
<g id="edge43" class="edge">
<title>Node29&#45;&gt;Node26</title>
<path fill="none" stroke="midnightblue" d="M1649.82,-280.54C1835.75,-277.11 2450.46,-251.25 2266.18,-58.55 2233.31,-24.17 1536.19,-15.44 1315.54,-13.53"/>
<polygon fill="midnightblue" stroke="midnightblue" points="1315.42,-10.03 1305.39,-13.44 1315.36,-17.03 1315.42,-10.03"/>
</g>
<!-- Node30 -->
<g id="node30" class="node">
<title>Node30</title>
<g id="a_node30"><a xlink:title=" ">
<polygon fill="white" stroke="#bfbfbf" points="1536.02,-203.05 1536.02,-223.05 1580.35,-223.05 1580.35,-203.05 1536.02,-203.05"/>
<text text-anchor="middle" x="1558.18" y="-210.05" font-family="Helvetica,sans-Serif" font-size="10.00">iosfwd</text>
</a>
</g>
</g>
<!-- Node29&#45;&gt;Node30 -->
<g id="edge34" class="edge">
<title>Node29&#45;&gt;Node30</title>
<path fill="none" stroke="midnightblue" d="M1589.11,-265.85C1583.11,-255.8 1575.22,-242.58 1568.91,-232.01"/>
<polygon fill="midnightblue" stroke="midnightblue" points="1571.79,-230.01 1563.66,-223.22 1565.78,-233.6 1571.79,-230.01"/>
</g>
<!-- Node31 -->
<g id="node31" class="node">
<title>Node31</title>
<g id="a_node31"><a xlink:title=" ">
<polygon fill="white" stroke="#bfbfbf" points="1597.95,-203.05 1597.95,-223.05 1678.42,-223.05 1678.42,-203.05 1597.95,-203.05"/>
<text text-anchor="middle" x="1638.18" y="-210.05" font-family="Helvetica,sans-Serif" font-size="10.00">unordered_set</text>
</a>
</g>
</g>
<!-- Node29&#45;&gt;Node31 -->
<g id="edge36" class="edge">
<title>Node29&#45;&gt;Node31</title>
<path fill="none" stroke="midnightblue" d="M1607.26,-265.85C1613.26,-255.8 1621.15,-242.58 1627.46,-232.01"/>
<polygon fill="midnightblue" stroke="midnightblue" points="1630.59,-233.6 1632.71,-223.22 1624.58,-230.01 1630.59,-233.6"/>
</g>
<!-- Node32&#45;&gt;Node3 -->
<g id="edge46" class="edge">
<title>Node32&#45;&gt;Node3</title>
<path fill="none" stroke="midnightblue" d="M344.95,-197.02C317.53,-185.32 279.88,-169.25 253.73,-158.09"/>
<polygon fill="midnightblue" stroke="midnightblue" points="254.89,-154.78 244.32,-154.07 252.14,-161.21 254.89,-154.78"/>
</g>
<!-- Node32&#45;&gt;Node4 -->
<g id="edge48" class="edge">
<title>Node32&#45;&gt;Node4</title>
<path fill="none" stroke="midnightblue" d="M321.13,-198.83C275.5,-188.55 210.79,-173.86 154.18,-160.55 148.55,-159.23 142.65,-157.82 136.79,-156.42"/>
<polygon fill="midnightblue" stroke="midnightblue" points="137.59,-153.01 127.05,-154.07 135.96,-159.82 137.59,-153.01"/>
</g>
<!-- Node32&#45;&gt;Node24 -->
<g id="edge47" class="edge">
<title>Node32&#45;&gt;Node24</title>
<path fill="none" stroke="midnightblue" d="M360.08,-196.8C338.82,-178.89 310.84,-148.9 330.18,-127.55 357.63,-97.28 655.64,-96.68 696.18,-91.55 711.91,-89.56 728.98,-87.05 744.48,-84.63"/>
<polygon fill="midnightblue" stroke="midnightblue" points="745.08,-88.08 754.41,-83.06 743.99,-81.16 745.08,-88.08"/>
</g>
<!-- Node32&#45;&gt;Node33 -->
<g id="edge49" class="edge">
<title>Node32&#45;&gt;Node33</title>
<path fill="none" stroke="midnightblue" d="M385.4,-196.85C388.75,-187.11 393.11,-174.39 396.68,-163.99"/>
<polygon fill="midnightblue" stroke="midnightblue" points="400.1,-164.81 400.04,-154.22 393.48,-162.54 400.1,-164.81"/>
</g>
<!-- Node32&#45;&gt;Node34 -->
<g id="edge50" class="edge">
<title>Node32&#45;&gt;Node34</title>
<path fill="none" stroke="midnightblue" d="M417.21,-197.02C446.15,-185.26 485.95,-169.1 513.45,-157.94"/>
<polygon fill="midnightblue" stroke="midnightblue" points="515.03,-161.08 522.98,-154.07 512.39,-154.59 515.03,-161.08"/>
</g>
<!-- Node35&#45;&gt;Node2 -->
<g id="edge53" class="edge">
<title>Node35&#45;&gt;Node2</title>
<path fill="none" stroke="midnightblue" d="M690.43,-202.91C678.44,-193.62 660.91,-178.12 651.18,-160.55 639.84,-140.06 635.26,-113.22 633.42,-95.34"/>
<polygon fill="midnightblue" stroke="midnightblue" points="636.9,-94.95 632.58,-85.28 629.93,-95.54 636.9,-94.95"/>
</g>
<!-- Node35&#45;&gt;Node3 -->
<g id="edge56" class="edge">
<title>Node35&#45;&gt;Node3</title>
<path fill="none" stroke="midnightblue" d="M636.8,-203.02C562.19,-192.84 437.47,-175.73 330.18,-160.55 318.35,-158.88 305.78,-157.08 293.58,-155.32"/>
<polygon fill="midnightblue" stroke="midnightblue" points="293.84,-151.82 283.44,-153.85 292.84,-158.75 293.84,-151.82"/>
</g>
<!-- Node35&#45;&gt;Node4 -->
<g id="edge58" class="edge">
<title>Node35&#45;&gt;Node4</title>
<path fill="none" stroke="midnightblue" d="M635.16,-208.83C531.02,-203.18 326.03,-189.27 154.18,-160.55 147.44,-159.43 140.36,-157.98 133.46,-156.42"/>
<polygon fill="midnightblue" stroke="midnightblue" points="134.08,-152.98 123.54,-154.09 132.48,-159.79 134.08,-152.98"/>
</g>
<!-- Node35&#45;&gt;Node6 -->
<g id="edge52" class="edge">
<title>Node35&#45;&gt;Node6</title>
<path fill="none" stroke="midnightblue" d="M771,-205.95C848.96,-198.36 980.86,-183.72 1103.6,-160.51"/>
<polygon fill="midnightblue" stroke="midnightblue" points="1104.38,-163.93 1113.55,-158.61 1103.07,-157.05 1104.38,-163.93"/>
</g>
<!-- Node35&#45;&gt;Node8 -->
<g id="edge54" class="edge">
<title>Node35&#45;&gt;Node8</title>
<path fill="none" stroke="midnightblue" d="M735.28,-203.02C777.6,-191.1 852.16,-170.11 899,-156.93"/>
<polygon fill="midnightblue" stroke="midnightblue" points="900.16,-160.24 908.84,-154.16 898.26,-153.5 900.16,-160.24"/>
</g>
<!-- Node35&#45;&gt;Node10 -->
<g id="edge55" class="edge">
<title>Node35&#45;&gt;Node10</title>
<path fill="none" stroke="midnightblue" d="M766.09,-203.01C825.88,-193.95 918.16,-178.76 997.18,-160.55 1001.98,-159.45 1006.99,-158.18 1011.93,-156.85"/>
<polygon fill="midnightblue" stroke="midnightblue" points="1013.21,-160.12 1021.9,-154.07 1011.33,-153.38 1013.21,-160.12"/>
</g>
<!-- Node35&#45;&gt;Node11 -->
<g id="edge57" class="edge">
<title>Node35&#45;&gt;Node11</title>
<path fill="none" stroke="midnightblue" d="M739.73,-203.05C769.86,-194.7 813.04,-180.53 847.18,-160.55 866.49,-149.26 867.62,-141.41 885.18,-127.55 901.57,-114.62 920.83,-100.92 935.31,-90.9"/>
<polygon fill="midnightblue" stroke="midnightblue" points="937.38,-93.72 943.64,-85.18 933.41,-87.96 937.38,-93.72"/>
</g>
<!-- Node35&#45;&gt;Node17 -->
<g id="edge62" class="edge">
<title>Node35&#45;&gt;Node17</title>
<path fill="none" stroke="midnightblue" d="M710.13,-203.03C723.14,-186.56 752.63,-151.12 783.18,-127.55 789.16,-122.95 825.25,-103.53 850.93,-89.9"/>
<polygon fill="midnightblue" stroke="midnightblue" points="852.64,-92.95 859.84,-85.18 849.37,-86.77 852.64,-92.95"/>
</g>
<!-- Node35&#45;&gt;Node26 -->
<g id="edge59" class="edge">
<title>Node35&#45;&gt;Node26</title>
<path fill="none" stroke="midnightblue" d="M704.32,-202.97C708.26,-172.93 722.41,-77.62 745.18,-58.55 749.34,-55.07 1046.63,-29.92 1182.62,-18.57"/>
<polygon fill="midnightblue" stroke="midnightblue" points="1183.23,-22.03 1192.91,-17.72 1182.65,-15.06 1183.23,-22.03"/>
</g>
<!-- Node35&#45;&gt;Node33 -->
<g id="edge63" class="edge">
<title>Node35&#45;&gt;Node33</title>
<path fill="none" stroke="midnightblue" d="M662.73,-203.02C608.6,-190.93 512.63,-169.5 453.79,-156.35"/>
<polygon fill="midnightblue" stroke="midnightblue" points="454.48,-152.92 443.96,-154.16 452.96,-159.75 454.48,-152.92"/>
</g>
<!-- Node35&#45;&gt;Node34 -->
<g id="edge64" class="edge">
<title>Node35&#45;&gt;Node34</title>
<path fill="none" stroke="midnightblue" d="M681.88,-203.02C654.67,-191.48 607.38,-171.43 576.18,-158.2"/>
<polygon fill="midnightblue" stroke="midnightblue" points="577.23,-154.84 566.66,-154.16 574.5,-161.29 577.23,-154.84"/>
</g>
<!-- Node36 -->
<g id="node36" class="node">
<title>Node36</title>
<g id="a_node36"><a xlink:title=" ">
<polygon fill="white" stroke="#bfbfbf" points="659.8,-134.05 659.8,-154.05 698.57,-154.05 698.57,-134.05 659.8,-134.05"/>
<text text-anchor="middle" x="679.18" y="-141.05" font-family="Helvetica,sans-Serif" font-size="10.00">utility</text>
</a>
</g>
</g>
<!-- Node35&#45;&gt;Node36 -->
<g id="edge60" class="edge">
<title>Node35&#45;&gt;Node36</title>
<path fill="none" stroke="midnightblue" d="M699.95,-203.02C696.39,-193.08 690.57,-176.84 686,-164.07"/>
<polygon fill="midnightblue" stroke="midnightblue" points="689.19,-162.61 682.52,-154.38 682.6,-164.97 689.19,-162.61"/>
</g>
<!-- Node37 -->
<g id="node37" class="node">
<title>Node37</title>
<g id="a_node37"><a xlink:title=" ">
<polygon fill="white" stroke="#bfbfbf" points="792.18,-134.05 792.18,-154.05 838.19,-154.05 838.19,-134.05 792.18,-134.05"/>
<text text-anchor="middle" x="815.18" y="-141.05" font-family="Helvetica,sans-Serif" font-size="10.00">variant</text>
</a>
</g>
</g>
<!-- Node35&#45;&gt;Node37 -->
<g id="edge61" class="edge">
<title>Node35&#45;&gt;Node37</title>
<path fill="none" stroke="midnightblue" d="M718.29,-203.02C736.99,-191.83 769.08,-172.63 791.17,-159.42"/>
<polygon fill="midnightblue" stroke="midnightblue" points="793.18,-162.3 799.96,-154.16 789.58,-156.29 793.18,-162.3"/>
</g>
</g>
</svg>
