<?xml version="1.0" encoding="UTF-8" standalone="no"?>
<!DOCTYPE svg PUBLIC "-//W3C//DTD SVG 1.1//EN"
 "http://www.w3.org/Graphics/SVG/1.1/DTD/svg11.dtd">
<!-- Generated by graphviz version 2.46.0 (0)
 -->
<!-- Title: /jenkins/jenlib_workspaces_f9/bld_nightly&#45;haldls.YmxkX25pZ2h0bHktaGFsZGxzIzEzNzk.x/haldls/include/stadls/vx/v3/playback_program.h Pages: 1 -->
<svg width="1954pt" height="274pt"
 viewBox="0.00 0.00 1953.75 273.55" xmlns="http://www.w3.org/2000/svg" xmlns:xlink="http://www.w3.org/1999/xlink">
<g id="graph0" class="graph" transform="scale(1 1) rotate(0) translate(4 269.55)">
<title>/jenkins/jenlib_workspaces_f9/bld_nightly&#45;haldls.YmxkX25pZ2h0bHktaGFsZGxzIzEzNzk.x/haldls/include/stadls/vx/v3/playback_program.h</title>
<polygon fill="white" stroke="transparent" points="-4,4 -4,-269.55 1949.75,-269.55 1949.75,4 -4,4"/>
<!-- Node1 -->
<g id="node1" class="node">
<title>Node1</title>
<g id="a_node1"><a xlink:title=" ">
<polygon fill="#bfbfbf" stroke="black" points="402.73,-197.05 402.73,-265.05 583.74,-265.05 583.74,-197.05 402.73,-197.05"/>
<text text-anchor="start" x="410.73" y="-252.05" font-family="Helvetica,sans-Serif" font-size="10.00">/jenkins/jenlib_workspaces</text>
<text text-anchor="start" x="410.73" y="-240.05" font-family="Helvetica,sans-Serif" font-size="10.00">_f9/bld_nightly&#45;haldls.YmxkX25p</text>
<text text-anchor="start" x="410.73" y="-228.05" font-family="Helvetica,sans-Serif" font-size="10.00">Z2h0bHktaGFsZGxzIzEzNzk.x/haldls</text>
<text text-anchor="start" x="410.73" y="-216.05" font-family="Helvetica,sans-Serif" font-size="10.00">/include/stadls/vx/v3/playback</text>
<text text-anchor="middle" x="493.24" y="-204.05" font-family="Helvetica,sans-Serif" font-size="10.00">_program.h</text>
</a>
</g>
</g>
<!-- Node2 -->
<g id="node2" class="node">
<title>Node2</title>
<g id="a_node2"><a xlink:title=" ">
<polygon fill="white" stroke="#bfbfbf" points="0,-134.05 0,-154.05 120.47,-154.05 120.47,-134.05 0,-134.05"/>
<text text-anchor="middle" x="60.24" y="-141.05" font-family="Helvetica,sans-Serif" font-size="10.00">haldls/vx/v3/container.h</text>
</a>
</g>
</g>
<!-- Node1&#45;&gt;Node2 -->
<g id="edge1" class="edge">
<title>Node1&#45;&gt;Node2</title>
<path fill="none" stroke="midnightblue" d="M402.57,-213.58C328.83,-199.98 222.15,-179.85 129.24,-160.55 122.92,-159.24 116.3,-157.82 109.76,-156.38"/>
<polygon fill="midnightblue" stroke="midnightblue" points="110.12,-152.87 99.6,-154.12 108.6,-159.71 110.12,-152.87"/>
</g>
<!-- Node3 -->
<g id="node3" class="node">
<title>Node3</title>
<g id="a_node3"><a xlink:title=" ">
<polygon fill="white" stroke="#bfbfbf" points="138.28,-134.05 138.28,-154.05 248.19,-154.05 248.19,-134.05 138.28,-134.05"/>
<text text-anchor="middle" x="193.24" y="-141.05" font-family="Helvetica,sans-Serif" font-size="10.00">lola/vx/v3/container.h</text>
</a>
</g>
</g>
<!-- Node1&#45;&gt;Node3 -->
<g id="edge2" class="edge">
<title>Node1&#45;&gt;Node3</title>
<path fill="none" stroke="midnightblue" d="M402.41,-204.32C346.69,-188.53 278,-169.07 234.89,-156.85"/>
<polygon fill="midnightblue" stroke="midnightblue" points="235.61,-153.42 225.04,-154.06 233.71,-160.16 235.61,-153.42"/>
</g>
<!-- Node4 -->
<g id="node4" class="node">
<title>Node4</title>
<g id="a_node4"><a xlink:href="genpybind_8h.html" target="_top" xlink:title=" ">
<polygon fill="white" stroke="black" points="258.16,-2.05 258.16,-22.05 370.31,-22.05 370.31,-2.05 258.16,-2.05"/>
<text text-anchor="middle" x="314.24" y="-9.05" font-family="Helvetica,sans-Serif" font-size="10.00">stadls/vx/genpybind.h</text>
</a>
</g>
</g>
<!-- Node1&#45;&gt;Node4 -->
<g id="edge3" class="edge">
<title>Node1&#45;&gt;Node4</title>
<path fill="none" stroke="midnightblue" d="M423.26,-197.01C382.77,-173.74 335.37,-138.38 312.24,-91.55 303.11,-73.08 305.46,-49.06 308.91,-32.48"/>
<polygon fill="midnightblue" stroke="midnightblue" points="312.41,-32.89 311.35,-22.35 305.6,-31.25 312.41,-32.89"/>
</g>
<!-- Node5 -->
<g id="node5" class="node">
<title>Node5</title>
<g id="a_node5"><a xlink:href="playback__program_8h.html" target="_top" xlink:title=" ">
<polygon fill="white" stroke="black" points="716.67,-128.05 716.67,-160.05 813.8,-160.05 813.8,-128.05 716.67,-128.05"/>
<text text-anchor="start" x="724.67" y="-147.05" font-family="Helvetica,sans-Serif" font-size="10.00">stadls/vx/playback</text>
<text text-anchor="middle" x="765.24" y="-135.05" font-family="Helvetica,sans-Serif" font-size="10.00">_program.h</text>
</a>
</g>
</g>
<!-- Node1&#45;&gt;Node5 -->
<g id="edge5" class="edge">
<title>Node1&#45;&gt;Node5</title>
<path fill="none" stroke="midnightblue" d="M583.81,-201.75C624.49,-189.04 671.3,-174.41 707.18,-163.19"/>
<polygon fill="midnightblue" stroke="midnightblue" points="708.5,-166.45 717,-160.13 706.41,-159.77 708.5,-166.45"/>
</g>
<!-- Node23 -->
<g id="node23" class="node">
<title>Node23</title>
<g id="a_node23"><a xlink:title=" ">
<polygon fill="white" stroke="#bfbfbf" points="831.83,-134.05 831.83,-154.05 960.64,-154.05 960.64,-134.05 831.83,-134.05"/>
<text text-anchor="middle" x="896.24" y="-141.05" font-family="Helvetica,sans-Serif" font-size="10.00">haldls/vx/v3/container.def</text>
</a>
</g>
</g>
<!-- Node1&#45;&gt;Node23 -->
<g id="edge25" class="edge">
<title>Node1&#45;&gt;Node23</title>
<path fill="none" stroke="midnightblue" d="M583.94,-210.99C650.24,-197.05 742.33,-177.66 823.24,-160.55 829.88,-159.15 836.86,-157.67 843.77,-156.2"/>
<polygon fill="midnightblue" stroke="midnightblue" points="844.72,-159.58 853.78,-154.08 843.27,-152.73 844.72,-159.58"/>
</g>
<!-- Node24 -->
<g id="node24" class="node">
<title>Node24</title>
<g id="a_node24"><a xlink:title=" ">
<polygon fill="white" stroke="#bfbfbf" points="979.11,-134.05 979.11,-154.05 1097.36,-154.05 1097.36,-134.05 979.11,-134.05"/>
<text text-anchor="middle" x="1038.24" y="-141.05" font-family="Helvetica,sans-Serif" font-size="10.00">lola/vx/v3/container.def</text>
</a>
</g>
</g>
<!-- Node1&#45;&gt;Node24 -->
<g id="edge26" class="edge">
<title>Node1&#45;&gt;Node24</title>
<path fill="none" stroke="midnightblue" d="M583.94,-218.89C679.96,-206.59 835.79,-185.25 969.24,-160.55 976.05,-159.29 983.21,-157.83 990.24,-156.33"/>
<polygon fill="midnightblue" stroke="midnightblue" points="991.36,-159.66 1000.38,-154.1 989.86,-152.83 991.36,-159.66"/>
</g>
<!-- Node4&#45;&gt;Node4 -->
<g id="edge4" class="edge">
<title>Node4&#45;&gt;Node4</title>
<path fill="none" stroke="midnightblue" d="M342.74,-22.11C365.23,-26 388.31,-22.65 388.31,-12.05 388.31,-3.03 371.57,0.74 352.72,-0.74"/>
<polygon fill="midnightblue" stroke="midnightblue" points="352.23,2.72 342.74,-1.99 353.1,-4.22 352.23,2.72"/>
</g>
<!-- Node5&#45;&gt;Node4 -->
<g id="edge21" class="edge">
<title>Node5&#45;&gt;Node4</title>
<path fill="none" stroke="midnightblue" d="M716.32,-140.34C609.26,-133.95 361.48,-116.62 333.24,-91.55 316.65,-76.83 313.31,-50.33 313.17,-32.23"/>
<polygon fill="midnightblue" stroke="midnightblue" points="316.67,-32.31 313.41,-22.23 309.67,-32.14 316.67,-32.31"/>
</g>
<!-- Node6 -->
<g id="node6" class="node">
<title>Node6</title>
<g id="a_node6"><a xlink:title=" ">
<polygon fill="white" stroke="#bfbfbf" points="341.79,-65.05 341.79,-85.05 386.68,-85.05 386.68,-65.05 341.79,-65.05"/>
<text text-anchor="middle" x="364.24" y="-72.05" font-family="Helvetica,sans-Serif" font-size="10.00">cstdint</text>
</a>
</g>
</g>
<!-- Node5&#45;&gt;Node6 -->
<g id="edge6" class="edge">
<title>Node5&#45;&gt;Node6</title>
<path fill="none" stroke="midnightblue" d="M716.55,-141.3C644.74,-137.59 506.88,-126.21 395.24,-91.55 393.3,-90.95 391.33,-90.24 389.38,-89.45"/>
<polygon fill="midnightblue" stroke="midnightblue" points="390.46,-86.1 379.91,-85.13 387.55,-92.47 390.46,-86.1"/>
</g>
<!-- Node7 -->
<g id="node7" class="node">
<title>Node7</title>
<g id="a_node7"><a xlink:title=" ">
<polygon fill="white" stroke="#bfbfbf" points="404.18,-65.05 404.18,-85.05 456.29,-85.05 456.29,-65.05 404.18,-65.05"/>
<text text-anchor="middle" x="430.24" y="-72.05" font-family="Helvetica,sans-Serif" font-size="10.00">memory</text>
</a>
</g>
</g>
<!-- Node5&#45;&gt;Node7 -->
<g id="edge7" class="edge">
<title>Node5&#45;&gt;Node7</title>
<path fill="none" stroke="midnightblue" d="M716.59,-138.43C656.53,-131.89 551.74,-117.69 465.24,-91.55 462.79,-90.81 460.28,-89.94 457.8,-89"/>
<polygon fill="midnightblue" stroke="midnightblue" points="459.02,-85.72 448.44,-85.13 456.34,-92.19 459.02,-85.72"/>
</g>
<!-- Node8 -->
<g id="node8" class="node">
<title>Node8</title>
<g id="a_node8"><a xlink:title=" ">
<polygon fill="white" stroke="#bfbfbf" points="474.73,-65.05 474.73,-85.05 525.74,-85.05 525.74,-65.05 474.73,-65.05"/>
<text text-anchor="middle" x="500.24" y="-72.05" font-family="Helvetica,sans-Serif" font-size="10.00">optional</text>
</a>
</g>
</g>
<!-- Node5&#45;&gt;Node8 -->
<g id="edge8" class="edge">
<title>Node5&#45;&gt;Node8</title>
<path fill="none" stroke="midnightblue" d="M716.47,-135.01C669.39,-126.58 596.44,-111.74 535.24,-91.55 532.95,-90.8 530.6,-89.94 528.27,-89.04"/>
<polygon fill="midnightblue" stroke="midnightblue" points="529.44,-85.73 518.86,-85.11 526.74,-92.19 529.44,-85.73"/>
</g>
<!-- Node9 -->
<g id="node9" class="node">
<title>Node9</title>
<g id="a_node9"><a xlink:title=" ">
<polygon fill="white" stroke="#bfbfbf" points="544.01,-65.05 544.01,-85.05 584.46,-85.05 584.46,-65.05 544.01,-65.05"/>
<text text-anchor="middle" x="564.24" y="-72.05" font-family="Helvetica,sans-Serif" font-size="10.00">string</text>
</a>
</g>
</g>
<!-- Node5&#45;&gt;Node9 -->
<g id="edge9" class="edge">
<title>Node5&#45;&gt;Node9</title>
<path fill="none" stroke="midnightblue" d="M716.52,-131.25C681.58,-122.12 633.73,-108.24 593.24,-91.55 591.85,-90.98 590.44,-90.36 589.04,-89.72"/>
<polygon fill="midnightblue" stroke="midnightblue" points="590.42,-86.5 579.91,-85.17 587.3,-92.76 590.42,-86.5"/>
</g>
<!-- Node10 -->
<g id="node10" class="node">
<title>Node10</title>
<g id="a_node10"><a xlink:title=" ">
<polygon fill="white" stroke="#bfbfbf" points="602.62,-65.05 602.62,-85.05 645.85,-85.05 645.85,-65.05 602.62,-65.05"/>
<text text-anchor="middle" x="624.24" y="-72.05" font-family="Helvetica,sans-Serif" font-size="10.00">vector</text>
</a>
</g>
</g>
<!-- Node5&#45;&gt;Node10 -->
<g id="edge10" class="edge">
<title>Node5&#45;&gt;Node10</title>
<path fill="none" stroke="midnightblue" d="M732.4,-127.95C710.48,-117.8 681.05,-104.05 655.24,-91.55 653.92,-90.91 652.57,-90.26 651.2,-89.59"/>
<polygon fill="midnightblue" stroke="midnightblue" points="652.74,-86.45 642.23,-85.15 649.64,-92.72 652.74,-86.45"/>
</g>
<!-- Node11 -->
<g id="node11" class="node">
<title>Node11</title>
<g id="a_node11"><a xlink:title=" ">
<polygon fill="white" stroke="#bfbfbf" points="663.89,-65.05 663.89,-85.05 756.58,-85.05 756.58,-65.05 663.89,-65.05"/>
<text text-anchor="middle" x="710.24" y="-72.05" font-family="Helvetica,sans-Serif" font-size="10.00">boost/variant.hpp</text>
</a>
</g>
</g>
<!-- Node5&#45;&gt;Node11 -->
<g id="edge11" class="edge">
<title>Node5&#45;&gt;Node11</title>
<path fill="none" stroke="midnightblue" d="M752.76,-127.85C744.25,-117.49 732.99,-103.77 724.19,-93.05"/>
<polygon fill="midnightblue" stroke="midnightblue" points="726.81,-90.73 717.76,-85.22 721.4,-95.17 726.81,-90.73"/>
</g>
<!-- Node12 -->
<g id="node12" class="node">
<title>Node12</title>
<g id="a_node12"><a xlink:title=" ">
<polygon fill="white" stroke="#bfbfbf" points="774.62,-59.05 774.62,-91.05 867.85,-91.05 867.85,-59.05 774.62,-59.05"/>
<text text-anchor="start" x="782.62" y="-78.05" font-family="Helvetica,sans-Serif" font-size="10.00">fisch/vx/container</text>
<text text-anchor="middle" x="821.24" y="-66.05" font-family="Helvetica,sans-Serif" font-size="10.00">_cast.h</text>
</a>
</g>
</g>
<!-- Node5&#45;&gt;Node12 -->
<g id="edge12" class="edge">
<title>Node5&#45;&gt;Node12</title>
<path fill="none" stroke="midnightblue" d="M777.94,-127.85C785.03,-119.37 794.01,-108.63 801.94,-99.13"/>
<polygon fill="midnightblue" stroke="midnightblue" points="804.85,-101.11 808.58,-91.2 799.48,-96.62 804.85,-101.11"/>
</g>
<!-- Node13 -->
<g id="node13" class="node">
<title>Node13</title>
<g id="a_node13"><a xlink:title=" ">
<polygon fill="white" stroke="#bfbfbf" points="885.62,-59.05 885.62,-91.05 978.85,-91.05 978.85,-59.05 885.62,-59.05"/>
<text text-anchor="start" x="893.62" y="-78.05" font-family="Helvetica,sans-Serif" font-size="10.00">fisch/vx/container</text>
<text text-anchor="middle" x="932.24" y="-66.05" font-family="Helvetica,sans-Serif" font-size="10.00">_ticket.h</text>
</a>
</g>
</g>
<!-- Node5&#45;&gt;Node13 -->
<g id="edge13" class="edge">
<title>Node5&#45;&gt;Node13</title>
<path fill="none" stroke="midnightblue" d="M802.71,-128.02C827.12,-118.22 859.16,-105.37 885.27,-94.89"/>
<polygon fill="midnightblue" stroke="midnightblue" points="886.62,-98.13 894.59,-91.15 884.01,-91.63 886.62,-98.13"/>
</g>
<!-- Node14 -->
<g id="node14" class="node">
<title>Node14</title>
<g id="a_node14"><a xlink:title=" ">
<polygon fill="white" stroke="#bfbfbf" points="996.89,-65.05 996.89,-85.05 1139.58,-85.05 1139.58,-65.05 996.89,-65.05"/>
<text text-anchor="middle" x="1068.24" y="-72.05" font-family="Helvetica,sans-Serif" font-size="10.00">fisch/vx/playback_program.h</text>
</a>
</g>
</g>
<!-- Node5&#45;&gt;Node14 -->
<g id="edge14" class="edge">
<title>Node5&#45;&gt;Node14</title>
<path fill="none" stroke="midnightblue" d="M813.92,-129.84C817.07,-129.05 820.19,-128.28 823.24,-127.55 887.51,-112.22 961.85,-96.94 1011.63,-87.05"/>
<polygon fill="midnightblue" stroke="midnightblue" points="1012.43,-90.46 1021.56,-85.09 1011.07,-83.59 1012.43,-90.46"/>
</g>
<!-- Node15 -->
<g id="node15" class="node">
<title>Node15</title>
<g id="a_node15"><a xlink:title=" ">
<polygon fill="white" stroke="#bfbfbf" points="1157.56,-65.05 1157.56,-85.05 1266.91,-85.05 1266.91,-65.05 1157.56,-65.05"/>
<text text-anchor="middle" x="1212.24" y="-72.05" font-family="Helvetica,sans-Serif" font-size="10.00">haldls/cerealization.h</text>
</a>
</g>
</g>
<!-- Node5&#45;&gt;Node15 -->
<g id="edge15" class="edge">
<title>Node5&#45;&gt;Node15</title>
<path fill="none" stroke="midnightblue" d="M813.85,-129.49C817.01,-128.78 820.16,-128.13 823.24,-127.55 966.06,-100.72 1005.1,-116.71 1148.24,-91.55 1154.89,-90.38 1161.89,-88.93 1168.71,-87.38"/>
<polygon fill="midnightblue" stroke="midnightblue" points="1169.59,-90.77 1178.53,-85.07 1167.99,-83.95 1169.59,-90.77"/>
</g>
<!-- Node16 -->
<g id="node16" class="node">
<title>Node16</title>
<g id="a_node16"><a xlink:title=" ">
<polygon fill="white" stroke="#bfbfbf" points="1285.06,-65.05 1285.06,-85.05 1389.41,-85.05 1389.41,-65.05 1285.06,-65.05"/>
<text text-anchor="middle" x="1337.24" y="-72.05" font-family="Helvetica,sans-Serif" font-size="10.00">haldls/vx/common.h</text>
</a>
</g>
</g>
<!-- Node5&#45;&gt;Node16 -->
<g id="edge16" class="edge">
<title>Node5&#45;&gt;Node16</title>
<path fill="none" stroke="midnightblue" d="M813.83,-129.38C817,-128.7 820.15,-128.08 823.24,-127.55 1022.28,-93.34 1076.98,-124.54 1276.24,-91.55 1282.6,-90.5 1289.28,-89.11 1295.78,-87.59"/>
<polygon fill="midnightblue" stroke="midnightblue" points="1296.92,-90.91 1305.79,-85.13 1295.24,-84.11 1296.92,-90.91"/>
</g>
<!-- Node17 -->
<g id="node17" class="node">
<title>Node17</title>
<g id="a_node17"><a xlink:title=" ">
<polygon fill="white" stroke="#bfbfbf" points="1407,-65.05 1407,-85.05 1497.47,-85.05 1497.47,-65.05 1407,-65.05"/>
<text text-anchor="middle" x="1452.24" y="-72.05" font-family="Helvetica,sans-Serif" font-size="10.00">haldls/vx/event.h</text>
</a>
</g>
</g>
<!-- Node5&#45;&gt;Node17 -->
<g id="edge17" class="edge">
<title>Node5&#45;&gt;Node17</title>
<path fill="none" stroke="midnightblue" d="M813.82,-129.32C816.99,-128.65 820.15,-128.06 823.24,-127.55 1075.95,-86.29 1145.92,-135.13 1398.24,-91.55 1403.76,-90.6 1409.53,-89.29 1415.15,-87.84"/>
<polygon fill="midnightblue" stroke="midnightblue" points="1416.33,-91.14 1425.03,-85.11 1414.46,-84.4 1416.33,-91.14"/>
</g>
<!-- Node18 -->
<g id="node18" class="node">
<title>Node18</title>
<g id="a_node18"><a xlink:title=" ">
<polygon fill="white" stroke="#bfbfbf" points="1515.61,-65.05 1515.61,-85.05 1598.86,-85.05 1598.86,-65.05 1515.61,-65.05"/>
<text text-anchor="middle" x="1557.24" y="-72.05" font-family="Helvetica,sans-Serif" font-size="10.00">hate/type_list.h</text>
</a>
</g>
</g>
<!-- Node5&#45;&gt;Node18 -->
<g id="edge18" class="edge">
<title>Node5&#45;&gt;Node18</title>
<path fill="none" stroke="midnightblue" d="M813.81,-129.28C816.99,-128.63 820.15,-128.04 823.24,-127.55 1123.48,-80.05 1206.84,-144.13 1506.24,-91.55 1511.4,-90.65 1516.78,-89.38 1522.02,-87.96"/>
<polygon fill="midnightblue" stroke="midnightblue" points="1523.23,-91.25 1531.85,-85.09 1521.27,-84.53 1523.23,-91.25"/>
</g>
<!-- Node19 -->
<g id="node19" class="node">
<title>Node19</title>
<g id="a_node19"><a xlink:title=" ">
<polygon fill="white" stroke="#bfbfbf" points="1616.73,-65.05 1616.73,-85.05 1697.74,-85.05 1697.74,-65.05 1616.73,-65.05"/>
<text text-anchor="middle" x="1657.24" y="-72.05" font-family="Helvetica,sans-Serif" font-size="10.00">hate/visibility.h</text>
</a>
</g>
</g>
<!-- Node5&#45;&gt;Node19 -->
<g id="edge19" class="edge">
<title>Node5&#45;&gt;Node19</title>
<path fill="none" stroke="midnightblue" d="M813.81,-129.26C816.98,-128.61 820.15,-128.03 823.24,-127.55 1168.39,-74.16 1264.38,-152.74 1608.24,-91.55 1613.14,-90.68 1618.23,-89.45 1623.2,-88.06"/>
<polygon fill="midnightblue" stroke="midnightblue" points="1624.57,-91.31 1633.12,-85.05 1622.54,-84.61 1624.57,-91.31"/>
</g>
<!-- Node20 -->
<g id="node20" class="node">
<title>Node20</title>
<g id="a_node20"><a xlink:title=" ">
<polygon fill="white" stroke="#bfbfbf" points="1715.62,-65.05 1715.62,-85.05 1818.85,-85.05 1818.85,-65.05 1715.62,-65.05"/>
<text text-anchor="middle" x="1767.24" y="-72.05" font-family="Helvetica,sans-Serif" font-size="10.00">hxcomm/vx/target.h</text>
</a>
</g>
</g>
<!-- Node5&#45;&gt;Node20 -->
<g id="edge20" class="edge">
<title>Node5&#45;&gt;Node20</title>
<path fill="none" stroke="midnightblue" d="M813.8,-129.24C816.98,-128.6 820.14,-128.02 823.24,-127.55 1211.98,-68.43 1318.25,-149.05 1707.24,-91.55 1713.73,-90.59 1720.54,-89.21 1727.14,-87.66"/>
<polygon fill="midnightblue" stroke="midnightblue" points="1728.42,-90.95 1737.28,-85.12 1726.73,-84.16 1728.42,-90.95"/>
</g>
<!-- Node21 -->
<g id="node21" class="node">
<title>Node21</title>
<g id="a_node21"><a xlink:href="run__time__info_8h.html" target="_top" xlink:title=" ">
<polygon fill="white" stroke="black" points="1836.95,-59.05 1836.95,-91.05 1933.52,-91.05 1933.52,-59.05 1836.95,-59.05"/>
<text text-anchor="start" x="1844.95" y="-78.05" font-family="Helvetica,sans-Serif" font-size="10.00">stadls/vx/run_time</text>
<text text-anchor="middle" x="1885.24" y="-66.05" font-family="Helvetica,sans-Serif" font-size="10.00">_info.h</text>
</a>
</g>
</g>
<!-- Node5&#45;&gt;Node21 -->
<g id="edge22" class="edge">
<title>Node5&#45;&gt;Node21</title>
<path fill="none" stroke="midnightblue" d="M813.8,-129.22C816.98,-128.58 820.14,-128.01 823.24,-127.55 1261.93,-61.94 1384.49,-157.17 1826.71,-91.54"/>
<polygon fill="midnightblue" stroke="midnightblue" points="1827.52,-94.96 1836.89,-90.01 1826.48,-88.04 1827.52,-94.96"/>
</g>
<!-- Node21&#45;&gt;Node4 -->
<g id="edge24" class="edge">
<title>Node21&#45;&gt;Node4</title>
<path fill="none" stroke="midnightblue" d="M1836.89,-60.07C1833.98,-59.49 1831.08,-58.98 1828.24,-58.55 1542.83,-16.07 634.13,-12.99 380.53,-12.97"/>
<polygon fill="midnightblue" stroke="midnightblue" points="380.36,-9.47 370.36,-12.97 380.36,-16.47 380.36,-9.47"/>
</g>
<!-- Node22 -->
<g id="node22" class="node">
<title>Node22</title>
<g id="a_node22"><a xlink:title=" ">
<polygon fill="white" stroke="#bfbfbf" points="1824.73,-2.05 1824.73,-22.05 1945.75,-22.05 1945.75,-2.05 1824.73,-2.05"/>
<text text-anchor="middle" x="1885.24" y="-9.05" font-family="Helvetica,sans-Serif" font-size="10.00">fisch/vx/run_time_info.h</text>
</a>
</g>
</g>
<!-- Node21&#45;&gt;Node22 -->
<g id="edge23" class="edge">
<title>Node21&#45;&gt;Node22</title>
<path fill="none" stroke="midnightblue" d="M1885.24,-58.97C1885.24,-50.93 1885.24,-40.94 1885.24,-32.33"/>
<polygon fill="midnightblue" stroke="midnightblue" points="1888.74,-32.1 1885.24,-22.1 1881.74,-32.1 1888.74,-32.1"/>
</g>
</g>
</svg>
