<?xml version="1.0" encoding="UTF-8" standalone="no"?>
<!DOCTYPE svg PUBLIC "-//W3C//DTD SVG 1.1//EN"
 "http://www.w3.org/Graphics/SVG/1.1/DTD/svg11.dtd">
<!-- Generated by graphviz version 2.46.0 (0)
 -->
<!-- Title: /jenkins/jenlib_workspaces_f9/bld_nightly&#45;haldls.YmxkX25pZ2h0bHktaGFsZGxzIzEzNzk.x/haldls/include/stadls/vx/v3/reinit_stack_entry.h Pages: 1 -->
<svg width="203pt" height="251pt"
 viewBox="0.00 0.00 202.93 251.00" xmlns="http://www.w3.org/2000/svg" xmlns:xlink="http://www.w3.org/1999/xlink">
<g id="graph0" class="graph" transform="scale(1 1) rotate(0) translate(4 247)">
<title>/jenkins/jenlib_workspaces_f9/bld_nightly&#45;haldls.YmxkX25pZ2h0bHktaGFsZGxzIzEzNzk.x/haldls/include/stadls/vx/v3/reinit_stack_entry.h</title>
<polygon fill="white" stroke="transparent" points="-4,4 -4,-247 198.93,-247 198.93,4 -4,4"/>
<!-- Node1 -->
<g id="node1" class="node">
<title>Node1</title>
<g id="a_node1"><a xlink:title=" ">
<polygon fill="#bfbfbf" stroke="black" points="0,-186.5 0,-242.5 194.93,-242.5 194.93,-186.5 0,-186.5"/>
<text text-anchor="start" x="8" y="-229.5" font-family="Helvetica,sans-Serif" font-size="10.00">/jenkins/jenlib_workspaces</text>
<text text-anchor="start" x="8" y="-217.5" font-family="Helvetica,sans-Serif" font-size="10.00">_f9/bld_nightly&#45;haldls.YmxkX25p</text>
<text text-anchor="start" x="8" y="-205.5" font-family="Helvetica,sans-Serif" font-size="10.00">Z2h0bHktaGFsZGxzIzEzNzk.x/haldls</text>
<text text-anchor="middle" x="97.46" y="-193.5" font-family="Helvetica,sans-Serif" font-size="10.00">/include/stadls/vx/v3/reinit_stack_entry.h</text>
</a>
</g>
</g>
<!-- Node2 -->
<g id="node2" class="node">
<title>Node2</title>
<g id="a_node2"><a xlink:href="v3_2stadls_8h.html" target="_top" xlink:title=" ">
<polygon fill="white" stroke="black" points="6.95,-93.5 6.95,-149.5 187.97,-149.5 187.97,-93.5 6.95,-93.5"/>
<text text-anchor="start" x="14.95" y="-136.5" font-family="Helvetica,sans-Serif" font-size="10.00">/jenkins/jenlib_workspaces</text>
<text text-anchor="start" x="14.95" y="-124.5" font-family="Helvetica,sans-Serif" font-size="10.00">_f9/bld_nightly&#45;haldls.YmxkX25p</text>
<text text-anchor="start" x="14.95" y="-112.5" font-family="Helvetica,sans-Serif" font-size="10.00">Z2h0bHktaGFsZGxzIzEzNzk.x/haldls</text>
<text text-anchor="middle" x="97.46" y="-100.5" font-family="Helvetica,sans-Serif" font-size="10.00">/include/stadls/vx/v3/stadls.h</text>
</a>
</g>
</g>
<!-- Node1&#45;&gt;Node2 -->
<g id="edge1" class="edge">
<title>Node1&#45;&gt;Node2</title>
<path fill="none" stroke="midnightblue" d="M97.46,-176.12C97.46,-167.3 97.46,-158.06 97.46,-149.78"/>
<polygon fill="midnightblue" stroke="midnightblue" points="93.96,-176.2 97.46,-186.2 100.96,-176.2 93.96,-176.2"/>
</g>
<!-- Node3 -->
<g id="node3" class="node">
<title>Node3</title>
<g id="a_node3"><a xlink:href="v3_2pystadls_8h.html" target="_top" xlink:title=" ">
<polygon fill="white" stroke="black" points="6.95,-0.5 6.95,-56.5 187.97,-56.5 187.97,-0.5 6.95,-0.5"/>
<text text-anchor="start" x="14.95" y="-43.5" font-family="Helvetica,sans-Serif" font-size="10.00">/jenkins/jenlib_workspaces</text>
<text text-anchor="start" x="14.95" y="-31.5" font-family="Helvetica,sans-Serif" font-size="10.00">_f9/bld_nightly&#45;haldls.YmxkX25p</text>
<text text-anchor="start" x="14.95" y="-19.5" font-family="Helvetica,sans-Serif" font-size="10.00">Z2h0bHktaGFsZGxzIzEzNzk.x/haldls</text>
<text text-anchor="middle" x="97.46" y="-7.5" font-family="Helvetica,sans-Serif" font-size="10.00">/include/stadls/vx/v3/pystadls.h</text>
</a>
</g>
</g>
<!-- Node2&#45;&gt;Node3 -->
<g id="edge2" class="edge">
<title>Node2&#45;&gt;Node3</title>
<path fill="none" stroke="midnightblue" d="M97.46,-83.12C97.46,-74.3 97.46,-65.06 97.46,-56.78"/>
<polygon fill="midnightblue" stroke="midnightblue" points="93.96,-83.2 97.46,-93.2 100.96,-83.2 93.96,-83.2"/>
</g>
</g>
</svg>
