<?xml version="1.0" encoding="UTF-8" standalone="no"?>
<!DOCTYPE svg PUBLIC "-//W3C//DTD SVG 1.1//EN"
 "http://www.w3.org/Graphics/SVG/1.1/DTD/svg11.dtd">
<!-- Generated by graphviz version 2.46.0 (0)
 -->
<!-- Title: /jenkins/jenlib_workspaces_f9/bld_nightly&#45;haldls.YmxkX25pZ2h0bHktaGFsZGxzIzEzNzk.x/haldls/include/lola/vx/cadc.h Pages: 1 -->
<!--zoomable 260 -->
<svg id="main" version="1.1" xmlns="http://www.w3.org/2000/svg" xmlns:xlink="http://www.w3.org/1999/xlink" xml:space="preserve" onload="init(evt)">
<style type="text/css"><![CDATA[
.edge:hover path { stroke: red; }
.edge:hover polygon { stroke: red; fill: red; }
]]></style>
<script type="text/javascript"><![CDATA[
var edges = document.getElementsByTagName('g');
if (edges && edges.length) {
  for (var i=0;i<edges.length;i++) {
    if (edges[i].id.substr(0,4)=='edge') {
      edges[i].setAttribute('class','edge');
    }
  }
}
]]></script>
        <defs>
                <circle id="rim" cx="0" cy="0" r="7"/>
                <circle id="rim2" cx="0" cy="0" r="3.5"/>
                <g id="zoomPlus">
                        <use xlink:href="#rim" fill="#404040">
                                <set attributeName="fill" to="#808080" begin="zoomplus.mouseover" end="zoomplus.mouseout"/>
                        </use>
                        <path d="M-4,0h8M0,-4v8" fill="none" stroke="white" stroke-width="1.5" pointer-events="none"/>
                </g>
                <g id="zoomMin">
                        <use xlink:href="#rim" fill="#404040">
                                <set attributeName="fill" to="#808080" begin="zoomminus.mouseover" end="zoomminus.mouseout"/>
                        </use>
                        <path d="M-4,0h8" fill="none" stroke="white" stroke-width="1.5" pointer-events="none"/>
                </g>
                <g id="dirArrow">
                        <path fill="none" stroke="white" stroke-width="1.5" d="M0,-3.0v7 M-2.5,-0.5L0,-3.0L2.5,-0.5"/>
                </g>
               <g id="resetDef">
                       <use xlink:href="#rim2" fill="#404040">
                               <set attributeName="fill" to="#808080" begin="reset.mouseover" end="reset.mouseout"/>
                       </use>
               </g>
        </defs>

<script type="text/javascript">
var viewWidth = 1406;
var viewHeight = 260;
var sectionId = 'dynsection-0';
</script>
<script xlink:href="svgpan.js"/>
<svg id="graph" class="graph">
<g id="viewport">
<title>/jenkins/jenlib_workspaces_f9/bld_nightly&#45;haldls.YmxkX25pZ2h0bHktaGFsZGxzIzEzNzk.x/haldls/include/lola/vx/cadc.h</title>
<polygon fill="white" stroke="transparent" points="-4,4 -4,-256 1401.62,-256 1401.62,4 -4,4"/>
<!-- Node1 -->
<g id="node1" class="node">
<title>Node1</title>
<g id="a_node1"><a xlink:title=" ">
<polygon fill="#bfbfbf" stroke="black" points="696.28,-195.5 696.28,-251.5 877.29,-251.5 877.29,-195.5 696.28,-195.5"/>
<text text-anchor="start" x="704.28" y="-238.5" font-family="Helvetica,sans-Serif" font-size="10.00">/jenkins/jenlib_workspaces</text>
<text text-anchor="start" x="704.28" y="-226.5" font-family="Helvetica,sans-Serif" font-size="10.00">_f9/bld_nightly&#45;haldls.YmxkX25p</text>
<text text-anchor="start" x="704.28" y="-214.5" font-family="Helvetica,sans-Serif" font-size="10.00">Z2h0bHktaGFsZGxzIzEzNzk.x/haldls</text>
<text text-anchor="middle" x="786.78" y="-202.5" font-family="Helvetica,sans-Serif" font-size="10.00">/include/lola/vx/cadc.h</text>
</a>
</g>
</g>
<!-- Node2 -->
<g id="node2" class="node">
<title>Node2</title>
<g id="a_node2"><a xlink:title=" ">
<polygon fill="white" stroke="#bfbfbf" points="0,-63.5 0,-83.5 121.57,-83.5 121.57,-63.5 0,-63.5"/>
<text text-anchor="middle" x="60.78" y="-70.5" font-family="Helvetica,sans-Serif" font-size="10.00">halco/common/iter_all.h</text>
</a>
</g>
</g>
<!-- Node1&#45;&gt;Node2 -->
<g id="edge1" class="edge">
<title>Node1&#45;&gt;Node2</title>
<path fill="none" stroke="midnightblue" d="M696.18,-214C604.58,-204.42 459.28,-186.49 335.78,-159 247.57,-139.37 146.68,-105.27 95.1,-86.97"/>
<polygon fill="midnightblue" stroke="midnightblue" points="96.05,-83.59 85.46,-83.53 93.7,-90.19 96.05,-83.59"/>
</g>
<!-- Node3 -->
<g id="node3" class="node">
<title>Node3</title>
<g id="a_node3"><a xlink:title=" ">
<polygon fill="white" stroke="#bfbfbf" points="139.66,-57.5 139.66,-89.5 247.91,-89.5 247.91,-57.5 139.66,-57.5"/>
<text text-anchor="start" x="147.66" y="-76.5" font-family="Helvetica,sans-Serif" font-size="10.00">halco/common/typed</text>
<text text-anchor="middle" x="193.78" y="-64.5" font-family="Helvetica,sans-Serif" font-size="10.00">_array.h</text>
</a>
</g>
</g>
<!-- Node1&#45;&gt;Node3 -->
<g id="edge2" class="edge">
<title>Node1&#45;&gt;Node3</title>
<path fill="none" stroke="midnightblue" d="M696.1,-209.34C626.5,-198.36 528.33,-180.99 443.78,-159 372.5,-140.45 292.14,-111.87 242.23,-93.18"/>
<polygon fill="midnightblue" stroke="midnightblue" points="243.25,-89.82 232.66,-89.58 240.79,-96.38 243.25,-89.82"/>
</g>
<!-- Node4 -->
<g id="node4" class="node">
<title>Node4</title>
<g id="a_node4"><a xlink:title=" ">
<polygon fill="white" stroke="#bfbfbf" points="265.66,-57.5 265.66,-89.5 373.91,-89.5 373.91,-57.5 265.66,-57.5"/>
<text text-anchor="start" x="273.66" y="-76.5" font-family="Helvetica,sans-Serif" font-size="10.00">halco/common/typed</text>
<text text-anchor="middle" x="319.78" y="-64.5" font-family="Helvetica,sans-Serif" font-size="10.00">_heap_array.h</text>
</a>
</g>
</g>
<!-- Node1&#45;&gt;Node4 -->
<g id="edge3" class="edge">
<title>Node1&#45;&gt;Node4</title>
<path fill="none" stroke="midnightblue" d="M696.23,-202.02C648.94,-190.65 590.33,-175.48 538.78,-159 477.31,-139.34 408.08,-111.67 364.21,-93.42"/>
<polygon fill="midnightblue" stroke="midnightblue" points="365.56,-90.18 354.98,-89.56 362.86,-96.64 365.56,-90.18"/>
</g>
<!-- Node5 -->
<g id="node5" class="node">
<title>Node5</title>
<g id="a_node5"><a xlink:title=" ">
<polygon fill="white" stroke="#bfbfbf" points="392.11,-63.5 392.11,-83.5 501.46,-83.5 501.46,-63.5 392.11,-63.5"/>
<text text-anchor="middle" x="446.78" y="-70.5" font-family="Helvetica,sans-Serif" font-size="10.00">haldls/cerealization.h</text>
</a>
</g>
</g>
<!-- Node1&#45;&gt;Node5 -->
<g id="edge4" class="edge">
<title>Node1&#45;&gt;Node5</title>
<path fill="none" stroke="midnightblue" d="M704.87,-195.43C674.93,-184.88 641.01,-172.17 610.78,-159 560.23,-136.97 503.49,-106.34 471.75,-88.66"/>
<polygon fill="midnightblue" stroke="midnightblue" points="473.18,-85.44 462.74,-83.61 469.75,-91.55 473.18,-85.44"/>
</g>
<!-- Node6 -->
<g id="node6" class="node">
<title>Node6</title>
<g id="a_node6"><a xlink:title=" ">
<polygon fill="white" stroke="#bfbfbf" points="967.22,-132.5 967.22,-152.5 1054.35,-152.5 1054.35,-132.5 967.22,-132.5"/>
<text text-anchor="middle" x="1010.78" y="-139.5" font-family="Helvetica,sans-Serif" font-size="10.00">haldls/vx/cadc.h</text>
</a>
</g>
</g>
<!-- Node1&#45;&gt;Node6 -->
<g id="edge5" class="edge">
<title>Node1&#45;&gt;Node6</title>
<path fill="none" stroke="midnightblue" d="M863.56,-195.42C901.56,-182.02 945.59,-166.49 975.53,-155.93"/>
<polygon fill="midnightblue" stroke="midnightblue" points="976.85,-159.18 985.11,-152.55 974.52,-152.58 976.85,-159.18"/>
</g>
<!-- Node7 -->
<g id="node7" class="node">
<title>Node7</title>
<g id="a_node7"><a xlink:title=" ">
<polygon fill="white" stroke="#bfbfbf" points="519.61,-63.5 519.61,-83.5 623.96,-83.5 623.96,-63.5 519.61,-63.5"/>
<text text-anchor="middle" x="571.78" y="-70.5" font-family="Helvetica,sans-Serif" font-size="10.00">haldls/vx/common.h</text>
</a>
</g>
</g>
<!-- Node1&#45;&gt;Node7 -->
<g id="edge6" class="edge">
<title>Node1&#45;&gt;Node7</title>
<path fill="none" stroke="midnightblue" d="M714.5,-195.36C692.7,-185.53 669.38,-173.28 649.78,-159 623.3,-139.7 598.71,-110.41 584.48,-91.88"/>
<polygon fill="midnightblue" stroke="midnightblue" points="587.16,-89.63 578.36,-83.73 581.57,-93.83 587.16,-89.63"/>
</g>
<!-- Node8 -->
<g id="node8" class="node">
<title>Node8</title>
<g id="a_node8"><a xlink:title=" ">
<polygon fill="white" stroke="#bfbfbf" points="642.16,-63.5 642.16,-83.5 745.41,-83.5 745.41,-63.5 642.16,-63.5"/>
<text text-anchor="middle" x="693.78" y="-70.5" font-family="Helvetica,sans-Serif" font-size="10.00">haldls/vx/synapse.h</text>
</a>
</g>
</g>
<!-- Node1&#45;&gt;Node8 -->
<g id="edge7" class="edge">
<title>Node1&#45;&gt;Node8</title>
<path fill="none" stroke="midnightblue" d="M698.36,-195.45C682.24,-186.44 667.48,-174.58 657.78,-159 644.1,-137.01 662.27,-108.91 677.38,-91.3"/>
<polygon fill="midnightblue" stroke="midnightblue" points="680.27,-93.33 684.41,-83.58 675.09,-88.62 680.27,-93.33"/>
</g>
<!-- Node9 -->
<g id="node9" class="node">
<title>Node9</title>
<g id="a_node9"><a xlink:title=" ">
<polygon fill="white" stroke="#bfbfbf" points="762.95,-63.5 762.95,-83.5 850.62,-83.5 850.62,-63.5 762.95,-63.5"/>
<text text-anchor="middle" x="806.78" y="-70.5" font-family="Helvetica,sans-Serif" font-size="10.00">haldls/vx/traits.h</text>
</a>
</g>
</g>
<!-- Node1&#45;&gt;Node9 -->
<g id="edge8" class="edge">
<title>Node1&#45;&gt;Node9</title>
<path fill="none" stroke="midnightblue" d="M790.45,-195.35C794.44,-165.84 800.71,-119.44 804.21,-93.56"/>
<polygon fill="midnightblue" stroke="midnightblue" points="807.69,-93.92 805.56,-83.54 800.76,-92.98 807.69,-93.92"/>
</g>
<!-- Node10 -->
<g id="node10" class="node">
<title>Node10</title>
<g id="a_node10"><a xlink:title=" ">
<polygon fill="white" stroke="#bfbfbf" points="868.28,-63.5 868.28,-83.5 949.29,-83.5 949.29,-63.5 868.28,-63.5"/>
<text text-anchor="middle" x="908.78" y="-70.5" font-family="Helvetica,sans-Serif" font-size="10.00">hate/visibility.h</text>
</a>
</g>
</g>
<!-- Node1&#45;&gt;Node10 -->
<g id="edge9" class="edge">
<title>Node1&#45;&gt;Node10</title>
<path fill="none" stroke="midnightblue" d="M801.43,-195.25C812.93,-175.07 830.09,-147.48 848.78,-126 860.39,-112.67 875.5,-99.72 887.65,-90.14"/>
<polygon fill="midnightblue" stroke="midnightblue" points="890.09,-92.68 895.88,-83.81 885.82,-87.13 890.09,-92.68"/>
</g>
<!-- Node11 -->
<g id="node11" class="node">
<title>Node11</title>
<g id="a_node11"><a xlink:href="cerealization_8h.html" target="_top" xlink:title=" ">
<polygon fill="white" stroke="black" points="967,-63.5 967,-83.5 1078.57,-83.5 1078.57,-63.5 967,-63.5"/>
<text text-anchor="middle" x="1022.78" y="-70.5" font-family="Helvetica,sans-Serif" font-size="10.00">lola/vx/cerealization.h</text>
</a>
</g>
</g>
<!-- Node1&#45;&gt;Node11 -->
<g id="edge10" class="edge">
<title>Node1&#45;&gt;Node11</title>
<path fill="none" stroke="midnightblue" d="M813.99,-195.14C840.68,-168.48 878.53,-131.23 886.78,-126 914.99,-108.13 950.35,-94.98 977.95,-86.44"/>
<polygon fill="midnightblue" stroke="midnightblue" points="979.16,-89.73 987.73,-83.5 977.15,-83.02 979.16,-89.73"/>
</g>
<!-- Node15 -->
<g id="node15" class="node">
<title>Node15</title>
<g id="a_node15"><a xlink:href="genpybind_8h.html" target="_top" xlink:title=" ">
<polygon fill="white" stroke="black" points="1096.99,-63.5 1096.99,-83.5 1198.58,-83.5 1198.58,-63.5 1096.99,-63.5"/>
<text text-anchor="middle" x="1147.78" y="-70.5" font-family="Helvetica,sans-Serif" font-size="10.00">lola/vx/genpybind.h</text>
</a>
</g>
</g>
<!-- Node1&#45;&gt;Node15 -->
<g id="edge14" class="edge">
<title>Node1&#45;&gt;Node15</title>
<path fill="none" stroke="midnightblue" d="M830.37,-195.26C847.3,-184.34 866.69,-171.43 883.78,-159 902.7,-145.24 903.7,-136.12 924.78,-126 991.67,-93.89 1015.63,-107.28 1087.78,-90 1092.89,-88.78 1098.22,-87.46 1103.51,-86.13"/>
<polygon fill="midnightblue" stroke="midnightblue" points="1104.74,-89.42 1113.57,-83.56 1103.01,-82.64 1104.74,-89.42"/>
</g>
<!-- Node16 -->
<g id="node16" class="node">
<title>Node16</title>
<g id="a_node16"><a xlink:href="synapse_8h.html" target="_top" xlink:title=" ">
<polygon fill="white" stroke="black" points="666.44,-132.5 666.44,-152.5 759.13,-152.5 759.13,-132.5 666.44,-132.5"/>
<text text-anchor="middle" x="712.78" y="-139.5" font-family="Helvetica,sans-Serif" font-size="10.00">lola/vx/synapse.h</text>
</a>
</g>
</g>
<!-- Node1&#45;&gt;Node16 -->
<g id="edge16" class="edge">
<title>Node1&#45;&gt;Node16</title>
<path fill="none" stroke="midnightblue" d="M761.32,-195.31C750.37,-183.62 737.92,-170.33 728.37,-160.14"/>
<polygon fill="midnightblue" stroke="midnightblue" points="730.81,-157.62 721.42,-152.71 725.7,-162.41 730.81,-157.62"/>
</g>
<!-- Node17 -->
<g id="node17" class="node">
<title>Node17</title>
<g id="a_node17"><a xlink:title=" ">
<polygon fill="white" stroke="#bfbfbf" points="1234.42,-63.5 1234.42,-83.5 1377.15,-83.5 1377.15,-63.5 1234.42,-63.5"/>
<text text-anchor="middle" x="1305.78" y="-70.5" font-family="Helvetica,sans-Serif" font-size="10.00">boost/hana/adapt_struct.hpp</text>
</a>
</g>
</g>
<!-- Node1&#45;&gt;Node17 -->
<g id="edge28" class="edge">
<title>Node1&#45;&gt;Node17</title>
<path fill="none" stroke="midnightblue" d="M850.4,-195.39C872.36,-185.07 896.73,-172.51 917.78,-159 937.18,-146.55 936.66,-135.22 957.78,-126 1067.93,-77.91 1107.19,-109.44 1225.78,-90 1234.11,-88.63 1242.9,-87.06 1251.49,-85.46"/>
<polygon fill="midnightblue" stroke="midnightblue" points="1252.27,-88.87 1261.44,-83.57 1250.96,-82 1252.27,-88.87"/>
</g>
<!-- Node18 -->
<g id="node18" class="node">
<title>Node18</title>
<g id="a_node18"><a xlink:title=" ">
<polygon fill="white" stroke="#bfbfbf" points="1072.12,-126.5 1072.12,-158.5 1221.45,-158.5 1221.45,-126.5 1072.12,-126.5"/>
<text text-anchor="start" x="1080.12" y="-145.5" font-family="Helvetica,sans-Serif" font-size="10.00">haldlsID(/)vxID(/)vID</text>
<text text-anchor="middle" x="1146.78" y="-133.5" font-family="Helvetica,sans-Serif" font-size="10.00">(CHIP_REVISION)/capmem.h</text>
</a>
</g>
</g>
<!-- Node1&#45;&gt;Node18 -->
<g id="edge29" class="edge">
<title>Node1&#45;&gt;Node18</title>
<path fill="none" stroke="midnightblue" d="M877.63,-202.56C936.48,-189.65 1012.34,-173 1068.52,-160.68"/>
<polygon fill="midnightblue" stroke="midnightblue" points="1069.4,-164.07 1078.42,-158.5 1067.9,-157.23 1069.4,-164.07"/>
</g>
<!-- Node19 -->
<g id="node19" class="node">
<title>Node19</title>
<g id="a_node19"><a xlink:title=" ">
<polygon fill="white" stroke="#bfbfbf" points="1239.95,-126.5 1239.95,-158.5 1397.62,-158.5 1397.62,-126.5 1239.95,-126.5"/>
<text text-anchor="start" x="1247.95" y="-145.5" font-family="Helvetica,sans-Serif" font-size="10.00">haldlsID(/)vxID(/)vID</text>
<text text-anchor="middle" x="1318.78" y="-133.5" font-family="Helvetica,sans-Serif" font-size="10.00">(CHIP_REVISION)/correlation.h</text>
</a>
</g>
</g>
<!-- Node1&#45;&gt;Node19 -->
<g id="edge30" class="edge">
<title>Node1&#45;&gt;Node19</title>
<path fill="none" stroke="midnightblue" d="M877.48,-210.4C965.02,-198.52 1101.57,-179.47 1229.66,-159.15"/>
<polygon fill="midnightblue" stroke="midnightblue" points="1230.33,-162.59 1239.65,-157.56 1229.22,-155.68 1230.33,-162.59"/>
</g>
<!-- Node12 -->
<g id="node12" class="node">
<title>Node12</title>
<g id="a_node12"><a xlink:title=" ">
<polygon fill="white" stroke="#bfbfbf" points="899.72,-0.5 899.72,-20.5 961.85,-20.5 961.85,-0.5 899.72,-0.5"/>
<text text-anchor="middle" x="930.78" y="-7.5" font-family="Helvetica,sans-Serif" font-size="10.00">type_traits</text>
</a>
</g>
</g>
<!-- Node11&#45;&gt;Node12 -->
<g id="edge11" class="edge">
<title>Node11&#45;&gt;Node12</title>
<path fill="none" stroke="midnightblue" d="M1009.21,-63.5C994.4,-53.68 970.46,-37.81 952.92,-26.18"/>
<polygon fill="midnightblue" stroke="midnightblue" points="954.68,-23.15 944.42,-20.54 950.82,-28.98 954.68,-23.15"/>
</g>
<!-- Node13 -->
<g id="node13" class="node">
<title>Node13</title>
<g id="a_node13"><a xlink:title=" ">
<polygon fill="white" stroke="#bfbfbf" points="980.32,-0.5 980.32,-20.5 1065.25,-20.5 1065.25,-0.5 980.32,-0.5"/>
<text text-anchor="middle" x="1022.78" y="-7.5" font-family="Helvetica,sans-Serif" font-size="10.00">boost/hana.hpp</text>
</a>
</g>
</g>
<!-- Node11&#45;&gt;Node13 -->
<g id="edge12" class="edge">
<title>Node11&#45;&gt;Node13</title>
<path fill="none" stroke="midnightblue" d="M1022.78,-63.5C1022.78,-54.94 1022.78,-41.78 1022.78,-30.85"/>
<polygon fill="midnightblue" stroke="midnightblue" points="1026.28,-30.54 1022.78,-20.54 1019.28,-30.54 1026.28,-30.54"/>
</g>
<!-- Node14 -->
<g id="node14" class="node">
<title>Node14</title>
<g id="a_node14"><a xlink:title=" ">
<polygon fill="white" stroke="#bfbfbf" points="1083.67,-0.5 1083.67,-20.5 1181.9,-20.5 1181.9,-0.5 1083.67,-0.5"/>
<text text-anchor="middle" x="1132.78" y="-7.5" font-family="Helvetica,sans-Serif" font-size="10.00">cereal/macros.hpp</text>
</a>
</g>
</g>
<!-- Node11&#45;&gt;Node14 -->
<g id="edge13" class="edge">
<title>Node11&#45;&gt;Node14</title>
<path fill="none" stroke="midnightblue" d="M1039.02,-63.5C1057.05,-53.5 1086.4,-37.22 1107.46,-25.54"/>
<polygon fill="midnightblue" stroke="midnightblue" points="1109.44,-28.45 1116.49,-20.54 1106.04,-22.33 1109.44,-28.45"/>
</g>
<!-- Node15&#45;&gt;Node15 -->
<g id="edge15" class="edge">
<title>Node15&#45;&gt;Node15</title>
<path fill="none" stroke="midnightblue" d="M1174.26,-83.56C1195.15,-87.45 1216.58,-84.1 1216.58,-73.5 1216.58,-64.64 1201.6,-60.85 1184.49,-62.11"/>
<polygon fill="midnightblue" stroke="midnightblue" points="1183.72,-58.68 1174.26,-63.44 1184.63,-65.62 1183.72,-58.68"/>
</g>
<!-- Node16&#45;&gt;Node2 -->
<g id="edge17" class="edge">
<title>Node16&#45;&gt;Node2</title>
<path fill="none" stroke="midnightblue" d="M666.14,-139.43C567.07,-134.58 328.53,-120.51 130.78,-90 123.09,-88.81 114.97,-87.28 107.1,-85.64"/>
<polygon fill="midnightblue" stroke="midnightblue" points="107.82,-82.22 97.31,-83.53 106.34,-89.06 107.82,-82.22"/>
</g>
<!-- Node16&#45;&gt;Node3 -->
<g id="edge18" class="edge">
<title>Node16&#45;&gt;Node3</title>
<path fill="none" stroke="midnightblue" d="M666.22,-138.23C585.17,-132.11 412.82,-117.19 258.15,-90.11"/>
<polygon fill="midnightblue" stroke="midnightblue" points="258.44,-86.6 247.99,-88.31 257.22,-93.5 258.44,-86.6"/>
</g>
<!-- Node16&#45;&gt;Node4 -->
<g id="edge19" class="edge">
<title>Node16&#45;&gt;Node4</title>
<path fill="none" stroke="midnightblue" d="M666.38,-135.55C604.25,-127.29 490.43,-111.18 383.96,-90.14"/>
<polygon fill="midnightblue" stroke="midnightblue" points="384.51,-86.68 374.01,-88.16 383.14,-93.55 384.51,-86.68"/>
</g>
<!-- Node16&#45;&gt;Node5 -->
<g id="edge20" class="edge">
<title>Node16&#45;&gt;Node5</title>
<path fill="none" stroke="midnightblue" d="M676.91,-132.46C629.32,-120.48 545.23,-99.3 492.95,-86.13"/>
<polygon fill="midnightblue" stroke="midnightblue" points="493.49,-82.66 482.94,-83.61 491.78,-89.44 493.49,-82.66"/>
</g>
<!-- Node16&#45;&gt;Node7 -->
<g id="edge21" class="edge">
<title>Node16&#45;&gt;Node7</title>
<path fill="none" stroke="midnightblue" d="M693.77,-132.46C669.7,-121.03 628.01,-101.22 600.17,-87.99"/>
<polygon fill="midnightblue" stroke="midnightblue" points="601.48,-84.74 590.95,-83.61 598.48,-91.06 601.48,-84.74"/>
</g>
<!-- Node16&#45;&gt;Node8 -->
<g id="edge22" class="edge">
<title>Node16&#45;&gt;Node8</title>
<path fill="none" stroke="midnightblue" d="M710.22,-132.46C707.4,-122.53 702.8,-106.28 699.18,-93.52"/>
<polygon fill="midnightblue" stroke="midnightblue" points="702.52,-92.49 696.43,-83.82 695.79,-94.4 702.52,-92.49"/>
</g>
<!-- Node16&#45;&gt;Node9 -->
<g id="edge23" class="edge">
<title>Node16&#45;&gt;Node9</title>
<path fill="none" stroke="midnightblue" d="M725.46,-132.46C740.88,-121.47 767.13,-102.76 785.63,-89.58"/>
<polygon fill="midnightblue" stroke="midnightblue" points="787.9,-92.26 794.01,-83.61 783.83,-86.56 787.9,-92.26"/>
</g>
<!-- Node16&#45;&gt;Node10 -->
<g id="edge24" class="edge">
<title>Node16&#45;&gt;Node10</title>
<path fill="none" stroke="midnightblue" d="M739.22,-132.46C773.56,-120.73 833.67,-100.18 872.33,-86.96"/>
<polygon fill="midnightblue" stroke="midnightblue" points="873.81,-90.15 882.14,-83.61 871.55,-83.53 873.81,-90.15"/>
</g>
<!-- Node16&#45;&gt;Node11 -->
<g id="edge25" class="edge">
<title>Node16&#45;&gt;Node11</title>
<path fill="none" stroke="midnightblue" d="M758.22,-132.43C807.65,-122.46 888.98,-105.76 958.78,-90 964.5,-88.71 970.49,-87.32 976.42,-85.91"/>
<polygon fill="midnightblue" stroke="midnightblue" points="977.37,-89.28 986.28,-83.55 975.74,-82.47 977.37,-89.28"/>
</g>
<!-- Node16&#45;&gt;Node15 -->
<g id="edge26" class="edge">
<title>Node16&#45;&gt;Node15</title>
<path fill="none" stroke="midnightblue" d="M759.26,-136.88C830.41,-129.4 970.44,-113.13 1087.78,-90 1093.6,-88.85 1099.69,-87.48 1105.67,-86.04"/>
<polygon fill="midnightblue" stroke="midnightblue" points="1106.71,-89.39 1115.56,-83.56 1105.01,-82.6 1106.71,-89.39"/>
</g>
<!-- Node16&#45;&gt;Node17 -->
<g id="edge27" class="edge">
<title>Node16&#45;&gt;Node17</title>
<path fill="none" stroke="midnightblue" d="M759.29,-138.26C849.55,-131.66 1054.64,-115.12 1225.78,-90 1234.63,-88.7 1243.99,-87.1 1253.06,-85.42"/>
<polygon fill="midnightblue" stroke="midnightblue" points="1253.97,-88.81 1263.14,-83.51 1252.67,-81.93 1253.97,-88.81"/>
</g>
</g>
</svg>
        <g id="navigator" transform="translate(0 0)" fill="#404254">
                <rect fill="#f2f5e9" fill-opacity="0.5" stroke="#606060" stroke-width=".5" x="0" y="0" width="60" height="60"/>
                <use id="zoomplus" xlink:href="#zoomPlus" x="17" y="9" onmousedown="handleZoom(evt,'in')"/>
                <use id="zoomminus" xlink:href="#zoomMin" x="42" y="9" onmousedown="handleZoom(evt,'out')"/>
                <use id="reset" xlink:href="#resetDef" x="30" y="36" onmousedown="handleReset()"/>
                <g id="arrowUp" xlink:href="#dirArrow" transform="translate(30 24)" onmousedown="handlePan(0,-1)">
                  <use xlink:href="#rim" fill="#404040">
                        <set attributeName="fill" to="#808080" begin="arrowUp.mouseover" end="arrowUp.mouseout"/>
                  </use>
                  <path fill="none" stroke="white" stroke-width="1.5" d="M0,-3.0v7 M-2.5,-0.5L0,-3.0L2.5,-0.5"/>
                </g>
                <g id="arrowRight" xlink:href="#dirArrow" transform="rotate(90) translate(36 -43)" onmousedown="handlePan(1,0)">
                  <use xlink:href="#rim" fill="#404040">
                        <set attributeName="fill" to="#808080" begin="arrowRight.mouseover" end="arrowRight.mouseout"/>
                  </use>
                  <path fill="none" stroke="white" stroke-width="1.5" d="M0,-3.0v7 M-2.5,-0.5L0,-3.0L2.5,-0.5"/>
                </g>
                <g id="arrowDown" xlink:href="#dirArrow" transform="rotate(180) translate(-30 -48)" onmousedown="handlePan(0,1)">
                  <use xlink:href="#rim" fill="#404040">
                        <set attributeName="fill" to="#808080" begin="arrowDown.mouseover" end="arrowDown.mouseout"/>
                  </use>
                  <path fill="none" stroke="white" stroke-width="1.5" d="M0,-3.0v7 M-2.5,-0.5L0,-3.0L2.5,-0.5"/>
                </g>
                <g id="arrowLeft" xlink:href="#dirArrow" transform="rotate(270) translate(-36 17)" onmousedown="handlePan(-1,0)">
                  <use xlink:href="#rim" fill="#404040">
                        <set attributeName="fill" to="#808080" begin="arrowLeft.mouseover" end="arrowLeft.mouseout"/>
                  </use>
                  <path fill="none" stroke="white" stroke-width="1.5" d="M0,-3.0v7 M-2.5,-0.5L0,-3.0L2.5,-0.5"/>
                </g>
        </g>
        <svg viewBox="0 0 15 15" width="100%" height="30px" preserveAspectRatio="xMaxYMin meet">
         <g id="arrow_out" transform="scale(0.3 0.3)">
          <a xlink:href="cadc_8h__incl_org.svg" target="_base">
           <rect id="button" ry="5" rx="5" y="6" x="6" height="38" width="38"
                fill="#f2f5e9" fill-opacity="0.5" stroke="#606060" stroke-width="1.0"/>
           <path id="arrow"
             d="M 11.500037,31.436501 C 11.940474,20.09759 22.043105,11.32322 32.158766,21.979434 L 37.068811,17.246167 C 37.068811,17.246167 37.088388,32 37.088388,32 L 22.160133,31.978069 C 22.160133,31.978069 26.997745,27.140456 26.997745,27.140456 C 18.528582,18.264221 13.291696,25.230495 11.500037,31.436501 z"
             style="fill:#404040;"/>
          </a>
         </g>
        </svg>
</svg>
