<?xml version="1.0" encoding="UTF-8" standalone="no"?>
<!DOCTYPE svg PUBLIC "-//W3C//DTD SVG 1.1//EN"
 "http://www.w3.org/Graphics/SVG/1.1/DTD/svg11.dtd">
<!-- Generated by graphviz version 2.46.0 (0)
 -->
<!-- Title: /jenkins/jenlib_workspaces_f9/bld_nightly&#45;haldls.YmxkX25pZ2h0bHktaGFsZGxzIzEzNzk.x/haldls/include/lola/vx/cerealization.h Pages: 1 -->
<svg width="290pt" height="122pt"
 viewBox="0.00 0.00 290.18 122.00" xmlns="http://www.w3.org/2000/svg" xmlns:xlink="http://www.w3.org/1999/xlink">
<g id="graph0" class="graph" transform="scale(1 1) rotate(0) translate(4 118)">
<title>/jenkins/jenlib_workspaces_f9/bld_nightly&#45;haldls.YmxkX25pZ2h0bHktaGFsZGxzIzEzNzk.x/haldls/include/lola/vx/cerealization.h</title>
<polygon fill="white" stroke="transparent" points="-4,4 -4,-118 286.18,-118 286.18,4 -4,4"/>
<!-- Node1 -->
<g id="node1" class="node">
<title>Node1</title>
<g id="a_node1"><a xlink:title=" ">
<polygon fill="#bfbfbf" stroke="black" points="32.55,-57.5 32.55,-113.5 213.57,-113.5 213.57,-57.5 32.55,-57.5"/>
<text text-anchor="start" x="40.55" y="-100.5" font-family="Helvetica,sans-Serif" font-size="10.00">/jenkins/jenlib_workspaces</text>
<text text-anchor="start" x="40.55" y="-88.5" font-family="Helvetica,sans-Serif" font-size="10.00">_f9/bld_nightly&#45;haldls.YmxkX25p</text>
<text text-anchor="start" x="40.55" y="-76.5" font-family="Helvetica,sans-Serif" font-size="10.00">Z2h0bHktaGFsZGxzIzEzNzk.x/haldls</text>
<text text-anchor="middle" x="123.06" y="-64.5" font-family="Helvetica,sans-Serif" font-size="10.00">/include/lola/vx/cerealization.h</text>
</a>
</g>
</g>
<!-- Node2 -->
<g id="node2" class="node">
<title>Node2</title>
<g id="a_node2"><a xlink:title=" ">
<polygon fill="white" stroke="#bfbfbf" points="0,-0.5 0,-20.5 62.12,-20.5 62.12,-0.5 0,-0.5"/>
<text text-anchor="middle" x="31.06" y="-7.5" font-family="Helvetica,sans-Serif" font-size="10.00">type_traits</text>
</a>
</g>
</g>
<!-- Node1&#45;&gt;Node2 -->
<g id="edge1" class="edge">
<title>Node1&#45;&gt;Node2</title>
<path fill="none" stroke="midnightblue" d="M88.8,-57.32C75.9,-47.08 61.68,-35.8 50.58,-26.99"/>
<polygon fill="midnightblue" stroke="midnightblue" points="52.44,-24 42.43,-20.52 48.09,-29.48 52.44,-24"/>
</g>
<!-- Node3 -->
<g id="node3" class="node">
<title>Node3</title>
<g id="a_node3"><a xlink:title=" ">
<polygon fill="white" stroke="#bfbfbf" points="80.6,-0.5 80.6,-20.5 165.52,-20.5 165.52,-0.5 80.6,-0.5"/>
<text text-anchor="middle" x="123.06" y="-7.5" font-family="Helvetica,sans-Serif" font-size="10.00">boost/hana.hpp</text>
</a>
</g>
</g>
<!-- Node1&#45;&gt;Node3 -->
<g id="edge2" class="edge">
<title>Node1&#45;&gt;Node3</title>
<path fill="none" stroke="midnightblue" d="M123.06,-57.32C123.06,-48.5 123.06,-38.91 123.06,-30.79"/>
<polygon fill="midnightblue" stroke="midnightblue" points="126.56,-30.52 123.06,-20.52 119.56,-30.52 126.56,-30.52"/>
</g>
<!-- Node4 -->
<g id="node4" class="node">
<title>Node4</title>
<g id="a_node4"><a xlink:title=" ">
<polygon fill="white" stroke="#bfbfbf" points="183.94,-0.5 183.94,-20.5 282.18,-20.5 282.18,-0.5 183.94,-0.5"/>
<text text-anchor="middle" x="233.06" y="-7.5" font-family="Helvetica,sans-Serif" font-size="10.00">cereal/macros.hpp</text>
</a>
</g>
</g>
<!-- Node1&#45;&gt;Node4 -->
<g id="edge3" class="edge">
<title>Node1&#45;&gt;Node4</title>
<path fill="none" stroke="midnightblue" d="M164.02,-57.32C179.9,-46.78 197.46,-35.13 210.89,-26.21"/>
<polygon fill="midnightblue" stroke="midnightblue" points="213.07,-28.97 219.46,-20.52 209.19,-23.14 213.07,-28.97"/>
</g>
</g>
</svg>
