<?xml version="1.0" encoding="UTF-8" standalone="no"?>
<!DOCTYPE svg PUBLIC "-//W3C//DTD SVG 1.1//EN"
 "http://www.w3.org/Graphics/SVG/1.1/DTD/svg11.dtd">
<!-- Generated by graphviz version 2.46.0 (0)
 -->
<!-- Title: lola::vx::v3::Chip Pages: 1 -->
<svg width="493pt" height="98pt"
 viewBox="0.00 0.00 493.00 98.00" xmlns="http://www.w3.org/2000/svg" xmlns:xlink="http://www.w3.org/1999/xlink">
<g id="graph0" class="graph" transform="scale(1 1) rotate(0) translate(4 94)">
<title>lola::vx::v3::Chip</title>
<polygon fill="white" stroke="transparent" points="-4,4 -4,-94 489,-94 489,4 -4,4"/>
<!-- Node1 -->
<g id="node1" class="node">
<title>Node1</title>
<g id="a_node1"><a xlink:title="Complete static configuration of one chip.">
<polygon fill="#bfbfbf" stroke="black" points="161.94,-0.5 161.94,-20.5 251.29,-20.5 251.29,-0.5 161.94,-0.5"/>
<text text-anchor="middle" x="206.62" y="-7.5" font-family="Helvetica,sans-Serif" font-size="10.00">lola::vx::v3::Chip</text>
</a>
</g>
</g>
<!-- Node1&#45;&gt;Node1 -->
<g id="edge3" class="edge">
<title>Node1&#45;&gt;Node1</title>
<path fill="none" stroke="#9a32cd" stroke-dasharray="5,2" d="M261.59,-15.48C266.33,-14.42 269.29,-12.76 269.29,-10.5 269.29,-6.88 261.71,-4.8 251.4,-4.27"/>
<polygon fill="#9a32cd" stroke="#9a32cd" points="260.9,-12.04 251.4,-16.73 261.75,-18.99 260.9,-12.04"/>
<text text-anchor="middle" x="322.64" y="-7.5" font-family="Helvetica,sans-Serif" font-size="10.00"> default_neuron_bypass</text>
</g>
<!-- Node2 -->
<g id="node2" class="node">
<title>Node2</title>
<g id="a_node2"><a xlink:title=" ">
<polygon fill="white" stroke="#bfbfbf" points="0,-69.5 0,-89.5 73.23,-89.5 73.23,-69.5 0,-69.5"/>
<text text-anchor="middle" x="36.62" y="-76.5" font-family="Helvetica,sans-Serif" font-size="10.00">NeuronBlock</text>
</a>
</g>
</g>
<!-- Node2&#45;&gt;Node1 -->
<g id="edge1" class="edge">
<title>Node2&#45;&gt;Node1</title>
<path fill="none" stroke="#9a32cd" stroke-dasharray="5,2" d="M57.3,-63.58C69.48,-55.37 85.47,-45.54 100.82,-39 120.2,-30.74 142.66,-24.47 161.89,-20.02"/>
<polygon fill="#9a32cd" stroke="#9a32cd" points="55.03,-60.89 48.8,-69.47 59.02,-66.65 55.03,-60.89"/>
<text text-anchor="middle" x="133.01" y="-42" font-family="Helvetica,sans-Serif" font-size="10.00"> neuron_block</text>
</g>
<!-- Node3 -->
<g id="node3" class="node">
<title>Node3</title>
<g id="a_node3"><a xlink:href="classlola_1_1vx_1_1_crossbar.html" target="_top" xlink:title="Container for configuration of the routing crossbar.">
<polygon fill="white" stroke="black" points="91,-69.5 91,-89.5 184.23,-89.5 184.23,-69.5 91,-69.5"/>
<text text-anchor="middle" x="137.62" y="-76.5" font-family="Helvetica,sans-Serif" font-size="10.00">lola::vx::Crossbar</text>
</a>
</g>
</g>
<!-- Node3&#45;&gt;Node1 -->
<g id="edge2" class="edge">
<title>Node3&#45;&gt;Node1</title>
<path fill="none" stroke="#9a32cd" stroke-dasharray="5,2" d="M154.13,-62.46C167.53,-49.46 185.94,-31.58 197.01,-20.82"/>
<polygon fill="#9a32cd" stroke="#9a32cd" points="151.66,-59.99 146.92,-69.46 156.53,-65.01 151.66,-59.99"/>
<text text-anchor="middle" x="196.17" y="-42" font-family="Helvetica,sans-Serif" font-size="10.00"> crossbar</text>
</g>
<!-- Node4 -->
<g id="node4" class="node">
<title>Node4</title>
<g id="a_node4"><a xlink:href="classlola_1_1vx_1_1_external_p_p_u_memory.html" target="_top" xlink:title="Complete external PPU memory.">
<polygon fill="white" stroke="black" points="202.61,-69.5 202.61,-89.5 348.62,-89.5 348.62,-69.5 202.61,-69.5"/>
<text text-anchor="middle" x="275.62" y="-76.5" font-family="Helvetica,sans-Serif" font-size="10.00">lola::vx::ExternalPPUMemory</text>
</a>
</g>
</g>
<!-- Node4&#45;&gt;Node1 -->
<g id="edge4" class="edge">
<title>Node4&#45;&gt;Node1</title>
<path fill="none" stroke="#9a32cd" stroke-dasharray="5,2" d="M259.1,-62.46C245.71,-49.46 227.3,-31.58 216.22,-20.82"/>
<polygon fill="#9a32cd" stroke="#9a32cd" points="256.7,-65.01 266.31,-69.46 261.57,-59.99 256.7,-65.01"/>
<text text-anchor="middle" x="295.74" y="-42" font-family="Helvetica,sans-Serif" font-size="10.00"> external_ppu_memory</text>
</g>
<!-- Node5 -->
<g id="node5" class="node">
<title>Node5</title>
<g id="a_node5"><a xlink:href="classlola_1_1vx_1_1_memory_timing.html" target="_top" xlink:title="Timing configuration of memories.">
<polygon fill="white" stroke="black" points="366.23,-69.5 366.23,-89.5 485,-89.5 485,-69.5 366.23,-69.5"/>
<text text-anchor="middle" x="425.62" y="-76.5" font-family="Helvetica,sans-Serif" font-size="10.00">lola::vx::MemoryTiming</text>
</a>
</g>
</g>
<!-- Node5&#45;&gt;Node1 -->
<g id="edge5" class="edge">
<title>Node5&#45;&gt;Node1</title>
<path fill="none" stroke="#9a32cd" stroke-dasharray="5,2" d="M402.8,-64.21C388.34,-55.73 368.96,-45.42 350.62,-39 318.31,-27.69 280.2,-20.67 251.3,-16.56"/>
<polygon fill="#9a32cd" stroke="#9a32cd" points="401.16,-67.3 411.53,-69.45 404.76,-61.3 401.16,-67.3"/>
<text text-anchor="middle" x="413.17" y="-42" font-family="Helvetica,sans-Serif" font-size="10.00"> memory_timing</text>
</g>
</g>
</svg>
