<?xml version="1.0" encoding="UTF-8" standalone="no"?>
<!DOCTYPE svg PUBLIC "-//W3C//DTD SVG 1.1//EN"
 "http://www.w3.org/Graphics/SVG/1.1/DTD/svg11.dtd">
<!-- Generated by graphviz version 2.46.0 (0)
 -->
<!-- Title: lola::vx::SynapseCorrelationCalibRow Pages: 1 -->
<svg width="148pt" height="110pt"
 viewBox="0.00 0.00 148.47 110.00" xmlns="http://www.w3.org/2000/svg" xmlns:xlink="http://www.w3.org/1999/xlink">
<g id="graph0" class="graph" transform="scale(1 1) rotate(0) translate(4 106)">
<title>lola::vx::SynapseCorrelationCalibRow</title>
<polygon fill="white" stroke="transparent" points="-4,4 -4,-106 144.47,-106 144.47,4 -4,4"/>
<!-- Node1 -->
<g id="node1" class="node">
<title>Node1</title>
<g id="a_node1"><a xlink:title=" ">
<polygon fill="#bfbfbf" stroke="black" points="0,-0.5 0,-32.5 140.47,-32.5 140.47,-0.5 0,-0.5"/>
<text text-anchor="start" x="8" y="-19.5" font-family="Helvetica,sans-Serif" font-size="10.00">lola::vx::SynapseCorrelation</text>
<text text-anchor="middle" x="70.23" y="-7.5" font-family="Helvetica,sans-Serif" font-size="10.00">CalibRow</text>
</a>
</g>
</g>
<!-- Node2 -->
<g id="node2" class="node">
<title>Node2</title>
<g id="a_node2"><a xlink:title=" ">
<polygon fill="white" stroke="#bfbfbf" points="14.73,-69.5 14.73,-101.5 125.74,-101.5 125.74,-69.5 14.73,-69.5"/>
<text text-anchor="start" x="22.73" y="-88.5" font-family="Helvetica,sans-Serif" font-size="10.00">haldls::vx::Differential</text>
<text text-anchor="middle" x="70.23" y="-76.5" font-family="Helvetica,sans-Serif" font-size="10.00">WriteTrait</text>
</a>
</g>
</g>
<!-- Node2&#45;&gt;Node1 -->
<g id="edge1" class="edge">
<title>Node2&#45;&gt;Node1</title>
<path fill="none" stroke="midnightblue" d="M70.23,-59.02C70.23,-50.13 70.23,-40.43 70.23,-32.64"/>
<polygon fill="midnightblue" stroke="midnightblue" points="66.73,-59.3 70.23,-69.3 73.73,-59.3 66.73,-59.3"/>
</g>
</g>
</svg>
