<?xml version="1.0" encoding="UTF-8" standalone="no"?>
<!DOCTYPE svg PUBLIC "-//W3C//DTD SVG 1.1//EN"
 "http://www.w3.org/Graphics/SVG/1.1/DTD/svg11.dtd">
<!-- Generated by graphviz version 2.46.0 (0)
 -->
<!-- Title: lola::vx::v3::AtomicNeuron Pages: 1 -->
<svg width="418pt" height="683pt"
 viewBox="0.00 0.00 417.73 683.00" xmlns="http://www.w3.org/2000/svg" xmlns:xlink="http://www.w3.org/1999/xlink">
<g id="graph0" class="graph" transform="scale(1 1) rotate(0) translate(4 679)">
<title>lola::vx::v3::AtomicNeuron</title>
<polygon fill="white" stroke="transparent" points="-4,4 -4,-679 413.73,-679 413.73,4 -4,4"/>
<!-- Node1 -->
<g id="node1" class="node">
<title>Node1</title>
<g id="a_node1"><a xlink:title="Configuration of digital and analog parameters for a single&#45;denmem neuron.">
<polygon fill="#bfbfbf" stroke="black" points="277.6,-342.5 277.6,-362.5 409.73,-362.5 409.73,-342.5 277.6,-342.5"/>
<text text-anchor="middle" x="343.66" y="-349.5" font-family="Helvetica,sans-Serif" font-size="10.00">lola::vx::v3::AtomicNeuron</text>
</a>
</g>
</g>
<!-- Node2 -->
<g id="node2" class="node">
<title>Node2</title>
<g id="a_node2"><a xlink:href="structlola_1_1vx_1_1v3_1_1_atomic_neuron_1_1_constant_current.html" target="_top" xlink:title=" ">
<polygon fill="white" stroke="black" points="0,-642.5 0,-674.5 132.13,-674.5 132.13,-642.5 0,-642.5"/>
<text text-anchor="start" x="8" y="-661.5" font-family="Helvetica,sans-Serif" font-size="10.00">lola::vx::v3::AtomicNeuron</text>
<text text-anchor="middle" x="66.06" y="-649.5" font-family="Helvetica,sans-Serif" font-size="10.00">::ConstantCurrent</text>
</a>
</g>
</g>
<!-- Node2&#45;&gt;Node1 -->
<g id="edge1" class="edge">
<title>Node2&#45;&gt;Node1</title>
<path fill="none" stroke="#9a32cd" stroke-dasharray="5,2" d="M142.48,-663.87C181.73,-662.62 227.98,-654.27 259.6,-626.5 341.96,-554.18 344.07,-403.17 343.07,-362.67"/>
<polygon fill="#9a32cd" stroke="#9a32cd" points="142.34,-660.37 132.41,-664.04 142.46,-667.37 142.34,-660.37"/>
<text text-anchor="middle" x="204.86" y="-665.5" font-family="Helvetica,sans-Serif" font-size="10.00"> constant_current</text>
</g>
<!-- Node3 -->
<g id="node3" class="node">
<title>Node3</title>
<g id="a_node3"><a xlink:href="structlola_1_1vx_1_1v3_1_1_atomic_neuron_1_1_refractory_period.html" target="_top" xlink:title=" ">
<polygon fill="white" stroke="black" points="0,-591.5 0,-623.5 132.13,-623.5 132.13,-591.5 0,-591.5"/>
<text text-anchor="start" x="8" y="-610.5" font-family="Helvetica,sans-Serif" font-size="10.00">lola::vx::v3::AtomicNeuron</text>
<text text-anchor="middle" x="66.06" y="-598.5" font-family="Helvetica,sans-Serif" font-size="10.00">::RefractoryPeriod</text>
</a>
</g>
</g>
<!-- Node3&#45;&gt;Node1 -->
<g id="edge2" class="edge">
<title>Node3&#45;&gt;Node1</title>
<path fill="none" stroke="#9a32cd" stroke-dasharray="5,2" d="M142.5,-611.59C181.41,-609.82 227.34,-601.19 259.6,-574.5 328.08,-517.83 340.14,-398.75 342.23,-362.92"/>
<polygon fill="#9a32cd" stroke="#9a32cd" points="142.14,-608.1 132.26,-611.91 142.36,-615.09 142.14,-608.1"/>
<text text-anchor="middle" x="204.86" y="-613.5" font-family="Helvetica,sans-Serif" font-size="10.00"> refractory_period</text>
</g>
<!-- Node4 -->
<g id="node4" class="node">
<title>Node4</title>
<g id="a_node4"><a xlink:href="structlola_1_1vx_1_1v3_1_1_atomic_neuron_1_1_readout.html" target="_top" xlink:title=" ">
<polygon fill="white" stroke="black" points="0,-540.5 0,-572.5 132.13,-572.5 132.13,-540.5 0,-540.5"/>
<text text-anchor="start" x="8" y="-559.5" font-family="Helvetica,sans-Serif" font-size="10.00">lola::vx::v3::AtomicNeuron</text>
<text text-anchor="middle" x="66.06" y="-547.5" font-family="Helvetica,sans-Serif" font-size="10.00">::Readout</text>
</a>
</g>
</g>
<!-- Node4&#45;&gt;Node1 -->
<g id="edge3" class="edge">
<title>Node4&#45;&gt;Node1</title>
<path fill="none" stroke="#9a32cd" stroke-dasharray="5,2" d="M142.39,-559.29C180.83,-557.08 226.37,-548.46 259.6,-523.5 315.28,-481.68 335.6,-392.63 341.03,-362.62"/>
<polygon fill="#9a32cd" stroke="#9a32cd" points="142.1,-555.8 132.26,-559.74 142.41,-562.8 142.1,-555.8"/>
<text text-anchor="middle" x="204.86" y="-561.5" font-family="Helvetica,sans-Serif" font-size="10.00"> readout</text>
</g>
<!-- Node5 -->
<g id="node5" class="node">
<title>Node5</title>
<g id="a_node5"><a xlink:href="structlola_1_1vx_1_1v3_1_1_atomic_neuron_1_1_leak.html" target="_top" xlink:title=" ">
<polygon fill="white" stroke="black" points="0,-489.5 0,-521.5 132.13,-521.5 132.13,-489.5 0,-489.5"/>
<text text-anchor="start" x="8" y="-508.5" font-family="Helvetica,sans-Serif" font-size="10.00">lola::vx::v3::AtomicNeuron</text>
<text text-anchor="middle" x="66.06" y="-496.5" font-family="Helvetica,sans-Serif" font-size="10.00">::Leak</text>
</a>
</g>
</g>
<!-- Node5&#45;&gt;Node1 -->
<g id="edge4" class="edge">
<title>Node5&#45;&gt;Node1</title>
<path fill="none" stroke="#9a32cd" stroke-dasharray="5,2" d="M142.73,-508.58C180.42,-506.77 225.16,-499.3 259.6,-477.5 304.29,-449.21 330.34,-387.19 339.2,-362.72"/>
<polygon fill="#9a32cd" stroke="#9a32cd" points="142.18,-505.09 132.3,-508.94 142.42,-512.09 142.18,-505.09"/>
<text text-anchor="middle" x="204.86" y="-510.5" font-family="Helvetica,sans-Serif" font-size="10.00"> leak</text>
</g>
<!-- Node6 -->
<g id="node6" class="node">
<title>Node6</title>
<g id="a_node6"><a xlink:href="structlola_1_1vx_1_1v3_1_1_atomic_neuron_1_1_synaptic_input.html" target="_top" xlink:title=" ">
<polygon fill="white" stroke="black" points="0,-438.5 0,-470.5 132.13,-470.5 132.13,-438.5 0,-438.5"/>
<text text-anchor="start" x="8" y="-457.5" font-family="Helvetica,sans-Serif" font-size="10.00">lola::vx::v3::AtomicNeuron</text>
<text text-anchor="middle" x="66.06" y="-445.5" font-family="Helvetica,sans-Serif" font-size="10.00">::SynapticInput</text>
</a>
</g>
</g>
<!-- Node6&#45;&gt;Node1 -->
<g id="edge5" class="edge">
<title>Node6&#45;&gt;Node1</title>
<path fill="none" stroke="#9a32cd" stroke-dasharray="5,2" d="M142.4,-439.91C178.66,-431.55 222.27,-419.5 259.6,-403.5 285.58,-392.37 313.01,-374.06 328.94,-362.67"/>
<polygon fill="#9a32cd" stroke="#9a32cd" points="141.36,-436.56 132.37,-442.17 142.9,-443.39 141.36,-436.56"/>
<text text-anchor="middle" x="204.86" y="-464.5" font-family="Helvetica,sans-Serif" font-size="10.00"> excitatory_input</text>
<text text-anchor="middle" x="204.86" y="-452.5" font-family="Helvetica,sans-Serif" font-size="10.00">inhibitory_input</text>
<text text-anchor="middle" x="204.86" y="-440.5" font-family="Helvetica,sans-Serif" font-size="10.00">set_from</text>
</g>
<!-- Node7 -->
<g id="node7" class="node">
<title>Node7</title>
<g id="a_node7"><a xlink:href="structlola_1_1vx_1_1v3_1_1_atomic_neuron_1_1_bayesian.html" target="_top" xlink:title=" ">
<polygon fill="white" stroke="black" points="0,-387.5 0,-419.5 132.13,-419.5 132.13,-387.5 0,-387.5"/>
<text text-anchor="start" x="8" y="-406.5" font-family="Helvetica,sans-Serif" font-size="10.00">lola::vx::v3::AtomicNeuron</text>
<text text-anchor="middle" x="66.06" y="-394.5" font-family="Helvetica,sans-Serif" font-size="10.00">::Bayesian</text>
</a>
</g>
</g>
<!-- Node7&#45;&gt;Node1 -->
<g id="edge6" class="edge">
<title>Node7&#45;&gt;Node1</title>
<path fill="none" stroke="#9a32cd" stroke-dasharray="5,2" d="M142,-390.07C177.64,-383.63 220.83,-375.76 259.6,-368.5 269.7,-366.61 280.49,-364.56 290.84,-362.57"/>
<polygon fill="#9a32cd" stroke="#9a32cd" points="141.37,-386.62 132.15,-391.84 142.62,-393.51 141.37,-386.62"/>
<text text-anchor="middle" x="204.86" y="-390.5" font-family="Helvetica,sans-Serif" font-size="10.00"> bayesian</text>
</g>
<!-- Node8 -->
<g id="node8" class="node">
<title>Node8</title>
<g id="a_node8"><a xlink:href="structlola_1_1vx_1_1v3_1_1_atomic_neuron_1_1_reset.html" target="_top" xlink:title=" ">
<polygon fill="white" stroke="black" points="0,-336.5 0,-368.5 132.13,-368.5 132.13,-336.5 0,-336.5"/>
<text text-anchor="start" x="8" y="-355.5" font-family="Helvetica,sans-Serif" font-size="10.00">lola::vx::v3::AtomicNeuron</text>
<text text-anchor="middle" x="66.06" y="-343.5" font-family="Helvetica,sans-Serif" font-size="10.00">::Reset</text>
</a>
</g>
</g>
<!-- Node8&#45;&gt;Node1 -->
<g id="edge7" class="edge">
<title>Node8&#45;&gt;Node1</title>
<path fill="none" stroke="#9a32cd" stroke-dasharray="5,2" d="M142.61,-352.5C184.82,-352.5 236.9,-352.5 277.34,-352.5"/>
<polygon fill="#9a32cd" stroke="#9a32cd" points="142.38,-349 132.38,-352.5 142.38,-356 142.38,-349"/>
<text text-anchor="middle" x="204.86" y="-355.5" font-family="Helvetica,sans-Serif" font-size="10.00"> reset</text>
</g>
<!-- Node9 -->
<g id="node9" class="node">
<title>Node9</title>
<g id="a_node9"><a xlink:href="structlola_1_1vx_1_1v3_1_1_atomic_neuron_1_1_event_routing.html" target="_top" xlink:title=" ">
<polygon fill="white" stroke="black" points="0,-255.5 0,-287.5 132.13,-287.5 132.13,-255.5 0,-255.5"/>
<text text-anchor="start" x="8" y="-274.5" font-family="Helvetica,sans-Serif" font-size="10.00">lola::vx::v3::AtomicNeuron</text>
<text text-anchor="middle" x="66.06" y="-262.5" font-family="Helvetica,sans-Serif" font-size="10.00">::EventRouting</text>
</a>
</g>
</g>
<!-- Node9&#45;&gt;Node1 -->
<g id="edge8" class="edge">
<title>Node9&#45;&gt;Node1</title>
<path fill="none" stroke="#9a32cd" stroke-dasharray="5,2" d="M131.22,-290.35C186.49,-306.6 264.16,-329.43 308.35,-342.41"/>
<polygon fill="#9a32cd" stroke="#9a32cd" points="132.09,-286.96 121.51,-287.5 130.12,-293.68 132.09,-286.96"/>
<text text-anchor="middle" x="204.86" y="-328.5" font-family="Helvetica,sans-Serif" font-size="10.00"> event_routing</text>
</g>
<!-- Node9&#45;&gt;Node9 -->
<g id="edge9" class="edge">
<title>Node9&#45;&gt;Node9</title>
<path fill="none" stroke="#9a32cd" stroke-dasharray="5,2" d="M41.78,-298.08C44.99,-302.75 53.09,-306 66.06,-306 87.36,-306 95.51,-297.24 90.52,-287.83"/>
<polygon fill="#9a32cd" stroke="#9a32cd" points="45.27,-297.77 41.61,-287.83 38.27,-297.88 45.27,-297.77"/>
<text text-anchor="middle" x="66.06" y="-309" font-family="Helvetica,sans-Serif" font-size="10.00"> SYMBOL_VISIBLE</text>
</g>
<!-- Node10 -->
<g id="node10" class="node">
<title>Node10</title>
<g id="a_node10"><a xlink:href="structlola_1_1vx_1_1v3_1_1_atomic_neuron_1_1_exponential.html" target="_top" xlink:title=" ">
<polygon fill="white" stroke="black" points="0,-204.5 0,-236.5 132.13,-236.5 132.13,-204.5 0,-204.5"/>
<text text-anchor="start" x="8" y="-223.5" font-family="Helvetica,sans-Serif" font-size="10.00">lola::vx::v3::AtomicNeuron</text>
<text text-anchor="middle" x="66.06" y="-211.5" font-family="Helvetica,sans-Serif" font-size="10.00">::Exponential</text>
</a>
</g>
</g>
<!-- Node10&#45;&gt;Node1 -->
<g id="edge10" class="edge">
<title>Node10&#45;&gt;Node1</title>
<path fill="none" stroke="#9a32cd" stroke-dasharray="5,2" d="M142.24,-236.83C179.05,-246.66 223.16,-261.26 259.6,-281.5 289.78,-298.27 319.03,-327.08 333.42,-342.33"/>
<polygon fill="#9a32cd" stroke="#9a32cd" points="143.12,-233.45 132.56,-234.31 141.36,-240.22 143.12,-233.45"/>
<text text-anchor="middle" x="204.86" y="-284.5" font-family="Helvetica,sans-Serif" font-size="10.00"> exponential</text>
</g>
<!-- Node11 -->
<g id="node11" class="node">
<title>Node11</title>
<g id="a_node11"><a xlink:href="structlola_1_1vx_1_1v3_1_1_atomic_neuron_1_1_adaptation.html" target="_top" xlink:title=" ">
<polygon fill="white" stroke="black" points="0,-153.5 0,-185.5 132.13,-185.5 132.13,-153.5 0,-153.5"/>
<text text-anchor="start" x="8" y="-172.5" font-family="Helvetica,sans-Serif" font-size="10.00">lola::vx::v3::AtomicNeuron</text>
<text text-anchor="middle" x="66.06" y="-160.5" font-family="Helvetica,sans-Serif" font-size="10.00">::Adaptation</text>
</a>
</g>
</g>
<!-- Node11&#45;&gt;Node1 -->
<g id="edge11" class="edge">
<title>Node11&#45;&gt;Node1</title>
<path fill="none" stroke="#9a32cd" stroke-dasharray="5,2" d="M142.44,-177.78C180.48,-184.98 225.63,-198.42 259.6,-223.5 303.1,-255.62 329.84,-317.92 339.05,-342.33"/>
<polygon fill="#9a32cd" stroke="#9a32cd" points="142.88,-174.31 132.42,-176 141.65,-181.2 142.88,-174.31"/>
<text text-anchor="middle" x="204.86" y="-226.5" font-family="Helvetica,sans-Serif" font-size="10.00"> adaptation</text>
</g>
<!-- Node12 -->
<g id="node12" class="node">
<title>Node12</title>
<g id="a_node12"><a xlink:href="structlola_1_1vx_1_1v3_1_1_atomic_neuron_1_1_threshold.html" target="_top" xlink:title=" ">
<polygon fill="white" stroke="black" points="0,-102.5 0,-134.5 132.13,-134.5 132.13,-102.5 0,-102.5"/>
<text text-anchor="start" x="8" y="-121.5" font-family="Helvetica,sans-Serif" font-size="10.00">lola::vx::v3::AtomicNeuron</text>
<text text-anchor="middle" x="66.06" y="-109.5" font-family="Helvetica,sans-Serif" font-size="10.00">::Threshold</text>
</a>
</g>
</g>
<!-- Node12&#45;&gt;Node1 -->
<g id="edge12" class="edge">
<title>Node12&#45;&gt;Node1</title>
<path fill="none" stroke="#9a32cd" stroke-dasharray="5,2" d="M142.66,-120.01C181.4,-124.39 227.12,-135.6 259.6,-162.5 318.66,-211.41 336.94,-310.46 341.42,-342.36"/>
<polygon fill="#9a32cd" stroke="#9a32cd" points="142.76,-116.5 132.46,-118.99 142.06,-123.46 142.76,-116.5"/>
<text text-anchor="middle" x="204.86" y="-165.5" font-family="Helvetica,sans-Serif" font-size="10.00"> threshold</text>
</g>
<!-- Node13 -->
<g id="node13" class="node">
<title>Node13</title>
<g id="a_node13"><a xlink:href="structlola_1_1vx_1_1v3_1_1_atomic_neuron_1_1_multicompartment.html" target="_top" xlink:title="Multicompartment configuration of connectivity to adjacent neurons.">
<polygon fill="white" stroke="black" points="0,-51.5 0,-83.5 132.13,-83.5 132.13,-51.5 0,-51.5"/>
<text text-anchor="start" x="8" y="-70.5" font-family="Helvetica,sans-Serif" font-size="10.00">lola::vx::v3::AtomicNeuron</text>
<text text-anchor="middle" x="66.06" y="-58.5" font-family="Helvetica,sans-Serif" font-size="10.00">::Multicompartment</text>
</a>
</g>
</g>
<!-- Node13&#45;&gt;Node1 -->
<g id="edge13" class="edge">
<title>Node13&#45;&gt;Node1</title>
<path fill="none" stroke="#9a32cd" stroke-dasharray="5,2" d="M142.33,-64.69C181.53,-67.13 227.78,-76.67 259.6,-104.5 334.27,-169.82 341.99,-304.3 342.65,-342.3"/>
<polygon fill="#9a32cd" stroke="#9a32cd" points="142.42,-61.19 132.26,-64.21 142.08,-68.18 142.42,-61.19"/>
<text text-anchor="middle" x="204.86" y="-107.5" font-family="Helvetica,sans-Serif" font-size="10.00"> multicompartment</text>
</g>
<!-- Node14 -->
<g id="node14" class="node">
<title>Node14</title>
<g id="a_node14"><a xlink:href="structlola_1_1vx_1_1v3_1_1_atomic_neuron_1_1_membrane_capacitance.html" target="_top" xlink:title=" ">
<polygon fill="white" stroke="black" points="0,-0.5 0,-32.5 132.13,-32.5 132.13,-0.5 0,-0.5"/>
<text text-anchor="start" x="8" y="-19.5" font-family="Helvetica,sans-Serif" font-size="10.00">lola::vx::v3::AtomicNeuron</text>
<text text-anchor="middle" x="66.06" y="-7.5" font-family="Helvetica,sans-Serif" font-size="10.00">::MembraneCapacitance</text>
</a>
</g>
</g>
<!-- Node14&#45;&gt;Node1 -->
<g id="edge14" class="edge">
<title>Node14&#45;&gt;Node1</title>
<path fill="none" stroke="#9a32cd" stroke-dasharray="5,2" d="M142.38,-11.22C181.82,-12.54 228.28,-21.11 259.6,-49.5 305.16,-90.81 334.91,-294.44 341.35,-342.38"/>
<polygon fill="#9a32cd" stroke="#9a32cd" points="142.32,-7.72 132.25,-11.04 142.19,-14.72 142.32,-7.72"/>
<text text-anchor="middle" x="204.86" y="-52.5" font-family="Helvetica,sans-Serif" font-size="10.00"> membrane_capacitance</text>
</g>
</g>
</svg>
