<?xml version="1.0" encoding="UTF-8" standalone="no"?>
<!DOCTYPE svg PUBLIC "-//W3C//DTD SVG 1.1//EN"
 "http://www.w3.org/Graphics/SVG/1.1/DTD/svg11.dtd">
<!-- Generated by graphviz version 2.46.0 (0)
 -->
<!-- Title: GENPYBIND_TAG_LOLA_VX_VY::ReadoutChain Pages: 1 -->
<!--zoomable 482 -->
<svg id="main" version="1.1" xmlns="http://www.w3.org/2000/svg" xmlns:xlink="http://www.w3.org/1999/xlink" xml:space="preserve" onload="init(evt)">
<style type="text/css"><![CDATA[
.edge:hover path { stroke: red; }
.edge:hover polygon { stroke: red; fill: red; }
]]></style>
<script type="text/javascript"><![CDATA[
var edges = document.getElementsByTagName('g');
if (edges && edges.length) {
  for (var i=0;i<edges.length;i++) {
    if (edges[i].id.substr(0,4)=='edge') {
      edges[i].setAttribute('class','edge');
    }
  }
}
]]></script>
        <defs>
                <circle id="rim" cx="0" cy="0" r="7"/>
                <circle id="rim2" cx="0" cy="0" r="3.5"/>
                <g id="zoomPlus">
                        <use xlink:href="#rim" fill="#404040">
                                <set attributeName="fill" to="#808080" begin="zoomplus.mouseover" end="zoomplus.mouseout"/>
                        </use>
                        <path d="M-4,0h8M0,-4v8" fill="none" stroke="white" stroke-width="1.5" pointer-events="none"/>
                </g>
                <g id="zoomMin">
                        <use xlink:href="#rim" fill="#404040">
                                <set attributeName="fill" to="#808080" begin="zoomminus.mouseover" end="zoomminus.mouseout"/>
                        </use>
                        <path d="M-4,0h8" fill="none" stroke="white" stroke-width="1.5" pointer-events="none"/>
                </g>
                <g id="dirArrow">
                        <path fill="none" stroke="white" stroke-width="1.5" d="M0,-3.0v7 M-2.5,-0.5L0,-3.0L2.5,-0.5"/>
                </g>
               <g id="resetDef">
                       <use xlink:href="#rim2" fill="#404040">
                               <set attributeName="fill" to="#808080" begin="reset.mouseover" end="reset.mouseout"/>
                       </use>
               </g>
        </defs>

<script type="text/javascript">
var viewWidth = 439;
var viewHeight = 482;
var sectionId = 'dynsection-0';
</script>
<script xlink:href="svgpan.js"/>
<svg id="graph" class="graph">
<g id="viewport">
<title>GENPYBIND_TAG_LOLA_VX_VY::ReadoutChain</title>
<polygon fill="white" stroke="transparent" points="-4,4 -4,-478 434.86,-478 434.86,4 -4,4"/>
<!-- Node1 -->
<g id="node1" class="node">
<title>Node1</title>
<g id="a_node1"><a xlink:title="Configuration of all circuits composing the analog readout chain.">
<polygon fill="#bfbfbf" stroke="black" points="298.73,-226.5 298.73,-258.5 430.86,-258.5 430.86,-226.5 298.73,-226.5"/>
<text text-anchor="start" x="306.73" y="-245.5" font-family="Helvetica,sans-Serif" font-size="10.00">GENPYBIND_TAG_LOLA</text>
<text text-anchor="middle" x="364.79" y="-233.5" font-family="Helvetica,sans-Serif" font-size="10.00">_VX_VY::ReadoutChain</text>
</a>
</g>
</g>
<!-- Node2 -->
<g id="node2" class="node">
<title>Node2</title>
<g id="a_node2"><a xlink:href="struct_g_e_n_p_y_b_i_n_d___t_a_g___l_o_l_a___v_x___v_y_1_1_readout_chain_1_1_m_a_d_c.html" target="_top" xlink:title="Configuration of the MADC.">
<polygon fill="white" stroke="black" points="0,-441.5 0,-473.5 158.25,-473.5 158.25,-441.5 0,-441.5"/>
<text text-anchor="start" x="8" y="-460.5" font-family="Helvetica,sans-Serif" font-size="10.00">GENPYBIND_TAG_LOLA</text>
<text text-anchor="middle" x="79.13" y="-448.5" font-family="Helvetica,sans-Serif" font-size="10.00">_VX_VY::ReadoutChain::MADC</text>
</a>
</g>
</g>
<!-- Node2&#45;&gt;Node1 -->
<g id="edge1" class="edge">
<title>Node2&#45;&gt;Node1</title>
<path fill="none" stroke="#9a32cd" stroke-dasharray="5,2" d="M168.71,-441.89C206.47,-431.71 249.03,-415.16 280.73,-388.5 323.58,-352.46 348.88,-288.36 358.85,-258.56"/>
<polygon fill="#9a32cd" stroke="#9a32cd" points="167.53,-438.58 158.72,-444.47 169.28,-445.36 167.53,-438.58"/>
<text text-anchor="middle" x="228.49" y="-441.5" font-family="Helvetica,sans-Serif" font-size="10.00"> madc</text>
</g>
<!-- Node3 -->
<g id="node3" class="node">
<title>Node3</title>
<g id="a_node3"><a xlink:href="struct_g_e_n_p_y_b_i_n_d___t_a_g___l_o_l_a___v_x___v_y_1_1_readout_chain_1_1_m_a_d_c_debug_crossbar.html" target="_top" xlink:title="Configuration of the crossbar connecting the MADC to debug pads.">
<polygon fill="white" stroke="black" points="13.06,-378.5 13.06,-422.5 145.19,-422.5 145.19,-378.5 13.06,-378.5"/>
<text text-anchor="start" x="21.06" y="-409.5" font-family="Helvetica,sans-Serif" font-size="10.00">GENPYBIND_TAG_LOLA</text>
<text text-anchor="start" x="21.06" y="-397.5" font-family="Helvetica,sans-Serif" font-size="10.00">_VX_VY::ReadoutChain</text>
<text text-anchor="middle" x="79.13" y="-385.5" font-family="Helvetica,sans-Serif" font-size="10.00">::MADCDebugCrossbar</text>
</a>
</g>
</g>
<!-- Node3&#45;&gt;Node1 -->
<g id="edge2" class="edge">
<title>Node3&#45;&gt;Node1</title>
<path fill="none" stroke="#9a32cd" stroke-dasharray="5,2" d="M155.15,-381.37C194.48,-369.29 242.32,-351.24 280.73,-326.5 309.87,-307.73 336.73,-277.14 351.63,-258.51"/>
<polygon fill="#9a32cd" stroke="#9a32cd" points="153.92,-378.09 145.35,-384.32 155.93,-384.79 153.92,-378.09"/>
<text text-anchor="middle" x="228.49" y="-375.5" font-family="Helvetica,sans-Serif" font-size="10.00"> madc_debug_crossbar</text>
</g>
<!-- Node4 -->
<g id="node4" class="node">
<title>Node4</title>
<g id="a_node4"><a xlink:href="struct_g_e_n_p_y_b_i_n_d___t_a_g___l_o_l_a___v_x___v_y_1_1_readout_chain_1_1_current_d_a_c.html" target="_top" xlink:title="Configuration of the current DAC of the readout chain.">
<polygon fill="white" stroke="black" points="13.06,-315.5 13.06,-359.5 145.19,-359.5 145.19,-315.5 13.06,-315.5"/>
<text text-anchor="start" x="21.06" y="-346.5" font-family="Helvetica,sans-Serif" font-size="10.00">GENPYBIND_TAG_LOLA</text>
<text text-anchor="start" x="21.06" y="-334.5" font-family="Helvetica,sans-Serif" font-size="10.00">_VX_VY::ReadoutChain</text>
<text text-anchor="middle" x="79.13" y="-322.5" font-family="Helvetica,sans-Serif" font-size="10.00">::CurrentDAC</text>
</a>
</g>
</g>
<!-- Node4&#45;&gt;Node1 -->
<g id="edge3" class="edge">
<title>Node4&#45;&gt;Node1</title>
<path fill="none" stroke="#9a32cd" stroke-dasharray="5,2" d="M155.33,-317.74C193.29,-307.18 239.84,-293.31 280.73,-278.5 296.98,-272.61 314.61,-265.14 329.42,-258.53"/>
<polygon fill="#9a32cd" stroke="#9a32cd" points="154.08,-314.46 145.38,-320.5 155.95,-321.21 154.08,-314.46"/>
<text text-anchor="middle" x="228.49" y="-313.5" font-family="Helvetica,sans-Serif" font-size="10.00"> current_dac</text>
</g>
<!-- Node5 -->
<g id="node5" class="node">
<title>Node5</title>
<g id="a_node5"><a xlink:href="struct_g_e_n_p_y_b_i_n_d___t_a_g___l_o_l_a___v_x___v_y_1_1_readout_chain_1_1_source_measure_unit.html" target="_top" xlink:title="Configuration of the source measure unit.">
<polygon fill="white" stroke="black" points="13.06,-252.5 13.06,-296.5 145.19,-296.5 145.19,-252.5 13.06,-252.5"/>
<text text-anchor="start" x="21.06" y="-283.5" font-family="Helvetica,sans-Serif" font-size="10.00">GENPYBIND_TAG_LOLA</text>
<text text-anchor="start" x="21.06" y="-271.5" font-family="Helvetica,sans-Serif" font-size="10.00">_VX_VY::ReadoutChain</text>
<text text-anchor="middle" x="79.13" y="-259.5" font-family="Helvetica,sans-Serif" font-size="10.00">::SourceMeasureUnit</text>
</a>
</g>
</g>
<!-- Node5&#45;&gt;Node1 -->
<g id="edge4" class="edge">
<title>Node5&#45;&gt;Node1</title>
<path fill="none" stroke="#9a32cd" stroke-dasharray="5,2" d="M155.4,-266.01C199.96,-260.98 255.85,-254.68 298.53,-249.86"/>
<polygon fill="#9a32cd" stroke="#9a32cd" points="154.75,-262.56 145.21,-267.16 155.54,-269.52 154.75,-262.56"/>
<text text-anchor="middle" x="228.49" y="-265.5" font-family="Helvetica,sans-Serif" font-size="10.00"> source_measure_unit</text>
</g>
<!-- Node6 -->
<g id="node6" class="node">
<title>Node6</title>
<g id="a_node6"><a xlink:href="struct_g_e_n_p_y_b_i_n_d___t_a_g___l_o_l_a___v_x___v_y_1_1_readout_chain_1_1_m_a_d_c_input_crossbar.html" target="_top" xlink:title="Configuration of the crossbar connecting the MADC to the different measure/readout circuits.">
<polygon fill="white" stroke="black" points="13.06,-189.5 13.06,-233.5 145.19,-233.5 145.19,-189.5 13.06,-189.5"/>
<text text-anchor="start" x="21.06" y="-220.5" font-family="Helvetica,sans-Serif" font-size="10.00">GENPYBIND_TAG_LOLA</text>
<text text-anchor="start" x="21.06" y="-208.5" font-family="Helvetica,sans-Serif" font-size="10.00">_VX_VY::ReadoutChain</text>
<text text-anchor="middle" x="79.13" y="-196.5" font-family="Helvetica,sans-Serif" font-size="10.00">::MADCInputCrossbar</text>
</a>
</g>
</g>
<!-- Node6&#45;&gt;Node1 -->
<g id="edge5" class="edge">
<title>Node6&#45;&gt;Node1</title>
<path fill="none" stroke="#9a32cd" stroke-dasharray="5,2" d="M155.4,-219.73C199.96,-224.6 255.85,-230.7 298.53,-235.37"/>
<polygon fill="#9a32cd" stroke="#9a32cd" points="155.53,-216.22 145.21,-218.61 154.77,-223.18 155.53,-216.22"/>
<text text-anchor="middle" x="228.49" y="-235.5" font-family="Helvetica,sans-Serif" font-size="10.00"> madc_input_crossbar</text>
</g>
<!-- Node7 -->
<g id="node7" class="node">
<title>Node7</title>
<g id="a_node7"><a xlink:href="struct_g_e_n_p_y_b_i_n_d___t_a_g___l_o_l_a___v_x___v_y_1_1_readout_chain_1_1_pseudo_differential_converter.html" target="_top" xlink:title="Configuration of the pseudo differential converter.">
<polygon fill="white" stroke="black" points="5.56,-126.5 5.56,-170.5 152.69,-170.5 152.69,-126.5 5.56,-126.5"/>
<text text-anchor="start" x="13.56" y="-157.5" font-family="Helvetica,sans-Serif" font-size="10.00">GENPYBIND_TAG_LOLA</text>
<text text-anchor="start" x="13.56" y="-145.5" font-family="Helvetica,sans-Serif" font-size="10.00">_VX_VY::ReadoutChain</text>
<text text-anchor="middle" x="79.13" y="-133.5" font-family="Helvetica,sans-Serif" font-size="10.00">::PseudoDifferentialConverter</text>
</a>
</g>
</g>
<!-- Node7&#45;&gt;Node1 -->
<g id="edge6" class="edge">
<title>Node7&#45;&gt;Node1</title>
<path fill="none" stroke="#9a32cd" stroke-dasharray="5,2" d="M162.98,-169.2C199.47,-179.04 242.62,-191.68 280.73,-205.5 297.5,-211.58 315.65,-219.5 330.69,-226.46"/>
<polygon fill="#9a32cd" stroke="#9a32cd" points="163.44,-165.7 152.87,-166.5 161.63,-172.46 163.44,-165.7"/>
<text text-anchor="middle" x="228.49" y="-208.5" font-family="Helvetica,sans-Serif" font-size="10.00"> pseudo_diff_converter</text>
</g>
<!-- Node8 -->
<g id="node8" class="node">
<title>Node8</title>
<g id="a_node8"><a xlink:href="struct_g_e_n_p_y_b_i_n_d___t_a_g___l_o_l_a___v_x___v_y_1_1_readout_chain_1_1_m_a_d_c_preamp.html" target="_top" xlink:title="Configuration of the MADC preamplifier.">
<polygon fill="white" stroke="black" points="13.06,-63.5 13.06,-107.5 145.19,-107.5 145.19,-63.5 13.06,-63.5"/>
<text text-anchor="start" x="21.06" y="-94.5" font-family="Helvetica,sans-Serif" font-size="10.00">GENPYBIND_TAG_LOLA</text>
<text text-anchor="start" x="21.06" y="-82.5" font-family="Helvetica,sans-Serif" font-size="10.00">_VX_VY::ReadoutChain</text>
<text text-anchor="middle" x="79.13" y="-70.5" font-family="Helvetica,sans-Serif" font-size="10.00">::MADCPreamp</text>
</a>
</g>
</g>
<!-- Node8&#45;&gt;Node1 -->
<g id="edge7" class="edge">
<title>Node8&#45;&gt;Node1</title>
<path fill="none" stroke="#9a32cd" stroke-dasharray="5,2" d="M155.29,-103.16C194.65,-114.55 242.49,-131.91 280.73,-156.5 310.41,-175.59 337.3,-207.25 352.02,-226.37"/>
<polygon fill="#9a32cd" stroke="#9a32cd" points="156.05,-99.74 145.47,-100.39 154.14,-106.47 156.05,-99.74"/>
<text text-anchor="middle" x="228.49" y="-159.5" font-family="Helvetica,sans-Serif" font-size="10.00"> madc_preamp</text>
</g>
<!-- Node9 -->
<g id="node9" class="node">
<title>Node9</title>
<g id="a_node9"><a xlink:href="struct_g_e_n_p_y_b_i_n_d___t_a_g___l_o_l_a___v_x___v_y_1_1_readout_chain_1_1_dynamic_mux.html" target="_top" xlink:title="Configuration of the Dynamic multiplexer.">
<polygon fill="white" stroke="black" points="13.06,-0.5 13.06,-44.5 145.19,-44.5 145.19,-0.5 13.06,-0.5"/>
<text text-anchor="start" x="21.06" y="-31.5" font-family="Helvetica,sans-Serif" font-size="10.00">GENPYBIND_TAG_LOLA</text>
<text text-anchor="start" x="21.06" y="-19.5" font-family="Helvetica,sans-Serif" font-size="10.00">_VX_VY::ReadoutChain</text>
<text text-anchor="middle" x="79.13" y="-7.5" font-family="Helvetica,sans-Serif" font-size="10.00">::DynamicMux</text>
</a>
</g>
</g>
<!-- Node9&#45;&gt;Node1 -->
<g id="edge8" class="edge">
<title>Node9&#45;&gt;Node1</title>
<path fill="none" stroke="#9a32cd" stroke-dasharray="5,2" d="M155.14,-36.03C195.9,-46.45 245.1,-64.37 280.73,-94.5 323.92,-131.03 349.05,-196.02 358.91,-226.22"/>
<polygon fill="#9a32cd" stroke="#9a32cd" points="155.79,-32.58 145.24,-33.6 154.12,-39.38 155.79,-32.58"/>
<text text-anchor="middle" x="228.49" y="-97.5" font-family="Helvetica,sans-Serif" font-size="10.00"> dynamic_mux</text>
</g>
</g>
</svg>
        <g id="navigator" transform="translate(0 0)" fill="#404254">
                <rect fill="#f2f5e9" fill-opacity="0.5" stroke="#606060" stroke-width=".5" x="0" y="0" width="60" height="60"/>
                <use id="zoomplus" xlink:href="#zoomPlus" x="17" y="9" onmousedown="handleZoom(evt,'in')"/>
                <use id="zoomminus" xlink:href="#zoomMin" x="42" y="9" onmousedown="handleZoom(evt,'out')"/>
                <use id="reset" xlink:href="#resetDef" x="30" y="36" onmousedown="handleReset()"/>
                <g id="arrowUp" xlink:href="#dirArrow" transform="translate(30 24)" onmousedown="handlePan(0,-1)">
                  <use xlink:href="#rim" fill="#404040">
                        <set attributeName="fill" to="#808080" begin="arrowUp.mouseover" end="arrowUp.mouseout"/>
                  </use>
                  <path fill="none" stroke="white" stroke-width="1.5" d="M0,-3.0v7 M-2.5,-0.5L0,-3.0L2.5,-0.5"/>
                </g>
                <g id="arrowRight" xlink:href="#dirArrow" transform="rotate(90) translate(36 -43)" onmousedown="handlePan(1,0)">
                  <use xlink:href="#rim" fill="#404040">
                        <set attributeName="fill" to="#808080" begin="arrowRight.mouseover" end="arrowRight.mouseout"/>
                  </use>
                  <path fill="none" stroke="white" stroke-width="1.5" d="M0,-3.0v7 M-2.5,-0.5L0,-3.0L2.5,-0.5"/>
                </g>
                <g id="arrowDown" xlink:href="#dirArrow" transform="rotate(180) translate(-30 -48)" onmousedown="handlePan(0,1)">
                  <use xlink:href="#rim" fill="#404040">
                        <set attributeName="fill" to="#808080" begin="arrowDown.mouseover" end="arrowDown.mouseout"/>
                  </use>
                  <path fill="none" stroke="white" stroke-width="1.5" d="M0,-3.0v7 M-2.5,-0.5L0,-3.0L2.5,-0.5"/>
                </g>
                <g id="arrowLeft" xlink:href="#dirArrow" transform="rotate(270) translate(-36 17)" onmousedown="handlePan(-1,0)">
                  <use xlink:href="#rim" fill="#404040">
                        <set attributeName="fill" to="#808080" begin="arrowLeft.mouseover" end="arrowLeft.mouseout"/>
                  </use>
                  <path fill="none" stroke="white" stroke-width="1.5" d="M0,-3.0v7 M-2.5,-0.5L0,-3.0L2.5,-0.5"/>
                </g>
        </g>
        <svg viewBox="0 0 15 15" width="100%" height="30px" preserveAspectRatio="xMaxYMin meet">
         <g id="arrow_out" transform="scale(0.3 0.3)">
          <a xlink:href="class_g_e_n_p_y_b_i_n_d___t_a_g___l_o_l_a___v_x___v_y_1_1_readout_chain__coll__graph_org.svg" target="_base">
           <rect id="button" ry="5" rx="5" y="6" x="6" height="38" width="38"
                fill="#f2f5e9" fill-opacity="0.5" stroke="#606060" stroke-width="1.0"/>
           <path id="arrow"
             d="M 11.500037,31.436501 C 11.940474,20.09759 22.043105,11.32322 32.158766,21.979434 L 37.068811,17.246167 C 37.068811,17.246167 37.088388,32 37.088388,32 L 22.160133,31.978069 C 22.160133,31.978069 26.997745,27.140456 26.997745,27.140456 C 18.528582,18.264221 13.291696,25.230495 11.500037,31.436501 z"
             style="fill:#404040;"/>
          </a>
         </g>
        </svg>
</svg>
