<?xml version="1.0" encoding="UTF-8" standalone="no"?>
<!DOCTYPE svg PUBLIC "-//W3C//DTD SVG 1.1//EN"
 "http://www.w3.org/Graphics/SVG/1.1/DTD/svg11.dtd">
<!-- Generated by graphviz version 2.46.0 (0)
 -->
<!-- Title: /jenkins/jenlib_workspaces_f9/bld_nightly&#45;haldls.YmxkX25pZ2h0bHktaGFsZGxzIzEzNzk.x/haldls/include/lola/vx/dac.h Pages: 1 -->
<!--zoomable 191 -->
<svg id="main" version="1.1" xmlns="http://www.w3.org/2000/svg" xmlns:xlink="http://www.w3.org/1999/xlink" xml:space="preserve" onload="init(evt)">
<style type="text/css"><![CDATA[
.edge:hover path { stroke: red; }
.edge:hover polygon { stroke: red; fill: red; }
]]></style>
<script type="text/javascript"><![CDATA[
var edges = document.getElementsByTagName('g');
if (edges && edges.length) {
  for (var i=0;i<edges.length;i++) {
    if (edges[i].id.substr(0,4)=='edge') {
      edges[i].setAttribute('class','edge');
    }
  }
}
]]></script>
        <defs>
                <circle id="rim" cx="0" cy="0" r="7"/>
                <circle id="rim2" cx="0" cy="0" r="3.5"/>
                <g id="zoomPlus">
                        <use xlink:href="#rim" fill="#404040">
                                <set attributeName="fill" to="#808080" begin="zoomplus.mouseover" end="zoomplus.mouseout"/>
                        </use>
                        <path d="M-4,0h8M0,-4v8" fill="none" stroke="white" stroke-width="1.5" pointer-events="none"/>
                </g>
                <g id="zoomMin">
                        <use xlink:href="#rim" fill="#404040">
                                <set attributeName="fill" to="#808080" begin="zoomminus.mouseover" end="zoomminus.mouseout"/>
                        </use>
                        <path d="M-4,0h8" fill="none" stroke="white" stroke-width="1.5" pointer-events="none"/>
                </g>
                <g id="dirArrow">
                        <path fill="none" stroke="white" stroke-width="1.5" d="M0,-3.0v7 M-2.5,-0.5L0,-3.0L2.5,-0.5"/>
                </g>
               <g id="resetDef">
                       <use xlink:href="#rim2" fill="#404040">
                               <set attributeName="fill" to="#808080" begin="reset.mouseover" end="reset.mouseout"/>
                       </use>
               </g>
        </defs>

<script type="text/javascript">
var viewWidth = 1354;
var viewHeight = 191;
var sectionId = 'dynsection-0';
</script>
<script xlink:href="svgpan.js"/>
<svg id="graph" class="graph">
<g id="viewport">
<title>/jenkins/jenlib_workspaces_f9/bld_nightly&#45;haldls.YmxkX25pZ2h0bHktaGFsZGxzIzEzNzk.x/haldls/include/lola/vx/dac.h</title>
<polygon fill="white" stroke="transparent" points="-4,4 -4,-187 1350.15,-187 1350.15,4 -4,4"/>
<!-- Node1 -->
<g id="node1" class="node">
<title>Node1</title>
<g id="a_node1"><a xlink:title=" ">
<polygon fill="#bfbfbf" stroke="black" points="584.28,-126.5 584.28,-182.5 765.29,-182.5 765.29,-126.5 584.28,-126.5"/>
<text text-anchor="start" x="592.28" y="-169.5" font-family="Helvetica,sans-Serif" font-size="10.00">/jenkins/jenlib_workspaces</text>
<text text-anchor="start" x="592.28" y="-157.5" font-family="Helvetica,sans-Serif" font-size="10.00">_f9/bld_nightly&#45;haldls.YmxkX25p</text>
<text text-anchor="start" x="592.28" y="-145.5" font-family="Helvetica,sans-Serif" font-size="10.00">Z2h0bHktaGFsZGxzIzEzNzk.x/haldls</text>
<text text-anchor="middle" x="674.78" y="-133.5" font-family="Helvetica,sans-Serif" font-size="10.00">/include/lola/vx/dac.h</text>
</a>
</g>
</g>
<!-- Node2 -->
<g id="node2" class="node">
<title>Node2</title>
<g id="a_node2"><a xlink:title=" ">
<polygon fill="white" stroke="#bfbfbf" points="0,-63.5 0,-83.5 121.57,-83.5 121.57,-63.5 0,-63.5"/>
<text text-anchor="middle" x="60.78" y="-70.5" font-family="Helvetica,sans-Serif" font-size="10.00">halco/common/iter_all.h</text>
</a>
</g>
</g>
<!-- Node1&#45;&gt;Node2 -->
<g id="edge1" class="edge">
<title>Node1&#45;&gt;Node2</title>
<path fill="none" stroke="midnightblue" d="M583.91,-145.74C475.56,-135.84 289.24,-116.72 130.78,-90 123.53,-88.78 115.89,-87.29 108.43,-85.73"/>
<polygon fill="midnightblue" stroke="midnightblue" points="108.94,-82.26 98.43,-83.57 107.47,-89.1 108.94,-82.26"/>
</g>
<!-- Node3 -->
<g id="node3" class="node">
<title>Node3</title>
<g id="a_node3"><a xlink:title=" ">
<polygon fill="white" stroke="#bfbfbf" points="139.66,-57.5 139.66,-89.5 247.91,-89.5 247.91,-57.5 139.66,-57.5"/>
<text text-anchor="start" x="147.66" y="-76.5" font-family="Helvetica,sans-Serif" font-size="10.00">halco/common/typed</text>
<text text-anchor="middle" x="193.78" y="-64.5" font-family="Helvetica,sans-Serif" font-size="10.00">_array.h</text>
</a>
</g>
</g>
<!-- Node1&#45;&gt;Node3 -->
<g id="edge2" class="edge">
<title>Node1&#45;&gt;Node3</title>
<path fill="none" stroke="midnightblue" d="M584.27,-142.16C501.65,-131.25 376.02,-113.28 257.95,-90.14"/>
<polygon fill="midnightblue" stroke="midnightblue" points="258.5,-86.68 248.01,-88.17 257.14,-93.54 258.5,-86.68"/>
</g>
<!-- Node4 -->
<g id="node4" class="node">
<title>Node4</title>
<g id="a_node4"><a xlink:title=" ">
<polygon fill="white" stroke="#bfbfbf" points="266.28,-57.5 266.28,-89.5 367.29,-89.5 367.29,-57.5 266.28,-57.5"/>
<text text-anchor="start" x="274.28" y="-76.5" font-family="Helvetica,sans-Serif" font-size="10.00">halco/hicann&#45;dls/vx</text>
<text text-anchor="middle" x="316.78" y="-64.5" font-family="Helvetica,sans-Serif" font-size="10.00">/dac.h</text>
</a>
</g>
</g>
<!-- Node1&#45;&gt;Node4 -->
<g id="edge3" class="edge">
<title>Node1&#45;&gt;Node4</title>
<path fill="none" stroke="midnightblue" d="M584.25,-135.44C527.38,-123.82 452.27,-107.98 377.64,-90.39"/>
<polygon fill="midnightblue" stroke="midnightblue" points="378.13,-86.91 367.59,-88.01 376.52,-93.72 378.13,-86.91"/>
</g>
<!-- Node5 -->
<g id="node5" class="node">
<title>Node5</title>
<g id="a_node5"><a xlink:title=" ">
<polygon fill="white" stroke="#bfbfbf" points="385.11,-63.5 385.11,-83.5 494.46,-83.5 494.46,-63.5 385.11,-63.5"/>
<text text-anchor="middle" x="439.78" y="-70.5" font-family="Helvetica,sans-Serif" font-size="10.00">haldls/cerealization.h</text>
</a>
</g>
</g>
<!-- Node1&#45;&gt;Node5 -->
<g id="edge4" class="edge">
<title>Node1&#45;&gt;Node5</title>
<path fill="none" stroke="midnightblue" d="M594.24,-126.42C554.2,-112.96 507.78,-97.36 476.36,-86.8"/>
<polygon fill="midnightblue" stroke="midnightblue" points="477.31,-83.42 466.72,-83.55 475.08,-90.06 477.31,-83.42"/>
</g>
<!-- Node6 -->
<g id="node6" class="node">
<title>Node6</title>
<g id="a_node6"><a xlink:title=" ">
<polygon fill="white" stroke="#bfbfbf" points="512.61,-63.5 512.61,-83.5 616.96,-83.5 616.96,-63.5 512.61,-63.5"/>
<text text-anchor="middle" x="564.78" y="-70.5" font-family="Helvetica,sans-Serif" font-size="10.00">haldls/vx/common.h</text>
</a>
</g>
</g>
<!-- Node1&#45;&gt;Node6 -->
<g id="edge5" class="edge">
<title>Node1&#45;&gt;Node6</title>
<path fill="none" stroke="midnightblue" d="M636.93,-126.31C619.74,-113.97 600.07,-99.84 585.61,-89.46"/>
<polygon fill="midnightblue" stroke="midnightblue" points="587.52,-86.52 577.35,-83.53 583.44,-92.2 587.52,-86.52"/>
</g>
<!-- Node7 -->
<g id="node7" class="node">
<title>Node7</title>
<g id="a_node7"><a xlink:title=" ">
<polygon fill="white" stroke="#bfbfbf" points="635.39,-63.5 635.39,-83.5 714.18,-83.5 714.18,-63.5 635.39,-63.5"/>
<text text-anchor="middle" x="674.78" y="-70.5" font-family="Helvetica,sans-Serif" font-size="10.00">haldls/vx/spi.h</text>
</a>
</g>
</g>
<!-- Node1&#45;&gt;Node7 -->
<g id="edge6" class="edge">
<title>Node1&#45;&gt;Node7</title>
<path fill="none" stroke="midnightblue" d="M674.78,-126.31C674.78,-115.66 674.78,-103.68 674.78,-93.93"/>
<polygon fill="midnightblue" stroke="midnightblue" points="678.28,-93.71 674.78,-83.71 671.28,-93.71 678.28,-93.71"/>
</g>
<!-- Node8 -->
<g id="node8" class="node">
<title>Node8</title>
<g id="a_node8"><a xlink:title=" ">
<polygon fill="white" stroke="#bfbfbf" points="731.95,-63.5 731.95,-83.5 819.62,-83.5 819.62,-63.5 731.95,-63.5"/>
<text text-anchor="middle" x="775.78" y="-70.5" font-family="Helvetica,sans-Serif" font-size="10.00">haldls/vx/traits.h</text>
</a>
</g>
</g>
<!-- Node1&#45;&gt;Node8 -->
<g id="edge7" class="edge">
<title>Node1&#45;&gt;Node8</title>
<path fill="none" stroke="midnightblue" d="M709.54,-126.31C725.08,-114.16 742.83,-100.27 756.05,-89.94"/>
<polygon fill="midnightblue" stroke="midnightblue" points="758.28,-92.63 764,-83.71 753.97,-87.12 758.28,-92.63"/>
</g>
<!-- Node9 -->
<g id="node9" class="node">
<title>Node9</title>
<g id="a_node9"><a xlink:title=" ">
<polygon fill="white" stroke="#bfbfbf" points="837.28,-63.5 837.28,-83.5 918.29,-83.5 918.29,-63.5 837.28,-63.5"/>
<text text-anchor="middle" x="877.78" y="-70.5" font-family="Helvetica,sans-Serif" font-size="10.00">hate/visibility.h</text>
</a>
</g>
</g>
<!-- Node1&#45;&gt;Node9 -->
<g id="edge8" class="edge">
<title>Node1&#45;&gt;Node9</title>
<path fill="none" stroke="midnightblue" d="M744.36,-126.42C778.5,-113.14 818.01,-97.76 845.12,-87.21"/>
<polygon fill="midnightblue" stroke="midnightblue" points="846.47,-90.44 854.52,-83.55 843.93,-83.92 846.47,-90.44"/>
</g>
<!-- Node10 -->
<g id="node10" class="node">
<title>Node10</title>
<g id="a_node10"><a xlink:href="cerealization_8h.html" target="_top" xlink:title=" ">
<polygon fill="white" stroke="black" points="936,-63.5 936,-83.5 1047.57,-83.5 1047.57,-63.5 936,-63.5"/>
<text text-anchor="middle" x="991.78" y="-70.5" font-family="Helvetica,sans-Serif" font-size="10.00">lola/vx/cerealization.h</text>
</a>
</g>
</g>
<!-- Node1&#45;&gt;Node10 -->
<g id="edge9" class="edge">
<title>Node1&#45;&gt;Node10</title>
<path fill="none" stroke="midnightblue" d="M765.62,-130.86C824.43,-116.21 898.53,-97.74 945.55,-86.02"/>
<polygon fill="midnightblue" stroke="midnightblue" points="946.59,-89.37 955.44,-83.56 944.89,-82.58 946.59,-89.37"/>
</g>
<!-- Node14 -->
<g id="node14" class="node">
<title>Node14</title>
<g id="a_node14"><a xlink:href="genpybind_8h.html" target="_top" xlink:title=" ">
<polygon fill="white" stroke="black" points="1065.99,-63.5 1065.99,-83.5 1167.58,-83.5 1167.58,-63.5 1065.99,-63.5"/>
<text text-anchor="middle" x="1116.78" y="-70.5" font-family="Helvetica,sans-Serif" font-size="10.00">lola/vx/genpybind.h</text>
</a>
</g>
</g>
<!-- Node1&#45;&gt;Node14 -->
<g id="edge13" class="edge">
<title>Node1&#45;&gt;Node14</title>
<path fill="none" stroke="midnightblue" d="M765.51,-140.72C843.18,-129.23 957.8,-110.97 1056.78,-90 1062.31,-88.83 1068.09,-87.49 1073.79,-86.09"/>
<polygon fill="midnightblue" stroke="midnightblue" points="1075.05,-89.39 1083.9,-83.55 1073.35,-82.6 1075.05,-89.39"/>
</g>
<!-- Node15 -->
<g id="node15" class="node">
<title>Node15</title>
<g id="a_node15"><a xlink:title=" ">
<polygon fill="white" stroke="#bfbfbf" points="1203.42,-63.5 1203.42,-83.5 1346.15,-83.5 1346.15,-63.5 1203.42,-63.5"/>
<text text-anchor="middle" x="1274.78" y="-70.5" font-family="Helvetica,sans-Serif" font-size="10.00">boost/hana/adapt_struct.hpp</text>
</a>
</g>
</g>
<!-- Node1&#45;&gt;Node15 -->
<g id="edge15" class="edge">
<title>Node1&#45;&gt;Node15</title>
<path fill="none" stroke="midnightblue" d="M765.7,-144.34C869.71,-133.42 1044.98,-113.63 1194.78,-90 1203.41,-88.64 1212.54,-87.03 1221.41,-85.38"/>
<polygon fill="midnightblue" stroke="midnightblue" points="1222.12,-88.81 1231.29,-83.5 1220.81,-81.93 1222.12,-88.81"/>
</g>
<!-- Node11 -->
<g id="node11" class="node">
<title>Node11</title>
<g id="a_node11"><a xlink:title=" ">
<polygon fill="white" stroke="#bfbfbf" points="868.72,-0.5 868.72,-20.5 930.85,-20.5 930.85,-0.5 868.72,-0.5"/>
<text text-anchor="middle" x="899.78" y="-7.5" font-family="Helvetica,sans-Serif" font-size="10.00">type_traits</text>
</a>
</g>
</g>
<!-- Node10&#45;&gt;Node11 -->
<g id="edge10" class="edge">
<title>Node10&#45;&gt;Node11</title>
<path fill="none" stroke="midnightblue" d="M978.21,-63.5C963.4,-53.68 939.46,-37.81 921.92,-26.18"/>
<polygon fill="midnightblue" stroke="midnightblue" points="923.68,-23.15 913.42,-20.54 919.82,-28.98 923.68,-23.15"/>
</g>
<!-- Node12 -->
<g id="node12" class="node">
<title>Node12</title>
<g id="a_node12"><a xlink:title=" ">
<polygon fill="white" stroke="#bfbfbf" points="949.32,-0.5 949.32,-20.5 1034.25,-20.5 1034.25,-0.5 949.32,-0.5"/>
<text text-anchor="middle" x="991.78" y="-7.5" font-family="Helvetica,sans-Serif" font-size="10.00">boost/hana.hpp</text>
</a>
</g>
</g>
<!-- Node10&#45;&gt;Node12 -->
<g id="edge11" class="edge">
<title>Node10&#45;&gt;Node12</title>
<path fill="none" stroke="midnightblue" d="M991.78,-63.5C991.78,-54.94 991.78,-41.78 991.78,-30.85"/>
<polygon fill="midnightblue" stroke="midnightblue" points="995.28,-30.54 991.78,-20.54 988.28,-30.54 995.28,-30.54"/>
</g>
<!-- Node13 -->
<g id="node13" class="node">
<title>Node13</title>
<g id="a_node13"><a xlink:title=" ">
<polygon fill="white" stroke="#bfbfbf" points="1052.67,-0.5 1052.67,-20.5 1150.9,-20.5 1150.9,-0.5 1052.67,-0.5"/>
<text text-anchor="middle" x="1101.78" y="-7.5" font-family="Helvetica,sans-Serif" font-size="10.00">cereal/macros.hpp</text>
</a>
</g>
</g>
<!-- Node10&#45;&gt;Node13 -->
<g id="edge12" class="edge">
<title>Node10&#45;&gt;Node13</title>
<path fill="none" stroke="midnightblue" d="M1008.02,-63.5C1026.05,-53.5 1055.4,-37.22 1076.46,-25.54"/>
<polygon fill="midnightblue" stroke="midnightblue" points="1078.44,-28.45 1085.49,-20.54 1075.04,-22.33 1078.44,-28.45"/>
</g>
<!-- Node14&#45;&gt;Node14 -->
<g id="edge14" class="edge">
<title>Node14&#45;&gt;Node14</title>
<path fill="none" stroke="midnightblue" d="M1143.26,-83.56C1164.15,-87.45 1185.58,-84.1 1185.58,-73.5 1185.58,-64.64 1170.6,-60.85 1153.49,-62.11"/>
<polygon fill="midnightblue" stroke="midnightblue" points="1152.72,-58.68 1143.26,-63.44 1153.63,-65.62 1152.72,-58.68"/>
</g>
</g>
</svg>
        <g id="navigator" transform="translate(0 0)" fill="#404254">
                <rect fill="#f2f5e9" fill-opacity="0.5" stroke="#606060" stroke-width=".5" x="0" y="0" width="60" height="60"/>
                <use id="zoomplus" xlink:href="#zoomPlus" x="17" y="9" onmousedown="handleZoom(evt,'in')"/>
                <use id="zoomminus" xlink:href="#zoomMin" x="42" y="9" onmousedown="handleZoom(evt,'out')"/>
                <use id="reset" xlink:href="#resetDef" x="30" y="36" onmousedown="handleReset()"/>
                <g id="arrowUp" xlink:href="#dirArrow" transform="translate(30 24)" onmousedown="handlePan(0,-1)">
                  <use xlink:href="#rim" fill="#404040">
                        <set attributeName="fill" to="#808080" begin="arrowUp.mouseover" end="arrowUp.mouseout"/>
                  </use>
                  <path fill="none" stroke="white" stroke-width="1.5" d="M0,-3.0v7 M-2.5,-0.5L0,-3.0L2.5,-0.5"/>
                </g>
                <g id="arrowRight" xlink:href="#dirArrow" transform="rotate(90) translate(36 -43)" onmousedown="handlePan(1,0)">
                  <use xlink:href="#rim" fill="#404040">
                        <set attributeName="fill" to="#808080" begin="arrowRight.mouseover" end="arrowRight.mouseout"/>
                  </use>
                  <path fill="none" stroke="white" stroke-width="1.5" d="M0,-3.0v7 M-2.5,-0.5L0,-3.0L2.5,-0.5"/>
                </g>
                <g id="arrowDown" xlink:href="#dirArrow" transform="rotate(180) translate(-30 -48)" onmousedown="handlePan(0,1)">
                  <use xlink:href="#rim" fill="#404040">
                        <set attributeName="fill" to="#808080" begin="arrowDown.mouseover" end="arrowDown.mouseout"/>
                  </use>
                  <path fill="none" stroke="white" stroke-width="1.5" d="M0,-3.0v7 M-2.5,-0.5L0,-3.0L2.5,-0.5"/>
                </g>
                <g id="arrowLeft" xlink:href="#dirArrow" transform="rotate(270) translate(-36 17)" onmousedown="handlePan(-1,0)">
                  <use xlink:href="#rim" fill="#404040">
                        <set attributeName="fill" to="#808080" begin="arrowLeft.mouseover" end="arrowLeft.mouseout"/>
                  </use>
                  <path fill="none" stroke="white" stroke-width="1.5" d="M0,-3.0v7 M-2.5,-0.5L0,-3.0L2.5,-0.5"/>
                </g>
        </g>
        <svg viewBox="0 0 15 15" width="100%" height="30px" preserveAspectRatio="xMaxYMin meet">
         <g id="arrow_out" transform="scale(0.3 0.3)">
          <a xlink:href="dac_8h__incl_org.svg" target="_base">
           <rect id="button" ry="5" rx="5" y="6" x="6" height="38" width="38"
                fill="#f2f5e9" fill-opacity="0.5" stroke="#606060" stroke-width="1.0"/>
           <path id="arrow"
             d="M 11.500037,31.436501 C 11.940474,20.09759 22.043105,11.32322 32.158766,21.979434 L 37.068811,17.246167 C 37.068811,17.246167 37.088388,32 37.088388,32 L 22.160133,31.978069 C 22.160133,31.978069 26.997745,27.140456 26.997745,27.140456 C 18.528582,18.264221 13.291696,25.230495 11.500037,31.436501 z"
             style="fill:#404040;"/>
          </a>
         </g>
        </svg>
</svg>
