<?xml version="1.0" encoding="UTF-8" standalone="no"?>
<!DOCTYPE svg PUBLIC "-//W3C//DTD SVG 1.1//EN"
 "http://www.w3.org/Graphics/SVG/1.1/DTD/svg11.dtd">
<!-- Generated by graphviz version 2.46.0 (0)
 -->
<!-- Title: /jenkins/jenlib_workspaces_f9/bld_nightly&#45;haldls.YmxkX25pZ2h0bHktaGFsZGxzIzEzNzk.x/haldls/include/lola/vx Pages: 1 -->
<svg width="254pt" height="112pt"
 viewBox="0.00 0.00 254.00 112.00" xmlns="http://www.w3.org/2000/svg" xmlns:xlink="http://www.w3.org/1999/xlink">
<g id="graph0" class="graph" transform="scale(1 1) rotate(0) translate(4 108)">
<title>/jenkins/jenlib_workspaces_f9/bld_nightly&#45;haldls.YmxkX25pZ2h0bHktaGFsZGxzIzEzNzk.x/haldls/include/lola/vx</title>
<polygon fill="white" stroke="transparent" points="-4,4 -4,-108 250,-108 250,4 -4,4"/>
<g id="clust1" class="cluster">
<title>clusterdir_aa744475fb6dfe3e09e614a87725e054</title>
<g id="a_clust1"><a xlink:href="dir_aa744475fb6dfe3e09e614a87725e054.html" target="_top" xlink:title="lola">
<polygon fill="#ddddee" stroke="black" points="8,-8 8,-96 238,-96 238,-8 8,-8"/>
<text text-anchor="middle" x="123" y="-83" font-family="Helvetica,sans-Serif" font-size="10.00">lola</text>
</a>
</g>
</g>
<g id="clust2" class="cluster">
<title>clusterdir_214c291605b2b82e6c23c76289c596b4</title>
<g id="a_clust2"><a xlink:href="dir_214c291605b2b82e6c23c76289c596b4.html" target="_top">
<polygon fill="#eeeeff" stroke="black" points="16,-16 16,-68 230,-68 230,-16 16,-16"/>
</a>
</g>
</g>
<!-- dir_214c291605b2b82e6c23c76289c596b4 -->
<g id="node1" class="node">
<title>dir_214c291605b2b82e6c23c76289c596b4</title>
<text text-anchor="middle" x="195" y="-39" font-family="Helvetica,sans-Serif" font-size="10.00">vx</text>
</g>
<!-- dir_139dba3fb32f9c147aa086f8ec4f6572 -->
<g id="node2" class="node">
<title>dir_139dba3fb32f9c147aa086f8ec4f6572</title>
<g id="a_node2"><a xlink:href="dir_139dba3fb32f9c147aa086f8ec4f6572.html" target="_top" xlink:title="v2">
<polygon fill="white" stroke="black" points="150,-60 96,-60 96,-24 150,-24 150,-60"/>
<text text-anchor="middle" x="123" y="-39" font-family="Helvetica,sans-Serif" font-size="10.00">v2</text>
</a>
</g>
</g>
<!-- dir_c0853da24bdc4c9c7b05bed1836c885f -->
<g id="node3" class="node">
<title>dir_c0853da24bdc4c9c7b05bed1836c885f</title>
<g id="a_node3"><a xlink:href="dir_c0853da24bdc4c9c7b05bed1836c885f.html" target="_top" xlink:title="v3">
<polygon fill="white" stroke="black" points="78,-60 24,-60 24,-24 78,-24 78,-60"/>
<text text-anchor="middle" x="51" y="-39" font-family="Helvetica,sans-Serif" font-size="10.00">v3</text>
</a>
</g>
</g>
</g>
</svg>
