<?xml version="1.0" encoding="UTF-8" standalone="no"?>
<!DOCTYPE svg PUBLIC "-//W3C//DTD SVG 1.1//EN"
 "http://www.w3.org/Graphics/SVG/1.1/DTD/svg11.dtd">
<!-- Generated by graphviz version 2.46.0 (0)
 -->
<!-- Title: Graphical Class Hierarchy Pages: 1 -->
<svg width="338pt" height="1208pt"
 viewBox="0.00 0.00 338.27 1208.00" xmlns="http://www.w3.org/2000/svg" xmlns:xlink="http://www.w3.org/1999/xlink">
<g id="graph0" class="graph" transform="scale(1 1) rotate(0) translate(4 1204)">
<title>Graphical Class Hierarchy</title>
<polygon fill="white" stroke="transparent" points="-4,4 -4,-1204 334.27,-1204 334.27,4 -4,4"/>
<!-- Node6 -->
<g id="node1" class="node">
<title>Node6</title>
<g id="a_node1"><a xlink:title=" ">
<polygon fill="white" stroke="#bfbfbf" points="0,-571.5 0,-591.5 121.03,-591.5 121.03,-571.5 0,-571.5"/>
<text text-anchor="middle" x="60.52" y="-578.5" font-family="Helvetica,sans-Serif" font-size="10.00">BackendContainerBase</text>
</a>
</g>
</g>
<!-- Node0 -->
<g id="node2" class="node">
<title>Node0</title>
<g id="a_node2"><a xlink:href="structhaldls_1_1vx_1_1detail_1_1_backend_container_trait_3_01lola_1_1vx_1_1_c_h_i_p___r_e_v_i_s_4b61790222dc8013436cf33cdfb757be.html" target="_top" xlink:title=" ">
<polygon fill="white" stroke="black" points="169.67,-1143.5 169.67,-1199.5 317.63,-1199.5 317.63,-1143.5 169.67,-1143.5"/>
<text text-anchor="start" x="177.67" y="-1186.5" font-family="Helvetica,sans-Serif" font-size="10.00">haldls::vx::detail</text>
<text text-anchor="start" x="177.67" y="-1174.5" font-family="Helvetica,sans-Serif" font-size="10.00">::BackendContainerTrait</text>
<text text-anchor="start" x="177.67" y="-1162.5" font-family="Helvetica,sans-Serif" font-size="10.00">&lt; lola::vx::CHIP_REVISION</text>
<text text-anchor="middle" x="243.65" y="-1150.5" font-family="Helvetica,sans-Serif" font-size="10.00">_STR::CADCReadoutChain &gt;</text>
</a>
</g>
</g>
<!-- Node6&#45;&gt;Node0 -->
<g id="edge1" class="edge">
<title>Node6&#45;&gt;Node0</title>
<path fill="none" stroke="midnightblue" d="M62.51,-602.18C67.19,-692.19 89.77,-1049.06 157.03,-1134.5 160.64,-1139.08 164.92,-1143.1 169.63,-1146.64"/>
<polygon fill="midnightblue" stroke="midnightblue" points="65.99,-601.74 61.99,-591.93 59,-602.09 65.99,-601.74"/>
</g>
<!-- Node8 -->
<g id="node3" class="node">
<title>Node8</title>
<g id="a_node3"><a xlink:href="structhaldls_1_1vx_1_1detail_1_1_backend_container_trait_3_01lola_1_1vx_1_1_c_h_i_p___r_e_v_i_s_fbe3ca0e15404223146747c6c2f45ce9.html" target="_top" xlink:title=" ">
<polygon fill="white" stroke="black" points="174.39,-1068.5 174.39,-1124.5 312.91,-1124.5 312.91,-1068.5 174.39,-1068.5"/>
<text text-anchor="start" x="182.39" y="-1111.5" font-family="Helvetica,sans-Serif" font-size="10.00">haldls::vx::detail</text>
<text text-anchor="start" x="182.39" y="-1099.5" font-family="Helvetica,sans-Serif" font-size="10.00">::BackendContainerTrait</text>
<text text-anchor="start" x="182.39" y="-1087.5" font-family="Helvetica,sans-Serif" font-size="10.00">&lt; lola::vx::CHIP_REVISION</text>
<text text-anchor="middle" x="243.65" y="-1075.5" font-family="Helvetica,sans-Serif" font-size="10.00">_STR::CADCSampleRow &gt;</text>
</a>
</g>
</g>
<!-- Node6&#45;&gt;Node8 -->
<g id="edge2" class="edge">
<title>Node6&#45;&gt;Node8</title>
<path fill="none" stroke="midnightblue" d="M63.08,-601.67C69.74,-683.11 98.2,-986.76 157.03,-1059.5 161.82,-1065.42 167.73,-1070.41 174.2,-1074.62"/>
<polygon fill="midnightblue" stroke="midnightblue" points="66.57,-601.39 62.28,-591.7 59.59,-601.95 66.57,-601.39"/>
</g>
<!-- Node9 -->
<g id="node4" class="node">
<title>Node9</title>
<g id="a_node4"><a xlink:href="structhaldls_1_1vx_1_1detail_1_1_backend_container_trait_3_01lola_1_1vx_1_1_c_h_i_p___r_e_v_i_s_e38b35c808de6c787b32fccda71a3d3e.html" target="_top" xlink:title=" ">
<polygon fill="white" stroke="black" points="174.39,-993.5 174.39,-1049.5 312.91,-1049.5 312.91,-993.5 174.39,-993.5"/>
<text text-anchor="start" x="182.39" y="-1036.5" font-family="Helvetica,sans-Serif" font-size="10.00">haldls::vx::detail</text>
<text text-anchor="start" x="182.39" y="-1024.5" font-family="Helvetica,sans-Serif" font-size="10.00">::BackendContainerTrait</text>
<text text-anchor="start" x="182.39" y="-1012.5" font-family="Helvetica,sans-Serif" font-size="10.00">&lt; lola::vx::CHIP_REVISION</text>
<text text-anchor="middle" x="243.65" y="-1000.5" font-family="Helvetica,sans-Serif" font-size="10.00">_STR::CADCSamples &gt;</text>
</a>
</g>
</g>
<!-- Node6&#45;&gt;Node9 -->
<g id="edge3" class="edge">
<title>Node6&#45;&gt;Node9</title>
<path fill="none" stroke="midnightblue" d="M63.9,-601.69C72.87,-674.79 106.71,-924.49 157.03,-984.5 161.82,-990.21 167.65,-995.06 173.99,-999.18"/>
<polygon fill="midnightblue" stroke="midnightblue" points="67.34,-601.04 62.67,-591.53 60.39,-601.88 67.34,-601.04"/>
</g>
<!-- Node10 -->
<g id="node5" class="node">
<title>Node10</title>
<g id="a_node5"><a xlink:href="structhaldls_1_1vx_1_1detail_1_1_backend_container_trait_3_01lola_1_1vx_1_1_c_h_i_p___r_e_v_i_s_77ba304533691d230b4fea27263cda6a.html" target="_top" xlink:title=" ">
<polygon fill="white" stroke="black" points="174.39,-918.5 174.39,-974.5 312.91,-974.5 312.91,-918.5 174.39,-918.5"/>
<text text-anchor="start" x="182.39" y="-961.5" font-family="Helvetica,sans-Serif" font-size="10.00">haldls::vx::detail</text>
<text text-anchor="start" x="182.39" y="-949.5" font-family="Helvetica,sans-Serif" font-size="10.00">::BackendContainerTrait</text>
<text text-anchor="start" x="182.39" y="-937.5" font-family="Helvetica,sans-Serif" font-size="10.00">&lt; lola::vx::CHIP_REVISION</text>
<text text-anchor="middle" x="243.65" y="-925.5" font-family="Helvetica,sans-Serif" font-size="10.00">_STR::SynapseBlock &gt;</text>
</a>
</g>
</g>
<!-- Node6&#45;&gt;Node10 -->
<g id="edge4" class="edge">
<title>Node6&#45;&gt;Node10</title>
<path fill="none" stroke="midnightblue" d="M61.71,-601.51C63.29,-657.33 75.15,-816.73 157.03,-909.5 161.96,-915.08 167.88,-919.86 174.28,-923.93"/>
<polygon fill="midnightblue" stroke="midnightblue" points="65.21,-601.43 61.51,-591.5 58.21,-601.57 65.21,-601.43"/>
</g>
<!-- Node11 -->
<g id="node6" class="node">
<title>Node11</title>
<g id="a_node6"><a xlink:href="structhaldls_1_1vx_1_1detail_1_1_backend_container_trait_3_01lola_1_1vx_1_1_c_h_i_p___r_e_v_i_s_dcaed0f6dea43ddb99fff1e44e74d242.html" target="_top" xlink:title=" ">
<polygon fill="white" stroke="black" points="170.78,-843.5 170.78,-899.5 316.52,-899.5 316.52,-843.5 170.78,-843.5"/>
<text text-anchor="start" x="178.78" y="-886.5" font-family="Helvetica,sans-Serif" font-size="10.00">haldls::vx::detail</text>
<text text-anchor="start" x="178.78" y="-874.5" font-family="Helvetica,sans-Serif" font-size="10.00">::BackendContainerTrait</text>
<text text-anchor="start" x="178.78" y="-862.5" font-family="Helvetica,sans-Serif" font-size="10.00">&lt; lola::vx::CHIP_REVISION</text>
<text text-anchor="middle" x="243.65" y="-850.5" font-family="Helvetica,sans-Serif" font-size="10.00">_STR::SynapseDriverBlock &gt;</text>
</a>
</g>
</g>
<!-- Node6&#45;&gt;Node11 -->
<g id="edge5" class="edge">
<title>Node6&#45;&gt;Node11</title>
<path fill="none" stroke="midnightblue" d="M63.79,-601.78C70.07,-648.74 91.76,-766.09 157.03,-834.5 161.06,-838.72 165.64,-842.48 170.55,-845.83"/>
<polygon fill="midnightblue" stroke="midnightblue" points="67.24,-601.17 62.54,-591.67 60.29,-602.03 67.24,-601.17"/>
</g>
<!-- Node12 -->
<g id="node7" class="node">
<title>Node12</title>
<g id="a_node7"><a xlink:href="structhaldls_1_1vx_1_1detail_1_1_backend_container_trait_3_01lola_1_1vx_1_1_column_correlation_row_01_4.html" target="_top" xlink:title=" ">
<polygon fill="white" stroke="black" points="157.03,-780.5 157.03,-824.5 330.27,-824.5 330.27,-780.5 157.03,-780.5"/>
<text text-anchor="start" x="165.03" y="-811.5" font-family="Helvetica,sans-Serif" font-size="10.00">haldls::vx::detail</text>
<text text-anchor="start" x="165.03" y="-799.5" font-family="Helvetica,sans-Serif" font-size="10.00">::BackendContainerTrait</text>
<text text-anchor="middle" x="243.65" y="-787.5" font-family="Helvetica,sans-Serif" font-size="10.00">&lt; lola::vx::ColumnCorrelationRow &gt;</text>
</a>
</g>
</g>
<!-- Node6&#45;&gt;Node12 -->
<g id="edge6" class="edge">
<title>Node6&#45;&gt;Node12</title>
<path fill="none" stroke="midnightblue" d="M66.35,-601.79C76.53,-640.26 103.77,-724.2 157.03,-771.5 160.7,-774.75 164.73,-777.67 168.99,-780.29"/>
<polygon fill="midnightblue" stroke="midnightblue" points="69.67,-600.64 63.82,-591.8 62.88,-602.36 69.67,-600.64"/>
</g>
<!-- Node13 -->
<g id="node8" class="node">
<title>Node13</title>
<g id="a_node8"><a xlink:href="structhaldls_1_1vx_1_1detail_1_1_backend_container_trait_3_01lola_1_1vx_1_1_column_current_row_01_4.html" target="_top" xlink:title=" ">
<polygon fill="white" stroke="black" points="164.81,-717.5 164.81,-761.5 322.49,-761.5 322.49,-717.5 164.81,-717.5"/>
<text text-anchor="start" x="172.81" y="-748.5" font-family="Helvetica,sans-Serif" font-size="10.00">haldls::vx::detail</text>
<text text-anchor="start" x="172.81" y="-736.5" font-family="Helvetica,sans-Serif" font-size="10.00">::BackendContainerTrait</text>
<text text-anchor="middle" x="243.65" y="-724.5" font-family="Helvetica,sans-Serif" font-size="10.00">&lt; lola::vx::ColumnCurrentRow &gt;</text>
</a>
</g>
</g>
<!-- Node6&#45;&gt;Node13 -->
<g id="edge7" class="edge">
<title>Node6&#45;&gt;Node13</title>
<path fill="none" stroke="midnightblue" d="M71.24,-600.67C86.13,-628.24 117.12,-678.99 157.03,-708.5 161.48,-711.79 166.31,-714.76 171.34,-717.43"/>
<polygon fill="midnightblue" stroke="midnightblue" points="74.24,-598.87 66.49,-591.65 68.05,-602.13 74.24,-598.87"/>
</g>
<!-- Node14 -->
<g id="node9" class="node">
<title>Node14</title>
<g id="a_node9"><a xlink:href="structhaldls_1_1vx_1_1detail_1_1_backend_container_trait_3_01lola_1_1vx_1_1_correlation_reset_row_01_4.html" target="_top" xlink:title=" ">
<polygon fill="white" stroke="black" points="161.2,-654.5 161.2,-698.5 326.11,-698.5 326.11,-654.5 161.2,-654.5"/>
<text text-anchor="start" x="169.2" y="-685.5" font-family="Helvetica,sans-Serif" font-size="10.00">haldls::vx::detail</text>
<text text-anchor="start" x="169.2" y="-673.5" font-family="Helvetica,sans-Serif" font-size="10.00">::BackendContainerTrait</text>
<text text-anchor="middle" x="243.65" y="-661.5" font-family="Helvetica,sans-Serif" font-size="10.00">&lt; lola::vx::CorrelationResetRow &gt;</text>
</a>
</g>
</g>
<!-- Node6&#45;&gt;Node14 -->
<g id="edge8" class="edge">
<title>Node6&#45;&gt;Node14</title>
<path fill="none" stroke="midnightblue" d="M82.62,-597.83C101.39,-611.81 129.98,-631.8 157.03,-645.5 163.24,-648.64 169.84,-651.62 176.52,-654.4"/>
<polygon fill="midnightblue" stroke="midnightblue" points="84.58,-594.93 74.49,-591.69 80.36,-600.51 84.58,-594.93"/>
</g>
<!-- Node15 -->
<g id="node10" class="node">
<title>Node15</title>
<g id="a_node10"><a xlink:href="structhaldls_1_1vx_1_1detail_1_1_backend_container_trait_3_01lola_1_1vx_1_1_d_a_c_channel_block_01_4.html" target="_top" xlink:title=" ">
<polygon fill="white" stroke="black" points="167.3,-591.5 167.3,-635.5 320,-635.5 320,-591.5 167.3,-591.5"/>
<text text-anchor="start" x="175.3" y="-622.5" font-family="Helvetica,sans-Serif" font-size="10.00">haldls::vx::detail</text>
<text text-anchor="start" x="175.3" y="-610.5" font-family="Helvetica,sans-Serif" font-size="10.00">::BackendContainerTrait</text>
<text text-anchor="middle" x="243.65" y="-598.5" font-family="Helvetica,sans-Serif" font-size="10.00">&lt; lola::vx::DACChannelBlock &gt;</text>
</a>
</g>
</g>
<!-- Node6&#45;&gt;Node15 -->
<g id="edge9" class="edge">
<title>Node6&#45;&gt;Node15</title>
<path fill="none" stroke="midnightblue" d="M128.3,-593.3C140.93,-595.53 154.22,-597.88 167.1,-600.15"/>
<polygon fill="midnightblue" stroke="midnightblue" points="128.79,-589.83 118.33,-591.54 127.57,-596.72 128.79,-589.83"/>
</g>
<!-- Node16 -->
<g id="node11" class="node">
<title>Node16</title>
<g id="a_node11"><a xlink:href="structhaldls_1_1vx_1_1detail_1_1_backend_container_trait_3_01lola_1_1vx_1_1_d_a_c_control_block_01_4.html" target="_top" xlink:title=" ">
<polygon fill="white" stroke="black" points="169.81,-528.5 169.81,-572.5 317.49,-572.5 317.49,-528.5 169.81,-528.5"/>
<text text-anchor="start" x="177.81" y="-559.5" font-family="Helvetica,sans-Serif" font-size="10.00">haldls::vx::detail</text>
<text text-anchor="start" x="177.81" y="-547.5" font-family="Helvetica,sans-Serif" font-size="10.00">::BackendContainerTrait</text>
<text text-anchor="middle" x="243.65" y="-535.5" font-family="Helvetica,sans-Serif" font-size="10.00">&lt; lola::vx::DACControlBlock &gt;</text>
</a>
</g>
</g>
<!-- Node6&#45;&gt;Node16 -->
<g id="edge10" class="edge">
<title>Node6&#45;&gt;Node16</title>
<path fill="none" stroke="midnightblue" d="M130.26,-569.73C143.16,-567.53 156.68,-565.21 169.7,-562.99"/>
<polygon fill="midnightblue" stroke="midnightblue" points="129.34,-566.34 120.08,-571.48 130.52,-573.24 129.34,-566.34"/>
</g>
<!-- Node17 -->
<g id="node12" class="node">
<title>Node17</title>
<g id="a_node12"><a xlink:href="structhaldls_1_1vx_1_1detail_1_1_backend_container_trait_3_01lola_1_1vx_1_1_synapse_correlation_calib_matrix_01_4.html" target="_top" xlink:title=" ">
<polygon fill="white" stroke="black" points="169.11,-453.5 169.11,-509.5 318.19,-509.5 318.19,-453.5 169.11,-453.5"/>
<text text-anchor="start" x="177.11" y="-496.5" font-family="Helvetica,sans-Serif" font-size="10.00">haldls::vx::detail</text>
<text text-anchor="start" x="177.11" y="-484.5" font-family="Helvetica,sans-Serif" font-size="10.00">::BackendContainerTrait</text>
<text text-anchor="start" x="177.11" y="-472.5" font-family="Helvetica,sans-Serif" font-size="10.00">&lt; lola::vx::SynapseCorrelation</text>
<text text-anchor="middle" x="243.65" y="-460.5" font-family="Helvetica,sans-Serif" font-size="10.00">CalibMatrix &gt;</text>
</a>
</g>
</g>
<!-- Node6&#45;&gt;Node17 -->
<g id="edge11" class="edge">
<title>Node6&#45;&gt;Node17</title>
<path fill="none" stroke="midnightblue" d="M83.92,-565.51C102.9,-552.33 131.08,-533.57 157.03,-519.5 163.32,-516.09 169.98,-512.73 176.69,-509.5"/>
<polygon fill="midnightblue" stroke="midnightblue" points="81.82,-562.71 75.65,-571.31 85.84,-568.44 81.82,-562.71"/>
</g>
<!-- Node18 -->
<g id="node13" class="node">
<title>Node18</title>
<g id="a_node13"><a xlink:href="structhaldls_1_1vx_1_1detail_1_1_backend_container_trait_3_01lola_1_1vx_1_1_synapse_correlation_calib_row_01_4.html" target="_top" xlink:title=" ">
<polygon fill="white" stroke="black" points="169.11,-378.5 169.11,-434.5 318.19,-434.5 318.19,-378.5 169.11,-378.5"/>
<text text-anchor="start" x="177.11" y="-421.5" font-family="Helvetica,sans-Serif" font-size="10.00">haldls::vx::detail</text>
<text text-anchor="start" x="177.11" y="-409.5" font-family="Helvetica,sans-Serif" font-size="10.00">::BackendContainerTrait</text>
<text text-anchor="start" x="177.11" y="-397.5" font-family="Helvetica,sans-Serif" font-size="10.00">&lt; lola::vx::SynapseCorrelation</text>
<text text-anchor="middle" x="243.65" y="-385.5" font-family="Helvetica,sans-Serif" font-size="10.00">CalibRow &gt;</text>
</a>
</g>
</g>
<!-- Node6&#45;&gt;Node18 -->
<g id="edge12" class="edge">
<title>Node6&#45;&gt;Node18</title>
<path fill="none" stroke="midnightblue" d="M70.53,-562.43C85.06,-533.45 116.22,-478.17 157.03,-444.5 161.3,-440.98 165.94,-437.73 170.78,-434.73"/>
<polygon fill="midnightblue" stroke="midnightblue" points="67.34,-560.98 66.09,-571.5 73.63,-564.05 67.34,-560.98"/>
</g>
<!-- Node19 -->
<g id="node14" class="node">
<title>Node19</title>
<g id="a_node14"><a xlink:href="structhaldls_1_1vx_1_1detail_1_1_backend_container_trait_3_01lola_1_1vx_1_1_synapse_label_matrix_01_4.html" target="_top" xlink:title=" ">
<polygon fill="white" stroke="black" points="163.41,-315.5 163.41,-359.5 323.89,-359.5 323.89,-315.5 163.41,-315.5"/>
<text text-anchor="start" x="171.41" y="-346.5" font-family="Helvetica,sans-Serif" font-size="10.00">haldls::vx::detail</text>
<text text-anchor="start" x="171.41" y="-334.5" font-family="Helvetica,sans-Serif" font-size="10.00">::BackendContainerTrait</text>
<text text-anchor="middle" x="243.65" y="-322.5" font-family="Helvetica,sans-Serif" font-size="10.00">&lt; lola::vx::SynapseLabelMatrix &gt;</text>
</a>
</g>
</g>
<!-- Node6&#45;&gt;Node19 -->
<g id="edge13" class="edge">
<title>Node6&#45;&gt;Node19</title>
<path fill="none" stroke="midnightblue" d="M65.16,-561.53C73.73,-520.04 99,-423.84 157.03,-369.5 160.97,-365.81 165.37,-362.54 170.05,-359.64"/>
<polygon fill="midnightblue" stroke="midnightblue" points="61.69,-561.01 63.21,-571.49 68.56,-562.35 61.69,-561.01"/>
</g>
<!-- Node20 -->
<g id="node15" class="node">
<title>Node20</title>
<g id="a_node15"><a xlink:href="structhaldls_1_1vx_1_1detail_1_1_backend_container_trait_3_01lola_1_1vx_1_1_synapse_label_row_01_4.html" target="_top" xlink:title=" ">
<polygon fill="white" stroke="black" points="167.02,-252.5 167.02,-296.5 320.28,-296.5 320.28,-252.5 167.02,-252.5"/>
<text text-anchor="start" x="175.02" y="-283.5" font-family="Helvetica,sans-Serif" font-size="10.00">haldls::vx::detail</text>
<text text-anchor="start" x="175.02" y="-271.5" font-family="Helvetica,sans-Serif" font-size="10.00">::BackendContainerTrait</text>
<text text-anchor="middle" x="243.65" y="-259.5" font-family="Helvetica,sans-Serif" font-size="10.00">&lt; lola::vx::SynapseLabelRow &gt;</text>
</a>
</g>
</g>
<!-- Node6&#45;&gt;Node20 -->
<g id="edge14" class="edge">
<title>Node6&#45;&gt;Node20</title>
<path fill="none" stroke="midnightblue" d="M62.81,-561.27C67.09,-511.22 84.95,-380.29 157.03,-306.5 160.69,-302.75 164.83,-299.44 169.26,-296.51"/>
<polygon fill="midnightblue" stroke="midnightblue" points="59.31,-561.2 62.04,-571.43 66.29,-561.73 59.31,-561.2"/>
</g>
<!-- Node21 -->
<g id="node16" class="node">
<title>Node21</title>
<g id="a_node16"><a xlink:href="structhaldls_1_1vx_1_1detail_1_1_backend_container_trait_3_01lola_1_1vx_1_1_synapse_matrix_01_4.html" target="_top" xlink:title=" ">
<polygon fill="white" stroke="black" points="175.64,-189.5 175.64,-233.5 311.67,-233.5 311.67,-189.5 175.64,-189.5"/>
<text text-anchor="start" x="183.64" y="-220.5" font-family="Helvetica,sans-Serif" font-size="10.00">haldls::vx::detail</text>
<text text-anchor="start" x="183.64" y="-208.5" font-family="Helvetica,sans-Serif" font-size="10.00">::BackendContainerTrait</text>
<text text-anchor="middle" x="243.65" y="-196.5" font-family="Helvetica,sans-Serif" font-size="10.00">&lt; lola::vx::SynapseMatrix &gt;</text>
</a>
</g>
</g>
<!-- Node6&#45;&gt;Node21 -->
<g id="edge15" class="edge">
<title>Node6&#45;&gt;Node21</title>
<path fill="none" stroke="midnightblue" d="M61.26,-561.06C61.66,-503.36 70.66,-337.29 157.03,-243.5 162.3,-237.78 168.69,-233.08 175.57,-229.21"/>
<polygon fill="midnightblue" stroke="midnightblue" points="57.76,-561.39 61.28,-571.39 64.76,-561.38 57.76,-561.39"/>
</g>
<!-- Node22 -->
<g id="node17" class="node">
<title>Node22</title>
<g id="a_node17"><a xlink:href="structhaldls_1_1vx_1_1detail_1_1_backend_container_trait_3_01lola_1_1vx_1_1_synapse_row_01_4.html" target="_top" xlink:title=" ">
<polygon fill="white" stroke="black" points="179.25,-126.5 179.25,-170.5 308.06,-170.5 308.06,-126.5 179.25,-126.5"/>
<text text-anchor="start" x="187.25" y="-157.5" font-family="Helvetica,sans-Serif" font-size="10.00">haldls::vx::detail</text>
<text text-anchor="start" x="187.25" y="-145.5" font-family="Helvetica,sans-Serif" font-size="10.00">::BackendContainerTrait</text>
<text text-anchor="middle" x="243.65" y="-133.5" font-family="Helvetica,sans-Serif" font-size="10.00">&lt; lola::vx::SynapseRow &gt;</text>
</a>
</g>
</g>
<!-- Node6&#45;&gt;Node22 -->
<g id="edge16" class="edge">
<title>Node6&#45;&gt;Node22</title>
<path fill="none" stroke="midnightblue" d="M63.81,-561.33C72.48,-488.29 105.43,-238.93 157.03,-180.5 163.13,-173.6 170.85,-168.19 179.16,-163.94"/>
<polygon fill="midnightblue" stroke="midnightblue" points="60.31,-561.14 62.63,-571.48 67.26,-561.95 60.31,-561.14"/>
</g>
<!-- Node23 -->
<g id="node18" class="node">
<title>Node23</title>
<g id="a_node18"><a xlink:href="structhaldls_1_1vx_1_1detail_1_1_backend_container_trait_3_01lola_1_1vx_1_1_synapse_weight_matrix_01_4.html" target="_top" xlink:title=" ">
<polygon fill="white" stroke="black" points="160.08,-63.5 160.08,-107.5 327.22,-107.5 327.22,-63.5 160.08,-63.5"/>
<text text-anchor="start" x="168.08" y="-94.5" font-family="Helvetica,sans-Serif" font-size="10.00">haldls::vx::detail</text>
<text text-anchor="start" x="168.08" y="-82.5" font-family="Helvetica,sans-Serif" font-size="10.00">::BackendContainerTrait</text>
<text text-anchor="middle" x="243.65" y="-70.5" font-family="Helvetica,sans-Serif" font-size="10.00">&lt; lola::vx::SynapseWeightMatrix &gt;</text>
</a>
</g>
</g>
<!-- Node6&#45;&gt;Node23 -->
<g id="edge17" class="edge">
<title>Node6&#45;&gt;Node23</title>
<path fill="none" stroke="midnightblue" d="M63.15,-560.82C69.9,-479.96 98.15,-186.28 157.03,-117.5 160.23,-113.76 163.91,-110.46 167.91,-107.55"/>
<polygon fill="midnightblue" stroke="midnightblue" points="59.63,-560.9 62.3,-571.15 66.6,-561.47 59.63,-560.9"/>
</g>
<!-- Node24 -->
<g id="node19" class="node">
<title>Node24</title>
<g id="a_node19"><a xlink:href="structhaldls_1_1vx_1_1detail_1_1_backend_container_trait_3_01lola_1_1vx_1_1_synapse_weight_row_01_4.html" target="_top" xlink:title=" ">
<polygon fill="white" stroke="black" points="163.69,-0.5 163.69,-44.5 323.61,-44.5 323.61,-0.5 163.69,-0.5"/>
<text text-anchor="start" x="171.69" y="-31.5" font-family="Helvetica,sans-Serif" font-size="10.00">haldls::vx::detail</text>
<text text-anchor="start" x="171.69" y="-19.5" font-family="Helvetica,sans-Serif" font-size="10.00">::BackendContainerTrait</text>
<text text-anchor="middle" x="243.65" y="-7.5" font-family="Helvetica,sans-Serif" font-size="10.00">&lt; lola::vx::SynapseWeightRow &gt;</text>
</a>
</g>
</g>
<!-- Node6&#45;&gt;Node24 -->
<g id="edge18" class="edge">
<title>Node6&#45;&gt;Node24</title>
<path fill="none" stroke="midnightblue" d="M62.59,-560.88C67.51,-473.4 90.69,-133.87 157.03,-54.5 160.09,-50.85 163.6,-47.61 167.42,-44.74"/>
<polygon fill="midnightblue" stroke="midnightblue" points="59.08,-560.91 62.03,-571.09 66.07,-561.29 59.08,-560.91"/>
</g>
</g>
</svg>
