<?xml version="1.0" encoding="UTF-8" standalone="no"?>
<!DOCTYPE svg PUBLIC "-//W3C//DTD SVG 1.1//EN"
 "http://www.w3.org/Graphics/SVG/1.1/DTD/svg11.dtd">
<!-- Generated by graphviz version 2.46.0 (0)
 -->
<!-- Title: /jenkins/jenlib_workspaces_f9/bld_nightly&#45;haldls.YmxkX25pZ2h0bHktaGFsZGxzIzEzNzk.x/haldls/include/lola/vx/memory_timing.h Pages: 1 -->
<svg width="987pt" height="134pt"
 viewBox="0.00 0.00 987.01 134.00" xmlns="http://www.w3.org/2000/svg" xmlns:xlink="http://www.w3.org/1999/xlink">
<g id="graph0" class="graph" transform="scale(1 1) rotate(0) translate(4 130)">
<title>/jenkins/jenlib_workspaces_f9/bld_nightly&#45;haldls.YmxkX25pZ2h0bHktaGFsZGxzIzEzNzk.x/haldls/include/lola/vx/memory_timing.h</title>
<polygon fill="white" stroke="transparent" points="-4,4 -4,-130 983.01,-130 983.01,4 -4,4"/>
<!-- Node1 -->
<g id="node1" class="node">
<title>Node1</title>
<g id="a_node1"><a xlink:title=" ">
<polygon fill="#bfbfbf" stroke="black" points="363,-69.5 363,-125.5 544.02,-125.5 544.02,-69.5 363,-69.5"/>
<text text-anchor="start" x="371" y="-112.5" font-family="Helvetica,sans-Serif" font-size="10.00">/jenkins/jenlib_workspaces</text>
<text text-anchor="start" x="371" y="-100.5" font-family="Helvetica,sans-Serif" font-size="10.00">_f9/bld_nightly&#45;haldls.YmxkX25p</text>
<text text-anchor="start" x="371" y="-88.5" font-family="Helvetica,sans-Serif" font-size="10.00">Z2h0bHktaGFsZGxzIzEzNzk.x/haldls</text>
<text text-anchor="middle" x="453.51" y="-76.5" font-family="Helvetica,sans-Serif" font-size="10.00">/include/lola/vx/memory_timing.h</text>
</a>
</g>
</g>
<!-- Node2 -->
<g id="node2" class="node">
<title>Node2</title>
<g id="a_node2"><a xlink:title=" ">
<polygon fill="white" stroke="#bfbfbf" points="0,-0.5 0,-32.5 101.02,-32.5 101.02,-0.5 0,-0.5"/>
<text text-anchor="start" x="8" y="-19.5" font-family="Helvetica,sans-Serif" font-size="10.00">halco/hicann&#45;dls/vx</text>
<text text-anchor="middle" x="50.51" y="-7.5" font-family="Helvetica,sans-Serif" font-size="10.00">/memory_timing.h</text>
</a>
</g>
</g>
<!-- Node1&#45;&gt;Node2 -->
<g id="edge1" class="edge">
<title>Node1&#45;&gt;Node2</title>
<path fill="none" stroke="midnightblue" d="M362.96,-81.68C295.82,-70.25 201.89,-53.33 111.2,-33.3"/>
<polygon fill="midnightblue" stroke="midnightblue" points="111.82,-29.85 101.3,-31.1 110.3,-36.69 111.82,-29.85"/>
</g>
<!-- Node3 -->
<g id="node3" class="node">
<title>Node3</title>
<g id="a_node3"><a xlink:title=" ">
<polygon fill="white" stroke="#bfbfbf" points="119,-6.5 119,-26.5 200.01,-26.5 200.01,-6.5 119,-6.5"/>
<text text-anchor="middle" x="159.51" y="-13.5" font-family="Helvetica,sans-Serif" font-size="10.00">hate/visibility.h</text>
</a>
</g>
</g>
<!-- Node1&#45;&gt;Node3 -->
<g id="edge2" class="edge">
<title>Node1&#45;&gt;Node3</title>
<path fill="none" stroke="midnightblue" d="M362.73,-74.19C316.42,-62.5 259.29,-47.6 208.51,-33 204.71,-31.91 200.76,-30.73 196.82,-29.53"/>
<polygon fill="midnightblue" stroke="midnightblue" points="197.75,-26.15 187.16,-26.53 195.67,-32.84 197.75,-26.15"/>
</g>
<!-- Node4 -->
<g id="node4" class="node">
<title>Node4</title>
<g id="a_node4"><a xlink:href="genpybind_8h.html" target="_top" xlink:title=" ">
<polygon fill="white" stroke="black" points="217.72,-6.5 217.72,-26.5 319.3,-26.5 319.3,-6.5 217.72,-6.5"/>
<text text-anchor="middle" x="268.51" y="-13.5" font-family="Helvetica,sans-Serif" font-size="10.00">lola/vx/genpybind.h</text>
</a>
</g>
</g>
<!-- Node1&#45;&gt;Node4 -->
<g id="edge3" class="edge">
<title>Node1&#45;&gt;Node4</title>
<path fill="none" stroke="midnightblue" d="M390.1,-69.42C359.26,-56.25 323.61,-41.03 298.93,-30.49"/>
<polygon fill="midnightblue" stroke="midnightblue" points="300.28,-27.26 289.71,-26.55 297.53,-33.7 300.28,-27.26"/>
</g>
<!-- Node5 -->
<g id="node5" class="node">
<title>Node5</title>
<g id="a_node5"><a xlink:title=" ">
<polygon fill="white" stroke="#bfbfbf" points="354.94,-6.5 354.94,-26.5 442.07,-26.5 442.07,-6.5 354.94,-6.5"/>
<text text-anchor="middle" x="398.51" y="-13.5" font-family="Helvetica,sans-Serif" font-size="10.00">haldls/vx/cadc.h</text>
</a>
</g>
</g>
<!-- Node1&#45;&gt;Node5 -->
<g id="edge5" class="edge">
<title>Node1&#45;&gt;Node5</title>
<path fill="none" stroke="midnightblue" d="M434.58,-69.31C426.68,-57.97 417.73,-45.12 410.73,-35.05"/>
<polygon fill="midnightblue" stroke="midnightblue" points="413.51,-32.92 404.92,-26.71 407.76,-36.92 413.51,-32.92"/>
</g>
<!-- Node6 -->
<g id="node6" class="node">
<title>Node6</title>
<g id="a_node6"><a xlink:title=" ">
<polygon fill="white" stroke="#bfbfbf" points="459.94,-6.5 459.94,-26.5 557.08,-26.5 557.08,-6.5 459.94,-6.5"/>
<text text-anchor="middle" x="508.51" y="-13.5" font-family="Helvetica,sans-Serif" font-size="10.00">haldls/vx/neuron.h</text>
</a>
</g>
</g>
<!-- Node1&#45;&gt;Node6 -->
<g id="edge6" class="edge">
<title>Node1&#45;&gt;Node6</title>
<path fill="none" stroke="midnightblue" d="M472.44,-69.31C480.33,-57.97 489.28,-45.12 496.29,-35.05"/>
<polygon fill="midnightblue" stroke="midnightblue" points="499.25,-36.92 502.09,-26.71 493.51,-32.92 499.25,-36.92"/>
</g>
<!-- Node7 -->
<g id="node7" class="node">
<title>Node7</title>
<g id="a_node7"><a xlink:title=" ">
<polygon fill="white" stroke="#bfbfbf" points="574.88,-6.5 574.88,-26.5 678.13,-26.5 678.13,-6.5 574.88,-6.5"/>
<text text-anchor="middle" x="626.51" y="-13.5" font-family="Helvetica,sans-Serif" font-size="10.00">haldls/vx/synapse.h</text>
</a>
</g>
</g>
<!-- Node1&#45;&gt;Node7 -->
<g id="edge7" class="edge">
<title>Node1&#45;&gt;Node7</title>
<path fill="none" stroke="midnightblue" d="M513.04,-69.31C541.61,-56.27 574.53,-41.23 597.53,-30.73"/>
<polygon fill="midnightblue" stroke="midnightblue" points="599.1,-33.87 606.74,-26.53 596.19,-27.5 599.1,-33.87"/>
</g>
<!-- Node8 -->
<g id="node8" class="node">
<title>Node8</title>
<g id="a_node8"><a xlink:title=" ">
<polygon fill="white" stroke="#bfbfbf" points="696.61,-6.5 696.61,-26.5 830.41,-26.5 830.41,-6.5 696.61,-6.5"/>
<text text-anchor="middle" x="763.51" y="-13.5" font-family="Helvetica,sans-Serif" font-size="10.00">haldls/vx/synapse_driver.h</text>
</a>
</g>
</g>
<!-- Node1&#45;&gt;Node8 -->
<g id="edge8" class="edge">
<title>Node1&#45;&gt;Node8</title>
<path fill="none" stroke="midnightblue" d="M544.42,-73.33C601.56,-58.77 672.8,-40.62 718.23,-29.04"/>
<polygon fill="midnightblue" stroke="midnightblue" points="719.25,-32.39 728.07,-26.53 717.52,-25.61 719.25,-32.39"/>
</g>
<!-- Node9 -->
<g id="node9" class="node">
<title>Node9</title>
<g id="a_node9"><a xlink:title=" ">
<polygon fill="white" stroke="#bfbfbf" points="848.01,-6.5 848.01,-26.5 979.01,-26.5 979.01,-6.5 848.01,-6.5"/>
<text text-anchor="middle" x="913.51" y="-13.5" font-family="Helvetica,sans-Serif" font-size="10.00">lola/vx/memory_timing.tcc</text>
</a>
</g>
</g>
<!-- Node1&#45;&gt;Node9 -->
<g id="edge9" class="edge">
<title>Node1&#45;&gt;Node9</title>
<path fill="none" stroke="midnightblue" d="M544.17,-82.72C622.52,-70.55 738.7,-51.84 839.51,-33 846.86,-31.63 854.61,-30.09 862.22,-28.54"/>
<polygon fill="midnightblue" stroke="midnightblue" points="863,-31.96 872.08,-26.51 861.58,-25.1 863,-31.96"/>
</g>
<!-- Node4&#45;&gt;Node4 -->
<g id="edge4" class="edge">
<title>Node4&#45;&gt;Node4</title>
<path fill="none" stroke="midnightblue" d="M285.78,-26.62C309.03,-35.58 337.3,-32.2 337.3,-16.5 337.3,-2.94 316.23,1.42 295.51,-3.4"/>
<polygon fill="midnightblue" stroke="midnightblue" points="294.32,-0.1 285.78,-6.38 296.37,-6.8 294.32,-0.1"/>
</g>
</g>
</svg>
