<?xml version="1.0" encoding="UTF-8" standalone="no"?>
<!DOCTYPE svg PUBLIC "-//W3C//DTD SVG 1.1//EN"
 "http://www.w3.org/Graphics/SVG/1.1/DTD/svg11.dtd">
<!-- Generated by graphviz version 2.46.0 (0)
 -->
<!-- Title: /jenkins/jenlib_workspaces_f9/bld_nightly&#45;haldls.YmxkX25pZ2h0bHktaGFsZGxzIzEzNzk.x/haldls/include/lola/vx/ppu.h Pages: 1 -->
<svg width="1191pt" height="191pt"
 viewBox="0.00 0.00 1190.80 191.00" xmlns="http://www.w3.org/2000/svg" xmlns:xlink="http://www.w3.org/1999/xlink">
<g id="graph0" class="graph" transform="scale(1 1) rotate(0) translate(4 187)">
<title>/jenkins/jenlib_workspaces_f9/bld_nightly&#45;haldls.YmxkX25pZ2h0bHktaGFsZGxzIzEzNzk.x/haldls/include/lola/vx/ppu.h</title>
<polygon fill="white" stroke="transparent" points="-4,4 -4,-187 1186.8,-187 1186.8,4 -4,4"/>
<!-- Node1 -->
<g id="node1" class="node">
<title>Node1</title>
<g id="a_node1"><a xlink:title=" ">
<polygon fill="#bfbfbf" stroke="black" points="498.61,-126.5 498.61,-182.5 679.63,-182.5 679.63,-126.5 498.61,-126.5"/>
<text text-anchor="start" x="506.61" y="-169.5" font-family="Helvetica,sans-Serif" font-size="10.00">/jenkins/jenlib_workspaces</text>
<text text-anchor="start" x="506.61" y="-157.5" font-family="Helvetica,sans-Serif" font-size="10.00">_f9/bld_nightly&#45;haldls.YmxkX25p</text>
<text text-anchor="start" x="506.61" y="-145.5" font-family="Helvetica,sans-Serif" font-size="10.00">Z2h0bHktaGFsZGxzIzEzNzk.x/haldls</text>
<text text-anchor="middle" x="589.12" y="-133.5" font-family="Helvetica,sans-Serif" font-size="10.00">/include/lola/vx/ppu.h</text>
</a>
</g>
</g>
<!-- Node2 -->
<g id="node2" class="node">
<title>Node2</title>
<g id="a_node2"><a xlink:title=" ">
<polygon fill="white" stroke="#bfbfbf" points="0,-57.5 0,-89.5 108.24,-89.5 108.24,-57.5 0,-57.5"/>
<text text-anchor="start" x="8" y="-76.5" font-family="Helvetica,sans-Serif" font-size="10.00">halco/common/typed</text>
<text text-anchor="middle" x="54.12" y="-64.5" font-family="Helvetica,sans-Serif" font-size="10.00">_heap_array.h</text>
</a>
</g>
</g>
<!-- Node1&#45;&gt;Node2 -->
<g id="edge1" class="edge">
<title>Node1&#45;&gt;Node2</title>
<path fill="none" stroke="midnightblue" d="M498.61,-144.25C405.49,-134.07 256.13,-115.88 118.24,-90.1"/>
<polygon fill="midnightblue" stroke="midnightblue" points="118.81,-86.65 108.34,-88.23 117.52,-93.52 118.81,-86.65"/>
</g>
<!-- Node3 -->
<g id="node3" class="node">
<title>Node3</title>
<g id="a_node3"><a xlink:title=" ">
<polygon fill="white" stroke="#bfbfbf" points="126.61,-57.5 126.61,-89.5 227.63,-89.5 227.63,-57.5 126.61,-57.5"/>
<text text-anchor="start" x="134.61" y="-76.5" font-family="Helvetica,sans-Serif" font-size="10.00">halco/hicann&#45;dls/vx</text>
<text text-anchor="middle" x="177.12" y="-64.5" font-family="Helvetica,sans-Serif" font-size="10.00">/coordinates.h</text>
</a>
</g>
</g>
<!-- Node1&#45;&gt;Node3 -->
<g id="edge2" class="edge">
<title>Node1&#45;&gt;Node3</title>
<path fill="none" stroke="midnightblue" d="M498.41,-139.21C429.32,-127.85 331.69,-110.79 237.86,-90.3"/>
<polygon fill="midnightblue" stroke="midnightblue" points="238.43,-86.84 227.91,-88.11 236.92,-93.68 238.43,-86.84"/>
</g>
<!-- Node4 -->
<g id="node4" class="node">
<title>Node4</title>
<g id="a_node4"><a xlink:title=" ">
<polygon fill="white" stroke="#bfbfbf" points="245.45,-63.5 245.45,-83.5 354.8,-83.5 354.8,-63.5 245.45,-63.5"/>
<text text-anchor="middle" x="300.12" y="-70.5" font-family="Helvetica,sans-Serif" font-size="10.00">haldls/cerealization.h</text>
</a>
</g>
</g>
<!-- Node1&#45;&gt;Node4 -->
<g id="edge3" class="edge">
<title>Node1&#45;&gt;Node4</title>
<path fill="none" stroke="midnightblue" d="M498.47,-128.72C446.59,-114.54 383.89,-97.4 343.07,-86.24"/>
<polygon fill="midnightblue" stroke="midnightblue" points="343.75,-82.8 333.18,-83.54 341.91,-89.55 343.75,-82.8"/>
</g>
<!-- Node5 -->
<g id="node5" class="node">
<title>Node5</title>
<g id="a_node5"><a xlink:title=" ">
<polygon fill="white" stroke="#bfbfbf" points="372.62,-63.5 372.62,-83.5 453.63,-83.5 453.63,-63.5 372.62,-63.5"/>
<text text-anchor="middle" x="413.12" y="-70.5" font-family="Helvetica,sans-Serif" font-size="10.00">hate/visibility.h</text>
</a>
</g>
</g>
<!-- Node1&#45;&gt;Node5 -->
<g id="edge4" class="edge">
<title>Node1&#45;&gt;Node5</title>
<path fill="none" stroke="midnightblue" d="M528.55,-126.31C499.49,-113.27 466,-98.23 442.6,-87.73"/>
<polygon fill="midnightblue" stroke="midnightblue" points="443.79,-84.43 433.23,-83.53 440.92,-90.82 443.79,-84.43"/>
</g>
<!-- Node6 -->
<g id="node6" class="node">
<title>Node6</title>
<g id="a_node6"><a xlink:href="cerealization_8h.html" target="_top" xlink:title=" ">
<polygon fill="white" stroke="black" points="471.34,-63.5 471.34,-83.5 582.91,-83.5 582.91,-63.5 471.34,-63.5"/>
<text text-anchor="middle" x="527.12" y="-70.5" font-family="Helvetica,sans-Serif" font-size="10.00">lola/vx/cerealization.h</text>
</a>
</g>
</g>
<!-- Node1&#45;&gt;Node6 -->
<g id="edge5" class="edge">
<title>Node1&#45;&gt;Node6</title>
<path fill="none" stroke="midnightblue" d="M567.79,-126.31C558.79,-114.85 548.59,-101.85 540.66,-91.74"/>
<polygon fill="midnightblue" stroke="midnightblue" points="543.28,-89.42 534.35,-83.71 537.77,-93.74 543.28,-89.42"/>
</g>
<!-- Node10 -->
<g id="node10" class="node">
<title>Node10</title>
<g id="a_node10"><a xlink:href="genpybind_8h.html" target="_top" xlink:title=" ">
<polygon fill="white" stroke="black" points="601.33,-63.5 601.33,-83.5 702.91,-83.5 702.91,-63.5 601.33,-63.5"/>
<text text-anchor="middle" x="652.12" y="-70.5" font-family="Helvetica,sans-Serif" font-size="10.00">lola/vx/genpybind.h</text>
</a>
</g>
</g>
<!-- Node1&#45;&gt;Node10 -->
<g id="edge9" class="edge">
<title>Node1&#45;&gt;Node10</title>
<path fill="none" stroke="midnightblue" d="M610.8,-126.31C619.94,-114.85 630.31,-101.85 638.37,-91.74"/>
<polygon fill="midnightblue" stroke="midnightblue" points="641.28,-93.72 644.77,-83.71 635.8,-89.35 641.28,-93.72"/>
</g>
<!-- Node11 -->
<g id="node11" class="node">
<title>Node11</title>
<g id="a_node11"><a xlink:title=" ">
<polygon fill="white" stroke="#bfbfbf" points="738.76,-63.5 738.76,-83.5 881.49,-83.5 881.49,-63.5 738.76,-63.5"/>
<text text-anchor="middle" x="810.12" y="-70.5" font-family="Helvetica,sans-Serif" font-size="10.00">boost/hana/adapt_struct.hpp</text>
</a>
</g>
</g>
<!-- Node1&#45;&gt;Node11 -->
<g id="edge11" class="edge">
<title>Node1&#45;&gt;Node11</title>
<path fill="none" stroke="midnightblue" d="M664.87,-126.42C702.36,-113.02 745.8,-97.49 775.34,-86.93"/>
<polygon fill="midnightblue" stroke="midnightblue" points="776.56,-90.22 784.79,-83.55 774.2,-83.62 776.56,-90.22"/>
</g>
<!-- Node12 -->
<g id="node12" class="node">
<title>Node12</title>
<g id="a_node12"><a xlink:title=" ">
<polygon fill="white" stroke="#bfbfbf" points="899.39,-63.5 899.39,-83.5 984.86,-83.5 984.86,-63.5 899.39,-63.5"/>
<text text-anchor="middle" x="942.12" y="-70.5" font-family="Helvetica,sans-Serif" font-size="10.00">haldls/vx/fpga.h</text>
</a>
</g>
</g>
<!-- Node1&#45;&gt;Node12 -->
<g id="edge12" class="edge">
<title>Node1&#45;&gt;Node12</title>
<path fill="none" stroke="midnightblue" d="M679.79,-136.38C739.77,-124.57 819.98,-107.82 890.12,-90 894.5,-88.89 899.07,-87.65 903.6,-86.37"/>
<polygon fill="midnightblue" stroke="midnightblue" points="904.73,-89.68 913.36,-83.53 902.78,-82.96 904.73,-89.68"/>
</g>
<!-- Node13 -->
<g id="node13" class="node">
<title>Node13</title>
<g id="a_node13"><a xlink:title=" ">
<polygon fill="white" stroke="#bfbfbf" points="1002.78,-63.5 1002.78,-83.5 1085.47,-83.5 1085.47,-63.5 1002.78,-63.5"/>
<text text-anchor="middle" x="1044.12" y="-70.5" font-family="Helvetica,sans-Serif" font-size="10.00">haldls/vx/ppu.h</text>
</a>
</g>
</g>
<!-- Node1&#45;&gt;Node13 -->
<g id="edge13" class="edge">
<title>Node1&#45;&gt;Node13</title>
<path fill="none" stroke="midnightblue" d="M679.92,-143.09C762.48,-132.73 887.36,-114.78 994.12,-90 998.58,-88.97 1003.21,-87.74 1007.78,-86.44"/>
<polygon fill="midnightblue" stroke="midnightblue" points="1009.01,-89.72 1017.59,-83.51 1007.01,-83.02 1009.01,-89.72"/>
</g>
<!-- Node14 -->
<g id="node14" class="node">
<title>Node14</title>
<g id="a_node14"><a xlink:title=" ">
<polygon fill="white" stroke="#bfbfbf" points="1103.45,-63.5 1103.45,-83.5 1182.8,-83.5 1182.8,-63.5 1103.45,-63.5"/>
<text text-anchor="middle" x="1143.12" y="-70.5" font-family="Helvetica,sans-Serif" font-size="10.00">lola/vx/ppu.tcc</text>
</a>
</g>
</g>
<!-- Node1&#45;&gt;Node14 -->
<g id="edge14" class="edge">
<title>Node1&#45;&gt;Node14</title>
<path fill="none" stroke="midnightblue" d="M679.82,-147.08C781.55,-138.72 951.05,-121.35 1094.12,-90 1098.61,-89.02 1103.27,-87.8 1107.85,-86.49"/>
<polygon fill="midnightblue" stroke="midnightblue" points="1109.12,-89.76 1117.67,-83.51 1107.09,-83.07 1109.12,-89.76"/>
</g>
<!-- Node7 -->
<g id="node7" class="node">
<title>Node7</title>
<g id="a_node7"><a xlink:title=" ">
<polygon fill="white" stroke="#bfbfbf" points="404.06,-0.5 404.06,-20.5 466.18,-20.5 466.18,-0.5 404.06,-0.5"/>
<text text-anchor="middle" x="435.12" y="-7.5" font-family="Helvetica,sans-Serif" font-size="10.00">type_traits</text>
</a>
</g>
</g>
<!-- Node6&#45;&gt;Node7 -->
<g id="edge6" class="edge">
<title>Node6&#45;&gt;Node7</title>
<path fill="none" stroke="midnightblue" d="M513.55,-63.5C498.74,-53.68 474.8,-37.81 457.26,-26.18"/>
<polygon fill="midnightblue" stroke="midnightblue" points="459.02,-23.15 448.75,-20.54 455.15,-28.98 459.02,-23.15"/>
</g>
<!-- Node8 -->
<g id="node8" class="node">
<title>Node8</title>
<g id="a_node8"><a xlink:title=" ">
<polygon fill="white" stroke="#bfbfbf" points="484.66,-0.5 484.66,-20.5 569.59,-20.5 569.59,-0.5 484.66,-0.5"/>
<text text-anchor="middle" x="527.12" y="-7.5" font-family="Helvetica,sans-Serif" font-size="10.00">boost/hana.hpp</text>
</a>
</g>
</g>
<!-- Node6&#45;&gt;Node8 -->
<g id="edge7" class="edge">
<title>Node6&#45;&gt;Node8</title>
<path fill="none" stroke="midnightblue" d="M527.12,-63.5C527.12,-54.94 527.12,-41.78 527.12,-30.85"/>
<polygon fill="midnightblue" stroke="midnightblue" points="530.62,-30.54 527.12,-20.54 523.62,-30.54 530.62,-30.54"/>
</g>
<!-- Node9 -->
<g id="node9" class="node">
<title>Node9</title>
<g id="a_node9"><a xlink:title=" ">
<polygon fill="white" stroke="#bfbfbf" points="588,-0.5 588,-20.5 686.24,-20.5 686.24,-0.5 588,-0.5"/>
<text text-anchor="middle" x="637.12" y="-7.5" font-family="Helvetica,sans-Serif" font-size="10.00">cereal/macros.hpp</text>
</a>
</g>
</g>
<!-- Node6&#45;&gt;Node9 -->
<g id="edge8" class="edge">
<title>Node6&#45;&gt;Node9</title>
<path fill="none" stroke="midnightblue" d="M543.35,-63.5C561.39,-53.5 590.74,-37.22 611.8,-25.54"/>
<polygon fill="midnightblue" stroke="midnightblue" points="613.78,-28.45 620.83,-20.54 610.38,-22.33 613.78,-28.45"/>
</g>
<!-- Node10&#45;&gt;Node10 -->
<g id="edge10" class="edge">
<title>Node10&#45;&gt;Node10</title>
<path fill="none" stroke="midnightblue" d="M678.6,-83.56C699.48,-87.45 720.91,-84.1 720.91,-73.5 720.91,-64.64 705.94,-60.85 688.82,-62.11"/>
<polygon fill="midnightblue" stroke="midnightblue" points="688.06,-58.68 678.6,-63.44 688.96,-65.62 688.06,-58.68"/>
</g>
</g>
</svg>
