<?xml version="1.0" encoding="UTF-8" standalone="no"?>
<!DOCTYPE svg PUBLIC "-//W3C//DTD SVG 1.1//EN"
 "http://www.w3.org/Graphics/SVG/1.1/DTD/svg11.dtd">
<!-- Generated by graphviz version 2.46.0 (0)
 -->
<!-- Title: /jenkins/jenlib_workspaces_f9/bld_nightly&#45;haldls.YmxkX25pZ2h0bHktaGFsZGxzIzEzNzk.x/haldls/include/lola/vx/readout_chain.h Pages: 1 -->
<!--zoomable 191 -->
<svg id="main" version="1.1" xmlns="http://www.w3.org/2000/svg" xmlns:xlink="http://www.w3.org/1999/xlink" xml:space="preserve" onload="init(evt)">
<style type="text/css"><![CDATA[
.edge:hover path { stroke: red; }
.edge:hover polygon { stroke: red; fill: red; }
]]></style>
<script type="text/javascript"><![CDATA[
var edges = document.getElementsByTagName('g');
if (edges && edges.length) {
  for (var i=0;i<edges.length;i++) {
    if (edges[i].id.substr(0,4)=='edge') {
      edges[i].setAttribute('class','edge');
    }
  }
}
]]></script>
        <defs>
                <circle id="rim" cx="0" cy="0" r="7"/>
                <circle id="rim2" cx="0" cy="0" r="3.5"/>
                <g id="zoomPlus">
                        <use xlink:href="#rim" fill="#404040">
                                <set attributeName="fill" to="#808080" begin="zoomplus.mouseover" end="zoomplus.mouseout"/>
                        </use>
                        <path d="M-4,0h8M0,-4v8" fill="none" stroke="white" stroke-width="1.5" pointer-events="none"/>
                </g>
                <g id="zoomMin">
                        <use xlink:href="#rim" fill="#404040">
                                <set attributeName="fill" to="#808080" begin="zoomminus.mouseover" end="zoomminus.mouseout"/>
                        </use>
                        <path d="M-4,0h8" fill="none" stroke="white" stroke-width="1.5" pointer-events="none"/>
                </g>
                <g id="dirArrow">
                        <path fill="none" stroke="white" stroke-width="1.5" d="M0,-3.0v7 M-2.5,-0.5L0,-3.0L2.5,-0.5"/>
                </g>
               <g id="resetDef">
                       <use xlink:href="#rim2" fill="#404040">
                               <set attributeName="fill" to="#808080" begin="reset.mouseover" end="reset.mouseout"/>
                       </use>
               </g>
        </defs>

<script type="text/javascript">
var viewWidth = 1523;
var viewHeight = 191;
var sectionId = 'dynsection-0';
</script>
<script xlink:href="svgpan.js"/>
<svg id="graph" class="graph">
<g id="viewport">
<title>/jenkins/jenlib_workspaces_f9/bld_nightly&#45;haldls.YmxkX25pZ2h0bHktaGFsZGxzIzEzNzk.x/haldls/include/lola/vx/readout_chain.h</title>
<polygon fill="white" stroke="transparent" points="-4,4 -4,-187 1518.68,-187 1518.68,4 -4,4"/>
<!-- Node1 -->
<g id="node1" class="node">
<title>Node1</title>
<g id="a_node1"><a xlink:title=" ">
<polygon fill="#bfbfbf" stroke="black" points="675.16,-126.5 675.16,-182.5 856.18,-182.5 856.18,-126.5 675.16,-126.5"/>
<text text-anchor="start" x="683.16" y="-169.5" font-family="Helvetica,sans-Serif" font-size="10.00">/jenkins/jenlib_workspaces</text>
<text text-anchor="start" x="683.16" y="-157.5" font-family="Helvetica,sans-Serif" font-size="10.00">_f9/bld_nightly&#45;haldls.YmxkX25p</text>
<text text-anchor="start" x="683.16" y="-145.5" font-family="Helvetica,sans-Serif" font-size="10.00">Z2h0bHktaGFsZGxzIzEzNzk.x/haldls</text>
<text text-anchor="middle" x="765.67" y="-133.5" font-family="Helvetica,sans-Serif" font-size="10.00">/include/lola/vx/readout_chain.h</text>
</a>
</g>
</g>
<!-- Node2 -->
<g id="node2" class="node">
<title>Node2</title>
<g id="a_node2"><a xlink:title=" ">
<polygon fill="white" stroke="#bfbfbf" points="0,-57.5 0,-89.5 149.34,-89.5 149.34,-57.5 0,-57.5"/>
<text text-anchor="start" x="8" y="-76.5" font-family="Helvetica,sans-Serif" font-size="10.00">haldlsID(/)vxID(/)vID</text>
<text text-anchor="middle" x="74.67" y="-64.5" font-family="Helvetica,sans-Serif" font-size="10.00">(CHIP_REVISION)/capmem.h</text>
</a>
</g>
</g>
<!-- Node1&#45;&gt;Node2 -->
<g id="edge1" class="edge">
<title>Node1&#45;&gt;Node2</title>
<path fill="none" stroke="midnightblue" d="M675.15,-146.26C558.38,-136.41 348.8,-117.05 159.85,-90.1"/>
<polygon fill="midnightblue" stroke="midnightblue" points="160.12,-86.61 149.73,-88.65 159.13,-93.54 160.12,-86.61"/>
</g>
<!-- Node3 -->
<g id="node3" class="node">
<title>Node3</title>
<g id="a_node3"><a xlink:title=" ">
<polygon fill="white" stroke="#bfbfbf" points="167.55,-57.5 167.55,-89.5 275.79,-89.5 275.79,-57.5 167.55,-57.5"/>
<text text-anchor="start" x="175.55" y="-76.5" font-family="Helvetica,sans-Serif" font-size="10.00">halco/common/typed</text>
<text text-anchor="middle" x="221.67" y="-64.5" font-family="Helvetica,sans-Serif" font-size="10.00">_array.h</text>
</a>
</g>
</g>
<!-- Node1&#45;&gt;Node3 -->
<g id="edge2" class="edge">
<title>Node1&#45;&gt;Node3</title>
<path fill="none" stroke="midnightblue" d="M674.77,-144.51C579.98,-134.46 426.97,-116.3 286.01,-90.14"/>
<polygon fill="midnightblue" stroke="midnightblue" points="286.36,-86.64 275.88,-88.24 285.07,-93.52 286.36,-86.64"/>
</g>
<!-- Node4 -->
<g id="node4" class="node">
<title>Node4</title>
<g id="a_node4"><a xlink:title=" ">
<polygon fill="white" stroke="#bfbfbf" points="294.16,-57.5 294.16,-89.5 395.18,-89.5 395.18,-57.5 294.16,-57.5"/>
<text text-anchor="start" x="302.16" y="-76.5" font-family="Helvetica,sans-Serif" font-size="10.00">halco/hicann&#45;dls/vx</text>
<text text-anchor="middle" x="344.67" y="-64.5" font-family="Helvetica,sans-Serif" font-size="10.00">/readout.h</text>
</a>
</g>
</g>
<!-- Node1&#45;&gt;Node4 -->
<g id="edge3" class="edge">
<title>Node1&#45;&gt;Node4</title>
<path fill="none" stroke="midnightblue" d="M674.88,-139.72C603.86,-128.45 502.46,-111.26 405.43,-90.3"/>
<polygon fill="midnightblue" stroke="midnightblue" points="405.97,-86.84 395.45,-88.13 404.48,-93.68 405.97,-86.84"/>
</g>
<!-- Node5 -->
<g id="node5" class="node">
<title>Node5</title>
<g id="a_node5"><a xlink:title=" ">
<polygon fill="white" stroke="#bfbfbf" points="413.16,-57.5 413.16,-89.5 514.18,-89.5 514.18,-57.5 413.16,-57.5"/>
<text text-anchor="start" x="421.16" y="-76.5" font-family="Helvetica,sans-Serif" font-size="10.00">halco/hicann&#45;dls/vx</text>
<text text-anchor="middle" x="463.67" y="-64.5" font-family="Helvetica,sans-Serif" font-size="10.00">/current_dac.h</text>
</a>
</g>
</g>
<!-- Node1&#45;&gt;Node5 -->
<g id="edge4" class="edge">
<title>Node1&#45;&gt;Node5</title>
<path fill="none" stroke="midnightblue" d="M675.08,-129.86C631.96,-118.6 579.42,-104.86 524.18,-90.39"/>
<polygon fill="midnightblue" stroke="midnightblue" points="524.76,-86.93 514.2,-87.78 522.98,-93.7 524.76,-86.93"/>
</g>
<!-- Node6 -->
<g id="node6" class="node">
<title>Node6</title>
<g id="a_node6"><a xlink:title=" ">
<polygon fill="white" stroke="#bfbfbf" points="531.99,-63.5 531.99,-83.5 641.34,-83.5 641.34,-63.5 531.99,-63.5"/>
<text text-anchor="middle" x="586.67" y="-70.5" font-family="Helvetica,sans-Serif" font-size="10.00">haldls/cerealization.h</text>
</a>
</g>
</g>
<!-- Node1&#45;&gt;Node6 -->
<g id="edge5" class="edge">
<title>Node1&#45;&gt;Node6</title>
<path fill="none" stroke="midnightblue" d="M704.32,-126.42C674.61,-113.31 640.29,-98.17 616.42,-87.63"/>
<polygon fill="midnightblue" stroke="midnightblue" points="617.75,-84.39 607.18,-83.55 614.92,-90.79 617.75,-84.39"/>
</g>
<!-- Node7 -->
<g id="node7" class="node">
<title>Node7</title>
<g id="a_node7"><a xlink:title=" ">
<polygon fill="white" stroke="#bfbfbf" points="659.44,-63.5 659.44,-83.5 749.9,-83.5 749.9,-63.5 659.44,-63.5"/>
<text text-anchor="middle" x="704.67" y="-70.5" font-family="Helvetica,sans-Serif" font-size="10.00">haldls/vx/madc.h</text>
</a>
</g>
</g>
<!-- Node1&#45;&gt;Node7 -->
<g id="edge6" class="edge">
<title>Node1&#45;&gt;Node7</title>
<path fill="none" stroke="midnightblue" d="M744.68,-126.31C735.83,-114.85 725.79,-101.85 717.98,-91.74"/>
<polygon fill="midnightblue" stroke="midnightblue" points="720.67,-89.49 711.78,-83.71 715.12,-93.77 720.67,-89.49"/>
</g>
<!-- Node8 -->
<g id="node8" class="node">
<title>Node8</title>
<g id="a_node8"><a xlink:title=" ">
<polygon fill="white" stroke="#bfbfbf" points="768.27,-63.5 768.27,-83.5 887.07,-83.5 887.07,-63.5 768.27,-63.5"/>
<text text-anchor="middle" x="827.67" y="-70.5" font-family="Helvetica,sans-Serif" font-size="10.00">haldls/vx/current_dac.h</text>
</a>
</g>
</g>
<!-- Node1&#45;&gt;Node8 -->
<g id="edge7" class="edge">
<title>Node1&#45;&gt;Node8</title>
<path fill="none" stroke="midnightblue" d="M787.01,-126.31C796,-114.85 806.2,-101.85 814.13,-91.74"/>
<polygon fill="midnightblue" stroke="midnightblue" points="817.02,-93.74 820.44,-83.71 811.51,-89.42 817.02,-93.74"/>
</g>
<!-- Node9 -->
<g id="node9" class="node">
<title>Node9</title>
<g id="a_node9"><a xlink:title=" ">
<polygon fill="white" stroke="#bfbfbf" points="904.71,-63.5 904.71,-83.5 1004.63,-83.5 1004.63,-63.5 904.71,-63.5"/>
<text text-anchor="middle" x="954.67" y="-70.5" font-family="Helvetica,sans-Serif" font-size="10.00">haldls/vx/readout.h</text>
</a>
</g>
</g>
<!-- Node1&#45;&gt;Node9 -->
<g id="edge8" class="edge">
<title>Node1&#45;&gt;Node9</title>
<path fill="none" stroke="midnightblue" d="M830.45,-126.42C861.96,-113.25 898.37,-98.03 923.59,-87.49"/>
<polygon fill="midnightblue" stroke="midnightblue" points="925.13,-90.64 933.01,-83.55 922.43,-84.18 925.13,-90.64"/>
</g>
<!-- Node10 -->
<g id="node10" class="node">
<title>Node10</title>
<g id="a_node10"><a xlink:title=" ">
<polygon fill="white" stroke="#bfbfbf" points="1022.17,-63.5 1022.17,-83.5 1103.17,-83.5 1103.17,-63.5 1022.17,-63.5"/>
<text text-anchor="middle" x="1062.67" y="-70.5" font-family="Helvetica,sans-Serif" font-size="10.00">hate/visibility.h</text>
</a>
</g>
</g>
<!-- Node1&#45;&gt;Node10 -->
<g id="edge9" class="edge">
<title>Node1&#45;&gt;Node10</title>
<path fill="none" stroke="midnightblue" d="M856.4,-131.56C903.49,-119.84 961.86,-104.82 1013.67,-90 1017.47,-88.91 1021.42,-87.74 1025.36,-86.54"/>
<polygon fill="midnightblue" stroke="midnightblue" points="1026.51,-89.85 1035.02,-83.54 1024.43,-83.16 1026.51,-89.85"/>
</g>
<!-- Node11 -->
<g id="node11" class="node">
<title>Node11</title>
<g id="a_node11"><a xlink:href="cerealization_8h.html" target="_top" xlink:title=" ">
<polygon fill="white" stroke="black" points="1120.88,-63.5 1120.88,-83.5 1232.45,-83.5 1232.45,-63.5 1120.88,-63.5"/>
<text text-anchor="middle" x="1176.67" y="-70.5" font-family="Helvetica,sans-Serif" font-size="10.00">lola/vx/cerealization.h</text>
</a>
</g>
</g>
<!-- Node1&#45;&gt;Node11 -->
<g id="edge10" class="edge">
<title>Node1&#45;&gt;Node11</title>
<path fill="none" stroke="midnightblue" d="M856.18,-138.38C926.36,-126.31 1025.95,-108.42 1112.67,-90 1118.54,-88.75 1124.7,-87.36 1130.78,-85.95"/>
<polygon fill="midnightblue" stroke="midnightblue" points="1131.95,-89.26 1140.87,-83.55 1130.33,-82.45 1131.95,-89.26"/>
</g>
<!-- Node15 -->
<g id="node15" class="node">
<title>Node15</title>
<g id="a_node15"><a xlink:href="genpybind_8h.html" target="_top" xlink:title=" ">
<polygon fill="white" stroke="black" points="1250.88,-63.5 1250.88,-83.5 1352.46,-83.5 1352.46,-63.5 1250.88,-63.5"/>
<text text-anchor="middle" x="1301.67" y="-70.5" font-family="Helvetica,sans-Serif" font-size="10.00">lola/vx/genpybind.h</text>
</a>
</g>
</g>
<!-- Node1&#45;&gt;Node15 -->
<g id="edge14" class="edge">
<title>Node1&#45;&gt;Node15</title>
<path fill="none" stroke="midnightblue" d="M856.56,-144.66C952.74,-134.54 1108.7,-115.95 1241.67,-90 1247.55,-88.85 1253.72,-87.47 1259.77,-86.01"/>
<polygon fill="midnightblue" stroke="midnightblue" points="1260.91,-89.33 1269.76,-83.5 1259.21,-82.54 1260.91,-89.33"/>
</g>
<!-- Node16 -->
<g id="node16" class="node">
<title>Node16</title>
<g id="a_node16"><a xlink:title=" ">
<polygon fill="white" stroke="#bfbfbf" points="1388.65,-63.5 1388.65,-83.5 1514.68,-83.5 1514.68,-63.5 1388.65,-63.5"/>
<text text-anchor="middle" x="1451.67" y="-70.5" font-family="Helvetica,sans-Serif" font-size="10.00">lola/vx/readout_chain.tcc</text>
</a>
</g>
</g>
<!-- Node1&#45;&gt;Node16 -->
<g id="edge16" class="edge">
<title>Node1&#45;&gt;Node16</title>
<path fill="none" stroke="midnightblue" d="M856.32,-147.23C976.48,-138.21 1194.85,-119.36 1379.67,-90 1387.39,-88.77 1395.54,-87.25 1403.46,-85.64"/>
<polygon fill="midnightblue" stroke="midnightblue" points="1404.26,-89.04 1413.33,-83.56 1402.82,-82.19 1404.26,-89.04"/>
</g>
<!-- Node12 -->
<g id="node12" class="node">
<title>Node12</title>
<g id="a_node12"><a xlink:title=" ">
<polygon fill="white" stroke="#bfbfbf" points="1053.61,-0.5 1053.61,-20.5 1115.73,-20.5 1115.73,-0.5 1053.61,-0.5"/>
<text text-anchor="middle" x="1084.67" y="-7.5" font-family="Helvetica,sans-Serif" font-size="10.00">type_traits</text>
</a>
</g>
</g>
<!-- Node11&#45;&gt;Node12 -->
<g id="edge11" class="edge">
<title>Node11&#45;&gt;Node12</title>
<path fill="none" stroke="midnightblue" d="M1163.09,-63.5C1148.28,-53.68 1124.34,-37.81 1106.8,-26.18"/>
<polygon fill="midnightblue" stroke="midnightblue" points="1108.57,-23.15 1098.3,-20.54 1104.7,-28.98 1108.57,-23.15"/>
</g>
<!-- Node13 -->
<g id="node13" class="node">
<title>Node13</title>
<g id="a_node13"><a xlink:title=" ">
<polygon fill="white" stroke="#bfbfbf" points="1134.2,-0.5 1134.2,-20.5 1219.13,-20.5 1219.13,-0.5 1134.2,-0.5"/>
<text text-anchor="middle" x="1176.67" y="-7.5" font-family="Helvetica,sans-Serif" font-size="10.00">boost/hana.hpp</text>
</a>
</g>
</g>
<!-- Node11&#45;&gt;Node13 -->
<g id="edge12" class="edge">
<title>Node11&#45;&gt;Node13</title>
<path fill="none" stroke="midnightblue" d="M1176.67,-63.5C1176.67,-54.94 1176.67,-41.78 1176.67,-30.85"/>
<polygon fill="midnightblue" stroke="midnightblue" points="1180.17,-30.54 1176.67,-20.54 1173.17,-30.54 1180.17,-30.54"/>
</g>
<!-- Node14 -->
<g id="node14" class="node">
<title>Node14</title>
<g id="a_node14"><a xlink:title=" ">
<polygon fill="white" stroke="#bfbfbf" points="1237.55,-0.5 1237.55,-20.5 1335.79,-20.5 1335.79,-0.5 1237.55,-0.5"/>
<text text-anchor="middle" x="1286.67" y="-7.5" font-family="Helvetica,sans-Serif" font-size="10.00">cereal/macros.hpp</text>
</a>
</g>
</g>
<!-- Node11&#45;&gt;Node14 -->
<g id="edge13" class="edge">
<title>Node11&#45;&gt;Node14</title>
<path fill="none" stroke="midnightblue" d="M1192.9,-63.5C1210.93,-53.5 1240.29,-37.22 1261.35,-25.54"/>
<polygon fill="midnightblue" stroke="midnightblue" points="1263.32,-28.45 1270.37,-20.54 1259.93,-22.33 1263.32,-28.45"/>
</g>
<!-- Node15&#45;&gt;Node15 -->
<g id="edge15" class="edge">
<title>Node15&#45;&gt;Node15</title>
<path fill="none" stroke="midnightblue" d="M1328.14,-83.56C1349.03,-87.45 1370.46,-84.1 1370.46,-73.5 1370.46,-64.64 1355.48,-60.85 1338.37,-62.11"/>
<polygon fill="midnightblue" stroke="midnightblue" points="1337.61,-58.68 1328.14,-63.44 1338.51,-65.62 1337.61,-58.68"/>
</g>
</g>
</svg>
        <g id="navigator" transform="translate(0 0)" fill="#404254">
                <rect fill="#f2f5e9" fill-opacity="0.5" stroke="#606060" stroke-width=".5" x="0" y="0" width="60" height="60"/>
                <use id="zoomplus" xlink:href="#zoomPlus" x="17" y="9" onmousedown="handleZoom(evt,'in')"/>
                <use id="zoomminus" xlink:href="#zoomMin" x="42" y="9" onmousedown="handleZoom(evt,'out')"/>
                <use id="reset" xlink:href="#resetDef" x="30" y="36" onmousedown="handleReset()"/>
                <g id="arrowUp" xlink:href="#dirArrow" transform="translate(30 24)" onmousedown="handlePan(0,-1)">
                  <use xlink:href="#rim" fill="#404040">
                        <set attributeName="fill" to="#808080" begin="arrowUp.mouseover" end="arrowUp.mouseout"/>
                  </use>
                  <path fill="none" stroke="white" stroke-width="1.5" d="M0,-3.0v7 M-2.5,-0.5L0,-3.0L2.5,-0.5"/>
                </g>
                <g id="arrowRight" xlink:href="#dirArrow" transform="rotate(90) translate(36 -43)" onmousedown="handlePan(1,0)">
                  <use xlink:href="#rim" fill="#404040">
                        <set attributeName="fill" to="#808080" begin="arrowRight.mouseover" end="arrowRight.mouseout"/>
                  </use>
                  <path fill="none" stroke="white" stroke-width="1.5" d="M0,-3.0v7 M-2.5,-0.5L0,-3.0L2.5,-0.5"/>
                </g>
                <g id="arrowDown" xlink:href="#dirArrow" transform="rotate(180) translate(-30 -48)" onmousedown="handlePan(0,1)">
                  <use xlink:href="#rim" fill="#404040">
                        <set attributeName="fill" to="#808080" begin="arrowDown.mouseover" end="arrowDown.mouseout"/>
                  </use>
                  <path fill="none" stroke="white" stroke-width="1.5" d="M0,-3.0v7 M-2.5,-0.5L0,-3.0L2.5,-0.5"/>
                </g>
                <g id="arrowLeft" xlink:href="#dirArrow" transform="rotate(270) translate(-36 17)" onmousedown="handlePan(-1,0)">
                  <use xlink:href="#rim" fill="#404040">
                        <set attributeName="fill" to="#808080" begin="arrowLeft.mouseover" end="arrowLeft.mouseout"/>
                  </use>
                  <path fill="none" stroke="white" stroke-width="1.5" d="M0,-3.0v7 M-2.5,-0.5L0,-3.0L2.5,-0.5"/>
                </g>
        </g>
        <svg viewBox="0 0 15 15" width="100%" height="30px" preserveAspectRatio="xMaxYMin meet">
         <g id="arrow_out" transform="scale(0.3 0.3)">
          <a xlink:href="readout__chain_8h__incl_org.svg" target="_base">
           <rect id="button" ry="5" rx="5" y="6" x="6" height="38" width="38"
                fill="#f2f5e9" fill-opacity="0.5" stroke="#606060" stroke-width="1.0"/>
           <path id="arrow"
             d="M 11.500037,31.436501 C 11.940474,20.09759 22.043105,11.32322 32.158766,21.979434 L 37.068811,17.246167 C 37.068811,17.246167 37.088388,32 37.088388,32 L 22.160133,31.978069 C 22.160133,31.978069 26.997745,27.140456 26.997745,27.140456 C 18.528582,18.264221 13.291696,25.230495 11.500037,31.436501 z"
             style="fill:#404040;"/>
          </a>
         </g>
        </svg>
</svg>
