<?xml version="1.0" encoding="UTF-8" standalone="no"?>
<!DOCTYPE svg PUBLIC "-//W3C//DTD SVG 1.1//EN"
 "http://www.w3.org/Graphics/SVG/1.1/DTD/svg11.dtd">
<!-- Generated by graphviz version 2.46.0 (0)
 -->
<!-- Title: /jenkins/jenlib_workspaces_f9/bld_nightly&#45;haldls.YmxkX25pZ2h0bHktaGFsZGxzIzEzNzk.x/haldls/include/lola/vx/routing_crossbar.h Pages: 1 -->
<svg width="506pt" height="530pt"
 viewBox="0.00 0.00 506.02 530.00" xmlns="http://www.w3.org/2000/svg" xmlns:xlink="http://www.w3.org/1999/xlink">
<g id="graph0" class="graph" transform="scale(1 1) rotate(0) translate(4 526)">
<title>/jenkins/jenlib_workspaces_f9/bld_nightly&#45;haldls.YmxkX25pZ2h0bHktaGFsZGxzIzEzNzk.x/haldls/include/lola/vx/routing_crossbar.h</title>
<polygon fill="white" stroke="transparent" points="-4,4 -4,-526 502.02,-526 502.02,4 -4,4"/>
<!-- Node1 -->
<g id="node1" class="node">
<title>Node1</title>
<g id="a_node1"><a xlink:title=" ">
<polygon fill="#bfbfbf" stroke="black" points="198,-465.5 198,-521.5 379.02,-521.5 379.02,-465.5 198,-465.5"/>
<text text-anchor="start" x="206" y="-508.5" font-family="Helvetica,sans-Serif" font-size="10.00">/jenkins/jenlib_workspaces</text>
<text text-anchor="start" x="206" y="-496.5" font-family="Helvetica,sans-Serif" font-size="10.00">_f9/bld_nightly&#45;haldls.YmxkX25p</text>
<text text-anchor="start" x="206" y="-484.5" font-family="Helvetica,sans-Serif" font-size="10.00">Z2h0bHktaGFsZGxzIzEzNzk.x/haldls</text>
<text text-anchor="middle" x="288.51" y="-472.5" font-family="Helvetica,sans-Serif" font-size="10.00">/include/lola/vx/routing_crossbar.h</text>
</a>
</g>
</g>
<!-- Node2 -->
<g id="node2" class="node">
<title>Node2</title>
<g id="a_node2"><a xlink:href="v2_2routing__crossbar_8h.html" target="_top" xlink:title=" ">
<polygon fill="white" stroke="black" points="99,-372.5 99,-428.5 280.02,-428.5 280.02,-372.5 99,-372.5"/>
<text text-anchor="start" x="107" y="-415.5" font-family="Helvetica,sans-Serif" font-size="10.00">/jenkins/jenlib_workspaces</text>
<text text-anchor="start" x="107" y="-403.5" font-family="Helvetica,sans-Serif" font-size="10.00">_f9/bld_nightly&#45;haldls.YmxkX25p</text>
<text text-anchor="start" x="107" y="-391.5" font-family="Helvetica,sans-Serif" font-size="10.00">Z2h0bHktaGFsZGxzIzEzNzk.x/haldls</text>
<text text-anchor="middle" x="189.51" y="-379.5" font-family="Helvetica,sans-Serif" font-size="10.00">/include/lola/vx/v2/routing_crossbar.h</text>
</a>
</g>
</g>
<!-- Node1&#45;&gt;Node2 -->
<g id="edge1" class="edge">
<title>Node1&#45;&gt;Node2</title>
<path fill="none" stroke="midnightblue" d="M251.45,-458.44C240.74,-448.59 229.19,-437.97 219,-428.61"/>
<polygon fill="midnightblue" stroke="midnightblue" points="249.34,-461.25 259.07,-465.44 254.08,-456.1 249.34,-461.25"/>
</g>
<!-- Node7 -->
<g id="node7" class="node">
<title>Node7</title>
<g id="a_node7"><a xlink:href="v3_2routing__crossbar_8h.html" target="_top" xlink:title=" ">
<polygon fill="white" stroke="black" points="298,-372.5 298,-428.5 479.02,-428.5 479.02,-372.5 298,-372.5"/>
<text text-anchor="start" x="306" y="-415.5" font-family="Helvetica,sans-Serif" font-size="10.00">/jenkins/jenlib_workspaces</text>
<text text-anchor="start" x="306" y="-403.5" font-family="Helvetica,sans-Serif" font-size="10.00">_f9/bld_nightly&#45;haldls.YmxkX25p</text>
<text text-anchor="start" x="306" y="-391.5" font-family="Helvetica,sans-Serif" font-size="10.00">Z2h0bHktaGFsZGxzIzEzNzk.x/haldls</text>
<text text-anchor="middle" x="388.51" y="-379.5" font-family="Helvetica,sans-Serif" font-size="10.00">/include/lola/vx/v3/routing_crossbar.h</text>
</a>
</g>
</g>
<!-- Node1&#45;&gt;Node7 -->
<g id="edge7" class="edge">
<title>Node1&#45;&gt;Node7</title>
<path fill="none" stroke="midnightblue" d="M325.94,-458.44C336.77,-448.59 348.43,-437.97 358.72,-428.61"/>
<polygon fill="midnightblue" stroke="midnightblue" points="323.28,-456.12 318.24,-465.44 327.99,-461.3 323.28,-456.12"/>
</g>
<!-- Node3 -->
<g id="node3" class="node">
<title>Node3</title>
<g id="a_node3"><a xlink:href="v2_2chip_8h.html" target="_top" xlink:title=" ">
<polygon fill="white" stroke="black" points="0,-279.5 0,-335.5 181.02,-335.5 181.02,-279.5 0,-279.5"/>
<text text-anchor="start" x="8" y="-322.5" font-family="Helvetica,sans-Serif" font-size="10.00">/jenkins/jenlib_workspaces</text>
<text text-anchor="start" x="8" y="-310.5" font-family="Helvetica,sans-Serif" font-size="10.00">_f9/bld_nightly&#45;haldls.YmxkX25p</text>
<text text-anchor="start" x="8" y="-298.5" font-family="Helvetica,sans-Serif" font-size="10.00">Z2h0bHktaGFsZGxzIzEzNzk.x/haldls</text>
<text text-anchor="middle" x="90.51" y="-286.5" font-family="Helvetica,sans-Serif" font-size="10.00">/include/lola/vx/v2/chip.h</text>
</a>
</g>
</g>
<!-- Node2&#45;&gt;Node3 -->
<g id="edge2" class="edge">
<title>Node2&#45;&gt;Node3</title>
<path fill="none" stroke="midnightblue" d="M152.45,-365.44C141.74,-355.59 130.19,-344.97 120,-335.61"/>
<polygon fill="midnightblue" stroke="midnightblue" points="150.34,-368.25 160.07,-372.44 155.08,-363.1 150.34,-368.25"/>
</g>
<!-- Node4 -->
<g id="node4" class="node">
<title>Node4</title>
<g id="a_node4"><a xlink:href="v2_2container_8h.html" target="_top" xlink:title=" ">
<polygon fill="white" stroke="black" points="79,-186.5 79,-242.5 260.02,-242.5 260.02,-186.5 79,-186.5"/>
<text text-anchor="start" x="87" y="-229.5" font-family="Helvetica,sans-Serif" font-size="10.00">/jenkins/jenlib_workspaces</text>
<text text-anchor="start" x="87" y="-217.5" font-family="Helvetica,sans-Serif" font-size="10.00">_f9/bld_nightly&#45;haldls.YmxkX25p</text>
<text text-anchor="start" x="87" y="-205.5" font-family="Helvetica,sans-Serif" font-size="10.00">Z2h0bHktaGFsZGxzIzEzNzk.x/haldls</text>
<text text-anchor="middle" x="169.51" y="-193.5" font-family="Helvetica,sans-Serif" font-size="10.00">/include/lola/vx/v2/container.h</text>
</a>
</g>
</g>
<!-- Node2&#45;&gt;Node4 -->
<g id="edge6" class="edge">
<title>Node2&#45;&gt;Node4</title>
<path fill="none" stroke="midnightblue" d="M193.03,-361.95C194.49,-338.05 194.94,-306.53 190.51,-279 188.53,-266.73 184.54,-253.63 180.56,-242.53"/>
<polygon fill="midnightblue" stroke="midnightblue" points="189.54,-361.81 192.34,-372.02 196.52,-362.29 189.54,-361.81"/>
</g>
<!-- Node3&#45;&gt;Node4 -->
<g id="edge3" class="edge">
<title>Node3&#45;&gt;Node4</title>
<path fill="none" stroke="midnightblue" d="M120.97,-271.41C129.21,-261.91 138.01,-251.78 145.82,-242.78"/>
<polygon fill="midnightblue" stroke="midnightblue" points="118.12,-269.35 114.21,-279.2 123.41,-273.94 118.12,-269.35"/>
</g>
<!-- Node5 -->
<g id="node5" class="node">
<title>Node5</title>
<g id="a_node5"><a xlink:href="v2_2lola_8h.html" target="_top" xlink:title=" ">
<polygon fill="white" stroke="black" points="79,-93.5 79,-149.5 260.02,-149.5 260.02,-93.5 79,-93.5"/>
<text text-anchor="start" x="87" y="-136.5" font-family="Helvetica,sans-Serif" font-size="10.00">/jenkins/jenlib_workspaces</text>
<text text-anchor="start" x="87" y="-124.5" font-family="Helvetica,sans-Serif" font-size="10.00">_f9/bld_nightly&#45;haldls.YmxkX25p</text>
<text text-anchor="start" x="87" y="-112.5" font-family="Helvetica,sans-Serif" font-size="10.00">Z2h0bHktaGFsZGxzIzEzNzk.x/haldls</text>
<text text-anchor="middle" x="169.51" y="-100.5" font-family="Helvetica,sans-Serif" font-size="10.00">/include/lola/vx/v2/lola.h</text>
</a>
</g>
</g>
<!-- Node4&#45;&gt;Node5 -->
<g id="edge4" class="edge">
<title>Node4&#45;&gt;Node5</title>
<path fill="none" stroke="midnightblue" d="M169.51,-176.12C169.51,-167.3 169.51,-158.06 169.51,-149.78"/>
<polygon fill="midnightblue" stroke="midnightblue" points="166.01,-176.2 169.51,-186.2 173.01,-176.2 166.01,-176.2"/>
</g>
<!-- Node6 -->
<g id="node6" class="node">
<title>Node6</title>
<g id="a_node6"><a xlink:href="v2_2pylola_8h.html" target="_top" xlink:title=" ">
<polygon fill="white" stroke="black" points="79,-0.5 79,-56.5 260.02,-56.5 260.02,-0.5 79,-0.5"/>
<text text-anchor="start" x="87" y="-43.5" font-family="Helvetica,sans-Serif" font-size="10.00">/jenkins/jenlib_workspaces</text>
<text text-anchor="start" x="87" y="-31.5" font-family="Helvetica,sans-Serif" font-size="10.00">_f9/bld_nightly&#45;haldls.YmxkX25p</text>
<text text-anchor="start" x="87" y="-19.5" font-family="Helvetica,sans-Serif" font-size="10.00">Z2h0bHktaGFsZGxzIzEzNzk.x/haldls</text>
<text text-anchor="middle" x="169.51" y="-7.5" font-family="Helvetica,sans-Serif" font-size="10.00">/include/lola/vx/v2/pylola.h</text>
</a>
</g>
</g>
<!-- Node5&#45;&gt;Node6 -->
<g id="edge5" class="edge">
<title>Node5&#45;&gt;Node6</title>
<path fill="none" stroke="midnightblue" d="M169.51,-83.12C169.51,-74.3 169.51,-65.06 169.51,-56.78"/>
<polygon fill="midnightblue" stroke="midnightblue" points="166.01,-83.2 169.51,-93.2 173.01,-83.2 166.01,-83.2"/>
</g>
<!-- Node8 -->
<g id="node8" class="node">
<title>Node8</title>
<g id="a_node8"><a xlink:href="v3_2chip_8h.html" target="_top" xlink:title=" ">
<polygon fill="white" stroke="black" points="278,-279.5 278,-335.5 459.02,-335.5 459.02,-279.5 278,-279.5"/>
<text text-anchor="start" x="286" y="-322.5" font-family="Helvetica,sans-Serif" font-size="10.00">/jenkins/jenlib_workspaces</text>
<text text-anchor="start" x="286" y="-310.5" font-family="Helvetica,sans-Serif" font-size="10.00">_f9/bld_nightly&#45;haldls.YmxkX25p</text>
<text text-anchor="start" x="286" y="-298.5" font-family="Helvetica,sans-Serif" font-size="10.00">Z2h0bHktaGFsZGxzIzEzNzk.x/haldls</text>
<text text-anchor="middle" x="368.51" y="-286.5" font-family="Helvetica,sans-Serif" font-size="10.00">/include/lola/vx/v3/chip.h</text>
</a>
</g>
</g>
<!-- Node7&#45;&gt;Node8 -->
<g id="edge8" class="edge">
<title>Node7&#45;&gt;Node8</title>
<path fill="none" stroke="midnightblue" d="M380.36,-362.41C378.4,-353.5 376.34,-344.15 374.51,-335.78"/>
<polygon fill="midnightblue" stroke="midnightblue" points="376.94,-363.18 382.51,-372.2 383.78,-361.68 376.94,-363.18"/>
</g>
<!-- Node9 -->
<g id="node9" class="node">
<title>Node9</title>
<g id="a_node9"><a xlink:href="v3_2container_8h.html" target="_top" xlink:title=" ">
<polygon fill="white" stroke="black" points="317,-186.5 317,-242.5 498.02,-242.5 498.02,-186.5 317,-186.5"/>
<text text-anchor="start" x="325" y="-229.5" font-family="Helvetica,sans-Serif" font-size="10.00">/jenkins/jenlib_workspaces</text>
<text text-anchor="start" x="325" y="-217.5" font-family="Helvetica,sans-Serif" font-size="10.00">_f9/bld_nightly&#45;haldls.YmxkX25p</text>
<text text-anchor="start" x="325" y="-205.5" font-family="Helvetica,sans-Serif" font-size="10.00">Z2h0bHktaGFsZGxzIzEzNzk.x/haldls</text>
<text text-anchor="middle" x="407.51" y="-193.5" font-family="Helvetica,sans-Serif" font-size="10.00">/include/lola/vx/v3/container.h</text>
</a>
</g>
</g>
<!-- Node7&#45;&gt;Node9 -->
<g id="edge12" class="edge">
<title>Node7&#45;&gt;Node9</title>
<path fill="none" stroke="midnightblue" d="M444.56,-365.99C454.25,-357.49 462.97,-347.47 468.51,-336 479.53,-313.19 477.97,-302.5 468.51,-279 462.97,-265.24 452.87,-252.8 442.46,-242.64"/>
<polygon fill="midnightblue" stroke="midnightblue" points="442.15,-363.44 436.62,-372.48 446.58,-368.86 442.15,-363.44"/>
</g>
<!-- Node8&#45;&gt;Node9 -->
<g id="edge9" class="edge">
<title>Node8&#45;&gt;Node9</title>
<path fill="none" stroke="midnightblue" d="M384.16,-269.98C388.05,-260.9 392.15,-251.33 395.82,-242.78"/>
<polygon fill="midnightblue" stroke="midnightblue" points="380.93,-268.63 380.21,-279.2 387.37,-271.38 380.93,-268.63"/>
</g>
<!-- Node10 -->
<g id="node10" class="node">
<title>Node10</title>
<g id="a_node10"><a xlink:href="v3_2lola_8h.html" target="_top" xlink:title=" ">
<polygon fill="white" stroke="black" points="317,-93.5 317,-149.5 498.02,-149.5 498.02,-93.5 317,-93.5"/>
<text text-anchor="start" x="325" y="-136.5" font-family="Helvetica,sans-Serif" font-size="10.00">/jenkins/jenlib_workspaces</text>
<text text-anchor="start" x="325" y="-124.5" font-family="Helvetica,sans-Serif" font-size="10.00">_f9/bld_nightly&#45;haldls.YmxkX25p</text>
<text text-anchor="start" x="325" y="-112.5" font-family="Helvetica,sans-Serif" font-size="10.00">Z2h0bHktaGFsZGxzIzEzNzk.x/haldls</text>
<text text-anchor="middle" x="407.51" y="-100.5" font-family="Helvetica,sans-Serif" font-size="10.00">/include/lola/vx/v3/lola.h</text>
</a>
</g>
</g>
<!-- Node9&#45;&gt;Node10 -->
<g id="edge10" class="edge">
<title>Node9&#45;&gt;Node10</title>
<path fill="none" stroke="midnightblue" d="M407.51,-176.12C407.51,-167.3 407.51,-158.06 407.51,-149.78"/>
<polygon fill="midnightblue" stroke="midnightblue" points="404.01,-176.2 407.51,-186.2 411.01,-176.2 404.01,-176.2"/>
</g>
<!-- Node11 -->
<g id="node11" class="node">
<title>Node11</title>
<g id="a_node11"><a xlink:href="v3_2pylola_8h.html" target="_top" xlink:title=" ">
<polygon fill="white" stroke="black" points="317,-0.5 317,-56.5 498.02,-56.5 498.02,-0.5 317,-0.5"/>
<text text-anchor="start" x="325" y="-43.5" font-family="Helvetica,sans-Serif" font-size="10.00">/jenkins/jenlib_workspaces</text>
<text text-anchor="start" x="325" y="-31.5" font-family="Helvetica,sans-Serif" font-size="10.00">_f9/bld_nightly&#45;haldls.YmxkX25p</text>
<text text-anchor="start" x="325" y="-19.5" font-family="Helvetica,sans-Serif" font-size="10.00">Z2h0bHktaGFsZGxzIzEzNzk.x/haldls</text>
<text text-anchor="middle" x="407.51" y="-7.5" font-family="Helvetica,sans-Serif" font-size="10.00">/include/lola/vx/v3/pylola.h</text>
</a>
</g>
</g>
<!-- Node10&#45;&gt;Node11 -->
<g id="edge11" class="edge">
<title>Node10&#45;&gt;Node11</title>
<path fill="none" stroke="midnightblue" d="M407.51,-83.12C407.51,-74.3 407.51,-65.06 407.51,-56.78"/>
<polygon fill="midnightblue" stroke="midnightblue" points="404.01,-83.2 407.51,-93.2 411.01,-83.2 404.01,-83.2"/>
</g>
</g>
</svg>
