<?xml version="1.0" encoding="UTF-8" standalone="no"?>
<!DOCTYPE svg PUBLIC "-//W3C//DTD SVG 1.1//EN"
 "http://www.w3.org/Graphics/SVG/1.1/DTD/svg11.dtd">
<!-- Generated by graphviz version 2.46.0 (0)
 -->
<!-- Title: haldls::vx::detail::BackendContainerTrait&lt; lola::vx::CHIP_REVISION_STR::CADCReadoutChain &gt; Pages: 1 -->
<svg width="359pt" height="89pt"
 viewBox="0.00 0.00 359.10 89.00" xmlns="http://www.w3.org/2000/svg" xmlns:xlink="http://www.w3.org/1999/xlink">
<g id="graph0" class="graph" transform="scale(1 1) rotate(0) translate(4 85)">
<title>haldls::vx::detail::BackendContainerTrait&lt; lola::vx::CHIP_REVISION_STR::CADCReadoutChain &gt;</title>
<polygon fill="white" stroke="transparent" points="-4,4 -4,-85 355.1,-85 355.1,4 -4,4"/>
<!-- Node1 -->
<g id="node1" class="node">
<title>Node1</title>
<g id="a_node1"><a xlink:title=" ">
<polygon fill="#bfbfbf" stroke="black" points="203.14,-12.5 203.14,-68.5 351.1,-68.5 351.1,-12.5 203.14,-12.5"/>
<text text-anchor="start" x="211.14" y="-55.5" font-family="Helvetica,sans-Serif" font-size="10.00">haldls::vx::detail</text>
<text text-anchor="start" x="211.14" y="-43.5" font-family="Helvetica,sans-Serif" font-size="10.00">::BackendContainerTrait</text>
<text text-anchor="start" x="211.14" y="-31.5" font-family="Helvetica,sans-Serif" font-size="10.00">&lt; lola::vx::CHIP_REVISION</text>
<text text-anchor="middle" x="277.12" y="-19.5" font-family="Helvetica,sans-Serif" font-size="10.00">_STR::CADCReadoutChain &gt;</text>
</a>
</g>
</g>
<!-- Node2 -->
<g id="node2" class="node">
<title>Node2</title>
<g id="a_node2"><a xlink:title=" ">
<polygon fill="white" stroke="#bfbfbf" points="0,-0.5 0,-80.5 167.14,-80.5 167.14,-0.5 0,-0.5"/>
<text text-anchor="start" x="8" y="-67.5" font-family="Helvetica,sans-Serif" font-size="10.00">BackendContainerBase</text>
<text text-anchor="start" x="8" y="-55.5" font-family="Helvetica,sans-Serif" font-size="10.00">&lt; lola::vx::CHIP_REVISION</text>
<text text-anchor="start" x="8" y="-43.5" font-family="Helvetica,sans-Serif" font-size="10.00">_STR::CADCReadoutChain,</text>
<text text-anchor="start" x="8" y="-31.5" font-family="Helvetica,sans-Serif" font-size="10.00"> fisch::vx::word_access_type</text>
<text text-anchor="start" x="8" y="-19.5" font-family="Helvetica,sans-Serif" font-size="10.00">::Omnibus, fisch::vx::word_access</text>
<text text-anchor="middle" x="83.57" y="-7.5" font-family="Helvetica,sans-Serif" font-size="10.00">_type::OmnibusChipOverJTAG &gt;</text>
</a>
</g>
</g>
<!-- Node2&#45;&gt;Node1 -->
<g id="edge1" class="edge">
<title>Node2&#45;&gt;Node1</title>
<path fill="none" stroke="midnightblue" d="M177.32,-40.5C185.98,-40.5 194.67,-40.5 203.11,-40.5"/>
<polygon fill="midnightblue" stroke="midnightblue" points="177.19,-37 167.19,-40.5 177.19,-44 177.19,-37"/>
</g>
</g>
</svg>
