<?xml version="1.0" encoding="UTF-8" standalone="no"?>
<!DOCTYPE svg PUBLIC "-//W3C//DTD SVG 1.1//EN"
 "http://www.w3.org/Graphics/SVG/1.1/DTD/svg11.dtd">
<!-- Generated by graphviz version 2.46.0 (0)
 -->
<!-- Title: haldls::vx::detail::BackendContainerTrait&lt; lola::vx::DACControlBlock &gt; Pages: 1 -->
<svg width="335pt" height="65pt"
 viewBox="0.00 0.00 334.94 65.00" xmlns="http://www.w3.org/2000/svg" xmlns:xlink="http://www.w3.org/1999/xlink">
<g id="graph0" class="graph" transform="scale(1 1) rotate(0) translate(4 61)">
<title>haldls::vx::detail::BackendContainerTrait&lt; lola::vx::DACControlBlock &gt;</title>
<polygon fill="white" stroke="transparent" points="-4,4 -4,-61 330.94,-61 330.94,4 -4,4"/>
<!-- Node1 -->
<g id="node1" class="node">
<title>Node1</title>
<g id="a_node1"><a xlink:title=" ">
<polygon fill="#bfbfbf" stroke="black" points="179.25,-6.5 179.25,-50.5 326.94,-50.5 326.94,-6.5 179.25,-6.5"/>
<text text-anchor="start" x="187.25" y="-37.5" font-family="Helvetica,sans-Serif" font-size="10.00">haldls::vx::detail</text>
<text text-anchor="start" x="187.25" y="-25.5" font-family="Helvetica,sans-Serif" font-size="10.00">::BackendContainerTrait</text>
<text text-anchor="middle" x="253.09" y="-13.5" font-family="Helvetica,sans-Serif" font-size="10.00">&lt; lola::vx::DACControlBlock &gt;</text>
</a>
</g>
</g>
<!-- Node2 -->
<g id="node2" class="node">
<title>Node2</title>
<g id="a_node2"><a xlink:title=" ">
<polygon fill="white" stroke="#bfbfbf" points="0,-0.5 0,-56.5 143.25,-56.5 143.25,-0.5 0,-0.5"/>
<text text-anchor="start" x="8" y="-43.5" font-family="Helvetica,sans-Serif" font-size="10.00">BackendContainerBase</text>
<text text-anchor="start" x="8" y="-31.5" font-family="Helvetica,sans-Serif" font-size="10.00">&lt; lola::vx::DACControlBlock,</text>
<text text-anchor="start" x="8" y="-19.5" font-family="Helvetica,sans-Serif" font-size="10.00"> fisch::vx::word_access_type</text>
<text text-anchor="middle" x="71.63" y="-7.5" font-family="Helvetica,sans-Serif" font-size="10.00">::SPIDACControlRegister &gt;</text>
</a>
</g>
</g>
<!-- Node2&#45;&gt;Node1 -->
<g id="edge1" class="edge">
<title>Node2&#45;&gt;Node1</title>
<path fill="none" stroke="midnightblue" d="M153.32,-28.5C161.92,-28.5 170.62,-28.5 179.13,-28.5"/>
<polygon fill="midnightblue" stroke="midnightblue" points="153.3,-25 143.3,-28.5 153.3,-32 153.3,-25"/>
</g>
</g>
</svg>
