<?xml version="1.0" encoding="UTF-8" standalone="no"?>
<!DOCTYPE svg PUBLIC "-//W3C//DTD SVG 1.1//EN"
 "http://www.w3.org/Graphics/SVG/1.1/DTD/svg11.dtd">
<!-- Generated by graphviz version 2.46.0 (0)
 -->
<!-- Title: haldls::vx::detail::BackendContainerTrait&lt; lola::vx::CHIP_REVISION_STR::CADCSampleRow &gt; Pages: 1 -->
<svg width="357pt" height="65pt"
 viewBox="0.00 0.00 356.61 65.00" xmlns="http://www.w3.org/2000/svg" xmlns:xlink="http://www.w3.org/1999/xlink">
<g id="graph0" class="graph" transform="scale(1 1) rotate(0) translate(4 61)">
<title>haldls::vx::detail::BackendContainerTrait&lt; lola::vx::CHIP_REVISION_STR::CADCSampleRow &gt;</title>
<polygon fill="white" stroke="transparent" points="-4,4 -4,-61 352.61,-61 352.61,4 -4,4"/>
<!-- Node1 -->
<g id="node1" class="node">
<title>Node1</title>
<g id="a_node1"><a xlink:title=" ">
<polygon fill="#bfbfbf" stroke="black" points="210.1,-0.5 210.1,-56.5 348.61,-56.5 348.61,-0.5 210.1,-0.5"/>
<text text-anchor="start" x="218.1" y="-43.5" font-family="Helvetica,sans-Serif" font-size="10.00">haldls::vx::detail</text>
<text text-anchor="start" x="218.1" y="-31.5" font-family="Helvetica,sans-Serif" font-size="10.00">::BackendContainerTrait</text>
<text text-anchor="start" x="218.1" y="-19.5" font-family="Helvetica,sans-Serif" font-size="10.00">&lt; lola::vx::CHIP_REVISION</text>
<text text-anchor="middle" x="279.35" y="-7.5" font-family="Helvetica,sans-Serif" font-size="10.00">_STR::CADCSampleRow &gt;</text>
</a>
</g>
</g>
<!-- Node2 -->
<g id="node2" class="node">
<title>Node2</title>
<g id="a_node2"><a xlink:title=" ">
<polygon fill="white" stroke="#bfbfbf" points="0,-0.5 0,-56.5 174.1,-56.5 174.1,-0.5 0,-0.5"/>
<text text-anchor="start" x="8" y="-43.5" font-family="Helvetica,sans-Serif" font-size="10.00">BackendContainerBase</text>
<text text-anchor="start" x="8" y="-31.5" font-family="Helvetica,sans-Serif" font-size="10.00">&lt; lola::vx::CHIP_REVISION</text>
<text text-anchor="start" x="8" y="-19.5" font-family="Helvetica,sans-Serif" font-size="10.00">_STR::CADCSampleRow, fisch</text>
<text text-anchor="middle" x="87.05" y="-7.5" font-family="Helvetica,sans-Serif" font-size="10.00">::vx::word_access_type::Omnibus &gt;</text>
</a>
</g>
</g>
<!-- Node2&#45;&gt;Node1 -->
<g id="edge1" class="edge">
<title>Node2&#45;&gt;Node1</title>
<path fill="none" stroke="midnightblue" d="M184.44,-28.5C193.1,-28.5 201.74,-28.5 210.09,-28.5"/>
<polygon fill="midnightblue" stroke="midnightblue" points="184.29,-25 174.29,-28.5 184.29,-32 184.29,-25"/>
</g>
</g>
</svg>
