<?xml version="1.0" encoding="UTF-8" standalone="no"?>
<!DOCTYPE svg PUBLIC "-//W3C//DTD SVG 1.1//EN"
 "http://www.w3.org/Graphics/SVG/1.1/DTD/svg11.dtd">
<!-- Generated by graphviz version 2.46.0 (0)
 -->
<!-- Title: haldls::vx::detail::BackendContainerTrait&lt; lola::vx::SynapseCorrelationCalibRow &gt; Pages: 1 -->
<svg width="435pt" height="77pt"
 viewBox="0.00 0.00 434.96 77.00" xmlns="http://www.w3.org/2000/svg" xmlns:xlink="http://www.w3.org/1999/xlink">
<g id="graph0" class="graph" transform="scale(1 1) rotate(0) translate(4 73)">
<title>haldls::vx::detail::BackendContainerTrait&lt; lola::vx::SynapseCorrelationCalibRow &gt;</title>
<polygon fill="white" stroke="transparent" points="-4,4 -4,-73 430.96,-73 430.96,4 -4,4"/>
<!-- Node1 -->
<g id="node1" class="node">
<title>Node1</title>
<g id="a_node1"><a xlink:title=" ">
<polygon fill="#bfbfbf" stroke="black" points="277.88,-6.5 277.88,-62.5 426.96,-62.5 426.96,-6.5 277.88,-6.5"/>
<text text-anchor="start" x="285.88" y="-49.5" font-family="Helvetica,sans-Serif" font-size="10.00">haldls::vx::detail</text>
<text text-anchor="start" x="285.88" y="-37.5" font-family="Helvetica,sans-Serif" font-size="10.00">::BackendContainerTrait</text>
<text text-anchor="start" x="285.88" y="-25.5" font-family="Helvetica,sans-Serif" font-size="10.00">&lt; lola::vx::SynapseCorrelation</text>
<text text-anchor="middle" x="352.42" y="-13.5" font-family="Helvetica,sans-Serif" font-size="10.00">CalibRow &gt;</text>
</a>
</g>
</g>
<!-- Node2 -->
<g id="node2" class="node">
<title>Node2</title>
<g id="a_node2"><a xlink:title=" ">
<polygon fill="white" stroke="#bfbfbf" points="0,-0.5 0,-68.5 241.88,-68.5 241.88,-0.5 0,-0.5"/>
<text text-anchor="start" x="8" y="-55.5" font-family="Helvetica,sans-Serif" font-size="10.00">BackendContainerBase</text>
<text text-anchor="start" x="8" y="-43.5" font-family="Helvetica,sans-Serif" font-size="10.00">&lt; lola::vx::SynapseCorrelation</text>
<text text-anchor="start" x="8" y="-31.5" font-family="Helvetica,sans-Serif" font-size="10.00">CalibRow, fisch::vx::word</text>
<text text-anchor="start" x="8" y="-19.5" font-family="Helvetica,sans-Serif" font-size="10.00">_access_type::Omnibus, fisch</text>
<text text-anchor="middle" x="120.94" y="-7.5" font-family="Helvetica,sans-Serif" font-size="10.00">::vx::word_access_type::OmnibusChipOverJTAG &gt;</text>
</a>
</g>
</g>
<!-- Node2&#45;&gt;Node1 -->
<g id="edge1" class="edge">
<title>Node2&#45;&gt;Node1</title>
<path fill="none" stroke="midnightblue" d="M252.27,-34.5C260.94,-34.5 269.48,-34.5 277.7,-34.5"/>
<polygon fill="midnightblue" stroke="midnightblue" points="252.05,-31 242.05,-34.5 252.05,-38 252.05,-31"/>
</g>
</g>
</svg>
