<?xml version="1.0" encoding="UTF-8" standalone="no"?>
<!DOCTYPE svg PUBLIC "-//W3C//DTD SVG 1.1//EN"
 "http://www.w3.org/Graphics/SVG/1.1/DTD/svg11.dtd">
<!-- Generated by graphviz version 2.46.0 (0)
 -->
<!-- Title: /jenkins/jenlib_workspaces_f9/bld_nightly&#45;haldls.YmxkX25pZ2h0bHktaGFsZGxzIzEzNzk.x/haldls/include/lola/vx/v2/routing_crossbar.h Pages: 1 -->
<svg width="1029pt" height="191pt"
 viewBox="0.00 0.00 1029.36 191.00" xmlns="http://www.w3.org/2000/svg" xmlns:xlink="http://www.w3.org/1999/xlink">
<g id="graph0" class="graph" transform="scale(1 1) rotate(0) translate(4 187)">
<title>/jenkins/jenlib_workspaces_f9/bld_nightly&#45;haldls.YmxkX25pZ2h0bHktaGFsZGxzIzEzNzk.x/haldls/include/lola/vx/v2/routing_crossbar.h</title>
<polygon fill="white" stroke="transparent" points="-4,4 -4,-187 1025.36,-187 1025.36,4 -4,4"/>
<!-- Node1 -->
<g id="node1" class="node">
<title>Node1</title>
<g id="a_node1"><a xlink:title=" ">
<polygon fill="#bfbfbf" stroke="black" points="152.28,-126.5 152.28,-182.5 333.3,-182.5 333.3,-126.5 152.28,-126.5"/>
<text text-anchor="start" x="160.28" y="-169.5" font-family="Helvetica,sans-Serif" font-size="10.00">/jenkins/jenlib_workspaces</text>
<text text-anchor="start" x="160.28" y="-157.5" font-family="Helvetica,sans-Serif" font-size="10.00">_f9/bld_nightly&#45;haldls.YmxkX25p</text>
<text text-anchor="start" x="160.28" y="-145.5" font-family="Helvetica,sans-Serif" font-size="10.00">Z2h0bHktaGFsZGxzIzEzNzk.x/haldls</text>
<text text-anchor="middle" x="242.79" y="-133.5" font-family="Helvetica,sans-Serif" font-size="10.00">/include/lola/vx/v2/routing_crossbar.h</text>
</a>
</g>
</g>
<!-- Node2 -->
<g id="node2" class="node">
<title>Node2</title>
<g id="a_node2"><a xlink:href="genpybind_8h.html" target="_top" xlink:title=" ">
<polygon fill="white" stroke="black" points="0,-6.5 0,-26.5 101.58,-26.5 101.58,-6.5 0,-6.5"/>
<text text-anchor="middle" x="50.79" y="-13.5" font-family="Helvetica,sans-Serif" font-size="10.00">lola/vx/genpybind.h</text>
</a>
</g>
</g>
<!-- Node1&#45;&gt;Node2 -->
<g id="edge1" class="edge">
<title>Node1&#45;&gt;Node2</title>
<path fill="none" stroke="midnightblue" d="M204.4,-126.31C164.59,-98.11 103.8,-55.05 71.94,-32.48"/>
<polygon fill="midnightblue" stroke="midnightblue" points="73.95,-29.62 63.77,-26.69 69.91,-35.33 73.95,-29.62"/>
</g>
<!-- Node3 -->
<g id="node3" class="node">
<title>Node3</title>
<g id="a_node3"><a xlink:href="routing__crossbar_8h.html" target="_top" xlink:title=" ">
<polygon fill="white" stroke="black" points="370.84,-69.5 370.84,-89.5 500.75,-89.5 500.75,-69.5 370.84,-69.5"/>
<text text-anchor="middle" x="435.79" y="-76.5" font-family="Helvetica,sans-Serif" font-size="10.00">lola/vx/routing_crossbar.h</text>
</a>
</g>
</g>
<!-- Node1&#45;&gt;Node3 -->
<g id="edge3" class="edge">
<title>Node1&#45;&gt;Node3</title>
<path fill="none" stroke="midnightblue" d="M314.38,-126.42C344.56,-115.01 378.21,-102.28 402.42,-93.12"/>
<polygon fill="midnightblue" stroke="midnightblue" points="403.75,-96.36 411.86,-89.55 401.27,-89.82 403.75,-96.36"/>
</g>
<!-- Node2&#45;&gt;Node2 -->
<g id="edge2" class="edge">
<title>Node2&#45;&gt;Node2</title>
<path fill="none" stroke="midnightblue" d="M77.27,-26.56C98.15,-30.45 119.58,-27.1 119.58,-16.5 119.58,-7.64 104.61,-3.85 87.49,-5.11"/>
<polygon fill="midnightblue" stroke="midnightblue" points="86.73,-1.68 77.27,-6.44 87.63,-8.62 86.73,-1.68"/>
</g>
<!-- Node3&#45;&gt;Node2 -->
<g id="edge10" class="edge">
<title>Node3&#45;&gt;Node2</title>
<path fill="none" stroke="midnightblue" d="M370.66,-69.79C308.42,-61.24 212.01,-47.43 128.79,-33 120.86,-31.63 112.5,-30.07 104.31,-28.49"/>
<polygon fill="midnightblue" stroke="midnightblue" points="104.94,-25.05 94.45,-26.57 103.59,-31.92 104.94,-25.05"/>
</g>
<!-- Node4 -->
<g id="node4" class="node">
<title>Node4</title>
<g id="a_node4"><a xlink:title=" ">
<polygon fill="white" stroke="#bfbfbf" points="137.67,-0.5 137.67,-32.5 245.91,-32.5 245.91,-0.5 137.67,-0.5"/>
<text text-anchor="start" x="145.67" y="-19.5" font-family="Helvetica,sans-Serif" font-size="10.00">halco/common/typed</text>
<text text-anchor="middle" x="191.79" y="-7.5" font-family="Helvetica,sans-Serif" font-size="10.00">_array.h</text>
</a>
</g>
</g>
<!-- Node3&#45;&gt;Node4 -->
<g id="edge4" class="edge">
<title>Node3&#45;&gt;Node4</title>
<path fill="none" stroke="midnightblue" d="M399.79,-69.5C362,-60.05 301.81,-45 255.88,-33.52"/>
<polygon fill="midnightblue" stroke="midnightblue" points="256.56,-30.08 246.01,-31.05 254.86,-36.88 256.56,-30.08"/>
</g>
<!-- Node5 -->
<g id="node5" class="node">
<title>Node5</title>
<g id="a_node5"><a xlink:title=" ">
<polygon fill="white" stroke="#bfbfbf" points="264.01,-0.5 264.01,-32.5 365.58,-32.5 365.58,-0.5 264.01,-0.5"/>
<text text-anchor="start" x="272.01" y="-19.5" font-family="Helvetica,sans-Serif" font-size="10.00">halco/hicann&#45;dls/vx</text>
<text text-anchor="middle" x="314.79" y="-7.5" font-family="Helvetica,sans-Serif" font-size="10.00">/routing_crossbar.h</text>
</a>
</g>
</g>
<!-- Node3&#45;&gt;Node5 -->
<g id="edge5" class="edge">
<title>Node3&#45;&gt;Node5</title>
<path fill="none" stroke="midnightblue" d="M417.94,-69.5C401.14,-61.03 375.42,-48.07 353.87,-37.2"/>
<polygon fill="midnightblue" stroke="midnightblue" points="355.43,-34.07 344.93,-32.69 352.28,-40.32 355.43,-34.07"/>
</g>
<!-- Node6 -->
<g id="node6" class="node">
<title>Node6</title>
<g id="a_node6"><a xlink:title=" ">
<polygon fill="white" stroke="#bfbfbf" points="383.62,-6.5 383.62,-26.5 487.97,-26.5 487.97,-6.5 383.62,-6.5"/>
<text text-anchor="middle" x="435.79" y="-13.5" font-family="Helvetica,sans-Serif" font-size="10.00">haldls/vx/common.h</text>
</a>
</g>
</g>
<!-- Node3&#45;&gt;Node6 -->
<g id="edge6" class="edge">
<title>Node3&#45;&gt;Node6</title>
<path fill="none" stroke="midnightblue" d="M435.79,-69.5C435.79,-60.94 435.79,-47.78 435.79,-36.85"/>
<polygon fill="midnightblue" stroke="midnightblue" points="439.29,-36.54 435.79,-26.54 432.29,-36.54 439.29,-36.54"/>
</g>
<!-- Node7 -->
<g id="node7" class="node">
<title>Node7</title>
<g id="a_node7"><a xlink:title=" ">
<polygon fill="white" stroke="#bfbfbf" points="505.56,-6.5 505.56,-26.5 646.03,-26.5 646.03,-6.5 505.56,-6.5"/>
<text text-anchor="middle" x="575.79" y="-13.5" font-family="Helvetica,sans-Serif" font-size="10.00">haldls/vx/routing_crossbar.h</text>
</a>
</g>
</g>
<!-- Node3&#45;&gt;Node7 -->
<g id="edge7" class="edge">
<title>Node3&#45;&gt;Node7</title>
<path fill="none" stroke="midnightblue" d="M456.45,-69.5C480.02,-59.23 518.79,-42.34 545.72,-30.6"/>
<polygon fill="midnightblue" stroke="midnightblue" points="547.28,-33.74 555.05,-26.54 544.48,-27.32 547.28,-33.74"/>
</g>
<!-- Node8 -->
<g id="node8" class="node">
<title>Node8</title>
<g id="a_node8"><a xlink:title=" ">
<polygon fill="white" stroke="#bfbfbf" points="664.29,-6.5 664.29,-26.5 745.3,-26.5 745.3,-6.5 664.29,-6.5"/>
<text text-anchor="middle" x="704.79" y="-13.5" font-family="Helvetica,sans-Serif" font-size="10.00">hate/visibility.h</text>
</a>
</g>
</g>
<!-- Node3&#45;&gt;Node8 -->
<g id="edge8" class="edge">
<title>Node3&#45;&gt;Node8</title>
<path fill="none" stroke="midnightblue" d="M486.12,-69.46C530.71,-61.12 597.45,-47.81 654.79,-33 658.95,-31.93 663.28,-30.72 667.57,-29.47"/>
<polygon fill="midnightblue" stroke="midnightblue" points="668.85,-32.74 677.42,-26.5 666.83,-26.03 668.85,-32.74"/>
</g>
<!-- Node9 -->
<g id="node9" class="node">
<title>Node9</title>
<g id="a_node9"><a xlink:title=" ">
<polygon fill="white" stroke="#bfbfbf" points="763.17,-6.5 763.17,-26.5 866.41,-26.5 866.41,-6.5 763.17,-6.5"/>
<text text-anchor="middle" x="814.79" y="-13.5" font-family="Helvetica,sans-Serif" font-size="10.00">hxcomm/vx/target.h</text>
</a>
</g>
</g>
<!-- Node3&#45;&gt;Node9 -->
<g id="edge9" class="edge">
<title>Node3&#45;&gt;Node9</title>
<path fill="none" stroke="midnightblue" d="M500.91,-71.36C565.64,-63.76 667.57,-50.43 754.79,-33 760.6,-31.84 766.69,-30.46 772.67,-29.01"/>
<polygon fill="midnightblue" stroke="midnightblue" points="773.71,-32.36 782.56,-26.53 772.01,-25.57 773.71,-32.36"/>
</g>
<!-- Node10 -->
<g id="node10" class="node">
<title>Node10</title>
<g id="a_node10"><a xlink:title=" ">
<polygon fill="white" stroke="#bfbfbf" points="884.23,-6.5 884.23,-26.5 1021.36,-26.5 1021.36,-6.5 884.23,-6.5"/>
<text text-anchor="middle" x="952.79" y="-13.5" font-family="Helvetica,sans-Serif" font-size="10.00">lola/vx/routing_crossbar.tcc</text>
</a>
</g>
</g>
<!-- Node3&#45;&gt;Node10 -->
<g id="edge11" class="edge">
<title>Node3&#45;&gt;Node10</title>
<path fill="none" stroke="midnightblue" d="M500.9,-73.72C587,-66.96 743.3,-53.14 875.79,-33 884.22,-31.72 893.13,-30.14 901.77,-28.48"/>
<polygon fill="midnightblue" stroke="midnightblue" points="902.63,-31.88 911.76,-26.52 901.27,-25.01 902.63,-31.88"/>
</g>
</g>
</svg>
