<?xml version="1.0" encoding="UTF-8" standalone="no"?>
<!DOCTYPE svg PUBLIC "-//W3C//DTD SVG 1.1//EN"
 "http://www.w3.org/Graphics/SVG/1.1/DTD/svg11.dtd">
<!-- Generated by graphviz version 2.46.0 (0)
 -->
<!-- Title: /jenkins/jenlib_workspaces_f9/bld_nightly&#45;haldls.YmxkX25pZ2h0bHktaGFsZGxzIzEzNzk.x/haldls/include/lola/vx/v3/synapse.h Pages: 1 -->
<svg width="1385pt" height="248pt"
 viewBox="0.00 0.00 1385.15 248.00" xmlns="http://www.w3.org/2000/svg" xmlns:xlink="http://www.w3.org/1999/xlink">
<g id="graph0" class="graph" transform="scale(1 1) rotate(0) translate(4 244)">
<title>/jenkins/jenlib_workspaces_f9/bld_nightly&#45;haldls.YmxkX25pZ2h0bHktaGFsZGxzIzEzNzk.x/haldls/include/lola/vx/v3/synapse.h</title>
<polygon fill="white" stroke="transparent" points="-4,4 -4,-244 1381.15,-244 1381.15,4 -4,4"/>
<!-- Node1 -->
<g id="node1" class="node">
<title>Node1</title>
<g id="a_node1"><a xlink:title=" ">
<polygon fill="#bfbfbf" stroke="black" points="289.28,-183.5 289.28,-239.5 470.3,-239.5 470.3,-183.5 289.28,-183.5"/>
<text text-anchor="start" x="297.28" y="-226.5" font-family="Helvetica,sans-Serif" font-size="10.00">/jenkins/jenlib_workspaces</text>
<text text-anchor="start" x="297.28" y="-214.5" font-family="Helvetica,sans-Serif" font-size="10.00">_f9/bld_nightly&#45;haldls.YmxkX25p</text>
<text text-anchor="start" x="297.28" y="-202.5" font-family="Helvetica,sans-Serif" font-size="10.00">Z2h0bHktaGFsZGxzIzEzNzk.x/haldls</text>
<text text-anchor="middle" x="379.79" y="-190.5" font-family="Helvetica,sans-Serif" font-size="10.00">/include/lola/vx/v3/synapse.h</text>
</a>
</g>
</g>
<!-- Node2 -->
<g id="node2" class="node">
<title>Node2</title>
<g id="a_node2"><a xlink:href="genpybind_8h.html" target="_top" xlink:title=" ">
<polygon fill="white" stroke="black" points="0,-63.5 0,-83.5 101.58,-83.5 101.58,-63.5 0,-63.5"/>
<text text-anchor="middle" x="50.79" y="-70.5" font-family="Helvetica,sans-Serif" font-size="10.00">lola/vx/genpybind.h</text>
</a>
</g>
</g>
<!-- Node1&#45;&gt;Node2 -->
<g id="edge1" class="edge">
<title>Node1&#45;&gt;Node2</title>
<path fill="none" stroke="midnightblue" d="M314.4,-183.47C244.16,-154.43 135.47,-109.51 82.29,-87.52"/>
<polygon fill="midnightblue" stroke="midnightblue" points="83.3,-84.15 72.72,-83.56 80.62,-90.62 83.3,-84.15"/>
</g>
<!-- Node3 -->
<g id="node3" class="node">
<title>Node3</title>
<g id="a_node3"><a xlink:href="synapse_8h.html" target="_top" xlink:title=" ">
<polygon fill="white" stroke="black" points="600.45,-126.5 600.45,-146.5 693.14,-146.5 693.14,-126.5 600.45,-126.5"/>
<text text-anchor="middle" x="646.79" y="-133.5" font-family="Helvetica,sans-Serif" font-size="10.00">lola/vx/synapse.h</text>
</a>
</g>
</g>
<!-- Node1&#45;&gt;Node3 -->
<g id="edge3" class="edge">
<title>Node1&#45;&gt;Node3</title>
<path fill="none" stroke="midnightblue" d="M470.56,-185.68C515.75,-173.33 568.24,-158.98 604.1,-149.17"/>
<polygon fill="midnightblue" stroke="midnightblue" points="605.03,-152.55 613.76,-146.53 603.19,-145.79 605.03,-152.55"/>
</g>
<!-- Node2&#45;&gt;Node2 -->
<g id="edge2" class="edge">
<title>Node2&#45;&gt;Node2</title>
<path fill="none" stroke="midnightblue" d="M77.27,-83.56C98.15,-87.45 119.58,-84.1 119.58,-73.5 119.58,-64.64 104.61,-60.85 87.49,-62.11"/>
<polygon fill="midnightblue" stroke="midnightblue" points="86.73,-58.68 77.27,-63.44 87.63,-65.62 86.73,-58.68"/>
</g>
<!-- Node3&#45;&gt;Node2 -->
<g id="edge16" class="edge">
<title>Node3&#45;&gt;Node2</title>
<path fill="none" stroke="midnightblue" d="M600.16,-133.11C509.18,-128.06 301.72,-114.7 128.79,-90 120.05,-88.75 110.81,-87.16 101.87,-85.47"/>
<polygon fill="midnightblue" stroke="midnightblue" points="102.42,-82.02 91.94,-83.54 101.09,-88.89 102.42,-82.02"/>
</g>
<!-- Node4 -->
<g id="node4" class="node">
<title>Node4</title>
<g id="a_node4"><a xlink:title=" ">
<polygon fill="white" stroke="#bfbfbf" points="138.01,-63.5 138.01,-83.5 259.58,-83.5 259.58,-63.5 138.01,-63.5"/>
<text text-anchor="middle" x="198.79" y="-70.5" font-family="Helvetica,sans-Serif" font-size="10.00">halco/common/iter_all.h</text>
</a>
</g>
</g>
<!-- Node3&#45;&gt;Node4 -->
<g id="edge4" class="edge">
<title>Node3&#45;&gt;Node4</title>
<path fill="none" stroke="midnightblue" d="M600.32,-131.39C528.79,-124.72 387.54,-110.24 268.79,-90 261.54,-88.76 253.9,-87.27 246.44,-85.71"/>
<polygon fill="midnightblue" stroke="midnightblue" points="246.95,-82.24 236.44,-83.55 245.48,-89.08 246.95,-82.24"/>
</g>
<!-- Node5 -->
<g id="node5" class="node">
<title>Node5</title>
<g id="a_node5"><a xlink:title=" ">
<polygon fill="white" stroke="#bfbfbf" points="277.67,-57.5 277.67,-89.5 385.91,-89.5 385.91,-57.5 277.67,-57.5"/>
<text text-anchor="start" x="285.67" y="-76.5" font-family="Helvetica,sans-Serif" font-size="10.00">halco/common/typed</text>
<text text-anchor="middle" x="331.79" y="-64.5" font-family="Helvetica,sans-Serif" font-size="10.00">_array.h</text>
</a>
</g>
</g>
<!-- Node3&#45;&gt;Node5 -->
<g id="edge5" class="edge">
<title>Node3&#45;&gt;Node5</title>
<path fill="none" stroke="midnightblue" d="M600.18,-127.98C551.55,-119.94 472.88,-106.37 395.9,-90.17"/>
<polygon fill="midnightblue" stroke="midnightblue" points="396.55,-86.73 386.04,-88.07 395.09,-93.57 396.55,-86.73"/>
</g>
<!-- Node6 -->
<g id="node6" class="node">
<title>Node6</title>
<g id="a_node6"><a xlink:title=" ">
<polygon fill="white" stroke="#bfbfbf" points="403.67,-57.5 403.67,-89.5 511.91,-89.5 511.91,-57.5 403.67,-57.5"/>
<text text-anchor="start" x="411.67" y="-76.5" font-family="Helvetica,sans-Serif" font-size="10.00">halco/common/typed</text>
<text text-anchor="middle" x="457.79" y="-64.5" font-family="Helvetica,sans-Serif" font-size="10.00">_heap_array.h</text>
</a>
</g>
</g>
<!-- Node3&#45;&gt;Node6 -->
<g id="edge6" class="edge">
<title>Node3&#45;&gt;Node6</title>
<path fill="none" stroke="midnightblue" d="M618.9,-126.5C591.52,-117.66 548.96,-103.92 514.45,-92.79"/>
<polygon fill="midnightblue" stroke="midnightblue" points="515.08,-89.31 504.49,-89.57 512.93,-95.97 515.08,-89.31"/>
</g>
<!-- Node7 -->
<g id="node7" class="node">
<title>Node7</title>
<g id="a_node7"><a xlink:title=" ">
<polygon fill="white" stroke="#bfbfbf" points="530.12,-63.5 530.12,-83.5 639.47,-83.5 639.47,-63.5 530.12,-63.5"/>
<text text-anchor="middle" x="584.79" y="-70.5" font-family="Helvetica,sans-Serif" font-size="10.00">haldls/cerealization.h</text>
</a>
</g>
</g>
<!-- Node3&#45;&gt;Node7 -->
<g id="edge7" class="edge">
<title>Node3&#45;&gt;Node7</title>
<path fill="none" stroke="midnightblue" d="M637.64,-126.5C628.12,-117.13 613,-102.25 601.36,-90.8"/>
<polygon fill="midnightblue" stroke="midnightblue" points="603.56,-88.06 593.98,-83.54 598.65,-93.05 603.56,-88.06"/>
</g>
<!-- Node8 -->
<g id="node8" class="node">
<title>Node8</title>
<g id="a_node8"><a xlink:title=" ">
<polygon fill="white" stroke="#bfbfbf" points="657.62,-63.5 657.62,-83.5 761.96,-83.5 761.96,-63.5 657.62,-63.5"/>
<text text-anchor="middle" x="709.79" y="-70.5" font-family="Helvetica,sans-Serif" font-size="10.00">haldls/vx/common.h</text>
</a>
</g>
</g>
<!-- Node3&#45;&gt;Node8 -->
<g id="edge8" class="edge">
<title>Node3&#45;&gt;Node8</title>
<path fill="none" stroke="midnightblue" d="M656.09,-126.5C665.77,-117.13 681.13,-102.25 692.95,-90.8"/>
<polygon fill="midnightblue" stroke="midnightblue" points="695.71,-93.01 700.46,-83.54 690.84,-87.98 695.71,-93.01"/>
</g>
<!-- Node9 -->
<g id="node9" class="node">
<title>Node9</title>
<g id="a_node9"><a xlink:title=" ">
<polygon fill="white" stroke="#bfbfbf" points="780.17,-63.5 780.17,-83.5 883.42,-83.5 883.42,-63.5 780.17,-63.5"/>
<text text-anchor="middle" x="831.79" y="-70.5" font-family="Helvetica,sans-Serif" font-size="10.00">haldls/vx/synapse.h</text>
</a>
</g>
</g>
<!-- Node3&#45;&gt;Node9 -->
<g id="edge9" class="edge">
<title>Node3&#45;&gt;Node9</title>
<path fill="none" stroke="midnightblue" d="M674.09,-126.5C706.06,-115.96 759.18,-98.44 794.82,-86.69"/>
<polygon fill="midnightblue" stroke="midnightblue" points="795.98,-89.99 804.38,-83.54 793.79,-83.35 795.98,-89.99"/>
</g>
<!-- Node10 -->
<g id="node10" class="node">
<title>Node10</title>
<g id="a_node10"><a xlink:title=" ">
<polygon fill="white" stroke="#bfbfbf" points="900.95,-63.5 900.95,-83.5 988.63,-83.5 988.63,-63.5 900.95,-63.5"/>
<text text-anchor="middle" x="944.79" y="-70.5" font-family="Helvetica,sans-Serif" font-size="10.00">haldls/vx/traits.h</text>
</a>
</g>
</g>
<!-- Node3&#45;&gt;Node10 -->
<g id="edge10" class="edge">
<title>Node3&#45;&gt;Node10</title>
<path fill="none" stroke="midnightblue" d="M693.35,-128.41C743.05,-120.49 823.96,-106.57 892.79,-90 897.24,-88.93 901.87,-87.71 906.46,-86.43"/>
<polygon fill="midnightblue" stroke="midnightblue" points="907.69,-89.71 916.33,-83.58 905.75,-82.99 907.69,-89.71"/>
</g>
<!-- Node11 -->
<g id="node11" class="node">
<title>Node11</title>
<g id="a_node11"><a xlink:title=" ">
<polygon fill="white" stroke="#bfbfbf" points="1006.29,-63.5 1006.29,-83.5 1087.29,-83.5 1087.29,-63.5 1006.29,-63.5"/>
<text text-anchor="middle" x="1046.79" y="-70.5" font-family="Helvetica,sans-Serif" font-size="10.00">hate/visibility.h</text>
</a>
</g>
</g>
<!-- Node3&#45;&gt;Node11 -->
<g id="edge11" class="edge">
<title>Node3&#45;&gt;Node11</title>
<path fill="none" stroke="midnightblue" d="M693.24,-132.12C760.86,-126.6 890.1,-113.82 997.79,-90 1002.22,-89.02 1006.83,-87.82 1011.37,-86.52"/>
<polygon fill="midnightblue" stroke="midnightblue" points="1012.53,-89.82 1021.09,-83.57 1010.5,-83.12 1012.53,-89.82"/>
</g>
<!-- Node12 -->
<g id="node12" class="node">
<title>Node12</title>
<g id="a_node12"><a xlink:href="cerealization_8h.html" target="_top" xlink:title=" ">
<polygon fill="white" stroke="black" points="1105.01,-63.5 1105.01,-83.5 1216.58,-83.5 1216.58,-63.5 1105.01,-63.5"/>
<text text-anchor="middle" x="1160.79" y="-70.5" font-family="Helvetica,sans-Serif" font-size="10.00">lola/vx/cerealization.h</text>
</a>
</g>
</g>
<!-- Node3&#45;&gt;Node12 -->
<g id="edge12" class="edge">
<title>Node3&#45;&gt;Node12</title>
<path fill="none" stroke="midnightblue" d="M693.39,-132.9C775.41,-127.85 950.7,-114.96 1096.79,-90 1103.45,-88.86 1110.45,-87.42 1117.28,-85.88"/>
<polygon fill="midnightblue" stroke="midnightblue" points="1118.16,-89.27 1127.09,-83.58 1116.56,-82.46 1118.16,-89.27"/>
</g>
<!-- Node16 -->
<g id="node16" class="node">
<title>Node16</title>
<g id="a_node16"><a xlink:title=" ">
<polygon fill="white" stroke="#bfbfbf" points="1234.43,-63.5 1234.43,-83.5 1377.15,-83.5 1377.15,-63.5 1234.43,-63.5"/>
<text text-anchor="middle" x="1305.79" y="-70.5" font-family="Helvetica,sans-Serif" font-size="10.00">boost/hana/adapt_struct.hpp</text>
</a>
</g>
</g>
<!-- Node3&#45;&gt;Node16 -->
<g id="edge17" class="edge">
<title>Node3&#45;&gt;Node16</title>
<path fill="none" stroke="midnightblue" d="M693.14,-133.64C791.59,-129.29 1028.71,-116.75 1225.79,-90 1234.95,-88.76 1244.65,-87.14 1254.02,-85.42"/>
<polygon fill="midnightblue" stroke="midnightblue" points="1254.83,-88.82 1264,-83.52 1253.53,-81.95 1254.83,-88.82"/>
</g>
<!-- Node13 -->
<g id="node13" class="node">
<title>Node13</title>
<g id="a_node13"><a xlink:title=" ">
<polygon fill="white" stroke="#bfbfbf" points="1037.73,-0.5 1037.73,-20.5 1099.85,-20.5 1099.85,-0.5 1037.73,-0.5"/>
<text text-anchor="middle" x="1068.79" y="-7.5" font-family="Helvetica,sans-Serif" font-size="10.00">type_traits</text>
</a>
</g>
</g>
<!-- Node12&#45;&gt;Node13 -->
<g id="edge13" class="edge">
<title>Node12&#45;&gt;Node13</title>
<path fill="none" stroke="midnightblue" d="M1147.22,-63.5C1132.4,-53.68 1108.47,-37.81 1090.93,-26.18"/>
<polygon fill="midnightblue" stroke="midnightblue" points="1092.69,-23.15 1082.42,-20.54 1088.82,-28.98 1092.69,-23.15"/>
</g>
<!-- Node14 -->
<g id="node14" class="node">
<title>Node14</title>
<g id="a_node14"><a xlink:title=" ">
<polygon fill="white" stroke="#bfbfbf" points="1118.33,-0.5 1118.33,-20.5 1203.26,-20.5 1203.26,-0.5 1118.33,-0.5"/>
<text text-anchor="middle" x="1160.79" y="-7.5" font-family="Helvetica,sans-Serif" font-size="10.00">boost/hana.hpp</text>
</a>
</g>
</g>
<!-- Node12&#45;&gt;Node14 -->
<g id="edge14" class="edge">
<title>Node12&#45;&gt;Node14</title>
<path fill="none" stroke="midnightblue" d="M1160.79,-63.5C1160.79,-54.94 1160.79,-41.78 1160.79,-30.85"/>
<polygon fill="midnightblue" stroke="midnightblue" points="1164.29,-30.54 1160.79,-20.54 1157.29,-30.54 1164.29,-30.54"/>
</g>
<!-- Node15 -->
<g id="node15" class="node">
<title>Node15</title>
<g id="a_node15"><a xlink:title=" ">
<polygon fill="white" stroke="#bfbfbf" points="1221.67,-0.5 1221.67,-20.5 1319.91,-20.5 1319.91,-0.5 1221.67,-0.5"/>
<text text-anchor="middle" x="1270.79" y="-7.5" font-family="Helvetica,sans-Serif" font-size="10.00">cereal/macros.hpp</text>
</a>
</g>
</g>
<!-- Node12&#45;&gt;Node15 -->
<g id="edge15" class="edge">
<title>Node12&#45;&gt;Node15</title>
<path fill="none" stroke="midnightblue" d="M1177.02,-63.5C1195.06,-53.5 1224.41,-37.22 1245.47,-25.54"/>
<polygon fill="midnightblue" stroke="midnightblue" points="1247.45,-28.45 1254.49,-20.54 1244.05,-22.33 1247.45,-28.45"/>
</g>
</g>
</svg>
