<?xml version="1.0" encoding="UTF-8" standalone="no"?>
<!DOCTYPE svg PUBLIC "-//W3C//DTD SVG 1.1//EN"
 "http://www.w3.org/Graphics/SVG/1.1/DTD/svg11.dtd">
<!-- Generated by graphviz version 2.46.0 (0)
 -->
<!-- Title: /jenkins/jenlib_workspaces_f9/bld_nightly&#45;haldls.YmxkX25pZ2h0bHktaGFsZGxzIzEzNzk.x/haldls/include/lola/vx/v3/capmem.h Pages: 1 -->
<svg width="1181pt" height="248pt"
 viewBox="0.00 0.00 1181.17 248.00" xmlns="http://www.w3.org/2000/svg" xmlns:xlink="http://www.w3.org/1999/xlink">
<g id="graph0" class="graph" transform="scale(1 1) rotate(0) translate(4 244)">
<title>/jenkins/jenlib_workspaces_f9/bld_nightly&#45;haldls.YmxkX25pZ2h0bHktaGFsZGxzIzEzNzk.x/haldls/include/lola/vx/v3/capmem.h</title>
<polygon fill="white" stroke="transparent" points="-4,4 -4,-244 1177.17,-244 1177.17,4 -4,4"/>
<!-- Node1 -->
<g id="node1" class="node">
<title>Node1</title>
<g id="a_node1"><a xlink:title=" ">
<polygon fill="#bfbfbf" stroke="black" points="543.16,-183.5 543.16,-239.5 724.18,-239.5 724.18,-183.5 543.16,-183.5"/>
<text text-anchor="start" x="551.16" y="-226.5" font-family="Helvetica,sans-Serif" font-size="10.00">/jenkins/jenlib_workspaces</text>
<text text-anchor="start" x="551.16" y="-214.5" font-family="Helvetica,sans-Serif" font-size="10.00">_f9/bld_nightly&#45;haldls.YmxkX25p</text>
<text text-anchor="start" x="551.16" y="-202.5" font-family="Helvetica,sans-Serif" font-size="10.00">Z2h0bHktaGFsZGxzIzEzNzk.x/haldls</text>
<text text-anchor="middle" x="633.67" y="-190.5" font-family="Helvetica,sans-Serif" font-size="10.00">/include/lola/vx/v3/capmem.h</text>
</a>
</g>
</g>
<!-- Node2 -->
<g id="node2" class="node">
<title>Node2</title>
<g id="a_node2"><a xlink:href="capmem_8h.html" target="_top" xlink:title=" ">
<polygon fill="white" stroke="black" points="586.77,-126.5 586.77,-146.5 680.56,-146.5 680.56,-126.5 586.77,-126.5"/>
<text text-anchor="middle" x="633.67" y="-133.5" font-family="Helvetica,sans-Serif" font-size="10.00">lola/vx/capmem.h</text>
</a>
</g>
</g>
<!-- Node1&#45;&gt;Node2 -->
<g id="edge1" class="edge">
<title>Node1&#45;&gt;Node2</title>
<path fill="none" stroke="midnightblue" d="M633.67,-183.32C633.67,-174.5 633.67,-164.91 633.67,-156.79"/>
<polygon fill="midnightblue" stroke="midnightblue" points="637.17,-156.52 633.67,-146.52 630.17,-156.52 637.17,-156.52"/>
</g>
<!-- Node3 -->
<g id="node3" class="node">
<title>Node3</title>
<g id="a_node3"><a xlink:title=" ">
<polygon fill="white" stroke="#bfbfbf" points="0,-57.5 0,-89.5 149.34,-89.5 149.34,-57.5 0,-57.5"/>
<text text-anchor="start" x="8" y="-76.5" font-family="Helvetica,sans-Serif" font-size="10.00">haldlsID(/)vxID(/)vID</text>
<text text-anchor="middle" x="74.67" y="-64.5" font-family="Helvetica,sans-Serif" font-size="10.00">(CHIP_REVISION)/capmem.h</text>
</a>
</g>
</g>
<!-- Node2&#45;&gt;Node3 -->
<g id="edge2" class="edge">
<title>Node2&#45;&gt;Node3</title>
<path fill="none" stroke="midnightblue" d="M586.65,-132.36C502.94,-126.47 322.36,-112.43 159.9,-90.1"/>
<polygon fill="midnightblue" stroke="midnightblue" points="160.11,-86.59 149.72,-88.68 159.15,-93.53 160.11,-86.59"/>
</g>
<!-- Node4 -->
<g id="node4" class="node">
<title>Node4</title>
<g id="a_node4"><a xlink:title=" ">
<polygon fill="white" stroke="#bfbfbf" points="167.55,-57.5 167.55,-89.5 315.79,-89.5 315.79,-57.5 167.55,-57.5"/>
<text text-anchor="start" x="175.55" y="-76.5" font-family="Helvetica,sans-Serif" font-size="10.00">haldlsID(/)vxID(/)vID</text>
<text text-anchor="middle" x="241.67" y="-64.5" font-family="Helvetica,sans-Serif" font-size="10.00">(CHIP_REVISION)/synapse.h</text>
</a>
</g>
</g>
<!-- Node2&#45;&gt;Node4 -->
<g id="edge3" class="edge">
<title>Node2&#45;&gt;Node4</title>
<path fill="none" stroke="midnightblue" d="M586.73,-129.16C528.11,-121.12 424.5,-106.48 325.99,-90.18"/>
<polygon fill="midnightblue" stroke="midnightblue" points="326.29,-86.69 315.86,-88.5 325.15,-93.59 326.29,-86.69"/>
</g>
<!-- Node5 -->
<g id="node5" class="node">
<title>Node5</title>
<g id="a_node5"><a xlink:title=" ">
<polygon fill="white" stroke="#bfbfbf" points="333.55,-57.5 333.55,-89.5 441.79,-89.5 441.79,-57.5 333.55,-57.5"/>
<text text-anchor="start" x="341.55" y="-76.5" font-family="Helvetica,sans-Serif" font-size="10.00">halco/common/typed</text>
<text text-anchor="middle" x="387.67" y="-64.5" font-family="Helvetica,sans-Serif" font-size="10.00">_array.h</text>
</a>
</g>
</g>
<!-- Node2&#45;&gt;Node5 -->
<g id="edge4" class="edge">
<title>Node2&#45;&gt;Node5</title>
<path fill="none" stroke="midnightblue" d="M597.37,-126.5C559.14,-117.02 498.19,-101.91 451.82,-90.41"/>
<polygon fill="midnightblue" stroke="midnightblue" points="452.42,-86.95 441.87,-87.94 450.73,-93.74 452.42,-86.95"/>
</g>
<!-- Node6 -->
<g id="node6" class="node">
<title>Node6</title>
<g id="a_node6"><a xlink:title=" ">
<polygon fill="white" stroke="#bfbfbf" points="460.16,-57.5 460.16,-89.5 561.18,-89.5 561.18,-57.5 460.16,-57.5"/>
<text text-anchor="start" x="468.16" y="-76.5" font-family="Helvetica,sans-Serif" font-size="10.00">halco/hicann&#45;dls/vx</text>
<text text-anchor="middle" x="510.67" y="-64.5" font-family="Helvetica,sans-Serif" font-size="10.00">/capmem.h</text>
</a>
</g>
</g>
<!-- Node2&#45;&gt;Node6 -->
<g id="edge5" class="edge">
<title>Node2&#45;&gt;Node6</title>
<path fill="none" stroke="midnightblue" d="M615.52,-126.5C598.45,-118.03 572.3,-105.07 550.39,-94.2"/>
<polygon fill="midnightblue" stroke="midnightblue" points="551.81,-91 541.3,-89.69 548.7,-97.27 551.81,-91"/>
</g>
<!-- Node7 -->
<g id="node7" class="node">
<title>Node7</title>
<g id="a_node7"><a xlink:title=" ">
<polygon fill="white" stroke="#bfbfbf" points="578.99,-63.5 578.99,-83.5 688.34,-83.5 688.34,-63.5 578.99,-63.5"/>
<text text-anchor="middle" x="633.67" y="-70.5" font-family="Helvetica,sans-Serif" font-size="10.00">haldls/cerealization.h</text>
</a>
</g>
</g>
<!-- Node2&#45;&gt;Node7 -->
<g id="edge6" class="edge">
<title>Node2&#45;&gt;Node7</title>
<path fill="none" stroke="midnightblue" d="M633.67,-126.5C633.67,-117.94 633.67,-104.78 633.67,-93.85"/>
<polygon fill="midnightblue" stroke="midnightblue" points="637.17,-93.54 633.67,-83.54 630.17,-93.54 637.17,-93.54"/>
</g>
<!-- Node8 -->
<g id="node8" class="node">
<title>Node8</title>
<g id="a_node8"><a xlink:title=" ">
<polygon fill="white" stroke="#bfbfbf" points="706.17,-63.5 706.17,-83.5 787.17,-83.5 787.17,-63.5 706.17,-63.5"/>
<text text-anchor="middle" x="746.67" y="-70.5" font-family="Helvetica,sans-Serif" font-size="10.00">hate/visibility.h</text>
</a>
</g>
</g>
<!-- Node2&#45;&gt;Node8 -->
<g id="edge7" class="edge">
<title>Node2&#45;&gt;Node8</title>
<path fill="none" stroke="midnightblue" d="M650.34,-126.5C668.95,-116.45 699.29,-100.07 720.95,-88.38"/>
<polygon fill="midnightblue" stroke="midnightblue" points="722.79,-91.37 729.93,-83.54 719.46,-85.21 722.79,-91.37"/>
</g>
<!-- Node9 -->
<g id="node9" class="node">
<title>Node9</title>
<g id="a_node9"><a xlink:href="cerealization_8h.html" target="_top" xlink:title=" ">
<polygon fill="white" stroke="black" points="804.88,-63.5 804.88,-83.5 916.45,-83.5 916.45,-63.5 804.88,-63.5"/>
<text text-anchor="middle" x="860.67" y="-70.5" font-family="Helvetica,sans-Serif" font-size="10.00">lola/vx/cerealization.h</text>
</a>
</g>
</g>
<!-- Node2&#45;&gt;Node9 -->
<g id="edge8" class="edge">
<title>Node2&#45;&gt;Node9</title>
<path fill="none" stroke="midnightblue" d="M667.16,-126.5C706.98,-115.8 773.52,-97.92 817.26,-86.17"/>
<polygon fill="midnightblue" stroke="midnightblue" points="818.29,-89.51 827.04,-83.54 816.47,-82.75 818.29,-89.51"/>
</g>
<!-- Node13 -->
<g id="node13" class="node">
<title>Node13</title>
<g id="a_node13"><a xlink:href="genpybind_8h.html" target="_top" xlink:title=" ">
<polygon fill="white" stroke="black" points="934.88,-63.5 934.88,-83.5 1036.46,-83.5 1036.46,-63.5 934.88,-63.5"/>
<text text-anchor="middle" x="985.67" y="-70.5" font-family="Helvetica,sans-Serif" font-size="10.00">lola/vx/genpybind.h</text>
</a>
</g>
</g>
<!-- Node2&#45;&gt;Node13 -->
<g id="edge12" class="edge">
<title>Node2&#45;&gt;Node13</title>
<path fill="none" stroke="midnightblue" d="M680.7,-129.62C738.62,-122.04 839.87,-107.72 925.67,-90 931.41,-88.81 937.42,-87.43 943.33,-85.99"/>
<polygon fill="midnightblue" stroke="midnightblue" points="944.26,-89.36 953.11,-83.53 942.56,-82.58 944.26,-89.36"/>
</g>
<!-- Node14 -->
<g id="node14" class="node">
<title>Node14</title>
<g id="a_node14"><a xlink:title=" ">
<polygon fill="white" stroke="#bfbfbf" points="1072.16,-63.5 1072.16,-83.5 1173.17,-83.5 1173.17,-63.5 1072.16,-63.5"/>
<text text-anchor="middle" x="1122.67" y="-70.5" font-family="Helvetica,sans-Serif" font-size="10.00">lola/vx/capmem.tcc</text>
</a>
</g>
</g>
<!-- Node2&#45;&gt;Node14 -->
<g id="edge14" class="edge">
<title>Node2&#45;&gt;Node14</title>
<path fill="none" stroke="midnightblue" d="M680.77,-132.86C760.24,-127.88 925.77,-115.26 1063.67,-90 1069.61,-88.91 1075.83,-87.54 1081.91,-86.06"/>
<polygon fill="midnightblue" stroke="midnightblue" points="1083.11,-89.37 1091.94,-83.51 1081.39,-82.59 1083.11,-89.37"/>
</g>
<!-- Node10 -->
<g id="node10" class="node">
<title>Node10</title>
<g id="a_node10"><a xlink:title=" ">
<polygon fill="white" stroke="#bfbfbf" points="737.61,-0.5 737.61,-20.5 799.73,-20.5 799.73,-0.5 737.61,-0.5"/>
<text text-anchor="middle" x="768.67" y="-7.5" font-family="Helvetica,sans-Serif" font-size="10.00">type_traits</text>
</a>
</g>
</g>
<!-- Node9&#45;&gt;Node10 -->
<g id="edge9" class="edge">
<title>Node9&#45;&gt;Node10</title>
<path fill="none" stroke="midnightblue" d="M847.09,-63.5C832.28,-53.68 808.34,-37.81 790.8,-26.18"/>
<polygon fill="midnightblue" stroke="midnightblue" points="792.57,-23.15 782.3,-20.54 788.7,-28.98 792.57,-23.15"/>
</g>
<!-- Node11 -->
<g id="node11" class="node">
<title>Node11</title>
<g id="a_node11"><a xlink:title=" ">
<polygon fill="white" stroke="#bfbfbf" points="818.21,-0.5 818.21,-20.5 903.13,-20.5 903.13,-0.5 818.21,-0.5"/>
<text text-anchor="middle" x="860.67" y="-7.5" font-family="Helvetica,sans-Serif" font-size="10.00">boost/hana.hpp</text>
</a>
</g>
</g>
<!-- Node9&#45;&gt;Node11 -->
<g id="edge10" class="edge">
<title>Node9&#45;&gt;Node11</title>
<path fill="none" stroke="midnightblue" d="M860.67,-63.5C860.67,-54.94 860.67,-41.78 860.67,-30.85"/>
<polygon fill="midnightblue" stroke="midnightblue" points="864.17,-30.54 860.67,-20.54 857.17,-30.54 864.17,-30.54"/>
</g>
<!-- Node12 -->
<g id="node12" class="node">
<title>Node12</title>
<g id="a_node12"><a xlink:title=" ">
<polygon fill="white" stroke="#bfbfbf" points="921.55,-0.5 921.55,-20.5 1019.79,-20.5 1019.79,-0.5 921.55,-0.5"/>
<text text-anchor="middle" x="970.67" y="-7.5" font-family="Helvetica,sans-Serif" font-size="10.00">cereal/macros.hpp</text>
</a>
</g>
</g>
<!-- Node9&#45;&gt;Node12 -->
<g id="edge11" class="edge">
<title>Node9&#45;&gt;Node12</title>
<path fill="none" stroke="midnightblue" d="M876.9,-63.5C894.93,-53.5 924.29,-37.22 945.35,-25.54"/>
<polygon fill="midnightblue" stroke="midnightblue" points="947.32,-28.45 954.37,-20.54 943.93,-22.33 947.32,-28.45"/>
</g>
<!-- Node13&#45;&gt;Node13 -->
<g id="edge13" class="edge">
<title>Node13&#45;&gt;Node13</title>
<path fill="none" stroke="midnightblue" d="M1012.14,-83.56C1033.03,-87.45 1054.46,-84.1 1054.46,-73.5 1054.46,-64.64 1039.48,-60.85 1022.37,-62.11"/>
<polygon fill="midnightblue" stroke="midnightblue" points="1021.61,-58.68 1012.14,-63.44 1022.51,-65.62 1021.61,-58.68"/>
</g>
</g>
</svg>
