<?xml version="1.0" encoding="UTF-8" standalone="no"?>
<!DOCTYPE svg PUBLIC "-//W3C//DTD SVG 1.1//EN"
 "http://www.w3.org/Graphics/SVG/1.1/DTD/svg11.dtd">
<!-- Generated by graphviz version 2.46.0 (0)
 -->
<!-- Title: /jenkins/jenlib_workspaces_f9/bld_nightly&#45;haldls.YmxkX25pZ2h0bHktaGFsZGxzIzEzNzk.x/haldls/include/lola/vx/v3/dac.h Pages: 1 -->
<svg width="1354pt" height="248pt"
 viewBox="0.00 0.00 1353.58 248.00" xmlns="http://www.w3.org/2000/svg" xmlns:xlink="http://www.w3.org/1999/xlink">
<g id="graph0" class="graph" transform="scale(1 1) rotate(0) translate(4 244)">
<title>/jenkins/jenlib_workspaces_f9/bld_nightly&#45;haldls.YmxkX25pZ2h0bHktaGFsZGxzIzEzNzk.x/haldls/include/lola/vx/v3/dac.h</title>
<polygon fill="white" stroke="transparent" points="-4,4 -4,-244 1349.58,-244 1349.58,4 -4,4"/>
<!-- Node1 -->
<g id="node1" class="node">
<title>Node1</title>
<g id="a_node1"><a xlink:title=" ">
<polygon fill="#bfbfbf" stroke="black" points="666.28,-183.5 666.28,-239.5 847.29,-239.5 847.29,-183.5 666.28,-183.5"/>
<text text-anchor="start" x="674.28" y="-226.5" font-family="Helvetica,sans-Serif" font-size="10.00">/jenkins/jenlib_workspaces</text>
<text text-anchor="start" x="674.28" y="-214.5" font-family="Helvetica,sans-Serif" font-size="10.00">_f9/bld_nightly&#45;haldls.YmxkX25p</text>
<text text-anchor="start" x="674.28" y="-202.5" font-family="Helvetica,sans-Serif" font-size="10.00">Z2h0bHktaGFsZGxzIzEzNzk.x/haldls</text>
<text text-anchor="middle" x="756.78" y="-190.5" font-family="Helvetica,sans-Serif" font-size="10.00">/include/lola/vx/v3/dac.h</text>
</a>
</g>
</g>
<!-- Node2 -->
<g id="node2" class="node">
<title>Node2</title>
<g id="a_node2"><a xlink:href="dac_8h.html" target="_top" xlink:title=" ">
<polygon fill="white" stroke="black" points="689,-126.5 689,-146.5 760.57,-146.5 760.57,-126.5 689,-126.5"/>
<text text-anchor="middle" x="724.78" y="-133.5" font-family="Helvetica,sans-Serif" font-size="10.00">lola/vx/dac.h</text>
</a>
</g>
</g>
<!-- Node1&#45;&gt;Node2 -->
<g id="edge1" class="edge">
<title>Node1&#45;&gt;Node2</title>
<path fill="none" stroke="midnightblue" d="M744.87,-183.32C740.87,-174.2 736.51,-164.24 732.87,-155.95"/>
<polygon fill="midnightblue" stroke="midnightblue" points="735.96,-154.28 728.74,-146.52 729.55,-157.09 735.96,-154.28"/>
</g>
<!-- Node15 -->
<g id="node15" class="node">
<title>Node15</title>
<g id="a_node15"><a xlink:href="genpybind_8h.html" target="_top" xlink:title=" ">
<polygon fill="white" stroke="black" points="1225.99,-63.5 1225.99,-83.5 1327.58,-83.5 1327.58,-63.5 1225.99,-63.5"/>
<text text-anchor="middle" x="1276.78" y="-70.5" font-family="Helvetica,sans-Serif" font-size="10.00">lola/vx/genpybind.h</text>
</a>
</g>
</g>
<!-- Node1&#45;&gt;Node15 -->
<g id="edge17" class="edge">
<title>Node1&#45;&gt;Node15</title>
<path fill="none" stroke="midnightblue" d="M847.36,-186.81C959.91,-157.38 1147.47,-108.32 1232.49,-86.09"/>
<polygon fill="midnightblue" stroke="midnightblue" points="1233.54,-89.43 1242.33,-83.51 1231.77,-82.65 1233.54,-89.43"/>
</g>
<!-- Node3 -->
<g id="node3" class="node">
<title>Node3</title>
<g id="a_node3"><a xlink:title=" ">
<polygon fill="white" stroke="#bfbfbf" points="0,-63.5 0,-83.5 121.57,-83.5 121.57,-63.5 0,-63.5"/>
<text text-anchor="middle" x="60.78" y="-70.5" font-family="Helvetica,sans-Serif" font-size="10.00">halco/common/iter_all.h</text>
</a>
</g>
</g>
<!-- Node2&#45;&gt;Node3 -->
<g id="edge2" class="edge">
<title>Node2&#45;&gt;Node3</title>
<path fill="none" stroke="midnightblue" d="M688.77,-134.51C595.87,-131.59 340.77,-121.13 130.78,-90 122.99,-88.84 114.78,-87.31 106.82,-85.66"/>
<polygon fill="midnightblue" stroke="midnightblue" points="107.45,-82.22 96.93,-83.53 105.97,-89.06 107.45,-82.22"/>
</g>
<!-- Node4 -->
<g id="node4" class="node">
<title>Node4</title>
<g id="a_node4"><a xlink:title=" ">
<polygon fill="white" stroke="#bfbfbf" points="139.66,-57.5 139.66,-89.5 247.91,-89.5 247.91,-57.5 139.66,-57.5"/>
<text text-anchor="start" x="147.66" y="-76.5" font-family="Helvetica,sans-Serif" font-size="10.00">halco/common/typed</text>
<text text-anchor="middle" x="193.78" y="-64.5" font-family="Helvetica,sans-Serif" font-size="10.00">_array.h</text>
</a>
</g>
</g>
<!-- Node2&#45;&gt;Node4 -->
<g id="edge3" class="edge">
<title>Node2&#45;&gt;Node4</title>
<path fill="none" stroke="midnightblue" d="M688.73,-133.77C611.45,-129.69 424.03,-117.75 257.88,-90.03"/>
<polygon fill="midnightblue" stroke="midnightblue" points="258.42,-86.58 247.98,-88.36 257.25,-93.48 258.42,-86.58"/>
</g>
<!-- Node5 -->
<g id="node5" class="node">
<title>Node5</title>
<g id="a_node5"><a xlink:title=" ">
<polygon fill="white" stroke="#bfbfbf" points="266.28,-57.5 266.28,-89.5 367.29,-89.5 367.29,-57.5 266.28,-57.5"/>
<text text-anchor="start" x="274.28" y="-76.5" font-family="Helvetica,sans-Serif" font-size="10.00">halco/hicann&#45;dls/vx</text>
<text text-anchor="middle" x="316.78" y="-64.5" font-family="Helvetica,sans-Serif" font-size="10.00">/dac.h</text>
</a>
</g>
</g>
<!-- Node2&#45;&gt;Node5 -->
<g id="edge4" class="edge">
<title>Node2&#45;&gt;Node5</title>
<path fill="none" stroke="midnightblue" d="M688.87,-132.34C627.07,-126.57 496.51,-112.95 377.54,-90.21"/>
<polygon fill="midnightblue" stroke="midnightblue" points="378.02,-86.74 367.54,-88.27 376.69,-93.61 378.02,-86.74"/>
</g>
<!-- Node6 -->
<g id="node6" class="node">
<title>Node6</title>
<g id="a_node6"><a xlink:title=" ">
<polygon fill="white" stroke="#bfbfbf" points="385.11,-63.5 385.11,-83.5 494.46,-83.5 494.46,-63.5 385.11,-63.5"/>
<text text-anchor="middle" x="439.78" y="-70.5" font-family="Helvetica,sans-Serif" font-size="10.00">haldls/cerealization.h</text>
</a>
</g>
</g>
<!-- Node2&#45;&gt;Node6 -->
<g id="edge5" class="edge">
<title>Node2&#45;&gt;Node6</title>
<path fill="none" stroke="midnightblue" d="M688.72,-128.47C644.9,-119.84 568.77,-104.55 503.78,-90 498.07,-88.72 492.07,-87.33 486.14,-85.93"/>
<polygon fill="midnightblue" stroke="midnightblue" points="486.83,-82.49 476.29,-83.57 485.2,-89.3 486.83,-82.49"/>
</g>
<!-- Node7 -->
<g id="node7" class="node">
<title>Node7</title>
<g id="a_node7"><a xlink:title=" ">
<polygon fill="white" stroke="#bfbfbf" points="512.61,-63.5 512.61,-83.5 616.96,-83.5 616.96,-63.5 512.61,-63.5"/>
<text text-anchor="middle" x="564.78" y="-70.5" font-family="Helvetica,sans-Serif" font-size="10.00">haldls/vx/common.h</text>
</a>
</g>
</g>
<!-- Node2&#45;&gt;Node7 -->
<g id="edge6" class="edge">
<title>Node2&#45;&gt;Node7</title>
<path fill="none" stroke="midnightblue" d="M701.18,-126.5C673.88,-116.09 628.76,-98.89 597.95,-87.14"/>
<polygon fill="midnightblue" stroke="midnightblue" points="599.08,-83.83 588.49,-83.54 596.59,-90.37 599.08,-83.83"/>
</g>
<!-- Node8 -->
<g id="node8" class="node">
<title>Node8</title>
<g id="a_node8"><a xlink:title=" ">
<polygon fill="white" stroke="#bfbfbf" points="635.39,-63.5 635.39,-83.5 714.18,-83.5 714.18,-63.5 635.39,-63.5"/>
<text text-anchor="middle" x="674.78" y="-70.5" font-family="Helvetica,sans-Serif" font-size="10.00">haldls/vx/spi.h</text>
</a>
</g>
</g>
<!-- Node2&#45;&gt;Node8 -->
<g id="edge7" class="edge">
<title>Node2&#45;&gt;Node8</title>
<path fill="none" stroke="midnightblue" d="M717.41,-126.5C709.87,-117.31 698,-102.82 688.69,-91.47"/>
<polygon fill="midnightblue" stroke="midnightblue" points="691.24,-89.05 682.19,-83.54 685.82,-93.49 691.24,-89.05"/>
</g>
<!-- Node9 -->
<g id="node9" class="node">
<title>Node9</title>
<g id="a_node9"><a xlink:title=" ">
<polygon fill="white" stroke="#bfbfbf" points="731.95,-63.5 731.95,-83.5 819.62,-83.5 819.62,-63.5 731.95,-63.5"/>
<text text-anchor="middle" x="775.78" y="-70.5" font-family="Helvetica,sans-Serif" font-size="10.00">haldls/vx/traits.h</text>
</a>
</g>
</g>
<!-- Node2&#45;&gt;Node9 -->
<g id="edge8" class="edge">
<title>Node2&#45;&gt;Node9</title>
<path fill="none" stroke="midnightblue" d="M732.31,-126.5C739.99,-117.31 752.11,-102.82 761.6,-91.47"/>
<polygon fill="midnightblue" stroke="midnightblue" points="764.5,-93.45 768.23,-83.54 759.13,-88.96 764.5,-93.45"/>
</g>
<!-- Node10 -->
<g id="node10" class="node">
<title>Node10</title>
<g id="a_node10"><a xlink:title=" ">
<polygon fill="white" stroke="#bfbfbf" points="837.28,-63.5 837.28,-83.5 918.29,-83.5 918.29,-63.5 837.28,-63.5"/>
<text text-anchor="middle" x="877.78" y="-70.5" font-family="Helvetica,sans-Serif" font-size="10.00">hate/visibility.h</text>
</a>
</g>
</g>
<!-- Node2&#45;&gt;Node10 -->
<g id="edge9" class="edge">
<title>Node2&#45;&gt;Node10</title>
<path fill="none" stroke="midnightblue" d="M747.36,-126.5C773.35,-116.14 816.23,-99.04 845.69,-87.3"/>
<polygon fill="midnightblue" stroke="midnightblue" points="847.12,-90.49 855.12,-83.54 844.53,-83.99 847.12,-90.49"/>
</g>
<!-- Node11 -->
<g id="node11" class="node">
<title>Node11</title>
<g id="a_node11"><a xlink:href="cerealization_8h.html" target="_top" xlink:title=" ">
<polygon fill="white" stroke="black" points="936,-63.5 936,-83.5 1047.57,-83.5 1047.57,-63.5 936,-63.5"/>
<text text-anchor="middle" x="991.78" y="-70.5" font-family="Helvetica,sans-Serif" font-size="10.00">lola/vx/cerealization.h</text>
</a>
</g>
</g>
<!-- Node2&#45;&gt;Node11 -->
<g id="edge10" class="edge">
<title>Node2&#45;&gt;Node11</title>
<path fill="none" stroke="midnightblue" d="M760.76,-127.63C801.37,-118.7 869.4,-103.61 927.78,-90 933.42,-88.69 939.33,-87.29 945.18,-85.89"/>
<polygon fill="midnightblue" stroke="midnightblue" points="946.02,-89.28 954.92,-83.54 944.38,-82.48 946.02,-89.28"/>
</g>
<!-- Node2&#45;&gt;Node15 -->
<g id="edge14" class="edge">
<title>Node2&#45;&gt;Node15</title>
<path fill="none" stroke="midnightblue" d="M760.85,-134.15C842.55,-130.66 1047.77,-119.45 1216.78,-90 1223.04,-88.91 1229.61,-87.5 1236.01,-85.97"/>
<polygon fill="midnightblue" stroke="midnightblue" points="1237,-89.33 1245.85,-83.5 1235.3,-82.54 1237,-89.33"/>
</g>
<!-- Node16 -->
<g id="node16" class="node">
<title>Node16</title>
<g id="a_node16"><a xlink:title=" ">
<polygon fill="white" stroke="#bfbfbf" points="1065.42,-63.5 1065.42,-83.5 1208.15,-83.5 1208.15,-63.5 1065.42,-63.5"/>
<text text-anchor="middle" x="1136.78" y="-70.5" font-family="Helvetica,sans-Serif" font-size="10.00">boost/hana/adapt_struct.hpp</text>
</a>
</g>
</g>
<!-- Node2&#45;&gt;Node16 -->
<g id="edge16" class="edge">
<title>Node2&#45;&gt;Node16</title>
<path fill="none" stroke="midnightblue" d="M760.75,-131.23C821.77,-123.84 949.45,-107.74 1056.78,-90 1065.11,-88.62 1073.9,-87.05 1082.49,-85.44"/>
<polygon fill="midnightblue" stroke="midnightblue" points="1083.26,-88.85 1092.43,-83.55 1081.95,-81.98 1083.26,-88.85"/>
</g>
<!-- Node12 -->
<g id="node12" class="node">
<title>Node12</title>
<g id="a_node12"><a xlink:title=" ">
<polygon fill="white" stroke="#bfbfbf" points="868.72,-0.5 868.72,-20.5 930.85,-20.5 930.85,-0.5 868.72,-0.5"/>
<text text-anchor="middle" x="899.78" y="-7.5" font-family="Helvetica,sans-Serif" font-size="10.00">type_traits</text>
</a>
</g>
</g>
<!-- Node11&#45;&gt;Node12 -->
<g id="edge11" class="edge">
<title>Node11&#45;&gt;Node12</title>
<path fill="none" stroke="midnightblue" d="M978.21,-63.5C963.4,-53.68 939.46,-37.81 921.92,-26.18"/>
<polygon fill="midnightblue" stroke="midnightblue" points="923.68,-23.15 913.42,-20.54 919.82,-28.98 923.68,-23.15"/>
</g>
<!-- Node13 -->
<g id="node13" class="node">
<title>Node13</title>
<g id="a_node13"><a xlink:title=" ">
<polygon fill="white" stroke="#bfbfbf" points="949.32,-0.5 949.32,-20.5 1034.25,-20.5 1034.25,-0.5 949.32,-0.5"/>
<text text-anchor="middle" x="991.78" y="-7.5" font-family="Helvetica,sans-Serif" font-size="10.00">boost/hana.hpp</text>
</a>
</g>
</g>
<!-- Node11&#45;&gt;Node13 -->
<g id="edge12" class="edge">
<title>Node11&#45;&gt;Node13</title>
<path fill="none" stroke="midnightblue" d="M991.78,-63.5C991.78,-54.94 991.78,-41.78 991.78,-30.85"/>
<polygon fill="midnightblue" stroke="midnightblue" points="995.28,-30.54 991.78,-20.54 988.28,-30.54 995.28,-30.54"/>
</g>
<!-- Node14 -->
<g id="node14" class="node">
<title>Node14</title>
<g id="a_node14"><a xlink:title=" ">
<polygon fill="white" stroke="#bfbfbf" points="1052.67,-0.5 1052.67,-20.5 1150.9,-20.5 1150.9,-0.5 1052.67,-0.5"/>
<text text-anchor="middle" x="1101.78" y="-7.5" font-family="Helvetica,sans-Serif" font-size="10.00">cereal/macros.hpp</text>
</a>
</g>
</g>
<!-- Node11&#45;&gt;Node14 -->
<g id="edge13" class="edge">
<title>Node11&#45;&gt;Node14</title>
<path fill="none" stroke="midnightblue" d="M1008.02,-63.5C1026.05,-53.5 1055.4,-37.22 1076.46,-25.54"/>
<polygon fill="midnightblue" stroke="midnightblue" points="1078.44,-28.45 1085.49,-20.54 1075.04,-22.33 1078.44,-28.45"/>
</g>
<!-- Node15&#45;&gt;Node15 -->
<g id="edge15" class="edge">
<title>Node15&#45;&gt;Node15</title>
<path fill="none" stroke="midnightblue" d="M1303.26,-83.56C1324.15,-87.45 1345.58,-84.1 1345.58,-73.5 1345.58,-64.64 1330.6,-60.85 1313.49,-62.11"/>
<polygon fill="midnightblue" stroke="midnightblue" points="1312.72,-58.68 1303.26,-63.44 1313.63,-65.62 1312.72,-58.68"/>
</g>
</g>
</svg>
