<?xml version="1.0" encoding="UTF-8" standalone="no"?>
<!DOCTYPE svg PUBLIC "-//W3C//DTD SVG 1.1//EN"
 "http://www.w3.org/Graphics/SVG/1.1/DTD/svg11.dtd">
<!-- Generated by graphviz version 2.46.0 (0)
 -->
<!-- Title: /jenkins/jenlib_workspaces_f9/bld_nightly&#45;haldls.YmxkX25pZ2h0bHktaGFsZGxzIzEzNzk.x/haldls/include/lola/vx/v3/ppu.h Pages: 1 -->
<svg width="1190pt" height="248pt"
 viewBox="0.00 0.00 1190.47 248.00" xmlns="http://www.w3.org/2000/svg" xmlns:xlink="http://www.w3.org/1999/xlink">
<g id="graph0" class="graph" transform="scale(1 1) rotate(0) translate(4 244)">
<title>/jenkins/jenlib_workspaces_f9/bld_nightly&#45;haldls.YmxkX25pZ2h0bHktaGFsZGxzIzEzNzk.x/haldls/include/lola/vx/v3/ppu.h</title>
<polygon fill="white" stroke="transparent" points="-4,4 -4,-244 1186.47,-244 1186.47,4 -4,4"/>
<!-- Node1 -->
<g id="node1" class="node">
<title>Node1</title>
<g id="a_node1"><a xlink:title=" ">
<polygon fill="#bfbfbf" stroke="black" points="210.28,-183.5 210.28,-239.5 391.3,-239.5 391.3,-183.5 210.28,-183.5"/>
<text text-anchor="start" x="218.28" y="-226.5" font-family="Helvetica,sans-Serif" font-size="10.00">/jenkins/jenlib_workspaces</text>
<text text-anchor="start" x="218.28" y="-214.5" font-family="Helvetica,sans-Serif" font-size="10.00">_f9/bld_nightly&#45;haldls.YmxkX25p</text>
<text text-anchor="start" x="218.28" y="-202.5" font-family="Helvetica,sans-Serif" font-size="10.00">Z2h0bHktaGFsZGxzIzEzNzk.x/haldls</text>
<text text-anchor="middle" x="300.79" y="-190.5" font-family="Helvetica,sans-Serif" font-size="10.00">/include/lola/vx/v3/ppu.h</text>
</a>
</g>
</g>
<!-- Node2 -->
<g id="node2" class="node">
<title>Node2</title>
<g id="a_node2"><a xlink:href="genpybind_8h.html" target="_top" xlink:title=" ">
<polygon fill="white" stroke="black" points="0,-63.5 0,-83.5 101.58,-83.5 101.58,-63.5 0,-63.5"/>
<text text-anchor="middle" x="50.79" y="-70.5" font-family="Helvetica,sans-Serif" font-size="10.00">lola/vx/genpybind.h</text>
</a>
</g>
</g>
<!-- Node1&#45;&gt;Node2 -->
<g id="edge1" class="edge">
<title>Node1&#45;&gt;Node2</title>
<path fill="none" stroke="midnightblue" d="M251.1,-183.47C198.39,-154.79 117.2,-110.62 76.26,-88.35"/>
<polygon fill="midnightblue" stroke="midnightblue" points="77.91,-85.27 67.45,-83.56 74.57,-91.42 77.91,-85.27"/>
</g>
<!-- Node3 -->
<g id="node3" class="node">
<title>Node3</title>
<g id="a_node3"><a xlink:href="ppu_8h.html" target="_top" xlink:title=" ">
<polygon fill="white" stroke="black" points="514.73,-126.5 514.73,-146.5 586.86,-146.5 586.86,-126.5 514.73,-126.5"/>
<text text-anchor="middle" x="550.79" y="-133.5" font-family="Helvetica,sans-Serif" font-size="10.00">lola/vx/ppu.h</text>
</a>
</g>
</g>
<!-- Node1&#45;&gt;Node3 -->
<g id="edge3" class="edge">
<title>Node1&#45;&gt;Node3</title>
<path fill="none" stroke="midnightblue" d="M391.4,-184.04C432,-172.19 477.85,-158.8 509.92,-149.43"/>
<polygon fill="midnightblue" stroke="midnightblue" points="511.2,-152.71 519.82,-146.54 509.24,-145.99 511.2,-152.71"/>
</g>
<!-- Node2&#45;&gt;Node2 -->
<g id="edge2" class="edge">
<title>Node2&#45;&gt;Node2</title>
<path fill="none" stroke="midnightblue" d="M77.27,-83.56C98.15,-87.45 119.58,-84.1 119.58,-73.5 119.58,-64.64 104.61,-60.85 87.49,-62.11"/>
<polygon fill="midnightblue" stroke="midnightblue" points="86.73,-58.68 77.27,-63.44 87.63,-65.62 86.73,-58.68"/>
</g>
<!-- Node3&#45;&gt;Node2 -->
<g id="edge12" class="edge">
<title>Node3&#45;&gt;Node2</title>
<path fill="none" stroke="midnightblue" d="M514.52,-132.68C441.33,-126.75 270.83,-111.73 128.79,-90 120.36,-88.71 111.45,-87.14 102.78,-85.5"/>
<polygon fill="midnightblue" stroke="midnightblue" points="103.26,-82.02 92.77,-83.55 101.92,-88.9 103.26,-82.02"/>
</g>
<!-- Node4 -->
<g id="node4" class="node">
<title>Node4</title>
<g id="a_node4"><a xlink:title=" ">
<polygon fill="white" stroke="#bfbfbf" points="137.67,-57.5 137.67,-89.5 245.91,-89.5 245.91,-57.5 137.67,-57.5"/>
<text text-anchor="start" x="145.67" y="-76.5" font-family="Helvetica,sans-Serif" font-size="10.00">halco/common/typed</text>
<text text-anchor="middle" x="191.79" y="-64.5" font-family="Helvetica,sans-Serif" font-size="10.00">_heap_array.h</text>
</a>
</g>
</g>
<!-- Node3&#45;&gt;Node4 -->
<g id="edge4" class="edge">
<title>Node3&#45;&gt;Node4</title>
<path fill="none" stroke="midnightblue" d="M514.62,-130.99C460.46,-124.01 354.93,-109.53 255.89,-90.12"/>
<polygon fill="midnightblue" stroke="midnightblue" points="256.51,-86.68 246.02,-88.17 255.15,-93.54 256.51,-86.68"/>
</g>
<!-- Node5 -->
<g id="node5" class="node">
<title>Node5</title>
<g id="a_node5"><a xlink:title=" ">
<polygon fill="white" stroke="#bfbfbf" points="264.28,-57.5 264.28,-89.5 365.3,-89.5 365.3,-57.5 264.28,-57.5"/>
<text text-anchor="start" x="272.28" y="-76.5" font-family="Helvetica,sans-Serif" font-size="10.00">halco/hicann&#45;dls/vx</text>
<text text-anchor="middle" x="314.79" y="-64.5" font-family="Helvetica,sans-Serif" font-size="10.00">/coordinates.h</text>
</a>
</g>
</g>
<!-- Node3&#45;&gt;Node5 -->
<g id="edge5" class="edge">
<title>Node3&#45;&gt;Node5</title>
<path fill="none" stroke="midnightblue" d="M515.52,-126.49C481.81,-117.87 429.3,-104.4 375.1,-90.33"/>
<polygon fill="midnightblue" stroke="midnightblue" points="375.88,-86.92 365.32,-87.79 374.12,-93.69 375.88,-86.92"/>
</g>
<!-- Node6 -->
<g id="node6" class="node">
<title>Node6</title>
<g id="a_node6"><a xlink:title=" ">
<polygon fill="white" stroke="#bfbfbf" points="383.12,-63.5 383.12,-83.5 492.47,-83.5 492.47,-63.5 383.12,-63.5"/>
<text text-anchor="middle" x="437.79" y="-70.5" font-family="Helvetica,sans-Serif" font-size="10.00">haldls/cerealization.h</text>
</a>
</g>
</g>
<!-- Node3&#45;&gt;Node6 -->
<g id="edge6" class="edge">
<title>Node3&#45;&gt;Node6</title>
<path fill="none" stroke="midnightblue" d="M534.12,-126.5C515.51,-116.45 485.17,-100.07 463.51,-88.38"/>
<polygon fill="midnightblue" stroke="midnightblue" points="465,-85.21 454.53,-83.54 461.67,-91.37 465,-85.21"/>
</g>
<!-- Node7 -->
<g id="node7" class="node">
<title>Node7</title>
<g id="a_node7"><a xlink:title=" ">
<polygon fill="white" stroke="#bfbfbf" points="510.29,-63.5 510.29,-83.5 591.3,-83.5 591.3,-63.5 510.29,-63.5"/>
<text text-anchor="middle" x="550.79" y="-70.5" font-family="Helvetica,sans-Serif" font-size="10.00">hate/visibility.h</text>
</a>
</g>
</g>
<!-- Node3&#45;&gt;Node7 -->
<g id="edge7" class="edge">
<title>Node3&#45;&gt;Node7</title>
<path fill="none" stroke="midnightblue" d="M550.79,-126.5C550.79,-117.94 550.79,-104.78 550.79,-93.85"/>
<polygon fill="midnightblue" stroke="midnightblue" points="554.29,-93.54 550.79,-83.54 547.29,-93.54 554.29,-93.54"/>
</g>
<!-- Node8 -->
<g id="node8" class="node">
<title>Node8</title>
<g id="a_node8"><a xlink:href="cerealization_8h.html" target="_top" xlink:title=" ">
<polygon fill="white" stroke="black" points="609.01,-63.5 609.01,-83.5 720.58,-83.5 720.58,-63.5 609.01,-63.5"/>
<text text-anchor="middle" x="664.79" y="-70.5" font-family="Helvetica,sans-Serif" font-size="10.00">lola/vx/cerealization.h</text>
</a>
</g>
</g>
<!-- Node3&#45;&gt;Node8 -->
<g id="edge8" class="edge">
<title>Node3&#45;&gt;Node8</title>
<path fill="none" stroke="midnightblue" d="M567.61,-126.5C586.39,-116.45 617,-100.07 638.84,-88.38"/>
<polygon fill="midnightblue" stroke="midnightblue" points="640.74,-91.34 647.9,-83.54 637.43,-85.17 640.74,-91.34"/>
</g>
<!-- Node12 -->
<g id="node12" class="node">
<title>Node12</title>
<g id="a_node12"><a xlink:title=" ">
<polygon fill="white" stroke="#bfbfbf" points="738.43,-63.5 738.43,-83.5 881.15,-83.5 881.15,-63.5 738.43,-63.5"/>
<text text-anchor="middle" x="809.79" y="-70.5" font-family="Helvetica,sans-Serif" font-size="10.00">boost/hana/adapt_struct.hpp</text>
</a>
</g>
</g>
<!-- Node3&#45;&gt;Node12 -->
<g id="edge13" class="edge">
<title>Node3&#45;&gt;Node12</title>
<path fill="none" stroke="midnightblue" d="M587.08,-126.95C632.53,-116.25 710.59,-97.87 761.17,-85.95"/>
<polygon fill="midnightblue" stroke="midnightblue" points="762.29,-89.28 771.22,-83.58 760.68,-82.47 762.29,-89.28"/>
</g>
<!-- Node13 -->
<g id="node13" class="node">
<title>Node13</title>
<g id="a_node13"><a xlink:title=" ">
<polygon fill="white" stroke="#bfbfbf" points="899.06,-63.5 899.06,-83.5 984.53,-83.5 984.53,-63.5 899.06,-63.5"/>
<text text-anchor="middle" x="941.79" y="-70.5" font-family="Helvetica,sans-Serif" font-size="10.00">haldls/vx/fpga.h</text>
</a>
</g>
</g>
<!-- Node3&#45;&gt;Node13 -->
<g id="edge14" class="edge">
<title>Node3&#45;&gt;Node13</title>
<path fill="none" stroke="midnightblue" d="M586.99,-132.51C649.33,-126.96 780.79,-113.41 889.79,-90 894.6,-88.97 899.62,-87.71 904.55,-86.36"/>
<polygon fill="midnightblue" stroke="midnightblue" points="905.83,-89.64 914.47,-83.52 903.9,-82.91 905.83,-89.64"/>
</g>
<!-- Node14 -->
<g id="node14" class="node">
<title>Node14</title>
<g id="a_node14"><a xlink:title=" ">
<polygon fill="white" stroke="#bfbfbf" points="1002.45,-63.5 1002.45,-83.5 1085.14,-83.5 1085.14,-63.5 1002.45,-63.5"/>
<text text-anchor="middle" x="1043.79" y="-70.5" font-family="Helvetica,sans-Serif" font-size="10.00">haldls/vx/ppu.h</text>
</a>
</g>
</g>
<!-- Node3&#45;&gt;Node14 -->
<g id="edge15" class="edge">
<title>Node3&#45;&gt;Node14</title>
<path fill="none" stroke="midnightblue" d="M587.05,-134.21C663.13,-130.97 844.75,-120.44 993.79,-90 998.55,-89.03 1003.5,-87.79 1008.36,-86.43"/>
<polygon fill="midnightblue" stroke="midnightblue" points="1009.51,-89.74 1018.1,-83.54 1007.51,-83.03 1009.51,-89.74"/>
</g>
<!-- Node15 -->
<g id="node15" class="node">
<title>Node15</title>
<g id="a_node15"><a xlink:title=" ">
<polygon fill="white" stroke="#bfbfbf" points="1103.12,-63.5 1103.12,-83.5 1182.47,-83.5 1182.47,-63.5 1103.12,-63.5"/>
<text text-anchor="middle" x="1142.79" y="-70.5" font-family="Helvetica,sans-Serif" font-size="10.00">lola/vx/ppu.tcc</text>
</a>
</g>
</g>
<!-- Node3&#45;&gt;Node15 -->
<g id="edge16" class="edge">
<title>Node3&#45;&gt;Node15</title>
<path fill="none" stroke="midnightblue" d="M587.08,-135.24C674.91,-134 905.62,-127.16 1093.79,-90 1098.52,-89.07 1103.44,-87.84 1108.25,-86.48"/>
<polygon fill="midnightblue" stroke="midnightblue" points="1109.34,-89.8 1117.89,-83.56 1107.31,-83.1 1109.34,-89.8"/>
</g>
<!-- Node9 -->
<g id="node9" class="node">
<title>Node9</title>
<g id="a_node9"><a xlink:title=" ">
<polygon fill="white" stroke="#bfbfbf" points="541.73,-0.5 541.73,-20.5 603.85,-20.5 603.85,-0.5 541.73,-0.5"/>
<text text-anchor="middle" x="572.79" y="-7.5" font-family="Helvetica,sans-Serif" font-size="10.00">type_traits</text>
</a>
</g>
</g>
<!-- Node8&#45;&gt;Node9 -->
<g id="edge9" class="edge">
<title>Node8&#45;&gt;Node9</title>
<path fill="none" stroke="midnightblue" d="M651.22,-63.5C636.4,-53.68 612.47,-37.81 594.93,-26.18"/>
<polygon fill="midnightblue" stroke="midnightblue" points="596.69,-23.15 586.42,-20.54 592.82,-28.98 596.69,-23.15"/>
</g>
<!-- Node10 -->
<g id="node10" class="node">
<title>Node10</title>
<g id="a_node10"><a xlink:title=" ">
<polygon fill="white" stroke="#bfbfbf" points="622.33,-0.5 622.33,-20.5 707.26,-20.5 707.26,-0.5 622.33,-0.5"/>
<text text-anchor="middle" x="664.79" y="-7.5" font-family="Helvetica,sans-Serif" font-size="10.00">boost/hana.hpp</text>
</a>
</g>
</g>
<!-- Node8&#45;&gt;Node10 -->
<g id="edge10" class="edge">
<title>Node8&#45;&gt;Node10</title>
<path fill="none" stroke="midnightblue" d="M664.79,-63.5C664.79,-54.94 664.79,-41.78 664.79,-30.85"/>
<polygon fill="midnightblue" stroke="midnightblue" points="668.29,-30.54 664.79,-20.54 661.29,-30.54 668.29,-30.54"/>
</g>
<!-- Node11 -->
<g id="node11" class="node">
<title>Node11</title>
<g id="a_node11"><a xlink:title=" ">
<polygon fill="white" stroke="#bfbfbf" points="725.67,-0.5 725.67,-20.5 823.91,-20.5 823.91,-0.5 725.67,-0.5"/>
<text text-anchor="middle" x="774.79" y="-7.5" font-family="Helvetica,sans-Serif" font-size="10.00">cereal/macros.hpp</text>
</a>
</g>
</g>
<!-- Node8&#45;&gt;Node11 -->
<g id="edge11" class="edge">
<title>Node8&#45;&gt;Node11</title>
<path fill="none" stroke="midnightblue" d="M681.02,-63.5C699.06,-53.5 728.41,-37.22 749.47,-25.54"/>
<polygon fill="midnightblue" stroke="midnightblue" points="751.45,-28.45 758.49,-20.54 748.05,-22.33 751.45,-28.45"/>
</g>
</g>
</svg>
