<?xml version="1.0" encoding="UTF-8" standalone="no"?>
<!DOCTYPE svg PUBLIC "-//W3C//DTD SVG 1.1//EN"
 "http://www.w3.org/Graphics/SVG/1.1/DTD/svg11.dtd">
<!-- Generated by graphviz version 2.46.0 (0)
 -->
<!-- Title: /jenkins/jenlib_workspaces_f9/bld_nightly&#45;haldls.YmxkX25pZ2h0bHktaGFsZGxzIzEzNzk.x/haldls/include/lola/vx/v3/cadc.h Pages: 1 -->
<svg width="1406pt" height="317pt"
 viewBox="0.00 0.00 1405.62 317.00" xmlns="http://www.w3.org/2000/svg" xmlns:xlink="http://www.w3.org/1999/xlink">
<g id="graph0" class="graph" transform="scale(1 1) rotate(0) translate(4 313)">
<title>/jenkins/jenlib_workspaces_f9/bld_nightly&#45;haldls.YmxkX25pZ2h0bHktaGFsZGxzIzEzNzk.x/haldls/include/lola/vx/v3/cadc.h</title>
<polygon fill="white" stroke="transparent" points="-4,4 -4,-313 1401.62,-313 1401.62,4 -4,4"/>
<!-- Node1 -->
<g id="node1" class="node">
<title>Node1</title>
<g id="a_node1"><a xlink:title=" ">
<polygon fill="#bfbfbf" stroke="black" points="696.28,-252.5 696.28,-308.5 877.29,-308.5 877.29,-252.5 696.28,-252.5"/>
<text text-anchor="start" x="704.28" y="-295.5" font-family="Helvetica,sans-Serif" font-size="10.00">/jenkins/jenlib_workspaces</text>
<text text-anchor="start" x="704.28" y="-283.5" font-family="Helvetica,sans-Serif" font-size="10.00">_f9/bld_nightly&#45;haldls.YmxkX25p</text>
<text text-anchor="start" x="704.28" y="-271.5" font-family="Helvetica,sans-Serif" font-size="10.00">Z2h0bHktaGFsZGxzIzEzNzk.x/haldls</text>
<text text-anchor="middle" x="786.78" y="-259.5" font-family="Helvetica,sans-Serif" font-size="10.00">/include/lola/vx/v3/cadc.h</text>
</a>
</g>
</g>
<!-- Node2 -->
<g id="node2" class="node">
<title>Node2</title>
<g id="a_node2"><a xlink:href="cadc_8h.html" target="_top" xlink:title=" ">
<polygon fill="white" stroke="black" points="748.5,-195.5 748.5,-215.5 825.07,-215.5 825.07,-195.5 748.5,-195.5"/>
<text text-anchor="middle" x="786.78" y="-202.5" font-family="Helvetica,sans-Serif" font-size="10.00">lola/vx/cadc.h</text>
</a>
</g>
</g>
<!-- Node1&#45;&gt;Node2 -->
<g id="edge1" class="edge">
<title>Node1&#45;&gt;Node2</title>
<path fill="none" stroke="midnightblue" d="M786.78,-252.32C786.78,-243.5 786.78,-233.91 786.78,-225.79"/>
<polygon fill="midnightblue" stroke="midnightblue" points="790.28,-225.52 786.78,-215.52 783.28,-225.52 790.28,-225.52"/>
</g>
<!-- Node3 -->
<g id="node3" class="node">
<title>Node3</title>
<g id="a_node3"><a xlink:title=" ">
<polygon fill="white" stroke="#bfbfbf" points="0,-63.5 0,-83.5 121.57,-83.5 121.57,-63.5 0,-63.5"/>
<text text-anchor="middle" x="60.78" y="-70.5" font-family="Helvetica,sans-Serif" font-size="10.00">halco/common/iter_all.h</text>
</a>
</g>
</g>
<!-- Node2&#45;&gt;Node3 -->
<g id="edge2" class="edge">
<title>Node2&#45;&gt;Node3</title>
<path fill="none" stroke="midnightblue" d="M748.34,-203.46C668.59,-200.69 479.68,-191.04 324.78,-159 239.03,-141.26 141.8,-106.05 92.74,-87.16"/>
<polygon fill="midnightblue" stroke="midnightblue" points="93.89,-83.86 83.3,-83.5 91.36,-90.38 93.89,-83.86"/>
</g>
<!-- Node4 -->
<g id="node4" class="node">
<title>Node4</title>
<g id="a_node4"><a xlink:title=" ">
<polygon fill="white" stroke="#bfbfbf" points="139.66,-57.5 139.66,-89.5 247.91,-89.5 247.91,-57.5 139.66,-57.5"/>
<text text-anchor="start" x="147.66" y="-76.5" font-family="Helvetica,sans-Serif" font-size="10.00">halco/common/typed</text>
<text text-anchor="middle" x="193.78" y="-64.5" font-family="Helvetica,sans-Serif" font-size="10.00">_array.h</text>
</a>
</g>
</g>
<!-- Node2&#45;&gt;Node4 -->
<g id="edge3" class="edge">
<title>Node2&#45;&gt;Node4</title>
<path fill="none" stroke="midnightblue" d="M748.4,-202.13C683.35,-197.55 547.6,-185.47 435.78,-159 365.49,-142.36 287.05,-112.85 239.05,-93.48"/>
<polygon fill="midnightblue" stroke="midnightblue" points="240.16,-90.15 229.58,-89.63 237.52,-96.64 240.16,-90.15"/>
</g>
<!-- Node5 -->
<g id="node5" class="node">
<title>Node5</title>
<g id="a_node5"><a xlink:title=" ">
<polygon fill="white" stroke="#bfbfbf" points="265.66,-57.5 265.66,-89.5 373.91,-89.5 373.91,-57.5 265.66,-57.5"/>
<text text-anchor="start" x="273.66" y="-76.5" font-family="Helvetica,sans-Serif" font-size="10.00">halco/common/typed</text>
<text text-anchor="middle" x="319.78" y="-64.5" font-family="Helvetica,sans-Serif" font-size="10.00">_heap_array.h</text>
</a>
</g>
</g>
<!-- Node2&#45;&gt;Node5 -->
<g id="edge4" class="edge">
<title>Node2&#45;&gt;Node5</title>
<path fill="none" stroke="midnightblue" d="M748.42,-199.9C698.72,-193.4 609.71,-179.95 535.78,-159 473.65,-141.4 404.6,-112.69 361.68,-93.69"/>
<polygon fill="midnightblue" stroke="midnightblue" points="362.96,-90.43 352.4,-89.56 360.11,-96.83 362.96,-90.43"/>
</g>
<!-- Node6 -->
<g id="node6" class="node">
<title>Node6</title>
<g id="a_node6"><a xlink:title=" ">
<polygon fill="white" stroke="#bfbfbf" points="392.11,-63.5 392.11,-83.5 501.46,-83.5 501.46,-63.5 392.11,-63.5"/>
<text text-anchor="middle" x="446.78" y="-70.5" font-family="Helvetica,sans-Serif" font-size="10.00">haldls/cerealization.h</text>
</a>
</g>
</g>
<!-- Node2&#45;&gt;Node6 -->
<g id="edge5" class="edge">
<title>Node2&#45;&gt;Node6</title>
<path fill="none" stroke="midnightblue" d="M748.27,-197.43C711.46,-190.05 654.79,-177.02 607.78,-159 556.5,-139.34 500.55,-107.37 469.97,-88.9"/>
<polygon fill="midnightblue" stroke="midnightblue" points="471.69,-85.85 461.33,-83.63 468.05,-91.83 471.69,-85.85"/>
</g>
<!-- Node7 -->
<g id="node7" class="node">
<title>Node7</title>
<g id="a_node7"><a xlink:title=" ">
<polygon fill="white" stroke="#bfbfbf" points="967.22,-132.5 967.22,-152.5 1054.35,-152.5 1054.35,-132.5 967.22,-132.5"/>
<text text-anchor="middle" x="1010.78" y="-139.5" font-family="Helvetica,sans-Serif" font-size="10.00">haldls/vx/cadc.h</text>
</a>
</g>
</g>
<!-- Node2&#45;&gt;Node7 -->
<g id="edge6" class="edge">
<title>Node2&#45;&gt;Node7</title>
<path fill="none" stroke="midnightblue" d="M819.84,-195.5C859.13,-184.8 924.79,-166.92 967.95,-155.17"/>
<polygon fill="midnightblue" stroke="midnightblue" points="968.87,-158.54 977.6,-152.54 967.03,-151.79 968.87,-158.54"/>
</g>
<!-- Node8 -->
<g id="node8" class="node">
<title>Node8</title>
<g id="a_node8"><a xlink:title=" ">
<polygon fill="white" stroke="#bfbfbf" points="519.61,-63.5 519.61,-83.5 623.96,-83.5 623.96,-63.5 519.61,-63.5"/>
<text text-anchor="middle" x="571.78" y="-70.5" font-family="Helvetica,sans-Serif" font-size="10.00">haldls/vx/common.h</text>
</a>
</g>
</g>
<!-- Node2&#45;&gt;Node8 -->
<g id="edge7" class="edge">
<title>Node2&#45;&gt;Node8</title>
<path fill="none" stroke="midnightblue" d="M748.46,-197.41C719.4,-190.77 679.37,-178.83 648.78,-159 621.16,-141.09 597.01,-110.92 583.43,-91.89"/>
<polygon fill="midnightblue" stroke="midnightblue" points="586.22,-89.77 577.64,-83.55 580.46,-93.76 586.22,-89.77"/>
</g>
<!-- Node9 -->
<g id="node9" class="node">
<title>Node9</title>
<g id="a_node9"><a xlink:title=" ">
<polygon fill="white" stroke="#bfbfbf" points="642.16,-63.5 642.16,-83.5 745.41,-83.5 745.41,-63.5 642.16,-63.5"/>
<text text-anchor="middle" x="693.78" y="-70.5" font-family="Helvetica,sans-Serif" font-size="10.00">haldls/vx/synapse.h</text>
</a>
</g>
</g>
<!-- Node2&#45;&gt;Node9 -->
<g id="edge8" class="edge">
<title>Node2&#45;&gt;Node9</title>
<path fill="none" stroke="midnightblue" d="M748.42,-202.4C718.3,-198.49 678.16,-187.79 657.78,-159 642.61,-137.55 661.88,-108.71 677.54,-90.88"/>
<polygon fill="midnightblue" stroke="midnightblue" points="680.13,-93.24 684.35,-83.52 674.99,-88.48 680.13,-93.24"/>
</g>
<!-- Node10 -->
<g id="node10" class="node">
<title>Node10</title>
<g id="a_node10"><a xlink:title=" ">
<polygon fill="white" stroke="#bfbfbf" points="762.95,-63.5 762.95,-83.5 850.62,-83.5 850.62,-63.5 762.95,-63.5"/>
<text text-anchor="middle" x="806.78" y="-70.5" font-family="Helvetica,sans-Serif" font-size="10.00">haldls/vx/traits.h</text>
</a>
</g>
</g>
<!-- Node2&#45;&gt;Node10 -->
<g id="edge9" class="edge">
<title>Node2&#45;&gt;Node10</title>
<path fill="none" stroke="midnightblue" d="M788.22,-195.15C791.48,-173.98 799.48,-122 803.84,-93.67"/>
<polygon fill="midnightblue" stroke="midnightblue" points="807.3,-94.18 805.36,-83.76 800.38,-93.12 807.3,-94.18"/>
</g>
<!-- Node11 -->
<g id="node11" class="node">
<title>Node11</title>
<g id="a_node11"><a xlink:title=" ">
<polygon fill="white" stroke="#bfbfbf" points="868.28,-63.5 868.28,-83.5 949.29,-83.5 949.29,-63.5 868.28,-63.5"/>
<text text-anchor="middle" x="908.78" y="-70.5" font-family="Helvetica,sans-Serif" font-size="10.00">hate/visibility.h</text>
</a>
</g>
</g>
<!-- Node2&#45;&gt;Node11 -->
<g id="edge10" class="edge">
<title>Node2&#45;&gt;Node11</title>
<path fill="none" stroke="midnightblue" d="M793.14,-195.33C803.82,-180.18 826.41,-149.3 848.78,-126 861.18,-113.09 876.51,-99.97 888.57,-90.21"/>
<polygon fill="midnightblue" stroke="midnightblue" points="891.05,-92.71 896.69,-83.74 886.68,-87.24 891.05,-92.71"/>
</g>
<!-- Node12 -->
<g id="node12" class="node">
<title>Node12</title>
<g id="a_node12"><a xlink:href="cerealization_8h.html" target="_top" xlink:title=" ">
<polygon fill="white" stroke="black" points="967,-63.5 967,-83.5 1078.57,-83.5 1078.57,-63.5 967,-63.5"/>
<text text-anchor="middle" x="1022.78" y="-70.5" font-family="Helvetica,sans-Serif" font-size="10.00">lola/vx/cerealization.h</text>
</a>
</g>
</g>
<!-- Node2&#45;&gt;Node12 -->
<g id="edge11" class="edge">
<title>Node2&#45;&gt;Node12</title>
<path fill="none" stroke="midnightblue" d="M799.84,-195.39C812.55,-186.41 832.3,-172.17 848.78,-159 866.26,-145.04 867.58,-137.47 886.78,-126 915.93,-108.59 951.99,-95.26 979.65,-86.52"/>
<polygon fill="midnightblue" stroke="midnightblue" points="980.9,-89.8 989.43,-83.52 978.85,-83.11 980.9,-89.8"/>
</g>
<!-- Node16 -->
<g id="node16" class="node">
<title>Node16</title>
<g id="a_node16"><a xlink:href="genpybind_8h.html" target="_top" xlink:title=" ">
<polygon fill="white" stroke="black" points="1096.99,-63.5 1096.99,-83.5 1198.58,-83.5 1198.58,-63.5 1096.99,-63.5"/>
<text text-anchor="middle" x="1147.78" y="-70.5" font-family="Helvetica,sans-Serif" font-size="10.00">lola/vx/genpybind.h</text>
</a>
</g>
</g>
<!-- Node2&#45;&gt;Node16 -->
<g id="edge15" class="edge">
<title>Node2&#45;&gt;Node16</title>
<path fill="none" stroke="midnightblue" d="M808.97,-195.44C828.66,-187.03 857.94,-173.64 881.78,-159 902.31,-146.4 902.95,-136.17 924.78,-126 992.04,-94.67 1015.63,-107.28 1087.78,-90 1092.89,-88.78 1098.22,-87.46 1103.51,-86.13"/>
<polygon fill="midnightblue" stroke="midnightblue" points="1104.74,-89.42 1113.57,-83.56 1103.01,-82.64 1104.74,-89.42"/>
</g>
<!-- Node17 -->
<g id="node17" class="node">
<title>Node17</title>
<g id="a_node17"><a xlink:href="synapse_8h.html" target="_top" xlink:title=" ">
<polygon fill="white" stroke="black" points="666.44,-132.5 666.44,-152.5 759.13,-152.5 759.13,-132.5 666.44,-132.5"/>
<text text-anchor="middle" x="712.78" y="-139.5" font-family="Helvetica,sans-Serif" font-size="10.00">lola/vx/synapse.h</text>
</a>
</g>
</g>
<!-- Node2&#45;&gt;Node17 -->
<g id="edge17" class="edge">
<title>Node2&#45;&gt;Node17</title>
<path fill="none" stroke="midnightblue" d="M775.87,-195.5C764.28,-185.95 745.75,-170.67 731.77,-159.15"/>
<polygon fill="midnightblue" stroke="midnightblue" points="733.69,-156.2 723.75,-152.54 729.24,-161.6 733.69,-156.2"/>
</g>
<!-- Node18 -->
<g id="node18" class="node">
<title>Node18</title>
<g id="a_node18"><a xlink:title=" ">
<polygon fill="white" stroke="#bfbfbf" points="1234.42,-63.5 1234.42,-83.5 1377.15,-83.5 1377.15,-63.5 1234.42,-63.5"/>
<text text-anchor="middle" x="1305.78" y="-70.5" font-family="Helvetica,sans-Serif" font-size="10.00">boost/hana/adapt_struct.hpp</text>
</a>
</g>
</g>
<!-- Node2&#45;&gt;Node18 -->
<g id="edge29" class="edge">
<title>Node2&#45;&gt;Node18</title>
<path fill="none" stroke="midnightblue" d="M822.94,-195.44C849.83,-187.86 886.9,-175.61 916.78,-159 937.23,-147.64 936.29,-135.23 957.78,-126 1068.21,-78.58 1107.19,-109.44 1225.78,-90 1234.11,-88.63 1242.9,-87.06 1251.49,-85.46"/>
<polygon fill="midnightblue" stroke="midnightblue" points="1252.27,-88.87 1261.44,-83.57 1250.96,-82 1252.27,-88.87"/>
</g>
<!-- Node19 -->
<g id="node19" class="node">
<title>Node19</title>
<g id="a_node19"><a xlink:title=" ">
<polygon fill="white" stroke="#bfbfbf" points="1072.12,-126.5 1072.12,-158.5 1221.45,-158.5 1221.45,-126.5 1072.12,-126.5"/>
<text text-anchor="start" x="1080.12" y="-145.5" font-family="Helvetica,sans-Serif" font-size="10.00">haldlsID(/)vxID(/)vID</text>
<text text-anchor="middle" x="1146.78" y="-133.5" font-family="Helvetica,sans-Serif" font-size="10.00">(CHIP_REVISION)/capmem.h</text>
</a>
</g>
</g>
<!-- Node2&#45;&gt;Node19 -->
<g id="edge30" class="edge">
<title>Node2&#45;&gt;Node19</title>
<path fill="none" stroke="midnightblue" d="M825.37,-198.43C876.99,-190.26 971.66,-175.06 1061.6,-159.37"/>
<polygon fill="midnightblue" stroke="midnightblue" points="1062.45,-162.77 1071.7,-157.6 1061.24,-155.88 1062.45,-162.77"/>
</g>
<!-- Node20 -->
<g id="node20" class="node">
<title>Node20</title>
<g id="a_node20"><a xlink:title=" ">
<polygon fill="white" stroke="#bfbfbf" points="1239.95,-126.5 1239.95,-158.5 1397.62,-158.5 1397.62,-126.5 1239.95,-126.5"/>
<text text-anchor="start" x="1247.95" y="-145.5" font-family="Helvetica,sans-Serif" font-size="10.00">haldlsID(/)vxID(/)vID</text>
<text text-anchor="middle" x="1318.78" y="-133.5" font-family="Helvetica,sans-Serif" font-size="10.00">(CHIP_REVISION)/correlation.h</text>
</a>
</g>
</g>
<!-- Node2&#45;&gt;Node20 -->
<g id="edge31" class="edge">
<title>Node2&#45;&gt;Node20</title>
<path fill="none" stroke="midnightblue" d="M825.2,-201.5C900.65,-195.42 1073.67,-180.46 1229.44,-159.13"/>
<polygon fill="midnightblue" stroke="midnightblue" points="1230.25,-162.55 1239.67,-157.71 1229.29,-155.61 1230.25,-162.55"/>
</g>
<!-- Node13 -->
<g id="node13" class="node">
<title>Node13</title>
<g id="a_node13"><a xlink:title=" ">
<polygon fill="white" stroke="#bfbfbf" points="899.72,-0.5 899.72,-20.5 961.85,-20.5 961.85,-0.5 899.72,-0.5"/>
<text text-anchor="middle" x="930.78" y="-7.5" font-family="Helvetica,sans-Serif" font-size="10.00">type_traits</text>
</a>
</g>
</g>
<!-- Node12&#45;&gt;Node13 -->
<g id="edge12" class="edge">
<title>Node12&#45;&gt;Node13</title>
<path fill="none" stroke="midnightblue" d="M1009.21,-63.5C994.4,-53.68 970.46,-37.81 952.92,-26.18"/>
<polygon fill="midnightblue" stroke="midnightblue" points="954.68,-23.15 944.42,-20.54 950.82,-28.98 954.68,-23.15"/>
</g>
<!-- Node14 -->
<g id="node14" class="node">
<title>Node14</title>
<g id="a_node14"><a xlink:title=" ">
<polygon fill="white" stroke="#bfbfbf" points="980.32,-0.5 980.32,-20.5 1065.25,-20.5 1065.25,-0.5 980.32,-0.5"/>
<text text-anchor="middle" x="1022.78" y="-7.5" font-family="Helvetica,sans-Serif" font-size="10.00">boost/hana.hpp</text>
</a>
</g>
</g>
<!-- Node12&#45;&gt;Node14 -->
<g id="edge13" class="edge">
<title>Node12&#45;&gt;Node14</title>
<path fill="none" stroke="midnightblue" d="M1022.78,-63.5C1022.78,-54.94 1022.78,-41.78 1022.78,-30.85"/>
<polygon fill="midnightblue" stroke="midnightblue" points="1026.28,-30.54 1022.78,-20.54 1019.28,-30.54 1026.28,-30.54"/>
</g>
<!-- Node15 -->
<g id="node15" class="node">
<title>Node15</title>
<g id="a_node15"><a xlink:title=" ">
<polygon fill="white" stroke="#bfbfbf" points="1083.67,-0.5 1083.67,-20.5 1181.9,-20.5 1181.9,-0.5 1083.67,-0.5"/>
<text text-anchor="middle" x="1132.78" y="-7.5" font-family="Helvetica,sans-Serif" font-size="10.00">cereal/macros.hpp</text>
</a>
</g>
</g>
<!-- Node12&#45;&gt;Node15 -->
<g id="edge14" class="edge">
<title>Node12&#45;&gt;Node15</title>
<path fill="none" stroke="midnightblue" d="M1039.02,-63.5C1057.05,-53.5 1086.4,-37.22 1107.46,-25.54"/>
<polygon fill="midnightblue" stroke="midnightblue" points="1109.44,-28.45 1116.49,-20.54 1106.04,-22.33 1109.44,-28.45"/>
</g>
<!-- Node16&#45;&gt;Node16 -->
<g id="edge16" class="edge">
<title>Node16&#45;&gt;Node16</title>
<path fill="none" stroke="midnightblue" d="M1174.26,-83.56C1195.15,-87.45 1216.58,-84.1 1216.58,-73.5 1216.58,-64.64 1201.6,-60.85 1184.49,-62.11"/>
<polygon fill="midnightblue" stroke="midnightblue" points="1183.72,-58.68 1174.26,-63.44 1184.63,-65.62 1183.72,-58.68"/>
</g>
<!-- Node17&#45;&gt;Node3 -->
<g id="edge18" class="edge">
<title>Node17&#45;&gt;Node3</title>
<path fill="none" stroke="midnightblue" d="M666.14,-139.43C567.07,-134.58 328.53,-120.51 130.78,-90 123.09,-88.81 114.97,-87.28 107.1,-85.64"/>
<polygon fill="midnightblue" stroke="midnightblue" points="107.82,-82.22 97.31,-83.53 106.34,-89.06 107.82,-82.22"/>
</g>
<!-- Node17&#45;&gt;Node4 -->
<g id="edge19" class="edge">
<title>Node17&#45;&gt;Node4</title>
<path fill="none" stroke="midnightblue" d="M666.22,-138.23C585.17,-132.11 412.82,-117.19 258.15,-90.11"/>
<polygon fill="midnightblue" stroke="midnightblue" points="258.44,-86.6 247.99,-88.31 257.22,-93.5 258.44,-86.6"/>
</g>
<!-- Node17&#45;&gt;Node5 -->
<g id="edge20" class="edge">
<title>Node17&#45;&gt;Node5</title>
<path fill="none" stroke="midnightblue" d="M666.38,-135.55C604.25,-127.29 490.43,-111.18 383.96,-90.14"/>
<polygon fill="midnightblue" stroke="midnightblue" points="384.51,-86.68 374.01,-88.16 383.14,-93.55 384.51,-86.68"/>
</g>
<!-- Node17&#45;&gt;Node6 -->
<g id="edge21" class="edge">
<title>Node17&#45;&gt;Node6</title>
<path fill="none" stroke="midnightblue" d="M676.91,-132.46C629.32,-120.48 545.23,-99.3 492.95,-86.13"/>
<polygon fill="midnightblue" stroke="midnightblue" points="493.49,-82.66 482.94,-83.61 491.78,-89.44 493.49,-82.66"/>
</g>
<!-- Node17&#45;&gt;Node8 -->
<g id="edge22" class="edge">
<title>Node17&#45;&gt;Node8</title>
<path fill="none" stroke="midnightblue" d="M693.77,-132.46C669.7,-121.03 628.01,-101.22 600.17,-87.99"/>
<polygon fill="midnightblue" stroke="midnightblue" points="601.48,-84.74 590.95,-83.61 598.48,-91.06 601.48,-84.74"/>
</g>
<!-- Node17&#45;&gt;Node9 -->
<g id="edge23" class="edge">
<title>Node17&#45;&gt;Node9</title>
<path fill="none" stroke="midnightblue" d="M710.22,-132.46C707.4,-122.53 702.8,-106.28 699.18,-93.52"/>
<polygon fill="midnightblue" stroke="midnightblue" points="702.52,-92.49 696.43,-83.82 695.79,-94.4 702.52,-92.49"/>
</g>
<!-- Node17&#45;&gt;Node10 -->
<g id="edge24" class="edge">
<title>Node17&#45;&gt;Node10</title>
<path fill="none" stroke="midnightblue" d="M725.46,-132.46C740.88,-121.47 767.13,-102.76 785.63,-89.58"/>
<polygon fill="midnightblue" stroke="midnightblue" points="787.9,-92.26 794.01,-83.61 783.83,-86.56 787.9,-92.26"/>
</g>
<!-- Node17&#45;&gt;Node11 -->
<g id="edge25" class="edge">
<title>Node17&#45;&gt;Node11</title>
<path fill="none" stroke="midnightblue" d="M739.22,-132.46C773.56,-120.73 833.67,-100.18 872.33,-86.96"/>
<polygon fill="midnightblue" stroke="midnightblue" points="873.81,-90.15 882.14,-83.61 871.55,-83.53 873.81,-90.15"/>
</g>
<!-- Node17&#45;&gt;Node12 -->
<g id="edge26" class="edge">
<title>Node17&#45;&gt;Node12</title>
<path fill="none" stroke="midnightblue" d="M758.22,-132.43C807.65,-122.46 888.98,-105.76 958.78,-90 964.5,-88.71 970.49,-87.32 976.42,-85.91"/>
<polygon fill="midnightblue" stroke="midnightblue" points="977.37,-89.28 986.28,-83.55 975.74,-82.47 977.37,-89.28"/>
</g>
<!-- Node17&#45;&gt;Node16 -->
<g id="edge27" class="edge">
<title>Node17&#45;&gt;Node16</title>
<path fill="none" stroke="midnightblue" d="M759.26,-136.88C830.41,-129.4 970.44,-113.13 1087.78,-90 1093.6,-88.85 1099.69,-87.48 1105.67,-86.04"/>
<polygon fill="midnightblue" stroke="midnightblue" points="1106.71,-89.39 1115.56,-83.56 1105.01,-82.6 1106.71,-89.39"/>
</g>
<!-- Node17&#45;&gt;Node18 -->
<g id="edge28" class="edge">
<title>Node17&#45;&gt;Node18</title>
<path fill="none" stroke="midnightblue" d="M759.29,-138.26C849.55,-131.66 1054.64,-115.12 1225.78,-90 1234.63,-88.7 1243.99,-87.1 1253.06,-85.42"/>
<polygon fill="midnightblue" stroke="midnightblue" points="1253.97,-88.81 1263.14,-83.51 1252.67,-81.93 1253.97,-88.81"/>
</g>
</g>
</svg>
