<?xml version="1.0" encoding="UTF-8" standalone="no"?>
<!DOCTYPE svg PUBLIC "-//W3C//DTD SVG 1.1//EN"
 "http://www.w3.org/Graphics/SVG/1.1/DTD/svg11.dtd">
<!-- Generated by graphviz version 2.46.0 (0)
 -->
<!-- Title: /jenkins/jenlib_workspaces_f9/bld_nightly&#45;haldls.YmxkX25pZ2h0bHktaGFsZGxzIzEzNzk.x/haldls/include/haldls/bitfield.h Pages: 1 -->
<svg width="230pt" height="134pt"
 viewBox="0.00 0.00 229.58 134.00" xmlns="http://www.w3.org/2000/svg" xmlns:xlink="http://www.w3.org/1999/xlink">
<g id="graph0" class="graph" transform="scale(1 1) rotate(0) translate(4 130)">
<title>/jenkins/jenlib_workspaces_f9/bld_nightly&#45;haldls.YmxkX25pZ2h0bHktaGFsZGxzIzEzNzk.x/haldls/include/haldls/bitfield.h</title>
<polygon fill="white" stroke="transparent" points="-4,4 -4,-130 225.58,-130 225.58,4 -4,4"/>
<!-- Node1 -->
<g id="node1" class="node">
<title>Node1</title>
<g id="a_node1"><a xlink:title=" ">
<polygon fill="#bfbfbf" stroke="black" points="20.28,-69.5 20.28,-125.5 201.3,-125.5 201.3,-69.5 20.28,-69.5"/>
<text text-anchor="start" x="28.28" y="-112.5" font-family="Helvetica,sans-Serif" font-size="10.00">/jenkins/jenlib_workspaces</text>
<text text-anchor="start" x="28.28" y="-100.5" font-family="Helvetica,sans-Serif" font-size="10.00">_f9/bld_nightly&#45;haldls.YmxkX25p</text>
<text text-anchor="start" x="28.28" y="-88.5" font-family="Helvetica,sans-Serif" font-size="10.00">Z2h0bHktaGFsZGxzIzEzNzk.x/haldls</text>
<text text-anchor="middle" x="110.79" y="-76.5" font-family="Helvetica,sans-Serif" font-size="10.00">/include/haldls/bitfield.h</text>
</a>
</g>
</g>
<!-- Node2 -->
<g id="node2" class="node">
<title>Node2</title>
<g id="a_node2"><a xlink:title=" ">
<polygon fill="white" stroke="#bfbfbf" points="0,-0.5 0,-32.5 101.58,-32.5 101.58,-0.5 0,-0.5"/>
<text text-anchor="start" x="8" y="-19.5" font-family="Helvetica,sans-Serif" font-size="10.00">boost/preprocessor</text>
<text text-anchor="middle" x="50.79" y="-7.5" font-family="Helvetica,sans-Serif" font-size="10.00">/seq/for_each.hpp</text>
</a>
</g>
</g>
<!-- Node1&#45;&gt;Node2 -->
<g id="edge1" class="edge">
<title>Node1&#45;&gt;Node2</title>
<path fill="none" stroke="midnightblue" d="M90.14,-69.31C83.05,-59.98 75.19,-49.62 68.36,-40.64"/>
<polygon fill="midnightblue" stroke="midnightblue" points="71.03,-38.37 62.2,-32.52 65.46,-42.61 71.03,-38.37"/>
</g>
<!-- Node3 -->
<g id="node3" class="node">
<title>Node3</title>
<g id="a_node3"><a xlink:title=" ">
<polygon fill="white" stroke="#bfbfbf" points="120,-0.5 120,-32.5 221.58,-32.5 221.58,-0.5 120,-0.5"/>
<text text-anchor="start" x="128" y="-19.5" font-family="Helvetica,sans-Serif" font-size="10.00">boost/preprocessor</text>
<text text-anchor="middle" x="170.79" y="-7.5" font-family="Helvetica,sans-Serif" font-size="10.00">/seq/reverse.hpp</text>
</a>
</g>
</g>
<!-- Node1&#45;&gt;Node3 -->
<g id="edge2" class="edge">
<title>Node1&#45;&gt;Node3</title>
<path fill="none" stroke="midnightblue" d="M131.44,-69.31C138.53,-59.98 146.39,-49.62 153.21,-40.64"/>
<polygon fill="midnightblue" stroke="midnightblue" points="156.12,-42.61 159.38,-32.52 150.54,-38.37 156.12,-42.61"/>
</g>
</g>
</svg>
