<?xml version="1.0" encoding="UTF-8" standalone="no"?>
<!DOCTYPE svg PUBLIC "-//W3C//DTD SVG 1.1//EN"
 "http://www.w3.org/Graphics/SVG/1.1/DTD/svg11.dtd">
<!-- Generated by graphviz version 2.46.0 (0)
 -->
<!-- Title: /jenkins/jenlib_workspaces_f9/bld_nightly&#45;haldls.YmxkX25pZ2h0bHktaGFsZGxzIzEzNzk.x/haldls/include/haldls/vx/block.h Pages: 1 -->
<!--zoomable 203 -->
<svg id="main" version="1.1" xmlns="http://www.w3.org/2000/svg" xmlns:xlink="http://www.w3.org/1999/xlink" xml:space="preserve" onload="init(evt)">
<style type="text/css"><![CDATA[
.edge:hover path { stroke: red; }
.edge:hover polygon { stroke: red; fill: red; }
]]></style>
<script type="text/javascript"><![CDATA[
var edges = document.getElementsByTagName('g');
if (edges && edges.length) {
  for (var i=0;i<edges.length;i++) {
    if (edges[i].id.substr(0,4)=='edge') {
      edges[i].setAttribute('class','edge');
    }
  }
}
]]></script>
        <defs>
                <circle id="rim" cx="0" cy="0" r="7"/>
                <circle id="rim2" cx="0" cy="0" r="3.5"/>
                <g id="zoomPlus">
                        <use xlink:href="#rim" fill="#404040">
                                <set attributeName="fill" to="#808080" begin="zoomplus.mouseover" end="zoomplus.mouseout"/>
                        </use>
                        <path d="M-4,0h8M0,-4v8" fill="none" stroke="white" stroke-width="1.5" pointer-events="none"/>
                </g>
                <g id="zoomMin">
                        <use xlink:href="#rim" fill="#404040">
                                <set attributeName="fill" to="#808080" begin="zoomminus.mouseover" end="zoomminus.mouseout"/>
                        </use>
                        <path d="M-4,0h8" fill="none" stroke="white" stroke-width="1.5" pointer-events="none"/>
                </g>
                <g id="dirArrow">
                        <path fill="none" stroke="white" stroke-width="1.5" d="M0,-3.0v7 M-2.5,-0.5L0,-3.0L2.5,-0.5"/>
                </g>
               <g id="resetDef">
                       <use xlink:href="#rim2" fill="#404040">
                               <set attributeName="fill" to="#808080" begin="reset.mouseover" end="reset.mouseout"/>
                       </use>
               </g>
        </defs>

<script type="text/javascript">
var viewWidth = 1243;
var viewHeight = 203;
var sectionId = 'dynsection-0';
</script>
<script xlink:href="svgpan.js"/>
<svg id="graph" class="graph">
<g id="viewport">
<title>/jenkins/jenlib_workspaces_f9/bld_nightly&#45;haldls.YmxkX25pZ2h0bHktaGFsZGxzIzEzNzk.x/haldls/include/haldls/vx/block.h</title>
<polygon fill="white" stroke="transparent" points="-4,4 -4,-199 1239.19,-199 1239.19,4 -4,4"/>
<!-- Node1 -->
<g id="node1" class="node">
<title>Node1</title>
<g id="a_node1"><a xlink:title=" ">
<polygon fill="#bfbfbf" stroke="black" points="416.56,-138.5 416.56,-194.5 597.58,-194.5 597.58,-138.5 416.56,-138.5"/>
<text text-anchor="start" x="424.56" y="-181.5" font-family="Helvetica,sans-Serif" font-size="10.00">/jenkins/jenlib_workspaces</text>
<text text-anchor="start" x="424.56" y="-169.5" font-family="Helvetica,sans-Serif" font-size="10.00">_f9/bld_nightly&#45;haldls.YmxkX25p</text>
<text text-anchor="start" x="424.56" y="-157.5" font-family="Helvetica,sans-Serif" font-size="10.00">Z2h0bHktaGFsZGxzIzEzNzk.x/haldls</text>
<text text-anchor="middle" x="507.07" y="-145.5" font-family="Helvetica,sans-Serif" font-size="10.00">/include/haldls/vx/block.h</text>
</a>
</g>
</g>
<!-- Node2 -->
<g id="node2" class="node">
<title>Node2</title>
<g id="a_node2"><a xlink:title=" ">
<polygon fill="white" stroke="#bfbfbf" points="11.68,-75.5 11.68,-95.5 50.46,-95.5 50.46,-75.5 11.68,-75.5"/>
<text text-anchor="middle" x="31.07" y="-82.5" font-family="Helvetica,sans-Serif" font-size="10.00">array</text>
</a>
</g>
</g>
<!-- Node1&#45;&gt;Node2 -->
<g id="edge1" class="edge">
<title>Node1&#45;&gt;Node2</title>
<path fill="none" stroke="midnightblue" d="M416.46,-162.3C324.37,-156.84 178.62,-142.04 59.07,-102 57.44,-101.45 55.8,-100.81 54.16,-100.11"/>
<polygon fill="midnightblue" stroke="midnightblue" points="55.65,-96.94 45.14,-95.6 52.52,-103.2 55.65,-96.94"/>
</g>
<!-- Node3 -->
<g id="node3" class="node">
<title>Node3</title>
<g id="a_node3"><a xlink:title=" ">
<polygon fill="white" stroke="#bfbfbf" points="68.01,-75.5 68.01,-95.5 120.13,-95.5 120.13,-75.5 68.01,-75.5"/>
<text text-anchor="middle" x="94.07" y="-82.5" font-family="Helvetica,sans-Serif" font-size="10.00">ostream</text>
</a>
</g>
</g>
<!-- Node1&#45;&gt;Node3 -->
<g id="edge2" class="edge">
<title>Node1&#45;&gt;Node3</title>
<path fill="none" stroke="midnightblue" d="M416.26,-156.71C338.77,-147.68 224.99,-130.8 129.07,-102 126.62,-101.26 124.12,-100.4 121.63,-99.46"/>
<polygon fill="midnightblue" stroke="midnightblue" points="122.85,-96.18 112.27,-95.59 120.18,-102.65 122.85,-96.18"/>
</g>
<!-- Node4 -->
<g id="node4" class="node">
<title>Node4</title>
<g id="a_node4"><a xlink:title=" ">
<polygon fill="white" stroke="#bfbfbf" points="137.84,-69.5 137.84,-101.5 248.3,-101.5 248.3,-69.5 137.84,-69.5"/>
<text text-anchor="start" x="145.84" y="-88.5" font-family="Helvetica,sans-Serif" font-size="10.00">fisch/vx/word_access</text>
<text text-anchor="middle" x="193.07" y="-76.5" font-family="Helvetica,sans-Serif" font-size="10.00">/type/omnibus.h</text>
</a>
</g>
</g>
<!-- Node1&#45;&gt;Node4 -->
<g id="edge3" class="edge">
<title>Node1&#45;&gt;Node4</title>
<path fill="none" stroke="midnightblue" d="M416.25,-142.65C365.8,-129.96 304.18,-114.45 258.48,-102.96"/>
<polygon fill="midnightblue" stroke="midnightblue" points="259.24,-99.54 248.69,-100.49 257.54,-106.33 259.24,-99.54"/>
</g>
<!-- Node5 -->
<g id="node5" class="node">
<title>Node5</title>
<g id="a_node5"><a xlink:title=" ">
<polygon fill="white" stroke="#bfbfbf" points="266.17,-75.5 266.17,-95.5 399.97,-95.5 399.97,-75.5 266.17,-75.5"/>
<text text-anchor="middle" x="333.07" y="-82.5" font-family="Helvetica,sans-Serif" font-size="10.00">halco/common/geometry.h</text>
</a>
</g>
</g>
<!-- Node1&#45;&gt;Node5 -->
<g id="edge4" class="edge">
<title>Node1&#45;&gt;Node5</title>
<path fill="none" stroke="midnightblue" d="M447.19,-138.31C418.46,-125.27 385.35,-110.23 362.22,-99.73"/>
<polygon fill="midnightblue" stroke="midnightblue" points="363.51,-96.47 352.95,-95.53 360.61,-102.85 363.51,-96.47"/>
</g>
<!-- Node6 -->
<g id="node6" class="node">
<title>Node6</title>
<g id="a_node6"><a xlink:title=" ">
<polygon fill="white" stroke="#bfbfbf" points="417.56,-69.5 417.56,-101.5 518.58,-101.5 518.58,-69.5 417.56,-69.5"/>
<text text-anchor="start" x="425.56" y="-88.5" font-family="Helvetica,sans-Serif" font-size="10.00">halco/hicann&#45;dls/vx</text>
<text text-anchor="middle" x="468.07" y="-76.5" font-family="Helvetica,sans-Serif" font-size="10.00">/omnibus.h</text>
</a>
</g>
</g>
<!-- Node1&#45;&gt;Node6 -->
<g id="edge5" class="edge">
<title>Node1&#45;&gt;Node6</title>
<path fill="none" stroke="midnightblue" d="M493.65,-138.31C489.23,-129.36 484.35,-119.48 480.05,-110.76"/>
<polygon fill="midnightblue" stroke="midnightblue" points="483.05,-108.94 475.49,-101.52 476.78,-112.04 483.05,-108.94"/>
</g>
<!-- Node7 -->
<g id="node7" class="node">
<title>Node7</title>
<g id="a_node7"><a xlink:href="cerealization_8h.html" target="_top" xlink:title=" ">
<polygon fill="white" stroke="black" points="898.4,-75.5 898.4,-95.5 1007.75,-95.5 1007.75,-75.5 898.4,-75.5"/>
<text text-anchor="middle" x="953.07" y="-82.5" font-family="Helvetica,sans-Serif" font-size="10.00">haldls/cerealization.h</text>
</a>
</g>
</g>
<!-- Node1&#45;&gt;Node7 -->
<g id="edge6" class="edge">
<title>Node1&#45;&gt;Node7</title>
<path fill="none" stroke="midnightblue" d="M597.59,-149.47C685.44,-133.91 816.31,-110.72 892.33,-97.26"/>
<polygon fill="midnightblue" stroke="midnightblue" points="892.99,-100.7 902.23,-95.51 891.77,-93.8 892.99,-100.7"/>
</g>
<!-- Node9 -->
<g id="node9" class="node">
<title>Node9</title>
<g id="a_node9"><a xlink:title=" ">
<polygon fill="white" stroke="#bfbfbf" points="912.57,-6.5 912.57,-26.5 993.57,-26.5 993.57,-6.5 912.57,-6.5"/>
<text text-anchor="middle" x="953.07" y="-13.5" font-family="Helvetica,sans-Serif" font-size="10.00">hate/visibility.h</text>
</a>
</g>
</g>
<!-- Node1&#45;&gt;Node9 -->
<g id="edge24" class="edge">
<title>Node1&#45;&gt;Node9</title>
<path fill="none" stroke="midnightblue" d="M588.62,-138.44C685.89,-106.16 844.31,-53.59 915.89,-29.84"/>
<polygon fill="midnightblue" stroke="midnightblue" points="917.41,-33.02 925.8,-26.55 915.21,-26.38 917.41,-33.02"/>
</g>
<!-- Node13 -->
<g id="node13" class="node">
<title>Node13</title>
<g id="a_node13"><a xlink:href="genpybind_8h.html" target="_top" xlink:title=" ">
<polygon fill="white" stroke="black" points="0,-6.5 0,-26.5 112.14,-26.5 112.14,-6.5 0,-6.5"/>
<text text-anchor="middle" x="56.07" y="-13.5" font-family="Helvetica,sans-Serif" font-size="10.00">haldls/vx/genpybind.h</text>
</a>
</g>
</g>
<!-- Node1&#45;&gt;Node13 -->
<g id="edge12" class="edge">
<title>Node1&#45;&gt;Node13</title>
<path fill="none" stroke="midnightblue" d="M524.26,-138.48C535.48,-117.07 545.17,-87.75 528.07,-69 498.83,-36.92 182.06,-38.99 139.07,-33 129.7,-31.69 119.77,-30.06 110.17,-28.35"/>
<polygon fill="midnightblue" stroke="midnightblue" points="110.78,-24.9 100.31,-26.55 109.52,-31.79 110.78,-24.9"/>
</g>
<!-- Node14 -->
<g id="node14" class="node">
<title>Node14</title>
<g id="a_node14"><a xlink:href="traits_8h.html" target="_top" xlink:title=" ">
<polygon fill="white" stroke="black" points="575.23,-75.5 575.23,-95.5 662.91,-95.5 662.91,-75.5 575.23,-75.5"/>
<text text-anchor="middle" x="619.07" y="-82.5" font-family="Helvetica,sans-Serif" font-size="10.00">haldls/vx/traits.h</text>
</a>
</g>
</g>
<!-- Node1&#45;&gt;Node14 -->
<g id="edge14" class="edge">
<title>Node1&#45;&gt;Node14</title>
<path fill="none" stroke="midnightblue" d="M545.62,-138.31C563.12,-125.97 583.15,-111.84 597.87,-101.46"/>
<polygon fill="midnightblue" stroke="midnightblue" points="600.12,-104.15 606.27,-95.53 596.08,-98.43 600.12,-104.15"/>
</g>
<!-- Node21 -->
<g id="node21" class="node">
<title>Node21</title>
<g id="a_node21"><a xlink:title=" ">
<polygon fill="white" stroke="#bfbfbf" points="1025.45,-75.5 1025.45,-95.5 1128.69,-95.5 1128.69,-75.5 1025.45,-75.5"/>
<text text-anchor="middle" x="1077.07" y="-82.5" font-family="Helvetica,sans-Serif" font-size="10.00">hxcomm/vx/target.h</text>
</a>
</g>
</g>
<!-- Node1&#45;&gt;Node21 -->
<g id="edge25" class="edge">
<title>Node1&#45;&gt;Node21</title>
<path fill="none" stroke="midnightblue" d="M597.91,-157.76C700.33,-148.2 871.58,-129.73 1017.07,-102 1022.96,-100.88 1029.13,-99.51 1035.18,-98.05"/>
<polygon fill="midnightblue" stroke="midnightblue" points="1036.32,-101.38 1045.17,-95.56 1034.62,-94.59 1036.32,-101.38"/>
</g>
<!-- Node8 -->
<g id="node8" class="node">
<title>Node8</title>
<g id="a_node8"><a xlink:title=" ">
<polygon fill="white" stroke="#bfbfbf" points="811.45,-6.5 811.45,-26.5 894.69,-26.5 894.69,-6.5 811.45,-6.5"/>
<text text-anchor="middle" x="853.07" y="-13.5" font-family="Helvetica,sans-Serif" font-size="10.00">hate/type_list.h</text>
</a>
</g>
</g>
<!-- Node7&#45;&gt;Node8 -->
<g id="edge7" class="edge">
<title>Node7&#45;&gt;Node8</title>
<path fill="none" stroke="midnightblue" d="M939.59,-75.46C923.03,-64.38 894.75,-45.42 875.04,-32.22"/>
<polygon fill="midnightblue" stroke="midnightblue" points="876.92,-29.27 866.66,-26.61 873.02,-35.08 876.92,-29.27"/>
</g>
<!-- Node7&#45;&gt;Node9 -->
<g id="edge8" class="edge">
<title>Node7&#45;&gt;Node9</title>
<path fill="none" stroke="midnightblue" d="M953.07,-75.46C953.07,-65.63 953.07,-49.61 953.07,-36.9"/>
<polygon fill="midnightblue" stroke="midnightblue" points="956.57,-36.82 953.07,-26.82 949.57,-36.82 956.57,-36.82"/>
</g>
<!-- Node10 -->
<g id="node10" class="node">
<title>Node10</title>
<g id="a_node10"><a xlink:title=" ">
<polygon fill="white" stroke="#bfbfbf" points="1011.62,-6.5 1011.62,-26.5 1056.52,-26.5 1056.52,-6.5 1011.62,-6.5"/>
<text text-anchor="middle" x="1034.07" y="-13.5" font-family="Helvetica,sans-Serif" font-size="10.00">cstdint</text>
</a>
</g>
</g>
<!-- Node7&#45;&gt;Node10 -->
<g id="edge9" class="edge">
<title>Node7&#45;&gt;Node10</title>
<path fill="none" stroke="midnightblue" d="M964,-75.46C977.04,-64.67 999.08,-46.44 1014.97,-33.3"/>
<polygon fill="midnightblue" stroke="midnightblue" points="1017.59,-35.68 1023.06,-26.61 1013.13,-30.28 1017.59,-35.68"/>
</g>
<!-- Node11 -->
<g id="node11" class="node">
<title>Node11</title>
<g id="a_node11"><a xlink:title=" ">
<polygon fill="white" stroke="#bfbfbf" points="1074.9,-6.5 1074.9,-26.5 1119.24,-26.5 1119.24,-6.5 1074.9,-6.5"/>
<text text-anchor="middle" x="1097.07" y="-13.5" font-family="Helvetica,sans-Serif" font-size="10.00">iosfwd</text>
</a>
</g>
</g>
<!-- Node7&#45;&gt;Node11 -->
<g id="edge10" class="edge">
<title>Node7&#45;&gt;Node11</title>
<path fill="none" stroke="midnightblue" d="M973.36,-75.32C995.84,-65.11 1033.14,-48.07 1065.07,-33 1066.43,-32.36 1067.82,-31.7 1069.23,-31.03"/>
<polygon fill="midnightblue" stroke="midnightblue" points="1070.99,-34.06 1078.49,-26.58 1067.96,-27.75 1070.99,-34.06"/>
</g>
<!-- Node12 -->
<g id="node12" class="node">
<title>Node12</title>
<g id="a_node12"><a xlink:title=" ">
<polygon fill="white" stroke="#bfbfbf" points="1136.95,-6.5 1136.95,-26.5 1235.19,-26.5 1235.19,-6.5 1136.95,-6.5"/>
<text text-anchor="middle" x="1186.07" y="-13.5" font-family="Helvetica,sans-Serif" font-size="10.00">cereal/macros.hpp</text>
</a>
</g>
</g>
<!-- Node7&#45;&gt;Node12 -->
<g id="edge11" class="edge">
<title>Node7&#45;&gt;Node12</title>
<path fill="none" stroke="midnightblue" d="M984.49,-75.46C1025.92,-63.55 1098.92,-42.56 1144.77,-29.38"/>
<polygon fill="midnightblue" stroke="midnightblue" points="1145.76,-32.73 1154.4,-26.61 1143.82,-26.01 1145.76,-32.73"/>
</g>
<!-- Node13&#45;&gt;Node13 -->
<g id="edge13" class="edge">
<title>Node13&#45;&gt;Node13</title>
<path fill="none" stroke="midnightblue" d="M79.97,-26.54C103.79,-32.26 130.14,-28.92 130.14,-16.5 130.14,-5.78 110.51,-1.82 89.81,-4.62"/>
<polygon fill="midnightblue" stroke="midnightblue" points="89.15,-1.18 79.97,-6.46 90.44,-8.06 89.15,-1.18"/>
</g>
<!-- Node14&#45;&gt;Node8 -->
<g id="edge18" class="edge">
<title>Node14&#45;&gt;Node8</title>
<path fill="none" stroke="midnightblue" d="M651.86,-75.49C688.52,-65.37 749.65,-48.34 802.07,-33 805.91,-31.88 809.9,-30.69 813.89,-29.5"/>
<polygon fill="midnightblue" stroke="midnightblue" points="815.14,-32.78 823.71,-26.54 813.12,-26.07 815.14,-32.78"/>
</g>
<!-- Node14&#45;&gt;Node9 -->
<g id="edge19" class="edge">
<title>Node14&#45;&gt;Node9</title>
<path fill="none" stroke="midnightblue" d="M663.38,-78.29C719.75,-69.97 819.88,-53.83 904.07,-33 908.21,-31.98 912.52,-30.79 916.78,-29.55"/>
<polygon fill="midnightblue" stroke="midnightblue" points="918,-32.83 926.54,-26.57 915.96,-26.14 918,-32.83"/>
</g>
<!-- Node14&#45;&gt;Node13 -->
<g id="edge17" class="edge">
<title>Node14&#45;&gt;Node13</title>
<path fill="none" stroke="midnightblue" d="M589.19,-75.44C580.22,-73.01 570.31,-70.62 561.07,-69 375.65,-36.57 325.6,-58.31 139.07,-33 129.58,-31.71 119.54,-30.07 109.83,-28.35"/>
<polygon fill="midnightblue" stroke="midnightblue" points="110.34,-24.88 99.88,-26.52 109.08,-31.77 110.34,-24.88"/>
</g>
<!-- Node15 -->
<g id="node15" class="node">
<title>Node15</title>
<g id="a_node15"><a xlink:title=" ">
<polygon fill="white" stroke="#bfbfbf" points="148.01,-6.5 148.01,-26.5 230.13,-26.5 230.13,-6.5 148.01,-6.5"/>
<text text-anchor="middle" x="189.07" y="-13.5" font-family="Helvetica,sans-Serif" font-size="10.00">fisch/vx/traits.h</text>
</a>
</g>
</g>
<!-- Node14&#45;&gt;Node15 -->
<g id="edge15" class="edge">
<title>Node14&#45;&gt;Node15</title>
<path fill="none" stroke="midnightblue" d="M588.57,-75.43C579.76,-73.06 570.08,-70.7 561.07,-69 419.56,-42.34 380.03,-62.45 239.07,-33 234.37,-32.02 229.48,-30.78 224.68,-29.44"/>
<polygon fill="midnightblue" stroke="midnightblue" points="225.62,-26.06 215.04,-26.57 223.62,-32.77 225.62,-26.06"/>
</g>
<!-- Node16 -->
<g id="node16" class="node">
<title>Node16</title>
<g id="a_node16"><a xlink:title=" ">
<polygon fill="white" stroke="#bfbfbf" points="247.84,-0.5 247.84,-32.5 358.3,-32.5 358.3,-0.5 247.84,-0.5"/>
<text text-anchor="start" x="255.84" y="-19.5" font-family="Helvetica,sans-Serif" font-size="10.00">fisch/vx/word_access</text>
<text text-anchor="middle" x="303.07" y="-7.5" font-family="Helvetica,sans-Serif" font-size="10.00">_type.h</text>
</a>
</g>
</g>
<!-- Node14&#45;&gt;Node16 -->
<g id="edge16" class="edge">
<title>Node14&#45;&gt;Node16</title>
<path fill="none" stroke="midnightblue" d="M586.97,-75.44C578.57,-73.21 569.51,-70.91 561.07,-69 478.63,-50.36 454.55,-51.23 368.48,-33.23"/>
<polygon fill="midnightblue" stroke="midnightblue" points="369.04,-29.77 358.53,-31.13 367.59,-36.62 369.04,-29.77"/>
</g>
<!-- Node17 -->
<g id="node17" class="node">
<title>Node17</title>
<g id="a_node17"><a xlink:title=" ">
<polygon fill="white" stroke="#bfbfbf" points="376.01,-6.5 376.01,-26.5 438.13,-26.5 438.13,-6.5 376.01,-6.5"/>
<text text-anchor="middle" x="407.07" y="-13.5" font-family="Helvetica,sans-Serif" font-size="10.00">type_traits</text>
</a>
</g>
</g>
<!-- Node14&#45;&gt;Node17 -->
<g id="edge20" class="edge">
<title>Node14&#45;&gt;Node17</title>
<path fill="none" stroke="midnightblue" d="M586.17,-75.48C551.38,-65.75 494.99,-49.43 447.07,-33 444.36,-32.07 441.57,-31.07 438.77,-30.04"/>
<polygon fill="midnightblue" stroke="midnightblue" points="439.97,-26.76 429.38,-26.5 437.5,-33.31 439.97,-26.76"/>
</g>
<!-- Node18 -->
<g id="node18" class="node">
<title>Node18</title>
<g id="a_node18"><a xlink:title=" ">
<polygon fill="white" stroke="#bfbfbf" points="455.67,-0.5 455.67,-32.5 554.47,-32.5 554.47,-0.5 455.67,-0.5"/>
<text text-anchor="start" x="463.67" y="-19.5" font-family="Helvetica,sans-Serif" font-size="10.00">boost/utility/enable</text>
<text text-anchor="middle" x="505.07" y="-7.5" font-family="Helvetica,sans-Serif" font-size="10.00">_if.hpp</text>
</a>
</g>
</g>
<!-- Node14&#45;&gt;Node18 -->
<g id="edge21" class="edge">
<title>Node14&#45;&gt;Node18</title>
<path fill="none" stroke="midnightblue" d="M603.7,-75.46C587.32,-65.84 560.86,-50.29 539.46,-37.71"/>
<polygon fill="midnightblue" stroke="midnightblue" points="541.05,-34.58 530.65,-32.53 537.5,-40.62 541.05,-34.58"/>
</g>
<!-- Node19 -->
<g id="node19" class="node">
<title>Node19</title>
<g id="a_node19"><a xlink:title=" ">
<polygon fill="white" stroke="#bfbfbf" points="572.72,-6.5 572.72,-26.5 665.42,-26.5 665.42,-6.5 572.72,-6.5"/>
<text text-anchor="middle" x="619.07" y="-13.5" font-family="Helvetica,sans-Serif" font-size="10.00">boost/variant.hpp</text>
</a>
</g>
</g>
<!-- Node14&#45;&gt;Node19 -->
<g id="edge22" class="edge">
<title>Node14&#45;&gt;Node19</title>
<path fill="none" stroke="midnightblue" d="M619.07,-75.46C619.07,-65.63 619.07,-49.61 619.07,-36.9"/>
<polygon fill="midnightblue" stroke="midnightblue" points="622.57,-36.82 619.07,-26.82 615.57,-36.82 622.57,-36.82"/>
</g>
<!-- Node20 -->
<g id="node20" class="node">
<title>Node20</title>
<g id="a_node20"><a xlink:title=" ">
<polygon fill="white" stroke="#bfbfbf" points="683.12,-6.5 683.12,-26.5 793.03,-26.5 793.03,-6.5 683.12,-6.5"/>
<text text-anchor="middle" x="738.07" y="-13.5" font-family="Helvetica,sans-Serif" font-size="10.00">fisch/vx/container.def</text>
</a>
</g>
</g>
<!-- Node14&#45;&gt;Node20 -->
<g id="edge23" class="edge">
<title>Node14&#45;&gt;Node20</title>
<path fill="none" stroke="midnightblue" d="M635.12,-75.46C655.08,-64.23 689.39,-44.91 712.87,-31.69"/>
<polygon fill="midnightblue" stroke="midnightblue" points="714.9,-34.56 721.9,-26.61 711.47,-28.46 714.9,-34.56"/>
</g>
</g>
</svg>
        <g id="navigator" transform="translate(0 0)" fill="#404254">
                <rect fill="#f2f5e9" fill-opacity="0.5" stroke="#606060" stroke-width=".5" x="0" y="0" width="60" height="60"/>
                <use id="zoomplus" xlink:href="#zoomPlus" x="17" y="9" onmousedown="handleZoom(evt,'in')"/>
                <use id="zoomminus" xlink:href="#zoomMin" x="42" y="9" onmousedown="handleZoom(evt,'out')"/>
                <use id="reset" xlink:href="#resetDef" x="30" y="36" onmousedown="handleReset()"/>
                <g id="arrowUp" xlink:href="#dirArrow" transform="translate(30 24)" onmousedown="handlePan(0,-1)">
                  <use xlink:href="#rim" fill="#404040">
                        <set attributeName="fill" to="#808080" begin="arrowUp.mouseover" end="arrowUp.mouseout"/>
                  </use>
                  <path fill="none" stroke="white" stroke-width="1.5" d="M0,-3.0v7 M-2.5,-0.5L0,-3.0L2.5,-0.5"/>
                </g>
                <g id="arrowRight" xlink:href="#dirArrow" transform="rotate(90) translate(36 -43)" onmousedown="handlePan(1,0)">
                  <use xlink:href="#rim" fill="#404040">
                        <set attributeName="fill" to="#808080" begin="arrowRight.mouseover" end="arrowRight.mouseout"/>
                  </use>
                  <path fill="none" stroke="white" stroke-width="1.5" d="M0,-3.0v7 M-2.5,-0.5L0,-3.0L2.5,-0.5"/>
                </g>
                <g id="arrowDown" xlink:href="#dirArrow" transform="rotate(180) translate(-30 -48)" onmousedown="handlePan(0,1)">
                  <use xlink:href="#rim" fill="#404040">
                        <set attributeName="fill" to="#808080" begin="arrowDown.mouseover" end="arrowDown.mouseout"/>
                  </use>
                  <path fill="none" stroke="white" stroke-width="1.5" d="M0,-3.0v7 M-2.5,-0.5L0,-3.0L2.5,-0.5"/>
                </g>
                <g id="arrowLeft" xlink:href="#dirArrow" transform="rotate(270) translate(-36 17)" onmousedown="handlePan(-1,0)">
                  <use xlink:href="#rim" fill="#404040">
                        <set attributeName="fill" to="#808080" begin="arrowLeft.mouseover" end="arrowLeft.mouseout"/>
                  </use>
                  <path fill="none" stroke="white" stroke-width="1.5" d="M0,-3.0v7 M-2.5,-0.5L0,-3.0L2.5,-0.5"/>
                </g>
        </g>
        <svg viewBox="0 0 15 15" width="100%" height="30px" preserveAspectRatio="xMaxYMin meet">
         <g id="arrow_out" transform="scale(0.3 0.3)">
          <a xlink:href="block_8h__incl_org.svg" target="_base">
           <rect id="button" ry="5" rx="5" y="6" x="6" height="38" width="38"
                fill="#f2f5e9" fill-opacity="0.5" stroke="#606060" stroke-width="1.0"/>
           <path id="arrow"
             d="M 11.500037,31.436501 C 11.940474,20.09759 22.043105,11.32322 32.158766,21.979434 L 37.068811,17.246167 C 37.068811,17.246167 37.088388,32 37.088388,32 L 22.160133,31.978069 C 22.160133,31.978069 26.997745,27.140456 26.997745,27.140456 C 18.528582,18.264221 13.291696,25.230495 11.500037,31.436501 z"
             style="fill:#404040;"/>
          </a>
         </g>
        </svg>
</svg>
