<?xml version="1.0" encoding="UTF-8" standalone="no"?>
<!DOCTYPE svg PUBLIC "-//W3C//DTD SVG 1.1//EN"
 "http://www.w3.org/Graphics/SVG/1.1/DTD/svg11.dtd">
<!-- Generated by graphviz version 2.46.0 (0)
 -->
<!-- Title: /jenkins/jenlib_workspaces_f9/bld_nightly&#45;haldls.YmxkX25pZ2h0bHktaGFsZGxzIzEzNzk.x/haldls/include/haldls/vx/cadc.h Pages: 1 -->
<svg width="1301pt" height="260pt"
 viewBox="0.00 0.00 1300.80 260.00" xmlns="http://www.w3.org/2000/svg" xmlns:xlink="http://www.w3.org/1999/xlink">
<g id="graph0" class="graph" transform="scale(1 1) rotate(0) translate(4 256)">
<title>/jenkins/jenlib_workspaces_f9/bld_nightly&#45;haldls.YmxkX25pZ2h0bHktaGFsZGxzIzEzNzk.x/haldls/include/haldls/vx/cadc.h</title>
<polygon fill="white" stroke="transparent" points="-4,4 -4,-256 1296.8,-256 1296.8,4 -4,4"/>
<!-- Node1 -->
<g id="node1" class="node">
<title>Node1</title>
<g id="a_node1"><a xlink:title=" ">
<polygon fill="#bfbfbf" stroke="black" points="298.94,-195.5 298.94,-251.5 479.96,-251.5 479.96,-195.5 298.94,-195.5"/>
<text text-anchor="start" x="306.94" y="-238.5" font-family="Helvetica,sans-Serif" font-size="10.00">/jenkins/jenlib_workspaces</text>
<text text-anchor="start" x="306.94" y="-226.5" font-family="Helvetica,sans-Serif" font-size="10.00">_f9/bld_nightly&#45;haldls.YmxkX25p</text>
<text text-anchor="start" x="306.94" y="-214.5" font-family="Helvetica,sans-Serif" font-size="10.00">Z2h0bHktaGFsZGxzIzEzNzk.x/haldls</text>
<text text-anchor="middle" x="389.45" y="-202.5" font-family="Helvetica,sans-Serif" font-size="10.00">/include/haldls/vx/cadc.h</text>
</a>
</g>
</g>
<!-- Node2 -->
<g id="node2" class="node">
<title>Node2</title>
<g id="a_node2"><a xlink:title=" ">
<polygon fill="white" stroke="#bfbfbf" points="51.55,-132.5 51.55,-152.5 185.35,-152.5 185.35,-132.5 51.55,-132.5"/>
<text text-anchor="middle" x="118.45" y="-139.5" font-family="Helvetica,sans-Serif" font-size="10.00">halco/common/geometry.h</text>
</a>
</g>
</g>
<!-- Node1&#45;&gt;Node2 -->
<g id="edge1" class="edge">
<title>Node1&#45;&gt;Node2</title>
<path fill="none" stroke="midnightblue" d="M298.83,-196.08C251.57,-182.31 196.11,-166.14 159.28,-155.4"/>
<polygon fill="midnightblue" stroke="midnightblue" points="159.99,-151.96 149.41,-152.53 158.03,-158.69 159.99,-151.96"/>
</g>
<!-- Node3 -->
<g id="node3" class="node">
<title>Node3</title>
<g id="a_node3"><a xlink:title=" ">
<polygon fill="white" stroke="#bfbfbf" points="202.94,-126.5 202.94,-158.5 303.96,-158.5 303.96,-126.5 202.94,-126.5"/>
<text text-anchor="start" x="210.94" y="-145.5" font-family="Helvetica,sans-Serif" font-size="10.00">halco/hicann&#45;dls/vx</text>
<text text-anchor="middle" x="253.45" y="-133.5" font-family="Helvetica,sans-Serif" font-size="10.00">/cadc.h</text>
</a>
</g>
</g>
<!-- Node1&#45;&gt;Node3 -->
<g id="edge2" class="edge">
<title>Node1&#45;&gt;Node3</title>
<path fill="none" stroke="midnightblue" d="M342.64,-195.31C324.75,-184.92 304.68,-173.26 288.12,-163.64"/>
<polygon fill="midnightblue" stroke="midnightblue" points="289.72,-160.52 279.31,-158.52 286.2,-166.57 289.72,-160.52"/>
</g>
<!-- Node4 -->
<g id="node4" class="node">
<title>Node4</title>
<g id="a_node4"><a xlink:href="cerealization_8h.html" target="_top" xlink:title=" ">
<polygon fill="white" stroke="black" points="227.77,-69.5 227.77,-89.5 337.12,-89.5 337.12,-69.5 227.77,-69.5"/>
<text text-anchor="middle" x="282.45" y="-76.5" font-family="Helvetica,sans-Serif" font-size="10.00">haldls/cerealization.h</text>
</a>
</g>
</g>
<!-- Node1&#45;&gt;Node4 -->
<g id="edge3" class="edge">
<title>Node1&#45;&gt;Node4</title>
<path fill="none" stroke="midnightblue" d="M369.07,-195.46C347.46,-166.77 313.95,-122.31 295.59,-97.94"/>
<polygon fill="midnightblue" stroke="midnightblue" points="298.16,-95.54 289.35,-89.66 292.57,-99.75 298.16,-95.54"/>
</g>
<!-- Node6 -->
<g id="node6" class="node">
<title>Node6</title>
<g id="a_node6"><a xlink:title=" ">
<polygon fill="white" stroke="#bfbfbf" points="241.94,-6.5 241.94,-26.5 322.95,-26.5 322.95,-6.5 241.94,-6.5"/>
<text text-anchor="middle" x="282.45" y="-13.5" font-family="Helvetica,sans-Serif" font-size="10.00">hate/visibility.h</text>
</a>
</g>
</g>
<!-- Node1&#45;&gt;Node6 -->
<g id="edge30" class="edge">
<title>Node1&#45;&gt;Node6</title>
<path fill="none" stroke="midnightblue" d="M386.92,-195.47C382.82,-163.08 372.36,-108.27 346.45,-69 336.56,-54.01 320.91,-41.3 307.56,-32.26"/>
<polygon fill="midnightblue" stroke="midnightblue" points="309.09,-29.08 298.79,-26.61 305.3,-34.97 309.09,-29.08"/>
</g>
<!-- Node10 -->
<g id="node10" class="node">
<title>Node10</title>
<g id="a_node10"><a xlink:href="genpybind_8h.html" target="_top" xlink:title=" ">
<polygon fill="white" stroke="black" points="442.38,-6.5 442.38,-26.5 554.52,-26.5 554.52,-6.5 442.38,-6.5"/>
<text text-anchor="middle" x="498.45" y="-13.5" font-family="Helvetica,sans-Serif" font-size="10.00">haldls/vx/genpybind.h</text>
</a>
</g>
</g>
<!-- Node1&#45;&gt;Node10 -->
<g id="edge9" class="edge">
<title>Node1&#45;&gt;Node10</title>
<path fill="none" stroke="midnightblue" d="M398.5,-195.23C405.44,-175.53 415.78,-148.55 427.45,-126 444.92,-92.21 470.27,-55.75 485.47,-34.87"/>
<polygon fill="midnightblue" stroke="midnightblue" points="488.39,-36.81 491.5,-26.68 482.75,-32.66 488.39,-36.81"/>
</g>
<!-- Node11 -->
<g id="node11" class="node">
<title>Node11</title>
<g id="a_node11"><a xlink:href="sram__controller_8h.html" target="_top" xlink:title=" ">
<polygon fill="white" stroke="black" points="436,-132.5 436,-152.5 570.9,-152.5 570.9,-132.5 436,-132.5"/>
<text text-anchor="middle" x="503.45" y="-139.5" font-family="Helvetica,sans-Serif" font-size="10.00">haldls/vx/sram_controller.h</text>
</a>
</g>
</g>
<!-- Node1&#45;&gt;Node11 -->
<g id="edge11" class="edge">
<title>Node1&#45;&gt;Node11</title>
<path fill="none" stroke="midnightblue" d="M428.68,-195.31C446.49,-182.97 466.88,-168.84 481.86,-158.46"/>
<polygon fill="midnightblue" stroke="midnightblue" points="484.19,-161.1 490.42,-152.53 480.21,-155.35 484.19,-161.1"/>
</g>
<!-- Node15 -->
<g id="node15" class="node">
<title>Node15</title>
<g id="a_node15"><a xlink:href="traits_8h.html" target="_top" xlink:title=" ">
<polygon fill="white" stroke="black" points="735.61,-69.5 735.61,-89.5 823.29,-89.5 823.29,-69.5 735.61,-69.5"/>
<text text-anchor="middle" x="779.45" y="-76.5" font-family="Helvetica,sans-Serif" font-size="10.00">haldls/vx/traits.h</text>
</a>
</g>
</g>
<!-- Node1&#45;&gt;Node15 -->
<g id="edge29" class="edge">
<title>Node1&#45;&gt;Node15</title>
<path fill="none" stroke="midnightblue" d="M480.03,-200.16C512.58,-190.11 548.79,-176.5 579.45,-159 598.87,-147.91 597.76,-136.61 617.45,-126 636.89,-115.52 689.87,-101.55 729.99,-91.87"/>
<polygon fill="midnightblue" stroke="midnightblue" points="730.98,-95.23 739.89,-89.5 729.35,-88.42 730.98,-95.23"/>
</g>
<!-- Node22 -->
<g id="node22" class="node">
<title>Node22</title>
<g id="a_node22"><a xlink:title=" ">
<polygon fill="white" stroke="#bfbfbf" points="626.83,-132.5 626.83,-152.5 730.07,-152.5 730.07,-132.5 626.83,-132.5"/>
<text text-anchor="middle" x="678.45" y="-139.5" font-family="Helvetica,sans-Serif" font-size="10.00">hxcomm/vx/target.h</text>
</a>
</g>
</g>
<!-- Node1&#45;&gt;Node22 -->
<g id="edge31" class="edge">
<title>Node1&#45;&gt;Node22</title>
<path fill="none" stroke="midnightblue" d="M480.1,-197.72C531.98,-183.54 594.68,-166.4 635.5,-155.24"/>
<polygon fill="midnightblue" stroke="midnightblue" points="636.66,-158.55 645.39,-152.54 634.82,-151.8 636.66,-158.55"/>
</g>
<!-- Node5 -->
<g id="node5" class="node">
<title>Node5</title>
<g id="a_node5"><a xlink:title=" ">
<polygon fill="white" stroke="#bfbfbf" points="340.82,-6.5 340.82,-26.5 424.07,-26.5 424.07,-6.5 340.82,-6.5"/>
<text text-anchor="middle" x="382.45" y="-13.5" font-family="Helvetica,sans-Serif" font-size="10.00">hate/type_list.h</text>
</a>
</g>
</g>
<!-- Node4&#45;&gt;Node5 -->
<g id="edge4" class="edge">
<title>Node4&#45;&gt;Node5</title>
<path fill="none" stroke="midnightblue" d="M297.2,-69.5C313.45,-59.59 339.8,-43.51 358.91,-31.86"/>
<polygon fill="midnightblue" stroke="midnightblue" points="360.92,-34.73 367.63,-26.54 357.27,-28.76 360.92,-34.73"/>
</g>
<!-- Node4&#45;&gt;Node6 -->
<g id="edge5" class="edge">
<title>Node4&#45;&gt;Node6</title>
<path fill="none" stroke="midnightblue" d="M282.45,-69.5C282.45,-60.94 282.45,-47.78 282.45,-36.85"/>
<polygon fill="midnightblue" stroke="midnightblue" points="285.95,-36.54 282.45,-26.54 278.95,-36.54 285.95,-36.54"/>
</g>
<!-- Node7 -->
<g id="node7" class="node">
<title>Node7</title>
<g id="a_node7"><a xlink:title=" ">
<polygon fill="white" stroke="#bfbfbf" points="0,-6.5 0,-26.5 44.89,-26.5 44.89,-6.5 0,-6.5"/>
<text text-anchor="middle" x="22.45" y="-13.5" font-family="Helvetica,sans-Serif" font-size="10.00">cstdint</text>
</a>
</g>
</g>
<!-- Node4&#45;&gt;Node7 -->
<g id="edge6" class="edge">
<title>Node4&#45;&gt;Node7</title>
<path fill="none" stroke="midnightblue" d="M227.54,-71.54C180.71,-64.67 112.03,-52.34 54.45,-33 52.52,-32.35 50.55,-31.61 48.59,-30.82"/>
<polygon fill="midnightblue" stroke="midnightblue" points="49.61,-27.44 39.05,-26.53 46.74,-33.82 49.61,-27.44"/>
</g>
<!-- Node8 -->
<g id="node8" class="node">
<title>Node8</title>
<g id="a_node8"><a xlink:title=" ">
<polygon fill="white" stroke="#bfbfbf" points="63.28,-6.5 63.28,-26.5 107.61,-26.5 107.61,-6.5 63.28,-6.5"/>
<text text-anchor="middle" x="85.45" y="-13.5" font-family="Helvetica,sans-Serif" font-size="10.00">iosfwd</text>
</a>
</g>
</g>
<!-- Node4&#45;&gt;Node8 -->
<g id="edge7" class="edge">
<title>Node4&#45;&gt;Node8</title>
<path fill="none" stroke="midnightblue" d="M240.8,-69.48C206.78,-61.55 157.75,-48.81 116.45,-33 114.82,-32.38 113.17,-31.7 111.52,-30.99"/>
<polygon fill="midnightblue" stroke="midnightblue" points="112.77,-27.71 102.23,-26.64 109.81,-34.05 112.77,-27.71"/>
</g>
<!-- Node9 -->
<g id="node9" class="node">
<title>Node9</title>
<g id="a_node9"><a xlink:title=" ">
<polygon fill="white" stroke="#bfbfbf" points="125.33,-6.5 125.33,-26.5 223.57,-26.5 223.57,-6.5 125.33,-6.5"/>
<text text-anchor="middle" x="174.45" y="-13.5" font-family="Helvetica,sans-Serif" font-size="10.00">cereal/macros.hpp</text>
</a>
</g>
</g>
<!-- Node4&#45;&gt;Node9 -->
<g id="edge8" class="edge">
<title>Node4&#45;&gt;Node9</title>
<path fill="none" stroke="midnightblue" d="M266.51,-69.5C248.8,-59.5 219.99,-43.22 199.31,-31.54"/>
<polygon fill="midnightblue" stroke="midnightblue" points="200.88,-28.41 190.45,-26.54 197.43,-34.5 200.88,-28.41"/>
</g>
<!-- Node10&#45;&gt;Node10 -->
<g id="edge10" class="edge">
<title>Node10&#45;&gt;Node10</title>
<path fill="none" stroke="midnightblue" d="M526.95,-26.56C549.44,-30.45 572.52,-27.1 572.52,-16.5 572.52,-7.48 555.79,-3.71 536.93,-5.19"/>
<polygon fill="midnightblue" stroke="midnightblue" points="536.44,-1.72 526.95,-6.44 537.31,-8.67 536.44,-1.72"/>
</g>
<!-- Node11&#45;&gt;Node4 -->
<g id="edge12" class="edge">
<title>Node11&#45;&gt;Node4</title>
<path fill="none" stroke="midnightblue" d="M470.84,-132.5C432.16,-121.82 367.56,-103.99 324.98,-92.24"/>
<polygon fill="midnightblue" stroke="midnightblue" points="325.76,-88.82 315.19,-89.54 323.9,-95.57 325.76,-88.82"/>
</g>
<!-- Node11&#45;&gt;Node6 -->
<g id="edge28" class="edge">
<title>Node11&#45;&gt;Node6</title>
<path fill="none" stroke="midnightblue" d="M489.38,-132.42C467.32,-118.32 423.14,-90.51 384.45,-69 359.9,-55.35 331.31,-41.05 310.65,-30.99"/>
<polygon fill="midnightblue" stroke="midnightblue" points="312.01,-27.76 301.48,-26.55 308.96,-34.06 312.01,-27.76"/>
</g>
<!-- Node11&#45;&gt;Node10 -->
<g id="edge16" class="edge">
<title>Node11&#45;&gt;Node10</title>
<path fill="none" stroke="midnightblue" d="M503.07,-132.18C502.26,-111.97 500.31,-63.78 499.22,-36.74"/>
<polygon fill="midnightblue" stroke="midnightblue" points="502.71,-36.44 498.81,-26.59 495.72,-36.72 502.71,-36.44"/>
</g>
<!-- Node12 -->
<g id="node12" class="node">
<title>Node12</title>
<g id="a_node12"><a xlink:href="common_8h.html" target="_top" xlink:title=" ">
<polygon fill="white" stroke="black" points="526.27,-69.5 526.27,-89.5 630.62,-89.5 630.62,-69.5 526.27,-69.5"/>
<text text-anchor="middle" x="578.45" y="-76.5" font-family="Helvetica,sans-Serif" font-size="10.00">haldls/vx/common.h</text>
</a>
</g>
</g>
<!-- Node11&#45;&gt;Node12 -->
<g id="edge13" class="edge">
<title>Node11&#45;&gt;Node12</title>
<path fill="none" stroke="midnightblue" d="M514.51,-132.5C526.26,-122.95 545.04,-107.67 559.21,-96.15"/>
<polygon fill="midnightblue" stroke="midnightblue" points="561.79,-98.56 567.34,-89.54 557.37,-93.13 561.79,-98.56"/>
</g>
<!-- Node11&#45;&gt;Node15 -->
<g id="edge17" class="edge">
<title>Node11&#45;&gt;Node15</title>
<path fill="none" stroke="midnightblue" d="M544.17,-132.5C593.2,-121.66 675.54,-103.46 728.67,-91.72"/>
<polygon fill="midnightblue" stroke="midnightblue" points="729.55,-95.11 738.56,-89.54 728.04,-88.28 729.55,-95.11"/>
</g>
<!-- Node21 -->
<g id="node21" class="node">
<title>Node21</title>
<g id="a_node21"><a xlink:title=" ">
<polygon fill="white" stroke="#bfbfbf" points="649.05,-69.5 649.05,-89.5 717.85,-89.5 717.85,-69.5 649.05,-69.5"/>
<text text-anchor="middle" x="683.45" y="-76.5" font-family="Helvetica,sans-Serif" font-size="10.00">hate/math.h</text>
</a>
</g>
</g>
<!-- Node11&#45;&gt;Node21 -->
<g id="edge27" class="edge">
<title>Node11&#45;&gt;Node21</title>
<path fill="none" stroke="midnightblue" d="M530.01,-132.5C560.98,-122 612.35,-104.59 647.03,-92.84"/>
<polygon fill="midnightblue" stroke="midnightblue" points="648.43,-96.06 656.78,-89.54 646.18,-89.43 648.43,-96.06"/>
</g>
<!-- Node13 -->
<g id="node13" class="node">
<title>Node13</title>
<g id="a_node13"><a xlink:title=" ">
<polygon fill="white" stroke="#bfbfbf" points="646.39,-6.5 646.39,-26.5 708.51,-26.5 708.51,-6.5 646.39,-6.5"/>
<text text-anchor="middle" x="677.45" y="-13.5" font-family="Helvetica,sans-Serif" font-size="10.00">type_traits</text>
</a>
</g>
</g>
<!-- Node12&#45;&gt;Node13 -->
<g id="edge14" class="edge">
<title>Node12&#45;&gt;Node13</title>
<path fill="none" stroke="midnightblue" d="M593.06,-69.5C609.14,-59.59 635.23,-43.51 654.14,-31.86"/>
<polygon fill="midnightblue" stroke="midnightblue" points="656.1,-34.76 662.78,-26.54 652.43,-28.8 656.1,-34.76"/>
</g>
<!-- Node14 -->
<g id="node14" class="node">
<title>Node14</title>
<g id="a_node14"><a xlink:title=" ">
<polygon fill="white" stroke="#bfbfbf" points="590.06,-6.5 590.06,-26.5 628.83,-26.5 628.83,-6.5 590.06,-6.5"/>
<text text-anchor="middle" x="609.45" y="-13.5" font-family="Helvetica,sans-Serif" font-size="10.00">utility</text>
</a>
</g>
</g>
<!-- Node12&#45;&gt;Node14 -->
<g id="edge15" class="edge">
<title>Node12&#45;&gt;Node14</title>
<path fill="none" stroke="midnightblue" d="M583.02,-69.5C587.55,-60.58 594.62,-46.67 600.31,-35.48"/>
<polygon fill="midnightblue" stroke="midnightblue" points="603.44,-37.04 604.85,-26.54 597.2,-33.87 603.44,-37.04"/>
</g>
<!-- Node15&#45;&gt;Node5 -->
<g id="edge21" class="edge">
<title>Node15&#45;&gt;Node5</title>
<path fill="none" stroke="midnightblue" d="M735.52,-70.43C732.45,-69.93 729.41,-69.45 726.45,-69 596.72,-49.42 561.8,-60.18 433.45,-33 428.66,-31.99 423.68,-30.73 418.79,-29.38"/>
<polygon fill="midnightblue" stroke="midnightblue" points="419.53,-25.95 408.95,-26.5 417.57,-32.67 419.53,-25.95"/>
</g>
<!-- Node15&#45;&gt;Node6 -->
<g id="edge22" class="edge">
<title>Node15&#45;&gt;Node6</title>
<path fill="none" stroke="midnightblue" d="M735.53,-70.33C732.46,-69.85 729.41,-69.4 726.45,-69 551.75,-45.43 504.26,-67.78 331.45,-33 326.72,-32.05 321.81,-30.81 317,-29.44"/>
<polygon fill="midnightblue" stroke="midnightblue" points="317.94,-26.07 307.35,-26.52 315.91,-32.77 317.94,-26.07"/>
</g>
<!-- Node15&#45;&gt;Node10 -->
<g id="edge20" class="edge">
<title>Node15&#45;&gt;Node10</title>
<path fill="none" stroke="midnightblue" d="M737.98,-69.5C688.07,-58.66 604.24,-40.46 550.15,-28.72"/>
<polygon fill="midnightblue" stroke="midnightblue" points="550.6,-25.24 540.08,-26.54 549.11,-32.08 550.6,-25.24"/>
</g>
<!-- Node15&#45;&gt;Node13 -->
<g id="edge23" class="edge">
<title>Node15&#45;&gt;Node13</title>
<path fill="none" stroke="midnightblue" d="M764.4,-69.5C747.75,-59.54 720.7,-43.37 701.19,-31.7"/>
<polygon fill="midnightblue" stroke="midnightblue" points="702.94,-28.67 692.56,-26.54 699.35,-34.67 702.94,-28.67"/>
</g>
<!-- Node16 -->
<g id="node16" class="node">
<title>Node16</title>
<g id="a_node16"><a xlink:title=" ">
<polygon fill="white" stroke="#bfbfbf" points="854.39,-6.5 854.39,-26.5 936.51,-26.5 936.51,-6.5 854.39,-6.5"/>
<text text-anchor="middle" x="895.45" y="-13.5" font-family="Helvetica,sans-Serif" font-size="10.00">fisch/vx/traits.h</text>
</a>
</g>
</g>
<!-- Node15&#45;&gt;Node16 -->
<g id="edge18" class="edge">
<title>Node15&#45;&gt;Node16</title>
<path fill="none" stroke="midnightblue" d="M796.56,-69.5C815.75,-59.41 847.09,-42.93 869.34,-31.23"/>
<polygon fill="midnightblue" stroke="midnightblue" points="871.04,-34.29 878.26,-26.54 867.78,-28.09 871.04,-34.29"/>
</g>
<!-- Node17 -->
<g id="node17" class="node">
<title>Node17</title>
<g id="a_node17"><a xlink:title=" ">
<polygon fill="white" stroke="#bfbfbf" points="954.22,-0.5 954.22,-32.5 1064.68,-32.5 1064.68,-0.5 954.22,-0.5"/>
<text text-anchor="start" x="962.22" y="-19.5" font-family="Helvetica,sans-Serif" font-size="10.00">fisch/vx/word_access</text>
<text text-anchor="middle" x="1009.45" y="-7.5" font-family="Helvetica,sans-Serif" font-size="10.00">_type.h</text>
</a>
</g>
</g>
<!-- Node15&#45;&gt;Node17 -->
<g id="edge19" class="edge">
<title>Node15&#45;&gt;Node17</title>
<path fill="none" stroke="midnightblue" d="M813.38,-69.5C847.7,-60.4 901.61,-46.1 944.22,-34.8"/>
<polygon fill="midnightblue" stroke="midnightblue" points="945.19,-38.16 953.95,-32.22 943.39,-31.4 945.19,-38.16"/>
</g>
<!-- Node18 -->
<g id="node18" class="node">
<title>Node18</title>
<g id="a_node18"><a xlink:title=" ">
<polygon fill="white" stroke="#bfbfbf" points="1083.05,-0.5 1083.05,-32.5 1181.85,-32.5 1181.85,-0.5 1083.05,-0.5"/>
<text text-anchor="start" x="1091.05" y="-19.5" font-family="Helvetica,sans-Serif" font-size="10.00">boost/utility/enable</text>
<text text-anchor="middle" x="1132.45" y="-7.5" font-family="Helvetica,sans-Serif" font-size="10.00">_if.hpp</text>
</a>
</g>
</g>
<!-- Node15&#45;&gt;Node18 -->
<g id="edge24" class="edge">
<title>Node15&#45;&gt;Node18</title>
<path fill="none" stroke="midnightblue" d="M823.54,-73.12C879.29,-66 978.39,-52.29 1072.94,-32.97"/>
<polygon fill="midnightblue" stroke="midnightblue" points="1073.88,-36.35 1082.96,-30.9 1072.46,-29.5 1073.88,-36.35"/>
</g>
<!-- Node19 -->
<g id="node19" class="node">
<title>Node19</title>
<g id="a_node19"><a xlink:title=" ">
<polygon fill="white" stroke="#bfbfbf" points="1200.1,-6.5 1200.1,-26.5 1292.8,-26.5 1292.8,-6.5 1200.1,-6.5"/>
<text text-anchor="middle" x="1246.45" y="-13.5" font-family="Helvetica,sans-Serif" font-size="10.00">boost/variant.hpp</text>
</a>
</g>
</g>
<!-- Node15&#45;&gt;Node19 -->
<g id="edge25" class="edge">
<title>Node15&#45;&gt;Node19</title>
<path fill="none" stroke="midnightblue" d="M823.29,-75.95C898.81,-71.06 1058.09,-58.47 1190.45,-33 1195.96,-31.94 1201.72,-30.61 1207.36,-29.17"/>
<polygon fill="midnightblue" stroke="midnightblue" points="1208.54,-32.48 1217.3,-26.52 1206.74,-25.72 1208.54,-32.48"/>
</g>
<!-- Node20 -->
<g id="node20" class="node">
<title>Node20</title>
<g id="a_node20"><a xlink:title=" ">
<polygon fill="white" stroke="#bfbfbf" points="726.49,-6.5 726.49,-26.5 836.4,-26.5 836.4,-6.5 726.49,-6.5"/>
<text text-anchor="middle" x="781.45" y="-13.5" font-family="Helvetica,sans-Serif" font-size="10.00">fisch/vx/container.def</text>
</a>
</g>
</g>
<!-- Node15&#45;&gt;Node20 -->
<g id="edge26" class="edge">
<title>Node15&#45;&gt;Node20</title>
<path fill="none" stroke="midnightblue" d="M779.74,-69.5C780.02,-60.94 780.45,-47.78 780.81,-36.85"/>
<polygon fill="midnightblue" stroke="midnightblue" points="784.32,-36.65 781.15,-26.54 777.33,-36.42 784.32,-36.65"/>
</g>
</g>
</svg>
