<?xml version="1.0" encoding="UTF-8" standalone="no"?>
<!DOCTYPE svg PUBLIC "-//W3C//DTD SVG 1.1//EN"
 "http://www.w3.org/Graphics/SVG/1.1/DTD/svg11.dtd">
<!-- Generated by graphviz version 2.46.0 (0)
 -->
<!-- Title: /jenkins/jenlib_workspaces_f9/bld_nightly&#45;haldls.YmxkX25pZ2h0bHktaGFsZGxzIzEzNzk.x/haldls/include/haldls/vx/capmem.h Pages: 1 -->
<!--zoomable 203 -->
<svg id="main" version="1.1" xmlns="http://www.w3.org/2000/svg" xmlns:xlink="http://www.w3.org/1999/xlink" xml:space="preserve" onload="init(evt)">
<style type="text/css"><![CDATA[
.edge:hover path { stroke: red; }
.edge:hover polygon { stroke: red; fill: red; }
]]></style>
<script type="text/javascript"><![CDATA[
var edges = document.getElementsByTagName('g');
if (edges && edges.length) {
  for (var i=0;i<edges.length;i++) {
    if (edges[i].id.substr(0,4)=='edge') {
      edges[i].setAttribute('class','edge');
    }
  }
}
]]></script>
        <defs>
                <circle id="rim" cx="0" cy="0" r="7"/>
                <circle id="rim2" cx="0" cy="0" r="3.5"/>
                <g id="zoomPlus">
                        <use xlink:href="#rim" fill="#404040">
                                <set attributeName="fill" to="#808080" begin="zoomplus.mouseover" end="zoomplus.mouseout"/>
                        </use>
                        <path d="M-4,0h8M0,-4v8" fill="none" stroke="white" stroke-width="1.5" pointer-events="none"/>
                </g>
                <g id="zoomMin">
                        <use xlink:href="#rim" fill="#404040">
                                <set attributeName="fill" to="#808080" begin="zoomminus.mouseover" end="zoomminus.mouseout"/>
                        </use>
                        <path d="M-4,0h8" fill="none" stroke="white" stroke-width="1.5" pointer-events="none"/>
                </g>
                <g id="dirArrow">
                        <path fill="none" stroke="white" stroke-width="1.5" d="M0,-3.0v7 M-2.5,-0.5L0,-3.0L2.5,-0.5"/>
                </g>
               <g id="resetDef">
                       <use xlink:href="#rim2" fill="#404040">
                               <set attributeName="fill" to="#808080" begin="reset.mouseover" end="reset.mouseout"/>
                       </use>
               </g>
        </defs>

<script type="text/javascript">
var viewWidth = 1625;
var viewHeight = 203;
var sectionId = 'dynsection-0';
</script>
<script xlink:href="svgpan.js"/>
<svg id="graph" class="graph">
<g id="viewport">
<title>/jenkins/jenlib_workspaces_f9/bld_nightly&#45;haldls.YmxkX25pZ2h0bHktaGFsZGxzIzEzNzk.x/haldls/include/haldls/vx/capmem.h</title>
<polygon fill="white" stroke="transparent" points="-4,4 -4,-199 1621.07,-199 1621.07,4 -4,4"/>
<!-- Node1 -->
<g id="node1" class="node">
<title>Node1</title>
<g id="a_node1"><a xlink:title=" ">
<polygon fill="#bfbfbf" stroke="black" points="661.94,-138.5 661.94,-194.5 842.96,-194.5 842.96,-138.5 661.94,-138.5"/>
<text text-anchor="start" x="669.94" y="-181.5" font-family="Helvetica,sans-Serif" font-size="10.00">/jenkins/jenlib_workspaces</text>
<text text-anchor="start" x="669.94" y="-169.5" font-family="Helvetica,sans-Serif" font-size="10.00">_f9/bld_nightly&#45;haldls.YmxkX25p</text>
<text text-anchor="start" x="669.94" y="-157.5" font-family="Helvetica,sans-Serif" font-size="10.00">Z2h0bHktaGFsZGxzIzEzNzk.x/haldls</text>
<text text-anchor="middle" x="752.45" y="-145.5" font-family="Helvetica,sans-Serif" font-size="10.00">/include/haldls/vx/capmem.h</text>
</a>
</g>
</g>
<!-- Node2 -->
<g id="node2" class="node">
<title>Node2</title>
<g id="a_node2"><a xlink:title=" ">
<polygon fill="white" stroke="#bfbfbf" points="134.06,-75.5 134.06,-95.5 172.84,-95.5 172.84,-75.5 134.06,-75.5"/>
<text text-anchor="middle" x="153.45" y="-82.5" font-family="Helvetica,sans-Serif" font-size="10.00">array</text>
</a>
</g>
</g>
<!-- Node1&#45;&gt;Node2 -->
<g id="edge1" class="edge">
<title>Node1&#45;&gt;Node2</title>
<path fill="none" stroke="midnightblue" d="M661.5,-164.39C548.2,-160.94 349.64,-148.12 186.45,-102 184.13,-101.35 181.78,-100.55 179.45,-99.66"/>
<polygon fill="midnightblue" stroke="midnightblue" points="180.73,-96.4 170.16,-95.65 177.96,-102.82 180.73,-96.4"/>
</g>
<!-- Node3 -->
<g id="node3" class="node">
<title>Node3</title>
<g id="a_node3"><a xlink:title=" ">
<polygon fill="white" stroke="#bfbfbf" points="0,-6.5 0,-26.5 44.89,-26.5 44.89,-6.5 0,-6.5"/>
<text text-anchor="middle" x="22.45" y="-13.5" font-family="Helvetica,sans-Serif" font-size="10.00">cstdint</text>
</a>
</g>
</g>
<!-- Node1&#45;&gt;Node3 -->
<g id="edge2" class="edge">
<title>Node1&#45;&gt;Node3</title>
<path fill="none" stroke="midnightblue" d="M661.87,-161.13C531.08,-153.75 296.56,-136.15 219.45,-102 198.99,-92.94 201.12,-79.64 181.45,-69 129.84,-41.1 109.28,-53.87 54.45,-33 52.63,-32.31 50.78,-31.55 48.92,-30.76"/>
<polygon fill="midnightblue" stroke="midnightblue" points="50.36,-27.57 39.81,-26.59 47.45,-33.93 50.36,-27.57"/>
</g>
<!-- Node4 -->
<g id="node4" class="node">
<title>Node4</title>
<g id="a_node4"><a xlink:title=" ">
<polygon fill="white" stroke="#bfbfbf" points="691.39,-75.5 691.39,-95.5 743.5,-95.5 743.5,-75.5 691.39,-75.5"/>
<text text-anchor="middle" x="717.45" y="-82.5" font-family="Helvetica,sans-Serif" font-size="10.00">ostream</text>
</a>
</g>
</g>
<!-- Node1&#45;&gt;Node4 -->
<g id="edge3" class="edge">
<title>Node1&#45;&gt;Node4</title>
<path fill="none" stroke="midnightblue" d="M740.4,-138.31C735.53,-127.31 730.03,-114.9 725.64,-104.98"/>
<polygon fill="midnightblue" stroke="midnightblue" points="728.78,-103.44 721.53,-95.71 722.38,-106.28 728.78,-103.44"/>
</g>
<!-- Node5 -->
<g id="node5" class="node">
<title>Node5</title>
<g id="a_node5"><a xlink:title=" ">
<polygon fill="white" stroke="#bfbfbf" points="761.67,-75.5 761.67,-95.5 813.23,-95.5 813.23,-75.5 761.67,-75.5"/>
<text text-anchor="middle" x="787.45" y="-82.5" font-family="Helvetica,sans-Serif" font-size="10.00">sstream</text>
</a>
</g>
</g>
<!-- Node1&#45;&gt;Node5 -->
<g id="edge4" class="edge">
<title>Node1&#45;&gt;Node5</title>
<path fill="none" stroke="midnightblue" d="M764.49,-138.31C769.36,-127.31 774.86,-114.9 779.26,-104.98"/>
<polygon fill="midnightblue" stroke="midnightblue" points="782.51,-106.28 783.37,-95.71 776.11,-103.44 782.51,-106.28"/>
</g>
<!-- Node6 -->
<g id="node6" class="node">
<title>Node6</title>
<g id="a_node6"><a xlink:title=" ">
<polygon fill="white" stroke="#bfbfbf" points="831.45,-75.5 831.45,-95.5 877.45,-95.5 877.45,-75.5 831.45,-75.5"/>
<text text-anchor="middle" x="854.45" y="-82.5" font-family="Helvetica,sans-Serif" font-size="10.00">variant</text>
</a>
</g>
</g>
<!-- Node1&#45;&gt;Node6 -->
<g id="edge5" class="edge">
<title>Node1&#45;&gt;Node6</title>
<path fill="none" stroke="midnightblue" d="M787.55,-138.31C803.24,-126.16 821.17,-112.27 834.51,-101.94"/>
<polygon fill="midnightblue" stroke="midnightblue" points="836.79,-104.6 842.55,-95.71 832.5,-99.07 836.79,-104.6"/>
</g>
<!-- Node7 -->
<g id="node7" class="node">
<title>Node7</title>
<g id="a_node7"><a xlink:title=" ">
<polygon fill="white" stroke="#bfbfbf" points="895.55,-75.5 895.55,-95.5 1029.35,-95.5 1029.35,-75.5 895.55,-75.5"/>
<text text-anchor="middle" x="962.45" y="-82.5" font-family="Helvetica,sans-Serif" font-size="10.00">halco/common/geometry.h</text>
</a>
</g>
</g>
<!-- Node1&#45;&gt;Node7 -->
<g id="edge6" class="edge">
<title>Node1&#45;&gt;Node7</title>
<path fill="none" stroke="midnightblue" d="M824.42,-138.42C859.74,-125.14 900.61,-109.76 928.66,-99.21"/>
<polygon fill="midnightblue" stroke="midnightblue" points="930.25,-102.35 938.38,-95.55 927.79,-95.8 930.25,-102.35"/>
</g>
<!-- Node8 -->
<g id="node8" class="node">
<title>Node8</title>
<g id="a_node8"><a xlink:title=" ">
<polygon fill="white" stroke="#bfbfbf" points="1047.66,-75.5 1047.66,-95.5 1169.23,-95.5 1169.23,-75.5 1047.66,-75.5"/>
<text text-anchor="middle" x="1108.45" y="-82.5" font-family="Helvetica,sans-Serif" font-size="10.00">halco/common/iter_all.h</text>
</a>
</g>
</g>
<!-- Node1&#45;&gt;Node8 -->
<g id="edge7" class="edge">
<title>Node1&#45;&gt;Node8</title>
<path fill="none" stroke="midnightblue" d="M843.2,-145.36C911.27,-130.26 1001.96,-110.13 1057.72,-97.76"/>
<polygon fill="midnightblue" stroke="midnightblue" points="1058.7,-101.12 1067.71,-95.54 1057.19,-94.29 1058.7,-101.12"/>
</g>
<!-- Node9 -->
<g id="node9" class="node">
<title>Node9</title>
<g id="a_node9"><a xlink:title=" ">
<polygon fill="white" stroke="#bfbfbf" points="1187.33,-69.5 1187.33,-101.5 1295.57,-101.5 1295.57,-69.5 1187.33,-69.5"/>
<text text-anchor="start" x="1195.33" y="-88.5" font-family="Helvetica,sans-Serif" font-size="10.00">halco/common/typed</text>
<text text-anchor="middle" x="1241.45" y="-76.5" font-family="Helvetica,sans-Serif" font-size="10.00">_heap_array.h</text>
</a>
</g>
</g>
<!-- Node1&#45;&gt;Node9 -->
<g id="edge8" class="edge">
<title>Node1&#45;&gt;Node9</title>
<path fill="none" stroke="midnightblue" d="M843.04,-154.49C927.2,-143.69 1056.16,-125.68 1177.05,-102.18"/>
<polygon fill="midnightblue" stroke="midnightblue" points="1178.08,-105.54 1187.22,-100.18 1176.74,-98.67 1178.08,-105.54"/>
</g>
<!-- Node10 -->
<g id="node10" class="node">
<title>Node10</title>
<g id="a_node10"><a xlink:title=" ">
<polygon fill="white" stroke="#bfbfbf" points="1313.94,-69.5 1313.94,-101.5 1414.96,-101.5 1414.96,-69.5 1313.94,-69.5"/>
<text text-anchor="start" x="1321.94" y="-88.5" font-family="Helvetica,sans-Serif" font-size="10.00">halco/hicann&#45;dls/vx</text>
<text text-anchor="middle" x="1364.45" y="-76.5" font-family="Helvetica,sans-Serif" font-size="10.00">/capmem.h</text>
</a>
</g>
</g>
<!-- Node1&#45;&gt;Node10 -->
<g id="edge9" class="edge">
<title>Node1&#45;&gt;Node10</title>
<path fill="none" stroke="midnightblue" d="M843.38,-158.92C951.11,-150.24 1136.05,-132.61 1303.81,-101.95"/>
<polygon fill="midnightblue" stroke="midnightblue" points="1304.62,-105.36 1313.82,-100.1 1303.35,-98.48 1304.62,-105.36"/>
</g>
<!-- Node11 -->
<g id="node11" class="node">
<title>Node11</title>
<g id="a_node11"><a xlink:href="cerealization_8h.html" target="_top" xlink:title=" ">
<polygon fill="white" stroke="black" points="228.77,-75.5 228.77,-95.5 338.12,-95.5 338.12,-75.5 228.77,-75.5"/>
<text text-anchor="middle" x="283.45" y="-82.5" font-family="Helvetica,sans-Serif" font-size="10.00">haldls/cerealization.h</text>
</a>
</g>
</g>
<!-- Node1&#45;&gt;Node11 -->
<g id="edge10" class="edge">
<title>Node1&#45;&gt;Node11</title>
<path fill="none" stroke="midnightblue" d="M661.93,-150.35C585.35,-137.52 472.7,-118.62 374.45,-102 365.4,-100.47 355.84,-98.85 346.46,-97.25"/>
<polygon fill="midnightblue" stroke="midnightblue" points="346.82,-93.76 336.38,-95.54 345.65,-100.66 346.82,-93.76"/>
</g>
<!-- Node13 -->
<g id="node13" class="node">
<title>Node13</title>
<g id="a_node13"><a xlink:title=" ">
<polygon fill="white" stroke="#bfbfbf" points="342.94,-6.5 342.94,-26.5 423.95,-26.5 423.95,-6.5 342.94,-6.5"/>
<text text-anchor="middle" x="383.45" y="-13.5" font-family="Helvetica,sans-Serif" font-size="10.00">hate/visibility.h</text>
</a>
</g>
</g>
<!-- Node1&#45;&gt;Node13 -->
<g id="edge32" class="edge">
<title>Node1&#45;&gt;Node13</title>
<path fill="none" stroke="midnightblue" d="M661.55,-158.2C575.11,-149.55 453,-132.33 416.45,-102 396.79,-85.69 388.8,-56.13 385.58,-36.66"/>
<polygon fill="midnightblue" stroke="midnightblue" points="389.01,-35.96 384.18,-26.54 382.08,-36.92 389.01,-35.96"/>
</g>
<!-- Node16 -->
<g id="node16" class="node">
<title>Node16</title>
<g id="a_node16"><a xlink:href="common_8h.html" target="_top" xlink:title=" ">
<polygon fill="white" stroke="black" points="425.27,-75.5 425.27,-95.5 529.62,-95.5 529.62,-75.5 425.27,-75.5"/>
<text text-anchor="middle" x="477.45" y="-82.5" font-family="Helvetica,sans-Serif" font-size="10.00">haldls/vx/common.h</text>
</a>
</g>
</g>
<!-- Node1&#45;&gt;Node16 -->
<g id="edge16" class="edge">
<title>Node1&#45;&gt;Node16</title>
<path fill="none" stroke="midnightblue" d="M661.64,-139.41C613.45,-125.57 556.57,-109.23 518.91,-98.41"/>
<polygon fill="midnightblue" stroke="midnightblue" points="519.39,-94.91 508.81,-95.51 517.46,-101.64 519.39,-94.91"/>
</g>
<!-- Node19 -->
<g id="node19" class="node">
<title>Node19</title>
<g id="a_node19"><a xlink:href="genpybind_8h.html" target="_top" xlink:title=" ">
<polygon fill="white" stroke="black" points="578.38,-6.5 578.38,-26.5 690.52,-26.5 690.52,-6.5 578.38,-6.5"/>
<text text-anchor="middle" x="634.45" y="-13.5" font-family="Helvetica,sans-Serif" font-size="10.00">haldls/vx/genpybind.h</text>
</a>
</g>
</g>
<!-- Node1&#45;&gt;Node19 -->
<g id="edge19" class="edge">
<title>Node1&#45;&gt;Node19</title>
<path fill="none" stroke="midnightblue" d="M661.9,-154.54C629.5,-145.76 596.14,-130.04 576.45,-102 568.02,-90 570.44,-82.38 576.45,-69 583.35,-53.63 597.37,-40.98 609.89,-32.07"/>
<polygon fill="midnightblue" stroke="midnightblue" points="611.84,-34.97 618.21,-26.5 607.95,-29.15 611.84,-34.97"/>
</g>
<!-- Node20 -->
<g id="node20" class="node">
<title>Node20</title>
<g id="a_node20"><a xlink:href="traits_8h.html" target="_top" xlink:title=" ">
<polygon fill="white" stroke="black" points="585.61,-75.5 585.61,-95.5 673.29,-95.5 673.29,-75.5 585.61,-75.5"/>
<text text-anchor="middle" x="629.45" y="-82.5" font-family="Helvetica,sans-Serif" font-size="10.00">haldls/vx/traits.h</text>
</a>
</g>
</g>
<!-- Node1&#45;&gt;Node20 -->
<g id="edge21" class="edge">
<title>Node1&#45;&gt;Node20</title>
<path fill="none" stroke="midnightblue" d="M710.12,-138.31C690.72,-125.85 668.49,-111.57 652.28,-101.17"/>
<polygon fill="midnightblue" stroke="midnightblue" points="653.81,-97.99 643.5,-95.53 650.03,-103.88 653.81,-97.99"/>
</g>
<!-- Node26 -->
<g id="node26" class="node">
<title>Node26</title>
<g id="a_node26"><a xlink:title=" ">
<polygon fill="white" stroke="#bfbfbf" points="1433.38,-75.5 1433.38,-95.5 1495.51,-95.5 1495.51,-75.5 1433.38,-75.5"/>
<text text-anchor="middle" x="1464.45" y="-82.5" font-family="Helvetica,sans-Serif" font-size="10.00">hate/join.h</text>
</a>
</g>
</g>
<!-- Node1&#45;&gt;Node26 -->
<g id="edge31" class="edge">
<title>Node1&#45;&gt;Node26</title>
<path fill="none" stroke="midnightblue" d="M843.13,-164.8C973.44,-162.04 1220.44,-150.19 1424.45,-102 1427.71,-101.23 1431.06,-100.25 1434.37,-99.16"/>
<polygon fill="midnightblue" stroke="midnightblue" points="1435.82,-102.36 1444.03,-95.66 1433.44,-95.78 1435.82,-102.36"/>
</g>
<!-- Node27 -->
<g id="node27" class="node">
<title>Node27</title>
<g id="a_node27"><a xlink:title=" ">
<polygon fill="white" stroke="#bfbfbf" points="1513.83,-75.5 1513.83,-95.5 1617.07,-95.5 1617.07,-75.5 1513.83,-75.5"/>
<text text-anchor="middle" x="1565.45" y="-82.5" font-family="Helvetica,sans-Serif" font-size="10.00">hxcomm/vx/target.h</text>
</a>
</g>
</g>
<!-- Node1&#45;&gt;Node27 -->
<g id="edge33" class="edge">
<title>Node1&#45;&gt;Node27</title>
<path fill="none" stroke="midnightblue" d="M843.05,-162.66C984.94,-157.14 1267.84,-141.77 1504.45,-102 1510.81,-100.93 1517.49,-99.53 1523.99,-98.01"/>
<polygon fill="midnightblue" stroke="midnightblue" points="1525.12,-101.33 1534,-95.54 1523.45,-94.53 1525.12,-101.33"/>
</g>
<!-- Node11&#45;&gt;Node3 -->
<g id="edge13" class="edge">
<title>Node11&#45;&gt;Node3</title>
<path fill="none" stroke="midnightblue" d="M243.16,-75.45C177.59,-60.73 55.01,-33.2 54.45,-33 52.57,-32.34 50.65,-31.61 48.74,-30.82"/>
<polygon fill="midnightblue" stroke="midnightblue" points="49.96,-27.53 39.41,-26.61 47.09,-33.91 49.96,-27.53"/>
</g>
<!-- Node12 -->
<g id="node12" class="node">
<title>Node12</title>
<g id="a_node12"><a xlink:title=" ">
<polygon fill="white" stroke="#bfbfbf" points="241.82,-6.5 241.82,-26.5 325.07,-26.5 325.07,-6.5 241.82,-6.5"/>
<text text-anchor="middle" x="283.45" y="-13.5" font-family="Helvetica,sans-Serif" font-size="10.00">hate/type_list.h</text>
</a>
</g>
</g>
<!-- Node11&#45;&gt;Node12 -->
<g id="edge11" class="edge">
<title>Node11&#45;&gt;Node12</title>
<path fill="none" stroke="midnightblue" d="M283.45,-75.46C283.45,-65.63 283.45,-49.61 283.45,-36.9"/>
<polygon fill="midnightblue" stroke="midnightblue" points="286.95,-36.82 283.45,-26.82 279.95,-36.82 286.95,-36.82"/>
</g>
<!-- Node11&#45;&gt;Node13 -->
<g id="edge12" class="edge">
<title>Node11&#45;&gt;Node13</title>
<path fill="none" stroke="midnightblue" d="M296.93,-75.46C313.48,-64.38 341.77,-45.42 361.48,-32.22"/>
<polygon fill="midnightblue" stroke="midnightblue" points="363.5,-35.08 369.86,-26.61 359.6,-29.27 363.5,-35.08"/>
</g>
<!-- Node14 -->
<g id="node14" class="node">
<title>Node14</title>
<g id="a_node14"><a xlink:title=" ">
<polygon fill="white" stroke="#bfbfbf" points="179.28,-6.5 179.28,-26.5 223.61,-26.5 223.61,-6.5 179.28,-6.5"/>
<text text-anchor="middle" x="201.45" y="-13.5" font-family="Helvetica,sans-Serif" font-size="10.00">iosfwd</text>
</a>
</g>
</g>
<!-- Node11&#45;&gt;Node14 -->
<g id="edge14" class="edge">
<title>Node11&#45;&gt;Node14</title>
<path fill="none" stroke="midnightblue" d="M272.39,-75.46C259.06,-64.57 236.45,-46.1 220.34,-32.94"/>
<polygon fill="midnightblue" stroke="midnightblue" points="222.55,-30.22 212.59,-26.61 218.12,-35.64 222.55,-30.22"/>
</g>
<!-- Node15 -->
<g id="node15" class="node">
<title>Node15</title>
<g id="a_node15"><a xlink:title=" ">
<polygon fill="white" stroke="#bfbfbf" points="63.33,-6.5 63.33,-26.5 161.57,-26.5 161.57,-6.5 63.33,-6.5"/>
<text text-anchor="middle" x="112.45" y="-13.5" font-family="Helvetica,sans-Serif" font-size="10.00">cereal/macros.hpp</text>
</a>
</g>
</g>
<!-- Node11&#45;&gt;Node15 -->
<g id="edge15" class="edge">
<title>Node11&#45;&gt;Node15</title>
<path fill="none" stroke="midnightblue" d="M260.39,-75.46C230.68,-63.83 178.87,-43.52 145.12,-30.3"/>
<polygon fill="midnightblue" stroke="midnightblue" points="146.28,-27 135.69,-26.61 143.72,-33.51 146.28,-27"/>
</g>
<!-- Node17 -->
<g id="node17" class="node">
<title>Node17</title>
<g id="a_node17"><a xlink:title=" ">
<polygon fill="white" stroke="#bfbfbf" points="498.39,-6.5 498.39,-26.5 560.51,-26.5 560.51,-6.5 498.39,-6.5"/>
<text text-anchor="middle" x="529.45" y="-13.5" font-family="Helvetica,sans-Serif" font-size="10.00">type_traits</text>
</a>
</g>
</g>
<!-- Node16&#45;&gt;Node17 -->
<g id="edge17" class="edge">
<title>Node16&#45;&gt;Node17</title>
<path fill="none" stroke="midnightblue" d="M484.46,-75.46C492.48,-65.13 505.8,-47.97 515.86,-35"/>
<polygon fill="midnightblue" stroke="midnightblue" points="518.85,-36.87 522.21,-26.82 513.32,-32.58 518.85,-36.87"/>
</g>
<!-- Node18 -->
<g id="node18" class="node">
<title>Node18</title>
<g id="a_node18"><a xlink:title=" ">
<polygon fill="white" stroke="#bfbfbf" points="442.06,-6.5 442.06,-26.5 480.83,-26.5 480.83,-6.5 442.06,-6.5"/>
<text text-anchor="middle" x="461.45" y="-13.5" font-family="Helvetica,sans-Serif" font-size="10.00">utility</text>
</a>
</g>
</g>
<!-- Node16&#45;&gt;Node18 -->
<g id="edge18" class="edge">
<title>Node16&#45;&gt;Node18</title>
<path fill="none" stroke="midnightblue" d="M475.29,-75.46C472.94,-65.63 469.12,-49.61 466.08,-36.9"/>
<polygon fill="midnightblue" stroke="midnightblue" points="469.4,-35.74 463.67,-26.82 462.59,-37.36 469.4,-35.74"/>
</g>
<!-- Node19&#45;&gt;Node19 -->
<g id="edge20" class="edge">
<title>Node19&#45;&gt;Node19</title>
<path fill="none" stroke="midnightblue" d="M658.34,-26.54C682.17,-32.26 708.52,-28.92 708.52,-16.5 708.52,-5.78 688.88,-1.82 668.18,-4.62"/>
<polygon fill="midnightblue" stroke="midnightblue" points="667.53,-1.18 658.34,-6.46 668.82,-8.06 667.53,-1.18"/>
</g>
<!-- Node20&#45;&gt;Node12 -->
<g id="edge25" class="edge">
<title>Node20&#45;&gt;Node12</title>
<path fill="none" stroke="midnightblue" d="M585.48,-77C506.03,-63.43 345.62,-35.93 333.45,-33 329.05,-31.94 324.48,-30.71 319.97,-29.41"/>
<polygon fill="midnightblue" stroke="midnightblue" points="320.84,-26.02 310.26,-26.51 318.83,-32.73 320.84,-26.02"/>
</g>
<!-- Node20&#45;&gt;Node13 -->
<g id="edge26" class="edge">
<title>Node20&#45;&gt;Node13</title>
<path fill="none" stroke="midnightblue" d="M593.19,-75.48C553.76,-65.55 488.92,-48.88 433.45,-33 429.62,-31.91 425.65,-30.73 421.68,-29.54"/>
<polygon fill="midnightblue" stroke="midnightblue" points="422.53,-26.14 411.94,-26.57 420.48,-32.83 422.53,-26.14"/>
</g>
<!-- Node20&#45;&gt;Node17 -->
<g id="edge27" class="edge">
<title>Node20&#45;&gt;Node17</title>
<path fill="none" stroke="midnightblue" d="M615.96,-75.46C599.41,-64.38 571.12,-45.42 551.42,-32.22"/>
<polygon fill="midnightblue" stroke="midnightblue" points="553.3,-29.27 543.04,-26.61 549.4,-35.08 553.3,-29.27"/>
</g>
<!-- Node20&#45;&gt;Node19 -->
<g id="edge24" class="edge">
<title>Node20&#45;&gt;Node19</title>
<path fill="none" stroke="midnightblue" d="M630.12,-75.46C630.86,-65.63 632.05,-49.61 633,-36.9"/>
<polygon fill="midnightblue" stroke="midnightblue" points="636.5,-37.06 633.75,-26.82 629.52,-36.53 636.5,-37.06"/>
</g>
<!-- Node21 -->
<g id="node21" class="node">
<title>Node21</title>
<g id="a_node21"><a xlink:title=" ">
<polygon fill="white" stroke="#bfbfbf" points="854.39,-6.5 854.39,-26.5 936.51,-26.5 936.51,-6.5 854.39,-6.5"/>
<text text-anchor="middle" x="895.45" y="-13.5" font-family="Helvetica,sans-Serif" font-size="10.00">fisch/vx/traits.h</text>
</a>
</g>
</g>
<!-- Node20&#45;&gt;Node21 -->
<g id="edge22" class="edge">
<title>Node20&#45;&gt;Node21</title>
<path fill="none" stroke="midnightblue" d="M659.06,-75.46C666.66,-73.24 674.83,-70.95 682.45,-69 754.31,-50.58 773.73,-52 845.45,-33 849.55,-31.91 853.82,-30.71 858.06,-29.46"/>
<polygon fill="midnightblue" stroke="midnightblue" points="859.23,-32.76 867.8,-26.52 857.21,-26.06 859.23,-32.76"/>
</g>
<!-- Node22 -->
<g id="node22" class="node">
<title>Node22</title>
<g id="a_node22"><a xlink:title=" ">
<polygon fill="white" stroke="#bfbfbf" points="954.22,-0.5 954.22,-32.5 1064.68,-32.5 1064.68,-0.5 954.22,-0.5"/>
<text text-anchor="start" x="962.22" y="-19.5" font-family="Helvetica,sans-Serif" font-size="10.00">fisch/vx/word_access</text>
<text text-anchor="middle" x="1009.45" y="-7.5" font-family="Helvetica,sans-Serif" font-size="10.00">_type.h</text>
</a>
</g>
</g>
<!-- Node20&#45;&gt;Node22 -->
<g id="edge23" class="edge">
<title>Node20&#45;&gt;Node22</title>
<path fill="none" stroke="midnightblue" d="M657.58,-75.43C665.56,-73.09 674.29,-70.74 682.45,-69 794.67,-45.05 827.73,-54.36 944.01,-33.15"/>
<polygon fill="midnightblue" stroke="midnightblue" points="944.83,-36.56 954.02,-31.29 943.55,-29.68 944.83,-36.56"/>
</g>
<!-- Node23 -->
<g id="node23" class="node">
<title>Node23</title>
<g id="a_node23"><a xlink:title=" ">
<polygon fill="white" stroke="#bfbfbf" points="1083.05,-0.5 1083.05,-32.5 1181.85,-32.5 1181.85,-0.5 1083.05,-0.5"/>
<text text-anchor="start" x="1091.05" y="-19.5" font-family="Helvetica,sans-Serif" font-size="10.00">boost/utility/enable</text>
<text text-anchor="middle" x="1132.45" y="-7.5" font-family="Helvetica,sans-Serif" font-size="10.00">_if.hpp</text>
</a>
</g>
</g>
<!-- Node20&#45;&gt;Node23 -->
<g id="edge28" class="edge">
<title>Node20&#45;&gt;Node23</title>
<path fill="none" stroke="midnightblue" d="M656.71,-75.44C664.9,-73.01 673.97,-70.61 682.45,-69 850.7,-36.96 899.77,-62.3 1073.04,-32.85"/>
<polygon fill="midnightblue" stroke="midnightblue" points="1073.75,-36.28 1083,-31.12 1072.55,-29.38 1073.75,-36.28"/>
</g>
<!-- Node24 -->
<g id="node24" class="node">
<title>Node24</title>
<g id="a_node24"><a xlink:title=" ">
<polygon fill="white" stroke="#bfbfbf" points="1200.1,-6.5 1200.1,-26.5 1292.8,-26.5 1292.8,-6.5 1200.1,-6.5"/>
<text text-anchor="middle" x="1246.45" y="-13.5" font-family="Helvetica,sans-Serif" font-size="10.00">boost/variant.hpp</text>
</a>
</g>
</g>
<!-- Node20&#45;&gt;Node24 -->
<g id="edge29" class="edge">
<title>Node20&#45;&gt;Node24</title>
<path fill="none" stroke="midnightblue" d="M656.14,-75.49C664.48,-73 673.77,-70.56 682.45,-69 905.23,-29 967.38,-71.38 1190.45,-33 1196.24,-32 1202.3,-30.66 1208.21,-29.17"/>
<polygon fill="midnightblue" stroke="midnightblue" points="1209.16,-32.54 1217.92,-26.58 1207.36,-25.78 1209.16,-32.54"/>
</g>
<!-- Node25 -->
<g id="node25" class="node">
<title>Node25</title>
<g id="a_node25"><a xlink:title=" ">
<polygon fill="white" stroke="#bfbfbf" points="726.49,-6.5 726.49,-26.5 836.4,-26.5 836.4,-6.5 726.49,-6.5"/>
<text text-anchor="middle" x="781.45" y="-13.5" font-family="Helvetica,sans-Serif" font-size="10.00">fisch/vx/container.def</text>
</a>
</g>
</g>
<!-- Node20&#45;&gt;Node25 -->
<g id="edge30" class="edge">
<title>Node20&#45;&gt;Node25</title>
<path fill="none" stroke="midnightblue" d="M649.95,-75.46C676.12,-63.93 721.62,-43.87 751.63,-30.64"/>
<polygon fill="midnightblue" stroke="midnightblue" points="753.05,-33.84 760.79,-26.61 750.23,-27.44 753.05,-33.84"/>
</g>
</g>
</svg>
        <g id="navigator" transform="translate(0 0)" fill="#404254">
                <rect fill="#f2f5e9" fill-opacity="0.5" stroke="#606060" stroke-width=".5" x="0" y="0" width="60" height="60"/>
                <use id="zoomplus" xlink:href="#zoomPlus" x="17" y="9" onmousedown="handleZoom(evt,'in')"/>
                <use id="zoomminus" xlink:href="#zoomMin" x="42" y="9" onmousedown="handleZoom(evt,'out')"/>
                <use id="reset" xlink:href="#resetDef" x="30" y="36" onmousedown="handleReset()"/>
                <g id="arrowUp" xlink:href="#dirArrow" transform="translate(30 24)" onmousedown="handlePan(0,-1)">
                  <use xlink:href="#rim" fill="#404040">
                        <set attributeName="fill" to="#808080" begin="arrowUp.mouseover" end="arrowUp.mouseout"/>
                  </use>
                  <path fill="none" stroke="white" stroke-width="1.5" d="M0,-3.0v7 M-2.5,-0.5L0,-3.0L2.5,-0.5"/>
                </g>
                <g id="arrowRight" xlink:href="#dirArrow" transform="rotate(90) translate(36 -43)" onmousedown="handlePan(1,0)">
                  <use xlink:href="#rim" fill="#404040">
                        <set attributeName="fill" to="#808080" begin="arrowRight.mouseover" end="arrowRight.mouseout"/>
                  </use>
                  <path fill="none" stroke="white" stroke-width="1.5" d="M0,-3.0v7 M-2.5,-0.5L0,-3.0L2.5,-0.5"/>
                </g>
                <g id="arrowDown" xlink:href="#dirArrow" transform="rotate(180) translate(-30 -48)" onmousedown="handlePan(0,1)">
                  <use xlink:href="#rim" fill="#404040">
                        <set attributeName="fill" to="#808080" begin="arrowDown.mouseover" end="arrowDown.mouseout"/>
                  </use>
                  <path fill="none" stroke="white" stroke-width="1.5" d="M0,-3.0v7 M-2.5,-0.5L0,-3.0L2.5,-0.5"/>
                </g>
                <g id="arrowLeft" xlink:href="#dirArrow" transform="rotate(270) translate(-36 17)" onmousedown="handlePan(-1,0)">
                  <use xlink:href="#rim" fill="#404040">
                        <set attributeName="fill" to="#808080" begin="arrowLeft.mouseover" end="arrowLeft.mouseout"/>
                  </use>
                  <path fill="none" stroke="white" stroke-width="1.5" d="M0,-3.0v7 M-2.5,-0.5L0,-3.0L2.5,-0.5"/>
                </g>
        </g>
        <svg viewBox="0 0 15 15" width="100%" height="30px" preserveAspectRatio="xMaxYMin meet">
         <g id="arrow_out" transform="scale(0.3 0.3)">
          <a xlink:href="capmem_8h__incl_org.svg" target="_base">
           <rect id="button" ry="5" rx="5" y="6" x="6" height="38" width="38"
                fill="#f2f5e9" fill-opacity="0.5" stroke="#606060" stroke-width="1.0"/>
           <path id="arrow"
             d="M 11.500037,31.436501 C 11.940474,20.09759 22.043105,11.32322 32.158766,21.979434 L 37.068811,17.246167 C 37.068811,17.246167 37.088388,32 37.088388,32 L 22.160133,31.978069 C 22.160133,31.978069 26.997745,27.140456 26.997745,27.140456 C 18.528582,18.264221 13.291696,25.230495 11.500037,31.436501 z"
             style="fill:#404040;"/>
          </a>
         </g>
        </svg>
</svg>
