<?xml version="1.0" encoding="UTF-8" standalone="no"?>
<!DOCTYPE svg PUBLIC "-//W3C//DTD SVG 1.1//EN"
 "http://www.w3.org/Graphics/SVG/1.1/DTD/svg11.dtd">
<!-- Generated by graphviz version 2.46.0 (0)
 -->
<!-- Title: haldls::vx::CADCConfig Pages: 1 -->
<svg width="524pt" height="116pt"
 viewBox="0.00 0.00 523.77 116.00" xmlns="http://www.w3.org/2000/svg" xmlns:xlink="http://www.w3.org/1999/xlink">
<g id="graph0" class="graph" transform="scale(1 1) rotate(0) translate(4 112)">
<title>haldls::vx::CADCConfig</title>
<polygon fill="white" stroke="transparent" points="-4,4 -4,-112 519.77,-112 519.77,4 -4,4"/>
<!-- Node1 -->
<g id="node1" class="node">
<title>Node1</title>
<g id="a_node1"><a xlink:title="CADC container with global digital config for a vertical half.">
<polygon fill="#bfbfbf" stroke="black" points="395.31,-40.5 395.31,-60.5 515.77,-60.5 515.77,-40.5 395.31,-40.5"/>
<text text-anchor="middle" x="455.54" y="-47.5" font-family="Helvetica,sans-Serif" font-size="10.00">haldls::vx::CADCConfig</text>
</a>
</g>
</g>
<!-- Node2 -->
<g id="node2" class="node">
<title>Node2</title>
<g id="a_node2"><a xlink:href="structhaldls_1_1vx_1_1_c_a_d_c_config_1_1_dead_time.html" target="_top" xlink:title="Dead time in cycles after linear ramp increase to wait for signal propagation to every channel to pre...">
<polygon fill="white" stroke="black" points="175.52,-66.5 175.52,-98.5 295.97,-98.5 295.97,-66.5 175.52,-66.5"/>
<text text-anchor="start" x="183.52" y="-85.5" font-family="Helvetica,sans-Serif" font-size="10.00">haldls::vx::CADCConfig</text>
<text text-anchor="middle" x="235.74" y="-73.5" font-family="Helvetica,sans-Serif" font-size="10.00">::DeadTime</text>
</a>
</g>
</g>
<!-- Node2&#45;&gt;Node1 -->
<g id="edge1" class="edge">
<title>Node2&#45;&gt;Node1</title>
<path fill="none" stroke="#9a32cd" stroke-dasharray="5,2" d="M305.9,-72.34C334.53,-68.13 367.41,-63.3 394.95,-59.26"/>
<polygon fill="#9a32cd" stroke="#9a32cd" points="305.35,-68.88 295.97,-73.8 306.37,-75.81 305.35,-68.88"/>
<text text-anchor="middle" x="345.64" y="-72.5" font-family="Helvetica,sans-Serif" font-size="10.00"> m_dead_time</text>
</g>
<!-- Node3 -->
<g id="node3" class="node">
<title>Node3</title>
<g id="a_node3"><a xlink:title=" ">
<polygon fill="white" stroke="#bfbfbf" points="0,-63.5 0,-107.5 138.52,-107.5 138.52,-63.5 0,-63.5"/>
<text text-anchor="start" x="8" y="-94.5" font-family="Helvetica,sans-Serif" font-size="10.00">halco::common::detail</text>
<text text-anchor="start" x="8" y="-82.5" font-family="Helvetica,sans-Serif" font-size="10.00">::RantWrapper&lt; DeadTime,</text>
<text text-anchor="middle" x="69.26" y="-70.5" font-family="Helvetica,sans-Serif" font-size="10.00"> uint_fast16_t, 255, 0 &gt;</text>
</a>
</g>
</g>
<!-- Node3&#45;&gt;Node2 -->
<g id="edge2" class="edge">
<title>Node3&#45;&gt;Node2</title>
<path fill="none" stroke="midnightblue" d="M148.65,-84.07C157.6,-83.91 166.62,-83.74 175.27,-83.58"/>
<polygon fill="midnightblue" stroke="midnightblue" points="148.52,-80.57 138.58,-84.25 148.65,-87.57 148.52,-80.57"/>
</g>
<!-- Node4 -->
<g id="node4" class="node">
<title>Node4</title>
<g id="a_node4"><a xlink:href="structhaldls_1_1vx_1_1_c_a_d_c_config_1_1_reset_wait.html" target="_top" xlink:title="Wait time in cycles after ramp drop to compensate for analog low&#45;pass filtering of ramp signal and pr...">
<polygon fill="white" stroke="black" points="175.52,-9.5 175.52,-41.5 295.97,-41.5 295.97,-9.5 175.52,-9.5"/>
<text text-anchor="start" x="183.52" y="-28.5" font-family="Helvetica,sans-Serif" font-size="10.00">haldls::vx::CADCConfig</text>
<text text-anchor="middle" x="235.74" y="-16.5" font-family="Helvetica,sans-Serif" font-size="10.00">::ResetWait</text>
</a>
</g>
</g>
<!-- Node4&#45;&gt;Node1 -->
<g id="edge3" class="edge">
<title>Node4&#45;&gt;Node1</title>
<path fill="none" stroke="#9a32cd" stroke-dasharray="5,2" d="M306.22,-31.07C328.91,-33.11 354.22,-35.64 377.31,-38.5 383.11,-39.22 389.13,-40.03 395.14,-40.89"/>
<polygon fill="#9a32cd" stroke="#9a32cd" points="306.26,-27.56 295.99,-30.16 305.64,-34.53 306.26,-27.56"/>
<text text-anchor="middle" x="345.64" y="-41.5" font-family="Helvetica,sans-Serif" font-size="10.00"> m_reset_wait</text>
</g>
<!-- Node5 -->
<g id="node5" class="node">
<title>Node5</title>
<g id="a_node5"><a xlink:title=" ">
<polygon fill="white" stroke="#bfbfbf" points="0,-0.5 0,-44.5 138.52,-44.5 138.52,-0.5 0,-0.5"/>
<text text-anchor="start" x="8" y="-31.5" font-family="Helvetica,sans-Serif" font-size="10.00">halco::common::detail</text>
<text text-anchor="start" x="8" y="-19.5" font-family="Helvetica,sans-Serif" font-size="10.00">::RantWrapper&lt; ResetWait,</text>
<text text-anchor="middle" x="69.26" y="-7.5" font-family="Helvetica,sans-Serif" font-size="10.00"> uint_fast16_t, 255, 0 &gt;</text>
</a>
</g>
</g>
<!-- Node5&#45;&gt;Node4 -->
<g id="edge4" class="edge">
<title>Node5&#45;&gt;Node4</title>
<path fill="none" stroke="midnightblue" d="M148.65,-23.93C157.6,-24.09 166.62,-24.26 175.27,-24.42"/>
<polygon fill="midnightblue" stroke="midnightblue" points="148.65,-20.43 138.58,-23.75 148.52,-27.43 148.65,-20.43"/>
</g>
</g>
</svg>
