<?xml version="1.0" encoding="UTF-8" standalone="no"?>
<!DOCTYPE svg PUBLIC "-//W3C//DTD SVG 1.1//EN"
 "http://www.w3.org/Graphics/SVG/1.1/DTD/svg11.dtd">
<!-- Generated by graphviz version 2.46.0 (0)
 -->
<!-- Title: haldls::vx::MADCSampleFromChip Pages: 1 -->
<svg width="178pt" height="192pt"
 viewBox="0.00 0.00 178.44 192.00" xmlns="http://www.w3.org/2000/svg" xmlns:xlink="http://www.w3.org/1999/xlink">
<g id="graph0" class="graph" transform="scale(1 1) rotate(0) translate(4 188)">
<title>haldls::vx::MADCSampleFromChip</title>
<polygon fill="white" stroke="transparent" points="-4,4 -4,-188 174.44,-188 174.44,4 -4,4"/>
<!-- Node1 -->
<g id="node1" class="node">
<title>Node1</title>
<g id="a_node1"><a xlink:title="MADCSample from chip.">
<polygon fill="#bfbfbf" stroke="black" points="0,-0.5 0,-20.5 170.44,-20.5 170.44,-0.5 0,-0.5"/>
<text text-anchor="middle" x="85.22" y="-7.5" font-family="Helvetica,sans-Serif" font-size="10.00">haldls::vx::MADCSampleFromChip</text>
</a>
</g>
</g>
<!-- Node2 -->
<g id="node2" class="node">
<title>Node2</title>
<g id="a_node2"><a xlink:href="structhaldls_1_1vx_1_1_m_a_d_c_sample_from_chip_1_1_value.html" target="_top" xlink:title="Sample value.">
<polygon fill="white" stroke="black" points="10.28,-69.5 10.28,-101.5 160.16,-101.5 160.16,-69.5 10.28,-69.5"/>
<text text-anchor="start" x="18.28" y="-88.5" font-family="Helvetica,sans-Serif" font-size="10.00">haldls::vx::MADCSampleFrom</text>
<text text-anchor="middle" x="85.22" y="-76.5" font-family="Helvetica,sans-Serif" font-size="10.00">Chip::Value</text>
</a>
</g>
</g>
<!-- Node2&#45;&gt;Node1 -->
<g id="edge1" class="edge">
<title>Node2&#45;&gt;Node1</title>
<path fill="none" stroke="#9a32cd" stroke-dasharray="5,2" d="M85.22,-59.28C85.22,-45.89 85.22,-30.26 85.22,-20.62"/>
<polygon fill="#9a32cd" stroke="#9a32cd" points="81.72,-59.37 85.22,-69.37 88.72,-59.37 81.72,-59.37"/>
<text text-anchor="middle" x="98.56" y="-42" font-family="Helvetica,sans-Serif" font-size="10.00"> value</text>
</g>
<!-- Node3 -->
<g id="node3" class="node">
<title>Node3</title>
<g id="a_node3"><a xlink:title=" ">
<polygon fill="white" stroke="#bfbfbf" points="26.24,-139.5 26.24,-183.5 144.21,-183.5 144.21,-139.5 26.24,-139.5"/>
<text text-anchor="start" x="34.24" y="-170.5" font-family="Helvetica,sans-Serif" font-size="10.00">halco::common::detail</text>
<text text-anchor="start" x="34.24" y="-158.5" font-family="Helvetica,sans-Serif" font-size="10.00">::RantWrapper&lt; Value,</text>
<text text-anchor="middle" x="85.22" y="-146.5" font-family="Helvetica,sans-Serif" font-size="10.00"> uint16_t, 0x3ff, 0 &gt;</text>
</a>
</g>
</g>
<!-- Node3&#45;&gt;Node2 -->
<g id="edge2" class="edge">
<title>Node3&#45;&gt;Node2</title>
<path fill="none" stroke="midnightblue" d="M85.22,-129.19C85.22,-119.76 85.22,-109.82 85.22,-101.91"/>
<polygon fill="midnightblue" stroke="midnightblue" points="81.72,-129.49 85.22,-139.49 88.72,-129.49 81.72,-129.49"/>
</g>
</g>
</svg>
