<?xml version="1.0" encoding="UTF-8" standalone="no"?>
<!DOCTYPE svg PUBLIC "-//W3C//DTD SVG 1.1//EN"
 "http://www.w3.org/Graphics/SVG/1.1/DTD/svg11.dtd">
<!-- Generated by graphviz version 2.46.0 (0)
 -->
<!-- Title: haldls::vx::SpikeFromChip Pages: 1 -->
<svg width="140pt" height="180pt"
 viewBox="0.00 0.00 140.12 180.00" xmlns="http://www.w3.org/2000/svg" xmlns:xlink="http://www.w3.org/1999/xlink">
<g id="graph0" class="graph" transform="scale(1 1) rotate(0) translate(4 176)">
<title>haldls::vx::SpikeFromChip</title>
<polygon fill="white" stroke="transparent" points="-4,4 -4,-176 136.12,-176 136.12,4 -4,4"/>
<!-- Node1 -->
<g id="node1" class="node">
<title>Node1</title>
<g id="a_node1"><a xlink:title="Spike from chip.">
<polygon fill="#bfbfbf" stroke="black" points="0,-0.5 0,-20.5 132.12,-20.5 132.12,-0.5 0,-0.5"/>
<text text-anchor="middle" x="66.06" y="-7.5" font-family="Helvetica,sans-Serif" font-size="10.00">haldls::vx::SpikeFromChip</text>
</a>
</g>
</g>
<!-- Node2 -->
<g id="node2" class="node">
<title>Node2</title>
<g id="a_node2"><a xlink:href="structhaldls_1_1vx_1_1_spike_label.html" target="_top" xlink:title=" ">
<polygon fill="white" stroke="black" points="9.71,-69.5 9.71,-89.5 122.41,-89.5 122.41,-69.5 9.71,-69.5"/>
<text text-anchor="middle" x="66.06" y="-76.5" font-family="Helvetica,sans-Serif" font-size="10.00">haldls::vx::SpikeLabel</text>
</a>
</g>
</g>
<!-- Node2&#45;&gt;Node1 -->
<g id="edge1" class="edge">
<title>Node2&#45;&gt;Node1</title>
<path fill="none" stroke="#9a32cd" stroke-dasharray="5,2" d="M66.06,-59.08C66.06,-46.5 66.06,-30.68 66.06,-20.82"/>
<polygon fill="#9a32cd" stroke="#9a32cd" points="62.56,-59.46 66.06,-69.46 69.56,-59.46 62.56,-59.46"/>
<text text-anchor="middle" x="78.01" y="-42" font-family="Helvetica,sans-Serif" font-size="10.00"> label</text>
</g>
<!-- Node3 -->
<g id="node3" class="node">
<title>Node3</title>
<g id="a_node3"><a xlink:title=" ">
<polygon fill="white" stroke="#bfbfbf" points="2.34,-127.5 2.34,-171.5 129.77,-171.5 129.77,-127.5 2.34,-127.5"/>
<text text-anchor="start" x="10.34" y="-158.5" font-family="Helvetica,sans-Serif" font-size="10.00">halco::common::detail</text>
<text text-anchor="start" x="10.34" y="-146.5" font-family="Helvetica,sans-Serif" font-size="10.00">::BaseType&lt; SpikeLabel,</text>
<text text-anchor="middle" x="66.06" y="-134.5" font-family="Helvetica,sans-Serif" font-size="10.00"> uint16_t &gt;</text>
</a>
</g>
</g>
<!-- Node3&#45;&gt;Node2 -->
<g id="edge2" class="edge">
<title>Node3&#45;&gt;Node2</title>
<path fill="none" stroke="midnightblue" d="M66.06,-117.18C66.06,-107.17 66.06,-96.84 66.06,-89.7"/>
<polygon fill="midnightblue" stroke="midnightblue" points="62.56,-117.36 66.06,-127.36 69.56,-117.36 62.56,-117.36"/>
</g>
</g>
</svg>
