<?xml version="1.0" encoding="UTF-8" standalone="no"?>
<!DOCTYPE svg PUBLIC "-//W3C//DTD SVG 1.1//EN"
 "http://www.w3.org/Graphics/SVG/1.1/DTD/svg11.dtd">
<!-- Generated by graphviz version 2.46.0 (0)
 -->
<!-- Title: haldls::vx::PhyConfigChip Pages: 1 -->
<!--zoomable 179 -->
<svg id="main" version="1.1" xmlns="http://www.w3.org/2000/svg" xmlns:xlink="http://www.w3.org/1999/xlink" xml:space="preserve" onload="init(evt)">
<style type="text/css"><![CDATA[
.edge:hover path { stroke: red; }
.edge:hover polygon { stroke: red; fill: red; }
]]></style>
<script type="text/javascript"><![CDATA[
var edges = document.getElementsByTagName('g');
if (edges && edges.length) {
  for (var i=0;i<edges.length;i++) {
    if (edges[i].id.substr(0,4)=='edge') {
      edges[i].setAttribute('class','edge');
    }
  }
}
]]></script>
        <defs>
                <circle id="rim" cx="0" cy="0" r="7"/>
                <circle id="rim2" cx="0" cy="0" r="3.5"/>
                <g id="zoomPlus">
                        <use xlink:href="#rim" fill="#404040">
                                <set attributeName="fill" to="#808080" begin="zoomplus.mouseover" end="zoomplus.mouseout"/>
                        </use>
                        <path d="M-4,0h8M0,-4v8" fill="none" stroke="white" stroke-width="1.5" pointer-events="none"/>
                </g>
                <g id="zoomMin">
                        <use xlink:href="#rim" fill="#404040">
                                <set attributeName="fill" to="#808080" begin="zoomminus.mouseover" end="zoomminus.mouseout"/>
                        </use>
                        <path d="M-4,0h8" fill="none" stroke="white" stroke-width="1.5" pointer-events="none"/>
                </g>
                <g id="dirArrow">
                        <path fill="none" stroke="white" stroke-width="1.5" d="M0,-3.0v7 M-2.5,-0.5L0,-3.0L2.5,-0.5"/>
                </g>
               <g id="resetDef">
                       <use xlink:href="#rim2" fill="#404040">
                               <set attributeName="fill" to="#808080" begin="reset.mouseover" end="reset.mouseout"/>
                       </use>
               </g>
        </defs>

<script type="text/javascript">
var viewWidth = 739;
var viewHeight = 179;
var sectionId = 'dynsection-1';
</script>
<script xlink:href="svgpan.js"/>
<svg id="graph" class="graph">
<g id="viewport">
<title>haldls::vx::PhyConfigChip</title>
<polygon fill="white" stroke="transparent" points="-4,4 -4,-175 734.56,-175 734.56,4 -4,4"/>
<!-- Node1 -->
<g id="node1" class="node">
<title>Node1</title>
<g id="a_node1"><a xlink:title="Container for individual configuration of chip&#45;side PHYs.">
<polygon fill="#bfbfbf" stroke="black" points="600.65,-75.5 600.65,-95.5 730.56,-95.5 730.56,-75.5 600.65,-75.5"/>
<text text-anchor="middle" x="665.6" y="-82.5" font-family="Helvetica,sans-Serif" font-size="10.00">haldls::vx::PhyConfigChip</text>
</a>
</g>
</g>
<!-- Node2 -->
<g id="node2" class="node">
<title>Node2</title>
<g id="a_node2"><a xlink:href="classhaldls_1_1vx_1_1detail_1_1_phy_config_base.html" target="_top" xlink:title="Common base class for PhyConfig of the FPGA&#45; and chip&#45;side PHYs.">
<polygon fill="white" stroke="black" points="473.18,-69.5 473.18,-101.5 563.65,-101.5 563.65,-69.5 473.18,-69.5"/>
<text text-anchor="start" x="481.18" y="-88.5" font-family="Helvetica,sans-Serif" font-size="10.00">haldls::vx::detail</text>
<text text-anchor="middle" x="518.42" y="-76.5" font-family="Helvetica,sans-Serif" font-size="10.00">::PhyConfigBase</text>
</a>
</g>
</g>
<!-- Node2&#45;&gt;Node1 -->
<g id="edge1" class="edge">
<title>Node2&#45;&gt;Node1</title>
<path fill="none" stroke="midnightblue" d="M573.78,-85.5C582.49,-85.5 591.57,-85.5 600.48,-85.5"/>
<polygon fill="midnightblue" stroke="midnightblue" points="573.77,-82 563.77,-85.5 573.77,-89 573.77,-82"/>
</g>
<!-- Node3 -->
<g id="node3" class="node">
<title>Node3</title>
<g id="a_node3"><a xlink:href="structhaldls_1_1vx_1_1detail_1_1_phy_config_base_1_1_debug_outputs.html" target="_top" xlink:title=" ">
<polygon fill="white" stroke="black" points="193.87,-126.5 193.87,-158.5 354.37,-158.5 354.37,-126.5 193.87,-126.5"/>
<text text-anchor="start" x="201.87" y="-145.5" font-family="Helvetica,sans-Serif" font-size="10.00">haldls::vx::detail</text>
<text text-anchor="middle" x="274.12" y="-133.5" font-family="Helvetica,sans-Serif" font-size="10.00">::PhyConfigBase::DebugOutputs</text>
</a>
</g>
</g>
<!-- Node3&#45;&gt;Node2 -->
<g id="edge2" class="edge">
<title>Node3&#45;&gt;Node2</title>
<path fill="none" stroke="#9a32cd" stroke-dasharray="5,2" d="M357.33,-124.29C388.07,-117.34 423.27,-109.23 455.18,-101.5 460.93,-100.11 466.96,-98.61 472.92,-97.1"/>
<polygon fill="#9a32cd" stroke="#9a32cd" points="356.5,-120.89 347.51,-126.5 358.03,-127.71 356.5,-120.89"/>
<text text-anchor="middle" x="413.77" y="-122.5" font-family="Helvetica,sans-Serif" font-size="10.00"> m_debug_outputs</text>
</g>
<!-- Node4 -->
<g id="node4" class="node">
<title>Node4</title>
<g id="a_node4"><a xlink:title=" ">
<polygon fill="white" stroke="#bfbfbf" points="0,-126.5 0,-170.5 156.87,-170.5 156.87,-126.5 0,-126.5"/>
<text text-anchor="start" x="8" y="-157.5" font-family="Helvetica,sans-Serif" font-size="10.00">halco::common::detail</text>
<text text-anchor="start" x="8" y="-145.5" font-family="Helvetica,sans-Serif" font-size="10.00">::RantWrapper&lt; DebugOutputs,</text>
<text text-anchor="middle" x="78.44" y="-133.5" font-family="Helvetica,sans-Serif" font-size="10.00"> uint_fast32_t, 1, 0 &gt;</text>
</a>
</g>
</g>
<!-- Node4&#45;&gt;Node3 -->
<g id="edge3" class="edge">
<title>Node4&#45;&gt;Node3</title>
<path fill="none" stroke="midnightblue" d="M167.1,-145.78C176.02,-145.51 185.04,-145.23 193.86,-144.96"/>
<polygon fill="midnightblue" stroke="midnightblue" points="166.99,-142.29 157.1,-146.09 167.2,-149.28 166.99,-142.29"/>
</g>
<!-- Node5 -->
<g id="node5" class="node">
<title>Node5</title>
<g id="a_node5"><a xlink:href="structhaldls_1_1vx_1_1detail_1_1_phy_config_base_1_1_v_bias.html" target="_top" xlink:title=" ">
<polygon fill="white" stroke="black" points="213.05,-69.5 213.05,-101.5 335.19,-101.5 335.19,-69.5 213.05,-69.5"/>
<text text-anchor="start" x="221.05" y="-88.5" font-family="Helvetica,sans-Serif" font-size="10.00">haldls::vx::detail</text>
<text text-anchor="middle" x="274.12" y="-76.5" font-family="Helvetica,sans-Serif" font-size="10.00">::PhyConfigBase::VBias</text>
</a>
</g>
</g>
<!-- Node5&#45;&gt;Node2 -->
<g id="edge4" class="edge">
<title>Node5&#45;&gt;Node2</title>
<path fill="none" stroke="#9a32cd" stroke-dasharray="5,2" d="M345.58,-85.5C386.78,-85.5 437.53,-85.5 473.15,-85.5"/>
<polygon fill="#9a32cd" stroke="#9a32cd" points="345.32,-82 335.32,-85.5 345.32,-89 345.32,-82"/>
<text text-anchor="middle" x="413.77" y="-88.5" font-family="Helvetica,sans-Serif" font-size="10.00"> m_vbias</text>
</g>
<!-- Node6 -->
<g id="node6" class="node">
<title>Node6</title>
<g id="a_node6"><a xlink:title=" ">
<polygon fill="white" stroke="#bfbfbf" points="19.18,-63.5 19.18,-107.5 137.7,-107.5 137.7,-63.5 19.18,-63.5"/>
<text text-anchor="start" x="27.18" y="-94.5" font-family="Helvetica,sans-Serif" font-size="10.00">halco::common::detail</text>
<text text-anchor="start" x="27.18" y="-82.5" font-family="Helvetica,sans-Serif" font-size="10.00">::RantWrapper&lt; VBias,</text>
<text text-anchor="middle" x="78.44" y="-70.5" font-family="Helvetica,sans-Serif" font-size="10.00"> uint_fast32_t, 7, 0 &gt;</text>
</a>
</g>
</g>
<!-- Node6&#45;&gt;Node5 -->
<g id="edge5" class="edge">
<title>Node6&#45;&gt;Node5</title>
<path fill="none" stroke="midnightblue" d="M148.02,-85.5C169.17,-85.5 192.3,-85.5 212.85,-85.5"/>
<polygon fill="midnightblue" stroke="midnightblue" points="147.81,-82 137.81,-85.5 147.81,-89 147.81,-82"/>
</g>
<!-- Node7 -->
<g id="node7" class="node">
<title>Node7</title>
<g id="a_node7"><a xlink:href="structhaldls_1_1vx_1_1detail_1_1_phy_config_base_1_1_manual_delay.html" target="_top" xlink:title=" ">
<polygon fill="white" stroke="black" points="196.94,-12.5 196.94,-44.5 351.3,-44.5 351.3,-12.5 196.94,-12.5"/>
<text text-anchor="start" x="204.94" y="-31.5" font-family="Helvetica,sans-Serif" font-size="10.00">haldls::vx::detail</text>
<text text-anchor="middle" x="274.12" y="-19.5" font-family="Helvetica,sans-Serif" font-size="10.00">::PhyConfigBase::ManualDelay</text>
</a>
</g>
</g>
<!-- Node7&#45;&gt;Node2 -->
<g id="edge6" class="edge">
<title>Node7&#45;&gt;Node2</title>
<path fill="none" stroke="#9a32cd" stroke-dasharray="5,2" d="M357.33,-46.71C388.07,-53.66 423.27,-61.77 455.18,-69.5 460.93,-70.89 466.96,-72.39 472.92,-73.9"/>
<polygon fill="#9a32cd" stroke="#9a32cd" points="358.03,-43.29 347.51,-44.5 356.5,-50.11 358.03,-43.29"/>
<text text-anchor="middle" x="413.77" y="-72.5" font-family="Helvetica,sans-Serif" font-size="10.00"> m_manual_delay</text>
</g>
<!-- Node8 -->
<g id="node8" class="node">
<title>Node8</title>
<g id="a_node8"><a xlink:title=" ">
<polygon fill="white" stroke="#bfbfbf" points="3.06,-0.5 3.06,-44.5 153.81,-44.5 153.81,-0.5 3.06,-0.5"/>
<text text-anchor="start" x="11.06" y="-31.5" font-family="Helvetica,sans-Serif" font-size="10.00">halco::common::detail</text>
<text text-anchor="start" x="11.06" y="-19.5" font-family="Helvetica,sans-Serif" font-size="10.00">::RantWrapper&lt; ManualDelay,</text>
<text text-anchor="middle" x="78.44" y="-7.5" font-family="Helvetica,sans-Serif" font-size="10.00"> uint_fast32_t, 15, 0 &gt;</text>
</a>
</g>
</g>
<!-- Node8&#45;&gt;Node7 -->
<g id="edge7" class="edge">
<title>Node8&#45;&gt;Node7</title>
<path fill="none" stroke="midnightblue" d="M164.28,-25.13C175.05,-25.46 186.01,-25.8 196.63,-26.13"/>
<polygon fill="midnightblue" stroke="midnightblue" points="164.15,-21.62 154.04,-24.81 163.93,-28.62 164.15,-21.62"/>
</g>
</g>
</svg>
        <g id="navigator" transform="translate(0 0)" fill="#404254">
                <rect fill="#f2f5e9" fill-opacity="0.5" stroke="#606060" stroke-width=".5" x="0" y="0" width="60" height="60"/>
                <use id="zoomplus" xlink:href="#zoomPlus" x="17" y="9" onmousedown="handleZoom(evt,'in')"/>
                <use id="zoomminus" xlink:href="#zoomMin" x="42" y="9" onmousedown="handleZoom(evt,'out')"/>
                <use id="reset" xlink:href="#resetDef" x="30" y="36" onmousedown="handleReset()"/>
                <g id="arrowUp" xlink:href="#dirArrow" transform="translate(30 24)" onmousedown="handlePan(0,-1)">
                  <use xlink:href="#rim" fill="#404040">
                        <set attributeName="fill" to="#808080" begin="arrowUp.mouseover" end="arrowUp.mouseout"/>
                  </use>
                  <path fill="none" stroke="white" stroke-width="1.5" d="M0,-3.0v7 M-2.5,-0.5L0,-3.0L2.5,-0.5"/>
                </g>
                <g id="arrowRight" xlink:href="#dirArrow" transform="rotate(90) translate(36 -43)" onmousedown="handlePan(1,0)">
                  <use xlink:href="#rim" fill="#404040">
                        <set attributeName="fill" to="#808080" begin="arrowRight.mouseover" end="arrowRight.mouseout"/>
                  </use>
                  <path fill="none" stroke="white" stroke-width="1.5" d="M0,-3.0v7 M-2.5,-0.5L0,-3.0L2.5,-0.5"/>
                </g>
                <g id="arrowDown" xlink:href="#dirArrow" transform="rotate(180) translate(-30 -48)" onmousedown="handlePan(0,1)">
                  <use xlink:href="#rim" fill="#404040">
                        <set attributeName="fill" to="#808080" begin="arrowDown.mouseover" end="arrowDown.mouseout"/>
                  </use>
                  <path fill="none" stroke="white" stroke-width="1.5" d="M0,-3.0v7 M-2.5,-0.5L0,-3.0L2.5,-0.5"/>
                </g>
                <g id="arrowLeft" xlink:href="#dirArrow" transform="rotate(270) translate(-36 17)" onmousedown="handlePan(-1,0)">
                  <use xlink:href="#rim" fill="#404040">
                        <set attributeName="fill" to="#808080" begin="arrowLeft.mouseover" end="arrowLeft.mouseout"/>
                  </use>
                  <path fill="none" stroke="white" stroke-width="1.5" d="M0,-3.0v7 M-2.5,-0.5L0,-3.0L2.5,-0.5"/>
                </g>
        </g>
        <svg viewBox="0 0 15 15" width="100%" height="30px" preserveAspectRatio="xMaxYMin meet">
         <g id="arrow_out" transform="scale(0.3 0.3)">
          <a xlink:href="classhaldls_1_1vx_1_1_phy_config_chip__coll__graph_org.svg" target="_base">
           <rect id="button" ry="5" rx="5" y="6" x="6" height="38" width="38"
                fill="#f2f5e9" fill-opacity="0.5" stroke="#606060" stroke-width="1.0"/>
           <path id="arrow"
             d="M 11.500037,31.436501 C 11.940474,20.09759 22.043105,11.32322 32.158766,21.979434 L 37.068811,17.246167 C 37.068811,17.246167 37.088388,32 37.088388,32 L 22.160133,31.978069 C 22.160133,31.978069 26.997745,27.140456 26.997745,27.140456 C 18.528582,18.264221 13.291696,25.230495 11.500037,31.436501 z"
             style="fill:#404040;"/>
          </a>
         </g>
        </svg>
</svg>
