<?xml version="1.0" encoding="UTF-8" standalone="no"?>
<!DOCTYPE svg PUBLIC "-//W3C//DTD SVG 1.1//EN"
 "http://www.w3.org/Graphics/SVG/1.1/DTD/svg11.dtd">
<!-- Generated by graphviz version 2.46.0 (0)
 -->
<!-- Title: haldls::vx::CommonPADIBusConfig Pages: 1 -->
<svg width="152pt" height="110pt"
 viewBox="0.00 0.00 152.35 110.00" xmlns="http://www.w3.org/2000/svg" xmlns:xlink="http://www.w3.org/1999/xlink">
<g id="graph0" class="graph" transform="scale(1 1) rotate(0) translate(4 106)">
<title>haldls::vx::CommonPADIBusConfig</title>
<polygon fill="white" stroke="transparent" points="-4,4 -4,-106 148.35,-106 148.35,4 -4,4"/>
<!-- Node1 -->
<g id="node1" class="node">
<title>Node1</title>
<g id="a_node1"><a xlink:title="Configuration for a PADI bus block.">
<polygon fill="#bfbfbf" stroke="black" points="0,-0.5 0,-32.5 144.35,-32.5 144.35,-0.5 0,-0.5"/>
<text text-anchor="start" x="8" y="-19.5" font-family="Helvetica,sans-Serif" font-size="10.00">haldls::vx::CommonPADIBus</text>
<text text-anchor="middle" x="72.17" y="-7.5" font-family="Helvetica,sans-Serif" font-size="10.00">Config</text>
</a>
</g>
</g>
<!-- Node2 -->
<g id="node2" class="node">
<title>Node2</title>
<g id="a_node2"><a xlink:href="classhaldls_1_1vx_1_1_differential_write_trait.html" target="_top" xlink:title="Trait signalling derived&#45;from container type support differential write operation.">
<polygon fill="white" stroke="black" points="16.67,-69.5 16.67,-101.5 127.68,-101.5 127.68,-69.5 16.67,-69.5"/>
<text text-anchor="start" x="24.67" y="-88.5" font-family="Helvetica,sans-Serif" font-size="10.00">haldls::vx::Differential</text>
<text text-anchor="middle" x="72.17" y="-76.5" font-family="Helvetica,sans-Serif" font-size="10.00">WriteTrait</text>
</a>
</g>
</g>
<!-- Node2&#45;&gt;Node1 -->
<g id="edge1" class="edge">
<title>Node2&#45;&gt;Node1</title>
<path fill="none" stroke="midnightblue" d="M72.17,-59.02C72.17,-50.13 72.17,-40.43 72.17,-32.64"/>
<polygon fill="midnightblue" stroke="midnightblue" points="68.67,-59.3 72.17,-69.3 75.67,-59.3 68.67,-59.3"/>
</g>
</g>
</svg>
