<?xml version="1.0" encoding="UTF-8" standalone="no"?>
<!DOCTYPE svg PUBLIC "-//W3C//DTD SVG 1.1//EN"
 "http://www.w3.org/Graphics/SVG/1.1/DTD/svg11.dtd">
<!-- Generated by graphviz version 2.46.0 (0)
 -->
<!-- Title: haldls::vx::CADCChannelConfig Pages: 1 -->
<svg width="166pt" height="192pt"
 viewBox="0.00 0.00 165.68 192.00" xmlns="http://www.w3.org/2000/svg" xmlns:xlink="http://www.w3.org/1999/xlink">
<g id="graph0" class="graph" transform="scale(1 1) rotate(0) translate(4 188)">
<title>haldls::vx::CADCChannelConfig</title>
<polygon fill="white" stroke="transparent" points="-4,4 -4,-188 161.68,-188 161.68,4 -4,4"/>
<!-- Node1 -->
<g id="node1" class="node">
<title>Node1</title>
<g id="a_node1"><a xlink:title="CADC container with channel&#45;local digital offset config.">
<polygon fill="#bfbfbf" stroke="black" points="0,-0.5 0,-20.5 157.68,-20.5 157.68,-0.5 0,-0.5"/>
<text text-anchor="middle" x="78.84" y="-7.5" font-family="Helvetica,sans-Serif" font-size="10.00">haldls::vx::CADCChannelConfig</text>
</a>
</g>
</g>
<!-- Node2 -->
<g id="node2" class="node">
<title>Node2</title>
<g id="a_node2"><a xlink:href="structhaldls_1_1vx_1_1_c_a_d_c_channel_config_1_1_offset.html" target="_top" xlink:title="Offset value to add to measurement.">
<polygon fill="white" stroke="black" points="0,-69.5 0,-101.5 157.68,-101.5 157.68,-69.5 0,-69.5"/>
<text text-anchor="start" x="8" y="-88.5" font-family="Helvetica,sans-Serif" font-size="10.00">haldls::vx::CADCChannelConfig</text>
<text text-anchor="middle" x="78.84" y="-76.5" font-family="Helvetica,sans-Serif" font-size="10.00">::Offset</text>
</a>
</g>
</g>
<!-- Node2&#45;&gt;Node1 -->
<g id="edge1" class="edge">
<title>Node2&#45;&gt;Node1</title>
<path fill="none" stroke="#9a32cd" stroke-dasharray="5,2" d="M78.84,-59.28C78.84,-45.89 78.84,-30.26 78.84,-20.62"/>
<polygon fill="#9a32cd" stroke="#9a32cd" points="75.34,-59.37 78.84,-69.37 82.34,-59.37 75.34,-59.37"/>
<text text-anchor="middle" x="99.4" y="-42" font-family="Helvetica,sans-Serif" font-size="10.00"> m_offset</text>
</g>
<!-- Node3 -->
<g id="node3" class="node">
<title>Node3</title>
<g id="a_node3"><a xlink:title=" ">
<polygon fill="white" stroke="#bfbfbf" points="15.4,-139.5 15.4,-183.5 142.28,-183.5 142.28,-139.5 15.4,-139.5"/>
<text text-anchor="start" x="23.4" y="-170.5" font-family="Helvetica,sans-Serif" font-size="10.00">halco::common::detail</text>
<text text-anchor="start" x="23.4" y="-158.5" font-family="Helvetica,sans-Serif" font-size="10.00">::RantWrapper&lt; Offset,</text>
<text text-anchor="middle" x="78.84" y="-146.5" font-family="Helvetica,sans-Serif" font-size="10.00"> int_fast16_t, 127, &#45;128 &gt;</text>
</a>
</g>
</g>
<!-- Node3&#45;&gt;Node2 -->
<g id="edge2" class="edge">
<title>Node3&#45;&gt;Node2</title>
<path fill="none" stroke="midnightblue" d="M78.84,-129.19C78.84,-119.76 78.84,-109.82 78.84,-101.91"/>
<polygon fill="midnightblue" stroke="midnightblue" points="75.34,-129.49 78.84,-139.49 82.34,-129.49 75.34,-129.49"/>
</g>
</g>
</svg>
