<?xml version="1.0" encoding="UTF-8" standalone="no"?>
<!DOCTYPE svg PUBLIC "-//W3C//DTD SVG 1.1//EN"
 "http://www.w3.org/Graphics/SVG/1.1/DTD/svg11.dtd">
<!-- Generated by graphviz version 2.46.0 (0)
 -->
<!-- Title: /jenkins/jenlib_workspaces_f9/bld_nightly&#45;haldls.YmxkX25pZ2h0bHktaGFsZGxzIzEzNzk.x/haldls/include/haldls/vx/constants.h Pages: 1 -->
<svg width="765pt" height="623pt"
 viewBox="0.00 0.00 765.02 623.00" xmlns="http://www.w3.org/2000/svg" xmlns:xlink="http://www.w3.org/1999/xlink">
<g id="graph0" class="graph" transform="scale(1 1) rotate(0) translate(4 619)">
<title>/jenkins/jenlib_workspaces_f9/bld_nightly&#45;haldls.YmxkX25pZ2h0bHktaGFsZGxzIzEzNzk.x/haldls/include/haldls/vx/constants.h</title>
<polygon fill="white" stroke="transparent" points="-4,4 -4,-619 761.02,-619 761.02,4 -4,4"/>
<!-- Node1 -->
<g id="node1" class="node">
<title>Node1</title>
<g id="a_node1"><a xlink:title=" ">
<polygon fill="#bfbfbf" stroke="black" points="318,-558.5 318,-614.5 499.02,-614.5 499.02,-558.5 318,-558.5"/>
<text text-anchor="start" x="326" y="-601.5" font-family="Helvetica,sans-Serif" font-size="10.00">/jenkins/jenlib_workspaces</text>
<text text-anchor="start" x="326" y="-589.5" font-family="Helvetica,sans-Serif" font-size="10.00">_f9/bld_nightly&#45;haldls.YmxkX25p</text>
<text text-anchor="start" x="326" y="-577.5" font-family="Helvetica,sans-Serif" font-size="10.00">Z2h0bHktaGFsZGxzIzEzNzk.x/haldls</text>
<text text-anchor="middle" x="408.51" y="-565.5" font-family="Helvetica,sans-Serif" font-size="10.00">/include/haldls/vx/constants.h</text>
</a>
</g>
</g>
<!-- Node2 -->
<g id="node2" class="node">
<title>Node2</title>
<g id="a_node2"><a xlink:href="pll_8h.html" target="_top" xlink:title=" ">
<polygon fill="white" stroke="black" points="318,-465.5 318,-521.5 499.02,-521.5 499.02,-465.5 318,-465.5"/>
<text text-anchor="start" x="326" y="-508.5" font-family="Helvetica,sans-Serif" font-size="10.00">/jenkins/jenlib_workspaces</text>
<text text-anchor="start" x="326" y="-496.5" font-family="Helvetica,sans-Serif" font-size="10.00">_f9/bld_nightly&#45;haldls.YmxkX25p</text>
<text text-anchor="start" x="326" y="-484.5" font-family="Helvetica,sans-Serif" font-size="10.00">Z2h0bHktaGFsZGxzIzEzNzk.x/haldls</text>
<text text-anchor="middle" x="408.51" y="-472.5" font-family="Helvetica,sans-Serif" font-size="10.00">/include/haldls/vx/pll.h</text>
</a>
</g>
</g>
<!-- Node1&#45;&gt;Node2 -->
<g id="edge1" class="edge">
<title>Node1&#45;&gt;Node2</title>
<path fill="none" stroke="midnightblue" d="M408.51,-548.12C408.51,-539.3 408.51,-530.06 408.51,-521.78"/>
<polygon fill="midnightblue" stroke="midnightblue" points="405.01,-548.2 408.51,-558.2 412.01,-548.2 405.01,-548.2"/>
</g>
<!-- Node14 -->
<g id="node14" class="node">
<title>Node14</title>
<g id="a_node14"><a xlink:href="v2_2constants_8h.html" target="_top" xlink:title=" ">
<polygon fill="white" stroke="black" points="0,-279.5 0,-335.5 181.02,-335.5 181.02,-279.5 0,-279.5"/>
<text text-anchor="start" x="8" y="-322.5" font-family="Helvetica,sans-Serif" font-size="10.00">/jenkins/jenlib_workspaces</text>
<text text-anchor="start" x="8" y="-310.5" font-family="Helvetica,sans-Serif" font-size="10.00">_f9/bld_nightly&#45;haldls.YmxkX25p</text>
<text text-anchor="start" x="8" y="-298.5" font-family="Helvetica,sans-Serif" font-size="10.00">Z2h0bHktaGFsZGxzIzEzNzk.x/haldls</text>
<text text-anchor="middle" x="90.51" y="-286.5" font-family="Helvetica,sans-Serif" font-size="10.00">/include/haldls/vx/v2/constants.h</text>
</a>
</g>
</g>
<!-- Node1&#45;&gt;Node14 -->
<g id="edge15" class="edge">
<title>Node1&#45;&gt;Node14</title>
<path fill="none" stroke="midnightblue" d="M308.21,-558.85C241.25,-535.71 157.05,-495.24 109.51,-429 89.87,-401.64 87.3,-361.78 88.17,-335.51"/>
<polygon fill="midnightblue" stroke="midnightblue" points="307.37,-562.26 317.96,-562.14 309.61,-555.63 307.37,-562.26"/>
</g>
<!-- Node15 -->
<g id="node15" class="node">
<title>Node15</title>
<g id="a_node15"><a xlink:href="v3_2constants_8h.html" target="_top" xlink:title=" ">
<polygon fill="white" stroke="black" points="576,-465.5 576,-521.5 757.02,-521.5 757.02,-465.5 576,-465.5"/>
<text text-anchor="start" x="584" y="-508.5" font-family="Helvetica,sans-Serif" font-size="10.00">/jenkins/jenlib_workspaces</text>
<text text-anchor="start" x="584" y="-496.5" font-family="Helvetica,sans-Serif" font-size="10.00">_f9/bld_nightly&#45;haldls.YmxkX25p</text>
<text text-anchor="start" x="584" y="-484.5" font-family="Helvetica,sans-Serif" font-size="10.00">Z2h0bHktaGFsZGxzIzEzNzk.x/haldls</text>
<text text-anchor="middle" x="666.51" y="-472.5" font-family="Helvetica,sans-Serif" font-size="10.00">/include/haldls/vx/v3/constants.h</text>
</a>
</g>
</g>
<!-- Node1&#45;&gt;Node15 -->
<g id="edge17" class="edge">
<title>Node1&#45;&gt;Node15</title>
<path fill="none" stroke="midnightblue" d="M495.03,-554.98C525.65,-544.18 559.88,-532.11 589.65,-521.61"/>
<polygon fill="midnightblue" stroke="midnightblue" points="493.49,-551.82 485.22,-558.44 495.81,-558.42 493.49,-551.82"/>
</g>
<!-- Node3 -->
<g id="node3" class="node">
<title>Node3</title>
<g id="a_node3"><a xlink:href="madc_8h.html" target="_top" xlink:title=" ">
<polygon fill="white" stroke="black" points="318,-372.5 318,-428.5 499.02,-428.5 499.02,-372.5 318,-372.5"/>
<text text-anchor="start" x="326" y="-415.5" font-family="Helvetica,sans-Serif" font-size="10.00">/jenkins/jenlib_workspaces</text>
<text text-anchor="start" x="326" y="-403.5" font-family="Helvetica,sans-Serif" font-size="10.00">_f9/bld_nightly&#45;haldls.YmxkX25p</text>
<text text-anchor="start" x="326" y="-391.5" font-family="Helvetica,sans-Serif" font-size="10.00">Z2h0bHktaGFsZGxzIzEzNzk.x/haldls</text>
<text text-anchor="middle" x="408.51" y="-379.5" font-family="Helvetica,sans-Serif" font-size="10.00">/include/haldls/vx/madc.h</text>
</a>
</g>
</g>
<!-- Node2&#45;&gt;Node3 -->
<g id="edge2" class="edge">
<title>Node2&#45;&gt;Node3</title>
<path fill="none" stroke="midnightblue" d="M408.51,-455.12C408.51,-446.3 408.51,-437.06 408.51,-428.78"/>
<polygon fill="midnightblue" stroke="midnightblue" points="405.01,-455.2 408.51,-465.2 412.01,-455.2 405.01,-455.2"/>
</g>
<!-- Node12 -->
<g id="node12" class="node">
<title>Node12</title>
<g id="a_node12"><a xlink:href="v2_2pll_8h.html" target="_top" xlink:title=" ">
<polygon fill="white" stroke="black" points="119,-372.5 119,-428.5 300.02,-428.5 300.02,-372.5 119,-372.5"/>
<text text-anchor="start" x="127" y="-415.5" font-family="Helvetica,sans-Serif" font-size="10.00">/jenkins/jenlib_workspaces</text>
<text text-anchor="start" x="127" y="-403.5" font-family="Helvetica,sans-Serif" font-size="10.00">_f9/bld_nightly&#45;haldls.YmxkX25p</text>
<text text-anchor="start" x="127" y="-391.5" font-family="Helvetica,sans-Serif" font-size="10.00">Z2h0bHktaGFsZGxzIzEzNzk.x/haldls</text>
<text text-anchor="middle" x="209.51" y="-379.5" font-family="Helvetica,sans-Serif" font-size="10.00">/include/haldls/vx/v2/pll.h</text>
</a>
</g>
</g>
<!-- Node2&#45;&gt;Node12 -->
<g id="edge11" class="edge">
<title>Node2&#45;&gt;Node12</title>
<path fill="none" stroke="midnightblue" d="M340.24,-461.28C317.01,-450.66 291.26,-438.88 268.79,-428.61"/>
<polygon fill="midnightblue" stroke="midnightblue" points="338.79,-464.47 349.34,-465.44 341.7,-458.1 338.79,-464.47"/>
</g>
<!-- Node13 -->
<g id="node13" class="node">
<title>Node13</title>
<g id="a_node13"><a xlink:href="v3_2pll_8h.html" target="_top" xlink:title=" ">
<polygon fill="white" stroke="black" points="517,-372.5 517,-428.5 698.02,-428.5 698.02,-372.5 517,-372.5"/>
<text text-anchor="start" x="525" y="-415.5" font-family="Helvetica,sans-Serif" font-size="10.00">/jenkins/jenlib_workspaces</text>
<text text-anchor="start" x="525" y="-403.5" font-family="Helvetica,sans-Serif" font-size="10.00">_f9/bld_nightly&#45;haldls.YmxkX25p</text>
<text text-anchor="start" x="525" y="-391.5" font-family="Helvetica,sans-Serif" font-size="10.00">Z2h0bHktaGFsZGxzIzEzNzk.x/haldls</text>
<text text-anchor="middle" x="607.51" y="-379.5" font-family="Helvetica,sans-Serif" font-size="10.00">/include/haldls/vx/v3/pll.h</text>
</a>
</g>
</g>
<!-- Node2&#45;&gt;Node13 -->
<g id="edge13" class="edge">
<title>Node2&#45;&gt;Node13</title>
<path fill="none" stroke="midnightblue" d="M476.78,-461.28C500.01,-450.66 525.76,-438.88 548.23,-428.61"/>
<polygon fill="midnightblue" stroke="midnightblue" points="475.32,-458.1 467.68,-465.44 478.23,-464.47 475.32,-458.1"/>
</g>
<!-- Node4 -->
<g id="node4" class="node">
<title>Node4</title>
<g id="a_node4"><a xlink:href="v2_2madc_8h.html" target="_top" xlink:title=" ">
<polygon fill="white" stroke="black" points="238,-279.5 238,-335.5 419.02,-335.5 419.02,-279.5 238,-279.5"/>
<text text-anchor="start" x="246" y="-322.5" font-family="Helvetica,sans-Serif" font-size="10.00">/jenkins/jenlib_workspaces</text>
<text text-anchor="start" x="246" y="-310.5" font-family="Helvetica,sans-Serif" font-size="10.00">_f9/bld_nightly&#45;haldls.YmxkX25p</text>
<text text-anchor="start" x="246" y="-298.5" font-family="Helvetica,sans-Serif" font-size="10.00">Z2h0bHktaGFsZGxzIzEzNzk.x/haldls</text>
<text text-anchor="middle" x="328.51" y="-286.5" font-family="Helvetica,sans-Serif" font-size="10.00">/include/haldls/vx/v2/madc.h</text>
</a>
</g>
</g>
<!-- Node3&#45;&gt;Node4 -->
<g id="edge3" class="edge">
<title>Node3&#45;&gt;Node4</title>
<path fill="none" stroke="midnightblue" d="M377.66,-364.41C369.31,-354.91 360.4,-344.78 352.49,-335.78"/>
<polygon fill="midnightblue" stroke="midnightblue" points="375.28,-367 384.51,-372.2 380.53,-362.38 375.28,-367"/>
</g>
<!-- Node8 -->
<g id="node8" class="node">
<title>Node8</title>
<g id="a_node8"><a xlink:href="v3_2madc_8h.html" target="_top" xlink:title=" ">
<polygon fill="white" stroke="black" points="437,-279.5 437,-335.5 618.02,-335.5 618.02,-279.5 437,-279.5"/>
<text text-anchor="start" x="445" y="-322.5" font-family="Helvetica,sans-Serif" font-size="10.00">/jenkins/jenlib_workspaces</text>
<text text-anchor="start" x="445" y="-310.5" font-family="Helvetica,sans-Serif" font-size="10.00">_f9/bld_nightly&#45;haldls.YmxkX25p</text>
<text text-anchor="start" x="445" y="-298.5" font-family="Helvetica,sans-Serif" font-size="10.00">Z2h0bHktaGFsZGxzIzEzNzk.x/haldls</text>
<text text-anchor="middle" x="527.51" y="-286.5" font-family="Helvetica,sans-Serif" font-size="10.00">/include/haldls/vx/v3/madc.h</text>
</a>
</g>
</g>
<!-- Node3&#45;&gt;Node8 -->
<g id="edge7" class="edge">
<title>Node3&#45;&gt;Node8</title>
<path fill="none" stroke="midnightblue" d="M451.93,-366.29C465.12,-356.21 479.46,-345.25 492.06,-335.61"/>
<polygon fill="midnightblue" stroke="midnightblue" points="449.71,-363.59 443.89,-372.44 453.96,-369.15 449.71,-363.59"/>
</g>
<!-- Node5 -->
<g id="node5" class="node">
<title>Node5</title>
<g id="a_node5"><a xlink:href="v2_2container_8h.html" target="_top" xlink:title=" ">
<polygon fill="white" stroke="black" points="119,-186.5 119,-242.5 300.02,-242.5 300.02,-186.5 119,-186.5"/>
<text text-anchor="start" x="127" y="-229.5" font-family="Helvetica,sans-Serif" font-size="10.00">/jenkins/jenlib_workspaces</text>
<text text-anchor="start" x="127" y="-217.5" font-family="Helvetica,sans-Serif" font-size="10.00">_f9/bld_nightly&#45;haldls.YmxkX25p</text>
<text text-anchor="start" x="127" y="-205.5" font-family="Helvetica,sans-Serif" font-size="10.00">Z2h0bHktaGFsZGxzIzEzNzk.x/haldls</text>
<text text-anchor="middle" x="209.51" y="-193.5" font-family="Helvetica,sans-Serif" font-size="10.00">/include/haldls/vx/v2/container.h</text>
</a>
</g>
</g>
<!-- Node4&#45;&gt;Node5 -->
<g id="edge4" class="edge">
<title>Node4&#45;&gt;Node5</title>
<path fill="none" stroke="midnightblue" d="M285.09,-273.29C271.89,-263.21 257.56,-252.25 244.96,-242.61"/>
<polygon fill="midnightblue" stroke="midnightblue" points="283.06,-276.15 293.13,-279.44 287.31,-270.59 283.06,-276.15"/>
</g>
<!-- Node6 -->
<g id="node6" class="node">
<title>Node6</title>
<g id="a_node6"><a xlink:href="v2_2haldls_8h.html" target="_top" xlink:title=" ">
<polygon fill="white" stroke="black" points="60,-93.5 60,-149.5 241.02,-149.5 241.02,-93.5 60,-93.5"/>
<text text-anchor="start" x="68" y="-136.5" font-family="Helvetica,sans-Serif" font-size="10.00">/jenkins/jenlib_workspaces</text>
<text text-anchor="start" x="68" y="-124.5" font-family="Helvetica,sans-Serif" font-size="10.00">_f9/bld_nightly&#45;haldls.YmxkX25p</text>
<text text-anchor="start" x="68" y="-112.5" font-family="Helvetica,sans-Serif" font-size="10.00">Z2h0bHktaGFsZGxzIzEzNzk.x/haldls</text>
<text text-anchor="middle" x="150.51" y="-100.5" font-family="Helvetica,sans-Serif" font-size="10.00">/include/haldls/vx/v2/haldls.h</text>
</a>
</g>
</g>
<!-- Node5&#45;&gt;Node6 -->
<g id="edge5" class="edge">
<title>Node5&#45;&gt;Node6</title>
<path fill="none" stroke="midnightblue" d="M186.2,-177.55C180.21,-168.31 173.86,-158.51 168.2,-149.78"/>
<polygon fill="midnightblue" stroke="midnightblue" points="183.43,-179.71 191.81,-186.2 189.3,-175.9 183.43,-179.71"/>
</g>
<!-- Node7 -->
<g id="node7" class="node">
<title>Node7</title>
<g id="a_node7"><a xlink:href="v2_2pyhaldls_8h.html" target="_top" xlink:title=" ">
<polygon fill="white" stroke="black" points="60,-0.5 60,-56.5 241.02,-56.5 241.02,-0.5 60,-0.5"/>
<text text-anchor="start" x="68" y="-43.5" font-family="Helvetica,sans-Serif" font-size="10.00">/jenkins/jenlib_workspaces</text>
<text text-anchor="start" x="68" y="-31.5" font-family="Helvetica,sans-Serif" font-size="10.00">_f9/bld_nightly&#45;haldls.YmxkX25p</text>
<text text-anchor="start" x="68" y="-19.5" font-family="Helvetica,sans-Serif" font-size="10.00">Z2h0bHktaGFsZGxzIzEzNzk.x/haldls</text>
<text text-anchor="middle" x="150.51" y="-7.5" font-family="Helvetica,sans-Serif" font-size="10.00">/include/haldls/vx/v2/pyhaldls.h</text>
</a>
</g>
</g>
<!-- Node6&#45;&gt;Node7 -->
<g id="edge6" class="edge">
<title>Node6&#45;&gt;Node7</title>
<path fill="none" stroke="midnightblue" d="M150.51,-83.12C150.51,-74.3 150.51,-65.06 150.51,-56.78"/>
<polygon fill="midnightblue" stroke="midnightblue" points="147.01,-83.2 150.51,-93.2 154.01,-83.2 147.01,-83.2"/>
</g>
<!-- Node9 -->
<g id="node9" class="node">
<title>Node9</title>
<g id="a_node9"><a xlink:href="v3_2container_8h.html" target="_top" xlink:title=" ">
<polygon fill="white" stroke="black" points="517,-186.5 517,-242.5 698.02,-242.5 698.02,-186.5 517,-186.5"/>
<text text-anchor="start" x="525" y="-229.5" font-family="Helvetica,sans-Serif" font-size="10.00">/jenkins/jenlib_workspaces</text>
<text text-anchor="start" x="525" y="-217.5" font-family="Helvetica,sans-Serif" font-size="10.00">_f9/bld_nightly&#45;haldls.YmxkX25p</text>
<text text-anchor="start" x="525" y="-205.5" font-family="Helvetica,sans-Serif" font-size="10.00">Z2h0bHktaGFsZGxzIzEzNzk.x/haldls</text>
<text text-anchor="middle" x="607.51" y="-193.5" font-family="Helvetica,sans-Serif" font-size="10.00">/include/haldls/vx/v3/container.h</text>
</a>
</g>
</g>
<!-- Node8&#45;&gt;Node9 -->
<g id="edge8" class="edge">
<title>Node8&#45;&gt;Node9</title>
<path fill="none" stroke="midnightblue" d="M558.36,-271.41C566.7,-261.91 575.61,-251.78 583.52,-242.78"/>
<polygon fill="midnightblue" stroke="midnightblue" points="555.49,-269.38 551.51,-279.2 560.74,-274 555.49,-269.38"/>
</g>
<!-- Node10 -->
<g id="node10" class="node">
<title>Node10</title>
<g id="a_node10"><a xlink:href="v3_2haldls_8h.html" target="_top" xlink:title=" ">
<polygon fill="white" stroke="black" points="576,-93.5 576,-149.5 757.02,-149.5 757.02,-93.5 576,-93.5"/>
<text text-anchor="start" x="584" y="-136.5" font-family="Helvetica,sans-Serif" font-size="10.00">/jenkins/jenlib_workspaces</text>
<text text-anchor="start" x="584" y="-124.5" font-family="Helvetica,sans-Serif" font-size="10.00">_f9/bld_nightly&#45;haldls.YmxkX25p</text>
<text text-anchor="start" x="584" y="-112.5" font-family="Helvetica,sans-Serif" font-size="10.00">Z2h0bHktaGFsZGxzIzEzNzk.x/haldls</text>
<text text-anchor="middle" x="666.51" y="-100.5" font-family="Helvetica,sans-Serif" font-size="10.00">/include/haldls/vx/v3/haldls.h</text>
</a>
</g>
</g>
<!-- Node9&#45;&gt;Node10 -->
<g id="edge9" class="edge">
<title>Node9&#45;&gt;Node10</title>
<path fill="none" stroke="midnightblue" d="M630.81,-177.55C636.81,-168.31 643.16,-158.51 648.82,-149.78"/>
<polygon fill="midnightblue" stroke="midnightblue" points="627.71,-175.9 625.21,-186.2 633.59,-179.71 627.71,-175.9"/>
</g>
<!-- Node11 -->
<g id="node11" class="node">
<title>Node11</title>
<g id="a_node11"><a xlink:href="v3_2pyhaldls_8h.html" target="_top" xlink:title=" ">
<polygon fill="white" stroke="black" points="576,-0.5 576,-56.5 757.02,-56.5 757.02,-0.5 576,-0.5"/>
<text text-anchor="start" x="584" y="-43.5" font-family="Helvetica,sans-Serif" font-size="10.00">/jenkins/jenlib_workspaces</text>
<text text-anchor="start" x="584" y="-31.5" font-family="Helvetica,sans-Serif" font-size="10.00">_f9/bld_nightly&#45;haldls.YmxkX25p</text>
<text text-anchor="start" x="584" y="-19.5" font-family="Helvetica,sans-Serif" font-size="10.00">Z2h0bHktaGFsZGxzIzEzNzk.x/haldls</text>
<text text-anchor="middle" x="666.51" y="-7.5" font-family="Helvetica,sans-Serif" font-size="10.00">/include/haldls/vx/v3/pyhaldls.h</text>
</a>
</g>
</g>
<!-- Node10&#45;&gt;Node11 -->
<g id="edge10" class="edge">
<title>Node10&#45;&gt;Node11</title>
<path fill="none" stroke="midnightblue" d="M666.51,-83.12C666.51,-74.3 666.51,-65.06 666.51,-56.78"/>
<polygon fill="midnightblue" stroke="midnightblue" points="663.01,-83.2 666.51,-93.2 670.01,-83.2 663.01,-83.2"/>
</g>
<!-- Node12&#45;&gt;Node5 -->
<g id="edge12" class="edge">
<title>Node12&#45;&gt;Node5</title>
<path fill="none" stroke="midnightblue" d="M209.51,-361.94C209.51,-326.54 209.51,-274.34 209.51,-242.76"/>
<polygon fill="midnightblue" stroke="midnightblue" points="206.01,-362.35 209.51,-372.35 213.01,-362.35 206.01,-362.35"/>
</g>
<!-- Node13&#45;&gt;Node9 -->
<g id="edge14" class="edge">
<title>Node13&#45;&gt;Node9</title>
<path fill="none" stroke="midnightblue" d="M621.2,-362.65C623.81,-354.02 626.16,-344.79 627.51,-336 631.36,-310.96 631.36,-304.04 627.51,-279 625.63,-266.78 621.83,-253.68 618.04,-242.57"/>
<polygon fill="midnightblue" stroke="midnightblue" points="617.78,-361.84 618.04,-372.43 624.44,-363.99 617.78,-361.84"/>
</g>
<!-- Node14&#45;&gt;Node6 -->
<g id="edge16" class="edge">
<title>Node14&#45;&gt;Node6</title>
<path fill="none" stroke="midnightblue" d="M92.39,-269.1C94.58,-244.77 99.31,-212.71 109.51,-186 114.38,-173.25 122.06,-160.38 129.46,-149.59"/>
<polygon fill="midnightblue" stroke="midnightblue" points="88.88,-269.1 91.58,-279.35 95.86,-269.66 88.88,-269.1"/>
</g>
<!-- Node15&#45;&gt;Node10 -->
<g id="edge18" class="edge">
<title>Node15&#45;&gt;Node10</title>
<path fill="none" stroke="midnightblue" d="M694.37,-457.08C699.77,-448.36 704.64,-438.72 707.51,-429 738.05,-325.41 738.05,-289.59 707.51,-186 703.69,-173.04 696.3,-160.22 688.84,-149.54"/>
<polygon fill="midnightblue" stroke="midnightblue" points="691.43,-455.18 688.84,-465.46 697.27,-459.04 691.43,-455.18"/>
</g>
</g>
</svg>
