<?xml version="1.0" encoding="UTF-8" standalone="no"?>
<!DOCTYPE svg PUBLIC "-//W3C//DTD SVG 1.1//EN"
 "http://www.w3.org/Graphics/SVG/1.1/DTD/svg11.dtd">
<!-- Generated by graphviz version 2.46.0 (0)
 -->
<!-- Title: /jenkins/jenlib_workspaces_f9/bld_nightly&#45;haldls.YmxkX25pZ2h0bHktaGFsZGxzIzEzNzk.x/haldls/include/haldls/vx/correlation.h Pages: 1 -->
<svg width="1243pt" height="203pt"
 viewBox="0.00 0.00 1243.19 203.00" xmlns="http://www.w3.org/2000/svg" xmlns:xlink="http://www.w3.org/1999/xlink">
<g id="graph0" class="graph" transform="scale(1 1) rotate(0) translate(4 199)">
<title>/jenkins/jenlib_workspaces_f9/bld_nightly&#45;haldls.YmxkX25pZ2h0bHktaGFsZGxzIzEzNzk.x/haldls/include/haldls/vx/correlation.h</title>
<polygon fill="white" stroke="transparent" points="-4,4 -4,-199 1239.19,-199 1239.19,4 -4,4"/>
<!-- Node1 -->
<g id="node1" class="node">
<title>Node1</title>
<g id="a_node1"><a xlink:title=" ">
<polygon fill="#bfbfbf" stroke="black" points="552.56,-138.5 552.56,-194.5 733.58,-194.5 733.58,-138.5 552.56,-138.5"/>
<text text-anchor="start" x="560.56" y="-181.5" font-family="Helvetica,sans-Serif" font-size="10.00">/jenkins/jenlib_workspaces</text>
<text text-anchor="start" x="560.56" y="-169.5" font-family="Helvetica,sans-Serif" font-size="10.00">_f9/bld_nightly&#45;haldls.YmxkX25p</text>
<text text-anchor="start" x="560.56" y="-157.5" font-family="Helvetica,sans-Serif" font-size="10.00">Z2h0bHktaGFsZGxzIzEzNzk.x/haldls</text>
<text text-anchor="middle" x="643.07" y="-145.5" font-family="Helvetica,sans-Serif" font-size="10.00">/include/haldls/vx/correlation.h</text>
</a>
</g>
</g>
<!-- Node2 -->
<g id="node2" class="node">
<title>Node2</title>
<g id="a_node2"><a xlink:title=" ">
<polygon fill="white" stroke="#bfbfbf" points="80.17,-75.5 80.17,-95.5 213.97,-95.5 213.97,-75.5 80.17,-75.5"/>
<text text-anchor="middle" x="147.07" y="-82.5" font-family="Helvetica,sans-Serif" font-size="10.00">halco/common/geometry.h</text>
</a>
</g>
</g>
<!-- Node1&#45;&gt;Node2 -->
<g id="edge1" class="edge">
<title>Node1&#45;&gt;Node2</title>
<path fill="none" stroke="midnightblue" d="M552.32,-153.15C467.11,-141.22 336.16,-122.07 223.07,-102 215.43,-100.64 207.37,-99.11 199.48,-97.55"/>
<polygon fill="midnightblue" stroke="midnightblue" points="200.1,-94.11 189.61,-95.57 198.72,-100.97 200.1,-94.11"/>
</g>
<!-- Node3 -->
<g id="node3" class="node">
<title>Node3</title>
<g id="a_node3"><a xlink:title=" ">
<polygon fill="white" stroke="#bfbfbf" points="231.95,-69.5 231.95,-101.5 340.19,-101.5 340.19,-69.5 231.95,-69.5"/>
<text text-anchor="start" x="239.95" y="-88.5" font-family="Helvetica,sans-Serif" font-size="10.00">halco/common/typed</text>
<text text-anchor="middle" x="286.07" y="-76.5" font-family="Helvetica,sans-Serif" font-size="10.00">_array.h</text>
</a>
</g>
</g>
<!-- Node1&#45;&gt;Node3 -->
<g id="edge2" class="edge">
<title>Node1&#45;&gt;Node3</title>
<path fill="none" stroke="midnightblue" d="M552.53,-146.64C496.82,-134.87 423.72,-119.14 350.24,-102.24"/>
<polygon fill="midnightblue" stroke="midnightblue" points="350.87,-98.79 340.34,-99.96 349.3,-105.61 350.87,-98.79"/>
</g>
<!-- Node4 -->
<g id="node4" class="node">
<title>Node4</title>
<g id="a_node4"><a xlink:title=" ">
<polygon fill="white" stroke="#bfbfbf" points="358.56,-69.5 358.56,-101.5 459.58,-101.5 459.58,-69.5 358.56,-69.5"/>
<text text-anchor="start" x="366.56" y="-88.5" font-family="Helvetica,sans-Serif" font-size="10.00">halco/hicann&#45;dls/vx</text>
<text text-anchor="middle" x="409.07" y="-76.5" font-family="Helvetica,sans-Serif" font-size="10.00">/capmem.h</text>
</a>
</g>
</g>
<!-- Node1&#45;&gt;Node4 -->
<g id="edge3" class="edge">
<title>Node1&#45;&gt;Node4</title>
<path fill="none" stroke="midnightblue" d="M562.87,-138.42C530.06,-127.35 492.96,-114.82 463.41,-104.85"/>
<polygon fill="midnightblue" stroke="midnightblue" points="464.3,-101.45 453.7,-101.57 462.06,-108.08 464.3,-101.45"/>
</g>
<!-- Node5 -->
<g id="node5" class="node">
<title>Node5</title>
<g id="a_node5"><a xlink:title=" ">
<polygon fill="white" stroke="#bfbfbf" points="477.56,-69.5 477.56,-101.5 578.58,-101.5 578.58,-69.5 477.56,-69.5"/>
<text text-anchor="start" x="485.56" y="-88.5" font-family="Helvetica,sans-Serif" font-size="10.00">halco/hicann&#45;dls/vx</text>
<text text-anchor="middle" x="528.07" y="-76.5" font-family="Helvetica,sans-Serif" font-size="10.00">/correlation.h</text>
</a>
</g>
</g>
<!-- Node1&#45;&gt;Node5 -->
<g id="edge4" class="edge">
<title>Node1&#45;&gt;Node5</title>
<path fill="none" stroke="midnightblue" d="M603.5,-138.31C588.79,-128.21 572.34,-116.91 558.56,-107.45"/>
<polygon fill="midnightblue" stroke="midnightblue" points="560.17,-104.3 549.94,-101.52 556.2,-110.07 560.17,-104.3"/>
</g>
<!-- Node6 -->
<g id="node6" class="node">
<title>Node6</title>
<g id="a_node6"><a xlink:href="genpybind_8h.html" target="_top" xlink:title=" ">
<polygon fill="white" stroke="black" points="0,-6.5 0,-26.5 112.14,-26.5 112.14,-6.5 0,-6.5"/>
<text text-anchor="middle" x="56.07" y="-13.5" font-family="Helvetica,sans-Serif" font-size="10.00">haldls/vx/genpybind.h</text>
</a>
</g>
</g>
<!-- Node1&#45;&gt;Node6 -->
<g id="edge5" class="edge">
<title>Node1&#45;&gt;Node6</title>
<path fill="none" stroke="midnightblue" d="M635.46,-138.45C627.56,-115.8 612.81,-84.73 588.07,-69 503.6,-15.29 238.29,-46.21 139.07,-33 129.58,-31.74 119.53,-30.11 109.82,-28.39"/>
<polygon fill="midnightblue" stroke="midnightblue" points="110.34,-24.92 99.87,-26.57 109.08,-31.81 110.34,-24.92"/>
</g>
<!-- Node7 -->
<g id="node7" class="node">
<title>Node7</title>
<g id="a_node7"><a xlink:href="traits_8h.html" target="_top" xlink:title=" ">
<polygon fill="white" stroke="black" points="635.23,-75.5 635.23,-95.5 722.91,-95.5 722.91,-75.5 635.23,-75.5"/>
<text text-anchor="middle" x="679.07" y="-82.5" font-family="Helvetica,sans-Serif" font-size="10.00">haldls/vx/traits.h</text>
</a>
</g>
</g>
<!-- Node1&#45;&gt;Node7 -->
<g id="edge7" class="edge">
<title>Node1&#45;&gt;Node7</title>
<path fill="none" stroke="midnightblue" d="M655.46,-138.31C660.47,-127.31 666.13,-114.9 670.65,-104.98"/>
<polygon fill="midnightblue" stroke="midnightblue" points="673.91,-106.27 674.87,-95.71 667.54,-103.36 673.91,-106.27"/>
</g>
<!-- Node11 -->
<g id="node11" class="node">
<title>Node11</title>
<g id="a_node11"><a xlink:title=" ">
<polygon fill="white" stroke="#bfbfbf" points="912.57,-6.5 912.57,-26.5 993.57,-26.5 993.57,-6.5 912.57,-6.5"/>
<text text-anchor="middle" x="953.07" y="-13.5" font-family="Helvetica,sans-Serif" font-size="10.00">hate/visibility.h</text>
</a>
</g>
</g>
<!-- Node1&#45;&gt;Node11 -->
<g id="edge18" class="edge">
<title>Node1&#45;&gt;Node11</title>
<path fill="none" stroke="midnightblue" d="M699.66,-138.45C740.16,-119.1 795.97,-92.44 845.07,-69 872.18,-56.06 903.12,-41.31 924.92,-30.92"/>
<polygon fill="midnightblue" stroke="midnightblue" points="926.43,-34.08 933.95,-26.61 923.42,-27.76 926.43,-34.08"/>
</g>
<!-- Node16 -->
<g id="node16" class="node">
<title>Node16</title>
<g id="a_node16"><a xlink:title=" ">
<polygon fill="white" stroke="#bfbfbf" points="981.67,-75.5 981.67,-95.5 1050.47,-95.5 1050.47,-75.5 981.67,-75.5"/>
<text text-anchor="middle" x="1016.07" y="-82.5" font-family="Helvetica,sans-Serif" font-size="10.00">hate/math.h</text>
</a>
</g>
</g>
<!-- Node1&#45;&gt;Node16 -->
<g id="edge17" class="edge">
<title>Node1&#45;&gt;Node16</title>
<path fill="none" stroke="midnightblue" d="M733.58,-151.99C800.39,-141.08 893.18,-123.94 973.07,-102 976.46,-101.07 979.97,-99.99 983.45,-98.85"/>
<polygon fill="midnightblue" stroke="midnightblue" points="984.76,-102.11 993.08,-95.54 982.48,-95.49 984.76,-102.11"/>
</g>
<!-- Node17 -->
<g id="node17" class="node">
<title>Node17</title>
<g id="a_node17"><a xlink:href="cerealization_8h.html" target="_top" xlink:title=" ">
<polygon fill="white" stroke="black" points="854.4,-75.5 854.4,-95.5 963.75,-95.5 963.75,-75.5 854.4,-75.5"/>
<text text-anchor="middle" x="909.07" y="-82.5" font-family="Helvetica,sans-Serif" font-size="10.00">haldls/cerealization.h</text>
</a>
</g>
</g>
<!-- Node1&#45;&gt;Node17 -->
<g id="edge19" class="edge">
<title>Node1&#45;&gt;Node17</title>
<path fill="none" stroke="midnightblue" d="M733.87,-138.53C779.62,-124.95 832.81,-109.15 868.47,-98.56"/>
<polygon fill="midnightblue" stroke="midnightblue" points="869.91,-101.78 878.5,-95.58 867.91,-95.07 869.91,-101.78"/>
</g>
<!-- Node21 -->
<g id="node21" class="node">
<title>Node21</title>
<g id="a_node21"><a xlink:title=" ">
<polygon fill="white" stroke="#bfbfbf" points="1068.73,-75.5 1068.73,-95.5 1161.41,-95.5 1161.41,-75.5 1068.73,-75.5"/>
<text text-anchor="middle" x="1115.07" y="-82.5" font-family="Helvetica,sans-Serif" font-size="10.00">cereal/cereal.hpp</text>
</a>
</g>
</g>
<!-- Node1&#45;&gt;Node21 -->
<g id="edge25" class="edge">
<title>Node1&#45;&gt;Node21</title>
<path fill="none" stroke="midnightblue" d="M733.71,-154.81C818.36,-144.09 947.98,-125.77 1059.07,-102 1064.24,-100.89 1069.64,-99.59 1074.96,-98.22"/>
<polygon fill="midnightblue" stroke="midnightblue" points="1076.25,-101.5 1085.01,-95.53 1074.44,-94.73 1076.25,-101.5"/>
</g>
<!-- Node6&#45;&gt;Node6 -->
<g id="edge6" class="edge">
<title>Node6&#45;&gt;Node6</title>
<path fill="none" stroke="midnightblue" d="M79.97,-26.54C103.79,-32.26 130.14,-28.92 130.14,-16.5 130.14,-5.78 110.51,-1.82 89.81,-4.62"/>
<polygon fill="midnightblue" stroke="midnightblue" points="89.15,-1.18 79.97,-6.46 90.44,-8.06 89.15,-1.18"/>
</g>
<!-- Node7&#45;&gt;Node6 -->
<g id="edge10" class="edge">
<title>Node7&#45;&gt;Node6</title>
<path fill="none" stroke="midnightblue" d="M649.5,-75.46C640.45,-73 630.42,-70.58 621.07,-69 409.27,-33.11 352.09,-60.76 139.07,-33 129.47,-31.75 119.3,-30.11 109.49,-28.37"/>
<polygon fill="midnightblue" stroke="midnightblue" points="109.9,-24.89 99.44,-26.53 108.64,-31.77 109.9,-24.89"/>
</g>
<!-- Node8 -->
<g id="node8" class="node">
<title>Node8</title>
<g id="a_node8"><a xlink:title=" ">
<polygon fill="white" stroke="#bfbfbf" points="148.01,-6.5 148.01,-26.5 230.13,-26.5 230.13,-6.5 148.01,-6.5"/>
<text text-anchor="middle" x="189.07" y="-13.5" font-family="Helvetica,sans-Serif" font-size="10.00">fisch/vx/traits.h</text>
</a>
</g>
</g>
<!-- Node7&#45;&gt;Node8 -->
<g id="edge8" class="edge">
<title>Node7&#45;&gt;Node8</title>
<path fill="none" stroke="midnightblue" d="M649.18,-75.49C640.21,-73.06 630.3,-70.66 621.07,-69 453.22,-38.88 406.29,-66.43 239.07,-33 234.31,-32.05 229.36,-30.82 224.5,-29.47"/>
<polygon fill="midnightblue" stroke="midnightblue" points="225.34,-26.07 214.76,-26.58 223.35,-32.78 225.34,-26.07"/>
</g>
<!-- Node9 -->
<g id="node9" class="node">
<title>Node9</title>
<g id="a_node9"><a xlink:title=" ">
<polygon fill="white" stroke="#bfbfbf" points="247.84,-0.5 247.84,-32.5 358.3,-32.5 358.3,-0.5 247.84,-0.5"/>
<text text-anchor="start" x="255.84" y="-19.5" font-family="Helvetica,sans-Serif" font-size="10.00">fisch/vx/word_access</text>
<text text-anchor="middle" x="303.07" y="-7.5" font-family="Helvetica,sans-Serif" font-size="10.00">_type.h</text>
</a>
</g>
</g>
<!-- Node7&#45;&gt;Node9 -->
<g id="edge9" class="edge">
<title>Node7&#45;&gt;Node9</title>
<path fill="none" stroke="midnightblue" d="M647.93,-75.44C639.28,-73.13 629.85,-70.79 621.07,-69 512.51,-46.88 480.84,-54 368.53,-33.17"/>
<polygon fill="midnightblue" stroke="midnightblue" points="368.98,-29.69 358.5,-31.27 367.68,-36.57 368.98,-29.69"/>
</g>
<!-- Node10 -->
<g id="node10" class="node">
<title>Node10</title>
<g id="a_node10"><a xlink:title=" ">
<polygon fill="white" stroke="#bfbfbf" points="811.45,-6.5 811.45,-26.5 894.69,-26.5 894.69,-6.5 811.45,-6.5"/>
<text text-anchor="middle" x="853.07" y="-13.5" font-family="Helvetica,sans-Serif" font-size="10.00">hate/type_list.h</text>
</a>
</g>
</g>
<!-- Node7&#45;&gt;Node10 -->
<g id="edge11" class="edge">
<title>Node7&#45;&gt;Node10</title>
<path fill="none" stroke="midnightblue" d="M702.54,-75.46C732.76,-63.83 785.48,-43.52 819.83,-30.3"/>
<polygon fill="midnightblue" stroke="midnightblue" points="821.35,-33.47 829.42,-26.61 818.83,-26.93 821.35,-33.47"/>
</g>
<!-- Node7&#45;&gt;Node11 -->
<g id="edge12" class="edge">
<title>Node7&#45;&gt;Node11</title>
<path fill="none" stroke="midnightblue" d="M723.31,-75.49C768.88,-65.94 841.82,-49.94 904.07,-33 907.98,-31.94 912.04,-30.76 916.08,-29.55"/>
<polygon fill="midnightblue" stroke="midnightblue" points="917.45,-32.79 925.97,-26.5 915.39,-26.1 917.45,-32.79"/>
</g>
<!-- Node12 -->
<g id="node12" class="node">
<title>Node12</title>
<g id="a_node12"><a xlink:title=" ">
<polygon fill="white" stroke="#bfbfbf" points="376.01,-6.5 376.01,-26.5 438.13,-26.5 438.13,-6.5 376.01,-6.5"/>
<text text-anchor="middle" x="407.07" y="-13.5" font-family="Helvetica,sans-Serif" font-size="10.00">type_traits</text>
</a>
</g>
</g>
<!-- Node7&#45;&gt;Node12 -->
<g id="edge13" class="edge">
<title>Node7&#45;&gt;Node12</title>
<path fill="none" stroke="midnightblue" d="M646.64,-75.48C638.33,-73.27 629.39,-70.97 621.07,-69 544.23,-50.8 522.82,-55.34 447.07,-33 444.1,-32.12 441.03,-31.12 437.98,-30.06"/>
<polygon fill="midnightblue" stroke="midnightblue" points="439.03,-26.71 428.43,-26.53 436.6,-33.28 439.03,-26.71"/>
</g>
<!-- Node13 -->
<g id="node13" class="node">
<title>Node13</title>
<g id="a_node13"><a xlink:title=" ">
<polygon fill="white" stroke="#bfbfbf" points="455.67,-0.5 455.67,-32.5 554.47,-32.5 554.47,-0.5 455.67,-0.5"/>
<text text-anchor="start" x="463.67" y="-19.5" font-family="Helvetica,sans-Serif" font-size="10.00">boost/utility/enable</text>
<text text-anchor="middle" x="505.07" y="-7.5" font-family="Helvetica,sans-Serif" font-size="10.00">_if.hpp</text>
</a>
</g>
</g>
<!-- Node7&#45;&gt;Node13 -->
<g id="edge14" class="edge">
<title>Node7&#45;&gt;Node13</title>
<path fill="none" stroke="midnightblue" d="M655.61,-75.46C629.6,-65.45 586.95,-49.03 553.67,-36.21"/>
<polygon fill="midnightblue" stroke="midnightblue" points="554.7,-32.86 544.11,-32.53 552.19,-39.39 554.7,-32.86"/>
</g>
<!-- Node14 -->
<g id="node14" class="node">
<title>Node14</title>
<g id="a_node14"><a xlink:title=" ">
<polygon fill="white" stroke="#bfbfbf" points="572.72,-6.5 572.72,-26.5 665.42,-26.5 665.42,-6.5 572.72,-6.5"/>
<text text-anchor="middle" x="619.07" y="-13.5" font-family="Helvetica,sans-Serif" font-size="10.00">boost/variant.hpp</text>
</a>
</g>
</g>
<!-- Node7&#45;&gt;Node14 -->
<g id="edge15" class="edge">
<title>Node7&#45;&gt;Node14</title>
<path fill="none" stroke="midnightblue" d="M670.98,-75.46C661.64,-65.03 646.07,-47.64 634.41,-34.63"/>
<polygon fill="midnightblue" stroke="midnightblue" points="636.7,-31.94 627.42,-26.82 631.48,-36.61 636.7,-31.94"/>
</g>
<!-- Node15 -->
<g id="node15" class="node">
<title>Node15</title>
<g id="a_node15"><a xlink:title=" ">
<polygon fill="white" stroke="#bfbfbf" points="683.12,-6.5 683.12,-26.5 793.03,-26.5 793.03,-6.5 683.12,-6.5"/>
<text text-anchor="middle" x="738.07" y="-13.5" font-family="Helvetica,sans-Serif" font-size="10.00">fisch/vx/container.def</text>
</a>
</g>
</g>
<!-- Node7&#45;&gt;Node15 -->
<g id="edge16" class="edge">
<title>Node7&#45;&gt;Node15</title>
<path fill="none" stroke="midnightblue" d="M687.03,-75.46C696.21,-65.03 711.53,-47.64 722.99,-34.63"/>
<polygon fill="midnightblue" stroke="midnightblue" points="725.88,-36.64 729.86,-26.82 720.63,-32.01 725.88,-36.64"/>
</g>
<!-- Node17&#45;&gt;Node10 -->
<g id="edge20" class="edge">
<title>Node17&#45;&gt;Node10</title>
<path fill="none" stroke="midnightblue" d="M901.52,-75.46C892.8,-65.03 878.27,-47.64 867.39,-34.63"/>
<polygon fill="midnightblue" stroke="midnightblue" points="869.96,-32.25 860.86,-26.82 864.59,-36.74 869.96,-32.25"/>
</g>
<!-- Node17&#45;&gt;Node11 -->
<g id="edge21" class="edge">
<title>Node17&#45;&gt;Node11</title>
<path fill="none" stroke="midnightblue" d="M915.01,-75.46C921.73,-65.23 932.84,-48.3 941.33,-35.38"/>
<polygon fill="midnightblue" stroke="midnightblue" points="944.39,-37.1 946.95,-26.82 938.53,-33.26 944.39,-37.1"/>
</g>
<!-- Node18 -->
<g id="node18" class="node">
<title>Node18</title>
<g id="a_node18"><a xlink:title=" ">
<polygon fill="white" stroke="#bfbfbf" points="1011.62,-6.5 1011.62,-26.5 1056.52,-26.5 1056.52,-6.5 1011.62,-6.5"/>
<text text-anchor="middle" x="1034.07" y="-13.5" font-family="Helvetica,sans-Serif" font-size="10.00">cstdint</text>
</a>
</g>
</g>
<!-- Node17&#45;&gt;Node18 -->
<g id="edge22" class="edge">
<title>Node17&#45;&gt;Node18</title>
<path fill="none" stroke="midnightblue" d="M925.93,-75.46C947.08,-64.13 983.58,-44.56 1008.26,-31.34"/>
<polygon fill="midnightblue" stroke="midnightblue" points="1009.92,-34.42 1017.08,-26.61 1006.61,-28.25 1009.92,-34.42"/>
</g>
<!-- Node19 -->
<g id="node19" class="node">
<title>Node19</title>
<g id="a_node19"><a xlink:title=" ">
<polygon fill="white" stroke="#bfbfbf" points="1074.9,-6.5 1074.9,-26.5 1119.24,-26.5 1119.24,-6.5 1074.9,-6.5"/>
<text text-anchor="middle" x="1097.07" y="-13.5" font-family="Helvetica,sans-Serif" font-size="10.00">iosfwd</text>
</a>
</g>
</g>
<!-- Node17&#45;&gt;Node19 -->
<g id="edge23" class="edge">
<title>Node17&#45;&gt;Node19</title>
<path fill="none" stroke="midnightblue" d="M940.59,-75.43C972.41,-65.97 1022.78,-50.14 1065.07,-33 1066.68,-32.35 1068.33,-31.65 1069.98,-30.93"/>
<polygon fill="midnightblue" stroke="midnightblue" points="1071.71,-33.98 1079.32,-26.61 1068.77,-27.63 1071.71,-33.98"/>
</g>
<!-- Node20 -->
<g id="node20" class="node">
<title>Node20</title>
<g id="a_node20"><a xlink:title=" ">
<polygon fill="white" stroke="#bfbfbf" points="1136.95,-6.5 1136.95,-26.5 1235.19,-26.5 1235.19,-6.5 1136.95,-6.5"/>
<text text-anchor="middle" x="1186.07" y="-13.5" font-family="Helvetica,sans-Serif" font-size="10.00">cereal/macros.hpp</text>
</a>
</g>
</g>
<!-- Node17&#45;&gt;Node20 -->
<g id="edge24" class="edge">
<title>Node17&#45;&gt;Node20</title>
<path fill="none" stroke="midnightblue" d="M946.28,-75.43C955.06,-73.3 964.4,-71.06 973.07,-69 1041.88,-52.68 1059.46,-50.13 1128.07,-33 1133,-31.77 1138.16,-30.44 1143.27,-29.11"/>
<polygon fill="midnightblue" stroke="midnightblue" points="1144.22,-32.48 1152.99,-26.54 1142.43,-25.71 1144.22,-32.48"/>
</g>
</g>
</svg>
