<?xml version="1.0" encoding="UTF-8" standalone="no"?>
<!DOCTYPE svg PUBLIC "-//W3C//DTD SVG 1.1//EN"
 "http://www.w3.org/Graphics/SVG/1.1/DTD/svg11.dtd">
<!-- Generated by graphviz version 2.46.0 (0)
 -->
<!-- Title: /jenkins/jenlib_workspaces_f9/bld_nightly&#45;haldls.YmxkX25pZ2h0bHktaGFsZGxzIzEzNzk.x/haldls/include/haldls/vx Pages: 1 -->
<svg width="254pt" height="112pt"
 viewBox="0.00 0.00 254.00 112.00" xmlns="http://www.w3.org/2000/svg" xmlns:xlink="http://www.w3.org/1999/xlink">
<g id="graph0" class="graph" transform="scale(1 1) rotate(0) translate(4 108)">
<title>/jenkins/jenlib_workspaces_f9/bld_nightly&#45;haldls.YmxkX25pZ2h0bHktaGFsZGxzIzEzNzk.x/haldls/include/haldls/vx</title>
<polygon fill="white" stroke="transparent" points="-4,4 -4,-108 250,-108 250,4 -4,4"/>
<g id="clust1" class="cluster">
<title>clusterdir_b92cc810d8aff131b4dcaa4ff16fc2c6</title>
<g id="a_clust1"><a xlink:href="dir_b92cc810d8aff131b4dcaa4ff16fc2c6.html" target="_top" xlink:title="haldls">
<polygon fill="#ddddee" stroke="black" points="8,-8 8,-96 238,-96 238,-8 8,-8"/>
<text text-anchor="middle" x="123" y="-83" font-family="Helvetica,sans-Serif" font-size="10.00">haldls</text>
</a>
</g>
</g>
<g id="clust2" class="cluster">
<title>clusterdir_41e144568e9e6794ca92fdc739b02c8c</title>
<g id="a_clust2"><a xlink:href="dir_41e144568e9e6794ca92fdc739b02c8c.html" target="_top">
<polygon fill="#eeeeff" stroke="black" points="16,-16 16,-68 230,-68 230,-16 16,-16"/>
</a>
</g>
</g>
<!-- dir_41e144568e9e6794ca92fdc739b02c8c -->
<g id="node1" class="node">
<title>dir_41e144568e9e6794ca92fdc739b02c8c</title>
<text text-anchor="middle" x="195" y="-39" font-family="Helvetica,sans-Serif" font-size="10.00">vx</text>
</g>
<!-- dir_8a86b85f940dc143cb9e730eba14749c -->
<g id="node2" class="node">
<title>dir_8a86b85f940dc143cb9e730eba14749c</title>
<g id="a_node2"><a xlink:href="dir_8a86b85f940dc143cb9e730eba14749c.html" target="_top" xlink:title="v2">
<polygon fill="white" stroke="black" points="150,-60 96,-60 96,-24 150,-24 150,-60"/>
<text text-anchor="middle" x="123" y="-39" font-family="Helvetica,sans-Serif" font-size="10.00">v2</text>
</a>
</g>
</g>
<!-- dir_b9b13169233981d6fd99653e7c625a30 -->
<g id="node3" class="node">
<title>dir_b9b13169233981d6fd99653e7c625a30</title>
<g id="a_node3"><a xlink:href="dir_b9b13169233981d6fd99653e7c625a30.html" target="_top" xlink:title="v3">
<polygon fill="white" stroke="black" points="78,-60 24,-60 24,-24 78,-24 78,-60"/>
<text text-anchor="middle" x="51" y="-39" font-family="Helvetica,sans-Serif" font-size="10.00">v3</text>
</a>
</g>
</g>
</g>
</svg>
