<?xml version="1.0" encoding="UTF-8" standalone="no"?>
<!DOCTYPE svg PUBLIC "-//W3C//DTD SVG 1.1//EN"
 "http://www.w3.org/Graphics/SVG/1.1/DTD/svg11.dtd">
<!-- Generated by graphviz version 2.46.0 (0)
 -->
<!-- Title: /jenkins/jenlib_workspaces_f9/bld_nightly&#45;haldls.YmxkX25pZ2h0bHktaGFsZGxzIzEzNzk.x/haldls/include/haldls/vx/event.h Pages: 1 -->
<svg width="1825pt" height="341pt"
 viewBox="0.00 0.00 1825.32 341.00" xmlns="http://www.w3.org/2000/svg" xmlns:xlink="http://www.w3.org/1999/xlink">
<g id="graph0" class="graph" transform="scale(1 1) rotate(0) translate(4 337)">
<title>/jenkins/jenlib_workspaces_f9/bld_nightly&#45;haldls.YmxkX25pZ2h0bHktaGFsZGxzIzEzNzk.x/haldls/include/haldls/vx/event.h</title>
<polygon fill="white" stroke="transparent" points="-4,4 -4,-337 1821.32,-337 1821.32,4 -4,4"/>
<!-- Node1 -->
<g id="node1" class="node">
<title>Node1</title>
<g id="a_node1"><a xlink:title=" ">
<polygon fill="#bfbfbf" stroke="black" points="854.95,-276.5 854.95,-332.5 1035.96,-332.5 1035.96,-276.5 854.95,-276.5"/>
<text text-anchor="start" x="862.95" y="-319.5" font-family="Helvetica,sans-Serif" font-size="10.00">/jenkins/jenlib_workspaces</text>
<text text-anchor="start" x="862.95" y="-307.5" font-family="Helvetica,sans-Serif" font-size="10.00">_f9/bld_nightly&#45;haldls.YmxkX25p</text>
<text text-anchor="start" x="862.95" y="-295.5" font-family="Helvetica,sans-Serif" font-size="10.00">Z2h0bHktaGFsZGxzIzEzNzk.x/haldls</text>
<text text-anchor="middle" x="945.45" y="-283.5" font-family="Helvetica,sans-Serif" font-size="10.00">/include/haldls/vx/event.h</text>
</a>
</g>
</g>
<!-- Node2 -->
<g id="node2" class="node">
<title>Node2</title>
<g id="a_node2"><a xlink:title=" ">
<polygon fill="white" stroke="#bfbfbf" points="0,-213.5 0,-233.5 84.91,-233.5 84.91,-213.5 0,-213.5"/>
<text text-anchor="middle" x="42.45" y="-220.5" font-family="Helvetica,sans-Serif" font-size="10.00">fisch/vx/event.h</text>
</a>
</g>
</g>
<!-- Node1&#45;&gt;Node2 -->
<g id="edge1" class="edge">
<title>Node1&#45;&gt;Node2</title>
<path fill="none" stroke="midnightblue" d="M854.8,-302.49C699.03,-299.47 371.03,-287.47 98.45,-240 92.66,-238.99 86.6,-237.64 80.7,-236.15"/>
<polygon fill="midnightblue" stroke="midnightblue" points="81.55,-232.75 70.99,-233.55 79.74,-239.52 81.55,-232.75"/>
</g>
<!-- Node3 -->
<g id="node3" class="node">
<title>Node3</title>
<g id="a_node3"><a xlink:title=" ">
<polygon fill="white" stroke="#bfbfbf" points="1662.55,-75.5 1662.55,-95.5 1796.35,-95.5 1796.35,-75.5 1662.55,-75.5"/>
<text text-anchor="middle" x="1729.45" y="-82.5" font-family="Helvetica,sans-Serif" font-size="10.00">halco/common/geometry.h</text>
</a>
</g>
</g>
<!-- Node1&#45;&gt;Node3 -->
<g id="edge2" class="edge">
<title>Node1&#45;&gt;Node3</title>
<path fill="none" stroke="midnightblue" d="M1036.22,-280.86C1181.29,-244.65 1451.33,-177.12 1472.45,-171 1552.64,-147.77 1645.38,-116.06 1694.58,-98.85"/>
<polygon fill="midnightblue" stroke="midnightblue" points="1695.83,-102.12 1704.11,-95.5 1693.51,-95.51 1695.83,-102.12"/>
</g>
<!-- Node4 -->
<g id="node4" class="node">
<title>Node4</title>
<g id="a_node4"><a xlink:title=" ">
<polygon fill="white" stroke="#bfbfbf" points="1340.95,-207.5 1340.95,-239.5 1441.96,-239.5 1441.96,-207.5 1340.95,-207.5"/>
<text text-anchor="start" x="1348.95" y="-226.5" font-family="Helvetica,sans-Serif" font-size="10.00">halco/hicann&#45;dls/vx</text>
<text text-anchor="middle" x="1391.45" y="-214.5" font-family="Helvetica,sans-Serif" font-size="10.00">/event.h</text>
</a>
</g>
</g>
<!-- Node1&#45;&gt;Node4 -->
<g id="edge3" class="edge">
<title>Node1&#45;&gt;Node4</title>
<path fill="none" stroke="midnightblue" d="M1036.23,-290.17C1113.62,-278.38 1227.7,-259.98 1326.45,-240 1327.91,-239.71 1329.39,-239.4 1330.87,-239.09"/>
<polygon fill="midnightblue" stroke="midnightblue" points="1331.76,-242.48 1340.79,-236.94 1330.27,-235.64 1331.76,-242.48"/>
</g>
<!-- Node5 -->
<g id="node5" class="node">
<title>Node5</title>
<g id="a_node5"><a xlink:title=" ">
<polygon fill="white" stroke="#bfbfbf" points="1459.95,-207.5 1459.95,-239.5 1560.96,-239.5 1560.96,-207.5 1459.95,-207.5"/>
<text text-anchor="start" x="1467.95" y="-226.5" font-family="Helvetica,sans-Serif" font-size="10.00">halco/hicann&#45;dls/vx</text>
<text text-anchor="middle" x="1510.45" y="-214.5" font-family="Helvetica,sans-Serif" font-size="10.00">/highspeed_link.h</text>
</a>
</g>
</g>
<!-- Node1&#45;&gt;Node5 -->
<g id="edge4" class="edge">
<title>Node1&#45;&gt;Node5</title>
<path fill="none" stroke="midnightblue" d="M1036.05,-295.77C1135.56,-286.45 1300.11,-268.63 1449.86,-240.18"/>
<polygon fill="midnightblue" stroke="midnightblue" points="1450.54,-243.61 1459.7,-238.29 1449.22,-236.74 1450.54,-243.61"/>
</g>
<!-- Node6 -->
<g id="node6" class="node">
<title>Node6</title>
<g id="a_node6"><a xlink:title=" ">
<polygon fill="white" stroke="#bfbfbf" points="1578.95,-207.5 1578.95,-239.5 1679.96,-239.5 1679.96,-207.5 1578.95,-207.5"/>
<text text-anchor="start" x="1586.95" y="-226.5" font-family="Helvetica,sans-Serif" font-size="10.00">halco/hicann&#45;dls/vx</text>
<text text-anchor="middle" x="1629.45" y="-214.5" font-family="Helvetica,sans-Serif" font-size="10.00">/readout.h</text>
</a>
</g>
</g>
<!-- Node1&#45;&gt;Node6 -->
<g id="edge5" class="edge">
<title>Node1&#45;&gt;Node6</title>
<path fill="none" stroke="midnightblue" d="M1036.12,-298.73C1156.18,-291.41 1374.48,-274.68 1568.61,-240.18"/>
<polygon fill="midnightblue" stroke="midnightblue" points="1569.49,-243.58 1578.72,-238.37 1568.26,-236.69 1569.49,-243.58"/>
</g>
<!-- Node7 -->
<g id="node7" class="node">
<title>Node7</title>
<g id="a_node7"><a xlink:href="cerealization_8h.html" target="_top" xlink:title=" ">
<polygon fill="white" stroke="black" points="530.78,-75.5 530.78,-95.5 640.13,-95.5 640.13,-75.5 530.78,-75.5"/>
<text text-anchor="middle" x="585.45" y="-82.5" font-family="Helvetica,sans-Serif" font-size="10.00">haldls/cerealization.h</text>
</a>
</g>
</g>
<!-- Node1&#45;&gt;Node7 -->
<g id="edge6" class="edge">
<title>Node1&#45;&gt;Node7</title>
<path fill="none" stroke="midnightblue" d="M854.85,-298.42C770.11,-288.19 648.45,-258.15 592.45,-171 579.87,-151.41 580.16,-123.77 582.23,-105.51"/>
<polygon fill="midnightblue" stroke="midnightblue" points="585.71,-105.89 583.64,-95.5 578.77,-104.91 585.71,-105.89"/>
</g>
<!-- Node9 -->
<g id="node9" class="node">
<title>Node9</title>
<g id="a_node9"><a xlink:title=" ">
<polygon fill="white" stroke="#bfbfbf" points="307.95,-6.5 307.95,-26.5 388.96,-26.5 388.96,-6.5 307.95,-6.5"/>
<text text-anchor="middle" x="348.45" y="-13.5" font-family="Helvetica,sans-Serif" font-size="10.00">hate/visibility.h</text>
</a>
</g>
</g>
<!-- Node1&#45;&gt;Node9 -->
<g id="edge69" class="edge">
<title>Node1&#45;&gt;Node9</title>
<path fill="none" stroke="midnightblue" d="M854.7,-294.76C704.5,-278.54 413.32,-239.08 338.45,-171 304,-139.67 301.06,-113.6 314.45,-69 318.28,-56.27 326.38,-43.79 333.71,-34.3"/>
<polygon fill="midnightblue" stroke="midnightblue" points="336.46,-36.46 340.09,-26.51 331.05,-32.03 336.46,-36.46"/>
</g>
<!-- Node13 -->
<g id="node13" class="node">
<title>Node13</title>
<g id="a_node13"><a xlink:href="genpybind_8h.html" target="_top" xlink:title=" ">
<polygon fill="white" stroke="black" points="146.38,-6.5 146.38,-26.5 258.53,-26.5 258.53,-6.5 146.38,-6.5"/>
<text text-anchor="middle" x="202.45" y="-13.5" font-family="Helvetica,sans-Serif" font-size="10.00">haldls/vx/genpybind.h</text>
</a>
</g>
</g>
<!-- Node1&#45;&gt;Node13 -->
<g id="edge12" class="edge">
<title>Node1&#45;&gt;Node13</title>
<path fill="none" stroke="midnightblue" d="M854.91,-304.18C744.91,-302.47 554.98,-291.33 401.45,-240 286.22,-201.47 225.92,-207.39 165.45,-102 152.58,-79.56 170.69,-51.79 185.81,-34.35"/>
<polygon fill="midnightblue" stroke="midnightblue" points="188.65,-36.42 192.84,-26.69 183.5,-31.69 188.65,-36.42"/>
</g>
<!-- Node14 -->
<g id="node14" class="node">
<title>Node14</title>
<g id="a_node14"><a xlink:href="neuron_8h.html" target="_top" xlink:title=" ">
<polygon fill="white" stroke="black" points="724.89,-213.5 724.89,-233.5 822.02,-233.5 822.02,-213.5 724.89,-213.5"/>
<text text-anchor="middle" x="773.45" y="-220.5" font-family="Helvetica,sans-Serif" font-size="10.00">haldls/vx/neuron.h</text>
</a>
</g>
</g>
<!-- Node1&#45;&gt;Node14 -->
<g id="edge14" class="edge">
<title>Node1&#45;&gt;Node14</title>
<path fill="none" stroke="midnightblue" d="M886.26,-276.31C857.86,-263.27 825.13,-248.23 802.26,-237.73"/>
<polygon fill="midnightblue" stroke="midnightblue" points="803.66,-234.52 793.11,-233.53 800.74,-240.88 803.66,-234.52"/>
</g>
<!-- Node22 -->
<g id="node22" class="node">
<title>Node22</title>
<g id="a_node22"><a xlink:href="traits_8h.html" target="_top" xlink:title=" ">
<polygon fill="white" stroke="black" points="822.62,-75.5 822.62,-95.5 910.29,-95.5 910.29,-75.5 822.62,-75.5"/>
<text text-anchor="middle" x="866.45" y="-82.5" font-family="Helvetica,sans-Serif" font-size="10.00">haldls/vx/traits.h</text>
</a>
</g>
</g>
<!-- Node1&#45;&gt;Node22 -->
<g id="edge68" class="edge">
<title>Node1&#45;&gt;Node22</title>
<path fill="none" stroke="midnightblue" d="M935.61,-276.46C919.35,-231.8 887.3,-143.76 873.29,-105.26"/>
<polygon fill="midnightblue" stroke="midnightblue" points="876.55,-104 869.84,-95.8 869.97,-106.39 876.55,-104"/>
</g>
<!-- Node30 -->
<g id="node30" class="node">
<title>Node30</title>
<g id="a_node30"><a xlink:href="padi_8h.html" target="_top" xlink:title=" ">
<polygon fill="white" stroke="black" points="979,-213.5 979,-233.5 1063.91,-233.5 1063.91,-213.5 979,-213.5"/>
<text text-anchor="middle" x="1021.45" y="-220.5" font-family="Helvetica,sans-Serif" font-size="10.00">haldls/vx/padi.h</text>
</a>
</g>
</g>
<!-- Node1&#45;&gt;Node30 -->
<g id="edge43" class="edge">
<title>Node1&#45;&gt;Node30</title>
<path fill="none" stroke="midnightblue" d="M971.61,-276.31C982.86,-264.62 995.64,-251.33 1005.45,-241.14"/>
<polygon fill="midnightblue" stroke="midnightblue" points="1008.18,-243.35 1012.59,-233.71 1003.13,-238.49 1008.18,-243.35"/>
</g>
<!-- Node32 -->
<g id="node32" class="node">
<title>Node32</title>
<g id="a_node32"><a xlink:href="synapse_8h.html" target="_top" xlink:title=" ">
<polygon fill="white" stroke="black" points="1049.83,-144.5 1049.83,-164.5 1153.08,-164.5 1153.08,-144.5 1049.83,-144.5"/>
<text text-anchor="middle" x="1101.45" y="-151.5" font-family="Helvetica,sans-Serif" font-size="10.00">haldls/vx/synapse.h</text>
</a>
</g>
</g>
<!-- Node1&#45;&gt;Node32 -->
<g id="edge67" class="edge">
<title>Node1&#45;&gt;Node32</title>
<path fill="none" stroke="midnightblue" d="M1023.26,-276.45C1041.33,-267.19 1059.14,-255.21 1072.45,-240 1088.77,-221.35 1096.02,-193.07 1099.16,-174.45"/>
<polygon fill="midnightblue" stroke="midnightblue" points="1102.63,-174.9 1100.6,-164.5 1095.7,-173.9 1102.63,-174.9"/>
</g>
<!-- Node8 -->
<g id="node8" class="node">
<title>Node8</title>
<g id="a_node8"><a xlink:title=" ">
<polygon fill="white" stroke="#bfbfbf" points="586.83,-6.5 586.83,-26.5 670.08,-26.5 670.08,-6.5 586.83,-6.5"/>
<text text-anchor="middle" x="628.45" y="-13.5" font-family="Helvetica,sans-Serif" font-size="10.00">hate/type_list.h</text>
</a>
</g>
</g>
<!-- Node7&#45;&gt;Node8 -->
<g id="edge7" class="edge">
<title>Node7&#45;&gt;Node8</title>
<path fill="none" stroke="midnightblue" d="M591.25,-75.46C597.82,-65.23 608.68,-48.3 616.98,-35.38"/>
<polygon fill="midnightblue" stroke="midnightblue" points="620.02,-37.13 622.47,-26.82 614.12,-33.35 620.02,-37.13"/>
</g>
<!-- Node7&#45;&gt;Node9 -->
<g id="edge8" class="edge">
<title>Node7&#45;&gt;Node9</title>
<path fill="none" stroke="midnightblue" d="M551.24,-75.43C513.67,-65.39 451.62,-48.56 398.45,-33 394.64,-31.88 390.67,-30.7 386.7,-29.49"/>
<polygon fill="midnightblue" stroke="midnightblue" points="387.55,-26.09 376.96,-26.51 385.5,-32.79 387.55,-26.09"/>
</g>
<!-- Node10 -->
<g id="node10" class="node">
<title>Node10</title>
<g id="a_node10"><a xlink:title=" ">
<polygon fill="white" stroke="#bfbfbf" points="524.01,-6.5 524.01,-26.5 568.9,-26.5 568.9,-6.5 524.01,-6.5"/>
<text text-anchor="middle" x="546.45" y="-13.5" font-family="Helvetica,sans-Serif" font-size="10.00">cstdint</text>
</a>
</g>
</g>
<!-- Node7&#45;&gt;Node10 -->
<g id="edge9" class="edge">
<title>Node7&#45;&gt;Node10</title>
<path fill="none" stroke="midnightblue" d="M580.19,-75.46C574.3,-65.33 564.58,-48.63 557.08,-35.75"/>
<polygon fill="midnightblue" stroke="midnightblue" points="559.94,-33.7 551.88,-26.82 553.89,-37.23 559.94,-33.7"/>
</g>
<!-- Node11 -->
<g id="node11" class="node">
<title>Node11</title>
<g id="a_node11"><a xlink:title=" ">
<polygon fill="white" stroke="#bfbfbf" points="1510.29,-6.5 1510.29,-26.5 1554.62,-26.5 1554.62,-6.5 1510.29,-6.5"/>
<text text-anchor="middle" x="1532.45" y="-13.5" font-family="Helvetica,sans-Serif" font-size="10.00">iosfwd</text>
</a>
</g>
</g>
<!-- Node7&#45;&gt;Node11 -->
<g id="edge10" class="edge">
<title>Node7&#45;&gt;Node11</title>
<path fill="none" stroke="midnightblue" d="M617.45,-75.49C627.61,-72.97 638.93,-70.51 649.45,-69 979.78,-21.51 1066.86,-60.33 1399.45,-33 1433.82,-30.18 1473,-25.42 1499.89,-21.92"/>
<polygon fill="midnightblue" stroke="midnightblue" points="1500.45,-25.38 1509.91,-20.6 1499.54,-18.44 1500.45,-25.38"/>
</g>
<!-- Node12 -->
<g id="node12" class="node">
<title>Node12</title>
<g id="a_node12"><a xlink:title=" ">
<polygon fill="white" stroke="#bfbfbf" points="407.34,-6.5 407.34,-26.5 505.57,-26.5 505.57,-6.5 407.34,-6.5"/>
<text text-anchor="middle" x="456.45" y="-13.5" font-family="Helvetica,sans-Serif" font-size="10.00">cereal/macros.hpp</text>
</a>
</g>
</g>
<!-- Node7&#45;&gt;Node12 -->
<g id="edge11" class="edge">
<title>Node7&#45;&gt;Node12</title>
<path fill="none" stroke="midnightblue" d="M568.06,-75.46C546.23,-64.13 508.56,-44.56 483.09,-31.34"/>
<polygon fill="midnightblue" stroke="midnightblue" points="484.48,-28.11 473.99,-26.61 481.25,-34.32 484.48,-28.11"/>
</g>
<!-- Node13&#45;&gt;Node13 -->
<g id="edge13" class="edge">
<title>Node13&#45;&gt;Node13</title>
<path fill="none" stroke="midnightblue" d="M226.35,-26.54C250.18,-32.26 276.53,-28.92 276.53,-16.5 276.53,-5.78 256.89,-1.82 236.19,-4.62"/>
<polygon fill="midnightblue" stroke="midnightblue" points="235.54,-1.18 226.35,-6.46 236.82,-8.06 235.54,-1.18"/>
</g>
<!-- Node14&#45;&gt;Node3 -->
<g id="edge17" class="edge">
<title>Node14&#45;&gt;Node3</title>
<path fill="none" stroke="midnightblue" d="M822.14,-218.89C924.04,-211.05 1156.68,-191.47 1233.45,-171 1269.04,-161.51 1273.85,-147.39 1309.45,-138 1455.96,-99.38 1498.58,-124.26 1648.45,-102 1657.3,-100.69 1666.66,-99.09 1675.75,-97.43"/>
<polygon fill="midnightblue" stroke="midnightblue" points="1676.66,-100.82 1685.85,-95.53 1675.38,-93.94 1676.66,-100.82"/>
</g>
<!-- Node14&#45;&gt;Node7 -->
<g id="edge41" class="edge">
<title>Node14&#45;&gt;Node7</title>
<path fill="none" stroke="midnightblue" d="M724.85,-217.73C690.54,-211.96 645.65,-199.2 616.45,-171 598.32,-153.48 590.73,-124.49 587.6,-105.43"/>
<polygon fill="midnightblue" stroke="midnightblue" points="591.06,-104.95 586.22,-95.53 584.13,-105.91 591.06,-104.95"/>
</g>
<!-- Node14&#45;&gt;Node9 -->
<g id="edge40" class="edge">
<title>Node14&#45;&gt;Node9</title>
<path fill="none" stroke="midnightblue" d="M724.84,-219.95C634.91,-214.6 446.42,-200.19 388.45,-171 350.28,-151.77 337.52,-141.61 321.45,-102 312.27,-79.36 324.84,-52.34 335.72,-35.05"/>
<polygon fill="midnightblue" stroke="midnightblue" points="338.77,-36.79 341.45,-26.54 332.96,-32.88 338.77,-36.79"/>
</g>
<!-- Node14&#45;&gt;Node11 -->
<g id="edge16" class="edge">
<title>Node14&#45;&gt;Node11</title>
<path fill="none" stroke="midnightblue" d="M822.17,-218.27C926.32,-208.99 1163.94,-186.43 1197.45,-171 1217.17,-161.92 1213.62,-146.81 1233.45,-138 1311.38,-103.39 1558.06,-165.06 1615.45,-102 1625.33,-91.15 1622.59,-81.82 1615.45,-69 1604.5,-49.31 1582.57,-36.19 1564,-28.12"/>
<polygon fill="midnightblue" stroke="midnightblue" points="1565.25,-24.85 1554.67,-24.35 1562.63,-31.34 1565.25,-24.85"/>
</g>
<!-- Node14&#45;&gt;Node13 -->
<g id="edge20" class="edge">
<title>Node14&#45;&gt;Node13</title>
<path fill="none" stroke="midnightblue" d="M724.67,-221.16C643.33,-217.96 475.4,-207.15 338.45,-171 262,-150.82 218.2,-167.87 174.45,-102 160.62,-81.17 175.46,-52.92 188.25,-34.94"/>
<polygon fill="midnightblue" stroke="midnightblue" points="191.34,-36.66 194.59,-26.58 185.76,-32.43 191.34,-36.66"/>
</g>
<!-- Node15 -->
<g id="node15" class="node">
<title>Node15</title>
<g id="a_node15"><a xlink:title=" ">
<polygon fill="white" stroke="#bfbfbf" points="1568.07,-75.5 1568.07,-95.5 1606.84,-95.5 1606.84,-75.5 1568.07,-75.5"/>
<text text-anchor="middle" x="1587.45" y="-82.5" font-family="Helvetica,sans-Serif" font-size="10.00">array</text>
</a>
</g>
</g>
<!-- Node14&#45;&gt;Node15 -->
<g id="edge15" class="edge">
<title>Node14&#45;&gt;Node15</title>
<path fill="none" stroke="midnightblue" d="M822.2,-219.2C912.45,-212.58 1101.89,-196.12 1162.45,-171 1184.71,-161.77 1183.06,-146.89 1205.45,-138 1352.44,-79.64 1408.54,-149.26 1559.45,-102 1561.13,-101.47 1562.82,-100.84 1564.5,-100.14"/>
<polygon fill="midnightblue" stroke="midnightblue" points="1566.32,-103.14 1573.71,-95.55 1563.2,-96.87 1566.32,-103.14"/>
</g>
<!-- Node16 -->
<g id="node16" class="node">
<title>Node16</title>
<g id="a_node16"><a xlink:title=" ">
<polygon fill="white" stroke="#bfbfbf" points="658.33,-69.5 658.33,-101.5 766.58,-101.5 766.58,-69.5 658.33,-69.5"/>
<text text-anchor="start" x="666.33" y="-88.5" font-family="Helvetica,sans-Serif" font-size="10.00">halco/common/typed</text>
<text text-anchor="middle" x="712.45" y="-76.5" font-family="Helvetica,sans-Serif" font-size="10.00">_array.h</text>
</a>
</g>
</g>
<!-- Node14&#45;&gt;Node16 -->
<g id="edge18" class="edge">
<title>Node14&#45;&gt;Node16</title>
<path fill="none" stroke="midnightblue" d="M769.42,-213.09C762.69,-197.45 748.72,-165.14 736.45,-138 732.44,-129.12 727.95,-119.42 723.95,-110.86"/>
<polygon fill="midnightblue" stroke="midnightblue" points="727.11,-109.35 719.69,-101.78 720.77,-112.32 727.11,-109.35"/>
</g>
<!-- Node17 -->
<g id="node17" class="node">
<title>Node17</title>
<g id="a_node17"><a xlink:title=" ">
<polygon fill="white" stroke="#bfbfbf" points="625.95,-138.5 625.95,-170.5 726.96,-170.5 726.96,-138.5 625.95,-138.5"/>
<text text-anchor="start" x="633.95" y="-157.5" font-family="Helvetica,sans-Serif" font-size="10.00">halco/hicann&#45;dls/vx</text>
<text text-anchor="middle" x="676.45" y="-145.5" font-family="Helvetica,sans-Serif" font-size="10.00">/neuron.h</text>
</a>
</g>
</g>
<!-- Node14&#45;&gt;Node17 -->
<g id="edge19" class="edge">
<title>Node14&#45;&gt;Node17</title>
<path fill="none" stroke="midnightblue" d="M760.37,-213.46C746.68,-204.01 724.72,-188.84 706.7,-176.39"/>
<polygon fill="midnightblue" stroke="midnightblue" points="708.44,-173.34 698.22,-170.53 704.46,-179.1 708.44,-173.34"/>
</g>
<!-- Node18 -->
<g id="node18" class="node">
<title>Node18</title>
<g id="a_node18"><a xlink:href="sram__controller_8h.html" target="_top" xlink:title=" ">
<polygon fill="white" stroke="black" points="397.01,-144.5 397.01,-164.5 531.9,-164.5 531.9,-144.5 397.01,-144.5"/>
<text text-anchor="middle" x="464.45" y="-151.5" font-family="Helvetica,sans-Serif" font-size="10.00">haldls/vx/sram_controller.h</text>
</a>
</g>
</g>
<!-- Node14&#45;&gt;Node18 -->
<g id="edge21" class="edge">
<title>Node14&#45;&gt;Node18</title>
<path fill="none" stroke="midnightblue" d="M731.78,-213.46C676.03,-201.38 577.19,-179.94 516.57,-166.8"/>
<polygon fill="midnightblue" stroke="midnightblue" points="516.97,-163.31 506.45,-164.61 515.49,-170.15 516.97,-163.31"/>
</g>
<!-- Node14&#45;&gt;Node22 -->
<g id="edge39" class="edge">
<title>Node14&#45;&gt;Node22</title>
<path fill="none" stroke="midnightblue" d="M779.85,-213.15C795.25,-190.63 834.62,-133.05 854.54,-103.93"/>
<polygon fill="midnightblue" stroke="midnightblue" points="857.51,-105.79 860.26,-95.56 851.73,-101.83 857.51,-105.79"/>
</g>
<!-- Node29 -->
<g id="node29" class="node">
<title>Node29</title>
<g id="a_node29"><a xlink:title=" ">
<polygon fill="white" stroke="#bfbfbf" points="1050.84,-75.5 1050.84,-95.5 1154.07,-95.5 1154.07,-75.5 1050.84,-75.5"/>
<text text-anchor="middle" x="1102.45" y="-82.5" font-family="Helvetica,sans-Serif" font-size="10.00">hxcomm/vx/target.h</text>
</a>
</g>
</g>
<!-- Node14&#45;&gt;Node29 -->
<g id="edge42" class="edge">
<title>Node14&#45;&gt;Node29</title>
<path fill="none" stroke="midnightblue" d="M795.3,-213.47C852.08,-190 1004.55,-126.97 1070.89,-99.55"/>
<polygon fill="midnightblue" stroke="midnightblue" points="1072.5,-102.67 1080.41,-95.61 1069.83,-96.2 1072.5,-102.67"/>
</g>
<!-- Node18&#45;&gt;Node7 -->
<g id="edge22" class="edge">
<title>Node18&#45;&gt;Node7</title>
<path fill="none" stroke="midnightblue" d="M480.77,-144.46C501.16,-133.18 536.27,-113.74 560.15,-100.51"/>
<polygon fill="midnightblue" stroke="midnightblue" points="561.96,-103.51 569.01,-95.61 558.56,-97.39 561.96,-103.51"/>
</g>
<!-- Node18&#45;&gt;Node9 -->
<g id="edge38" class="edge">
<title>Node18&#45;&gt;Node9</title>
<path fill="none" stroke="midnightblue" d="M459.33,-144.32C450.11,-128.18 429.59,-94.07 407.45,-69 395.72,-55.71 380.64,-42.6 368.66,-32.94"/>
<polygon fill="midnightblue" stroke="midnightblue" points="370.6,-30.01 360.58,-26.55 366.26,-35.5 370.6,-30.01"/>
</g>
<!-- Node18&#45;&gt;Node13 -->
<g id="edge26" class="edge">
<title>Node18&#45;&gt;Node13</title>
<path fill="none" stroke="midnightblue" d="M431.59,-144.45C401.9,-135.64 357.47,-120.82 321.45,-102 283.42,-82.12 243.63,-51.56 221.05,-33.15"/>
<polygon fill="midnightblue" stroke="midnightblue" points="223.22,-30.41 213.28,-26.74 218.76,-35.81 223.22,-30.41"/>
</g>
<!-- Node19 -->
<g id="node19" class="node">
<title>Node19</title>
<g id="a_node19"><a xlink:href="common_8h.html" target="_top" xlink:title=" ">
<polygon fill="white" stroke="black" points="928.28,-75.5 928.28,-95.5 1032.63,-95.5 1032.63,-75.5 928.28,-75.5"/>
<text text-anchor="middle" x="980.45" y="-82.5" font-family="Helvetica,sans-Serif" font-size="10.00">haldls/vx/common.h</text>
</a>
</g>
</g>
<!-- Node18&#45;&gt;Node19 -->
<g id="edge23" class="edge">
<title>Node18&#45;&gt;Node19</title>
<path fill="none" stroke="midnightblue" d="M532.18,-146.35C649.67,-133.87 882.31,-108.79 919.45,-102 925.66,-100.87 932.17,-99.45 938.53,-97.95"/>
<polygon fill="midnightblue" stroke="midnightblue" points="939.47,-101.32 948.34,-95.53 937.8,-94.53 939.47,-101.32"/>
</g>
<!-- Node18&#45;&gt;Node22 -->
<g id="edge27" class="edge">
<title>Node18&#45;&gt;Node22</title>
<path fill="none" stroke="midnightblue" d="M519.52,-144.46C581.69,-134.24 685.86,-117.05 775.45,-102 787.43,-99.99 800.29,-97.81 812.46,-95.74"/>
<polygon fill="midnightblue" stroke="midnightblue" points="813.22,-99.16 822.49,-94.03 812.04,-92.26 813.22,-99.16"/>
</g>
<!-- Node28 -->
<g id="node28" class="node">
<title>Node28</title>
<g id="a_node28"><a xlink:title=" ">
<polygon fill="white" stroke="#bfbfbf" points="330.06,-75.5 330.06,-95.5 398.85,-95.5 398.85,-75.5 330.06,-75.5"/>
<text text-anchor="middle" x="364.45" y="-82.5" font-family="Helvetica,sans-Serif" font-size="10.00">hate/math.h</text>
</a>
</g>
</g>
<!-- Node18&#45;&gt;Node28 -->
<g id="edge37" class="edge">
<title>Node18&#45;&gt;Node28</title>
<path fill="none" stroke="midnightblue" d="M450.97,-144.46C434.42,-133.38 406.13,-114.42 386.42,-101.22"/>
<polygon fill="midnightblue" stroke="midnightblue" points="388.3,-98.27 378.05,-95.61 384.41,-104.08 388.3,-98.27"/>
</g>
<!-- Node20 -->
<g id="node20" class="node">
<title>Node20</title>
<g id="a_node20"><a xlink:title=" ">
<polygon fill="white" stroke="#bfbfbf" points="1272.39,-6.5 1272.39,-26.5 1334.52,-26.5 1334.52,-6.5 1272.39,-6.5"/>
<text text-anchor="middle" x="1303.45" y="-13.5" font-family="Helvetica,sans-Serif" font-size="10.00">type_traits</text>
</a>
</g>
</g>
<!-- Node19&#45;&gt;Node20 -->
<g id="edge24" class="edge">
<title>Node19&#45;&gt;Node20</title>
<path fill="none" stroke="midnightblue" d="M1013.89,-75.44C1022.81,-73.18 1032.47,-70.87 1041.45,-69 1139.32,-48.67 1166.99,-59.2 1263.45,-33 1266.62,-32.14 1269.87,-31.12 1273.1,-30.02"/>
<polygon fill="midnightblue" stroke="midnightblue" points="1274.37,-33.28 1282.56,-26.54 1271.96,-26.71 1274.37,-33.28"/>
</g>
<!-- Node21 -->
<g id="node21" class="node">
<title>Node21</title>
<g id="a_node21"><a xlink:title=" ">
<polygon fill="white" stroke="#bfbfbf" points="1352.07,-6.5 1352.07,-26.5 1390.84,-26.5 1390.84,-6.5 1352.07,-6.5"/>
<text text-anchor="middle" x="1371.45" y="-13.5" font-family="Helvetica,sans-Serif" font-size="10.00">utility</text>
</a>
</g>
</g>
<!-- Node19&#45;&gt;Node21 -->
<g id="edge25" class="edge">
<title>Node19&#45;&gt;Node21</title>
<path fill="none" stroke="midnightblue" d="M1012.89,-75.42C1022.07,-73.08 1032.11,-70.74 1041.45,-69 1174.35,-44.3 1214.81,-74.51 1343.45,-33 1345.13,-32.46 1346.81,-31.82 1348.48,-31.11"/>
<polygon fill="midnightblue" stroke="midnightblue" points="1350.31,-34.1 1357.69,-26.5 1347.18,-27.84 1350.31,-34.1"/>
</g>
<!-- Node22&#45;&gt;Node8 -->
<g id="edge31" class="edge">
<title>Node22&#45;&gt;Node8</title>
<path fill="none" stroke="midnightblue" d="M832.6,-75.46C795.08,-65.38 732.82,-48.46 679.45,-33 675.61,-31.89 671.62,-30.71 667.63,-29.52"/>
<polygon fill="midnightblue" stroke="midnightblue" points="668.4,-26.1 657.81,-26.57 666.38,-32.8 668.4,-26.1"/>
</g>
<!-- Node22&#45;&gt;Node9 -->
<g id="edge32" class="edge">
<title>Node22&#45;&gt;Node9</title>
<path fill="none" stroke="midnightblue" d="M836.57,-75.45C827.6,-73.03 817.69,-70.63 808.45,-69 628.3,-37.27 577.94,-68.28 398.45,-33 393.64,-32.05 388.62,-30.82 383.72,-29.45"/>
<polygon fill="midnightblue" stroke="midnightblue" points="384.46,-26.02 373.88,-26.53 382.47,-32.73 384.46,-26.02"/>
</g>
<!-- Node22&#45;&gt;Node13 -->
<g id="edge30" class="edge">
<title>Node22&#45;&gt;Node13</title>
<path fill="none" stroke="midnightblue" d="M822.6,-76.18C807.69,-73.58 790.88,-70.89 775.45,-69 564.43,-43.12 509.59,-57.97 298.45,-33 287.04,-31.65 274.91,-29.92 263.26,-28.11"/>
<polygon fill="midnightblue" stroke="midnightblue" points="263.59,-24.62 253.16,-26.51 262.49,-31.54 263.59,-24.62"/>
</g>
<!-- Node22&#45;&gt;Node20 -->
<g id="edge33" class="edge">
<title>Node22&#45;&gt;Node20</title>
<path fill="none" stroke="midnightblue" d="M894,-75.42C902.13,-73.02 911.08,-70.65 919.45,-69 1070.28,-39.3 1114.03,-69.09 1263.45,-33 1266.71,-32.21 1270.06,-31.22 1273.37,-30.13"/>
<polygon fill="midnightblue" stroke="midnightblue" points="1274.83,-33.32 1283.03,-26.61 1272.43,-26.74 1274.83,-33.32"/>
</g>
<!-- Node23 -->
<g id="node23" class="node">
<title>Node23</title>
<g id="a_node23"><a xlink:title=" ">
<polygon fill="white" stroke="#bfbfbf" points="1172.4,-6.5 1172.4,-26.5 1254.51,-26.5 1254.51,-6.5 1172.4,-6.5"/>
<text text-anchor="middle" x="1213.45" y="-13.5" font-family="Helvetica,sans-Serif" font-size="10.00">fisch/vx/traits.h</text>
</a>
</g>
</g>
<!-- Node22&#45;&gt;Node23 -->
<g id="edge28" class="edge">
<title>Node22&#45;&gt;Node23</title>
<path fill="none" stroke="midnightblue" d="M894.6,-75.49C902.58,-73.14 911.31,-70.78 919.45,-69 1026.54,-45.56 1056.56,-57.3 1163.45,-33 1167.91,-31.99 1172.55,-30.77 1177.12,-29.48"/>
<polygon fill="midnightblue" stroke="midnightblue" points="1178.35,-32.76 1186.93,-26.55 1176.35,-26.05 1178.35,-32.76"/>
</g>
<!-- Node24 -->
<g id="node24" class="node">
<title>Node24</title>
<g id="a_node24"><a xlink:title=" ">
<polygon fill="white" stroke="#bfbfbf" points="688.23,-0.5 688.23,-32.5 798.68,-32.5 798.68,-0.5 688.23,-0.5"/>
<text text-anchor="start" x="696.23" y="-19.5" font-family="Helvetica,sans-Serif" font-size="10.00">fisch/vx/word_access</text>
<text text-anchor="middle" x="743.45" y="-7.5" font-family="Helvetica,sans-Serif" font-size="10.00">_type.h</text>
</a>
</g>
</g>
<!-- Node22&#45;&gt;Node24 -->
<g id="edge29" class="edge">
<title>Node22&#45;&gt;Node24</title>
<path fill="none" stroke="midnightblue" d="M849.87,-75.46C832.04,-65.75 803.13,-50.01 779.95,-37.38"/>
<polygon fill="midnightblue" stroke="midnightblue" points="781.51,-34.24 771.05,-32.53 778.16,-40.39 781.51,-34.24"/>
</g>
<!-- Node25 -->
<g id="node25" class="node">
<title>Node25</title>
<g id="a_node25"><a xlink:title=" ">
<polygon fill="white" stroke="#bfbfbf" points="817.05,-0.5 817.05,-32.5 915.86,-32.5 915.86,-0.5 817.05,-0.5"/>
<text text-anchor="start" x="825.05" y="-19.5" font-family="Helvetica,sans-Serif" font-size="10.00">boost/utility/enable</text>
<text text-anchor="middle" x="866.45" y="-7.5" font-family="Helvetica,sans-Serif" font-size="10.00">_if.hpp</text>
</a>
</g>
</g>
<!-- Node22&#45;&gt;Node25 -->
<g id="edge34" class="edge">
<title>Node22&#45;&gt;Node25</title>
<path fill="none" stroke="midnightblue" d="M866.45,-75.46C866.45,-67.04 866.45,-54.08 866.45,-42.55"/>
<polygon fill="midnightblue" stroke="midnightblue" points="869.95,-42.53 866.45,-32.53 862.95,-42.53 869.95,-42.53"/>
</g>
<!-- Node26 -->
<g id="node26" class="node">
<title>Node26</title>
<g id="a_node26"><a xlink:title=" ">
<polygon fill="white" stroke="#bfbfbf" points="934.11,-6.5 934.11,-26.5 1026.8,-26.5 1026.8,-6.5 934.11,-6.5"/>
<text text-anchor="middle" x="980.45" y="-13.5" font-family="Helvetica,sans-Serif" font-size="10.00">boost/variant.hpp</text>
</a>
</g>
</g>
<!-- Node22&#45;&gt;Node26 -->
<g id="edge35" class="edge">
<title>Node22&#45;&gt;Node26</title>
<path fill="none" stroke="midnightblue" d="M881.83,-75.46C900.95,-64.23 933.82,-44.91 956.31,-31.69"/>
<polygon fill="midnightblue" stroke="midnightblue" points="958.11,-34.69 964.96,-26.61 954.56,-28.66 958.11,-34.69"/>
</g>
<!-- Node27 -->
<g id="node27" class="node">
<title>Node27</title>
<g id="a_node27"><a xlink:title=" ">
<polygon fill="white" stroke="#bfbfbf" points="1044.5,-6.5 1044.5,-26.5 1154.41,-26.5 1154.41,-6.5 1044.5,-6.5"/>
<text text-anchor="middle" x="1099.45" y="-13.5" font-family="Helvetica,sans-Serif" font-size="10.00">fisch/vx/container.def</text>
</a>
</g>
</g>
<!-- Node22&#45;&gt;Node27 -->
<g id="edge36" class="edge">
<title>Node22&#45;&gt;Node27</title>
<path fill="none" stroke="midnightblue" d="M897.27,-75.45C904.55,-73.33 912.27,-71.08 919.45,-69 966.83,-55.29 1021.28,-39.74 1057.78,-29.35"/>
<polygon fill="midnightblue" stroke="midnightblue" points="1058.91,-32.67 1067.57,-26.56 1057,-25.93 1058.91,-32.67"/>
</g>
<!-- Node30&#45;&gt;Node3 -->
<g id="edge46" class="edge">
<title>Node30&#45;&gt;Node3</title>
<path fill="none" stroke="midnightblue" d="M1064.29,-221.13C1122.22,-217.91 1227.67,-207.11 1309.45,-171 1331.49,-161.27 1330.15,-147.11 1352.45,-138 1475.14,-87.89 1517.52,-122.47 1648.45,-102 1657.09,-100.65 1666.21,-99.06 1675.09,-97.43"/>
<polygon fill="midnightblue" stroke="midnightblue" points="1675.8,-100.86 1684.99,-95.57 1674.51,-93.98 1675.8,-100.86"/>
</g>
<!-- Node30&#45;&gt;Node7 -->
<g id="edge48" class="edge">
<title>Node30&#45;&gt;Node7</title>
<path fill="none" stroke="midnightblue" d="M1001.46,-213.42C964.03,-196.68 880.53,-160.61 807.45,-138 738.65,-116.71 719.57,-118.48 649.45,-102 643.82,-100.68 637.92,-99.27 632.06,-97.87"/>
<polygon fill="midnightblue" stroke="midnightblue" points="632.86,-94.46 622.32,-95.52 631.23,-101.26 632.86,-94.46"/>
</g>
<!-- Node30&#45;&gt;Node9 -->
<g id="edge65" class="edge">
<title>Node30&#45;&gt;Node9</title>
<path fill="none" stroke="midnightblue" d="M978.92,-214.86C935.21,-206.41 865.55,-191.26 807.45,-171 774.6,-159.54 769.69,-148.3 736.45,-138 643.91,-109.32 613.72,-131.57 521.45,-102 465.54,-84.08 404.91,-50.97 372.35,-31.95"/>
<polygon fill="midnightblue" stroke="midnightblue" points="373.96,-28.83 363.57,-26.76 370.4,-34.86 373.96,-28.83"/>
</g>
<!-- Node30&#45;&gt;Node11 -->
<g id="edge45" class="edge">
<title>Node30&#45;&gt;Node11</title>
<path fill="none" stroke="midnightblue" d="M1063.94,-219.26C1220.41,-206.87 1757.97,-160.34 1805.45,-102 1870.49,-22.11 1650.47,-16.23 1564.99,-16.85"/>
<polygon fill="midnightblue" stroke="midnightblue" points="1564.75,-13.36 1554.79,-16.96 1564.83,-20.36 1564.75,-13.36"/>
</g>
<!-- Node30&#45;&gt;Node13 -->
<g id="edge49" class="edge">
<title>Node30&#45;&gt;Node13</title>
<path fill="none" stroke="midnightblue" d="M978.82,-219.02C940.31,-215.87 882.09,-211.12 831.45,-207 634.57,-190.97 577.29,-228.98 388.45,-171 328.9,-152.72 313.34,-143.01 266.45,-102 244.03,-82.38 224.37,-53.78 212.95,-35.41"/>
<polygon fill="midnightblue" stroke="midnightblue" points="215.79,-33.34 207.62,-26.6 209.8,-36.97 215.79,-33.34"/>
</g>
<!-- Node30&#45;&gt;Node15 -->
<g id="edge44" class="edge">
<title>Node30&#45;&gt;Node15</title>
<path fill="none" stroke="midnightblue" d="M1051.42,-213.48C1116.09,-194.09 1267.15,-149.29 1319.45,-138 1424.89,-115.24 1457.32,-136.67 1559.45,-102 1561.08,-101.45 1562.73,-100.8 1564.36,-100.09"/>
<polygon fill="midnightblue" stroke="midnightblue" points="1566.01,-103.18 1573.38,-95.57 1562.87,-96.93 1566.01,-103.18"/>
</g>
<!-- Node30&#45;&gt;Node22 -->
<g id="edge64" class="edge">
<title>Node30&#45;&gt;Node22</title>
<path fill="none" stroke="midnightblue" d="M1010.8,-213.15C984.68,-190.23 917.23,-131.05 884.63,-102.44"/>
<polygon fill="midnightblue" stroke="midnightblue" points="886.6,-99.52 876.77,-95.56 881.98,-104.78 886.6,-99.52"/>
</g>
<!-- Node30&#45;&gt;Node29 -->
<g id="edge66" class="edge">
<title>Node30&#45;&gt;Node29</title>
<path fill="none" stroke="midnightblue" d="M1021.62,-213.4C1022.3,-197.11 1025.54,-162.36 1040.45,-138 1049.66,-122.97 1064.81,-110.27 1077.83,-101.23"/>
<polygon fill="midnightblue" stroke="midnightblue" points="1079.98,-104.01 1086.41,-95.59 1076.13,-98.16 1079.98,-104.01"/>
</g>
<!-- Node31 -->
<g id="node31" class="node">
<title>Node31</title>
<g id="a_node31"><a xlink:title=" ">
<polygon fill="white" stroke="#bfbfbf" points="1361.95,-138.5 1361.95,-170.5 1462.96,-170.5 1462.96,-138.5 1361.95,-138.5"/>
<text text-anchor="start" x="1369.95" y="-157.5" font-family="Helvetica,sans-Serif" font-size="10.00">halco/hicann&#45;dls/vx</text>
<text text-anchor="middle" x="1412.45" y="-145.5" font-family="Helvetica,sans-Serif" font-size="10.00">/padi.h</text>
</a>
</g>
</g>
<!-- Node30&#45;&gt;Node31 -->
<g id="edge47" class="edge">
<title>Node30&#45;&gt;Node31</title>
<path fill="none" stroke="midnightblue" d="M1064.1,-216.84C1126.55,-208.3 1246.42,-191 1347.45,-171 1348.91,-170.71 1350.39,-170.41 1351.87,-170.11"/>
<polygon fill="midnightblue" stroke="midnightblue" points="1352.75,-173.5 1361.8,-167.98 1351.28,-166.65 1352.75,-173.5"/>
</g>
<!-- Node30&#45;&gt;Node32 -->
<g id="edge50" class="edge">
<title>Node30&#45;&gt;Node32</title>
<path fill="none" stroke="midnightblue" d="M1032.24,-213.46C1045.13,-202.67 1066.9,-184.44 1082.59,-171.3"/>
<polygon fill="midnightblue" stroke="midnightblue" points="1085.16,-173.71 1090.58,-164.61 1080.67,-168.34 1085.16,-173.71"/>
</g>
<!-- Node32&#45;&gt;Node3 -->
<g id="edge53" class="edge">
<title>Node32&#45;&gt;Node3</title>
<path fill="none" stroke="midnightblue" d="M1153.32,-148.91C1246.12,-140.57 1446.68,-121.92 1615.45,-102 1628.57,-100.45 1642.52,-98.67 1656,-96.88"/>
<polygon fill="midnightblue" stroke="midnightblue" points="1656.75,-100.31 1666.19,-95.51 1655.81,-93.37 1656.75,-100.31"/>
</g>
<!-- Node32&#45;&gt;Node7 -->
<g id="edge58" class="edge">
<title>Node32&#45;&gt;Node7</title>
<path fill="none" stroke="midnightblue" d="M1049.61,-148.41C947.85,-138.29 725.28,-115.45 649.45,-102 643.03,-100.86 636.28,-99.46 629.68,-97.97"/>
<polygon fill="midnightblue" stroke="midnightblue" points="630.04,-94.45 619.5,-95.58 628.44,-101.27 630.04,-94.45"/>
</g>
<!-- Node32&#45;&gt;Node9 -->
<g id="edge62" class="edge">
<title>Node32&#45;&gt;Node9</title>
<path fill="none" stroke="midnightblue" d="M1049.78,-152.46C990.12,-149.45 890.32,-138.76 813.45,-102 793.27,-92.35 796.01,-77.82 775.45,-69 620.76,-2.66 563.49,-66.09 398.45,-33 393.69,-32.05 388.74,-30.81 383.88,-29.46"/>
<polygon fill="midnightblue" stroke="midnightblue" points="384.73,-26.06 374.14,-26.57 382.73,-32.77 384.73,-26.06"/>
</g>
<!-- Node32&#45;&gt;Node11 -->
<g id="edge52" class="edge">
<title>Node32&#45;&gt;Node11</title>
<path fill="none" stroke="midnightblue" d="M1112.49,-144.46C1124.94,-134.23 1145.75,-117.04 1163.45,-102 1180.5,-87.52 1181.17,-78.42 1201.45,-69 1228.28,-56.54 1421.49,-31.36 1499.71,-21.55"/>
<polygon fill="midnightblue" stroke="midnightblue" points="1500.46,-24.98 1509.95,-20.27 1499.6,-18.03 1500.46,-24.98"/>
</g>
<!-- Node32&#45;&gt;Node13 -->
<g id="edge60" class="edge">
<title>Node32&#45;&gt;Node13</title>
<path fill="none" stroke="midnightblue" d="M1049.79,-152.25C947.91,-149.06 714.22,-138.11 521.45,-102 469.61,-92.29 458.37,-82.76 407.45,-69 353.78,-54.49 291.84,-39.12 250.21,-28.99"/>
<polygon fill="midnightblue" stroke="midnightblue" points="250.89,-25.55 240.34,-26.59 249.23,-32.35 250.89,-25.55"/>
</g>
<!-- Node32&#45;&gt;Node15 -->
<g id="edge51" class="edge">
<title>Node32&#45;&gt;Node15</title>
<path fill="none" stroke="midnightblue" d="M1135.87,-144.46C1145.99,-142.07 1157.11,-139.68 1167.45,-138 1340.14,-109.93 1392.24,-153.47 1559.45,-102 1561.13,-101.48 1562.83,-100.86 1564.5,-100.16"/>
<polygon fill="midnightblue" stroke="midnightblue" points="1566.32,-103.16 1573.72,-95.58 1563.21,-96.89 1566.32,-103.16"/>
</g>
<!-- Node32&#45;&gt;Node16 -->
<g id="edge54" class="edge">
<title>Node32&#45;&gt;Node16</title>
<path fill="none" stroke="midnightblue" d="M1049.57,-146.24C985.95,-137.08 874.93,-120.33 780.45,-102 779.18,-101.75 777.9,-101.5 776.61,-101.24"/>
<polygon fill="midnightblue" stroke="midnightblue" points="777.08,-97.77 766.58,-99.17 775.66,-104.62 777.08,-97.77"/>
</g>
<!-- Node32&#45;&gt;Node19 -->
<g id="edge59" class="edge">
<title>Node32&#45;&gt;Node19</title>
<path fill="none" stroke="midnightblue" d="M1085.14,-144.46C1064.75,-133.18 1029.64,-113.74 1005.76,-100.51"/>
<polygon fill="midnightblue" stroke="midnightblue" points="1007.34,-97.39 996.9,-95.61 1003.95,-103.51 1007.34,-97.39"/>
</g>
<!-- Node32&#45;&gt;Node22 -->
<g id="edge61" class="edge">
<title>Node32&#45;&gt;Node22</title>
<path fill="none" stroke="midnightblue" d="M1069.21,-144.47C1032.81,-134.25 971.84,-117.07 919.45,-102 915.41,-100.84 911.2,-99.62 906.99,-98.39"/>
<polygon fill="midnightblue" stroke="midnightblue" points="907.85,-95 897.27,-95.56 905.89,-101.72 907.85,-95"/>
</g>
<!-- Node32&#45;&gt;Node29 -->
<g id="edge63" class="edge">
<title>Node32&#45;&gt;Node29</title>
<path fill="none" stroke="midnightblue" d="M1101.59,-144.46C1101.74,-134.63 1101.98,-118.61 1102.16,-105.9"/>
<polygon fill="midnightblue" stroke="midnightblue" points="1105.67,-105.87 1102.32,-95.82 1098.67,-105.77 1105.67,-105.87"/>
</g>
<!-- Node33 -->
<g id="node33" class="node">
<title>Node33</title>
<g id="a_node33"><a xlink:title=" ">
<polygon fill="white" stroke="#bfbfbf" points="1210.95,-69.5 1210.95,-101.5 1311.96,-101.5 1311.96,-69.5 1210.95,-69.5"/>
<text text-anchor="start" x="1218.95" y="-88.5" font-family="Helvetica,sans-Serif" font-size="10.00">halco/hicann&#45;dls/vx</text>
<text text-anchor="middle" x="1261.45" y="-76.5" font-family="Helvetica,sans-Serif" font-size="10.00">/capmem.h</text>
</a>
</g>
</g>
<!-- Node32&#45;&gt;Node33 -->
<g id="edge55" class="edge">
<title>Node32&#45;&gt;Node33</title>
<path fill="none" stroke="midnightblue" d="M1123.03,-144.46C1146.74,-134.54 1185.5,-118.31 1215.98,-105.54"/>
<polygon fill="midnightblue" stroke="midnightblue" points="1217.68,-108.62 1225.55,-101.53 1214.98,-102.17 1217.68,-108.62"/>
</g>
<!-- Node34 -->
<g id="node34" class="node">
<title>Node34</title>
<g id="a_node34"><a xlink:title=" ">
<polygon fill="white" stroke="#bfbfbf" points="1329.95,-69.5 1329.95,-101.5 1430.96,-101.5 1430.96,-69.5 1329.95,-69.5"/>
<text text-anchor="start" x="1337.95" y="-88.5" font-family="Helvetica,sans-Serif" font-size="10.00">halco/hicann&#45;dls/vx</text>
<text text-anchor="middle" x="1380.45" y="-76.5" font-family="Helvetica,sans-Serif" font-size="10.00">/switch_rows.h</text>
</a>
</g>
</g>
<!-- Node32&#45;&gt;Node34 -->
<g id="edge56" class="edge">
<title>Node32&#45;&gt;Node34</title>
<path fill="none" stroke="midnightblue" d="M1139.84,-144.48C1148.9,-142.35 1158.52,-140.09 1167.45,-138 1232.82,-122.69 1251.57,-119.23 1319.68,-102.41"/>
<polygon fill="midnightblue" stroke="midnightblue" points="1320.76,-105.75 1329.63,-99.95 1319.08,-98.95 1320.76,-105.75"/>
</g>
<!-- Node35 -->
<g id="node35" class="node">
<title>Node35</title>
<g id="a_node35"><a xlink:title=" ">
<polygon fill="white" stroke="#bfbfbf" points="1448.95,-69.5 1448.95,-101.5 1549.96,-101.5 1549.96,-69.5 1448.95,-69.5"/>
<text text-anchor="start" x="1456.95" y="-88.5" font-family="Helvetica,sans-Serif" font-size="10.00">halco/hicann&#45;dls/vx</text>
<text text-anchor="middle" x="1499.45" y="-76.5" font-family="Helvetica,sans-Serif" font-size="10.00">/synapse.h</text>
</a>
</g>
</g>
<!-- Node32&#45;&gt;Node35 -->
<g id="edge57" class="edge">
<title>Node32&#45;&gt;Node35</title>
<path fill="none" stroke="midnightblue" d="M1136.94,-144.48C1146.78,-142.17 1157.5,-139.82 1167.45,-138 1284.67,-116.56 1318.59,-125.11 1438.74,-102.2"/>
<polygon fill="midnightblue" stroke="midnightblue" points="1439.55,-105.61 1448.7,-100.27 1438.22,-98.74 1439.55,-105.61"/>
</g>
</g>
</svg>
