<?xml version="1.0" encoding="UTF-8" standalone="no"?>
<!DOCTYPE svg PUBLIC "-//W3C//DTD SVG 1.1//EN"
 "http://www.w3.org/Graphics/SVG/1.1/DTD/svg11.dtd">
<!-- Generated by graphviz version 2.46.0 (0)
 -->
<!-- Title: /jenkins/jenlib_workspaces_f9/bld_nightly&#45;haldls.YmxkX25pZ2h0bHktaGFsZGxzIzEzNzk.x/haldls/include/haldls/vx/fpga.h Pages: 1 -->
<!--zoomable 272 -->
<svg id="main" version="1.1" xmlns="http://www.w3.org/2000/svg" xmlns:xlink="http://www.w3.org/1999/xlink" xml:space="preserve" onload="init(evt)">
<style type="text/css"><![CDATA[
.edge:hover path { stroke: red; }
.edge:hover polygon { stroke: red; fill: red; }
]]></style>
<script type="text/javascript"><![CDATA[
var edges = document.getElementsByTagName('g');
if (edges && edges.length) {
  for (var i=0;i<edges.length;i++) {
    if (edges[i].id.substr(0,4)=='edge') {
      edges[i].setAttribute('class','edge');
    }
  }
}
]]></script>
        <defs>
                <circle id="rim" cx="0" cy="0" r="7"/>
                <circle id="rim2" cx="0" cy="0" r="3.5"/>
                <g id="zoomPlus">
                        <use xlink:href="#rim" fill="#404040">
                                <set attributeName="fill" to="#808080" begin="zoomplus.mouseover" end="zoomplus.mouseout"/>
                        </use>
                        <path d="M-4,0h8M0,-4v8" fill="none" stroke="white" stroke-width="1.5" pointer-events="none"/>
                </g>
                <g id="zoomMin">
                        <use xlink:href="#rim" fill="#404040">
                                <set attributeName="fill" to="#808080" begin="zoomminus.mouseover" end="zoomminus.mouseout"/>
                        </use>
                        <path d="M-4,0h8" fill="none" stroke="white" stroke-width="1.5" pointer-events="none"/>
                </g>
                <g id="dirArrow">
                        <path fill="none" stroke="white" stroke-width="1.5" d="M0,-3.0v7 M-2.5,-0.5L0,-3.0L2.5,-0.5"/>
                </g>
               <g id="resetDef">
                       <use xlink:href="#rim2" fill="#404040">
                               <set attributeName="fill" to="#808080" begin="reset.mouseover" end="reset.mouseout"/>
                       </use>
               </g>
        </defs>

<script type="text/javascript">
var viewWidth = 1457;
var viewHeight = 272;
var sectionId = 'dynsection-0';
</script>
<script xlink:href="svgpan.js"/>
<svg id="graph" class="graph">
<g id="viewport">
<title>/jenkins/jenlib_workspaces_f9/bld_nightly&#45;haldls.YmxkX25pZ2h0bHktaGFsZGxzIzEzNzk.x/haldls/include/haldls/vx/fpga.h</title>
<polygon fill="white" stroke="transparent" points="-4,4 -4,-268 1452.68,-268 1452.68,4 -4,4"/>
<!-- Node1 -->
<g id="node1" class="node">
<title>Node1</title>
<g id="a_node1"><a xlink:title=" ">
<polygon fill="#bfbfbf" stroke="black" points="738.66,-207.5 738.66,-263.5 919.68,-263.5 919.68,-207.5 738.66,-207.5"/>
<text text-anchor="start" x="746.66" y="-250.5" font-family="Helvetica,sans-Serif" font-size="10.00">/jenkins/jenlib_workspaces</text>
<text text-anchor="start" x="746.66" y="-238.5" font-family="Helvetica,sans-Serif" font-size="10.00">_f9/bld_nightly&#45;haldls.YmxkX25p</text>
<text text-anchor="start" x="746.66" y="-226.5" font-family="Helvetica,sans-Serif" font-size="10.00">Z2h0bHktaGFsZGxzIzEzNzk.x/haldls</text>
<text text-anchor="middle" x="829.17" y="-214.5" font-family="Helvetica,sans-Serif" font-size="10.00">/include/haldls/vx/fpga.h</text>
</a>
</g>
</g>
<!-- Node2 -->
<g id="node2" class="node">
<title>Node2</title>
<g id="a_node2"><a xlink:title=" ">
<polygon fill="white" stroke="#bfbfbf" points="134.78,-75.5 134.78,-95.5 173.56,-95.5 173.56,-75.5 134.78,-75.5"/>
<text text-anchor="middle" x="154.17" y="-82.5" font-family="Helvetica,sans-Serif" font-size="10.00">array</text>
</a>
</g>
</g>
<!-- Node1&#45;&gt;Node2 -->
<g id="edge1" class="edge">
<title>Node1&#45;&gt;Node2</title>
<path fill="none" stroke="midnightblue" d="M738.36,-225.95C649,-216.46 509.04,-198.73 390.17,-171 293.67,-148.49 267.65,-144.57 178.17,-102 177.34,-101.61 176.52,-101.19 175.69,-100.76"/>
<polygon fill="midnightblue" stroke="midnightblue" points="177.41,-97.71 167.02,-95.66 173.86,-103.75 177.41,-97.71"/>
</g>
<!-- Node3 -->
<g id="node3" class="node">
<title>Node3</title>
<g id="a_node3"><a xlink:title=" ">
<polygon fill="white" stroke="#bfbfbf" points="0,-6.5 0,-26.5 44.34,-26.5 44.34,-6.5 0,-6.5"/>
<text text-anchor="middle" x="22.17" y="-13.5" font-family="Helvetica,sans-Serif" font-size="10.00">iosfwd</text>
</a>
</g>
</g>
<!-- Node1&#45;&gt;Node3 -->
<g id="edge2" class="edge">
<title>Node1&#45;&gt;Node3</title>
<path fill="none" stroke="midnightblue" d="M738.45,-234.44C624.43,-232.11 423.83,-220.43 260.17,-171 167.4,-142.98 76.4,-67.12 39.44,-33.69"/>
<polygon fill="midnightblue" stroke="midnightblue" points="41.74,-31.05 32,-26.87 37.01,-36.21 41.74,-31.05"/>
</g>
<!-- Node4 -->
<g id="node4" class="node">
<title>Node4</title>
<g id="a_node4"><a xlink:title=" ">
<polygon fill="white" stroke="#bfbfbf" points="825.27,-75.5 825.27,-95.5 959.07,-95.5 959.07,-75.5 825.27,-75.5"/>
<text text-anchor="middle" x="892.17" y="-82.5" font-family="Helvetica,sans-Serif" font-size="10.00">halco/common/geometry.h</text>
</a>
</g>
</g>
<!-- Node1&#45;&gt;Node4 -->
<g id="edge3" class="edge">
<title>Node1&#45;&gt;Node4</title>
<path fill="none" stroke="midnightblue" d="M840.72,-207.35C853.4,-177.58 873.39,-130.6 884.35,-104.87"/>
<polygon fill="midnightblue" stroke="midnightblue" points="887.62,-106.11 888.32,-95.54 881.18,-103.37 887.62,-106.11"/>
</g>
<!-- Node5 -->
<g id="node5" class="node">
<title>Node5</title>
<g id="a_node5"><a xlink:title=" ">
<polygon fill="white" stroke="#bfbfbf" points="1102.05,-138.5 1102.05,-170.5 1210.29,-170.5 1210.29,-138.5 1102.05,-138.5"/>
<text text-anchor="start" x="1110.05" y="-157.5" font-family="Helvetica,sans-Serif" font-size="10.00">halco/common/typed</text>
<text text-anchor="middle" x="1156.17" y="-145.5" font-family="Helvetica,sans-Serif" font-size="10.00">_array.h</text>
</a>
</g>
</g>
<!-- Node1&#45;&gt;Node5 -->
<g id="edge4" class="edge">
<title>Node1&#45;&gt;Node5</title>
<path fill="none" stroke="midnightblue" d="M919.82,-212.6C974.46,-199.4 1042.75,-182.9 1091.85,-171.04"/>
<polygon fill="midnightblue" stroke="midnightblue" points="1092.81,-174.41 1101.71,-168.66 1091.17,-167.6 1092.81,-174.41"/>
</g>
<!-- Node6 -->
<g id="node6" class="node">
<title>Node6</title>
<g id="a_node6"><a xlink:title=" ">
<polygon fill="white" stroke="#bfbfbf" points="1228.66,-138.5 1228.66,-170.5 1329.68,-170.5 1329.68,-138.5 1228.66,-138.5"/>
<text text-anchor="start" x="1236.66" y="-157.5" font-family="Helvetica,sans-Serif" font-size="10.00">halco/hicann&#45;dls/vx</text>
<text text-anchor="middle" x="1279.17" y="-145.5" font-family="Helvetica,sans-Serif" font-size="10.00">/fpga.h</text>
</a>
</g>
</g>
<!-- Node1&#45;&gt;Node6 -->
<g id="edge5" class="edge">
<title>Node1&#45;&gt;Node6</title>
<path fill="none" stroke="midnightblue" d="M919.83,-222.13C996.83,-211.08 1110.4,-193.47 1218.71,-170.98"/>
<polygon fill="midnightblue" stroke="midnightblue" points="1219.43,-174.41 1228.51,-168.94 1218,-167.56 1219.43,-174.41"/>
</g>
<!-- Node7 -->
<g id="node7" class="node">
<title>Node7</title>
<g id="a_node7"><a xlink:title=" ">
<polygon fill="white" stroke="#bfbfbf" points="1347.66,-138.5 1347.66,-170.5 1448.68,-170.5 1448.68,-138.5 1347.66,-138.5"/>
<text text-anchor="start" x="1355.66" y="-157.5" font-family="Helvetica,sans-Serif" font-size="10.00">halco/hicann&#45;dls/vx</text>
<text text-anchor="middle" x="1398.17" y="-145.5" font-family="Helvetica,sans-Serif" font-size="10.00">/quad.h</text>
</a>
</g>
</g>
<!-- Node1&#45;&gt;Node7 -->
<g id="edge6" class="edge">
<title>Node1&#45;&gt;Node7</title>
<path fill="none" stroke="midnightblue" d="M920.02,-226.87C1020.27,-217.61 1186.4,-199.81 1337.49,-171.19"/>
<polygon fill="midnightblue" stroke="midnightblue" points="1338.25,-174.61 1347.42,-169.29 1336.94,-167.73 1338.25,-174.61"/>
</g>
<!-- Node8 -->
<g id="node8" class="node">
<title>Node8</title>
<g id="a_node8"><a xlink:href="cerealization_8h.html" target="_top" xlink:title=" ">
<polygon fill="white" stroke="black" points="229.49,-75.5 229.49,-95.5 338.84,-95.5 338.84,-75.5 229.49,-75.5"/>
<text text-anchor="middle" x="284.17" y="-82.5" font-family="Helvetica,sans-Serif" font-size="10.00">haldls/cerealization.h</text>
</a>
</g>
</g>
<!-- Node1&#45;&gt;Node8 -->
<g id="edge7" class="edge">
<title>Node1&#45;&gt;Node8</title>
<path fill="none" stroke="midnightblue" d="M738.36,-223.52C667.58,-213.61 567.35,-196.62 482.17,-171 418.76,-151.93 348.28,-118.78 310.89,-100.18"/>
<polygon fill="midnightblue" stroke="midnightblue" points="312.2,-96.92 301.69,-95.56 309.06,-103.17 312.2,-96.92"/>
</g>
<!-- Node10 -->
<g id="node10" class="node">
<title>Node10</title>
<g id="a_node10"><a xlink:title=" ">
<polygon fill="white" stroke="#bfbfbf" points="343.66,-6.5 343.66,-26.5 424.67,-26.5 424.67,-6.5 343.66,-6.5"/>
<text text-anchor="middle" x="384.17" y="-13.5" font-family="Helvetica,sans-Serif" font-size="10.00">hate/visibility.h</text>
</a>
</g>
</g>
<!-- Node1&#45;&gt;Node10 -->
<g id="edge38" class="edge">
<title>Node1&#45;&gt;Node10</title>
<path fill="none" stroke="midnightblue" d="M796.88,-207.48C765.06,-180.8 715.11,-138.76 672.17,-102 655.18,-87.45 654.34,-78.66 634.17,-69 552.71,-29.99 521.91,-54.41 434.17,-33 429.83,-31.94 425.31,-30.72 420.85,-29.43"/>
<polygon fill="midnightblue" stroke="midnightblue" points="421.83,-26.07 411.25,-26.56 419.82,-32.78 421.83,-26.07"/>
</g>
<!-- Node13 -->
<g id="node13" class="node">
<title>Node13</title>
<g id="a_node13"><a xlink:href="common_8h.html" target="_top" xlink:title=" ">
<polygon fill="white" stroke="black" points="934.99,-144.5 934.99,-164.5 1039.34,-164.5 1039.34,-144.5 934.99,-144.5"/>
<text text-anchor="middle" x="987.17" y="-151.5" font-family="Helvetica,sans-Serif" font-size="10.00">haldls/vx/common.h</text>
</a>
</g>
</g>
<!-- Node1&#45;&gt;Node13 -->
<g id="edge13" class="edge">
<title>Node1&#45;&gt;Node13</title>
<path fill="none" stroke="midnightblue" d="M883.54,-207.31C909.4,-194.39 939.16,-179.5 960.14,-169.01"/>
<polygon fill="midnightblue" stroke="midnightblue" points="961.73,-172.13 969.11,-164.53 958.6,-165.87 961.73,-172.13"/>
</g>
<!-- Node16 -->
<g id="node16" class="node">
<title>Node16</title>
<g id="a_node16"><a xlink:href="genpybind_8h.html" target="_top" xlink:title=" ">
<polygon fill="white" stroke="black" points="1107.1,-6.5 1107.1,-26.5 1219.24,-26.5 1219.24,-6.5 1107.1,-6.5"/>
<text text-anchor="middle" x="1163.17" y="-13.5" font-family="Helvetica,sans-Serif" font-size="10.00">haldls/vx/genpybind.h</text>
</a>
</g>
</g>
<!-- Node1&#45;&gt;Node16 -->
<g id="edge16" class="edge">
<title>Node1&#45;&gt;Node16</title>
<path fill="none" stroke="midnightblue" d="M919.86,-221.79C961.68,-212.67 1010.32,-197.17 1048.17,-171 1100.07,-135.11 1138.14,-68.25 1154.42,-35.93"/>
<polygon fill="midnightblue" stroke="midnightblue" points="1157.67,-37.25 1158.93,-26.73 1151.39,-34.17 1157.67,-37.25"/>
</g>
<!-- Node17 -->
<g id="node17" class="node">
<title>Node17</title>
<g id="a_node17"><a xlink:href="timer_8h.html" target="_top" xlink:title=" ">
<polygon fill="white" stroke="black" points="491.05,-144.5 491.05,-164.5 579.28,-164.5 579.28,-144.5 491.05,-144.5"/>
<text text-anchor="middle" x="535.17" y="-151.5" font-family="Helvetica,sans-Serif" font-size="10.00">haldls/vx/timer.h</text>
</a>
</g>
</g>
<!-- Node1&#45;&gt;Node17 -->
<g id="edge18" class="edge">
<title>Node1&#45;&gt;Node17</title>
<path fill="none" stroke="midnightblue" d="M738.56,-210.15C685.41,-195.87 620.66,-178.47 578.71,-167.2"/>
<polygon fill="midnightblue" stroke="midnightblue" points="579.39,-163.76 568.82,-164.54 577.57,-170.52 579.39,-163.76"/>
</g>
<!-- Node20 -->
<g id="node20" class="node">
<title>Node20</title>
<g id="a_node20"><a xlink:href="traits_8h.html" target="_top" xlink:title=" ">
<polygon fill="white" stroke="black" points="681.33,-75.5 681.33,-95.5 769.01,-95.5 769.01,-75.5 681.33,-75.5"/>
<text text-anchor="middle" x="725.17" y="-82.5" font-family="Helvetica,sans-Serif" font-size="10.00">haldls/vx/traits.h</text>
</a>
</g>
</g>
<!-- Node1&#45;&gt;Node20 -->
<g id="edge37" class="edge">
<title>Node1&#45;&gt;Node20</title>
<path fill="none" stroke="midnightblue" d="M810.09,-207.35C788.89,-177.18 755.28,-129.35 737.36,-103.85"/>
<polygon fill="midnightblue" stroke="midnightblue" points="740.13,-101.71 731.52,-95.54 734.4,-105.73 740.13,-101.71"/>
</g>
<!-- Node8&#45;&gt;Node3 -->
<g id="edge11" class="edge">
<title>Node8&#45;&gt;Node3</title>
<path fill="none" stroke="midnightblue" d="M244.03,-75.48C234.57,-73.35 224.51,-71.09 215.17,-69 143.62,-52.96 123.4,-57.14 54.17,-33 52.29,-32.34 50.37,-31.61 48.46,-30.82"/>
<polygon fill="midnightblue" stroke="midnightblue" points="49.68,-27.53 39.13,-26.62 46.81,-33.91 49.68,-27.53"/>
</g>
<!-- Node9 -->
<g id="node9" class="node">
<title>Node9</title>
<g id="a_node9"><a xlink:title=" ">
<polygon fill="white" stroke="#bfbfbf" points="242.54,-6.5 242.54,-26.5 325.79,-26.5 325.79,-6.5 242.54,-6.5"/>
<text text-anchor="middle" x="284.17" y="-13.5" font-family="Helvetica,sans-Serif" font-size="10.00">hate/type_list.h</text>
</a>
</g>
</g>
<!-- Node8&#45;&gt;Node9 -->
<g id="edge8" class="edge">
<title>Node8&#45;&gt;Node9</title>
<path fill="none" stroke="midnightblue" d="M284.17,-75.46C284.17,-65.63 284.17,-49.61 284.17,-36.9"/>
<polygon fill="midnightblue" stroke="midnightblue" points="287.67,-36.82 284.17,-26.82 280.67,-36.82 287.67,-36.82"/>
</g>
<!-- Node8&#45;&gt;Node10 -->
<g id="edge9" class="edge">
<title>Node8&#45;&gt;Node10</title>
<path fill="none" stroke="midnightblue" d="M297.65,-75.46C314.2,-64.38 342.49,-45.42 362.2,-32.22"/>
<polygon fill="midnightblue" stroke="midnightblue" points="364.22,-35.08 370.58,-26.61 360.32,-29.27 364.22,-35.08"/>
</g>
<!-- Node11 -->
<g id="node11" class="node">
<title>Node11</title>
<g id="a_node11"><a xlink:title=" ">
<polygon fill="white" stroke="#bfbfbf" points="62.72,-6.5 62.72,-26.5 107.62,-26.5 107.62,-6.5 62.72,-6.5"/>
<text text-anchor="middle" x="85.17" y="-13.5" font-family="Helvetica,sans-Serif" font-size="10.00">cstdint</text>
</a>
</g>
</g>
<!-- Node8&#45;&gt;Node11 -->
<g id="edge10" class="edge">
<title>Node8&#45;&gt;Node11</title>
<path fill="none" stroke="midnightblue" d="M249.42,-75.45C215.27,-66.16 161.91,-50.62 117.17,-33 115.36,-32.29 113.51,-31.52 111.66,-30.71"/>
<polygon fill="midnightblue" stroke="midnightblue" points="113.11,-27.52 102.56,-26.52 110.18,-33.88 113.11,-27.52"/>
</g>
<!-- Node12 -->
<g id="node12" class="node">
<title>Node12</title>
<g id="a_node12"><a xlink:title=" ">
<polygon fill="white" stroke="#bfbfbf" points="126.05,-6.5 126.05,-26.5 224.29,-26.5 224.29,-6.5 126.05,-6.5"/>
<text text-anchor="middle" x="175.17" y="-13.5" font-family="Helvetica,sans-Serif" font-size="10.00">cereal/macros.hpp</text>
</a>
</g>
</g>
<!-- Node8&#45;&gt;Node12 -->
<g id="edge12" class="edge">
<title>Node8&#45;&gt;Node12</title>
<path fill="none" stroke="midnightblue" d="M269.47,-75.46C251.26,-64.28 220.04,-45.08 198.54,-31.86"/>
<polygon fill="midnightblue" stroke="midnightblue" points="200.34,-28.86 189.98,-26.61 196.67,-34.83 200.34,-28.86"/>
</g>
<!-- Node14 -->
<g id="node14" class="node">
<title>Node14</title>
<g id="a_node14"><a xlink:title=" ">
<polygon fill="white" stroke="#bfbfbf" points="1027.11,-6.5 1027.11,-26.5 1089.23,-26.5 1089.23,-6.5 1027.11,-6.5"/>
<text text-anchor="middle" x="1058.17" y="-13.5" font-family="Helvetica,sans-Serif" font-size="10.00">type_traits</text>
</a>
</g>
</g>
<!-- Node13&#45;&gt;Node14 -->
<g id="edge14" class="edge">
<title>Node13&#45;&gt;Node14</title>
<path fill="none" stroke="midnightblue" d="M987.56,-144.27C988.61,-128.07 992.4,-93.86 1006.17,-69 1013.92,-55 1026.62,-42.32 1037.53,-33.04"/>
<polygon fill="midnightblue" stroke="midnightblue" points="1039.86,-35.66 1045.42,-26.64 1035.45,-30.23 1039.86,-35.66"/>
</g>
<!-- Node15 -->
<g id="node15" class="node">
<title>Node15</title>
<g id="a_node15"><a xlink:title=" ">
<polygon fill="white" stroke="#bfbfbf" points="1014.78,-75.5 1014.78,-95.5 1053.55,-95.5 1053.55,-75.5 1014.78,-75.5"/>
<text text-anchor="middle" x="1034.17" y="-82.5" font-family="Helvetica,sans-Serif" font-size="10.00">utility</text>
</a>
</g>
</g>
<!-- Node13&#45;&gt;Node15 -->
<g id="edge15" class="edge">
<title>Node13&#45;&gt;Node15</title>
<path fill="none" stroke="midnightblue" d="M993.51,-144.46C1000.68,-134.23 1012.56,-117.3 1021.63,-104.38"/>
<polygon fill="midnightblue" stroke="midnightblue" points="1024.75,-106.02 1027.63,-95.82 1019.02,-102 1024.75,-106.02"/>
</g>
<!-- Node16&#45;&gt;Node16 -->
<g id="edge17" class="edge">
<title>Node16&#45;&gt;Node16</title>
<path fill="none" stroke="midnightblue" d="M1187.06,-26.54C1210.89,-32.26 1237.24,-28.92 1237.24,-16.5 1237.24,-5.78 1217.6,-1.82 1196.9,-4.62"/>
<polygon fill="midnightblue" stroke="midnightblue" points="1196.25,-1.18 1187.06,-6.46 1197.54,-8.06 1196.25,-1.18"/>
</g>
<!-- Node17&#45;&gt;Node2 -->
<g id="edge19" class="edge">
<title>Node17&#45;&gt;Node2</title>
<path fill="none" stroke="midnightblue" d="M490.87,-151.09C423.86,-146.52 293.29,-134.02 187.17,-102 184.87,-101.31 182.52,-100.48 180.2,-99.57"/>
<polygon fill="midnightblue" stroke="midnightblue" points="181.49,-96.31 170.92,-95.52 178.69,-102.73 181.49,-96.31"/>
</g>
<!-- Node17&#45;&gt;Node3 -->
<g id="edge20" class="edge">
<title>Node17&#45;&gt;Node3</title>
<path fill="none" stroke="midnightblue" d="M490.93,-153.75C427.86,-152.49 309.84,-144.06 220.17,-102 199.92,-92.5 201.85,-79.62 182.17,-69 130.15,-40.95 109.42,-53.96 54.17,-33 52.35,-32.31 50.49,-31.56 48.64,-30.76"/>
<polygon fill="midnightblue" stroke="midnightblue" points="50.08,-27.57 39.53,-26.6 47.17,-33.94 50.08,-27.57"/>
</g>
<!-- Node17&#45;&gt;Node4 -->
<g id="edge22" class="edge">
<title>Node17&#45;&gt;Node4</title>
<path fill="none" stroke="midnightblue" d="M579.64,-145.27C634.19,-135.15 729.5,-117.43 811.17,-102 818.88,-100.54 827.01,-99 835.02,-97.47"/>
<polygon fill="midnightblue" stroke="midnightblue" points="835.89,-100.87 845.06,-95.55 834.58,-93.99 835.89,-100.87"/>
</g>
<!-- Node17&#45;&gt;Node8 -->
<g id="edge24" class="edge">
<title>Node17&#45;&gt;Node8</title>
<path fill="none" stroke="midnightblue" d="M501.32,-144.46C456.5,-132.5 377.4,-111.39 328.04,-98.21"/>
<polygon fill="midnightblue" stroke="midnightblue" points="328.85,-94.8 318.28,-95.61 327.04,-101.57 328.85,-94.8"/>
</g>
<!-- Node17&#45;&gt;Node10 -->
<g id="edge36" class="edge">
<title>Node17&#45;&gt;Node10</title>
<path fill="none" stroke="midnightblue" d="M490.74,-151.2C456.13,-146.81 410.06,-134.71 386.17,-102 372.41,-83.17 374.96,-55.15 378.88,-36.61"/>
<polygon fill="midnightblue" stroke="midnightblue" points="382.33,-37.24 381.29,-26.7 375.53,-35.59 382.33,-37.24"/>
</g>
<!-- Node17&#45;&gt;Node16 -->
<g id="edge25" class="edge">
<title>Node17&#45;&gt;Node16</title>
<path fill="none" stroke="midnightblue" d="M579.48,-150.79C629.93,-146.23 713.7,-134.1 778.17,-102 798.19,-92.03 795.75,-78.14 816.17,-69 931.48,-17.36 973.87,-55.69 1098.17,-33 1104.76,-31.8 1111.69,-30.35 1118.47,-28.82"/>
<polygon fill="midnightblue" stroke="midnightblue" points="1119.28,-32.23 1128.23,-26.56 1117.7,-25.41 1119.28,-32.23"/>
</g>
<!-- Node18 -->
<g id="node18" class="node">
<title>Node18</title>
<g id="a_node18"><a xlink:title=" ">
<polygon fill="white" stroke="#bfbfbf" points="394.94,-69.5 394.94,-101.5 505.4,-101.5 505.4,-69.5 394.94,-69.5"/>
<text text-anchor="start" x="402.94" y="-88.5" font-family="Helvetica,sans-Serif" font-size="10.00">fisch/vx/word_access</text>
<text text-anchor="middle" x="450.17" y="-76.5" font-family="Helvetica,sans-Serif" font-size="10.00">/type/timer.h</text>
</a>
</g>
</g>
<!-- Node17&#45;&gt;Node18 -->
<g id="edge21" class="edge">
<title>Node17&#45;&gt;Node18</title>
<path fill="none" stroke="midnightblue" d="M523.7,-144.46C511.82,-135.1 492.81,-120.11 477.1,-107.73"/>
<polygon fill="midnightblue" stroke="midnightblue" points="479.26,-104.98 469.24,-101.53 474.93,-110.47 479.26,-104.98"/>
</g>
<!-- Node19 -->
<g id="node19" class="node">
<title>Node19</title>
<g id="a_node19"><a xlink:title=" ">
<polygon fill="white" stroke="#bfbfbf" points="523.66,-69.5 523.66,-101.5 624.68,-101.5 624.68,-69.5 523.66,-69.5"/>
<text text-anchor="start" x="531.66" y="-88.5" font-family="Helvetica,sans-Serif" font-size="10.00">halco/hicann&#45;dls/vx</text>
<text text-anchor="middle" x="574.17" y="-76.5" font-family="Helvetica,sans-Serif" font-size="10.00">/timing.h</text>
</a>
</g>
</g>
<!-- Node17&#45;&gt;Node19 -->
<g id="edge23" class="edge">
<title>Node17&#45;&gt;Node19</title>
<path fill="none" stroke="midnightblue" d="M540.43,-144.46C545.48,-135.78 553.34,-122.28 560.2,-110.5"/>
<polygon fill="midnightblue" stroke="midnightblue" points="563.41,-111.94 565.42,-101.53 557.36,-108.42 563.41,-111.94"/>
</g>
<!-- Node17&#45;&gt;Node20 -->
<g id="edge26" class="edge">
<title>Node17&#45;&gt;Node20</title>
<path fill="none" stroke="midnightblue" d="M560.79,-144.46C594.08,-132.73 652.36,-112.18 689.83,-98.96"/>
<polygon fill="midnightblue" stroke="midnightblue" points="691.08,-102.23 699.34,-95.61 688.75,-95.63 691.08,-102.23"/>
</g>
<!-- Node20&#45;&gt;Node9 -->
<g id="edge30" class="edge">
<title>Node20&#45;&gt;Node9</title>
<path fill="none" stroke="midnightblue" d="M681.27,-76.57C666.34,-74 649.55,-71.23 634.17,-69 501.27,-49.72 465.51,-61 334.17,-33 329.47,-32 324.58,-30.75 319.78,-29.4"/>
<polygon fill="midnightblue" stroke="midnightblue" points="320.72,-26.03 310.14,-26.53 318.73,-32.74 320.72,-26.03"/>
</g>
<!-- Node20&#45;&gt;Node10 -->
<g id="edge31" class="edge">
<title>Node20&#45;&gt;Node10</title>
<path fill="none" stroke="midnightblue" d="M693.71,-75.43C685.14,-73.14 675.84,-70.82 667.17,-69 564.62,-47.44 536.26,-56.58 434.17,-33 429.71,-31.97 425.08,-30.75 420.51,-29.45"/>
<polygon fill="midnightblue" stroke="midnightblue" points="421.28,-26.03 410.7,-26.52 419.28,-32.73 421.28,-26.03"/>
</g>
<!-- Node20&#45;&gt;Node14 -->
<g id="edge32" class="edge">
<title>Node20&#45;&gt;Node14</title>
<path fill="none" stroke="midnightblue" d="M756.62,-75.42C765.19,-73.14 774.5,-70.82 783.17,-69 886.58,-47.33 916.08,-60.25 1018.17,-33 1021.33,-32.15 1024.59,-31.14 1027.82,-30.05"/>
<polygon fill="midnightblue" stroke="midnightblue" points="1029.09,-33.31 1037.28,-26.58 1026.69,-26.73 1029.09,-33.31"/>
</g>
<!-- Node20&#45;&gt;Node16 -->
<g id="edge29" class="edge">
<title>Node20&#45;&gt;Node16</title>
<path fill="none" stroke="midnightblue" d="M755.68,-75.44C764.49,-73.08 774.16,-70.71 783.17,-69 921.61,-42.74 959.38,-57.39 1098.17,-33 1104.85,-31.83 1111.86,-30.38 1118.72,-28.85"/>
<polygon fill="midnightblue" stroke="midnightblue" points="1119.63,-32.23 1128.58,-26.56 1118.05,-25.41 1119.63,-32.23"/>
</g>
<!-- Node21 -->
<g id="node21" class="node">
<title>Node21</title>
<g id="a_node21"><a xlink:title=" ">
<polygon fill="white" stroke="#bfbfbf" points="927.11,-6.5 927.11,-26.5 1009.23,-26.5 1009.23,-6.5 927.11,-6.5"/>
<text text-anchor="middle" x="968.17" y="-13.5" font-family="Helvetica,sans-Serif" font-size="10.00">fisch/vx/traits.h</text>
</a>
</g>
</g>
<!-- Node20&#45;&gt;Node21 -->
<g id="edge27" class="edge">
<title>Node20&#45;&gt;Node21</title>
<path fill="none" stroke="midnightblue" d="M758.9,-75.48C766.86,-73.35 775.31,-71.1 783.17,-69 843.16,-52.98 858.5,-50.2 918.17,-33 921.99,-31.9 925.96,-30.72 929.93,-29.53"/>
<polygon fill="midnightblue" stroke="midnightblue" points="931.13,-32.82 939.67,-26.55 929.08,-26.12 931.13,-32.82"/>
</g>
<!-- Node22 -->
<g id="node22" class="node">
<title>Node22</title>
<g id="a_node22"><a xlink:title=" ">
<polygon fill="white" stroke="#bfbfbf" points="442.94,-0.5 442.94,-32.5 553.4,-32.5 553.4,-0.5 442.94,-0.5"/>
<text text-anchor="start" x="450.94" y="-19.5" font-family="Helvetica,sans-Serif" font-size="10.00">fisch/vx/word_access</text>
<text text-anchor="middle" x="498.17" y="-7.5" font-family="Helvetica,sans-Serif" font-size="10.00">_type.h</text>
</a>
</g>
</g>
<!-- Node20&#45;&gt;Node22 -->
<g id="edge28" class="edge">
<title>Node20&#45;&gt;Node22</title>
<path fill="none" stroke="midnightblue" d="M694.55,-75.46C659.9,-65.24 602.58,-48.32 558.79,-35.39"/>
<polygon fill="midnightblue" stroke="midnightblue" points="559.68,-32.01 549.1,-32.53 557.7,-38.72 559.68,-32.01"/>
</g>
<!-- Node23 -->
<g id="node23" class="node">
<title>Node23</title>
<g id="a_node23"><a xlink:title=" ">
<polygon fill="white" stroke="#bfbfbf" points="571.77,-0.5 571.77,-32.5 670.57,-32.5 670.57,-0.5 571.77,-0.5"/>
<text text-anchor="start" x="579.77" y="-19.5" font-family="Helvetica,sans-Serif" font-size="10.00">boost/utility/enable</text>
<text text-anchor="middle" x="621.17" y="-7.5" font-family="Helvetica,sans-Serif" font-size="10.00">_if.hpp</text>
</a>
</g>
</g>
<!-- Node20&#45;&gt;Node23 -->
<g id="edge33" class="edge">
<title>Node20&#45;&gt;Node23</title>
<path fill="none" stroke="midnightblue" d="M711.14,-75.46C696.33,-65.92 672.49,-50.56 653.07,-38.05"/>
<polygon fill="midnightblue" stroke="midnightblue" points="654.81,-35.01 644.5,-32.53 651.01,-40.89 654.81,-35.01"/>
</g>
<!-- Node24 -->
<g id="node24" class="node">
<title>Node24</title>
<g id="a_node24"><a xlink:title=" ">
<polygon fill="white" stroke="#bfbfbf" points="688.82,-6.5 688.82,-26.5 781.51,-26.5 781.51,-6.5 688.82,-6.5"/>
<text text-anchor="middle" x="735.17" y="-13.5" font-family="Helvetica,sans-Serif" font-size="10.00">boost/variant.hpp</text>
</a>
</g>
</g>
<!-- Node20&#45;&gt;Node24 -->
<g id="edge34" class="edge">
<title>Node20&#45;&gt;Node24</title>
<path fill="none" stroke="midnightblue" d="M726.52,-75.46C727.98,-65.63 730.38,-49.61 732.27,-36.9"/>
<polygon fill="midnightblue" stroke="midnightblue" points="735.76,-37.23 733.78,-26.82 728.84,-36.2 735.76,-37.23"/>
</g>
<!-- Node25 -->
<g id="node25" class="node">
<title>Node25</title>
<g id="a_node25"><a xlink:title=" ">
<polygon fill="white" stroke="#bfbfbf" points="799.21,-6.5 799.21,-26.5 909.12,-26.5 909.12,-6.5 799.21,-6.5"/>
<text text-anchor="middle" x="854.17" y="-13.5" font-family="Helvetica,sans-Serif" font-size="10.00">fisch/vx/container.def</text>
</a>
</g>
</g>
<!-- Node20&#45;&gt;Node25 -->
<g id="edge35" class="edge">
<title>Node20&#45;&gt;Node25</title>
<path fill="none" stroke="midnightblue" d="M742.57,-75.46C764.4,-64.13 802.06,-44.56 827.53,-31.34"/>
<polygon fill="midnightblue" stroke="midnightblue" points="829.37,-34.32 836.63,-26.61 826.15,-28.11 829.37,-34.32"/>
</g>
</g>
</svg>
        <g id="navigator" transform="translate(0 0)" fill="#404254">
                <rect fill="#f2f5e9" fill-opacity="0.5" stroke="#606060" stroke-width=".5" x="0" y="0" width="60" height="60"/>
                <use id="zoomplus" xlink:href="#zoomPlus" x="17" y="9" onmousedown="handleZoom(evt,'in')"/>
                <use id="zoomminus" xlink:href="#zoomMin" x="42" y="9" onmousedown="handleZoom(evt,'out')"/>
                <use id="reset" xlink:href="#resetDef" x="30" y="36" onmousedown="handleReset()"/>
                <g id="arrowUp" xlink:href="#dirArrow" transform="translate(30 24)" onmousedown="handlePan(0,-1)">
                  <use xlink:href="#rim" fill="#404040">
                        <set attributeName="fill" to="#808080" begin="arrowUp.mouseover" end="arrowUp.mouseout"/>
                  </use>
                  <path fill="none" stroke="white" stroke-width="1.5" d="M0,-3.0v7 M-2.5,-0.5L0,-3.0L2.5,-0.5"/>
                </g>
                <g id="arrowRight" xlink:href="#dirArrow" transform="rotate(90) translate(36 -43)" onmousedown="handlePan(1,0)">
                  <use xlink:href="#rim" fill="#404040">
                        <set attributeName="fill" to="#808080" begin="arrowRight.mouseover" end="arrowRight.mouseout"/>
                  </use>
                  <path fill="none" stroke="white" stroke-width="1.5" d="M0,-3.0v7 M-2.5,-0.5L0,-3.0L2.5,-0.5"/>
                </g>
                <g id="arrowDown" xlink:href="#dirArrow" transform="rotate(180) translate(-30 -48)" onmousedown="handlePan(0,1)">
                  <use xlink:href="#rim" fill="#404040">
                        <set attributeName="fill" to="#808080" begin="arrowDown.mouseover" end="arrowDown.mouseout"/>
                  </use>
                  <path fill="none" stroke="white" stroke-width="1.5" d="M0,-3.0v7 M-2.5,-0.5L0,-3.0L2.5,-0.5"/>
                </g>
                <g id="arrowLeft" xlink:href="#dirArrow" transform="rotate(270) translate(-36 17)" onmousedown="handlePan(-1,0)">
                  <use xlink:href="#rim" fill="#404040">
                        <set attributeName="fill" to="#808080" begin="arrowLeft.mouseover" end="arrowLeft.mouseout"/>
                  </use>
                  <path fill="none" stroke="white" stroke-width="1.5" d="M0,-3.0v7 M-2.5,-0.5L0,-3.0L2.5,-0.5"/>
                </g>
        </g>
        <svg viewBox="0 0 15 15" width="100%" height="30px" preserveAspectRatio="xMaxYMin meet">
         <g id="arrow_out" transform="scale(0.3 0.3)">
          <a xlink:href="fpga_8h__incl_org.svg" target="_base">
           <rect id="button" ry="5" rx="5" y="6" x="6" height="38" width="38"
                fill="#f2f5e9" fill-opacity="0.5" stroke="#606060" stroke-width="1.0"/>
           <path id="arrow"
             d="M 11.500037,31.436501 C 11.940474,20.09759 22.043105,11.32322 32.158766,21.979434 L 37.068811,17.246167 C 37.068811,17.246167 37.088388,32 37.088388,32 L 22.160133,31.978069 C 22.160133,31.978069 26.997745,27.140456 26.997745,27.140456 C 18.528582,18.264221 13.291696,25.230495 11.500037,31.436501 z"
             style="fill:#404040;"/>
          </a>
         </g>
        </svg>
</svg>
