<?xml version="1.0" encoding="UTF-8" standalone="no"?>
<!DOCTYPE svg PUBLIC "-//W3C//DTD SVG 1.1//EN"
 "http://www.w3.org/Graphics/SVG/1.1/DTD/svg11.dtd">
<!-- Generated by graphviz version 2.46.0 (0)
 -->
<!-- Title: Graphical Class Hierarchy Pages: 1 -->
<svg width="282pt" height="65pt"
 viewBox="0.00 0.00 281.91 65.00" xmlns="http://www.w3.org/2000/svg" xmlns:xlink="http://www.w3.org/1999/xlink">
<g id="graph0" class="graph" transform="scale(1 1) rotate(0) translate(4 61)">
<title>Graphical Class Hierarchy</title>
<polygon fill="white" stroke="transparent" points="-4,4 -4,-61 277.91,-61 277.91,4 -4,4"/>
<!-- Node291 -->
<g id="node1" class="node">
<title>Node291</title>
<g id="a_node1"><a xlink:title=" ">
<polygon fill="white" stroke="#bfbfbf" points="0,-18.5 0,-38.5 94.92,-38.5 94.92,-18.5 0,-18.5"/>
<text text-anchor="middle" x="47.46" y="-25.5" font-family="Helvetica,sans-Serif" font-size="10.00">T::has_local_data</text>
</a>
</g>
</g>
<!-- Node0 -->
<g id="node2" class="node">
<title>Node0</title>
<g id="a_node2"><a xlink:href="structhaldls_1_1vx_1_1_has_local_data_3_01_t_00_01typename_01boost_1_1enable__if__has__type_3_01000b7c52ec4a96196c587f73152a0d09.html" target="_top" xlink:title=" ">
<polygon fill="white" stroke="black" points="130.92,-0.5 130.92,-56.5 273.91,-56.5 273.91,-0.5 130.92,-0.5"/>
<text text-anchor="start" x="138.92" y="-43.5" font-family="Helvetica,sans-Serif" font-size="10.00">haldls::vx::HasLocalData</text>
<text text-anchor="start" x="138.92" y="-31.5" font-family="Helvetica,sans-Serif" font-size="10.00">&lt; T, typename boost::enable</text>
<text text-anchor="start" x="138.92" y="-19.5" font-family="Helvetica,sans-Serif" font-size="10.00">_if_has_type&lt; typename T::</text>
<text text-anchor="middle" x="202.41" y="-7.5" font-family="Helvetica,sans-Serif" font-size="10.00">has_local_data &gt;::type &gt;</text>
</a>
</g>
</g>
<!-- Node291&#45;&gt;Node0 -->
<g id="edge1" class="edge">
<title>Node291&#45;&gt;Node0</title>
<path fill="none" stroke="midnightblue" d="M105.43,-28.5C113.69,-28.5 122.27,-28.5 130.76,-28.5"/>
<polygon fill="midnightblue" stroke="midnightblue" points="105.18,-25 95.18,-28.5 105.18,-32 105.18,-25"/>
</g>
</g>
</svg>
