<?xml version="1.0" encoding="UTF-8" standalone="no"?>
<!DOCTYPE svg PUBLIC "-//W3C//DTD SVG 1.1//EN"
 "http://www.w3.org/Graphics/SVG/1.1/DTD/svg11.dtd">
<!-- Generated by graphviz version 2.46.0 (0)
 -->
<!-- Title: Graphical Class Hierarchy Pages: 1 -->
<svg width="330pt" height="194pt"
 viewBox="0.00 0.00 330.44 194.00" xmlns="http://www.w3.org/2000/svg" xmlns:xlink="http://www.w3.org/1999/xlink">
<g id="graph0" class="graph" transform="scale(1 1) rotate(0) translate(4 190)">
<title>Graphical Class Hierarchy</title>
<polygon fill="white" stroke="transparent" points="-4,4 -4,-190 326.44,-190 326.44,4 -4,4"/>
<!-- Node0 -->
<g id="node1" class="node">
<title>Node0</title>
<g id="a_node1"><a xlink:href="classhaldls_1_1vx_1_1detail_1_1_s_r_a_m_timing_config.html" target="_top" xlink:title="Configuration of full&#45;custom SRAM timing.">
<polygon fill="white" stroke="black" points="0,-76.5 0,-108.5 109.33,-108.5 109.33,-76.5 0,-76.5"/>
<text text-anchor="start" x="8" y="-95.5" font-family="Helvetica,sans-Serif" font-size="10.00">haldls::vx::detail</text>
<text text-anchor="middle" x="54.67" y="-83.5" font-family="Helvetica,sans-Serif" font-size="10.00">::SRAMTimingConfig</text>
</a>
</g>
</g>
<!-- Node1 -->
<g id="node2" class="node">
<title>Node1</title>
<g id="a_node2"><a xlink:href="classhaldls_1_1vx_1_1_c_a_d_c_offset_s_r_a_m_timing_config.html" target="_top" xlink:title=" ">
<polygon fill="white" stroke="black" points="145.33,-153.5 145.33,-185.5 322.44,-185.5 322.44,-153.5 145.33,-153.5"/>
<text text-anchor="start" x="153.33" y="-172.5" font-family="Helvetica,sans-Serif" font-size="10.00">haldls::vx::CADCOffsetSRAMTiming</text>
<text text-anchor="middle" x="233.89" y="-160.5" font-family="Helvetica,sans-Serif" font-size="10.00">Config</text>
</a>
</g>
</g>
<!-- Node0&#45;&gt;Node1 -->
<g id="edge1" class="edge">
<title>Node0&#45;&gt;Node1</title>
<path fill="none" stroke="midnightblue" d="M88.3,-114.05C104.87,-124.31 125.63,-136.13 145.33,-144.5 153.04,-147.78 161.31,-150.77 169.58,-153.45"/>
<polygon fill="midnightblue" stroke="midnightblue" points="89.88,-110.91 79.56,-108.54 86.15,-116.83 89.88,-110.91"/>
</g>
<!-- Node2 -->
<g id="node3" class="node">
<title>Node2</title>
<g id="a_node3"><a xlink:href="classhaldls_1_1vx_1_1_neuron_backend_s_r_a_m_timing_config.html" target="_top" xlink:title=" ">
<polygon fill="white" stroke="black" points="166.43,-102.5 166.43,-134.5 301.35,-134.5 301.35,-102.5 166.43,-102.5"/>
<text text-anchor="start" x="174.43" y="-121.5" font-family="Helvetica,sans-Serif" font-size="10.00">haldls::vx::NeuronBackend</text>
<text text-anchor="middle" x="233.89" y="-109.5" font-family="Helvetica,sans-Serif" font-size="10.00">SRAMTimingConfig</text>
</a>
</g>
</g>
<!-- Node0&#45;&gt;Node2 -->
<g id="edge2" class="edge">
<title>Node0&#45;&gt;Node2</title>
<path fill="none" stroke="midnightblue" d="M120.03,-101.94C135.07,-104.15 151.12,-106.5 166.26,-108.73"/>
<polygon fill="midnightblue" stroke="midnightblue" points="120.2,-98.43 109.8,-100.44 119.19,-105.36 120.2,-98.43"/>
</g>
<!-- Node3 -->
<g id="node4" class="node">
<title>Node3</title>
<g id="a_node4"><a xlink:href="classhaldls_1_1vx_1_1_neuron_s_r_a_m_timing_config.html" target="_top" xlink:title=" ">
<polygon fill="white" stroke="black" points="156.44,-51.5 156.44,-83.5 311.34,-83.5 311.34,-51.5 156.44,-51.5"/>
<text text-anchor="start" x="164.44" y="-70.5" font-family="Helvetica,sans-Serif" font-size="10.00">haldls::vx::NeuronSRAMTiming</text>
<text text-anchor="middle" x="233.89" y="-58.5" font-family="Helvetica,sans-Serif" font-size="10.00">Config</text>
</a>
</g>
</g>
<!-- Node0&#45;&gt;Node3 -->
<g id="edge3" class="edge">
<title>Node0&#45;&gt;Node3</title>
<path fill="none" stroke="midnightblue" d="M119.97,-83.43C131.75,-81.77 144.15,-80.02 156.25,-78.31"/>
<polygon fill="midnightblue" stroke="midnightblue" points="119.21,-80 109.8,-84.86 120.19,-86.93 119.21,-80"/>
</g>
<!-- Node4 -->
<g id="node5" class="node">
<title>Node4</title>
<g id="a_node5"><a xlink:href="classhaldls_1_1vx_1_1_synapse_driver_s_r_a_m_timing_config.html" target="_top" xlink:title=" ">
<polygon fill="white" stroke="black" points="169.49,-0.5 169.49,-32.5 298.28,-32.5 298.28,-0.5 169.49,-0.5"/>
<text text-anchor="start" x="177.49" y="-19.5" font-family="Helvetica,sans-Serif" font-size="10.00">haldls::vx::SynapseDriver</text>
<text text-anchor="middle" x="233.89" y="-7.5" font-family="Helvetica,sans-Serif" font-size="10.00">SRAMTimingConfig</text>
</a>
</g>
</g>
<!-- Node0&#45;&gt;Node4 -->
<g id="edge4" class="edge">
<title>Node0&#45;&gt;Node4</title>
<path fill="none" stroke="midnightblue" d="M89.86,-71.09C106.22,-61.47 126.34,-50.5 145.33,-42.5 153.95,-38.87 163.25,-35.53 172.46,-32.54"/>
<polygon fill="midnightblue" stroke="midnightblue" points="87.98,-68.14 81.19,-76.28 91.57,-74.15 87.98,-68.14"/>
</g>
</g>
</svg>
