<?xml version="1.0" encoding="UTF-8" standalone="no"?>
<!DOCTYPE svg PUBLIC "-//W3C//DTD SVG 1.1//EN"
 "http://www.w3.org/Graphics/SVG/1.1/DTD/svg11.dtd">
<!-- Generated by graphviz version 2.46.0 (0)
 -->
<!-- Title: Graphical Class Hierarchy Pages: 1 -->
<svg width="314pt" height="641pt"
 viewBox="0.00 0.00 313.81 641.00" xmlns="http://www.w3.org/2000/svg" xmlns:xlink="http://www.w3.org/1999/xlink">
<g id="graph0" class="graph" transform="scale(1 1) rotate(0) translate(4 637)">
<title>Graphical Class Hierarchy</title>
<polygon fill="white" stroke="transparent" points="-4,4 -4,-637 309.81,-637 309.81,4 -4,4"/>
<!-- Node225 -->
<g id="node1" class="node">
<title>Node225</title>
<g id="a_node1"><a xlink:title=" ">
<polygon fill="white" stroke="#bfbfbf" points="0,-294.5 0,-326.5 113.24,-326.5 113.24,-294.5 0,-294.5"/>
<text text-anchor="start" x="8" y="-313.5" font-family="Helvetica,sans-Serif" font-size="10.00">halco::common::detail</text>
<text text-anchor="middle" x="56.62" y="-301.5" font-family="Helvetica,sans-Serif" font-size="10.00">::BaseType</text>
</a>
</g>
</g>
<!-- Node0 -->
<g id="node2" class="node">
<title>Node0</title>
<g id="a_node2"><a xlink:href="structhaldls_1_1vx_1_1_current_d_a_c_1_1_current.html" target="_top" xlink:title="Value of current DAC.">
<polygon fill="white" stroke="black" points="168.69,-600.5 168.69,-632.5 286.36,-632.5 286.36,-600.5 168.69,-600.5"/>
<text text-anchor="start" x="176.69" y="-619.5" font-family="Helvetica,sans-Serif" font-size="10.00">haldls::vx::CurrentDAC</text>
<text text-anchor="middle" x="227.52" y="-607.5" font-family="Helvetica,sans-Serif" font-size="10.00">::Current</text>
</a>
</g>
</g>
<!-- Node225&#45;&gt;Node0 -->
<g id="edge1" class="edge">
<title>Node225&#45;&gt;Node0</title>
<path fill="none" stroke="midnightblue" d="M58.56,-336.73C61.95,-391.74 77.56,-519.98 149.24,-591.5 154.73,-596.98 161.43,-601.26 168.56,-604.6"/>
<polygon fill="midnightblue" stroke="midnightblue" points="62.05,-336.55 58.03,-326.74 55.06,-336.92 62.05,-336.55"/>
</g>
<!-- Node227 -->
<g id="node3" class="node">
<title>Node227</title>
<g id="a_node3"><a xlink:href="structhaldls_1_1vx_1_1_external_p_p_u_memory_byte_1_1_value.html" target="_top" xlink:title=" ">
<polygon fill="white" stroke="black" points="149.24,-549.5 149.24,-581.5 305.81,-581.5 305.81,-549.5 149.24,-549.5"/>
<text text-anchor="start" x="157.24" y="-568.5" font-family="Helvetica,sans-Serif" font-size="10.00">haldls::vx::ExternalPPUMemory</text>
<text text-anchor="middle" x="227.52" y="-556.5" font-family="Helvetica,sans-Serif" font-size="10.00">Byte::Value</text>
</a>
</g>
</g>
<!-- Node225&#45;&gt;Node227 -->
<g id="edge2" class="edge">
<title>Node225&#45;&gt;Node227</title>
<path fill="none" stroke="midnightblue" d="M60.79,-336.87C67.88,-384.35 89.41,-484.51 149.24,-540.5 152.84,-543.87 156.91,-546.79 161.24,-549.31"/>
<polygon fill="midnightblue" stroke="midnightblue" points="64.23,-336.19 59.38,-326.77 57.29,-337.16 64.23,-336.19"/>
</g>
<!-- Node228 -->
<g id="node4" class="node">
<title>Node228</title>
<g id="a_node4"><a xlink:href="structhaldls_1_1vx_1_1_hicann_a_r_q_status_1_1_read_count.html" target="_top" xlink:title="Number of words submitted to the ARQ from the Chip.">
<polygon fill="white" stroke="black" points="155.34,-498.5 155.34,-530.5 299.7,-530.5 299.7,-498.5 155.34,-498.5"/>
<text text-anchor="start" x="163.34" y="-517.5" font-family="Helvetica,sans-Serif" font-size="10.00">haldls::vx::HicannARQStatus</text>
<text text-anchor="middle" x="227.52" y="-505.5" font-family="Helvetica,sans-Serif" font-size="10.00">::ReadCount</text>
</a>
</g>
</g>
<!-- Node225&#45;&gt;Node228 -->
<g id="edge3" class="edge">
<title>Node225&#45;&gt;Node228</title>
<path fill="none" stroke="midnightblue" d="M64.14,-336.76C75.12,-375.66 101.01,-448.44 149.24,-489.5 153.21,-492.88 157.65,-495.81 162.34,-498.34"/>
<polygon fill="midnightblue" stroke="midnightblue" points="67.41,-335.48 61.42,-326.74 60.66,-337.3 67.41,-335.48"/>
</g>
<!-- Node229 -->
<g id="node5" class="node">
<title>Node229</title>
<g id="a_node5"><a xlink:href="structhaldls_1_1vx_1_1_hicann_a_r_q_status_1_1_rx_count.html" target="_top" xlink:title="Number of words sent from the ARQ from the Chip to the FPGA.">
<polygon fill="white" stroke="black" points="155.34,-447.5 155.34,-479.5 299.7,-479.5 299.7,-447.5 155.34,-447.5"/>
<text text-anchor="start" x="163.34" y="-466.5" font-family="Helvetica,sans-Serif" font-size="10.00">haldls::vx::HicannARQStatus</text>
<text text-anchor="middle" x="227.52" y="-454.5" font-family="Helvetica,sans-Serif" font-size="10.00">::RxCount</text>
</a>
</g>
</g>
<!-- Node225&#45;&gt;Node229 -->
<g id="edge4" class="edge">
<title>Node225&#45;&gt;Node229</title>
<path fill="none" stroke="midnightblue" d="M69.51,-335.87C84.3,-364.74 112.17,-411.41 149.24,-438.5 153.91,-441.91 159.06,-444.87 164.43,-447.44"/>
<polygon fill="midnightblue" stroke="midnightblue" points="72.6,-334.21 65.01,-326.81 66.33,-337.32 72.6,-334.21"/>
</g>
<!-- Node230 -->
<g id="node6" class="node">
<title>Node230</title>
<g id="a_node6"><a xlink:href="structhaldls_1_1vx_1_1_hicann_a_r_q_status_1_1_tx_count.html" target="_top" xlink:title="Number of words sent from the ARQ from the FPGA to the Chip.">
<polygon fill="white" stroke="black" points="155.34,-396.5 155.34,-428.5 299.7,-428.5 299.7,-396.5 155.34,-396.5"/>
<text text-anchor="start" x="163.34" y="-415.5" font-family="Helvetica,sans-Serif" font-size="10.00">haldls::vx::HicannARQStatus</text>
<text text-anchor="middle" x="227.52" y="-403.5" font-family="Helvetica,sans-Serif" font-size="10.00">::TxCount</text>
</a>
</g>
</g>
<!-- Node225&#45;&gt;Node230 -->
<g id="edge5" class="edge">
<title>Node225&#45;&gt;Node230</title>
<path fill="none" stroke="midnightblue" d="M80.51,-334.13C97.99,-351.01 123.39,-373.18 149.24,-387.5 155.29,-390.85 161.85,-393.83 168.51,-396.46"/>
<polygon fill="midnightblue" stroke="midnightblue" points="82.64,-331.31 73.07,-326.79 77.73,-336.3 82.64,-331.31"/>
</g>
<!-- Node231 -->
<g id="node7" class="node">
<title>Node231</title>
<g id="a_node7"><a xlink:href="structhaldls_1_1vx_1_1_hicann_a_r_q_status_1_1_write_count.html" target="_top" xlink:title="Number of words submitted to the ARQ from the FPGA.">
<polygon fill="white" stroke="black" points="155.34,-345.5 155.34,-377.5 299.7,-377.5 299.7,-345.5 155.34,-345.5"/>
<text text-anchor="start" x="163.34" y="-364.5" font-family="Helvetica,sans-Serif" font-size="10.00">haldls::vx::HicannARQStatus</text>
<text text-anchor="middle" x="227.52" y="-352.5" font-family="Helvetica,sans-Serif" font-size="10.00">::WriteCount</text>
</a>
</g>
</g>
<!-- Node225&#45;&gt;Node231 -->
<g id="edge6" class="edge">
<title>Node225&#45;&gt;Node231</title>
<path fill="none" stroke="midnightblue" d="M121.05,-329.65C138.31,-334.86 156.81,-340.45 173.43,-345.47"/>
<polygon fill="midnightblue" stroke="midnightblue" points="121.65,-326.18 111.06,-326.64 119.62,-332.88 121.65,-326.18"/>
</g>
<!-- Node232 -->
<g id="node8" class="node">
<title>Node232</title>
<g id="a_node8"><a xlink:href="structhaldls_1_1vx_1_1_phy_status_1_1_c_r_c_error_count.html" target="_top" xlink:title="Number of CRC errors since last reset.">
<polygon fill="white" stroke="black" points="173.12,-294.5 173.12,-326.5 281.93,-326.5 281.93,-294.5 173.12,-294.5"/>
<text text-anchor="start" x="181.12" y="-313.5" font-family="Helvetica,sans-Serif" font-size="10.00">haldls::vx::PhyStatus</text>
<text text-anchor="middle" x="227.52" y="-301.5" font-family="Helvetica,sans-Serif" font-size="10.00">::CRCErrorCount</text>
</a>
</g>
</g>
<!-- Node225&#45;&gt;Node232 -->
<g id="edge7" class="edge">
<title>Node225&#45;&gt;Node232</title>
<path fill="none" stroke="midnightblue" d="M123.48,-310.5C139.92,-310.5 157.35,-310.5 173.1,-310.5"/>
<polygon fill="midnightblue" stroke="midnightblue" points="123.39,-307 113.39,-310.5 123.39,-314 123.39,-307"/>
</g>
<!-- Node233 -->
<g id="node9" class="node">
<title>Node233</title>
<g id="a_node9"><a xlink:href="structhaldls_1_1vx_1_1_phy_status_1_1_online_time.html" target="_top" xlink:title="Online time in cycles since last reset.">
<polygon fill="white" stroke="black" points="173.12,-243.5 173.12,-275.5 281.93,-275.5 281.93,-243.5 173.12,-243.5"/>
<text text-anchor="start" x="181.12" y="-262.5" font-family="Helvetica,sans-Serif" font-size="10.00">haldls::vx::PhyStatus</text>
<text text-anchor="middle" x="227.52" y="-250.5" font-family="Helvetica,sans-Serif" font-size="10.00">::OnlineTime</text>
</a>
</g>
</g>
<!-- Node225&#45;&gt;Node233 -->
<g id="edge8" class="edge">
<title>Node225&#45;&gt;Node233</title>
<path fill="none" stroke="midnightblue" d="M121.05,-291.35C138.31,-286.14 156.81,-280.55 173.43,-275.53"/>
<polygon fill="midnightblue" stroke="midnightblue" points="119.62,-288.12 111.06,-294.36 121.65,-294.82 119.62,-288.12"/>
</g>
<!-- Node234 -->
<g id="node10" class="node">
<title>Node234</title>
<g id="a_node10"><a xlink:href="structhaldls_1_1vx_1_1_phy_status_1_1_rx_count.html" target="_top" xlink:title="Number of rx words from Chip since last reset.">
<polygon fill="white" stroke="black" points="173.12,-192.5 173.12,-224.5 281.93,-224.5 281.93,-192.5 173.12,-192.5"/>
<text text-anchor="start" x="181.12" y="-211.5" font-family="Helvetica,sans-Serif" font-size="10.00">haldls::vx::PhyStatus</text>
<text text-anchor="middle" x="227.52" y="-199.5" font-family="Helvetica,sans-Serif" font-size="10.00">::RxCount</text>
</a>
</g>
</g>
<!-- Node225&#45;&gt;Node234 -->
<g id="edge9" class="edge">
<title>Node225&#45;&gt;Node234</title>
<path fill="none" stroke="midnightblue" d="M80.94,-286.98C98.45,-270.41 123.72,-248.72 149.24,-234.5 156.66,-230.36 164.85,-226.74 173.03,-223.61"/>
<polygon fill="midnightblue" stroke="midnightblue" points="78.23,-284.73 73.46,-294.19 83.09,-289.77 78.23,-284.73"/>
</g>
<!-- Node235 -->
<g id="node11" class="node">
<title>Node235</title>
<g id="a_node11"><a xlink:href="structhaldls_1_1vx_1_1_phy_status_1_1_rx_dropped_count.html" target="_top" xlink:title="Number of dropped rx words.">
<polygon fill="white" stroke="black" points="173.12,-141.5 173.12,-173.5 281.93,-173.5 281.93,-141.5 173.12,-141.5"/>
<text text-anchor="start" x="181.12" y="-160.5" font-family="Helvetica,sans-Serif" font-size="10.00">haldls::vx::PhyStatus</text>
<text text-anchor="middle" x="227.52" y="-148.5" font-family="Helvetica,sans-Serif" font-size="10.00">::RxDroppedCount</text>
</a>
</g>
</g>
<!-- Node225&#45;&gt;Node235 -->
<g id="edge10" class="edge">
<title>Node225&#45;&gt;Node235</title>
<path fill="none" stroke="midnightblue" d="M69.62,-285.41C84.5,-256.83 112.47,-210.6 149.24,-183.5 156.31,-178.29 164.48,-174.08 172.82,-170.69"/>
<polygon fill="midnightblue" stroke="midnightblue" points="66.48,-283.87 65.08,-294.37 72.72,-287.03 66.48,-283.87"/>
</g>
<!-- Node236 -->
<g id="node12" class="node">
<title>Node236</title>
<g id="a_node12"><a xlink:href="structhaldls_1_1vx_1_1_phy_status_1_1_tx_count.html" target="_top" xlink:title="Number of tx words to Chip since last reset.">
<polygon fill="white" stroke="black" points="173.12,-90.5 173.12,-122.5 281.93,-122.5 281.93,-90.5 173.12,-90.5"/>
<text text-anchor="start" x="181.12" y="-109.5" font-family="Helvetica,sans-Serif" font-size="10.00">haldls::vx::PhyStatus</text>
<text text-anchor="middle" x="227.52" y="-97.5" font-family="Helvetica,sans-Serif" font-size="10.00">::TxCount</text>
</a>
</g>
</g>
<!-- Node225&#45;&gt;Node236 -->
<g id="edge11" class="edge">
<title>Node225&#45;&gt;Node236</title>
<path fill="none" stroke="midnightblue" d="M64.24,-284.46C75.36,-245.86 101.42,-173.61 149.24,-132.5 156.11,-126.59 164.38,-122.02 172.91,-118.47"/>
<polygon fill="midnightblue" stroke="midnightblue" points="60.78,-283.83 61.49,-294.4 67.53,-285.69 60.78,-283.83"/>
</g>
<!-- Node237 -->
<g id="node13" class="node">
<title>Node237</title>
<g id="a_node13"><a xlink:href="structhaldls_1_1vx_1_1_spike_label.html" target="_top" xlink:title=" ">
<polygon fill="white" stroke="black" points="171.18,-51.5 171.18,-71.5 283.87,-71.5 283.87,-51.5 171.18,-51.5"/>
<text text-anchor="middle" x="227.52" y="-58.5" font-family="Helvetica,sans-Serif" font-size="10.00">haldls::vx::SpikeLabel</text>
</a>
</g>
</g>
<!-- Node225&#45;&gt;Node237 -->
<g id="edge12" class="edge">
<title>Node225&#45;&gt;Node237</title>
<path fill="none" stroke="midnightblue" d="M60.45,-284.24C67.04,-236.53 87.81,-135.57 149.24,-81.5 155.48,-76.01 163.04,-71.99 170.96,-69.06"/>
<polygon fill="midnightblue" stroke="midnightblue" points="56.96,-284.01 59.16,-294.37 63.9,-284.9 56.96,-284.01"/>
</g>
<!-- Node238 -->
<g id="node14" class="node">
<title>Node238</title>
<g id="a_node14"><a xlink:href="structhaldls_1_1vx_1_1_timer_1_1_value.html" target="_top" xlink:title=" ">
<polygon fill="white" stroke="black" points="180.36,-0.5 180.36,-32.5 274.69,-32.5 274.69,-0.5 180.36,-0.5"/>
<text text-anchor="start" x="188.36" y="-19.5" font-family="Helvetica,sans-Serif" font-size="10.00">haldls::vx::Timer::</text>
<text text-anchor="middle" x="227.52" y="-7.5" font-family="Helvetica,sans-Serif" font-size="10.00">Value</text>
</a>
</g>
</g>
<!-- Node225&#45;&gt;Node238 -->
<g id="edge13" class="edge">
<title>Node225&#45;&gt;Node238</title>
<path fill="none" stroke="midnightblue" d="M59.13,-284.1C63.59,-230.95 81.07,-110.34 149.24,-42.5 157.67,-34.11 168.89,-28.43 180.16,-24.58"/>
<polygon fill="midnightblue" stroke="midnightblue" points="55.62,-284.15 58.36,-294.38 62.6,-284.67 55.62,-284.15"/>
</g>
</g>
</svg>
