<?xml version="1.0" encoding="UTF-8" standalone="no"?>
<!DOCTYPE svg PUBLIC "-//W3C//DTD SVG 1.1//EN"
 "http://www.w3.org/Graphics/SVG/1.1/DTD/svg11.dtd">
<!-- Generated by graphviz version 2.46.0 (0)
 -->
<!-- Title: Graphical Class Hierarchy Pages: 1 -->
<svg width="434pt" height="89pt"
 viewBox="0.00 0.00 434.13 89.00" xmlns="http://www.w3.org/2000/svg" xmlns:xlink="http://www.w3.org/1999/xlink">
<g id="graph0" class="graph" transform="scale(1 1) rotate(0) translate(4 85)">
<title>Graphical Class Hierarchy</title>
<polygon fill="white" stroke="transparent" points="-4,4 -4,-85 430.13,-85 430.13,4 -4,4"/>
<!-- Node0 -->
<g id="node1" class="node">
<title>Node0</title>
<g id="a_node1"><a xlink:href="structhaldls_1_1vx_1_1detail_1_1_backend_container_base.html" target="_top" xlink:title=" ">
<polygon fill="white" stroke="black" points="0,-0.5 0,-80.5 220.76,-80.5 220.76,-0.5 0,-0.5"/>
<text text-anchor="start" x="8" y="-67.5" font-family="Helvetica,sans-Serif" font-size="10.00">haldls::vx::detail</text>
<text text-anchor="start" x="8" y="-55.5" font-family="Helvetica,sans-Serif" font-size="10.00">::BackendContainerBase</text>
<text text-anchor="start" x="8" y="-43.5" font-family="Helvetica,sans-Serif" font-size="10.00">&lt; CapMemBlock&lt; Coordinates</text>
<text text-anchor="start" x="8" y="-31.5" font-family="Helvetica,sans-Serif" font-size="10.00"> &gt;, fisch::vx::word_access</text>
<text text-anchor="start" x="8" y="-19.5" font-family="Helvetica,sans-Serif" font-size="10.00">_type::Omnibus, fisch::vx::</text>
<text text-anchor="middle" x="110.38" y="-7.5" font-family="Helvetica,sans-Serif" font-size="10.00">word_access_type::OmnibusChipOverJTAG &gt;</text>
</a>
</g>
</g>
<!-- Node1 -->
<g id="node2" class="node">
<title>Node1</title>
<g id="a_node2"><a xlink:href="structhaldls_1_1vx_1_1detail_1_1_backend_container_trait_3_01_cap_mem_block_3_01_coordinates_01_4_01_4.html" target="_top" xlink:title=" ">
<polygon fill="white" stroke="black" points="256.76,-18.5 256.76,-62.5 426.13,-62.5 426.13,-18.5 256.76,-18.5"/>
<text text-anchor="start" x="264.76" y="-49.5" font-family="Helvetica,sans-Serif" font-size="10.00">haldls::vx::detail</text>
<text text-anchor="start" x="264.76" y="-37.5" font-family="Helvetica,sans-Serif" font-size="10.00">::BackendContainerTrait</text>
<text text-anchor="middle" x="341.45" y="-25.5" font-family="Helvetica,sans-Serif" font-size="10.00">&lt; CapMemBlock&lt; Coordinates &gt; &gt;</text>
</a>
</g>
</g>
<!-- Node0&#45;&gt;Node1 -->
<g id="edge1" class="edge">
<title>Node0&#45;&gt;Node1</title>
<path fill="none" stroke="midnightblue" d="M230.98,-40.5C239.58,-40.5 248.14,-40.5 256.47,-40.5"/>
<polygon fill="midnightblue" stroke="midnightblue" points="230.88,-37 220.88,-40.5 230.88,-44 230.88,-37"/>
</g>
</g>
</svg>
