<?xml version="1.0" encoding="UTF-8" standalone="no"?>
<!DOCTYPE svg PUBLIC "-//W3C//DTD SVG 1.1//EN"
 "http://www.w3.org/Graphics/SVG/1.1/DTD/svg11.dtd">
<!-- Generated by graphviz version 2.46.0 (0)
 -->
<!-- Title: Graphical Class Hierarchy Pages: 1 -->
<svg width="294pt" height="65pt"
 viewBox="0.00 0.00 294.39 65.00" xmlns="http://www.w3.org/2000/svg" xmlns:xlink="http://www.w3.org/1999/xlink">
<g id="graph0" class="graph" transform="scale(1 1) rotate(0) translate(4 61)">
<title>Graphical Class Hierarchy</title>
<polygon fill="white" stroke="transparent" points="-4,4 -4,-61 290.39,-61 290.39,4 -4,4"/>
<!-- Node0 -->
<g id="node1" class="node">
<title>Node0</title>
<g id="a_node1"><a xlink:href="structhaldls_1_1vx_1_1detail_1_1_backend_container_base.html" target="_top" xlink:title=" ">
<polygon fill="white" stroke="black" points="0,-0.5 0,-56.5 126.59,-56.5 126.59,-0.5 0,-0.5"/>
<text text-anchor="start" x="8" y="-43.5" font-family="Helvetica,sans-Serif" font-size="10.00">haldls::vx::detail</text>
<text text-anchor="start" x="8" y="-31.5" font-family="Helvetica,sans-Serif" font-size="10.00">::BackendContainerBase</text>
<text text-anchor="start" x="8" y="-19.5" font-family="Helvetica,sans-Serif" font-size="10.00">&lt; Timer, fisch::vx::word</text>
<text text-anchor="middle" x="63.3" y="-7.5" font-family="Helvetica,sans-Serif" font-size="10.00">_access_type::Timer &gt;</text>
</a>
</g>
</g>
<!-- Node1 -->
<g id="node2" class="node">
<title>Node1</title>
<g id="a_node2"><a xlink:href="structhaldls_1_1vx_1_1detail_1_1_backend_container_trait_3_01_timer_01_4.html" target="_top" xlink:title=" ">
<polygon fill="white" stroke="black" points="162.59,-6.5 162.59,-50.5 286.39,-50.5 286.39,-6.5 162.59,-6.5"/>
<text text-anchor="start" x="170.59" y="-37.5" font-family="Helvetica,sans-Serif" font-size="10.00">haldls::vx::detail</text>
<text text-anchor="start" x="170.59" y="-25.5" font-family="Helvetica,sans-Serif" font-size="10.00">::BackendContainerTrait</text>
<text text-anchor="middle" x="224.49" y="-13.5" font-family="Helvetica,sans-Serif" font-size="10.00">&lt; Timer &gt;</text>
</a>
</g>
</g>
<!-- Node0&#45;&gt;Node1 -->
<g id="edge1" class="edge">
<title>Node0&#45;&gt;Node1</title>
<path fill="none" stroke="midnightblue" d="M136.78,-28.5C145.38,-28.5 154.09,-28.5 162.51,-28.5"/>
<polygon fill="midnightblue" stroke="midnightblue" points="136.76,-25 126.76,-28.5 136.76,-32 136.76,-25"/>
</g>
</g>
</svg>
