<?xml version="1.0" encoding="UTF-8" standalone="no"?>
<!DOCTYPE svg PUBLIC "-//W3C//DTD SVG 1.1//EN"
 "http://www.w3.org/Graphics/SVG/1.1/DTD/svg11.dtd">
<!-- Generated by graphviz version 2.46.0 (0)
 -->
<!-- Title: Graphical Class Hierarchy Pages: 1 -->
<svg width="346pt" height="77pt"
 viewBox="0.00 0.00 345.77 77.00" xmlns="http://www.w3.org/2000/svg" xmlns:xlink="http://www.w3.org/1999/xlink">
<g id="graph0" class="graph" transform="scale(1 1) rotate(0) translate(4 73)">
<title>Graphical Class Hierarchy</title>
<polygon fill="white" stroke="transparent" points="-4,4 -4,-73 341.77,-73 341.77,4 -4,4"/>
<!-- Node0 -->
<g id="node1" class="node">
<title>Node0</title>
<g id="a_node1"><a xlink:href="structhaldls_1_1vx_1_1detail_1_1_backend_container_base.html" target="_top" xlink:title=" ">
<polygon fill="white" stroke="black" points="0,-0.5 0,-68.5 147.96,-68.5 147.96,-0.5 0,-0.5"/>
<text text-anchor="start" x="8" y="-55.5" font-family="Helvetica,sans-Serif" font-size="10.00">haldls::vx::detail</text>
<text text-anchor="start" x="8" y="-43.5" font-family="Helvetica,sans-Serif" font-size="10.00">::BackendContainerBase</text>
<text text-anchor="start" x="8" y="-31.5" font-family="Helvetica,sans-Serif" font-size="10.00">&lt; VectorGeneratorFIFOWord,</text>
<text text-anchor="start" x="8" y="-19.5" font-family="Helvetica,sans-Serif" font-size="10.00"> fisch::vx::word_access_type</text>
<text text-anchor="middle" x="73.98" y="-7.5" font-family="Helvetica,sans-Serif" font-size="10.00">::Omnibus &gt;</text>
</a>
</g>
</g>
<!-- Node1 -->
<g id="node2" class="node">
<title>Node1</title>
<g id="a_node2"><a xlink:href="structhaldls_1_1vx_1_1detail_1_1_backend_container_trait_3_01_vector_generator_f_i_f_o_word_01_4.html" target="_top" xlink:title=" ">
<polygon fill="white" stroke="black" points="183.96,-12.5 183.96,-56.5 337.77,-56.5 337.77,-12.5 183.96,-12.5"/>
<text text-anchor="start" x="191.96" y="-43.5" font-family="Helvetica,sans-Serif" font-size="10.00">haldls::vx::detail</text>
<text text-anchor="start" x="191.96" y="-31.5" font-family="Helvetica,sans-Serif" font-size="10.00">::BackendContainerTrait</text>
<text text-anchor="middle" x="260.87" y="-19.5" font-family="Helvetica,sans-Serif" font-size="10.00">&lt; VectorGeneratorFIFOWord &gt;</text>
</a>
</g>
</g>
<!-- Node0&#45;&gt;Node1 -->
<g id="edge1" class="edge">
<title>Node0&#45;&gt;Node1</title>
<path fill="none" stroke="midnightblue" d="M158.3,-34.5C166.75,-34.5 175.31,-34.5 183.68,-34.5"/>
<polygon fill="midnightblue" stroke="midnightblue" points="158.05,-31 148.05,-34.5 158.05,-38 158.05,-31"/>
</g>
</g>
</svg>
