<?xml version="1.0" encoding="UTF-8" standalone="no"?>
<!DOCTYPE svg PUBLIC "-//W3C//DTD SVG 1.1//EN"
 "http://www.w3.org/Graphics/SVG/1.1/DTD/svg11.dtd">
<!-- Generated by graphviz version 2.46.0 (0)
 -->
<!-- Title: /jenkins/jenlib_workspaces_f9/bld_nightly&#45;haldls.YmxkX25pZ2h0bHktaGFsZGxzIzEzNzk.x/haldls/include/haldls/vx/madc.h Pages: 1 -->
<svg width="1248pt" height="398pt"
 viewBox="0.00 0.00 1248.07 398.00" xmlns="http://www.w3.org/2000/svg" xmlns:xlink="http://www.w3.org/1999/xlink">
<g id="graph0" class="graph" transform="scale(1 1) rotate(0) translate(4 394)">
<title>/jenkins/jenlib_workspaces_f9/bld_nightly&#45;haldls.YmxkX25pZ2h0bHktaGFsZGxzIzEzNzk.x/haldls/include/haldls/vx/madc.h</title>
<polygon fill="white" stroke="transparent" points="-4,4 -4,-394 1244.07,-394 1244.07,4 -4,4"/>
<!-- Node1 -->
<g id="node1" class="node">
<title>Node1</title>
<g id="a_node1"><a xlink:title=" ">
<polygon fill="#bfbfbf" stroke="black" points="361.49,-333.5 361.49,-389.5 542.51,-389.5 542.51,-333.5 361.49,-333.5"/>
<text text-anchor="start" x="369.49" y="-376.5" font-family="Helvetica,sans-Serif" font-size="10.00">/jenkins/jenlib_workspaces</text>
<text text-anchor="start" x="369.49" y="-364.5" font-family="Helvetica,sans-Serif" font-size="10.00">_f9/bld_nightly&#45;haldls.YmxkX25p</text>
<text text-anchor="start" x="369.49" y="-352.5" font-family="Helvetica,sans-Serif" font-size="10.00">Z2h0bHktaGFsZGxzIzEzNzk.x/haldls</text>
<text text-anchor="middle" x="452" y="-340.5" font-family="Helvetica,sans-Serif" font-size="10.00">/include/haldls/vx/madc.h</text>
</a>
</g>
</g>
<!-- Node2 -->
<g id="node2" class="node">
<title>Node2</title>
<g id="a_node2"><a xlink:title=" ">
<polygon fill="white" stroke="#bfbfbf" points="250.61,-75.5 250.61,-95.5 289.39,-95.5 289.39,-75.5 250.61,-75.5"/>
<text text-anchor="middle" x="270" y="-82.5" font-family="Helvetica,sans-Serif" font-size="10.00">array</text>
</a>
</g>
</g>
<!-- Node1&#45;&gt;Node2 -->
<g id="edge1" class="edge">
<title>Node1&#45;&gt;Node2</title>
<path fill="none" stroke="midnightblue" d="M361.41,-357.94C263.34,-353.02 116.18,-338.71 81,-297 16.57,-220.6 173.99,-132.65 241.28,-99.79"/>
<polygon fill="midnightblue" stroke="midnightblue" points="243.02,-102.84 250.51,-95.35 239.98,-96.53 243.02,-102.84"/>
</g>
<!-- Node3 -->
<g id="node3" class="node">
<title>Node3</title>
<g id="a_node3"><a xlink:title=" ">
<polygon fill="white" stroke="#bfbfbf" points="3.83,-6.5 3.83,-26.5 48.17,-26.5 48.17,-6.5 3.83,-6.5"/>
<text text-anchor="middle" x="26" y="-13.5" font-family="Helvetica,sans-Serif" font-size="10.00">iosfwd</text>
</a>
</g>
</g>
<!-- Node1&#45;&gt;Node3 -->
<g id="edge2" class="edge">
<title>Node1&#45;&gt;Node3</title>
<path fill="none" stroke="midnightblue" d="M361.35,-353.57C262.49,-344.65 111.83,-326.67 63,-297 22.97,-272.68 0,-259.34 0,-212.5 0,-212.5 0,-212.5 0,-147.5 0,-107.2 12.16,-61.21 19.85,-36.17"/>
<polygon fill="midnightblue" stroke="midnightblue" points="23.23,-37.11 22.92,-26.52 16.55,-34.99 23.23,-37.11"/>
</g>
<!-- Node4 -->
<g id="node4" class="node">
<title>Node4</title>
<g id="a_node4"><a xlink:title=" ">
<polygon fill="white" stroke="#bfbfbf" points="269.88,-195.5 269.88,-227.5 378.12,-227.5 378.12,-195.5 269.88,-195.5"/>
<text text-anchor="start" x="277.88" y="-214.5" font-family="Helvetica,sans-Serif" font-size="10.00">halco/common/typed</text>
<text text-anchor="middle" x="324" y="-202.5" font-family="Helvetica,sans-Serif" font-size="10.00">_array.h</text>
</a>
</g>
</g>
<!-- Node1&#45;&gt;Node4 -->
<g id="edge3" class="edge">
<title>Node1&#45;&gt;Node4</title>
<path fill="none" stroke="midnightblue" d="M361.38,-357.22C267.02,-351.68 128.35,-336.81 95,-297 46.6,-239.23 175.95,-220.95 259.45,-215.17"/>
<polygon fill="midnightblue" stroke="midnightblue" points="259.89,-218.65 269.64,-214.51 259.44,-211.66 259.89,-218.65"/>
</g>
<!-- Node5 -->
<g id="node5" class="node">
<title>Node5</title>
<g id="a_node5"><a xlink:title=" ">
<polygon fill="white" stroke="#bfbfbf" points="104.49,-264.5 104.49,-296.5 205.51,-296.5 205.51,-264.5 104.49,-264.5"/>
<text text-anchor="start" x="112.49" y="-283.5" font-family="Helvetica,sans-Serif" font-size="10.00">halco/hicann&#45;dls/vx</text>
<text text-anchor="middle" x="155" y="-271.5" font-family="Helvetica,sans-Serif" font-size="10.00">/chip.h</text>
</a>
</g>
</g>
<!-- Node1&#45;&gt;Node5 -->
<g id="edge4" class="edge">
<title>Node1&#45;&gt;Node5</title>
<path fill="none" stroke="midnightblue" d="M361.28,-336.37C314.06,-323.81 257.6,-308.79 215.7,-297.65"/>
<polygon fill="midnightblue" stroke="midnightblue" points="216.48,-294.23 205.91,-295.04 214.68,-301 216.48,-294.23"/>
</g>
<!-- Node6 -->
<g id="node6" class="node">
<title>Node6</title>
<g id="a_node6"><a xlink:title=" ">
<polygon fill="white" stroke="#bfbfbf" points="223.49,-264.5 223.49,-296.5 324.51,-296.5 324.51,-264.5 223.49,-264.5"/>
<text text-anchor="start" x="231.49" y="-283.5" font-family="Helvetica,sans-Serif" font-size="10.00">halco/hicann&#45;dls/vx</text>
<text text-anchor="middle" x="274" y="-271.5" font-family="Helvetica,sans-Serif" font-size="10.00">/madc.h</text>
</a>
</g>
</g>
<!-- Node1&#45;&gt;Node6 -->
<g id="edge5" class="edge">
<title>Node1&#45;&gt;Node6</title>
<path fill="none" stroke="midnightblue" d="M390.74,-333.31C366.56,-322.58 339.35,-310.5 317.29,-300.71"/>
<polygon fill="midnightblue" stroke="midnightblue" points="318.41,-297.38 307.85,-296.52 315.57,-303.78 318.41,-297.38"/>
</g>
<!-- Node7 -->
<g id="node7" class="node">
<title>Node7</title>
<g id="a_node7"><a xlink:title=" ">
<polygon fill="white" stroke="#bfbfbf" points="342.49,-264.5 342.49,-296.5 443.51,-296.5 443.51,-264.5 342.49,-264.5"/>
<text text-anchor="start" x="350.49" y="-283.5" font-family="Helvetica,sans-Serif" font-size="10.00">halco/hicann&#45;dls/vx</text>
<text text-anchor="middle" x="393" y="-271.5" font-family="Helvetica,sans-Serif" font-size="10.00">/readout.h</text>
</a>
</g>
</g>
<!-- Node1&#45;&gt;Node7 -->
<g id="edge6" class="edge">
<title>Node1&#45;&gt;Node7</title>
<path fill="none" stroke="midnightblue" d="M431.7,-333.31C424.72,-323.98 416.99,-313.62 410.28,-304.64"/>
<polygon fill="midnightblue" stroke="midnightblue" points="413.01,-302.44 404.22,-296.52 407.4,-306.63 413.01,-302.44"/>
</g>
<!-- Node8 -->
<g id="node8" class="node">
<title>Node8</title>
<g id="a_node8"><a xlink:title=" ">
<polygon fill="white" stroke="#bfbfbf" points="461.49,-264.5 461.49,-296.5 562.51,-296.5 562.51,-264.5 461.49,-264.5"/>
<text text-anchor="start" x="469.49" y="-283.5" font-family="Helvetica,sans-Serif" font-size="10.00">halco/hicann&#45;dls/vx</text>
<text text-anchor="middle" x="512" y="-271.5" font-family="Helvetica,sans-Serif" font-size="10.00">/synapse.h</text>
</a>
</g>
</g>
<!-- Node1&#45;&gt;Node8 -->
<g id="edge7" class="edge">
<title>Node1&#45;&gt;Node8</title>
<path fill="none" stroke="midnightblue" d="M472.65,-333.31C479.74,-323.98 487.6,-313.62 494.43,-304.64"/>
<polygon fill="midnightblue" stroke="midnightblue" points="497.33,-306.61 500.59,-296.52 491.75,-302.37 497.33,-306.61"/>
</g>
<!-- Node9 -->
<g id="node9" class="node">
<title>Node9</title>
<g id="a_node9"><a xlink:href="cerealization_8h.html" target="_top" xlink:title=" ">
<polygon fill="white" stroke="black" points="345.32,-75.5 345.32,-95.5 454.68,-95.5 454.68,-75.5 345.32,-75.5"/>
<text text-anchor="middle" x="400" y="-82.5" font-family="Helvetica,sans-Serif" font-size="10.00">haldls/cerealization.h</text>
</a>
</g>
</g>
<!-- Node1&#45;&gt;Node9 -->
<g id="edge8" class="edge">
<title>Node1&#45;&gt;Node9</title>
<path fill="none" stroke="midnightblue" d="M527.18,-333.35C560.12,-316.77 588.07,-293.15 572,-264 557.54,-237.76 537.41,-247.89 515,-228 471.18,-189.11 430.61,-132.49 411.5,-104.11"/>
<polygon fill="midnightblue" stroke="midnightblue" points="414.31,-102.02 405.87,-95.63 408.48,-105.9 414.31,-102.02"/>
</g>
<!-- Node11 -->
<g id="node11" class="node">
<title>Node11</title>
<g id="a_node11"><a xlink:title=" ">
<polygon fill="white" stroke="#bfbfbf" points="1010.5,-6.5 1010.5,-26.5 1091.5,-26.5 1091.5,-6.5 1010.5,-6.5"/>
<text text-anchor="middle" x="1051" y="-13.5" font-family="Helvetica,sans-Serif" font-size="10.00">hate/visibility.h</text>
</a>
</g>
</g>
<!-- Node1&#45;&gt;Node11 -->
<g id="edge48" class="edge">
<title>Node1&#45;&gt;Node11</title>
<path fill="none" stroke="midnightblue" d="M542.85,-360.8C737.65,-359 1178,-340.73 1178,-212.5 1178,-212.5 1178,-212.5 1178,-147.5 1178,-91.8 1117.6,-51.1 1080.11,-31.2"/>
<polygon fill="midnightblue" stroke="midnightblue" points="1081.62,-28.04 1071.12,-26.59 1078.43,-34.27 1081.62,-28.04"/>
</g>
<!-- Node14 -->
<g id="node14" class="node">
<title>Node14</title>
<g id="a_node14"><a xlink:href="genpybind_8h.html" target="_top" xlink:title=" ">
<polygon fill="white" stroke="black" points="1109.93,-6.5 1109.93,-26.5 1222.07,-26.5 1222.07,-6.5 1109.93,-6.5"/>
<text text-anchor="middle" x="1166" y="-13.5" font-family="Helvetica,sans-Serif" font-size="10.00">haldls/vx/genpybind.h</text>
</a>
</g>
</g>
<!-- Node1&#45;&gt;Node14 -->
<g id="edge14" class="edge">
<title>Node1&#45;&gt;Node14</title>
<path fill="none" stroke="midnightblue" d="M542.71,-359.62C703.18,-356.82 1029.86,-345.18 1132,-297 1179.89,-274.41 1216,-265.45 1216,-212.5 1216,-212.5 1216,-212.5 1216,-147.5 1216,-105.02 1192.45,-59.62 1177.68,-35.32"/>
<polygon fill="midnightblue" stroke="midnightblue" points="1180.62,-33.41 1172.33,-26.81 1174.69,-37.14 1180.62,-33.41"/>
</g>
<!-- Node15 -->
<g id="node15" class="node">
<title>Node15</title>
<g id="a_node15"><a xlink:href="pll_8h.html" target="_top" xlink:title=" ">
<polygon fill="white" stroke="black" points="657,-270.5 657,-290.5 733,-290.5 733,-270.5 657,-270.5"/>
<text text-anchor="middle" x="695" y="-277.5" font-family="Helvetica,sans-Serif" font-size="10.00">haldls/vx/pll.h</text>
</a>
</g>
</g>
<!-- Node1&#45;&gt;Node15 -->
<g id="edge16" class="edge">
<title>Node1&#45;&gt;Node15</title>
<path fill="none" stroke="midnightblue" d="M535.29,-333.42C576.87,-319.9 625.11,-304.22 657.6,-293.66"/>
<polygon fill="midnightblue" stroke="midnightblue" points="658.72,-296.97 667.15,-290.55 656.56,-290.32 658.72,-296.97"/>
</g>
<!-- Node22 -->
<g id="node22" class="node">
<title>Node22</title>
<g id="a_node22"><a xlink:href="traits_8h.html" target="_top" xlink:title=" ">
<polygon fill="white" stroke="black" points="473.16,-75.5 473.16,-95.5 560.84,-95.5 560.84,-75.5 473.16,-75.5"/>
<text text-anchor="middle" x="517" y="-82.5" font-family="Helvetica,sans-Serif" font-size="10.00">haldls/vx/traits.h</text>
</a>
</g>
</g>
<!-- Node1&#45;&gt;Node22 -->
<g id="edge47" class="edge">
<title>Node1&#45;&gt;Node22</title>
<path fill="none" stroke="midnightblue" d="M542.68,-335.6C560.63,-326.41 577.22,-313.93 588,-297 629.23,-232.25 563.43,-140.93 532.1,-103.51"/>
<polygon fill="midnightblue" stroke="midnightblue" points="534.47,-100.9 525.31,-95.59 529.16,-105.45 534.47,-100.9"/>
</g>
<!-- Node9&#45;&gt;Node3 -->
<g id="edge12" class="edge">
<title>Node9&#45;&gt;Node3</title>
<path fill="none" stroke="midnightblue" d="M362.52,-75.44C352.33,-73.15 341.27,-70.83 331,-69 210.51,-47.57 175.24,-68.12 58,-33 55.84,-32.35 53.64,-31.57 51.46,-30.71"/>
<polygon fill="midnightblue" stroke="midnightblue" points="52.76,-27.46 42.2,-26.59 49.91,-33.86 52.76,-27.46"/>
</g>
<!-- Node10 -->
<g id="node10" class="node">
<title>Node10</title>
<g id="a_node10"><a xlink:title=" ">
<polygon fill="white" stroke="#bfbfbf" points="246.38,-6.5 246.38,-26.5 329.62,-26.5 329.62,-6.5 246.38,-6.5"/>
<text text-anchor="middle" x="288" y="-13.5" font-family="Helvetica,sans-Serif" font-size="10.00">hate/type_list.h</text>
</a>
</g>
</g>
<!-- Node9&#45;&gt;Node10 -->
<g id="edge9" class="edge">
<title>Node9&#45;&gt;Node10</title>
<path fill="none" stroke="midnightblue" d="M384.9,-75.46C366.19,-64.28 334.1,-45.08 312.01,-31.86"/>
<polygon fill="midnightblue" stroke="midnightblue" points="313.6,-28.74 303.22,-26.61 310.01,-34.74 313.6,-28.74"/>
</g>
<!-- Node9&#45;&gt;Node11 -->
<g id="edge10" class="edge">
<title>Node9&#45;&gt;Node11</title>
<path fill="none" stroke="midnightblue" d="M432.67,-75.45C442.66,-72.99 453.72,-70.58 464,-69 700.88,-32.66 766.51,-77.46 1002,-33 1006.79,-32.1 1011.77,-30.87 1016.63,-29.51"/>
<polygon fill="midnightblue" stroke="midnightblue" points="1017.81,-32.81 1026.37,-26.56 1015.78,-26.11 1017.81,-32.81"/>
</g>
<!-- Node12 -->
<g id="node12" class="node">
<title>Node12</title>
<g id="a_node12"><a xlink:title=" ">
<polygon fill="white" stroke="#bfbfbf" points="66.55,-6.5 66.55,-26.5 111.45,-26.5 111.45,-6.5 66.55,-6.5"/>
<text text-anchor="middle" x="89" y="-13.5" font-family="Helvetica,sans-Serif" font-size="10.00">cstdint</text>
</a>
</g>
</g>
<!-- Node9&#45;&gt;Node12 -->
<g id="edge11" class="edge">
<title>Node9&#45;&gt;Node12</title>
<path fill="none" stroke="midnightblue" d="M361.39,-75.46C351.5,-73.25 340.88,-70.95 331,-69 238.11,-50.62 211.17,-61.93 121,-33 119.06,-32.38 117.09,-31.66 115.13,-30.88"/>
<polygon fill="midnightblue" stroke="midnightblue" points="116.13,-27.49 105.57,-26.62 113.28,-33.89 116.13,-27.49"/>
</g>
<!-- Node13 -->
<g id="node13" class="node">
<title>Node13</title>
<g id="a_node13"><a xlink:title=" ">
<polygon fill="white" stroke="#bfbfbf" points="129.88,-6.5 129.88,-26.5 228.12,-26.5 228.12,-6.5 129.88,-6.5"/>
<text text-anchor="middle" x="179" y="-13.5" font-family="Helvetica,sans-Serif" font-size="10.00">cereal/macros.hpp</text>
</a>
</g>
</g>
<!-- Node9&#45;&gt;Node13 -->
<g id="edge13" class="edge">
<title>Node9&#45;&gt;Node13</title>
<path fill="none" stroke="midnightblue" d="M370.19,-75.46C331.06,-63.6 262.25,-42.74 218.72,-29.54"/>
<polygon fill="midnightblue" stroke="midnightblue" points="219.62,-26.16 209.04,-26.61 217.59,-32.86 219.62,-26.16"/>
</g>
<!-- Node14&#45;&gt;Node14 -->
<g id="edge15" class="edge">
<title>Node14&#45;&gt;Node14</title>
<path fill="none" stroke="midnightblue" d="M1189.9,-26.54C1213.72,-32.26 1240.07,-28.92 1240.07,-16.5 1240.07,-5.78 1220.43,-1.82 1199.74,-4.62"/>
<polygon fill="midnightblue" stroke="midnightblue" points="1199.08,-1.18 1189.9,-6.46 1200.37,-8.06 1199.08,-1.18"/>
</g>
<!-- Node15&#45;&gt;Node2 -->
<g id="edge17" class="edge">
<title>Node15&#45;&gt;Node2</title>
<path fill="none" stroke="midnightblue" d="M685.07,-270.36C666.15,-253.36 623.05,-216.66 581,-195 461.8,-133.6 415.12,-159.52 294,-102 293.18,-101.61 292.35,-101.19 291.52,-100.76"/>
<polygon fill="midnightblue" stroke="midnightblue" points="293.24,-97.71 282.85,-95.67 289.7,-103.75 293.24,-97.71"/>
</g>
<!-- Node15&#45;&gt;Node3 -->
<g id="edge18" class="edge">
<title>Node15&#45;&gt;Node3</title>
<path fill="none" stroke="midnightblue" d="M669.51,-270.49C582.87,-239.67 292.08,-134.78 58,-33 56.44,-32.32 54.85,-31.61 53.25,-30.88"/>
<polygon fill="midnightblue" stroke="midnightblue" points="54.7,-27.7 44.16,-26.61 51.72,-34.03 54.7,-27.7"/>
</g>
<!-- Node15&#45;&gt;Node4 -->
<g id="edge20" class="edge">
<title>Node15&#45;&gt;Node4</title>
<path fill="none" stroke="midnightblue" d="M656.69,-272.58C593.26,-261.13 465.75,-238.1 388.32,-224.12"/>
<polygon fill="midnightblue" stroke="midnightblue" points="388.66,-220.62 378.2,-222.29 387.42,-227.51 388.66,-220.62"/>
</g>
<!-- Node15&#45;&gt;Node9 -->
<g id="edge22" class="edge">
<title>Node15&#45;&gt;Node9</title>
<path fill="none" stroke="midnightblue" d="M690.25,-270.26C676.77,-245 635.71,-174.23 581,-138 569.63,-130.47 496.07,-110.85 446.3,-98.12"/>
<polygon fill="midnightblue" stroke="midnightblue" points="446.93,-94.67 436.38,-95.59 445.21,-101.45 446.93,-94.67"/>
</g>
<!-- Node15&#45;&gt;Node11 -->
<g id="edge46" class="edge">
<title>Node15&#45;&gt;Node11</title>
<path fill="none" stroke="midnightblue" d="M733.24,-276.18C799.29,-269.81 931.33,-254.16 969,-228 1022.72,-190.7 1025.25,-164.34 1045,-102 1051.85,-80.38 1052.62,-54.14 1052.16,-36.7"/>
<polygon fill="midnightblue" stroke="midnightblue" points="1055.65,-36.48 1051.72,-26.64 1048.66,-36.78 1055.65,-36.48"/>
</g>
<!-- Node15&#45;&gt;Node14 -->
<g id="edge44" class="edge">
<title>Node15&#45;&gt;Node14</title>
<path fill="none" stroke="midnightblue" d="M733.08,-276.53C804.69,-270.39 956.26,-254.6 1001,-228 1081.21,-180.31 1137.17,-77.77 1157.52,-35.89"/>
<polygon fill="midnightblue" stroke="midnightblue" points="1160.8,-37.15 1161.92,-26.62 1154.47,-34.15 1160.8,-37.15"/>
</g>
<!-- Node16 -->
<g id="node16" class="node">
<title>Node16</title>
<g id="a_node16"><a xlink:title=" ">
<polygon fill="white" stroke="#bfbfbf" points="902.1,-75.5 902.1,-95.5 1035.9,-95.5 1035.9,-75.5 902.1,-75.5"/>
<text text-anchor="middle" x="969" y="-82.5" font-family="Helvetica,sans-Serif" font-size="10.00">halco/common/geometry.h</text>
</a>
</g>
</g>
<!-- Node15&#45;&gt;Node16 -->
<g id="edge19" class="edge">
<title>Node15&#45;&gt;Node16</title>
<path fill="none" stroke="midnightblue" d="M733.09,-276.87C795.9,-271.73 917.13,-258.09 946,-228 977.78,-194.88 975.71,-136.04 972.06,-105.73"/>
<polygon fill="midnightblue" stroke="midnightblue" points="975.5,-105.04 970.66,-95.62 968.57,-106.01 975.5,-105.04"/>
</g>
<!-- Node17 -->
<g id="node17" class="node">
<title>Node17</title>
<g id="a_node17"><a xlink:title=" ">
<polygon fill="white" stroke="#bfbfbf" points="835.49,-195.5 835.49,-227.5 936.51,-227.5 936.51,-195.5 835.49,-195.5"/>
<text text-anchor="start" x="843.49" y="-214.5" font-family="Helvetica,sans-Serif" font-size="10.00">halco/hicann&#45;dls/vx</text>
<text text-anchor="middle" x="886" y="-202.5" font-family="Helvetica,sans-Serif" font-size="10.00">/pll.h</text>
</a>
</g>
</g>
<!-- Node15&#45;&gt;Node17 -->
<g id="edge21" class="edge">
<title>Node15&#45;&gt;Node17</title>
<path fill="none" stroke="midnightblue" d="M720.76,-270.46C749.55,-260.37 796.93,-243.74 833.59,-230.88"/>
<polygon fill="midnightblue" stroke="midnightblue" points="834.87,-234.15 843.14,-227.53 832.55,-227.54 834.87,-234.15"/>
</g>
<!-- Node18 -->
<g id="node18" class="node">
<title>Node18</title>
<g id="a_node18"><a xlink:href="constants_8h.html" target="_top" xlink:title=" ">
<polygon fill="white" stroke="black" points="708.6,-201.5 708.6,-221.5 817.4,-221.5 817.4,-201.5 708.6,-201.5"/>
<text text-anchor="middle" x="763" y="-208.5" font-family="Helvetica,sans-Serif" font-size="10.00">haldls/vx/constants.h</text>
</a>
</g>
</g>
<!-- Node15&#45;&gt;Node18 -->
<g id="edge23" class="edge">
<title>Node15&#45;&gt;Node18</title>
<path fill="none" stroke="midnightblue" d="M704.17,-270.46C714.96,-259.83 733.08,-241.98 746.37,-228.89"/>
<polygon fill="midnightblue" stroke="midnightblue" points="748.87,-231.33 753.54,-221.82 743.96,-226.35 748.87,-231.33"/>
</g>
<!-- Node15&#45;&gt;Node22 -->
<g id="edge45" class="edge">
<title>Node15&#45;&gt;Node22</title>
<path fill="none" stroke="midnightblue" d="M695.26,-270.2C695.44,-245.4 692.52,-176.87 657,-138 649.86,-130.19 594.8,-111.37 555.9,-98.77"/>
<polygon fill="midnightblue" stroke="midnightblue" points="556.5,-95.29 545.91,-95.56 554.35,-101.95 556.5,-95.29"/>
</g>
<!-- Node18&#45;&gt;Node14 -->
<g id="edge24" class="edge">
<title>Node18&#45;&gt;Node14</title>
<path fill="none" stroke="midnightblue" d="M793.69,-201.4C846.65,-185.1 957.91,-148.28 1045,-102 1083.32,-81.64 1123.9,-51.23 1146.97,-32.99"/>
<polygon fill="midnightblue" stroke="midnightblue" points="1149.29,-35.61 1154.92,-26.63 1144.92,-30.14 1149.29,-35.61"/>
</g>
<!-- Node19 -->
<g id="node19" class="node">
<title>Node19</title>
<g id="a_node19"><a xlink:href="timer_8h.html" target="_top" xlink:title=" ">
<polygon fill="white" stroke="black" points="708.89,-138.5 708.89,-158.5 797.11,-158.5 797.11,-138.5 708.89,-138.5"/>
<text text-anchor="middle" x="753" y="-145.5" font-family="Helvetica,sans-Serif" font-size="10.00">haldls/vx/timer.h</text>
</a>
</g>
</g>
<!-- Node18&#45;&gt;Node19 -->
<g id="edge25" class="edge">
<title>Node18&#45;&gt;Node19</title>
<path fill="none" stroke="midnightblue" d="M761.52,-201.5C760.11,-192.85 757.92,-179.51 756.12,-168.5"/>
<polygon fill="midnightblue" stroke="midnightblue" points="759.55,-167.84 754.48,-158.54 752.65,-168.97 759.55,-167.84"/>
</g>
<!-- Node19&#45;&gt;Node2 -->
<g id="edge26" class="edge">
<title>Node19&#45;&gt;Node2</title>
<path fill="none" stroke="midnightblue" d="M708.69,-144.93C610.77,-138.93 378.68,-122.94 303,-102 300.54,-101.32 298.05,-100.47 295.58,-99.52"/>
<polygon fill="midnightblue" stroke="midnightblue" points="296.93,-96.3 286.37,-95.52 294.14,-102.72 296.93,-96.3"/>
</g>
<!-- Node19&#45;&gt;Node3 -->
<g id="edge27" class="edge">
<title>Node19&#45;&gt;Node3</title>
<path fill="none" stroke="midnightblue" d="M708.55,-144.16C608.07,-136.39 369.58,-116.67 336,-102 315.5,-93.05 318.31,-78.37 298,-69 200.05,-23.84 161.04,-64.87 58,-33 55.84,-32.33 53.65,-31.54 51.48,-30.67"/>
<polygon fill="midnightblue" stroke="midnightblue" points="52.78,-27.42 42.22,-26.53 49.92,-33.81 52.78,-27.42"/>
</g>
<!-- Node19&#45;&gt;Node9 -->
<g id="edge31" class="edge">
<title>Node19&#45;&gt;Node9</title>
<path fill="none" stroke="midnightblue" d="M708.74,-141.67C651.86,-133.92 550.17,-119.19 464,-102 457.82,-100.77 451.33,-99.35 444.96,-97.88"/>
<polygon fill="midnightblue" stroke="midnightblue" points="445.63,-94.44 435.1,-95.54 444.02,-101.25 445.63,-94.44"/>
</g>
<!-- Node19&#45;&gt;Node11 -->
<g id="edge43" class="edge">
<title>Node19&#45;&gt;Node11</title>
<path fill="none" stroke="midnightblue" d="M766.34,-138.23C779.36,-129.13 799.68,-114.8 817,-102 836.38,-87.68 838.32,-79.51 860,-69 918.59,-40.6 939.38,-50.83 1002,-33 1005.8,-31.92 1009.75,-30.75 1013.69,-29.55"/>
<polygon fill="midnightblue" stroke="midnightblue" points="1014.84,-32.86 1023.36,-26.55 1012.77,-26.17 1014.84,-32.86"/>
</g>
<!-- Node19&#45;&gt;Node14 -->
<g id="edge32" class="edge">
<title>Node19&#45;&gt;Node14</title>
<path fill="none" stroke="midnightblue" d="M777.04,-138.4C797.63,-130.16 827.71,-117.03 852,-102 871.89,-89.69 871.69,-78.64 893,-69 978.49,-30.36 1009.1,-51.89 1101,-33 1107.19,-31.73 1113.69,-30.3 1120.08,-28.83"/>
<polygon fill="midnightblue" stroke="midnightblue" points="1121.05,-32.2 1129.99,-26.51 1119.46,-25.38 1121.05,-32.2"/>
</g>
<!-- Node19&#45;&gt;Node16 -->
<g id="edge29" class="edge">
<title>Node19&#45;&gt;Node16</title>
<path fill="none" stroke="midnightblue" d="M784.87,-138.5C822.6,-127.84 885.54,-110.07 927.16,-98.31"/>
<polygon fill="midnightblue" stroke="midnightblue" points="928.33,-101.62 937,-95.54 926.42,-94.89 928.33,-101.62"/>
</g>
<!-- Node20 -->
<g id="node20" class="node">
<title>Node20</title>
<g id="a_node20"><a xlink:title=" ">
<polygon fill="white" stroke="#bfbfbf" points="697.77,-69.5 697.77,-101.5 808.23,-101.5 808.23,-69.5 697.77,-69.5"/>
<text text-anchor="start" x="705.77" y="-88.5" font-family="Helvetica,sans-Serif" font-size="10.00">fisch/vx/word_access</text>
<text text-anchor="middle" x="753" y="-76.5" font-family="Helvetica,sans-Serif" font-size="10.00">/type/timer.h</text>
</a>
</g>
</g>
<!-- Node19&#45;&gt;Node20 -->
<g id="edge28" class="edge">
<title>Node19&#45;&gt;Node20</title>
<path fill="none" stroke="midnightblue" d="M753,-138.5C753,-131.47 753,-121.34 753,-111.88"/>
<polygon fill="midnightblue" stroke="midnightblue" points="756.5,-111.69 753,-101.69 749.5,-111.69 756.5,-111.69"/>
</g>
<!-- Node21 -->
<g id="node21" class="node">
<title>Node21</title>
<g id="a_node21"><a xlink:title=" ">
<polygon fill="white" stroke="#bfbfbf" points="578.49,-69.5 578.49,-101.5 679.51,-101.5 679.51,-69.5 578.49,-69.5"/>
<text text-anchor="start" x="586.49" y="-88.5" font-family="Helvetica,sans-Serif" font-size="10.00">halco/hicann&#45;dls/vx</text>
<text text-anchor="middle" x="629" y="-76.5" font-family="Helvetica,sans-Serif" font-size="10.00">/timing.h</text>
</a>
</g>
</g>
<!-- Node19&#45;&gt;Node21 -->
<g id="edge30" class="edge">
<title>Node19&#45;&gt;Node21</title>
<path fill="none" stroke="midnightblue" d="M734.7,-138.5C717.49,-130.03 691.13,-117.07 669.05,-106.2"/>
<polygon fill="midnightblue" stroke="midnightblue" points="670.4,-102.96 659.88,-101.69 667.31,-109.25 670.4,-102.96"/>
</g>
<!-- Node19&#45;&gt;Node22 -->
<g id="edge33" class="edge">
<title>Node19&#45;&gt;Node22</title>
<path fill="none" stroke="midnightblue" d="M714.09,-138.44C676.76,-129.62 618.85,-115.58 569,-102 564.86,-100.87 560.54,-99.65 556.25,-98.41"/>
<polygon fill="midnightblue" stroke="midnightblue" points="556.94,-94.97 546.36,-95.51 554.97,-101.69 556.94,-94.97"/>
</g>
<!-- Node22&#45;&gt;Node10 -->
<g id="edge37" class="edge">
<title>Node22&#45;&gt;Node10</title>
<path fill="none" stroke="midnightblue" d="M486.18,-75.46C478.91,-73.34 471.18,-71.08 464,-69 408.48,-52.89 394.44,-49.41 339,-33 335.17,-31.87 331.17,-30.67 327.19,-29.47"/>
<polygon fill="midnightblue" stroke="midnightblue" points="327.96,-26.05 317.37,-26.51 325.93,-32.75 327.96,-26.05"/>
</g>
<!-- Node22&#45;&gt;Node11 -->
<g id="edge38" class="edge">
<title>Node22&#45;&gt;Node11</title>
<path fill="none" stroke="midnightblue" d="M543.46,-75.46C551.57,-73.01 560.58,-70.59 569,-69 758.77,-33.23 812.54,-70.35 1002,-33 1006.73,-32.07 1011.65,-30.84 1016.46,-29.48"/>
<polygon fill="midnightblue" stroke="midnightblue" points="1017.54,-32.81 1026.1,-26.56 1015.52,-26.11 1017.54,-32.81"/>
</g>
<!-- Node22&#45;&gt;Node14 -->
<g id="edge36" class="edge">
<title>Node22&#45;&gt;Node14</title>
<path fill="none" stroke="midnightblue" d="M543.18,-75.46C551.36,-72.97 560.47,-70.54 569,-69 802.21,-26.89 866.71,-68.61 1101,-33 1108.18,-31.91 1115.73,-30.43 1123.04,-28.81"/>
<polygon fill="midnightblue" stroke="midnightblue" points="1123.86,-32.21 1132.81,-26.54 1122.28,-25.39 1123.86,-32.21"/>
</g>
<!-- Node23 -->
<g id="node23" class="node">
<title>Node23</title>
<g id="a_node23"><a xlink:title=" ">
<polygon fill="white" stroke="#bfbfbf" points="347.94,-6.5 347.94,-26.5 430.06,-26.5 430.06,-6.5 347.94,-6.5"/>
<text text-anchor="middle" x="389" y="-13.5" font-family="Helvetica,sans-Serif" font-size="10.00">fisch/vx/traits.h</text>
</a>
</g>
</g>
<!-- Node22&#45;&gt;Node23 -->
<g id="edge34" class="edge">
<title>Node22&#45;&gt;Node23</title>
<path fill="none" stroke="midnightblue" d="M499.74,-75.46C478.08,-64.13 440.71,-44.56 415.43,-31.34"/>
<polygon fill="midnightblue" stroke="midnightblue" points="416.88,-28.14 406.4,-26.61 413.63,-34.35 416.88,-28.14"/>
</g>
<!-- Node24 -->
<g id="node24" class="node">
<title>Node24</title>
<g id="a_node24"><a xlink:title=" ">
<polygon fill="white" stroke="#bfbfbf" points="447.77,-0.5 447.77,-32.5 558.23,-32.5 558.23,-0.5 447.77,-0.5"/>
<text text-anchor="start" x="455.77" y="-19.5" font-family="Helvetica,sans-Serif" font-size="10.00">fisch/vx/word_access</text>
<text text-anchor="middle" x="503" y="-7.5" font-family="Helvetica,sans-Serif" font-size="10.00">_type.h</text>
</a>
</g>
</g>
<!-- Node22&#45;&gt;Node24 -->
<g id="edge35" class="edge">
<title>Node22&#45;&gt;Node24</title>
<path fill="none" stroke="midnightblue" d="M515.11,-75.46C513.35,-67.04 510.64,-54.08 508.23,-42.55"/>
<polygon fill="midnightblue" stroke="midnightblue" points="511.61,-41.61 506.14,-32.53 504.76,-43.04 511.61,-41.61"/>
</g>
<!-- Node25 -->
<g id="node25" class="node">
<title>Node25</title>
<g id="a_node25"><a xlink:title=" ">
<polygon fill="white" stroke="#bfbfbf" points="575.94,-6.5 575.94,-26.5 638.06,-26.5 638.06,-6.5 575.94,-6.5"/>
<text text-anchor="middle" x="607" y="-13.5" font-family="Helvetica,sans-Serif" font-size="10.00">type_traits</text>
</a>
</g>
</g>
<!-- Node22&#45;&gt;Node25 -->
<g id="edge39" class="edge">
<title>Node22&#45;&gt;Node25</title>
<path fill="none" stroke="midnightblue" d="M529.14,-75.46C543.77,-64.57 568.58,-46.1 586.26,-32.94"/>
<polygon fill="midnightblue" stroke="midnightblue" points="588.84,-35.39 594.77,-26.61 584.66,-29.77 588.84,-35.39"/>
</g>
<!-- Node26 -->
<g id="node26" class="node">
<title>Node26</title>
<g id="a_node26"><a xlink:title=" ">
<polygon fill="white" stroke="#bfbfbf" points="655.6,-0.5 655.6,-32.5 754.4,-32.5 754.4,-0.5 655.6,-0.5"/>
<text text-anchor="start" x="663.6" y="-19.5" font-family="Helvetica,sans-Serif" font-size="10.00">boost/utility/enable</text>
<text text-anchor="middle" x="705" y="-7.5" font-family="Helvetica,sans-Serif" font-size="10.00">_if.hpp</text>
</a>
</g>
</g>
<!-- Node22&#45;&gt;Node26 -->
<g id="edge40" class="edge">
<title>Node22&#45;&gt;Node26</title>
<path fill="none" stroke="midnightblue" d="M542.35,-75.46C570.57,-65.41 616.93,-48.89 652.95,-36.05"/>
<polygon fill="midnightblue" stroke="midnightblue" points="654.57,-39.19 662.82,-32.53 652.22,-32.59 654.57,-39.19"/>
</g>
<!-- Node27 -->
<g id="node27" class="node">
<title>Node27</title>
<g id="a_node27"><a xlink:title=" ">
<polygon fill="white" stroke="#bfbfbf" points="772.65,-6.5 772.65,-26.5 865.35,-26.5 865.35,-6.5 772.65,-6.5"/>
<text text-anchor="middle" x="819" y="-13.5" font-family="Helvetica,sans-Serif" font-size="10.00">boost/variant.hpp</text>
</a>
</g>
</g>
<!-- Node22&#45;&gt;Node27 -->
<g id="edge41" class="edge">
<title>Node22&#45;&gt;Node27</title>
<path fill="none" stroke="midnightblue" d="M545.46,-75.42C553.06,-73.16 561.31,-70.85 569,-69 654.25,-48.45 677.55,-52.71 763,-33 768.03,-31.84 773.29,-30.52 778.48,-29.16"/>
<polygon fill="midnightblue" stroke="midnightblue" points="779.57,-32.49 788.31,-26.51 777.75,-25.73 779.57,-32.49"/>
</g>
<!-- Node28 -->
<g id="node28" class="node">
<title>Node28</title>
<g id="a_node28"><a xlink:title=" ">
<polygon fill="white" stroke="#bfbfbf" points="883.04,-6.5 883.04,-26.5 992.96,-26.5 992.96,-6.5 883.04,-6.5"/>
<text text-anchor="middle" x="938" y="-13.5" font-family="Helvetica,sans-Serif" font-size="10.00">fisch/vx/container.def</text>
</a>
</g>
</g>
<!-- Node22&#45;&gt;Node28 -->
<g id="edge42" class="edge">
<title>Node22&#45;&gt;Node28</title>
<path fill="none" stroke="midnightblue" d="M544.03,-75.48C552,-73.09 560.79,-70.7 569,-69 702.68,-41.4 739.65,-57.11 874,-33 880.42,-31.85 887.17,-30.44 893.77,-28.94"/>
<polygon fill="midnightblue" stroke="midnightblue" points="895.02,-32.24 903.95,-26.55 893.41,-25.43 895.02,-32.24"/>
</g>
</g>
</svg>
