<?xml version="1.0" encoding="UTF-8" standalone="no"?>
<!DOCTYPE svg PUBLIC "-//W3C//DTD SVG 1.1//EN"
 "http://www.w3.org/Graphics/SVG/1.1/DTD/svg11.dtd">
<!-- Generated by graphviz version 2.46.0 (0)
 -->
<!-- Title: /jenkins/jenlib_workspaces_f9/bld_nightly&#45;haldls.YmxkX25pZ2h0bHktaGFsZGxzIzEzNzk.x/haldls/include/haldls/vx/neuron.h Pages: 1 -->
<!--zoomable 260 -->
<svg id="main" version="1.1" xmlns="http://www.w3.org/2000/svg" xmlns:xlink="http://www.w3.org/1999/xlink" xml:space="preserve" onload="init(evt)">
<style type="text/css"><![CDATA[
.edge:hover path { stroke: red; }
.edge:hover polygon { stroke: red; fill: red; }
]]></style>
<script type="text/javascript"><![CDATA[
var edges = document.getElementsByTagName('g');
if (edges && edges.length) {
  for (var i=0;i<edges.length;i++) {
    if (edges[i].id.substr(0,4)=='edge') {
      edges[i].setAttribute('class','edge');
    }
  }
}
]]></script>
        <defs>
                <circle id="rim" cx="0" cy="0" r="7"/>
                <circle id="rim2" cx="0" cy="0" r="3.5"/>
                <g id="zoomPlus">
                        <use xlink:href="#rim" fill="#404040">
                                <set attributeName="fill" to="#808080" begin="zoomplus.mouseover" end="zoomplus.mouseout"/>
                        </use>
                        <path d="M-4,0h8M0,-4v8" fill="none" stroke="white" stroke-width="1.5" pointer-events="none"/>
                </g>
                <g id="zoomMin">
                        <use xlink:href="#rim" fill="#404040">
                                <set attributeName="fill" to="#808080" begin="zoomminus.mouseover" end="zoomminus.mouseout"/>
                        </use>
                        <path d="M-4,0h8" fill="none" stroke="white" stroke-width="1.5" pointer-events="none"/>
                </g>
                <g id="dirArrow">
                        <path fill="none" stroke="white" stroke-width="1.5" d="M0,-3.0v7 M-2.5,-0.5L0,-3.0L2.5,-0.5"/>
                </g>
               <g id="resetDef">
                       <use xlink:href="#rim2" fill="#404040">
                               <set attributeName="fill" to="#808080" begin="reset.mouseover" end="reset.mouseout"/>
                       </use>
               </g>
        </defs>

<script type="text/javascript">
var viewWidth = 1463;
var viewHeight = 260;
var sectionId = 'dynsection-0';
</script>
<script xlink:href="svgpan.js"/>
<svg id="graph" class="graph">
<g id="viewport">
<title>/jenkins/jenlib_workspaces_f9/bld_nightly&#45;haldls.YmxkX25pZ2h0bHktaGFsZGxzIzEzNzk.x/haldls/include/haldls/vx/neuron.h</title>
<polygon fill="white" stroke="transparent" points="-4,4 -4,-256 1459.46,-256 1459.46,4 -4,4"/>
<!-- Node1 -->
<g id="node1" class="node">
<title>Node1</title>
<g id="a_node1"><a xlink:title=" ">
<polygon fill="#bfbfbf" stroke="black" points="411.88,-195.5 411.88,-251.5 592.9,-251.5 592.9,-195.5 411.88,-195.5"/>
<text text-anchor="start" x="419.88" y="-238.5" font-family="Helvetica,sans-Serif" font-size="10.00">/jenkins/jenlib_workspaces</text>
<text text-anchor="start" x="419.88" y="-226.5" font-family="Helvetica,sans-Serif" font-size="10.00">_f9/bld_nightly&#45;haldls.YmxkX25p</text>
<text text-anchor="start" x="419.88" y="-214.5" font-family="Helvetica,sans-Serif" font-size="10.00">Z2h0bHktaGFsZGxzIzEzNzk.x/haldls</text>
<text text-anchor="middle" x="502.39" y="-202.5" font-family="Helvetica,sans-Serif" font-size="10.00">/include/haldls/vx/neuron.h</text>
</a>
</g>
</g>
<!-- Node2 -->
<g id="node2" class="node">
<title>Node2</title>
<g id="a_node2"><a xlink:title=" ">
<polygon fill="white" stroke="#bfbfbf" points="0,-132.5 0,-152.5 38.78,-152.5 38.78,-132.5 0,-132.5"/>
<text text-anchor="middle" x="19.39" y="-139.5" font-family="Helvetica,sans-Serif" font-size="10.00">array</text>
</a>
</g>
</g>
<!-- Node1&#45;&gt;Node2 -->
<g id="edge1" class="edge">
<title>Node1&#45;&gt;Node2</title>
<path fill="none" stroke="midnightblue" d="M411.48,-217.65C319.36,-210.9 173.56,-195.11 52.39,-159 50.08,-158.31 47.74,-157.49 45.41,-156.58"/>
<polygon fill="midnightblue" stroke="midnightblue" points="46.7,-153.33 36.13,-152.55 43.91,-159.75 46.7,-153.33"/>
</g>
<!-- Node3 -->
<g id="node3" class="node">
<title>Node3</title>
<g id="a_node3"><a xlink:title=" ">
<polygon fill="white" stroke="#bfbfbf" points="104.22,-6.5 104.22,-26.5 148.56,-26.5 148.56,-6.5 104.22,-6.5"/>
<text text-anchor="middle" x="126.39" y="-13.5" font-family="Helvetica,sans-Serif" font-size="10.00">iosfwd</text>
</a>
</g>
</g>
<!-- Node1&#45;&gt;Node3 -->
<g id="edge2" class="edge">
<title>Node1&#45;&gt;Node3</title>
<path fill="none" stroke="midnightblue" d="M411.85,-221.94C302.08,-219.12 126.61,-206.98 85.39,-159 54.12,-122.61 90.69,-63.57 112.47,-34.62"/>
<polygon fill="midnightblue" stroke="midnightblue" points="115.29,-36.7 118.66,-26.65 109.76,-32.4 115.29,-36.7"/>
</g>
<!-- Node4 -->
<g id="node4" class="node">
<title>Node4</title>
<g id="a_node4"><a xlink:title=" ">
<polygon fill="white" stroke="#bfbfbf" points="94.49,-132.5 94.49,-152.5 228.29,-152.5 228.29,-132.5 94.49,-132.5"/>
<text text-anchor="middle" x="161.39" y="-139.5" font-family="Helvetica,sans-Serif" font-size="10.00">halco/common/geometry.h</text>
</a>
</g>
</g>
<!-- Node1&#45;&gt;Node4 -->
<g id="edge3" class="edge">
<title>Node1&#45;&gt;Node4</title>
<path fill="none" stroke="midnightblue" d="M411.45,-201.43C346.9,-186.48 262.73,-166.98 210.38,-154.85"/>
<polygon fill="midnightblue" stroke="midnightblue" points="210.88,-151.37 200.35,-152.53 209.3,-158.19 210.88,-151.37"/>
</g>
<!-- Node5 -->
<g id="node5" class="node">
<title>Node5</title>
<g id="a_node5"><a xlink:title=" ">
<polygon fill="white" stroke="#bfbfbf" points="246.27,-126.5 246.27,-158.5 354.51,-158.5 354.51,-126.5 246.27,-126.5"/>
<text text-anchor="start" x="254.27" y="-145.5" font-family="Helvetica,sans-Serif" font-size="10.00">halco/common/typed</text>
<text text-anchor="middle" x="300.39" y="-133.5" font-family="Helvetica,sans-Serif" font-size="10.00">_array.h</text>
</a>
</g>
</g>
<!-- Node1&#45;&gt;Node5 -->
<g id="edge4" class="edge">
<title>Node1&#45;&gt;Node5</title>
<path fill="none" stroke="midnightblue" d="M433.15,-195.42C405.2,-184.49 373.64,-172.15 348.3,-162.24"/>
<polygon fill="midnightblue" stroke="midnightblue" points="349.5,-158.95 338.92,-158.57 346.95,-165.47 349.5,-158.95"/>
</g>
<!-- Node6 -->
<g id="node6" class="node">
<title>Node6</title>
<g id="a_node6"><a xlink:title=" ">
<polygon fill="white" stroke="#bfbfbf" points="372.88,-126.5 372.88,-158.5 473.9,-158.5 473.9,-126.5 372.88,-126.5"/>
<text text-anchor="start" x="380.88" y="-145.5" font-family="Helvetica,sans-Serif" font-size="10.00">halco/hicann&#45;dls/vx</text>
<text text-anchor="middle" x="423.39" y="-133.5" font-family="Helvetica,sans-Serif" font-size="10.00">/neuron.h</text>
</a>
</g>
</g>
<!-- Node1&#45;&gt;Node6 -->
<g id="edge5" class="edge">
<title>Node1&#45;&gt;Node6</title>
<path fill="none" stroke="midnightblue" d="M475.2,-195.31C465.58,-185.69 454.87,-174.98 445.7,-165.81"/>
<polygon fill="midnightblue" stroke="midnightblue" points="447.96,-163.12 438.41,-158.52 443.01,-168.07 447.96,-163.12"/>
</g>
<!-- Node7 -->
<g id="node7" class="node">
<title>Node7</title>
<g id="a_node7"><a xlink:href="genpybind_8h.html" target="_top" xlink:title=" ">
<polygon fill="white" stroke="black" points="1325.32,-6.5 1325.32,-26.5 1437.46,-26.5 1437.46,-6.5 1325.32,-6.5"/>
<text text-anchor="middle" x="1381.39" y="-13.5" font-family="Helvetica,sans-Serif" font-size="10.00">haldls/vx/genpybind.h</text>
</a>
</g>
</g>
<!-- Node1&#45;&gt;Node7 -->
<g id="edge6" class="edge">
<title>Node1&#45;&gt;Node7</title>
<path fill="none" stroke="midnightblue" d="M593.07,-201.56C743.44,-166.79 1053.88,-94.86 1316.39,-33 1322.03,-31.67 1327.95,-30.27 1333.81,-28.88"/>
<polygon fill="midnightblue" stroke="midnightblue" points="1334.67,-32.27 1343.59,-26.55 1333.05,-25.46 1334.67,-32.27"/>
</g>
<!-- Node8 -->
<g id="node8" class="node">
<title>Node8</title>
<g id="a_node8"><a xlink:href="sram__controller_8h.html" target="_top" xlink:title=" ">
<polygon fill="white" stroke="black" points="569.94,-132.5 569.94,-152.5 704.84,-152.5 704.84,-132.5 569.94,-132.5"/>
<text text-anchor="middle" x="637.39" y="-139.5" font-family="Helvetica,sans-Serif" font-size="10.00">haldls/vx/sram_controller.h</text>
</a>
</g>
</g>
<!-- Node1&#45;&gt;Node8 -->
<g id="edge8" class="edge">
<title>Node1&#45;&gt;Node8</title>
<path fill="none" stroke="midnightblue" d="M548.85,-195.31C570.54,-182.62 595.46,-168.04 613.32,-157.59"/>
<polygon fill="midnightblue" stroke="midnightblue" points="615.1,-160.6 621.96,-152.53 611.56,-154.56 615.1,-160.6"/>
</g>
<!-- Node9 -->
<g id="node9" class="node">
<title>Node9</title>
<g id="a_node9"><a xlink:href="cerealization_8h.html" target="_top" xlink:title=" ">
<polygon fill="white" stroke="black" points="391.71,-69.5 391.71,-89.5 501.06,-89.5 501.06,-69.5 391.71,-69.5"/>
<text text-anchor="middle" x="446.39" y="-76.5" font-family="Helvetica,sans-Serif" font-size="10.00">haldls/cerealization.h</text>
</a>
</g>
</g>
<!-- Node1&#45;&gt;Node9 -->
<g id="edge33" class="edge">
<title>Node1&#45;&gt;Node9</title>
<path fill="none" stroke="midnightblue" d="M500.57,-195.19C498.4,-175.24 493.68,-147.95 483.39,-126 478.39,-115.35 470.38,-105.05 463.08,-96.95"/>
<polygon fill="midnightblue" stroke="midnightblue" points="465.58,-94.5 456.16,-89.65 460.5,-99.32 465.58,-94.5"/>
</g>
<!-- Node11 -->
<g id="node11" class="node">
<title>Node11</title>
<g id="a_node11"><a xlink:title=" ">
<polygon fill="white" stroke="#bfbfbf" points="505.89,-6.5 505.89,-26.5 586.89,-26.5 586.89,-6.5 505.89,-6.5"/>
<text text-anchor="middle" x="546.39" y="-13.5" font-family="Helvetica,sans-Serif" font-size="10.00">hate/visibility.h</text>
</a>
</g>
</g>
<!-- Node1&#45;&gt;Node11 -->
<g id="edge32" class="edge">
<title>Node1&#45;&gt;Node11</title>
<path fill="none" stroke="midnightblue" d="M508.23,-195.28C517.3,-153.03 534.53,-72.77 542.35,-36.33"/>
<polygon fill="midnightblue" stroke="midnightblue" points="545.78,-37.03 544.45,-26.52 538.93,-35.56 545.78,-37.03"/>
</g>
<!-- Node17 -->
<g id="node17" class="node">
<title>Node17</title>
<g id="a_node17"><a xlink:href="traits_8h.html" target="_top" xlink:title=" ">
<polygon fill="white" stroke="black" points="812.55,-69.5 812.55,-89.5 900.23,-89.5 900.23,-69.5 812.55,-69.5"/>
<text text-anchor="middle" x="856.39" y="-76.5" font-family="Helvetica,sans-Serif" font-size="10.00">haldls/vx/traits.h</text>
</a>
</g>
</g>
<!-- Node1&#45;&gt;Node17 -->
<g id="edge31" class="edge">
<title>Node1&#45;&gt;Node17</title>
<path fill="none" stroke="midnightblue" d="M592.91,-199.76C630.77,-189.1 674.85,-175.17 713.39,-159 757.73,-140.4 806.17,-111.94 833.75,-94.88"/>
<polygon fill="midnightblue" stroke="midnightblue" points="835.64,-97.83 842.27,-89.56 831.94,-91.89 835.64,-97.83"/>
</g>
<!-- Node24 -->
<g id="node24" class="node">
<title>Node24</title>
<g id="a_node24"><a xlink:title=" ">
<polygon fill="white" stroke="#bfbfbf" points="994.77,-132.5 994.77,-152.5 1098.01,-152.5 1098.01,-132.5 994.77,-132.5"/>
<text text-anchor="middle" x="1046.39" y="-139.5" font-family="Helvetica,sans-Serif" font-size="10.00">hxcomm/vx/target.h</text>
</a>
</g>
</g>
<!-- Node1&#45;&gt;Node24 -->
<g id="edge34" class="edge">
<title>Node1&#45;&gt;Node24</title>
<path fill="none" stroke="midnightblue" d="M593.11,-213.14C689.57,-202.57 846.38,-183.58 980.39,-159 987.08,-157.77 994.11,-156.31 1000.99,-154.78"/>
<polygon fill="midnightblue" stroke="midnightblue" points="1001.93,-158.16 1010.9,-152.51 1000.37,-151.33 1001.93,-158.16"/>
</g>
<!-- Node7&#45;&gt;Node7 -->
<g id="edge7" class="edge">
<title>Node7&#45;&gt;Node7</title>
<path fill="none" stroke="midnightblue" d="M1409.89,-26.56C1432.38,-30.45 1455.46,-27.1 1455.46,-16.5 1455.46,-7.48 1438.73,-3.71 1419.87,-5.19"/>
<polygon fill="midnightblue" stroke="midnightblue" points="1419.38,-1.72 1409.89,-6.44 1420.25,-8.67 1419.38,-1.72"/>
</g>
<!-- Node8&#45;&gt;Node7 -->
<g id="edge18" class="edge">
<title>Node8&#45;&gt;Node7</title>
<path fill="none" stroke="midnightblue" d="M704.88,-133.82C760.71,-126.27 841.54,-112.54 909.39,-90 929.57,-83.3 931.93,-74.8 952.39,-69 1108.78,-24.63 1156.06,-59.92 1316.39,-33 1323.15,-31.86 1330.26,-30.43 1337.19,-28.89"/>
<polygon fill="midnightblue" stroke="midnightblue" points="1338.2,-32.24 1347.16,-26.58 1336.63,-25.42 1338.2,-32.24"/>
</g>
<!-- Node8&#45;&gt;Node9 -->
<g id="edge9" class="edge">
<title>Node8&#45;&gt;Node9</title>
<path fill="none" stroke="midnightblue" d="M609.21,-132.5C576.2,-121.96 521.36,-104.44 484.56,-92.69"/>
<polygon fill="midnightblue" stroke="midnightblue" points="485.28,-89.25 474.69,-89.54 483.15,-95.91 485.28,-89.25"/>
</g>
<!-- Node8&#45;&gt;Node11 -->
<g id="edge30" class="edge">
<title>Node8&#45;&gt;Node11</title>
<path fill="none" stroke="midnightblue" d="M629.14,-132.26C620.24,-122.15 605.8,-105.32 594.39,-90 580.92,-71.93 566.84,-50.28 557.44,-35.37"/>
<polygon fill="midnightblue" stroke="midnightblue" points="560.26,-33.27 551.99,-26.65 554.32,-36.98 560.26,-33.27"/>
</g>
<!-- Node14 -->
<g id="node14" class="node">
<title>Node14</title>
<g id="a_node14"><a xlink:href="common_8h.html" target="_top" xlink:title=" ">
<polygon fill="white" stroke="black" points="690.22,-69.5 690.22,-89.5 794.56,-89.5 794.56,-69.5 690.22,-69.5"/>
<text text-anchor="middle" x="742.39" y="-76.5" font-family="Helvetica,sans-Serif" font-size="10.00">haldls/vx/common.h</text>
</a>
</g>
</g>
<!-- Node8&#45;&gt;Node14 -->
<g id="edge15" class="edge">
<title>Node8&#45;&gt;Node14</title>
<path fill="none" stroke="midnightblue" d="M652.88,-132.5C670.02,-122.54 697.86,-106.37 717.95,-94.7"/>
<polygon fill="midnightblue" stroke="midnightblue" points="719.94,-97.59 726.83,-89.54 716.43,-91.53 719.94,-97.59"/>
</g>
<!-- Node8&#45;&gt;Node17 -->
<g id="edge19" class="edge">
<title>Node8&#45;&gt;Node17</title>
<path fill="none" stroke="midnightblue" d="M669.7,-132.5C708.03,-121.82 772.04,-103.99 814.24,-92.24"/>
<polygon fill="midnightblue" stroke="midnightblue" points="815.25,-95.59 823.94,-89.54 813.37,-88.85 815.25,-95.59"/>
</g>
<!-- Node23 -->
<g id="node23" class="node">
<title>Node23</title>
<g id="a_node23"><a xlink:title=" ">
<polygon fill="white" stroke="#bfbfbf" points="602.99,-69.5 602.99,-89.5 671.79,-89.5 671.79,-69.5 602.99,-69.5"/>
<text text-anchor="middle" x="637.39" y="-76.5" font-family="Helvetica,sans-Serif" font-size="10.00">hate/math.h</text>
</a>
</g>
</g>
<!-- Node8&#45;&gt;Node23 -->
<g id="edge29" class="edge">
<title>Node8&#45;&gt;Node23</title>
<path fill="none" stroke="midnightblue" d="M637.39,-132.5C637.39,-123.94 637.39,-110.78 637.39,-99.85"/>
<polygon fill="midnightblue" stroke="midnightblue" points="640.89,-99.54 637.39,-89.54 633.89,-99.54 640.89,-99.54"/>
</g>
<!-- Node9&#45;&gt;Node3 -->
<g id="edge13" class="edge">
<title>Node9&#45;&gt;Node3</title>
<path fill="none" stroke="midnightblue" d="M399.17,-69.5C333.21,-56.93 215.23,-34.44 158.53,-23.63"/>
<polygon fill="midnightblue" stroke="midnightblue" points="159.17,-20.19 148.69,-21.75 157.85,-27.06 159.17,-20.19"/>
</g>
<!-- Node10 -->
<g id="node10" class="node">
<title>Node10</title>
<g id="a_node10"><a xlink:title=" ">
<polygon fill="white" stroke="#bfbfbf" points="404.77,-6.5 404.77,-26.5 488.01,-26.5 488.01,-6.5 404.77,-6.5"/>
<text text-anchor="middle" x="446.39" y="-13.5" font-family="Helvetica,sans-Serif" font-size="10.00">hate/type_list.h</text>
</a>
</g>
</g>
<!-- Node9&#45;&gt;Node10 -->
<g id="edge10" class="edge">
<title>Node9&#45;&gt;Node10</title>
<path fill="none" stroke="midnightblue" d="M446.39,-69.5C446.39,-60.94 446.39,-47.78 446.39,-36.85"/>
<polygon fill="midnightblue" stroke="midnightblue" points="449.89,-36.54 446.39,-26.54 442.89,-36.54 449.89,-36.54"/>
</g>
<!-- Node9&#45;&gt;Node11 -->
<g id="edge11" class="edge">
<title>Node9&#45;&gt;Node11</title>
<path fill="none" stroke="midnightblue" d="M461.14,-69.5C477.39,-59.59 503.74,-43.51 522.85,-31.86"/>
<polygon fill="midnightblue" stroke="midnightblue" points="524.86,-34.73 531.57,-26.54 521.21,-28.76 524.86,-34.73"/>
</g>
<!-- Node12 -->
<g id="node12" class="node">
<title>Node12</title>
<g id="a_node12"><a xlink:title=" ">
<polygon fill="white" stroke="#bfbfbf" points="224.94,-6.5 224.94,-26.5 269.84,-26.5 269.84,-6.5 224.94,-6.5"/>
<text text-anchor="middle" x="247.39" y="-13.5" font-family="Helvetica,sans-Serif" font-size="10.00">cstdint</text>
</a>
</g>
</g>
<!-- Node9&#45;&gt;Node12 -->
<g id="edge12" class="edge">
<title>Node9&#45;&gt;Node12</title>
<path fill="none" stroke="midnightblue" d="M404.88,-69.45C370.68,-61.46 321.17,-48.66 279.39,-33 277.57,-32.32 275.71,-31.57 273.85,-30.78"/>
<polygon fill="midnightblue" stroke="midnightblue" points="275.29,-27.59 264.74,-26.62 272.39,-33.96 275.29,-27.59"/>
</g>
<!-- Node13 -->
<g id="node13" class="node">
<title>Node13</title>
<g id="a_node13"><a xlink:title=" ">
<polygon fill="white" stroke="#bfbfbf" points="288.27,-6.5 288.27,-26.5 386.51,-26.5 386.51,-6.5 288.27,-6.5"/>
<text text-anchor="middle" x="337.39" y="-13.5" font-family="Helvetica,sans-Serif" font-size="10.00">cereal/macros.hpp</text>
</a>
</g>
</g>
<!-- Node9&#45;&gt;Node13 -->
<g id="edge14" class="edge">
<title>Node9&#45;&gt;Node13</title>
<path fill="none" stroke="midnightblue" d="M430.3,-69.5C412.43,-59.5 383.35,-43.22 362.48,-31.54"/>
<polygon fill="midnightblue" stroke="midnightblue" points="363.97,-28.37 353.54,-26.54 360.55,-34.48 363.97,-28.37"/>
</g>
<!-- Node15 -->
<g id="node15" class="node">
<title>Node15</title>
<g id="a_node15"><a xlink:title=" ">
<polygon fill="white" stroke="#bfbfbf" points="661.33,-6.5 661.33,-26.5 723.45,-26.5 723.45,-6.5 661.33,-6.5"/>
<text text-anchor="middle" x="692.39" y="-13.5" font-family="Helvetica,sans-Serif" font-size="10.00">type_traits</text>
</a>
</g>
</g>
<!-- Node14&#45;&gt;Node15 -->
<g id="edge16" class="edge">
<title>Node14&#45;&gt;Node15</title>
<path fill="none" stroke="midnightblue" d="M735.01,-69.5C727.48,-60.31 715.6,-45.82 706.3,-34.47"/>
<polygon fill="midnightblue" stroke="midnightblue" points="708.84,-32.05 699.8,-26.54 703.43,-36.49 708.84,-32.05"/>
</g>
<!-- Node16 -->
<g id="node16" class="node">
<title>Node16</title>
<g id="a_node16"><a xlink:title=" ">
<polygon fill="white" stroke="#bfbfbf" points="605,-6.5 605,-26.5 643.78,-26.5 643.78,-6.5 605,-6.5"/>
<text text-anchor="middle" x="624.39" y="-13.5" font-family="Helvetica,sans-Serif" font-size="10.00">utility</text>
</a>
</g>
</g>
<!-- Node14&#45;&gt;Node16 -->
<g id="edge17" class="edge">
<title>Node14&#45;&gt;Node16</title>
<path fill="none" stroke="midnightblue" d="M724.01,-69.46C705.75,-60.42 676.99,-46.02 652.39,-33 651.43,-32.49 650.46,-31.97 649.47,-31.45"/>
<polygon fill="midnightblue" stroke="midnightblue" points="651.07,-28.33 640.62,-26.62 647.72,-34.48 651.07,-28.33"/>
</g>
<!-- Node17&#45;&gt;Node7 -->
<g id="edge22" class="edge">
<title>Node17&#45;&gt;Node7</title>
<path fill="none" stroke="midnightblue" d="M900.36,-70.95C905.09,-70.24 909.83,-69.58 914.39,-69 1092.35,-46.49 1139.35,-61.88 1316.39,-33 1323.23,-31.88 1330.43,-30.44 1337.44,-28.89"/>
<polygon fill="midnightblue" stroke="midnightblue" points="1338.55,-32.22 1347.5,-26.56 1336.97,-25.4 1338.55,-32.22"/>
</g>
<!-- Node17&#45;&gt;Node10 -->
<g id="edge23" class="edge">
<title>Node17&#45;&gt;Node10</title>
<path fill="none" stroke="midnightblue" d="M812.46,-70.41C809.39,-69.92 806.35,-69.44 803.39,-69 667.49,-48.87 630.79,-61.46 496.39,-33 491.69,-32.01 486.8,-30.76 482,-29.41"/>
<polygon fill="midnightblue" stroke="midnightblue" points="482.94,-26.04 472.36,-26.54 480.94,-32.75 482.94,-26.04"/>
</g>
<!-- Node17&#45;&gt;Node11 -->
<g id="edge24" class="edge">
<title>Node17&#45;&gt;Node11</title>
<path fill="none" stroke="midnightblue" d="M812.43,-70.6C809.37,-70.06 806.33,-69.52 803.39,-69 711.43,-52.76 687.17,-54.87 596.39,-33 592,-31.94 587.42,-30.71 582.91,-29.41"/>
<polygon fill="midnightblue" stroke="midnightblue" points="583.78,-26.02 573.2,-26.51 581.78,-32.73 583.78,-26.02"/>
</g>
<!-- Node17&#45;&gt;Node15 -->
<g id="edge25" class="edge">
<title>Node17&#45;&gt;Node15</title>
<path fill="none" stroke="midnightblue" d="M831.16,-69.4C806.07,-60.3 766.5,-45.87 732.39,-33 730.01,-32.1 727.56,-31.17 725.09,-30.23"/>
<polygon fill="midnightblue" stroke="midnightblue" points="726.22,-26.91 715.63,-26.59 723.7,-33.44 726.22,-26.91"/>
</g>
<!-- Node18 -->
<g id="node18" class="node">
<title>Node18</title>
<g id="a_node18"><a xlink:title=" ">
<polygon fill="white" stroke="#bfbfbf" points="869.33,-6.5 869.33,-26.5 951.45,-26.5 951.45,-6.5 869.33,-6.5"/>
<text text-anchor="middle" x="910.39" y="-13.5" font-family="Helvetica,sans-Serif" font-size="10.00">fisch/vx/traits.h</text>
</a>
</g>
</g>
<!-- Node17&#45;&gt;Node18 -->
<g id="edge20" class="edge">
<title>Node17&#45;&gt;Node18</title>
<path fill="none" stroke="midnightblue" d="M864.36,-69.5C872.57,-60.22 885.57,-45.53 895.66,-34.13"/>
<polygon fill="midnightblue" stroke="midnightblue" points="898.38,-36.35 902.39,-26.54 893.14,-31.71 898.38,-36.35"/>
</g>
<!-- Node19 -->
<g id="node19" class="node">
<title>Node19</title>
<g id="a_node19"><a xlink:title=" ">
<polygon fill="white" stroke="#bfbfbf" points="969.16,-0.5 969.16,-32.5 1079.62,-32.5 1079.62,-0.5 969.16,-0.5"/>
<text text-anchor="start" x="977.16" y="-19.5" font-family="Helvetica,sans-Serif" font-size="10.00">fisch/vx/word_access</text>
<text text-anchor="middle" x="1024.39" y="-7.5" font-family="Helvetica,sans-Serif" font-size="10.00">_type.h</text>
</a>
</g>
</g>
<!-- Node17&#45;&gt;Node19 -->
<g id="edge21" class="edge">
<title>Node17&#45;&gt;Node19</title>
<path fill="none" stroke="midnightblue" d="M881.18,-69.5C905.31,-60.74 942.7,-47.16 973.23,-36.07"/>
<polygon fill="midnightblue" stroke="midnightblue" points="974.67,-39.28 982.88,-32.57 972.28,-32.7 974.67,-39.28"/>
</g>
<!-- Node20 -->
<g id="node20" class="node">
<title>Node20</title>
<g id="a_node20"><a xlink:title=" ">
<polygon fill="white" stroke="#bfbfbf" points="1097.99,-0.5 1097.99,-32.5 1196.79,-32.5 1196.79,-0.5 1097.99,-0.5"/>
<text text-anchor="start" x="1105.99" y="-19.5" font-family="Helvetica,sans-Serif" font-size="10.00">boost/utility/enable</text>
<text text-anchor="middle" x="1147.39" y="-7.5" font-family="Helvetica,sans-Serif" font-size="10.00">_if.hpp</text>
</a>
</g>
</g>
<!-- Node17&#45;&gt;Node20 -->
<g id="edge26" class="edge">
<title>Node17&#45;&gt;Node20</title>
<path fill="none" stroke="midnightblue" d="M900.61,-70.69C945.32,-62.6 1016.61,-49.17 1087.82,-33.05"/>
<polygon fill="midnightblue" stroke="midnightblue" points="1088.9,-36.39 1097.87,-30.75 1087.34,-29.57 1088.9,-36.39"/>
</g>
<!-- Node21 -->
<g id="node21" class="node">
<title>Node21</title>
<g id="a_node21"><a xlink:title=" ">
<polygon fill="white" stroke="#bfbfbf" points="1215.04,-6.5 1215.04,-26.5 1307.74,-26.5 1307.74,-6.5 1215.04,-6.5"/>
<text text-anchor="middle" x="1261.39" y="-13.5" font-family="Helvetica,sans-Serif" font-size="10.00">boost/variant.hpp</text>
</a>
</g>
</g>
<!-- Node17&#45;&gt;Node21 -->
<g id="edge27" class="edge">
<title>Node17&#45;&gt;Node21</title>
<path fill="none" stroke="midnightblue" d="M900.38,-71.11C905.1,-70.37 909.84,-69.65 914.39,-69 1043.38,-50.46 1077.58,-58.45 1205.39,-33 1210.83,-31.92 1216.52,-30.58 1222.1,-29.16"/>
<polygon fill="midnightblue" stroke="midnightblue" points="1223.18,-32.49 1231.94,-26.52 1221.37,-25.73 1223.18,-32.49"/>
</g>
<!-- Node22 -->
<g id="node22" class="node">
<title>Node22</title>
<g id="a_node22"><a xlink:title=" ">
<polygon fill="white" stroke="#bfbfbf" points="741.43,-6.5 741.43,-26.5 851.34,-26.5 851.34,-6.5 741.43,-6.5"/>
<text text-anchor="middle" x="796.39" y="-13.5" font-family="Helvetica,sans-Serif" font-size="10.00">fisch/vx/container.def</text>
</a>
</g>
</g>
<!-- Node17&#45;&gt;Node22 -->
<g id="edge28" class="edge">
<title>Node17&#45;&gt;Node22</title>
<path fill="none" stroke="midnightblue" d="M847.53,-69.5C838.32,-60.13 823.68,-45.25 812.42,-33.8"/>
<polygon fill="midnightblue" stroke="midnightblue" points="814.79,-31.21 805.28,-26.54 809.79,-36.12 814.79,-31.21"/>
</g>
</g>
</svg>
        <g id="navigator" transform="translate(0 0)" fill="#404254">
                <rect fill="#f2f5e9" fill-opacity="0.5" stroke="#606060" stroke-width=".5" x="0" y="0" width="60" height="60"/>
                <use id="zoomplus" xlink:href="#zoomPlus" x="17" y="9" onmousedown="handleZoom(evt,'in')"/>
                <use id="zoomminus" xlink:href="#zoomMin" x="42" y="9" onmousedown="handleZoom(evt,'out')"/>
                <use id="reset" xlink:href="#resetDef" x="30" y="36" onmousedown="handleReset()"/>
                <g id="arrowUp" xlink:href="#dirArrow" transform="translate(30 24)" onmousedown="handlePan(0,-1)">
                  <use xlink:href="#rim" fill="#404040">
                        <set attributeName="fill" to="#808080" begin="arrowUp.mouseover" end="arrowUp.mouseout"/>
                  </use>
                  <path fill="none" stroke="white" stroke-width="1.5" d="M0,-3.0v7 M-2.5,-0.5L0,-3.0L2.5,-0.5"/>
                </g>
                <g id="arrowRight" xlink:href="#dirArrow" transform="rotate(90) translate(36 -43)" onmousedown="handlePan(1,0)">
                  <use xlink:href="#rim" fill="#404040">
                        <set attributeName="fill" to="#808080" begin="arrowRight.mouseover" end="arrowRight.mouseout"/>
                  </use>
                  <path fill="none" stroke="white" stroke-width="1.5" d="M0,-3.0v7 M-2.5,-0.5L0,-3.0L2.5,-0.5"/>
                </g>
                <g id="arrowDown" xlink:href="#dirArrow" transform="rotate(180) translate(-30 -48)" onmousedown="handlePan(0,1)">
                  <use xlink:href="#rim" fill="#404040">
                        <set attributeName="fill" to="#808080" begin="arrowDown.mouseover" end="arrowDown.mouseout"/>
                  </use>
                  <path fill="none" stroke="white" stroke-width="1.5" d="M0,-3.0v7 M-2.5,-0.5L0,-3.0L2.5,-0.5"/>
                </g>
                <g id="arrowLeft" xlink:href="#dirArrow" transform="rotate(270) translate(-36 17)" onmousedown="handlePan(-1,0)">
                  <use xlink:href="#rim" fill="#404040">
                        <set attributeName="fill" to="#808080" begin="arrowLeft.mouseover" end="arrowLeft.mouseout"/>
                  </use>
                  <path fill="none" stroke="white" stroke-width="1.5" d="M0,-3.0v7 M-2.5,-0.5L0,-3.0L2.5,-0.5"/>
                </g>
        </g>
        <svg viewBox="0 0 15 15" width="100%" height="30px" preserveAspectRatio="xMaxYMin meet">
         <g id="arrow_out" transform="scale(0.3 0.3)">
          <a xlink:href="neuron_8h__incl_org.svg" target="_base">
           <rect id="button" ry="5" rx="5" y="6" x="6" height="38" width="38"
                fill="#f2f5e9" fill-opacity="0.5" stroke="#606060" stroke-width="1.0"/>
           <path id="arrow"
             d="M 11.500037,31.436501 C 11.940474,20.09759 22.043105,11.32322 32.158766,21.979434 L 37.068811,17.246167 C 37.068811,17.246167 37.088388,32 37.088388,32 L 22.160133,31.978069 C 22.160133,31.978069 26.997745,27.140456 26.997745,27.140456 C 18.528582,18.264221 13.291696,25.230495 11.500037,31.436501 z"
             style="fill:#404040;"/>
          </a>
         </g>
        </svg>
</svg>
