<?xml version="1.0" encoding="UTF-8" standalone="no"?>
<!DOCTYPE svg PUBLIC "-//W3C//DTD SVG 1.1//EN"
 "http://www.w3.org/Graphics/SVG/1.1/DTD/svg11.dtd">
<!-- Generated by graphviz version 2.46.0 (0)
 -->
<!-- Title: /jenkins/jenlib_workspaces_f9/bld_nightly&#45;haldls.YmxkX25pZ2h0bHktaGFsZGxzIzEzNzk.x/haldls/include/haldls/vx/padi.h Pages: 1 -->
<svg width="918pt" height="530pt"
 viewBox="0.00 0.00 918.02 530.00" xmlns="http://www.w3.org/2000/svg" xmlns:xlink="http://www.w3.org/1999/xlink">
<g id="graph0" class="graph" transform="scale(1 1) rotate(0) translate(4 526)">
<title>/jenkins/jenlib_workspaces_f9/bld_nightly&#45;haldls.YmxkX25pZ2h0bHktaGFsZGxzIzEzNzk.x/haldls/include/haldls/vx/padi.h</title>
<polygon fill="white" stroke="transparent" points="-4,4 -4,-526 914.02,-526 914.02,4 -4,4"/>
<!-- Node1 -->
<g id="node1" class="node">
<title>Node1</title>
<g id="a_node1"><a xlink:title=" ">
<polygon fill="#bfbfbf" stroke="black" points="360,-465.5 360,-521.5 541.02,-521.5 541.02,-465.5 360,-465.5"/>
<text text-anchor="start" x="368" y="-508.5" font-family="Helvetica,sans-Serif" font-size="10.00">/jenkins/jenlib_workspaces</text>
<text text-anchor="start" x="368" y="-496.5" font-family="Helvetica,sans-Serif" font-size="10.00">_f9/bld_nightly&#45;haldls.YmxkX25p</text>
<text text-anchor="start" x="368" y="-484.5" font-family="Helvetica,sans-Serif" font-size="10.00">Z2h0bHktaGFsZGxzIzEzNzk.x/haldls</text>
<text text-anchor="middle" x="450.51" y="-472.5" font-family="Helvetica,sans-Serif" font-size="10.00">/include/haldls/vx/padi.h</text>
</a>
</g>
</g>
<!-- Node2 -->
<g id="node2" class="node">
<title>Node2</title>
<g id="a_node2"><a xlink:href="event_8h.html" target="_top" xlink:title=" ">
<polygon fill="white" stroke="black" points="258,-372.5 258,-428.5 439.02,-428.5 439.02,-372.5 258,-372.5"/>
<text text-anchor="start" x="266" y="-415.5" font-family="Helvetica,sans-Serif" font-size="10.00">/jenkins/jenlib_workspaces</text>
<text text-anchor="start" x="266" y="-403.5" font-family="Helvetica,sans-Serif" font-size="10.00">_f9/bld_nightly&#45;haldls.YmxkX25p</text>
<text text-anchor="start" x="266" y="-391.5" font-family="Helvetica,sans-Serif" font-size="10.00">Z2h0bHktaGFsZGxzIzEzNzk.x/haldls</text>
<text text-anchor="middle" x="348.51" y="-379.5" font-family="Helvetica,sans-Serif" font-size="10.00">/include/haldls/vx/event.h</text>
</a>
</g>
</g>
<!-- Node1&#45;&gt;Node2 -->
<g id="edge1" class="edge">
<title>Node1&#45;&gt;Node2</title>
<path fill="none" stroke="midnightblue" d="M412.65,-458.72C401.52,-448.79 389.49,-438.06 378.9,-428.61"/>
<polygon fill="midnightblue" stroke="midnightblue" points="410.39,-461.4 420.18,-465.44 415.05,-456.17 410.39,-461.4"/>
</g>
<!-- Node11 -->
<g id="node11" class="node">
<title>Node11</title>
<g id="a_node11"><a xlink:href="v2_2padi_8h.html" target="_top" xlink:title=" ">
<polygon fill="white" stroke="black" points="0,-372.5 0,-428.5 181.02,-428.5 181.02,-372.5 0,-372.5"/>
<text text-anchor="start" x="8" y="-415.5" font-family="Helvetica,sans-Serif" font-size="10.00">/jenkins/jenlib_workspaces</text>
<text text-anchor="start" x="8" y="-403.5" font-family="Helvetica,sans-Serif" font-size="10.00">_f9/bld_nightly&#45;haldls.YmxkX25p</text>
<text text-anchor="start" x="8" y="-391.5" font-family="Helvetica,sans-Serif" font-size="10.00">Z2h0bHktaGFsZGxzIzEzNzk.x/haldls</text>
<text text-anchor="middle" x="90.51" y="-379.5" font-family="Helvetica,sans-Serif" font-size="10.00">/include/haldls/vx/v2/padi.h</text>
</a>
</g>
</g>
<!-- Node1&#45;&gt;Node11 -->
<g id="edge10" class="edge">
<title>Node1&#45;&gt;Node11</title>
<path fill="none" stroke="midnightblue" d="M349.93,-467.08C297.03,-453.7 232.69,-437.44 181.32,-424.46"/>
<polygon fill="midnightblue" stroke="midnightblue" points="349.11,-470.48 359.67,-469.54 350.83,-463.69 349.11,-470.48"/>
</g>
<!-- Node12 -->
<g id="node12" class="node">
<title>Node12</title>
<g id="a_node12"><a xlink:href="v3_2padi_8h.html" target="_top" xlink:title=" ">
<polygon fill="white" stroke="black" points="729,-372.5 729,-428.5 910.02,-428.5 910.02,-372.5 729,-372.5"/>
<text text-anchor="start" x="737" y="-415.5" font-family="Helvetica,sans-Serif" font-size="10.00">/jenkins/jenlib_workspaces</text>
<text text-anchor="start" x="737" y="-403.5" font-family="Helvetica,sans-Serif" font-size="10.00">_f9/bld_nightly&#45;haldls.YmxkX25p</text>
<text text-anchor="start" x="737" y="-391.5" font-family="Helvetica,sans-Serif" font-size="10.00">Z2h0bHktaGFsZGxzIzEzNzk.x/haldls</text>
<text text-anchor="middle" x="819.51" y="-379.5" font-family="Helvetica,sans-Serif" font-size="10.00">/include/haldls/vx/v3/padi.h</text>
</a>
</g>
</g>
<!-- Node1&#45;&gt;Node12 -->
<g id="edge12" class="edge">
<title>Node1&#45;&gt;Node12</title>
<path fill="none" stroke="midnightblue" d="M551.1,-467.69C606.59,-454.01 674.96,-437.15 728.8,-423.87"/>
<polygon fill="midnightblue" stroke="midnightblue" points="550.12,-464.33 541.25,-470.12 551.8,-471.13 550.12,-464.33"/>
</g>
<!-- Node13 -->
<g id="node13" class="node">
<title>Node13</title>
<g id="a_node13"><a xlink:href="vector__generator_8h.html" target="_top" xlink:title=" ">
<polygon fill="white" stroke="black" points="463,-372.5 463,-428.5 644.02,-428.5 644.02,-372.5 463,-372.5"/>
<text text-anchor="start" x="471" y="-415.5" font-family="Helvetica,sans-Serif" font-size="10.00">/jenkins/jenlib_workspaces</text>
<text text-anchor="start" x="471" y="-403.5" font-family="Helvetica,sans-Serif" font-size="10.00">_f9/bld_nightly&#45;haldls.YmxkX25p</text>
<text text-anchor="start" x="471" y="-391.5" font-family="Helvetica,sans-Serif" font-size="10.00">Z2h0bHktaGFsZGxzIzEzNzk.x/haldls</text>
<text text-anchor="middle" x="553.51" y="-379.5" font-family="Helvetica,sans-Serif" font-size="10.00">/include/haldls/vx/vector_generator.h</text>
</a>
</g>
</g>
<!-- Node1&#45;&gt;Node13 -->
<g id="edge14" class="edge">
<title>Node1&#45;&gt;Node13</title>
<path fill="none" stroke="midnightblue" d="M488.74,-458.72C499.98,-448.79 512.12,-438.06 522.82,-428.61"/>
<polygon fill="midnightblue" stroke="midnightblue" points="486.31,-456.2 481.13,-465.44 490.95,-461.45 486.31,-456.2"/>
</g>
<!-- Node3 -->
<g id="node3" class="node">
<title>Node3</title>
<g id="a_node3"><a xlink:href="v2_2event_8h.html" target="_top" xlink:title=" ">
<polygon fill="white" stroke="black" points="59,-279.5 59,-335.5 240.02,-335.5 240.02,-279.5 59,-279.5"/>
<text text-anchor="start" x="67" y="-322.5" font-family="Helvetica,sans-Serif" font-size="10.00">/jenkins/jenlib_workspaces</text>
<text text-anchor="start" x="67" y="-310.5" font-family="Helvetica,sans-Serif" font-size="10.00">_f9/bld_nightly&#45;haldls.YmxkX25p</text>
<text text-anchor="start" x="67" y="-298.5" font-family="Helvetica,sans-Serif" font-size="10.00">Z2h0bHktaGFsZGxzIzEzNzk.x/haldls</text>
<text text-anchor="middle" x="149.51" y="-286.5" font-family="Helvetica,sans-Serif" font-size="10.00">/include/haldls/vx/v2/event.h</text>
</a>
</g>
</g>
<!-- Node2&#45;&gt;Node3 -->
<g id="edge2" class="edge">
<title>Node2&#45;&gt;Node3</title>
<path fill="none" stroke="midnightblue" d="M280.24,-368.28C257.01,-357.66 231.26,-345.88 208.79,-335.61"/>
<polygon fill="midnightblue" stroke="midnightblue" points="278.79,-371.47 289.34,-372.44 281.7,-365.1 278.79,-371.47"/>
</g>
<!-- Node7 -->
<g id="node7" class="node">
<title>Node7</title>
<g id="a_node7"><a xlink:href="v3_2event_8h.html" target="_top" xlink:title=" ">
<polygon fill="white" stroke="black" points="258,-279.5 258,-335.5 439.02,-335.5 439.02,-279.5 258,-279.5"/>
<text text-anchor="start" x="266" y="-322.5" font-family="Helvetica,sans-Serif" font-size="10.00">/jenkins/jenlib_workspaces</text>
<text text-anchor="start" x="266" y="-310.5" font-family="Helvetica,sans-Serif" font-size="10.00">_f9/bld_nightly&#45;haldls.YmxkX25p</text>
<text text-anchor="start" x="266" y="-298.5" font-family="Helvetica,sans-Serif" font-size="10.00">Z2h0bHktaGFsZGxzIzEzNzk.x/haldls</text>
<text text-anchor="middle" x="348.51" y="-286.5" font-family="Helvetica,sans-Serif" font-size="10.00">/include/haldls/vx/v3/event.h</text>
</a>
</g>
</g>
<!-- Node2&#45;&gt;Node7 -->
<g id="edge6" class="edge">
<title>Node2&#45;&gt;Node7</title>
<path fill="none" stroke="midnightblue" d="M348.51,-362.12C348.51,-353.3 348.51,-344.06 348.51,-335.78"/>
<polygon fill="midnightblue" stroke="midnightblue" points="345.01,-362.2 348.51,-372.2 352.01,-362.2 345.01,-362.2"/>
</g>
<!-- Node4 -->
<g id="node4" class="node">
<title>Node4</title>
<g id="a_node4"><a xlink:href="v2_2container_8h.html" target="_top" xlink:title=" ">
<polygon fill="white" stroke="black" points="59,-186.5 59,-242.5 240.02,-242.5 240.02,-186.5 59,-186.5"/>
<text text-anchor="start" x="67" y="-229.5" font-family="Helvetica,sans-Serif" font-size="10.00">/jenkins/jenlib_workspaces</text>
<text text-anchor="start" x="67" y="-217.5" font-family="Helvetica,sans-Serif" font-size="10.00">_f9/bld_nightly&#45;haldls.YmxkX25p</text>
<text text-anchor="start" x="67" y="-205.5" font-family="Helvetica,sans-Serif" font-size="10.00">Z2h0bHktaGFsZGxzIzEzNzk.x/haldls</text>
<text text-anchor="middle" x="149.51" y="-193.5" font-family="Helvetica,sans-Serif" font-size="10.00">/include/haldls/vx/v2/container.h</text>
</a>
</g>
</g>
<!-- Node3&#45;&gt;Node4 -->
<g id="edge3" class="edge">
<title>Node3&#45;&gt;Node4</title>
<path fill="none" stroke="midnightblue" d="M149.51,-269.12C149.51,-260.3 149.51,-251.06 149.51,-242.78"/>
<polygon fill="midnightblue" stroke="midnightblue" points="146.01,-269.2 149.51,-279.2 153.01,-269.2 146.01,-269.2"/>
</g>
<!-- Node5 -->
<g id="node5" class="node">
<title>Node5</title>
<g id="a_node5"><a xlink:href="v2_2haldls_8h.html" target="_top" xlink:title=" ">
<polygon fill="white" stroke="black" points="59,-93.5 59,-149.5 240.02,-149.5 240.02,-93.5 59,-93.5"/>
<text text-anchor="start" x="67" y="-136.5" font-family="Helvetica,sans-Serif" font-size="10.00">/jenkins/jenlib_workspaces</text>
<text text-anchor="start" x="67" y="-124.5" font-family="Helvetica,sans-Serif" font-size="10.00">_f9/bld_nightly&#45;haldls.YmxkX25p</text>
<text text-anchor="start" x="67" y="-112.5" font-family="Helvetica,sans-Serif" font-size="10.00">Z2h0bHktaGFsZGxzIzEzNzk.x/haldls</text>
<text text-anchor="middle" x="149.51" y="-100.5" font-family="Helvetica,sans-Serif" font-size="10.00">/include/haldls/vx/v2/haldls.h</text>
</a>
</g>
</g>
<!-- Node4&#45;&gt;Node5 -->
<g id="edge4" class="edge">
<title>Node4&#45;&gt;Node5</title>
<path fill="none" stroke="midnightblue" d="M149.51,-176.12C149.51,-167.3 149.51,-158.06 149.51,-149.78"/>
<polygon fill="midnightblue" stroke="midnightblue" points="146.01,-176.2 149.51,-186.2 153.01,-176.2 146.01,-176.2"/>
</g>
<!-- Node6 -->
<g id="node6" class="node">
<title>Node6</title>
<g id="a_node6"><a xlink:href="v2_2pyhaldls_8h.html" target="_top" xlink:title=" ">
<polygon fill="white" stroke="black" points="59,-0.5 59,-56.5 240.02,-56.5 240.02,-0.5 59,-0.5"/>
<text text-anchor="start" x="67" y="-43.5" font-family="Helvetica,sans-Serif" font-size="10.00">/jenkins/jenlib_workspaces</text>
<text text-anchor="start" x="67" y="-31.5" font-family="Helvetica,sans-Serif" font-size="10.00">_f9/bld_nightly&#45;haldls.YmxkX25p</text>
<text text-anchor="start" x="67" y="-19.5" font-family="Helvetica,sans-Serif" font-size="10.00">Z2h0bHktaGFsZGxzIzEzNzk.x/haldls</text>
<text text-anchor="middle" x="149.51" y="-7.5" font-family="Helvetica,sans-Serif" font-size="10.00">/include/haldls/vx/v2/pyhaldls.h</text>
</a>
</g>
</g>
<!-- Node5&#45;&gt;Node6 -->
<g id="edge5" class="edge">
<title>Node5&#45;&gt;Node6</title>
<path fill="none" stroke="midnightblue" d="M149.51,-83.12C149.51,-74.3 149.51,-65.06 149.51,-56.78"/>
<polygon fill="midnightblue" stroke="midnightblue" points="146.01,-83.2 149.51,-93.2 153.01,-83.2 146.01,-83.2"/>
</g>
<!-- Node8 -->
<g id="node8" class="node">
<title>Node8</title>
<g id="a_node8"><a xlink:href="v3_2container_8h.html" target="_top" xlink:title=" ">
<polygon fill="white" stroke="black" points="673,-186.5 673,-242.5 854.02,-242.5 854.02,-186.5 673,-186.5"/>
<text text-anchor="start" x="681" y="-229.5" font-family="Helvetica,sans-Serif" font-size="10.00">/jenkins/jenlib_workspaces</text>
<text text-anchor="start" x="681" y="-217.5" font-family="Helvetica,sans-Serif" font-size="10.00">_f9/bld_nightly&#45;haldls.YmxkX25p</text>
<text text-anchor="start" x="681" y="-205.5" font-family="Helvetica,sans-Serif" font-size="10.00">Z2h0bHktaGFsZGxzIzEzNzk.x/haldls</text>
<text text-anchor="middle" x="763.51" y="-193.5" font-family="Helvetica,sans-Serif" font-size="10.00">/include/haldls/vx/v3/container.h</text>
</a>
</g>
</g>
<!-- Node7&#45;&gt;Node8 -->
<g id="edge7" class="edge">
<title>Node7&#45;&gt;Node8</title>
<path fill="none" stroke="midnightblue" d="M449.1,-278.92C530.36,-259.78 612.18,-243.53 672.85,-232.05"/>
<polygon fill="midnightblue" stroke="midnightblue" points="448.11,-275.56 439.19,-281.27 449.73,-282.37 448.11,-275.56"/>
</g>
<!-- Node9 -->
<g id="node9" class="node">
<title>Node9</title>
<g id="a_node9"><a xlink:href="v3_2haldls_8h.html" target="_top" xlink:title=" ">
<polygon fill="white" stroke="black" points="673,-93.5 673,-149.5 854.02,-149.5 854.02,-93.5 673,-93.5"/>
<text text-anchor="start" x="681" y="-136.5" font-family="Helvetica,sans-Serif" font-size="10.00">/jenkins/jenlib_workspaces</text>
<text text-anchor="start" x="681" y="-124.5" font-family="Helvetica,sans-Serif" font-size="10.00">_f9/bld_nightly&#45;haldls.YmxkX25p</text>
<text text-anchor="start" x="681" y="-112.5" font-family="Helvetica,sans-Serif" font-size="10.00">Z2h0bHktaGFsZGxzIzEzNzk.x/haldls</text>
<text text-anchor="middle" x="763.51" y="-100.5" font-family="Helvetica,sans-Serif" font-size="10.00">/include/haldls/vx/v3/haldls.h</text>
</a>
</g>
</g>
<!-- Node8&#45;&gt;Node9 -->
<g id="edge8" class="edge">
<title>Node8&#45;&gt;Node9</title>
<path fill="none" stroke="midnightblue" d="M763.51,-176.12C763.51,-167.3 763.51,-158.06 763.51,-149.78"/>
<polygon fill="midnightblue" stroke="midnightblue" points="760.01,-176.2 763.51,-186.2 767.01,-176.2 760.01,-176.2"/>
</g>
<!-- Node10 -->
<g id="node10" class="node">
<title>Node10</title>
<g id="a_node10"><a xlink:href="v3_2pyhaldls_8h.html" target="_top" xlink:title=" ">
<polygon fill="white" stroke="black" points="673,-0.5 673,-56.5 854.02,-56.5 854.02,-0.5 673,-0.5"/>
<text text-anchor="start" x="681" y="-43.5" font-family="Helvetica,sans-Serif" font-size="10.00">/jenkins/jenlib_workspaces</text>
<text text-anchor="start" x="681" y="-31.5" font-family="Helvetica,sans-Serif" font-size="10.00">_f9/bld_nightly&#45;haldls.YmxkX25p</text>
<text text-anchor="start" x="681" y="-19.5" font-family="Helvetica,sans-Serif" font-size="10.00">Z2h0bHktaGFsZGxzIzEzNzk.x/haldls</text>
<text text-anchor="middle" x="763.51" y="-7.5" font-family="Helvetica,sans-Serif" font-size="10.00">/include/haldls/vx/v3/pyhaldls.h</text>
</a>
</g>
</g>
<!-- Node9&#45;&gt;Node10 -->
<g id="edge9" class="edge">
<title>Node9&#45;&gt;Node10</title>
<path fill="none" stroke="midnightblue" d="M763.51,-83.12C763.51,-74.3 763.51,-65.06 763.51,-56.78"/>
<polygon fill="midnightblue" stroke="midnightblue" points="760.01,-83.2 763.51,-93.2 767.01,-83.2 760.01,-83.2"/>
</g>
<!-- Node11&#45;&gt;Node4 -->
<g id="edge11" class="edge">
<title>Node11&#45;&gt;Node4</title>
<path fill="none" stroke="midnightblue" d="M63.06,-363.36C47.89,-338.68 34.82,-305.73 49.51,-279 57.78,-263.95 71.29,-251.96 85.75,-242.64"/>
<polygon fill="midnightblue" stroke="midnightblue" points="60.32,-365.56 68.7,-372.05 66.19,-361.75 60.32,-365.56"/>
</g>
<!-- Node12&#45;&gt;Node8 -->
<g id="edge13" class="edge">
<title>Node12&#45;&gt;Node8</title>
<path fill="none" stroke="midnightblue" d="M852.92,-364.51C859.31,-355.82 865.07,-346.09 868.51,-336 876.68,-312.02 880.95,-301.07 868.51,-279 859.93,-263.78 846.07,-251.8 831.2,-242.54"/>
<polygon fill="midnightblue" stroke="midnightblue" points="850.07,-362.46 846.65,-372.49 855.58,-366.78 850.07,-362.46"/>
</g>
<!-- Node14 -->
<g id="node14" class="node">
<title>Node14</title>
<g id="a_node14"><a xlink:href="v2_2vector__generator_8h.html" target="_top" xlink:title=" ">
<polygon fill="white" stroke="black" points="457.43,-279.5 457.43,-335.5 649.59,-335.5 649.59,-279.5 457.43,-279.5"/>
<text text-anchor="start" x="465.43" y="-322.5" font-family="Helvetica,sans-Serif" font-size="10.00">/jenkins/jenlib_workspaces</text>
<text text-anchor="start" x="465.43" y="-310.5" font-family="Helvetica,sans-Serif" font-size="10.00">_f9/bld_nightly&#45;haldls.YmxkX25p</text>
<text text-anchor="start" x="465.43" y="-298.5" font-family="Helvetica,sans-Serif" font-size="10.00">Z2h0bHktaGFsZGxzIzEzNzk.x/haldls</text>
<text text-anchor="middle" x="553.51" y="-286.5" font-family="Helvetica,sans-Serif" font-size="10.00">/include/haldls/vx/v2/vector_generator.h</text>
</a>
</g>
</g>
<!-- Node13&#45;&gt;Node14 -->
<g id="edge15" class="edge">
<title>Node13&#45;&gt;Node14</title>
<path fill="none" stroke="midnightblue" d="M553.51,-362.12C553.51,-353.3 553.51,-344.06 553.51,-335.78"/>
<polygon fill="midnightblue" stroke="midnightblue" points="550.01,-362.2 553.51,-372.2 557.01,-362.2 550.01,-362.2"/>
</g>
<!-- Node15 -->
<g id="node15" class="node">
<title>Node15</title>
<g id="a_node15"><a xlink:href="v3_2vector__generator_8h.html" target="_top" xlink:title=" ">
<polygon fill="white" stroke="black" points="667.43,-279.5 667.43,-335.5 859.59,-335.5 859.59,-279.5 667.43,-279.5"/>
<text text-anchor="start" x="675.43" y="-322.5" font-family="Helvetica,sans-Serif" font-size="10.00">/jenkins/jenlib_workspaces</text>
<text text-anchor="start" x="675.43" y="-310.5" font-family="Helvetica,sans-Serif" font-size="10.00">_f9/bld_nightly&#45;haldls.YmxkX25p</text>
<text text-anchor="start" x="675.43" y="-298.5" font-family="Helvetica,sans-Serif" font-size="10.00">Z2h0bHktaGFsZGxzIzEzNzk.x/haldls</text>
<text text-anchor="middle" x="763.51" y="-286.5" font-family="Helvetica,sans-Serif" font-size="10.00">/include/haldls/vx/v3/vector_generator.h</text>
</a>
</g>
</g>
<!-- Node13&#45;&gt;Node15 -->
<g id="edge17" class="edge">
<title>Node13&#45;&gt;Node15</title>
<path fill="none" stroke="midnightblue" d="M625.23,-368.42C649.82,-357.76 677.14,-345.93 700.95,-335.61"/>
<polygon fill="midnightblue" stroke="midnightblue" points="623.73,-365.26 615.95,-372.44 626.51,-371.68 623.73,-365.26"/>
</g>
<!-- Node14&#45;&gt;Node4 -->
<g id="edge16" class="edge">
<title>Node14&#45;&gt;Node4</title>
<path fill="none" stroke="midnightblue" d="M447.29,-278.75C372.02,-261.05 296.91,-245.2 240.04,-233.58"/>
<polygon fill="midnightblue" stroke="midnightblue" points="446.89,-282.25 457.42,-281.14 448.5,-275.44 446.89,-282.25"/>
</g>
<!-- Node15&#45;&gt;Node8 -->
<g id="edge18" class="edge">
<title>Node15&#45;&gt;Node8</title>
<path fill="none" stroke="midnightblue" d="M763.51,-269.12C763.51,-260.3 763.51,-251.06 763.51,-242.78"/>
<polygon fill="midnightblue" stroke="midnightblue" points="760.01,-269.2 763.51,-279.2 767.01,-269.2 760.01,-269.2"/>
</g>
</g>
</svg>
