<?xml version="1.0" encoding="UTF-8" standalone="no"?>
<!DOCTYPE svg PUBLIC "-//W3C//DTD SVG 1.1//EN"
 "http://www.w3.org/Graphics/SVG/1.1/DTD/svg11.dtd">
<!-- Generated by graphviz version 2.46.0 (0)
 -->
<!-- Title: /jenkins/jenlib_workspaces_f9/bld_nightly&#45;haldls.YmxkX25pZ2h0bHktaGFsZGxzIzEzNzk.x/haldls/include/haldls/vx/pll.h Pages: 1 -->
<svg width="1305pt" height="329pt"
 viewBox="0.00 0.00 1304.68 329.00" xmlns="http://www.w3.org/2000/svg" xmlns:xlink="http://www.w3.org/1999/xlink">
<g id="graph0" class="graph" transform="scale(1 1) rotate(0) translate(4 325)">
<title>/jenkins/jenlib_workspaces_f9/bld_nightly&#45;haldls.YmxkX25pZ2h0bHktaGFsZGxzIzEzNzk.x/haldls/include/haldls/vx/pll.h</title>
<polygon fill="white" stroke="transparent" points="-4,4 -4,-325 1300.68,-325 1300.68,4 -4,4"/>
<!-- Node1 -->
<g id="node1" class="node">
<title>Node1</title>
<g id="a_node1"><a xlink:title=" ">
<polygon fill="#bfbfbf" stroke="black" points="475.66,-264.5 475.66,-320.5 656.68,-320.5 656.68,-264.5 475.66,-264.5"/>
<text text-anchor="start" x="483.66" y="-307.5" font-family="Helvetica,sans-Serif" font-size="10.00">/jenkins/jenlib_workspaces</text>
<text text-anchor="start" x="483.66" y="-295.5" font-family="Helvetica,sans-Serif" font-size="10.00">_f9/bld_nightly&#45;haldls.YmxkX25p</text>
<text text-anchor="start" x="483.66" y="-283.5" font-family="Helvetica,sans-Serif" font-size="10.00">Z2h0bHktaGFsZGxzIzEzNzk.x/haldls</text>
<text text-anchor="middle" x="566.17" y="-271.5" font-family="Helvetica,sans-Serif" font-size="10.00">/include/haldls/vx/pll.h</text>
</a>
</g>
</g>
<!-- Node2 -->
<g id="node2" class="node">
<title>Node2</title>
<g id="a_node2"><a xlink:title=" ">
<polygon fill="white" stroke="#bfbfbf" points="151.78,-75.5 151.78,-95.5 190.56,-95.5 190.56,-75.5 151.78,-75.5"/>
<text text-anchor="middle" x="171.17" y="-82.5" font-family="Helvetica,sans-Serif" font-size="10.00">array</text>
</a>
</g>
</g>
<!-- Node1&#45;&gt;Node2 -->
<g id="edge1" class="edge">
<title>Node1&#45;&gt;Node2</title>
<path fill="none" stroke="midnightblue" d="M475.51,-275.46C432.55,-265.57 381.49,-250.38 339.17,-228 275.07,-194.11 213.52,-132.51 186.08,-103.05"/>
<polygon fill="midnightblue" stroke="midnightblue" points="188.62,-100.64 179.28,-95.65 183.47,-105.38 188.62,-100.64"/>
</g>
<!-- Node3 -->
<g id="node3" class="node">
<title>Node3</title>
<g id="a_node3"><a xlink:title=" ">
<polygon fill="white" stroke="#bfbfbf" points="0,-6.5 0,-26.5 44.34,-26.5 44.34,-6.5 0,-6.5"/>
<text text-anchor="middle" x="22.17" y="-13.5" font-family="Helvetica,sans-Serif" font-size="10.00">iosfwd</text>
</a>
</g>
</g>
<!-- Node1&#45;&gt;Node3 -->
<g id="edge2" class="edge">
<title>Node1&#45;&gt;Node3</title>
<path fill="none" stroke="midnightblue" d="M475.41,-281.59C418.61,-272.86 345.11,-256.85 285.17,-228 178.19,-176.51 75.49,-74.3 37.55,-34.2"/>
<polygon fill="midnightblue" stroke="midnightblue" points="40.05,-31.74 30.66,-26.84 34.94,-36.53 40.05,-31.74"/>
</g>
<!-- Node4 -->
<g id="node4" class="node">
<title>Node4</title>
<g id="a_node4"><a xlink:title=" ">
<polygon fill="white" stroke="#bfbfbf" points="841.27,-75.5 841.27,-95.5 975.07,-95.5 975.07,-75.5 841.27,-75.5"/>
<text text-anchor="middle" x="908.17" y="-82.5" font-family="Helvetica,sans-Serif" font-size="10.00">halco/common/geometry.h</text>
</a>
</g>
</g>
<!-- Node1&#45;&gt;Node4 -->
<g id="edge3" class="edge">
<title>Node1&#45;&gt;Node4</title>
<path fill="none" stroke="midnightblue" d="M586.54,-264.48C603.56,-243.36 629.45,-214.43 657.17,-195 724.23,-148 814.88,-115.07 866.88,-98.6"/>
<polygon fill="midnightblue" stroke="midnightblue" points="868.24,-101.84 876.75,-95.52 866.16,-95.16 868.24,-101.84"/>
</g>
<!-- Node5 -->
<g id="node5" class="node">
<title>Node5</title>
<g id="a_node5"><a xlink:title=" ">
<polygon fill="white" stroke="#bfbfbf" points="1069.05,-195.5 1069.05,-227.5 1177.29,-227.5 1177.29,-195.5 1069.05,-195.5"/>
<text text-anchor="start" x="1077.05" y="-214.5" font-family="Helvetica,sans-Serif" font-size="10.00">halco/common/typed</text>
<text text-anchor="middle" x="1123.17" y="-202.5" font-family="Helvetica,sans-Serif" font-size="10.00">_array.h</text>
</a>
</g>
</g>
<!-- Node1&#45;&gt;Node5 -->
<g id="edge4" class="edge">
<title>Node1&#45;&gt;Node5</title>
<path fill="none" stroke="midnightblue" d="M656.69,-282.35C755.14,-271.79 916.95,-252.67 1055.17,-228 1056.27,-227.8 1057.38,-227.6 1058.5,-227.39"/>
<polygon fill="midnightblue" stroke="midnightblue" points="1059.56,-230.75 1068.7,-225.39 1058.21,-223.88 1059.56,-230.75"/>
</g>
<!-- Node6 -->
<g id="node6" class="node">
<title>Node6</title>
<g id="a_node6"><a xlink:title=" ">
<polygon fill="white" stroke="#bfbfbf" points="1195.66,-195.5 1195.66,-227.5 1296.68,-227.5 1296.68,-195.5 1195.66,-195.5"/>
<text text-anchor="start" x="1203.66" y="-214.5" font-family="Helvetica,sans-Serif" font-size="10.00">halco/hicann&#45;dls/vx</text>
<text text-anchor="middle" x="1246.17" y="-202.5" font-family="Helvetica,sans-Serif" font-size="10.00">/pll.h</text>
</a>
</g>
</g>
<!-- Node1&#45;&gt;Node6 -->
<g id="edge5" class="edge">
<title>Node1&#45;&gt;Node6</title>
<path fill="none" stroke="midnightblue" d="M656.86,-286.51C776.11,-278.98 992.11,-262.04 1185.48,-227.94"/>
<polygon fill="midnightblue" stroke="midnightblue" points="1186.32,-231.35 1195.55,-226.15 1185.09,-224.46 1186.32,-231.35"/>
</g>
<!-- Node7 -->
<g id="node7" class="node">
<title>Node7</title>
<g id="a_node7"><a xlink:href="cerealization_8h.html" target="_top" xlink:title=" ">
<polygon fill="white" stroke="black" points="246.49,-75.5 246.49,-95.5 355.84,-95.5 355.84,-75.5 246.49,-75.5"/>
<text text-anchor="middle" x="301.17" y="-82.5" font-family="Helvetica,sans-Serif" font-size="10.00">haldls/cerealization.h</text>
</a>
</g>
</g>
<!-- Node1&#45;&gt;Node7 -->
<g id="edge6" class="edge">
<title>Node1&#45;&gt;Node7</title>
<path fill="none" stroke="midnightblue" d="M475.62,-278.02C439.5,-268.87 399.6,-253.57 370.17,-228 332.11,-194.94 313.08,-136.07 305.41,-105.74"/>
<polygon fill="midnightblue" stroke="midnightblue" points="308.72,-104.55 303.01,-95.63 301.91,-106.16 308.72,-104.55"/>
</g>
<!-- Node9 -->
<g id="node9" class="node">
<title>Node9</title>
<g id="a_node9"><a xlink:title=" ">
<polygon fill="white" stroke="#bfbfbf" points="343.66,-6.5 343.66,-26.5 424.67,-26.5 424.67,-6.5 343.66,-6.5"/>
<text text-anchor="middle" x="384.17" y="-13.5" font-family="Helvetica,sans-Serif" font-size="10.00">hate/visibility.h</text>
</a>
</g>
</g>
<!-- Node1&#45;&gt;Node9 -->
<g id="edge36" class="edge">
<title>Node1&#45;&gt;Node9</title>
<path fill="none" stroke="midnightblue" d="M537.1,-264.42C501.72,-229.93 442.47,-166.96 408.17,-102 397.07,-80.99 390.59,-54.26 387.22,-36.55"/>
<polygon fill="midnightblue" stroke="midnightblue" points="390.65,-35.84 385.47,-26.6 383.76,-37.05 390.65,-35.84"/>
</g>
<!-- Node12 -->
<g id="node12" class="node">
<title>Node12</title>
<g id="a_node12"><a xlink:href="constants_8h.html" target="_top" xlink:title=" ">
<polygon fill="white" stroke="black" points="665.76,-201.5 665.76,-221.5 774.57,-221.5 774.57,-201.5 665.76,-201.5"/>
<text text-anchor="middle" x="720.17" y="-208.5" font-family="Helvetica,sans-Serif" font-size="10.00">haldls/vx/constants.h</text>
</a>
</g>
</g>
<!-- Node1&#45;&gt;Node12 -->
<g id="edge12" class="edge">
<title>Node1&#45;&gt;Node12</title>
<path fill="none" stroke="midnightblue" d="M619.17,-264.31C644.25,-251.44 673.12,-236.64 693.55,-226.16"/>
<polygon fill="midnightblue" stroke="midnightblue" points="695.27,-229.21 702.57,-221.53 692.07,-222.98 695.27,-229.21"/>
</g>
<!-- Node13 -->
<g id="node13" class="node">
<title>Node13</title>
<g id="a_node13"><a xlink:href="genpybind_8h.html" target="_top" xlink:title=" ">
<polygon fill="white" stroke="black" points="1105.1,-6.5 1105.1,-26.5 1217.24,-26.5 1217.24,-6.5 1105.1,-6.5"/>
<text text-anchor="middle" x="1161.17" y="-13.5" font-family="Helvetica,sans-Serif" font-size="10.00">haldls/vx/genpybind.h</text>
</a>
</g>
</g>
<!-- Node1&#45;&gt;Node13 -->
<g id="edge34" class="edge">
<title>Node1&#45;&gt;Node13</title>
<path fill="none" stroke="midnightblue" d="M656.8,-269.45C696.26,-258.72 742.65,-244.54 783.17,-228 893.25,-183.07 915.61,-160.42 1019.17,-102 1061.37,-78.19 1109.7,-49.02 1137.7,-31.92"/>
<polygon fill="midnightblue" stroke="midnightblue" points="1139.67,-34.81 1146.38,-26.61 1136.02,-28.84 1139.67,-34.81"/>
</g>
<!-- Node17 -->
<g id="node17" class="node">
<title>Node17</title>
<g id="a_node17"><a xlink:href="traits_8h.html" target="_top" xlink:title=" ">
<polygon fill="white" stroke="black" points="450.33,-75.5 450.33,-95.5 538.01,-95.5 538.01,-75.5 450.33,-75.5"/>
<text text-anchor="middle" x="494.17" y="-82.5" font-family="Helvetica,sans-Serif" font-size="10.00">haldls/vx/traits.h</text>
</a>
</g>
</g>
<!-- Node1&#45;&gt;Node17 -->
<g id="edge35" class="edge">
<title>Node1&#45;&gt;Node17</title>
<path fill="none" stroke="midnightblue" d="M554.2,-264.46C542.74,-237.94 525.42,-196.18 513.17,-159 507.26,-141.08 501.95,-120.19 498.45,-105.45"/>
<polygon fill="midnightblue" stroke="midnightblue" points="501.82,-104.49 496.15,-95.53 495,-106.07 501.82,-104.49"/>
</g>
<!-- Node7&#45;&gt;Node3 -->
<g id="edge10" class="edge">
<title>Node7&#45;&gt;Node3</title>
<path fill="none" stroke="midnightblue" d="M261.43,-75.42C251.86,-73.28 241.65,-71.02 232.17,-69 153.23,-52.15 130.65,-58.8 54.17,-33 52.24,-32.35 50.27,-31.61 48.32,-30.81"/>
<polygon fill="midnightblue" stroke="midnightblue" points="49.33,-27.43 38.77,-26.52 46.46,-33.81 49.33,-27.43"/>
</g>
<!-- Node8 -->
<g id="node8" class="node">
<title>Node8</title>
<g id="a_node8"><a xlink:title=" ">
<polygon fill="white" stroke="#bfbfbf" points="242.54,-6.5 242.54,-26.5 325.79,-26.5 325.79,-6.5 242.54,-6.5"/>
<text text-anchor="middle" x="284.17" y="-13.5" font-family="Helvetica,sans-Serif" font-size="10.00">hate/type_list.h</text>
</a>
</g>
</g>
<!-- Node7&#45;&gt;Node8 -->
<g id="edge7" class="edge">
<title>Node7&#45;&gt;Node8</title>
<path fill="none" stroke="midnightblue" d="M298.87,-75.46C296.35,-65.53 292.23,-49.28 288.99,-36.52"/>
<polygon fill="midnightblue" stroke="midnightblue" points="292.38,-35.65 286.53,-26.82 285.6,-37.38 292.38,-35.65"/>
</g>
<!-- Node7&#45;&gt;Node9 -->
<g id="edge8" class="edge">
<title>Node7&#45;&gt;Node9</title>
<path fill="none" stroke="midnightblue" d="M312.36,-75.46C325.85,-64.57 348.73,-46.1 365.04,-32.94"/>
<polygon fill="midnightblue" stroke="midnightblue" points="367.3,-35.61 372.89,-26.61 362.91,-30.16 367.3,-35.61"/>
</g>
<!-- Node10 -->
<g id="node10" class="node">
<title>Node10</title>
<g id="a_node10"><a xlink:title=" ">
<polygon fill="white" stroke="#bfbfbf" points="62.72,-6.5 62.72,-26.5 107.62,-26.5 107.62,-6.5 62.72,-6.5"/>
<text text-anchor="middle" x="85.17" y="-13.5" font-family="Helvetica,sans-Serif" font-size="10.00">cstdint</text>
</a>
</g>
</g>
<!-- Node7&#45;&gt;Node10 -->
<g id="edge9" class="edge">
<title>Node7&#45;&gt;Node10</title>
<path fill="none" stroke="midnightblue" d="M261.03,-75.45C223.3,-66.44 165.56,-51.33 117.17,-33 115.35,-32.31 113.49,-31.56 111.64,-30.76"/>
<polygon fill="midnightblue" stroke="midnightblue" points="113.08,-27.57 102.53,-26.6 110.17,-33.94 113.08,-27.57"/>
</g>
<!-- Node11 -->
<g id="node11" class="node">
<title>Node11</title>
<g id="a_node11"><a xlink:title=" ">
<polygon fill="white" stroke="#bfbfbf" points="126.05,-6.5 126.05,-26.5 224.29,-26.5 224.29,-6.5 126.05,-6.5"/>
<text text-anchor="middle" x="175.17" y="-13.5" font-family="Helvetica,sans-Serif" font-size="10.00">cereal/macros.hpp</text>
</a>
</g>
</g>
<!-- Node7&#45;&gt;Node11 -->
<g id="edge11" class="edge">
<title>Node7&#45;&gt;Node11</title>
<path fill="none" stroke="midnightblue" d="M284.17,-75.46C262.85,-64.13 226.07,-44.56 201.19,-31.34"/>
<polygon fill="midnightblue" stroke="midnightblue" points="202.77,-28.21 192.29,-26.61 199.48,-34.39 202.77,-28.21"/>
</g>
<!-- Node12&#45;&gt;Node13 -->
<g id="edge13" class="edge">
<title>Node12&#45;&gt;Node13</title>
<path fill="none" stroke="midnightblue" d="M749.06,-201.44C798.9,-185.2 903.43,-148.47 984.17,-102 1005.05,-89.98 1006.15,-80.78 1027.17,-69 1056.99,-52.29 1093.32,-38.7 1120.62,-29.69"/>
<polygon fill="midnightblue" stroke="midnightblue" points="1121.81,-32.98 1130.25,-26.58 1119.66,-26.32 1121.81,-32.98"/>
</g>
<!-- Node14 -->
<g id="node14" class="node">
<title>Node14</title>
<g id="a_node14"><a xlink:href="timer_8h.html" target="_top" xlink:title=" ">
<polygon fill="white" stroke="black" points="522.05,-138.5 522.05,-158.5 610.28,-158.5 610.28,-138.5 522.05,-138.5"/>
<text text-anchor="middle" x="566.17" y="-145.5" font-family="Helvetica,sans-Serif" font-size="10.00">haldls/vx/timer.h</text>
</a>
</g>
</g>
<!-- Node12&#45;&gt;Node14 -->
<g id="edge15" class="edge">
<title>Node12&#45;&gt;Node14</title>
<path fill="none" stroke="midnightblue" d="M697.44,-201.5C671.29,-191.14 628.12,-174.04 598.48,-162.3"/>
<polygon fill="midnightblue" stroke="midnightblue" points="599.57,-158.97 588.98,-158.54 596.99,-165.47 599.57,-158.97"/>
</g>
<!-- Node13&#45;&gt;Node13 -->
<g id="edge14" class="edge">
<title>Node13&#45;&gt;Node13</title>
<path fill="none" stroke="midnightblue" d="M1185.06,-26.54C1208.89,-32.26 1235.24,-28.92 1235.24,-16.5 1235.24,-5.78 1215.6,-1.82 1194.9,-4.62"/>
<polygon fill="midnightblue" stroke="midnightblue" points="1194.25,-1.18 1185.06,-6.46 1195.54,-8.06 1194.25,-1.18"/>
</g>
<!-- Node14&#45;&gt;Node2 -->
<g id="edge16" class="edge">
<title>Node14&#45;&gt;Node2</title>
<path fill="none" stroke="midnightblue" d="M521.81,-146.38C452.65,-143.65 315.5,-134.26 204.17,-102 201.86,-101.33 199.51,-100.52 197.18,-99.62"/>
<polygon fill="midnightblue" stroke="midnightblue" points="198.46,-96.36 187.9,-95.6 195.68,-102.79 198.46,-96.36"/>
</g>
<!-- Node14&#45;&gt;Node3 -->
<g id="edge17" class="edge">
<title>Node14&#45;&gt;Node3</title>
<path fill="none" stroke="midnightblue" d="M521.79,-144.5C444.11,-138.74 287.04,-124.65 237.17,-102 216.8,-92.75 219.02,-79.31 199.17,-69 140.25,-38.38 116.61,-55.59 54.17,-33 52.3,-32.32 50.39,-31.57 48.48,-30.77"/>
<polygon fill="midnightblue" stroke="midnightblue" points="49.71,-27.48 39.16,-26.54 46.81,-33.86 49.71,-27.48"/>
</g>
<!-- Node14&#45;&gt;Node4 -->
<g id="edge19" class="edge">
<title>Node14&#45;&gt;Node4</title>
<path fill="none" stroke="midnightblue" d="M610.46,-140.15C674.87,-129.42 791.29,-109.89 833.17,-102 840.53,-100.61 848.28,-99.09 855.89,-97.55"/>
<polygon fill="midnightblue" stroke="midnightblue" points="856.68,-100.96 865.78,-95.53 855.28,-94.1 856.68,-100.96"/>
</g>
<!-- Node14&#45;&gt;Node7 -->
<g id="edge21" class="edge">
<title>Node14&#45;&gt;Node7</title>
<path fill="none" stroke="midnightblue" d="M527.07,-138.5C480.09,-127.69 401.26,-109.54 350.24,-97.8"/>
<polygon fill="midnightblue" stroke="midnightblue" points="350.96,-94.37 340.43,-95.54 349.39,-101.19 350.96,-94.37"/>
</g>
<!-- Node14&#45;&gt;Node9 -->
<g id="edge33" class="edge">
<title>Node14&#45;&gt;Node9</title>
<path fill="none" stroke="midnightblue" d="M522.03,-138.64C496.45,-131.84 464.73,-120.41 441.17,-102 418.35,-84.18 401.42,-54.62 392.17,-35.61"/>
<polygon fill="midnightblue" stroke="midnightblue" points="395.33,-34.1 387.93,-26.51 388.98,-37.06 395.33,-34.1"/>
</g>
<!-- Node14&#45;&gt;Node13 -->
<g id="edge22" class="edge">
<title>Node14&#45;&gt;Node13</title>
<path fill="none" stroke="midnightblue" d="M594.69,-138.42C617.41,-130.53 649.55,-117.89 675.17,-102 694.18,-90.21 692.6,-77.8 713.17,-69 870.35,-1.73 927.49,-60.9 1096.17,-33 1103.01,-31.87 1110.2,-30.42 1117.21,-28.86"/>
<polygon fill="midnightblue" stroke="midnightblue" points="1118.33,-32.2 1127.28,-26.53 1116.75,-25.38 1118.33,-32.2"/>
</g>
<!-- Node15 -->
<g id="node15" class="node">
<title>Node15</title>
<g id="a_node15"><a xlink:title=" ">
<polygon fill="white" stroke="#bfbfbf" points="555.94,-69.5 555.94,-101.5 666.4,-101.5 666.4,-69.5 555.94,-69.5"/>
<text text-anchor="start" x="563.94" y="-88.5" font-family="Helvetica,sans-Serif" font-size="10.00">fisch/vx/word_access</text>
<text text-anchor="middle" x="611.17" y="-76.5" font-family="Helvetica,sans-Serif" font-size="10.00">/type/timer.h</text>
</a>
</g>
</g>
<!-- Node14&#45;&gt;Node15 -->
<g id="edge18" class="edge">
<title>Node14&#45;&gt;Node15</title>
<path fill="none" stroke="midnightblue" d="M572.81,-138.5C578.38,-130.94 586.61,-119.79 594.01,-109.76"/>
<polygon fill="midnightblue" stroke="midnightblue" points="596.84,-111.82 599.96,-101.69 591.21,-107.66 596.84,-111.82"/>
</g>
<!-- Node16 -->
<g id="node16" class="node">
<title>Node16</title>
<g id="a_node16"><a xlink:title=" ">
<polygon fill="white" stroke="#bfbfbf" points="722.66,-69.5 722.66,-101.5 823.68,-101.5 823.68,-69.5 722.66,-69.5"/>
<text text-anchor="start" x="730.66" y="-88.5" font-family="Helvetica,sans-Serif" font-size="10.00">halco/hicann&#45;dls/vx</text>
<text text-anchor="middle" x="773.17" y="-76.5" font-family="Helvetica,sans-Serif" font-size="10.00">/timing.h</text>
</a>
</g>
</g>
<!-- Node14&#45;&gt;Node16 -->
<g id="edge20" class="edge">
<title>Node14&#45;&gt;Node16</title>
<path fill="none" stroke="midnightblue" d="M596.71,-138.5C627.06,-129.56 674.45,-115.59 712.47,-104.39"/>
<polygon fill="midnightblue" stroke="midnightblue" points="713.82,-107.64 722.42,-101.45 711.84,-100.92 713.82,-107.64"/>
</g>
<!-- Node14&#45;&gt;Node17 -->
<g id="edge23" class="edge">
<title>Node14&#45;&gt;Node17</title>
<path fill="none" stroke="midnightblue" d="M555.54,-138.5C544.27,-128.95 526.24,-113.67 512.64,-102.15"/>
<polygon fill="midnightblue" stroke="midnightblue" points="514.73,-99.33 504.83,-95.54 510.2,-104.67 514.73,-99.33"/>
</g>
<!-- Node17&#45;&gt;Node8 -->
<g id="edge27" class="edge">
<title>Node17&#45;&gt;Node8</title>
<path fill="none" stroke="midnightblue" d="M465.85,-75.46C428.82,-63.65 363.82,-42.91 322.44,-29.71"/>
<polygon fill="midnightblue" stroke="midnightblue" points="323.3,-26.31 312.71,-26.61 321.17,-32.98 323.3,-26.31"/>
</g>
<!-- Node17&#45;&gt;Node9 -->
<g id="edge28" class="edge">
<title>Node17&#45;&gt;Node9</title>
<path fill="none" stroke="midnightblue" d="M479.33,-75.46C460.96,-64.28 429.45,-45.08 407.75,-31.86"/>
<polygon fill="midnightblue" stroke="midnightblue" points="409.48,-28.82 399.12,-26.61 405.84,-34.8 409.48,-28.82"/>
</g>
<!-- Node17&#45;&gt;Node13 -->
<g id="edge26" class="edge">
<title>Node17&#45;&gt;Node13</title>
<path fill="none" stroke="midnightblue" d="M520.86,-75.46C529.19,-72.97 538.48,-70.54 547.17,-69 787.96,-26.43 854.38,-69.49 1096.17,-33 1103.34,-31.92 1110.9,-30.44 1118.21,-28.82"/>
<polygon fill="midnightblue" stroke="midnightblue" points="1119.03,-32.22 1127.98,-26.55 1117.45,-25.4 1119.03,-32.22"/>
</g>
<!-- Node18 -->
<g id="node18" class="node">
<title>Node18</title>
<g id="a_node18"><a xlink:title=" ">
<polygon fill="white" stroke="#bfbfbf" points="681.11,-6.5 681.11,-26.5 763.23,-26.5 763.23,-6.5 681.11,-6.5"/>
<text text-anchor="middle" x="722.17" y="-13.5" font-family="Helvetica,sans-Serif" font-size="10.00">fisch/vx/traits.h</text>
</a>
</g>
</g>
<!-- Node17&#45;&gt;Node18 -->
<g id="edge24" class="edge">
<title>Node17&#45;&gt;Node18</title>
<path fill="none" stroke="midnightblue" d="M524.99,-75.46C532.26,-73.34 539.99,-71.08 547.17,-69 602.69,-52.89 616.78,-49.56 672.17,-33 675.93,-31.88 679.85,-30.69 683.76,-29.49"/>
<polygon fill="midnightblue" stroke="midnightblue" points="684.85,-32.82 693.38,-26.53 682.79,-26.13 684.85,-32.82"/>
</g>
<!-- Node19 -->
<g id="node19" class="node">
<title>Node19</title>
<g id="a_node19"><a xlink:title=" ">
<polygon fill="white" stroke="#bfbfbf" points="780.94,-0.5 780.94,-32.5 891.4,-32.5 891.4,-0.5 780.94,-0.5"/>
<text text-anchor="start" x="788.94" y="-19.5" font-family="Helvetica,sans-Serif" font-size="10.00">fisch/vx/word_access</text>
<text text-anchor="middle" x="836.17" y="-7.5" font-family="Helvetica,sans-Serif" font-size="10.00">_type.h</text>
</a>
</g>
</g>
<!-- Node17&#45;&gt;Node19 -->
<g id="edge25" class="edge">
<title>Node17&#45;&gt;Node19</title>
<path fill="none" stroke="midnightblue" d="M522.6,-75.47C530.5,-73.16 539.12,-70.81 547.17,-69 642.88,-47.44 671.12,-52.58 770.85,-33.17"/>
<polygon fill="midnightblue" stroke="midnightblue" points="771.59,-36.59 780.72,-31.21 770.23,-29.72 771.59,-36.59"/>
</g>
<!-- Node20 -->
<g id="node20" class="node">
<title>Node20</title>
<g id="a_node20"><a xlink:title=" ">
<polygon fill="white" stroke="#bfbfbf" points="909.11,-6.5 909.11,-26.5 971.23,-26.5 971.23,-6.5 909.11,-6.5"/>
<text text-anchor="middle" x="940.17" y="-13.5" font-family="Helvetica,sans-Serif" font-size="10.00">type_traits</text>
</a>
</g>
</g>
<!-- Node17&#45;&gt;Node20 -->
<g id="edge29" class="edge">
<title>Node17&#45;&gt;Node20</title>
<path fill="none" stroke="midnightblue" d="M521.44,-75.49C529.64,-73.06 538.7,-70.66 547.17,-69 701.94,-38.74 746.82,-69.82 900.17,-33 903.43,-32.22 906.78,-31.23 910.08,-30.14"/>
<polygon fill="midnightblue" stroke="midnightblue" points="911.54,-33.33 919.74,-26.63 909.15,-26.75 911.54,-33.33"/>
</g>
<!-- Node21 -->
<g id="node21" class="node">
<title>Node21</title>
<g id="a_node21"><a xlink:title=" ">
<polygon fill="white" stroke="#bfbfbf" points="988.77,-0.5 988.77,-32.5 1087.57,-32.5 1087.57,-0.5 988.77,-0.5"/>
<text text-anchor="start" x="996.77" y="-19.5" font-family="Helvetica,sans-Serif" font-size="10.00">boost/utility/enable</text>
<text text-anchor="middle" x="1038.17" y="-7.5" font-family="Helvetica,sans-Serif" font-size="10.00">_if.hpp</text>
</a>
</g>
</g>
<!-- Node17&#45;&gt;Node21 -->
<g id="edge30" class="edge">
<title>Node17&#45;&gt;Node21</title>
<path fill="none" stroke="midnightblue" d="M521.15,-75.47C529.41,-73.01 538.59,-70.59 547.17,-69 733.78,-34.32 788.06,-64.97 978.56,-33.08"/>
<polygon fill="midnightblue" stroke="midnightblue" points="979.36,-36.5 988.62,-31.36 978.18,-29.6 979.36,-36.5"/>
</g>
<!-- Node22 -->
<g id="node22" class="node">
<title>Node22</title>
<g id="a_node22"><a xlink:title=" ">
<polygon fill="white" stroke="#bfbfbf" points="442.82,-6.5 442.82,-26.5 535.51,-26.5 535.51,-6.5 442.82,-6.5"/>
<text text-anchor="middle" x="489.17" y="-13.5" font-family="Helvetica,sans-Serif" font-size="10.00">boost/variant.hpp</text>
</a>
</g>
</g>
<!-- Node17&#45;&gt;Node22 -->
<g id="edge31" class="edge">
<title>Node17&#45;&gt;Node22</title>
<path fill="none" stroke="midnightblue" d="M493.49,-75.46C492.76,-65.63 491.56,-49.61 490.62,-36.9"/>
<polygon fill="midnightblue" stroke="midnightblue" points="494.1,-36.53 489.86,-26.82 487.12,-37.06 494.1,-36.53"/>
</g>
<!-- Node23 -->
<g id="node23" class="node">
<title>Node23</title>
<g id="a_node23"><a xlink:title=" ">
<polygon fill="white" stroke="#bfbfbf" points="553.21,-6.5 553.21,-26.5 663.12,-26.5 663.12,-6.5 553.21,-6.5"/>
<text text-anchor="middle" x="608.17" y="-13.5" font-family="Helvetica,sans-Serif" font-size="10.00">fisch/vx/container.def</text>
</a>
</g>
</g>
<!-- Node17&#45;&gt;Node23 -->
<g id="edge32" class="edge">
<title>Node17&#45;&gt;Node23</title>
<path fill="none" stroke="midnightblue" d="M509.54,-75.46C528.67,-64.23 561.53,-44.91 584.03,-31.69"/>
<polygon fill="midnightblue" stroke="midnightblue" points="585.82,-34.69 592.67,-26.61 582.28,-28.66 585.82,-34.69"/>
</g>
</g>
</svg>
