<?xml version="1.0" encoding="UTF-8" standalone="no"?>
<!DOCTYPE svg PUBLIC "-//W3C//DTD SVG 1.1//EN"
 "http://www.w3.org/Graphics/SVG/1.1/DTD/svg11.dtd">
<!-- Generated by graphviz version 2.46.0 (0)
 -->
<!-- Title: /jenkins/jenlib_workspaces_f9/bld_nightly&#45;haldls.YmxkX25pZ2h0bHktaGFsZGxzIzEzNzk.x/haldls/include/haldls/vx/ppu.h Pages: 1 -->
<svg width="1303pt" height="203pt"
 viewBox="0.00 0.00 1302.68 203.00" xmlns="http://www.w3.org/2000/svg" xmlns:xlink="http://www.w3.org/1999/xlink">
<g id="graph0" class="graph" transform="scale(1 1) rotate(0) translate(4 199)">
<title>/jenkins/jenlib_workspaces_f9/bld_nightly&#45;haldls.YmxkX25pZ2h0bHktaGFsZGxzIzEzNzk.x/haldls/include/haldls/vx/ppu.h</title>
<polygon fill="white" stroke="transparent" points="-4,4 -4,-199 1298.68,-199 1298.68,4 -4,4"/>
<!-- Node1 -->
<g id="node1" class="node">
<title>Node1</title>
<g id="a_node1"><a xlink:title=" ">
<polygon fill="#bfbfbf" stroke="black" points="510.66,-138.5 510.66,-194.5 691.68,-194.5 691.68,-138.5 510.66,-138.5"/>
<text text-anchor="start" x="518.66" y="-181.5" font-family="Helvetica,sans-Serif" font-size="10.00">/jenkins/jenlib_workspaces</text>
<text text-anchor="start" x="518.66" y="-169.5" font-family="Helvetica,sans-Serif" font-size="10.00">_f9/bld_nightly&#45;haldls.YmxkX25p</text>
<text text-anchor="start" x="518.66" y="-157.5" font-family="Helvetica,sans-Serif" font-size="10.00">Z2h0bHktaGFsZGxzIzEzNzk.x/haldls</text>
<text text-anchor="middle" x="601.17" y="-145.5" font-family="Helvetica,sans-Serif" font-size="10.00">/include/haldls/vx/ppu.h</text>
</a>
</g>
</g>
<!-- Node2 -->
<g id="node2" class="node">
<title>Node2</title>
<g id="a_node2"><a xlink:title=" ">
<polygon fill="white" stroke="#bfbfbf" points="126.78,-75.5 126.78,-95.5 165.56,-95.5 165.56,-75.5 126.78,-75.5"/>
<text text-anchor="middle" x="146.17" y="-82.5" font-family="Helvetica,sans-Serif" font-size="10.00">array</text>
</a>
</g>
</g>
<!-- Node1&#45;&gt;Node2 -->
<g id="edge1" class="edge">
<title>Node1&#45;&gt;Node2</title>
<path fill="none" stroke="midnightblue" d="M510.59,-159.49C423.99,-151.97 290.49,-135.73 179.17,-102 176.87,-101.3 174.52,-100.47 172.2,-99.56"/>
<polygon fill="midnightblue" stroke="midnightblue" points="173.49,-96.3 162.92,-95.52 170.69,-102.72 173.49,-96.3"/>
</g>
<!-- Node3 -->
<g id="node3" class="node">
<title>Node3</title>
<g id="a_node3"><a xlink:title=" ">
<polygon fill="white" stroke="#bfbfbf" points="0,-6.5 0,-26.5 44.34,-26.5 44.34,-6.5 0,-6.5"/>
<text text-anchor="middle" x="22.17" y="-13.5" font-family="Helvetica,sans-Serif" font-size="10.00">iosfwd</text>
</a>
</g>
</g>
<!-- Node1&#45;&gt;Node3 -->
<g id="edge2" class="edge">
<title>Node1&#45;&gt;Node3</title>
<path fill="none" stroke="midnightblue" d="M510.55,-164.6C428.97,-160.63 307.58,-146.74 212.17,-102 191.91,-92.5 193.77,-79.77 174.17,-69 124.99,-42 105.35,-53.62 53.17,-33 51.55,-32.36 49.91,-31.67 48.26,-30.94"/>
<polygon fill="midnightblue" stroke="midnightblue" points="49.52,-27.67 38.98,-26.57 46.53,-34 49.52,-27.67"/>
</g>
<!-- Node4 -->
<g id="node4" class="node">
<title>Node4</title>
<g id="a_node4"><a xlink:title=" ">
<polygon fill="white" stroke="#bfbfbf" points="775.27,-75.5 775.27,-95.5 909.07,-95.5 909.07,-75.5 775.27,-75.5"/>
<text text-anchor="middle" x="842.17" y="-82.5" font-family="Helvetica,sans-Serif" font-size="10.00">halco/common/geometry.h</text>
</a>
</g>
</g>
<!-- Node1&#45;&gt;Node4 -->
<g id="edge3" class="edge">
<title>Node1&#45;&gt;Node4</title>
<path fill="none" stroke="midnightblue" d="M683.77,-138.42C724.83,-124.96 772.44,-109.36 804.66,-98.8"/>
<polygon fill="midnightblue" stroke="midnightblue" points="806.13,-102 814.55,-95.55 803.95,-95.34 806.13,-102"/>
</g>
<!-- Node5 -->
<g id="node5" class="node">
<title>Node5</title>
<g id="a_node5"><a xlink:title=" ">
<polygon fill="white" stroke="#bfbfbf" points="927.38,-75.5 927.38,-95.5 1048.95,-95.5 1048.95,-75.5 927.38,-75.5"/>
<text text-anchor="middle" x="988.17" y="-82.5" font-family="Helvetica,sans-Serif" font-size="10.00">halco/common/iter_all.h</text>
</a>
</g>
</g>
<!-- Node1&#45;&gt;Node5 -->
<g id="edge4" class="edge">
<title>Node1&#45;&gt;Node5</title>
<path fill="none" stroke="midnightblue" d="M691.79,-147.85C755.24,-135.37 841.97,-118.07 918.17,-102 924.48,-100.67 931.11,-99.24 937.66,-97.81"/>
<polygon fill="midnightblue" stroke="midnightblue" points="938.83,-101.14 947.85,-95.57 937.33,-94.3 938.83,-101.14"/>
</g>
<!-- Node6 -->
<g id="node6" class="node">
<title>Node6</title>
<g id="a_node6"><a xlink:title=" ">
<polygon fill="white" stroke="#bfbfbf" points="1067.05,-69.5 1067.05,-101.5 1175.29,-101.5 1175.29,-69.5 1067.05,-69.5"/>
<text text-anchor="start" x="1075.05" y="-88.5" font-family="Helvetica,sans-Serif" font-size="10.00">halco/common/typed</text>
<text text-anchor="middle" x="1121.17" y="-76.5" font-family="Helvetica,sans-Serif" font-size="10.00">_heap_array.h</text>
</a>
</g>
</g>
<!-- Node1&#45;&gt;Node6 -->
<g id="edge5" class="edge">
<title>Node1&#45;&gt;Node6</title>
<path fill="none" stroke="midnightblue" d="M691.8,-155.7C782.07,-145.3 924.74,-127.15 1057.04,-102.11"/>
<polygon fill="midnightblue" stroke="midnightblue" points="1057.78,-105.53 1066.95,-100.22 1056.47,-98.65 1057.78,-105.53"/>
</g>
<!-- Node7 -->
<g id="node7" class="node">
<title>Node7</title>
<g id="a_node7"><a xlink:title=" ">
<polygon fill="white" stroke="#bfbfbf" points="1193.66,-69.5 1193.66,-101.5 1294.68,-101.5 1294.68,-69.5 1193.66,-69.5"/>
<text text-anchor="start" x="1201.66" y="-88.5" font-family="Helvetica,sans-Serif" font-size="10.00">halco/hicann&#45;dls/vx</text>
<text text-anchor="middle" x="1244.17" y="-76.5" font-family="Helvetica,sans-Serif" font-size="10.00">/ppu.h</text>
</a>
</g>
</g>
<!-- Node1&#45;&gt;Node7 -->
<g id="edge6" class="edge">
<title>Node1&#45;&gt;Node7</title>
<path fill="none" stroke="midnightblue" d="M691.89,-159.69C804.97,-151.54 1004.16,-134.17 1183.66,-101.92"/>
<polygon fill="midnightblue" stroke="midnightblue" points="1184.33,-105.36 1193.54,-100.13 1183.08,-98.47 1184.33,-105.36"/>
</g>
<!-- Node8 -->
<g id="node8" class="node">
<title>Node8</title>
<g id="a_node8"><a xlink:href="cerealization_8h.html" target="_top" xlink:title=" ">
<polygon fill="white" stroke="black" points="221.49,-75.5 221.49,-95.5 330.84,-95.5 330.84,-75.5 221.49,-75.5"/>
<text text-anchor="middle" x="276.17" y="-82.5" font-family="Helvetica,sans-Serif" font-size="10.00">haldls/cerealization.h</text>
</a>
</g>
</g>
<!-- Node1&#45;&gt;Node8 -->
<g id="edge7" class="edge">
<title>Node1&#45;&gt;Node8</title>
<path fill="none" stroke="midnightblue" d="M510.64,-143.49C449.79,-128.7 372.07,-109.81 323.2,-97.93"/>
<polygon fill="midnightblue" stroke="midnightblue" points="323.76,-94.47 313.22,-95.51 322.11,-101.27 323.76,-94.47"/>
</g>
<!-- Node10 -->
<g id="node10" class="node">
<title>Node10</title>
<g id="a_node10"><a xlink:title=" ">
<polygon fill="white" stroke="#bfbfbf" points="342.66,-6.5 342.66,-26.5 423.67,-26.5 423.67,-6.5 342.66,-6.5"/>
<text text-anchor="middle" x="383.17" y="-13.5" font-family="Helvetica,sans-Serif" font-size="10.00">hate/visibility.h</text>
</a>
</g>
</g>
<!-- Node1&#45;&gt;Node10 -->
<g id="edge30" class="edge">
<title>Node1&#45;&gt;Node10</title>
<path fill="none" stroke="midnightblue" d="M510.38,-151C456.11,-140.28 394.6,-123.77 378.17,-102 363.96,-83.19 369.52,-54.77 375.66,-36.18"/>
<polygon fill="midnightblue" stroke="midnightblue" points="378.96,-37.34 379.09,-26.74 372.38,-34.94 378.96,-37.34"/>
</g>
<!-- Node13 -->
<g id="node13" class="node">
<title>Node13</title>
<g id="a_node13"><a xlink:href="common_8h.html" target="_top" xlink:title=" ">
<polygon fill="white" stroke="black" points="386.99,-75.5 386.99,-95.5 491.34,-95.5 491.34,-75.5 386.99,-75.5"/>
<text text-anchor="middle" x="439.17" y="-82.5" font-family="Helvetica,sans-Serif" font-size="10.00">haldls/vx/common.h</text>
</a>
</g>
</g>
<!-- Node1&#45;&gt;Node13 -->
<g id="edge13" class="edge">
<title>Node1&#45;&gt;Node13</title>
<path fill="none" stroke="midnightblue" d="M545.42,-138.31C518.91,-125.39 488.39,-110.5 466.88,-100.01"/>
<polygon fill="midnightblue" stroke="midnightblue" points="468.2,-96.76 457.68,-95.53 465.13,-103.06 468.2,-96.76"/>
</g>
<!-- Node16 -->
<g id="node16" class="node">
<title>Node16</title>
<g id="a_node16"><a xlink:href="coordinate__to__container_8h.html" target="_top" xlink:title=" ">
<polygon fill="white" stroke="black" points="508.99,-69.5 508.99,-101.5 613.34,-101.5 613.34,-69.5 508.99,-69.5"/>
<text text-anchor="start" x="516.99" y="-88.5" font-family="Helvetica,sans-Serif" font-size="10.00">haldls/vx/coordinate</text>
<text text-anchor="middle" x="561.17" y="-76.5" font-family="Helvetica,sans-Serif" font-size="10.00">_to_container.h</text>
</a>
</g>
</g>
<!-- Node1&#45;&gt;Node16 -->
<g id="edge16" class="edge">
<title>Node1&#45;&gt;Node16</title>
<path fill="none" stroke="midnightblue" d="M587.4,-138.31C582.82,-129.27 577.76,-119.26 573.31,-110.48"/>
<polygon fill="midnightblue" stroke="midnightblue" points="576.41,-108.87 568.78,-101.52 570.17,-112.03 576.41,-108.87"/>
</g>
<!-- Node17 -->
<g id="node17" class="node">
<title>Node17</title>
<g id="a_node17"><a xlink:href="genpybind_8h.html" target="_top" xlink:title=" ">
<polygon fill="white" stroke="black" points="578.1,-6.5 578.1,-26.5 690.24,-26.5 690.24,-6.5 578.1,-6.5"/>
<text text-anchor="middle" x="634.17" y="-13.5" font-family="Helvetica,sans-Serif" font-size="10.00">haldls/vx/genpybind.h</text>
</a>
</g>
</g>
<!-- Node1&#45;&gt;Node17 -->
<g id="edge18" class="edge">
<title>Node1&#45;&gt;Node17</title>
<path fill="none" stroke="midnightblue" d="M611.35,-138.3C615.2,-127.17 619.33,-114.1 622.17,-102 627.3,-80.08 630.57,-54.42 632.38,-37.17"/>
<polygon fill="midnightblue" stroke="midnightblue" points="635.91,-37.02 633.4,-26.73 628.94,-36.34 635.91,-37.02"/>
</g>
<!-- Node18 -->
<g id="node18" class="node">
<title>Node18</title>
<g id="a_node18"><a xlink:href="traits_8h.html" target="_top" xlink:title=" ">
<polygon fill="white" stroke="black" points="669.33,-75.5 669.33,-95.5 757.01,-95.5 757.01,-75.5 669.33,-75.5"/>
<text text-anchor="middle" x="713.17" y="-82.5" font-family="Helvetica,sans-Serif" font-size="10.00">haldls/vx/traits.h</text>
</a>
</g>
</g>
<!-- Node1&#45;&gt;Node18 -->
<g id="edge20" class="edge">
<title>Node1&#45;&gt;Node18</title>
<path fill="none" stroke="midnightblue" d="M639.71,-138.31C657.21,-125.97 677.24,-111.84 691.96,-101.46"/>
<polygon fill="midnightblue" stroke="midnightblue" points="694.21,-104.15 700.37,-95.53 690.18,-98.43 694.21,-104.15"/>
</g>
<!-- Node8&#45;&gt;Node3 -->
<g id="edge11" class="edge">
<title>Node8&#45;&gt;Node3</title>
<path fill="none" stroke="midnightblue" d="M235.97,-75.47C174.12,-61.55 61.8,-36.11 53.17,-33 51.49,-32.4 49.79,-31.73 48.09,-31.01"/>
<polygon fill="midnightblue" stroke="midnightblue" points="49.13,-27.64 38.58,-26.61 46.19,-33.99 49.13,-27.64"/>
</g>
<!-- Node9 -->
<g id="node9" class="node">
<title>Node9</title>
<g id="a_node9"><a xlink:title=" ">
<polygon fill="white" stroke="#bfbfbf" points="241.54,-6.5 241.54,-26.5 324.79,-26.5 324.79,-6.5 241.54,-6.5"/>
<text text-anchor="middle" x="283.17" y="-13.5" font-family="Helvetica,sans-Serif" font-size="10.00">hate/type_list.h</text>
</a>
</g>
</g>
<!-- Node8&#45;&gt;Node9 -->
<g id="edge8" class="edge">
<title>Node8&#45;&gt;Node9</title>
<path fill="none" stroke="midnightblue" d="M277.11,-75.46C278.14,-65.63 279.81,-49.61 281.14,-36.9"/>
<polygon fill="midnightblue" stroke="midnightblue" points="284.64,-37.13 282.19,-26.82 277.67,-36.4 284.64,-37.13"/>
</g>
<!-- Node8&#45;&gt;Node10 -->
<g id="edge9" class="edge">
<title>Node8&#45;&gt;Node10</title>
<path fill="none" stroke="midnightblue" d="M290.6,-75.46C308.39,-64.33 338.85,-45.25 359.94,-32.04"/>
<polygon fill="midnightblue" stroke="midnightblue" points="362.01,-34.88 368.62,-26.61 358.29,-28.95 362.01,-34.88"/>
</g>
<!-- Node11 -->
<g id="node11" class="node">
<title>Node11</title>
<g id="a_node11"><a xlink:title=" ">
<polygon fill="white" stroke="#bfbfbf" points="178.72,-6.5 178.72,-26.5 223.62,-26.5 223.62,-6.5 178.72,-6.5"/>
<text text-anchor="middle" x="201.17" y="-13.5" font-family="Helvetica,sans-Serif" font-size="10.00">cstdint</text>
</a>
</g>
</g>
<!-- Node8&#45;&gt;Node11 -->
<g id="edge10" class="edge">
<title>Node8&#45;&gt;Node11</title>
<path fill="none" stroke="midnightblue" d="M266.05,-75.46C254.04,-64.73 233.79,-46.64 219.1,-33.52"/>
<polygon fill="midnightblue" stroke="midnightblue" points="221.39,-30.87 211.6,-26.82 216.73,-36.1 221.39,-30.87"/>
</g>
<!-- Node12 -->
<g id="node12" class="node">
<title>Node12</title>
<g id="a_node12"><a xlink:title=" ">
<polygon fill="white" stroke="#bfbfbf" points="62.05,-6.5 62.05,-26.5 160.29,-26.5 160.29,-6.5 62.05,-6.5"/>
<text text-anchor="middle" x="111.17" y="-13.5" font-family="Helvetica,sans-Serif" font-size="10.00">cereal/macros.hpp</text>
</a>
</g>
</g>
<!-- Node8&#45;&gt;Node12 -->
<g id="edge12" class="edge">
<title>Node8&#45;&gt;Node12</title>
<path fill="none" stroke="midnightblue" d="M253.91,-75.46C225.38,-63.88 175.69,-43.7 143.11,-30.47"/>
<polygon fill="midnightblue" stroke="midnightblue" points="144.18,-27.13 133.59,-26.61 141.54,-33.61 144.18,-27.13"/>
</g>
<!-- Node14 -->
<g id="node14" class="node">
<title>Node14</title>
<g id="a_node14"><a xlink:title=" ">
<polygon fill="white" stroke="#bfbfbf" points="498.11,-6.5 498.11,-26.5 560.23,-26.5 560.23,-6.5 498.11,-6.5"/>
<text text-anchor="middle" x="529.17" y="-13.5" font-family="Helvetica,sans-Serif" font-size="10.00">type_traits</text>
</a>
</g>
</g>
<!-- Node13&#45;&gt;Node14 -->
<g id="edge14" class="edge">
<title>Node13&#45;&gt;Node14</title>
<path fill="none" stroke="midnightblue" d="M451.31,-75.46C465.93,-64.57 490.75,-46.1 508.43,-32.94"/>
<polygon fill="midnightblue" stroke="midnightblue" points="511,-35.39 516.93,-26.61 506.82,-29.77 511,-35.39"/>
</g>
<!-- Node15 -->
<g id="node15" class="node">
<title>Node15</title>
<g id="a_node15"><a xlink:title=" ">
<polygon fill="white" stroke="#bfbfbf" points="441.78,-6.5 441.78,-26.5 480.55,-26.5 480.55,-6.5 441.78,-6.5"/>
<text text-anchor="middle" x="461.17" y="-13.5" font-family="Helvetica,sans-Serif" font-size="10.00">utility</text>
</a>
</g>
</g>
<!-- Node13&#45;&gt;Node15 -->
<g id="edge15" class="edge">
<title>Node13&#45;&gt;Node15</title>
<path fill="none" stroke="midnightblue" d="M442.13,-75.46C445.4,-65.53 450.73,-49.28 454.92,-36.52"/>
<polygon fill="midnightblue" stroke="midnightblue" points="458.31,-37.42 458.11,-26.82 451.66,-35.23 458.31,-37.42"/>
</g>
<!-- Node16&#45;&gt;Node14 -->
<g id="edge17" class="edge">
<title>Node16&#45;&gt;Node14</title>
<path fill="none" stroke="midnightblue" d="M553.91,-69.3C549.15,-59.35 542.92,-46.3 537.9,-35.78"/>
<polygon fill="midnightblue" stroke="midnightblue" points="541.01,-34.18 533.54,-26.66 534.7,-37.2 541.01,-34.18"/>
</g>
<!-- Node17&#45;&gt;Node17 -->
<g id="edge19" class="edge">
<title>Node17&#45;&gt;Node17</title>
<path fill="none" stroke="midnightblue" d="M658.06,-26.54C681.89,-32.26 708.24,-28.92 708.24,-16.5 708.24,-5.78 688.6,-1.82 667.9,-4.62"/>
<polygon fill="midnightblue" stroke="midnightblue" points="667.25,-1.18 658.06,-6.46 668.54,-8.06 667.25,-1.18"/>
</g>
<!-- Node18&#45;&gt;Node9 -->
<g id="edge24" class="edge">
<title>Node18&#45;&gt;Node9</title>
<path fill="none" stroke="midnightblue" d="M669.26,-76.61C654.34,-74.04 637.55,-71.27 622.17,-69 494.11,-50.13 459.7,-60.27 333.17,-33 328.47,-31.99 323.59,-30.73 318.79,-29.38"/>
<polygon fill="midnightblue" stroke="midnightblue" points="319.73,-26.01 309.15,-26.51 317.73,-32.72 319.73,-26.01"/>
</g>
<!-- Node18&#45;&gt;Node10 -->
<g id="edge25" class="edge">
<title>Node18&#45;&gt;Node10</title>
<path fill="none" stroke="midnightblue" d="M669.11,-77.05C601.97,-65.6 477.2,-43.83 433.17,-33 428.83,-31.93 424.32,-30.7 419.85,-29.42"/>
<polygon fill="midnightblue" stroke="midnightblue" points="420.83,-26.06 410.25,-26.54 418.82,-32.76 420.83,-26.06"/>
</g>
<!-- Node18&#45;&gt;Node14 -->
<g id="edge26" class="edge">
<title>Node18&#45;&gt;Node14</title>
<path fill="none" stroke="midnightblue" d="M687.34,-75.49C658.46,-65.37 610.34,-48.34 569.17,-33 566.79,-32.11 564.33,-31.19 561.86,-30.25"/>
<polygon fill="midnightblue" stroke="midnightblue" points="562.98,-26.93 552.39,-26.62 560.48,-33.47 562.98,-26.93"/>
</g>
<!-- Node18&#45;&gt;Node17 -->
<g id="edge23" class="edge">
<title>Node18&#45;&gt;Node17</title>
<path fill="none" stroke="midnightblue" d="M702.51,-75.46C689.79,-64.67 668.29,-46.44 652.8,-33.3"/>
<polygon fill="midnightblue" stroke="midnightblue" points="654.8,-30.41 644.91,-26.61 650.27,-35.74 654.8,-30.41"/>
</g>
<!-- Node19 -->
<g id="node19" class="node">
<title>Node19</title>
<g id="a_node19"><a xlink:title=" ">
<polygon fill="white" stroke="#bfbfbf" points="854.11,-6.5 854.11,-26.5 936.23,-26.5 936.23,-6.5 854.11,-6.5"/>
<text text-anchor="middle" x="895.17" y="-13.5" font-family="Helvetica,sans-Serif" font-size="10.00">fisch/vx/traits.h</text>
</a>
</g>
</g>
<!-- Node18&#45;&gt;Node19 -->
<g id="edge21" class="edge">
<title>Node18&#45;&gt;Node19</title>
<path fill="none" stroke="midnightblue" d="M737.71,-75.46C769.46,-63.78 824.95,-43.35 860.86,-30.13"/>
<polygon fill="midnightblue" stroke="midnightblue" points="862.25,-33.35 870.43,-26.61 859.84,-26.78 862.25,-33.35"/>
</g>
<!-- Node20 -->
<g id="node20" class="node">
<title>Node20</title>
<g id="a_node20"><a xlink:title=" ">
<polygon fill="white" stroke="#bfbfbf" points="953.94,-0.5 953.94,-32.5 1064.4,-32.5 1064.4,-0.5 953.94,-0.5"/>
<text text-anchor="start" x="961.94" y="-19.5" font-family="Helvetica,sans-Serif" font-size="10.00">fisch/vx/word_access</text>
<text text-anchor="middle" x="1009.17" y="-7.5" font-family="Helvetica,sans-Serif" font-size="10.00">_type.h</text>
</a>
</g>
</g>
<!-- Node18&#45;&gt;Node20 -->
<g id="edge22" class="edge">
<title>Node18&#45;&gt;Node20</title>
<path fill="none" stroke="midnightblue" d="M742.48,-75.44C750.15,-73.2 758.44,-70.9 766.17,-69 841.88,-50.35 864.21,-50.51 943.71,-33.27"/>
<polygon fill="midnightblue" stroke="midnightblue" points="944.68,-36.64 953.7,-31.08 943.18,-29.8 944.68,-36.64"/>
</g>
<!-- Node21 -->
<g id="node21" class="node">
<title>Node21</title>
<g id="a_node21"><a xlink:title=" ">
<polygon fill="white" stroke="#bfbfbf" points="1082.77,-0.5 1082.77,-32.5 1181.57,-32.5 1181.57,-0.5 1082.77,-0.5"/>
<text text-anchor="start" x="1090.77" y="-19.5" font-family="Helvetica,sans-Serif" font-size="10.00">boost/utility/enable</text>
<text text-anchor="middle" x="1132.17" y="-7.5" font-family="Helvetica,sans-Serif" font-size="10.00">_if.hpp</text>
</a>
</g>
</g>
<!-- Node18&#45;&gt;Node21 -->
<g id="edge27" class="edge">
<title>Node18&#45;&gt;Node21</title>
<path fill="none" stroke="midnightblue" d="M740.73,-75.49C748.85,-73.09 757.81,-70.7 766.17,-69 897.64,-42.26 936.37,-57.75 1072.72,-32.89"/>
<polygon fill="midnightblue" stroke="midnightblue" points="1073.52,-36.3 1082.71,-31.03 1072.24,-29.42 1073.52,-36.3"/>
</g>
<!-- Node22 -->
<g id="node22" class="node">
<title>Node22</title>
<g id="a_node22"><a xlink:title=" ">
<polygon fill="white" stroke="#bfbfbf" points="1199.82,-6.5 1199.82,-26.5 1292.52,-26.5 1292.52,-6.5 1199.82,-6.5"/>
<text text-anchor="middle" x="1246.17" y="-13.5" font-family="Helvetica,sans-Serif" font-size="10.00">boost/variant.hpp</text>
</a>
</g>
</g>
<!-- Node18&#45;&gt;Node22 -->
<g id="edge28" class="edge">
<title>Node18&#45;&gt;Node22</title>
<path fill="none" stroke="midnightblue" d="M740.15,-75.48C748.42,-73.02 757.59,-70.6 766.17,-69 952.08,-34.28 1004.01,-66.37 1190.17,-33 1195.75,-32 1201.59,-30.69 1207.29,-29.26"/>
<polygon fill="midnightblue" stroke="midnightblue" points="1208.58,-32.54 1217.34,-26.58 1206.77,-25.77 1208.58,-32.54"/>
</g>
<!-- Node23 -->
<g id="node23" class="node">
<title>Node23</title>
<g id="a_node23"><a xlink:title=" ">
<polygon fill="white" stroke="#bfbfbf" points="726.21,-6.5 726.21,-26.5 836.12,-26.5 836.12,-6.5 726.21,-6.5"/>
<text text-anchor="middle" x="781.17" y="-13.5" font-family="Helvetica,sans-Serif" font-size="10.00">fisch/vx/container.def</text>
</a>
</g>
</g>
<!-- Node18&#45;&gt;Node23 -->
<g id="edge29" class="edge">
<title>Node18&#45;&gt;Node23</title>
<path fill="none" stroke="midnightblue" d="M722.34,-75.46C733.13,-64.83 751.25,-46.98 764.53,-33.89"/>
<polygon fill="midnightblue" stroke="midnightblue" points="767.04,-36.33 771.71,-26.82 762.13,-31.35 767.04,-36.33"/>
</g>
</g>
</svg>
