<?xml version="1.0" encoding="UTF-8" standalone="no"?>
<!DOCTYPE svg PUBLIC "-//W3C//DTD SVG 1.1//EN"
 "http://www.w3.org/Graphics/SVG/1.1/DTD/svg11.dtd">
<!-- Generated by graphviz version 2.46.0 (0)
 -->
<!-- Title: /jenkins/jenlib_workspaces_f9/bld_nightly&#45;haldls.YmxkX25pZ2h0bHktaGFsZGxzIzEzNzk.x/haldls/include/haldls/vx/routing_crossbar.h Pages: 1 -->
<!--zoomable 203 -->
<svg id="main" version="1.1" xmlns="http://www.w3.org/2000/svg" xmlns:xlink="http://www.w3.org/1999/xlink" xml:space="preserve" onload="init(evt)">
<style type="text/css"><![CDATA[
.edge:hover path { stroke: red; }
.edge:hover polygon { stroke: red; fill: red; }
]]></style>
<script type="text/javascript"><![CDATA[
var edges = document.getElementsByTagName('g');
if (edges && edges.length) {
  for (var i=0;i<edges.length;i++) {
    if (edges[i].id.substr(0,4)=='edge') {
      edges[i].setAttribute('class','edge');
    }
  }
}
]]></script>
        <defs>
                <circle id="rim" cx="0" cy="0" r="7"/>
                <circle id="rim2" cx="0" cy="0" r="3.5"/>
                <g id="zoomPlus">
                        <use xlink:href="#rim" fill="#404040">
                                <set attributeName="fill" to="#808080" begin="zoomplus.mouseover" end="zoomplus.mouseout"/>
                        </use>
                        <path d="M-4,0h8M0,-4v8" fill="none" stroke="white" stroke-width="1.5" pointer-events="none"/>
                </g>
                <g id="zoomMin">
                        <use xlink:href="#rim" fill="#404040">
                                <set attributeName="fill" to="#808080" begin="zoomminus.mouseover" end="zoomminus.mouseout"/>
                        </use>
                        <path d="M-4,0h8" fill="none" stroke="white" stroke-width="1.5" pointer-events="none"/>
                </g>
                <g id="dirArrow">
                        <path fill="none" stroke="white" stroke-width="1.5" d="M0,-3.0v7 M-2.5,-0.5L0,-3.0L2.5,-0.5"/>
                </g>
               <g id="resetDef">
                       <use xlink:href="#rim2" fill="#404040">
                               <set attributeName="fill" to="#808080" begin="reset.mouseover" end="reset.mouseout"/>
                       </use>
               </g>
        </defs>

<script type="text/javascript">
var viewWidth = 1312;
var viewHeight = 203;
var sectionId = 'dynsection-0';
</script>
<script xlink:href="svgpan.js"/>
<svg id="graph" class="graph">
<g id="viewport">
<title>/jenkins/jenlib_workspaces_f9/bld_nightly&#45;haldls.YmxkX25pZ2h0bHktaGFsZGxzIzEzNzk.x/haldls/include/haldls/vx/routing_crossbar.h</title>
<polygon fill="white" stroke="transparent" points="-4,4 -4,-199 1307.79,-199 1307.79,4 -4,4"/>
<!-- Node1 -->
<g id="node1" class="node">
<title>Node1</title>
<g id="a_node1"><a xlink:title=" ">
<polygon fill="#bfbfbf" stroke="black" points="508.66,-138.5 508.66,-194.5 689.68,-194.5 689.68,-138.5 508.66,-138.5"/>
<text text-anchor="start" x="516.66" y="-181.5" font-family="Helvetica,sans-Serif" font-size="10.00">/jenkins/jenlib_workspaces</text>
<text text-anchor="start" x="516.66" y="-169.5" font-family="Helvetica,sans-Serif" font-size="10.00">_f9/bld_nightly&#45;haldls.YmxkX25p</text>
<text text-anchor="start" x="516.66" y="-157.5" font-family="Helvetica,sans-Serif" font-size="10.00">Z2h0bHktaGFsZGxzIzEzNzk.x/haldls</text>
<text text-anchor="middle" x="599.17" y="-145.5" font-family="Helvetica,sans-Serif" font-size="10.00">/include/haldls/vx/routing_crossbar.h</text>
</a>
</g>
</g>
<!-- Node2 -->
<g id="node2" class="node">
<title>Node2</title>
<g id="a_node2"><a xlink:title=" ">
<polygon fill="white" stroke="#bfbfbf" points="133.78,-75.5 133.78,-95.5 172.56,-95.5 172.56,-75.5 133.78,-75.5"/>
<text text-anchor="middle" x="153.17" y="-82.5" font-family="Helvetica,sans-Serif" font-size="10.00">array</text>
</a>
</g>
</g>
<!-- Node1&#45;&gt;Node2 -->
<g id="edge1" class="edge">
<title>Node1&#45;&gt;Node2</title>
<path fill="none" stroke="midnightblue" d="M508.49,-159.07C423.69,-151.3 294.25,-134.94 186.17,-102 183.87,-101.3 181.53,-100.47 179.2,-99.55"/>
<polygon fill="midnightblue" stroke="midnightblue" points="180.49,-96.3 169.93,-95.5 177.69,-102.71 180.49,-96.3"/>
</g>
<!-- Node3 -->
<g id="node3" class="node">
<title>Node3</title>
<g id="a_node3"><a xlink:title=" ">
<polygon fill="white" stroke="#bfbfbf" points="0,-6.5 0,-26.5 44.34,-26.5 44.34,-6.5 0,-6.5"/>
<text text-anchor="middle" x="22.17" y="-13.5" font-family="Helvetica,sans-Serif" font-size="10.00">iosfwd</text>
</a>
</g>
</g>
<!-- Node1&#45;&gt;Node3 -->
<g id="edge2" class="edge">
<title>Node1&#45;&gt;Node3</title>
<path fill="none" stroke="midnightblue" d="M508.3,-164.07C428.63,-159.69 311.44,-145.48 219.17,-102 198.93,-92.47 200.84,-79.64 181.17,-69 129.56,-41.1 109,-53.87 54.17,-33 52.35,-32.31 50.5,-31.55 48.64,-30.76"/>
<polygon fill="midnightblue" stroke="midnightblue" points="50.08,-27.57 39.53,-26.59 47.17,-33.93 50.08,-27.57"/>
</g>
<!-- Node4 -->
<g id="node4" class="node">
<title>Node4</title>
<g id="a_node4"><a xlink:title=" ">
<polygon fill="white" stroke="#bfbfbf" points="597.27,-75.5 597.27,-95.5 731.07,-95.5 731.07,-75.5 597.27,-75.5"/>
<text text-anchor="middle" x="664.17" y="-82.5" font-family="Helvetica,sans-Serif" font-size="10.00">halco/common/geometry.h</text>
</a>
</g>
</g>
<!-- Node1&#45;&gt;Node4 -->
<g id="edge3" class="edge">
<title>Node1&#45;&gt;Node4</title>
<path fill="none" stroke="midnightblue" d="M621.54,-138.31C631.06,-126.74 641.88,-113.59 650.23,-103.44"/>
<polygon fill="midnightblue" stroke="midnightblue" points="652.94,-105.66 656.59,-95.71 647.53,-101.21 652.94,-105.66"/>
</g>
<!-- Node5 -->
<g id="node5" class="node">
<title>Node5</title>
<g id="a_node5"><a xlink:title=" ">
<polygon fill="white" stroke="#bfbfbf" points="749.05,-69.5 749.05,-101.5 857.29,-101.5 857.29,-69.5 749.05,-69.5"/>
<text text-anchor="start" x="757.05" y="-88.5" font-family="Helvetica,sans-Serif" font-size="10.00">halco/common/typed</text>
<text text-anchor="middle" x="803.17" y="-76.5" font-family="Helvetica,sans-Serif" font-size="10.00">_array.h</text>
</a>
</g>
</g>
<!-- Node1&#45;&gt;Node5 -->
<g id="edge4" class="edge">
<title>Node1&#45;&gt;Node5</title>
<path fill="none" stroke="midnightblue" d="M669.09,-138.42C697.31,-127.49 729.19,-115.15 754.78,-105.24"/>
<polygon fill="midnightblue" stroke="midnightblue" points="756.2,-108.44 764.26,-101.57 753.67,-101.92 756.2,-108.44"/>
</g>
<!-- Node6 -->
<g id="node6" class="node">
<title>Node6</title>
<g id="a_node6"><a xlink:title=" ">
<polygon fill="white" stroke="#bfbfbf" points="875.66,-69.5 875.66,-101.5 976.68,-101.5 976.68,-69.5 875.66,-69.5"/>
<text text-anchor="start" x="883.66" y="-88.5" font-family="Helvetica,sans-Serif" font-size="10.00">halco/hicann&#45;dls/vx</text>
<text text-anchor="middle" x="926.17" y="-76.5" font-family="Helvetica,sans-Serif" font-size="10.00">/event.h</text>
</a>
</g>
</g>
<!-- Node1&#45;&gt;Node6 -->
<g id="edge5" class="edge">
<title>Node1&#45;&gt;Node6</title>
<path fill="none" stroke="midnightblue" d="M689.8,-144.4C739,-132.84 801.14,-118.07 865.52,-102.14"/>
<polygon fill="midnightblue" stroke="midnightblue" points="866.58,-105.48 875.45,-99.68 864.9,-98.69 866.58,-105.48"/>
</g>
<!-- Node7 -->
<g id="node7" class="node">
<title>Node7</title>
<g id="a_node7"><a xlink:title=" ">
<polygon fill="white" stroke="#bfbfbf" points="994.38,-69.5 994.38,-101.5 1095.95,-101.5 1095.95,-69.5 994.38,-69.5"/>
<text text-anchor="start" x="1002.38" y="-88.5" font-family="Helvetica,sans-Serif" font-size="10.00">halco/hicann&#45;dls/vx</text>
<text text-anchor="middle" x="1045.17" y="-76.5" font-family="Helvetica,sans-Serif" font-size="10.00">/routing_crossbar.h</text>
</a>
</g>
</g>
<!-- Node1&#45;&gt;Node7 -->
<g id="edge6" class="edge">
<title>Node1&#45;&gt;Node7</title>
<path fill="none" stroke="midnightblue" d="M689.93,-153.08C766.27,-142.06 878.41,-124.54 984.18,-102.33"/>
<polygon fill="midnightblue" stroke="midnightblue" points="985.01,-105.73 994.07,-100.24 983.56,-98.89 985.01,-105.73"/>
</g>
<!-- Node8 -->
<g id="node8" class="node">
<title>Node8</title>
<g id="a_node8"><a xlink:href="cerealization_8h.html" target="_top" xlink:title=" ">
<polygon fill="white" stroke="black" points="228.49,-75.5 228.49,-95.5 337.84,-95.5 337.84,-75.5 228.49,-75.5"/>
<text text-anchor="middle" x="283.17" y="-82.5" font-family="Helvetica,sans-Serif" font-size="10.00">haldls/cerealization.h</text>
</a>
</g>
</g>
<!-- Node1&#45;&gt;Node8 -->
<g id="edge7" class="edge">
<title>Node1&#45;&gt;Node8</title>
<path fill="none" stroke="midnightblue" d="M508.61,-142.86C450,-128.21 376.13,-109.74 329.26,-98.02"/>
<polygon fill="midnightblue" stroke="midnightblue" points="329.94,-94.59 319.39,-95.56 328.25,-101.38 329.94,-94.59"/>
</g>
<!-- Node10 -->
<g id="node10" class="node">
<title>Node10</title>
<g id="a_node10"><a xlink:title=" ">
<polygon fill="white" stroke="#bfbfbf" points="242.66,-6.5 242.66,-26.5 323.67,-26.5 323.67,-6.5 242.66,-6.5"/>
<text text-anchor="middle" x="283.17" y="-13.5" font-family="Helvetica,sans-Serif" font-size="10.00">hate/visibility.h</text>
</a>
</g>
</g>
<!-- Node1&#45;&gt;Node10 -->
<g id="edge26" class="edge">
<title>Node1&#45;&gt;Node10</title>
<path fill="none" stroke="midnightblue" d="M541.21,-138.35C473.25,-106.53 363.34,-55.05 311.7,-30.86"/>
<polygon fill="midnightblue" stroke="midnightblue" points="313.01,-27.61 302.47,-26.54 310.04,-33.95 313.01,-27.61"/>
</g>
<!-- Node13 -->
<g id="node13" class="node">
<title>Node13</title>
<g id="a_node13"><a xlink:href="genpybind_8h.html" target="_top" xlink:title=" ">
<polygon fill="white" stroke="black" points="443.1,-6.5 443.1,-26.5 555.24,-26.5 555.24,-6.5 443.1,-6.5"/>
<text text-anchor="middle" x="499.17" y="-13.5" font-family="Helvetica,sans-Serif" font-size="10.00">haldls/vx/genpybind.h</text>
</a>
</g>
</g>
<!-- Node1&#45;&gt;Node13 -->
<g id="edge13" class="edge">
<title>Node1&#45;&gt;Node13</title>
<path fill="none" stroke="midnightblue" d="M521.2,-138.39C505.66,-129.28 491.33,-117.39 482.17,-102 469.9,-81.38 479.66,-53.45 488.68,-35.45"/>
<polygon fill="midnightblue" stroke="midnightblue" points="491.79,-37.04 493.46,-26.58 485.63,-33.72 491.79,-37.04"/>
</g>
<!-- Node14 -->
<g id="node14" class="node">
<title>Node14</title>
<g id="a_node14"><a xlink:href="traits_8h.html" target="_top" xlink:title=" ">
<polygon fill="white" stroke="black" points="491.33,-75.5 491.33,-95.5 579.01,-95.5 579.01,-75.5 491.33,-75.5"/>
<text text-anchor="middle" x="535.17" y="-82.5" font-family="Helvetica,sans-Serif" font-size="10.00">haldls/vx/traits.h</text>
</a>
</g>
</g>
<!-- Node1&#45;&gt;Node14 -->
<g id="edge15" class="edge">
<title>Node1&#45;&gt;Node14</title>
<path fill="none" stroke="midnightblue" d="M577.14,-138.31C567.86,-126.85 557.33,-113.85 549.14,-103.74"/>
<polygon fill="midnightblue" stroke="midnightblue" points="551.65,-101.28 542.63,-95.71 546.21,-105.69 551.65,-101.28"/>
</g>
<!-- Node21 -->
<g id="node21" class="node">
<title>Node21</title>
<g id="a_node21"><a xlink:title=" ">
<polygon fill="white" stroke="#bfbfbf" points="1113.77,-75.5 1113.77,-95.5 1182.57,-95.5 1182.57,-75.5 1113.77,-75.5"/>
<text text-anchor="middle" x="1148.17" y="-82.5" font-family="Helvetica,sans-Serif" font-size="10.00">hate/math.h</text>
</a>
</g>
</g>
<!-- Node1&#45;&gt;Node21 -->
<g id="edge25" class="edge">
<title>Node1&#45;&gt;Node21</title>
<path fill="none" stroke="midnightblue" d="M689.82,-160.18C791.92,-152.8 962.25,-136.28 1105.17,-102 1108.78,-101.13 1112.5,-100.07 1116.18,-98.9"/>
<polygon fill="midnightblue" stroke="midnightblue" points="1117.36,-102.2 1125.69,-95.66 1115.1,-95.57 1117.36,-102.2"/>
</g>
<!-- Node22 -->
<g id="node22" class="node">
<title>Node22</title>
<g id="a_node22"><a xlink:title=" ">
<polygon fill="white" stroke="#bfbfbf" points="1200.55,-75.5 1200.55,-95.5 1303.79,-95.5 1303.79,-75.5 1200.55,-75.5"/>
<text text-anchor="middle" x="1252.17" y="-82.5" font-family="Helvetica,sans-Serif" font-size="10.00">hxcomm/vx/target.h</text>
</a>
</g>
</g>
<!-- Node1&#45;&gt;Node22 -->
<g id="edge27" class="edge">
<title>Node1&#45;&gt;Node22</title>
<path fill="none" stroke="midnightblue" d="M689.75,-159.8C806.38,-151.54 1015.04,-133.66 1191.17,-102 1197.38,-100.88 1203.89,-99.48 1210.25,-97.98"/>
<polygon fill="midnightblue" stroke="midnightblue" points="1211.19,-101.36 1220.06,-95.57 1209.52,-94.56 1211.19,-101.36"/>
</g>
<!-- Node8&#45;&gt;Node3 -->
<g id="edge11" class="edge">
<title>Node8&#45;&gt;Node3</title>
<path fill="none" stroke="midnightblue" d="M242.88,-75.45C177.31,-60.73 54.73,-33.2 54.17,-33 52.29,-32.34 50.37,-31.61 48.46,-30.82"/>
<polygon fill="midnightblue" stroke="midnightblue" points="49.68,-27.53 39.13,-26.61 46.81,-33.91 49.68,-27.53"/>
</g>
<!-- Node9 -->
<g id="node9" class="node">
<title>Node9</title>
<g id="a_node9"><a xlink:title=" ">
<polygon fill="white" stroke="#bfbfbf" points="341.54,-6.5 341.54,-26.5 424.79,-26.5 424.79,-6.5 341.54,-6.5"/>
<text text-anchor="middle" x="383.17" y="-13.5" font-family="Helvetica,sans-Serif" font-size="10.00">hate/type_list.h</text>
</a>
</g>
</g>
<!-- Node8&#45;&gt;Node9 -->
<g id="edge8" class="edge">
<title>Node8&#45;&gt;Node9</title>
<path fill="none" stroke="midnightblue" d="M296.65,-75.46C313.2,-64.38 341.49,-45.42 361.2,-32.22"/>
<polygon fill="midnightblue" stroke="midnightblue" points="363.22,-35.08 369.58,-26.61 359.32,-29.27 363.22,-35.08"/>
</g>
<!-- Node8&#45;&gt;Node10 -->
<g id="edge9" class="edge">
<title>Node8&#45;&gt;Node10</title>
<path fill="none" stroke="midnightblue" d="M283.17,-75.46C283.17,-65.63 283.17,-49.61 283.17,-36.9"/>
<polygon fill="midnightblue" stroke="midnightblue" points="286.67,-36.82 283.17,-26.82 279.67,-36.82 286.67,-36.82"/>
</g>
<!-- Node11 -->
<g id="node11" class="node">
<title>Node11</title>
<g id="a_node11"><a xlink:title=" ">
<polygon fill="white" stroke="#bfbfbf" points="62.72,-6.5 62.72,-26.5 107.62,-26.5 107.62,-6.5 62.72,-6.5"/>
<text text-anchor="middle" x="85.17" y="-13.5" font-family="Helvetica,sans-Serif" font-size="10.00">cstdint</text>
</a>
</g>
</g>
<!-- Node8&#45;&gt;Node11 -->
<g id="edge10" class="edge">
<title>Node8&#45;&gt;Node11</title>
<path fill="none" stroke="midnightblue" d="M248.63,-75.42C214.69,-66.12 161.65,-50.56 117.17,-33 115.36,-32.29 113.51,-31.51 111.66,-30.71"/>
<polygon fill="midnightblue" stroke="midnightblue" points="113.11,-27.52 102.56,-26.51 110.18,-33.88 113.11,-27.52"/>
</g>
<!-- Node12 -->
<g id="node12" class="node">
<title>Node12</title>
<g id="a_node12"><a xlink:title=" ">
<polygon fill="white" stroke="#bfbfbf" points="126.05,-6.5 126.05,-26.5 224.29,-26.5 224.29,-6.5 126.05,-6.5"/>
<text text-anchor="middle" x="175.17" y="-13.5" font-family="Helvetica,sans-Serif" font-size="10.00">cereal/macros.hpp</text>
</a>
</g>
</g>
<!-- Node8&#45;&gt;Node12 -->
<g id="edge12" class="edge">
<title>Node8&#45;&gt;Node12</title>
<path fill="none" stroke="midnightblue" d="M268.6,-75.46C250.65,-64.33 219.9,-45.25 198.61,-32.04"/>
<polygon fill="midnightblue" stroke="midnightblue" points="200.19,-28.9 189.85,-26.61 196.5,-34.85 200.19,-28.9"/>
</g>
<!-- Node13&#45;&gt;Node13 -->
<g id="edge14" class="edge">
<title>Node13&#45;&gt;Node13</title>
<path fill="none" stroke="midnightblue" d="M523.06,-26.54C546.89,-32.26 573.24,-28.92 573.24,-16.5 573.24,-5.78 553.6,-1.82 532.9,-4.62"/>
<polygon fill="midnightblue" stroke="midnightblue" points="532.25,-1.18 523.06,-6.46 533.54,-8.06 532.25,-1.18"/>
</g>
<!-- Node14&#45;&gt;Node9 -->
<g id="edge19" class="edge">
<title>Node14&#45;&gt;Node9</title>
<path fill="none" stroke="midnightblue" d="M514.67,-75.46C488.49,-63.93 443,-43.87 412.98,-30.64"/>
<polygon fill="midnightblue" stroke="midnightblue" points="414.39,-27.44 403.83,-26.61 411.57,-33.84 414.39,-27.44"/>
</g>
<!-- Node14&#45;&gt;Node10 -->
<g id="edge20" class="edge">
<title>Node14&#45;&gt;Node10</title>
<path fill="none" stroke="midnightblue" d="M496.83,-75.47C455.88,-65.67 389.17,-49.23 332.17,-33 328.37,-31.92 324.41,-30.75 320.48,-29.55"/>
<polygon fill="midnightblue" stroke="midnightblue" points="321.4,-26.17 310.81,-26.55 319.33,-32.86 321.4,-26.17"/>
</g>
<!-- Node14&#45;&gt;Node13 -->
<g id="edge18" class="edge">
<title>Node14&#45;&gt;Node13</title>
<path fill="none" stroke="midnightblue" d="M530.31,-75.46C524.87,-65.33 515.9,-48.63 508.98,-35.75"/>
<polygon fill="midnightblue" stroke="midnightblue" points="511.99,-33.97 504.18,-26.82 505.83,-37.29 511.99,-33.97"/>
</g>
<!-- Node15 -->
<g id="node15" class="node">
<title>Node15</title>
<g id="a_node15"><a xlink:title=" ">
<polygon fill="white" stroke="#bfbfbf" points="591.11,-6.5 591.11,-26.5 673.23,-26.5 673.23,-6.5 591.11,-6.5"/>
<text text-anchor="middle" x="632.17" y="-13.5" font-family="Helvetica,sans-Serif" font-size="10.00">fisch/vx/traits.h</text>
</a>
</g>
</g>
<!-- Node14&#45;&gt;Node15 -->
<g id="edge16" class="edge">
<title>Node14&#45;&gt;Node15</title>
<path fill="none" stroke="midnightblue" d="M548.25,-75.46C564.23,-64.42 591.5,-45.59 610.6,-32.4"/>
<polygon fill="midnightblue" stroke="midnightblue" points="612.74,-35.17 618.98,-26.61 608.77,-29.41 612.74,-35.17"/>
</g>
<!-- Node16 -->
<g id="node16" class="node">
<title>Node16</title>
<g id="a_node16"><a xlink:title=" ">
<polygon fill="white" stroke="#bfbfbf" points="690.94,-0.5 690.94,-32.5 801.4,-32.5 801.4,-0.5 690.94,-0.5"/>
<text text-anchor="start" x="698.94" y="-19.5" font-family="Helvetica,sans-Serif" font-size="10.00">fisch/vx/word_access</text>
<text text-anchor="middle" x="746.17" y="-7.5" font-family="Helvetica,sans-Serif" font-size="10.00">_type.h</text>
</a>
</g>
</g>
<!-- Node14&#45;&gt;Node16 -->
<g id="edge17" class="edge">
<title>Node14&#45;&gt;Node16</title>
<path fill="none" stroke="midnightblue" d="M563.62,-75.46C595.63,-65.3 648.44,-48.53 689.05,-35.64"/>
<polygon fill="midnightblue" stroke="midnightblue" points="690.35,-38.9 698.82,-32.53 688.23,-32.22 690.35,-38.9"/>
</g>
<!-- Node17 -->
<g id="node17" class="node">
<title>Node17</title>
<g id="a_node17"><a xlink:title=" ">
<polygon fill="white" stroke="#bfbfbf" points="819.11,-6.5 819.11,-26.5 881.23,-26.5 881.23,-6.5 819.11,-6.5"/>
<text text-anchor="middle" x="850.17" y="-13.5" font-family="Helvetica,sans-Serif" font-size="10.00">type_traits</text>
</a>
</g>
</g>
<!-- Node14&#45;&gt;Node17 -->
<g id="edge21" class="edge">
<title>Node14&#45;&gt;Node17</title>
<path fill="none" stroke="midnightblue" d="M563.6,-75.48C571.51,-73.17 580.13,-70.82 588.17,-69 685.66,-46.93 713.71,-59.2 810.17,-33 813.33,-32.14 816.59,-31.12 819.81,-30.02"/>
<polygon fill="midnightblue" stroke="midnightblue" points="821.09,-33.28 829.27,-26.54 818.68,-26.71 821.09,-33.28"/>
</g>
<!-- Node18 -->
<g id="node18" class="node">
<title>Node18</title>
<g id="a_node18"><a xlink:title=" ">
<polygon fill="white" stroke="#bfbfbf" points="898.77,-0.5 898.77,-32.5 997.57,-32.5 997.57,-0.5 898.77,-0.5"/>
<text text-anchor="start" x="906.77" y="-19.5" font-family="Helvetica,sans-Serif" font-size="10.00">boost/utility/enable</text>
<text text-anchor="middle" x="948.17" y="-7.5" font-family="Helvetica,sans-Serif" font-size="10.00">_if.hpp</text>
</a>
</g>
</g>
<!-- Node14&#45;&gt;Node18 -->
<g id="edge22" class="edge">
<title>Node14&#45;&gt;Node18</title>
<path fill="none" stroke="midnightblue" d="M562.73,-75.5C570.86,-73.1 579.81,-70.71 588.17,-69 717.37,-42.6 755.57,-57.73 888.44,-33.16"/>
<polygon fill="midnightblue" stroke="midnightblue" points="889.43,-36.54 898.6,-31.24 888.12,-29.66 889.43,-36.54"/>
</g>
<!-- Node19 -->
<g id="node19" class="node">
<title>Node19</title>
<g id="a_node19"><a xlink:title=" ">
<polygon fill="white" stroke="#bfbfbf" points="1015.82,-6.5 1015.82,-26.5 1108.52,-26.5 1108.52,-6.5 1015.82,-6.5"/>
<text text-anchor="middle" x="1062.17" y="-13.5" font-family="Helvetica,sans-Serif" font-size="10.00">boost/variant.hpp</text>
</a>
</g>
</g>
<!-- Node14&#45;&gt;Node19 -->
<g id="edge23" class="edge">
<title>Node14&#45;&gt;Node19</title>
<path fill="none" stroke="midnightblue" d="M562.15,-75.49C570.42,-73.03 579.59,-70.61 588.17,-69 771.44,-34.66 822.65,-66.01 1006.17,-33 1011.75,-32 1017.59,-30.68 1023.29,-29.25"/>
<polygon fill="midnightblue" stroke="midnightblue" points="1024.57,-32.53 1033.34,-26.57 1022.77,-25.77 1024.57,-32.53"/>
</g>
<!-- Node20 -->
<g id="node20" class="node">
<title>Node20</title>
<g id="a_node20"><a xlink:title=" ">
<polygon fill="white" stroke="#bfbfbf" points="1126.21,-6.5 1126.21,-26.5 1236.12,-26.5 1236.12,-6.5 1126.21,-6.5"/>
<text text-anchor="middle" x="1181.17" y="-13.5" font-family="Helvetica,sans-Serif" font-size="10.00">fisch/vx/container.def</text>
</a>
</g>
</g>
<!-- Node14&#45;&gt;Node20 -->
<g id="edge24" class="edge">
<title>Node14&#45;&gt;Node20</title>
<path fill="none" stroke="midnightblue" d="M561.86,-75.47C570.2,-72.98 579.48,-70.55 588.17,-69 820.17,-27.68 884.26,-68.86 1117.17,-33 1124.08,-31.94 1131.33,-30.5 1138.38,-28.92"/>
<polygon fill="midnightblue" stroke="midnightblue" points="1139.56,-32.24 1148.49,-26.54 1137.96,-25.43 1139.56,-32.24"/>
</g>
</g>
</svg>
        <g id="navigator" transform="translate(0 0)" fill="#404254">
                <rect fill="#f2f5e9" fill-opacity="0.5" stroke="#606060" stroke-width=".5" x="0" y="0" width="60" height="60"/>
                <use id="zoomplus" xlink:href="#zoomPlus" x="17" y="9" onmousedown="handleZoom(evt,'in')"/>
                <use id="zoomminus" xlink:href="#zoomMin" x="42" y="9" onmousedown="handleZoom(evt,'out')"/>
                <use id="reset" xlink:href="#resetDef" x="30" y="36" onmousedown="handleReset()"/>
                <g id="arrowUp" xlink:href="#dirArrow" transform="translate(30 24)" onmousedown="handlePan(0,-1)">
                  <use xlink:href="#rim" fill="#404040">
                        <set attributeName="fill" to="#808080" begin="arrowUp.mouseover" end="arrowUp.mouseout"/>
                  </use>
                  <path fill="none" stroke="white" stroke-width="1.5" d="M0,-3.0v7 M-2.5,-0.5L0,-3.0L2.5,-0.5"/>
                </g>
                <g id="arrowRight" xlink:href="#dirArrow" transform="rotate(90) translate(36 -43)" onmousedown="handlePan(1,0)">
                  <use xlink:href="#rim" fill="#404040">
                        <set attributeName="fill" to="#808080" begin="arrowRight.mouseover" end="arrowRight.mouseout"/>
                  </use>
                  <path fill="none" stroke="white" stroke-width="1.5" d="M0,-3.0v7 M-2.5,-0.5L0,-3.0L2.5,-0.5"/>
                </g>
                <g id="arrowDown" xlink:href="#dirArrow" transform="rotate(180) translate(-30 -48)" onmousedown="handlePan(0,1)">
                  <use xlink:href="#rim" fill="#404040">
                        <set attributeName="fill" to="#808080" begin="arrowDown.mouseover" end="arrowDown.mouseout"/>
                  </use>
                  <path fill="none" stroke="white" stroke-width="1.5" d="M0,-3.0v7 M-2.5,-0.5L0,-3.0L2.5,-0.5"/>
                </g>
                <g id="arrowLeft" xlink:href="#dirArrow" transform="rotate(270) translate(-36 17)" onmousedown="handlePan(-1,0)">
                  <use xlink:href="#rim" fill="#404040">
                        <set attributeName="fill" to="#808080" begin="arrowLeft.mouseover" end="arrowLeft.mouseout"/>
                  </use>
                  <path fill="none" stroke="white" stroke-width="1.5" d="M0,-3.0v7 M-2.5,-0.5L0,-3.0L2.5,-0.5"/>
                </g>
        </g>
        <svg viewBox="0 0 15 15" width="100%" height="30px" preserveAspectRatio="xMaxYMin meet">
         <g id="arrow_out" transform="scale(0.3 0.3)">
          <a xlink:href="routing__crossbar_8h__incl_org.svg" target="_base">
           <rect id="button" ry="5" rx="5" y="6" x="6" height="38" width="38"
                fill="#f2f5e9" fill-opacity="0.5" stroke="#606060" stroke-width="1.0"/>
           <path id="arrow"
             d="M 11.500037,31.436501 C 11.940474,20.09759 22.043105,11.32322 32.158766,21.979434 L 37.068811,17.246167 C 37.068811,17.246167 37.088388,32 37.088388,32 L 22.160133,31.978069 C 22.160133,31.978069 26.997745,27.140456 26.997745,27.140456 C 18.528582,18.264221 13.291696,25.230495 11.500037,31.436501 z"
             style="fill:#404040;"/>
          </a>
         </g>
        </svg>
</svg>
