<?xml version="1.0" encoding="UTF-8" standalone="no"?>
<!DOCTYPE svg PUBLIC "-//W3C//DTD SVG 1.1//EN"
 "http://www.w3.org/Graphics/SVG/1.1/DTD/svg11.dtd">
<!-- Generated by graphviz version 2.46.0 (0)
 -->
<!-- Title: /jenkins/jenlib_workspaces_f9/bld_nightly&#45;haldls.YmxkX25pZ2h0bHktaGFsZGxzIzEzNzk.x/haldls/include/haldls/vx/sram_controller.h Pages: 1 -->
<svg width="1301pt" height="191pt"
 viewBox="0.00 0.00 1300.50 191.00" xmlns="http://www.w3.org/2000/svg" xmlns:xlink="http://www.w3.org/1999/xlink">
<g id="graph0" class="graph" transform="scale(1 1) rotate(0) translate(4 187)">
<title>/jenkins/jenlib_workspaces_f9/bld_nightly&#45;haldls.YmxkX25pZ2h0bHktaGFsZGxzIzEzNzk.x/haldls/include/haldls/vx/sram_controller.h</title>
<polygon fill="white" stroke="transparent" points="-4,4 -4,-187 1296.5,-187 1296.5,4 -4,4"/>
<!-- Node1 -->
<g id="node1" class="node">
<title>Node1</title>
<g id="a_node1"><a xlink:title=" ">
<polygon fill="#bfbfbf" stroke="black" points="779.88,-126.5 779.88,-182.5 960.9,-182.5 960.9,-126.5 779.88,-126.5"/>
<text text-anchor="start" x="787.88" y="-169.5" font-family="Helvetica,sans-Serif" font-size="10.00">/jenkins/jenlib_workspaces</text>
<text text-anchor="start" x="787.88" y="-157.5" font-family="Helvetica,sans-Serif" font-size="10.00">_f9/bld_nightly&#45;haldls.YmxkX25p</text>
<text text-anchor="start" x="787.88" y="-145.5" font-family="Helvetica,sans-Serif" font-size="10.00">Z2h0bHktaGFsZGxzIzEzNzk.x/haldls</text>
<text text-anchor="middle" x="870.39" y="-133.5" font-family="Helvetica,sans-Serif" font-size="10.00">/include/haldls/vx/sram_controller.h</text>
</a>
</g>
</g>
<!-- Node2 -->
<g id="node2" class="node">
<title>Node2</title>
<g id="a_node2"><a xlink:href="cerealization_8h.html" target="_top" xlink:title=" ">
<polygon fill="white" stroke="black" points="955.71,-69.5 955.71,-89.5 1065.06,-89.5 1065.06,-69.5 955.71,-69.5"/>
<text text-anchor="middle" x="1010.39" y="-76.5" font-family="Helvetica,sans-Serif" font-size="10.00">haldls/cerealization.h</text>
</a>
</g>
</g>
<!-- Node1&#45;&gt;Node2 -->
<g id="edge1" class="edge">
<title>Node1&#45;&gt;Node2</title>
<path fill="none" stroke="midnightblue" d="M922.52,-126.32C943.51,-115.37 966.8,-103.23 984.12,-94.2"/>
<polygon fill="midnightblue" stroke="midnightblue" points="985.83,-97.25 993.08,-89.52 982.59,-91.04 985.83,-97.25"/>
</g>
<!-- Node4 -->
<g id="node4" class="node">
<title>Node4</title>
<g id="a_node4"><a xlink:title=" ">
<polygon fill="white" stroke="#bfbfbf" points="969.88,-6.5 969.88,-26.5 1050.89,-26.5 1050.89,-6.5 969.88,-6.5"/>
<text text-anchor="middle" x="1010.39" y="-13.5" font-family="Helvetica,sans-Serif" font-size="10.00">hate/visibility.h</text>
</a>
</g>
</g>
<!-- Node1&#45;&gt;Node4 -->
<g id="edge23" class="edge">
<title>Node1&#45;&gt;Node4</title>
<path fill="none" stroke="midnightblue" d="M892.96,-126.22C907.56,-109.14 927.33,-87.04 946.39,-69 960.02,-56.1 976.55,-42.85 989.4,-33.02"/>
<polygon fill="midnightblue" stroke="midnightblue" points="991.75,-35.63 997.62,-26.81 987.53,-30.04 991.75,-35.63"/>
</g>
<!-- Node8 -->
<g id="node8" class="node">
<title>Node8</title>
<g id="a_node8"><a xlink:href="common_8h.html" target="_top" xlink:title=" ">
<polygon fill="white" stroke="black" points="35.21,-69.5 35.21,-89.5 139.56,-89.5 139.56,-69.5 35.21,-69.5"/>
<text text-anchor="middle" x="87.39" y="-76.5" font-family="Helvetica,sans-Serif" font-size="10.00">haldls/vx/common.h</text>
</a>
</g>
</g>
<!-- Node1&#45;&gt;Node8 -->
<g id="edge7" class="edge">
<title>Node1&#45;&gt;Node8</title>
<path fill="none" stroke="midnightblue" d="M779.8,-145.05C618.98,-130.06 287.56,-99.16 149.69,-86.31"/>
<polygon fill="midnightblue" stroke="midnightblue" points="149.99,-82.82 139.71,-85.38 149.34,-89.79 149.99,-82.82"/>
</g>
<!-- Node11 -->
<g id="node11" class="node">
<title>Node11</title>
<g id="a_node11"><a xlink:href="genpybind_8h.html" target="_top" xlink:title=" ">
<polygon fill="white" stroke="black" points="720.32,-6.5 720.32,-26.5 832.46,-26.5 832.46,-6.5 720.32,-6.5"/>
<text text-anchor="middle" x="776.39" y="-13.5" font-family="Helvetica,sans-Serif" font-size="10.00">haldls/vx/genpybind.h</text>
</a>
</g>
</g>
<!-- Node1&#45;&gt;Node11 -->
<g id="edge10" class="edge">
<title>Node1&#45;&gt;Node11</title>
<path fill="none" stroke="midnightblue" d="M851.59,-126.31C832.85,-99.19 804.61,-58.34 788.6,-35.18"/>
<polygon fill="midnightblue" stroke="midnightblue" points="791.31,-32.93 782.74,-26.69 785.55,-36.91 791.31,-32.93"/>
</g>
<!-- Node12 -->
<g id="node12" class="node">
<title>Node12</title>
<g id="a_node12"><a xlink:href="traits_8h.html" target="_top" xlink:title=" ">
<polygon fill="white" stroke="black" points="560.55,-69.5 560.55,-89.5 648.22,-89.5 648.22,-69.5 560.55,-69.5"/>
<text text-anchor="middle" x="604.39" y="-76.5" font-family="Helvetica,sans-Serif" font-size="10.00">haldls/vx/traits.h</text>
</a>
</g>
</g>
<!-- Node1&#45;&gt;Node12 -->
<g id="edge12" class="edge">
<title>Node1&#45;&gt;Node12</title>
<path fill="none" stroke="midnightblue" d="M779.59,-128.58C734.8,-116.29 682.88,-102.04 647.25,-92.26"/>
<polygon fill="midnightblue" stroke="midnightblue" points="647.77,-88.78 637.2,-89.51 645.92,-95.53 647.77,-88.78"/>
</g>
<!-- Node18 -->
<g id="node18" class="node">
<title>Node18</title>
<g id="a_node18"><a xlink:title=" ">
<polygon fill="white" stroke="#bfbfbf" points="1082.99,-69.5 1082.99,-89.5 1151.79,-89.5 1151.79,-69.5 1082.99,-69.5"/>
<text text-anchor="middle" x="1117.39" y="-76.5" font-family="Helvetica,sans-Serif" font-size="10.00">hate/math.h</text>
</a>
</g>
</g>
<!-- Node1&#45;&gt;Node18 -->
<g id="edge22" class="edge">
<title>Node1&#45;&gt;Node18</title>
<path fill="none" stroke="midnightblue" d="M960.96,-126.73C1000.84,-114.95 1045.66,-101.7 1077.07,-92.42"/>
<polygon fill="midnightblue" stroke="midnightblue" points="1078.17,-95.74 1086.77,-89.55 1076.19,-89.03 1078.17,-95.74"/>
</g>
<!-- Node3 -->
<g id="node3" class="node">
<title>Node3</title>
<g id="a_node3"><a xlink:title=" ">
<polygon fill="white" stroke="#bfbfbf" points="868.76,-6.5 868.76,-26.5 952.01,-26.5 952.01,-6.5 868.76,-6.5"/>
<text text-anchor="middle" x="910.39" y="-13.5" font-family="Helvetica,sans-Serif" font-size="10.00">hate/type_list.h</text>
</a>
</g>
</g>
<!-- Node2&#45;&gt;Node3 -->
<g id="edge2" class="edge">
<title>Node2&#45;&gt;Node3</title>
<path fill="none" stroke="midnightblue" d="M995.63,-69.5C979.38,-59.59 953.03,-43.51 933.93,-31.86"/>
<polygon fill="midnightblue" stroke="midnightblue" points="935.56,-28.76 925.2,-26.54 931.92,-34.73 935.56,-28.76"/>
</g>
<!-- Node2&#45;&gt;Node4 -->
<g id="edge3" class="edge">
<title>Node2&#45;&gt;Node4</title>
<path fill="none" stroke="midnightblue" d="M1010.39,-69.5C1010.39,-60.94 1010.39,-47.78 1010.39,-36.85"/>
<polygon fill="midnightblue" stroke="midnightblue" points="1013.89,-36.54 1010.39,-26.54 1006.89,-36.54 1013.89,-36.54"/>
</g>
<!-- Node5 -->
<g id="node5" class="node">
<title>Node5</title>
<g id="a_node5"><a xlink:title=" ">
<polygon fill="white" stroke="#bfbfbf" points="1068.94,-6.5 1068.94,-26.5 1113.83,-26.5 1113.83,-6.5 1068.94,-6.5"/>
<text text-anchor="middle" x="1091.39" y="-13.5" font-family="Helvetica,sans-Serif" font-size="10.00">cstdint</text>
</a>
</g>
</g>
<!-- Node2&#45;&gt;Node5 -->
<g id="edge4" class="edge">
<title>Node2&#45;&gt;Node5</title>
<path fill="none" stroke="midnightblue" d="M1022.34,-69.5C1035.14,-59.86 1055.69,-44.39 1071.04,-32.82"/>
<polygon fill="midnightblue" stroke="midnightblue" points="1073.5,-35.35 1079.39,-26.54 1069.29,-29.76 1073.5,-35.35"/>
</g>
<!-- Node6 -->
<g id="node6" class="node">
<title>Node6</title>
<g id="a_node6"><a xlink:title=" ">
<polygon fill="white" stroke="#bfbfbf" points="1132.22,-6.5 1132.22,-26.5 1176.55,-26.5 1176.55,-6.5 1132.22,-6.5"/>
<text text-anchor="middle" x="1154.39" y="-13.5" font-family="Helvetica,sans-Serif" font-size="10.00">iosfwd</text>
</a>
</g>
</g>
<!-- Node2&#45;&gt;Node6 -->
<g id="edge5" class="edge">
<title>Node2&#45;&gt;Node6</title>
<path fill="none" stroke="midnightblue" d="M1034.17,-69.36C1056.98,-60.47 1092.28,-46.39 1122.39,-33 1123.94,-32.31 1125.53,-31.59 1127.12,-30.85"/>
<polygon fill="midnightblue" stroke="midnightblue" points="1128.66,-34 1136.21,-26.56 1125.67,-27.67 1128.66,-34"/>
</g>
<!-- Node7 -->
<g id="node7" class="node">
<title>Node7</title>
<g id="a_node7"><a xlink:title=" ">
<polygon fill="white" stroke="#bfbfbf" points="1194.27,-6.5 1194.27,-26.5 1292.5,-26.5 1292.5,-6.5 1194.27,-6.5"/>
<text text-anchor="middle" x="1243.39" y="-13.5" font-family="Helvetica,sans-Serif" font-size="10.00">cereal/macros.hpp</text>
</a>
</g>
</g>
<!-- Node2&#45;&gt;Node7 -->
<g id="edge6" class="edge">
<title>Node2&#45;&gt;Node7</title>
<path fill="none" stroke="midnightblue" d="M1045.6,-69.42C1080.95,-60.28 1136.97,-45.76 1185.39,-33 1190.05,-31.77 1194.93,-30.48 1199.79,-29.19"/>
<polygon fill="midnightblue" stroke="midnightblue" points="1200.9,-32.51 1209.66,-26.55 1199.1,-25.75 1200.9,-32.51"/>
</g>
<!-- Node9 -->
<g id="node9" class="node">
<title>Node9</title>
<g id="a_node9"><a xlink:title=" ">
<polygon fill="white" stroke="#bfbfbf" points="56.33,-6.5 56.33,-26.5 118.45,-26.5 118.45,-6.5 56.33,-6.5"/>
<text text-anchor="middle" x="87.39" y="-13.5" font-family="Helvetica,sans-Serif" font-size="10.00">type_traits</text>
</a>
</g>
</g>
<!-- Node8&#45;&gt;Node9 -->
<g id="edge8" class="edge">
<title>Node8&#45;&gt;Node9</title>
<path fill="none" stroke="midnightblue" d="M87.39,-69.5C87.39,-60.94 87.39,-47.78 87.39,-36.85"/>
<polygon fill="midnightblue" stroke="midnightblue" points="90.89,-36.54 87.39,-26.54 83.89,-36.54 90.89,-36.54"/>
</g>
<!-- Node10 -->
<g id="node10" class="node">
<title>Node10</title>
<g id="a_node10"><a xlink:title=" ">
<polygon fill="white" stroke="#bfbfbf" points="0,-6.5 0,-26.5 38.77,-26.5 38.77,-6.5 0,-6.5"/>
<text text-anchor="middle" x="19.39" y="-13.5" font-family="Helvetica,sans-Serif" font-size="10.00">utility</text>
</a>
</g>
</g>
<!-- Node8&#45;&gt;Node10 -->
<g id="edge9" class="edge">
<title>Node8&#45;&gt;Node10</title>
<path fill="none" stroke="midnightblue" d="M77.35,-69.5C66.81,-60.04 50,-44.96 37.19,-33.47"/>
<polygon fill="midnightblue" stroke="midnightblue" points="39.24,-30.61 29.46,-26.54 34.57,-35.82 39.24,-30.61"/>
</g>
<!-- Node11&#45;&gt;Node11 -->
<g id="edge11" class="edge">
<title>Node11&#45;&gt;Node11</title>
<path fill="none" stroke="midnightblue" d="M804.89,-26.56C827.38,-30.45 850.46,-27.1 850.46,-16.5 850.46,-7.48 833.72,-3.71 814.87,-5.19"/>
<polygon fill="midnightblue" stroke="midnightblue" points="814.38,-1.72 804.89,-6.44 815.25,-8.67 814.38,-1.72"/>
</g>
<!-- Node12&#45;&gt;Node3 -->
<g id="edge16" class="edge">
<title>Node12&#45;&gt;Node3</title>
<path fill="none" stroke="midnightblue" d="M648.48,-72.26C699.58,-64.65 786.15,-50.6 859.39,-33 863.81,-31.94 868.41,-30.71 872.96,-29.42"/>
<polygon fill="midnightblue" stroke="midnightblue" points="874.15,-32.72 882.76,-26.55 872.18,-26.01 874.15,-32.72"/>
</g>
<!-- Node12&#45;&gt;Node4 -->
<g id="edge17" class="edge">
<title>Node12&#45;&gt;Node4</title>
<path fill="none" stroke="midnightblue" d="M648.23,-75.46C716.01,-70.19 850.02,-57.5 961.39,-33 965.87,-32.01 970.53,-30.8 975.12,-29.48"/>
<polygon fill="midnightblue" stroke="midnightblue" points="976.38,-32.76 984.94,-26.5 974.35,-26.06 976.38,-32.76"/>
</g>
<!-- Node12&#45;&gt;Node9 -->
<g id="edge18" class="edge">
<title>Node12&#45;&gt;Node9</title>
<path fill="none" stroke="midnightblue" d="M560.33,-78.31C475.4,-77.06 283.62,-69.98 127.39,-33 124.13,-32.23 120.77,-31.25 117.47,-30.16"/>
<polygon fill="midnightblue" stroke="midnightblue" points="118.4,-26.77 107.8,-26.65 116.01,-33.35 118.4,-26.77"/>
</g>
<!-- Node12&#45;&gt;Node11 -->
<g id="edge15" class="edge">
<title>Node12&#45;&gt;Node11</title>
<path fill="none" stroke="midnightblue" d="M629.77,-69.5C659.24,-59.05 708.03,-41.74 741.16,-29.99"/>
<polygon fill="midnightblue" stroke="midnightblue" points="742.65,-33.18 750.9,-26.54 740.31,-26.58 742.65,-33.18"/>
</g>
<!-- Node13 -->
<g id="node13" class="node">
<title>Node13</title>
<g id="a_node13"><a xlink:title=" ">
<polygon fill="white" stroke="#bfbfbf" points="620.33,-6.5 620.33,-26.5 702.45,-26.5 702.45,-6.5 620.33,-6.5"/>
<text text-anchor="middle" x="661.39" y="-13.5" font-family="Helvetica,sans-Serif" font-size="10.00">fisch/vx/traits.h</text>
</a>
</g>
</g>
<!-- Node12&#45;&gt;Node13 -->
<g id="edge13" class="edge">
<title>Node12&#45;&gt;Node13</title>
<path fill="none" stroke="midnightblue" d="M612.8,-69.5C621.47,-60.22 635.19,-45.53 645.84,-34.13"/>
<polygon fill="midnightblue" stroke="midnightblue" points="648.67,-36.23 652.94,-26.54 643.56,-31.45 648.67,-36.23"/>
</g>
<!-- Node14 -->
<g id="node14" class="node">
<title>Node14</title>
<g id="a_node14"><a xlink:title=" ">
<polygon fill="white" stroke="#bfbfbf" points="136.16,-0.5 136.16,-32.5 246.62,-32.5 246.62,-0.5 136.16,-0.5"/>
<text text-anchor="start" x="144.16" y="-19.5" font-family="Helvetica,sans-Serif" font-size="10.00">fisch/vx/word_access</text>
<text text-anchor="middle" x="191.39" y="-7.5" font-family="Helvetica,sans-Serif" font-size="10.00">_type.h</text>
</a>
</g>
</g>
<!-- Node12&#45;&gt;Node14 -->
<g id="edge14" class="edge">
<title>Node12&#45;&gt;Node14</title>
<path fill="none" stroke="midnightblue" d="M560.48,-74.24C496.13,-67.68 372.27,-53.81 256.7,-32.93"/>
<polygon fill="midnightblue" stroke="midnightblue" points="257.09,-29.44 246.62,-31.08 255.83,-36.33 257.09,-29.44"/>
</g>
<!-- Node15 -->
<g id="node15" class="node">
<title>Node15</title>
<g id="a_node15"><a xlink:title=" ">
<polygon fill="white" stroke="#bfbfbf" points="264.99,-0.5 264.99,-32.5 363.79,-32.5 363.79,-0.5 264.99,-0.5"/>
<text text-anchor="start" x="272.99" y="-19.5" font-family="Helvetica,sans-Serif" font-size="10.00">boost/utility/enable</text>
<text text-anchor="middle" x="314.39" y="-7.5" font-family="Helvetica,sans-Serif" font-size="10.00">_if.hpp</text>
</a>
</g>
</g>
<!-- Node12&#45;&gt;Node15 -->
<g id="edge19" class="edge">
<title>Node12&#45;&gt;Node15</title>
<path fill="none" stroke="midnightblue" d="M560.36,-70.67C515.85,-62.57 444.86,-49.14 373.91,-33.04"/>
<polygon fill="midnightblue" stroke="midnightblue" points="374.43,-29.57 363.91,-30.75 372.87,-36.39 374.43,-29.57"/>
</g>
<!-- Node16 -->
<g id="node16" class="node">
<title>Node16</title>
<g id="a_node16"><a xlink:title=" ">
<polygon fill="white" stroke="#bfbfbf" points="382.04,-6.5 382.04,-26.5 474.73,-26.5 474.73,-6.5 382.04,-6.5"/>
<text text-anchor="middle" x="428.39" y="-13.5" font-family="Helvetica,sans-Serif" font-size="10.00">boost/variant.hpp</text>
</a>
</g>
</g>
<!-- Node12&#45;&gt;Node16 -->
<g id="edge20" class="edge">
<title>Node12&#45;&gt;Node16</title>
<path fill="none" stroke="midnightblue" d="M578.42,-69.5C548.13,-59 497.9,-41.59 463.99,-29.84"/>
<polygon fill="midnightblue" stroke="midnightblue" points="465.06,-26.51 454.46,-26.54 462.77,-33.12 465.06,-26.51"/>
</g>
<!-- Node17 -->
<g id="node17" class="node">
<title>Node17</title>
<g id="a_node17"><a xlink:title=" ">
<polygon fill="white" stroke="#bfbfbf" points="492.43,-6.5 492.43,-26.5 602.34,-26.5 602.34,-6.5 492.43,-6.5"/>
<text text-anchor="middle" x="547.39" y="-13.5" font-family="Helvetica,sans-Serif" font-size="10.00">fisch/vx/container.def</text>
</a>
</g>
</g>
<!-- Node12&#45;&gt;Node17 -->
<g id="edge21" class="edge">
<title>Node12&#45;&gt;Node17</title>
<path fill="none" stroke="midnightblue" d="M595.98,-69.5C587.3,-60.22 573.58,-45.53 562.93,-34.13"/>
<polygon fill="midnightblue" stroke="midnightblue" points="565.22,-31.45 555.83,-26.54 560.1,-36.23 565.22,-31.45"/>
</g>
</g>
</svg>
