<?xml version="1.0" encoding="UTF-8" standalone="no"?>
<!DOCTYPE svg PUBLIC "-//W3C//DTD SVG 1.1//EN"
 "http://www.w3.org/Graphics/SVG/1.1/DTD/svg11.dtd">
<!-- Generated by graphviz version 2.46.0 (0)
 -->
<!-- Title: haldls::vx::detail::BackendContainerTrait&lt; CommonPhyConfigChip &gt; Pages: 1 -->
<svg width="730pt" height="79pt"
 viewBox="0.00 0.00 729.96 78.50" xmlns="http://www.w3.org/2000/svg" xmlns:xlink="http://www.w3.org/1999/xlink">
<g id="graph0" class="graph" transform="scale(1 1) rotate(0) translate(4 74.5)">
<title>haldls::vx::detail::BackendContainerTrait&lt; CommonPhyConfigChip &gt;</title>
<polygon fill="white" stroke="transparent" points="-4,4 -4,-74.5 725.96,-74.5 725.96,4 -4,4"/>
<!-- Node1 -->
<g id="node1" class="node">
<title>Node1</title>
<g id="a_node1"><a xlink:title=" ">
<polygon fill="#bfbfbf" stroke="black" points="581.49,-12.5 581.49,-56.5 721.96,-56.5 721.96,-12.5 581.49,-12.5"/>
<text text-anchor="start" x="589.49" y="-43.5" font-family="Helvetica,sans-Serif" font-size="10.00">haldls::vx::detail</text>
<text text-anchor="start" x="589.49" y="-31.5" font-family="Helvetica,sans-Serif" font-size="10.00">::BackendContainerTrait</text>
<text text-anchor="middle" x="651.73" y="-19.5" font-family="Helvetica,sans-Serif" font-size="10.00">&lt; CommonPhyConfigChip &gt;</text>
</a>
</g>
</g>
<!-- Node2 -->
<g id="node2" class="node">
<title>Node2</title>
<g id="a_node2"><a xlink:href="structhaldls_1_1vx_1_1detail_1_1_backend_container_base.html" target="_top" xlink:title=" ">
<polygon fill="white" stroke="black" points="382.08,-0.5 382.08,-68.5 544.5,-68.5 544.5,-0.5 382.08,-0.5"/>
<text text-anchor="start" x="390.08" y="-55.5" font-family="Helvetica,sans-Serif" font-size="10.00">haldls::vx::detail</text>
<text text-anchor="start" x="390.08" y="-43.5" font-family="Helvetica,sans-Serif" font-size="10.00">::BackendContainerBase</text>
<text text-anchor="start" x="390.08" y="-31.5" font-family="Helvetica,sans-Serif" font-size="10.00">&lt; CommonPhyConfigChip,</text>
<text text-anchor="start" x="390.08" y="-19.5" font-family="Helvetica,sans-Serif" font-size="10.00"> fisch::vx::word_access</text>
<text text-anchor="middle" x="463.29" y="-7.5" font-family="Helvetica,sans-Serif" font-size="10.00">_type::OmnibusChipOverJTAG &gt;</text>
</a>
</g>
</g>
<!-- Node2&#45;&gt;Node1 -->
<g id="edge1" class="edge">
<title>Node2&#45;&gt;Node1</title>
<path fill="none" stroke="midnightblue" d="M554.78,-34.5C563.73,-34.5 572.72,-34.5 581.41,-34.5"/>
<polygon fill="midnightblue" stroke="midnightblue" points="554.71,-31 544.71,-34.5 554.71,-38 554.71,-31"/>
</g>
<!-- Node3 -->
<g id="node3" class="node">
<title>Node3</title>
<g id="a_node3"><a xlink:href="structhaldls_1_1vx_1_1detail_1_1_backend_container_base.html" target="_top" xlink:title="Backend container trait base.">
<polygon fill="white" stroke="black" points="0,-6.5 0,-62.5 199.66,-62.5 199.66,-6.5 0,-6.5"/>
<text text-anchor="start" x="8" y="-49.5" font-family="Helvetica,sans-Serif" font-size="10.00">haldls::vx::detail</text>
<text text-anchor="start" x="8" y="-37.5" font-family="Helvetica,sans-Serif" font-size="10.00">::BackendContainerBase</text>
<text text-anchor="start" x="8" y="-25.5" font-family="Helvetica,sans-Serif" font-size="10.00">&lt; ContainerT, DefaultBackend</text>
<text text-anchor="middle" x="99.83" y="-13.5" font-family="Helvetica,sans-Serif" font-size="10.00">Container, AdditionalBackendContainer &gt;</text>
</a>
</g>
</g>
<!-- Node3&#45;&gt;Node2 -->
<g id="edge2" class="edge">
<title>Node3&#45;&gt;Node2</title>
<path fill="none" stroke="orange" stroke-dasharray="5,2" d="M210.26,-34.5C265.49,-34.5 331.3,-34.5 381.81,-34.5"/>
<polygon fill="orange" stroke="orange" points="210.08,-31 200.08,-34.5 210.08,-38 210.08,-31"/>
<text text-anchor="start" x="217.66" y="-61.5" font-family="Helvetica,sans-Serif" font-size="10.00"> &lt; CommonPhyConfigChip,</text>
<text text-anchor="start" x="217.66" y="-49.5" font-family="Helvetica,sans-Serif" font-size="10.00"> fisch::vx::word_access</text>
<text text-anchor="middle" x="290.87" y="-37.5" font-family="Helvetica,sans-Serif" font-size="10.00">_type::OmnibusChipOverJTAG &gt;</text>
</g>
</g>
</svg>
