<?xml version="1.0" encoding="UTF-8" standalone="no"?>
<!DOCTYPE svg PUBLIC "-//W3C//DTD SVG 1.1//EN"
 "http://www.w3.org/Graphics/SVG/1.1/DTD/svg11.dtd">
<!-- Generated by graphviz version 2.46.0 (0)
 -->
<!-- Title: haldls::vx::detail::SRAMTimingConfig::ReadDelay Pages: 1 -->
<svg width="304pt" height="65pt"
 viewBox="0.00 0.00 303.52 65.00" xmlns="http://www.w3.org/2000/svg" xmlns:xlink="http://www.w3.org/1999/xlink">
<g id="graph0" class="graph" transform="scale(1 1) rotate(0) translate(4 61)">
<title>haldls::vx::detail::SRAMTimingConfig::ReadDelay</title>
<polygon fill="white" stroke="transparent" points="-4,4 -4,-61 299.52,-61 299.52,4 -4,4"/>
<!-- Node1 -->
<g id="node1" class="node">
<title>Node1</title>
<g id="a_node1"><a xlink:title="Wait time after enable signal pull for cells to drive their value until read.">
<polygon fill="#bfbfbf" stroke="black" points="180.63,-6.5 180.63,-50.5 295.52,-50.5 295.52,-6.5 180.63,-6.5"/>
<text text-anchor="start" x="188.63" y="-37.5" font-family="Helvetica,sans-Serif" font-size="10.00">haldls::vx::detail</text>
<text text-anchor="start" x="188.63" y="-25.5" font-family="Helvetica,sans-Serif" font-size="10.00">::SRAMTimingConfig::</text>
<text text-anchor="middle" x="238.08" y="-13.5" font-family="Helvetica,sans-Serif" font-size="10.00">ReadDelay</text>
</a>
</g>
</g>
<!-- Node2 -->
<g id="node2" class="node">
<title>Node2</title>
<g id="a_node2"><a xlink:title=" ">
<polygon fill="white" stroke="#bfbfbf" points="0,-0.5 0,-56.5 144.63,-56.5 144.63,-0.5 0,-0.5"/>
<text text-anchor="start" x="8" y="-43.5" font-family="Helvetica,sans-Serif" font-size="10.00">halco::common::detail</text>
<text text-anchor="start" x="8" y="-31.5" font-family="Helvetica,sans-Serif" font-size="10.00">:: RantWrapper&lt; ReadDelay,</text>
<text text-anchor="start" x="8" y="-19.5" font-family="Helvetica,sans-Serif" font-size="10.00"> uint_fast16_t, hate::math</text>
<text text-anchor="middle" x="72.32" y="-7.5" font-family="Helvetica,sans-Serif" font-size="10.00">::pow(2, 8) &#45; 1, 0 &gt;</text>
</a>
</g>
</g>
<!-- Node2&#45;&gt;Node1 -->
<g id="edge1" class="edge">
<title>Node2&#45;&gt;Node1</title>
<path fill="none" stroke="midnightblue" d="M154.75,-28.5C163.37,-28.5 171.99,-28.5 180.23,-28.5"/>
<polygon fill="midnightblue" stroke="midnightblue" points="154.67,-25 144.67,-28.5 154.67,-32 154.67,-25"/>
</g>
</g>
</svg>
