<?xml version="1.0" encoding="UTF-8" standalone="no"?>
<!DOCTYPE svg PUBLIC "-//W3C//DTD SVG 1.1//EN"
 "http://www.w3.org/Graphics/SVG/1.1/DTD/svg11.dtd">
<!-- Generated by graphviz version 2.46.0 (0)
 -->
<!-- Title: haldls::vx::INA219Status::BusVoltage Pages: 1 -->
<svg width="152pt" height="122pt"
 viewBox="0.00 0.00 151.53 122.00" xmlns="http://www.w3.org/2000/svg" xmlns:xlink="http://www.w3.org/1999/xlink">
<g id="graph0" class="graph" transform="scale(1 1) rotate(0) translate(4 118)">
<title>haldls::vx::INA219Status::BusVoltage</title>
<polygon fill="white" stroke="transparent" points="-4,4 -4,-118 147.53,-118 147.53,4 -4,4"/>
<!-- Node1 -->
<g id="node1" class="node">
<title>Node1</title>
<g id="a_node1"><a xlink:title="Bus voltage with linear conversion and LSB = 4mV.">
<polygon fill="#bfbfbf" stroke="black" points="9.31,-0.5 9.31,-32.5 134.23,-32.5 134.23,-0.5 9.31,-0.5"/>
<text text-anchor="start" x="17.31" y="-19.5" font-family="Helvetica,sans-Serif" font-size="10.00">haldls::vx::INA219Status</text>
<text text-anchor="middle" x="71.77" y="-7.5" font-family="Helvetica,sans-Serif" font-size="10.00">::BusVoltage</text>
</a>
</g>
</g>
<!-- Node2 -->
<g id="node2" class="node">
<title>Node2</title>
<g id="a_node2"><a xlink:title=" ">
<polygon fill="white" stroke="#bfbfbf" points="0,-69.5 0,-113.5 143.53,-113.5 143.53,-69.5 0,-69.5"/>
<text text-anchor="start" x="8" y="-100.5" font-family="Helvetica,sans-Serif" font-size="10.00">halco::common::detail</text>
<text text-anchor="start" x="8" y="-88.5" font-family="Helvetica,sans-Serif" font-size="10.00">::RantWrapper&lt; BusVoltage,</text>
<text text-anchor="middle" x="71.77" y="-76.5" font-family="Helvetica,sans-Serif" font-size="10.00"> uint_fast16_t, 4000, 0 &gt;</text>
</a>
</g>
</g>
<!-- Node2&#45;&gt;Node1 -->
<g id="edge1" class="edge">
<title>Node2&#45;&gt;Node1</title>
<path fill="none" stroke="midnightblue" d="M71.77,-59.26C71.77,-50 71.77,-40.27 71.77,-32.54"/>
<polygon fill="midnightblue" stroke="midnightblue" points="68.27,-59.39 71.77,-69.39 75.27,-59.39 68.27,-59.39"/>
</g>
</g>
</svg>
