<?xml version="1.0" encoding="UTF-8" standalone="no"?>
<!DOCTYPE svg PUBLIC "-//W3C//DTD SVG 1.1//EN"
 "http://www.w3.org/Graphics/SVG/1.1/DTD/svg11.dtd">
<!-- Generated by graphviz version 2.46.0 (0)
 -->
<!-- Title: haldls::vx::detail::BackendContainerTrait&lt; CrossbarInputDropCounter &gt; Pages: 1 -->
<svg width="1437pt" height="109pt"
 viewBox="0.00 0.00 1436.60 109.00" xmlns="http://www.w3.org/2000/svg" xmlns:xlink="http://www.w3.org/1999/xlink">
<g id="graph0" class="graph" transform="scale(1 1) rotate(0) translate(4 105)">
<title>haldls::vx::detail::BackendContainerTrait&lt; CrossbarInputDropCounter &gt;</title>
<polygon fill="white" stroke="transparent" points="-4,4 -4,-105 1432.6,-105 1432.6,4 -4,4"/>
<!-- Node1 -->
<g id="node1" class="node">
<title>Node1</title>
<g id="a_node1"><a xlink:title=" ">
<polygon fill="#bfbfbf" stroke="black" points="1275.35,-38.5 1275.35,-82.5 1428.6,-82.5 1428.6,-38.5 1275.35,-38.5"/>
<text text-anchor="start" x="1283.35" y="-69.5" font-family="Helvetica,sans-Serif" font-size="10.00">haldls::vx::detail</text>
<text text-anchor="start" x="1283.35" y="-57.5" font-family="Helvetica,sans-Serif" font-size="10.00">::BackendContainerTrait</text>
<text text-anchor="middle" x="1351.98" y="-45.5" font-family="Helvetica,sans-Serif" font-size="10.00">&lt; CrossbarInputDropCounter &gt;</text>
</a>
</g>
</g>
<!-- Node2 -->
<g id="node2" class="node">
<title>Node2</title>
<g id="a_node2"><a xlink:href="structhaldls_1_1vx_1_1detail_1_1_backend_container_base.html" target="_top" xlink:title=" ">
<polygon fill="white" stroke="black" points="1071.21,-20.5 1071.21,-100.5 1238.35,-100.5 1238.35,-20.5 1071.21,-20.5"/>
<text text-anchor="start" x="1079.21" y="-87.5" font-family="Helvetica,sans-Serif" font-size="10.00">haldls::vx::detail</text>
<text text-anchor="start" x="1079.21" y="-75.5" font-family="Helvetica,sans-Serif" font-size="10.00">::BackendContainerBase</text>
<text text-anchor="start" x="1079.21" y="-63.5" font-family="Helvetica,sans-Serif" font-size="10.00">&lt; CrossbarInputDropCounter,</text>
<text text-anchor="start" x="1079.21" y="-51.5" font-family="Helvetica,sans-Serif" font-size="10.00"> fisch::vx::word_access_type</text>
<text text-anchor="start" x="1079.21" y="-39.5" font-family="Helvetica,sans-Serif" font-size="10.00">::Omnibus, fisch::vx::word_access</text>
<text text-anchor="middle" x="1154.78" y="-27.5" font-family="Helvetica,sans-Serif" font-size="10.00">_type::OmnibusChipOverJTAG &gt;</text>
</a>
</g>
</g>
<!-- Node2&#45;&gt;Node1 -->
<g id="edge1" class="edge">
<title>Node2&#45;&gt;Node1</title>
<path fill="none" stroke="midnightblue" d="M1248.59,-60.5C1257.5,-60.5 1266.47,-60.5 1275.2,-60.5"/>
<polygon fill="midnightblue" stroke="midnightblue" points="1248.56,-57 1238.56,-60.5 1248.56,-64 1248.56,-57"/>
</g>
<!-- Node3 -->
<g id="node3" class="node">
<title>Node3</title>
<g id="a_node3"><a xlink:title=" ">
<polygon fill="white" stroke="#bfbfbf" points="378.18,-38.5 378.18,-82.5 517.54,-82.5 517.54,-38.5 378.18,-38.5"/>
<text text-anchor="start" x="386.18" y="-69.5" font-family="Helvetica,sans-Serif" font-size="10.00">std::array&lt; Backend,</text>
<text text-anchor="start" x="386.18" y="-57.5" font-family="Helvetica,sans-Serif" font-size="10.00"> sizeof...(AdditionalBackend</text>
<text text-anchor="middle" x="447.86" y="-45.5" font-family="Helvetica,sans-Serif" font-size="10.00">Container)+1 &gt;</text>
</a>
</g>
</g>
<!-- Node3&#45;&gt;Node2 -->
<g id="edge2" class="edge">
<title>Node3&#45;&gt;Node2</title>
<path fill="none" stroke="#9a32cd" stroke-dasharray="5,2" d="M528.1,-69.27C643.77,-80.64 865.52,-97.07 1053.21,-79.5 1059.05,-78.95 1065.06,-78.23 1071.09,-77.39"/>
<polygon fill="#9a32cd" stroke="#9a32cd" points="528.22,-65.76 517.92,-68.25 527.52,-72.73 528.22,-65.76"/>
<text text-anchor="middle" x="725.07" y="-89.5" font-family="Helvetica,sans-Serif" font-size="10.00"> valid_backends</text>
</g>
<!-- Node6 -->
<g id="node6" class="node">
<title>Node6</title>
<g id="a_node6"><a xlink:href="structhaldls_1_1vx_1_1detail_1_1_backend_container_base.html" target="_top" xlink:title="Backend container trait base.">
<polygon fill="white" stroke="black" points="625.23,-0.5 625.23,-56.5 824.9,-56.5 824.9,-0.5 625.23,-0.5"/>
<text text-anchor="start" x="633.23" y="-43.5" font-family="Helvetica,sans-Serif" font-size="10.00">haldls::vx::detail</text>
<text text-anchor="start" x="633.23" y="-31.5" font-family="Helvetica,sans-Serif" font-size="10.00">::BackendContainerBase</text>
<text text-anchor="start" x="633.23" y="-19.5" font-family="Helvetica,sans-Serif" font-size="10.00">&lt; ContainerT, DefaultBackend</text>
<text text-anchor="middle" x="725.07" y="-7.5" font-family="Helvetica,sans-Serif" font-size="10.00">Container, AdditionalBackendContainer &gt;</text>
</a>
</g>
</g>
<!-- Node3&#45;&gt;Node6 -->
<g id="edge6" class="edge">
<title>Node3&#45;&gt;Node6</title>
<path fill="none" stroke="#9a32cd" stroke-dasharray="5,2" d="M527.7,-51.33C558.03,-47.81 593.07,-43.73 625.07,-40.01"/>
<polygon fill="#9a32cd" stroke="#9a32cd" points="527.13,-47.88 517.6,-52.51 527.93,-54.83 527.13,-47.88"/>
<text text-anchor="middle" x="571.39" y="-53.5" font-family="Helvetica,sans-Serif" font-size="10.00"> valid_backends</text>
</g>
<!-- Node4 -->
<g id="node4" class="node">
<title>Node4</title>
<g id="a_node4"><a xlink:title=" ">
<polygon fill="white" stroke="#bfbfbf" points="108.34,-50.5 108.34,-70.5 189.36,-70.5 189.36,-50.5 108.34,-50.5"/>
<text text-anchor="middle" x="148.85" y="-57.5" font-family="Helvetica,sans-Serif" font-size="10.00">std::array&lt; T &gt;</text>
</a>
</g>
</g>
<!-- Node4&#45;&gt;Node3 -->
<g id="edge3" class="edge">
<title>Node4&#45;&gt;Node3</title>
<path fill="none" stroke="orange" stroke-dasharray="5,2" d="M199.62,-60.5C248.5,-60.5 323.49,-60.5 378.06,-60.5"/>
<polygon fill="orange" stroke="orange" points="199.6,-57 189.6,-60.5 199.6,-64 199.6,-57"/>
<text text-anchor="start" x="207.36" y="-75.5" font-family="Helvetica,sans-Serif" font-size="10.00"> &lt; Backend, sizeof...</text>
<text text-anchor="middle" x="283.77" y="-63.5" font-family="Helvetica,sans-Serif" font-size="10.00">(AdditionalBackendContainer)+1 &gt;</text>
</g>
<!-- Node5 -->
<g id="node5" class="node">
<title>Node5</title>
<g id="a_node5"><a xlink:title=" ">
<polygon fill="white" stroke="#bfbfbf" points="0,-50.5 0,-70.5 29,-70.5 29,-50.5 0,-50.5"/>
<text text-anchor="middle" x="14.5" y="-57.5" font-family="Helvetica,sans-Serif" font-size="10.00">T</text>
</a>
</g>
</g>
<!-- Node5&#45;&gt;Node4 -->
<g id="edge4" class="edge">
<title>Node5&#45;&gt;Node4</title>
<path fill="none" stroke="#9a32cd" stroke-dasharray="5,2" d="M39.4,-60.5C58.55,-60.5 85.82,-60.5 108.22,-60.5"/>
<polygon fill="#9a32cd" stroke="#9a32cd" points="39.17,-57 29.17,-60.5 39.17,-64 39.17,-57"/>
<text text-anchor="middle" x="68.67" y="-63.5" font-family="Helvetica,sans-Serif" font-size="10.00"> elements</text>
</g>
<!-- Node6&#45;&gt;Node2 -->
<g id="edge5" class="edge">
<title>Node6&#45;&gt;Node2</title>
<path fill="none" stroke="orange" stroke-dasharray="5,2" d="M835.11,-22.14C899,-20.24 981.06,-20.97 1053.21,-31.5 1059.06,-32.35 1065.04,-33.46 1071.03,-34.73"/>
<polygon fill="orange" stroke="orange" points="834.9,-18.65 825.02,-22.47 835.13,-25.64 834.9,-18.65"/>
<text text-anchor="start" x="842.9" y="-70.5" font-family="Helvetica,sans-Serif" font-size="10.00"> &lt; CrossbarInputDropCounter,</text>
<text text-anchor="start" x="842.9" y="-58.5" font-family="Helvetica,sans-Serif" font-size="10.00"> fisch::vx::word_access</text>
<text text-anchor="start" x="842.9" y="-46.5" font-family="Helvetica,sans-Serif" font-size="10.00">_type::Omnibus, fisch::vx</text>
<text text-anchor="middle" x="948.06" y="-34.5" font-family="Helvetica,sans-Serif" font-size="10.00">::word_access_type::OmnibusChipOverJTAG &gt;</text>
</g>
</g>
</svg>
