<?xml version="1.0" encoding="UTF-8" standalone="no"?>
<!DOCTYPE svg PUBLIC "-//W3C//DTD SVG 1.1//EN"
 "http://www.w3.org/Graphics/SVG/1.1/DTD/svg11.dtd">
<!-- Generated by graphviz version 2.46.0 (0)
 -->
<!-- Title: haldls::vx::CrossbarOutputEventCounter::Value Pages: 1 -->
<svg width="303pt" height="65pt"
 viewBox="0.00 0.00 302.99 65.00" xmlns="http://www.w3.org/2000/svg" xmlns:xlink="http://www.w3.org/1999/xlink">
<g id="graph0" class="graph" transform="scale(1 1) rotate(0) translate(4 61)">
<title>haldls::vx::CrossbarOutputEventCounter::Value</title>
<polygon fill="white" stroke="transparent" points="-4,4 -4,-61 298.99,-61 298.99,4 -4,4"/>
<!-- Node1 -->
<g id="node1" class="node">
<title>Node1</title>
<g id="a_node1"><a xlink:title=" ">
<polygon fill="#bfbfbf" stroke="black" points="161.19,-12.5 161.19,-44.5 294.99,-44.5 294.99,-12.5 161.19,-12.5"/>
<text text-anchor="start" x="169.19" y="-31.5" font-family="Helvetica,sans-Serif" font-size="10.00">haldls::vx::CrossbarOutput</text>
<text text-anchor="middle" x="228.09" y="-19.5" font-family="Helvetica,sans-Serif" font-size="10.00">EventCounter::Value</text>
</a>
</g>
</g>
<!-- Node2 -->
<g id="node2" class="node">
<title>Node2</title>
<g id="a_node2"><a xlink:title=" ">
<polygon fill="white" stroke="#bfbfbf" points="0,-0.5 0,-56.5 125.19,-56.5 125.19,-0.5 0,-0.5"/>
<text text-anchor="start" x="8" y="-43.5" font-family="Helvetica,sans-Serif" font-size="10.00">halco::common::detail</text>
<text text-anchor="start" x="8" y="-31.5" font-family="Helvetica,sans-Serif" font-size="10.00">:: RantWrapper&lt; Value,</text>
<text text-anchor="start" x="8" y="-19.5" font-family="Helvetica,sans-Serif" font-size="10.00"> uint_fast32_t, hate::</text>
<text text-anchor="middle" x="62.6" y="-7.5" font-family="Helvetica,sans-Serif" font-size="10.00">math::pow(2, 24) &#45; 1, 0 &gt;</text>
</a>
</g>
</g>
<!-- Node2&#45;&gt;Node1 -->
<g id="edge1" class="edge">
<title>Node2&#45;&gt;Node1</title>
<path fill="none" stroke="midnightblue" d="M135.64,-28.5C144.11,-28.5 152.72,-28.5 161.1,-28.5"/>
<polygon fill="midnightblue" stroke="midnightblue" points="135.41,-25 125.41,-28.5 135.41,-32 135.41,-25"/>
</g>
</g>
</svg>
