<?xml version="1.0" encoding="UTF-8" standalone="no"?>
<!DOCTYPE svg PUBLIC "-//W3C//DTD SVG 1.1//EN"
 "http://www.w3.org/Graphics/SVG/1.1/DTD/svg11.dtd">
<!-- Generated by graphviz version 2.46.0 (0)
 -->
<!-- Title: haldls::vx::detail::BackendContainerTrait&lt; ResetChip &gt; Pages: 1 -->
<svg width="674pt" height="73pt"
 viewBox="0.00 0.00 673.58 72.50" xmlns="http://www.w3.org/2000/svg" xmlns:xlink="http://www.w3.org/1999/xlink">
<g id="graph0" class="graph" transform="scale(1 1) rotate(0) translate(4 68.5)">
<title>haldls::vx::detail::BackendContainerTrait&lt; ResetChip &gt;</title>
<polygon fill="white" stroke="transparent" points="-4,4 -4,-68.5 669.58,-68.5 669.58,4 -4,4"/>
<!-- Node1 -->
<g id="node1" class="node">
<title>Node1</title>
<g id="a_node1"><a xlink:title=" ">
<polygon fill="#bfbfbf" stroke="black" points="541.78,-6.5 541.78,-50.5 665.58,-50.5 665.58,-6.5 541.78,-6.5"/>
<text text-anchor="start" x="549.78" y="-37.5" font-family="Helvetica,sans-Serif" font-size="10.00">haldls::vx::detail</text>
<text text-anchor="start" x="549.78" y="-25.5" font-family="Helvetica,sans-Serif" font-size="10.00">::BackendContainerTrait</text>
<text text-anchor="middle" x="603.68" y="-13.5" font-family="Helvetica,sans-Serif" font-size="10.00">&lt; ResetChip &gt;</text>
</a>
</g>
</g>
<!-- Node2 -->
<g id="node2" class="node">
<title>Node2</title>
<g id="a_node2"><a xlink:href="structhaldls_1_1vx_1_1detail_1_1_backend_container_base.html" target="_top" xlink:title=" ">
<polygon fill="white" stroke="black" points="339.58,-0.5 339.58,-56.5 504.78,-56.5 504.78,-0.5 339.58,-0.5"/>
<text text-anchor="start" x="347.58" y="-43.5" font-family="Helvetica,sans-Serif" font-size="10.00">haldls::vx::detail</text>
<text text-anchor="start" x="347.58" y="-31.5" font-family="Helvetica,sans-Serif" font-size="10.00">::BackendContainerBase</text>
<text text-anchor="start" x="347.58" y="-19.5" font-family="Helvetica,sans-Serif" font-size="10.00">&lt; ResetChip, fisch::vx</text>
<text text-anchor="middle" x="422.18" y="-7.5" font-family="Helvetica,sans-Serif" font-size="10.00">::word_access_type::ResetChip &gt;</text>
</a>
</g>
</g>
<!-- Node2&#45;&gt;Node1 -->
<g id="edge1" class="edge">
<title>Node2&#45;&gt;Node1</title>
<path fill="none" stroke="midnightblue" d="M515,-28.5C524.05,-28.5 533.07,-28.5 541.69,-28.5"/>
<polygon fill="midnightblue" stroke="midnightblue" points="514.79,-25 504.79,-28.5 514.79,-32 514.79,-25"/>
</g>
<!-- Node3 -->
<g id="node3" class="node">
<title>Node3</title>
<g id="a_node3"><a xlink:href="structhaldls_1_1vx_1_1detail_1_1_backend_container_base.html" target="_top" xlink:title="Backend container trait base.">
<polygon fill="white" stroke="black" points="0,-0.5 0,-56.5 199.66,-56.5 199.66,-0.5 0,-0.5"/>
<text text-anchor="start" x="8" y="-43.5" font-family="Helvetica,sans-Serif" font-size="10.00">haldls::vx::detail</text>
<text text-anchor="start" x="8" y="-31.5" font-family="Helvetica,sans-Serif" font-size="10.00">::BackendContainerBase</text>
<text text-anchor="start" x="8" y="-19.5" font-family="Helvetica,sans-Serif" font-size="10.00">&lt; ContainerT, DefaultBackend</text>
<text text-anchor="middle" x="99.83" y="-7.5" font-family="Helvetica,sans-Serif" font-size="10.00">Container, AdditionalBackendContainer &gt;</text>
</a>
</g>
</g>
<!-- Node3&#45;&gt;Node2 -->
<g id="edge2" class="edge">
<title>Node3&#45;&gt;Node2</title>
<path fill="none" stroke="orange" stroke-dasharray="5,2" d="M210.08,-28.5C252.44,-28.5 300.11,-28.5 339.41,-28.5"/>
<polygon fill="orange" stroke="orange" points="210,-25 200,-28.5 210,-32 210,-25"/>
<text text-anchor="start" x="217.66" y="-55.5" font-family="Helvetica,sans-Serif" font-size="10.00"> &lt; ResetChip, fisch</text>
<text text-anchor="start" x="217.66" y="-43.5" font-family="Helvetica,sans-Serif" font-size="10.00">::vx::word_access_type</text>
<text text-anchor="middle" x="269.62" y="-31.5" font-family="Helvetica,sans-Serif" font-size="10.00">::ResetChip &gt;</text>
</g>
</g>
</svg>
