<?xml version="1.0" encoding="UTF-8" standalone="no"?>
<!DOCTYPE svg PUBLIC "-//W3C//DTD SVG 1.1//EN"
 "http://www.w3.org/Graphics/SVG/1.1/DTD/svg11.dtd">
<!-- Generated by graphviz version 2.46.0 (0)
 -->
<!-- Title: haldls::vx::CommonNeuronBackendConfig::WaitGlobalPostPulse Pages: 1 -->
<svg width="191pt" height="122pt"
 viewBox="0.00 0.00 191.26 122.00" xmlns="http://www.w3.org/2000/svg" xmlns:xlink="http://www.w3.org/1999/xlink">
<g id="graph0" class="graph" transform="scale(1 1) rotate(0) translate(4 118)">
<title>haldls::vx::CommonNeuronBackendConfig::WaitGlobalPostPulse</title>
<polygon fill="white" stroke="transparent" points="-4,4 -4,-118 187.26,-118 187.26,4 -4,4"/>
<!-- Node1 -->
<g id="node1" class="node">
<title>Node1</title>
<g id="a_node1"><a xlink:title="Duration of the pulse triggering global post pulses for all neurons connected to that backend block.">
<polygon fill="#bfbfbf" stroke="black" points="0,-0.5 0,-32.5 183.26,-32.5 183.26,-0.5 0,-0.5"/>
<text text-anchor="start" x="8" y="-19.5" font-family="Helvetica,sans-Serif" font-size="10.00">haldls::vx::CommonNeuron</text>
<text text-anchor="middle" x="91.63" y="-7.5" font-family="Helvetica,sans-Serif" font-size="10.00">BackendConfig::WaitGlobalPostPulse</text>
</a>
</g>
</g>
<!-- Node2 -->
<g id="node2" class="node">
<title>Node2</title>
<g id="a_node2"><a xlink:title=" ">
<polygon fill="white" stroke="#bfbfbf" points="12.37,-69.5 12.37,-113.5 170.89,-113.5 170.89,-69.5 12.37,-69.5"/>
<text text-anchor="start" x="20.37" y="-100.5" font-family="Helvetica,sans-Serif" font-size="10.00">halco::common::detail</text>
<text text-anchor="start" x="20.37" y="-88.5" font-family="Helvetica,sans-Serif" font-size="10.00">::RantWrapper&lt; WaitGlobalPost</text>
<text text-anchor="middle" x="91.63" y="-76.5" font-family="Helvetica,sans-Serif" font-size="10.00">Pulse, uint_fast16_t, 255, 0 &gt;</text>
</a>
</g>
</g>
<!-- Node2&#45;&gt;Node1 -->
<g id="edge1" class="edge">
<title>Node2&#45;&gt;Node1</title>
<path fill="none" stroke="midnightblue" d="M91.63,-59.26C91.63,-50 91.63,-40.27 91.63,-32.54"/>
<polygon fill="midnightblue" stroke="midnightblue" points="88.13,-59.39 91.63,-69.39 95.13,-59.39 88.13,-59.39"/>
</g>
</g>
</svg>
