<?xml version="1.0" encoding="UTF-8" standalone="no"?>
<!DOCTYPE svg PUBLIC "-//W3C//DTD SVG 1.1//EN"
 "http://www.w3.org/Graphics/SVG/1.1/DTD/svg11.dtd">
<!-- Generated by graphviz version 2.46.0 (0)
 -->
<!-- Title: haldls::vx::CADCConfig::DeadTime Pages: 1 -->
<svg width="147pt" height="122pt"
 viewBox="0.00 0.00 146.52 122.00" xmlns="http://www.w3.org/2000/svg" xmlns:xlink="http://www.w3.org/1999/xlink">
<g id="graph0" class="graph" transform="scale(1 1) rotate(0) translate(4 118)">
<title>haldls::vx::CADCConfig::DeadTime</title>
<polygon fill="white" stroke="transparent" points="-4,4 -4,-118 142.52,-118 142.52,4 -4,4"/>
<!-- Node1 -->
<g id="node1" class="node">
<title>Node1</title>
<g id="a_node1"><a xlink:title="Dead time in cycles after linear ramp increase to wait for signal propagation to every channel to pre...">
<polygon fill="#bfbfbf" stroke="black" points="9.03,-0.5 9.03,-32.5 129.48,-32.5 129.48,-0.5 9.03,-0.5"/>
<text text-anchor="start" x="17.03" y="-19.5" font-family="Helvetica,sans-Serif" font-size="10.00">haldls::vx::CADCConfig</text>
<text text-anchor="middle" x="69.26" y="-7.5" font-family="Helvetica,sans-Serif" font-size="10.00">::DeadTime</text>
</a>
</g>
</g>
<!-- Node2 -->
<g id="node2" class="node">
<title>Node2</title>
<g id="a_node2"><a xlink:title=" ">
<polygon fill="white" stroke="#bfbfbf" points="0,-69.5 0,-113.5 138.52,-113.5 138.52,-69.5 0,-69.5"/>
<text text-anchor="start" x="8" y="-100.5" font-family="Helvetica,sans-Serif" font-size="10.00">halco::common::detail</text>
<text text-anchor="start" x="8" y="-88.5" font-family="Helvetica,sans-Serif" font-size="10.00">::RantWrapper&lt; DeadTime,</text>
<text text-anchor="middle" x="69.26" y="-76.5" font-family="Helvetica,sans-Serif" font-size="10.00"> uint_fast16_t, 255, 0 &gt;</text>
</a>
</g>
</g>
<!-- Node2&#45;&gt;Node1 -->
<g id="edge1" class="edge">
<title>Node2&#45;&gt;Node1</title>
<path fill="none" stroke="midnightblue" d="M69.26,-59.26C69.26,-50 69.26,-40.27 69.26,-32.54"/>
<polygon fill="midnightblue" stroke="midnightblue" points="65.76,-59.39 69.26,-69.39 72.76,-59.39 65.76,-59.39"/>
</g>
</g>
</svg>
