<?xml version="1.0" encoding="UTF-8" standalone="no"?>
<!DOCTYPE svg PUBLIC "-//W3C//DTD SVG 1.1//EN"
 "http://www.w3.org/Graphics/SVG/1.1/DTD/svg11.dtd">
<!-- Generated by graphviz version 2.46.0 (0)
 -->
<!-- Title: haldls::vx::JTAGClockScaler::Value Pages: 1 -->
<svg width="318pt" height="89pt"
 viewBox="0.00 0.00 318.25 89.00" xmlns="http://www.w3.org/2000/svg" xmlns:xlink="http://www.w3.org/1999/xlink">
<g id="graph0" class="graph" transform="scale(1 1) rotate(0) translate(4 85)">
<title>haldls::vx::JTAGClockScaler::Value</title>
<polygon fill="white" stroke="transparent" points="-4,4 -4,-85 314.25,-85 314.25,4 -4,4"/>
<!-- Node1 -->
<g id="node1" class="node">
<title>Node1</title>
<g id="a_node1"><a xlink:title="Clock&#45;scaler value type.">
<polygon fill="#bfbfbf" stroke="black" points="168.13,-24.5 168.13,-56.5 310.25,-56.5 310.25,-24.5 168.13,-24.5"/>
<text text-anchor="start" x="176.13" y="-43.5" font-family="Helvetica,sans-Serif" font-size="10.00">haldls::vx::JTAGClockScaler</text>
<text text-anchor="middle" x="239.19" y="-31.5" font-family="Helvetica,sans-Serif" font-size="10.00">::Value</text>
</a>
</g>
</g>
<!-- Node2 -->
<g id="node2" class="node">
<title>Node2</title>
<g id="a_node2"><a xlink:title=" ">
<polygon fill="white" stroke="#bfbfbf" points="0,-0.5 0,-80.5 132.13,-80.5 132.13,-0.5 0,-0.5"/>
<text text-anchor="start" x="8" y="-67.5" font-family="Helvetica,sans-Serif" font-size="10.00">halco::common::detail</text>
<text text-anchor="start" x="8" y="-55.5" font-family="Helvetica,sans-Serif" font-size="10.00">::RantWrapper&lt; Value,</text>
<text text-anchor="start" x="8" y="-43.5" font-family="Helvetica,sans-Serif" font-size="10.00"> uint_fast16_t, fisch</text>
<text text-anchor="start" x="8" y="-31.5" font-family="Helvetica,sans-Serif" font-size="10.00">::vx::jtag_clock_scaler</text>
<text text-anchor="start" x="8" y="-19.5" font-family="Helvetica,sans-Serif" font-size="10.00">_max, fisch::vx::jtag_clock</text>
<text text-anchor="middle" x="66.07" y="-7.5" font-family="Helvetica,sans-Serif" font-size="10.00">_scaler_min &gt;</text>
</a>
</g>
</g>
<!-- Node2&#45;&gt;Node1 -->
<g id="edge1" class="edge">
<title>Node2&#45;&gt;Node1</title>
<path fill="none" stroke="midnightblue" d="M142.52,-40.5C151.01,-40.5 159.64,-40.5 168.06,-40.5"/>
<polygon fill="midnightblue" stroke="midnightblue" points="142.25,-37 132.25,-40.5 142.25,-44 142.25,-37"/>
</g>
</g>
</svg>
