<?xml version="1.0" encoding="UTF-8" standalone="no"?>
<!DOCTYPE svg PUBLIC "-//W3C//DTD SVG 1.1//EN"
 "http://www.w3.org/Graphics/SVG/1.1/DTD/svg11.dtd">
<!-- Generated by graphviz version 2.46.0 (0)
 -->
<!-- Title: haldls::vx::detail::BackendContainerTrait&lt; CommonSTPConfig &gt; Pages: 1 -->
<svg width="1393pt" height="112pt"
 viewBox="0.00 0.00 1393.26 111.50" xmlns="http://www.w3.org/2000/svg" xmlns:xlink="http://www.w3.org/1999/xlink">
<g id="graph0" class="graph" transform="scale(1 1) rotate(0) translate(4 107.5)">
<title>haldls::vx::detail::BackendContainerTrait&lt; CommonSTPConfig &gt;</title>
<polygon fill="white" stroke="transparent" points="-4,4 -4,-107.5 1389.26,-107.5 1389.26,4 -4,4"/>
<!-- Node1 -->
<g id="node1" class="node">
<title>Node1</title>
<g id="a_node1"><a xlink:title=" ">
<polygon fill="#bfbfbf" stroke="black" points="1261.46,-38.5 1261.46,-82.5 1385.26,-82.5 1385.26,-38.5 1261.46,-38.5"/>
<text text-anchor="start" x="1269.46" y="-69.5" font-family="Helvetica,sans-Serif" font-size="10.00">haldls::vx::detail</text>
<text text-anchor="start" x="1269.46" y="-57.5" font-family="Helvetica,sans-Serif" font-size="10.00">::BackendContainerTrait</text>
<text text-anchor="middle" x="1323.36" y="-45.5" font-family="Helvetica,sans-Serif" font-size="10.00">&lt; CommonSTPConfig &gt;</text>
</a>
</g>
</g>
<!-- Node2 -->
<g id="node2" class="node">
<title>Node2</title>
<g id="a_node2"><a xlink:href="structhaldls_1_1vx_1_1detail_1_1_backend_container_base.html" target="_top" xlink:title=" ">
<polygon fill="white" stroke="black" points="1025.37,-20.5 1025.37,-100.5 1224.46,-100.5 1224.46,-20.5 1025.37,-20.5"/>
<text text-anchor="start" x="1033.37" y="-87.5" font-family="Helvetica,sans-Serif" font-size="10.00">haldls::vx::detail</text>
<text text-anchor="start" x="1033.37" y="-75.5" font-family="Helvetica,sans-Serif" font-size="10.00">::BackendContainerBase</text>
<text text-anchor="start" x="1033.37" y="-63.5" font-family="Helvetica,sans-Serif" font-size="10.00">&lt; CommonSTPConfig, fisch</text>
<text text-anchor="start" x="1033.37" y="-51.5" font-family="Helvetica,sans-Serif" font-size="10.00">::vx::word_access_type::</text>
<text text-anchor="start" x="1033.37" y="-39.5" font-family="Helvetica,sans-Serif" font-size="10.00">Omnibus, fisch::vx::word</text>
<text text-anchor="middle" x="1124.92" y="-27.5" font-family="Helvetica,sans-Serif" font-size="10.00">_access_type::OmnibusChipOverJTAG &gt;</text>
</a>
</g>
</g>
<!-- Node2&#45;&gt;Node1 -->
<g id="edge1" class="edge">
<title>Node2&#45;&gt;Node1</title>
<path fill="none" stroke="midnightblue" d="M1234.96,-60.5C1244.01,-60.5 1252.93,-60.5 1261.42,-60.5"/>
<polygon fill="midnightblue" stroke="midnightblue" points="1234.72,-57 1224.72,-60.5 1234.72,-64 1234.72,-57"/>
</g>
<!-- Node3 -->
<g id="node3" class="node">
<title>Node3</title>
<g id="a_node3"><a xlink:title=" ">
<polygon fill="white" stroke="#bfbfbf" points="378.18,-41.5 378.18,-85.5 517.54,-85.5 517.54,-41.5 378.18,-41.5"/>
<text text-anchor="start" x="386.18" y="-72.5" font-family="Helvetica,sans-Serif" font-size="10.00">std::array&lt; Backend,</text>
<text text-anchor="start" x="386.18" y="-60.5" font-family="Helvetica,sans-Serif" font-size="10.00"> sizeof...(AdditionalBackend</text>
<text text-anchor="middle" x="447.86" y="-48.5" font-family="Helvetica,sans-Serif" font-size="10.00">Container)+1 &gt;</text>
</a>
</g>
</g>
<!-- Node3&#45;&gt;Node2 -->
<g id="edge2" class="edge">
<title>Node3&#45;&gt;Node2</title>
<path fill="none" stroke="#9a32cd" stroke-dasharray="5,2" d="M528.05,-73.38C636.49,-85.34 837.17,-101.84 1007.37,-84.5 1013.23,-83.9 1019.23,-83.14 1025.26,-82.26"/>
<polygon fill="#9a32cd" stroke="#9a32cd" points="528.17,-69.87 517.84,-72.24 527.39,-76.83 528.17,-69.87"/>
<text text-anchor="middle" x="725.07" y="-94.5" font-family="Helvetica,sans-Serif" font-size="10.00"> valid_backends</text>
</g>
<!-- Node6 -->
<g id="node6" class="node">
<title>Node6</title>
<g id="a_node6"><a xlink:href="structhaldls_1_1vx_1_1detail_1_1_backend_container_base.html" target="_top" xlink:title="Backend container trait base.">
<polygon fill="white" stroke="black" points="625.23,-0.5 625.23,-56.5 824.9,-56.5 824.9,-0.5 625.23,-0.5"/>
<text text-anchor="start" x="633.23" y="-43.5" font-family="Helvetica,sans-Serif" font-size="10.00">haldls::vx::detail</text>
<text text-anchor="start" x="633.23" y="-31.5" font-family="Helvetica,sans-Serif" font-size="10.00">::BackendContainerBase</text>
<text text-anchor="start" x="633.23" y="-19.5" font-family="Helvetica,sans-Serif" font-size="10.00">&lt; ContainerT, DefaultBackend</text>
<text text-anchor="middle" x="725.07" y="-7.5" font-family="Helvetica,sans-Serif" font-size="10.00">Container, AdditionalBackendContainer &gt;</text>
</a>
</g>
</g>
<!-- Node3&#45;&gt;Node6 -->
<g id="edge6" class="edge">
<title>Node3&#45;&gt;Node6</title>
<path fill="none" stroke="#9a32cd" stroke-dasharray="5,2" d="M527.7,-53.47C558.03,-49.62 593.07,-45.16 625.07,-41.09"/>
<polygon fill="#9a32cd" stroke="#9a32cd" points="527.08,-50.02 517.6,-54.76 527.96,-56.97 527.08,-50.02"/>
<text text-anchor="middle" x="571.39" y="-55.5" font-family="Helvetica,sans-Serif" font-size="10.00"> valid_backends</text>
</g>
<!-- Node4 -->
<g id="node4" class="node">
<title>Node4</title>
<g id="a_node4"><a xlink:title=" ">
<polygon fill="white" stroke="#bfbfbf" points="108.34,-53.5 108.34,-73.5 189.36,-73.5 189.36,-53.5 108.34,-53.5"/>
<text text-anchor="middle" x="148.85" y="-60.5" font-family="Helvetica,sans-Serif" font-size="10.00">std::array&lt; T &gt;</text>
</a>
</g>
</g>
<!-- Node4&#45;&gt;Node3 -->
<g id="edge3" class="edge">
<title>Node4&#45;&gt;Node3</title>
<path fill="none" stroke="orange" stroke-dasharray="5,2" d="M199.62,-63.5C248.5,-63.5 323.49,-63.5 378.06,-63.5"/>
<polygon fill="orange" stroke="orange" points="199.6,-60 189.6,-63.5 199.6,-67 199.6,-60"/>
<text text-anchor="start" x="207.36" y="-78.5" font-family="Helvetica,sans-Serif" font-size="10.00"> &lt; Backend, sizeof...</text>
<text text-anchor="middle" x="283.77" y="-66.5" font-family="Helvetica,sans-Serif" font-size="10.00">(AdditionalBackendContainer)+1 &gt;</text>
</g>
<!-- Node5 -->
<g id="node5" class="node">
<title>Node5</title>
<g id="a_node5"><a xlink:title=" ">
<polygon fill="white" stroke="#bfbfbf" points="0,-53.5 0,-73.5 29,-73.5 29,-53.5 0,-53.5"/>
<text text-anchor="middle" x="14.5" y="-60.5" font-family="Helvetica,sans-Serif" font-size="10.00">T</text>
</a>
</g>
</g>
<!-- Node5&#45;&gt;Node4 -->
<g id="edge4" class="edge">
<title>Node5&#45;&gt;Node4</title>
<path fill="none" stroke="#9a32cd" stroke-dasharray="5,2" d="M39.4,-63.5C58.55,-63.5 85.82,-63.5 108.22,-63.5"/>
<polygon fill="#9a32cd" stroke="#9a32cd" points="39.17,-60 29.17,-63.5 39.17,-67 39.17,-60"/>
<text text-anchor="middle" x="68.67" y="-66.5" font-family="Helvetica,sans-Serif" font-size="10.00"> elements</text>
</g>
<!-- Node6&#45;&gt;Node2 -->
<g id="edge5" class="edge">
<title>Node6&#45;&gt;Node2</title>
<path fill="none" stroke="orange" stroke-dasharray="5,2" d="M835.52,-18.67C887.81,-16.07 951.11,-16.01 1007.37,-24.5 1013.24,-25.38 1019.21,-26.51 1025.2,-27.8"/>
<polygon fill="orange" stroke="orange" points="835.02,-15.19 825.22,-19.22 835.39,-22.18 835.02,-15.19"/>
<text text-anchor="start" x="842.9" y="-75.5" font-family="Helvetica,sans-Serif" font-size="10.00"> &lt; CommonSTPConfig,</text>
<text text-anchor="start" x="842.9" y="-63.5" font-family="Helvetica,sans-Serif" font-size="10.00"> fisch::vx::word_access</text>
<text text-anchor="start" x="842.9" y="-51.5" font-family="Helvetica,sans-Serif" font-size="10.00">_type::Omnibus, fisch::</text>
<text text-anchor="start" x="842.9" y="-39.5" font-family="Helvetica,sans-Serif" font-size="10.00">vx::word_access_type::OmnibusChip</text>
<text text-anchor="middle" x="925.13" y="-27.5" font-family="Helvetica,sans-Serif" font-size="10.00">OverJTAG &gt;</text>
</g>
</g>
</svg>
