<?xml version="1.0" encoding="UTF-8" standalone="no"?>
<!DOCTYPE svg PUBLIC "-//W3C//DTD SVG 1.1//EN"
 "http://www.w3.org/Graphics/SVG/1.1/DTD/svg11.dtd">
<!-- Generated by graphviz version 2.46.0 (0)
 -->
<!-- Title: haldls::vx::CapMemBlockConfig&lt; Coordinates &gt;::PrescalePause Pages: 1 -->
<svg width="168pt" height="122pt"
 viewBox="0.00 0.00 167.93 122.00" xmlns="http://www.w3.org/2000/svg" xmlns:xlink="http://www.w3.org/1999/xlink">
<g id="graph0" class="graph" transform="scale(1 1) rotate(0) translate(4 118)">
<title>haldls::vx::CapMemBlockConfig&lt; Coordinates &gt;::PrescalePause</title>
<polygon fill="white" stroke="transparent" points="-4,4 -4,-118 163.93,-118 163.93,4 -4,4"/>
<!-- Node1 -->
<g id="node1" class="node">
<title>Node1</title>
<g id="a_node1"><a xlink:title=" ">
<polygon fill="#bfbfbf" stroke="black" points="0,-0.5 0,-32.5 159.93,-32.5 159.93,-0.5 0,-0.5"/>
<text text-anchor="start" x="8" y="-19.5" font-family="Helvetica,sans-Serif" font-size="10.00">haldls::vx::CapMemBlockConfig</text>
<text text-anchor="middle" x="79.97" y="-7.5" font-family="Helvetica,sans-Serif" font-size="10.00">&lt; Coordinates &gt;::PrescalePause</text>
</a>
</g>
</g>
<!-- Node2 -->
<g id="node2" class="node">
<title>Node2</title>
<g id="a_node2"><a xlink:title=" ">
<polygon fill="white" stroke="#bfbfbf" points="0.15,-69.5 0.15,-113.5 159.79,-113.5 159.79,-69.5 0.15,-69.5"/>
<text text-anchor="start" x="8.15" y="-100.5" font-family="Helvetica,sans-Serif" font-size="10.00">halco::common::detail</text>
<text text-anchor="start" x="8.15" y="-88.5" font-family="Helvetica,sans-Serif" font-size="10.00">::RantWrapper&lt; PrescalePause,</text>
<text text-anchor="middle" x="79.97" y="-76.5" font-family="Helvetica,sans-Serif" font-size="10.00"> uint_fast16_t, 6, 0 &gt;</text>
</a>
</g>
</g>
<!-- Node2&#45;&gt;Node1 -->
<g id="edge1" class="edge">
<title>Node2&#45;&gt;Node1</title>
<path fill="none" stroke="midnightblue" d="M79.97,-59.26C79.97,-50 79.97,-40.27 79.97,-32.54"/>
<polygon fill="midnightblue" stroke="midnightblue" points="76.47,-59.39 79.97,-69.39 83.47,-59.39 76.47,-59.39"/>
</g>
</g>
</svg>
