<?xml version="1.0" encoding="UTF-8" standalone="no"?>
<!DOCTYPE svg PUBLIC "-//W3C//DTD SVG 1.1//EN"
 "http://www.w3.org/Graphics/SVG/1.1/DTD/svg11.dtd">
<!-- Generated by graphviz version 2.46.0 (0)
 -->
<!-- Title: haldls::vx::MADCConfig::MADCClockScaleValue Pages: 1 -->
<svg width="340pt" height="53pt"
 viewBox="0.00 0.00 339.63 53.00" xmlns="http://www.w3.org/2000/svg" xmlns:xlink="http://www.w3.org/1999/xlink">
<g id="graph0" class="graph" transform="scale(1 1) rotate(0) translate(4 49)">
<title>haldls::vx::MADCConfig::MADCClockScaleValue</title>
<polygon fill="white" stroke="transparent" points="-4,4 -4,-49 335.63,-49 335.63,4 -4,4"/>
<!-- Node1 -->
<g id="node1" class="node">
<title>Node1</title>
<g id="a_node1"><a xlink:title=" ">
<polygon fill="#bfbfbf" stroke="black" points="205.06,-6.5 205.06,-38.5 331.63,-38.5 331.63,-6.5 205.06,-6.5"/>
<text text-anchor="start" x="213.06" y="-25.5" font-family="Helvetica,sans-Serif" font-size="10.00">haldls::vx::MADCConfig</text>
<text text-anchor="middle" x="268.34" y="-13.5" font-family="Helvetica,sans-Serif" font-size="10.00">::MADCClockScaleValue</text>
</a>
</g>
</g>
<!-- Node2 -->
<g id="node2" class="node">
<title>Node2</title>
<g id="a_node2"><a xlink:title=" ">
<polygon fill="white" stroke="#bfbfbf" points="0,-0.5 0,-44.5 169.06,-44.5 169.06,-0.5 0,-0.5"/>
<text text-anchor="start" x="8" y="-31.5" font-family="Helvetica,sans-Serif" font-size="10.00">halco::common::detail</text>
<text text-anchor="start" x="8" y="-19.5" font-family="Helvetica,sans-Serif" font-size="10.00">::RantWrapper&lt; MADCClockScale</text>
<text text-anchor="middle" x="84.53" y="-7.5" font-family="Helvetica,sans-Serif" font-size="10.00">Value, uint_fast16_t, 4095, 0 &gt;</text>
</a>
</g>
</g>
<!-- Node2&#45;&gt;Node1 -->
<g id="edge1" class="edge">
<title>Node2&#45;&gt;Node1</title>
<path fill="none" stroke="midnightblue" d="M179.42,-22.5C188.08,-22.5 196.71,-22.5 204.98,-22.5"/>
<polygon fill="midnightblue" stroke="midnightblue" points="179.25,-19 169.25,-22.5 179.25,-26 179.25,-19"/>
</g>
</g>
</svg>
