<?xml version="1.0" encoding="UTF-8" standalone="no"?>
<!DOCTYPE svg PUBLIC "-//W3C//DTD SVG 1.1//EN"
 "http://www.w3.org/Graphics/SVG/1.1/DTD/svg11.dtd">
<!-- Generated by graphviz version 2.46.0 (0)
 -->
<!-- Title: haldls::vx::PADIEvent::HagenAddress Pages: 1 -->
<svg width="167pt" height="122pt"
 viewBox="0.00 0.00 166.53 122.00" xmlns="http://www.w3.org/2000/svg" xmlns:xlink="http://www.w3.org/1999/xlink">
<g id="graph0" class="graph" transform="scale(1 1) rotate(0) translate(4 118)">
<title>haldls::vx::PADIEvent::HagenAddress</title>
<polygon fill="white" stroke="transparent" points="-4,4 -4,-118 162.53,-118 162.53,4 -4,4"/>
<!-- Node1 -->
<g id="node1" class="node">
<title>Node1</title>
<g id="a_node1"><a xlink:title="Address in Hagen&#45;mode.">
<polygon fill="#bfbfbf" stroke="black" points="23.2,-0.5 23.2,-32.5 135.33,-32.5 135.33,-0.5 23.2,-0.5"/>
<text text-anchor="start" x="31.2" y="-19.5" font-family="Helvetica,sans-Serif" font-size="10.00">haldls::vx::PADIEvent</text>
<text text-anchor="middle" x="79.27" y="-7.5" font-family="Helvetica,sans-Serif" font-size="10.00">::HagenAddress</text>
</a>
</g>
</g>
<!-- Node2 -->
<g id="node2" class="node">
<title>Node2</title>
<g id="a_node2"><a xlink:title=" ">
<polygon fill="white" stroke="#bfbfbf" points="0,-69.5 0,-113.5 158.53,-113.5 158.53,-69.5 0,-69.5"/>
<text text-anchor="start" x="8" y="-100.5" font-family="Helvetica,sans-Serif" font-size="10.00">halco::common::detail</text>
<text text-anchor="start" x="8" y="-88.5" font-family="Helvetica,sans-Serif" font-size="10.00">::RantWrapper&lt; HagenAddress,</text>
<text text-anchor="middle" x="79.27" y="-76.5" font-family="Helvetica,sans-Serif" font-size="10.00"> uint_fast16_t, 1, 0 &gt;</text>
</a>
</g>
</g>
<!-- Node2&#45;&gt;Node1 -->
<g id="edge1" class="edge">
<title>Node2&#45;&gt;Node1</title>
<path fill="none" stroke="midnightblue" d="M79.27,-59.26C79.27,-50 79.27,-40.27 79.27,-32.54"/>
<polygon fill="midnightblue" stroke="midnightblue" points="75.77,-59.39 79.27,-69.39 82.77,-59.39 75.77,-59.39"/>
</g>
</g>
</svg>
