<?xml version="1.0" encoding="UTF-8" standalone="no"?>
<!DOCTYPE svg PUBLIC "-//W3C//DTD SVG 1.1//EN"
 "http://www.w3.org/Graphics/SVG/1.1/DTD/svg11.dtd">
<!-- Generated by graphviz version 2.46.0 (0)
 -->
<!-- Title: haldls::vx::ADPLL::LoopDivN Pages: 1 -->
<svg width="144pt" height="122pt"
 viewBox="0.00 0.00 144.30 122.00" xmlns="http://www.w3.org/2000/svg" xmlns:xlink="http://www.w3.org/1999/xlink">
<g id="graph0" class="graph" transform="scale(1 1) rotate(0) translate(4 118)">
<title>haldls::vx::ADPLL::LoopDivN</title>
<polygon fill="white" stroke="transparent" points="-4,4 -4,-118 140.3,-118 140.3,4 -4,4"/>
<!-- Node1 -->
<g id="node1" class="node">
<title>Node1</title>
<g id="a_node1"><a xlink:title="Divider to set the frequency of the DCO f_dco (Together with PreDivP0).">
<polygon fill="#bfbfbf" stroke="black" points="17.92,-0.5 17.92,-32.5 118.38,-32.5 118.38,-0.5 17.92,-0.5"/>
<text text-anchor="start" x="25.92" y="-19.5" font-family="Helvetica,sans-Serif" font-size="10.00">haldls::vx::ADPLL::</text>
<text text-anchor="middle" x="68.15" y="-7.5" font-family="Helvetica,sans-Serif" font-size="10.00">LoopDivN</text>
</a>
</g>
</g>
<!-- Node2 -->
<g id="node2" class="node">
<title>Node2</title>
<g id="a_node2"><a xlink:title=" ">
<polygon fill="white" stroke="#bfbfbf" points="0,-69.5 0,-113.5 136.3,-113.5 136.3,-69.5 0,-69.5"/>
<text text-anchor="start" x="8" y="-100.5" font-family="Helvetica,sans-Serif" font-size="10.00">halco::common::detail</text>
<text text-anchor="start" x="8" y="-88.5" font-family="Helvetica,sans-Serif" font-size="10.00">::RantWrapper&lt; LoopDivN,</text>
<text text-anchor="middle" x="68.15" y="-76.5" font-family="Helvetica,sans-Serif" font-size="10.00"> uint_fast16_t, 31, 1 &gt;</text>
</a>
</g>
</g>
<!-- Node2&#45;&gt;Node1 -->
<g id="edge1" class="edge">
<title>Node2&#45;&gt;Node1</title>
<path fill="none" stroke="midnightblue" d="M68.15,-59.26C68.15,-50 68.15,-40.27 68.15,-32.54"/>
<polygon fill="midnightblue" stroke="midnightblue" points="64.65,-59.39 68.15,-69.39 71.65,-59.39 64.65,-59.39"/>
</g>
</g>
</svg>
