<?xml version="1.0" encoding="UTF-8" standalone="no"?>
<!DOCTYPE svg PUBLIC "-//W3C//DTD SVG 1.1//EN"
 "http://www.w3.org/Graphics/SVG/1.1/DTD/svg11.dtd">
<!-- Generated by graphviz version 2.46.0 (0)
 -->
<!-- Title: haldls::vx::detail::BackendContainerTrait&lt; CrossbarInputDropCounter &gt; Pages: 1 -->
<svg width="811pt" height="97pt"
 viewBox="0.00 0.00 811.37 96.50" xmlns="http://www.w3.org/2000/svg" xmlns:xlink="http://www.w3.org/1999/xlink">
<g id="graph0" class="graph" transform="scale(1 1) rotate(0) translate(4 92.5)">
<title>haldls::vx::detail::BackendContainerTrait&lt; CrossbarInputDropCounter &gt;</title>
<polygon fill="white" stroke="transparent" points="-4,4 -4,-92.5 807.37,-92.5 807.37,4 -4,4"/>
<!-- Node1 -->
<g id="node1" class="node">
<title>Node1</title>
<g id="a_node1"><a xlink:title=" ">
<polygon fill="#bfbfbf" stroke="black" points="650.12,-18.5 650.12,-62.5 803.37,-62.5 803.37,-18.5 650.12,-18.5"/>
<text text-anchor="start" x="658.12" y="-49.5" font-family="Helvetica,sans-Serif" font-size="10.00">haldls::vx::detail</text>
<text text-anchor="start" x="658.12" y="-37.5" font-family="Helvetica,sans-Serif" font-size="10.00">::BackendContainerTrait</text>
<text text-anchor="middle" x="726.74" y="-25.5" font-family="Helvetica,sans-Serif" font-size="10.00">&lt; CrossbarInputDropCounter &gt;</text>
</a>
</g>
</g>
<!-- Node2 -->
<g id="node2" class="node">
<title>Node2</title>
<g id="a_node2"><a xlink:href="structhaldls_1_1vx_1_1detail_1_1_backend_container_base.html" target="_top" xlink:title=" ">
<polygon fill="white" stroke="black" points="445.98,-0.5 445.98,-80.5 613.12,-80.5 613.12,-0.5 445.98,-0.5"/>
<text text-anchor="start" x="453.98" y="-67.5" font-family="Helvetica,sans-Serif" font-size="10.00">haldls::vx::detail</text>
<text text-anchor="start" x="453.98" y="-55.5" font-family="Helvetica,sans-Serif" font-size="10.00">::BackendContainerBase</text>
<text text-anchor="start" x="453.98" y="-43.5" font-family="Helvetica,sans-Serif" font-size="10.00">&lt; CrossbarInputDropCounter,</text>
<text text-anchor="start" x="453.98" y="-31.5" font-family="Helvetica,sans-Serif" font-size="10.00"> fisch::vx::word_access_type</text>
<text text-anchor="start" x="453.98" y="-19.5" font-family="Helvetica,sans-Serif" font-size="10.00">::Omnibus, fisch::vx::word_access</text>
<text text-anchor="middle" x="529.55" y="-7.5" font-family="Helvetica,sans-Serif" font-size="10.00">_type::OmnibusChipOverJTAG &gt;</text>
</a>
</g>
</g>
<!-- Node2&#45;&gt;Node1 -->
<g id="edge1" class="edge">
<title>Node2&#45;&gt;Node1</title>
<path fill="none" stroke="midnightblue" d="M623.36,-40.5C632.27,-40.5 641.24,-40.5 649.96,-40.5"/>
<polygon fill="midnightblue" stroke="midnightblue" points="623.33,-37 613.33,-40.5 623.33,-44 623.33,-37"/>
</g>
<!-- Node3 -->
<g id="node3" class="node">
<title>Node3</title>
<g id="a_node3"><a xlink:href="structhaldls_1_1vx_1_1detail_1_1_backend_container_base.html" target="_top" xlink:title="Backend container trait base.">
<polygon fill="white" stroke="black" points="0,-12.5 0,-68.5 199.66,-68.5 199.66,-12.5 0,-12.5"/>
<text text-anchor="start" x="8" y="-55.5" font-family="Helvetica,sans-Serif" font-size="10.00">haldls::vx::detail</text>
<text text-anchor="start" x="8" y="-43.5" font-family="Helvetica,sans-Serif" font-size="10.00">::BackendContainerBase</text>
<text text-anchor="start" x="8" y="-31.5" font-family="Helvetica,sans-Serif" font-size="10.00">&lt; ContainerT, DefaultBackend</text>
<text text-anchor="middle" x="99.83" y="-19.5" font-family="Helvetica,sans-Serif" font-size="10.00">Container, AdditionalBackendContainer &gt;</text>
</a>
</g>
</g>
<!-- Node3&#45;&gt;Node2 -->
<g id="edge2" class="edge">
<title>Node3&#45;&gt;Node2</title>
<path fill="none" stroke="orange" stroke-dasharray="5,2" d="M209.98,-40.5C283.44,-40.5 378.77,-40.5 445.94,-40.5"/>
<polygon fill="orange" stroke="orange" points="209.76,-37 199.76,-40.5 209.76,-44 209.76,-37"/>
<text text-anchor="start" x="217.66" y="-79.5" font-family="Helvetica,sans-Serif" font-size="10.00"> &lt; CrossbarInputDropCounter,</text>
<text text-anchor="start" x="217.66" y="-67.5" font-family="Helvetica,sans-Serif" font-size="10.00"> fisch::vx::word_access</text>
<text text-anchor="start" x="217.66" y="-55.5" font-family="Helvetica,sans-Serif" font-size="10.00">_type::Omnibus, fisch::vx</text>
<text text-anchor="middle" x="322.82" y="-43.5" font-family="Helvetica,sans-Serif" font-size="10.00">::word_access_type::OmnibusChipOverJTAG &gt;</text>
</g>
</g>
</svg>
