<?xml version="1.0" encoding="UTF-8" standalone="no"?>
<!DOCTYPE svg PUBLIC "-//W3C//DTD SVG 1.1//EN"
 "http://www.w3.org/Graphics/SVG/1.1/DTD/svg11.dtd">
<!-- Generated by graphviz version 2.46.0 (0)
 -->
<!-- Title: haldls::vx::PhyStatus::CRCErrorCount Pages: 1 -->
<svg width="157pt" height="122pt"
 viewBox="0.00 0.00 156.52 122.00" xmlns="http://www.w3.org/2000/svg" xmlns:xlink="http://www.w3.org/1999/xlink">
<g id="graph0" class="graph" transform="scale(1 1) rotate(0) translate(4 118)">
<title>haldls::vx::PhyStatus::CRCErrorCount</title>
<polygon fill="white" stroke="transparent" points="-4,4 -4,-118 152.52,-118 152.52,4 -4,4"/>
<!-- Node1 -->
<g id="node1" class="node">
<title>Node1</title>
<g id="a_node1"><a xlink:title="Number of CRC errors since last reset.">
<polygon fill="#bfbfbf" stroke="black" points="19.86,-0.5 19.86,-32.5 128.66,-32.5 128.66,-0.5 19.86,-0.5"/>
<text text-anchor="start" x="27.86" y="-19.5" font-family="Helvetica,sans-Serif" font-size="10.00">haldls::vx::PhyStatus</text>
<text text-anchor="middle" x="74.26" y="-7.5" font-family="Helvetica,sans-Serif" font-size="10.00">::CRCErrorCount</text>
</a>
</g>
</g>
<!-- Node2 -->
<g id="node2" class="node">
<title>Node2</title>
<g id="a_node2"><a xlink:title=" ">
<polygon fill="white" stroke="#bfbfbf" points="0,-69.5 0,-113.5 148.52,-113.5 148.52,-69.5 0,-69.5"/>
<text text-anchor="start" x="8" y="-100.5" font-family="Helvetica,sans-Serif" font-size="10.00">halco::common::detail</text>
<text text-anchor="start" x="8" y="-88.5" font-family="Helvetica,sans-Serif" font-size="10.00">::BaseType&lt; CRCErrorCount,</text>
<text text-anchor="middle" x="74.26" y="-76.5" font-family="Helvetica,sans-Serif" font-size="10.00"> uint32_t &gt;</text>
</a>
</g>
</g>
<!-- Node2&#45;&gt;Node1 -->
<g id="edge1" class="edge">
<title>Node2&#45;&gt;Node1</title>
<path fill="none" stroke="midnightblue" d="M74.26,-59.26C74.26,-50 74.26,-40.27 74.26,-32.54"/>
<polygon fill="midnightblue" stroke="midnightblue" points="70.76,-59.39 74.26,-69.39 77.76,-59.39 70.76,-59.39"/>
</g>
</g>
</svg>
