<?xml version="1.0" encoding="UTF-8" standalone="no"?>
<!DOCTYPE svg PUBLIC "-//W3C//DTD SVG 1.1//EN"
 "http://www.w3.org/Graphics/SVG/1.1/DTD/svg11.dtd">
<!-- Generated by graphviz version 2.46.0 (0)
 -->
<!-- Title: haldls::vx::CommonNeuronBackendConfig::WaitSpikeCounterReset Pages: 1 -->
<svg width="410pt" height="53pt"
 viewBox="0.00 0.00 410.23 53.00" xmlns="http://www.w3.org/2000/svg" xmlns:xlink="http://www.w3.org/1999/xlink">
<g id="graph0" class="graph" transform="scale(1 1) rotate(0) translate(4 49)">
<title>haldls::vx::CommonNeuronBackendConfig::WaitSpikeCounterReset</title>
<polygon fill="white" stroke="transparent" points="-4,4 -4,-49 406.23,-49 406.23,4 -4,4"/>
<!-- Node1 -->
<g id="node1" class="node">
<title>Node1</title>
<g id="a_node1"><a xlink:title="Duration of the pulse triggering spike counter resets.">
<polygon fill="#bfbfbf" stroke="black" points="206.19,-6.5 206.19,-38.5 402.23,-38.5 402.23,-6.5 206.19,-6.5"/>
<text text-anchor="start" x="214.19" y="-25.5" font-family="Helvetica,sans-Serif" font-size="10.00">haldls::vx::CommonNeuron</text>
<text text-anchor="middle" x="304.21" y="-13.5" font-family="Helvetica,sans-Serif" font-size="10.00">BackendConfig::WaitSpikeCounterReset</text>
</a>
</g>
</g>
<!-- Node2 -->
<g id="node2" class="node">
<title>Node2</title>
<g id="a_node2"><a xlink:title=" ">
<polygon fill="white" stroke="#bfbfbf" points="0,-0.5 0,-44.5 170.19,-44.5 170.19,-0.5 0,-0.5"/>
<text text-anchor="start" x="8" y="-31.5" font-family="Helvetica,sans-Serif" font-size="10.00">halco::common::detail</text>
<text text-anchor="start" x="8" y="-19.5" font-family="Helvetica,sans-Serif" font-size="10.00">::RantWrapper&lt; WaitSpikeCounter</text>
<text text-anchor="middle" x="85.09" y="-7.5" font-family="Helvetica,sans-Serif" font-size="10.00">Reset, uint_fast16_t, 255, 0 &gt;</text>
</a>
</g>
</g>
<!-- Node2&#45;&gt;Node1 -->
<g id="edge1" class="edge">
<title>Node2&#45;&gt;Node1</title>
<path fill="none" stroke="midnightblue" d="M180.56,-22.5C189,-22.5 197.54,-22.5 206,-22.5"/>
<polygon fill="midnightblue" stroke="midnightblue" points="180.35,-19 170.35,-22.5 180.35,-26 180.35,-19"/>
</g>
</g>
</svg>
