<?xml version="1.0" encoding="UTF-8" standalone="no"?>
<!DOCTYPE svg PUBLIC "-//W3C//DTD SVG 1.1//EN"
 "http://www.w3.org/Graphics/SVG/1.1/DTD/svg11.dtd">
<!-- Generated by graphviz version 2.46.0 (0)
 -->
<!-- Title: haldls::vx::DACChannel::Value Pages: 1 -->
<svg width="299pt" height="77pt"
 viewBox="0.00 0.00 298.82 77.00" xmlns="http://www.w3.org/2000/svg" xmlns:xlink="http://www.w3.org/1999/xlink">
<g id="graph0" class="graph" transform="scale(1 1) rotate(0) translate(4 73)">
<title>haldls::vx::DACChannel::Value</title>
<polygon fill="white" stroke="transparent" points="-4,4 -4,-73 294.82,-73 294.82,4 -4,4"/>
<!-- Node1 -->
<g id="node1" class="node">
<title>Node1</title>
<g id="a_node1"><a xlink:title=" ">
<polygon fill="#bfbfbf" stroke="black" points="169.25,-18.5 169.25,-50.5 290.82,-50.5 290.82,-18.5 169.25,-18.5"/>
<text text-anchor="start" x="177.25" y="-37.5" font-family="Helvetica,sans-Serif" font-size="10.00">haldls::vx::DACChannel</text>
<text text-anchor="middle" x="230.04" y="-25.5" font-family="Helvetica,sans-Serif" font-size="10.00">::Value</text>
</a>
</g>
</g>
<!-- Node2 -->
<g id="node2" class="node">
<title>Node2</title>
<g id="a_node2"><a xlink:title=" ">
<polygon fill="white" stroke="#bfbfbf" points="0,-0.5 0,-68.5 133.25,-68.5 133.25,-0.5 0,-0.5"/>
<text text-anchor="start" x="8" y="-55.5" font-family="Helvetica,sans-Serif" font-size="10.00">halco::common::detail</text>
<text text-anchor="start" x="8" y="-43.5" font-family="Helvetica,sans-Serif" font-size="10.00">:: RantWrapper&lt; Value,</text>
<text text-anchor="start" x="8" y="-31.5" font-family="Helvetica,sans-Serif" font-size="10.00"> uint_fast32_t, fisch</text>
<text text-anchor="start" x="8" y="-19.5" font-family="Helvetica,sans-Serif" font-size="10.00">::vx::dac_value_max, fisch</text>
<text text-anchor="middle" x="66.63" y="-7.5" font-family="Helvetica,sans-Serif" font-size="10.00">::vx::dac_value_min &gt;</text>
</a>
</g>
</g>
<!-- Node2&#45;&gt;Node1 -->
<g id="edge1" class="edge">
<title>Node2&#45;&gt;Node1</title>
<path fill="none" stroke="midnightblue" d="M143.38,-34.5C152.03,-34.5 160.76,-34.5 169.16,-34.5"/>
<polygon fill="midnightblue" stroke="midnightblue" points="143.28,-31 133.28,-34.5 143.28,-38 143.28,-31"/>
</g>
</g>
</svg>
