<?xml version="1.0" encoding="UTF-8" standalone="no"?>
<!DOCTYPE svg PUBLIC "-//W3C//DTD SVG 1.1//EN"
 "http://www.w3.org/Graphics/SVG/1.1/DTD/svg11.dtd">
<!-- Generated by graphviz version 2.46.0 (0)
 -->
<!-- Title: haldls::vx::NeuronBackendConfig&lt; Coordinates &gt;::RefractoryTime Pages: 1 -->
<svg width="169pt" height="134pt"
 viewBox="0.00 0.00 168.73 134.00" xmlns="http://www.w3.org/2000/svg" xmlns:xlink="http://www.w3.org/1999/xlink">
<g id="graph0" class="graph" transform="scale(1 1) rotate(0) translate(4 130)">
<title>haldls::vx::NeuronBackendConfig&lt; Coordinates &gt;::RefractoryTime</title>
<polygon fill="white" stroke="transparent" points="-4,4 -4,-130 164.73,-130 164.73,4 -4,4"/>
<!-- Node1 -->
<g id="node1" class="node">
<title>Node1</title>
<g id="a_node1"><a xlink:title="The refractory time can be configured to be used for different applications (short and long) Refactor...">
<polygon fill="#bfbfbf" stroke="black" points="12.91,-0.5 12.91,-44.5 147.83,-44.5 147.83,-0.5 12.91,-0.5"/>
<text text-anchor="start" x="20.91" y="-31.5" font-family="Helvetica,sans-Serif" font-size="10.00">haldls::vx::NeuronBackend</text>
<text text-anchor="start" x="20.91" y="-19.5" font-family="Helvetica,sans-Serif" font-size="10.00">Config&lt; Coordinates &gt;::</text>
<text text-anchor="middle" x="80.37" y="-7.5" font-family="Helvetica,sans-Serif" font-size="10.00">RefractoryTime</text>
</a>
</g>
</g>
<!-- Node2 -->
<g id="node2" class="node">
<title>Node2</title>
<g id="a_node2"><a xlink:title=" ">
<polygon fill="white" stroke="#bfbfbf" points="0,-81.5 0,-125.5 160.73,-125.5 160.73,-81.5 0,-81.5"/>
<text text-anchor="start" x="8" y="-112.5" font-family="Helvetica,sans-Serif" font-size="10.00">halco::common::detail</text>
<text text-anchor="start" x="8" y="-100.5" font-family="Helvetica,sans-Serif" font-size="10.00">::RantWrapper&lt; RefractoryTime,</text>
<text text-anchor="middle" x="80.37" y="-88.5" font-family="Helvetica,sans-Serif" font-size="10.00"> uint_fast16_t, 255, 0 &gt;</text>
</a>
</g>
</g>
<!-- Node2&#45;&gt;Node1 -->
<g id="edge1" class="edge">
<title>Node2&#45;&gt;Node1</title>
<path fill="none" stroke="midnightblue" d="M80.37,-71.27C80.37,-62.37 80.37,-52.88 80.37,-44.73"/>
<polygon fill="midnightblue" stroke="midnightblue" points="76.87,-71.33 80.37,-81.33 83.87,-71.33 76.87,-71.33"/>
</g>
</g>
</svg>
