<?xml version="1.0" encoding="UTF-8" standalone="no"?>
<!DOCTYPE svg PUBLIC "-//W3C//DTD SVG 1.1//EN"
 "http://www.w3.org/Graphics/SVG/1.1/DTD/svg11.dtd">
<!-- Generated by graphviz version 2.46.0 (0)
 -->
<!-- Title: haldls::vx::detail::IsWriteable&lt; T, std::enable_if_t&lt; hate::is_in_type_list&lt; T, NonLeafNodeWriteableContainerList &gt;::value &gt; &gt; Pages: 1 -->
<svg width="204pt" height="134pt"
 viewBox="0.00 0.00 203.76 134.00" xmlns="http://www.w3.org/2000/svg" xmlns:xlink="http://www.w3.org/1999/xlink">
<g id="graph0" class="graph" transform="scale(1 1) rotate(0) translate(4 130)">
<title>haldls::vx::detail::IsWriteable&lt; T, std::enable_if_t&lt; hate::is_in_type_list&lt; T, NonLeafNodeWriteableContainerList &gt;::value &gt; &gt;</title>
<polygon fill="white" stroke="transparent" points="-4,4 -4,-130 199.76,-130 199.76,4 -4,4"/>
<!-- Node1 -->
<g id="node1" class="node">
<title>Node1</title>
<g id="a_node1"><a xlink:title=" ">
<polygon fill="#bfbfbf" stroke="black" points="0,-0.5 0,-68.5 195.76,-68.5 195.76,-0.5 0,-0.5"/>
<text text-anchor="start" x="8" y="-55.5" font-family="Helvetica,sans-Serif" font-size="10.00">haldls::vx::detail</text>
<text text-anchor="start" x="8" y="-43.5" font-family="Helvetica,sans-Serif" font-size="10.00">::IsWriteable&lt; T, std</text>
<text text-anchor="start" x="8" y="-31.5" font-family="Helvetica,sans-Serif" font-size="10.00">::enable_if_t&lt; hate::is</text>
<text text-anchor="start" x="8" y="-19.5" font-family="Helvetica,sans-Serif" font-size="10.00">_in_type_list&lt; T, NonLeafNodeWriteable</text>
<text text-anchor="middle" x="97.88" y="-7.5" font-family="Helvetica,sans-Serif" font-size="10.00">ContainerList &gt;::value &gt; &gt;</text>
</a>
</g>
</g>
<!-- Node2 -->
<g id="node2" class="node">
<title>Node2</title>
<g id="a_node2"><a xlink:title=" ">
<polygon fill="white" stroke="#bfbfbf" points="59.59,-105.5 59.59,-125.5 136.17,-125.5 136.17,-105.5 59.59,-105.5"/>
<text text-anchor="middle" x="97.88" y="-112.5" font-family="Helvetica,sans-Serif" font-size="10.00">std::true_type</text>
</a>
</g>
</g>
<!-- Node2&#45;&gt;Node1 -->
<g id="edge1" class="edge">
<title>Node2&#45;&gt;Node1</title>
<path fill="none" stroke="midnightblue" d="M97.88,-95.35C97.88,-87.35 97.88,-77.82 97.88,-68.73"/>
<polygon fill="midnightblue" stroke="midnightblue" points="94.38,-95.44 97.88,-105.44 101.38,-95.44 94.38,-95.44"/>
</g>
</g>
</svg>
