<?xml version="1.0" encoding="UTF-8" standalone="no"?>
<!DOCTYPE svg PUBLIC "-//W3C//DTD SVG 1.1//EN"
 "http://www.w3.org/Graphics/SVG/1.1/DTD/svg11.dtd">
<!-- Generated by graphviz version 2.46.0 (0)
 -->
<!-- Title: haldls::vx::ADPLL::LoopFilterProp Pages: 1 -->
<svg width="166pt" height="122pt"
 viewBox="0.00 0.00 165.97 122.00" xmlns="http://www.w3.org/2000/svg" xmlns:xlink="http://www.w3.org/1999/xlink">
<g id="graph0" class="graph" transform="scale(1 1) rotate(0) translate(4 118)">
<title>haldls::vx::ADPLL::LoopFilterProp</title>
<polygon fill="white" stroke="transparent" points="-4,4 -4,-118 161.97,-118 161.97,4 -4,4"/>
<!-- Node1 -->
<g id="node1" class="node">
<title>Node1</title>
<g id="a_node1"><a xlink:title="Proportional part of the PID controller for the DCO.">
<polygon fill="#bfbfbf" stroke="black" points="28.75,-0.5 28.75,-32.5 129.22,-32.5 129.22,-0.5 28.75,-0.5"/>
<text text-anchor="start" x="36.75" y="-19.5" font-family="Helvetica,sans-Serif" font-size="10.00">haldls::vx::ADPLL::</text>
<text text-anchor="middle" x="78.98" y="-7.5" font-family="Helvetica,sans-Serif" font-size="10.00">LoopFilterProp</text>
</a>
</g>
</g>
<!-- Node2 -->
<g id="node2" class="node">
<title>Node2</title>
<g id="a_node2"><a xlink:title=" ">
<polygon fill="white" stroke="#bfbfbf" points="0,-69.5 0,-113.5 157.97,-113.5 157.97,-69.5 0,-69.5"/>
<text text-anchor="start" x="8" y="-100.5" font-family="Helvetica,sans-Serif" font-size="10.00">halco::common::detail</text>
<text text-anchor="start" x="8" y="-88.5" font-family="Helvetica,sans-Serif" font-size="10.00">::RantWrapper&lt; LoopFilterProp,</text>
<text text-anchor="middle" x="78.98" y="-76.5" font-family="Helvetica,sans-Serif" font-size="10.00"> uint_fast16_t, 31, 1 &gt;</text>
</a>
</g>
</g>
<!-- Node2&#45;&gt;Node1 -->
<g id="edge1" class="edge">
<title>Node2&#45;&gt;Node1</title>
<path fill="none" stroke="midnightblue" d="M78.98,-59.26C78.98,-50 78.98,-40.27 78.98,-32.54"/>
<polygon fill="midnightblue" stroke="midnightblue" points="75.49,-59.39 78.98,-69.39 82.49,-59.39 75.49,-59.39"/>
</g>
</g>
</svg>
