<?xml version="1.0" encoding="UTF-8" standalone="no"?>
<!DOCTYPE svg PUBLIC "-//W3C//DTD SVG 1.1//EN"
 "http://www.w3.org/Graphics/SVG/1.1/DTD/svg11.dtd">
<!-- Generated by graphviz version 2.46.0 (0)
 -->
<!-- Title: haldls::vx::CapMemBlockConfig&lt; Coordinates &gt;::CurrentCellRes Pages: 1 -->
<svg width="169pt" height="122pt"
 viewBox="0.00 0.00 169.02 122.00" xmlns="http://www.w3.org/2000/svg" xmlns:xlink="http://www.w3.org/1999/xlink">
<g id="graph0" class="graph" transform="scale(1 1) rotate(0) translate(4 118)">
<title>haldls::vx::CapMemBlockConfig&lt; Coordinates &gt;::CurrentCellRes</title>
<polygon fill="white" stroke="transparent" points="-4,4 -4,-118 165.02,-118 165.02,4 -4,4"/>
<!-- Node1 -->
<g id="node1" class="node">
<title>Node1</title>
<g id="a_node1"><a xlink:title=" ">
<polygon fill="#bfbfbf" stroke="black" points="0,-0.5 0,-32.5 161.02,-32.5 161.02,-0.5 0,-0.5"/>
<text text-anchor="start" x="8" y="-19.5" font-family="Helvetica,sans-Serif" font-size="10.00">haldls::vx::CapMemBlockConfig</text>
<text text-anchor="middle" x="80.51" y="-7.5" font-family="Helvetica,sans-Serif" font-size="10.00">&lt; Coordinates &gt;::CurrentCellRes</text>
</a>
</g>
</g>
<!-- Node2 -->
<g id="node2" class="node">
<title>Node2</title>
<g id="a_node2"><a xlink:title=" ">
<polygon fill="white" stroke="#bfbfbf" points="0.14,-69.5 0.14,-113.5 160.88,-113.5 160.88,-69.5 0.14,-69.5"/>
<text text-anchor="start" x="8.14" y="-100.5" font-family="Helvetica,sans-Serif" font-size="10.00">halco::common::detail</text>
<text text-anchor="start" x="8.14" y="-88.5" font-family="Helvetica,sans-Serif" font-size="10.00">::RantWrapper&lt; CurrentCellRes,</text>
<text text-anchor="middle" x="80.51" y="-76.5" font-family="Helvetica,sans-Serif" font-size="10.00"> uint_fast16_t, 63, 0 &gt;</text>
</a>
</g>
</g>
<!-- Node2&#45;&gt;Node1 -->
<g id="edge1" class="edge">
<title>Node2&#45;&gt;Node1</title>
<path fill="none" stroke="midnightblue" d="M80.51,-59.26C80.51,-50 80.51,-40.27 80.51,-32.54"/>
<polygon fill="midnightblue" stroke="midnightblue" points="77.01,-59.39 80.51,-69.39 84.01,-59.39 77.01,-59.39"/>
</g>
</g>
</svg>
