<?xml version="1.0" encoding="UTF-8" standalone="no"?>
<!DOCTYPE svg PUBLIC "-//W3C//DTD SVG 1.1//EN"
 "http://www.w3.org/Graphics/SVG/1.1/DTD/svg11.dtd">
<!-- Generated by graphviz version 2.46.0 (0)
 -->
<!-- Title: haldls::vx::SpikeCounterRead::Count Pages: 1 -->
<svg width="132pt" height="122pt"
 viewBox="0.00 0.00 131.80 122.00" xmlns="http://www.w3.org/2000/svg" xmlns:xlink="http://www.w3.org/1999/xlink">
<g id="graph0" class="graph" transform="scale(1 1) rotate(0) translate(4 118)">
<title>haldls::vx::SpikeCounterRead::Count</title>
<polygon fill="white" stroke="transparent" points="-4,4 -4,-118 127.8,-118 127.8,4 -4,4"/>
<!-- Node1 -->
<g id="node1" class="node">
<title>Node1</title>
<g id="a_node1"><a xlink:title="Count of rate counter.">
<polygon fill="#bfbfbf" stroke="black" points="0,-0.5 0,-32.5 123.8,-32.5 123.8,-0.5 0,-0.5"/>
<text text-anchor="start" x="8" y="-19.5" font-family="Helvetica,sans-Serif" font-size="10.00">haldls::vx::SpikeCounter</text>
<text text-anchor="middle" x="61.9" y="-7.5" font-family="Helvetica,sans-Serif" font-size="10.00">Read::Count</text>
</a>
</g>
</g>
<!-- Node2 -->
<g id="node2" class="node">
<title>Node2</title>
<g id="a_node2"><a xlink:title=" ">
<polygon fill="white" stroke="#bfbfbf" points="2.36,-69.5 2.36,-113.5 121.44,-113.5 121.44,-69.5 2.36,-69.5"/>
<text text-anchor="start" x="10.36" y="-100.5" font-family="Helvetica,sans-Serif" font-size="10.00">halco::common::detail</text>
<text text-anchor="start" x="10.36" y="-88.5" font-family="Helvetica,sans-Serif" font-size="10.00">::RantWrapper&lt; Count,</text>
<text text-anchor="middle" x="61.9" y="-76.5" font-family="Helvetica,sans-Serif" font-size="10.00"> uint_fast16_t, 255, 0 &gt;</text>
</a>
</g>
</g>
<!-- Node2&#45;&gt;Node1 -->
<g id="edge1" class="edge">
<title>Node2&#45;&gt;Node1</title>
<path fill="none" stroke="midnightblue" d="M61.9,-59.26C61.9,-50 61.9,-40.27 61.9,-32.54"/>
<polygon fill="midnightblue" stroke="midnightblue" points="58.4,-59.39 61.9,-69.39 65.4,-59.39 58.4,-59.39"/>
</g>
</g>
</svg>
