<?xml version="1.0" encoding="UTF-8" standalone="no"?>
<!DOCTYPE svg PUBLIC "-//W3C//DTD SVG 1.1//EN"
 "http://www.w3.org/Graphics/SVG/1.1/DTD/svg11.dtd">
<!-- Generated by graphviz version 2.46.0 (0)
 -->
<!-- Title: ReferenceGeneratorConfig::CapMemAmplifier Pages: 1 -->
<svg width="180pt" height="122pt"
 viewBox="0.00 0.00 179.84 122.00" xmlns="http://www.w3.org/2000/svg" xmlns:xlink="http://www.w3.org/1999/xlink">
<g id="graph0" class="graph" transform="scale(1 1) rotate(0) translate(4 118)">
<title>ReferenceGeneratorConfig::CapMemAmplifier</title>
<polygon fill="white" stroke="transparent" points="-4,4 -4,-118 175.84,-118 175.84,4 -4,4"/>
<!-- Node1 -->
<g id="node1" class="node">
<title>Node1</title>
<g id="a_node1"><a xlink:title=" ">
<polygon fill="#bfbfbf" stroke="black" points="17.91,-0.5 17.91,-32.5 153.93,-32.5 153.93,-0.5 17.91,-0.5"/>
<text text-anchor="start" x="25.91" y="-19.5" font-family="Helvetica,sans-Serif" font-size="10.00">ReferenceGeneratorConfig</text>
<text text-anchor="middle" x="85.92" y="-7.5" font-family="Helvetica,sans-Serif" font-size="10.00">::CapMemAmplifier</text>
</a>
</g>
</g>
<!-- Node2 -->
<g id="node2" class="node">
<title>Node2</title>
<g id="a_node2"><a xlink:title=" ">
<polygon fill="white" stroke="#bfbfbf" points="0,-69.5 0,-113.5 171.84,-113.5 171.84,-69.5 0,-69.5"/>
<text text-anchor="start" x="8" y="-100.5" font-family="Helvetica,sans-Serif" font-size="10.00">halco::common::detail</text>
<text text-anchor="start" x="8" y="-88.5" font-family="Helvetica,sans-Serif" font-size="10.00">::RantWrapper&lt; CapMemAmplifier,</text>
<text text-anchor="middle" x="85.92" y="-76.5" font-family="Helvetica,sans-Serif" font-size="10.00"> uint_fast8_t, 63, 0 &gt;</text>
</a>
</g>
</g>
<!-- Node2&#45;&gt;Node1 -->
<g id="edge1" class="edge">
<title>Node2&#45;&gt;Node1</title>
<path fill="none" stroke="midnightblue" d="M79.23,-59.26C79.01,-50 79.38,-40.27 80.34,-32.54"/>
<polygon fill="midnightblue" stroke="midnightblue" points="75.74,-59.57 79.73,-69.39 82.73,-59.22 75.74,-59.57"/>
</g>
<!-- Node2&#45;&gt;Node1 -->
<g id="edge2" class="edge">
<title>Node2&#45;&gt;Node1</title>
<path fill="none" stroke="midnightblue" d="M92.61,-59.26C92.83,-50 92.46,-40.27 91.5,-32.54"/>
<polygon fill="midnightblue" stroke="midnightblue" points="89.1,-59.22 92.11,-69.39 96.1,-59.57 89.1,-59.22"/>
</g>
</g>
</svg>
