<?xml version="1.0" encoding="UTF-8" standalone="no"?>
<!DOCTYPE svg PUBLIC "-//W3C//DTD SVG 1.1//EN"
 "http://www.w3.org/Graphics/SVG/1.1/DTD/svg11.dtd">
<!-- Generated by graphviz version 2.46.0 (0)
 -->
<!-- Title: haldls::vx::v2::NeuronConfig::MembraneCapacitorSize Pages: 1 -->
<svg width="188pt" height="122pt"
 viewBox="0.00 0.00 188.19 122.00" xmlns="http://www.w3.org/2000/svg" xmlns:xlink="http://www.w3.org/1999/xlink">
<g id="graph0" class="graph" transform="scale(1 1) rotate(0) translate(4 118)">
<title>haldls::vx::v2::NeuronConfig::MembraneCapacitorSize</title>
<polygon fill="white" stroke="transparent" points="-4,4 -4,-118 184.19,-118 184.19,4 -4,4"/>
<!-- Node1 -->
<g id="node1" class="node">
<title>Node1</title>
<g id="a_node1"><a xlink:title="Size of membrane capacitor.">
<polygon fill="#bfbfbf" stroke="black" points="19.58,-0.5 19.58,-32.5 160.61,-32.5 160.61,-0.5 19.58,-0.5"/>
<text text-anchor="start" x="27.58" y="-19.5" font-family="Helvetica,sans-Serif" font-size="10.00">haldls::vx::v2::NeuronConfig</text>
<text text-anchor="middle" x="90.09" y="-7.5" font-family="Helvetica,sans-Serif" font-size="10.00">::MembraneCapacitorSize</text>
</a>
</g>
</g>
<!-- Node2 -->
<g id="node2" class="node">
<title>Node2</title>
<g id="a_node2"><a xlink:title=" ">
<polygon fill="white" stroke="#bfbfbf" points="0,-69.5 0,-113.5 180.19,-113.5 180.19,-69.5 0,-69.5"/>
<text text-anchor="start" x="8" y="-100.5" font-family="Helvetica,sans-Serif" font-size="10.00">halco::common::detail</text>
<text text-anchor="start" x="8" y="-88.5" font-family="Helvetica,sans-Serif" font-size="10.00">::RantWrapper&lt; MembraneCapacitor</text>
<text text-anchor="middle" x="90.09" y="-76.5" font-family="Helvetica,sans-Serif" font-size="10.00">Size, uint_fast8_t, 63, 0 &gt;</text>
</a>
</g>
</g>
<!-- Node2&#45;&gt;Node1 -->
<g id="edge1" class="edge">
<title>Node2&#45;&gt;Node1</title>
<path fill="none" stroke="midnightblue" d="M90.09,-59.26C90.09,-50 90.09,-40.27 90.09,-32.54"/>
<polygon fill="midnightblue" stroke="midnightblue" points="86.59,-59.39 90.09,-69.39 93.59,-59.39 86.59,-59.39"/>
</g>
</g>
</svg>
