<?xml version="1.0" encoding="UTF-8" standalone="no"?>
<!DOCTYPE svg PUBLIC "-//W3C//DTD SVG 1.1//EN"
 "http://www.w3.org/Graphics/SVG/1.1/DTD/svg11.dtd">
<!-- Generated by graphviz version 2.46.0 (0)
 -->
<!-- Title: haldls::vx::Timer::Value Pages: 1 -->
<svg width="236pt" height="111pt"
 viewBox="0.00 0.00 236.22 111.00" xmlns="http://www.w3.org/2000/svg" xmlns:xlink="http://www.w3.org/1999/xlink">
<g id="graph0" class="graph" transform="scale(1 1) rotate(0) translate(4 107)">
<title>haldls::vx::Timer::Value</title>
<polygon fill="white" stroke="transparent" points="-4,4 -4,-107 232.22,-107 232.22,4 -4,4"/>
<!-- Node1 -->
<g id="node1" class="node">
<title>Node1</title>
<g id="a_node1"><a xlink:title=" ">
<polygon fill="#bfbfbf" stroke="black" points="28.08,-0.5 28.08,-32.5 122.42,-32.5 122.42,-0.5 28.08,-0.5"/>
<text text-anchor="start" x="36.08" y="-19.5" font-family="Helvetica,sans-Serif" font-size="10.00">haldls::vx::Timer::</text>
<text text-anchor="middle" x="75.25" y="-7.5" font-family="Helvetica,sans-Serif" font-size="10.00">Value</text>
</a>
</g>
</g>
<!-- Node1&#45;&gt;Node1 -->
<g id="edge2" class="edge">
<title>Node1&#45;&gt;Node1</title>
<path fill="none" stroke="#9a32cd" stroke-dasharray="5,2" d="M132.82,-21.39C137.51,-20.33 140.42,-18.7 140.42,-16.5 140.42,-12.98 132.97,-10.92 122.7,-10.31"/>
<polygon fill="#9a32cd" stroke="#9a32cd" points="132.17,-17.95 122.7,-22.69 133.06,-24.89 132.17,-17.95"/>
<text text-anchor="middle" x="184.32" y="-13.5" font-family="Helvetica,sans-Serif" font-size="10.00"> SYMBOL_VISIBLE</text>
</g>
<!-- Node2 -->
<g id="node2" class="node">
<title>Node2</title>
<g id="a_node2"><a xlink:title=" ">
<polygon fill="white" stroke="#bfbfbf" points="0,-70.5 0,-102.5 150.5,-102.5 150.5,-70.5 0,-70.5"/>
<text text-anchor="start" x="8" y="-89.5" font-family="Helvetica,sans-Serif" font-size="10.00">halco::common::detail</text>
<text text-anchor="middle" x="75.25" y="-77.5" font-family="Helvetica,sans-Serif" font-size="10.00">::BaseType&lt; Value, uint32_t &gt;</text>
</a>
</g>
</g>
<!-- Node2&#45;&gt;Node1 -->
<g id="edge1" class="edge">
<title>Node2&#45;&gt;Node1</title>
<path fill="none" stroke="midnightblue" d="M75.25,-60.12C75.25,-50.84 75.25,-40.64 75.25,-32.55"/>
<polygon fill="midnightblue" stroke="midnightblue" points="71.75,-60.41 75.25,-70.41 78.75,-60.41 71.75,-60.41"/>
</g>
</g>
</svg>
