<?xml version="1.0" encoding="UTF-8" standalone="no"?>
<!DOCTYPE svg PUBLIC "-//W3C//DTD SVG 1.1//EN"
 "http://www.w3.org/Graphics/SVG/1.1/DTD/svg11.dtd">
<!-- Generated by graphviz version 2.46.0 (0)
 -->
<!-- Title: haldls::vx::SpikeLabel Pages: 1 -->
<svg width="135pt" height="110pt"
 viewBox="0.00 0.00 135.43 110.00" xmlns="http://www.w3.org/2000/svg" xmlns:xlink="http://www.w3.org/1999/xlink">
<g id="graph0" class="graph" transform="scale(1 1) rotate(0) translate(4 106)">
<title>haldls::vx::SpikeLabel</title>
<polygon fill="white" stroke="transparent" points="-4,4 -4,-106 131.43,-106 131.43,4 -4,4"/>
<!-- Node1 -->
<g id="node1" class="node">
<title>Node1</title>
<g id="a_node1"><a xlink:title=" ">
<polygon fill="#bfbfbf" stroke="black" points="7.37,-0.5 7.37,-20.5 120.06,-20.5 120.06,-0.5 7.37,-0.5"/>
<text text-anchor="middle" x="63.71" y="-7.5" font-family="Helvetica,sans-Serif" font-size="10.00">haldls::vx::SpikeLabel</text>
</a>
</g>
</g>
<!-- Node2 -->
<g id="node2" class="node">
<title>Node2</title>
<g id="a_node2"><a xlink:title=" ">
<polygon fill="white" stroke="#bfbfbf" points="0,-57.5 0,-101.5 127.43,-101.5 127.43,-57.5 0,-57.5"/>
<text text-anchor="start" x="8" y="-88.5" font-family="Helvetica,sans-Serif" font-size="10.00">halco::common::detail</text>
<text text-anchor="start" x="8" y="-76.5" font-family="Helvetica,sans-Serif" font-size="10.00">::BaseType&lt; SpikeLabel,</text>
<text text-anchor="middle" x="63.71" y="-64.5" font-family="Helvetica,sans-Serif" font-size="10.00"> uint16_t &gt;</text>
</a>
</g>
</g>
<!-- Node2&#45;&gt;Node1 -->
<g id="edge1" class="edge">
<title>Node2&#45;&gt;Node1</title>
<path fill="none" stroke="midnightblue" d="M63.71,-47.13C63.71,-37.54 63.71,-27.71 63.71,-20.82"/>
<polygon fill="midnightblue" stroke="midnightblue" points="60.22,-47.3 63.71,-57.3 67.22,-47.3 60.22,-47.3"/>
</g>
</g>
</svg>
