<?xml version="1.0" encoding="UTF-8" standalone="no"?>
<!DOCTYPE svg PUBLIC "-//W3C//DTD SVG 1.1//EN"
 "http://www.w3.org/Graphics/SVG/1.1/DTD/svg11.dtd">
<!-- Generated by graphviz version 2.46.0 (0)
 -->
<!-- Title: haldls::vx::BackgroundSpikeSource::Mask Pages: 1 -->
<svg width="300pt" height="89pt"
 viewBox="0.00 0.00 299.68 89.00" xmlns="http://www.w3.org/2000/svg" xmlns:xlink="http://www.w3.org/1999/xlink">
<g id="graph0" class="graph" transform="scale(1 1) rotate(0) translate(4 85)">
<title>haldls::vx::BackgroundSpikeSource::Mask</title>
<polygon fill="white" stroke="transparent" points="-4,4 -4,-85 295.68,-85 295.68,4 -4,4"/>
<!-- Node1 -->
<g id="node1" class="node">
<title>Node1</title>
<g id="a_node1"><a xlink:title="NeuronLabel bit randomization mask.">
<polygon fill="#bfbfbf" stroke="black" points="150.09,-24.5 150.09,-56.5 291.68,-56.5 291.68,-24.5 150.09,-24.5"/>
<text text-anchor="start" x="158.09" y="-43.5" font-family="Helvetica,sans-Serif" font-size="10.00">haldls::vx::BackgroundSpike</text>
<text text-anchor="middle" x="220.89" y="-31.5" font-family="Helvetica,sans-Serif" font-size="10.00">Source::Mask</text>
</a>
</g>
</g>
<!-- Node2 -->
<g id="node2" class="node">
<title>Node2</title>
<g id="a_node2"><a xlink:title=" ">
<polygon fill="white" stroke="#bfbfbf" points="0,-0.5 0,-80.5 114.09,-80.5 114.09,-0.5 0,-0.5"/>
<text text-anchor="start" x="8" y="-67.5" font-family="Helvetica,sans-Serif" font-size="10.00">halco::common::detail</text>
<text text-anchor="middle" x="57.05" y="-55.5" font-family="Helvetica,sans-Serif" font-size="10.00">::</text>
<text text-anchor="start" x="8" y="-43.5" font-family="Helvetica,sans-Serif" font-size="10.00"> RantWrapper</text>
<text text-anchor="start" x="8" y="-31.5" font-family="Helvetica,sans-Serif" font-size="10.00">&lt; Mask, uint_fast16_t,</text>
<text text-anchor="start" x="8" y="-19.5" font-family="Helvetica,sans-Serif" font-size="10.00"> hate::math::pow(2, 8)</text>
<text text-anchor="middle" x="57.05" y="-7.5" font-family="Helvetica,sans-Serif" font-size="10.00"> &#45; 1, 0 &gt;</text>
</a>
</g>
</g>
<!-- Node2&#45;&gt;Node1 -->
<g id="edge1" class="edge">
<title>Node2&#45;&gt;Node1</title>
<path fill="none" stroke="midnightblue" d="M124.33,-40.5C132.75,-40.5 141.39,-40.5 149.86,-40.5"/>
<polygon fill="midnightblue" stroke="midnightblue" points="124.2,-37 114.2,-40.5 124.2,-44 124.2,-37"/>
</g>
</g>
</svg>
