<?xml version="1.0" encoding="UTF-8" standalone="no"?>
<!DOCTYPE svg PUBLIC "-//W3C//DTD SVG 1.1//EN"
 "http://www.w3.org/Graphics/SVG/1.1/DTD/svg11.dtd">
<!-- Generated by graphviz version 2.46.0 (0)
 -->
<!-- Title: haldls::vx::detail::BackendContainerTrait&lt; VectorGeneratorNotificationAddress &gt; Pages: 1 -->
<svg width="767pt" height="79pt"
 viewBox="0.00 0.00 766.93 78.50" xmlns="http://www.w3.org/2000/svg" xmlns:xlink="http://www.w3.org/1999/xlink">
<g id="graph0" class="graph" transform="scale(1 1) rotate(0) translate(4 74.5)">
<title>haldls::vx::detail::BackendContainerTrait&lt; VectorGeneratorNotificationAddress &gt;</title>
<polygon fill="white" stroke="transparent" points="-4,4 -4,-74.5 762.93,-74.5 762.93,4 -4,4"/>
<!-- Node1 -->
<g id="node1" class="node">
<title>Node1</title>
<g id="a_node1"><a xlink:title=" ">
<polygon fill="#bfbfbf" stroke="black" points="565.66,-12.5 565.66,-56.5 758.93,-56.5 758.93,-12.5 565.66,-12.5"/>
<text text-anchor="start" x="573.66" y="-43.5" font-family="Helvetica,sans-Serif" font-size="10.00">haldls::vx::detail</text>
<text text-anchor="start" x="573.66" y="-31.5" font-family="Helvetica,sans-Serif" font-size="10.00">::BackendContainerTrait</text>
<text text-anchor="middle" x="662.3" y="-19.5" font-family="Helvetica,sans-Serif" font-size="10.00">&lt; VectorGeneratorNotificationAddress &gt;</text>
</a>
</g>
</g>
<!-- Node2 -->
<g id="node2" class="node">
<title>Node2</title>
<g id="a_node2"><a xlink:href="structhaldls_1_1vx_1_1detail_1_1_backend_container_base.html" target="_top" xlink:title=" ">
<polygon fill="white" stroke="black" points="370.41,-0.5 370.41,-68.5 528.66,-68.5 528.66,-0.5 370.41,-0.5"/>
<text text-anchor="start" x="378.41" y="-55.5" font-family="Helvetica,sans-Serif" font-size="10.00">haldls::vx::detail</text>
<text text-anchor="start" x="378.41" y="-43.5" font-family="Helvetica,sans-Serif" font-size="10.00">::BackendContainerBase</text>
<text text-anchor="start" x="378.41" y="-31.5" font-family="Helvetica,sans-Serif" font-size="10.00">&lt; VectorGeneratorNotification</text>
<text text-anchor="start" x="378.41" y="-19.5" font-family="Helvetica,sans-Serif" font-size="10.00">Address, fisch::vx::word_access</text>
<text text-anchor="middle" x="449.54" y="-7.5" font-family="Helvetica,sans-Serif" font-size="10.00">_type::Omnibus &gt;</text>
</a>
</g>
</g>
<!-- Node2&#45;&gt;Node1 -->
<g id="edge1" class="edge">
<title>Node2&#45;&gt;Node1</title>
<path fill="none" stroke="midnightblue" d="M538.9,-34.5C547.66,-34.5 556.57,-34.5 565.39,-34.5"/>
<polygon fill="midnightblue" stroke="midnightblue" points="538.72,-31 528.72,-34.5 538.72,-38 538.72,-31"/>
</g>
<!-- Node3 -->
<g id="node3" class="node">
<title>Node3</title>
<g id="a_node3"><a xlink:href="structhaldls_1_1vx_1_1detail_1_1_backend_container_base.html" target="_top" xlink:title="Backend container trait base.">
<polygon fill="white" stroke="black" points="0,-6.5 0,-62.5 199.66,-62.5 199.66,-6.5 0,-6.5"/>
<text text-anchor="start" x="8" y="-49.5" font-family="Helvetica,sans-Serif" font-size="10.00">haldls::vx::detail</text>
<text text-anchor="start" x="8" y="-37.5" font-family="Helvetica,sans-Serif" font-size="10.00">::BackendContainerBase</text>
<text text-anchor="start" x="8" y="-25.5" font-family="Helvetica,sans-Serif" font-size="10.00">&lt; ContainerT, DefaultBackend</text>
<text text-anchor="middle" x="99.83" y="-13.5" font-family="Helvetica,sans-Serif" font-size="10.00">Container, AdditionalBackendContainer &gt;</text>
</a>
</g>
</g>
<!-- Node3&#45;&gt;Node2 -->
<g id="edge2" class="edge">
<title>Node3&#45;&gt;Node2</title>
<path fill="none" stroke="orange" stroke-dasharray="5,2" d="M210.26,-34.5C262.17,-34.5 323.01,-34.5 370.22,-34.5"/>
<polygon fill="orange" stroke="orange" points="210.01,-31 200.01,-34.5 210.01,-38 210.01,-31"/>
<text text-anchor="start" x="217.66" y="-61.5" font-family="Helvetica,sans-Serif" font-size="10.00"> &lt; VectorGeneratorNotification</text>
<text text-anchor="start" x="217.66" y="-49.5" font-family="Helvetica,sans-Serif" font-size="10.00">Address, fisch::vx::word</text>
<text text-anchor="middle" x="285.04" y="-37.5" font-family="Helvetica,sans-Serif" font-size="10.00">_access_type::Omnibus &gt;</text>
</g>
</g>
</svg>
