<?xml version="1.0" encoding="UTF-8" standalone="no"?>
<!DOCTYPE svg PUBLIC "-//W3C//DTD SVG 1.1//EN"
 "http://www.w3.org/Graphics/SVG/1.1/DTD/svg11.dtd">
<!-- Generated by graphviz version 2.46.0 (0)
 -->
<!-- Title: haldls::vx::CommonCorrelationConfig::ResetFallTime Pages: 1 -->
<svg width="356pt" height="65pt"
 viewBox="0.00 0.00 356.29 65.00" xmlns="http://www.w3.org/2000/svg" xmlns:xlink="http://www.w3.org/1999/xlink">
<g id="graph0" class="graph" transform="scale(1 1) rotate(0) translate(4 61)">
<title>haldls::vx::CommonCorrelationConfig::ResetFallTime</title>
<polygon fill="white" stroke="transparent" points="-4,4 -4,-61 352.29,-61 352.29,4 -4,4"/>
<!-- Node1 -->
<g id="node1" class="node">
<title>Node1</title>
<g id="a_node1"><a xlink:title="Wait time in PPU clock cycles after disabling the correlation column reset enable.">
<polygon fill="#bfbfbf" stroke="black" points="195.62,-12.5 195.62,-44.5 348.29,-44.5 348.29,-12.5 195.62,-12.5"/>
<text text-anchor="start" x="203.62" y="-31.5" font-family="Helvetica,sans-Serif" font-size="10.00">haldls::vx::CommonCorrelation</text>
<text text-anchor="middle" x="271.96" y="-19.5" font-family="Helvetica,sans-Serif" font-size="10.00">Config::ResetFallTime</text>
</a>
</g>
</g>
<!-- Node2 -->
<g id="node2" class="node">
<title>Node2</title>
<g id="a_node2"><a xlink:title=" ">
<polygon fill="white" stroke="#bfbfbf" points="0,-0.5 0,-56.5 159.62,-56.5 159.62,-0.5 0,-0.5"/>
<text text-anchor="start" x="8" y="-43.5" font-family="Helvetica,sans-Serif" font-size="10.00">halco::common::detail</text>
<text text-anchor="start" x="8" y="-31.5" font-family="Helvetica,sans-Serif" font-size="10.00">:: RantWrapper&lt; ResetFallTime,</text>
<text text-anchor="start" x="8" y="-19.5" font-family="Helvetica,sans-Serif" font-size="10.00"> uint_fast16_t, hate::math</text>
<text text-anchor="middle" x="79.81" y="-7.5" font-family="Helvetica,sans-Serif" font-size="10.00">::pow(2, 12) &#45; 1, 0 &gt;</text>
</a>
</g>
</g>
<!-- Node2&#45;&gt;Node1 -->
<g id="edge1" class="edge">
<title>Node2&#45;&gt;Node1</title>
<path fill="none" stroke="midnightblue" d="M169.85,-28.5C178.45,-28.5 187.12,-28.5 195.57,-28.5"/>
<polygon fill="midnightblue" stroke="midnightblue" points="169.8,-25 159.8,-28.5 169.8,-32 169.8,-25"/>
</g>
</g>
</svg>
