<?xml version="1.0" encoding="UTF-8" standalone="no"?>
<!DOCTYPE svg PUBLIC "-//W3C//DTD SVG 1.1//EN"
 "http://www.w3.org/Graphics/SVG/1.1/DTD/svg11.dtd">
<!-- Generated by graphviz version 2.46.0 (0)
 -->
<!-- Title: haldls::vx::HicannARQStatus::ReadCount Pages: 1 -->
<svg width="152pt" height="122pt"
 viewBox="0.00 0.00 152.36 122.00" xmlns="http://www.w3.org/2000/svg" xmlns:xlink="http://www.w3.org/1999/xlink">
<g id="graph0" class="graph" transform="scale(1 1) rotate(0) translate(4 118)">
<title>haldls::vx::HicannARQStatus::ReadCount</title>
<polygon fill="white" stroke="transparent" points="-4,4 -4,-118 148.36,-118 148.36,4 -4,4"/>
<!-- Node1 -->
<g id="node1" class="node">
<title>Node1</title>
<g id="a_node1"><a xlink:title="Number of words submitted to the ARQ from the Chip.">
<polygon fill="#bfbfbf" stroke="black" points="0,-0.5 0,-32.5 144.36,-32.5 144.36,-0.5 0,-0.5"/>
<text text-anchor="start" x="8" y="-19.5" font-family="Helvetica,sans-Serif" font-size="10.00">haldls::vx::HicannARQStatus</text>
<text text-anchor="middle" x="72.18" y="-7.5" font-family="Helvetica,sans-Serif" font-size="10.00">::ReadCount</text>
</a>
</g>
</g>
<!-- Node2 -->
<g id="node2" class="node">
<title>Node2</title>
<g id="a_node2"><a xlink:title=" ">
<polygon fill="white" stroke="#bfbfbf" points="7.91,-69.5 7.91,-113.5 136.45,-113.5 136.45,-69.5 7.91,-69.5"/>
<text text-anchor="start" x="15.91" y="-100.5" font-family="Helvetica,sans-Serif" font-size="10.00">halco::common::detail</text>
<text text-anchor="start" x="15.91" y="-88.5" font-family="Helvetica,sans-Serif" font-size="10.00">::BaseType&lt; ReadCount,</text>
<text text-anchor="middle" x="72.18" y="-76.5" font-family="Helvetica,sans-Serif" font-size="10.00"> uint32_t &gt;</text>
</a>
</g>
</g>
<!-- Node2&#45;&gt;Node1 -->
<g id="edge1" class="edge">
<title>Node2&#45;&gt;Node1</title>
<path fill="none" stroke="midnightblue" d="M72.18,-59.26C72.18,-50 72.18,-40.27 72.18,-32.54"/>
<polygon fill="midnightblue" stroke="midnightblue" points="68.68,-59.39 72.18,-69.39 75.68,-59.39 68.68,-59.39"/>
</g>
</g>
</svg>
