<?xml version="1.0" encoding="UTF-8" standalone="no"?>
<!DOCTYPE svg PUBLIC "-//W3C//DTD SVG 1.1//EN"
 "http://www.w3.org/Graphics/SVG/1.1/DTD/svg11.dtd">
<!-- Generated by graphviz version 2.46.0 (0)
 -->
<!-- Title: haldls::vx::CommonSynramConfig::PCConf Pages: 1 -->
<svg width="146pt" height="122pt"
 viewBox="0.00 0.00 146.23 122.00" xmlns="http://www.w3.org/2000/svg" xmlns:xlink="http://www.w3.org/1999/xlink">
<g id="graph0" class="graph" transform="scale(1 1) rotate(0) translate(4 118)">
<title>haldls::vx::CommonSynramConfig::PCConf</title>
<polygon fill="white" stroke="transparent" points="-4,4 -4,-118 142.23,-118 142.23,4 -4,4"/>
<!-- Node1 -->
<g id="node1" class="node">
<title>Node1</title>
<g id="a_node1"><a xlink:title="Precharge configuration.">
<polygon fill="#bfbfbf" stroke="black" points="0,-0.5 0,-32.5 138.23,-32.5 138.23,-0.5 0,-0.5"/>
<text text-anchor="start" x="8" y="-19.5" font-family="Helvetica,sans-Serif" font-size="10.00">haldls::vx::CommonSynram</text>
<text text-anchor="middle" x="69.11" y="-7.5" font-family="Helvetica,sans-Serif" font-size="10.00">Config::PCConf</text>
</a>
</g>
</g>
<!-- Node2 -->
<g id="node2" class="node">
<title>Node2</title>
<g id="a_node2"><a xlink:title=" ">
<polygon fill="white" stroke="#bfbfbf" points="5.41,-69.5 5.41,-113.5 132.82,-113.5 132.82,-69.5 5.41,-69.5"/>
<text text-anchor="start" x="13.41" y="-100.5" font-family="Helvetica,sans-Serif" font-size="10.00">halco::common::detail</text>
<text text-anchor="start" x="13.41" y="-88.5" font-family="Helvetica,sans-Serif" font-size="10.00">::RantWrapper&lt; PCConf,</text>
<text text-anchor="middle" x="69.11" y="-76.5" font-family="Helvetica,sans-Serif" font-size="10.00"> uint_fast16_t, 15, 0 &gt;</text>
</a>
</g>
</g>
<!-- Node2&#45;&gt;Node1 -->
<g id="edge1" class="edge">
<title>Node2&#45;&gt;Node1</title>
<path fill="none" stroke="midnightblue" d="M69.11,-59.26C69.11,-50 69.11,-40.27 69.11,-32.54"/>
<polygon fill="midnightblue" stroke="midnightblue" points="65.62,-59.39 69.11,-69.39 72.62,-59.39 65.62,-59.39"/>
</g>
</g>
</svg>
