<?xml version="1.0" encoding="UTF-8" standalone="no"?>
<!DOCTYPE svg PUBLIC "-//W3C//DTD SVG 1.1//EN"
 "http://www.w3.org/Graphics/SVG/1.1/DTD/svg11.dtd">
<!-- Generated by graphviz version 2.46.0 (0)
 -->
<!-- Title: haldls::vx::detail::BackendContainerTrait&lt; AD5252ChannelConfigPersistent &gt; Pages: 1 -->
<svg width="1421pt" height="107pt"
 viewBox="0.00 0.00 1420.81 106.50" xmlns="http://www.w3.org/2000/svg" xmlns:xlink="http://www.w3.org/1999/xlink">
<g id="graph0" class="graph" transform="scale(1 1) rotate(0) translate(4 102.5)">
<title>haldls::vx::detail::BackendContainerTrait&lt; AD5252ChannelConfigPersistent &gt;</title>
<polygon fill="white" stroke="transparent" points="-4,4 -4,-102.5 1416.81,-102.5 1416.81,4 -4,4"/>
<!-- Node1 -->
<g id="node1" class="node">
<title>Node1</title>
<g id="a_node1"><a xlink:title=" ">
<polygon fill="#bfbfbf" stroke="black" points="1232.88,-38.5 1232.88,-82.5 1412.81,-82.5 1412.81,-38.5 1232.88,-38.5"/>
<text text-anchor="start" x="1240.88" y="-69.5" font-family="Helvetica,sans-Serif" font-size="10.00">haldls::vx::detail</text>
<text text-anchor="start" x="1240.88" y="-57.5" font-family="Helvetica,sans-Serif" font-size="10.00">::BackendContainerTrait</text>
<text text-anchor="middle" x="1322.85" y="-45.5" font-family="Helvetica,sans-Serif" font-size="10.00">&lt; AD5252ChannelConfigPersistent &gt;</text>
</a>
</g>
</g>
<!-- Node2 -->
<g id="node2" class="node">
<title>Node2</title>
<g id="a_node2"><a xlink:href="structhaldls_1_1vx_1_1detail_1_1_backend_container_base.html" target="_top" xlink:title=" ">
<polygon fill="white" stroke="black" points="1021.78,-26.5 1021.78,-94.5 1195.88,-94.5 1195.88,-26.5 1021.78,-26.5"/>
<text text-anchor="start" x="1029.78" y="-81.5" font-family="Helvetica,sans-Serif" font-size="10.00">haldls::vx::detail</text>
<text text-anchor="start" x="1029.78" y="-69.5" font-family="Helvetica,sans-Serif" font-size="10.00">::BackendContainerBase</text>
<text text-anchor="start" x="1029.78" y="-57.5" font-family="Helvetica,sans-Serif" font-size="10.00">&lt; AD5252ChannelConfigPersistent,</text>
<text text-anchor="start" x="1029.78" y="-45.5" font-family="Helvetica,sans-Serif" font-size="10.00"> fisch::vx::word_access_type</text>
<text text-anchor="middle" x="1108.83" y="-33.5" font-family="Helvetica,sans-Serif" font-size="10.00">::I2CAD5252RwRegister &gt;</text>
</a>
</g>
</g>
<!-- Node2&#45;&gt;Node1 -->
<g id="edge1" class="edge">
<title>Node2&#45;&gt;Node1</title>
<path fill="none" stroke="midnightblue" d="M1206.29,-60.5C1215.05,-60.5 1223.89,-60.5 1232.58,-60.5"/>
<polygon fill="midnightblue" stroke="midnightblue" points="1206.06,-57 1196.06,-60.5 1206.06,-64 1206.06,-57"/>
</g>
<!-- Node3 -->
<g id="node3" class="node">
<title>Node3</title>
<g id="a_node3"><a xlink:title=" ">
<polygon fill="white" stroke="#bfbfbf" points="378.18,-38.5 378.18,-82.5 517.54,-82.5 517.54,-38.5 378.18,-38.5"/>
<text text-anchor="start" x="386.18" y="-69.5" font-family="Helvetica,sans-Serif" font-size="10.00">std::array&lt; Backend,</text>
<text text-anchor="start" x="386.18" y="-57.5" font-family="Helvetica,sans-Serif" font-size="10.00"> sizeof...(AdditionalBackend</text>
<text text-anchor="middle" x="447.86" y="-45.5" font-family="Helvetica,sans-Serif" font-size="10.00">Container)+1 &gt;</text>
</a>
</g>
</g>
<!-- Node3&#45;&gt;Node2 -->
<g id="edge2" class="edge">
<title>Node3&#45;&gt;Node2</title>
<path fill="none" stroke="#9a32cd" stroke-dasharray="5,2" d="M527.93,-69.38C635.73,-80.07 834.74,-94.81 1003.78,-79.5 1009.63,-78.97 1015.64,-78.28 1021.69,-77.47"/>
<polygon fill="#9a32cd" stroke="#9a32cd" points="528.09,-65.87 517.79,-68.36 527.39,-72.84 528.09,-65.87"/>
<text text-anchor="middle" x="725.07" y="-89.5" font-family="Helvetica,sans-Serif" font-size="10.00"> valid_backends</text>
</g>
<!-- Node6 -->
<g id="node6" class="node">
<title>Node6</title>
<g id="a_node6"><a xlink:href="structhaldls_1_1vx_1_1detail_1_1_backend_container_base.html" target="_top" xlink:title="Backend container trait base.">
<polygon fill="white" stroke="black" points="625.23,-0.5 625.23,-56.5 824.9,-56.5 824.9,-0.5 625.23,-0.5"/>
<text text-anchor="start" x="633.23" y="-43.5" font-family="Helvetica,sans-Serif" font-size="10.00">haldls::vx::detail</text>
<text text-anchor="start" x="633.23" y="-31.5" font-family="Helvetica,sans-Serif" font-size="10.00">::BackendContainerBase</text>
<text text-anchor="start" x="633.23" y="-19.5" font-family="Helvetica,sans-Serif" font-size="10.00">&lt; ContainerT, DefaultBackend</text>
<text text-anchor="middle" x="725.07" y="-7.5" font-family="Helvetica,sans-Serif" font-size="10.00">Container, AdditionalBackendContainer &gt;</text>
</a>
</g>
</g>
<!-- Node3&#45;&gt;Node6 -->
<g id="edge6" class="edge">
<title>Node3&#45;&gt;Node6</title>
<path fill="none" stroke="#9a32cd" stroke-dasharray="5,2" d="M527.7,-51.33C558.03,-47.81 593.07,-43.73 625.07,-40.01"/>
<polygon fill="#9a32cd" stroke="#9a32cd" points="527.13,-47.88 517.6,-52.51 527.93,-54.83 527.13,-47.88"/>
<text text-anchor="middle" x="571.39" y="-53.5" font-family="Helvetica,sans-Serif" font-size="10.00"> valid_backends</text>
</g>
<!-- Node4 -->
<g id="node4" class="node">
<title>Node4</title>
<g id="a_node4"><a xlink:title=" ">
<polygon fill="white" stroke="#bfbfbf" points="108.34,-50.5 108.34,-70.5 189.36,-70.5 189.36,-50.5 108.34,-50.5"/>
<text text-anchor="middle" x="148.85" y="-57.5" font-family="Helvetica,sans-Serif" font-size="10.00">std::array&lt; T &gt;</text>
</a>
</g>
</g>
<!-- Node4&#45;&gt;Node3 -->
<g id="edge3" class="edge">
<title>Node4&#45;&gt;Node3</title>
<path fill="none" stroke="orange" stroke-dasharray="5,2" d="M199.62,-60.5C248.5,-60.5 323.49,-60.5 378.06,-60.5"/>
<polygon fill="orange" stroke="orange" points="199.6,-57 189.6,-60.5 199.6,-64 199.6,-57"/>
<text text-anchor="start" x="207.36" y="-75.5" font-family="Helvetica,sans-Serif" font-size="10.00"> &lt; Backend, sizeof...</text>
<text text-anchor="middle" x="283.77" y="-63.5" font-family="Helvetica,sans-Serif" font-size="10.00">(AdditionalBackendContainer)+1 &gt;</text>
</g>
<!-- Node5 -->
<g id="node5" class="node">
<title>Node5</title>
<g id="a_node5"><a xlink:title=" ">
<polygon fill="white" stroke="#bfbfbf" points="0,-50.5 0,-70.5 29,-70.5 29,-50.5 0,-50.5"/>
<text text-anchor="middle" x="14.5" y="-57.5" font-family="Helvetica,sans-Serif" font-size="10.00">T</text>
</a>
</g>
</g>
<!-- Node5&#45;&gt;Node4 -->
<g id="edge4" class="edge">
<title>Node5&#45;&gt;Node4</title>
<path fill="none" stroke="#9a32cd" stroke-dasharray="5,2" d="M39.4,-60.5C58.55,-60.5 85.82,-60.5 108.22,-60.5"/>
<polygon fill="#9a32cd" stroke="#9a32cd" points="39.17,-57 29.17,-60.5 39.17,-64 39.17,-57"/>
<text text-anchor="middle" x="68.67" y="-63.5" font-family="Helvetica,sans-Serif" font-size="10.00"> elements</text>
</g>
<!-- Node6&#45;&gt;Node2 -->
<g id="edge5" class="edge">
<title>Node6&#45;&gt;Node2</title>
<path fill="none" stroke="orange" stroke-dasharray="5,2" d="M835.03,-31.66C886.34,-33.85 948.31,-37.49 1003.78,-43.5 1009.6,-44.13 1015.59,-44.87 1021.62,-45.68"/>
<polygon fill="orange" stroke="orange" points="835.06,-28.16 824.92,-31.24 834.77,-35.15 835.06,-28.16"/>
<text text-anchor="start" x="842.9" y="-70.5" font-family="Helvetica,sans-Serif" font-size="10.00"> &lt; AD5252ChannelConfigPersistent,</text>
<text text-anchor="start" x="842.9" y="-58.5" font-family="Helvetica,sans-Serif" font-size="10.00"> fisch::vx::word_access_type</text>
<text text-anchor="middle" x="923.34" y="-46.5" font-family="Helvetica,sans-Serif" font-size="10.00">::I2CAD5252RwRegister &gt;</text>
</g>
</g>
</svg>
