<?xml version="1.0" encoding="UTF-8" standalone="no"?>
<!DOCTYPE svg PUBLIC "-//W3C//DTD SVG 1.1//EN"
 "http://www.w3.org/Graphics/SVG/1.1/DTD/svg11.dtd">
<!-- Generated by graphviz version 2.46.0 (0)
 -->
<!-- Title: haldls::vx::detail::BackendContainerTrait&lt; DACControl &gt; Pages: 1 -->
<svg width="705pt" height="79pt"
 viewBox="0.00 0.00 704.67 78.50" xmlns="http://www.w3.org/2000/svg" xmlns:xlink="http://www.w3.org/1999/xlink">
<g id="graph0" class="graph" transform="scale(1 1) rotate(0) translate(4 74.5)">
<title>haldls::vx::detail::BackendContainerTrait&lt; DACControl &gt;</title>
<polygon fill="white" stroke="transparent" points="-4,4 -4,-74.5 700.67,-74.5 700.67,4 -4,4"/>
<!-- Node1 -->
<g id="node1" class="node">
<title>Node1</title>
<g id="a_node1"><a xlink:title=" ">
<polygon fill="#bfbfbf" stroke="black" points="572.87,-12.5 572.87,-56.5 696.67,-56.5 696.67,-12.5 572.87,-12.5"/>
<text text-anchor="start" x="580.87" y="-43.5" font-family="Helvetica,sans-Serif" font-size="10.00">haldls::vx::detail</text>
<text text-anchor="start" x="580.87" y="-31.5" font-family="Helvetica,sans-Serif" font-size="10.00">::BackendContainerTrait</text>
<text text-anchor="middle" x="634.77" y="-19.5" font-family="Helvetica,sans-Serif" font-size="10.00">&lt; DACControl &gt;</text>
</a>
</g>
</g>
<!-- Node2 -->
<g id="node2" class="node">
<title>Node2</title>
<g id="a_node2"><a xlink:href="structhaldls_1_1vx_1_1detail_1_1_backend_container_base.html" target="_top" xlink:title=" ">
<polygon fill="white" stroke="black" points="356.51,-0.5 356.51,-68.5 535.87,-68.5 535.87,-0.5 356.51,-0.5"/>
<text text-anchor="start" x="364.51" y="-55.5" font-family="Helvetica,sans-Serif" font-size="10.00">haldls::vx::detail</text>
<text text-anchor="start" x="364.51" y="-43.5" font-family="Helvetica,sans-Serif" font-size="10.00">::BackendContainerBase</text>
<text text-anchor="start" x="364.51" y="-31.5" font-family="Helvetica,sans-Serif" font-size="10.00">&lt; DACControl, fisch::vx</text>
<text text-anchor="start" x="364.51" y="-19.5" font-family="Helvetica,sans-Serif" font-size="10.00">::word_access_type::SPIDACControl</text>
<text text-anchor="middle" x="446.19" y="-7.5" font-family="Helvetica,sans-Serif" font-size="10.00">Register &gt;</text>
</a>
</g>
</g>
<!-- Node2&#45;&gt;Node1 -->
<g id="edge1" class="edge">
<title>Node2&#45;&gt;Node1</title>
<path fill="none" stroke="midnightblue" d="M546.28,-34.5C555.27,-34.5 564.19,-34.5 572.71,-34.5"/>
<polygon fill="midnightblue" stroke="midnightblue" points="546.11,-31 536.11,-34.5 546.11,-38 546.11,-31"/>
</g>
<!-- Node3 -->
<g id="node3" class="node">
<title>Node3</title>
<g id="a_node3"><a xlink:href="structhaldls_1_1vx_1_1detail_1_1_backend_container_base.html" target="_top" xlink:title="Backend container trait base.">
<polygon fill="white" stroke="black" points="0,-6.5 0,-62.5 199.66,-62.5 199.66,-6.5 0,-6.5"/>
<text text-anchor="start" x="8" y="-49.5" font-family="Helvetica,sans-Serif" font-size="10.00">haldls::vx::detail</text>
<text text-anchor="start" x="8" y="-37.5" font-family="Helvetica,sans-Serif" font-size="10.00">::BackendContainerBase</text>
<text text-anchor="start" x="8" y="-25.5" font-family="Helvetica,sans-Serif" font-size="10.00">&lt; ContainerT, DefaultBackend</text>
<text text-anchor="middle" x="99.83" y="-13.5" font-family="Helvetica,sans-Serif" font-size="10.00">Container, AdditionalBackendContainer &gt;</text>
</a>
</g>
</g>
<!-- Node3&#45;&gt;Node2 -->
<g id="edge2" class="edge">
<title>Node3&#45;&gt;Node2</title>
<path fill="none" stroke="orange" stroke-dasharray="5,2" d="M210.23,-34.5C257.39,-34.5 311.83,-34.5 356.43,-34.5"/>
<polygon fill="orange" stroke="orange" points="209.97,-31 199.97,-34.5 209.97,-38 209.97,-31"/>
<text text-anchor="start" x="217.66" y="-61.5" font-family="Helvetica,sans-Serif" font-size="10.00"> &lt; DACControl, fisch</text>
<text text-anchor="start" x="217.66" y="-49.5" font-family="Helvetica,sans-Serif" font-size="10.00">::vx::word_access_type</text>
<text text-anchor="middle" x="278.09" y="-37.5" font-family="Helvetica,sans-Serif" font-size="10.00">::SPIDACControlRegister &gt;</text>
</g>
</g>
</svg>
