<?xml version="1.0" encoding="UTF-8" standalone="no"?>
<!DOCTYPE svg PUBLIC "-//W3C//DTD SVG 1.1//EN"
 "http://www.w3.org/Graphics/SVG/1.1/DTD/svg11.dtd">
<!-- Generated by graphviz version 2.46.0 (0)
 -->
<!-- Title: haldls::vx::DAC6573ChannelConfig::Value Pages: 1 -->
<svg width="324pt" height="77pt"
 viewBox="0.00 0.00 324.12 77.00" xmlns="http://www.w3.org/2000/svg" xmlns:xlink="http://www.w3.org/1999/xlink">
<g id="graph0" class="graph" transform="scale(1 1) rotate(0) translate(4 73)">
<title>haldls::vx::DAC6573ChannelConfig::Value</title>
<polygon fill="white" stroke="transparent" points="-4,4 -4,-73 320.12,-73 320.12,4 -4,4"/>
<!-- Node1 -->
<g id="node1" class="node">
<title>Node1</title>
<g id="a_node1"><a xlink:title=" ">
<polygon fill="#bfbfbf" stroke="black" points="172.31,-18.5 172.31,-50.5 316.12,-50.5 316.12,-18.5 172.31,-18.5"/>
<text text-anchor="start" x="180.31" y="-37.5" font-family="Helvetica,sans-Serif" font-size="10.00">haldls::vx::DAC6573Channel</text>
<text text-anchor="middle" x="244.21" y="-25.5" font-family="Helvetica,sans-Serif" font-size="10.00">Config::Value</text>
</a>
</g>
</g>
<!-- Node2 -->
<g id="node2" class="node">
<title>Node2</title>
<g id="a_node2"><a xlink:title=" ">
<polygon fill="white" stroke="#bfbfbf" points="0,-0.5 0,-68.5 136.31,-68.5 136.31,-0.5 0,-0.5"/>
<text text-anchor="start" x="8" y="-55.5" font-family="Helvetica,sans-Serif" font-size="10.00">halco::common::detail</text>
<text text-anchor="start" x="8" y="-43.5" font-family="Helvetica,sans-Serif" font-size="10.00">::RantWrapper&lt; Value,</text>
<text text-anchor="start" x="8" y="-31.5" font-family="Helvetica,sans-Serif" font-size="10.00"> uint_fast32_t, fisch</text>
<text text-anchor="start" x="8" y="-19.5" font-family="Helvetica,sans-Serif" font-size="10.00">::vx::dac6573_value_max,</text>
<text text-anchor="middle" x="68.15" y="-7.5" font-family="Helvetica,sans-Serif" font-size="10.00"> fisch::vx::dac_value_min &gt;</text>
</a>
</g>
</g>
<!-- Node2&#45;&gt;Node1 -->
<g id="edge1" class="edge">
<title>Node2&#45;&gt;Node1</title>
<path fill="none" stroke="midnightblue" d="M146.67,-34.5C155.12,-34.5 163.69,-34.5 172.06,-34.5"/>
<polygon fill="midnightblue" stroke="midnightblue" points="146.45,-31 136.45,-34.5 146.45,-38 146.45,-31"/>
</g>
</g>
</svg>
