<?xml version="1.0" encoding="UTF-8" standalone="no"?>
<!DOCTYPE svg PUBLIC "-//W3C//DTD SVG 1.1//EN"
 "http://www.w3.org/Graphics/SVG/1.1/DTD/svg11.dtd">
<!-- Generated by graphviz version 2.46.0 (0)
 -->
<!-- Title: haldls::vx::MADCConfig::CalibrationWaitValue Pages: 1 -->
<svg width="323pt" height="53pt"
 viewBox="0.00 0.00 322.96 53.00" xmlns="http://www.w3.org/2000/svg" xmlns:xlink="http://www.w3.org/1999/xlink">
<g id="graph0" class="graph" transform="scale(1 1) rotate(0) translate(4 49)">
<title>haldls::vx::MADCConfig::CalibrationWaitValue</title>
<polygon fill="white" stroke="transparent" points="-4,4 -4,-49 318.96,-49 318.96,4 -4,4"/>
<!-- Node1 -->
<g id="node1" class="node">
<title>Node1</title>
<g id="a_node1"><a xlink:title=" ">
<polygon fill="#bfbfbf" stroke="black" points="193.4,-6.5 193.4,-38.5 314.96,-38.5 314.96,-6.5 193.4,-6.5"/>
<text text-anchor="start" x="201.4" y="-25.5" font-family="Helvetica,sans-Serif" font-size="10.00">haldls::vx::MADCConfig</text>
<text text-anchor="middle" x="254.18" y="-13.5" font-family="Helvetica,sans-Serif" font-size="10.00">::CalibrationWaitValue</text>
</a>
</g>
</g>
<!-- Node2 -->
<g id="node2" class="node">
<title>Node2</title>
<g id="a_node2"><a xlink:title=" ">
<polygon fill="white" stroke="#bfbfbf" points="0,-0.5 0,-44.5 157.4,-44.5 157.4,-0.5 0,-0.5"/>
<text text-anchor="start" x="8" y="-31.5" font-family="Helvetica,sans-Serif" font-size="10.00">halco::common::detail</text>
<text text-anchor="start" x="8" y="-19.5" font-family="Helvetica,sans-Serif" font-size="10.00">::RantWrapper&lt; CalibrationWait</text>
<text text-anchor="middle" x="78.7" y="-7.5" font-family="Helvetica,sans-Serif" font-size="10.00">Value, uint_fast16_t, 1023, 0 &gt;</text>
</a>
</g>
</g>
<!-- Node2&#45;&gt;Node1 -->
<g id="edge1" class="edge">
<title>Node2&#45;&gt;Node1</title>
<path fill="none" stroke="midnightblue" d="M167.7,-22.5C176.35,-22.5 184.99,-22.5 193.26,-22.5"/>
<polygon fill="midnightblue" stroke="midnightblue" points="167.56,-19 157.56,-22.5 167.56,-26 167.56,-19"/>
</g>
</g>
</svg>
