<?xml version="1.0" encoding="UTF-8" standalone="no"?>
<!DOCTYPE svg PUBLIC "-//W3C//DTD SVG 1.1//EN"
 "http://www.w3.org/Graphics/SVG/1.1/DTD/svg11.dtd">
<!-- Generated by graphviz version 2.46.0 (0)
 -->
<!-- Title: haldls::vx::detail::BackendContainerTrait&lt; Timer &gt; Pages: 1 -->
<svg width="625pt" height="73pt"
 viewBox="0.00 0.00 624.97 72.50" xmlns="http://www.w3.org/2000/svg" xmlns:xlink="http://www.w3.org/1999/xlink">
<g id="graph0" class="graph" transform="scale(1 1) rotate(0) translate(4 68.5)">
<title>haldls::vx::detail::BackendContainerTrait&lt; Timer &gt;</title>
<polygon fill="white" stroke="transparent" points="-4,4 -4,-68.5 620.97,-68.5 620.97,4 -4,4"/>
<!-- Node1 -->
<g id="node1" class="node">
<title>Node1</title>
<g id="a_node1"><a xlink:title=" ">
<polygon fill="#bfbfbf" stroke="black" points="493.17,-6.5 493.17,-50.5 616.97,-50.5 616.97,-6.5 493.17,-6.5"/>
<text text-anchor="start" x="501.17" y="-37.5" font-family="Helvetica,sans-Serif" font-size="10.00">haldls::vx::detail</text>
<text text-anchor="start" x="501.17" y="-25.5" font-family="Helvetica,sans-Serif" font-size="10.00">::BackendContainerTrait</text>
<text text-anchor="middle" x="555.07" y="-13.5" font-family="Helvetica,sans-Serif" font-size="10.00">&lt; Timer &gt;</text>
</a>
</g>
</g>
<!-- Node2 -->
<g id="node2" class="node">
<title>Node2</title>
<g id="a_node2"><a xlink:href="structhaldls_1_1vx_1_1detail_1_1_backend_container_base.html" target="_top" xlink:title=" ">
<polygon fill="white" stroke="black" points="329.58,-0.5 329.58,-56.5 456.17,-56.5 456.17,-0.5 329.58,-0.5"/>
<text text-anchor="start" x="337.58" y="-43.5" font-family="Helvetica,sans-Serif" font-size="10.00">haldls::vx::detail</text>
<text text-anchor="start" x="337.58" y="-31.5" font-family="Helvetica,sans-Serif" font-size="10.00">::BackendContainerBase</text>
<text text-anchor="start" x="337.58" y="-19.5" font-family="Helvetica,sans-Serif" font-size="10.00">&lt; Timer, fisch::vx::word</text>
<text text-anchor="middle" x="392.87" y="-7.5" font-family="Helvetica,sans-Serif" font-size="10.00">_access_type::Timer &gt;</text>
</a>
</g>
</g>
<!-- Node2&#45;&gt;Node1 -->
<g id="edge1" class="edge">
<title>Node2&#45;&gt;Node1</title>
<path fill="none" stroke="midnightblue" d="M466.32,-28.5C475.29,-28.5 484.39,-28.5 493.16,-28.5"/>
<polygon fill="midnightblue" stroke="midnightblue" points="466.27,-25 456.27,-28.5 466.27,-32 466.27,-25"/>
</g>
<!-- Node3 -->
<g id="node3" class="node">
<title>Node3</title>
<g id="a_node3"><a xlink:href="structhaldls_1_1vx_1_1detail_1_1_backend_container_base.html" target="_top" xlink:title="Backend container trait base.">
<polygon fill="white" stroke="black" points="0,-0.5 0,-56.5 199.66,-56.5 199.66,-0.5 0,-0.5"/>
<text text-anchor="start" x="8" y="-43.5" font-family="Helvetica,sans-Serif" font-size="10.00">haldls::vx::detail</text>
<text text-anchor="start" x="8" y="-31.5" font-family="Helvetica,sans-Serif" font-size="10.00">::BackendContainerBase</text>
<text text-anchor="start" x="8" y="-19.5" font-family="Helvetica,sans-Serif" font-size="10.00">&lt; ContainerT, DefaultBackend</text>
<text text-anchor="middle" x="99.83" y="-7.5" font-family="Helvetica,sans-Serif" font-size="10.00">Container, AdditionalBackendContainer &gt;</text>
</a>
</g>
</g>
<!-- Node3&#45;&gt;Node2 -->
<g id="edge2" class="edge">
<title>Node3&#45;&gt;Node2</title>
<path fill="none" stroke="orange" stroke-dasharray="5,2" d="M209.92,-28.5C250.18,-28.5 294.43,-28.5 329.21,-28.5"/>
<polygon fill="orange" stroke="orange" points="209.77,-25 199.77,-28.5 209.77,-32 209.77,-25"/>
<text text-anchor="start" x="217.66" y="-55.5" font-family="Helvetica,sans-Serif" font-size="10.00"> &lt; Timer, fisch::vx</text>
<text text-anchor="start" x="217.66" y="-43.5" font-family="Helvetica,sans-Serif" font-size="10.00">::word_access_type::</text>
<text text-anchor="middle" x="264.62" y="-31.5" font-family="Helvetica,sans-Serif" font-size="10.00">Timer &gt;</text>
</g>
</g>
</svg>
