<?xml version="1.0" encoding="UTF-8" standalone="no"?>
<!DOCTYPE svg PUBLIC "-//W3C//DTD SVG 1.1//EN"
 "http://www.w3.org/Graphics/SVG/1.1/DTD/svg11.dtd">
<!-- Generated by graphviz version 2.46.0 (0)
 -->
<!-- Title: haldls::vx::detail::BackendContainerTrait&lt; ContainerT &gt; Pages: 1 -->
<svg width="667pt" height="65pt"
 viewBox="0.00 0.00 666.63 65.00" xmlns="http://www.w3.org/2000/svg" xmlns:xlink="http://www.w3.org/1999/xlink">
<g id="graph0" class="graph" transform="scale(1 1) rotate(0) translate(4 61)">
<title>haldls::vx::detail::BackendContainerTrait&lt; ContainerT &gt;</title>
<polygon fill="white" stroke="transparent" points="-4,4 -4,-61 662.63,-61 662.63,4 -4,4"/>
<!-- Node1 -->
<g id="node1" class="node">
<title>Node1</title>
<g id="a_node1"><a xlink:title=" ">
<polygon fill="#bfbfbf" stroke="black" points="534.83,-6.5 534.83,-50.5 658.63,-50.5 658.63,-6.5 534.83,-6.5"/>
<text text-anchor="start" x="542.83" y="-37.5" font-family="Helvetica,sans-Serif" font-size="10.00">haldls::vx::detail</text>
<text text-anchor="start" x="542.83" y="-25.5" font-family="Helvetica,sans-Serif" font-size="10.00">::BackendContainerTrait</text>
<text text-anchor="middle" x="596.73" y="-13.5" font-family="Helvetica,sans-Serif" font-size="10.00">&lt; ContainerT &gt;</text>
</a>
</g>
</g>
<!-- Node2 -->
<g id="node2" class="node">
<title>Node2</title>
<g id="a_node2"><a xlink:href="structhaldls_1_1vx_1_1detail_1_1_backend_container_base.html" target="_top" xlink:title=" ">
<polygon fill="white" stroke="black" points="360.14,-6.5 360.14,-50.5 497.83,-50.5 497.83,-6.5 360.14,-6.5"/>
<text text-anchor="start" x="368.14" y="-37.5" font-family="Helvetica,sans-Serif" font-size="10.00">haldls::vx::detail</text>
<text text-anchor="start" x="368.14" y="-25.5" font-family="Helvetica,sans-Serif" font-size="10.00">::BackendContainerBase</text>
<text text-anchor="middle" x="428.98" y="-13.5" font-family="Helvetica,sans-Serif" font-size="10.00">&lt; ContainerT, ContainerT &gt;</text>
</a>
</g>
</g>
<!-- Node2&#45;&gt;Node1 -->
<g id="edge1" class="edge">
<title>Node2&#45;&gt;Node1</title>
<path fill="none" stroke="midnightblue" d="M507.93,-28.5C516.88,-28.5 525.91,-28.5 534.59,-28.5"/>
<polygon fill="midnightblue" stroke="midnightblue" points="507.88,-25 497.88,-28.5 507.88,-32 507.88,-25"/>
</g>
<!-- Node3 -->
<g id="node3" class="node">
<title>Node3</title>
<g id="a_node3"><a xlink:href="structhaldls_1_1vx_1_1detail_1_1_backend_container_base.html" target="_top" xlink:title="Backend container trait base.">
<polygon fill="white" stroke="black" points="0,-0.5 0,-56.5 199.66,-56.5 199.66,-0.5 0,-0.5"/>
<text text-anchor="start" x="8" y="-43.5" font-family="Helvetica,sans-Serif" font-size="10.00">haldls::vx::detail</text>
<text text-anchor="start" x="8" y="-31.5" font-family="Helvetica,sans-Serif" font-size="10.00">::BackendContainerBase</text>
<text text-anchor="start" x="8" y="-19.5" font-family="Helvetica,sans-Serif" font-size="10.00">&lt; ContainerT, DefaultBackend</text>
<text text-anchor="middle" x="99.83" y="-7.5" font-family="Helvetica,sans-Serif" font-size="10.00">Container, AdditionalBackendContainer &gt;</text>
</a>
</g>
</g>
<!-- Node3&#45;&gt;Node2 -->
<g id="edge2" class="edge">
<title>Node3&#45;&gt;Node2</title>
<path fill="none" stroke="orange" stroke-dasharray="5,2" d="M210.02,-28.5C259.63,-28.5 316.77,-28.5 360.1,-28.5"/>
<polygon fill="orange" stroke="orange" points="209.88,-25 199.88,-28.5 209.88,-32 209.88,-25"/>
<text text-anchor="middle" x="279.9" y="-31.5" font-family="Helvetica,sans-Serif" font-size="10.00"> &lt; ContainerT, ContainerT &gt;</text>
</g>
</g>
</svg>
