<?xml version="1.0" encoding="UTF-8" standalone="no"?>
<!DOCTYPE svg PUBLIC "-//W3C//DTD SVG 1.1//EN"
 "http://www.w3.org/Graphics/SVG/1.1/DTD/svg11.dtd">
<!-- Generated by graphviz version 2.46.0 (0)
 -->
<!-- Title: haldls::vx::detail::SRAMTimingConfig::EnableWidth Pages: 1 -->
<svg width="311pt" height="65pt"
 viewBox="0.00 0.00 310.75 65.00" xmlns="http://www.w3.org/2000/svg" xmlns:xlink="http://www.w3.org/1999/xlink">
<g id="graph0" class="graph" transform="scale(1 1) rotate(0) translate(4 61)">
<title>haldls::vx::detail::SRAMTimingConfig::EnableWidth</title>
<polygon fill="white" stroke="transparent" points="-4,4 -4,-61 306.75,-61 306.75,4 -4,4"/>
<!-- Node1 -->
<g id="node1" class="node">
<title>Node1</title>
<g id="a_node1"><a xlink:title="Duration of enable signal pull.">
<polygon fill="#bfbfbf" stroke="black" points="187.86,-6.5 187.86,-50.5 302.75,-50.5 302.75,-6.5 187.86,-6.5"/>
<text text-anchor="start" x="195.86" y="-37.5" font-family="Helvetica,sans-Serif" font-size="10.00">haldls::vx::detail</text>
<text text-anchor="start" x="195.86" y="-25.5" font-family="Helvetica,sans-Serif" font-size="10.00">::SRAMTimingConfig::</text>
<text text-anchor="middle" x="245.31" y="-13.5" font-family="Helvetica,sans-Serif" font-size="10.00">EnableWidth</text>
</a>
</g>
</g>
<!-- Node2 -->
<g id="node2" class="node">
<title>Node2</title>
<g id="a_node2"><a xlink:title=" ">
<polygon fill="white" stroke="#bfbfbf" points="0,-0.5 0,-56.5 151.86,-56.5 151.86,-0.5 0,-0.5"/>
<text text-anchor="start" x="8" y="-43.5" font-family="Helvetica,sans-Serif" font-size="10.00">halco::common::detail</text>
<text text-anchor="start" x="8" y="-31.5" font-family="Helvetica,sans-Serif" font-size="10.00">:: RantWrapper&lt; EnableWidth,</text>
<text text-anchor="start" x="8" y="-19.5" font-family="Helvetica,sans-Serif" font-size="10.00"> uint_fast16_t, hate::math</text>
<text text-anchor="middle" x="75.93" y="-7.5" font-family="Helvetica,sans-Serif" font-size="10.00">::pow(2, 4) &#45; 1, 0 &gt;</text>
</a>
</g>
</g>
<!-- Node2&#45;&gt;Node1 -->
<g id="edge1" class="edge">
<title>Node2&#45;&gt;Node1</title>
<path fill="none" stroke="midnightblue" d="M162.56,-28.5C170.99,-28.5 179.38,-28.5 187.41,-28.5"/>
<polygon fill="midnightblue" stroke="midnightblue" points="162.3,-25 152.3,-28.5 162.3,-32 162.3,-25"/>
</g>
</g>
</svg>
