<?xml version="1.0" encoding="UTF-8" standalone="no"?>
<!DOCTYPE svg PUBLIC "-//W3C//DTD SVG 1.1//EN"
 "http://www.w3.org/Graphics/SVG/1.1/DTD/svg11.dtd">
<!-- Generated by graphviz version 2.46.0 (0)
 -->
<!-- Title: haldls::vx::CommonCorrelationConfig::ResetDuration Pages: 1 -->
<svg width="356pt" height="65pt"
 viewBox="0.00 0.00 355.75 65.00" xmlns="http://www.w3.org/2000/svg" xmlns:xlink="http://www.w3.org/1999/xlink">
<g id="graph0" class="graph" transform="scale(1 1) rotate(0) translate(4 61)">
<title>haldls::vx::CommonCorrelationConfig::ResetDuration</title>
<polygon fill="white" stroke="transparent" points="-4,4 -4,-61 351.75,-61 351.75,4 -4,4"/>
<!-- Node1 -->
<g id="node1" class="node">
<title>Node1</title>
<g id="a_node1"><a xlink:title="Duration of correlation reset for synapses (+3 ppu clock cycles).">
<polygon fill="#bfbfbf" stroke="black" points="195.08,-12.5 195.08,-44.5 347.75,-44.5 347.75,-12.5 195.08,-12.5"/>
<text text-anchor="start" x="203.08" y="-31.5" font-family="Helvetica,sans-Serif" font-size="10.00">haldls::vx::CommonCorrelation</text>
<text text-anchor="middle" x="271.42" y="-19.5" font-family="Helvetica,sans-Serif" font-size="10.00">Config::ResetDuration</text>
</a>
</g>
</g>
<!-- Node2 -->
<g id="node2" class="node">
<title>Node2</title>
<g id="a_node2"><a xlink:title=" ">
<polygon fill="white" stroke="#bfbfbf" points="0,-0.5 0,-56.5 159.08,-56.5 159.08,-0.5 0,-0.5"/>
<text text-anchor="start" x="8" y="-43.5" font-family="Helvetica,sans-Serif" font-size="10.00">halco::common::detail</text>
<text text-anchor="start" x="8" y="-31.5" font-family="Helvetica,sans-Serif" font-size="10.00">:: RantWrapper&lt; ResetDuration,</text>
<text text-anchor="start" x="8" y="-19.5" font-family="Helvetica,sans-Serif" font-size="10.00"> uint_fast16_t, hate::math</text>
<text text-anchor="middle" x="79.54" y="-7.5" font-family="Helvetica,sans-Serif" font-size="10.00">::pow(2, 12) &#45; 1, 0 &gt;</text>
</a>
</g>
</g>
<!-- Node2&#45;&gt;Node1 -->
<g id="edge1" class="edge">
<title>Node2&#45;&gt;Node1</title>
<path fill="none" stroke="midnightblue" d="M169.19,-28.5C177.8,-28.5 186.47,-28.5 194.93,-28.5"/>
<polygon fill="midnightblue" stroke="midnightblue" points="169.14,-25 159.14,-28.5 169.14,-32 169.14,-25"/>
</g>
</g>
</svg>
