<?xml version="1.0" encoding="UTF-8" standalone="no"?>
<!DOCTYPE svg PUBLIC "-//W3C//DTD SVG 1.1//EN"
 "http://www.w3.org/Graphics/SVG/1.1/DTD/svg11.dtd">
<!-- Generated by graphviz version 2.46.0 (0)
 -->
<!-- Title: /jenkins/jenlib_workspaces_f9/bld_nightly&#45;haldls.YmxkX25pZ2h0bHktaGFsZGxzIzEzNzk.x/haldls/include/haldls/vx/systime.h Pages: 1 -->
<svg width="1301pt" height="203pt"
 viewBox="0.00 0.00 1300.55 203.00" xmlns="http://www.w3.org/2000/svg" xmlns:xlink="http://www.w3.org/1999/xlink">
<g id="graph0" class="graph" transform="scale(1 1) rotate(0) translate(4 199)">
<title>/jenkins/jenlib_workspaces_f9/bld_nightly&#45;haldls.YmxkX25pZ2h0bHktaGFsZGxzIzEzNzk.x/haldls/include/haldls/vx/systime.h</title>
<polygon fill="white" stroke="transparent" points="-4,4 -4,-199 1296.55,-199 1296.55,4 -4,4"/>
<!-- Node1 -->
<g id="node1" class="node">
<title>Node1</title>
<g id="a_node1"><a xlink:title=" ">
<polygon fill="#bfbfbf" stroke="black" points="638.88,-138.5 638.88,-194.5 819.9,-194.5 819.9,-138.5 638.88,-138.5"/>
<text text-anchor="start" x="646.88" y="-181.5" font-family="Helvetica,sans-Serif" font-size="10.00">/jenkins/jenlib_workspaces</text>
<text text-anchor="start" x="646.88" y="-169.5" font-family="Helvetica,sans-Serif" font-size="10.00">_f9/bld_nightly&#45;haldls.YmxkX25p</text>
<text text-anchor="start" x="646.88" y="-157.5" font-family="Helvetica,sans-Serif" font-size="10.00">Z2h0bHktaGFsZGxzIzEzNzk.x/haldls</text>
<text text-anchor="middle" x="729.39" y="-145.5" font-family="Helvetica,sans-Serif" font-size="10.00">/include/haldls/vx/systime.h</text>
</a>
</g>
</g>
<!-- Node2 -->
<g id="node2" class="node">
<title>Node2</title>
<g id="a_node2"><a xlink:title=" ">
<polygon fill="white" stroke="#bfbfbf" points="114,-75.5 114,-95.5 152.77,-95.5 152.77,-75.5 114,-75.5"/>
<text text-anchor="middle" x="133.39" y="-82.5" font-family="Helvetica,sans-Serif" font-size="10.00">array</text>
</a>
</g>
</g>
<!-- Node1&#45;&gt;Node2 -->
<g id="edge1" class="edge">
<title>Node1&#45;&gt;Node2</title>
<path fill="none" stroke="midnightblue" d="M638.86,-165.8C525.11,-163.83 325.09,-152.54 162.39,-102 160.51,-101.42 158.61,-100.71 156.72,-99.92"/>
<polygon fill="midnightblue" stroke="midnightblue" points="158.19,-96.74 147.67,-95.52 155.13,-103.04 158.19,-96.74"/>
</g>
<!-- Node3 -->
<g id="node3" class="node">
<title>Node3</title>
<g id="a_node3"><a xlink:title=" ">
<polygon fill="white" stroke="#bfbfbf" points="1248.22,-6.5 1248.22,-26.5 1292.55,-26.5 1292.55,-6.5 1248.22,-6.5"/>
<text text-anchor="middle" x="1270.39" y="-13.5" font-family="Helvetica,sans-Serif" font-size="10.00">iosfwd</text>
</a>
</g>
</g>
<!-- Node1&#45;&gt;Node3 -->
<g id="edge2" class="edge">
<title>Node1&#45;&gt;Node3</title>
<path fill="none" stroke="midnightblue" d="M820.26,-161.85C892.28,-155.95 993.85,-140.76 1074.39,-102 1094.54,-92.3 1092.71,-79.64 1112.39,-69 1164,-41.1 1184.69,-54.21 1239.39,-33 1241.01,-32.37 1242.66,-31.69 1244.31,-30.97"/>
<polygon fill="midnightblue" stroke="midnightblue" points="1246.02,-34.03 1253.59,-26.61 1243.05,-27.69 1246.02,-34.03"/>
</g>
<!-- Node4 -->
<g id="node4" class="node">
<title>Node4</title>
<g id="a_node4"><a xlink:title=" ">
<polygon fill="white" stroke="#bfbfbf" points="1121.88,-69.5 1121.88,-101.5 1222.89,-101.5 1222.89,-69.5 1121.88,-69.5"/>
<text text-anchor="start" x="1129.88" y="-88.5" font-family="Helvetica,sans-Serif" font-size="10.00">halco/hicann&#45;dls/vx</text>
<text text-anchor="middle" x="1172.39" y="-76.5" font-family="Helvetica,sans-Serif" font-size="10.00">/timing.h</text>
</a>
</g>
</g>
<!-- Node1&#45;&gt;Node4 -->
<g id="edge3" class="edge">
<title>Node1&#45;&gt;Node4</title>
<path fill="none" stroke="midnightblue" d="M820.21,-152.01C896.98,-140.18 1009.73,-121.82 1107.39,-102 1108.84,-101.7 1110.32,-101.4 1111.8,-101.09"/>
<polygon fill="midnightblue" stroke="midnightblue" points="1112.69,-104.48 1121.72,-98.93 1111.2,-97.64 1112.69,-104.48"/>
</g>
<!-- Node5 -->
<g id="node5" class="node">
<title>Node5</title>
<g id="a_node5"><a xlink:href="common_8h.html" target="_top" xlink:title=" ">
<polygon fill="white" stroke="black" points="171.21,-75.5 171.21,-95.5 275.56,-95.5 275.56,-75.5 171.21,-75.5"/>
<text text-anchor="middle" x="223.39" y="-82.5" font-family="Helvetica,sans-Serif" font-size="10.00">haldls/vx/common.h</text>
</a>
</g>
</g>
<!-- Node1&#45;&gt;Node5 -->
<g id="edge4" class="edge">
<title>Node1&#45;&gt;Node5</title>
<path fill="none" stroke="midnightblue" d="M638.63,-151.33C536.76,-135.43 374.19,-110.04 285.71,-96.23"/>
<polygon fill="midnightblue" stroke="midnightblue" points="286.24,-92.77 275.82,-94.69 285.16,-99.69 286.24,-92.77"/>
</g>
<!-- Node8 -->
<g id="node8" class="node">
<title>Node8</title>
<g id="a_node8"><a xlink:href="genpybind_8h.html" target="_top" xlink:title=" ">
<polygon fill="white" stroke="black" points="136.32,-6.5 136.32,-26.5 248.46,-26.5 248.46,-6.5 136.32,-6.5"/>
<text text-anchor="middle" x="192.39" y="-13.5" font-family="Helvetica,sans-Serif" font-size="10.00">haldls/vx/genpybind.h</text>
</a>
</g>
</g>
<!-- Node1&#45;&gt;Node8 -->
<g id="edge7" class="edge">
<title>Node1&#45;&gt;Node8</title>
<path fill="none" stroke="midnightblue" d="M638.6,-140.48C521.37,-108.17 322.1,-53.25 235.12,-29.28"/>
<polygon fill="midnightblue" stroke="midnightblue" points="235.9,-25.86 225.33,-26.58 234.04,-32.61 235.9,-25.86"/>
</g>
<!-- Node9 -->
<g id="node9" class="node">
<title>Node9</title>
<g id="a_node9"><a xlink:href="traits_8h.html" target="_top" xlink:title=" ">
<polygon fill="white" stroke="black" points="577.55,-75.5 577.55,-95.5 665.22,-95.5 665.22,-75.5 577.55,-75.5"/>
<text text-anchor="middle" x="621.39" y="-82.5" font-family="Helvetica,sans-Serif" font-size="10.00">haldls/vx/traits.h</text>
</a>
</g>
</g>
<!-- Node1&#45;&gt;Node9 -->
<g id="edge9" class="edge">
<title>Node1&#45;&gt;Node9</title>
<path fill="none" stroke="midnightblue" d="M692.22,-138.31C675.34,-125.97 656.03,-111.84 641.84,-101.46"/>
<polygon fill="midnightblue" stroke="midnightblue" points="643.87,-98.61 633.73,-95.53 639.73,-104.26 643.87,-98.61"/>
</g>
<!-- Node13 -->
<g id="node13" class="node">
<title>Node13</title>
<g id="a_node13"><a xlink:title=" ">
<polygon fill="white" stroke="#bfbfbf" points="969.88,-6.5 969.88,-26.5 1050.89,-26.5 1050.89,-6.5 969.88,-6.5"/>
<text text-anchor="middle" x="1010.39" y="-13.5" font-family="Helvetica,sans-Serif" font-size="10.00">hate/visibility.h</text>
</a>
</g>
</g>
<!-- Node1&#45;&gt;Node13 -->
<g id="edge19" class="edge">
<title>Node1&#45;&gt;Node13</title>
<path fill="none" stroke="midnightblue" d="M780.93,-138.35C840.98,-106.72 937.88,-55.69 984.15,-31.32"/>
<polygon fill="midnightblue" stroke="midnightblue" points="986.01,-34.3 993.23,-26.54 982.75,-28.1 986.01,-34.3"/>
</g>
<!-- Node17 -->
<g id="node17" class="node">
<title>Node17</title>
<g id="a_node17"><a xlink:href="cerealization_8h.html" target="_top" xlink:title=" ">
<polygon fill="white" stroke="black" points="955.71,-75.5 955.71,-95.5 1065.06,-95.5 1065.06,-75.5 955.71,-75.5"/>
<text text-anchor="middle" x="1010.39" y="-82.5" font-family="Helvetica,sans-Serif" font-size="10.00">haldls/cerealization.h</text>
</a>
</g>
</g>
<!-- Node1&#45;&gt;Node17 -->
<g id="edge20" class="edge">
<title>Node1&#45;&gt;Node17</title>
<path fill="none" stroke="midnightblue" d="M820.23,-139.96C869.98,-125.97 929.27,-109.31 968.26,-98.34"/>
<polygon fill="midnightblue" stroke="midnightblue" points="969.53,-101.62 978.21,-95.55 967.63,-94.88 969.53,-101.62"/>
</g>
<!-- Node6 -->
<g id="node6" class="node">
<title>Node6</title>
<g id="a_node6"><a xlink:title=" ">
<polygon fill="white" stroke="#bfbfbf" points="56.33,-6.5 56.33,-26.5 118.45,-26.5 118.45,-6.5 56.33,-6.5"/>
<text text-anchor="middle" x="87.39" y="-13.5" font-family="Helvetica,sans-Serif" font-size="10.00">type_traits</text>
</a>
</g>
</g>
<!-- Node5&#45;&gt;Node6 -->
<g id="edge5" class="edge">
<title>Node5&#45;&gt;Node6</title>
<path fill="none" stroke="midnightblue" d="M205.05,-75.46C181.93,-64.08 141.97,-44.39 115.12,-31.16"/>
<polygon fill="midnightblue" stroke="midnightblue" points="116.39,-27.89 105.87,-26.61 113.3,-34.17 116.39,-27.89"/>
</g>
<!-- Node7 -->
<g id="node7" class="node">
<title>Node7</title>
<g id="a_node7"><a xlink:title=" ">
<polygon fill="white" stroke="#bfbfbf" points="0,-6.5 0,-26.5 38.77,-26.5 38.77,-6.5 0,-6.5"/>
<text text-anchor="middle" x="19.39" y="-13.5" font-family="Helvetica,sans-Serif" font-size="10.00">utility</text>
</a>
</g>
</g>
<!-- Node5&#45;&gt;Node7 -->
<g id="edge6" class="edge">
<title>Node5&#45;&gt;Node7</title>
<path fill="none" stroke="midnightblue" d="M189.03,-75.42C145.49,-63.74 73.02,-43.69 47.39,-33 46.18,-32.49 44.95,-31.95 43.72,-31.38"/>
<polygon fill="midnightblue" stroke="midnightblue" points="44.98,-28.09 34.49,-26.66 41.8,-34.33 44.98,-28.09"/>
</g>
<!-- Node8&#45;&gt;Node8 -->
<g id="edge8" class="edge">
<title>Node8&#45;&gt;Node8</title>
<path fill="none" stroke="midnightblue" d="M216.28,-26.54C240.11,-32.26 266.46,-28.92 266.46,-16.5 266.46,-5.78 246.82,-1.82 226.12,-4.62"/>
<polygon fill="midnightblue" stroke="midnightblue" points="225.47,-1.18 216.28,-6.46 226.76,-8.06 225.47,-1.18"/>
</g>
<!-- Node9&#45;&gt;Node6 -->
<g id="edge15" class="edge">
<title>Node9&#45;&gt;Node6</title>
<path fill="none" stroke="midnightblue" d="M577.45,-83.81C490.36,-81.61 290.21,-72.29 127.39,-33 124.13,-32.21 120.78,-31.23 117.47,-30.13"/>
<polygon fill="midnightblue" stroke="midnightblue" points="118.41,-26.74 107.81,-26.62 116.01,-33.32 118.41,-26.74"/>
</g>
<!-- Node9&#45;&gt;Node8 -->
<g id="edge12" class="edge">
<title>Node9&#45;&gt;Node8</title>
<path fill="none" stroke="midnightblue" d="M577.34,-78.47C511.52,-69.35 383.65,-51.16 275.39,-33 266.97,-31.59 258.09,-30.02 249.39,-28.43"/>
<polygon fill="midnightblue" stroke="midnightblue" points="249.77,-24.94 239.3,-26.57 248.5,-31.83 249.77,-24.94"/>
</g>
<!-- Node10 -->
<g id="node10" class="node">
<title>Node10</title>
<g id="a_node10"><a xlink:title=" ">
<polygon fill="white" stroke="#bfbfbf" points="412.33,-6.5 412.33,-26.5 494.45,-26.5 494.45,-6.5 412.33,-6.5"/>
<text text-anchor="middle" x="453.39" y="-13.5" font-family="Helvetica,sans-Serif" font-size="10.00">fisch/vx/traits.h</text>
</a>
</g>
</g>
<!-- Node9&#45;&gt;Node10 -->
<g id="edge10" class="edge">
<title>Node9&#45;&gt;Node10</title>
<path fill="none" stroke="midnightblue" d="M598.73,-75.46C569.67,-63.88 519.08,-43.7 485.91,-30.47"/>
<polygon fill="midnightblue" stroke="midnightblue" points="486.81,-27.06 476.22,-26.61 484.21,-33.56 486.81,-27.06"/>
</g>
<!-- Node11 -->
<g id="node11" class="node">
<title>Node11</title>
<g id="a_node11"><a xlink:title=" ">
<polygon fill="white" stroke="#bfbfbf" points="512.16,-0.5 512.16,-32.5 622.62,-32.5 622.62,-0.5 512.16,-0.5"/>
<text text-anchor="start" x="520.16" y="-19.5" font-family="Helvetica,sans-Serif" font-size="10.00">fisch/vx/word_access</text>
<text text-anchor="middle" x="567.39" y="-7.5" font-family="Helvetica,sans-Serif" font-size="10.00">_type.h</text>
</a>
</g>
</g>
<!-- Node9&#45;&gt;Node11 -->
<g id="edge11" class="edge">
<title>Node9&#45;&gt;Node11</title>
<path fill="none" stroke="midnightblue" d="M614.1,-75.46C606.9,-66.53 595.58,-52.48 585.88,-40.45"/>
<polygon fill="midnightblue" stroke="midnightblue" points="588.5,-38.12 579.5,-32.53 583.05,-42.52 588.5,-38.12"/>
</g>
<!-- Node12 -->
<g id="node12" class="node">
<title>Node12</title>
<g id="a_node12"><a xlink:title=" ">
<polygon fill="white" stroke="#bfbfbf" points="868.76,-6.5 868.76,-26.5 952.01,-26.5 952.01,-6.5 868.76,-6.5"/>
<text text-anchor="middle" x="910.39" y="-13.5" font-family="Helvetica,sans-Serif" font-size="10.00">hate/type_list.h</text>
</a>
</g>
</g>
<!-- Node9&#45;&gt;Node12 -->
<g id="edge13" class="edge">
<title>Node9&#45;&gt;Node12</title>
<path fill="none" stroke="midnightblue" d="M665.51,-76.08C713.48,-66.66 792.28,-50.43 859.39,-33 863.57,-31.91 867.92,-30.71 872.24,-29.46"/>
<polygon fill="midnightblue" stroke="midnightblue" points="873.58,-32.72 882.18,-26.52 871.6,-26 873.58,-32.72"/>
</g>
<!-- Node9&#45;&gt;Node13 -->
<g id="edge14" class="edge">
<title>Node9&#45;&gt;Node13</title>
<path fill="none" stroke="midnightblue" d="M665.27,-80.07C730.45,-72.99 856.42,-57.39 961.39,-33 965.76,-31.98 970.3,-30.77 974.79,-29.47"/>
<polygon fill="midnightblue" stroke="midnightblue" points="975.85,-32.81 984.4,-26.55 973.82,-26.11 975.85,-32.81"/>
</g>
<!-- Node14 -->
<g id="node14" class="node">
<title>Node14</title>
<g id="a_node14"><a xlink:title=" ">
<polygon fill="white" stroke="#bfbfbf" points="640.99,-0.5 640.99,-32.5 739.79,-32.5 739.79,-0.5 640.99,-0.5"/>
<text text-anchor="start" x="648.99" y="-19.5" font-family="Helvetica,sans-Serif" font-size="10.00">boost/utility/enable</text>
<text text-anchor="middle" x="690.39" y="-7.5" font-family="Helvetica,sans-Serif" font-size="10.00">_if.hpp</text>
</a>
</g>
</g>
<!-- Node9&#45;&gt;Node14 -->
<g id="edge16" class="edge">
<title>Node9&#45;&gt;Node14</title>
<path fill="none" stroke="midnightblue" d="M630.69,-75.46C640.08,-66.35 654.92,-51.94 667.46,-39.76"/>
<polygon fill="midnightblue" stroke="midnightblue" points="670.17,-42.01 674.9,-32.53 665.29,-36.99 670.17,-42.01"/>
</g>
<!-- Node15 -->
<g id="node15" class="node">
<title>Node15</title>
<g id="a_node15"><a xlink:title=" ">
<polygon fill="white" stroke="#bfbfbf" points="758.04,-6.5 758.04,-26.5 850.73,-26.5 850.73,-6.5 758.04,-6.5"/>
<text text-anchor="middle" x="804.39" y="-13.5" font-family="Helvetica,sans-Serif" font-size="10.00">boost/variant.hpp</text>
</a>
</g>
</g>
<!-- Node9&#45;&gt;Node15 -->
<g id="edge17" class="edge">
<title>Node9&#45;&gt;Node15</title>
<path fill="none" stroke="midnightblue" d="M646.07,-75.46C677.99,-63.78 733.78,-43.35 769.89,-30.13"/>
<polygon fill="midnightblue" stroke="midnightblue" points="771.33,-33.33 779.51,-26.61 768.92,-26.76 771.33,-33.33"/>
</g>
<!-- Node16 -->
<g id="node16" class="node">
<title>Node16</title>
<g id="a_node16"><a xlink:title=" ">
<polygon fill="white" stroke="#bfbfbf" points="284.43,-6.5 284.43,-26.5 394.34,-26.5 394.34,-6.5 284.43,-6.5"/>
<text text-anchor="middle" x="339.39" y="-13.5" font-family="Helvetica,sans-Serif" font-size="10.00">fisch/vx/container.def</text>
</a>
</g>
</g>
<!-- Node9&#45;&gt;Node16 -->
<g id="edge18" class="edge">
<title>Node9&#45;&gt;Node16</title>
<path fill="none" stroke="midnightblue" d="M582.78,-75.45C539.19,-65.21 466.17,-48.02 403.39,-33 397.97,-31.7 392.29,-30.34 386.65,-28.98"/>
<polygon fill="midnightblue" stroke="midnightblue" points="387.15,-25.5 376.6,-26.55 385.5,-32.3 387.15,-25.5"/>
</g>
<!-- Node17&#45;&gt;Node3 -->
<g id="edge24" class="edge">
<title>Node17&#45;&gt;Node3</title>
<path fill="none" stroke="midnightblue" d="M1050.48,-75.49C1116.06,-60.75 1239.11,-33.1 1239.39,-33 1241.06,-32.4 1242.76,-31.74 1244.46,-31.03"/>
<polygon fill="midnightblue" stroke="midnightblue" points="1246.37,-34 1253.98,-26.63 1243.43,-27.65 1246.37,-34"/>
</g>
<!-- Node17&#45;&gt;Node12 -->
<g id="edge21" class="edge">
<title>Node17&#45;&gt;Node12</title>
<path fill="none" stroke="midnightblue" d="M996.9,-75.46C980.35,-64.38 952.06,-45.42 932.36,-32.22"/>
<polygon fill="midnightblue" stroke="midnightblue" points="934.24,-29.27 923.98,-26.61 930.34,-35.08 934.24,-29.27"/>
</g>
<!-- Node17&#45;&gt;Node13 -->
<g id="edge22" class="edge">
<title>Node17&#45;&gt;Node13</title>
<path fill="none" stroke="midnightblue" d="M1010.39,-75.46C1010.39,-65.63 1010.39,-49.61 1010.39,-36.9"/>
<polygon fill="midnightblue" stroke="midnightblue" points="1013.89,-36.82 1010.39,-26.82 1006.89,-36.82 1013.89,-36.82"/>
</g>
<!-- Node18 -->
<g id="node18" class="node">
<title>Node18</title>
<g id="a_node18"><a xlink:title=" ">
<polygon fill="white" stroke="#bfbfbf" points="1068.94,-6.5 1068.94,-26.5 1113.83,-26.5 1113.83,-6.5 1068.94,-6.5"/>
<text text-anchor="middle" x="1091.39" y="-13.5" font-family="Helvetica,sans-Serif" font-size="10.00">cstdint</text>
</a>
</g>
</g>
<!-- Node17&#45;&gt;Node18 -->
<g id="edge23" class="edge">
<title>Node17&#45;&gt;Node18</title>
<path fill="none" stroke="midnightblue" d="M1021.31,-75.46C1034.35,-64.67 1056.4,-46.44 1072.28,-33.3"/>
<polygon fill="midnightblue" stroke="midnightblue" points="1074.9,-35.68 1080.38,-26.61 1070.44,-30.28 1074.9,-35.68"/>
</g>
<!-- Node19 -->
<g id="node19" class="node">
<title>Node19</title>
<g id="a_node19"><a xlink:title=" ">
<polygon fill="white" stroke="#bfbfbf" points="1132.27,-6.5 1132.27,-26.5 1230.5,-26.5 1230.5,-6.5 1132.27,-6.5"/>
<text text-anchor="middle" x="1181.39" y="-13.5" font-family="Helvetica,sans-Serif" font-size="10.00">cereal/macros.hpp</text>
</a>
</g>
</g>
<!-- Node17&#45;&gt;Node19 -->
<g id="edge25" class="edge">
<title>Node17&#45;&gt;Node19</title>
<path fill="none" stroke="midnightblue" d="M1033.45,-75.46C1063.15,-63.83 1114.97,-43.52 1148.72,-30.3"/>
<polygon fill="midnightblue" stroke="midnightblue" points="1150.11,-33.51 1158.14,-26.61 1147.56,-27 1150.11,-33.51"/>
</g>
</g>
</svg>
