<?xml version="1.0" encoding="UTF-8" standalone="no"?>
<!DOCTYPE svg PUBLIC "-//W3C//DTD SVG 1.1//EN"
 "http://www.w3.org/Graphics/SVG/1.1/DTD/svg11.dtd">
<!-- Generated by graphviz version 2.46.0 (0)
 -->
<!-- Title: /jenkins/jenlib_workspaces_f9/bld_nightly&#45;haldls.YmxkX25pZ2h0bHktaGFsZGxzIzEzNzk.x/haldls/include/haldls/vx/timer.h Pages: 1 -->
<svg width="1126pt" height="716pt"
 viewBox="0.00 0.00 1126.02 716.00" xmlns="http://www.w3.org/2000/svg" xmlns:xlink="http://www.w3.org/1999/xlink">
<g id="graph0" class="graph" transform="scale(1 1) rotate(0) translate(4 712)">
<title>/jenkins/jenlib_workspaces_f9/bld_nightly&#45;haldls.YmxkX25pZ2h0bHktaGFsZGxzIzEzNzk.x/haldls/include/haldls/vx/timer.h</title>
<polygon fill="white" stroke="transparent" points="-4,4 -4,-712 1122.02,-712 1122.02,4 -4,4"/>
<!-- Node1 -->
<g id="node1" class="node">
<title>Node1</title>
<g id="a_node1"><a xlink:title=" ">
<polygon fill="#bfbfbf" stroke="black" points="580,-651.5 580,-707.5 761.02,-707.5 761.02,-651.5 580,-651.5"/>
<text text-anchor="start" x="588" y="-694.5" font-family="Helvetica,sans-Serif" font-size="10.00">/jenkins/jenlib_workspaces</text>
<text text-anchor="start" x="588" y="-682.5" font-family="Helvetica,sans-Serif" font-size="10.00">_f9/bld_nightly&#45;haldls.YmxkX25p</text>
<text text-anchor="start" x="588" y="-670.5" font-family="Helvetica,sans-Serif" font-size="10.00">Z2h0bHktaGFsZGxzIzEzNzk.x/haldls</text>
<text text-anchor="middle" x="670.51" y="-658.5" font-family="Helvetica,sans-Serif" font-size="10.00">/include/haldls/vx/timer.h</text>
</a>
</g>
</g>
<!-- Node2 -->
<g id="node2" class="node">
<title>Node2</title>
<g id="a_node2"><a xlink:href="constants_8h.html" target="_top" xlink:title=" ">
<polygon fill="white" stroke="black" points="521,-558.5 521,-614.5 702.02,-614.5 702.02,-558.5 521,-558.5"/>
<text text-anchor="start" x="529" y="-601.5" font-family="Helvetica,sans-Serif" font-size="10.00">/jenkins/jenlib_workspaces</text>
<text text-anchor="start" x="529" y="-589.5" font-family="Helvetica,sans-Serif" font-size="10.00">_f9/bld_nightly&#45;haldls.YmxkX25p</text>
<text text-anchor="start" x="529" y="-577.5" font-family="Helvetica,sans-Serif" font-size="10.00">Z2h0bHktaGFsZGxzIzEzNzk.x/haldls</text>
<text text-anchor="middle" x="611.51" y="-565.5" font-family="Helvetica,sans-Serif" font-size="10.00">/include/haldls/vx/constants.h</text>
</a>
</g>
</g>
<!-- Node1&#45;&gt;Node2 -->
<g id="edge1" class="edge">
<title>Node1&#45;&gt;Node2</title>
<path fill="none" stroke="midnightblue" d="M647.2,-642.55C641.21,-633.31 634.86,-623.51 629.2,-614.78"/>
<polygon fill="midnightblue" stroke="midnightblue" points="644.43,-644.71 652.81,-651.2 650.3,-640.9 644.43,-644.71"/>
</g>
<!-- Node17 -->
<g id="node17" class="node">
<title>Node17</title>
<g id="a_node17"><a xlink:href="fpga_8h.html" target="_top" xlink:title=" ">
<polygon fill="white" stroke="black" points="777,-372.5 777,-428.5 958.02,-428.5 958.02,-372.5 777,-372.5"/>
<text text-anchor="start" x="785" y="-415.5" font-family="Helvetica,sans-Serif" font-size="10.00">/jenkins/jenlib_workspaces</text>
<text text-anchor="start" x="785" y="-403.5" font-family="Helvetica,sans-Serif" font-size="10.00">_f9/bld_nightly&#45;haldls.YmxkX25p</text>
<text text-anchor="start" x="785" y="-391.5" font-family="Helvetica,sans-Serif" font-size="10.00">Z2h0bHktaGFsZGxzIzEzNzk.x/haldls</text>
<text text-anchor="middle" x="867.51" y="-379.5" font-family="Helvetica,sans-Serif" font-size="10.00">/include/haldls/vx/fpga.h</text>
</a>
</g>
</g>
<!-- Node1&#45;&gt;Node17 -->
<g id="edge20" class="edge">
<title>Node1&#45;&gt;Node17</title>
<path fill="none" stroke="midnightblue" d="M708.63,-644.43C740.35,-614.55 785.1,-568.69 815.51,-522 834.91,-492.22 849.97,-453.99 858.78,-428.66"/>
<polygon fill="midnightblue" stroke="midnightblue" points="706.19,-641.92 701.26,-651.3 710.96,-647.04 706.19,-641.92"/>
</g>
<!-- Node20 -->
<g id="node20" class="node">
<title>Node20</title>
<g id="a_node20"><a xlink:href="v2_2timer_8h.html" target="_top" xlink:title=" ">
<polygon fill="white" stroke="black" points="144,-558.5 144,-614.5 325.02,-614.5 325.02,-558.5 144,-558.5"/>
<text text-anchor="start" x="152" y="-601.5" font-family="Helvetica,sans-Serif" font-size="10.00">/jenkins/jenlib_workspaces</text>
<text text-anchor="start" x="152" y="-589.5" font-family="Helvetica,sans-Serif" font-size="10.00">_f9/bld_nightly&#45;haldls.YmxkX25p</text>
<text text-anchor="start" x="152" y="-577.5" font-family="Helvetica,sans-Serif" font-size="10.00">Z2h0bHktaGFsZGxzIzEzNzk.x/haldls</text>
<text text-anchor="middle" x="234.51" y="-565.5" font-family="Helvetica,sans-Serif" font-size="10.00">/include/haldls/vx/v2/timer.h</text>
</a>
</g>
</g>
<!-- Node1&#45;&gt;Node20 -->
<g id="edge25" class="edge">
<title>Node1&#45;&gt;Node20</title>
<path fill="none" stroke="midnightblue" d="M569.67,-657.45C495.91,-642.06 396.69,-621.35 325.37,-606.46"/>
<polygon fill="midnightblue" stroke="midnightblue" points="569.4,-660.97 579.9,-659.59 570.83,-654.12 569.4,-660.97"/>
</g>
<!-- Node21 -->
<g id="node21" class="node">
<title>Node21</title>
<g id="a_node21"><a xlink:href="v3_2timer_8h.html" target="_top" xlink:title=" ">
<polygon fill="white" stroke="black" points="937,-558.5 937,-614.5 1118.02,-614.5 1118.02,-558.5 937,-558.5"/>
<text text-anchor="start" x="945" y="-601.5" font-family="Helvetica,sans-Serif" font-size="10.00">/jenkins/jenlib_workspaces</text>
<text text-anchor="start" x="945" y="-589.5" font-family="Helvetica,sans-Serif" font-size="10.00">_f9/bld_nightly&#45;haldls.YmxkX25p</text>
<text text-anchor="start" x="945" y="-577.5" font-family="Helvetica,sans-Serif" font-size="10.00">Z2h0bHktaGFsZGxzIzEzNzk.x/haldls</text>
<text text-anchor="middle" x="1027.51" y="-565.5" font-family="Helvetica,sans-Serif" font-size="10.00">/include/haldls/vx/v3/timer.h</text>
</a>
</g>
</g>
<!-- Node1&#45;&gt;Node21 -->
<g id="edge27" class="edge">
<title>Node1&#45;&gt;Node21</title>
<path fill="none" stroke="midnightblue" d="M770.98,-652.89C823.05,-639.62 886.16,-623.53 936.75,-610.64"/>
<polygon fill="midnightblue" stroke="midnightblue" points="769.88,-649.56 761.06,-655.42 771.61,-656.34 769.88,-649.56"/>
</g>
<!-- Node3 -->
<g id="node3" class="node">
<title>Node3</title>
<g id="a_node3"><a xlink:href="pll_8h.html" target="_top" xlink:title=" ">
<polygon fill="white" stroke="black" points="396,-465.5 396,-521.5 577.02,-521.5 577.02,-465.5 396,-465.5"/>
<text text-anchor="start" x="404" y="-508.5" font-family="Helvetica,sans-Serif" font-size="10.00">/jenkins/jenlib_workspaces</text>
<text text-anchor="start" x="404" y="-496.5" font-family="Helvetica,sans-Serif" font-size="10.00">_f9/bld_nightly&#45;haldls.YmxkX25p</text>
<text text-anchor="start" x="404" y="-484.5" font-family="Helvetica,sans-Serif" font-size="10.00">Z2h0bHktaGFsZGxzIzEzNzk.x/haldls</text>
<text text-anchor="middle" x="486.51" y="-472.5" font-family="Helvetica,sans-Serif" font-size="10.00">/include/haldls/vx/pll.h</text>
</a>
</g>
</g>
<!-- Node2&#45;&gt;Node3 -->
<g id="edge2" class="edge">
<title>Node2&#45;&gt;Node3</title>
<path fill="none" stroke="midnightblue" d="M565.9,-552.29C552.04,-542.21 536.98,-531.25 523.75,-521.61"/>
<polygon fill="midnightblue" stroke="midnightblue" points="564.2,-555.39 574.34,-558.44 568.32,-549.73 564.2,-555.39"/>
</g>
<!-- Node15 -->
<g id="node15" class="node">
<title>Node15</title>
<g id="a_node15"><a xlink:href="v2_2constants_8h.html" target="_top" xlink:title=" ">
<polygon fill="white" stroke="black" points="0,-186.5 0,-242.5 181.02,-242.5 181.02,-186.5 0,-186.5"/>
<text text-anchor="start" x="8" y="-229.5" font-family="Helvetica,sans-Serif" font-size="10.00">/jenkins/jenlib_workspaces</text>
<text text-anchor="start" x="8" y="-217.5" font-family="Helvetica,sans-Serif" font-size="10.00">_f9/bld_nightly&#45;haldls.YmxkX25p</text>
<text text-anchor="start" x="8" y="-205.5" font-family="Helvetica,sans-Serif" font-size="10.00">Z2h0bHktaGFsZGxzIzEzNzk.x/haldls</text>
<text text-anchor="middle" x="90.51" y="-193.5" font-family="Helvetica,sans-Serif" font-size="10.00">/include/haldls/vx/v2/constants.h</text>
</a>
</g>
</g>
<!-- Node2&#45;&gt;Node15 -->
<g id="edge16" class="edge">
<title>Node2&#45;&gt;Node15</title>
<path fill="none" stroke="midnightblue" d="M510.73,-577.32C408.52,-563.61 252.76,-526.96 161.51,-429 111.99,-375.84 96.95,-287.22 92.42,-242.73"/>
<polygon fill="midnightblue" stroke="midnightblue" points="510.39,-580.8 520.75,-578.61 511.29,-573.86 510.39,-580.8"/>
</g>
<!-- Node16 -->
<g id="node16" class="node">
<title>Node16</title>
<g id="a_node16"><a xlink:href="v3_2constants_8h.html" target="_top" xlink:title=" ">
<polygon fill="white" stroke="black" points="625,-465.5 625,-521.5 806.02,-521.5 806.02,-465.5 625,-465.5"/>
<text text-anchor="start" x="633" y="-508.5" font-family="Helvetica,sans-Serif" font-size="10.00">/jenkins/jenlib_workspaces</text>
<text text-anchor="start" x="633" y="-496.5" font-family="Helvetica,sans-Serif" font-size="10.00">_f9/bld_nightly&#45;haldls.YmxkX25p</text>
<text text-anchor="start" x="633" y="-484.5" font-family="Helvetica,sans-Serif" font-size="10.00">Z2h0bHktaGFsZGxzIzEzNzk.x/haldls</text>
<text text-anchor="middle" x="715.51" y="-472.5" font-family="Helvetica,sans-Serif" font-size="10.00">/include/haldls/vx/v3/constants.h</text>
</a>
</g>
</g>
<!-- Node2&#45;&gt;Node16 -->
<g id="edge18" class="edge">
<title>Node2&#45;&gt;Node16</title>
<path fill="none" stroke="midnightblue" d="M650.11,-551.72C661.46,-541.79 673.72,-531.06 684.53,-521.61"/>
<polygon fill="midnightblue" stroke="midnightblue" points="647.65,-549.22 642.43,-558.44 652.26,-554.49 647.65,-549.22"/>
</g>
<!-- Node4 -->
<g id="node4" class="node">
<title>Node4</title>
<g id="a_node4"><a xlink:href="madc_8h.html" target="_top" xlink:title=" ">
<polygon fill="white" stroke="black" points="379,-372.5 379,-428.5 560.02,-428.5 560.02,-372.5 379,-372.5"/>
<text text-anchor="start" x="387" y="-415.5" font-family="Helvetica,sans-Serif" font-size="10.00">/jenkins/jenlib_workspaces</text>
<text text-anchor="start" x="387" y="-403.5" font-family="Helvetica,sans-Serif" font-size="10.00">_f9/bld_nightly&#45;haldls.YmxkX25p</text>
<text text-anchor="start" x="387" y="-391.5" font-family="Helvetica,sans-Serif" font-size="10.00">Z2h0bHktaGFsZGxzIzEzNzk.x/haldls</text>
<text text-anchor="middle" x="469.51" y="-379.5" font-family="Helvetica,sans-Serif" font-size="10.00">/include/haldls/vx/madc.h</text>
</a>
</g>
</g>
<!-- Node3&#45;&gt;Node4 -->
<g id="edge3" class="edge">
<title>Node3&#45;&gt;Node4</title>
<path fill="none" stroke="midnightblue" d="M479.53,-455.12C477.88,-446.3 476.15,-437.06 474.61,-428.78"/>
<polygon fill="midnightblue" stroke="midnightblue" points="476.13,-456.01 481.41,-465.2 483.01,-454.72 476.13,-456.01"/>
</g>
<!-- Node13 -->
<g id="node13" class="node">
<title>Node13</title>
<g id="a_node13"><a xlink:href="v2_2pll_8h.html" target="_top" xlink:title=" ">
<polygon fill="white" stroke="black" points="171,-372.5 171,-428.5 352.02,-428.5 352.02,-372.5 171,-372.5"/>
<text text-anchor="start" x="179" y="-415.5" font-family="Helvetica,sans-Serif" font-size="10.00">/jenkins/jenlib_workspaces</text>
<text text-anchor="start" x="179" y="-403.5" font-family="Helvetica,sans-Serif" font-size="10.00">_f9/bld_nightly&#45;haldls.YmxkX25p</text>
<text text-anchor="start" x="179" y="-391.5" font-family="Helvetica,sans-Serif" font-size="10.00">Z2h0bHktaGFsZGxzIzEzNzk.x/haldls</text>
<text text-anchor="middle" x="261.51" y="-379.5" font-family="Helvetica,sans-Serif" font-size="10.00">/include/haldls/vx/v2/pll.h</text>
</a>
</g>
</g>
<!-- Node3&#45;&gt;Node13 -->
<g id="edge12" class="edge">
<title>Node3&#45;&gt;Node13</title>
<path fill="none" stroke="midnightblue" d="M410.02,-461.56C383.57,-450.87 354.16,-438.97 328.54,-428.61"/>
<polygon fill="midnightblue" stroke="midnightblue" points="409.03,-464.94 419.61,-465.44 411.65,-458.45 409.03,-464.94"/>
</g>
<!-- Node14 -->
<g id="node14" class="node">
<title>Node14</title>
<g id="a_node14"><a xlink:href="v3_2pll_8h.html" target="_top" xlink:title=" ">
<polygon fill="white" stroke="black" points="578,-372.5 578,-428.5 759.02,-428.5 759.02,-372.5 578,-372.5"/>
<text text-anchor="start" x="586" y="-415.5" font-family="Helvetica,sans-Serif" font-size="10.00">/jenkins/jenlib_workspaces</text>
<text text-anchor="start" x="586" y="-403.5" font-family="Helvetica,sans-Serif" font-size="10.00">_f9/bld_nightly&#45;haldls.YmxkX25p</text>
<text text-anchor="start" x="586" y="-391.5" font-family="Helvetica,sans-Serif" font-size="10.00">Z2h0bHktaGFsZGxzIzEzNzk.x/haldls</text>
<text text-anchor="middle" x="668.51" y="-379.5" font-family="Helvetica,sans-Serif" font-size="10.00">/include/haldls/vx/v3/pll.h</text>
</a>
</g>
</g>
<!-- Node3&#45;&gt;Node14 -->
<g id="edge14" class="edge">
<title>Node3&#45;&gt;Node14</title>
<path fill="none" stroke="midnightblue" d="M549.79,-460.86C570.81,-450.35 594.02,-438.75 614.29,-428.61"/>
<polygon fill="midnightblue" stroke="midnightblue" points="548,-457.84 540.62,-465.44 551.13,-464.1 548,-457.84"/>
</g>
<!-- Node5 -->
<g id="node5" class="node">
<title>Node5</title>
<g id="a_node5"><a xlink:href="v2_2madc_8h.html" target="_top" xlink:title=" ">
<polygon fill="white" stroke="black" points="199,-279.5 199,-335.5 380.02,-335.5 380.02,-279.5 199,-279.5"/>
<text text-anchor="start" x="207" y="-322.5" font-family="Helvetica,sans-Serif" font-size="10.00">/jenkins/jenlib_workspaces</text>
<text text-anchor="start" x="207" y="-310.5" font-family="Helvetica,sans-Serif" font-size="10.00">_f9/bld_nightly&#45;haldls.YmxkX25p</text>
<text text-anchor="start" x="207" y="-298.5" font-family="Helvetica,sans-Serif" font-size="10.00">Z2h0bHktaGFsZGxzIzEzNzk.x/haldls</text>
<text text-anchor="middle" x="289.51" y="-286.5" font-family="Helvetica,sans-Serif" font-size="10.00">/include/haldls/vx/v2/madc.h</text>
</a>
</g>
</g>
<!-- Node4&#45;&gt;Node5 -->
<g id="edge4" class="edge">
<title>Node4&#45;&gt;Node5</title>
<path fill="none" stroke="midnightblue" d="M406.92,-367.86C386.13,-357.35 363.18,-345.75 343.13,-335.61"/>
<polygon fill="midnightblue" stroke="midnightblue" points="405.49,-371.06 415.99,-372.44 408.65,-364.81 405.49,-371.06"/>
</g>
<!-- Node9 -->
<g id="node9" class="node">
<title>Node9</title>
<g id="a_node9"><a xlink:href="v3_2madc_8h.html" target="_top" xlink:title=" ">
<polygon fill="white" stroke="black" points="398,-279.5 398,-335.5 579.02,-335.5 579.02,-279.5 398,-279.5"/>
<text text-anchor="start" x="406" y="-322.5" font-family="Helvetica,sans-Serif" font-size="10.00">/jenkins/jenlib_workspaces</text>
<text text-anchor="start" x="406" y="-310.5" font-family="Helvetica,sans-Serif" font-size="10.00">_f9/bld_nightly&#45;haldls.YmxkX25p</text>
<text text-anchor="start" x="406" y="-298.5" font-family="Helvetica,sans-Serif" font-size="10.00">Z2h0bHktaGFsZGxzIzEzNzk.x/haldls</text>
<text text-anchor="middle" x="488.51" y="-286.5" font-family="Helvetica,sans-Serif" font-size="10.00">/include/haldls/vx/v3/madc.h</text>
</a>
</g>
</g>
<!-- Node4&#45;&gt;Node9 -->
<g id="edge8" class="edge">
<title>Node4&#45;&gt;Node9</title>
<path fill="none" stroke="midnightblue" d="M477.25,-362.41C479.11,-353.5 481.07,-344.15 482.81,-335.78"/>
<polygon fill="midnightblue" stroke="midnightblue" points="473.83,-361.69 475.21,-372.2 480.68,-363.12 473.83,-361.69"/>
</g>
<!-- Node6 -->
<g id="node6" class="node">
<title>Node6</title>
<g id="a_node6"><a xlink:href="v2_2container_8h.html" target="_top" xlink:title=" ">
<polygon fill="white" stroke="black" points="199,-186.5 199,-242.5 380.02,-242.5 380.02,-186.5 199,-186.5"/>
<text text-anchor="start" x="207" y="-229.5" font-family="Helvetica,sans-Serif" font-size="10.00">/jenkins/jenlib_workspaces</text>
<text text-anchor="start" x="207" y="-217.5" font-family="Helvetica,sans-Serif" font-size="10.00">_f9/bld_nightly&#45;haldls.YmxkX25p</text>
<text text-anchor="start" x="207" y="-205.5" font-family="Helvetica,sans-Serif" font-size="10.00">Z2h0bHktaGFsZGxzIzEzNzk.x/haldls</text>
<text text-anchor="middle" x="289.51" y="-193.5" font-family="Helvetica,sans-Serif" font-size="10.00">/include/haldls/vx/v2/container.h</text>
</a>
</g>
</g>
<!-- Node5&#45;&gt;Node6 -->
<g id="edge5" class="edge">
<title>Node5&#45;&gt;Node6</title>
<path fill="none" stroke="midnightblue" d="M289.51,-269.12C289.51,-260.3 289.51,-251.06 289.51,-242.78"/>
<polygon fill="midnightblue" stroke="midnightblue" points="286.01,-269.2 289.51,-279.2 293.01,-269.2 286.01,-269.2"/>
</g>
<!-- Node7 -->
<g id="node7" class="node">
<title>Node7</title>
<g id="a_node7"><a xlink:href="v2_2haldls_8h.html" target="_top" xlink:title=" ">
<polygon fill="white" stroke="black" points="100,-93.5 100,-149.5 281.02,-149.5 281.02,-93.5 100,-93.5"/>
<text text-anchor="start" x="108" y="-136.5" font-family="Helvetica,sans-Serif" font-size="10.00">/jenkins/jenlib_workspaces</text>
<text text-anchor="start" x="108" y="-124.5" font-family="Helvetica,sans-Serif" font-size="10.00">_f9/bld_nightly&#45;haldls.YmxkX25p</text>
<text text-anchor="start" x="108" y="-112.5" font-family="Helvetica,sans-Serif" font-size="10.00">Z2h0bHktaGFsZGxzIzEzNzk.x/haldls</text>
<text text-anchor="middle" x="190.51" y="-100.5" font-family="Helvetica,sans-Serif" font-size="10.00">/include/haldls/vx/v2/haldls.h</text>
</a>
</g>
</g>
<!-- Node6&#45;&gt;Node7 -->
<g id="edge6" class="edge">
<title>Node6&#45;&gt;Node7</title>
<path fill="none" stroke="midnightblue" d="M252.45,-179.44C241.74,-169.59 230.19,-158.97 220,-149.61"/>
<polygon fill="midnightblue" stroke="midnightblue" points="250.34,-182.25 260.07,-186.44 255.08,-177.1 250.34,-182.25"/>
</g>
<!-- Node8 -->
<g id="node8" class="node">
<title>Node8</title>
<g id="a_node8"><a xlink:href="v2_2pyhaldls_8h.html" target="_top" xlink:title=" ">
<polygon fill="white" stroke="black" points="100,-0.5 100,-56.5 281.02,-56.5 281.02,-0.5 100,-0.5"/>
<text text-anchor="start" x="108" y="-43.5" font-family="Helvetica,sans-Serif" font-size="10.00">/jenkins/jenlib_workspaces</text>
<text text-anchor="start" x="108" y="-31.5" font-family="Helvetica,sans-Serif" font-size="10.00">_f9/bld_nightly&#45;haldls.YmxkX25p</text>
<text text-anchor="start" x="108" y="-19.5" font-family="Helvetica,sans-Serif" font-size="10.00">Z2h0bHktaGFsZGxzIzEzNzk.x/haldls</text>
<text text-anchor="middle" x="190.51" y="-7.5" font-family="Helvetica,sans-Serif" font-size="10.00">/include/haldls/vx/v2/pyhaldls.h</text>
</a>
</g>
</g>
<!-- Node7&#45;&gt;Node8 -->
<g id="edge7" class="edge">
<title>Node7&#45;&gt;Node8</title>
<path fill="none" stroke="midnightblue" d="M190.51,-83.12C190.51,-74.3 190.51,-65.06 190.51,-56.78"/>
<polygon fill="midnightblue" stroke="midnightblue" points="187.01,-83.2 190.51,-93.2 194.01,-83.2 187.01,-83.2"/>
</g>
<!-- Node10 -->
<g id="node10" class="node">
<title>Node10</title>
<g id="a_node10"><a xlink:href="v3_2container_8h.html" target="_top" xlink:title=" ">
<polygon fill="white" stroke="black" points="835,-186.5 835,-242.5 1016.02,-242.5 1016.02,-186.5 835,-186.5"/>
<text text-anchor="start" x="843" y="-229.5" font-family="Helvetica,sans-Serif" font-size="10.00">/jenkins/jenlib_workspaces</text>
<text text-anchor="start" x="843" y="-217.5" font-family="Helvetica,sans-Serif" font-size="10.00">_f9/bld_nightly&#45;haldls.YmxkX25p</text>
<text text-anchor="start" x="843" y="-205.5" font-family="Helvetica,sans-Serif" font-size="10.00">Z2h0bHktaGFsZGxzIzEzNzk.x/haldls</text>
<text text-anchor="middle" x="925.51" y="-193.5" font-family="Helvetica,sans-Serif" font-size="10.00">/include/haldls/vx/v3/container.h</text>
</a>
</g>
</g>
<!-- Node9&#45;&gt;Node10 -->
<g id="edge9" class="edge">
<title>Node9&#45;&gt;Node10</title>
<path fill="none" stroke="midnightblue" d="M589.01,-278.71C677.56,-258.41 768.86,-241.7 834.69,-230.4"/>
<polygon fill="midnightblue" stroke="midnightblue" points="588.02,-275.35 579.07,-281.01 589.6,-282.17 588.02,-275.35"/>
</g>
<!-- Node11 -->
<g id="node11" class="node">
<title>Node11</title>
<g id="a_node11"><a xlink:href="v3_2haldls_8h.html" target="_top" xlink:title=" ">
<polygon fill="white" stroke="black" points="913,-93.5 913,-149.5 1094.02,-149.5 1094.02,-93.5 913,-93.5"/>
<text text-anchor="start" x="921" y="-136.5" font-family="Helvetica,sans-Serif" font-size="10.00">/jenkins/jenlib_workspaces</text>
<text text-anchor="start" x="921" y="-124.5" font-family="Helvetica,sans-Serif" font-size="10.00">_f9/bld_nightly&#45;haldls.YmxkX25p</text>
<text text-anchor="start" x="921" y="-112.5" font-family="Helvetica,sans-Serif" font-size="10.00">Z2h0bHktaGFsZGxzIzEzNzk.x/haldls</text>
<text text-anchor="middle" x="1003.51" y="-100.5" font-family="Helvetica,sans-Serif" font-size="10.00">/include/haldls/vx/v3/haldls.h</text>
</a>
</g>
</g>
<!-- Node10&#45;&gt;Node11 -->
<g id="edge10" class="edge">
<title>Node10&#45;&gt;Node11</title>
<path fill="none" stroke="midnightblue" d="M955.59,-178.41C963.72,-168.91 972.41,-158.78 980.12,-149.78"/>
<polygon fill="midnightblue" stroke="midnightblue" points="952.76,-176.33 948.91,-186.2 958.08,-180.88 952.76,-176.33"/>
</g>
<!-- Node12 -->
<g id="node12" class="node">
<title>Node12</title>
<g id="a_node12"><a xlink:href="v3_2pyhaldls_8h.html" target="_top" xlink:title=" ">
<polygon fill="white" stroke="black" points="913,-0.5 913,-56.5 1094.02,-56.5 1094.02,-0.5 913,-0.5"/>
<text text-anchor="start" x="921" y="-43.5" font-family="Helvetica,sans-Serif" font-size="10.00">/jenkins/jenlib_workspaces</text>
<text text-anchor="start" x="921" y="-31.5" font-family="Helvetica,sans-Serif" font-size="10.00">_f9/bld_nightly&#45;haldls.YmxkX25p</text>
<text text-anchor="start" x="921" y="-19.5" font-family="Helvetica,sans-Serif" font-size="10.00">Z2h0bHktaGFsZGxzIzEzNzk.x/haldls</text>
<text text-anchor="middle" x="1003.51" y="-7.5" font-family="Helvetica,sans-Serif" font-size="10.00">/include/haldls/vx/v3/pyhaldls.h</text>
</a>
</g>
</g>
<!-- Node11&#45;&gt;Node12 -->
<g id="edge11" class="edge">
<title>Node11&#45;&gt;Node12</title>
<path fill="none" stroke="midnightblue" d="M1003.51,-83.12C1003.51,-74.3 1003.51,-65.06 1003.51,-56.78"/>
<polygon fill="midnightblue" stroke="midnightblue" points="1000.01,-83.2 1003.51,-93.2 1007.01,-83.2 1000.01,-83.2"/>
</g>
<!-- Node13&#45;&gt;Node6 -->
<g id="edge13" class="edge">
<title>Node13&#45;&gt;Node6</title>
<path fill="none" stroke="midnightblue" d="M211.28,-365.43C202.45,-356.92 194.49,-347.04 189.51,-336 179.09,-312.91 177.31,-301.2 189.51,-279 197.78,-263.95 211.29,-251.96 225.75,-242.64"/>
<polygon fill="midnightblue" stroke="midnightblue" points="209.09,-368.16 218.87,-372.23 213.76,-362.95 209.09,-368.16"/>
</g>
<!-- Node14&#45;&gt;Node10 -->
<g id="edge15" class="edge">
<title>Node14&#45;&gt;Node10</title>
<path fill="none" stroke="midnightblue" d="M741.97,-367.61C757.98,-358.74 774.12,-348.14 787.51,-336 810.07,-315.55 803.74,-300.29 825.51,-279 839.7,-265.12 857.4,-252.69 873.95,-242.57"/>
<polygon fill="midnightblue" stroke="midnightblue" points="740.27,-364.55 733.11,-372.37 743.57,-370.72 740.27,-364.55"/>
</g>
<!-- Node15&#45;&gt;Node7 -->
<g id="edge17" class="edge">
<title>Node15&#45;&gt;Node7</title>
<path fill="none" stroke="midnightblue" d="M127.94,-179.44C138.77,-169.59 150.43,-158.97 160.72,-149.61"/>
<polygon fill="midnightblue" stroke="midnightblue" points="125.28,-177.12 120.24,-186.44 129.99,-182.3 125.28,-177.12"/>
</g>
<!-- Node16&#45;&gt;Node11 -->
<g id="edge19" class="edge">
<title>Node16&#45;&gt;Node11</title>
<path fill="none" stroke="midnightblue" d="M816.29,-484.78C865.67,-476.84 923.77,-460.89 967.51,-429 1057.23,-363.58 1043.94,-295.49 1025.51,-186 1023.46,-173.8 1019.33,-160.82 1015.2,-149.79"/>
<polygon fill="midnightblue" stroke="midnightblue" points="815.57,-481.35 806.21,-486.31 816.62,-488.27 815.57,-481.35"/>
</g>
<!-- Node18 -->
<g id="node18" class="node">
<title>Node18</title>
<g id="a_node18"><a xlink:href="v2_2fpga_8h.html" target="_top" xlink:title=" ">
<polygon fill="white" stroke="black" points="597,-279.5 597,-335.5 778.02,-335.5 778.02,-279.5 597,-279.5"/>
<text text-anchor="start" x="605" y="-322.5" font-family="Helvetica,sans-Serif" font-size="10.00">/jenkins/jenlib_workspaces</text>
<text text-anchor="start" x="605" y="-310.5" font-family="Helvetica,sans-Serif" font-size="10.00">_f9/bld_nightly&#45;haldls.YmxkX25p</text>
<text text-anchor="start" x="605" y="-298.5" font-family="Helvetica,sans-Serif" font-size="10.00">Z2h0bHktaGFsZGxzIzEzNzk.x/haldls</text>
<text text-anchor="middle" x="687.51" y="-286.5" font-family="Helvetica,sans-Serif" font-size="10.00">/include/haldls/vx/v2/fpga.h</text>
</a>
</g>
</g>
<!-- Node17&#45;&gt;Node18 -->
<g id="edge21" class="edge">
<title>Node17&#45;&gt;Node18</title>
<path fill="none" stroke="midnightblue" d="M804.92,-367.86C784.13,-357.35 761.18,-345.75 741.13,-335.61"/>
<polygon fill="midnightblue" stroke="midnightblue" points="803.49,-371.06 813.99,-372.44 806.65,-364.81 803.49,-371.06"/>
</g>
<!-- Node19 -->
<g id="node19" class="node">
<title>Node19</title>
<g id="a_node19"><a xlink:href="v3_2fpga_8h.html" target="_top" xlink:title=" ">
<polygon fill="white" stroke="black" points="835,-279.5 835,-335.5 1016.02,-335.5 1016.02,-279.5 835,-279.5"/>
<text text-anchor="start" x="843" y="-322.5" font-family="Helvetica,sans-Serif" font-size="10.00">/jenkins/jenlib_workspaces</text>
<text text-anchor="start" x="843" y="-310.5" font-family="Helvetica,sans-Serif" font-size="10.00">_f9/bld_nightly&#45;haldls.YmxkX25p</text>
<text text-anchor="start" x="843" y="-298.5" font-family="Helvetica,sans-Serif" font-size="10.00">Z2h0bHktaGFsZGxzIzEzNzk.x/haldls</text>
<text text-anchor="middle" x="925.51" y="-286.5" font-family="Helvetica,sans-Serif" font-size="10.00">/include/haldls/vx/v3/fpga.h</text>
</a>
</g>
</g>
<!-- Node17&#45;&gt;Node19 -->
<g id="edge23" class="edge">
<title>Node17&#45;&gt;Node19</title>
<path fill="none" stroke="midnightblue" d="M890.42,-363.55C896.31,-354.31 902.56,-344.51 908.12,-335.78"/>
<polygon fill="midnightblue" stroke="midnightblue" points="887.33,-361.88 884.91,-372.2 893.24,-365.65 887.33,-361.88"/>
</g>
<!-- Node18&#45;&gt;Node6 -->
<g id="edge22" class="edge">
<title>Node18&#45;&gt;Node6</title>
<path fill="none" stroke="midnightblue" d="M586.87,-278.65C512.14,-260.53 437.02,-244.72 380.12,-233.23"/>
<polygon fill="midnightblue" stroke="midnightblue" points="586.39,-282.13 596.93,-281.1 588.04,-275.33 586.39,-282.13"/>
</g>
<!-- Node19&#45;&gt;Node10 -->
<g id="edge24" class="edge">
<title>Node19&#45;&gt;Node10</title>
<path fill="none" stroke="midnightblue" d="M925.51,-269.12C925.51,-260.3 925.51,-251.06 925.51,-242.78"/>
<polygon fill="midnightblue" stroke="midnightblue" points="922.01,-269.2 925.51,-279.2 929.01,-269.2 922.01,-269.2"/>
</g>
<!-- Node20&#45;&gt;Node6 -->
<g id="edge26" class="edge">
<title>Node20&#45;&gt;Node6</title>
<path fill="none" stroke="midnightblue" d="M212.24,-549.64C194.55,-518.92 171.23,-472.82 161.51,-429 156.02,-404.27 159.35,-397.24 161.51,-372 165.08,-330.21 153.39,-313.31 177.51,-279 188.18,-263.82 203.7,-251.81 219.81,-242.51"/>
<polygon fill="midnightblue" stroke="midnightblue" points="209.22,-551.41 217.29,-558.27 215.26,-547.87 209.22,-551.41"/>
</g>
<!-- Node21&#45;&gt;Node10 -->
<g id="edge28" class="edge">
<title>Node21&#45;&gt;Node10</title>
<path fill="none" stroke="midnightblue" d="M1037.96,-548.46C1052.84,-487.83 1073.4,-365.47 1025.51,-279 1017.14,-263.89 1003.5,-251.86 988.94,-242.51"/>
<polygon fill="midnightblue" stroke="midnightblue" points="1034.52,-547.79 1035.45,-558.35 1041.3,-549.52 1034.52,-547.79"/>
</g>
</g>
</svg>
