<?xml version="1.0" encoding="UTF-8" standalone="no"?>
<!DOCTYPE svg PUBLIC "-//W3C//DTD SVG 1.1//EN"
 "http://www.w3.org/Graphics/SVG/1.1/DTD/svg11.dtd">
<!-- Generated by graphviz version 2.46.0 (0)
 -->
<!-- Title: /jenkins/jenlib_workspaces_f9/bld_nightly&#45;haldls.YmxkX25pZ2h0bHktaGFsZGxzIzEzNzk.x/haldls/include/haldls/vx/v2/jtag.h Pages: 1 -->
<!--zoomable 260 -->
<svg id="main" version="1.1" xmlns="http://www.w3.org/2000/svg" xmlns:xlink="http://www.w3.org/1999/xlink" xml:space="preserve" onload="init(evt)">
<style type="text/css"><![CDATA[
.edge:hover path { stroke: red; }
.edge:hover polygon { stroke: red; fill: red; }
]]></style>
<script type="text/javascript"><![CDATA[
var edges = document.getElementsByTagName('g');
if (edges && edges.length) {
  for (var i=0;i<edges.length;i++) {
    if (edges[i].id.substr(0,4)=='edge') {
      edges[i].setAttribute('class','edge');
    }
  }
}
]]></script>
        <defs>
                <circle id="rim" cx="0" cy="0" r="7"/>
                <circle id="rim2" cx="0" cy="0" r="3.5"/>
                <g id="zoomPlus">
                        <use xlink:href="#rim" fill="#404040">
                                <set attributeName="fill" to="#808080" begin="zoomplus.mouseover" end="zoomplus.mouseout"/>
                        </use>
                        <path d="M-4,0h8M0,-4v8" fill="none" stroke="white" stroke-width="1.5" pointer-events="none"/>
                </g>
                <g id="zoomMin">
                        <use xlink:href="#rim" fill="#404040">
                                <set attributeName="fill" to="#808080" begin="zoomminus.mouseover" end="zoomminus.mouseout"/>
                        </use>
                        <path d="M-4,0h8" fill="none" stroke="white" stroke-width="1.5" pointer-events="none"/>
                </g>
                <g id="dirArrow">
                        <path fill="none" stroke="white" stroke-width="1.5" d="M0,-3.0v7 M-2.5,-0.5L0,-3.0L2.5,-0.5"/>
                </g>
               <g id="resetDef">
                       <use xlink:href="#rim2" fill="#404040">
                               <set attributeName="fill" to="#808080" begin="reset.mouseover" end="reset.mouseout"/>
                       </use>
               </g>
        </defs>

<script type="text/javascript">
var viewWidth = 1450;
var viewHeight = 260;
var sectionId = 'dynsection-0';
</script>
<script xlink:href="svgpan.js"/>
<svg id="graph" class="graph">
<g id="viewport">
<title>/jenkins/jenlib_workspaces_f9/bld_nightly&#45;haldls.YmxkX25pZ2h0bHktaGFsZGxzIzEzNzk.x/haldls/include/haldls/vx/v2/jtag.h</title>
<polygon fill="white" stroke="transparent" points="-4,4 -4,-256 1445.83,-256 1445.83,4 -4,4"/>
<!-- Node1 -->
<g id="node1" class="node">
<title>Node1</title>
<g id="a_node1"><a xlink:title=" ">
<polygon fill="#bfbfbf" stroke="black" points="695.25,-195.5 695.25,-251.5 876.27,-251.5 876.27,-195.5 695.25,-195.5"/>
<text text-anchor="start" x="703.25" y="-238.5" font-family="Helvetica,sans-Serif" font-size="10.00">/jenkins/jenlib_workspaces</text>
<text text-anchor="start" x="703.25" y="-226.5" font-family="Helvetica,sans-Serif" font-size="10.00">_f9/bld_nightly&#45;haldls.YmxkX25p</text>
<text text-anchor="start" x="703.25" y="-214.5" font-family="Helvetica,sans-Serif" font-size="10.00">Z2h0bHktaGFsZGxzIzEzNzk.x/haldls</text>
<text text-anchor="middle" x="785.76" y="-202.5" font-family="Helvetica,sans-Serif" font-size="10.00">/include/haldls/vx/v2/jtag.h</text>
</a>
</g>
</g>
<!-- Node2 -->
<g id="node2" class="node">
<title>Node2</title>
<g id="a_node2"><a xlink:href="genpybind_8h.html" target="_top" xlink:title=" ">
<polygon fill="white" stroke="black" points="1311.69,-6.5 1311.69,-26.5 1423.83,-26.5 1423.83,-6.5 1311.69,-6.5"/>
<text text-anchor="middle" x="1367.76" y="-13.5" font-family="Helvetica,sans-Serif" font-size="10.00">haldls/vx/genpybind.h</text>
</a>
</g>
</g>
<!-- Node1&#45;&gt;Node2 -->
<g id="edge1" class="edge">
<title>Node1&#45;&gt;Node2</title>
<path fill="none" stroke="midnightblue" d="M862.44,-195.49C989.78,-150.64 1239.97,-62.51 1332.37,-29.96"/>
<polygon fill="midnightblue" stroke="midnightblue" points="1333.82,-33.17 1342.09,-26.54 1331.49,-26.56 1333.82,-33.17"/>
</g>
<!-- Node3 -->
<g id="node3" class="node">
<title>Node3</title>
<g id="a_node3"><a xlink:href="jtag_8h.html" target="_top" xlink:title=" ">
<polygon fill="white" stroke="black" points="549.7,-138.5 549.7,-158.5 631.82,-158.5 631.82,-138.5 549.7,-138.5"/>
<text text-anchor="middle" x="590.76" y="-145.5" font-family="Helvetica,sans-Serif" font-size="10.00">haldls/vx/jtag.h</text>
</a>
</g>
</g>
<!-- Node1&#45;&gt;Node3 -->
<g id="edge3" class="edge">
<title>Node1&#45;&gt;Node3</title>
<path fill="none" stroke="midnightblue" d="M713.43,-195.42C682.94,-184.01 648.93,-171.28 624.47,-162.12"/>
<polygon fill="midnightblue" stroke="midnightblue" points="625.53,-158.78 614.94,-158.55 623.08,-165.34 625.53,-158.78"/>
</g>
<!-- Node2&#45;&gt;Node2 -->
<g id="edge2" class="edge">
<title>Node2&#45;&gt;Node2</title>
<path fill="none" stroke="midnightblue" d="M1391.65,-26.54C1415.48,-32.26 1441.83,-28.92 1441.83,-16.5 1441.83,-5.78 1422.19,-1.82 1401.5,-4.62"/>
<polygon fill="midnightblue" stroke="midnightblue" points="1400.84,-1.18 1391.65,-6.46 1402.13,-8.06 1400.84,-1.18"/>
</g>
<!-- Node3&#45;&gt;Node2 -->
<g id="edge16" class="edge">
<title>Node3&#45;&gt;Node2</title>
<path fill="none" stroke="midnightblue" d="M631.86,-142.48C694.82,-134.65 818.88,-118.7 923.76,-102 1092.84,-75.07 1135.2,-68.2 1302.76,-33 1308.87,-31.72 1315.28,-30.29 1321.6,-28.83"/>
<polygon fill="midnightblue" stroke="midnightblue" points="1322.46,-32.23 1331.4,-26.54 1320.86,-25.41 1322.46,-32.23"/>
</g>
<!-- Node4 -->
<g id="node4" class="node">
<title>Node4</title>
<g id="a_node4"><a xlink:title=" ">
<polygon fill="white" stroke="#bfbfbf" points="876.37,-75.5 876.37,-95.5 915.15,-95.5 915.15,-75.5 876.37,-75.5"/>
<text text-anchor="middle" x="895.76" y="-82.5" font-family="Helvetica,sans-Serif" font-size="10.00">array</text>
</a>
</g>
</g>
<!-- Node3&#45;&gt;Node4 -->
<g id="edge4" class="edge">
<title>Node3&#45;&gt;Node4</title>
<path fill="none" stroke="midnightblue" d="M632.21,-145.12C687.33,-140.96 787.19,-129.97 867.76,-102 869.38,-101.44 871.02,-100.78 872.65,-100.07"/>
<polygon fill="midnightblue" stroke="midnightblue" points="874.31,-103.15 881.67,-95.53 871.16,-96.9 874.31,-103.15"/>
</g>
<!-- Node5 -->
<g id="node5" class="node">
<title>Node5</title>
<g id="a_node5"><a xlink:title=" ">
<polygon fill="white" stroke="#bfbfbf" points="86.59,-6.5 86.59,-26.5 130.93,-26.5 130.93,-6.5 86.59,-6.5"/>
<text text-anchor="middle" x="108.76" y="-13.5" font-family="Helvetica,sans-Serif" font-size="10.00">iosfwd</text>
</a>
</g>
</g>
<!-- Node3&#45;&gt;Node5 -->
<g id="edge5" class="edge">
<title>Node3&#45;&gt;Node5</title>
<path fill="none" stroke="midnightblue" d="M549.53,-147.44C422.51,-146.84 43.49,-141.7 6.76,-102 -3.2,-91.23 -0.93,-81.49 6.76,-69 21.86,-44.46 52.66,-31.19 76.49,-24.3"/>
<polygon fill="midnightblue" stroke="midnightblue" points="77.43,-27.67 86.2,-21.72 75.64,-20.9 77.43,-27.67"/>
</g>
<!-- Node6 -->
<g id="node6" class="node">
<title>Node6</title>
<g id="a_node6"><a xlink:title=" ">
<polygon fill="white" stroke="#bfbfbf" points="16.14,-75.5 16.14,-95.5 119.38,-95.5 119.38,-75.5 16.14,-75.5"/>
<text text-anchor="middle" x="67.76" y="-82.5" font-family="Helvetica,sans-Serif" font-size="10.00">fisch/vx/constants.h</text>
</a>
</g>
</g>
<!-- Node3&#45;&gt;Node6 -->
<g id="edge6" class="edge">
<title>Node3&#45;&gt;Node6</title>
<path fill="none" stroke="midnightblue" d="M549.69,-145.54C468.68,-141.2 282.77,-128.99 128.76,-102 122.47,-100.9 115.88,-99.49 109.45,-97.98"/>
<polygon fill="midnightblue" stroke="midnightblue" points="110.09,-94.53 99.54,-95.54 108.41,-101.33 110.09,-94.53"/>
</g>
<!-- Node7 -->
<g id="node7" class="node">
<title>Node7</title>
<g id="a_node7"><a xlink:title=" ">
<polygon fill="white" stroke="#bfbfbf" points="137.53,-69.5 137.53,-101.5 247.99,-101.5 247.99,-69.5 137.53,-69.5"/>
<text text-anchor="start" x="145.53" y="-88.5" font-family="Helvetica,sans-Serif" font-size="10.00">fisch/vx/word_access</text>
<text text-anchor="middle" x="192.76" y="-76.5" font-family="Helvetica,sans-Serif" font-size="10.00">/type/jtag.h</text>
</a>
</g>
</g>
<!-- Node3&#45;&gt;Node7 -->
<g id="edge7" class="edge">
<title>Node3&#45;&gt;Node7</title>
<path fill="none" stroke="midnightblue" d="M549.67,-143.27C488.28,-136.65 368.83,-122.63 258.18,-102.16"/>
<polygon fill="midnightblue" stroke="midnightblue" points="258.66,-98.69 248.19,-100.29 257.37,-105.57 258.66,-98.69"/>
</g>
<!-- Node8 -->
<g id="node8" class="node">
<title>Node8</title>
<g id="a_node8"><a xlink:title=" ">
<polygon fill="white" stroke="#bfbfbf" points="265.86,-75.5 265.86,-95.5 399.66,-95.5 399.66,-75.5 265.86,-75.5"/>
<text text-anchor="middle" x="332.76" y="-82.5" font-family="Helvetica,sans-Serif" font-size="10.00">halco/common/geometry.h</text>
</a>
</g>
</g>
<!-- Node3&#45;&gt;Node8 -->
<g id="edge8" class="edge">
<title>Node3&#45;&gt;Node8</title>
<path fill="none" stroke="midnightblue" d="M552.69,-138.5C507.06,-127.71 430.53,-109.62 380.85,-97.87"/>
<polygon fill="midnightblue" stroke="midnightblue" points="381.52,-94.43 370.98,-95.54 379.91,-101.24 381.52,-94.43"/>
</g>
<!-- Node9 -->
<g id="node9" class="node">
<title>Node9</title>
<g id="a_node9"><a xlink:title=" ">
<polygon fill="white" stroke="#bfbfbf" points="417.25,-69.5 417.25,-101.5 518.27,-101.5 518.27,-69.5 417.25,-69.5"/>
<text text-anchor="start" x="425.25" y="-88.5" font-family="Helvetica,sans-Serif" font-size="10.00">halco/hicann&#45;dls/vx</text>
<text text-anchor="middle" x="467.76" y="-76.5" font-family="Helvetica,sans-Serif" font-size="10.00">/jtag.h</text>
</a>
</g>
</g>
<!-- Node3&#45;&gt;Node9 -->
<g id="edge9" class="edge">
<title>Node3&#45;&gt;Node9</title>
<path fill="none" stroke="midnightblue" d="M572.61,-138.5C555.54,-130.03 529.39,-117.07 507.48,-106.2"/>
<polygon fill="midnightblue" stroke="midnightblue" points="508.91,-103 498.39,-101.69 505.79,-109.27 508.91,-103"/>
</g>
<!-- Node10 -->
<g id="node10" class="node">
<title>Node10</title>
<g id="a_node10"><a xlink:href="cerealization_8h.html" target="_top" xlink:title=" ">
<polygon fill="white" stroke="black" points="536.08,-75.5 536.08,-95.5 645.43,-95.5 645.43,-75.5 536.08,-75.5"/>
<text text-anchor="middle" x="590.76" y="-82.5" font-family="Helvetica,sans-Serif" font-size="10.00">haldls/cerealization.h</text>
</a>
</g>
</g>
<!-- Node3&#45;&gt;Node10 -->
<g id="edge10" class="edge">
<title>Node3&#45;&gt;Node10</title>
<path fill="none" stroke="midnightblue" d="M590.76,-138.5C590.76,-129.94 590.76,-116.78 590.76,-105.85"/>
<polygon fill="midnightblue" stroke="midnightblue" points="594.26,-105.54 590.76,-95.54 587.26,-105.54 594.26,-105.54"/>
</g>
<!-- Node12 -->
<g id="node12" class="node">
<title>Node12</title>
<g id="a_node12"><a xlink:title=" ">
<polygon fill="white" stroke="#bfbfbf" points="550.26,-6.5 550.26,-26.5 631.26,-26.5 631.26,-6.5 550.26,-6.5"/>
<text text-anchor="middle" x="590.76" y="-13.5" font-family="Helvetica,sans-Serif" font-size="10.00">hate/visibility.h</text>
</a>
</g>
</g>
<!-- Node3&#45;&gt;Node12 -->
<g id="edge27" class="edge">
<title>Node3&#45;&gt;Node12</title>
<path fill="none" stroke="midnightblue" d="M612.88,-138.39C627.69,-130.98 646.01,-118.96 654.76,-102 661.49,-88.97 661.09,-82.23 654.76,-69 647.13,-53.07 631.9,-40.5 618.21,-31.76"/>
<polygon fill="midnightblue" stroke="midnightblue" points="619.91,-28.7 609.53,-26.58 616.32,-34.71 619.91,-28.7"/>
</g>
<!-- Node15 -->
<g id="node15" class="node">
<title>Node15</title>
<g id="a_node15"><a xlink:href="traits_8h.html" target="_top" xlink:title=" ">
<polygon fill="white" stroke="black" points="770.92,-75.5 770.92,-95.5 858.6,-95.5 858.6,-75.5 770.92,-75.5"/>
<text text-anchor="middle" x="814.76" y="-82.5" font-family="Helvetica,sans-Serif" font-size="10.00">haldls/vx/traits.h</text>
</a>
</g>
</g>
<!-- Node3&#45;&gt;Node15 -->
<g id="edge17" class="edge">
<title>Node3&#45;&gt;Node15</title>
<path fill="none" stroke="midnightblue" d="M623.81,-138.5C663.1,-127.8 728.77,-109.92 771.92,-98.17"/>
<polygon fill="midnightblue" stroke="midnightblue" points="772.84,-101.54 781.57,-95.54 771,-94.79 772.84,-101.54"/>
</g>
<!-- Node10&#45;&gt;Node5 -->
<g id="edge14" class="edge">
<title>Node10&#45;&gt;Node5</title>
<path fill="none" stroke="midnightblue" d="M557.24,-75.47C547.76,-73.13 537.4,-70.77 527.76,-69 453.28,-55.31 225.99,-30.16 141.15,-20.98"/>
<polygon fill="midnightblue" stroke="midnightblue" points="141.39,-17.48 131.07,-19.89 140.64,-24.44 141.39,-17.48"/>
</g>
<!-- Node11 -->
<g id="node11" class="node">
<title>Node11</title>
<g id="a_node11"><a xlink:title=" ">
<polygon fill="white" stroke="#bfbfbf" points="449.14,-6.5 449.14,-26.5 532.38,-26.5 532.38,-6.5 449.14,-6.5"/>
<text text-anchor="middle" x="490.76" y="-13.5" font-family="Helvetica,sans-Serif" font-size="10.00">hate/type_list.h</text>
</a>
</g>
</g>
<!-- Node10&#45;&gt;Node11 -->
<g id="edge11" class="edge">
<title>Node10&#45;&gt;Node11</title>
<path fill="none" stroke="midnightblue" d="M577.27,-75.46C560.72,-64.38 532.43,-45.42 512.73,-32.22"/>
<polygon fill="midnightblue" stroke="midnightblue" points="514.61,-29.27 504.35,-26.61 510.71,-35.08 514.61,-29.27"/>
</g>
<!-- Node10&#45;&gt;Node12 -->
<g id="edge12" class="edge">
<title>Node10&#45;&gt;Node12</title>
<path fill="none" stroke="midnightblue" d="M590.76,-75.46C590.76,-65.63 590.76,-49.61 590.76,-36.9"/>
<polygon fill="midnightblue" stroke="midnightblue" points="594.26,-36.82 590.76,-26.82 587.26,-36.82 594.26,-36.82"/>
</g>
<!-- Node13 -->
<g id="node13" class="node">
<title>Node13</title>
<g id="a_node13"><a xlink:title=" ">
<polygon fill="white" stroke="#bfbfbf" points="269.31,-6.5 269.31,-26.5 314.21,-26.5 314.21,-6.5 269.31,-6.5"/>
<text text-anchor="middle" x="291.76" y="-13.5" font-family="Helvetica,sans-Serif" font-size="10.00">cstdint</text>
</a>
</g>
</g>
<!-- Node10&#45;&gt;Node13 -->
<g id="edge13" class="edge">
<title>Node10&#45;&gt;Node13</title>
<path fill="none" stroke="midnightblue" d="M555.86,-75.48C546.75,-73.24 536.91,-70.93 527.76,-69 437.68,-49.99 411.36,-61.34 323.76,-33 321.82,-32.37 319.85,-31.65 317.89,-30.87"/>
<polygon fill="midnightblue" stroke="midnightblue" points="318.9,-27.48 308.34,-26.6 316.04,-33.88 318.9,-27.48"/>
</g>
<!-- Node14 -->
<g id="node14" class="node">
<title>Node14</title>
<g id="a_node14"><a xlink:title=" ">
<polygon fill="white" stroke="#bfbfbf" points="332.64,-6.5 332.64,-26.5 430.88,-26.5 430.88,-6.5 332.64,-6.5"/>
<text text-anchor="middle" x="381.76" y="-13.5" font-family="Helvetica,sans-Serif" font-size="10.00">cereal/macros.hpp</text>
</a>
</g>
</g>
<!-- Node10&#45;&gt;Node14 -->
<g id="edge15" class="edge">
<title>Node10&#45;&gt;Node14</title>
<path fill="none" stroke="midnightblue" d="M562.57,-75.46C525.72,-63.65 461.03,-42.91 419.85,-29.71"/>
<polygon fill="midnightblue" stroke="midnightblue" points="420.76,-26.33 410.17,-26.61 418.62,-32.99 420.76,-26.33"/>
</g>
<!-- Node15&#45;&gt;Node2 -->
<g id="edge20" class="edge">
<title>Node15&#45;&gt;Node2</title>
<path fill="none" stroke="midnightblue" d="M841.74,-75.47C850.01,-73.01 859.18,-70.59 867.76,-69 1058.5,-33.59 1111.19,-63.59 1302.76,-33 1309.69,-31.89 1316.97,-30.45 1324.05,-28.88"/>
<polygon fill="midnightblue" stroke="midnightblue" points="1325.27,-32.19 1334.22,-26.52 1323.69,-25.37 1325.27,-32.19"/>
</g>
<!-- Node15&#45;&gt;Node11 -->
<g id="edge21" class="edge">
<title>Node15&#45;&gt;Node11</title>
<path fill="none" stroke="midnightblue" d="M770.77,-77.83C716.36,-69.21 621.09,-52.93 540.76,-33 536.42,-31.92 531.91,-30.69 527.45,-29.4"/>
<polygon fill="midnightblue" stroke="midnightblue" points="528.43,-26.04 517.85,-26.52 526.42,-32.74 528.43,-26.04"/>
</g>
<!-- Node15&#45;&gt;Node12 -->
<g id="edge22" class="edge">
<title>Node15&#45;&gt;Node12</title>
<path fill="none" stroke="midnightblue" d="M783.61,-75.41C748.76,-65.21 690.66,-48.12 640.76,-33 637.16,-31.91 633.41,-30.76 629.66,-29.61"/>
<polygon fill="midnightblue" stroke="midnightblue" points="630.41,-26.18 619.82,-26.58 628.35,-32.87 630.41,-26.18"/>
</g>
<!-- Node16 -->
<g id="node16" class="node">
<title>Node16</title>
<g id="a_node16"><a xlink:title=" ">
<polygon fill="white" stroke="#bfbfbf" points="887.7,-6.5 887.7,-26.5 969.82,-26.5 969.82,-6.5 887.7,-6.5"/>
<text text-anchor="middle" x="928.76" y="-13.5" font-family="Helvetica,sans-Serif" font-size="10.00">fisch/vx/traits.h</text>
</a>
</g>
</g>
<!-- Node15&#45;&gt;Node16 -->
<g id="edge18" class="edge">
<title>Node15&#45;&gt;Node16</title>
<path fill="none" stroke="midnightblue" d="M830.13,-75.46C849.26,-64.23 882.12,-44.91 904.62,-31.69"/>
<polygon fill="midnightblue" stroke="midnightblue" points="906.42,-34.69 913.26,-26.61 902.87,-28.66 906.42,-34.69"/>
</g>
<!-- Node17 -->
<g id="node17" class="node">
<title>Node17</title>
<g id="a_node17"><a xlink:title=" ">
<polygon fill="white" stroke="#bfbfbf" points="987.53,-0.5 987.53,-32.5 1097.99,-32.5 1097.99,-0.5 987.53,-0.5"/>
<text text-anchor="start" x="995.53" y="-19.5" font-family="Helvetica,sans-Serif" font-size="10.00">fisch/vx/word_access</text>
<text text-anchor="middle" x="1042.76" y="-7.5" font-family="Helvetica,sans-Serif" font-size="10.00">_type.h</text>
</a>
</g>
</g>
<!-- Node15&#45;&gt;Node17 -->
<g id="edge19" class="edge">
<title>Node15&#45;&gt;Node17</title>
<path fill="none" stroke="midnightblue" d="M845.51,-75.46C880.31,-65.24 937.88,-48.32 981.87,-35.39"/>
<polygon fill="midnightblue" stroke="midnightblue" points="982.99,-38.71 991.6,-32.53 981.02,-31.99 982.99,-38.71"/>
</g>
<!-- Node18 -->
<g id="node18" class="node">
<title>Node18</title>
<g id="a_node18"><a xlink:title=" ">
<polygon fill="white" stroke="#bfbfbf" points="1115.7,-6.5 1115.7,-26.5 1177.82,-26.5 1177.82,-6.5 1115.7,-6.5"/>
<text text-anchor="middle" x="1146.76" y="-13.5" font-family="Helvetica,sans-Serif" font-size="10.00">type_traits</text>
</a>
</g>
</g>
<!-- Node15&#45;&gt;Node18 -->
<g id="edge23" class="edge">
<title>Node15&#45;&gt;Node18</title>
<path fill="none" stroke="midnightblue" d="M843.18,-75.42C851.09,-73.11 859.71,-70.78 867.76,-69 972.66,-45.87 1002.94,-60.57 1106.76,-33 1109.93,-32.16 1113.19,-31.15 1116.41,-30.05"/>
<polygon fill="midnightblue" stroke="midnightblue" points="1117.69,-33.31 1125.87,-26.59 1115.28,-26.74 1117.69,-33.31"/>
</g>
<!-- Node19 -->
<g id="node19" class="node">
<title>Node19</title>
<g id="a_node19"><a xlink:title=" ">
<polygon fill="white" stroke="#bfbfbf" points="1195.36,-0.5 1195.36,-32.5 1294.16,-32.5 1294.16,-0.5 1195.36,-0.5"/>
<text text-anchor="start" x="1203.36" y="-19.5" font-family="Helvetica,sans-Serif" font-size="10.00">boost/utility/enable</text>
<text text-anchor="middle" x="1244.76" y="-7.5" font-family="Helvetica,sans-Serif" font-size="10.00">_if.hpp</text>
</a>
</g>
</g>
<!-- Node15&#45;&gt;Node19 -->
<g id="edge24" class="edge">
<title>Node15&#45;&gt;Node19</title>
<path fill="none" stroke="midnightblue" d="M842.32,-75.47C850.44,-73.07 859.39,-70.68 867.76,-69 1004.5,-41.5 1044.76,-58.68 1185.35,-33.1"/>
<polygon fill="midnightblue" stroke="midnightblue" points="1186.01,-36.53 1195.2,-31.26 1184.73,-29.65 1186.01,-36.53"/>
</g>
<!-- Node20 -->
<g id="node20" class="node">
<title>Node20</title>
<g id="a_node20"><a xlink:title=" ">
<polygon fill="white" stroke="#bfbfbf" points="649.41,-6.5 649.41,-26.5 742.11,-26.5 742.11,-6.5 649.41,-6.5"/>
<text text-anchor="middle" x="695.76" y="-13.5" font-family="Helvetica,sans-Serif" font-size="10.00">boost/variant.hpp</text>
</a>
</g>
</g>
<!-- Node15&#45;&gt;Node20 -->
<g id="edge25" class="edge">
<title>Node15&#45;&gt;Node20</title>
<path fill="none" stroke="midnightblue" d="M798.71,-75.46C778.75,-64.23 744.44,-44.91 720.96,-31.69"/>
<polygon fill="midnightblue" stroke="midnightblue" points="722.37,-28.46 711.93,-26.61 718.93,-34.56 722.37,-28.46"/>
</g>
<!-- Node21 -->
<g id="node21" class="node">
<title>Node21</title>
<g id="a_node21"><a xlink:title=" ">
<polygon fill="white" stroke="#bfbfbf" points="759.8,-6.5 759.8,-26.5 869.72,-26.5 869.72,-6.5 759.8,-6.5"/>
<text text-anchor="middle" x="814.76" y="-13.5" font-family="Helvetica,sans-Serif" font-size="10.00">fisch/vx/container.def</text>
</a>
</g>
</g>
<!-- Node15&#45;&gt;Node21 -->
<g id="edge26" class="edge">
<title>Node15&#45;&gt;Node21</title>
<path fill="none" stroke="midnightblue" d="M814.76,-75.46C814.76,-65.63 814.76,-49.61 814.76,-36.9"/>
<polygon fill="midnightblue" stroke="midnightblue" points="818.26,-36.82 814.76,-26.82 811.26,-36.82 818.26,-36.82"/>
</g>
</g>
</svg>
        <g id="navigator" transform="translate(0 0)" fill="#404254">
                <rect fill="#f2f5e9" fill-opacity="0.5" stroke="#606060" stroke-width=".5" x="0" y="0" width="60" height="60"/>
                <use id="zoomplus" xlink:href="#zoomPlus" x="17" y="9" onmousedown="handleZoom(evt,'in')"/>
                <use id="zoomminus" xlink:href="#zoomMin" x="42" y="9" onmousedown="handleZoom(evt,'out')"/>
                <use id="reset" xlink:href="#resetDef" x="30" y="36" onmousedown="handleReset()"/>
                <g id="arrowUp" xlink:href="#dirArrow" transform="translate(30 24)" onmousedown="handlePan(0,-1)">
                  <use xlink:href="#rim" fill="#404040">
                        <set attributeName="fill" to="#808080" begin="arrowUp.mouseover" end="arrowUp.mouseout"/>
                  </use>
                  <path fill="none" stroke="white" stroke-width="1.5" d="M0,-3.0v7 M-2.5,-0.5L0,-3.0L2.5,-0.5"/>
                </g>
                <g id="arrowRight" xlink:href="#dirArrow" transform="rotate(90) translate(36 -43)" onmousedown="handlePan(1,0)">
                  <use xlink:href="#rim" fill="#404040">
                        <set attributeName="fill" to="#808080" begin="arrowRight.mouseover" end="arrowRight.mouseout"/>
                  </use>
                  <path fill="none" stroke="white" stroke-width="1.5" d="M0,-3.0v7 M-2.5,-0.5L0,-3.0L2.5,-0.5"/>
                </g>
                <g id="arrowDown" xlink:href="#dirArrow" transform="rotate(180) translate(-30 -48)" onmousedown="handlePan(0,1)">
                  <use xlink:href="#rim" fill="#404040">
                        <set attributeName="fill" to="#808080" begin="arrowDown.mouseover" end="arrowDown.mouseout"/>
                  </use>
                  <path fill="none" stroke="white" stroke-width="1.5" d="M0,-3.0v7 M-2.5,-0.5L0,-3.0L2.5,-0.5"/>
                </g>
                <g id="arrowLeft" xlink:href="#dirArrow" transform="rotate(270) translate(-36 17)" onmousedown="handlePan(-1,0)">
                  <use xlink:href="#rim" fill="#404040">
                        <set attributeName="fill" to="#808080" begin="arrowLeft.mouseover" end="arrowLeft.mouseout"/>
                  </use>
                  <path fill="none" stroke="white" stroke-width="1.5" d="M0,-3.0v7 M-2.5,-0.5L0,-3.0L2.5,-0.5"/>
                </g>
        </g>
        <svg viewBox="0 0 15 15" width="100%" height="30px" preserveAspectRatio="xMaxYMin meet">
         <g id="arrow_out" transform="scale(0.3 0.3)">
          <a xlink:href="v2_2jtag_8h__incl_org.svg" target="_base">
           <rect id="button" ry="5" rx="5" y="6" x="6" height="38" width="38"
                fill="#f2f5e9" fill-opacity="0.5" stroke="#606060" stroke-width="1.0"/>
           <path id="arrow"
             d="M 11.500037,31.436501 C 11.940474,20.09759 22.043105,11.32322 32.158766,21.979434 L 37.068811,17.246167 C 37.068811,17.246167 37.088388,32 37.088388,32 L 22.160133,31.978069 C 22.160133,31.978069 26.997745,27.140456 26.997745,27.140456 C 18.528582,18.264221 13.291696,25.230495 11.500037,31.436501 z"
             style="fill:#404040;"/>
          </a>
         </g>
        </svg>
</svg>
