<?xml version="1.0" encoding="UTF-8" standalone="no"?>
<!DOCTYPE svg PUBLIC "-//W3C//DTD SVG 1.1//EN"
 "http://www.w3.org/Graphics/SVG/1.1/DTD/svg11.dtd">
<!-- Generated by graphviz version 2.46.0 (0)
 -->
<!-- Title: /jenkins/jenlib_workspaces_f9/bld_nightly&#45;haldls.YmxkX25pZ2h0bHktaGFsZGxzIzEzNzk.x/haldls/include/haldls/vx/v2/cadc.h Pages: 1 -->
<svg width="1301pt" height="329pt"
 viewBox="0.00 0.00 1300.52 329.00" xmlns="http://www.w3.org/2000/svg" xmlns:xlink="http://www.w3.org/1999/xlink">
<g id="graph0" class="graph" transform="scale(1 1) rotate(0) translate(4 325)">
<title>/jenkins/jenlib_workspaces_f9/bld_nightly&#45;haldls.YmxkX25pZ2h0bHktaGFsZGxzIzEzNzk.x/haldls/include/haldls/vx/v2/cadc.h</title>
<polygon fill="white" stroke="transparent" points="-4,4 -4,-325 1296.52,-325 1296.52,4 -4,4"/>
<!-- Node1 -->
<g id="node1" class="node">
<title>Node1</title>
<g id="a_node1"><a xlink:title=" ">
<polygon fill="#bfbfbf" stroke="black" points="303.94,-264.5 303.94,-320.5 484.96,-320.5 484.96,-264.5 303.94,-264.5"/>
<text text-anchor="start" x="311.94" y="-307.5" font-family="Helvetica,sans-Serif" font-size="10.00">/jenkins/jenlib_workspaces</text>
<text text-anchor="start" x="311.94" y="-295.5" font-family="Helvetica,sans-Serif" font-size="10.00">_f9/bld_nightly&#45;haldls.YmxkX25p</text>
<text text-anchor="start" x="311.94" y="-283.5" font-family="Helvetica,sans-Serif" font-size="10.00">Z2h0bHktaGFsZGxzIzEzNzk.x/haldls</text>
<text text-anchor="middle" x="394.45" y="-271.5" font-family="Helvetica,sans-Serif" font-size="10.00">/include/haldls/vx/v2/cadc.h</text>
</a>
</g>
</g>
<!-- Node2 -->
<g id="node2" class="node">
<title>Node2</title>
<g id="a_node2"><a xlink:title=" ">
<polygon fill="white" stroke="#bfbfbf" points="112.33,-195.5 112.33,-227.5 220.57,-227.5 220.57,-195.5 112.33,-195.5"/>
<text text-anchor="start" x="120.33" y="-214.5" font-family="Helvetica,sans-Serif" font-size="10.00">halco/common/typed</text>
<text text-anchor="middle" x="166.45" y="-202.5" font-family="Helvetica,sans-Serif" font-size="10.00">_array.h</text>
</a>
</g>
</g>
<!-- Node1&#45;&gt;Node2 -->
<g id="edge1" class="edge">
<title>Node1&#45;&gt;Node2</title>
<path fill="none" stroke="midnightblue" d="M316.3,-264.42C284.34,-253.35 248.18,-240.82 219.4,-230.85"/>
<polygon fill="midnightblue" stroke="midnightblue" points="220.53,-227.53 209.93,-227.57 218.24,-234.15 220.53,-227.53"/>
</g>
<!-- Node3 -->
<g id="node3" class="node">
<title>Node3</title>
<g id="a_node3"><a xlink:href="cerealization_8h.html" target="_top" xlink:title=" ">
<polygon fill="white" stroke="black" points="186.77,-69.5 186.77,-89.5 296.12,-89.5 296.12,-69.5 186.77,-69.5"/>
<text text-anchor="middle" x="241.45" y="-76.5" font-family="Helvetica,sans-Serif" font-size="10.00">haldls/cerealization.h</text>
</a>
</g>
</g>
<!-- Node1&#45;&gt;Node3 -->
<g id="edge2" class="edge">
<title>Node1&#45;&gt;Node3</title>
<path fill="none" stroke="midnightblue" d="M362.68,-264.33C335.12,-239.33 295.77,-200.02 270.45,-159 258.91,-140.32 250.89,-116.34 246.25,-99.82"/>
<polygon fill="midnightblue" stroke="midnightblue" points="249.53,-98.51 243.58,-89.74 242.76,-100.3 249.53,-98.51"/>
</g>
<!-- Node9 -->
<g id="node9" class="node">
<title>Node9</title>
<g id="a_node9"><a xlink:href="cadc_8h.html" target="_top" xlink:title=" ">
<polygon fill="white" stroke="black" points="497.88,-201.5 497.88,-221.5 585.01,-221.5 585.01,-201.5 497.88,-201.5"/>
<text text-anchor="middle" x="541.45" y="-208.5" font-family="Helvetica,sans-Serif" font-size="10.00">haldls/vx/cadc.h</text>
</a>
</g>
</g>
<!-- Node1&#45;&gt;Node9 -->
<g id="edge8" class="edge">
<title>Node1&#45;&gt;Node9</title>
<path fill="none" stroke="midnightblue" d="M445.04,-264.31C468.87,-251.5 496.29,-236.77 515.77,-226.3"/>
<polygon fill="midnightblue" stroke="midnightblue" points="517.5,-229.34 524.65,-221.53 514.18,-223.18 517.5,-229.34"/>
</g>
<!-- Node12 -->
<g id="node12" class="node">
<title>Node12</title>
<g id="a_node12"><a xlink:href="genpybind_8h.html" target="_top" xlink:title=" ">
<polygon fill="white" stroke="black" points="1162.38,-6.5 1162.38,-26.5 1274.52,-26.5 1274.52,-6.5 1162.38,-6.5"/>
<text text-anchor="middle" x="1218.45" y="-13.5" font-family="Helvetica,sans-Serif" font-size="10.00">haldls/vx/genpybind.h</text>
</a>
</g>
</g>
<!-- Node1&#45;&gt;Node12 -->
<g id="edge35" class="edge">
<title>Node1&#45;&gt;Node12</title>
<path fill="none" stroke="midnightblue" d="M485.01,-286.56C614.49,-276.56 857.4,-246.74 1043.45,-159 1110.96,-127.16 1175.16,-64.04 1203.4,-34.06"/>
<polygon fill="midnightblue" stroke="midnightblue" points="1206.15,-36.25 1210.39,-26.54 1201.02,-31.48 1206.15,-36.25"/>
</g>
<!-- Node4 -->
<g id="node4" class="node">
<title>Node4</title>
<g id="a_node4"><a xlink:title=" ">
<polygon fill="white" stroke="#bfbfbf" points="340.82,-6.5 340.82,-26.5 424.07,-26.5 424.07,-6.5 340.82,-6.5"/>
<text text-anchor="middle" x="382.45" y="-13.5" font-family="Helvetica,sans-Serif" font-size="10.00">hate/type_list.h</text>
</a>
</g>
</g>
<!-- Node3&#45;&gt;Node4 -->
<g id="edge3" class="edge">
<title>Node3&#45;&gt;Node4</title>
<path fill="none" stroke="midnightblue" d="M262.25,-69.5C286,-59.23 325.04,-42.34 352.16,-30.6"/>
<polygon fill="midnightblue" stroke="midnightblue" points="353.77,-33.72 361.56,-26.54 350.99,-27.3 353.77,-33.72"/>
</g>
<!-- Node5 -->
<g id="node5" class="node">
<title>Node5</title>
<g id="a_node5"><a xlink:title=" ">
<polygon fill="white" stroke="#bfbfbf" points="241.94,-6.5 241.94,-26.5 322.95,-26.5 322.95,-6.5 241.94,-6.5"/>
<text text-anchor="middle" x="282.45" y="-13.5" font-family="Helvetica,sans-Serif" font-size="10.00">hate/visibility.h</text>
</a>
</g>
</g>
<!-- Node3&#45;&gt;Node5 -->
<g id="edge4" class="edge">
<title>Node3&#45;&gt;Node5</title>
<path fill="none" stroke="midnightblue" d="M247.5,-69.5C253.55,-60.49 263.03,-46.39 270.59,-35.14"/>
<polygon fill="midnightblue" stroke="midnightblue" points="273.7,-36.79 276.37,-26.54 267.89,-32.88 273.7,-36.79"/>
</g>
<!-- Node6 -->
<g id="node6" class="node">
<title>Node6</title>
<g id="a_node6"><a xlink:title=" ">
<polygon fill="white" stroke="#bfbfbf" points="0,-6.5 0,-26.5 44.89,-26.5 44.89,-6.5 0,-6.5"/>
<text text-anchor="middle" x="22.45" y="-13.5" font-family="Helvetica,sans-Serif" font-size="10.00">cstdint</text>
</a>
</g>
</g>
<!-- Node3&#45;&gt;Node6 -->
<g id="edge5" class="edge">
<title>Node3&#45;&gt;Node6</title>
<path fill="none" stroke="midnightblue" d="M192.18,-69.49C153.98,-61.8 100.04,-49.38 54.45,-33 52.57,-32.33 50.66,-31.58 48.76,-30.78"/>
<polygon fill="midnightblue" stroke="midnightblue" points="49.98,-27.49 39.43,-26.55 47.09,-33.87 49.98,-27.49"/>
</g>
<!-- Node7 -->
<g id="node7" class="node">
<title>Node7</title>
<g id="a_node7"><a xlink:title=" ">
<polygon fill="white" stroke="#bfbfbf" points="63.28,-6.5 63.28,-26.5 107.61,-26.5 107.61,-6.5 63.28,-6.5"/>
<text text-anchor="middle" x="85.45" y="-13.5" font-family="Helvetica,sans-Serif" font-size="10.00">iosfwd</text>
</a>
</g>
</g>
<!-- Node3&#45;&gt;Node7 -->
<g id="edge6" class="edge">
<title>Node3&#45;&gt;Node7</title>
<path fill="none" stroke="midnightblue" d="M213.78,-69.45C188.22,-60.84 149.33,-47.15 116.45,-33 114.89,-32.33 113.3,-31.62 111.7,-30.88"/>
<polygon fill="midnightblue" stroke="midnightblue" points="113.19,-27.72 102.66,-26.54 110.16,-34.03 113.19,-27.72"/>
</g>
<!-- Node8 -->
<g id="node8" class="node">
<title>Node8</title>
<g id="a_node8"><a xlink:title=" ">
<polygon fill="white" stroke="#bfbfbf" points="125.33,-6.5 125.33,-26.5 223.57,-26.5 223.57,-6.5 125.33,-6.5"/>
<text text-anchor="middle" x="174.45" y="-13.5" font-family="Helvetica,sans-Serif" font-size="10.00">cereal/macros.hpp</text>
</a>
</g>
</g>
<!-- Node3&#45;&gt;Node8 -->
<g id="edge7" class="edge">
<title>Node3&#45;&gt;Node8</title>
<path fill="none" stroke="midnightblue" d="M231.56,-69.5C221.17,-60.04 204.61,-44.96 191.99,-33.47"/>
<polygon fill="midnightblue" stroke="midnightblue" points="194.12,-30.68 184.37,-26.54 189.41,-35.86 194.12,-30.68"/>
</g>
<!-- Node9&#45;&gt;Node3 -->
<g id="edge11" class="edge">
<title>Node9&#45;&gt;Node3</title>
<path fill="none" stroke="midnightblue" d="M497.63,-208.76C448.84,-205.09 369.14,-193.75 310.45,-159 285.05,-143.97 264.07,-116.35 252.15,-98.2"/>
<polygon fill="midnightblue" stroke="midnightblue" points="255.07,-96.28 246.77,-89.7 249.16,-100.02 255.07,-96.28"/>
</g>
<!-- Node9&#45;&gt;Node5 -->
<g id="edge33" class="edge">
<title>Node9&#45;&gt;Node5</title>
<path fill="none" stroke="midnightblue" d="M497.76,-209.94C453.87,-207.13 386.71,-196.4 343.45,-159 310.6,-130.6 322.75,-108.82 305.45,-69 300.64,-57.93 295.13,-45.59 290.71,-35.76"/>
<polygon fill="midnightblue" stroke="midnightblue" points="293.88,-34.27 286.58,-26.59 287.5,-37.15 293.88,-34.27"/>
</g>
<!-- Node10 -->
<g id="node10" class="node">
<title>Node10</title>
<g id="a_node10"><a xlink:title=" ">
<polygon fill="white" stroke="#bfbfbf" points="781.55,-132.5 781.55,-152.5 915.35,-152.5 915.35,-132.5 781.55,-132.5"/>
<text text-anchor="middle" x="848.45" y="-139.5" font-family="Helvetica,sans-Serif" font-size="10.00">halco/common/geometry.h</text>
</a>
</g>
</g>
<!-- Node9&#45;&gt;Node10 -->
<g id="edge9" class="edge">
<title>Node9&#45;&gt;Node10</title>
<path fill="none" stroke="midnightblue" d="M582.85,-201.46C638.24,-189.38 736.44,-167.94 796.67,-154.8"/>
<polygon fill="midnightblue" stroke="midnightblue" points="797.7,-158.16 806.72,-152.61 796.2,-151.32 797.7,-158.16"/>
</g>
<!-- Node11 -->
<g id="node11" class="node">
<title>Node11</title>
<g id="a_node11"><a xlink:title=" ">
<polygon fill="white" stroke="#bfbfbf" points="932.94,-126.5 932.94,-158.5 1033.96,-158.5 1033.96,-126.5 932.94,-126.5"/>
<text text-anchor="start" x="940.94" y="-145.5" font-family="Helvetica,sans-Serif" font-size="10.00">halco/hicann&#45;dls/vx</text>
<text text-anchor="middle" x="983.45" y="-133.5" font-family="Helvetica,sans-Serif" font-size="10.00">/cadc.h</text>
</a>
</g>
</g>
<!-- Node9&#45;&gt;Node11 -->
<g id="edge10" class="edge">
<title>Node9&#45;&gt;Node11</title>
<path fill="none" stroke="midnightblue" d="M585.1,-206.4C654.69,-199.48 795.16,-183.93 922.75,-159.21"/>
<polygon fill="midnightblue" stroke="midnightblue" points="923.55,-162.62 932.69,-157.26 922.2,-155.75 923.55,-162.62"/>
</g>
<!-- Node9&#45;&gt;Node12 -->
<g id="edge12" class="edge">
<title>Node9&#45;&gt;Node12</title>
<path fill="none" stroke="midnightblue" d="M563.79,-201.38C604.7,-184.88 694.6,-149.63 772.45,-126 791.77,-120.14 1060.04,-55.55 1170.97,-28.9"/>
<polygon fill="midnightblue" stroke="midnightblue" points="1171.98,-32.26 1180.88,-26.52 1170.34,-25.45 1171.98,-32.26"/>
</g>
<!-- Node13 -->
<g id="node13" class="node">
<title>Node13</title>
<g id="a_node13"><a xlink:href="sram__controller_8h.html" target="_top" xlink:title=" ">
<polygon fill="white" stroke="black" points="474,-132.5 474,-152.5 608.9,-152.5 608.9,-132.5 474,-132.5"/>
<text text-anchor="middle" x="541.45" y="-139.5" font-family="Helvetica,sans-Serif" font-size="10.00">haldls/vx/sram_controller.h</text>
</a>
</g>
</g>
<!-- Node9&#45;&gt;Node13 -->
<g id="edge14" class="edge">
<title>Node9&#45;&gt;Node13</title>
<path fill="none" stroke="midnightblue" d="M541.45,-201.46C541.45,-191.63 541.45,-175.61 541.45,-162.9"/>
<polygon fill="midnightblue" stroke="midnightblue" points="544.95,-162.82 541.45,-152.82 537.95,-162.82 544.95,-162.82"/>
</g>
<!-- Node17 -->
<g id="node17" class="node">
<title>Node17</title>
<g id="a_node17"><a xlink:href="traits_8h.html" target="_top" xlink:title=" ">
<polygon fill="white" stroke="black" points="599.61,-69.5 599.61,-89.5 687.29,-89.5 687.29,-69.5 599.61,-69.5"/>
<text text-anchor="middle" x="643.45" y="-76.5" font-family="Helvetica,sans-Serif" font-size="10.00">haldls/vx/traits.h</text>
</a>
</g>
</g>
<!-- Node9&#45;&gt;Node17 -->
<g id="edge32" class="edge">
<title>Node9&#45;&gt;Node17</title>
<path fill="none" stroke="midnightblue" d="M561.65,-201.47C578.78,-192.86 602.83,-178.32 617.45,-159 630.8,-141.34 637.5,-116.47 640.72,-99.49"/>
<polygon fill="midnightblue" stroke="midnightblue" points="644.17,-100.06 642.36,-89.62 637.27,-98.91 644.17,-100.06"/>
</g>
<!-- Node24 -->
<g id="node24" class="node">
<title>Node24</title>
<g id="a_node24"><a xlink:title=" ">
<polygon fill="white" stroke="#bfbfbf" points="352.83,-132.5 352.83,-152.5 456.07,-152.5 456.07,-132.5 352.83,-132.5"/>
<text text-anchor="middle" x="404.45" y="-139.5" font-family="Helvetica,sans-Serif" font-size="10.00">hxcomm/vx/target.h</text>
</a>
</g>
</g>
<!-- Node9&#45;&gt;Node24 -->
<g id="edge34" class="edge">
<title>Node9&#45;&gt;Node24</title>
<path fill="none" stroke="midnightblue" d="M522.97,-201.46C499.68,-190.08 459.44,-170.39 432.38,-157.16"/>
<polygon fill="midnightblue" stroke="midnightblue" points="433.59,-153.86 423.07,-152.61 430.51,-160.14 433.59,-153.86"/>
</g>
<!-- Node12&#45;&gt;Node12 -->
<g id="edge13" class="edge">
<title>Node12&#45;&gt;Node12</title>
<path fill="none" stroke="midnightblue" d="M1246.95,-26.56C1269.44,-30.45 1292.52,-27.1 1292.52,-16.5 1292.52,-7.48 1275.79,-3.71 1256.93,-5.19"/>
<polygon fill="midnightblue" stroke="midnightblue" points="1256.44,-1.72 1246.95,-6.44 1257.31,-8.67 1256.44,-1.72"/>
</g>
<!-- Node13&#45;&gt;Node3 -->
<g id="edge15" class="edge">
<title>Node13&#45;&gt;Node3</title>
<path fill="none" stroke="midnightblue" d="M497.24,-132.48C486.82,-130.35 475.74,-128.09 465.45,-126 407.6,-114.23 341.35,-100.77 295.99,-91.57"/>
<polygon fill="midnightblue" stroke="midnightblue" points="296.57,-88.11 286.07,-89.55 295.18,-94.97 296.57,-88.11"/>
</g>
<!-- Node13&#45;&gt;Node5 -->
<g id="edge31" class="edge">
<title>Node13&#45;&gt;Node5</title>
<path fill="none" stroke="midnightblue" d="M501.59,-132.47C468.35,-124.06 420.31,-109.83 381.45,-90 350.67,-74.3 319.16,-49.4 300.2,-33.25"/>
<polygon fill="midnightblue" stroke="midnightblue" points="302.26,-30.41 292.41,-26.52 297.68,-35.71 302.26,-30.41"/>
</g>
<!-- Node13&#45;&gt;Node12 -->
<g id="edge19" class="edge">
<title>Node13&#45;&gt;Node12</title>
<path fill="none" stroke="midnightblue" d="M572.77,-132.44C604.4,-122.98 654.44,-107.15 696.45,-90 716.14,-81.96 718.95,-74.68 739.45,-69 917.42,-19.64 971.12,-62.5 1153.45,-33 1160.3,-31.89 1167.49,-30.46 1174.5,-28.91"/>
<polygon fill="midnightblue" stroke="midnightblue" points="1175.61,-32.24 1184.57,-26.58 1174.03,-25.42 1175.61,-32.24"/>
</g>
<!-- Node14 -->
<g id="node14" class="node">
<title>Node14</title>
<g id="a_node14"><a xlink:href="common_8h.html" target="_top" xlink:title=" ">
<polygon fill="white" stroke="black" points="477.27,-69.5 477.27,-89.5 581.62,-89.5 581.62,-69.5 477.27,-69.5"/>
<text text-anchor="middle" x="529.45" y="-76.5" font-family="Helvetica,sans-Serif" font-size="10.00">haldls/vx/common.h</text>
</a>
</g>
</g>
<!-- Node13&#45;&gt;Node14 -->
<g id="edge16" class="edge">
<title>Node13&#45;&gt;Node14</title>
<path fill="none" stroke="midnightblue" d="M539.68,-132.5C537.98,-123.85 535.35,-110.51 533.19,-99.5"/>
<polygon fill="midnightblue" stroke="midnightblue" points="536.59,-98.67 531.23,-89.54 529.72,-100.03 536.59,-98.67"/>
</g>
<!-- Node13&#45;&gt;Node17 -->
<g id="edge20" class="edge">
<title>Node13&#45;&gt;Node17</title>
<path fill="none" stroke="midnightblue" d="M556.5,-132.5C573.15,-122.54 600.19,-106.37 619.7,-94.7"/>
<polygon fill="midnightblue" stroke="midnightblue" points="621.55,-97.67 628.34,-89.54 617.96,-91.67 621.55,-97.67"/>
</g>
<!-- Node23 -->
<g id="node23" class="node">
<title>Node23</title>
<g id="a_node23"><a xlink:title=" ">
<polygon fill="white" stroke="#bfbfbf" points="390.05,-69.5 390.05,-89.5 458.85,-89.5 458.85,-69.5 390.05,-69.5"/>
<text text-anchor="middle" x="424.45" y="-76.5" font-family="Helvetica,sans-Serif" font-size="10.00">hate/math.h</text>
</a>
</g>
</g>
<!-- Node13&#45;&gt;Node23 -->
<g id="edge30" class="edge">
<title>Node13&#45;&gt;Node23</title>
<path fill="none" stroke="midnightblue" d="M524.18,-132.5C504.83,-122.41 473.22,-105.93 450.78,-94.23"/>
<polygon fill="midnightblue" stroke="midnightblue" points="452.27,-91.06 441.78,-89.54 449.03,-97.26 452.27,-91.06"/>
</g>
<!-- Node15 -->
<g id="node15" class="node">
<title>Node15</title>
<g id="a_node15"><a xlink:title=" ">
<polygon fill="white" stroke="#bfbfbf" points="498.39,-6.5 498.39,-26.5 560.51,-26.5 560.51,-6.5 498.39,-6.5"/>
<text text-anchor="middle" x="529.45" y="-13.5" font-family="Helvetica,sans-Serif" font-size="10.00">type_traits</text>
</a>
</g>
</g>
<!-- Node14&#45;&gt;Node15 -->
<g id="edge17" class="edge">
<title>Node14&#45;&gt;Node15</title>
<path fill="none" stroke="midnightblue" d="M529.45,-69.5C529.45,-60.94 529.45,-47.78 529.45,-36.85"/>
<polygon fill="midnightblue" stroke="midnightblue" points="532.95,-36.54 529.45,-26.54 525.95,-36.54 532.95,-36.54"/>
</g>
<!-- Node16 -->
<g id="node16" class="node">
<title>Node16</title>
<g id="a_node16"><a xlink:title=" ">
<polygon fill="white" stroke="#bfbfbf" points="442.06,-6.5 442.06,-26.5 480.83,-26.5 480.83,-6.5 442.06,-6.5"/>
<text text-anchor="middle" x="461.45" y="-13.5" font-family="Helvetica,sans-Serif" font-size="10.00">utility</text>
</a>
</g>
</g>
<!-- Node14&#45;&gt;Node16 -->
<g id="edge18" class="edge">
<title>Node14&#45;&gt;Node16</title>
<path fill="none" stroke="midnightblue" d="M519.41,-69.5C508.87,-60.04 492.06,-44.96 479.25,-33.47"/>
<polygon fill="midnightblue" stroke="midnightblue" points="481.3,-30.61 471.52,-26.54 476.63,-35.82 481.3,-30.61"/>
</g>
<!-- Node17&#45;&gt;Node4 -->
<g id="edge24" class="edge">
<title>Node17&#45;&gt;Node4</title>
<path fill="none" stroke="midnightblue" d="M599.36,-70.04C556.7,-61.59 490.31,-47.78 433.45,-33 429.27,-31.91 424.91,-30.71 420.59,-29.46"/>
<polygon fill="midnightblue" stroke="midnightblue" points="421.24,-26 410.66,-26.52 419.25,-32.72 421.24,-26"/>
</g>
<!-- Node17&#45;&gt;Node5 -->
<g id="edge25" class="edge">
<title>Node17&#45;&gt;Node5</title>
<path fill="none" stroke="midnightblue" d="M599.51,-70.49C596.45,-69.97 593.4,-69.47 590.45,-69 475.67,-50.74 444.81,-58.62 331.45,-33 327.02,-32 322.42,-30.78 317.88,-29.48"/>
<polygon fill="midnightblue" stroke="midnightblue" points="318.75,-26.08 308.16,-26.53 316.71,-32.78 318.75,-26.08"/>
</g>
<!-- Node17&#45;&gt;Node12 -->
<g id="edge23" class="edge">
<title>Node17&#45;&gt;Node12</title>
<path fill="none" stroke="midnightblue" d="M687.41,-70.91C692.14,-70.21 696.89,-69.55 701.45,-69 901.5,-44.69 954.39,-64.47 1153.45,-33 1160.38,-31.9 1167.66,-30.46 1174.74,-28.9"/>
<polygon fill="midnightblue" stroke="midnightblue" points="1175.96,-32.21 1184.91,-26.54 1174.38,-25.39 1175.96,-32.21"/>
</g>
<!-- Node17&#45;&gt;Node15 -->
<g id="edge26" class="edge">
<title>Node17&#45;&gt;Node15</title>
<path fill="none" stroke="midnightblue" d="M626.63,-69.5C607.85,-59.45 577.24,-43.07 555.39,-31.38"/>
<polygon fill="midnightblue" stroke="midnightblue" points="556.81,-28.17 546.34,-26.54 553.5,-34.34 556.81,-28.17"/>
</g>
<!-- Node18 -->
<g id="node18" class="node">
<title>Node18</title>
<g id="a_node18"><a xlink:title=" ">
<polygon fill="white" stroke="#bfbfbf" points="706.39,-6.5 706.39,-26.5 788.51,-26.5 788.51,-6.5 706.39,-6.5"/>
<text text-anchor="middle" x="747.45" y="-13.5" font-family="Helvetica,sans-Serif" font-size="10.00">fisch/vx/traits.h</text>
</a>
</g>
</g>
<!-- Node17&#45;&gt;Node18 -->
<g id="edge21" class="edge">
<title>Node17&#45;&gt;Node18</title>
<path fill="none" stroke="midnightblue" d="M658.79,-69.5C675.77,-59.54 703.34,-43.37 723.24,-31.7"/>
<polygon fill="midnightblue" stroke="midnightblue" points="725.18,-34.62 732.04,-26.54 721.64,-28.58 725.18,-34.62"/>
</g>
<!-- Node19 -->
<g id="node19" class="node">
<title>Node19</title>
<g id="a_node19"><a xlink:title=" ">
<polygon fill="white" stroke="#bfbfbf" points="806.22,-0.5 806.22,-32.5 916.68,-32.5 916.68,-0.5 806.22,-0.5"/>
<text text-anchor="start" x="814.22" y="-19.5" font-family="Helvetica,sans-Serif" font-size="10.00">fisch/vx/word_access</text>
<text text-anchor="middle" x="861.45" y="-7.5" font-family="Helvetica,sans-Serif" font-size="10.00">_type.h</text>
</a>
</g>
</g>
<!-- Node17&#45;&gt;Node19 -->
<g id="edge22" class="edge">
<title>Node17&#45;&gt;Node19</title>
<path fill="none" stroke="midnightblue" d="M675.61,-69.5C707.67,-60.53 757.77,-46.51 797.88,-35.29"/>
<polygon fill="midnightblue" stroke="midnightblue" points="798.89,-38.64 807.58,-32.57 797.01,-31.9 798.89,-38.64"/>
</g>
<!-- Node20 -->
<g id="node20" class="node">
<title>Node20</title>
<g id="a_node20"><a xlink:title=" ">
<polygon fill="white" stroke="#bfbfbf" points="935.05,-0.5 935.05,-32.5 1033.85,-32.5 1033.85,-0.5 935.05,-0.5"/>
<text text-anchor="start" x="943.05" y="-19.5" font-family="Helvetica,sans-Serif" font-size="10.00">boost/utility/enable</text>
<text text-anchor="middle" x="984.45" y="-7.5" font-family="Helvetica,sans-Serif" font-size="10.00">_if.hpp</text>
</a>
</g>
</g>
<!-- Node17&#45;&gt;Node20 -->
<g id="edge27" class="edge">
<title>Node17&#45;&gt;Node20</title>
<path fill="none" stroke="midnightblue" d="M687.46,-71.28C692.18,-70.51 696.92,-69.74 701.45,-69 797.87,-53.36 825.11,-53.79 925.05,-32.96"/>
<polygon fill="midnightblue" stroke="midnightblue" points="925.89,-36.36 934.96,-30.88 924.45,-29.51 925.89,-36.36"/>
</g>
<!-- Node21 -->
<g id="node21" class="node">
<title>Node21</title>
<g id="a_node21"><a xlink:title=" ">
<polygon fill="white" stroke="#bfbfbf" points="1052.1,-6.5 1052.1,-26.5 1144.8,-26.5 1144.8,-6.5 1052.1,-6.5"/>
<text text-anchor="middle" x="1098.45" y="-13.5" font-family="Helvetica,sans-Serif" font-size="10.00">boost/variant.hpp</text>
</a>
</g>
</g>
<!-- Node17&#45;&gt;Node21 -->
<g id="edge28" class="edge">
<title>Node17&#45;&gt;Node21</title>
<path fill="none" stroke="midnightblue" d="M687.43,-71.03C692.15,-70.3 696.9,-69.61 701.45,-69 852.48,-48.67 892.72,-61.42 1042.45,-33 1047.96,-31.95 1053.72,-30.63 1059.36,-29.2"/>
<polygon fill="midnightblue" stroke="midnightblue" points="1060.55,-32.51 1069.31,-26.54 1058.74,-25.74 1060.55,-32.51"/>
</g>
<!-- Node22 -->
<g id="node22" class="node">
<title>Node22</title>
<g id="a_node22"><a xlink:title=" ">
<polygon fill="white" stroke="#bfbfbf" points="578.49,-6.5 578.49,-26.5 688.4,-26.5 688.4,-6.5 578.49,-6.5"/>
<text text-anchor="middle" x="633.45" y="-13.5" font-family="Helvetica,sans-Serif" font-size="10.00">fisch/vx/container.def</text>
</a>
</g>
</g>
<!-- Node17&#45;&gt;Node22 -->
<g id="edge29" class="edge">
<title>Node17&#45;&gt;Node22</title>
<path fill="none" stroke="midnightblue" d="M641.97,-69.5C640.55,-60.85 638.37,-47.51 636.56,-36.5"/>
<polygon fill="midnightblue" stroke="midnightblue" points="640,-35.84 634.93,-26.54 633.09,-36.97 640,-35.84"/>
</g>
</g>
</svg>
