<?xml version="1.0" encoding="UTF-8" standalone="no"?>
<!DOCTYPE svg PUBLIC "-//W3C//DTD SVG 1.1//EN"
 "http://www.w3.org/Graphics/SVG/1.1/DTD/svg11.dtd">
<!-- Generated by graphviz version 2.46.0 (0)
 -->
<!-- Title: /jenkins/jenlib_workspaces_f9/bld_nightly&#45;haldls.YmxkX25pZ2h0bHktaGFsZGxzIzEzNzk.x/haldls/include/haldls/vx/v2/madc.h Pages: 1 -->
<!--zoomable 455 -->
<svg id="main" version="1.1" xmlns="http://www.w3.org/2000/svg" xmlns:xlink="http://www.w3.org/1999/xlink" xml:space="preserve" onload="init(evt)">
<style type="text/css"><![CDATA[
.edge:hover path { stroke: red; }
.edge:hover polygon { stroke: red; fill: red; }
]]></style>
<script type="text/javascript"><![CDATA[
var edges = document.getElementsByTagName('g');
if (edges && edges.length) {
  for (var i=0;i<edges.length;i++) {
    if (edges[i].id.substr(0,4)=='edge') {
      edges[i].setAttribute('class','edge');
    }
  }
}
]]></script>
        <defs>
                <circle id="rim" cx="0" cy="0" r="7"/>
                <circle id="rim2" cx="0" cy="0" r="3.5"/>
                <g id="zoomPlus">
                        <use xlink:href="#rim" fill="#404040">
                                <set attributeName="fill" to="#808080" begin="zoomplus.mouseover" end="zoomplus.mouseout"/>
                        </use>
                        <path d="M-4,0h8M0,-4v8" fill="none" stroke="white" stroke-width="1.5" pointer-events="none"/>
                </g>
                <g id="zoomMin">
                        <use xlink:href="#rim" fill="#404040">
                                <set attributeName="fill" to="#808080" begin="zoomminus.mouseover" end="zoomminus.mouseout"/>
                        </use>
                        <path d="M-4,0h8" fill="none" stroke="white" stroke-width="1.5" pointer-events="none"/>
                </g>
                <g id="dirArrow">
                        <path fill="none" stroke="white" stroke-width="1.5" d="M0,-3.0v7 M-2.5,-0.5L0,-3.0L2.5,-0.5"/>
                </g>
               <g id="resetDef">
                       <use xlink:href="#rim2" fill="#404040">
                               <set attributeName="fill" to="#808080" begin="reset.mouseover" end="reset.mouseout"/>
                       </use>
               </g>
        </defs>

<script type="text/javascript">
var viewWidth = 1418;
var viewHeight = 455;
var sectionId = 'dynsection-0';
</script>
<script xlink:href="svgpan.js"/>
<svg id="graph" class="graph">
<g id="viewport">
<title>/jenkins/jenlib_workspaces_f9/bld_nightly&#45;haldls.YmxkX25pZ2h0bHktaGFsZGxzIzEzNzk.x/haldls/include/haldls/vx/v2/madc.h</title>
<polygon fill="white" stroke="transparent" points="-4,4 -4,-451 1414.07,-451 1414.07,4 -4,4"/>
<!-- Node1 -->
<g id="node1" class="node">
<title>Node1</title>
<g id="a_node1"><a xlink:title=" ">
<polygon fill="#bfbfbf" stroke="black" points="779.49,-390.5 779.49,-446.5 960.51,-446.5 960.51,-390.5 779.49,-390.5"/>
<text text-anchor="start" x="787.49" y="-433.5" font-family="Helvetica,sans-Serif" font-size="10.00">/jenkins/jenlib_workspaces</text>
<text text-anchor="start" x="787.49" y="-421.5" font-family="Helvetica,sans-Serif" font-size="10.00">_f9/bld_nightly&#45;haldls.YmxkX25p</text>
<text text-anchor="start" x="787.49" y="-409.5" font-family="Helvetica,sans-Serif" font-size="10.00">Z2h0bHktaGFsZGxzIzEzNzk.x/haldls</text>
<text text-anchor="middle" x="870" y="-397.5" font-family="Helvetica,sans-Serif" font-size="10.00">/include/haldls/vx/v2/madc.h</text>
</a>
</g>
</g>
<!-- Node2 -->
<g id="node2" class="node">
<title>Node2</title>
<g id="a_node2"><a xlink:href="genpybind_8h.html" target="_top" xlink:title=" ">
<polygon fill="white" stroke="black" points="1279.93,-6.5 1279.93,-26.5 1392.07,-26.5 1392.07,-6.5 1279.93,-6.5"/>
<text text-anchor="middle" x="1336" y="-13.5" font-family="Helvetica,sans-Serif" font-size="10.00">haldls/vx/genpybind.h</text>
</a>
</g>
</g>
<!-- Node1&#45;&gt;Node2 -->
<g id="edge1" class="edge">
<title>Node1&#45;&gt;Node2</title>
<path fill="none" stroke="midnightblue" d="M960.63,-408.02C1089.44,-391.99 1310,-353.96 1310,-281.5 1310,-281.5 1310,-281.5 1310,-147.5 1310,-107.2 1322.16,-61.21 1329.85,-36.17"/>
<polygon fill="midnightblue" stroke="midnightblue" points="1333.23,-37.11 1332.92,-26.52 1326.55,-34.99 1333.23,-37.11"/>
</g>
<!-- Node3 -->
<g id="node3" class="node">
<title>Node3</title>
<g id="a_node3"><a xlink:href="madc_8h.html" target="_top" xlink:title=" ">
<polygon fill="white" stroke="black" points="466.77,-333.5 466.77,-353.5 557.23,-353.5 557.23,-333.5 466.77,-333.5"/>
<text text-anchor="middle" x="512" y="-340.5" font-family="Helvetica,sans-Serif" font-size="10.00">haldls/vx/madc.h</text>
</a>
</g>
</g>
<!-- Node1&#45;&gt;Node3 -->
<g id="edge3" class="edge">
<title>Node1&#45;&gt;Node3</title>
<path fill="none" stroke="midnightblue" d="M779.2,-398.98C712.11,-385.31 623,-367.13 566.55,-355.62"/>
<polygon fill="midnightblue" stroke="midnightblue" points="566.91,-352.12 556.41,-353.56 565.51,-358.98 566.91,-352.12"/>
</g>
<!-- Node2&#45;&gt;Node2 -->
<g id="edge2" class="edge">
<title>Node2&#45;&gt;Node2</title>
<path fill="none" stroke="midnightblue" d="M1359.9,-26.54C1383.72,-32.26 1410.07,-28.92 1410.07,-16.5 1410.07,-5.78 1390.43,-1.82 1369.74,-4.62"/>
<polygon fill="midnightblue" stroke="midnightblue" points="1369.08,-1.18 1359.9,-6.46 1370.37,-8.06 1369.08,-1.18"/>
</g>
<!-- Node3&#45;&gt;Node2 -->
<g id="edge17" class="edge">
<title>Node3&#45;&gt;Node2</title>
<path fill="none" stroke="midnightblue" d="M557.32,-340.75C668.73,-336.1 953.53,-322.07 1045,-297 1128.3,-274.17 1220,-298.87 1220,-212.5 1220,-212.5 1220,-212.5 1220,-147.5 1220,-94.14 1275.09,-52.59 1309.34,-31.91"/>
<polygon fill="midnightblue" stroke="midnightblue" points="1311.5,-34.7 1318.38,-26.64 1307.98,-28.65 1311.5,-34.7"/>
</g>
<!-- Node4 -->
<g id="node4" class="node">
<title>Node4</title>
<g id="a_node4"><a xlink:title=" ">
<polygon fill="white" stroke="#bfbfbf" points="227.61,-75.5 227.61,-95.5 266.39,-95.5 266.39,-75.5 227.61,-75.5"/>
<text text-anchor="middle" x="247" y="-82.5" font-family="Helvetica,sans-Serif" font-size="10.00">array</text>
</a>
</g>
</g>
<!-- Node3&#45;&gt;Node4 -->
<g id="edge4" class="edge">
<title>Node3&#45;&gt;Node4</title>
<path fill="none" stroke="midnightblue" d="M466.52,-340.32C362.52,-334.95 113.96,-319.86 84,-297 46.72,-268.55 33.46,-235.56 57,-195 91.78,-135.09 173.44,-105.47 217.53,-93.39"/>
<polygon fill="midnightblue" stroke="midnightblue" points="218.57,-96.74 227.36,-90.82 216.8,-89.97 218.57,-96.74"/>
</g>
<!-- Node5 -->
<g id="node5" class="node">
<title>Node5</title>
<g id="a_node5"><a xlink:title=" ">
<polygon fill="white" stroke="#bfbfbf" points="175.83,-6.5 175.83,-26.5 220.17,-26.5 220.17,-6.5 175.83,-6.5"/>
<text text-anchor="middle" x="198" y="-13.5" font-family="Helvetica,sans-Serif" font-size="10.00">iosfwd</text>
</a>
</g>
</g>
<!-- Node3&#45;&gt;Node5 -->
<g id="edge5" class="edge">
<title>Node3&#45;&gt;Node5</title>
<path fill="none" stroke="midnightblue" d="M466.65,-343.13C364.16,-343.75 118.31,-340.53 50,-297 13.2,-273.55 0,-256.14 0,-212.5 0,-212.5 0,-212.5 0,-147.5 0,-69.11 109.8,-35.38 165.87,-23.27"/>
<polygon fill="midnightblue" stroke="midnightblue" points="166.58,-26.69 175.67,-21.25 165.17,-19.84 166.58,-26.69"/>
</g>
<!-- Node6 -->
<g id="node6" class="node">
<title>Node6</title>
<g id="a_node6"><a xlink:title=" ">
<polygon fill="white" stroke="#bfbfbf" points="65.88,-195.5 65.88,-227.5 174.12,-227.5 174.12,-195.5 65.88,-195.5"/>
<text text-anchor="start" x="73.88" y="-214.5" font-family="Helvetica,sans-Serif" font-size="10.00">halco/common/typed</text>
<text text-anchor="middle" x="120" y="-202.5" font-family="Helvetica,sans-Serif" font-size="10.00">_array.h</text>
</a>
</g>
</g>
<!-- Node3&#45;&gt;Node6 -->
<g id="edge6" class="edge">
<title>Node3&#45;&gt;Node6</title>
<path fill="none" stroke="midnightblue" d="M466.68,-340.9C363.78,-336.82 119.49,-324.31 95,-297 79.99,-280.26 90.45,-254.9 102.09,-236.32"/>
<polygon fill="midnightblue" stroke="midnightblue" points="105.13,-238.08 107.79,-227.82 99.31,-234.18 105.13,-238.08"/>
</g>
<!-- Node7 -->
<g id="node7" class="node">
<title>Node7</title>
<g id="a_node7"><a xlink:title=" ">
<polygon fill="white" stroke="#bfbfbf" points="104.49,-264.5 104.49,-296.5 205.51,-296.5 205.51,-264.5 104.49,-264.5"/>
<text text-anchor="start" x="112.49" y="-283.5" font-family="Helvetica,sans-Serif" font-size="10.00">halco/hicann&#45;dls/vx</text>
<text text-anchor="middle" x="155" y="-271.5" font-family="Helvetica,sans-Serif" font-size="10.00">/chip.h</text>
</a>
</g>
</g>
<!-- Node3&#45;&gt;Node7 -->
<g id="edge7" class="edge">
<title>Node3&#45;&gt;Node7</title>
<path fill="none" stroke="midnightblue" d="M466.55,-337.07C409.89,-329.98 309.92,-316.36 215.74,-297.25"/>
<polygon fill="midnightblue" stroke="midnightblue" points="216.27,-293.78 205.77,-295.2 214.86,-300.64 216.27,-293.78"/>
</g>
<!-- Node8 -->
<g id="node8" class="node">
<title>Node8</title>
<g id="a_node8"><a xlink:title=" ">
<polygon fill="white" stroke="#bfbfbf" points="223.49,-264.5 223.49,-296.5 324.51,-296.5 324.51,-264.5 223.49,-264.5"/>
<text text-anchor="start" x="231.49" y="-283.5" font-family="Helvetica,sans-Serif" font-size="10.00">halco/hicann&#45;dls/vx</text>
<text text-anchor="middle" x="274" y="-271.5" font-family="Helvetica,sans-Serif" font-size="10.00">/madc.h</text>
</a>
</g>
</g>
<!-- Node3&#45;&gt;Node8 -->
<g id="edge8" class="edge">
<title>Node3&#45;&gt;Node8</title>
<path fill="none" stroke="midnightblue" d="M475.98,-333.43C441.86,-324.83 388.94,-311.42 334.37,-297.34"/>
<polygon fill="midnightblue" stroke="midnightblue" points="335.08,-293.91 324.52,-294.8 333.33,-300.69 335.08,-293.91"/>
</g>
<!-- Node9 -->
<g id="node9" class="node">
<title>Node9</title>
<g id="a_node9"><a xlink:title=" ">
<polygon fill="white" stroke="#bfbfbf" points="342.49,-264.5 342.49,-296.5 443.51,-296.5 443.51,-264.5 342.49,-264.5"/>
<text text-anchor="start" x="350.49" y="-283.5" font-family="Helvetica,sans-Serif" font-size="10.00">halco/hicann&#45;dls/vx</text>
<text text-anchor="middle" x="393" y="-271.5" font-family="Helvetica,sans-Serif" font-size="10.00">/readout.h</text>
</a>
</g>
</g>
<!-- Node3&#45;&gt;Node9 -->
<g id="edge9" class="edge">
<title>Node3&#45;&gt;Node9</title>
<path fill="none" stroke="midnightblue" d="M494.44,-333.5C478,-325.07 452.85,-312.18 431.72,-301.35"/>
<polygon fill="midnightblue" stroke="midnightblue" points="433.13,-298.14 422.64,-296.69 429.94,-304.37 433.13,-298.14"/>
</g>
<!-- Node10 -->
<g id="node10" class="node">
<title>Node10</title>
<g id="a_node10"><a xlink:title=" ">
<polygon fill="white" stroke="#bfbfbf" points="461.49,-264.5 461.49,-296.5 562.51,-296.5 562.51,-264.5 461.49,-264.5"/>
<text text-anchor="start" x="469.49" y="-283.5" font-family="Helvetica,sans-Serif" font-size="10.00">halco/hicann&#45;dls/vx</text>
<text text-anchor="middle" x="512" y="-271.5" font-family="Helvetica,sans-Serif" font-size="10.00">/synapse.h</text>
</a>
</g>
</g>
<!-- Node3&#45;&gt;Node10 -->
<g id="edge10" class="edge">
<title>Node3&#45;&gt;Node10</title>
<path fill="none" stroke="midnightblue" d="M512,-333.5C512,-326.47 512,-316.34 512,-306.88"/>
<polygon fill="midnightblue" stroke="midnightblue" points="515.5,-306.69 512,-296.69 508.5,-306.69 515.5,-306.69"/>
</g>
<!-- Node11 -->
<g id="node11" class="node">
<title>Node11</title>
<g id="a_node11"><a xlink:href="cerealization_8h.html" target="_top" xlink:title=" ">
<polygon fill="white" stroke="black" points="322.32,-75.5 322.32,-95.5 431.68,-95.5 431.68,-75.5 322.32,-75.5"/>
<text text-anchor="middle" x="377" y="-82.5" font-family="Helvetica,sans-Serif" font-size="10.00">haldls/cerealization.h</text>
</a>
</g>
</g>
<!-- Node3&#45;&gt;Node11 -->
<g id="edge11" class="edge">
<title>Node3&#45;&gt;Node11</title>
<path fill="none" stroke="midnightblue" d="M532.19,-333.36C546.18,-325.81 563.74,-313.63 572,-297 578.52,-283.86 580.88,-275.67 572,-264 535.7,-216.28 487.65,-266.86 442,-228 404.03,-195.68 387.03,-136.48 380.5,-105.91"/>
<polygon fill="midnightblue" stroke="midnightblue" points="383.85,-104.85 378.48,-95.71 376.99,-106.2 383.85,-104.85"/>
</g>
<!-- Node13 -->
<g id="node13" class="node">
<title>Node13</title>
<g id="a_node13"><a xlink:title=" ">
<polygon fill="white" stroke="#bfbfbf" points="518.5,-6.5 518.5,-26.5 599.5,-26.5 599.5,-6.5 518.5,-6.5"/>
<text text-anchor="middle" x="559" y="-13.5" font-family="Helvetica,sans-Serif" font-size="10.00">hate/visibility.h</text>
</a>
</g>
</g>
<!-- Node3&#45;&gt;Node13 -->
<g id="edge50" class="edge">
<title>Node3&#45;&gt;Node13</title>
<path fill="none" stroke="midnightblue" d="M557.46,-337.65C659.81,-325.68 903.14,-291.06 951,-228 981.58,-187.71 988.78,-130.89 917,-69 864.65,-23.85 675.6,-47.49 608,-33 603.51,-32.04 598.85,-30.84 594.26,-29.53"/>
<polygon fill="midnightblue" stroke="midnightblue" points="595.02,-26.1 584.44,-26.56 593,-32.8 595.02,-26.1"/>
</g>
<!-- Node16 -->
<g id="node16" class="node">
<title>Node16</title>
<g id="a_node16"><a xlink:href="pll_8h.html" target="_top" xlink:title=" ">
<polygon fill="white" stroke="black" points="619,-270.5 619,-290.5 695,-290.5 695,-270.5 619,-270.5"/>
<text text-anchor="middle" x="657" y="-277.5" font-family="Helvetica,sans-Serif" font-size="10.00">haldls/vx/pll.h</text>
</a>
</g>
</g>
<!-- Node3&#45;&gt;Node16 -->
<g id="edge18" class="edge">
<title>Node3&#45;&gt;Node16</title>
<path fill="none" stroke="midnightblue" d="M533.4,-333.5C557.92,-323.18 598.31,-306.19 626.22,-294.45"/>
<polygon fill="midnightblue" stroke="midnightblue" points="627.66,-297.64 635.52,-290.54 624.94,-291.19 627.66,-297.64"/>
</g>
<!-- Node23 -->
<g id="node23" class="node">
<title>Node23</title>
<g id="a_node23"><a xlink:href="traits_8h.html" target="_top" xlink:title=" ">
<polygon fill="white" stroke="black" points="964.16,-75.5 964.16,-95.5 1051.84,-95.5 1051.84,-75.5 964.16,-75.5"/>
<text text-anchor="middle" x="1008" y="-82.5" font-family="Helvetica,sans-Serif" font-size="10.00">haldls/vx/traits.h</text>
</a>
</g>
</g>
<!-- Node3&#45;&gt;Node23 -->
<g id="edge49" class="edge">
<title>Node3&#45;&gt;Node23</title>
<path fill="none" stroke="midnightblue" d="M557.49,-341.87C676.66,-339.74 990.95,-330.94 1022,-297 1071.35,-243.05 1035.22,-145.24 1016.92,-104.78"/>
<polygon fill="midnightblue" stroke="midnightblue" points="1020.02,-103.16 1012.61,-95.58 1013.68,-106.13 1020.02,-103.16"/>
</g>
<!-- Node11&#45;&gt;Node5 -->
<g id="edge15" class="edge">
<title>Node11&#45;&gt;Node5</title>
<path fill="none" stroke="midnightblue" d="M347.37,-75.43C317.19,-65.91 269.23,-49.97 229,-33 227.44,-32.34 225.84,-31.64 224.24,-30.91"/>
<polygon fill="midnightblue" stroke="midnightblue" points="225.73,-27.74 215.2,-26.59 222.71,-34.06 225.73,-27.74"/>
</g>
<!-- Node12 -->
<g id="node12" class="node">
<title>Node12</title>
<g id="a_node12"><a xlink:title=" ">
<polygon fill="white" stroke="#bfbfbf" points="417.38,-6.5 417.38,-26.5 500.62,-26.5 500.62,-6.5 417.38,-6.5"/>
<text text-anchor="middle" x="459" y="-13.5" font-family="Helvetica,sans-Serif" font-size="10.00">hate/type_list.h</text>
</a>
</g>
</g>
<!-- Node11&#45;&gt;Node12 -->
<g id="edge12" class="edge">
<title>Node11&#45;&gt;Node12</title>
<path fill="none" stroke="midnightblue" d="M388.06,-75.46C401.39,-64.57 423.99,-46.1 440.1,-32.94"/>
<polygon fill="midnightblue" stroke="midnightblue" points="442.33,-35.64 447.85,-26.61 437.9,-30.22 442.33,-35.64"/>
</g>
<!-- Node11&#45;&gt;Node13 -->
<g id="edge13" class="edge">
<title>Node11&#45;&gt;Node13</title>
<path fill="none" stroke="midnightblue" d="M401.55,-75.46C433.3,-63.78 488.78,-43.35 524.69,-30.13"/>
<polygon fill="midnightblue" stroke="midnightblue" points="526.09,-33.35 534.26,-26.61 523.67,-26.78 526.09,-33.35"/>
</g>
<!-- Node14 -->
<g id="node14" class="node">
<title>Node14</title>
<g id="a_node14"><a xlink:title=" ">
<polygon fill="white" stroke="#bfbfbf" points="354.55,-6.5 354.55,-26.5 399.45,-26.5 399.45,-6.5 354.55,-6.5"/>
<text text-anchor="middle" x="377" y="-13.5" font-family="Helvetica,sans-Serif" font-size="10.00">cstdint</text>
</a>
</g>
</g>
<!-- Node11&#45;&gt;Node14 -->
<g id="edge14" class="edge">
<title>Node11&#45;&gt;Node14</title>
<path fill="none" stroke="midnightblue" d="M377,-75.46C377,-65.63 377,-49.61 377,-36.9"/>
<polygon fill="midnightblue" stroke="midnightblue" points="380.5,-36.82 377,-26.82 373.5,-36.82 380.5,-36.82"/>
</g>
<!-- Node15 -->
<g id="node15" class="node">
<title>Node15</title>
<g id="a_node15"><a xlink:title=" ">
<polygon fill="white" stroke="#bfbfbf" points="237.88,-6.5 237.88,-26.5 336.12,-26.5 336.12,-6.5 237.88,-6.5"/>
<text text-anchor="middle" x="287" y="-13.5" font-family="Helvetica,sans-Serif" font-size="10.00">cereal/macros.hpp</text>
</a>
</g>
</g>
<!-- Node11&#45;&gt;Node15 -->
<g id="edge16" class="edge">
<title>Node11&#45;&gt;Node15</title>
<path fill="none" stroke="midnightblue" d="M364.86,-75.46C350.23,-64.57 325.42,-46.1 307.74,-32.94"/>
<polygon fill="midnightblue" stroke="midnightblue" points="309.34,-29.77 299.23,-26.61 305.16,-35.39 309.34,-29.77"/>
</g>
<!-- Node16&#45;&gt;Node2 -->
<g id="edge46" class="edge">
<title>Node16&#45;&gt;Node2</title>
<path fill="none" stroke="midnightblue" d="M695.36,-277.46C752.7,-273.39 863.4,-261.52 951,-228 1075.74,-180.27 1086.76,-129.17 1206,-69 1236.65,-53.53 1273.11,-39.44 1299.61,-29.92"/>
<polygon fill="midnightblue" stroke="midnightblue" points="1300.99,-33.14 1309.25,-26.5 1298.65,-26.54 1300.99,-33.14"/>
</g>
<!-- Node16&#45;&gt;Node4 -->
<g id="edge19" class="edge">
<title>Node16&#45;&gt;Node4</title>
<path fill="none" stroke="midnightblue" d="M627.95,-270.44C620.5,-268.22 612.48,-265.94 605,-264 533.18,-245.39 509.66,-258.42 442,-228 369.16,-195.25 296.5,-132.64 264.27,-102.93"/>
<polygon fill="midnightblue" stroke="midnightblue" points="266.33,-100.06 256.63,-95.8 261.55,-105.18 266.33,-100.06"/>
</g>
<!-- Node16&#45;&gt;Node5 -->
<g id="edge20" class="edge">
<title>Node16&#45;&gt;Node5</title>
<path fill="none" stroke="midnightblue" d="M618.93,-272.54C543.65,-258.77 382.73,-229.23 380,-228 297.18,-190.62 268.43,-178.24 219,-102 206.12,-82.14 201.14,-54.95 199.22,-36.84"/>
<polygon fill="midnightblue" stroke="midnightblue" points="202.68,-36.32 198.35,-26.65 195.71,-36.91 202.68,-36.32"/>
</g>
<!-- Node16&#45;&gt;Node6 -->
<g id="edge22" class="edge">
<title>Node16&#45;&gt;Node6</title>
<path fill="none" stroke="midnightblue" d="M618.61,-271.77C604.05,-269.03 587.31,-266.11 572,-264 402.19,-240.6 357.26,-255.11 188,-228 186.89,-227.82 185.78,-227.64 184.66,-227.45"/>
<polygon fill="midnightblue" stroke="midnightblue" points="184.91,-223.93 174.44,-225.57 183.64,-230.82 184.91,-223.93"/>
</g>
<!-- Node16&#45;&gt;Node11 -->
<g id="edge24" class="edge">
<title>Node16&#45;&gt;Node11</title>
<path fill="none" stroke="midnightblue" d="M648.08,-270.46C631.82,-254.26 595.92,-219.66 562,-195 508.92,-156.41 441.24,-119.53 404.22,-100.29"/>
<polygon fill="midnightblue" stroke="midnightblue" points="405.56,-97.04 395.06,-95.57 402.35,-103.26 405.56,-97.04"/>
</g>
<!-- Node16&#45;&gt;Node13 -->
<g id="edge48" class="edge">
<title>Node16&#45;&gt;Node13</title>
<path fill="none" stroke="midnightblue" d="M651.5,-270.25C641.61,-254 619.61,-219.73 596,-195 550.13,-146.95 507.87,-161.83 479,-102 472.63,-88.79 471.98,-81.88 479,-69 488.46,-51.67 506.52,-39.29 523.1,-31.02"/>
<polygon fill="midnightblue" stroke="midnightblue" points="525,-34 532.61,-26.62 522.07,-27.65 525,-34"/>
</g>
<!-- Node17 -->
<g id="node17" class="node">
<title>Node17</title>
<g id="a_node17"><a xlink:title=" ">
<polygon fill="white" stroke="#bfbfbf" points="488.1,-75.5 488.1,-95.5 621.9,-95.5 621.9,-75.5 488.1,-75.5"/>
<text text-anchor="middle" x="555" y="-82.5" font-family="Helvetica,sans-Serif" font-size="10.00">halco/common/geometry.h</text>
</a>
</g>
</g>
<!-- Node16&#45;&gt;Node17 -->
<g id="edge21" class="edge">
<title>Node16&#45;&gt;Node17</title>
<path fill="none" stroke="midnightblue" d="M657.82,-270.34C659.49,-246.42 661.03,-181 633,-138 622.04,-121.18 603.45,-108.59 587.18,-100.07"/>
<polygon fill="midnightblue" stroke="midnightblue" points="588.45,-96.8 577.93,-95.52 585.36,-103.08 588.45,-96.8"/>
</g>
<!-- Node18 -->
<g id="node18" class="node">
<title>Node18</title>
<g id="a_node18"><a xlink:title=" ">
<polygon fill="white" stroke="#bfbfbf" points="451.49,-195.5 451.49,-227.5 552.51,-227.5 552.51,-195.5 451.49,-195.5"/>
<text text-anchor="start" x="459.49" y="-214.5" font-family="Helvetica,sans-Serif" font-size="10.00">halco/hicann&#45;dls/vx</text>
<text text-anchor="middle" x="502" y="-202.5" font-family="Helvetica,sans-Serif" font-size="10.00">/pll.h</text>
</a>
</g>
</g>
<!-- Node16&#45;&gt;Node18 -->
<g id="edge23" class="edge">
<title>Node16&#45;&gt;Node18</title>
<path fill="none" stroke="midnightblue" d="M636.1,-270.46C613.13,-260.54 575.59,-244.31 546.06,-231.54"/>
<polygon fill="midnightblue" stroke="midnightblue" points="547.35,-228.29 536.78,-227.53 544.57,-234.71 547.35,-228.29"/>
</g>
<!-- Node19 -->
<g id="node19" class="node">
<title>Node19</title>
<g id="a_node19"><a xlink:href="constants_8h.html" target="_top" xlink:title=" ">
<polygon fill="white" stroke="black" points="833.6,-201.5 833.6,-221.5 942.4,-221.5 942.4,-201.5 833.6,-201.5"/>
<text text-anchor="middle" x="888" y="-208.5" font-family="Helvetica,sans-Serif" font-size="10.00">haldls/vx/constants.h</text>
</a>
</g>
</g>
<!-- Node16&#45;&gt;Node19 -->
<g id="edge25" class="edge">
<title>Node16&#45;&gt;Node19</title>
<path fill="none" stroke="midnightblue" d="M688.15,-270.46C729.14,-258.58 801.29,-237.65 846.77,-224.46"/>
<polygon fill="midnightblue" stroke="midnightblue" points="847.97,-227.75 856.6,-221.61 846.02,-221.03 847.97,-227.75"/>
</g>
<!-- Node16&#45;&gt;Node23 -->
<g id="edge47" class="edge">
<title>Node16&#45;&gt;Node23</title>
<path fill="none" stroke="midnightblue" d="M673.46,-270.45C729.77,-239.49 914.97,-137.65 982.81,-100.35"/>
<polygon fill="midnightblue" stroke="midnightblue" points="984.5,-103.42 991.58,-95.53 981.13,-97.28 984.5,-103.42"/>
</g>
<!-- Node19&#45;&gt;Node2 -->
<g id="edge26" class="edge">
<title>Node19&#45;&gt;Node2</title>
<path fill="none" stroke="midnightblue" d="M907.72,-201.37C945.26,-183.73 1029.22,-143.08 1096,-102 1117.43,-88.82 1119.24,-79.74 1142,-69 1155.36,-62.7 1236.14,-42.15 1289.16,-28.99"/>
<polygon fill="midnightblue" stroke="midnightblue" points="1290.18,-32.35 1299.04,-26.55 1288.49,-25.55 1290.18,-32.35"/>
</g>
<!-- Node20 -->
<g id="node20" class="node">
<title>Node20</title>
<g id="a_node20"><a xlink:href="timer_8h.html" target="_top" xlink:title=" ">
<polygon fill="white" stroke="black" points="685.89,-138.5 685.89,-158.5 774.11,-158.5 774.11,-138.5 685.89,-138.5"/>
<text text-anchor="middle" x="730" y="-145.5" font-family="Helvetica,sans-Serif" font-size="10.00">haldls/vx/timer.h</text>
</a>
</g>
</g>
<!-- Node19&#45;&gt;Node20 -->
<g id="edge27" class="edge">
<title>Node19&#45;&gt;Node20</title>
<path fill="none" stroke="midnightblue" d="M864.69,-201.5C837.73,-191.09 793.18,-173.89 762.75,-162.14"/>
<polygon fill="midnightblue" stroke="midnightblue" points="764,-158.87 753.41,-158.54 761.48,-165.4 764,-158.87"/>
</g>
<!-- Node20&#45;&gt;Node2 -->
<g id="edge34" class="edge">
<title>Node20&#45;&gt;Node2</title>
<path fill="none" stroke="midnightblue" d="M774.18,-148.49C839.46,-148.42 964.39,-142.35 1061,-102 1083.23,-92.72 1082.14,-79.12 1104,-69 1172.91,-37.11 1196.96,-49.81 1271,-33 1276.73,-31.7 1282.73,-30.31 1288.67,-28.91"/>
<polygon fill="midnightblue" stroke="midnightblue" points="1289.64,-32.28 1298.57,-26.57 1288.03,-25.47 1289.64,-32.28"/>
</g>
<!-- Node20&#45;&gt;Node4 -->
<g id="edge28" class="edge">
<title>Node20&#45;&gt;Node4</title>
<path fill="none" stroke="midnightblue" d="M685.66,-147.93C603.9,-147.64 424.55,-142 280,-102 277.54,-101.32 275.05,-100.47 272.58,-99.52"/>
<polygon fill="midnightblue" stroke="midnightblue" points="273.93,-96.3 263.37,-95.52 271.14,-102.72 273.93,-96.3"/>
</g>
<!-- Node20&#45;&gt;Node5 -->
<g id="edge29" class="edge">
<title>Node20&#45;&gt;Node5</title>
<path fill="none" stroke="midnightblue" d="M685.66,-146C592.39,-142.3 379.07,-130.86 313,-102 292.5,-93.05 292.78,-82.58 275,-69 257.59,-55.7 236.89,-41.97 221.35,-32.03"/>
<polygon fill="midnightblue" stroke="midnightblue" points="223.18,-29.04 212.85,-26.65 219.43,-34.96 223.18,-29.04"/>
</g>
<!-- Node20&#45;&gt;Node11 -->
<g id="edge33" class="edge">
<title>Node20&#45;&gt;Node11</title>
<path fill="none" stroke="midnightblue" d="M685.65,-139.84C623.44,-129.09 509.97,-109.48 439.3,-97.27"/>
<polygon fill="midnightblue" stroke="midnightblue" points="439.64,-93.77 429.19,-95.52 438.45,-100.67 439.64,-93.77"/>
</g>
<!-- Node20&#45;&gt;Node13 -->
<g id="edge45" class="edge">
<title>Node20&#45;&gt;Node13</title>
<path fill="none" stroke="midnightblue" d="M717.17,-138.36C704.68,-129.36 685.26,-115.09 669,-102 651.58,-87.97 648.56,-82.86 631,-69 614.61,-56.07 595.35,-42.37 580.87,-32.35"/>
<polygon fill="midnightblue" stroke="midnightblue" points="582.77,-29.4 572.55,-26.62 578.81,-35.17 582.77,-29.4"/>
</g>
<!-- Node20&#45;&gt;Node17 -->
<g id="edge31" class="edge">
<title>Node20&#45;&gt;Node17</title>
<path fill="none" stroke="midnightblue" d="M704.18,-138.5C674.06,-128 624.12,-110.59 590.4,-98.84"/>
<polygon fill="midnightblue" stroke="midnightblue" points="591.52,-95.52 580.93,-95.54 589.22,-102.13 591.52,-95.52"/>
</g>
<!-- Node21 -->
<g id="node21" class="node">
<title>Node21</title>
<g id="a_node21"><a xlink:title=" ">
<polygon fill="white" stroke="#bfbfbf" points="677.77,-69.5 677.77,-101.5 788.23,-101.5 788.23,-69.5 677.77,-69.5"/>
<text text-anchor="start" x="685.77" y="-88.5" font-family="Helvetica,sans-Serif" font-size="10.00">fisch/vx/word_access</text>
<text text-anchor="middle" x="733" y="-76.5" font-family="Helvetica,sans-Serif" font-size="10.00">/type/timer.h</text>
</a>
</g>
</g>
<!-- Node20&#45;&gt;Node21 -->
<g id="edge30" class="edge">
<title>Node20&#45;&gt;Node21</title>
<path fill="none" stroke="midnightblue" d="M730.44,-138.5C730.79,-131.47 731.29,-121.34 731.75,-111.88"/>
<polygon fill="midnightblue" stroke="midnightblue" points="735.26,-111.85 732.25,-101.69 728.27,-111.51 735.26,-111.85"/>
</g>
<!-- Node22 -->
<g id="node22" class="node">
<title>Node22</title>
<g id="a_node22"><a xlink:title=" ">
<polygon fill="white" stroke="#bfbfbf" points="806.49,-69.5 806.49,-101.5 907.51,-101.5 907.51,-69.5 806.49,-69.5"/>
<text text-anchor="start" x="814.49" y="-88.5" font-family="Helvetica,sans-Serif" font-size="10.00">halco/hicann&#45;dls/vx</text>
<text text-anchor="middle" x="857" y="-76.5" font-family="Helvetica,sans-Serif" font-size="10.00">/timing.h</text>
</a>
</g>
</g>
<!-- Node20&#45;&gt;Node22 -->
<g id="edge32" class="edge">
<title>Node20&#45;&gt;Node22</title>
<path fill="none" stroke="midnightblue" d="M748.74,-138.5C766.45,-129.99 793.6,-116.95 816.29,-106.05"/>
<polygon fill="midnightblue" stroke="midnightblue" points="817.87,-109.18 825.37,-101.69 814.84,-102.87 817.87,-109.18"/>
</g>
<!-- Node20&#45;&gt;Node23 -->
<g id="edge35" class="edge">
<title>Node20&#45;&gt;Node23</title>
<path fill="none" stroke="midnightblue" d="M771.02,-138.5C820.4,-127.66 903.34,-109.46 956.85,-97.72"/>
<polygon fill="midnightblue" stroke="midnightblue" points="957.79,-101.1 966.81,-95.54 956.29,-94.26 957.79,-101.1"/>
</g>
<!-- Node23&#45;&gt;Node2 -->
<g id="edge38" class="edge">
<title>Node23&#45;&gt;Node2</title>
<path fill="none" stroke="midnightblue" d="M1039.79,-75.47C1048.27,-73.21 1057.45,-70.89 1066,-69 1156.33,-49.04 1180.41,-51.74 1271,-33 1277.11,-31.74 1283.53,-30.32 1289.85,-28.87"/>
<polygon fill="midnightblue" stroke="midnightblue" points="1290.7,-32.26 1299.65,-26.58 1289.11,-25.45 1290.7,-32.26"/>
</g>
<!-- Node23&#45;&gt;Node12 -->
<g id="edge39" class="edge">
<title>Node23&#45;&gt;Node12</title>
<path fill="none" stroke="midnightblue" d="M964.14,-76.29C949.22,-73.7 932.42,-70.99 917,-69 736.46,-45.7 687.61,-68.15 509,-33 504.18,-32.05 499.17,-30.81 494.26,-29.45"/>
<polygon fill="midnightblue" stroke="midnightblue" points="495.01,-26.02 484.43,-26.53 493.01,-32.73 495.01,-26.02"/>
</g>
<!-- Node23&#45;&gt;Node13 -->
<g id="edge40" class="edge">
<title>Node23&#45;&gt;Node13</title>
<path fill="none" stroke="midnightblue" d="M977.8,-75.47C968.91,-73.08 959.12,-70.69 950,-69 799.71,-41.18 757.62,-64.21 608,-33 603.46,-32.05 598.73,-30.85 594.1,-29.53"/>
<polygon fill="midnightblue" stroke="midnightblue" points="594.76,-26.08 584.17,-26.53 592.73,-32.78 594.76,-26.08"/>
</g>
<!-- Node24 -->
<g id="node24" class="node">
<title>Node24</title>
<g id="a_node24"><a xlink:title=" ">
<polygon fill="white" stroke="#bfbfbf" points="744.94,-6.5 744.94,-26.5 827.06,-26.5 827.06,-6.5 744.94,-6.5"/>
<text text-anchor="middle" x="786" y="-13.5" font-family="Helvetica,sans-Serif" font-size="10.00">fisch/vx/traits.h</text>
</a>
</g>
</g>
<!-- Node23&#45;&gt;Node24 -->
<g id="edge36" class="edge">
<title>Node23&#45;&gt;Node24</title>
<path fill="none" stroke="midnightblue" d="M977.52,-75.47C943.12,-65.26 885.5,-48.08 836,-33 832.4,-31.9 828.65,-30.75 824.9,-29.6"/>
<polygon fill="midnightblue" stroke="midnightblue" points="825.66,-26.17 815.07,-26.56 823.59,-32.86 825.66,-26.17"/>
</g>
<!-- Node25 -->
<g id="node25" class="node">
<title>Node25</title>
<g id="a_node25"><a xlink:title=" ">
<polygon fill="white" stroke="#bfbfbf" points="844.77,-0.5 844.77,-32.5 955.23,-32.5 955.23,-0.5 844.77,-0.5"/>
<text text-anchor="start" x="852.77" y="-19.5" font-family="Helvetica,sans-Serif" font-size="10.00">fisch/vx/word_access</text>
<text text-anchor="middle" x="900" y="-7.5" font-family="Helvetica,sans-Serif" font-size="10.00">_type.h</text>
</a>
</g>
</g>
<!-- Node23&#45;&gt;Node25 -->
<g id="edge37" class="edge">
<title>Node23&#45;&gt;Node25</title>
<path fill="none" stroke="midnightblue" d="M993.43,-75.46C977.99,-65.88 953.07,-50.42 932.85,-37.88"/>
<polygon fill="midnightblue" stroke="midnightblue" points="934.58,-34.83 924.23,-32.53 930.89,-40.78 934.58,-34.83"/>
</g>
<!-- Node26 -->
<g id="node26" class="node">
<title>Node26</title>
<g id="a_node26"><a xlink:title=" ">
<polygon fill="white" stroke="#bfbfbf" points="972.94,-6.5 972.94,-26.5 1035.06,-26.5 1035.06,-6.5 972.94,-6.5"/>
<text text-anchor="middle" x="1004" y="-13.5" font-family="Helvetica,sans-Serif" font-size="10.00">type_traits</text>
</a>
</g>
</g>
<!-- Node23&#45;&gt;Node26 -->
<g id="edge41" class="edge">
<title>Node23&#45;&gt;Node26</title>
<path fill="none" stroke="midnightblue" d="M1007.46,-75.46C1006.87,-65.63 1005.92,-49.61 1005.16,-36.9"/>
<polygon fill="midnightblue" stroke="midnightblue" points="1008.65,-36.6 1004.56,-26.82 1001.66,-37.01 1008.65,-36.6"/>
</g>
<!-- Node27 -->
<g id="node27" class="node">
<title>Node27</title>
<g id="a_node27"><a xlink:title=" ">
<polygon fill="white" stroke="#bfbfbf" points="1052.6,-0.5 1052.6,-32.5 1151.4,-32.5 1151.4,-0.5 1052.6,-0.5"/>
<text text-anchor="start" x="1060.6" y="-19.5" font-family="Helvetica,sans-Serif" font-size="10.00">boost/utility/enable</text>
<text text-anchor="middle" x="1102" y="-7.5" font-family="Helvetica,sans-Serif" font-size="10.00">_if.hpp</text>
</a>
</g>
</g>
<!-- Node23&#45;&gt;Node27 -->
<g id="edge42" class="edge">
<title>Node23&#45;&gt;Node27</title>
<path fill="none" stroke="midnightblue" d="M1020.68,-75.46C1033.94,-66.01 1055.23,-50.84 1072.69,-38.39"/>
<polygon fill="midnightblue" stroke="midnightblue" points="1074.8,-41.19 1080.91,-32.53 1070.73,-35.49 1074.8,-41.19"/>
</g>
<!-- Node28 -->
<g id="node28" class="node">
<title>Node28</title>
<g id="a_node28"><a xlink:title=" ">
<polygon fill="white" stroke="#bfbfbf" points="1169.65,-6.5 1169.65,-26.5 1262.35,-26.5 1262.35,-6.5 1169.65,-6.5"/>
<text text-anchor="middle" x="1216" y="-13.5" font-family="Helvetica,sans-Serif" font-size="10.00">boost/variant.hpp</text>
</a>
</g>
</g>
<!-- Node23&#45;&gt;Node28 -->
<g id="edge43" class="edge">
<title>Node23&#45;&gt;Node28</title>
<path fill="none" stroke="midnightblue" d="M1036.05,-75.46C1072.73,-63.65 1137.11,-42.91 1178.1,-29.71"/>
<polygon fill="midnightblue" stroke="midnightblue" points="1179.28,-33 1187.73,-26.61 1177.14,-26.34 1179.28,-33"/>
</g>
<!-- Node29 -->
<g id="node29" class="node">
<title>Node29</title>
<g id="a_node29"><a xlink:title=" ">
<polygon fill="white" stroke="#bfbfbf" points="617.04,-6.5 617.04,-26.5 726.96,-26.5 726.96,-6.5 617.04,-6.5"/>
<text text-anchor="middle" x="672" y="-13.5" font-family="Helvetica,sans-Serif" font-size="10.00">fisch/vx/container.def</text>
</a>
</g>
</g>
<!-- Node23&#45;&gt;Node29 -->
<g id="edge44" class="edge">
<title>Node23&#45;&gt;Node29</title>
<path fill="none" stroke="midnightblue" d="M976.22,-75.43C967.74,-73.17 958.56,-70.86 950,-69 855.75,-48.53 830.48,-52.36 736,-33 729.9,-31.75 723.5,-30.33 717.2,-28.87"/>
<polygon fill="midnightblue" stroke="midnightblue" points="717.98,-25.46 707.44,-26.56 716.37,-32.27 717.98,-25.46"/>
</g>
</g>
</svg>
        <g id="navigator" transform="translate(0 0)" fill="#404254">
                <rect fill="#f2f5e9" fill-opacity="0.5" stroke="#606060" stroke-width=".5" x="0" y="0" width="60" height="60"/>
                <use id="zoomplus" xlink:href="#zoomPlus" x="17" y="9" onmousedown="handleZoom(evt,'in')"/>
                <use id="zoomminus" xlink:href="#zoomMin" x="42" y="9" onmousedown="handleZoom(evt,'out')"/>
                <use id="reset" xlink:href="#resetDef" x="30" y="36" onmousedown="handleReset()"/>
                <g id="arrowUp" xlink:href="#dirArrow" transform="translate(30 24)" onmousedown="handlePan(0,-1)">
                  <use xlink:href="#rim" fill="#404040">
                        <set attributeName="fill" to="#808080" begin="arrowUp.mouseover" end="arrowUp.mouseout"/>
                  </use>
                  <path fill="none" stroke="white" stroke-width="1.5" d="M0,-3.0v7 M-2.5,-0.5L0,-3.0L2.5,-0.5"/>
                </g>
                <g id="arrowRight" xlink:href="#dirArrow" transform="rotate(90) translate(36 -43)" onmousedown="handlePan(1,0)">
                  <use xlink:href="#rim" fill="#404040">
                        <set attributeName="fill" to="#808080" begin="arrowRight.mouseover" end="arrowRight.mouseout"/>
                  </use>
                  <path fill="none" stroke="white" stroke-width="1.5" d="M0,-3.0v7 M-2.5,-0.5L0,-3.0L2.5,-0.5"/>
                </g>
                <g id="arrowDown" xlink:href="#dirArrow" transform="rotate(180) translate(-30 -48)" onmousedown="handlePan(0,1)">
                  <use xlink:href="#rim" fill="#404040">
                        <set attributeName="fill" to="#808080" begin="arrowDown.mouseover" end="arrowDown.mouseout"/>
                  </use>
                  <path fill="none" stroke="white" stroke-width="1.5" d="M0,-3.0v7 M-2.5,-0.5L0,-3.0L2.5,-0.5"/>
                </g>
                <g id="arrowLeft" xlink:href="#dirArrow" transform="rotate(270) translate(-36 17)" onmousedown="handlePan(-1,0)">
                  <use xlink:href="#rim" fill="#404040">
                        <set attributeName="fill" to="#808080" begin="arrowLeft.mouseover" end="arrowLeft.mouseout"/>
                  </use>
                  <path fill="none" stroke="white" stroke-width="1.5" d="M0,-3.0v7 M-2.5,-0.5L0,-3.0L2.5,-0.5"/>
                </g>
        </g>
        <svg viewBox="0 0 15 15" width="100%" height="30px" preserveAspectRatio="xMaxYMin meet">
         <g id="arrow_out" transform="scale(0.3 0.3)">
          <a xlink:href="v2_2madc_8h__incl_org.svg" target="_base">
           <rect id="button" ry="5" rx="5" y="6" x="6" height="38" width="38"
                fill="#f2f5e9" fill-opacity="0.5" stroke="#606060" stroke-width="1.0"/>
           <path id="arrow"
             d="M 11.500037,31.436501 C 11.940474,20.09759 22.043105,11.32322 32.158766,21.979434 L 37.068811,17.246167 C 37.068811,17.246167 37.088388,32 37.088388,32 L 22.160133,31.978069 C 22.160133,31.978069 26.997745,27.140456 26.997745,27.140456 C 18.528582,18.264221 13.291696,25.230495 11.500037,31.436501 z"
             style="fill:#404040;"/>
          </a>
         </g>
        </svg>
</svg>
