<?xml version="1.0" encoding="UTF-8" standalone="no"?>
<!DOCTYPE svg PUBLIC "-//W3C//DTD SVG 1.1//EN"
 "http://www.w3.org/Graphics/SVG/1.1/DTD/svg11.dtd">
<!-- Generated by graphviz version 2.46.0 (0)
 -->
<!-- Title: /jenkins/jenlib_workspaces_f9/bld_nightly&#45;haldls.YmxkX25pZ2h0bHktaGFsZGxzIzEzNzk.x/haldls/include/haldls/vx/v2/systime.h Pages: 1 -->
<!--zoomable 260 -->
<svg id="main" version="1.1" xmlns="http://www.w3.org/2000/svg" xmlns:xlink="http://www.w3.org/1999/xlink" xml:space="preserve" onload="init(evt)">
<style type="text/css"><![CDATA[
.edge:hover path { stroke: red; }
.edge:hover polygon { stroke: red; fill: red; }
]]></style>
<script type="text/javascript"><![CDATA[
var edges = document.getElementsByTagName('g');
if (edges && edges.length) {
  for (var i=0;i<edges.length;i++) {
    if (edges[i].id.substr(0,4)=='edge') {
      edges[i].setAttribute('class','edge');
    }
  }
}
]]></script>
        <defs>
                <circle id="rim" cx="0" cy="0" r="7"/>
                <circle id="rim2" cx="0" cy="0" r="3.5"/>
                <g id="zoomPlus">
                        <use xlink:href="#rim" fill="#404040">
                                <set attributeName="fill" to="#808080" begin="zoomplus.mouseover" end="zoomplus.mouseout"/>
                        </use>
                        <path d="M-4,0h8M0,-4v8" fill="none" stroke="white" stroke-width="1.5" pointer-events="none"/>
                </g>
                <g id="zoomMin">
                        <use xlink:href="#rim" fill="#404040">
                                <set attributeName="fill" to="#808080" begin="zoomminus.mouseover" end="zoomminus.mouseout"/>
                        </use>
                        <path d="M-4,0h8" fill="none" stroke="white" stroke-width="1.5" pointer-events="none"/>
                </g>
                <g id="dirArrow">
                        <path fill="none" stroke="white" stroke-width="1.5" d="M0,-3.0v7 M-2.5,-0.5L0,-3.0L2.5,-0.5"/>
                </g>
               <g id="resetDef">
                       <use xlink:href="#rim2" fill="#404040">
                               <set attributeName="fill" to="#808080" begin="reset.mouseover" end="reset.mouseout"/>
                       </use>
               </g>
        </defs>

<script type="text/javascript">
var viewWidth = 1302;
var viewHeight = 260;
var sectionId = 'dynsection-0';
</script>
<script xlink:href="svgpan.js"/>
<svg id="graph" class="graph">
<g id="viewport">
<title>/jenkins/jenlib_workspaces_f9/bld_nightly&#45;haldls.YmxkX25pZ2h0bHktaGFsZGxzIzEzNzk.x/haldls/include/haldls/vx/v2/systime.h</title>
<polygon fill="white" stroke="transparent" points="-4,4 -4,-256 1297.55,-256 1297.55,4 -4,4"/>
<!-- Node1 -->
<g id="node1" class="node">
<title>Node1</title>
<g id="a_node1"><a xlink:title=" ">
<polygon fill="#bfbfbf" stroke="black" points="722.88,-195.5 722.88,-251.5 903.9,-251.5 903.9,-195.5 722.88,-195.5"/>
<text text-anchor="start" x="730.88" y="-238.5" font-family="Helvetica,sans-Serif" font-size="10.00">/jenkins/jenlib_workspaces</text>
<text text-anchor="start" x="730.88" y="-226.5" font-family="Helvetica,sans-Serif" font-size="10.00">_f9/bld_nightly&#45;haldls.YmxkX25p</text>
<text text-anchor="start" x="730.88" y="-214.5" font-family="Helvetica,sans-Serif" font-size="10.00">Z2h0bHktaGFsZGxzIzEzNzk.x/haldls</text>
<text text-anchor="middle" x="813.39" y="-202.5" font-family="Helvetica,sans-Serif" font-size="10.00">/include/haldls/vx/v2/systime.h</text>
</a>
</g>
</g>
<!-- Node2 -->
<g id="node2" class="node">
<title>Node2</title>
<g id="a_node2"><a xlink:href="genpybind_8h.html" target="_top" xlink:title=" ">
<polygon fill="white" stroke="black" points="720.32,-6.5 720.32,-26.5 832.46,-26.5 832.46,-6.5 720.32,-6.5"/>
<text text-anchor="middle" x="776.39" y="-13.5" font-family="Helvetica,sans-Serif" font-size="10.00">haldls/vx/genpybind.h</text>
</a>
</g>
</g>
<!-- Node1&#45;&gt;Node2 -->
<g id="edge1" class="edge">
<title>Node1&#45;&gt;Node2</title>
<path fill="none" stroke="midnightblue" d="M826.27,-195.14C832.46,-178.61 837.68,-157.12 833.39,-138 824.65,-99.08 801.83,-57.94 787.86,-35.21"/>
<polygon fill="midnightblue" stroke="midnightblue" points="790.77,-33.26 782.48,-26.66 784.84,-36.99 790.77,-33.26"/>
</g>
<!-- Node3 -->
<g id="node3" class="node">
<title>Node3</title>
<g id="a_node3"><a xlink:href="systime_8h.html" target="_top" xlink:title=" ">
<polygon fill="white" stroke="black" points="724.44,-138.5 724.44,-158.5 824.34,-158.5 824.34,-138.5 724.44,-138.5"/>
<text text-anchor="middle" x="774.39" y="-145.5" font-family="Helvetica,sans-Serif" font-size="10.00">haldls/vx/systime.h</text>
</a>
</g>
</g>
<!-- Node1&#45;&gt;Node3 -->
<g id="edge3" class="edge">
<title>Node1&#45;&gt;Node3</title>
<path fill="none" stroke="midnightblue" d="M798.86,-195.32C793.88,-185.99 788.44,-175.8 783.95,-167.4"/>
<polygon fill="midnightblue" stroke="midnightblue" points="787.01,-165.7 779.21,-158.52 780.83,-168.99 787.01,-165.7"/>
</g>
<!-- Node2&#45;&gt;Node2 -->
<g id="edge2" class="edge">
<title>Node2&#45;&gt;Node2</title>
<path fill="none" stroke="midnightblue" d="M800.28,-26.54C824.11,-32.26 850.46,-28.92 850.46,-16.5 850.46,-5.78 830.82,-1.82 810.12,-4.62"/>
<polygon fill="midnightblue" stroke="midnightblue" points="809.47,-1.18 800.28,-6.46 810.76,-8.06 809.47,-1.18"/>
</g>
<!-- Node3&#45;&gt;Node2 -->
<g id="edge10" class="edge">
<title>Node3&#45;&gt;Node2</title>
<path fill="none" stroke="midnightblue" d="M774.53,-138.15C774.86,-117.07 775.65,-65.46 776.09,-37.05"/>
<polygon fill="midnightblue" stroke="midnightblue" points="779.59,-36.82 776.24,-26.76 772.59,-36.71 779.59,-36.82"/>
</g>
<!-- Node4 -->
<g id="node4" class="node">
<title>Node4</title>
<g id="a_node4"><a xlink:title=" ">
<polygon fill="white" stroke="#bfbfbf" points="485,-75.5 485,-95.5 523.77,-95.5 523.77,-75.5 485,-75.5"/>
<text text-anchor="middle" x="504.39" y="-82.5" font-family="Helvetica,sans-Serif" font-size="10.00">array</text>
</a>
</g>
</g>
<!-- Node3&#45;&gt;Node4 -->
<g id="edge4" class="edge">
<title>Node3&#45;&gt;Node4</title>
<path fill="none" stroke="midnightblue" d="M724.03,-142.77C674.2,-137.01 596.34,-125.03 532.39,-102 530.95,-101.48 529.5,-100.9 528.05,-100.26"/>
<polygon fill="midnightblue" stroke="midnightblue" points="529.3,-96.98 518.79,-95.62 526.16,-103.23 529.3,-96.98"/>
</g>
<!-- Node5 -->
<g id="node5" class="node">
<title>Node5</title>
<g id="a_node5"><a xlink:title=" ">
<polygon fill="white" stroke="#bfbfbf" points="1249.22,-6.5 1249.22,-26.5 1293.55,-26.5 1293.55,-6.5 1249.22,-6.5"/>
<text text-anchor="middle" x="1271.39" y="-13.5" font-family="Helvetica,sans-Serif" font-size="10.00">iosfwd</text>
</a>
</g>
</g>
<!-- Node3&#45;&gt;Node5 -->
<g id="edge5" class="edge">
<title>Node3&#45;&gt;Node5</title>
<path fill="none" stroke="midnightblue" d="M824.38,-146.67C892.5,-144.25 1017.53,-135.2 1118.39,-102 1168.84,-85.39 1221.84,-51.98 1250.3,-32.52"/>
<polygon fill="midnightblue" stroke="midnightblue" points="1252.43,-35.3 1258.65,-26.73 1248.44,-29.55 1252.43,-35.3"/>
</g>
<!-- Node6 -->
<g id="node6" class="node">
<title>Node6</title>
<g id="a_node6"><a xlink:title=" ">
<polygon fill="white" stroke="#bfbfbf" points="646.88,-69.5 646.88,-101.5 747.89,-101.5 747.89,-69.5 646.88,-69.5"/>
<text text-anchor="start" x="654.88" y="-88.5" font-family="Helvetica,sans-Serif" font-size="10.00">halco/hicann&#45;dls/vx</text>
<text text-anchor="middle" x="697.39" y="-76.5" font-family="Helvetica,sans-Serif" font-size="10.00">/timing.h</text>
</a>
</g>
</g>
<!-- Node3&#45;&gt;Node6 -->
<g id="edge6" class="edge">
<title>Node3&#45;&gt;Node6</title>
<path fill="none" stroke="midnightblue" d="M763.03,-138.5C752.91,-130.49 737.71,-118.44 724.48,-107.96"/>
<polygon fill="midnightblue" stroke="midnightblue" points="726.57,-105.16 716.56,-101.69 722.23,-110.64 726.57,-105.16"/>
</g>
<!-- Node7 -->
<g id="node7" class="node">
<title>Node7</title>
<g id="a_node7"><a xlink:href="common_8h.html" target="_top" xlink:title=" ">
<polygon fill="white" stroke="black" points="35.21,-75.5 35.21,-95.5 139.56,-95.5 139.56,-75.5 35.21,-75.5"/>
<text text-anchor="middle" x="87.39" y="-82.5" font-family="Helvetica,sans-Serif" font-size="10.00">haldls/vx/common.h</text>
</a>
</g>
</g>
<!-- Node3&#45;&gt;Node7 -->
<g id="edge7" class="edge">
<title>Node3&#45;&gt;Node7</title>
<path fill="none" stroke="midnightblue" d="M724.43,-143.06C601.65,-132.16 285.33,-104.08 150.16,-92.07"/>
<polygon fill="midnightblue" stroke="midnightblue" points="150.24,-88.57 139.97,-91.17 149.62,-95.54 150.24,-88.57"/>
</g>
<!-- Node10 -->
<g id="node10" class="node">
<title>Node10</title>
<g id="a_node10"><a xlink:href="traits_8h.html" target="_top" xlink:title=" ">
<polygon fill="white" stroke="black" points="541.55,-75.5 541.55,-95.5 629.22,-95.5 629.22,-75.5 541.55,-75.5"/>
<text text-anchor="middle" x="585.39" y="-82.5" font-family="Helvetica,sans-Serif" font-size="10.00">haldls/vx/traits.h</text>
</a>
</g>
</g>
<!-- Node3&#45;&gt;Node10 -->
<g id="edge11" class="edge">
<title>Node3&#45;&gt;Node10</title>
<path fill="none" stroke="midnightblue" d="M746.5,-138.5C713.84,-127.96 659.57,-110.44 623.15,-98.69"/>
<polygon fill="midnightblue" stroke="midnightblue" points="623.98,-95.28 613.39,-95.54 621.83,-101.94 623.98,-95.28"/>
</g>
<!-- Node14 -->
<g id="node14" class="node">
<title>Node14</title>
<g id="a_node14"><a xlink:title=" ">
<polygon fill="white" stroke="#bfbfbf" points="969.88,-6.5 969.88,-26.5 1050.89,-26.5 1050.89,-6.5 969.88,-6.5"/>
<text text-anchor="middle" x="1010.39" y="-13.5" font-family="Helvetica,sans-Serif" font-size="10.00">hate/visibility.h</text>
</a>
</g>
</g>
<!-- Node3&#45;&gt;Node14 -->
<g id="edge21" class="edge">
<title>Node3&#45;&gt;Node14</title>
<path fill="none" stroke="midnightblue" d="M790.98,-138.36C831.61,-115.98 936.26,-58.33 984.87,-31.56"/>
<polygon fill="midnightblue" stroke="midnightblue" points="986.74,-34.52 993.81,-26.63 983.36,-28.39 986.74,-34.52"/>
</g>
<!-- Node18 -->
<g id="node18" class="node">
<title>Node18</title>
<g id="a_node18"><a xlink:href="cerealization_8h.html" target="_top" xlink:title=" ">
<polygon fill="white" stroke="black" points="999.71,-75.5 999.71,-95.5 1109.06,-95.5 1109.06,-75.5 999.71,-75.5"/>
<text text-anchor="middle" x="1054.39" y="-82.5" font-family="Helvetica,sans-Serif" font-size="10.00">haldls/cerealization.h</text>
</a>
</g>
</g>
<!-- Node3&#45;&gt;Node18 -->
<g id="edge22" class="edge">
<title>Node3&#45;&gt;Node18</title>
<path fill="none" stroke="midnightblue" d="M815.7,-138.5C865.44,-127.66 948.97,-109.46 1002.87,-97.72"/>
<polygon fill="midnightblue" stroke="midnightblue" points="1003.88,-101.09 1012.9,-95.54 1002.39,-94.25 1003.88,-101.09"/>
</g>
<!-- Node8 -->
<g id="node8" class="node">
<title>Node8</title>
<g id="a_node8"><a xlink:title=" ">
<polygon fill="white" stroke="#bfbfbf" points="56.33,-6.5 56.33,-26.5 118.45,-26.5 118.45,-6.5 56.33,-6.5"/>
<text text-anchor="middle" x="87.39" y="-13.5" font-family="Helvetica,sans-Serif" font-size="10.00">type_traits</text>
</a>
</g>
</g>
<!-- Node7&#45;&gt;Node8 -->
<g id="edge8" class="edge">
<title>Node7&#45;&gt;Node8</title>
<path fill="none" stroke="midnightblue" d="M87.39,-75.46C87.39,-65.63 87.39,-49.61 87.39,-36.9"/>
<polygon fill="midnightblue" stroke="midnightblue" points="90.89,-36.82 87.39,-26.82 83.89,-36.82 90.89,-36.82"/>
</g>
<!-- Node9 -->
<g id="node9" class="node">
<title>Node9</title>
<g id="a_node9"><a xlink:title=" ">
<polygon fill="white" stroke="#bfbfbf" points="0,-6.5 0,-26.5 38.77,-26.5 38.77,-6.5 0,-6.5"/>
<text text-anchor="middle" x="19.39" y="-13.5" font-family="Helvetica,sans-Serif" font-size="10.00">utility</text>
</a>
</g>
</g>
<!-- Node7&#45;&gt;Node9 -->
<g id="edge9" class="edge">
<title>Node7&#45;&gt;Node9</title>
<path fill="none" stroke="midnightblue" d="M78.22,-75.46C67.43,-64.83 49.31,-46.98 36.02,-33.89"/>
<polygon fill="midnightblue" stroke="midnightblue" points="38.43,-31.35 28.85,-26.82 33.52,-36.33 38.43,-31.35"/>
</g>
<!-- Node10&#45;&gt;Node2 -->
<g id="edge14" class="edge">
<title>Node10&#45;&gt;Node2</title>
<path fill="none" stroke="midnightblue" d="M611.15,-75.46C644.61,-63.73 703.19,-43.18 740.86,-29.96"/>
<polygon fill="midnightblue" stroke="midnightblue" points="742.15,-33.22 750.43,-26.61 739.83,-26.61 742.15,-33.22"/>
</g>
<!-- Node10&#45;&gt;Node8 -->
<g id="edge17" class="edge">
<title>Node10&#45;&gt;Node8</title>
<path fill="none" stroke="midnightblue" d="M558.13,-75.42C549.93,-72.99 540.87,-70.6 532.39,-69 354.81,-35.48 303.37,-74.05 127.39,-33 123.95,-32.2 120.41,-31.16 116.92,-30"/>
<polygon fill="midnightblue" stroke="midnightblue" points="117.98,-26.66 107.39,-26.52 115.58,-33.24 117.98,-26.66"/>
</g>
<!-- Node11 -->
<g id="node11" class="node">
<title>Node11</title>
<g id="a_node11"><a xlink:title=" ">
<polygon fill="white" stroke="#bfbfbf" points="136.33,-6.5 136.33,-26.5 218.45,-26.5 218.45,-6.5 136.33,-6.5"/>
<text text-anchor="middle" x="177.39" y="-13.5" font-family="Helvetica,sans-Serif" font-size="10.00">fisch/vx/traits.h</text>
</a>
</g>
</g>
<!-- Node10&#45;&gt;Node11 -->
<g id="edge12" class="edge">
<title>Node10&#45;&gt;Node11</title>
<path fill="none" stroke="midnightblue" d="M557.82,-75.49C549.7,-73.1 540.75,-70.7 532.39,-69 398.64,-41.75 360.91,-61.33 227.39,-33 222.69,-32 217.8,-30.76 213,-29.41"/>
<polygon fill="midnightblue" stroke="midnightblue" points="213.94,-26.04 203.36,-26.54 211.94,-32.75 213.94,-26.04"/>
</g>
<!-- Node12 -->
<g id="node12" class="node">
<title>Node12</title>
<g id="a_node12"><a xlink:title=" ">
<polygon fill="white" stroke="#bfbfbf" points="236.16,-0.5 236.16,-32.5 346.62,-32.5 346.62,-0.5 236.16,-0.5"/>
<text text-anchor="start" x="244.16" y="-19.5" font-family="Helvetica,sans-Serif" font-size="10.00">fisch/vx/word_access</text>
<text text-anchor="middle" x="291.39" y="-7.5" font-family="Helvetica,sans-Serif" font-size="10.00">_type.h</text>
</a>
</g>
</g>
<!-- Node10&#45;&gt;Node12 -->
<g id="edge13" class="edge">
<title>Node10&#45;&gt;Node12</title>
<path fill="none" stroke="midnightblue" d="M556.07,-75.46C548.4,-73.22 540.11,-70.92 532.39,-69 457.92,-50.53 436.03,-50.25 356.65,-33"/>
<polygon fill="midnightblue" stroke="midnightblue" points="357.2,-29.54 346.68,-30.81 355.69,-36.38 357.2,-29.54"/>
</g>
<!-- Node13 -->
<g id="node13" class="node">
<title>Node13</title>
<g id="a_node13"><a xlink:title=" ">
<polygon fill="white" stroke="#bfbfbf" points="868.76,-6.5 868.76,-26.5 952.01,-26.5 952.01,-6.5 868.76,-6.5"/>
<text text-anchor="middle" x="910.39" y="-13.5" font-family="Helvetica,sans-Serif" font-size="10.00">hate/type_list.h</text>
</a>
</g>
</g>
<!-- Node10&#45;&gt;Node13 -->
<g id="edge15" class="edge">
<title>Node10&#45;&gt;Node13</title>
<path fill="none" stroke="midnightblue" d="M613.28,-75.47C621.03,-73.15 629.49,-70.81 637.39,-69 734.82,-46.68 762.02,-55.58 859.39,-33 863.87,-31.96 868.53,-30.74 873.14,-29.45"/>
<polygon fill="midnightblue" stroke="midnightblue" points="874.43,-32.72 883.04,-26.55 872.46,-26 874.43,-32.72"/>
</g>
<!-- Node10&#45;&gt;Node14 -->
<g id="edge16" class="edge">
<title>Node10&#45;&gt;Node14</title>
<path fill="none" stroke="midnightblue" d="M612.41,-75.45C620.38,-73.05 629.17,-70.67 637.39,-69 779.38,-40.19 819.64,-62.99 961.39,-33 965.93,-32.04 970.65,-30.83 975.29,-29.51"/>
<polygon fill="midnightblue" stroke="midnightblue" points="976.65,-32.75 985.21,-26.5 974.62,-26.05 976.65,-32.75"/>
</g>
<!-- Node15 -->
<g id="node15" class="node">
<title>Node15</title>
<g id="a_node15"><a xlink:title=" ">
<polygon fill="white" stroke="#bfbfbf" points="364.99,-0.5 364.99,-32.5 463.79,-32.5 463.79,-0.5 364.99,-0.5"/>
<text text-anchor="start" x="372.99" y="-19.5" font-family="Helvetica,sans-Serif" font-size="10.00">boost/utility/enable</text>
<text text-anchor="middle" x="414.39" y="-7.5" font-family="Helvetica,sans-Serif" font-size="10.00">_if.hpp</text>
</a>
</g>
</g>
<!-- Node10&#45;&gt;Node15 -->
<g id="edge18" class="edge">
<title>Node10&#45;&gt;Node15</title>
<path fill="none" stroke="midnightblue" d="M562.33,-75.46C536.77,-65.45 494.85,-49.03 462.15,-36.21"/>
<polygon fill="midnightblue" stroke="midnightblue" points="463.34,-32.92 452.76,-32.53 460.79,-39.44 463.34,-32.92"/>
</g>
<!-- Node16 -->
<g id="node16" class="node">
<title>Node16</title>
<g id="a_node16"><a xlink:title=" ">
<polygon fill="white" stroke="#bfbfbf" points="482.04,-6.5 482.04,-26.5 574.73,-26.5 574.73,-6.5 482.04,-6.5"/>
<text text-anchor="middle" x="528.39" y="-13.5" font-family="Helvetica,sans-Serif" font-size="10.00">boost/variant.hpp</text>
</a>
</g>
</g>
<!-- Node10&#45;&gt;Node16 -->
<g id="edge19" class="edge">
<title>Node10&#45;&gt;Node16</title>
<path fill="none" stroke="midnightblue" d="M577.7,-75.46C568.83,-65.03 554.03,-47.64 542.96,-34.63"/>
<polygon fill="midnightblue" stroke="midnightblue" points="545.46,-32.17 536.32,-26.82 540.13,-36.71 545.46,-32.17"/>
</g>
<!-- Node17 -->
<g id="node17" class="node">
<title>Node17</title>
<g id="a_node17"><a xlink:title=" ">
<polygon fill="white" stroke="#bfbfbf" points="592.43,-6.5 592.43,-26.5 702.34,-26.5 702.34,-6.5 592.43,-6.5"/>
<text text-anchor="middle" x="647.39" y="-13.5" font-family="Helvetica,sans-Serif" font-size="10.00">fisch/vx/container.def</text>
</a>
</g>
</g>
<!-- Node10&#45;&gt;Node17 -->
<g id="edge20" class="edge">
<title>Node10&#45;&gt;Node17</title>
<path fill="none" stroke="midnightblue" d="M593.75,-75.46C603.49,-64.93 619.8,-47.31 631.88,-34.26"/>
<polygon fill="midnightblue" stroke="midnightblue" points="634.54,-36.54 638.76,-26.82 629.4,-31.79 634.54,-36.54"/>
</g>
<!-- Node18&#45;&gt;Node5 -->
<g id="edge26" class="edge">
<title>Node18&#45;&gt;Node5</title>
<path fill="none" stroke="midnightblue" d="M1094.75,-75.48C1132.68,-66.49 1190.74,-51.38 1239.39,-33 1241.21,-32.31 1243.06,-31.56 1244.92,-30.77"/>
<polygon fill="midnightblue" stroke="midnightblue" points="1246.39,-33.94 1254.03,-26.61 1243.48,-27.58 1246.39,-33.94"/>
</g>
<!-- Node18&#45;&gt;Node13 -->
<g id="edge23" class="edge">
<title>Node18&#45;&gt;Node13</title>
<path fill="none" stroke="midnightblue" d="M1034.97,-75.46C1010.38,-64.03 967.81,-44.22 939.38,-30.99"/>
<polygon fill="midnightblue" stroke="midnightblue" points="940.5,-27.65 929.96,-26.61 937.55,-34 940.5,-27.65"/>
</g>
<!-- Node18&#45;&gt;Node14 -->
<g id="edge24" class="edge">
<title>Node18&#45;&gt;Node14</title>
<path fill="none" stroke="midnightblue" d="M1048.45,-75.46C1041.73,-65.23 1030.62,-48.3 1022.13,-35.38"/>
<polygon fill="midnightblue" stroke="midnightblue" points="1024.92,-33.26 1016.51,-26.82 1019.07,-37.1 1024.92,-33.26"/>
</g>
<!-- Node19 -->
<g id="node19" class="node">
<title>Node19</title>
<g id="a_node19"><a xlink:title=" ">
<polygon fill="white" stroke="#bfbfbf" points="1185.94,-6.5 1185.94,-26.5 1230.83,-26.5 1230.83,-6.5 1185.94,-6.5"/>
<text text-anchor="middle" x="1208.39" y="-13.5" font-family="Helvetica,sans-Serif" font-size="10.00">cstdint</text>
</a>
</g>
</g>
<!-- Node18&#45;&gt;Node19 -->
<g id="edge25" class="edge">
<title>Node18&#45;&gt;Node19</title>
<path fill="none" stroke="midnightblue" d="M1077.02,-75.35C1101.63,-65.32 1142.04,-48.55 1176.39,-33 1177.93,-32.3 1179.52,-31.57 1181.11,-30.83"/>
<polygon fill="midnightblue" stroke="midnightblue" points="1182.66,-33.97 1190.19,-26.52 1179.65,-27.65 1182.66,-33.97"/>
</g>
<!-- Node20 -->
<g id="node20" class="node">
<title>Node20</title>
<g id="a_node20"><a xlink:title=" ">
<polygon fill="white" stroke="#bfbfbf" points="1069.27,-6.5 1069.27,-26.5 1167.5,-26.5 1167.5,-6.5 1069.27,-6.5"/>
<text text-anchor="middle" x="1118.39" y="-13.5" font-family="Helvetica,sans-Serif" font-size="10.00">cereal/macros.hpp</text>
</a>
</g>
</g>
<!-- Node18&#45;&gt;Node20 -->
<g id="edge27" class="edge">
<title>Node18&#45;&gt;Node20</title>
<path fill="none" stroke="midnightblue" d="M1063.02,-75.46C1073.08,-64.93 1089.91,-47.31 1102.38,-34.26"/>
<polygon fill="midnightblue" stroke="midnightblue" points="1105.11,-36.47 1109.48,-26.82 1100.04,-31.64 1105.11,-36.47"/>
</g>
</g>
</svg>
        <g id="navigator" transform="translate(0 0)" fill="#404254">
                <rect fill="#f2f5e9" fill-opacity="0.5" stroke="#606060" stroke-width=".5" x="0" y="0" width="60" height="60"/>
                <use id="zoomplus" xlink:href="#zoomPlus" x="17" y="9" onmousedown="handleZoom(evt,'in')"/>
                <use id="zoomminus" xlink:href="#zoomMin" x="42" y="9" onmousedown="handleZoom(evt,'out')"/>
                <use id="reset" xlink:href="#resetDef" x="30" y="36" onmousedown="handleReset()"/>
                <g id="arrowUp" xlink:href="#dirArrow" transform="translate(30 24)" onmousedown="handlePan(0,-1)">
                  <use xlink:href="#rim" fill="#404040">
                        <set attributeName="fill" to="#808080" begin="arrowUp.mouseover" end="arrowUp.mouseout"/>
                  </use>
                  <path fill="none" stroke="white" stroke-width="1.5" d="M0,-3.0v7 M-2.5,-0.5L0,-3.0L2.5,-0.5"/>
                </g>
                <g id="arrowRight" xlink:href="#dirArrow" transform="rotate(90) translate(36 -43)" onmousedown="handlePan(1,0)">
                  <use xlink:href="#rim" fill="#404040">
                        <set attributeName="fill" to="#808080" begin="arrowRight.mouseover" end="arrowRight.mouseout"/>
                  </use>
                  <path fill="none" stroke="white" stroke-width="1.5" d="M0,-3.0v7 M-2.5,-0.5L0,-3.0L2.5,-0.5"/>
                </g>
                <g id="arrowDown" xlink:href="#dirArrow" transform="rotate(180) translate(-30 -48)" onmousedown="handlePan(0,1)">
                  <use xlink:href="#rim" fill="#404040">
                        <set attributeName="fill" to="#808080" begin="arrowDown.mouseover" end="arrowDown.mouseout"/>
                  </use>
                  <path fill="none" stroke="white" stroke-width="1.5" d="M0,-3.0v7 M-2.5,-0.5L0,-3.0L2.5,-0.5"/>
                </g>
                <g id="arrowLeft" xlink:href="#dirArrow" transform="rotate(270) translate(-36 17)" onmousedown="handlePan(-1,0)">
                  <use xlink:href="#rim" fill="#404040">
                        <set attributeName="fill" to="#808080" begin="arrowLeft.mouseover" end="arrowLeft.mouseout"/>
                  </use>
                  <path fill="none" stroke="white" stroke-width="1.5" d="M0,-3.0v7 M-2.5,-0.5L0,-3.0L2.5,-0.5"/>
                </g>
        </g>
        <svg viewBox="0 0 15 15" width="100%" height="30px" preserveAspectRatio="xMaxYMin meet">
         <g id="arrow_out" transform="scale(0.3 0.3)">
          <a xlink:href="v2_2systime_8h__incl_org.svg" target="_base">
           <rect id="button" ry="5" rx="5" y="6" x="6" height="38" width="38"
                fill="#f2f5e9" fill-opacity="0.5" stroke="#606060" stroke-width="1.0"/>
           <path id="arrow"
             d="M 11.500037,31.436501 C 11.940474,20.09759 22.043105,11.32322 32.158766,21.979434 L 37.068811,17.246167 C 37.068811,17.246167 37.088388,32 37.088388,32 L 22.160133,31.978069 C 22.160133,31.978069 26.997745,27.140456 26.997745,27.140456 C 18.528582,18.264221 13.291696,25.230495 11.500037,31.436501 z"
             style="fill:#404040;"/>
          </a>
         </g>
        </svg>
</svg>
