<?xml version="1.0" encoding="UTF-8" standalone="no"?>
<!DOCTYPE svg PUBLIC "-//W3C//DTD SVG 1.1//EN"
 "http://www.w3.org/Graphics/SVG/1.1/DTD/svg11.dtd">
<!-- Generated by graphviz version 2.46.0 (0)
 -->
<!-- Title: /jenkins/jenlib_workspaces_f9/bld_nightly&#45;haldls.YmxkX25pZ2h0bHktaGFsZGxzIzEzNzk.x/haldls/include/haldls/vx/v2/correlation.h Pages: 1 -->
<!--zoomable 260 -->
<svg id="main" version="1.1" xmlns="http://www.w3.org/2000/svg" xmlns:xlink="http://www.w3.org/1999/xlink" xml:space="preserve" onload="init(evt)">
<style type="text/css"><![CDATA[
.edge:hover path { stroke: red; }
.edge:hover polygon { stroke: red; fill: red; }
]]></style>
<script type="text/javascript"><![CDATA[
var edges = document.getElementsByTagName('g');
if (edges && edges.length) {
  for (var i=0;i<edges.length;i++) {
    if (edges[i].id.substr(0,4)=='edge') {
      edges[i].setAttribute('class','edge');
    }
  }
}
]]></script>
        <defs>
                <circle id="rim" cx="0" cy="0" r="7"/>
                <circle id="rim2" cx="0" cy="0" r="3.5"/>
                <g id="zoomPlus">
                        <use xlink:href="#rim" fill="#404040">
                                <set attributeName="fill" to="#808080" begin="zoomplus.mouseover" end="zoomplus.mouseout"/>
                        </use>
                        <path d="M-4,0h8M0,-4v8" fill="none" stroke="white" stroke-width="1.5" pointer-events="none"/>
                </g>
                <g id="zoomMin">
                        <use xlink:href="#rim" fill="#404040">
                                <set attributeName="fill" to="#808080" begin="zoomminus.mouseover" end="zoomminus.mouseout"/>
                        </use>
                        <path d="M-4,0h8" fill="none" stroke="white" stroke-width="1.5" pointer-events="none"/>
                </g>
                <g id="dirArrow">
                        <path fill="none" stroke="white" stroke-width="1.5" d="M0,-3.0v7 M-2.5,-0.5L0,-3.0L2.5,-0.5"/>
                </g>
               <g id="resetDef">
                       <use xlink:href="#rim2" fill="#404040">
                               <set attributeName="fill" to="#808080" begin="reset.mouseover" end="reset.mouseout"/>
                       </use>
               </g>
        </defs>

<script type="text/javascript">
var viewWidth = 1270;
var viewHeight = 260;
var sectionId = 'dynsection-0';
</script>
<script xlink:href="svgpan.js"/>
<svg id="graph" class="graph">
<g id="viewport">
<title>/jenkins/jenlib_workspaces_f9/bld_nightly&#45;haldls.YmxkX25pZ2h0bHktaGFsZGxzIzEzNzk.x/haldls/include/haldls/vx/v2/correlation.h</title>
<polygon fill="white" stroke="transparent" points="-4,4 -4,-256 1266.19,-256 1266.19,4 -4,4"/>
<!-- Node1 -->
<g id="node1" class="node">
<title>Node1</title>
<g id="a_node1"><a xlink:title=" ">
<polygon fill="#bfbfbf" stroke="black" points="544.61,-195.5 544.61,-251.5 725.63,-251.5 725.63,-195.5 544.61,-195.5"/>
<text text-anchor="start" x="552.61" y="-238.5" font-family="Helvetica,sans-Serif" font-size="10.00">/jenkins/jenlib_workspaces</text>
<text text-anchor="start" x="552.61" y="-226.5" font-family="Helvetica,sans-Serif" font-size="10.00">_f9/bld_nightly&#45;haldls.YmxkX25p</text>
<text text-anchor="start" x="552.61" y="-214.5" font-family="Helvetica,sans-Serif" font-size="10.00">Z2h0bHktaGFsZGxzIzEzNzk.x/haldls</text>
<text text-anchor="middle" x="635.12" y="-202.5" font-family="Helvetica,sans-Serif" font-size="10.00">/include/haldls/vx/v2/correlation.h</text>
</a>
</g>
</g>
<!-- Node2 -->
<g id="node2" class="node">
<title>Node2</title>
<g id="a_node2"><a xlink:href="cerealization_8h.html" target="_top" xlink:title=" ">
<polygon fill="white" stroke="black" points="136.44,-75.5 136.44,-95.5 245.79,-95.5 245.79,-75.5 136.44,-75.5"/>
<text text-anchor="middle" x="191.12" y="-82.5" font-family="Helvetica,sans-Serif" font-size="10.00">haldls/cerealization.h</text>
</a>
</g>
</g>
<!-- Node1&#45;&gt;Node2 -->
<g id="edge1" class="edge">
<title>Node1&#45;&gt;Node2</title>
<path fill="none" stroke="midnightblue" d="M546.87,-195.47C450.69,-166.01 301.12,-120.19 230.53,-98.57"/>
<polygon fill="midnightblue" stroke="midnightblue" points="231.3,-95.15 220.71,-95.56 229.25,-101.84 231.3,-95.15"/>
</g>
<!-- Node8 -->
<g id="node8" class="node">
<title>Node8</title>
<g id="a_node8"><a xlink:href="correlation_8h.html" target="_top" xlink:title=" ">
<polygon fill="white" stroke="black" points="578.78,-138.5 578.78,-158.5 691.46,-158.5 691.46,-138.5 578.78,-138.5"/>
<text text-anchor="middle" x="635.12" y="-145.5" font-family="Helvetica,sans-Serif" font-size="10.00">haldls/vx/correlation.h</text>
</a>
</g>
</g>
<!-- Node1&#45;&gt;Node8 -->
<g id="edge7" class="edge">
<title>Node1&#45;&gt;Node8</title>
<path fill="none" stroke="midnightblue" d="M635.12,-195.32C635.12,-186.5 635.12,-176.91 635.12,-168.79"/>
<polygon fill="midnightblue" stroke="midnightblue" points="638.62,-168.52 635.12,-158.52 631.62,-168.52 638.62,-168.52"/>
</g>
<!-- Node13 -->
<g id="node13" class="node">
<title>Node13</title>
<g id="a_node13"><a xlink:href="genpybind_8h.html" target="_top" xlink:title=" ">
<polygon fill="white" stroke="black" points="1132.05,-6.5 1132.05,-26.5 1244.19,-26.5 1244.19,-6.5 1132.05,-6.5"/>
<text text-anchor="middle" x="1188.12" y="-13.5" font-family="Helvetica,sans-Serif" font-size="10.00">haldls/vx/genpybind.h</text>
</a>
</g>
</g>
<!-- Node1&#45;&gt;Node13 -->
<g id="edge28" class="edge">
<title>Node1&#45;&gt;Node13</title>
<path fill="none" stroke="midnightblue" d="M725.66,-210.68C854.64,-192.29 1082.78,-153.51 1147.12,-102 1167.75,-85.48 1178.69,-56.01 1183.94,-36.6"/>
<polygon fill="midnightblue" stroke="midnightblue" points="1187.37,-37.31 1186.35,-26.76 1180.58,-35.64 1187.37,-37.31"/>
</g>
<!-- Node3 -->
<g id="node3" class="node">
<title>Node3</title>
<g id="a_node3"><a xlink:title=" ">
<polygon fill="white" stroke="#bfbfbf" points="358.49,-6.5 358.49,-26.5 441.74,-26.5 441.74,-6.5 358.49,-6.5"/>
<text text-anchor="middle" x="400.12" y="-13.5" font-family="Helvetica,sans-Serif" font-size="10.00">hate/type_list.h</text>
</a>
</g>
</g>
<!-- Node2&#45;&gt;Node3 -->
<g id="edge2" class="edge">
<title>Node2&#45;&gt;Node3</title>
<path fill="none" stroke="midnightblue" d="M219.3,-75.46C256.16,-63.65 320.84,-42.91 362.03,-29.71"/>
<polygon fill="midnightblue" stroke="midnightblue" points="363.26,-32.99 371.71,-26.61 361.12,-26.33 363.26,-32.99"/>
</g>
<!-- Node4 -->
<g id="node4" class="node">
<title>Node4</title>
<g id="a_node4"><a xlink:title=" ">
<polygon fill="white" stroke="#bfbfbf" points="242.61,-6.5 242.61,-26.5 323.62,-26.5 323.62,-6.5 242.61,-6.5"/>
<text text-anchor="middle" x="283.12" y="-13.5" font-family="Helvetica,sans-Serif" font-size="10.00">hate/visibility.h</text>
</a>
</g>
</g>
<!-- Node2&#45;&gt;Node4 -->
<g id="edge3" class="edge">
<title>Node2&#45;&gt;Node4</title>
<path fill="none" stroke="midnightblue" d="M203.53,-75.46C218.62,-64.47 244.31,-45.76 262.41,-32.58"/>
<polygon fill="midnightblue" stroke="midnightblue" points="264.59,-35.32 270.61,-26.61 260.47,-29.66 264.59,-35.32"/>
</g>
<!-- Node5 -->
<g id="node5" class="node">
<title>Node5</title>
<g id="a_node5"><a xlink:title=" ">
<polygon fill="white" stroke="#bfbfbf" points="116.67,-6.5 116.67,-26.5 161.57,-26.5 161.57,-6.5 116.67,-6.5"/>
<text text-anchor="middle" x="139.12" y="-13.5" font-family="Helvetica,sans-Serif" font-size="10.00">cstdint</text>
</a>
</g>
</g>
<!-- Node2&#45;&gt;Node5 -->
<g id="edge4" class="edge">
<title>Node2&#45;&gt;Node5</title>
<path fill="none" stroke="midnightblue" d="M184.11,-75.46C176.09,-65.13 162.77,-47.97 152.7,-35"/>
<polygon fill="midnightblue" stroke="midnightblue" points="155.25,-32.58 146.35,-26.82 149.72,-36.87 155.25,-32.58"/>
</g>
<!-- Node6 -->
<g id="node6" class="node">
<title>Node6</title>
<g id="a_node6"><a xlink:title=" ">
<polygon fill="white" stroke="#bfbfbf" points="179.95,-6.5 179.95,-26.5 224.29,-26.5 224.29,-6.5 179.95,-6.5"/>
<text text-anchor="middle" x="202.12" y="-13.5" font-family="Helvetica,sans-Serif" font-size="10.00">iosfwd</text>
</a>
</g>
</g>
<!-- Node2&#45;&gt;Node6 -->
<g id="edge5" class="edge">
<title>Node2&#45;&gt;Node6</title>
<path fill="none" stroke="midnightblue" d="M192.6,-75.46C194.22,-65.63 196.85,-49.61 198.93,-36.9"/>
<polygon fill="midnightblue" stroke="midnightblue" points="202.42,-37.26 200.59,-26.82 195.51,-36.12 202.42,-37.26"/>
</g>
<!-- Node7 -->
<g id="node7" class="node">
<title>Node7</title>
<g id="a_node7"><a xlink:title=" ">
<polygon fill="white" stroke="#bfbfbf" points="0,-6.5 0,-26.5 98.24,-26.5 98.24,-6.5 0,-6.5"/>
<text text-anchor="middle" x="49.12" y="-13.5" font-family="Helvetica,sans-Serif" font-size="10.00">cereal/macros.hpp</text>
</a>
</g>
</g>
<!-- Node2&#45;&gt;Node7 -->
<g id="edge6" class="edge">
<title>Node2&#45;&gt;Node7</title>
<path fill="none" stroke="midnightblue" d="M171.97,-75.46C147.72,-64.03 105.75,-44.22 77.7,-30.99"/>
<polygon fill="midnightblue" stroke="midnightblue" points="78.96,-27.71 68.42,-26.61 75.97,-34.04 78.96,-27.71"/>
</g>
<!-- Node8&#45;&gt;Node2 -->
<g id="edge26" class="edge">
<title>Node8&#45;&gt;Node2</title>
<path fill="none" stroke="midnightblue" d="M578.64,-142.43C505.02,-135.41 372.41,-121.37 260.12,-102 252.96,-100.77 245.43,-99.27 238.08,-97.71"/>
<polygon fill="midnightblue" stroke="midnightblue" points="238.74,-94.27 228.22,-95.55 237.24,-101.11 238.74,-94.27"/>
</g>
<!-- Node8&#45;&gt;Node4 -->
<g id="edge25" class="edge">
<title>Node8&#45;&gt;Node4</title>
<path fill="none" stroke="midnightblue" d="M578.63,-143.74C486.66,-137.07 312.8,-121.97 293.12,-102 276.39,-85.03 276.77,-55.89 279.35,-36.65"/>
<polygon fill="midnightblue" stroke="midnightblue" points="282.82,-37.08 281,-26.64 275.92,-35.94 282.82,-37.08"/>
</g>
<!-- Node9 -->
<g id="node9" class="node">
<title>Node9</title>
<g id="a_node9"><a xlink:title=" ">
<polygon fill="white" stroke="#bfbfbf" points="499.22,-75.5 499.22,-95.5 633.02,-95.5 633.02,-75.5 499.22,-75.5"/>
<text text-anchor="middle" x="566.12" y="-82.5" font-family="Helvetica,sans-Serif" font-size="10.00">halco/common/geometry.h</text>
</a>
</g>
</g>
<!-- Node8&#45;&gt;Node9 -->
<g id="edge8" class="edge">
<title>Node8&#45;&gt;Node9</title>
<path fill="none" stroke="midnightblue" d="M624.94,-138.5C614.24,-129.04 597.18,-113.96 584.19,-102.47"/>
<polygon fill="midnightblue" stroke="midnightblue" points="586.15,-99.54 576.34,-95.54 581.51,-104.78 586.15,-99.54"/>
</g>
<!-- Node10 -->
<g id="node10" class="node">
<title>Node10</title>
<g id="a_node10"><a xlink:title=" ">
<polygon fill="white" stroke="#bfbfbf" points="651,-69.5 651,-101.5 759.24,-101.5 759.24,-69.5 651,-69.5"/>
<text text-anchor="start" x="659" y="-88.5" font-family="Helvetica,sans-Serif" font-size="10.00">halco/common/typed</text>
<text text-anchor="middle" x="705.12" y="-76.5" font-family="Helvetica,sans-Serif" font-size="10.00">_array.h</text>
</a>
</g>
</g>
<!-- Node8&#45;&gt;Node10 -->
<g id="edge9" class="edge">
<title>Node8&#45;&gt;Node10</title>
<path fill="none" stroke="midnightblue" d="M645.45,-138.5C654.47,-130.64 667.94,-118.9 679.81,-108.56"/>
<polygon fill="midnightblue" stroke="midnightblue" points="682.45,-110.9 687.69,-101.69 677.85,-105.62 682.45,-110.9"/>
</g>
<!-- Node11 -->
<g id="node11" class="node">
<title>Node11</title>
<g id="a_node11"><a xlink:title=" ">
<polygon fill="white" stroke="#bfbfbf" points="777.61,-69.5 777.61,-101.5 878.63,-101.5 878.63,-69.5 777.61,-69.5"/>
<text text-anchor="start" x="785.61" y="-88.5" font-family="Helvetica,sans-Serif" font-size="10.00">halco/hicann&#45;dls/vx</text>
<text text-anchor="middle" x="828.12" y="-76.5" font-family="Helvetica,sans-Serif" font-size="10.00">/capmem.h</text>
</a>
</g>
</g>
<!-- Node8&#45;&gt;Node11 -->
<g id="edge10" class="edge">
<title>Node8&#45;&gt;Node11</title>
<path fill="none" stroke="midnightblue" d="M663.6,-138.5C691.68,-129.62 735.4,-115.81 770.71,-104.64"/>
<polygon fill="midnightblue" stroke="midnightblue" points="771.95,-107.92 780.43,-101.57 769.84,-101.25 771.95,-107.92"/>
</g>
<!-- Node12 -->
<g id="node12" class="node">
<title>Node12</title>
<g id="a_node12"><a xlink:title=" ">
<polygon fill="white" stroke="#bfbfbf" points="1001.61,-69.5 1001.61,-101.5 1102.63,-101.5 1102.63,-69.5 1001.61,-69.5"/>
<text text-anchor="start" x="1009.61" y="-88.5" font-family="Helvetica,sans-Serif" font-size="10.00">halco/hicann&#45;dls/vx</text>
<text text-anchor="middle" x="1052.12" y="-76.5" font-family="Helvetica,sans-Serif" font-size="10.00">/correlation.h</text>
</a>
</g>
</g>
<!-- Node8&#45;&gt;Node12 -->
<g id="edge11" class="edge">
<title>Node8&#45;&gt;Node12</title>
<path fill="none" stroke="midnightblue" d="M691.6,-142.62C760.37,-136.17 880.2,-123.28 991.33,-102.21"/>
<polygon fill="midnightblue" stroke="midnightblue" points="992.21,-105.61 1001.37,-100.28 990.88,-98.73 992.21,-105.61"/>
</g>
<!-- Node8&#45;&gt;Node13 -->
<g id="edge12" class="edge">
<title>Node8&#45;&gt;Node13</title>
<path fill="none" stroke="midnightblue" d="M691.55,-147.19C801.45,-145.77 1039.78,-138.45 1112.12,-102 1141.65,-87.12 1165.08,-55.51 1177.75,-35.45"/>
<polygon fill="midnightblue" stroke="midnightblue" points="1180.89,-37.02 1183.08,-26.66 1174.9,-33.39 1180.89,-37.02"/>
</g>
<!-- Node14 -->
<g id="node14" class="node">
<title>Node14</title>
<g id="a_node14"><a xlink:href="traits_8h.html" target="_top" xlink:title=" ">
<polygon fill="white" stroke="black" points="896.28,-75.5 896.28,-95.5 983.96,-95.5 983.96,-75.5 896.28,-75.5"/>
<text text-anchor="middle" x="940.12" y="-82.5" font-family="Helvetica,sans-Serif" font-size="10.00">haldls/vx/traits.h</text>
</a>
</g>
</g>
<!-- Node8&#45;&gt;Node14 -->
<g id="edge14" class="edge">
<title>Node8&#45;&gt;Node14</title>
<path fill="none" stroke="midnightblue" d="M691.76,-139.17C743.29,-131.15 821.26,-117.92 888.12,-102 892.74,-100.9 897.57,-99.63 902.33,-98.3"/>
<polygon fill="midnightblue" stroke="midnightblue" points="903.3,-101.66 911.94,-95.53 901.36,-94.94 903.3,-101.66"/>
</g>
<!-- Node21 -->
<g id="node21" class="node">
<title>Node21</title>
<g id="a_node21"><a xlink:title=" ">
<polygon fill="white" stroke="#bfbfbf" points="301.72,-75.5 301.72,-95.5 370.52,-95.5 370.52,-75.5 301.72,-75.5"/>
<text text-anchor="middle" x="336.12" y="-82.5" font-family="Helvetica,sans-Serif" font-size="10.00">hate/math.h</text>
</a>
</g>
</g>
<!-- Node8&#45;&gt;Node21 -->
<g id="edge24" class="edge">
<title>Node8&#45;&gt;Node21</title>
<path fill="none" stroke="midnightblue" d="M578.58,-140.1C526.53,-132.65 447.41,-119.73 380.12,-102 376.54,-101.06 372.84,-99.96 369.17,-98.79"/>
<polygon fill="midnightblue" stroke="midnightblue" points="370.24,-95.45 359.65,-95.58 368.01,-102.09 370.24,-95.45"/>
</g>
<!-- Node22 -->
<g id="node22" class="node">
<title>Node22</title>
<g id="a_node22"><a xlink:title=" ">
<polygon fill="white" stroke="#bfbfbf" points="388.78,-75.5 388.78,-95.5 481.46,-95.5 481.46,-75.5 388.78,-75.5"/>
<text text-anchor="middle" x="435.12" y="-82.5" font-family="Helvetica,sans-Serif" font-size="10.00">cereal/cereal.hpp</text>
</a>
</g>
</g>
<!-- Node8&#45;&gt;Node22 -->
<g id="edge27" class="edge">
<title>Node8&#45;&gt;Node22</title>
<path fill="none" stroke="midnightblue" d="M605.61,-138.5C570.9,-127.91 513.13,-110.29 474.59,-98.54"/>
<polygon fill="midnightblue" stroke="midnightblue" points="475.34,-95.11 464.75,-95.54 473.29,-101.8 475.34,-95.11"/>
</g>
<!-- Node13&#45;&gt;Node13 -->
<g id="edge13" class="edge">
<title>Node13&#45;&gt;Node13</title>
<path fill="none" stroke="midnightblue" d="M1212.01,-26.54C1235.84,-32.26 1262.19,-28.92 1262.19,-16.5 1262.19,-5.78 1242.55,-1.82 1221.85,-4.62"/>
<polygon fill="midnightblue" stroke="midnightblue" points="1221.2,-1.18 1212.01,-6.46 1222.49,-8.06 1221.2,-1.18"/>
</g>
<!-- Node14&#45;&gt;Node3 -->
<g id="edge18" class="edge">
<title>Node14&#45;&gt;Node3</title>
<path fill="none" stroke="midnightblue" d="M913.66,-75.47C905.55,-73.01 896.54,-70.59 888.12,-69 700.55,-33.55 648.31,-64.99 460.12,-33 453.85,-31.94 447.29,-30.54 440.89,-29.02"/>
<polygon fill="midnightblue" stroke="midnightblue" points="441.59,-25.58 431.04,-26.55 439.9,-32.37 441.59,-25.58"/>
</g>
<!-- Node14&#45;&gt;Node4 -->
<g id="edge19" class="edge">
<title>Node14&#45;&gt;Node4</title>
<path fill="none" stroke="midnightblue" d="M913.94,-75.46C905.76,-72.97 896.65,-70.54 888.12,-69 651.83,-26.44 586.56,-68.57 349.12,-33 341.84,-31.91 334.17,-30.43 326.75,-28.81"/>
<polygon fill="midnightblue" stroke="midnightblue" points="327.36,-25.36 316.83,-26.54 325.8,-32.18 327.36,-25.36"/>
</g>
<!-- Node14&#45;&gt;Node13 -->
<g id="edge17" class="edge">
<title>Node14&#45;&gt;Node13</title>
<path fill="none" stroke="midnightblue" d="M969.77,-75.48C977.06,-73.31 984.86,-71.03 992.12,-69 1043.38,-54.63 1102.53,-39.25 1142.32,-29.08"/>
<polygon fill="midnightblue" stroke="midnightblue" points="1143.43,-32.41 1152.26,-26.55 1141.7,-25.63 1143.43,-32.41"/>
</g>
<!-- Node15 -->
<g id="node15" class="node">
<title>Node15</title>
<g id="a_node15"><a xlink:title=" ">
<polygon fill="white" stroke="#bfbfbf" points="469.06,-6.5 469.06,-26.5 551.18,-26.5 551.18,-6.5 469.06,-6.5"/>
<text text-anchor="middle" x="510.12" y="-13.5" font-family="Helvetica,sans-Serif" font-size="10.00">fisch/vx/traits.h</text>
</a>
</g>
</g>
<!-- Node14&#45;&gt;Node15 -->
<g id="edge15" class="edge">
<title>Node14&#45;&gt;Node15</title>
<path fill="none" stroke="midnightblue" d="M913.09,-75.44C905.12,-73.04 896.34,-70.66 888.12,-69 744.37,-39.94 703.7,-62.85 560.12,-33 555.42,-32.02 550.52,-30.79 545.72,-29.44"/>
<polygon fill="midnightblue" stroke="midnightblue" points="546.66,-26.07 536.08,-26.58 544.67,-32.78 546.66,-26.07"/>
</g>
<!-- Node16 -->
<g id="node16" class="node">
<title>Node16</title>
<g id="a_node16"><a xlink:title=" ">
<polygon fill="white" stroke="#bfbfbf" points="568.89,-0.5 568.89,-32.5 679.35,-32.5 679.35,-0.5 568.89,-0.5"/>
<text text-anchor="start" x="576.89" y="-19.5" font-family="Helvetica,sans-Serif" font-size="10.00">fisch/vx/word_access</text>
<text text-anchor="middle" x="624.12" y="-7.5" font-family="Helvetica,sans-Serif" font-size="10.00">_type.h</text>
</a>
</g>
</g>
<!-- Node14&#45;&gt;Node16 -->
<g id="edge16" class="edge">
<title>Node14&#45;&gt;Node16</title>
<path fill="none" stroke="midnightblue" d="M911.94,-75.48C904.26,-73.19 895.91,-70.86 888.12,-69 803.35,-48.8 778.24,-51.42 689.53,-33.22"/>
<polygon fill="midnightblue" stroke="midnightblue" points="690.08,-29.76 679.58,-31.14 688.65,-36.61 690.08,-29.76"/>
</g>
<!-- Node17 -->
<g id="node17" class="node">
<title>Node17</title>
<g id="a_node17"><a xlink:title=" ">
<polygon fill="white" stroke="#bfbfbf" points="697.06,-6.5 697.06,-26.5 759.18,-26.5 759.18,-6.5 697.06,-6.5"/>
<text text-anchor="middle" x="728.12" y="-13.5" font-family="Helvetica,sans-Serif" font-size="10.00">type_traits</text>
</a>
</g>
</g>
<!-- Node14&#45;&gt;Node17 -->
<g id="edge20" class="edge">
<title>Node14&#45;&gt;Node17</title>
<path fill="none" stroke="midnightblue" d="M909.73,-75.43C861.27,-60.97 771.55,-34.18 768.12,-33 765.41,-32.07 762.61,-31.07 759.82,-30.04"/>
<polygon fill="midnightblue" stroke="midnightblue" points="761.02,-26.76 750.43,-26.5 758.55,-33.31 761.02,-26.76"/>
</g>
<!-- Node18 -->
<g id="node18" class="node">
<title>Node18</title>
<g id="a_node18"><a xlink:title=" ">
<polygon fill="white" stroke="#bfbfbf" points="776.72,-0.5 776.72,-32.5 875.52,-32.5 875.52,-0.5 776.72,-0.5"/>
<text text-anchor="start" x="784.72" y="-19.5" font-family="Helvetica,sans-Serif" font-size="10.00">boost/utility/enable</text>
<text text-anchor="middle" x="826.12" y="-7.5" font-family="Helvetica,sans-Serif" font-size="10.00">_if.hpp</text>
</a>
</g>
</g>
<!-- Node14&#45;&gt;Node18 -->
<g id="edge21" class="edge">
<title>Node14&#45;&gt;Node18</title>
<path fill="none" stroke="midnightblue" d="M924.74,-75.46C908.36,-65.84 881.9,-50.29 860.51,-37.71"/>
<polygon fill="midnightblue" stroke="midnightblue" points="862.09,-34.58 851.7,-32.53 858.55,-40.62 862.09,-34.58"/>
</g>
<!-- Node19 -->
<g id="node19" class="node">
<title>Node19</title>
<g id="a_node19"><a xlink:title=" ">
<polygon fill="white" stroke="#bfbfbf" points="893.77,-6.5 893.77,-26.5 986.47,-26.5 986.47,-6.5 893.77,-6.5"/>
<text text-anchor="middle" x="940.12" y="-13.5" font-family="Helvetica,sans-Serif" font-size="10.00">boost/variant.hpp</text>
</a>
</g>
</g>
<!-- Node14&#45;&gt;Node19 -->
<g id="edge22" class="edge">
<title>Node14&#45;&gt;Node19</title>
<path fill="none" stroke="midnightblue" d="M940.12,-75.46C940.12,-65.63 940.12,-49.61 940.12,-36.9"/>
<polygon fill="midnightblue" stroke="midnightblue" points="943.62,-36.82 940.12,-26.82 936.62,-36.82 943.62,-36.82"/>
</g>
<!-- Node20 -->
<g id="node20" class="node">
<title>Node20</title>
<g id="a_node20"><a xlink:title=" ">
<polygon fill="white" stroke="#bfbfbf" points="1004.16,-6.5 1004.16,-26.5 1114.07,-26.5 1114.07,-6.5 1004.16,-6.5"/>
<text text-anchor="middle" x="1059.12" y="-13.5" font-family="Helvetica,sans-Serif" font-size="10.00">fisch/vx/container.def</text>
</a>
</g>
</g>
<!-- Node14&#45;&gt;Node20 -->
<g id="edge23" class="edge">
<title>Node14&#45;&gt;Node20</title>
<path fill="none" stroke="midnightblue" d="M956.17,-75.46C976.13,-64.23 1010.44,-44.91 1033.92,-31.69"/>
<polygon fill="midnightblue" stroke="midnightblue" points="1035.95,-34.56 1042.94,-26.61 1032.51,-28.46 1035.95,-34.56"/>
</g>
</g>
</svg>
        <g id="navigator" transform="translate(0 0)" fill="#404254">
                <rect fill="#f2f5e9" fill-opacity="0.5" stroke="#606060" stroke-width=".5" x="0" y="0" width="60" height="60"/>
                <use id="zoomplus" xlink:href="#zoomPlus" x="17" y="9" onmousedown="handleZoom(evt,'in')"/>
                <use id="zoomminus" xlink:href="#zoomMin" x="42" y="9" onmousedown="handleZoom(evt,'out')"/>
                <use id="reset" xlink:href="#resetDef" x="30" y="36" onmousedown="handleReset()"/>
                <g id="arrowUp" xlink:href="#dirArrow" transform="translate(30 24)" onmousedown="handlePan(0,-1)">
                  <use xlink:href="#rim" fill="#404040">
                        <set attributeName="fill" to="#808080" begin="arrowUp.mouseover" end="arrowUp.mouseout"/>
                  </use>
                  <path fill="none" stroke="white" stroke-width="1.5" d="M0,-3.0v7 M-2.5,-0.5L0,-3.0L2.5,-0.5"/>
                </g>
                <g id="arrowRight" xlink:href="#dirArrow" transform="rotate(90) translate(36 -43)" onmousedown="handlePan(1,0)">
                  <use xlink:href="#rim" fill="#404040">
                        <set attributeName="fill" to="#808080" begin="arrowRight.mouseover" end="arrowRight.mouseout"/>
                  </use>
                  <path fill="none" stroke="white" stroke-width="1.5" d="M0,-3.0v7 M-2.5,-0.5L0,-3.0L2.5,-0.5"/>
                </g>
                <g id="arrowDown" xlink:href="#dirArrow" transform="rotate(180) translate(-30 -48)" onmousedown="handlePan(0,1)">
                  <use xlink:href="#rim" fill="#404040">
                        <set attributeName="fill" to="#808080" begin="arrowDown.mouseover" end="arrowDown.mouseout"/>
                  </use>
                  <path fill="none" stroke="white" stroke-width="1.5" d="M0,-3.0v7 M-2.5,-0.5L0,-3.0L2.5,-0.5"/>
                </g>
                <g id="arrowLeft" xlink:href="#dirArrow" transform="rotate(270) translate(-36 17)" onmousedown="handlePan(-1,0)">
                  <use xlink:href="#rim" fill="#404040">
                        <set attributeName="fill" to="#808080" begin="arrowLeft.mouseover" end="arrowLeft.mouseout"/>
                  </use>
                  <path fill="none" stroke="white" stroke-width="1.5" d="M0,-3.0v7 M-2.5,-0.5L0,-3.0L2.5,-0.5"/>
                </g>
        </g>
        <svg viewBox="0 0 15 15" width="100%" height="30px" preserveAspectRatio="xMaxYMin meet">
         <g id="arrow_out" transform="scale(0.3 0.3)">
          <a xlink:href="v2_2correlation_8h__incl_org.svg" target="_base">
           <rect id="button" ry="5" rx="5" y="6" x="6" height="38" width="38"
                fill="#f2f5e9" fill-opacity="0.5" stroke="#606060" stroke-width="1.0"/>
           <path id="arrow"
             d="M 11.500037,31.436501 C 11.940474,20.09759 22.043105,11.32322 32.158766,21.979434 L 37.068811,17.246167 C 37.068811,17.246167 37.088388,32 37.088388,32 L 22.160133,31.978069 C 22.160133,31.978069 26.997745,27.140456 26.997745,27.140456 C 18.528582,18.264221 13.291696,25.230495 11.500037,31.436501 z"
             style="fill:#404040;"/>
          </a>
         </g>
        </svg>
</svg>
