<?xml version="1.0" encoding="UTF-8" standalone="no"?>
<!DOCTYPE svg PUBLIC "-//W3C//DTD SVG 1.1//EN"
 "http://www.w3.org/Graphics/SVG/1.1/DTD/svg11.dtd">
<!-- Generated by graphviz version 2.46.0 (0)
 -->
<!-- Title: /jenkins/jenlib_workspaces_f9/bld_nightly&#45;haldls.YmxkX25pZ2h0bHktaGFsZGxzIzEzNzk.x/haldls/include/haldls/vx/v2/barrier.h Pages: 1 -->
<svg width="1243pt" height="248pt"
 viewBox="0.00 0.00 1243.24 248.00" xmlns="http://www.w3.org/2000/svg" xmlns:xlink="http://www.w3.org/1999/xlink">
<g id="graph0" class="graph" transform="scale(1 1) rotate(0) translate(4 244)">
<title>/jenkins/jenlib_workspaces_f9/bld_nightly&#45;haldls.YmxkX25pZ2h0bHktaGFsZGxzIzEzNzk.x/haldls/include/haldls/vx/v2/barrier.h</title>
<polygon fill="white" stroke="transparent" points="-4,4 -4,-244 1239.24,-244 1239.24,4 -4,4"/>
<!-- Node1 -->
<g id="node1" class="node">
<title>Node1</title>
<g id="a_node1"><a xlink:title=" ">
<polygon fill="#bfbfbf" stroke="black" points="577.66,-183.5 577.66,-239.5 758.68,-239.5 758.68,-183.5 577.66,-183.5"/>
<text text-anchor="start" x="585.66" y="-226.5" font-family="Helvetica,sans-Serif" font-size="10.00">/jenkins/jenlib_workspaces</text>
<text text-anchor="start" x="585.66" y="-214.5" font-family="Helvetica,sans-Serif" font-size="10.00">_f9/bld_nightly&#45;haldls.YmxkX25p</text>
<text text-anchor="start" x="585.66" y="-202.5" font-family="Helvetica,sans-Serif" font-size="10.00">Z2h0bHktaGFsZGxzIzEzNzk.x/haldls</text>
<text text-anchor="middle" x="668.17" y="-190.5" font-family="Helvetica,sans-Serif" font-size="10.00">/include/haldls/vx/v2/barrier.h</text>
</a>
</g>
</g>
<!-- Node2 -->
<g id="node2" class="node">
<title>Node2</title>
<g id="a_node2"><a xlink:href="barrier_8h.html" target="_top" xlink:title=" ">
<polygon fill="white" stroke="black" points="565.72,-126.5 565.72,-146.5 660.61,-146.5 660.61,-126.5 565.72,-126.5"/>
<text text-anchor="middle" x="613.17" y="-133.5" font-family="Helvetica,sans-Serif" font-size="10.00">haldls/vx/barrier.h</text>
</a>
</g>
</g>
<!-- Node1&#45;&gt;Node2 -->
<g id="edge1" class="edge">
<title>Node1&#45;&gt;Node2</title>
<path fill="none" stroke="midnightblue" d="M647.69,-183.32C640.43,-173.69 632.48,-163.14 626.04,-154.59"/>
<polygon fill="midnightblue" stroke="midnightblue" points="628.78,-152.41 619.97,-146.52 623.19,-156.62 628.78,-152.41"/>
</g>
<!-- Node9 -->
<g id="node9" class="node">
<title>Node9</title>
<g id="a_node9"><a xlink:href="genpybind_8h.html" target="_top" xlink:title=" ">
<polygon fill="white" stroke="black" points="1105.1,-6.5 1105.1,-26.5 1217.24,-26.5 1217.24,-6.5 1105.1,-6.5"/>
<text text-anchor="middle" x="1161.17" y="-13.5" font-family="Helvetica,sans-Serif" font-size="10.00">haldls/vx/genpybind.h</text>
</a>
</g>
</g>
<!-- Node1&#45;&gt;Node9 -->
<g id="edge22" class="edge">
<title>Node1&#45;&gt;Node9</title>
<path fill="none" stroke="midnightblue" d="M737.24,-183.46C844.99,-141.28 1048.96,-61.43 1128.37,-30.34"/>
<polygon fill="midnightblue" stroke="midnightblue" points="1129.82,-33.53 1137.86,-26.62 1127.27,-27.01 1129.82,-33.53"/>
</g>
<!-- Node3 -->
<g id="node3" class="node">
<title>Node3</title>
<g id="a_node3"><a xlink:title=" ">
<polygon fill="white" stroke="#bfbfbf" points="0,-6.5 0,-26.5 44.34,-26.5 44.34,-6.5 0,-6.5"/>
<text text-anchor="middle" x="22.17" y="-13.5" font-family="Helvetica,sans-Serif" font-size="10.00">iosfwd</text>
</a>
</g>
</g>
<!-- Node2&#45;&gt;Node3 -->
<g id="edge2" class="edge">
<title>Node2&#45;&gt;Node3</title>
<path fill="none" stroke="midnightblue" d="M565.58,-135.51C484.58,-134.42 315.35,-127.38 178.17,-90 129.03,-76.61 76.13,-48.88 46.28,-31.87"/>
<polygon fill="midnightblue" stroke="midnightblue" points="47.85,-28.73 37.44,-26.75 44.34,-34.79 47.85,-28.73"/>
</g>
<!-- Node4 -->
<g id="node4" class="node">
<title>Node4</title>
<g id="a_node4"><a xlink:href="cerealization_8h.html" target="_top" xlink:title=" ">
<polygon fill="white" stroke="black" points="187.49,-69.5 187.49,-89.5 296.84,-89.5 296.84,-69.5 187.49,-69.5"/>
<text text-anchor="middle" x="242.17" y="-76.5" font-family="Helvetica,sans-Serif" font-size="10.00">haldls/cerealization.h</text>
</a>
</g>
</g>
<!-- Node2&#45;&gt;Node4 -->
<g id="edge3" class="edge">
<title>Node2&#45;&gt;Node4</title>
<path fill="none" stroke="midnightblue" d="M565.43,-128.42C499.63,-118.67 380.87,-101.06 307.07,-90.12"/>
<polygon fill="midnightblue" stroke="midnightblue" points="307.36,-86.63 296.96,-88.62 306.34,-93.55 307.36,-86.63"/>
</g>
<!-- Node6 -->
<g id="node6" class="node">
<title>Node6</title>
<g id="a_node6"><a xlink:title=" ">
<polygon fill="white" stroke="#bfbfbf" points="342.66,-6.5 342.66,-26.5 423.67,-26.5 423.67,-6.5 342.66,-6.5"/>
<text text-anchor="middle" x="383.17" y="-13.5" font-family="Helvetica,sans-Serif" font-size="10.00">hate/visibility.h</text>
</a>
</g>
</g>
<!-- Node2&#45;&gt;Node6 -->
<g id="edge21" class="edge">
<title>Node2&#45;&gt;Node6</title>
<path fill="none" stroke="midnightblue" d="M595.5,-126.44C555.45,-105.89 457.53,-55.65 409.97,-31.25"/>
<polygon fill="midnightblue" stroke="midnightblue" points="411.39,-28.04 400.89,-26.59 408.19,-34.27 411.39,-28.04"/>
</g>
<!-- Node2&#45;&gt;Node9 -->
<g id="edge9" class="edge">
<title>Node2&#45;&gt;Node9</title>
<path fill="none" stroke="midnightblue" d="M657.53,-126.47C742.7,-109.05 934.98,-69.32 1096.17,-33 1101.97,-31.69 1108.05,-30.29 1114.07,-28.88"/>
<polygon fill="midnightblue" stroke="midnightblue" points="1115.15,-32.22 1124.08,-26.51 1113.54,-25.41 1115.15,-32.22"/>
</g>
<!-- Node10 -->
<g id="node10" class="node">
<title>Node10</title>
<g id="a_node10"><a xlink:href="traits_8h.html" target="_top" xlink:title=" ">
<polygon fill="white" stroke="black" points="605.33,-69.5 605.33,-89.5 693.01,-89.5 693.01,-69.5 605.33,-69.5"/>
<text text-anchor="middle" x="649.17" y="-76.5" font-family="Helvetica,sans-Serif" font-size="10.00">haldls/vx/traits.h</text>
</a>
</g>
</g>
<!-- Node2&#45;&gt;Node10 -->
<g id="edge11" class="edge">
<title>Node2&#45;&gt;Node10</title>
<path fill="none" stroke="midnightblue" d="M619.11,-126.42C624.08,-118.82 631.33,-107.75 637.46,-98.39"/>
<polygon fill="midnightblue" stroke="midnightblue" points="640.55,-100.06 643.09,-89.78 634.69,-96.23 640.55,-100.06"/>
</g>
<!-- Node4&#45;&gt;Node3 -->
<g id="edge7" class="edge">
<title>Node4&#45;&gt;Node3</title>
<path fill="none" stroke="midnightblue" d="M191.11,-69.48C152.54,-61.89 98.66,-49.6 53.17,-33 51.5,-32.39 49.8,-31.71 48.1,-31"/>
<polygon fill="midnightblue" stroke="midnightblue" points="49.14,-27.62 38.59,-26.58 46.19,-33.97 49.14,-27.62"/>
</g>
<!-- Node5 -->
<g id="node5" class="node">
<title>Node5</title>
<g id="a_node5"><a xlink:title=" ">
<polygon fill="white" stroke="#bfbfbf" points="241.54,-6.5 241.54,-26.5 324.79,-26.5 324.79,-6.5 241.54,-6.5"/>
<text text-anchor="middle" x="283.17" y="-13.5" font-family="Helvetica,sans-Serif" font-size="10.00">hate/type_list.h</text>
</a>
</g>
</g>
<!-- Node4&#45;&gt;Node5 -->
<g id="edge4" class="edge">
<title>Node4&#45;&gt;Node5</title>
<path fill="none" stroke="midnightblue" d="M248.22,-69.5C254.27,-60.49 263.75,-46.39 271.31,-35.14"/>
<polygon fill="midnightblue" stroke="midnightblue" points="274.42,-36.79 277.09,-26.54 268.61,-32.88 274.42,-36.79"/>
</g>
<!-- Node4&#45;&gt;Node6 -->
<g id="edge5" class="edge">
<title>Node4&#45;&gt;Node6</title>
<path fill="none" stroke="midnightblue" d="M262.97,-69.5C286.72,-59.23 325.76,-42.34 352.88,-30.6"/>
<polygon fill="midnightblue" stroke="midnightblue" points="354.49,-33.72 362.28,-26.54 351.71,-27.3 354.49,-33.72"/>
</g>
<!-- Node7 -->
<g id="node7" class="node">
<title>Node7</title>
<g id="a_node7"><a xlink:title=" ">
<polygon fill="white" stroke="#bfbfbf" points="178.72,-6.5 178.72,-26.5 223.62,-26.5 223.62,-6.5 178.72,-6.5"/>
<text text-anchor="middle" x="201.17" y="-13.5" font-family="Helvetica,sans-Serif" font-size="10.00">cstdint</text>
</a>
</g>
</g>
<!-- Node4&#45;&gt;Node7 -->
<g id="edge6" class="edge">
<title>Node4&#45;&gt;Node7</title>
<path fill="none" stroke="midnightblue" d="M236.12,-69.5C230.06,-60.49 220.58,-46.39 213.02,-35.14"/>
<polygon fill="midnightblue" stroke="midnightblue" points="215.73,-32.88 207.24,-26.54 209.92,-36.79 215.73,-32.88"/>
</g>
<!-- Node8 -->
<g id="node8" class="node">
<title>Node8</title>
<g id="a_node8"><a xlink:title=" ">
<polygon fill="white" stroke="#bfbfbf" points="62.05,-6.5 62.05,-26.5 160.29,-26.5 160.29,-6.5 62.05,-6.5"/>
<text text-anchor="middle" x="111.17" y="-13.5" font-family="Helvetica,sans-Serif" font-size="10.00">cereal/macros.hpp</text>
</a>
</g>
</g>
<!-- Node4&#45;&gt;Node8 -->
<g id="edge8" class="edge">
<title>Node4&#45;&gt;Node8</title>
<path fill="none" stroke="midnightblue" d="M222.84,-69.5C200.88,-59.27 164.82,-42.48 139.64,-30.76"/>
<polygon fill="midnightblue" stroke="midnightblue" points="141.12,-27.59 130.58,-26.54 138.16,-33.93 141.12,-27.59"/>
</g>
<!-- Node9&#45;&gt;Node9 -->
<g id="edge10" class="edge">
<title>Node9&#45;&gt;Node9</title>
<path fill="none" stroke="midnightblue" d="M1189.67,-26.56C1212.16,-30.45 1235.24,-27.1 1235.24,-16.5 1235.24,-7.48 1218.51,-3.71 1199.65,-5.19"/>
<polygon fill="midnightblue" stroke="midnightblue" points="1199.16,-1.72 1189.67,-6.44 1200.03,-8.67 1199.16,-1.72"/>
</g>
<!-- Node10&#45;&gt;Node5 -->
<g id="edge15" class="edge">
<title>Node10&#45;&gt;Node5</title>
<path fill="none" stroke="midnightblue" d="M605.32,-74.39C543.94,-68.15 429.14,-54.64 333.17,-33 328.71,-31.99 324.07,-30.79 319.5,-29.49"/>
<polygon fill="midnightblue" stroke="midnightblue" points="320.27,-26.07 309.68,-26.57 318.27,-32.78 320.27,-26.07"/>
</g>
<!-- Node10&#45;&gt;Node6 -->
<g id="edge16" class="edge">
<title>Node10&#45;&gt;Node6</title>
<path fill="none" stroke="midnightblue" d="M605.04,-70.45C561.18,-62.16 492.14,-48.32 433.17,-33 429.06,-31.93 424.79,-30.74 420.55,-29.5"/>
<polygon fill="midnightblue" stroke="midnightblue" points="421.39,-26.1 410.81,-26.57 419.37,-32.8 421.39,-26.1"/>
</g>
<!-- Node10&#45;&gt;Node9 -->
<g id="edge14" class="edge">
<title>Node10&#45;&gt;Node9</title>
<path fill="none" stroke="midnightblue" d="M693.21,-75.96C773.67,-70.89 949.65,-57.81 1096.17,-33 1102.93,-31.85 1110.04,-30.41 1116.97,-28.87"/>
<polygon fill="midnightblue" stroke="midnightblue" points="1117.98,-32.23 1126.93,-26.56 1116.4,-25.41 1117.98,-32.23"/>
</g>
<!-- Node11 -->
<g id="node11" class="node">
<title>Node11</title>
<g id="a_node11"><a xlink:title=" ">
<polygon fill="white" stroke="#bfbfbf" points="442.11,-6.5 442.11,-26.5 524.23,-26.5 524.23,-6.5 442.11,-6.5"/>
<text text-anchor="middle" x="483.17" y="-13.5" font-family="Helvetica,sans-Serif" font-size="10.00">fisch/vx/traits.h</text>
</a>
</g>
</g>
<!-- Node10&#45;&gt;Node11 -->
<g id="edge12" class="edge">
<title>Node10&#45;&gt;Node11</title>
<path fill="none" stroke="midnightblue" d="M624.67,-69.5C596.23,-59.05 549.14,-41.74 517.16,-29.99"/>
<polygon fill="midnightblue" stroke="midnightblue" points="518.36,-26.7 507.76,-26.54 515.94,-33.27 518.36,-26.7"/>
</g>
<!-- Node12 -->
<g id="node12" class="node">
<title>Node12</title>
<g id="a_node12"><a xlink:title=" ">
<polygon fill="white" stroke="#bfbfbf" points="541.94,-0.5 541.94,-32.5 652.4,-32.5 652.4,-0.5 541.94,-0.5"/>
<text text-anchor="start" x="549.94" y="-19.5" font-family="Helvetica,sans-Serif" font-size="10.00">fisch/vx/word_access</text>
<text text-anchor="middle" x="597.17" y="-7.5" font-family="Helvetica,sans-Serif" font-size="10.00">_type.h</text>
</a>
</g>
</g>
<!-- Node10&#45;&gt;Node12 -->
<g id="edge13" class="edge">
<title>Node10&#45;&gt;Node12</title>
<path fill="none" stroke="midnightblue" d="M641.49,-69.5C634.99,-61.86 625.36,-50.57 616.74,-40.46"/>
<polygon fill="midnightblue" stroke="midnightblue" points="619.27,-38.03 610.12,-32.69 613.94,-42.57 619.27,-38.03"/>
</g>
<!-- Node13 -->
<g id="node13" class="node">
<title>Node13</title>
<g id="a_node13"><a xlink:title=" ">
<polygon fill="white" stroke="#bfbfbf" points="670.11,-6.5 670.11,-26.5 732.23,-26.5 732.23,-6.5 670.11,-6.5"/>
<text text-anchor="middle" x="701.17" y="-13.5" font-family="Helvetica,sans-Serif" font-size="10.00">type_traits</text>
</a>
</g>
</g>
<!-- Node10&#45;&gt;Node13 -->
<g id="edge17" class="edge">
<title>Node10&#45;&gt;Node13</title>
<path fill="none" stroke="midnightblue" d="M656.84,-69.5C664.67,-60.31 677.03,-45.82 686.7,-34.47"/>
<polygon fill="midnightblue" stroke="midnightblue" points="689.64,-36.42 693.46,-26.54 684.31,-31.88 689.64,-36.42"/>
</g>
<!-- Node14 -->
<g id="node14" class="node">
<title>Node14</title>
<g id="a_node14"><a xlink:title=" ">
<polygon fill="white" stroke="#bfbfbf" points="749.77,-0.5 749.77,-32.5 848.57,-32.5 848.57,-0.5 749.77,-0.5"/>
<text text-anchor="start" x="757.77" y="-19.5" font-family="Helvetica,sans-Serif" font-size="10.00">boost/utility/enable</text>
<text text-anchor="middle" x="799.17" y="-7.5" font-family="Helvetica,sans-Serif" font-size="10.00">_if.hpp</text>
</a>
</g>
</g>
<!-- Node10&#45;&gt;Node14 -->
<g id="edge18" class="edge">
<title>Node10&#45;&gt;Node14</title>
<path fill="none" stroke="midnightblue" d="M671.3,-69.5C692.66,-60.81 725.66,-47.39 752.78,-36.36"/>
<polygon fill="midnightblue" stroke="midnightblue" points="754.16,-39.58 762.1,-32.57 751.52,-33.1 754.16,-39.58"/>
</g>
<!-- Node15 -->
<g id="node15" class="node">
<title>Node15</title>
<g id="a_node15"><a xlink:title=" ">
<polygon fill="white" stroke="#bfbfbf" points="866.82,-6.5 866.82,-26.5 959.51,-26.5 959.51,-6.5 866.82,-6.5"/>
<text text-anchor="middle" x="913.17" y="-13.5" font-family="Helvetica,sans-Serif" font-size="10.00">boost/variant.hpp</text>
</a>
</g>
</g>
<!-- Node10&#45;&gt;Node15 -->
<g id="edge19" class="edge">
<title>Node10&#45;&gt;Node15</title>
<path fill="none" stroke="midnightblue" d="M693.15,-69.61C735.36,-60.9 800.83,-46.95 857.17,-33 861.88,-31.83 866.79,-30.56 871.67,-29.26"/>
<polygon fill="midnightblue" stroke="midnightblue" points="872.82,-32.57 881.56,-26.57 870.99,-25.82 872.82,-32.57"/>
</g>
<!-- Node16 -->
<g id="node16" class="node">
<title>Node16</title>
<g id="a_node16"><a xlink:title=" ">
<polygon fill="white" stroke="#bfbfbf" points="977.21,-6.5 977.21,-26.5 1087.12,-26.5 1087.12,-6.5 977.21,-6.5"/>
<text text-anchor="middle" x="1032.17" y="-13.5" font-family="Helvetica,sans-Serif" font-size="10.00">fisch/vx/container.def</text>
</a>
</g>
</g>
<!-- Node10&#45;&gt;Node16 -->
<g id="edge20" class="edge">
<title>Node10&#45;&gt;Node16</title>
<path fill="none" stroke="midnightblue" d="M693.25,-73.57C755,-66.35 870.65,-51.72 968.17,-33 974.43,-31.8 981,-30.38 987.45,-28.91"/>
<polygon fill="midnightblue" stroke="midnightblue" points="988.49,-32.26 997.42,-26.56 986.89,-25.44 988.49,-32.26"/>
</g>
</g>
</svg>
