<?xml version="1.0" encoding="UTF-8" standalone="no"?>
<!DOCTYPE svg PUBLIC "-//W3C//DTD SVG 1.1//EN"
 "http://www.w3.org/Graphics/SVG/1.1/DTD/svg11.dtd">
<!-- Generated by graphviz version 2.46.0 (0)
 -->
<!-- Title: /jenkins/jenlib_workspaces_f9/bld_nightly&#45;haldls.YmxkX25pZ2h0bHktaGFsZGxzIzEzNzk.x/haldls/include/haldls/vx/v2/traits.h Pages: 1 -->
<svg width="1002pt" height="191pt"
 viewBox="0.00 0.00 1002.03 191.00" xmlns="http://www.w3.org/2000/svg" xmlns:xlink="http://www.w3.org/1999/xlink">
<g id="graph0" class="graph" transform="scale(1 1) rotate(0) translate(4 187)">
<title>/jenkins/jenlib_workspaces_f9/bld_nightly&#45;haldls.YmxkX25pZ2h0bHktaGFsZGxzIzEzNzk.x/haldls/include/haldls/vx/v2/traits.h</title>
<polygon fill="white" stroke="transparent" points="-4,4 -4,-187 998.03,-187 998.03,4 -4,4"/>
<!-- Node1 -->
<g id="node1" class="node">
<title>Node1</title>
<g id="a_node1"><a xlink:title=" ">
<polygon fill="#bfbfbf" stroke="black" points="196.56,-126.5 196.56,-182.5 377.58,-182.5 377.58,-126.5 196.56,-126.5"/>
<text text-anchor="start" x="204.56" y="-169.5" font-family="Helvetica,sans-Serif" font-size="10.00">/jenkins/jenlib_workspaces</text>
<text text-anchor="start" x="204.56" y="-157.5" font-family="Helvetica,sans-Serif" font-size="10.00">_f9/bld_nightly&#45;haldls.YmxkX25p</text>
<text text-anchor="start" x="204.56" y="-145.5" font-family="Helvetica,sans-Serif" font-size="10.00">Z2h0bHktaGFsZGxzIzEzNzk.x/haldls</text>
<text text-anchor="middle" x="287.07" y="-133.5" font-family="Helvetica,sans-Serif" font-size="10.00">/include/haldls/vx/v2/traits.h</text>
</a>
</g>
</g>
<!-- Node2 -->
<g id="node2" class="node">
<title>Node2</title>
<g id="a_node2"><a xlink:href="genpybind_8h.html" target="_top" xlink:title=" ">
<polygon fill="white" stroke="black" points="0,-6.5 0,-26.5 112.14,-26.5 112.14,-6.5 0,-6.5"/>
<text text-anchor="middle" x="56.07" y="-13.5" font-family="Helvetica,sans-Serif" font-size="10.00">haldls/vx/genpybind.h</text>
</a>
</g>
</g>
<!-- Node1&#45;&gt;Node2 -->
<g id="edge1" class="edge">
<title>Node1&#45;&gt;Node2</title>
<path fill="none" stroke="midnightblue" d="M241.16,-126.47C192.76,-97.97 118.38,-54.18 80.32,-31.78"/>
<polygon fill="midnightblue" stroke="midnightblue" points="81.86,-28.62 71.47,-26.56 78.31,-34.65 81.86,-28.62"/>
</g>
<!-- Node3 -->
<g id="node3" class="node">
<title>Node3</title>
<g id="a_node3"><a xlink:href="traits_8h.html" target="_top" xlink:title=" ">
<polygon fill="white" stroke="black" points="424.23,-69.5 424.23,-89.5 511.91,-89.5 511.91,-69.5 424.23,-69.5"/>
<text text-anchor="middle" x="468.07" y="-76.5" font-family="Helvetica,sans-Serif" font-size="10.00">haldls/vx/traits.h</text>
</a>
</g>
</g>
<!-- Node1&#45;&gt;Node3 -->
<g id="edge3" class="edge">
<title>Node1&#45;&gt;Node3</title>
<path fill="none" stroke="midnightblue" d="M354.21,-126.42C382.26,-115.11 413.51,-102.5 436.17,-93.37"/>
<polygon fill="midnightblue" stroke="midnightblue" points="437.66,-96.54 445.63,-89.55 435.04,-90.05 437.66,-96.54"/>
</g>
<!-- Node2&#45;&gt;Node2 -->
<g id="edge2" class="edge">
<title>Node2&#45;&gt;Node2</title>
<path fill="none" stroke="midnightblue" d="M84.58,-26.56C107.07,-30.45 130.14,-27.1 130.14,-16.5 130.14,-7.48 113.41,-3.71 94.55,-5.19"/>
<polygon fill="midnightblue" stroke="midnightblue" points="94.06,-1.72 84.58,-6.44 94.94,-8.67 94.06,-1.72"/>
</g>
<!-- Node3&#45;&gt;Node2 -->
<g id="edge6" class="edge">
<title>Node3&#45;&gt;Node2</title>
<path fill="none" stroke="midnightblue" d="M424.07,-73.09C360.87,-65.16 240.81,-49.53 139.07,-33 130.45,-31.6 121.35,-30.01 112.45,-28.4"/>
<polygon fill="midnightblue" stroke="midnightblue" points="113,-24.94 102.54,-26.58 111.74,-31.83 113,-24.94"/>
</g>
<!-- Node4 -->
<g id="node4" class="node">
<title>Node4</title>
<g id="a_node4"><a xlink:title=" ">
<polygon fill="white" stroke="#bfbfbf" points="148.01,-6.5 148.01,-26.5 230.13,-26.5 230.13,-6.5 148.01,-6.5"/>
<text text-anchor="middle" x="189.07" y="-13.5" font-family="Helvetica,sans-Serif" font-size="10.00">fisch/vx/traits.h</text>
</a>
</g>
</g>
<!-- Node3&#45;&gt;Node4 -->
<g id="edge4" class="edge">
<title>Node3&#45;&gt;Node4</title>
<path fill="none" stroke="midnightblue" d="M423.86,-71.13C377.52,-63.07 302.72,-49.14 239.07,-33 234.91,-31.94 230.58,-30.75 226.29,-29.51"/>
<polygon fill="midnightblue" stroke="midnightblue" points="227.02,-26.07 216.43,-26.55 225,-32.77 227.02,-26.07"/>
</g>
<!-- Node5 -->
<g id="node5" class="node">
<title>Node5</title>
<g id="a_node5"><a xlink:title=" ">
<polygon fill="white" stroke="#bfbfbf" points="247.84,-0.5 247.84,-32.5 358.3,-32.5 358.3,-0.5 247.84,-0.5"/>
<text text-anchor="start" x="255.84" y="-19.5" font-family="Helvetica,sans-Serif" font-size="10.00">fisch/vx/word_access</text>
<text text-anchor="middle" x="303.07" y="-7.5" font-family="Helvetica,sans-Serif" font-size="10.00">_type.h</text>
</a>
</g>
</g>
<!-- Node3&#45;&gt;Node5 -->
<g id="edge5" class="edge">
<title>Node3&#45;&gt;Node5</title>
<path fill="none" stroke="midnightblue" d="M443.73,-69.5C420.02,-60.74 383.3,-47.16 353.31,-36.07"/>
<polygon fill="midnightblue" stroke="midnightblue" points="354.43,-32.76 343.84,-32.57 352.01,-39.32 354.43,-32.76"/>
</g>
<!-- Node6 -->
<g id="node6" class="node">
<title>Node6</title>
<g id="a_node6"><a xlink:title=" ">
<polygon fill="white" stroke="#bfbfbf" points="376.45,-6.5 376.45,-26.5 459.69,-26.5 459.69,-6.5 376.45,-6.5"/>
<text text-anchor="middle" x="418.07" y="-13.5" font-family="Helvetica,sans-Serif" font-size="10.00">hate/type_list.h</text>
</a>
</g>
</g>
<!-- Node3&#45;&gt;Node6 -->
<g id="edge7" class="edge">
<title>Node3&#45;&gt;Node6</title>
<path fill="none" stroke="midnightblue" d="M460.69,-69.5C453.16,-60.31 441.28,-45.82 431.98,-34.47"/>
<polygon fill="midnightblue" stroke="midnightblue" points="434.53,-32.05 425.48,-26.54 429.11,-36.49 434.53,-32.05"/>
</g>
<!-- Node7 -->
<g id="node7" class="node">
<title>Node7</title>
<g id="a_node7"><a xlink:title=" ">
<polygon fill="white" stroke="#bfbfbf" points="477.57,-6.5 477.57,-26.5 558.57,-26.5 558.57,-6.5 477.57,-6.5"/>
<text text-anchor="middle" x="518.07" y="-13.5" font-family="Helvetica,sans-Serif" font-size="10.00">hate/visibility.h</text>
</a>
</g>
</g>
<!-- Node3&#45;&gt;Node7 -->
<g id="edge8" class="edge">
<title>Node3&#45;&gt;Node7</title>
<path fill="none" stroke="midnightblue" d="M475.45,-69.5C482.98,-60.31 494.86,-45.82 504.16,-34.47"/>
<polygon fill="midnightblue" stroke="midnightblue" points="507.03,-36.49 510.66,-26.54 501.62,-32.05 507.03,-36.49"/>
</g>
<!-- Node8 -->
<g id="node8" class="node">
<title>Node8</title>
<g id="a_node8"><a xlink:title=" ">
<polygon fill="white" stroke="#bfbfbf" points="577.01,-6.5 577.01,-26.5 639.13,-26.5 639.13,-6.5 577.01,-6.5"/>
<text text-anchor="middle" x="608.07" y="-13.5" font-family="Helvetica,sans-Serif" font-size="10.00">type_traits</text>
</a>
</g>
</g>
<!-- Node3&#45;&gt;Node8 -->
<g id="edge9" class="edge">
<title>Node3&#45;&gt;Node8</title>
<path fill="none" stroke="midnightblue" d="M488.73,-69.5C512.3,-59.23 551.07,-42.34 577.99,-30.6"/>
<polygon fill="midnightblue" stroke="midnightblue" points="579.56,-33.74 587.33,-26.54 576.76,-27.32 579.56,-33.74"/>
</g>
<!-- Node9 -->
<g id="node9" class="node">
<title>Node9</title>
<g id="a_node9"><a xlink:title=" ">
<polygon fill="white" stroke="#bfbfbf" points="656.67,-0.5 656.67,-32.5 755.47,-32.5 755.47,-0.5 656.67,-0.5"/>
<text text-anchor="start" x="664.67" y="-19.5" font-family="Helvetica,sans-Serif" font-size="10.00">boost/utility/enable</text>
<text text-anchor="middle" x="706.07" y="-7.5" font-family="Helvetica,sans-Serif" font-size="10.00">_if.hpp</text>
</a>
</g>
</g>
<!-- Node3&#45;&gt;Node9 -->
<g id="edge10" class="edge">
<title>Node3&#45;&gt;Node9</title>
<path fill="none" stroke="midnightblue" d="M504.31,-69.49C538.63,-60.93 591.85,-47.56 646.55,-33.38"/>
<polygon fill="midnightblue" stroke="midnightblue" points="647.61,-36.72 656.41,-30.82 645.85,-29.95 647.61,-36.72"/>
</g>
<!-- Node10 -->
<g id="node10" class="node">
<title>Node10</title>
<g id="a_node10"><a xlink:title=" ">
<polygon fill="white" stroke="#bfbfbf" points="773.72,-6.5 773.72,-26.5 866.42,-26.5 866.42,-6.5 773.72,-6.5"/>
<text text-anchor="middle" x="820.07" y="-13.5" font-family="Helvetica,sans-Serif" font-size="10.00">boost/variant.hpp</text>
</a>
</g>
</g>
<!-- Node3&#45;&gt;Node10 -->
<g id="edge11" class="edge">
<title>Node3&#45;&gt;Node10</title>
<path fill="none" stroke="midnightblue" d="M512,-73.39C570.06,-66.26 675.36,-52.03 764.07,-33 769.24,-31.89 774.64,-30.59 779.96,-29.21"/>
<polygon fill="midnightblue" stroke="midnightblue" points="781.25,-32.49 790.01,-26.52 779.44,-25.73 781.25,-32.49"/>
</g>
<!-- Node11 -->
<g id="node11" class="node">
<title>Node11</title>
<g id="a_node11"><a xlink:title=" ">
<polygon fill="white" stroke="#bfbfbf" points="884.12,-6.5 884.12,-26.5 994.03,-26.5 994.03,-6.5 884.12,-6.5"/>
<text text-anchor="middle" x="939.07" y="-13.5" font-family="Helvetica,sans-Serif" font-size="10.00">fisch/vx/container.def</text>
</a>
</g>
</g>
<!-- Node3&#45;&gt;Node11 -->
<g id="edge12" class="edge">
<title>Node3&#45;&gt;Node11</title>
<path fill="none" stroke="midnightblue" d="M512,-75.42C586.9,-69.76 743.96,-56.11 875.07,-33 881.73,-31.83 888.72,-30.37 895.55,-28.82"/>
<polygon fill="midnightblue" stroke="midnightblue" points="896.43,-32.21 905.36,-26.51 894.82,-25.39 896.43,-32.21"/>
</g>
</g>
</svg>
