<?xml version="1.0" encoding="UTF-8" standalone="no"?>
<!DOCTYPE svg PUBLIC "-//W3C//DTD SVG 1.1//EN"
 "http://www.w3.org/Graphics/SVG/1.1/DTD/svg11.dtd">
<!-- Generated by graphviz version 2.46.0 (0)
 -->
<!-- Title: /jenkins/jenlib_workspaces_f9/bld_nightly&#45;haldls.YmxkX25pZ2h0bHktaGFsZGxzIzEzNzk.x/haldls/include/haldls/vx/v2/block.h Pages: 1 -->
<svg width="1244pt" height="260pt"
 viewBox="0.00 0.00 1243.52 260.00" xmlns="http://www.w3.org/2000/svg" xmlns:xlink="http://www.w3.org/1999/xlink">
<g id="graph0" class="graph" transform="scale(1 1) rotate(0) translate(4 256)">
<title>/jenkins/jenlib_workspaces_f9/bld_nightly&#45;haldls.YmxkX25pZ2h0bHktaGFsZGxzIzEzNzk.x/haldls/include/haldls/vx/v2/block.h</title>
<polygon fill="white" stroke="transparent" points="-4,4 -4,-256 1239.52,-256 1239.52,4 -4,4"/>
<!-- Node1 -->
<g id="node1" class="node">
<title>Node1</title>
<g id="a_node1"><a xlink:title=" ">
<polygon fill="#bfbfbf" stroke="black" points="754.94,-195.5 754.94,-251.5 935.96,-251.5 935.96,-195.5 754.94,-195.5"/>
<text text-anchor="start" x="762.94" y="-238.5" font-family="Helvetica,sans-Serif" font-size="10.00">/jenkins/jenlib_workspaces</text>
<text text-anchor="start" x="762.94" y="-226.5" font-family="Helvetica,sans-Serif" font-size="10.00">_f9/bld_nightly&#45;haldls.YmxkX25p</text>
<text text-anchor="start" x="762.94" y="-214.5" font-family="Helvetica,sans-Serif" font-size="10.00">Z2h0bHktaGFsZGxzIzEzNzk.x/haldls</text>
<text text-anchor="middle" x="845.45" y="-202.5" font-family="Helvetica,sans-Serif" font-size="10.00">/include/haldls/vx/v2/block.h</text>
</a>
</g>
</g>
<!-- Node2 -->
<g id="node2" class="node">
<title>Node2</title>
<g id="a_node2"><a xlink:href="block_8h.html" target="_top" xlink:title=" ">
<polygon fill="white" stroke="black" points="561.77,-138.5 561.77,-158.5 651.12,-158.5 651.12,-138.5 561.77,-138.5"/>
<text text-anchor="middle" x="606.45" y="-145.5" font-family="Helvetica,sans-Serif" font-size="10.00">haldls/vx/block.h</text>
</a>
</g>
</g>
<!-- Node1&#45;&gt;Node2 -->
<g id="edge1" class="edge">
<title>Node1&#45;&gt;Node2</title>
<path fill="none" stroke="midnightblue" d="M756.79,-195.42C718.6,-183.76 675.89,-170.71 645.79,-161.52"/>
<polygon fill="midnightblue" stroke="midnightblue" points="646.67,-158.13 636.08,-158.55 644.62,-164.82 646.67,-158.13"/>
</g>
<!-- Node14 -->
<g id="node14" class="node">
<title>Node14</title>
<g id="a_node14"><a xlink:href="genpybind_8h.html" target="_top" xlink:title=" ">
<polygon fill="white" stroke="black" points="1105.38,-6.5 1105.38,-26.5 1217.52,-26.5 1217.52,-6.5 1105.38,-6.5"/>
<text text-anchor="middle" x="1161.45" y="-13.5" font-family="Helvetica,sans-Serif" font-size="10.00">haldls/vx/genpybind.h</text>
</a>
</g>
</g>
<!-- Node1&#45;&gt;Node14 -->
<g id="edge27" class="edge">
<title>Node1&#45;&gt;Node14</title>
<path fill="none" stroke="midnightblue" d="M907.68,-195.4C955.12,-173.4 1021.01,-139.89 1073.45,-102 1101.74,-81.56 1130.06,-52.43 1146.66,-34.26"/>
<polygon fill="midnightblue" stroke="midnightblue" points="1149.33,-36.53 1153.42,-26.75 1144.13,-31.84 1149.33,-36.53"/>
</g>
<!-- Node3 -->
<g id="node3" class="node">
<title>Node3</title>
<g id="a_node3"><a xlink:title=" ">
<polygon fill="white" stroke="#bfbfbf" points="524.06,-75.5 524.06,-95.5 562.84,-95.5 562.84,-75.5 524.06,-75.5"/>
<text text-anchor="middle" x="543.45" y="-82.5" font-family="Helvetica,sans-Serif" font-size="10.00">array</text>
</a>
</g>
</g>
<!-- Node2&#45;&gt;Node3 -->
<g id="edge2" class="edge">
<title>Node2&#45;&gt;Node3</title>
<path fill="none" stroke="midnightblue" d="M597.15,-138.5C587.47,-129.13 572.11,-114.25 560.29,-102.8"/>
<polygon fill="midnightblue" stroke="midnightblue" points="562.4,-99.98 552.78,-95.54 557.53,-105.01 562.4,-99.98"/>
</g>
<!-- Node4 -->
<g id="node4" class="node">
<title>Node4</title>
<g id="a_node4"><a xlink:title=" ">
<polygon fill="white" stroke="#bfbfbf" points="580.39,-75.5 580.39,-95.5 632.5,-95.5 632.5,-75.5 580.39,-75.5"/>
<text text-anchor="middle" x="606.45" y="-82.5" font-family="Helvetica,sans-Serif" font-size="10.00">ostream</text>
</a>
</g>
</g>
<!-- Node2&#45;&gt;Node4 -->
<g id="edge3" class="edge">
<title>Node2&#45;&gt;Node4</title>
<path fill="none" stroke="midnightblue" d="M606.45,-138.5C606.45,-129.94 606.45,-116.78 606.45,-105.85"/>
<polygon fill="midnightblue" stroke="midnightblue" points="609.95,-105.54 606.45,-95.54 602.95,-105.54 609.95,-105.54"/>
</g>
<!-- Node5 -->
<g id="node5" class="node">
<title>Node5</title>
<g id="a_node5"><a xlink:title=" ">
<polygon fill="white" stroke="#bfbfbf" points="756.22,-69.5 756.22,-101.5 866.68,-101.5 866.68,-69.5 756.22,-69.5"/>
<text text-anchor="start" x="764.22" y="-88.5" font-family="Helvetica,sans-Serif" font-size="10.00">fisch/vx/word_access</text>
<text text-anchor="middle" x="811.45" y="-76.5" font-family="Helvetica,sans-Serif" font-size="10.00">/type/omnibus.h</text>
</a>
</g>
</g>
<!-- Node2&#45;&gt;Node5 -->
<g id="edge4" class="edge">
<title>Node2&#45;&gt;Node5</title>
<path fill="none" stroke="midnightblue" d="M636.7,-138.5C666.65,-129.59 713.36,-115.69 750.95,-104.5"/>
<polygon fill="midnightblue" stroke="midnightblue" points="752.21,-107.78 760.79,-101.57 750.21,-101.07 752.21,-107.78"/>
</g>
<!-- Node6 -->
<g id="node6" class="node">
<title>Node6</title>
<g id="a_node6"><a xlink:title=" ">
<polygon fill="white" stroke="#bfbfbf" points="884.55,-75.5 884.55,-95.5 1018.35,-95.5 1018.35,-75.5 884.55,-75.5"/>
<text text-anchor="middle" x="951.45" y="-82.5" font-family="Helvetica,sans-Serif" font-size="10.00">halco/common/geometry.h</text>
</a>
</g>
</g>
<!-- Node2&#45;&gt;Node6 -->
<g id="edge5" class="edge">
<title>Node2&#45;&gt;Node6</title>
<path fill="none" stroke="midnightblue" d="M651.27,-140.39C704.73,-131.8 796.76,-116.67 875.45,-102 882.9,-100.61 890.76,-99.08 898.47,-97.54"/>
<polygon fill="midnightblue" stroke="midnightblue" points="899.38,-100.93 908.49,-95.52 898,-94.07 899.38,-100.93"/>
</g>
<!-- Node7 -->
<g id="node7" class="node">
<title>Node7</title>
<g id="a_node7"><a xlink:title=" ">
<polygon fill="white" stroke="#bfbfbf" points="109.94,-69.5 109.94,-101.5 210.96,-101.5 210.96,-69.5 109.94,-69.5"/>
<text text-anchor="start" x="117.94" y="-88.5" font-family="Helvetica,sans-Serif" font-size="10.00">halco/hicann&#45;dls/vx</text>
<text text-anchor="middle" x="160.45" y="-76.5" font-family="Helvetica,sans-Serif" font-size="10.00">/omnibus.h</text>
</a>
</g>
</g>
<!-- Node2&#45;&gt;Node7 -->
<g id="edge6" class="edge">
<title>Node2&#45;&gt;Node7</title>
<path fill="none" stroke="midnightblue" d="M561.74,-144.29C491.2,-138.77 349.68,-125.91 221.21,-102.19"/>
<polygon fill="midnightblue" stroke="midnightblue" points="221.67,-98.71 211.19,-100.31 220.38,-105.6 221.67,-98.71"/>
</g>
<!-- Node8 -->
<g id="node8" class="node">
<title>Node8</title>
<g id="a_node8"><a xlink:href="cerealization_8h.html" target="_top" xlink:title=" ">
<polygon fill="white" stroke="black" points="228.77,-75.5 228.77,-95.5 338.12,-95.5 338.12,-75.5 228.77,-75.5"/>
<text text-anchor="middle" x="283.45" y="-82.5" font-family="Helvetica,sans-Serif" font-size="10.00">haldls/cerealization.h</text>
</a>
</g>
</g>
<!-- Node2&#45;&gt;Node8 -->
<g id="edge7" class="edge">
<title>Node2&#45;&gt;Node8</title>
<path fill="none" stroke="midnightblue" d="M561.52,-139.41C512.17,-130.47 430.6,-115.55 360.45,-102 353.09,-100.58 345.35,-99.06 337.72,-97.54"/>
<polygon fill="midnightblue" stroke="midnightblue" points="338.3,-94.08 327.81,-95.55 336.93,-100.95 338.3,-94.08"/>
</g>
<!-- Node10 -->
<g id="node10" class="node">
<title>Node10</title>
<g id="a_node10"><a xlink:title=" ">
<polygon fill="white" stroke="#bfbfbf" points="342.94,-6.5 342.94,-26.5 423.95,-26.5 423.95,-6.5 342.94,-6.5"/>
<text text-anchor="middle" x="383.45" y="-13.5" font-family="Helvetica,sans-Serif" font-size="10.00">hate/visibility.h</text>
</a>
</g>
</g>
<!-- Node2&#45;&gt;Node10 -->
<g id="edge25" class="edge">
<title>Node2&#45;&gt;Node10</title>
<path fill="none" stroke="midnightblue" d="M561.71,-143.97C506.04,-138.6 415.61,-126.31 393.45,-102 377.39,-84.38 377.6,-55.41 379.95,-36.39"/>
<polygon fill="midnightblue" stroke="midnightblue" points="383.41,-36.92 381.48,-26.51 376.49,-35.86 383.41,-36.92"/>
</g>
<!-- Node2&#45;&gt;Node14 -->
<g id="edge13" class="edge">
<title>Node2&#45;&gt;Node14</title>
<path fill="none" stroke="midnightblue" d="M651.26,-145.22C745,-140.03 958.8,-125.91 1027.45,-102 1072.75,-86.22 1118.53,-52.71 1143.1,-32.96"/>
<polygon fill="midnightblue" stroke="midnightblue" points="1145.35,-35.64 1150.88,-26.6 1140.92,-30.23 1145.35,-35.64"/>
</g>
<!-- Node15 -->
<g id="node15" class="node">
<title>Node15</title>
<g id="a_node15"><a xlink:href="traits_8h.html" target="_top" xlink:title=" ">
<polygon fill="white" stroke="black" points="650.61,-75.5 650.61,-95.5 738.29,-95.5 738.29,-75.5 650.61,-75.5"/>
<text text-anchor="middle" x="694.45" y="-82.5" font-family="Helvetica,sans-Serif" font-size="10.00">haldls/vx/traits.h</text>
</a>
</g>
</g>
<!-- Node2&#45;&gt;Node15 -->
<g id="edge15" class="edge">
<title>Node2&#45;&gt;Node15</title>
<path fill="none" stroke="midnightblue" d="M619.43,-138.5C633.47,-128.77 656.08,-113.1 672.81,-101.5"/>
<polygon fill="midnightblue" stroke="midnightblue" points="675.18,-104.11 681.41,-95.54 671.2,-98.36 675.18,-104.11"/>
</g>
<!-- Node22 -->
<g id="node22" class="node">
<title>Node22</title>
<g id="a_node22"><a xlink:title=" ">
<polygon fill="white" stroke="#bfbfbf" points="402.83,-75.5 402.83,-95.5 506.07,-95.5 506.07,-75.5 402.83,-75.5"/>
<text text-anchor="middle" x="454.45" y="-82.5" font-family="Helvetica,sans-Serif" font-size="10.00">hxcomm/vx/target.h</text>
</a>
</g>
</g>
<!-- Node2&#45;&gt;Node22 -->
<g id="edge26" class="edge">
<title>Node2&#45;&gt;Node22</title>
<path fill="none" stroke="midnightblue" d="M584.02,-138.5C558.2,-128.14 515.6,-111.04 486.34,-99.3"/>
<polygon fill="midnightblue" stroke="midnightblue" points="487.55,-96.01 476.97,-95.54 484.94,-102.51 487.55,-96.01"/>
</g>
<!-- Node9 -->
<g id="node9" class="node">
<title>Node9</title>
<g id="a_node9"><a xlink:title=" ">
<polygon fill="white" stroke="#bfbfbf" points="241.82,-6.5 241.82,-26.5 325.07,-26.5 325.07,-6.5 241.82,-6.5"/>
<text text-anchor="middle" x="283.45" y="-13.5" font-family="Helvetica,sans-Serif" font-size="10.00">hate/type_list.h</text>
</a>
</g>
</g>
<!-- Node8&#45;&gt;Node9 -->
<g id="edge8" class="edge">
<title>Node8&#45;&gt;Node9</title>
<path fill="none" stroke="midnightblue" d="M283.45,-75.46C283.45,-65.63 283.45,-49.61 283.45,-36.9"/>
<polygon fill="midnightblue" stroke="midnightblue" points="286.95,-36.82 283.45,-26.82 279.95,-36.82 286.95,-36.82"/>
</g>
<!-- Node8&#45;&gt;Node10 -->
<g id="edge9" class="edge">
<title>Node8&#45;&gt;Node10</title>
<path fill="none" stroke="midnightblue" d="M296.93,-75.46C313.48,-64.38 341.77,-45.42 361.48,-32.22"/>
<polygon fill="midnightblue" stroke="midnightblue" points="363.5,-35.08 369.86,-26.61 359.6,-29.27 363.5,-35.08"/>
</g>
<!-- Node11 -->
<g id="node11" class="node">
<title>Node11</title>
<g id="a_node11"><a xlink:title=" ">
<polygon fill="white" stroke="#bfbfbf" points="0,-6.5 0,-26.5 44.89,-26.5 44.89,-6.5 0,-6.5"/>
<text text-anchor="middle" x="22.45" y="-13.5" font-family="Helvetica,sans-Serif" font-size="10.00">cstdint</text>
</a>
</g>
</g>
<!-- Node8&#45;&gt;Node11 -->
<g id="edge10" class="edge">
<title>Node8&#45;&gt;Node11</title>
<path fill="none" stroke="midnightblue" d="M247.51,-75.48C238.67,-73.31 229.23,-71.03 220.45,-69 146.9,-51.98 125.81,-57.63 54.45,-33 52.57,-32.35 50.65,-31.62 48.74,-30.84"/>
<polygon fill="midnightblue" stroke="midnightblue" points="49.96,-27.55 39.4,-26.64 47.09,-33.93 49.96,-27.55"/>
</g>
<!-- Node12 -->
<g id="node12" class="node">
<title>Node12</title>
<g id="a_node12"><a xlink:title=" ">
<polygon fill="white" stroke="#bfbfbf" points="63.28,-6.5 63.28,-26.5 107.61,-26.5 107.61,-6.5 63.28,-6.5"/>
<text text-anchor="middle" x="85.45" y="-13.5" font-family="Helvetica,sans-Serif" font-size="10.00">iosfwd</text>
</a>
</g>
</g>
<!-- Node8&#45;&gt;Node12 -->
<g id="edge11" class="edge">
<title>Node8&#45;&gt;Node12</title>
<path fill="none" stroke="midnightblue" d="M248.33,-75.48C214.13,-66.28 160.94,-50.84 116.45,-33 114.83,-32.35 113.19,-31.66 111.55,-30.93"/>
<polygon fill="midnightblue" stroke="midnightblue" points="112.81,-27.65 102.27,-26.54 109.82,-33.98 112.81,-27.65"/>
</g>
<!-- Node13 -->
<g id="node13" class="node">
<title>Node13</title>
<g id="a_node13"><a xlink:title=" ">
<polygon fill="white" stroke="#bfbfbf" points="125.33,-6.5 125.33,-26.5 223.57,-26.5 223.57,-6.5 125.33,-6.5"/>
<text text-anchor="middle" x="174.45" y="-13.5" font-family="Helvetica,sans-Serif" font-size="10.00">cereal/macros.hpp</text>
</a>
</g>
</g>
<!-- Node8&#45;&gt;Node13 -->
<g id="edge12" class="edge">
<title>Node8&#45;&gt;Node13</title>
<path fill="none" stroke="midnightblue" d="M268.75,-75.46C250.54,-64.28 219.32,-45.08 197.82,-31.86"/>
<polygon fill="midnightblue" stroke="midnightblue" points="199.62,-28.86 189.26,-26.61 195.95,-34.83 199.62,-28.86"/>
</g>
<!-- Node14&#45;&gt;Node14 -->
<g id="edge14" class="edge">
<title>Node14&#45;&gt;Node14</title>
<path fill="none" stroke="midnightblue" d="M1185.34,-26.54C1209.17,-32.26 1235.52,-28.92 1235.52,-16.5 1235.52,-5.78 1215.88,-1.82 1195.18,-4.62"/>
<polygon fill="midnightblue" stroke="midnightblue" points="1194.53,-1.18 1185.34,-6.46 1195.82,-8.06 1194.53,-1.18"/>
</g>
<!-- Node15&#45;&gt;Node9 -->
<g id="edge19" class="edge">
<title>Node15&#45;&gt;Node9</title>
<path fill="none" stroke="midnightblue" d="M666.89,-75.49C658.76,-73.09 649.81,-70.7 641.45,-69 506.39,-41.56 468.28,-61.53 333.45,-33 328.75,-32.01 323.86,-30.76 319.06,-29.41"/>
<polygon fill="midnightblue" stroke="midnightblue" points="320,-26.04 309.42,-26.55 318,-32.75 320,-26.04"/>
</g>
<!-- Node15&#45;&gt;Node10 -->
<g id="edge20" class="edge">
<title>Node15&#45;&gt;Node10</title>
<path fill="none" stroke="midnightblue" d="M665.72,-75.46C657.9,-73.17 649.39,-70.84 641.45,-69 550.06,-47.8 524.67,-54.94 433.45,-33 429.05,-31.94 424.48,-30.71 419.96,-29.42"/>
<polygon fill="midnightblue" stroke="midnightblue" points="420.84,-26.02 410.26,-26.51 418.83,-32.73 420.84,-26.02"/>
</g>
<!-- Node15&#45;&gt;Node14 -->
<g id="edge18" class="edge">
<title>Node15&#45;&gt;Node14</title>
<path fill="none" stroke="midnightblue" d="M721.72,-75.49C729.92,-73.07 738.98,-70.66 747.45,-69 900.47,-38.99 942.72,-59.14 1096.45,-33 1103.21,-31.85 1110.32,-30.4 1117.25,-28.86"/>
<polygon fill="midnightblue" stroke="midnightblue" points="1118.26,-32.22 1127.21,-26.55 1116.68,-25.4 1118.26,-32.22"/>
</g>
<!-- Node16 -->
<g id="node16" class="node">
<title>Node16</title>
<g id="a_node16"><a xlink:title=" ">
<polygon fill="white" stroke="#bfbfbf" points="877.39,-6.5 877.39,-26.5 959.51,-26.5 959.51,-6.5 877.39,-6.5"/>
<text text-anchor="middle" x="918.45" y="-13.5" font-family="Helvetica,sans-Serif" font-size="10.00">fisch/vx/traits.h</text>
</a>
</g>
</g>
<!-- Node15&#45;&gt;Node16 -->
<g id="edge16" class="edge">
<title>Node15&#45;&gt;Node16</title>
<path fill="none" stroke="midnightblue" d="M725.6,-75.41C760.45,-65.21 818.55,-48.12 868.45,-33 872.05,-31.91 875.8,-30.76 879.55,-29.61"/>
<polygon fill="midnightblue" stroke="midnightblue" points="880.86,-32.87 889.38,-26.58 878.8,-26.18 880.86,-32.87"/>
</g>
<!-- Node17 -->
<g id="node17" class="node">
<title>Node17</title>
<g id="a_node17"><a xlink:title=" ">
<polygon fill="white" stroke="#bfbfbf" points="977.22,-0.5 977.22,-32.5 1087.68,-32.5 1087.68,-0.5 977.22,-0.5"/>
<text text-anchor="start" x="985.22" y="-19.5" font-family="Helvetica,sans-Serif" font-size="10.00">fisch/vx/word_access</text>
<text text-anchor="middle" x="1032.45" y="-7.5" font-family="Helvetica,sans-Serif" font-size="10.00">_type.h</text>
</a>
</g>
</g>
<!-- Node15&#45;&gt;Node17 -->
<g id="edge17" class="edge">
<title>Node15&#45;&gt;Node17</title>
<path fill="none" stroke="midnightblue" d="M722.89,-75.48C730.79,-73.17 739.41,-70.82 747.45,-69 841.37,-47.7 869.13,-52.39 966.99,-33.2"/>
<polygon fill="midnightblue" stroke="midnightblue" points="967.88,-36.59 977,-31.2 966.51,-29.73 967.88,-36.59"/>
</g>
<!-- Node18 -->
<g id="node18" class="node">
<title>Node18</title>
<g id="a_node18"><a xlink:title=" ">
<polygon fill="white" stroke="#bfbfbf" points="442.39,-6.5 442.39,-26.5 504.51,-26.5 504.51,-6.5 442.39,-6.5"/>
<text text-anchor="middle" x="473.45" y="-13.5" font-family="Helvetica,sans-Serif" font-size="10.00">type_traits</text>
</a>
</g>
</g>
<!-- Node15&#45;&gt;Node18 -->
<g id="edge21" class="edge">
<title>Node15&#45;&gt;Node18</title>
<path fill="none" stroke="midnightblue" d="M663.64,-75.43C656.36,-73.31 648.64,-71.06 641.45,-69 584.64,-52.71 569.51,-51.7 513.45,-33 510.73,-32.09 507.93,-31.11 505.13,-30.09"/>
<polygon fill="midnightblue" stroke="midnightblue" points="506.33,-26.81 495.74,-26.57 503.87,-33.36 506.33,-26.81"/>
</g>
<!-- Node19 -->
<g id="node19" class="node">
<title>Node19</title>
<g id="a_node19"><a xlink:title=" ">
<polygon fill="white" stroke="#bfbfbf" points="522.05,-0.5 522.05,-32.5 620.85,-32.5 620.85,-0.5 522.05,-0.5"/>
<text text-anchor="start" x="530.05" y="-19.5" font-family="Helvetica,sans-Serif" font-size="10.00">boost/utility/enable</text>
<text text-anchor="middle" x="571.45" y="-7.5" font-family="Helvetica,sans-Serif" font-size="10.00">_if.hpp</text>
</a>
</g>
</g>
<!-- Node15&#45;&gt;Node19 -->
<g id="edge22" class="edge">
<title>Node15&#45;&gt;Node19</title>
<path fill="none" stroke="midnightblue" d="M677.86,-75.46C660.03,-65.75 631.13,-50.01 607.94,-37.38"/>
<polygon fill="midnightblue" stroke="midnightblue" points="609.5,-34.24 599.05,-32.53 606.15,-40.39 609.5,-34.24"/>
</g>
<!-- Node20 -->
<g id="node20" class="node">
<title>Node20</title>
<g id="a_node20"><a xlink:title=" ">
<polygon fill="white" stroke="#bfbfbf" points="639.1,-6.5 639.1,-26.5 731.79,-26.5 731.79,-6.5 639.1,-6.5"/>
<text text-anchor="middle" x="685.45" y="-13.5" font-family="Helvetica,sans-Serif" font-size="10.00">boost/variant.hpp</text>
</a>
</g>
</g>
<!-- Node15&#45;&gt;Node20 -->
<g id="edge23" class="edge">
<title>Node15&#45;&gt;Node20</title>
<path fill="none" stroke="midnightblue" d="M693.23,-75.46C691.91,-65.63 689.76,-49.61 688.05,-36.9"/>
<polygon fill="midnightblue" stroke="midnightblue" points="691.5,-36.27 686.7,-26.82 684.56,-37.2 691.5,-36.27"/>
</g>
<!-- Node21 -->
<g id="node21" class="node">
<title>Node21</title>
<g id="a_node21"><a xlink:title=" ">
<polygon fill="white" stroke="#bfbfbf" points="749.49,-6.5 749.49,-26.5 859.4,-26.5 859.4,-6.5 749.49,-6.5"/>
<text text-anchor="middle" x="804.45" y="-13.5" font-family="Helvetica,sans-Serif" font-size="10.00">fisch/vx/container.def</text>
</a>
</g>
</g>
<!-- Node15&#45;&gt;Node21 -->
<g id="edge24" class="edge">
<title>Node15&#45;&gt;Node21</title>
<path fill="none" stroke="midnightblue" d="M709.28,-75.46C727.65,-64.28 759.17,-45.08 780.86,-31.86"/>
<polygon fill="midnightblue" stroke="midnightblue" points="782.78,-34.8 789.5,-26.61 779.13,-28.82 782.78,-34.8"/>
</g>
</g>
</svg>
