<?xml version="1.0" encoding="UTF-8" standalone="no"?>
<!DOCTYPE svg PUBLIC "-//W3C//DTD SVG 1.1//EN"
 "http://www.w3.org/Graphics/SVG/1.1/DTD/svg11.dtd">
<!-- Generated by graphviz version 2.46.0 (0)
 -->
<!-- Title: /jenkins/jenlib_workspaces_f9/bld_nightly&#45;haldls.YmxkX25pZ2h0bHktaGFsZGxzIzEzNzk.x/haldls/include/haldls/vx/v3/spi.h Pages: 1 -->
<!--zoomable 260 -->
<svg id="main" version="1.1" xmlns="http://www.w3.org/2000/svg" xmlns:xlink="http://www.w3.org/1999/xlink" xml:space="preserve" onload="init(evt)">
<style type="text/css"><![CDATA[
.edge:hover path { stroke: red; }
.edge:hover polygon { stroke: red; fill: red; }
]]></style>
<script type="text/javascript"><![CDATA[
var edges = document.getElementsByTagName('g');
if (edges && edges.length) {
  for (var i=0;i<edges.length;i++) {
    if (edges[i].id.substr(0,4)=='edge') {
      edges[i].setAttribute('class','edge');
    }
  }
}
]]></script>
        <defs>
                <circle id="rim" cx="0" cy="0" r="7"/>
                <circle id="rim2" cx="0" cy="0" r="3.5"/>
                <g id="zoomPlus">
                        <use xlink:href="#rim" fill="#404040">
                                <set attributeName="fill" to="#808080" begin="zoomplus.mouseover" end="zoomplus.mouseout"/>
                        </use>
                        <path d="M-4,0h8M0,-4v8" fill="none" stroke="white" stroke-width="1.5" pointer-events="none"/>
                </g>
                <g id="zoomMin">
                        <use xlink:href="#rim" fill="#404040">
                                <set attributeName="fill" to="#808080" begin="zoomminus.mouseover" end="zoomminus.mouseout"/>
                        </use>
                        <path d="M-4,0h8" fill="none" stroke="white" stroke-width="1.5" pointer-events="none"/>
                </g>
                <g id="dirArrow">
                        <path fill="none" stroke="white" stroke-width="1.5" d="M0,-3.0v7 M-2.5,-0.5L0,-3.0L2.5,-0.5"/>
                </g>
               <g id="resetDef">
                       <use xlink:href="#rim2" fill="#404040">
                               <set attributeName="fill" to="#808080" begin="reset.mouseover" end="reset.mouseout"/>
                       </use>
               </g>
        </defs>

<script type="text/javascript">
var viewWidth = 1255;
var viewHeight = 260;
var sectionId = 'dynsection-0';
</script>
<script xlink:href="svgpan.js"/>
<svg id="graph" class="graph">
<g id="viewport">
<title>/jenkins/jenlib_workspaces_f9/bld_nightly&#45;haldls.YmxkX25pZ2h0bHktaGFsZGxzIzEzNzk.x/haldls/include/haldls/vx/v3/spi.h</title>
<polygon fill="white" stroke="transparent" points="-4,4 -4,-256 1251.24,-256 1251.24,4 -4,4"/>
<!-- Node1 -->
<g id="node1" class="node">
<title>Node1</title>
<g id="a_node1"><a xlink:title=" ">
<polygon fill="#bfbfbf" stroke="black" points="700.66,-195.5 700.66,-251.5 881.68,-251.5 881.68,-195.5 700.66,-195.5"/>
<text text-anchor="start" x="708.66" y="-238.5" font-family="Helvetica,sans-Serif" font-size="10.00">/jenkins/jenlib_workspaces</text>
<text text-anchor="start" x="708.66" y="-226.5" font-family="Helvetica,sans-Serif" font-size="10.00">_f9/bld_nightly&#45;haldls.YmxkX25p</text>
<text text-anchor="start" x="708.66" y="-214.5" font-family="Helvetica,sans-Serif" font-size="10.00">Z2h0bHktaGFsZGxzIzEzNzk.x/haldls</text>
<text text-anchor="middle" x="791.17" y="-202.5" font-family="Helvetica,sans-Serif" font-size="10.00">/include/haldls/vx/v3/spi.h</text>
</a>
</g>
</g>
<!-- Node2 -->
<g id="node2" class="node">
<title>Node2</title>
<g id="a_node2"><a xlink:href="genpybind_8h.html" target="_top" xlink:title=" ">
<polygon fill="white" stroke="black" points="1117.1,-6.5 1117.1,-26.5 1229.24,-26.5 1229.24,-6.5 1117.1,-6.5"/>
<text text-anchor="middle" x="1173.17" y="-13.5" font-family="Helvetica,sans-Serif" font-size="10.00">haldls/vx/genpybind.h</text>
</a>
</g>
</g>
<!-- Node1&#45;&gt;Node2 -->
<g id="edge1" class="edge">
<title>Node1&#45;&gt;Node2</title>
<path fill="none" stroke="midnightblue" d="M852.57,-195.4C903.83,-172.2 978.38,-137.06 1041.17,-102 1081.33,-79.57 1126.02,-49.91 1151.74,-32.36"/>
<polygon fill="midnightblue" stroke="midnightblue" points="1153.74,-35.23 1160,-26.68 1149.78,-29.45 1153.74,-35.23"/>
</g>
<!-- Node3 -->
<g id="node3" class="node">
<title>Node3</title>
<g id="a_node3"><a xlink:href="spi_8h.html" target="_top" xlink:title=" ">
<polygon fill="white" stroke="black" points="561.77,-138.5 561.77,-158.5 640.56,-158.5 640.56,-138.5 561.77,-138.5"/>
<text text-anchor="middle" x="601.17" y="-145.5" font-family="Helvetica,sans-Serif" font-size="10.00">haldls/vx/spi.h</text>
</a>
</g>
</g>
<!-- Node1&#45;&gt;Node3 -->
<g id="edge3" class="edge">
<title>Node1&#45;&gt;Node3</title>
<path fill="none" stroke="midnightblue" d="M720.69,-195.42C691.12,-184.06 658.14,-171.39 634.33,-162.24"/>
<polygon fill="midnightblue" stroke="midnightblue" points="635.32,-158.87 624.73,-158.55 632.81,-165.41 635.32,-158.87"/>
</g>
<!-- Node2&#45;&gt;Node2 -->
<g id="edge2" class="edge">
<title>Node2&#45;&gt;Node2</title>
<path fill="none" stroke="midnightblue" d="M1197.06,-26.54C1220.89,-32.26 1247.24,-28.92 1247.24,-16.5 1247.24,-5.78 1227.6,-1.82 1206.9,-4.62"/>
<polygon fill="midnightblue" stroke="midnightblue" points="1206.25,-1.18 1197.06,-6.46 1207.54,-8.06 1206.25,-1.18"/>
</g>
<!-- Node3&#45;&gt;Node2 -->
<g id="edge17" class="edge">
<title>Node3&#45;&gt;Node2</title>
<path fill="none" stroke="midnightblue" d="M640.62,-146.76C711.06,-144.57 862.57,-135.95 985.17,-102 1046.32,-85.06 1112.96,-51.05 1148.14,-31.74"/>
<polygon fill="midnightblue" stroke="midnightblue" points="1150.16,-34.62 1157.2,-26.71 1146.76,-28.5 1150.16,-34.62"/>
</g>
<!-- Node4 -->
<g id="node4" class="node">
<title>Node4</title>
<g id="a_node4"><a xlink:title=" ">
<polygon fill="white" stroke="#bfbfbf" points="27.78,-75.5 27.78,-95.5 66.56,-95.5 66.56,-75.5 27.78,-75.5"/>
<text text-anchor="middle" x="47.17" y="-82.5" font-family="Helvetica,sans-Serif" font-size="10.00">array</text>
</a>
</g>
</g>
<!-- Node3&#45;&gt;Node4 -->
<g id="edge4" class="edge">
<title>Node3&#45;&gt;Node4</title>
<path fill="none" stroke="midnightblue" d="M561.48,-146.21C455.21,-142.4 166.13,-129.73 75.17,-102 73.49,-101.49 71.79,-100.87 70.12,-100.17"/>
<polygon fill="midnightblue" stroke="midnightblue" points="71.41,-96.9 60.9,-95.6 68.3,-103.17 71.41,-96.9"/>
</g>
<!-- Node5 -->
<g id="node5" class="node">
<title>Node5</title>
<g id="a_node5"><a xlink:title=" ">
<polygon fill="white" stroke="#bfbfbf" points="0,-6.5 0,-26.5 44.34,-26.5 44.34,-6.5 0,-6.5"/>
<text text-anchor="middle" x="22.17" y="-13.5" font-family="Helvetica,sans-Serif" font-size="10.00">iosfwd</text>
</a>
</g>
</g>
<!-- Node3&#45;&gt;Node5 -->
<g id="edge5" class="edge">
<title>Node3&#45;&gt;Node5</title>
<path fill="none" stroke="midnightblue" d="M561.41,-147.44C436.16,-146.83 55.9,-141.71 19.17,-102 3.01,-84.53 8.52,-55.31 14.73,-36.22"/>
<polygon fill="midnightblue" stroke="midnightblue" points="18.12,-37.15 18.22,-26.55 11.53,-34.77 18.12,-37.15"/>
</g>
<!-- Node6 -->
<g id="node6" class="node">
<title>Node6</title>
<g id="a_node6"><a xlink:title=" ">
<polygon fill="white" stroke="#bfbfbf" points="211.54,-75.5 211.54,-95.5 314.79,-95.5 314.79,-75.5 211.54,-75.5"/>
<text text-anchor="middle" x="263.17" y="-82.5" font-family="Helvetica,sans-Serif" font-size="10.00">fisch/vx/constants.h</text>
</a>
</g>
</g>
<!-- Node3&#45;&gt;Node6 -->
<g id="edge6" class="edge">
<title>Node3&#45;&gt;Node6</title>
<path fill="none" stroke="midnightblue" d="M561.52,-142.08C507.57,-134.46 408.13,-119.53 324.17,-102 318.41,-100.8 312.38,-99.42 306.44,-97.98"/>
<polygon fill="midnightblue" stroke="midnightblue" points="307.16,-94.56 296.61,-95.55 305.47,-101.35 307.16,-94.56"/>
</g>
<!-- Node7 -->
<g id="node7" class="node">
<title>Node7</title>
<g id="a_node7"><a xlink:title=" ">
<polygon fill="white" stroke="#bfbfbf" points="333.27,-75.5 333.27,-95.5 467.07,-95.5 467.07,-75.5 333.27,-75.5"/>
<text text-anchor="middle" x="400.17" y="-82.5" font-family="Helvetica,sans-Serif" font-size="10.00">halco/common/geometry.h</text>
</a>
</g>
</g>
<!-- Node3&#45;&gt;Node7 -->
<g id="edge7" class="edge">
<title>Node3&#45;&gt;Node7</title>
<path fill="none" stroke="midnightblue" d="M571.51,-138.5C536.62,-127.91 478.57,-110.29 439.84,-98.54"/>
<polygon fill="midnightblue" stroke="midnightblue" points="440.53,-95.09 429.95,-95.54 438.5,-101.79 440.53,-95.09"/>
</g>
<!-- Node8 -->
<g id="node8" class="node">
<title>Node8</title>
<g id="a_node8"><a xlink:title=" ">
<polygon fill="white" stroke="#bfbfbf" points="485.05,-69.5 485.05,-101.5 593.29,-101.5 593.29,-69.5 485.05,-69.5"/>
<text text-anchor="start" x="493.05" y="-88.5" font-family="Helvetica,sans-Serif" font-size="10.00">halco/common/typed</text>
<text text-anchor="middle" x="539.17" y="-76.5" font-family="Helvetica,sans-Serif" font-size="10.00">_array.h</text>
</a>
</g>
</g>
<!-- Node3&#45;&gt;Node8 -->
<g id="edge8" class="edge">
<title>Node3&#45;&gt;Node8</title>
<path fill="none" stroke="midnightblue" d="M592.02,-138.5C584.1,-130.71 572.32,-119.12 561.89,-108.86"/>
<polygon fill="midnightblue" stroke="midnightblue" points="564.19,-106.21 554.61,-101.69 559.28,-111.2 564.19,-106.21"/>
</g>
<!-- Node9 -->
<g id="node9" class="node">
<title>Node9</title>
<g id="a_node9"><a xlink:title=" ">
<polygon fill="white" stroke="#bfbfbf" points="611.66,-69.5 611.66,-101.5 712.68,-101.5 712.68,-69.5 611.66,-69.5"/>
<text text-anchor="start" x="619.66" y="-88.5" font-family="Helvetica,sans-Serif" font-size="10.00">halco/hicann&#45;dls/vx</text>
<text text-anchor="middle" x="662.17" y="-76.5" font-family="Helvetica,sans-Serif" font-size="10.00">/dac.h</text>
</a>
</g>
</g>
<!-- Node3&#45;&gt;Node9 -->
<g id="edge9" class="edge">
<title>Node3&#45;&gt;Node9</title>
<path fill="none" stroke="midnightblue" d="M610.17,-138.5C617.96,-130.71 629.55,-119.12 639.81,-108.86"/>
<polygon fill="midnightblue" stroke="midnightblue" points="642.38,-111.24 646.98,-101.69 637.43,-106.29 642.38,-111.24"/>
</g>
<!-- Node10 -->
<g id="node10" class="node">
<title>Node10</title>
<g id="a_node10"><a xlink:title=" ">
<polygon fill="white" stroke="#bfbfbf" points="730.66,-69.5 730.66,-101.5 831.68,-101.5 831.68,-69.5 730.66,-69.5"/>
<text text-anchor="start" x="738.66" y="-88.5" font-family="Helvetica,sans-Serif" font-size="10.00">halco/hicann&#45;dls/vx</text>
<text text-anchor="middle" x="781.17" y="-76.5" font-family="Helvetica,sans-Serif" font-size="10.00">/xboard.h</text>
</a>
</g>
</g>
<!-- Node3&#45;&gt;Node10 -->
<g id="edge10" class="edge">
<title>Node3&#45;&gt;Node10</title>
<path fill="none" stroke="midnightblue" d="M627.73,-138.5C653.81,-129.66 694.34,-115.92 727.21,-104.79"/>
<polygon fill="midnightblue" stroke="midnightblue" points="728.34,-108.1 736.69,-101.57 726.1,-101.47 728.34,-108.1"/>
</g>
<!-- Node11 -->
<g id="node11" class="node">
<title>Node11</title>
<g id="a_node11"><a xlink:href="cerealization_8h.html" target="_top" xlink:title=" ">
<polygon fill="white" stroke="black" points="84.49,-75.5 84.49,-95.5 193.84,-95.5 193.84,-75.5 84.49,-75.5"/>
<text text-anchor="middle" x="139.17" y="-82.5" font-family="Helvetica,sans-Serif" font-size="10.00">haldls/cerealization.h</text>
</a>
</g>
</g>
<!-- Node3&#45;&gt;Node11 -->
<g id="edge11" class="edge">
<title>Node3&#45;&gt;Node11</title>
<path fill="none" stroke="midnightblue" d="M561.56,-144.67C489.6,-139.15 332.73,-125.41 202.17,-102 195.76,-100.85 189.04,-99.43 182.48,-97.92"/>
<polygon fill="midnightblue" stroke="midnightblue" points="182.89,-94.42 172.35,-95.5 181.26,-101.23 182.89,-94.42"/>
</g>
<!-- Node13 -->
<g id="node13" class="node">
<title>Node13</title>
<g id="a_node13"><a xlink:title=" ">
<polygon fill="white" stroke="#bfbfbf" points="355.66,-6.5 355.66,-26.5 436.67,-26.5 436.67,-6.5 355.66,-6.5"/>
<text text-anchor="middle" x="396.17" y="-13.5" font-family="Helvetica,sans-Serif" font-size="10.00">hate/visibility.h</text>
</a>
</g>
</g>
<!-- Node3&#45;&gt;Node13 -->
<g id="edge28" class="edge">
<title>Node3&#45;&gt;Node13</title>
<path fill="none" stroke="midnightblue" d="M640.62,-147.13C722.78,-145.09 899.92,-133.35 841.17,-69 811.45,-36.45 489.4,-41.57 446.17,-33 441.35,-32.04 436.34,-30.8 431.43,-29.44"/>
<polygon fill="midnightblue" stroke="midnightblue" points="432.18,-26.01 421.6,-26.51 430.18,-32.72 432.18,-26.01"/>
</g>
<!-- Node16 -->
<g id="node16" class="node">
<title>Node16</title>
<g id="a_node16"><a xlink:href="traits_8h.html" target="_top" xlink:title=" ">
<polygon fill="white" stroke="black" points="888.33,-75.5 888.33,-95.5 976.01,-95.5 976.01,-75.5 888.33,-75.5"/>
<text text-anchor="middle" x="932.17" y="-82.5" font-family="Helvetica,sans-Serif" font-size="10.00">haldls/vx/traits.h</text>
</a>
</g>
</g>
<!-- Node3&#45;&gt;Node16 -->
<g id="edge18" class="edge">
<title>Node3&#45;&gt;Node16</title>
<path fill="none" stroke="midnightblue" d="M640.72,-142.12C694.03,-134.6 791.75,-119.84 874.17,-102 879.52,-100.84 885.11,-99.51 890.62,-98.12"/>
<polygon fill="midnightblue" stroke="midnightblue" points="891.59,-101.48 900.39,-95.58 889.83,-94.71 891.59,-101.48"/>
</g>
<!-- Node11&#45;&gt;Node5 -->
<g id="edge15" class="edge">
<title>Node11&#45;&gt;Node5</title>
<path fill="none" stroke="midnightblue" d="M123.39,-75.46C103.76,-64.23 70.03,-44.91 46.94,-31.69"/>
<polygon fill="midnightblue" stroke="midnightblue" points="48.49,-28.54 38.07,-26.61 45.01,-34.61 48.49,-28.54"/>
</g>
<!-- Node12 -->
<g id="node12" class="node">
<title>Node12</title>
<g id="a_node12"><a xlink:title=" ">
<polygon fill="white" stroke="#bfbfbf" points="252.54,-6.5 252.54,-26.5 335.79,-26.5 335.79,-6.5 252.54,-6.5"/>
<text text-anchor="middle" x="294.17" y="-13.5" font-family="Helvetica,sans-Serif" font-size="10.00">hate/type_list.h</text>
</a>
</g>
</g>
<!-- Node11&#45;&gt;Node12 -->
<g id="edge12" class="edge">
<title>Node11&#45;&gt;Node12</title>
<path fill="none" stroke="midnightblue" d="M160.07,-75.46C186.77,-63.93 233.16,-43.87 263.76,-30.64"/>
<polygon fill="midnightblue" stroke="midnightblue" points="265.31,-33.79 273.1,-26.61 262.53,-27.36 265.31,-33.79"/>
</g>
<!-- Node11&#45;&gt;Node13 -->
<g id="edge13" class="edge">
<title>Node11&#45;&gt;Node13</title>
<path fill="none" stroke="midnightblue" d="M175.9,-75.42C230.63,-61.88 328.91,-37.5 345.17,-33 349.23,-31.88 353.46,-30.66 357.68,-29.42"/>
<polygon fill="midnightblue" stroke="midnightblue" points="358.8,-32.74 367.38,-26.52 356.8,-26.03 358.8,-32.74"/>
</g>
<!-- Node14 -->
<g id="node14" class="node">
<title>Node14</title>
<g id="a_node14"><a xlink:title=" ">
<polygon fill="white" stroke="#bfbfbf" points="185.72,-6.5 185.72,-26.5 230.62,-26.5 230.62,-6.5 185.72,-6.5"/>
<text text-anchor="middle" x="208.17" y="-13.5" font-family="Helvetica,sans-Serif" font-size="10.00">cstdint</text>
</a>
</g>
</g>
<!-- Node11&#45;&gt;Node14 -->
<g id="edge14" class="edge">
<title>Node11&#45;&gt;Node14</title>
<path fill="none" stroke="midnightblue" d="M148.47,-75.46C159.42,-64.83 177.81,-46.98 191.29,-33.89"/>
<polygon fill="midnightblue" stroke="midnightblue" points="193.83,-36.3 198.57,-26.82 188.95,-31.28 193.83,-36.3"/>
</g>
<!-- Node15 -->
<g id="node15" class="node">
<title>Node15</title>
<g id="a_node15"><a xlink:title=" ">
<polygon fill="white" stroke="#bfbfbf" points="69.05,-6.5 69.05,-26.5 167.29,-26.5 167.29,-6.5 69.05,-6.5"/>
<text text-anchor="middle" x="118.17" y="-13.5" font-family="Helvetica,sans-Serif" font-size="10.00">cereal/macros.hpp</text>
</a>
</g>
</g>
<!-- Node11&#45;&gt;Node15 -->
<g id="edge16" class="edge">
<title>Node11&#45;&gt;Node15</title>
<path fill="none" stroke="midnightblue" d="M136.34,-75.46C133.22,-65.53 128.13,-49.28 124.13,-36.52"/>
<polygon fill="midnightblue" stroke="midnightblue" points="127.42,-35.32 121.09,-26.82 120.74,-37.41 127.42,-35.32"/>
</g>
<!-- Node16&#45;&gt;Node2 -->
<g id="edge21" class="edge">
<title>Node16&#45;&gt;Node2</title>
<path fill="none" stroke="midnightblue" d="M964.67,-75.46C1007.61,-63.53 1083.34,-42.47 1130.75,-29.29"/>
<polygon fill="midnightblue" stroke="midnightblue" points="1131.71,-32.66 1140.41,-26.61 1129.84,-25.91 1131.71,-32.66"/>
</g>
<!-- Node16&#45;&gt;Node12 -->
<g id="edge22" class="edge">
<title>Node16&#45;&gt;Node12</title>
<path fill="none" stroke="midnightblue" d="M888.32,-76.15C873.4,-73.55 856.6,-70.87 841.17,-69 622.19,-42.45 563.14,-72.74 346.17,-33 340.97,-32.05 335.56,-30.77 330.27,-29.35"/>
<polygon fill="midnightblue" stroke="midnightblue" points="330.93,-25.9 320.35,-26.51 329,-32.63 330.93,-25.9"/>
</g>
<!-- Node16&#45;&gt;Node13 -->
<g id="edge23" class="edge">
<title>Node16&#45;&gt;Node13</title>
<path fill="none" stroke="midnightblue" d="M902.29,-75.43C893.32,-73 883.41,-70.61 874.17,-69 686.11,-36.23 633.54,-69.48 446.17,-33 441.35,-32.06 436.33,-30.83 431.43,-29.47"/>
<polygon fill="midnightblue" stroke="midnightblue" points="432.17,-26.04 421.59,-26.55 430.18,-32.75 432.17,-26.04"/>
</g>
<!-- Node17 -->
<g id="node17" class="node">
<title>Node17</title>
<g id="a_node17"><a xlink:title=" ">
<polygon fill="white" stroke="#bfbfbf" points="693.11,-6.5 693.11,-26.5 775.23,-26.5 775.23,-6.5 693.11,-6.5"/>
<text text-anchor="middle" x="734.17" y="-13.5" font-family="Helvetica,sans-Serif" font-size="10.00">fisch/vx/traits.h</text>
</a>
</g>
</g>
<!-- Node16&#45;&gt;Node17 -->
<g id="edge19" class="edge">
<title>Node16&#45;&gt;Node17</title>
<path fill="none" stroke="midnightblue" d="M905.46,-75.46C870.77,-63.73 810.05,-43.18 771,-29.96"/>
<polygon fill="midnightblue" stroke="midnightblue" points="771.67,-26.5 761.08,-26.61 769.43,-33.13 771.67,-26.5"/>
</g>
<!-- Node18 -->
<g id="node18" class="node">
<title>Node18</title>
<g id="a_node18"><a xlink:title=" ">
<polygon fill="white" stroke="#bfbfbf" points="792.94,-0.5 792.94,-32.5 903.4,-32.5 903.4,-0.5 792.94,-0.5"/>
<text text-anchor="start" x="800.94" y="-19.5" font-family="Helvetica,sans-Serif" font-size="10.00">fisch/vx/word_access</text>
<text text-anchor="middle" x="848.17" y="-7.5" font-family="Helvetica,sans-Serif" font-size="10.00">_type.h</text>
</a>
</g>
</g>
<!-- Node16&#45;&gt;Node18 -->
<g id="edge20" class="edge">
<title>Node16&#45;&gt;Node18</title>
<path fill="none" stroke="midnightblue" d="M920.84,-75.46C909.2,-66.18 890.66,-51.39 875.21,-39.07"/>
<polygon fill="midnightblue" stroke="midnightblue" points="877.02,-36.03 867.02,-32.53 872.65,-41.51 877.02,-36.03"/>
</g>
<!-- Node19 -->
<g id="node19" class="node">
<title>Node19</title>
<g id="a_node19"><a xlink:title=" ">
<polygon fill="white" stroke="#bfbfbf" points="921.11,-6.5 921.11,-26.5 983.23,-26.5 983.23,-6.5 921.11,-6.5"/>
<text text-anchor="middle" x="952.17" y="-13.5" font-family="Helvetica,sans-Serif" font-size="10.00">type_traits</text>
</a>
</g>
</g>
<!-- Node16&#45;&gt;Node19 -->
<g id="edge24" class="edge">
<title>Node16&#45;&gt;Node19</title>
<path fill="none" stroke="midnightblue" d="M934.86,-75.46C937.83,-65.53 942.68,-49.28 946.49,-36.52"/>
<polygon fill="midnightblue" stroke="midnightblue" points="949.88,-37.41 949.38,-26.82 943.17,-35.4 949.88,-37.41"/>
</g>
<!-- Node20 -->
<g id="node20" class="node">
<title>Node20</title>
<g id="a_node20"><a xlink:title=" ">
<polygon fill="white" stroke="#bfbfbf" points="1000.77,-0.5 1000.77,-32.5 1099.57,-32.5 1099.57,-0.5 1000.77,-0.5"/>
<text text-anchor="start" x="1008.77" y="-19.5" font-family="Helvetica,sans-Serif" font-size="10.00">boost/utility/enable</text>
<text text-anchor="middle" x="1050.17" y="-7.5" font-family="Helvetica,sans-Serif" font-size="10.00">_if.hpp</text>
</a>
</g>
</g>
<!-- Node16&#45;&gt;Node20 -->
<g id="edge25" class="edge">
<title>Node16&#45;&gt;Node20</title>
<path fill="none" stroke="midnightblue" d="M948.08,-75.46C965.11,-65.79 992.67,-50.15 1014.86,-37.55"/>
<polygon fill="midnightblue" stroke="midnightblue" points="1016.72,-40.51 1023.69,-32.53 1013.27,-34.43 1016.72,-40.51"/>
</g>
<!-- Node21 -->
<g id="node21" class="node">
<title>Node21</title>
<g id="a_node21"><a xlink:title=" ">
<polygon fill="white" stroke="#bfbfbf" points="454.82,-6.5 454.82,-26.5 547.51,-26.5 547.51,-6.5 454.82,-6.5"/>
<text text-anchor="middle" x="501.17" y="-13.5" font-family="Helvetica,sans-Serif" font-size="10.00">boost/variant.hpp</text>
</a>
</g>
</g>
<!-- Node16&#45;&gt;Node21 -->
<g id="edge26" class="edge">
<title>Node16&#45;&gt;Node21</title>
<path fill="none" stroke="midnightblue" d="M901.66,-75.44C892.85,-73.07 883.18,-70.7 874.17,-69 734.41,-42.57 695.74,-60.38 556.17,-33 550.75,-31.94 545.09,-30.61 539.55,-29.17"/>
<polygon fill="midnightblue" stroke="midnightblue" points="540.35,-25.76 529.79,-26.51 538.52,-32.52 540.35,-25.76"/>
</g>
<!-- Node22 -->
<g id="node22" class="node">
<title>Node22</title>
<g id="a_node22"><a xlink:title=" ">
<polygon fill="white" stroke="#bfbfbf" points="565.21,-6.5 565.21,-26.5 675.12,-26.5 675.12,-6.5 565.21,-6.5"/>
<text text-anchor="middle" x="620.17" y="-13.5" font-family="Helvetica,sans-Serif" font-size="10.00">fisch/vx/container.def</text>
</a>
</g>
</g>
<!-- Node16&#45;&gt;Node22 -->
<g id="edge27" class="edge">
<title>Node16&#45;&gt;Node22</title>
<path fill="none" stroke="midnightblue" d="M900.06,-75.47C891.66,-73.23 882.6,-70.92 874.17,-69 790.37,-49.89 768.18,-51.12 684.17,-33 678.3,-31.73 672.14,-30.33 666.06,-28.91"/>
<polygon fill="midnightblue" stroke="midnightblue" points="666.51,-25.42 655.97,-26.51 664.89,-32.23 666.51,-25.42"/>
</g>
</g>
</svg>
        <g id="navigator" transform="translate(0 0)" fill="#404254">
                <rect fill="#f2f5e9" fill-opacity="0.5" stroke="#606060" stroke-width=".5" x="0" y="0" width="60" height="60"/>
                <use id="zoomplus" xlink:href="#zoomPlus" x="17" y="9" onmousedown="handleZoom(evt,'in')"/>
                <use id="zoomminus" xlink:href="#zoomMin" x="42" y="9" onmousedown="handleZoom(evt,'out')"/>
                <use id="reset" xlink:href="#resetDef" x="30" y="36" onmousedown="handleReset()"/>
                <g id="arrowUp" xlink:href="#dirArrow" transform="translate(30 24)" onmousedown="handlePan(0,-1)">
                  <use xlink:href="#rim" fill="#404040">
                        <set attributeName="fill" to="#808080" begin="arrowUp.mouseover" end="arrowUp.mouseout"/>
                  </use>
                  <path fill="none" stroke="white" stroke-width="1.5" d="M0,-3.0v7 M-2.5,-0.5L0,-3.0L2.5,-0.5"/>
                </g>
                <g id="arrowRight" xlink:href="#dirArrow" transform="rotate(90) translate(36 -43)" onmousedown="handlePan(1,0)">
                  <use xlink:href="#rim" fill="#404040">
                        <set attributeName="fill" to="#808080" begin="arrowRight.mouseover" end="arrowRight.mouseout"/>
                  </use>
                  <path fill="none" stroke="white" stroke-width="1.5" d="M0,-3.0v7 M-2.5,-0.5L0,-3.0L2.5,-0.5"/>
                </g>
                <g id="arrowDown" xlink:href="#dirArrow" transform="rotate(180) translate(-30 -48)" onmousedown="handlePan(0,1)">
                  <use xlink:href="#rim" fill="#404040">
                        <set attributeName="fill" to="#808080" begin="arrowDown.mouseover" end="arrowDown.mouseout"/>
                  </use>
                  <path fill="none" stroke="white" stroke-width="1.5" d="M0,-3.0v7 M-2.5,-0.5L0,-3.0L2.5,-0.5"/>
                </g>
                <g id="arrowLeft" xlink:href="#dirArrow" transform="rotate(270) translate(-36 17)" onmousedown="handlePan(-1,0)">
                  <use xlink:href="#rim" fill="#404040">
                        <set attributeName="fill" to="#808080" begin="arrowLeft.mouseover" end="arrowLeft.mouseout"/>
                  </use>
                  <path fill="none" stroke="white" stroke-width="1.5" d="M0,-3.0v7 M-2.5,-0.5L0,-3.0L2.5,-0.5"/>
                </g>
        </g>
        <svg viewBox="0 0 15 15" width="100%" height="30px" preserveAspectRatio="xMaxYMin meet">
         <g id="arrow_out" transform="scale(0.3 0.3)">
          <a xlink:href="v3_2spi_8h__incl_org.svg" target="_base">
           <rect id="button" ry="5" rx="5" y="6" x="6" height="38" width="38"
                fill="#f2f5e9" fill-opacity="0.5" stroke="#606060" stroke-width="1.0"/>
           <path id="arrow"
             d="M 11.500037,31.436501 C 11.940474,20.09759 22.043105,11.32322 32.158766,21.979434 L 37.068811,17.246167 C 37.068811,17.246167 37.088388,32 37.088388,32 L 22.160133,31.978069 C 22.160133,31.978069 26.997745,27.140456 26.997745,27.140456 C 18.528582,18.264221 13.291696,25.230495 11.500037,31.436501 z"
             style="fill:#404040;"/>
          </a>
         </g>
        </svg>
</svg>
