<?xml version="1.0" encoding="UTF-8" standalone="no"?>
<!DOCTYPE svg PUBLIC "-//W3C//DTD SVG 1.1//EN"
 "http://www.w3.org/Graphics/SVG/1.1/DTD/svg11.dtd">
<!-- Generated by graphviz version 2.46.0 (0)
 -->
<!-- Title: /jenkins/jenlib_workspaces_f9/bld_nightly&#45;haldls.YmxkX25pZ2h0bHktaGFsZGxzIzEzNzk.x/haldls/include/haldls/vx/v3/vector_generator.h Pages: 1 -->
<svg width="1609pt" height="398pt"
 viewBox="0.00 0.00 1609.08 398.00" xmlns="http://www.w3.org/2000/svg" xmlns:xlink="http://www.w3.org/1999/xlink">
<g id="graph0" class="graph" transform="scale(1 1) rotate(0) translate(4 394)">
<title>/jenkins/jenlib_workspaces_f9/bld_nightly&#45;haldls.YmxkX25pZ2h0bHktaGFsZGxzIzEzNzk.x/haldls/include/haldls/vx/v3/vector_generator.h</title>
<polygon fill="white" stroke="transparent" points="-4,4 -4,-394 1605.08,-394 1605.08,4 -4,4"/>
<!-- Node1 -->
<g id="node1" class="node">
<title>Node1</title>
<g id="a_node1"><a xlink:title=" ">
<polygon fill="#bfbfbf" stroke="black" points="935.93,-333.5 935.93,-389.5 1128.09,-389.5 1128.09,-333.5 935.93,-333.5"/>
<text text-anchor="start" x="943.93" y="-376.5" font-family="Helvetica,sans-Serif" font-size="10.00">/jenkins/jenlib_workspaces</text>
<text text-anchor="start" x="943.93" y="-364.5" font-family="Helvetica,sans-Serif" font-size="10.00">_f9/bld_nightly&#45;haldls.YmxkX25p</text>
<text text-anchor="start" x="943.93" y="-352.5" font-family="Helvetica,sans-Serif" font-size="10.00">Z2h0bHktaGFsZGxzIzEzNzk.x/haldls</text>
<text text-anchor="middle" x="1032.01" y="-340.5" font-family="Helvetica,sans-Serif" font-size="10.00">/include/haldls/vx/v3/vector_generator.h</text>
</a>
</g>
</g>
<!-- Node2 -->
<g id="node2" class="node">
<title>Node2</title>
<g id="a_node2"><a xlink:href="genpybind_8h.html" target="_top" xlink:title=" ">
<polygon fill="white" stroke="black" points="1470.94,-6.5 1470.94,-26.5 1583.08,-26.5 1583.08,-6.5 1470.94,-6.5"/>
<text text-anchor="middle" x="1527.01" y="-13.5" font-family="Helvetica,sans-Serif" font-size="10.00">haldls/vx/genpybind.h</text>
</a>
</g>
</g>
<!-- Node1&#45;&gt;Node2 -->
<g id="edge1" class="edge">
<title>Node1&#45;&gt;Node2</title>
<path fill="none" stroke="midnightblue" d="M1128.14,-353.46C1271.08,-340.3 1523.01,-305.6 1523.01,-224.5 1523.01,-224.5 1523.01,-224.5 1523.01,-153.5 1523.01,-111.94 1524.9,-63.26 1526.08,-36.88"/>
<polygon fill="midnightblue" stroke="midnightblue" points="1529.59,-36.88 1526.55,-26.73 1522.59,-36.56 1529.59,-36.88"/>
</g>
<!-- Node3 -->
<g id="node3" class="node">
<title>Node3</title>
<g id="a_node3"><a xlink:href="vector__generator_8h.html" target="_top" xlink:title=" ">
<polygon fill="white" stroke="black" points="505.22,-276.5 505.22,-296.5 646.8,-296.5 646.8,-276.5 505.22,-276.5"/>
<text text-anchor="middle" x="576.01" y="-283.5" font-family="Helvetica,sans-Serif" font-size="10.00">haldls/vx/vector_generator.h</text>
</a>
</g>
</g>
<!-- Node1&#45;&gt;Node3 -->
<g id="edge3" class="edge">
<title>Node1&#45;&gt;Node3</title>
<path fill="none" stroke="midnightblue" d="M935.86,-345.11C847.84,-331.02 719.86,-310.53 642.62,-298.16"/>
<polygon fill="midnightblue" stroke="midnightblue" points="642.95,-294.67 632.53,-296.55 641.85,-301.58 642.95,-294.67"/>
</g>
<!-- Node2&#45;&gt;Node2 -->
<g id="edge2" class="edge">
<title>Node2&#45;&gt;Node2</title>
<path fill="none" stroke="midnightblue" d="M1550.91,-26.54C1574.73,-32.26 1601.08,-28.92 1601.08,-16.5 1601.08,-5.78 1581.45,-1.82 1560.75,-4.62"/>
<polygon fill="midnightblue" stroke="midnightblue" points="1560.09,-1.18 1550.91,-6.46 1561.38,-8.06 1560.09,-1.18"/>
</g>
<!-- Node3&#45;&gt;Node2 -->
<g id="edge16" class="edge">
<title>Node3&#45;&gt;Node2</title>
<path fill="none" stroke="midnightblue" d="M647.06,-285.79C796.56,-285.58 1138.76,-280.53 1247.01,-240 1366.94,-195.1 1475.37,-78.12 1512.99,-34.36"/>
<polygon fill="midnightblue" stroke="midnightblue" points="1515.75,-36.51 1519.55,-26.62 1510.41,-31.98 1515.75,-36.51"/>
</g>
<!-- Node4 -->
<g id="node4" class="node">
<title>Node4</title>
<g id="a_node4"><a xlink:title=" ">
<polygon fill="white" stroke="#bfbfbf" points="142.62,-75.5 142.62,-95.5 181.4,-95.5 181.4,-75.5 142.62,-75.5"/>
<text text-anchor="middle" x="162.01" y="-82.5" font-family="Helvetica,sans-Serif" font-size="10.00">array</text>
</a>
</g>
</g>
<!-- Node3&#45;&gt;Node4 -->
<g id="edge4" class="edge">
<title>Node3&#45;&gt;Node4</title>
<path fill="none" stroke="midnightblue" d="M504.98,-283.71C418.43,-280.23 278.61,-270 237.01,-240 191.41,-207.11 172.22,-138.76 165.33,-105.5"/>
<polygon fill="midnightblue" stroke="midnightblue" points="168.76,-104.83 163.44,-95.67 161.89,-106.15 168.76,-104.83"/>
</g>
<!-- Node5 -->
<g id="node5" class="node">
<title>Node5</title>
<g id="a_node5"><a xlink:title=" ">
<polygon fill="white" stroke="#bfbfbf" points="137.95,-213.5 137.95,-233.5 190.07,-233.5 190.07,-213.5 137.95,-213.5"/>
<text text-anchor="middle" x="164.01" y="-220.5" font-family="Helvetica,sans-Serif" font-size="10.00">ostream</text>
</a>
</g>
</g>
<!-- Node3&#45;&gt;Node5 -->
<g id="edge5" class="edge">
<title>Node3&#45;&gt;Node5</title>
<path fill="none" stroke="midnightblue" d="M505.13,-282.06C429.57,-277.19 306.88,-265.8 204.01,-240 200.76,-239.18 197.42,-238.18 194.11,-237.07"/>
<polygon fill="midnightblue" stroke="midnightblue" points="195.05,-233.69 184.45,-233.54 192.65,-240.26 195.05,-233.69"/>
</g>
<!-- Node6 -->
<g id="node6" class="node">
<title>Node6</title>
<g id="a_node6"><a xlink:title=" ">
<polygon fill="white" stroke="#bfbfbf" points="15.89,-69.5 15.89,-101.5 124.13,-101.5 124.13,-69.5 15.89,-69.5"/>
<text text-anchor="start" x="23.89" y="-88.5" font-family="Helvetica,sans-Serif" font-size="10.00">halco/common/typed</text>
<text text-anchor="middle" x="70.01" y="-76.5" font-family="Helvetica,sans-Serif" font-size="10.00">_array.h</text>
</a>
</g>
</g>
<!-- Node3&#45;&gt;Node6 -->
<g id="edge6" class="edge">
<title>Node3&#45;&gt;Node6</title>
<path fill="none" stroke="midnightblue" d="M504.79,-282.31C386.16,-276.4 158.18,-262.29 129.01,-240 88.69,-209.18 75.92,-147.15 71.88,-112.11"/>
<polygon fill="midnightblue" stroke="midnightblue" points="75.32,-111.36 70.85,-101.76 68.35,-112.06 75.32,-111.36"/>
</g>
<!-- Node7 -->
<g id="node7" class="node">
<title>Node7</title>
<g id="a_node7"><a xlink:title=" ">
<polygon fill="white" stroke="#bfbfbf" points="246.5,-207.5 246.5,-239.5 347.52,-239.5 347.52,-207.5 246.5,-207.5"/>
<text text-anchor="start" x="254.5" y="-226.5" font-family="Helvetica,sans-Serif" font-size="10.00">halco/hicann&#45;dls/vx</text>
<text text-anchor="middle" x="297.01" y="-214.5" font-family="Helvetica,sans-Serif" font-size="10.00">/omnibus.h</text>
</a>
</g>
</g>
<!-- Node3&#45;&gt;Node7 -->
<g id="edge7" class="edge">
<title>Node3&#45;&gt;Node7</title>
<path fill="none" stroke="midnightblue" d="M528.65,-276.46C486.16,-268.18 421.9,-255.24 357.7,-240.34"/>
<polygon fill="midnightblue" stroke="midnightblue" points="358.35,-236.9 347.82,-238.03 356.76,-243.71 358.35,-236.9"/>
</g>
<!-- Node8 -->
<g id="node8" class="node">
<title>Node8</title>
<g id="a_node8"><a xlink:title=" ">
<polygon fill="white" stroke="#bfbfbf" points="365.5,-207.5 365.5,-239.5 466.52,-239.5 466.52,-207.5 365.5,-207.5"/>
<text text-anchor="start" x="373.5" y="-226.5" font-family="Helvetica,sans-Serif" font-size="10.00">halco/hicann&#45;dls/vx</text>
<text text-anchor="middle" x="416.01" y="-214.5" font-family="Helvetica,sans-Serif" font-size="10.00">/quad.h</text>
</a>
</g>
</g>
<!-- Node3&#45;&gt;Node8 -->
<g id="edge8" class="edge">
<title>Node3&#45;&gt;Node8</title>
<path fill="none" stroke="midnightblue" d="M552.4,-276.5C529.52,-267.78 494.11,-254.28 465.11,-243.22"/>
<polygon fill="midnightblue" stroke="midnightblue" points="466.14,-239.86 455.55,-239.57 463.64,-246.41 466.14,-239.86"/>
</g>
<!-- Node9 -->
<g id="node9" class="node">
<title>Node9</title>
<g id="a_node9"><a xlink:title=" ">
<polygon fill="white" stroke="#bfbfbf" points="484.66,-207.5 484.66,-239.5 587.36,-239.5 587.36,-207.5 484.66,-207.5"/>
<text text-anchor="start" x="492.66" y="-226.5" font-family="Helvetica,sans-Serif" font-size="10.00">halco/hicann&#45;dls/vx</text>
<text text-anchor="middle" x="536.01" y="-214.5" font-family="Helvetica,sans-Serif" font-size="10.00">/vector_generator.h</text>
</a>
</g>
</g>
<!-- Node3&#45;&gt;Node9 -->
<g id="edge9" class="edge">
<title>Node3&#45;&gt;Node9</title>
<path fill="none" stroke="midnightblue" d="M570.11,-276.5C565.2,-269.01 557.99,-258.02 551.46,-248.06"/>
<polygon fill="midnightblue" stroke="midnightblue" points="554.38,-246.13 545.97,-239.69 548.53,-249.97 554.38,-246.13"/>
</g>
<!-- Node10 -->
<g id="node10" class="node">
<title>Node10</title>
<g id="a_node10"><a xlink:href="cerealization_8h.html" target="_top" xlink:title=" ">
<polygon fill="white" stroke="black" points="389.34,-75.5 389.34,-95.5 498.69,-95.5 498.69,-75.5 389.34,-75.5"/>
<text text-anchor="middle" x="444.01" y="-82.5" font-family="Helvetica,sans-Serif" font-size="10.00">haldls/cerealization.h</text>
</a>
</g>
</g>
<!-- Node3&#45;&gt;Node10 -->
<g id="edge10" class="edge">
<title>Node3&#45;&gt;Node10</title>
<path fill="none" stroke="midnightblue" d="M582.23,-276.38C591.68,-261.32 607.4,-230.55 596.01,-207 570.79,-154.81 510.77,-118.33 474.15,-100.03"/>
<polygon fill="midnightblue" stroke="midnightblue" points="475.46,-96.77 464.93,-95.55 472.4,-103.07 475.46,-96.77"/>
</g>
<!-- Node12 -->
<g id="node12" class="node">
<title>Node12</title>
<g id="a_node12"><a xlink:title=" ">
<polygon fill="white" stroke="#bfbfbf" points="707.51,-6.5 707.51,-26.5 788.51,-26.5 788.51,-6.5 707.51,-6.5"/>
<text text-anchor="middle" x="748.01" y="-13.5" font-family="Helvetica,sans-Serif" font-size="10.00">hate/visibility.h</text>
</a>
</g>
</g>
<!-- Node3&#45;&gt;Node12 -->
<g id="edge53" class="edge">
<title>Node3&#45;&gt;Node12</title>
<path fill="none" stroke="midnightblue" d="M646.82,-278.33C777.58,-263.88 1050.41,-227.72 1125.01,-171 1153.23,-149.55 1155.81,-136.23 1165.01,-102 1168.82,-87.84 1174.86,-79.87 1165.01,-69 1109.97,-8.29 878.34,-49.22 798.01,-33 793.25,-32.04 788.3,-30.8 783.44,-29.45"/>
<polygon fill="midnightblue" stroke="midnightblue" points="784.29,-26.05 773.7,-26.56 782.29,-32.76 784.29,-26.05"/>
</g>
<!-- Node16 -->
<g id="node16" class="node">
<title>Node16</title>
<g id="a_node16"><a xlink:href="padi_8h.html" target="_top" xlink:title=" ">
<polygon fill="white" stroke="black" points="766.56,-213.5 766.56,-233.5 851.46,-233.5 851.46,-213.5 766.56,-213.5"/>
<text text-anchor="middle" x="809.01" y="-220.5" font-family="Helvetica,sans-Serif" font-size="10.00">haldls/vx/padi.h</text>
</a>
</g>
</g>
<!-- Node3&#45;&gt;Node16 -->
<g id="edge17" class="edge">
<title>Node3&#45;&gt;Node16</title>
<path fill="none" stroke="midnightblue" d="M610.39,-276.5C651.35,-265.78 719.85,-247.84 764.73,-236.09"/>
<polygon fill="midnightblue" stroke="midnightblue" points="765.7,-239.46 774.49,-233.54 763.93,-232.68 765.7,-239.46"/>
</g>
<!-- Node26 -->
<g id="node26" class="node">
<title>Node26</title>
<g id="a_node26"><a xlink:href="traits_8h.html" target="_top" xlink:title=" ">
<polygon fill="white" stroke="black" points="1233.17,-75.5 1233.17,-95.5 1320.85,-95.5 1320.85,-75.5 1233.17,-75.5"/>
<text text-anchor="middle" x="1277.01" y="-82.5" font-family="Helvetica,sans-Serif" font-size="10.00">haldls/vx/traits.h</text>
</a>
</g>
</g>
<!-- Node3&#45;&gt;Node26 -->
<g id="edge52" class="edge">
<title>Node3&#45;&gt;Node26</title>
<path fill="none" stroke="midnightblue" d="M646.93,-284.74C804.62,-282.45 1173.99,-273.52 1219.01,-240 1262.14,-207.88 1273.2,-139.68 1276.04,-106.07"/>
<polygon fill="midnightblue" stroke="midnightblue" points="1279.55,-105.95 1276.73,-95.73 1272.57,-105.47 1279.55,-105.95"/>
</g>
<!-- Node11 -->
<g id="node11" class="node">
<title>Node11</title>
<g id="a_node11"><a xlink:title=" ">
<polygon fill="white" stroke="#bfbfbf" points="606.39,-6.5 606.39,-26.5 689.63,-26.5 689.63,-6.5 606.39,-6.5"/>
<text text-anchor="middle" x="648.01" y="-13.5" font-family="Helvetica,sans-Serif" font-size="10.00">hate/type_list.h</text>
</a>
</g>
</g>
<!-- Node10&#45;&gt;Node11 -->
<g id="edge11" class="edge">
<title>Node10&#45;&gt;Node11</title>
<path fill="none" stroke="midnightblue" d="M471.52,-75.46C507.42,-63.68 570.37,-43 610.58,-29.79"/>
<polygon fill="midnightblue" stroke="midnightblue" points="611.87,-33.05 620.28,-26.61 609.69,-26.4 611.87,-33.05"/>
</g>
<!-- Node10&#45;&gt;Node12 -->
<g id="edge12" class="edge">
<title>Node10&#45;&gt;Node12</title>
<path fill="none" stroke="midnightblue" d="M479.82,-75.49C488.99,-73.27 498.85,-70.97 508.01,-69 592.46,-50.83 615.24,-54.06 699.01,-33 703.15,-31.96 707.45,-30.77 711.71,-29.52"/>
<polygon fill="midnightblue" stroke="midnightblue" points="712.93,-32.8 721.48,-26.53 710.89,-26.11 712.93,-32.8"/>
</g>
<!-- Node13 -->
<g id="node13" class="node">
<title>Node13</title>
<g id="a_node13"><a xlink:title=" ">
<polygon fill="white" stroke="#bfbfbf" points="486.56,-6.5 486.56,-26.5 531.46,-26.5 531.46,-6.5 486.56,-6.5"/>
<text text-anchor="middle" x="509.01" y="-13.5" font-family="Helvetica,sans-Serif" font-size="10.00">cstdint</text>
</a>
</g>
</g>
<!-- Node10&#45;&gt;Node13 -->
<g id="edge13" class="edge">
<title>Node10&#45;&gt;Node13</title>
<path fill="none" stroke="midnightblue" d="M452.78,-75.46C462.99,-64.93 480.09,-47.31 492.75,-34.26"/>
<polygon fill="midnightblue" stroke="midnightblue" points="495.52,-36.44 499.97,-26.82 490.49,-31.56 495.52,-36.44"/>
</g>
<!-- Node14 -->
<g id="node14" class="node">
<title>Node14</title>
<g id="a_node14"><a xlink:title=" ">
<polygon fill="white" stroke="#bfbfbf" points="307.84,-6.5 307.84,-26.5 352.18,-26.5 352.18,-6.5 307.84,-6.5"/>
<text text-anchor="middle" x="330.01" y="-13.5" font-family="Helvetica,sans-Serif" font-size="10.00">iosfwd</text>
</a>
</g>
</g>
<!-- Node10&#45;&gt;Node14 -->
<g id="edge14" class="edge">
<title>Node10&#45;&gt;Node14</title>
<path fill="none" stroke="midnightblue" d="M428.64,-75.46C409.51,-64.23 376.65,-44.91 354.15,-31.69"/>
<polygon fill="midnightblue" stroke="midnightblue" points="355.9,-28.66 345.51,-26.61 352.35,-34.69 355.9,-28.66"/>
</g>
<!-- Node15 -->
<g id="node15" class="node">
<title>Node15</title>
<g id="a_node15"><a xlink:title=" ">
<polygon fill="white" stroke="#bfbfbf" points="369.89,-6.5 369.89,-26.5 468.13,-26.5 468.13,-6.5 369.89,-6.5"/>
<text text-anchor="middle" x="419.01" y="-13.5" font-family="Helvetica,sans-Serif" font-size="10.00">cereal/macros.hpp</text>
</a>
</g>
</g>
<!-- Node10&#45;&gt;Node15 -->
<g id="edge15" class="edge">
<title>Node10&#45;&gt;Node15</title>
<path fill="none" stroke="midnightblue" d="M440.64,-75.46C436.93,-65.53 430.87,-49.28 426.11,-36.52"/>
<polygon fill="midnightblue" stroke="midnightblue" points="429.27,-34.97 422.49,-26.82 422.71,-37.42 429.27,-34.97"/>
</g>
<!-- Node16&#45;&gt;Node2 -->
<g id="edge23" class="edge">
<title>Node16&#45;&gt;Node2</title>
<path fill="none" stroke="midnightblue" d="M851.82,-219.92C950.18,-212.66 1198.22,-186.7 1385.01,-102 1429.85,-81.67 1478.38,-50.63 1505.51,-32.37"/>
<polygon fill="midnightblue" stroke="midnightblue" points="1507.54,-35.21 1513.85,-26.7 1503.61,-29.42 1507.54,-35.21"/>
</g>
<!-- Node16&#45;&gt;Node4 -->
<g id="edge18" class="edge">
<title>Node16&#45;&gt;Node4</title>
<path fill="none" stroke="midnightblue" d="M766.51,-218.84C664.4,-209.08 398.35,-177.8 190.01,-102 188.58,-101.48 187.13,-100.89 185.68,-100.25"/>
<polygon fill="midnightblue" stroke="midnightblue" points="186.93,-96.97 176.42,-95.6 183.79,-103.22 186.93,-96.97"/>
</g>
<!-- Node16&#45;&gt;Node10 -->
<g id="edge22" class="edge">
<title>Node16&#45;&gt;Node10</title>
<path fill="none" stroke="midnightblue" d="M798.17,-213.45C772.63,-192.16 710.37,-140.47 705.01,-138 624.17,-100.77 595.08,-120.48 508.01,-102 502.14,-100.75 495.98,-99.36 489.9,-97.95"/>
<polygon fill="midnightblue" stroke="midnightblue" points="490.35,-94.46 479.81,-95.55 488.73,-101.27 490.35,-94.46"/>
</g>
<!-- Node16&#45;&gt;Node12 -->
<g id="edge50" class="edge">
<title>Node16&#45;&gt;Node12</title>
<path fill="none" stroke="midnightblue" d="M825.28,-213.32C856.13,-196.26 925.62,-159.45 988.01,-138 1056.94,-114.3 1102.48,-158.92 1148.01,-102 1157.17,-90.55 1157.84,-79.89 1148.01,-69 1095.63,-10.95 874.62,-48.65 798.01,-33 793.25,-32.03 788.3,-30.79 783.45,-29.43"/>
<polygon fill="midnightblue" stroke="midnightblue" points="784.29,-26.03 773.71,-26.53 782.3,-32.74 784.29,-26.03"/>
</g>
<!-- Node16&#45;&gt;Node14 -->
<g id="edge19" class="edge">
<title>Node16&#45;&gt;Node14</title>
<path fill="none" stroke="midnightblue" d="M766.32,-219.44C607.15,-207.6 54.86,-162.38 7.01,-102 -2.1,-90.51 -2.51,-80.16 7.01,-69 44.16,-25.46 223.09,-18.56 297.47,-17.59"/>
<polygon fill="midnightblue" stroke="midnightblue" points="297.69,-21.09 307.66,-17.49 297.62,-14.09 297.69,-21.09"/>
</g>
<!-- Node17 -->
<g id="node17" class="node">
<title>Node17</title>
<g id="a_node17"><a xlink:title=" ">
<polygon fill="white" stroke="#bfbfbf" points="199.11,-75.5 199.11,-95.5 332.91,-95.5 332.91,-75.5 199.11,-75.5"/>
<text text-anchor="middle" x="266.01" y="-82.5" font-family="Helvetica,sans-Serif" font-size="10.00">halco/common/geometry.h</text>
</a>
</g>
</g>
<!-- Node16&#45;&gt;Node17 -->
<g id="edge20" class="edge">
<title>Node16&#45;&gt;Node17</title>
<path fill="none" stroke="midnightblue" d="M786.61,-213.39C764.91,-204.13 731.51,-188.64 705.01,-171 686.39,-158.6 687.49,-146.99 667.01,-138 536.37,-80.64 489.1,-123.26 348.01,-102 339.16,-100.67 329.81,-99.07 320.72,-97.43"/>
<polygon fill="midnightblue" stroke="midnightblue" points="321.06,-93.93 310.59,-95.55 319.79,-100.81 321.06,-93.93"/>
</g>
<!-- Node18 -->
<g id="node18" class="node">
<title>Node18</title>
<g id="a_node18"><a xlink:title=" ">
<polygon fill="white" stroke="#bfbfbf" points="997.5,-138.5 997.5,-170.5 1098.52,-170.5 1098.52,-138.5 997.5,-138.5"/>
<text text-anchor="start" x="1005.5" y="-157.5" font-family="Helvetica,sans-Serif" font-size="10.00">halco/hicann&#45;dls/vx</text>
<text text-anchor="middle" x="1048.01" y="-145.5" font-family="Helvetica,sans-Serif" font-size="10.00">/padi.h</text>
</a>
</g>
</g>
<!-- Node16&#45;&gt;Node18 -->
<g id="edge21" class="edge">
<title>Node16&#45;&gt;Node18</title>
<path fill="none" stroke="midnightblue" d="M841.24,-213.46C878.6,-202.99 940.96,-185.51 987.45,-172.48"/>
<polygon fill="midnightblue" stroke="midnightblue" points="988.43,-175.84 997.11,-169.77 986.54,-169.1 988.43,-175.84"/>
</g>
<!-- Node19 -->
<g id="node19" class="node">
<title>Node19</title>
<g id="a_node19"><a xlink:href="synapse_8h.html" target="_top" xlink:title=" ">
<polygon fill="white" stroke="black" points="757.39,-144.5 757.39,-164.5 860.63,-164.5 860.63,-144.5 757.39,-144.5"/>
<text text-anchor="middle" x="809.01" y="-151.5" font-family="Helvetica,sans-Serif" font-size="10.00">haldls/vx/synapse.h</text>
</a>
</g>
</g>
<!-- Node16&#45;&gt;Node19 -->
<g id="edge24" class="edge">
<title>Node16&#45;&gt;Node19</title>
<path fill="none" stroke="midnightblue" d="M809.01,-213.46C809.01,-203.63 809.01,-187.61 809.01,-174.9"/>
<polygon fill="midnightblue" stroke="midnightblue" points="812.51,-174.82 809.01,-164.82 805.51,-174.82 812.51,-174.82"/>
</g>
<!-- Node16&#45;&gt;Node26 -->
<g id="edge49" class="edge">
<title>Node16&#45;&gt;Node26</title>
<path fill="none" stroke="midnightblue" d="M851.55,-220.23C913.33,-215.89 1030.77,-203.75 1125.01,-171 1174.94,-153.65 1227.66,-120.52 1256.01,-101.3"/>
<polygon fill="midnightblue" stroke="midnightblue" points="1258.06,-104.13 1264.32,-95.58 1254.1,-98.36 1258.06,-104.13"/>
</g>
<!-- Node32 -->
<g id="node32" class="node">
<title>Node32</title>
<g id="a_node32"><a xlink:title=" ">
<polygon fill="white" stroke="#bfbfbf" points="1035.39,-75.5 1035.39,-95.5 1138.63,-95.5 1138.63,-75.5 1035.39,-75.5"/>
<text text-anchor="middle" x="1087.01" y="-82.5" font-family="Helvetica,sans-Serif" font-size="10.00">hxcomm/vx/target.h</text>
</a>
</g>
</g>
<!-- Node16&#45;&gt;Node32 -->
<g id="edge51" class="edge">
<title>Node16&#45;&gt;Node32</title>
<path fill="none" stroke="midnightblue" d="M851.66,-221.64C926.29,-219.13 1075.73,-209.32 1108.01,-171 1124.01,-152.01 1110.83,-122.6 1099.33,-103.96"/>
<polygon fill="midnightblue" stroke="midnightblue" points="1102.22,-101.98 1093.8,-95.54 1096.37,-105.82 1102.22,-101.98"/>
</g>
<!-- Node19&#45;&gt;Node2 -->
<g id="edge36" class="edge">
<title>Node19&#45;&gt;Node2</title>
<path fill="none" stroke="midnightblue" d="M861.05,-148.79C988.49,-137.19 1307.51,-107.79 1330.01,-102 1363.66,-93.34 1453.02,-52.36 1498.93,-30.81"/>
<polygon fill="midnightblue" stroke="midnightblue" points="1500.47,-33.96 1508.03,-26.53 1497.49,-27.62 1500.47,-33.96"/>
</g>
<!-- Node19&#45;&gt;Node4 -->
<g id="edge25" class="edge">
<title>Node19&#45;&gt;Node4</title>
<path fill="none" stroke="midnightblue" d="M757.12,-147.42C730.25,-144.37 696.89,-140.76 667.01,-138 455.31,-118.46 393.71,-162.89 190.01,-102 188.33,-101.5 186.63,-100.88 184.96,-100.19"/>
<polygon fill="midnightblue" stroke="midnightblue" points="186.25,-96.92 175.73,-95.63 183.15,-103.2 186.25,-96.92"/>
</g>
<!-- Node19&#45;&gt;Node6 -->
<g id="edge28" class="edge">
<title>Node19&#45;&gt;Node6</title>
<path fill="none" stroke="midnightblue" d="M757.02,-152.39C644.96,-149.38 372.31,-138.76 134.58,-101.9"/>
<polygon fill="midnightblue" stroke="midnightblue" points="134.78,-98.39 124.36,-100.29 133.69,-105.3 134.78,-98.39"/>
</g>
<!-- Node19&#45;&gt;Node10 -->
<g id="edge32" class="edge">
<title>Node19&#45;&gt;Node10</title>
<path fill="none" stroke="midnightblue" d="M772.81,-144.46C763.16,-142.2 752.72,-139.88 743.01,-138 639.28,-117.91 611.68,-122.45 508.01,-102 501.83,-100.78 495.34,-99.37 488.97,-97.9"/>
<polygon fill="midnightblue" stroke="midnightblue" points="489.64,-94.46 479.1,-95.57 488.03,-101.28 489.64,-94.46"/>
</g>
<!-- Node19&#45;&gt;Node12 -->
<g id="edge47" class="edge">
<title>Node19&#45;&gt;Node12</title>
<path fill="none" stroke="midnightblue" d="M860.71,-147.71C926.39,-138.31 1026.81,-115.84 988.01,-69 933.19,-2.81 881.41,-53.76 798.01,-33 793.68,-31.92 789.17,-30.69 784.7,-29.39"/>
<polygon fill="midnightblue" stroke="midnightblue" points="785.69,-26.03 775.1,-26.51 783.67,-32.74 785.69,-26.03"/>
</g>
<!-- Node19&#45;&gt;Node14 -->
<g id="edge26" class="edge">
<title>Node19&#45;&gt;Node14</title>
<path fill="none" stroke="midnightblue" d="M757.22,-145.39C740.57,-142.89 722.03,-140.21 705.01,-138 632.95,-128.64 441.05,-141.42 380.01,-102 356.45,-86.79 342.52,-56.22 335.58,-36.33"/>
<polygon fill="midnightblue" stroke="midnightblue" points="338.82,-34.98 332.42,-26.54 332.16,-37.13 338.82,-34.98"/>
</g>
<!-- Node19&#45;&gt;Node17 -->
<g id="edge27" class="edge">
<title>Node19&#45;&gt;Node17</title>
<path fill="none" stroke="midnightblue" d="M757.24,-145.29C740.58,-142.78 722.04,-140.12 705.01,-138 546.33,-118.21 505.26,-125.05 347.01,-102 338.16,-100.71 328.8,-99.13 319.71,-97.47"/>
<polygon fill="midnightblue" stroke="midnightblue" points="320.08,-93.98 309.61,-95.58 318.8,-100.86 320.08,-93.98"/>
</g>
<!-- Node20 -->
<g id="node20" class="node">
<title>Node20</title>
<g id="a_node20"><a xlink:title=" ">
<polygon fill="white" stroke="#bfbfbf" points="639.5,-69.5 639.5,-101.5 740.52,-101.5 740.52,-69.5 639.5,-69.5"/>
<text text-anchor="start" x="647.5" y="-88.5" font-family="Helvetica,sans-Serif" font-size="10.00">halco/hicann&#45;dls/vx</text>
<text text-anchor="middle" x="690.01" y="-76.5" font-family="Helvetica,sans-Serif" font-size="10.00">/capmem.h</text>
</a>
</g>
</g>
<!-- Node19&#45;&gt;Node20 -->
<g id="edge29" class="edge">
<title>Node19&#45;&gt;Node20</title>
<path fill="none" stroke="midnightblue" d="M792.96,-144.46C775.79,-134.79 748,-119.15 725.61,-106.55"/>
<polygon fill="midnightblue" stroke="midnightblue" points="727.14,-103.39 716.71,-101.53 723.71,-109.49 727.14,-103.39"/>
</g>
<!-- Node21 -->
<g id="node21" class="node">
<title>Node21</title>
<g id="a_node21"><a xlink:title=" ">
<polygon fill="white" stroke="#bfbfbf" points="758.5,-69.5 758.5,-101.5 859.52,-101.5 859.52,-69.5 758.5,-69.5"/>
<text text-anchor="start" x="766.5" y="-88.5" font-family="Helvetica,sans-Serif" font-size="10.00">halco/hicann&#45;dls/vx</text>
<text text-anchor="middle" x="809.01" y="-76.5" font-family="Helvetica,sans-Serif" font-size="10.00">/switch_rows.h</text>
</a>
</g>
</g>
<!-- Node19&#45;&gt;Node21 -->
<g id="edge30" class="edge">
<title>Node19&#45;&gt;Node21</title>
<path fill="none" stroke="midnightblue" d="M809.01,-144.46C809.01,-136.04 809.01,-123.08 809.01,-111.55"/>
<polygon fill="midnightblue" stroke="midnightblue" points="812.51,-111.53 809.01,-101.53 805.51,-111.53 812.51,-111.53"/>
</g>
<!-- Node22 -->
<g id="node22" class="node">
<title>Node22</title>
<g id="a_node22"><a xlink:title=" ">
<polygon fill="white" stroke="#bfbfbf" points="877.5,-69.5 877.5,-101.5 978.52,-101.5 978.52,-69.5 877.5,-69.5"/>
<text text-anchor="start" x="885.5" y="-88.5" font-family="Helvetica,sans-Serif" font-size="10.00">halco/hicann&#45;dls/vx</text>
<text text-anchor="middle" x="928.01" y="-76.5" font-family="Helvetica,sans-Serif" font-size="10.00">/synapse.h</text>
</a>
</g>
</g>
<!-- Node19&#45;&gt;Node22 -->
<g id="edge31" class="edge">
<title>Node19&#45;&gt;Node22</title>
<path fill="none" stroke="midnightblue" d="M825.06,-144.46C842.23,-134.79 870.03,-119.15 892.41,-106.55"/>
<polygon fill="midnightblue" stroke="midnightblue" points="894.31,-109.49 901.31,-101.53 890.88,-103.39 894.31,-109.49"/>
</g>
<!-- Node23 -->
<g id="node23" class="node">
<title>Node23</title>
<g id="a_node23"><a xlink:href="common_8h.html" target="_top" xlink:title=" ">
<polygon fill="white" stroke="black" points="516.84,-75.5 516.84,-95.5 621.18,-95.5 621.18,-75.5 516.84,-75.5"/>
<text text-anchor="middle" x="569.01" y="-82.5" font-family="Helvetica,sans-Serif" font-size="10.00">haldls/vx/common.h</text>
</a>
</g>
</g>
<!-- Node19&#45;&gt;Node23 -->
<g id="edge33" class="edge">
<title>Node19&#45;&gt;Node23</title>
<path fill="none" stroke="midnightblue" d="M776.64,-144.46C733.97,-132.55 658.78,-111.56 611.55,-98.38"/>
<polygon fill="midnightblue" stroke="midnightblue" points="612.21,-94.92 601.63,-95.61 610.32,-101.67 612.21,-94.92"/>
</g>
<!-- Node19&#45;&gt;Node26 -->
<g id="edge37" class="edge">
<title>Node19&#45;&gt;Node26</title>
<path fill="none" stroke="midnightblue" d="M860.88,-146.07C950.14,-133.3 1131.92,-107.27 1222.78,-94.26"/>
<polygon fill="midnightblue" stroke="midnightblue" points="1223.46,-97.7 1232.87,-92.82 1222.47,-90.77 1223.46,-97.7"/>
</g>
<!-- Node19&#45;&gt;Node32 -->
<g id="edge48" class="edge">
<title>Node19&#45;&gt;Node32</title>
<path fill="none" stroke="midnightblue" d="M846.5,-144.46C896.45,-132.43 984.85,-111.12 1039.44,-97.96"/>
<polygon fill="midnightblue" stroke="midnightblue" points="1040.32,-101.35 1049.23,-95.61 1038.68,-94.55 1040.32,-101.35"/>
</g>
<!-- Node24 -->
<g id="node24" class="node">
<title>Node24</title>
<g id="a_node24"><a xlink:title=" ">
<polygon fill="white" stroke="#bfbfbf" points="806.95,-6.5 806.95,-26.5 869.07,-26.5 869.07,-6.5 806.95,-6.5"/>
<text text-anchor="middle" x="838.01" y="-13.5" font-family="Helvetica,sans-Serif" font-size="10.00">type_traits</text>
</a>
</g>
</g>
<!-- Node23&#45;&gt;Node24 -->
<g id="edge34" class="edge">
<title>Node23&#45;&gt;Node24</title>
<path fill="none" stroke="midnightblue" d="M603.79,-75.42C612.35,-73.25 621.5,-70.99 630.01,-69 704.36,-51.59 724.85,-54.86 798.01,-33 800.98,-32.11 804.05,-31.1 807.1,-30.03"/>
<polygon fill="midnightblue" stroke="midnightblue" points="808.48,-33.26 816.64,-26.5 806.05,-26.69 808.48,-33.26"/>
</g>
<!-- Node25 -->
<g id="node25" class="node">
<title>Node25</title>
<g id="a_node25"><a xlink:title=" ">
<polygon fill="white" stroke="#bfbfbf" points="549.62,-6.5 549.62,-26.5 588.4,-26.5 588.4,-6.5 549.62,-6.5"/>
<text text-anchor="middle" x="569.01" y="-13.5" font-family="Helvetica,sans-Serif" font-size="10.00">utility</text>
</a>
</g>
</g>
<!-- Node23&#45;&gt;Node25 -->
<g id="edge35" class="edge">
<title>Node23&#45;&gt;Node25</title>
<path fill="none" stroke="midnightblue" d="M569.01,-75.46C569.01,-65.63 569.01,-49.61 569.01,-36.9"/>
<polygon fill="midnightblue" stroke="midnightblue" points="572.51,-36.82 569.01,-26.82 565.51,-36.82 572.51,-36.82"/>
</g>
<!-- Node26&#45;&gt;Node2 -->
<g id="edge40" class="edge">
<title>Node26&#45;&gt;Node2</title>
<path fill="none" stroke="midnightblue" d="M1310.73,-75.46C1355.37,-63.5 1434.16,-42.39 1483.31,-29.21"/>
<polygon fill="midnightblue" stroke="midnightblue" points="1484.28,-32.58 1493.03,-26.61 1482.47,-25.81 1484.28,-32.58"/>
</g>
<!-- Node26&#45;&gt;Node11 -->
<g id="edge41" class="edge">
<title>Node26&#45;&gt;Node11</title>
<path fill="none" stroke="midnightblue" d="M1232.88,-78.76C1207.98,-75.63 1176.29,-71.83 1148.01,-69 948.37,-49.03 895.03,-70.94 698.01,-33 693.19,-32.07 688.18,-30.84 683.27,-29.49"/>
<polygon fill="midnightblue" stroke="midnightblue" points="684.01,-26.06 673.43,-26.57 682.02,-32.77 684.01,-26.06"/>
</g>
<!-- Node26&#45;&gt;Node12 -->
<g id="edge42" class="edge">
<title>Node26&#45;&gt;Node12</title>
<path fill="none" stroke="midnightblue" d="M1247.13,-75.44C1238.16,-73.01 1228.25,-70.62 1219.01,-69 1034.03,-36.63 982.32,-69.01 798.01,-33 793.19,-32.06 788.18,-30.82 783.27,-29.46"/>
<polygon fill="midnightblue" stroke="midnightblue" points="784.02,-26.03 773.43,-26.54 782.02,-32.74 784.02,-26.03"/>
</g>
<!-- Node26&#45;&gt;Node24 -->
<g id="edge43" class="edge">
<title>Node26&#45;&gt;Node24</title>
<path fill="none" stroke="midnightblue" d="M1246.81,-75.47C1237.92,-73.08 1228.13,-70.69 1219.01,-69 1069.16,-41.24 1026.13,-68.85 878.01,-33 874.75,-32.21 871.41,-31.22 868.1,-30.13"/>
<polygon fill="midnightblue" stroke="midnightblue" points="869.03,-26.74 858.44,-26.61 866.64,-33.32 869.03,-26.74"/>
</g>
<!-- Node27 -->
<g id="node27" class="node">
<title>Node27</title>
<g id="a_node27"><a xlink:title=" ">
<polygon fill="white" stroke="#bfbfbf" points="1370.95,-6.5 1370.95,-26.5 1453.07,-26.5 1453.07,-6.5 1370.95,-6.5"/>
<text text-anchor="middle" x="1412.01" y="-13.5" font-family="Helvetica,sans-Serif" font-size="10.00">fisch/vx/traits.h</text>
</a>
</g>
</g>
<!-- Node26&#45;&gt;Node27 -->
<g id="edge38" class="edge">
<title>Node26&#45;&gt;Node27</title>
<path fill="none" stroke="midnightblue" d="M1295.22,-75.46C1318.17,-64.08 1357.83,-44.39 1384.48,-31.16"/>
<polygon fill="midnightblue" stroke="midnightblue" points="1386.26,-34.19 1393.66,-26.61 1383.15,-27.92 1386.26,-34.19"/>
</g>
<!-- Node28 -->
<g id="node28" class="node">
<title>Node28</title>
<g id="a_node28"><a xlink:title=" ">
<polygon fill="white" stroke="#bfbfbf" points="886.78,-0.5 886.78,-32.5 997.24,-32.5 997.24,-0.5 886.78,-0.5"/>
<text text-anchor="start" x="894.78" y="-19.5" font-family="Helvetica,sans-Serif" font-size="10.00">fisch/vx/word_access</text>
<text text-anchor="middle" x="942.01" y="-7.5" font-family="Helvetica,sans-Serif" font-size="10.00">_type.h</text>
</a>
</g>
</g>
<!-- Node26&#45;&gt;Node28 -->
<g id="edge39" class="edge">
<title>Node26&#45;&gt;Node28</title>
<path fill="none" stroke="midnightblue" d="M1245.23,-75.44C1236.75,-73.18 1227.57,-70.87 1219.01,-69 1128.73,-49.32 1102.39,-51.89 1007.32,-32.97"/>
<polygon fill="midnightblue" stroke="midnightblue" points="1007.77,-29.49 997.27,-30.94 1006.38,-36.35 1007.77,-29.49"/>
</g>
<!-- Node29 -->
<g id="node29" class="node">
<title>Node29</title>
<g id="a_node29"><a xlink:title=" ">
<polygon fill="white" stroke="#bfbfbf" points="1015.61,-0.5 1015.61,-32.5 1114.41,-32.5 1114.41,-0.5 1015.61,-0.5"/>
<text text-anchor="start" x="1023.61" y="-19.5" font-family="Helvetica,sans-Serif" font-size="10.00">boost/utility/enable</text>
<text text-anchor="middle" x="1065.01" y="-7.5" font-family="Helvetica,sans-Serif" font-size="10.00">_if.hpp</text>
</a>
</g>
</g>
<!-- Node26&#45;&gt;Node29 -->
<g id="edge44" class="edge">
<title>Node26&#45;&gt;Node29</title>
<path fill="none" stroke="midnightblue" d="M1248.42,-75.46C1216.19,-65.28 1162.98,-48.46 1122.14,-35.56"/>
<polygon fill="midnightblue" stroke="midnightblue" points="1123.17,-32.21 1112.58,-32.53 1121.06,-38.88 1123.17,-32.21"/>
</g>
<!-- Node30 -->
<g id="node30" class="node">
<title>Node30</title>
<g id="a_node30"><a xlink:title=" ">
<polygon fill="white" stroke="#bfbfbf" points="1132.66,-6.5 1132.66,-26.5 1225.36,-26.5 1225.36,-6.5 1132.66,-6.5"/>
<text text-anchor="middle" x="1179.01" y="-13.5" font-family="Helvetica,sans-Serif" font-size="10.00">boost/variant.hpp</text>
</a>
</g>
</g>
<!-- Node26&#45;&gt;Node30 -->
<g id="edge45" class="edge">
<title>Node26&#45;&gt;Node30</title>
<path fill="none" stroke="midnightblue" d="M1263.79,-75.46C1247.65,-64.42 1220.1,-45.59 1200.8,-32.4"/>
<polygon fill="midnightblue" stroke="midnightblue" points="1202.56,-29.36 1192.33,-26.61 1198.61,-35.14 1202.56,-29.36"/>
</g>
<!-- Node31 -->
<g id="node31" class="node">
<title>Node31</title>
<g id="a_node31"><a xlink:title=" ">
<polygon fill="white" stroke="#bfbfbf" points="1243.05,-6.5 1243.05,-26.5 1352.97,-26.5 1352.97,-6.5 1243.05,-6.5"/>
<text text-anchor="middle" x="1298.01" y="-13.5" font-family="Helvetica,sans-Serif" font-size="10.00">fisch/vx/container.def</text>
</a>
</g>
</g>
<!-- Node26&#45;&gt;Node31 -->
<g id="edge46" class="edge">
<title>Node26&#45;&gt;Node31</title>
<path fill="none" stroke="midnightblue" d="M1279.84,-75.46C1282.96,-65.53 1288.05,-49.28 1292.05,-36.52"/>
<polygon fill="midnightblue" stroke="midnightblue" points="1295.44,-37.41 1295.09,-26.82 1288.76,-35.32 1295.44,-37.41"/>
</g>
</g>
</svg>
