<?xml version="1.0" encoding="UTF-8" standalone="no"?>
<!DOCTYPE svg PUBLIC "-//W3C//DTD SVG 1.1//EN"
 "http://www.w3.org/Graphics/SVG/1.1/DTD/svg11.dtd">
<!-- Generated by graphviz version 2.46.0 (0)
 -->
<!-- Title: /jenkins/jenlib_workspaces_f9/bld_nightly&#45;haldls.YmxkX25pZ2h0bHktaGFsZGxzIzEzNzk.x/haldls/include/haldls/vx/v3/perftest.h Pages: 1 -->
<!--zoomable 260 -->
<svg id="main" version="1.1" xmlns="http://www.w3.org/2000/svg" xmlns:xlink="http://www.w3.org/1999/xlink" xml:space="preserve" onload="init(evt)">
<style type="text/css"><![CDATA[
.edge:hover path { stroke: red; }
.edge:hover polygon { stroke: red; fill: red; }
]]></style>
<script type="text/javascript"><![CDATA[
var edges = document.getElementsByTagName('g');
if (edges && edges.length) {
  for (var i=0;i<edges.length;i++) {
    if (edges[i].id.substr(0,4)=='edge') {
      edges[i].setAttribute('class','edge');
    }
  }
}
]]></script>
        <defs>
                <circle id="rim" cx="0" cy="0" r="7"/>
                <circle id="rim2" cx="0" cy="0" r="3.5"/>
                <g id="zoomPlus">
                        <use xlink:href="#rim" fill="#404040">
                                <set attributeName="fill" to="#808080" begin="zoomplus.mouseover" end="zoomplus.mouseout"/>
                        </use>
                        <path d="M-4,0h8M0,-4v8" fill="none" stroke="white" stroke-width="1.5" pointer-events="none"/>
                </g>
                <g id="zoomMin">
                        <use xlink:href="#rim" fill="#404040">
                                <set attributeName="fill" to="#808080" begin="zoomminus.mouseover" end="zoomminus.mouseout"/>
                        </use>
                        <path d="M-4,0h8" fill="none" stroke="white" stroke-width="1.5" pointer-events="none"/>
                </g>
                <g id="dirArrow">
                        <path fill="none" stroke="white" stroke-width="1.5" d="M0,-3.0v7 M-2.5,-0.5L0,-3.0L2.5,-0.5"/>
                </g>
               <g id="resetDef">
                       <use xlink:href="#rim2" fill="#404040">
                               <set attributeName="fill" to="#808080" begin="reset.mouseover" end="reset.mouseout"/>
                       </use>
               </g>
        </defs>

<script type="text/javascript">
var viewWidth = 1242;
var viewHeight = 260;
var sectionId = 'dynsection-0';
</script>
<script xlink:href="svgpan.js"/>
<svg id="graph" class="graph">
<g id="viewport">
<title>/jenkins/jenlib_workspaces_f9/bld_nightly&#45;haldls.YmxkX25pZ2h0bHktaGFsZGxzIzEzNzk.x/haldls/include/haldls/vx/v3/perftest.h</title>
<polygon fill="white" stroke="transparent" points="-4,4 -4,-256 1238.24,-256 1238.24,4 -4,4"/>
<!-- Node1 -->
<g id="node1" class="node">
<title>Node1</title>
<g id="a_node1"><a xlink:title=" ">
<polygon fill="#bfbfbf" stroke="black" points="559.66,-195.5 559.66,-251.5 740.68,-251.5 740.68,-195.5 559.66,-195.5"/>
<text text-anchor="start" x="567.66" y="-238.5" font-family="Helvetica,sans-Serif" font-size="10.00">/jenkins/jenlib_workspaces</text>
<text text-anchor="start" x="567.66" y="-226.5" font-family="Helvetica,sans-Serif" font-size="10.00">_f9/bld_nightly&#45;haldls.YmxkX25p</text>
<text text-anchor="start" x="567.66" y="-214.5" font-family="Helvetica,sans-Serif" font-size="10.00">Z2h0bHktaGFsZGxzIzEzNzk.x/haldls</text>
<text text-anchor="middle" x="650.17" y="-202.5" font-family="Helvetica,sans-Serif" font-size="10.00">/include/haldls/vx/v3/perftest.h</text>
</a>
</g>
</g>
<!-- Node2 -->
<g id="node2" class="node">
<title>Node2</title>
<g id="a_node2"><a xlink:href="genpybind_8h.html" target="_top" xlink:title=" ">
<polygon fill="white" stroke="black" points="1104.1,-6.5 1104.1,-26.5 1216.24,-26.5 1216.24,-6.5 1104.1,-6.5"/>
<text text-anchor="middle" x="1160.17" y="-13.5" font-family="Helvetica,sans-Serif" font-size="10.00">haldls/vx/genpybind.h</text>
</a>
</g>
</g>
<!-- Node1&#45;&gt;Node2 -->
<g id="edge1" class="edge">
<title>Node1&#45;&gt;Node2</title>
<path fill="none" stroke="midnightblue" d="M717.37,-195.49C828.5,-150.82 1046.41,-63.22 1128.17,-30.36"/>
<polygon fill="midnightblue" stroke="midnightblue" points="1129.7,-33.52 1137.67,-26.54 1127.09,-27.03 1129.7,-33.52"/>
</g>
<!-- Node3 -->
<g id="node3" class="node">
<title>Node3</title>
<g id="a_node3"><a xlink:href="perftest_8h.html" target="_top" xlink:title=" ">
<polygon fill="white" stroke="black" points="470.49,-138.5 470.49,-158.5 569.84,-158.5 569.84,-138.5 470.49,-138.5"/>
<text text-anchor="middle" x="520.17" y="-145.5" font-family="Helvetica,sans-Serif" font-size="10.00">haldls/vx/perftest.h</text>
</a>
</g>
</g>
<!-- Node1&#45;&gt;Node3 -->
<g id="edge3" class="edge">
<title>Node1&#45;&gt;Node3</title>
<path fill="none" stroke="midnightblue" d="M601.76,-195.32C582.45,-184.47 561.05,-172.45 545.01,-163.45"/>
<polygon fill="midnightblue" stroke="midnightblue" points="546.67,-160.37 536.24,-158.52 543.24,-166.47 546.67,-160.37"/>
</g>
<!-- Node2&#45;&gt;Node2 -->
<g id="edge2" class="edge">
<title>Node2&#45;&gt;Node2</title>
<path fill="none" stroke="midnightblue" d="M1184.06,-26.54C1207.89,-32.26 1234.24,-28.92 1234.24,-16.5 1234.24,-5.78 1214.6,-1.82 1193.9,-4.62"/>
<polygon fill="midnightblue" stroke="midnightblue" points="1193.25,-1.18 1184.06,-6.46 1194.54,-8.06 1193.25,-1.18"/>
</g>
<!-- Node3&#45;&gt;Node2 -->
<g id="edge15" class="edge">
<title>Node3&#45;&gt;Node2</title>
<path fill="none" stroke="midnightblue" d="M570.27,-139.96C624.78,-131.56 714.41,-117.14 791.17,-102 927.1,-75.19 960.23,-64.4 1095.17,-33 1100.89,-31.67 1106.88,-30.26 1112.83,-28.85"/>
<polygon fill="midnightblue" stroke="midnightblue" points="1113.8,-32.22 1122.72,-26.5 1112.18,-25.41 1113.8,-32.22"/>
</g>
<!-- Node4 -->
<g id="node4" class="node">
<title>Node4</title>
<g id="a_node4"><a xlink:title=" ">
<polygon fill="white" stroke="#bfbfbf" points="72.78,-75.5 72.78,-95.5 111.56,-95.5 111.56,-75.5 72.78,-75.5"/>
<text text-anchor="middle" x="92.17" y="-82.5" font-family="Helvetica,sans-Serif" font-size="10.00">array</text>
</a>
</g>
</g>
<!-- Node3&#45;&gt;Node4 -->
<g id="edge4" class="edge">
<title>Node3&#45;&gt;Node4</title>
<path fill="none" stroke="midnightblue" d="M470.23,-148.01C393.22,-147.43 241.66,-140.84 120.17,-102 118.49,-101.46 116.81,-100.83 115.13,-100.12"/>
<polygon fill="midnightblue" stroke="midnightblue" points="116.43,-96.85 105.92,-95.52 113.31,-103.12 116.43,-96.85"/>
</g>
<!-- Node5 -->
<g id="node5" class="node">
<title>Node5</title>
<g id="a_node5"><a xlink:title=" ">
<polygon fill="white" stroke="#bfbfbf" points="0,-6.5 0,-26.5 44.34,-26.5 44.34,-6.5 0,-6.5"/>
<text text-anchor="middle" x="22.17" y="-13.5" font-family="Helvetica,sans-Serif" font-size="10.00">iosfwd</text>
</a>
</g>
</g>
<!-- Node3&#45;&gt;Node5 -->
<g id="edge5" class="edge">
<title>Node3&#45;&gt;Node5</title>
<path fill="none" stroke="midnightblue" d="M470.21,-145.23C358.76,-139.77 97.02,-124.69 64.17,-102 41.99,-86.68 30.97,-56.15 25.93,-36.29"/>
<polygon fill="midnightblue" stroke="midnightblue" points="29.34,-35.49 23.71,-26.51 22.51,-37.04 29.34,-35.49"/>
</g>
<!-- Node6 -->
<g id="node6" class="node">
<title>Node6</title>
<g id="a_node6"><a xlink:title=" ">
<polygon fill="white" stroke="#bfbfbf" points="256.94,-69.5 256.94,-101.5 367.4,-101.5 367.4,-69.5 256.94,-69.5"/>
<text text-anchor="start" x="264.94" y="-88.5" font-family="Helvetica,sans-Serif" font-size="10.00">fisch/vx/word_access</text>
<text text-anchor="middle" x="312.17" y="-76.5" font-family="Helvetica,sans-Serif" font-size="10.00">/type/reset.h</text>
</a>
</g>
</g>
<!-- Node3&#45;&gt;Node6 -->
<g id="edge6" class="edge">
<title>Node3&#45;&gt;Node6</title>
<path fill="none" stroke="midnightblue" d="M489.48,-138.5C459.08,-129.59 411.69,-115.69 373.55,-104.5"/>
<polygon fill="midnightblue" stroke="midnightblue" points="374.14,-101.03 363.56,-101.57 372.17,-107.75 374.14,-101.03"/>
</g>
<!-- Node7 -->
<g id="node7" class="node">
<title>Node7</title>
<g id="a_node7"><a xlink:title=" ">
<polygon fill="white" stroke="#bfbfbf" points="385.27,-75.5 385.27,-95.5 519.07,-95.5 519.07,-75.5 385.27,-75.5"/>
<text text-anchor="middle" x="452.17" y="-82.5" font-family="Helvetica,sans-Serif" font-size="10.00">halco/common/geometry.h</text>
</a>
</g>
</g>
<!-- Node3&#45;&gt;Node7 -->
<g id="edge7" class="edge">
<title>Node3&#45;&gt;Node7</title>
<path fill="none" stroke="midnightblue" d="M510.13,-138.5C499.59,-129.04 482.78,-113.96 469.97,-102.47"/>
<polygon fill="midnightblue" stroke="midnightblue" points="472.02,-99.61 462.24,-95.54 467.35,-104.82 472.02,-99.61"/>
</g>
<!-- Node8 -->
<g id="node8" class="node">
<title>Node8</title>
<g id="a_node8"><a xlink:title=" ">
<polygon fill="white" stroke="#bfbfbf" points="536.66,-69.5 536.66,-101.5 637.68,-101.5 637.68,-69.5 536.66,-69.5"/>
<text text-anchor="start" x="544.66" y="-88.5" font-family="Helvetica,sans-Serif" font-size="10.00">halco/hicann&#45;dls/vx</text>
<text text-anchor="middle" x="587.17" y="-76.5" font-family="Helvetica,sans-Serif" font-size="10.00">/highspeed_link.h</text>
</a>
</g>
</g>
<!-- Node3&#45;&gt;Node8 -->
<g id="edge8" class="edge">
<title>Node3&#45;&gt;Node8</title>
<path fill="none" stroke="midnightblue" d="M530.05,-138.5C538.69,-130.64 551.59,-118.9 562.94,-108.56"/>
<polygon fill="midnightblue" stroke="midnightblue" points="565.44,-111.01 570.48,-101.69 560.73,-105.84 565.44,-111.01"/>
</g>
<!-- Node9 -->
<g id="node9" class="node">
<title>Node9</title>
<g id="a_node9"><a xlink:href="cerealization_8h.html" target="_top" xlink:title=" ">
<polygon fill="white" stroke="black" points="129.49,-75.5 129.49,-95.5 238.84,-95.5 238.84,-75.5 129.49,-75.5"/>
<text text-anchor="middle" x="184.17" y="-82.5" font-family="Helvetica,sans-Serif" font-size="10.00">haldls/cerealization.h</text>
</a>
</g>
</g>
<!-- Node3&#45;&gt;Node9 -->
<g id="edge9" class="edge">
<title>Node3&#45;&gt;Node9</title>
<path fill="none" stroke="midnightblue" d="M470.34,-140.26C415.64,-132.07 325.33,-117.78 248.17,-102 242.07,-100.75 235.66,-99.33 229.37,-97.87"/>
<polygon fill="midnightblue" stroke="midnightblue" points="230.15,-94.46 219.61,-95.56 228.54,-101.27 230.15,-94.46"/>
</g>
<!-- Node11 -->
<g id="node11" class="node">
<title>Node11</title>
<g id="a_node11"><a xlink:title=" ">
<polygon fill="white" stroke="#bfbfbf" points="342.66,-6.5 342.66,-26.5 423.67,-26.5 423.67,-6.5 342.66,-6.5"/>
<text text-anchor="middle" x="383.17" y="-13.5" font-family="Helvetica,sans-Serif" font-size="10.00">hate/visibility.h</text>
</a>
</g>
</g>
<!-- Node3&#45;&gt;Node11 -->
<g id="edge26" class="edge">
<title>Node3&#45;&gt;Node11</title>
<path fill="none" stroke="midnightblue" d="M570.08,-143.26C597.66,-138.07 629.78,-126.71 647.17,-102 655.61,-90.01 656.64,-80.2 647.17,-69 616.02,-32.18 480.08,-44.16 433.17,-33 428.77,-31.95 424.2,-30.73 419.68,-29.44"/>
<polygon fill="midnightblue" stroke="midnightblue" points="420.56,-26.04 409.97,-26.53 418.55,-32.75 420.56,-26.04"/>
</g>
<!-- Node14 -->
<g id="node14" class="node">
<title>Node14</title>
<g id="a_node14"><a xlink:href="traits_8h.html" target="_top" xlink:title=" ">
<polygon fill="white" stroke="black" points="694.33,-75.5 694.33,-95.5 782.01,-95.5 782.01,-75.5 694.33,-75.5"/>
<text text-anchor="middle" x="738.17" y="-82.5" font-family="Helvetica,sans-Serif" font-size="10.00">haldls/vx/traits.h</text>
</a>
</g>
</g>
<!-- Node3&#45;&gt;Node14 -->
<g id="edge16" class="edge">
<title>Node3&#45;&gt;Node14</title>
<path fill="none" stroke="midnightblue" d="M552.33,-138.5C590.49,-127.82 654.21,-109.99 696.21,-98.24"/>
<polygon fill="midnightblue" stroke="midnightblue" points="697.18,-101.6 705.87,-95.54 695.3,-94.86 697.18,-101.6"/>
</g>
<!-- Node9&#45;&gt;Node5 -->
<g id="edge13" class="edge">
<title>Node9&#45;&gt;Node5</title>
<path fill="none" stroke="midnightblue" d="M159.27,-75.47C132.71,-65.66 89.55,-49.21 53.17,-33 51.79,-32.39 50.39,-31.75 48.98,-31.09"/>
<polygon fill="midnightblue" stroke="midnightblue" points="50.27,-27.83 39.74,-26.63 47.22,-34.13 50.27,-27.83"/>
</g>
<!-- Node10 -->
<g id="node10" class="node">
<title>Node10</title>
<g id="a_node10"><a xlink:title=" ">
<polygon fill="white" stroke="#bfbfbf" points="241.54,-6.5 241.54,-26.5 324.79,-26.5 324.79,-6.5 241.54,-6.5"/>
<text text-anchor="middle" x="283.17" y="-13.5" font-family="Helvetica,sans-Serif" font-size="10.00">hate/type_list.h</text>
</a>
</g>
</g>
<!-- Node9&#45;&gt;Node10 -->
<g id="edge10" class="edge">
<title>Node9&#45;&gt;Node10</title>
<path fill="none" stroke="midnightblue" d="M197.52,-75.46C213.9,-64.38 241.91,-45.42 261.42,-32.22"/>
<polygon fill="midnightblue" stroke="midnightblue" points="263.39,-35.11 269.71,-26.61 259.47,-29.31 263.39,-35.11"/>
</g>
<!-- Node9&#45;&gt;Node11 -->
<g id="edge11" class="edge">
<title>Node9&#45;&gt;Node11</title>
<path fill="none" stroke="midnightblue" d="M211.01,-75.46C245.94,-63.7 307.17,-43.09 346.4,-29.88"/>
<polygon fill="midnightblue" stroke="midnightblue" points="347.76,-33.11 356.12,-26.61 345.53,-26.48 347.76,-33.11"/>
</g>
<!-- Node12 -->
<g id="node12" class="node">
<title>Node12</title>
<g id="a_node12"><a xlink:title=" ">
<polygon fill="white" stroke="#bfbfbf" points="178.72,-6.5 178.72,-26.5 223.62,-26.5 223.62,-6.5 178.72,-6.5"/>
<text text-anchor="middle" x="201.17" y="-13.5" font-family="Helvetica,sans-Serif" font-size="10.00">cstdint</text>
</a>
</g>
</g>
<!-- Node9&#45;&gt;Node12 -->
<g id="edge12" class="edge">
<title>Node9&#45;&gt;Node12</title>
<path fill="none" stroke="midnightblue" d="M186.46,-75.46C188.98,-65.53 193.1,-49.28 196.34,-36.52"/>
<polygon fill="midnightblue" stroke="midnightblue" points="199.74,-37.38 198.8,-26.82 192.95,-35.65 199.74,-37.38"/>
</g>
<!-- Node13 -->
<g id="node13" class="node">
<title>Node13</title>
<g id="a_node13"><a xlink:title=" ">
<polygon fill="white" stroke="#bfbfbf" points="62.05,-6.5 62.05,-26.5 160.29,-26.5 160.29,-6.5 62.05,-6.5"/>
<text text-anchor="middle" x="111.17" y="-13.5" font-family="Helvetica,sans-Serif" font-size="10.00">cereal/macros.hpp</text>
</a>
</g>
</g>
<!-- Node9&#45;&gt;Node13 -->
<g id="edge14" class="edge">
<title>Node9&#45;&gt;Node13</title>
<path fill="none" stroke="midnightblue" d="M174.32,-75.46C162.74,-64.83 143.29,-46.98 129.02,-33.89"/>
<polygon fill="midnightblue" stroke="midnightblue" points="131.06,-31.01 121.33,-26.82 126.33,-36.16 131.06,-31.01"/>
</g>
<!-- Node14&#45;&gt;Node2 -->
<g id="edge19" class="edge">
<title>Node14&#45;&gt;Node2</title>
<path fill="none" stroke="midnightblue" d="M782.07,-79.47C849.64,-71.43 983.07,-54.41 1095.17,-33 1101.52,-31.79 1108.2,-30.37 1114.75,-28.89"/>
<polygon fill="midnightblue" stroke="midnightblue" points="1115.92,-32.21 1124.87,-26.53 1114.34,-25.39 1115.92,-32.21"/>
</g>
<!-- Node14&#45;&gt;Node10 -->
<g id="edge20" class="edge">
<title>Node14&#45;&gt;Node10</title>
<path fill="none" stroke="midnightblue" d="M694.27,-76.53C679.35,-73.95 662.56,-71.19 647.17,-69 508.1,-49.2 470.63,-61.92 333.17,-33 328.47,-32.01 323.58,-30.77 318.78,-29.42"/>
<polygon fill="midnightblue" stroke="midnightblue" points="319.72,-26.05 309.13,-26.56 317.72,-32.76 319.72,-26.05"/>
</g>
<!-- Node14&#45;&gt;Node11 -->
<g id="edge21" class="edge">
<title>Node14&#45;&gt;Node11</title>
<path fill="none" stroke="midnightblue" d="M707.02,-75.46C698.37,-73.15 688.95,-70.81 680.17,-69 571.51,-46.64 541.37,-57.5 433.17,-33 428.71,-31.99 424.07,-30.78 419.5,-29.48"/>
<polygon fill="midnightblue" stroke="midnightblue" points="420.27,-26.06 409.69,-26.56 418.27,-32.77 420.27,-26.06"/>
</g>
<!-- Node15 -->
<g id="node15" class="node">
<title>Node15</title>
<g id="a_node15"><a xlink:title=" ">
<polygon fill="white" stroke="#bfbfbf" points="680.11,-6.5 680.11,-26.5 762.23,-26.5 762.23,-6.5 680.11,-6.5"/>
<text text-anchor="middle" x="721.17" y="-13.5" font-family="Helvetica,sans-Serif" font-size="10.00">fisch/vx/traits.h</text>
</a>
</g>
</g>
<!-- Node14&#45;&gt;Node15 -->
<g id="edge17" class="edge">
<title>Node14&#45;&gt;Node15</title>
<path fill="none" stroke="midnightblue" d="M735.87,-75.46C733.35,-65.53 729.23,-49.28 725.99,-36.52"/>
<polygon fill="midnightblue" stroke="midnightblue" points="729.38,-35.65 723.53,-26.82 722.6,-37.38 729.38,-35.65"/>
</g>
<!-- Node16 -->
<g id="node16" class="node">
<title>Node16</title>
<g id="a_node16"><a xlink:title=" ">
<polygon fill="white" stroke="#bfbfbf" points="779.94,-0.5 779.94,-32.5 890.4,-32.5 890.4,-0.5 779.94,-0.5"/>
<text text-anchor="start" x="787.94" y="-19.5" font-family="Helvetica,sans-Serif" font-size="10.00">fisch/vx/word_access</text>
<text text-anchor="middle" x="835.17" y="-7.5" font-family="Helvetica,sans-Serif" font-size="10.00">_type.h</text>
</a>
</g>
</g>
<!-- Node14&#45;&gt;Node16 -->
<g id="edge18" class="edge">
<title>Node14&#45;&gt;Node16</title>
<path fill="none" stroke="midnightblue" d="M751.25,-75.46C764.94,-66.01 786.9,-50.84 804.92,-38.39"/>
<polygon fill="midnightblue" stroke="midnightblue" points="807.16,-41.1 813.4,-32.53 803.19,-35.34 807.16,-41.1"/>
</g>
<!-- Node17 -->
<g id="node17" class="node">
<title>Node17</title>
<g id="a_node17"><a xlink:title=" ">
<polygon fill="white" stroke="#bfbfbf" points="908.11,-6.5 908.11,-26.5 970.23,-26.5 970.23,-6.5 908.11,-6.5"/>
<text text-anchor="middle" x="939.17" y="-13.5" font-family="Helvetica,sans-Serif" font-size="10.00">type_traits</text>
</a>
</g>
</g>
<!-- Node14&#45;&gt;Node17 -->
<g id="edge22" class="edge">
<title>Node14&#45;&gt;Node17</title>
<path fill="none" stroke="midnightblue" d="M768.32,-75.45C800.8,-65.56 853.93,-48.98 899.17,-33 901.71,-32.1 904.34,-31.15 906.97,-30.17"/>
<polygon fill="midnightblue" stroke="midnightblue" points="908.3,-33.41 916.41,-26.59 905.82,-26.86 908.3,-33.41"/>
</g>
<!-- Node18 -->
<g id="node18" class="node">
<title>Node18</title>
<g id="a_node18"><a xlink:title=" ">
<polygon fill="white" stroke="#bfbfbf" points="987.77,-0.5 987.77,-32.5 1086.57,-32.5 1086.57,-0.5 987.77,-0.5"/>
<text text-anchor="start" x="995.77" y="-19.5" font-family="Helvetica,sans-Serif" font-size="10.00">boost/utility/enable</text>
<text text-anchor="middle" x="1037.17" y="-7.5" font-family="Helvetica,sans-Serif" font-size="10.00">_if.hpp</text>
</a>
</g>
</g>
<!-- Node14&#45;&gt;Node18 -->
<g id="edge23" class="edge">
<title>Node14&#45;&gt;Node18</title>
<path fill="none" stroke="midnightblue" d="M782.3,-75.77C828.66,-66.44 903.92,-50.86 977.62,-33.31"/>
<polygon fill="midnightblue" stroke="midnightblue" points="978.63,-36.67 987.54,-30.94 977,-29.87 978.63,-36.67"/>
</g>
<!-- Node19 -->
<g id="node19" class="node">
<title>Node19</title>
<g id="a_node19"><a xlink:title=" ">
<polygon fill="white" stroke="#bfbfbf" points="441.82,-6.5 441.82,-26.5 534.51,-26.5 534.51,-6.5 441.82,-6.5"/>
<text text-anchor="middle" x="488.17" y="-13.5" font-family="Helvetica,sans-Serif" font-size="10.00">boost/variant.hpp</text>
</a>
</g>
</g>
<!-- Node14&#45;&gt;Node19 -->
<g id="edge24" class="edge">
<title>Node14&#45;&gt;Node19</title>
<path fill="none" stroke="midnightblue" d="M704.44,-75.46C696.48,-73.33 688.03,-71.08 680.17,-69 619.31,-52.87 603.91,-49.54 543.17,-33 538.8,-31.81 534.23,-30.55 529.69,-29.29"/>
<polygon fill="midnightblue" stroke="midnightblue" points="530.42,-25.85 519.84,-26.53 528.53,-32.6 530.42,-25.85"/>
</g>
<!-- Node20 -->
<g id="node20" class="node">
<title>Node20</title>
<g id="a_node20"><a xlink:title=" ">
<polygon fill="white" stroke="#bfbfbf" points="552.21,-6.5 552.21,-26.5 662.12,-26.5 662.12,-6.5 552.21,-6.5"/>
<text text-anchor="middle" x="607.17" y="-13.5" font-family="Helvetica,sans-Serif" font-size="10.00">fisch/vx/container.def</text>
</a>
</g>
</g>
<!-- Node14&#45;&gt;Node20 -->
<g id="edge25" class="edge">
<title>Node14&#45;&gt;Node20</title>
<path fill="none" stroke="midnightblue" d="M720.5,-75.46C698.23,-64.08 659.75,-44.39 633.88,-31.16"/>
<polygon fill="midnightblue" stroke="midnightblue" points="635.47,-28.04 624.97,-26.61 632.28,-34.28 635.47,-28.04"/>
</g>
</g>
</svg>
        <g id="navigator" transform="translate(0 0)" fill="#404254">
                <rect fill="#f2f5e9" fill-opacity="0.5" stroke="#606060" stroke-width=".5" x="0" y="0" width="60" height="60"/>
                <use id="zoomplus" xlink:href="#zoomPlus" x="17" y="9" onmousedown="handleZoom(evt,'in')"/>
                <use id="zoomminus" xlink:href="#zoomMin" x="42" y="9" onmousedown="handleZoom(evt,'out')"/>
                <use id="reset" xlink:href="#resetDef" x="30" y="36" onmousedown="handleReset()"/>
                <g id="arrowUp" xlink:href="#dirArrow" transform="translate(30 24)" onmousedown="handlePan(0,-1)">
                  <use xlink:href="#rim" fill="#404040">
                        <set attributeName="fill" to="#808080" begin="arrowUp.mouseover" end="arrowUp.mouseout"/>
                  </use>
                  <path fill="none" stroke="white" stroke-width="1.5" d="M0,-3.0v7 M-2.5,-0.5L0,-3.0L2.5,-0.5"/>
                </g>
                <g id="arrowRight" xlink:href="#dirArrow" transform="rotate(90) translate(36 -43)" onmousedown="handlePan(1,0)">
                  <use xlink:href="#rim" fill="#404040">
                        <set attributeName="fill" to="#808080" begin="arrowRight.mouseover" end="arrowRight.mouseout"/>
                  </use>
                  <path fill="none" stroke="white" stroke-width="1.5" d="M0,-3.0v7 M-2.5,-0.5L0,-3.0L2.5,-0.5"/>
                </g>
                <g id="arrowDown" xlink:href="#dirArrow" transform="rotate(180) translate(-30 -48)" onmousedown="handlePan(0,1)">
                  <use xlink:href="#rim" fill="#404040">
                        <set attributeName="fill" to="#808080" begin="arrowDown.mouseover" end="arrowDown.mouseout"/>
                  </use>
                  <path fill="none" stroke="white" stroke-width="1.5" d="M0,-3.0v7 M-2.5,-0.5L0,-3.0L2.5,-0.5"/>
                </g>
                <g id="arrowLeft" xlink:href="#dirArrow" transform="rotate(270) translate(-36 17)" onmousedown="handlePan(-1,0)">
                  <use xlink:href="#rim" fill="#404040">
                        <set attributeName="fill" to="#808080" begin="arrowLeft.mouseover" end="arrowLeft.mouseout"/>
                  </use>
                  <path fill="none" stroke="white" stroke-width="1.5" d="M0,-3.0v7 M-2.5,-0.5L0,-3.0L2.5,-0.5"/>
                </g>
        </g>
        <svg viewBox="0 0 15 15" width="100%" height="30px" preserveAspectRatio="xMaxYMin meet">
         <g id="arrow_out" transform="scale(0.3 0.3)">
          <a xlink:href="v3_2perftest_8h__incl_org.svg" target="_base">
           <rect id="button" ry="5" rx="5" y="6" x="6" height="38" width="38"
                fill="#f2f5e9" fill-opacity="0.5" stroke="#606060" stroke-width="1.0"/>
           <path id="arrow"
             d="M 11.500037,31.436501 C 11.940474,20.09759 22.043105,11.32322 32.158766,21.979434 L 37.068811,17.246167 C 37.068811,17.246167 37.088388,32 37.088388,32 L 22.160133,31.978069 C 22.160133,31.978069 26.997745,27.140456 26.997745,27.140456 C 18.528582,18.264221 13.291696,25.230495 11.500037,31.436501 z"
             style="fill:#404040;"/>
          </a>
         </g>
        </svg>
</svg>
