<?xml version="1.0" encoding="UTF-8" standalone="no"?>
<!DOCTYPE svg PUBLIC "-//W3C//DTD SVG 1.1//EN"
 "http://www.w3.org/Graphics/SVG/1.1/DTD/svg11.dtd">
<!-- Generated by graphviz version 2.46.0 (0)
 -->
<!-- Title: /jenkins/jenlib_workspaces_f9/bld_nightly&#45;haldls.YmxkX25pZ2h0bHktaGFsZGxzIzEzNzk.x/haldls/include/haldls/vx/v3/arq.h Pages: 1 -->
<!--zoomable 260 -->
<svg id="main" version="1.1" xmlns="http://www.w3.org/2000/svg" xmlns:xlink="http://www.w3.org/1999/xlink" xml:space="preserve" onload="init(evt)">
<style type="text/css"><![CDATA[
.edge:hover path { stroke: red; }
.edge:hover polygon { stroke: red; fill: red; }
]]></style>
<script type="text/javascript"><![CDATA[
var edges = document.getElementsByTagName('g');
if (edges && edges.length) {
  for (var i=0;i<edges.length;i++) {
    if (edges[i].id.substr(0,4)=='edge') {
      edges[i].setAttribute('class','edge');
    }
  }
}
]]></script>
        <defs>
                <circle id="rim" cx="0" cy="0" r="7"/>
                <circle id="rim2" cx="0" cy="0" r="3.5"/>
                <g id="zoomPlus">
                        <use xlink:href="#rim" fill="#404040">
                                <set attributeName="fill" to="#808080" begin="zoomplus.mouseover" end="zoomplus.mouseout"/>
                        </use>
                        <path d="M-4,0h8M0,-4v8" fill="none" stroke="white" stroke-width="1.5" pointer-events="none"/>
                </g>
                <g id="zoomMin">
                        <use xlink:href="#rim" fill="#404040">
                                <set attributeName="fill" to="#808080" begin="zoomminus.mouseover" end="zoomminus.mouseout"/>
                        </use>
                        <path d="M-4,0h8" fill="none" stroke="white" stroke-width="1.5" pointer-events="none"/>
                </g>
                <g id="dirArrow">
                        <path fill="none" stroke="white" stroke-width="1.5" d="M0,-3.0v7 M-2.5,-0.5L0,-3.0L2.5,-0.5"/>
                </g>
               <g id="resetDef">
                       <use xlink:href="#rim2" fill="#404040">
                               <set attributeName="fill" to="#808080" begin="reset.mouseover" end="reset.mouseout"/>
                       </use>
               </g>
        </defs>

<script type="text/javascript">
var viewWidth = 1308;
var viewHeight = 260;
var sectionId = 'dynsection-0';
</script>
<script xlink:href="svgpan.js"/>
<svg id="graph" class="graph">
<g id="viewport">
<title>/jenkins/jenlib_workspaces_f9/bld_nightly&#45;haldls.YmxkX25pZ2h0bHktaGFsZGxzIzEzNzk.x/haldls/include/haldls/vx/v3/arq.h</title>
<polygon fill="white" stroke="transparent" points="-4,4 -4,-256 1303.57,-256 1303.57,4 -4,4"/>
<!-- Node1 -->
<g id="node1" class="node">
<title>Node1</title>
<g id="a_node1"><a xlink:title=" ">
<polygon fill="#bfbfbf" stroke="black" points="483.99,-195.5 483.99,-251.5 665,-251.5 665,-195.5 483.99,-195.5"/>
<text text-anchor="start" x="491.99" y="-238.5" font-family="Helvetica,sans-Serif" font-size="10.00">/jenkins/jenlib_workspaces</text>
<text text-anchor="start" x="491.99" y="-226.5" font-family="Helvetica,sans-Serif" font-size="10.00">_f9/bld_nightly&#45;haldls.YmxkX25p</text>
<text text-anchor="start" x="491.99" y="-214.5" font-family="Helvetica,sans-Serif" font-size="10.00">Z2h0bHktaGFsZGxzIzEzNzk.x/haldls</text>
<text text-anchor="middle" x="574.49" y="-202.5" font-family="Helvetica,sans-Serif" font-size="10.00">/include/haldls/vx/v3/arq.h</text>
</a>
</g>
</g>
<!-- Node2 -->
<g id="node2" class="node">
<title>Node2</title>
<g id="a_node2"><a xlink:href="arq_8h.html" target="_top" xlink:title=" ">
<polygon fill="white" stroke="black" points="356.27,-138.5 356.27,-158.5 436.72,-158.5 436.72,-138.5 356.27,-138.5"/>
<text text-anchor="middle" x="396.49" y="-145.5" font-family="Helvetica,sans-Serif" font-size="10.00">haldls/vx/arq.h</text>
</a>
</g>
</g>
<!-- Node1&#45;&gt;Node2 -->
<g id="edge1" class="edge">
<title>Node1&#45;&gt;Node2</title>
<path fill="none" stroke="midnightblue" d="M508.47,-195.42C480.89,-184.11 450.15,-171.5 427.87,-162.37"/>
<polygon fill="midnightblue" stroke="midnightblue" points="429.15,-159.11 418.57,-158.55 426.49,-165.58 429.15,-159.11"/>
</g>
<!-- Node12 -->
<g id="node12" class="node">
<title>Node12</title>
<g id="a_node12"><a xlink:href="genpybind_8h.html" target="_top" xlink:title=" ">
<polygon fill="white" stroke="black" points="1169.42,-6.5 1169.42,-26.5 1281.57,-26.5 1281.57,-6.5 1169.42,-6.5"/>
<text text-anchor="middle" x="1225.49" y="-13.5" font-family="Helvetica,sans-Serif" font-size="10.00">haldls/vx/genpybind.h</text>
</a>
</g>
</g>
<!-- Node1&#45;&gt;Node12 -->
<g id="edge25" class="edge">
<title>Node1&#45;&gt;Node12</title>
<path fill="none" stroke="midnightblue" d="M660.27,-195.49C803.28,-150.46 1084.83,-61.8 1187.16,-29.57"/>
<polygon fill="midnightblue" stroke="midnightblue" points="1188.29,-32.89 1196.78,-26.54 1186.19,-26.21 1188.29,-32.89"/>
</g>
<!-- Node3 -->
<g id="node3" class="node">
<title>Node3</title>
<g id="a_node3"><a xlink:title=" ">
<polygon fill="white" stroke="#bfbfbf" points="15.11,-75.5 15.11,-95.5 53.88,-95.5 53.88,-75.5 15.11,-75.5"/>
<text text-anchor="middle" x="34.49" y="-82.5" font-family="Helvetica,sans-Serif" font-size="10.00">array</text>
</a>
</g>
</g>
<!-- Node2&#45;&gt;Node3 -->
<g id="edge2" class="edge">
<title>Node2&#45;&gt;Node3</title>
<path fill="none" stroke="midnightblue" d="M356.09,-146.77C292.18,-144.56 164.55,-135.88 62.49,-102 60.86,-101.46 59.22,-100.82 57.58,-100.12"/>
<polygon fill="midnightblue" stroke="midnightblue" points="59.07,-96.95 48.56,-95.61 55.94,-103.21 59.07,-96.95"/>
</g>
<!-- Node4 -->
<g id="node4" class="node">
<title>Node4</title>
<g id="a_node4"><a xlink:title=" ">
<polygon fill="white" stroke="#bfbfbf" points="40.33,-6.5 40.33,-26.5 84.66,-26.5 84.66,-6.5 40.33,-6.5"/>
<text text-anchor="middle" x="62.49" y="-13.5" font-family="Helvetica,sans-Serif" font-size="10.00">iosfwd</text>
</a>
</g>
</g>
<!-- Node2&#45;&gt;Node4 -->
<g id="edge3" class="edge">
<title>Node2&#45;&gt;Node4</title>
<path fill="none" stroke="midnightblue" d="M356.23,-145.78C261.25,-141.31 29.5,-127.84 6.49,-102 -13.2,-79.87 17.22,-50.31 40.36,-32.66"/>
<polygon fill="midnightblue" stroke="midnightblue" points="42.45,-35.46 48.45,-26.73 38.32,-29.82 42.45,-35.46"/>
</g>
<!-- Node5 -->
<g id="node5" class="node">
<title>Node5</title>
<g id="a_node5"><a xlink:title=" ">
<polygon fill="white" stroke="#bfbfbf" points="71.59,-75.5 71.59,-95.5 205.39,-95.5 205.39,-75.5 71.59,-75.5"/>
<text text-anchor="middle" x="138.49" y="-82.5" font-family="Helvetica,sans-Serif" font-size="10.00">halco/common/geometry.h</text>
</a>
</g>
</g>
<!-- Node2&#45;&gt;Node5 -->
<g id="edge4" class="edge">
<title>Node2&#45;&gt;Node5</title>
<path fill="none" stroke="midnightblue" d="M358.43,-138.5C312.79,-127.71 236.26,-109.62 186.59,-97.87"/>
<polygon fill="midnightblue" stroke="midnightblue" points="187.26,-94.43 176.72,-95.54 185.65,-101.24 187.26,-94.43"/>
</g>
<!-- Node6 -->
<g id="node6" class="node">
<title>Node6</title>
<g id="a_node6"><a xlink:title=" ">
<polygon fill="white" stroke="#bfbfbf" points="222.99,-69.5 222.99,-101.5 324,-101.5 324,-69.5 222.99,-69.5"/>
<text text-anchor="start" x="230.99" y="-88.5" font-family="Helvetica,sans-Serif" font-size="10.00">halco/hicann&#45;dls/vx</text>
<text text-anchor="middle" x="273.49" y="-76.5" font-family="Helvetica,sans-Serif" font-size="10.00">/highspeed_link.h</text>
</a>
</g>
</g>
<!-- Node2&#45;&gt;Node6 -->
<g id="edge5" class="edge">
<title>Node2&#45;&gt;Node6</title>
<path fill="none" stroke="midnightblue" d="M378.35,-138.5C361.27,-130.03 335.13,-117.07 313.22,-106.2"/>
<polygon fill="midnightblue" stroke="midnightblue" points="314.64,-103 304.13,-101.69 311.53,-109.27 314.64,-103"/>
</g>
<!-- Node7 -->
<g id="node7" class="node">
<title>Node7</title>
<g id="a_node7"><a xlink:href="cerealization_8h.html" target="_top" xlink:title=" ">
<polygon fill="white" stroke="black" points="341.82,-75.5 341.82,-95.5 451.17,-95.5 451.17,-75.5 341.82,-75.5"/>
<text text-anchor="middle" x="396.49" y="-82.5" font-family="Helvetica,sans-Serif" font-size="10.00">haldls/cerealization.h</text>
</a>
</g>
</g>
<!-- Node2&#45;&gt;Node7 -->
<g id="edge6" class="edge">
<title>Node2&#45;&gt;Node7</title>
<path fill="none" stroke="midnightblue" d="M396.49,-138.5C396.49,-129.94 396.49,-116.78 396.49,-105.85"/>
<polygon fill="midnightblue" stroke="midnightblue" points="399.99,-105.54 396.49,-95.54 392.99,-105.54 399.99,-105.54"/>
</g>
<!-- Node9 -->
<g id="node9" class="node">
<title>Node9</title>
<g id="a_node9"><a xlink:title=" ">
<polygon fill="white" stroke="#bfbfbf" points="305.99,-6.5 305.99,-26.5 387,-26.5 387,-6.5 305.99,-6.5"/>
<text text-anchor="middle" x="346.49" y="-13.5" font-family="Helvetica,sans-Serif" font-size="10.00">hate/visibility.h</text>
</a>
</g>
</g>
<!-- Node2&#45;&gt;Node9 -->
<g id="edge24" class="edge">
<title>Node2&#45;&gt;Node9</title>
<path fill="none" stroke="midnightblue" d="M418.62,-138.39C433.42,-130.98 451.74,-118.96 460.49,-102 467.22,-88.97 468.45,-81.32 460.49,-69 451.71,-55.39 414.47,-40.16 384.91,-29.82"/>
<polygon fill="midnightblue" stroke="midnightblue" points="385.83,-26.43 375.23,-26.5 383.56,-33.05 385.83,-26.43"/>
</g>
<!-- Node2&#45;&gt;Node12 -->
<g id="edge12" class="edge">
<title>Node2&#45;&gt;Node12</title>
<path fill="none" stroke="midnightblue" d="M436.92,-142.91C551.19,-129.61 886.07,-88.46 1160.49,-33 1166.69,-31.75 1173.19,-30.33 1179.59,-28.87"/>
<polygon fill="midnightblue" stroke="midnightblue" points="1180.55,-32.24 1189.49,-26.56 1178.96,-25.42 1180.55,-32.24"/>
</g>
<!-- Node13 -->
<g id="node13" class="node">
<title>Node13</title>
<g id="a_node13"><a xlink:href="traits_8h.html" target="_top" xlink:title=" ">
<polygon fill="white" stroke="black" points="648.66,-75.5 648.66,-95.5 736.33,-95.5 736.33,-75.5 648.66,-75.5"/>
<text text-anchor="middle" x="692.49" y="-82.5" font-family="Helvetica,sans-Serif" font-size="10.00">haldls/vx/traits.h</text>
</a>
</g>
</g>
<!-- Node2&#45;&gt;Node13 -->
<g id="edge14" class="edge">
<title>Node2&#45;&gt;Node13</title>
<path fill="none" stroke="midnightblue" d="M437.03,-139.15C489.31,-128.37 580.4,-109.6 638.5,-97.63"/>
<polygon fill="midnightblue" stroke="midnightblue" points="639.51,-100.99 648.6,-95.55 638.1,-94.14 639.51,-100.99"/>
</g>
<!-- Node7&#45;&gt;Node4 -->
<g id="edge10" class="edge">
<title>Node7&#45;&gt;Node4</title>
<path fill="none" stroke="midnightblue" d="M361.94,-75.5C352.73,-73.23 342.76,-70.91 333.49,-69 238.17,-49.36 212.47,-54.23 117.49,-33 110.04,-31.33 102.09,-29.27 94.63,-27.19"/>
<polygon fill="midnightblue" stroke="midnightblue" points="95.41,-23.78 84.83,-24.39 93.49,-30.51 95.41,-23.78"/>
</g>
<!-- Node8 -->
<g id="node8" class="node">
<title>Node8</title>
<g id="a_node8"><a xlink:title=" ">
<polygon fill="white" stroke="#bfbfbf" points="404.87,-6.5 404.87,-26.5 488.12,-26.5 488.12,-6.5 404.87,-6.5"/>
<text text-anchor="middle" x="446.49" y="-13.5" font-family="Helvetica,sans-Serif" font-size="10.00">hate/type_list.h</text>
</a>
</g>
</g>
<!-- Node7&#45;&gt;Node8 -->
<g id="edge7" class="edge">
<title>Node7&#45;&gt;Node8</title>
<path fill="none" stroke="midnightblue" d="M403.24,-75.46C410.95,-65.13 423.75,-47.97 433.43,-35"/>
<polygon fill="midnightblue" stroke="midnightblue" points="436.36,-36.93 439.54,-26.82 430.75,-32.74 436.36,-36.93"/>
</g>
<!-- Node7&#45;&gt;Node9 -->
<g id="edge8" class="edge">
<title>Node7&#45;&gt;Node9</title>
<path fill="none" stroke="midnightblue" d="M389.75,-75.46C382.04,-65.13 369.24,-47.97 359.55,-35"/>
<polygon fill="midnightblue" stroke="midnightblue" points="362.24,-32.74 353.45,-26.82 356.63,-36.93 362.24,-32.74"/>
</g>
<!-- Node10 -->
<g id="node10" class="node">
<title>Node10</title>
<g id="a_node10"><a xlink:title=" ">
<polygon fill="white" stroke="#bfbfbf" points="243.05,-6.5 243.05,-26.5 287.94,-26.5 287.94,-6.5 243.05,-6.5"/>
<text text-anchor="middle" x="265.49" y="-13.5" font-family="Helvetica,sans-Serif" font-size="10.00">cstdint</text>
</a>
</g>
</g>
<!-- Node7&#45;&gt;Node10 -->
<g id="edge9" class="edge">
<title>Node7&#45;&gt;Node10</title>
<path fill="none" stroke="midnightblue" d="M378.83,-75.46C356.56,-64.08 318.07,-44.39 292.21,-31.16"/>
<polygon fill="midnightblue" stroke="midnightblue" points="293.8,-28.04 283.3,-26.61 290.61,-34.28 293.8,-28.04"/>
</g>
<!-- Node11 -->
<g id="node11" class="node">
<title>Node11</title>
<g id="a_node11"><a xlink:title=" ">
<polygon fill="white" stroke="#bfbfbf" points="126.38,-6.5 126.38,-26.5 224.61,-26.5 224.61,-6.5 126.38,-6.5"/>
<text text-anchor="middle" x="175.49" y="-13.5" font-family="Helvetica,sans-Serif" font-size="10.00">cereal/macros.hpp</text>
</a>
</g>
</g>
<!-- Node7&#45;&gt;Node11 -->
<g id="edge11" class="edge">
<title>Node7&#45;&gt;Node11</title>
<path fill="none" stroke="midnightblue" d="M366.69,-75.46C327.56,-63.6 258.74,-42.74 215.22,-29.54"/>
<polygon fill="midnightblue" stroke="midnightblue" points="216.12,-26.16 205.53,-26.61 214.09,-32.86 216.12,-26.16"/>
</g>
<!-- Node12&#45;&gt;Node12 -->
<g id="edge13" class="edge">
<title>Node12&#45;&gt;Node12</title>
<path fill="none" stroke="midnightblue" d="M1249.39,-26.54C1273.22,-32.26 1299.57,-28.92 1299.57,-16.5 1299.57,-5.78 1279.93,-1.82 1259.23,-4.62"/>
<polygon fill="midnightblue" stroke="midnightblue" points="1258.58,-1.18 1249.39,-6.46 1259.86,-8.06 1258.58,-1.18"/>
</g>
<!-- Node13&#45;&gt;Node8 -->
<g id="edge18" class="edge">
<title>Node13&#45;&gt;Node8</title>
<path fill="none" stroke="midnightblue" d="M656.8,-75.49C617.62,-65.51 552.9,-48.73 497.49,-33 493.49,-31.86 489.32,-30.65 485.16,-29.41"/>
<polygon fill="midnightblue" stroke="midnightblue" points="486.15,-26.06 475.57,-26.54 484.14,-32.76 486.15,-26.06"/>
</g>
<!-- Node13&#45;&gt;Node9 -->
<g id="edge19" class="edge">
<title>Node13&#45;&gt;Node9</title>
<path fill="none" stroke="midnightblue" d="M648.58,-78.77C590.29,-70.74 484.34,-54.65 395.49,-33 391.3,-31.98 386.94,-30.79 382.63,-29.53"/>
<polygon fill="midnightblue" stroke="midnightblue" points="383.34,-26.09 372.76,-26.52 381.3,-32.79 383.34,-26.09"/>
</g>
<!-- Node13&#45;&gt;Node12 -->
<g id="edge17" class="edge">
<title>Node13&#45;&gt;Node12</title>
<path fill="none" stroke="midnightblue" d="M736.63,-81.49C819.93,-75.39 1005.86,-59.84 1160.49,-33 1167.25,-31.83 1174.36,-30.37 1181.29,-28.82"/>
<polygon fill="midnightblue" stroke="midnightblue" points="1182.3,-32.18 1191.25,-26.51 1180.72,-25.36 1182.3,-32.18"/>
</g>
<!-- Node14 -->
<g id="node14" class="node">
<title>Node14</title>
<g id="a_node14"><a xlink:title=" ">
<polygon fill="white" stroke="#bfbfbf" points="941.44,-6.5 941.44,-26.5 1023.55,-26.5 1023.55,-6.5 941.44,-6.5"/>
<text text-anchor="middle" x="982.49" y="-13.5" font-family="Helvetica,sans-Serif" font-size="10.00">fisch/vx/traits.h</text>
</a>
</g>
</g>
<!-- Node13&#45;&gt;Node14 -->
<g id="edge15" class="edge">
<title>Node13&#45;&gt;Node14</title>
<path fill="none" stroke="midnightblue" d="M736.57,-76.27C784.92,-66.95 864.68,-50.75 932.49,-33 936.6,-31.93 940.87,-30.73 945.11,-29.49"/>
<polygon fill="midnightblue" stroke="midnightblue" points="946.29,-32.79 954.85,-26.55 944.27,-26.09 946.29,-32.79"/>
</g>
<!-- Node15 -->
<g id="node15" class="node">
<title>Node15</title>
<g id="a_node15"><a xlink:title=" ">
<polygon fill="white" stroke="#bfbfbf" points="1041.27,-0.5 1041.27,-32.5 1151.72,-32.5 1151.72,-0.5 1041.27,-0.5"/>
<text text-anchor="start" x="1049.27" y="-19.5" font-family="Helvetica,sans-Serif" font-size="10.00">fisch/vx/word_access</text>
<text text-anchor="middle" x="1096.49" y="-7.5" font-family="Helvetica,sans-Serif" font-size="10.00">_type.h</text>
</a>
</g>
</g>
<!-- Node13&#45;&gt;Node15 -->
<g id="edge16" class="edge">
<title>Node13&#45;&gt;Node15</title>
<path fill="none" stroke="midnightblue" d="M736.45,-79.09C799.54,-71.05 919.6,-54.74 1031,-33.2"/>
<polygon fill="midnightblue" stroke="midnightblue" points="1031.91,-36.59 1041.06,-31.24 1030.57,-29.72 1031.91,-36.59"/>
</g>
<!-- Node16 -->
<g id="node16" class="node">
<title>Node16</title>
<g id="a_node16"><a xlink:title=" ">
<polygon fill="white" stroke="#bfbfbf" points="506.43,-6.5 506.43,-26.5 568.56,-26.5 568.56,-6.5 506.43,-6.5"/>
<text text-anchor="middle" x="537.49" y="-13.5" font-family="Helvetica,sans-Serif" font-size="10.00">type_traits</text>
</a>
</g>
</g>
<!-- Node13&#45;&gt;Node16 -->
<g id="edge20" class="edge">
<title>Node13&#45;&gt;Node16</title>
<path fill="none" stroke="midnightblue" d="M671.59,-75.46C644.9,-63.93 598.51,-43.87 567.9,-30.64"/>
<polygon fill="midnightblue" stroke="midnightblue" points="569.13,-27.36 558.56,-26.61 566.35,-33.79 569.13,-27.36"/>
</g>
<!-- Node17 -->
<g id="node17" class="node">
<title>Node17</title>
<g id="a_node17"><a xlink:title=" ">
<polygon fill="white" stroke="#bfbfbf" points="586.09,-0.5 586.09,-32.5 684.9,-32.5 684.9,-0.5 586.09,-0.5"/>
<text text-anchor="start" x="594.09" y="-19.5" font-family="Helvetica,sans-Serif" font-size="10.00">boost/utility/enable</text>
<text text-anchor="middle" x="635.49" y="-7.5" font-family="Helvetica,sans-Serif" font-size="10.00">_if.hpp</text>
</a>
</g>
</g>
<!-- Node13&#45;&gt;Node17 -->
<g id="edge21" class="edge">
<title>Node13&#45;&gt;Node17</title>
<path fill="none" stroke="midnightblue" d="M684.81,-75.46C677.2,-66.53 665.25,-52.48 655.02,-40.45"/>
<polygon fill="midnightblue" stroke="midnightblue" points="657.43,-37.88 648.28,-32.53 652.1,-42.42 657.43,-37.88"/>
</g>
<!-- Node18 -->
<g id="node18" class="node">
<title>Node18</title>
<g id="a_node18"><a xlink:title=" ">
<polygon fill="white" stroke="#bfbfbf" points="703.15,-6.5 703.15,-26.5 795.84,-26.5 795.84,-6.5 703.15,-6.5"/>
<text text-anchor="middle" x="749.49" y="-13.5" font-family="Helvetica,sans-Serif" font-size="10.00">boost/variant.hpp</text>
</a>
</g>
</g>
<!-- Node13&#45;&gt;Node18 -->
<g id="edge22" class="edge">
<title>Node13&#45;&gt;Node18</title>
<path fill="none" stroke="midnightblue" d="M700.18,-75.46C709.06,-65.03 723.85,-47.64 734.92,-34.63"/>
<polygon fill="midnightblue" stroke="midnightblue" points="737.75,-36.71 741.56,-26.82 732.42,-32.17 737.75,-36.71"/>
</g>
<!-- Node19 -->
<g id="node19" class="node">
<title>Node19</title>
<g id="a_node19"><a xlink:title=" ">
<polygon fill="white" stroke="#bfbfbf" points="813.54,-6.5 813.54,-26.5 923.45,-26.5 923.45,-6.5 813.54,-6.5"/>
<text text-anchor="middle" x="868.49" y="-13.5" font-family="Helvetica,sans-Serif" font-size="10.00">fisch/vx/container.def</text>
</a>
</g>
</g>
<!-- Node13&#45;&gt;Node19 -->
<g id="edge23" class="edge">
<title>Node13&#45;&gt;Node19</title>
<path fill="none" stroke="midnightblue" d="M716.23,-75.46C746.8,-63.83 800.13,-43.52 834.87,-30.3"/>
<polygon fill="midnightblue" stroke="midnightblue" points="836.47,-33.44 844.57,-26.61 833.98,-26.89 836.47,-33.44"/>
</g>
</g>
</svg>
        <g id="navigator" transform="translate(0 0)" fill="#404254">
                <rect fill="#f2f5e9" fill-opacity="0.5" stroke="#606060" stroke-width=".5" x="0" y="0" width="60" height="60"/>
                <use id="zoomplus" xlink:href="#zoomPlus" x="17" y="9" onmousedown="handleZoom(evt,'in')"/>
                <use id="zoomminus" xlink:href="#zoomMin" x="42" y="9" onmousedown="handleZoom(evt,'out')"/>
                <use id="reset" xlink:href="#resetDef" x="30" y="36" onmousedown="handleReset()"/>
                <g id="arrowUp" xlink:href="#dirArrow" transform="translate(30 24)" onmousedown="handlePan(0,-1)">
                  <use xlink:href="#rim" fill="#404040">
                        <set attributeName="fill" to="#808080" begin="arrowUp.mouseover" end="arrowUp.mouseout"/>
                  </use>
                  <path fill="none" stroke="white" stroke-width="1.5" d="M0,-3.0v7 M-2.5,-0.5L0,-3.0L2.5,-0.5"/>
                </g>
                <g id="arrowRight" xlink:href="#dirArrow" transform="rotate(90) translate(36 -43)" onmousedown="handlePan(1,0)">
                  <use xlink:href="#rim" fill="#404040">
                        <set attributeName="fill" to="#808080" begin="arrowRight.mouseover" end="arrowRight.mouseout"/>
                  </use>
                  <path fill="none" stroke="white" stroke-width="1.5" d="M0,-3.0v7 M-2.5,-0.5L0,-3.0L2.5,-0.5"/>
                </g>
                <g id="arrowDown" xlink:href="#dirArrow" transform="rotate(180) translate(-30 -48)" onmousedown="handlePan(0,1)">
                  <use xlink:href="#rim" fill="#404040">
                        <set attributeName="fill" to="#808080" begin="arrowDown.mouseover" end="arrowDown.mouseout"/>
                  </use>
                  <path fill="none" stroke="white" stroke-width="1.5" d="M0,-3.0v7 M-2.5,-0.5L0,-3.0L2.5,-0.5"/>
                </g>
                <g id="arrowLeft" xlink:href="#dirArrow" transform="rotate(270) translate(-36 17)" onmousedown="handlePan(-1,0)">
                  <use xlink:href="#rim" fill="#404040">
                        <set attributeName="fill" to="#808080" begin="arrowLeft.mouseover" end="arrowLeft.mouseout"/>
                  </use>
                  <path fill="none" stroke="white" stroke-width="1.5" d="M0,-3.0v7 M-2.5,-0.5L0,-3.0L2.5,-0.5"/>
                </g>
        </g>
        <svg viewBox="0 0 15 15" width="100%" height="30px" preserveAspectRatio="xMaxYMin meet">
         <g id="arrow_out" transform="scale(0.3 0.3)">
          <a xlink:href="v3_2arq_8h__incl_org.svg" target="_base">
           <rect id="button" ry="5" rx="5" y="6" x="6" height="38" width="38"
                fill="#f2f5e9" fill-opacity="0.5" stroke="#606060" stroke-width="1.0"/>
           <path id="arrow"
             d="M 11.500037,31.436501 C 11.940474,20.09759 22.043105,11.32322 32.158766,21.979434 L 37.068811,17.246167 C 37.068811,17.246167 37.088388,32 37.088388,32 L 22.160133,31.978069 C 22.160133,31.978069 26.997745,27.140456 26.997745,27.140456 C 18.528582,18.264221 13.291696,25.230495 11.500037,31.436501 z"
             style="fill:#404040;"/>
          </a>
         </g>
        </svg>
</svg>
