<?xml version="1.0" encoding="UTF-8" standalone="no"?>
<!DOCTYPE svg PUBLIC "-//W3C//DTD SVG 1.1//EN"
 "http://www.w3.org/Graphics/SVG/1.1/DTD/svg11.dtd">
<!-- Generated by graphviz version 2.46.0 (0)
 -->
<!-- Title: /jenkins/jenlib_workspaces_f9/bld_nightly&#45;haldls.YmxkX25pZ2h0bHktaGFsZGxzIzEzNzk.x/haldls/include/haldls/vx/v3/constants.h Pages: 1 -->
<svg width="1242pt" height="317pt"
 viewBox="0.00 0.00 1242.24 317.00" xmlns="http://www.w3.org/2000/svg" xmlns:xlink="http://www.w3.org/1999/xlink">
<g id="graph0" class="graph" transform="scale(1 1) rotate(0) translate(4 313)">
<title>/jenkins/jenlib_workspaces_f9/bld_nightly&#45;haldls.YmxkX25pZ2h0bHktaGFsZGxzIzEzNzk.x/haldls/include/haldls/vx/v3/constants.h</title>
<polygon fill="white" stroke="transparent" points="-4,4 -4,-313 1238.24,-313 1238.24,4 -4,4"/>
<!-- Node1 -->
<g id="node1" class="node">
<title>Node1</title>
<g id="a_node1"><a xlink:title=" ">
<polygon fill="#bfbfbf" stroke="black" points="6.56,-252.5 6.56,-308.5 187.58,-308.5 187.58,-252.5 6.56,-252.5"/>
<text text-anchor="start" x="14.56" y="-295.5" font-family="Helvetica,sans-Serif" font-size="10.00">/jenkins/jenlib_workspaces</text>
<text text-anchor="start" x="14.56" y="-283.5" font-family="Helvetica,sans-Serif" font-size="10.00">_f9/bld_nightly&#45;haldls.YmxkX25p</text>
<text text-anchor="start" x="14.56" y="-271.5" font-family="Helvetica,sans-Serif" font-size="10.00">Z2h0bHktaGFsZGxzIzEzNzk.x/haldls</text>
<text text-anchor="middle" x="97.07" y="-259.5" font-family="Helvetica,sans-Serif" font-size="10.00">/include/haldls/vx/v3/constants.h</text>
</a>
</g>
</g>
<!-- Node2 -->
<g id="node2" class="node">
<title>Node2</title>
<g id="a_node2"><a xlink:href="constants_8h.html" target="_top" xlink:title=" ">
<polygon fill="white" stroke="black" points="83.67,-195.5 83.67,-215.5 192.47,-215.5 192.47,-195.5 83.67,-195.5"/>
<text text-anchor="middle" x="138.07" y="-202.5" font-family="Helvetica,sans-Serif" font-size="10.00">haldls/vx/constants.h</text>
</a>
</g>
</g>
<!-- Node1&#45;&gt;Node2 -->
<g id="edge1" class="edge">
<title>Node1&#45;&gt;Node2</title>
<path fill="none" stroke="midnightblue" d="M112.34,-252.32C117.57,-242.99 123.3,-232.8 128.02,-224.4"/>
<polygon fill="midnightblue" stroke="midnightblue" points="131.16,-225.96 133,-215.52 125.05,-222.53 131.16,-225.96"/>
</g>
<!-- Node3 -->
<g id="node3" class="node">
<title>Node3</title>
<g id="a_node3"><a xlink:href="genpybind_8h.html" target="_top" xlink:title=" ">
<polygon fill="white" stroke="black" points="0,-6.5 0,-26.5 112.14,-26.5 112.14,-6.5 0,-6.5"/>
<text text-anchor="middle" x="56.07" y="-13.5" font-family="Helvetica,sans-Serif" font-size="10.00">haldls/vx/genpybind.h</text>
</a>
</g>
</g>
<!-- Node1&#45;&gt;Node3 -->
<g id="edge28" class="edge">
<title>Node1&#45;&gt;Node3</title>
<path fill="none" stroke="midnightblue" d="M86.09,-252.4C82.01,-241.29 77.73,-228.2 75.07,-216 60.98,-151.29 57.34,-72.45 56.4,-36.73"/>
<polygon fill="midnightblue" stroke="midnightblue" points="59.9,-36.64 56.18,-26.72 52.9,-36.8 59.9,-36.64"/>
</g>
<!-- Node2&#45;&gt;Node3 -->
<g id="edge2" class="edge">
<title>Node2&#45;&gt;Node3</title>
<path fill="none" stroke="midnightblue" d="M134.12,-195.48C121.43,-166.55 81.58,-75.66 64.25,-36.15"/>
<polygon fill="midnightblue" stroke="midnightblue" points="67.4,-34.62 60.18,-26.87 60.99,-37.43 67.4,-34.62"/>
</g>
<!-- Node4 -->
<g id="node4" class="node">
<title>Node4</title>
<g id="a_node4"><a xlink:href="timer_8h.html" target="_top" xlink:title=" ">
<polygon fill="white" stroke="black" points="640.96,-138.5 640.96,-158.5 729.18,-158.5 729.18,-138.5 640.96,-138.5"/>
<text text-anchor="middle" x="685.07" y="-145.5" font-family="Helvetica,sans-Serif" font-size="10.00">haldls/vx/timer.h</text>
</a>
</g>
</g>
<!-- Node2&#45;&gt;Node4 -->
<g id="edge4" class="edge">
<title>Node2&#45;&gt;Node4</title>
<path fill="none" stroke="midnightblue" d="M192.52,-199.03C297.39,-188.48 526.26,-165.47 630.91,-154.95"/>
<polygon fill="midnightblue" stroke="midnightblue" points="631.34,-158.42 640.94,-153.94 630.64,-151.46 631.34,-158.42"/>
</g>
<!-- Node3&#45;&gt;Node3 -->
<g id="edge3" class="edge">
<title>Node3&#45;&gt;Node3</title>
<path fill="none" stroke="midnightblue" d="M79.97,-26.54C103.79,-32.26 130.14,-28.92 130.14,-16.5 130.14,-5.78 110.51,-1.82 89.81,-4.62"/>
<polygon fill="midnightblue" stroke="midnightblue" points="89.15,-1.18 79.97,-6.46 90.44,-8.06 89.15,-1.18"/>
</g>
<!-- Node4&#45;&gt;Node3 -->
<g id="edge16" class="edge">
<title>Node4&#45;&gt;Node3</title>
<path fill="none" stroke="midnightblue" d="M640.77,-144.57C571.94,-139.43 435.44,-126.89 322.07,-102 236.4,-83.19 138.88,-48.73 89.11,-30.16"/>
<polygon fill="midnightblue" stroke="midnightblue" points="90.11,-26.8 79.52,-26.55 87.65,-33.35 90.11,-26.8"/>
</g>
<!-- Node5 -->
<g id="node5" class="node">
<title>Node5</title>
<g id="a_node5"><a xlink:title=" ">
<polygon fill="white" stroke="#bfbfbf" points="706.68,-75.5 706.68,-95.5 745.46,-95.5 745.46,-75.5 706.68,-75.5"/>
<text text-anchor="middle" x="726.07" y="-82.5" font-family="Helvetica,sans-Serif" font-size="10.00">array</text>
</a>
</g>
</g>
<!-- Node4&#45;&gt;Node5 -->
<g id="edge5" class="edge">
<title>Node4&#45;&gt;Node5</title>
<path fill="none" stroke="midnightblue" d="M691.12,-138.5C697.18,-129.49 706.66,-115.39 714.22,-104.14"/>
<polygon fill="midnightblue" stroke="midnightblue" points="717.32,-105.79 720,-95.54 711.51,-101.88 717.32,-105.79"/>
</g>
<!-- Node6 -->
<g id="node6" class="node">
<title>Node6</title>
<g id="a_node6"><a xlink:title=" ">
<polygon fill="white" stroke="#bfbfbf" points="1189.9,-6.5 1189.9,-26.5 1234.24,-26.5 1234.24,-6.5 1189.9,-6.5"/>
<text text-anchor="middle" x="1212.07" y="-13.5" font-family="Helvetica,sans-Serif" font-size="10.00">iosfwd</text>
</a>
</g>
</g>
<!-- Node4&#45;&gt;Node6 -->
<g id="edge6" class="edge">
<title>Node4&#45;&gt;Node6</title>
<path fill="none" stroke="midnightblue" d="M729.35,-147.41C830.09,-146.52 1073.2,-140.35 1144.07,-102 1171.7,-87.05 1192.19,-55.7 1203.12,-35.68"/>
<polygon fill="midnightblue" stroke="midnightblue" points="1206.32,-37.12 1207.83,-26.63 1200.11,-33.89 1206.32,-37.12"/>
</g>
<!-- Node7 -->
<g id="node7" class="node">
<title>Node7</title>
<g id="a_node7"><a xlink:title=" ">
<polygon fill="white" stroke="#bfbfbf" points="1024.84,-69.5 1024.84,-101.5 1135.3,-101.5 1135.3,-69.5 1024.84,-69.5"/>
<text text-anchor="start" x="1032.84" y="-88.5" font-family="Helvetica,sans-Serif" font-size="10.00">fisch/vx/word_access</text>
<text text-anchor="middle" x="1080.07" y="-76.5" font-family="Helvetica,sans-Serif" font-size="10.00">/type/timer.h</text>
</a>
</g>
</g>
<!-- Node4&#45;&gt;Node7 -->
<g id="edge7" class="edge">
<title>Node4&#45;&gt;Node7</title>
<path fill="none" stroke="midnightblue" d="M729.21,-142.87C790.95,-136.08 906.77,-122.19 1014.57,-102.18"/>
<polygon fill="midnightblue" stroke="midnightblue" points="1015.46,-105.57 1024.64,-100.29 1014.17,-98.69 1015.46,-105.57"/>
</g>
<!-- Node8 -->
<g id="node8" class="node">
<title>Node8</title>
<g id="a_node8"><a xlink:title=" ">
<polygon fill="white" stroke="#bfbfbf" points="331.17,-75.5 331.17,-95.5 464.97,-95.5 464.97,-75.5 331.17,-75.5"/>
<text text-anchor="middle" x="398.07" y="-82.5" font-family="Helvetica,sans-Serif" font-size="10.00">halco/common/geometry.h</text>
</a>
</g>
</g>
<!-- Node4&#45;&gt;Node8 -->
<g id="edge8" class="edge">
<title>Node4&#45;&gt;Node8</title>
<path fill="none" stroke="midnightblue" d="M642.72,-138.5C591.64,-127.64 505.76,-109.39 450.53,-97.65"/>
<polygon fill="midnightblue" stroke="midnightblue" points="451.1,-94.19 440.59,-95.54 449.65,-101.04 451.1,-94.19"/>
</g>
<!-- Node9 -->
<g id="node9" class="node">
<title>Node9</title>
<g id="a_node9"><a xlink:title=" ">
<polygon fill="white" stroke="#bfbfbf" points="482.56,-69.5 482.56,-101.5 583.58,-101.5 583.58,-69.5 482.56,-69.5"/>
<text text-anchor="start" x="490.56" y="-88.5" font-family="Helvetica,sans-Serif" font-size="10.00">halco/hicann&#45;dls/vx</text>
<text text-anchor="middle" x="533.07" y="-76.5" font-family="Helvetica,sans-Serif" font-size="10.00">/timing.h</text>
</a>
</g>
</g>
<!-- Node4&#45;&gt;Node9 -->
<g id="edge9" class="edge">
<title>Node4&#45;&gt;Node9</title>
<path fill="none" stroke="midnightblue" d="M662.64,-138.5C641,-129.81 607.56,-116.39 580.07,-105.36"/>
<polygon fill="midnightblue" stroke="midnightblue" points="581.21,-102.05 570.63,-101.57 578.61,-108.55 581.21,-102.05"/>
</g>
<!-- Node10 -->
<g id="node10" class="node">
<title>Node10</title>
<g id="a_node10"><a xlink:href="cerealization_8h.html" target="_top" xlink:title=" ">
<polygon fill="white" stroke="black" points="897.4,-75.5 897.4,-95.5 1006.75,-95.5 1006.75,-75.5 897.4,-75.5"/>
<text text-anchor="middle" x="952.07" y="-82.5" font-family="Helvetica,sans-Serif" font-size="10.00">haldls/cerealization.h</text>
</a>
</g>
</g>
<!-- Node4&#45;&gt;Node10 -->
<g id="edge10" class="edge">
<title>Node4&#45;&gt;Node10</title>
<path fill="none" stroke="midnightblue" d="M724.47,-138.5C771.79,-127.69 851.22,-109.54 902.62,-97.8"/>
<polygon fill="midnightblue" stroke="midnightblue" points="903.54,-101.18 912.51,-95.54 901.98,-94.35 903.54,-101.18"/>
</g>
<!-- Node12 -->
<g id="node12" class="node">
<title>Node12</title>
<g id="a_node12"><a xlink:title=" ">
<polygon fill="white" stroke="#bfbfbf" points="911.57,-6.5 911.57,-26.5 992.57,-26.5 992.57,-6.5 911.57,-6.5"/>
<text text-anchor="middle" x="952.07" y="-13.5" font-family="Helvetica,sans-Serif" font-size="10.00">hate/visibility.h</text>
</a>
</g>
</g>
<!-- Node4&#45;&gt;Node12 -->
<g id="edge27" class="edge">
<title>Node4&#45;&gt;Node12</title>
<path fill="none" stroke="midnightblue" d="M703.85,-138.36C750.09,-115.84 869.69,-57.61 924.23,-31.06"/>
<polygon fill="midnightblue" stroke="midnightblue" points="925.86,-34.16 933.32,-26.63 922.79,-27.86 925.86,-34.16"/>
</g>
<!-- Node15 -->
<g id="node15" class="node">
<title>Node15</title>
<g id="a_node15"><a xlink:href="traits_8h.html" target="_top" xlink:title=" ">
<polygon fill="white" stroke="black" points="601.23,-75.5 601.23,-95.5 688.91,-95.5 688.91,-75.5 601.23,-75.5"/>
<text text-anchor="middle" x="645.07" y="-82.5" font-family="Helvetica,sans-Serif" font-size="10.00">haldls/vx/traits.h</text>
</a>
</g>
</g>
<!-- Node4&#45;&gt;Node15 -->
<g id="edge17" class="edge">
<title>Node4&#45;&gt;Node15</title>
<path fill="none" stroke="midnightblue" d="M679.17,-138.5C673.26,-129.49 664.01,-115.39 656.64,-104.14"/>
<polygon fill="midnightblue" stroke="midnightblue" points="659.41,-101.98 651,-95.54 653.55,-105.82 659.41,-101.98"/>
</g>
<!-- Node10&#45;&gt;Node6 -->
<g id="edge14" class="edge">
<title>Node10&#45;&gt;Node6</title>
<path fill="none" stroke="midnightblue" d="M988.93,-75.42C997.81,-73.28 1007.27,-71.03 1016.07,-69 1089.22,-52.17 1110.29,-57.98 1181.07,-33 1182.75,-32.41 1184.45,-31.75 1186.15,-31.04"/>
<polygon fill="midnightblue" stroke="midnightblue" points="1188.06,-34.02 1195.67,-26.65 1185.13,-27.66 1188.06,-34.02"/>
</g>
<!-- Node11 -->
<g id="node11" class="node">
<title>Node11</title>
<g id="a_node11"><a xlink:title=" ">
<polygon fill="white" stroke="#bfbfbf" points="810.45,-6.5 810.45,-26.5 893.69,-26.5 893.69,-6.5 810.45,-6.5"/>
<text text-anchor="middle" x="852.07" y="-13.5" font-family="Helvetica,sans-Serif" font-size="10.00">hate/type_list.h</text>
</a>
</g>
</g>
<!-- Node10&#45;&gt;Node11 -->
<g id="edge11" class="edge">
<title>Node10&#45;&gt;Node11</title>
<path fill="none" stroke="midnightblue" d="M938.59,-75.46C922.03,-64.38 893.75,-45.42 874.04,-32.22"/>
<polygon fill="midnightblue" stroke="midnightblue" points="875.92,-29.27 865.66,-26.61 872.02,-35.08 875.92,-29.27"/>
</g>
<!-- Node10&#45;&gt;Node12 -->
<g id="edge12" class="edge">
<title>Node10&#45;&gt;Node12</title>
<path fill="none" stroke="midnightblue" d="M952.07,-75.46C952.07,-65.63 952.07,-49.61 952.07,-36.9"/>
<polygon fill="midnightblue" stroke="midnightblue" points="955.57,-36.82 952.07,-26.82 948.57,-36.82 955.57,-36.82"/>
</g>
<!-- Node13 -->
<g id="node13" class="node">
<title>Node13</title>
<g id="a_node13"><a xlink:title=" ">
<polygon fill="white" stroke="#bfbfbf" points="1010.62,-6.5 1010.62,-26.5 1055.52,-26.5 1055.52,-6.5 1010.62,-6.5"/>
<text text-anchor="middle" x="1033.07" y="-13.5" font-family="Helvetica,sans-Serif" font-size="10.00">cstdint</text>
</a>
</g>
</g>
<!-- Node10&#45;&gt;Node13 -->
<g id="edge13" class="edge">
<title>Node10&#45;&gt;Node13</title>
<path fill="none" stroke="midnightblue" d="M963,-75.46C976.04,-64.67 998.08,-46.44 1013.97,-33.3"/>
<polygon fill="midnightblue" stroke="midnightblue" points="1016.59,-35.68 1022.06,-26.61 1012.13,-30.28 1016.59,-35.68"/>
</g>
<!-- Node14 -->
<g id="node14" class="node">
<title>Node14</title>
<g id="a_node14"><a xlink:title=" ">
<polygon fill="white" stroke="#bfbfbf" points="1073.95,-6.5 1073.95,-26.5 1172.19,-26.5 1172.19,-6.5 1073.95,-6.5"/>
<text text-anchor="middle" x="1123.07" y="-13.5" font-family="Helvetica,sans-Serif" font-size="10.00">cereal/macros.hpp</text>
</a>
</g>
</g>
<!-- Node10&#45;&gt;Node14 -->
<g id="edge15" class="edge">
<title>Node10&#45;&gt;Node14</title>
<path fill="none" stroke="midnightblue" d="M975.13,-75.46C1004.84,-63.83 1056.65,-43.52 1090.4,-30.3"/>
<polygon fill="midnightblue" stroke="midnightblue" points="1091.79,-33.51 1099.83,-26.61 1089.24,-27 1091.79,-33.51"/>
</g>
<!-- Node15&#45;&gt;Node3 -->
<g id="edge20" class="edge">
<title>Node15&#45;&gt;Node3</title>
<path fill="none" stroke="midnightblue" d="M618.61,-75.44C610.51,-72.98 601.5,-70.57 593.07,-69 394.09,-31.88 339.73,-59.62 139.07,-33 129.58,-31.74 119.53,-30.12 109.82,-28.39"/>
<polygon fill="midnightblue" stroke="midnightblue" points="110.34,-24.93 99.87,-26.57 109.08,-31.81 110.34,-24.93"/>
</g>
<!-- Node15&#45;&gt;Node11 -->
<g id="edge21" class="edge">
<title>Node15&#45;&gt;Node11</title>
<path fill="none" stroke="midnightblue" d="M672.99,-75.46C709.49,-63.65 773.56,-42.91 814.35,-29.71"/>
<polygon fill="midnightblue" stroke="midnightblue" points="815.5,-33.02 823.94,-26.61 813.34,-26.36 815.5,-33.02"/>
</g>
<!-- Node15&#45;&gt;Node12 -->
<g id="edge22" class="edge">
<title>Node15&#45;&gt;Node12</title>
<path fill="none" stroke="midnightblue" d="M673.8,-75.47C681.63,-73.18 690.14,-70.85 698.07,-69 788.16,-47.98 813.22,-55 903.07,-33 907.26,-31.97 911.62,-30.78 915.93,-29.52"/>
<polygon fill="midnightblue" stroke="midnightblue" points="917.26,-32.78 925.81,-26.51 915.22,-26.08 917.26,-32.78"/>
</g>
<!-- Node16 -->
<g id="node16" class="node">
<title>Node16</title>
<g id="a_node16"><a xlink:title=" ">
<polygon fill="white" stroke="#bfbfbf" points="386.01,-6.5 386.01,-26.5 468.13,-26.5 468.13,-6.5 386.01,-6.5"/>
<text text-anchor="middle" x="427.07" y="-13.5" font-family="Helvetica,sans-Serif" font-size="10.00">fisch/vx/traits.h</text>
</a>
</g>
</g>
<!-- Node15&#45;&gt;Node16 -->
<g id="edge18" class="edge">
<title>Node15&#45;&gt;Node16</title>
<path fill="none" stroke="midnightblue" d="M615.32,-75.41C581.74,-65.14 525.46,-47.92 477.07,-33 473.47,-31.89 469.73,-30.73 465.98,-29.58"/>
<polygon fill="midnightblue" stroke="midnightblue" points="466.74,-26.15 456.15,-26.53 464.67,-32.83 466.74,-26.15"/>
</g>
<!-- Node17 -->
<g id="node17" class="node">
<title>Node17</title>
<g id="a_node17"><a xlink:title=" ">
<polygon fill="white" stroke="#bfbfbf" points="485.84,-0.5 485.84,-32.5 596.3,-32.5 596.3,-0.5 485.84,-0.5"/>
<text text-anchor="start" x="493.84" y="-19.5" font-family="Helvetica,sans-Serif" font-size="10.00">fisch/vx/word_access</text>
<text text-anchor="middle" x="541.07" y="-7.5" font-family="Helvetica,sans-Serif" font-size="10.00">_type.h</text>
</a>
</g>
</g>
<!-- Node15&#45;&gt;Node17 -->
<g id="edge19" class="edge">
<title>Node15&#45;&gt;Node17</title>
<path fill="none" stroke="midnightblue" d="M631.05,-75.46C616.24,-65.92 592.39,-50.56 572.97,-38.05"/>
<polygon fill="midnightblue" stroke="midnightblue" points="574.71,-35.01 564.41,-32.53 570.92,-40.89 574.71,-35.01"/>
</g>
<!-- Node18 -->
<g id="node18" class="node">
<title>Node18</title>
<g id="a_node18"><a xlink:title=" ">
<polygon fill="white" stroke="#bfbfbf" points="614.01,-6.5 614.01,-26.5 676.13,-26.5 676.13,-6.5 614.01,-6.5"/>
<text text-anchor="middle" x="645.07" y="-13.5" font-family="Helvetica,sans-Serif" font-size="10.00">type_traits</text>
</a>
</g>
</g>
<!-- Node15&#45;&gt;Node18 -->
<g id="edge23" class="edge">
<title>Node15&#45;&gt;Node18</title>
<path fill="none" stroke="midnightblue" d="M645.07,-75.46C645.07,-65.63 645.07,-49.61 645.07,-36.9"/>
<polygon fill="midnightblue" stroke="midnightblue" points="648.57,-36.82 645.07,-26.82 641.57,-36.82 648.57,-36.82"/>
</g>
<!-- Node19 -->
<g id="node19" class="node">
<title>Node19</title>
<g id="a_node19"><a xlink:title=" ">
<polygon fill="white" stroke="#bfbfbf" points="693.67,-0.5 693.67,-32.5 792.47,-32.5 792.47,-0.5 693.67,-0.5"/>
<text text-anchor="start" x="701.67" y="-19.5" font-family="Helvetica,sans-Serif" font-size="10.00">boost/utility/enable</text>
<text text-anchor="middle" x="743.07" y="-7.5" font-family="Helvetica,sans-Serif" font-size="10.00">_if.hpp</text>
</a>
</g>
</g>
<!-- Node15&#45;&gt;Node19 -->
<g id="edge24" class="edge">
<title>Node15&#45;&gt;Node19</title>
<path fill="none" stroke="midnightblue" d="M658.29,-75.46C672.12,-66.01 694.31,-50.84 712.52,-38.39"/>
<polygon fill="midnightblue" stroke="midnightblue" points="714.8,-41.07 721.08,-32.53 710.85,-35.29 714.8,-41.07"/>
</g>
<!-- Node20 -->
<g id="node20" class="node">
<title>Node20</title>
<g id="a_node20"><a xlink:title=" ">
<polygon fill="white" stroke="#bfbfbf" points="147.72,-6.5 147.72,-26.5 240.42,-26.5 240.42,-6.5 147.72,-6.5"/>
<text text-anchor="middle" x="194.07" y="-13.5" font-family="Helvetica,sans-Serif" font-size="10.00">boost/variant.hpp</text>
</a>
</g>
</g>
<!-- Node15&#45;&gt;Node20 -->
<g id="edge25" class="edge">
<title>Node15&#45;&gt;Node20</title>
<path fill="none" stroke="midnightblue" d="M618.32,-75.49C610.28,-73.07 601.39,-70.66 593.07,-69 442.32,-38.91 400.04,-61.95 249.07,-33 243.65,-31.96 237.99,-30.64 232.45,-29.21"/>
<polygon fill="midnightblue" stroke="midnightblue" points="233.25,-25.8 222.68,-26.56 231.41,-32.56 233.25,-25.8"/>
</g>
<!-- Node21 -->
<g id="node21" class="node">
<title>Node21</title>
<g id="a_node21"><a xlink:title=" ">
<polygon fill="white" stroke="#bfbfbf" points="258.12,-6.5 258.12,-26.5 368.03,-26.5 368.03,-6.5 258.12,-6.5"/>
<text text-anchor="middle" x="313.07" y="-13.5" font-family="Helvetica,sans-Serif" font-size="10.00">fisch/vx/container.def</text>
</a>
</g>
</g>
<!-- Node15&#45;&gt;Node21 -->
<g id="edge26" class="edge">
<title>Node15&#45;&gt;Node21</title>
<path fill="none" stroke="midnightblue" d="M617.18,-75.49C609.42,-73.18 600.96,-70.83 593.07,-69 498.25,-47.06 472.43,-52.47 377.07,-33 370.97,-31.75 364.57,-30.34 358.27,-28.88"/>
<polygon fill="midnightblue" stroke="midnightblue" points="359.05,-25.47 348.51,-26.57 357.44,-32.28 359.05,-25.47"/>
</g>
</g>
</svg>
