<?xml version="1.0" encoding="UTF-8" standalone="no"?>
<!DOCTYPE svg PUBLIC "-//W3C//DTD SVG 1.1//EN"
 "http://www.w3.org/Graphics/SVG/1.1/DTD/svg11.dtd">
<!-- Generated by graphviz version 2.46.0 (0)
 -->
<!-- Title: /jenkins/jenlib_workspaces_f9/bld_nightly&#45;haldls.YmxkX25pZ2h0bHktaGFsZGxzIzEzNzk.x/haldls/include/haldls/vx/v3/padi.h Pages: 1 -->
<svg width="1566pt" height="329pt"
 viewBox="0.00 0.00 1565.52 329.00" xmlns="http://www.w3.org/2000/svg" xmlns:xlink="http://www.w3.org/1999/xlink">
<g id="graph0" class="graph" transform="scale(1 1) rotate(0) translate(4 325)">
<title>/jenkins/jenlib_workspaces_f9/bld_nightly&#45;haldls.YmxkX25pZ2h0bHktaGFsZGxzIzEzNzk.x/haldls/include/haldls/vx/v3/padi.h</title>
<polygon fill="white" stroke="transparent" points="-4,4 -4,-325 1561.52,-325 1561.52,4 -4,4"/>
<!-- Node1 -->
<g id="node1" class="node">
<title>Node1</title>
<g id="a_node1"><a xlink:title=" ">
<polygon fill="#bfbfbf" stroke="black" points="1072.94,-264.5 1072.94,-320.5 1253.96,-320.5 1253.96,-264.5 1072.94,-264.5"/>
<text text-anchor="start" x="1080.94" y="-307.5" font-family="Helvetica,sans-Serif" font-size="10.00">/jenkins/jenlib_workspaces</text>
<text text-anchor="start" x="1080.94" y="-295.5" font-family="Helvetica,sans-Serif" font-size="10.00">_f9/bld_nightly&#45;haldls.YmxkX25p</text>
<text text-anchor="start" x="1080.94" y="-283.5" font-family="Helvetica,sans-Serif" font-size="10.00">Z2h0bHktaGFsZGxzIzEzNzk.x/haldls</text>
<text text-anchor="middle" x="1163.45" y="-271.5" font-family="Helvetica,sans-Serif" font-size="10.00">/include/haldls/vx/v3/padi.h</text>
</a>
</g>
</g>
<!-- Node2 -->
<g id="node2" class="node">
<title>Node2</title>
<g id="a_node2"><a xlink:href="genpybind_8h.html" target="_top" xlink:title=" ">
<polygon fill="white" stroke="black" points="1427.38,-6.5 1427.38,-26.5 1539.52,-26.5 1539.52,-6.5 1427.38,-6.5"/>
<text text-anchor="middle" x="1483.45" y="-13.5" font-family="Helvetica,sans-Serif" font-size="10.00">haldls/vx/genpybind.h</text>
</a>
</g>
</g>
<!-- Node1&#45;&gt;Node2 -->
<g id="edge1" class="edge">
<title>Node1&#45;&gt;Node2</title>
<path fill="none" stroke="midnightblue" d="M1196.9,-264.31C1241.5,-227.89 1322.71,-161.01 1390.45,-102 1417.39,-78.54 1447.92,-50.51 1466.42,-33.36"/>
<polygon fill="midnightblue" stroke="midnightblue" points="1468.85,-35.89 1473.8,-26.52 1464.09,-30.76 1468.85,-35.89"/>
</g>
<!-- Node3 -->
<g id="node3" class="node">
<title>Node3</title>
<g id="a_node3"><a xlink:href="padi_8h.html" target="_top" xlink:title=" ">
<polygon fill="white" stroke="black" points="940,-207.5 940,-227.5 1024.9,-227.5 1024.9,-207.5 940,-207.5"/>
<text text-anchor="middle" x="982.45" y="-214.5" font-family="Helvetica,sans-Serif" font-size="10.00">haldls/vx/padi.h</text>
</a>
</g>
</g>
<!-- Node1&#45;&gt;Node3 -->
<g id="edge3" class="edge">
<title>Node1&#45;&gt;Node3</title>
<path fill="none" stroke="midnightblue" d="M1096.31,-264.42C1068.27,-253.11 1037.01,-240.5 1014.35,-231.37"/>
<polygon fill="midnightblue" stroke="midnightblue" points="1015.48,-228.05 1004.89,-227.55 1012.86,-234.54 1015.48,-228.05"/>
</g>
<!-- Node2&#45;&gt;Node2 -->
<g id="edge2" class="edge">
<title>Node2&#45;&gt;Node2</title>
<path fill="none" stroke="midnightblue" d="M1507.35,-26.54C1531.17,-32.26 1557.52,-28.92 1557.52,-16.5 1557.52,-5.78 1537.89,-1.82 1517.19,-4.62"/>
<polygon fill="midnightblue" stroke="midnightblue" points="1516.53,-1.18 1507.35,-6.46 1517.82,-8.06 1516.53,-1.18"/>
</g>
<!-- Node3&#45;&gt;Node2 -->
<g id="edge14" class="edge">
<title>Node3&#45;&gt;Node2</title>
<path fill="none" stroke="midnightblue" d="M1025.01,-211.72C1070.68,-205.69 1144.83,-193.33 1205.45,-171 1307.33,-133.48 1416.98,-62.85 1462.15,-32.25"/>
<polygon fill="midnightblue" stroke="midnightblue" points="1464.26,-35.05 1470.55,-26.52 1460.31,-29.27 1464.26,-35.05"/>
</g>
<!-- Node4 -->
<g id="node4" class="node">
<title>Node4</title>
<g id="a_node4"><a xlink:title=" ">
<polygon fill="white" stroke="#bfbfbf" points="1282.06,-75.5 1282.06,-95.5 1320.84,-95.5 1320.84,-75.5 1282.06,-75.5"/>
<text text-anchor="middle" x="1301.45" y="-82.5" font-family="Helvetica,sans-Serif" font-size="10.00">array</text>
</a>
</g>
</g>
<!-- Node3&#45;&gt;Node4 -->
<g id="edge4" class="edge">
<title>Node3&#45;&gt;Node4</title>
<path fill="none" stroke="midnightblue" d="M1025.03,-209.1C1061.58,-201.92 1115.22,-189.4 1159.45,-171 1205.14,-151.99 1253.73,-120.23 1280.57,-101.54"/>
<polygon fill="midnightblue" stroke="midnightblue" points="1282.64,-104.36 1288.8,-95.74 1278.61,-98.64 1282.64,-104.36"/>
</g>
<!-- Node5 -->
<g id="node5" class="node">
<title>Node5</title>
<g id="a_node5"><a xlink:title=" ">
<polygon fill="white" stroke="#bfbfbf" points="151.28,-6.5 151.28,-26.5 195.62,-26.5 195.62,-6.5 151.28,-6.5"/>
<text text-anchor="middle" x="173.45" y="-13.5" font-family="Helvetica,sans-Serif" font-size="10.00">iosfwd</text>
</a>
</g>
</g>
<!-- Node3&#45;&gt;Node5 -->
<g id="edge5" class="edge">
<title>Node3&#45;&gt;Node5</title>
<path fill="none" stroke="midnightblue" d="M939.84,-214.91C759.83,-207.74 68.13,-175.54 8.45,-102 -30.59,-53.89 82.4,-30.35 140.84,-21.64"/>
<polygon fill="midnightblue" stroke="midnightblue" points="141.66,-25.05 151.07,-20.18 140.68,-18.12 141.66,-25.05"/>
</g>
<!-- Node6 -->
<g id="node6" class="node">
<title>Node6</title>
<g id="a_node6"><a xlink:title=" ">
<polygon fill="white" stroke="#bfbfbf" points="17.55,-75.5 17.55,-95.5 151.35,-95.5 151.35,-75.5 17.55,-75.5"/>
<text text-anchor="middle" x="84.45" y="-82.5" font-family="Helvetica,sans-Serif" font-size="10.00">halco/common/geometry.h</text>
</a>
</g>
</g>
<!-- Node3&#45;&gt;Node6 -->
<g id="edge6" class="edge">
<title>Node3&#45;&gt;Node6</title>
<path fill="none" stroke="midnightblue" d="M939.84,-213.66C858.05,-207.9 673.5,-193.48 519.45,-171 378.74,-150.47 214.44,-115.53 133.98,-97.7"/>
<polygon fill="midnightblue" stroke="midnightblue" points="134.64,-94.26 124.12,-95.5 133.12,-101.09 134.64,-94.26"/>
</g>
<!-- Node7 -->
<g id="node7" class="node">
<title>Node7</title>
<g id="a_node7"><a xlink:title=" ">
<polygon fill="white" stroke="#bfbfbf" points="1048.94,-138.5 1048.94,-170.5 1149.96,-170.5 1149.96,-138.5 1048.94,-138.5"/>
<text text-anchor="start" x="1056.94" y="-157.5" font-family="Helvetica,sans-Serif" font-size="10.00">halco/hicann&#45;dls/vx</text>
<text text-anchor="middle" x="1099.45" y="-145.5" font-family="Helvetica,sans-Serif" font-size="10.00">/padi.h</text>
</a>
</g>
</g>
<!-- Node3&#45;&gt;Node7 -->
<g id="edge7" class="edge">
<title>Node3&#45;&gt;Node7</title>
<path fill="none" stroke="midnightblue" d="M999.71,-207.5C1015.88,-199.07 1040.6,-186.18 1061.39,-175.35"/>
<polygon fill="midnightblue" stroke="midnightblue" points="1063.06,-178.42 1070.31,-170.69 1059.83,-172.21 1063.06,-178.42"/>
</g>
<!-- Node8 -->
<g id="node8" class="node">
<title>Node8</title>
<g id="a_node8"><a xlink:href="cerealization_8h.html" target="_top" xlink:title=" ">
<polygon fill="white" stroke="black" points="207.78,-75.5 207.78,-95.5 317.13,-95.5 317.13,-75.5 207.78,-75.5"/>
<text text-anchor="middle" x="262.45" y="-82.5" font-family="Helvetica,sans-Serif" font-size="10.00">haldls/cerealization.h</text>
</a>
</g>
</g>
<!-- Node3&#45;&gt;Node8 -->
<g id="edge8" class="edge">
<title>Node3&#45;&gt;Node8</title>
<path fill="none" stroke="midnightblue" d="M939.96,-210.24C835.12,-194.54 555.87,-151.22 325.45,-102 319.66,-100.76 313.6,-99.38 307.62,-97.97"/>
<polygon fill="midnightblue" stroke="midnightblue" points="308.22,-94.51 297.68,-95.57 306.58,-101.32 308.22,-94.51"/>
</g>
<!-- Node10 -->
<g id="node10" class="node">
<title>Node10</title>
<g id="a_node10"><a xlink:title=" ">
<polygon fill="white" stroke="#bfbfbf" points="607.95,-6.5 607.95,-26.5 688.95,-26.5 688.95,-6.5 607.95,-6.5"/>
<text text-anchor="middle" x="648.45" y="-13.5" font-family="Helvetica,sans-Serif" font-size="10.00">hate/visibility.h</text>
</a>
</g>
</g>
<!-- Node3&#45;&gt;Node10 -->
<g id="edge41" class="edge">
<title>Node3&#45;&gt;Node10</title>
<path fill="none" stroke="midnightblue" d="M975.4,-207.3C955.07,-181.45 893.47,-107.51 825.45,-69 774.4,-40.09 754.7,-49.69 698.45,-33 694.69,-31.88 690.77,-30.7 686.86,-29.51"/>
<polygon fill="midnightblue" stroke="midnightblue" points="687.82,-26.14 677.23,-26.55 685.77,-32.84 687.82,-26.14"/>
</g>
<!-- Node13 -->
<g id="node13" class="node">
<title>Node13</title>
<g id="a_node13"><a xlink:href="synapse_8h.html" target="_top" xlink:title=" ">
<polygon fill="white" stroke="black" points="714.83,-144.5 714.83,-164.5 818.07,-164.5 818.07,-144.5 714.83,-144.5"/>
<text text-anchor="middle" x="766.45" y="-151.5" font-family="Helvetica,sans-Serif" font-size="10.00">haldls/vx/synapse.h</text>
</a>
</g>
</g>
<!-- Node3&#45;&gt;Node13 -->
<g id="edge15" class="edge">
<title>Node3&#45;&gt;Node13</title>
<path fill="none" stroke="midnightblue" d="M950.58,-207.5C912.85,-196.84 849.91,-179.07 808.29,-167.31"/>
<polygon fill="midnightblue" stroke="midnightblue" points="809.03,-163.89 798.45,-164.54 807.13,-170.62 809.03,-163.89"/>
</g>
<!-- Node21 -->
<g id="node21" class="node">
<title>Node21</title>
<g id="a_node21"><a xlink:href="traits_8h.html" target="_top" xlink:title=" ">
<polygon fill="white" stroke="black" points="1016.61,-75.5 1016.61,-95.5 1104.29,-95.5 1104.29,-75.5 1016.61,-75.5"/>
<text text-anchor="middle" x="1060.45" y="-82.5" font-family="Helvetica,sans-Serif" font-size="10.00">haldls/vx/traits.h</text>
</a>
</g>
</g>
<!-- Node3&#45;&gt;Node21 -->
<g id="edge40" class="edge">
<title>Node3&#45;&gt;Node21</title>
<path fill="none" stroke="midnightblue" d="M983.73,-207.16C986.17,-191.78 992.53,-160.56 1006.45,-138 1015.02,-124.12 1028.22,-111.43 1039.42,-102.13"/>
<polygon fill="midnightblue" stroke="midnightblue" points="1041.85,-104.67 1047.49,-95.7 1037.49,-99.19 1041.85,-104.67"/>
</g>
<!-- Node27 -->
<g id="node27" class="node">
<title>Node27</title>
<g id="a_node27"><a xlink:title=" ">
<polygon fill="white" stroke="#bfbfbf" points="1160.83,-75.5 1160.83,-95.5 1264.07,-95.5 1264.07,-75.5 1160.83,-75.5"/>
<text text-anchor="middle" x="1212.45" y="-82.5" font-family="Helvetica,sans-Serif" font-size="10.00">hxcomm/vx/target.h</text>
</a>
</g>
</g>
<!-- Node3&#45;&gt;Node27 -->
<g id="edge42" class="edge">
<title>Node3&#45;&gt;Node27</title>
<path fill="none" stroke="midnightblue" d="M986.53,-207.48C994.39,-191.14 1013.2,-156.59 1039.45,-138 1050.11,-130.46 1120.2,-110.91 1167.83,-98.19"/>
<polygon fill="midnightblue" stroke="midnightblue" points="1168.86,-101.53 1177.62,-95.58 1167.06,-94.77 1168.86,-101.53"/>
</g>
<!-- Node8&#45;&gt;Node5 -->
<g id="edge12" class="edge">
<title>Node8&#45;&gt;Node5</title>
<path fill="none" stroke="midnightblue" d="M250.45,-75.46C235.98,-64.57 211.45,-46.1 193.96,-32.94"/>
<polygon fill="midnightblue" stroke="midnightblue" points="195.64,-29.82 185.55,-26.61 191.43,-35.42 195.64,-29.82"/>
</g>
<!-- Node9 -->
<g id="node9" class="node">
<title>Node9</title>
<g id="a_node9"><a xlink:title=" ">
<polygon fill="white" stroke="#bfbfbf" points="480.83,-6.5 480.83,-26.5 564.07,-26.5 564.07,-6.5 480.83,-6.5"/>
<text text-anchor="middle" x="522.45" y="-13.5" font-family="Helvetica,sans-Serif" font-size="10.00">hate/type_list.h</text>
</a>
</g>
</g>
<!-- Node8&#45;&gt;Node9 -->
<g id="edge9" class="edge">
<title>Node8&#45;&gt;Node9</title>
<path fill="none" stroke="midnightblue" d="M297.52,-75.46C344.04,-63.48 426.22,-42.3 477.32,-29.13"/>
<polygon fill="midnightblue" stroke="midnightblue" points="478.3,-32.49 487.11,-26.61 476.55,-25.71 478.3,-32.49"/>
</g>
<!-- Node8&#45;&gt;Node10 -->
<g id="edge10" class="edge">
<title>Node8&#45;&gt;Node10</title>
<path fill="none" stroke="midnightblue" d="M296.65,-75.45C305.95,-73.16 316.05,-70.83 325.45,-69 434.77,-47.67 463.75,-52.28 573.45,-33 581.28,-31.62 589.54,-30.05 597.6,-28.44"/>
<polygon fill="midnightblue" stroke="midnightblue" points="598.56,-31.81 607.66,-26.39 597.17,-24.95 598.56,-31.81"/>
</g>
<!-- Node11 -->
<g id="node11" class="node">
<title>Node11</title>
<g id="a_node11"><a xlink:title=" ">
<polygon fill="white" stroke="#bfbfbf" points="330,-6.5 330,-26.5 374.9,-26.5 374.9,-6.5 330,-6.5"/>
<text text-anchor="middle" x="352.45" y="-13.5" font-family="Helvetica,sans-Serif" font-size="10.00">cstdint</text>
</a>
</g>
</g>
<!-- Node8&#45;&gt;Node11 -->
<g id="edge11" class="edge">
<title>Node8&#45;&gt;Node11</title>
<path fill="none" stroke="midnightblue" d="M274.59,-75.46C289.22,-64.57 314.03,-46.1 331.71,-32.94"/>
<polygon fill="midnightblue" stroke="midnightblue" points="334.29,-35.39 340.22,-26.61 330.11,-29.77 334.29,-35.39"/>
</g>
<!-- Node12 -->
<g id="node12" class="node">
<title>Node12</title>
<g id="a_node12"><a xlink:title=" ">
<polygon fill="white" stroke="#bfbfbf" points="213.33,-6.5 213.33,-26.5 311.57,-26.5 311.57,-6.5 213.33,-6.5"/>
<text text-anchor="middle" x="262.45" y="-13.5" font-family="Helvetica,sans-Serif" font-size="10.00">cereal/macros.hpp</text>
</a>
</g>
</g>
<!-- Node8&#45;&gt;Node12 -->
<g id="edge13" class="edge">
<title>Node8&#45;&gt;Node12</title>
<path fill="none" stroke="midnightblue" d="M262.45,-75.46C262.45,-65.63 262.45,-49.61 262.45,-36.9"/>
<polygon fill="midnightblue" stroke="midnightblue" points="265.95,-36.82 262.45,-26.82 258.95,-36.82 265.95,-36.82"/>
</g>
<!-- Node13&#45;&gt;Node2 -->
<g id="edge27" class="edge">
<title>Node13&#45;&gt;Node2</title>
<path fill="none" stroke="midnightblue" d="M818.22,-149.39C901.7,-142.18 1061.93,-125.71 1113.45,-102 1133.77,-92.65 1131.07,-78.21 1151.45,-69 1260.56,-19.68 1300.73,-54.91 1418.45,-33 1425.04,-31.77 1431.97,-30.31 1438.74,-28.78"/>
<polygon fill="midnightblue" stroke="midnightblue" points="1439.56,-32.19 1448.5,-26.51 1437.97,-25.37 1439.56,-32.19"/>
</g>
<!-- Node13&#45;&gt;Node4 -->
<g id="edge16" class="edge">
<title>Node13&#45;&gt;Node4</title>
<path fill="none" stroke="midnightblue" d="M818.17,-150.89C929.68,-144.83 1189.44,-128.3 1273.45,-102 1275.13,-101.48 1276.82,-100.84 1278.49,-100.14"/>
<polygon fill="midnightblue" stroke="midnightblue" points="1280.31,-103.14 1287.71,-95.55 1277.19,-96.88 1280.31,-103.14"/>
</g>
<!-- Node13&#45;&gt;Node5 -->
<g id="edge17" class="edge">
<title>Node13&#45;&gt;Node5</title>
<path fill="none" stroke="midnightblue" d="M714.42,-152.07C581.65,-147.98 237.88,-134.33 198.45,-102 179.27,-86.27 174.35,-56.56 173.33,-36.89"/>
<polygon fill="midnightblue" stroke="midnightblue" points="176.83,-36.58 173.1,-26.66 169.83,-36.73 176.83,-36.58"/>
</g>
<!-- Node13&#45;&gt;Node6 -->
<g id="edge18" class="edge">
<title>Node13&#45;&gt;Node6</title>
<path fill="none" stroke="midnightblue" d="M714.8,-150.88C610.56,-145.2 367.74,-129.95 165.45,-102 156.28,-100.73 146.58,-99.12 137.2,-97.41"/>
<polygon fill="midnightblue" stroke="midnightblue" points="137.67,-93.94 127.19,-95.54 136.38,-100.82 137.67,-93.94"/>
</g>
<!-- Node13&#45;&gt;Node8 -->
<g id="edge23" class="edge">
<title>Node13&#45;&gt;Node8</title>
<path fill="none" stroke="midnightblue" d="M714.54,-149.55C631.78,-142.79 465.02,-127.22 325.45,-102 319.12,-100.86 312.48,-99.45 305.99,-97.96"/>
<polygon fill="midnightblue" stroke="midnightblue" points="306.5,-94.48 295.96,-95.57 304.87,-101.29 306.5,-94.48"/>
</g>
<!-- Node13&#45;&gt;Node10 -->
<g id="edge38" class="edge">
<title>Node13&#45;&gt;Node10</title>
<path fill="none" stroke="midnightblue" d="M777.51,-144.33C795.61,-128.21 827.79,-94.13 809.45,-69 808.51,-67.71 734.37,-44.35 687.04,-29.54"/>
<polygon fill="midnightblue" stroke="midnightblue" points="687.97,-26.16 677.38,-26.52 685.88,-32.85 687.97,-26.16"/>
</g>
<!-- Node14 -->
<g id="node14" class="node">
<title>Node14</title>
<g id="a_node14"><a xlink:title=" ">
<polygon fill="white" stroke="#bfbfbf" points="692.33,-69.5 692.33,-101.5 800.57,-101.5 800.57,-69.5 692.33,-69.5"/>
<text text-anchor="start" x="700.33" y="-88.5" font-family="Helvetica,sans-Serif" font-size="10.00">halco/common/typed</text>
<text text-anchor="middle" x="746.45" y="-76.5" font-family="Helvetica,sans-Serif" font-size="10.00">_array.h</text>
</a>
</g>
</g>
<!-- Node13&#45;&gt;Node14 -->
<g id="edge19" class="edge">
<title>Node13&#45;&gt;Node14</title>
<path fill="none" stroke="midnightblue" d="M763.75,-144.46C761.21,-135.96 757.29,-122.82 753.82,-111.2"/>
<polygon fill="midnightblue" stroke="midnightblue" points="757.15,-110.11 750.94,-101.53 750.44,-112.12 757.15,-110.11"/>
</g>
<!-- Node15 -->
<g id="node15" class="node">
<title>Node15</title>
<g id="a_node15"><a xlink:title=" ">
<polygon fill="white" stroke="#bfbfbf" points="334.94,-69.5 334.94,-101.5 435.96,-101.5 435.96,-69.5 334.94,-69.5"/>
<text text-anchor="start" x="342.94" y="-88.5" font-family="Helvetica,sans-Serif" font-size="10.00">halco/hicann&#45;dls/vx</text>
<text text-anchor="middle" x="385.45" y="-76.5" font-family="Helvetica,sans-Serif" font-size="10.00">/capmem.h</text>
</a>
</g>
</g>
<!-- Node13&#45;&gt;Node15 -->
<g id="edge20" class="edge">
<title>Node13&#45;&gt;Node15</title>
<path fill="none" stroke="midnightblue" d="M714.58,-146.8C652.76,-138.47 546.19,-122.98 446.19,-102.26"/>
<polygon fill="midnightblue" stroke="midnightblue" points="446.73,-98.8 436.22,-100.18 445.29,-105.65 446.73,-98.8"/>
</g>
<!-- Node16 -->
<g id="node16" class="node">
<title>Node16</title>
<g id="a_node16"><a xlink:title=" ">
<polygon fill="white" stroke="#bfbfbf" points="453.94,-69.5 453.94,-101.5 554.96,-101.5 554.96,-69.5 453.94,-69.5"/>
<text text-anchor="start" x="461.94" y="-88.5" font-family="Helvetica,sans-Serif" font-size="10.00">halco/hicann&#45;dls/vx</text>
<text text-anchor="middle" x="504.45" y="-76.5" font-family="Helvetica,sans-Serif" font-size="10.00">/switch_rows.h</text>
</a>
</g>
</g>
<!-- Node13&#45;&gt;Node16 -->
<g id="edge21" class="edge">
<title>Node13&#45;&gt;Node16</title>
<path fill="none" stroke="midnightblue" d="M730.49,-144.47C691.88,-134.76 628.47,-118.75 564.78,-102.33"/>
<polygon fill="midnightblue" stroke="midnightblue" points="565.53,-98.91 554.97,-99.8 563.78,-105.69 565.53,-98.91"/>
</g>
<!-- Node17 -->
<g id="node17" class="node">
<title>Node17</title>
<g id="a_node17"><a xlink:title=" ">
<polygon fill="white" stroke="#bfbfbf" points="572.94,-69.5 572.94,-101.5 673.96,-101.5 673.96,-69.5 572.94,-69.5"/>
<text text-anchor="start" x="580.94" y="-88.5" font-family="Helvetica,sans-Serif" font-size="10.00">halco/hicann&#45;dls/vx</text>
<text text-anchor="middle" x="623.45" y="-76.5" font-family="Helvetica,sans-Serif" font-size="10.00">/synapse.h</text>
</a>
</g>
</g>
<!-- Node13&#45;&gt;Node17 -->
<g id="edge22" class="edge">
<title>Node13&#45;&gt;Node17</title>
<path fill="none" stroke="midnightblue" d="M747.16,-144.46C726.16,-134.62 691.94,-118.59 664.81,-105.88"/>
<polygon fill="midnightblue" stroke="midnightblue" points="666.08,-102.61 655.54,-101.53 663.11,-108.95 666.08,-102.61"/>
</g>
<!-- Node18 -->
<g id="node18" class="node">
<title>Node18</title>
<g id="a_node18"><a xlink:href="common_8h.html" target="_top" xlink:title=" ">
<polygon fill="white" stroke="black" points="894.28,-75.5 894.28,-95.5 998.62,-95.5 998.62,-75.5 894.28,-75.5"/>
<text text-anchor="middle" x="946.45" y="-82.5" font-family="Helvetica,sans-Serif" font-size="10.00">haldls/vx/common.h</text>
</a>
</g>
</g>
<!-- Node13&#45;&gt;Node18 -->
<g id="edge24" class="edge">
<title>Node13&#45;&gt;Node18</title>
<path fill="none" stroke="midnightblue" d="M790.73,-144.46C822.13,-132.78 877,-112.35 912.52,-99.13"/>
<polygon fill="midnightblue" stroke="midnightblue" points="913.83,-102.38 921.98,-95.61 911.39,-95.82 913.83,-102.38"/>
</g>
<!-- Node13&#45;&gt;Node21 -->
<g id="edge28" class="edge">
<title>Node13&#45;&gt;Node21</title>
<path fill="none" stroke="midnightblue" d="M813.79,-144.46C862.56,-134.9 940.67,-118.88 1007.45,-102 1011.86,-100.89 1016.45,-99.65 1021.01,-98.38"/>
<polygon fill="midnightblue" stroke="midnightblue" points="1022.19,-101.69 1030.84,-95.58 1020.27,-94.96 1022.19,-101.69"/>
</g>
<!-- Node13&#45;&gt;Node27 -->
<g id="edge39" class="edge">
<title>Node13&#45;&gt;Node27</title>
<path fill="none" stroke="midnightblue" d="M818.33,-148.07C891.72,-140.02 1029.92,-123.53 1146.45,-102 1153.06,-100.78 1160.01,-99.33 1166.81,-97.82"/>
<polygon fill="midnightblue" stroke="midnightblue" points="1167.65,-101.22 1176.62,-95.58 1166.09,-94.39 1167.65,-101.22"/>
</g>
<!-- Node19 -->
<g id="node19" class="node">
<title>Node19</title>
<g id="a_node19"><a xlink:title=" ">
<polygon fill="white" stroke="#bfbfbf" points="763.39,-6.5 763.39,-26.5 825.51,-26.5 825.51,-6.5 763.39,-6.5"/>
<text text-anchor="middle" x="794.45" y="-13.5" font-family="Helvetica,sans-Serif" font-size="10.00">type_traits</text>
</a>
</g>
</g>
<!-- Node18&#45;&gt;Node19 -->
<g id="edge25" class="edge">
<title>Node18&#45;&gt;Node19</title>
<path fill="none" stroke="midnightblue" d="M925.95,-75.46C899.77,-63.93 854.28,-43.87 824.27,-30.64"/>
<polygon fill="midnightblue" stroke="midnightblue" points="825.67,-27.44 815.11,-26.61 822.85,-33.84 825.67,-27.44"/>
</g>
<!-- Node20 -->
<g id="node20" class="node">
<title>Node20</title>
<g id="a_node20"><a xlink:title=" ">
<polygon fill="white" stroke="#bfbfbf" points="707.06,-6.5 707.06,-26.5 745.84,-26.5 745.84,-6.5 707.06,-6.5"/>
<text text-anchor="middle" x="726.45" y="-13.5" font-family="Helvetica,sans-Serif" font-size="10.00">utility</text>
</a>
</g>
</g>
<!-- Node18&#45;&gt;Node20 -->
<g id="edge26" class="edge">
<title>Node18&#45;&gt;Node20</title>
<path fill="none" stroke="midnightblue" d="M908.54,-75.49C860.99,-63.99 782.29,-44.24 754.45,-33 753.07,-32.44 751.66,-31.83 750.26,-31.18"/>
<polygon fill="midnightblue" stroke="midnightblue" points="751.73,-28 741.23,-26.56 748.54,-34.23 751.73,-28"/>
</g>
<!-- Node21&#45;&gt;Node2 -->
<g id="edge31" class="edge">
<title>Node21&#45;&gt;Node2</title>
<path fill="none" stroke="midnightblue" d="M1090.97,-75.48C1099.78,-73.11 1109.44,-70.73 1118.45,-69 1250.32,-43.6 1286.25,-56.61 1418.45,-33 1425.13,-31.81 1432.14,-30.35 1438.99,-28.81"/>
<polygon fill="midnightblue" stroke="midnightblue" points="1439.91,-32.2 1448.86,-26.53 1438.33,-25.38 1439.91,-32.2"/>
</g>
<!-- Node21&#45;&gt;Node9 -->
<g id="edge32" class="edge">
<title>Node21&#45;&gt;Node9</title>
<path fill="none" stroke="midnightblue" d="M1033.46,-75.5C1025.2,-73.04 1016.02,-70.61 1007.45,-69 828.12,-35.23 779.03,-59.28 598.45,-33 590.02,-31.77 581.12,-30.21 572.49,-28.54"/>
<polygon fill="midnightblue" stroke="midnightblue" points="573.02,-25.08 562.53,-26.56 571.66,-31.95 573.02,-25.08"/>
</g>
<!-- Node21&#45;&gt;Node10 -->
<g id="edge33" class="edge">
<title>Node21&#45;&gt;Node10</title>
<path fill="none" stroke="midnightblue" d="M1032.89,-75.48C1024.77,-73.09 1015.81,-70.7 1007.45,-69 871.95,-41.5 833.72,-61.59 698.45,-33 693.75,-32.01 688.86,-30.76 684.06,-29.42"/>
<polygon fill="midnightblue" stroke="midnightblue" points="685,-26.04 674.42,-26.55 683.01,-32.75 685,-26.04"/>
</g>
<!-- Node21&#45;&gt;Node19 -->
<g id="edge34" class="edge">
<title>Node21&#45;&gt;Node19</title>
<path fill="none" stroke="midnightblue" d="M1031.13,-75.47C1023.46,-73.24 1015.17,-70.93 1007.45,-69 931.26,-49.96 909.76,-55.26 834.45,-33 831.48,-32.12 828.41,-31.12 825.36,-30.05"/>
<polygon fill="midnightblue" stroke="midnightblue" points="826.41,-26.71 815.82,-26.53 823.98,-33.27 826.41,-26.71"/>
</g>
<!-- Node22 -->
<g id="node22" class="node">
<title>Node22</title>
<g id="a_node22"><a xlink:title=" ">
<polygon fill="white" stroke="#bfbfbf" points="843.39,-6.5 843.39,-26.5 925.51,-26.5 925.51,-6.5 843.39,-6.5"/>
<text text-anchor="middle" x="884.45" y="-13.5" font-family="Helvetica,sans-Serif" font-size="10.00">fisch/vx/traits.h</text>
</a>
</g>
</g>
<!-- Node21&#45;&gt;Node22 -->
<g id="edge29" class="edge">
<title>Node21&#45;&gt;Node22</title>
<path fill="none" stroke="midnightblue" d="M1036.71,-75.46C1006.14,-63.83 952.81,-43.52 918.08,-30.3"/>
<polygon fill="midnightblue" stroke="midnightblue" points="918.96,-26.89 908.37,-26.61 916.47,-33.44 918.96,-26.89"/>
</g>
<!-- Node23 -->
<g id="node23" class="node">
<title>Node23</title>
<g id="a_node23"><a xlink:title=" ">
<polygon fill="white" stroke="#bfbfbf" points="943.22,-0.5 943.22,-32.5 1053.68,-32.5 1053.68,-0.5 943.22,-0.5"/>
<text text-anchor="start" x="951.22" y="-19.5" font-family="Helvetica,sans-Serif" font-size="10.00">fisch/vx/word_access</text>
<text text-anchor="middle" x="998.45" y="-7.5" font-family="Helvetica,sans-Serif" font-size="10.00">_type.h</text>
</a>
</g>
</g>
<!-- Node21&#45;&gt;Node23 -->
<g id="edge30" class="edge">
<title>Node21&#45;&gt;Node23</title>
<path fill="none" stroke="midnightblue" d="M1052.09,-75.46C1043.74,-66.44 1030.57,-52.21 1019.37,-40.1"/>
<polygon fill="midnightblue" stroke="midnightblue" points="1021.72,-37.5 1012.36,-32.53 1016.59,-42.25 1021.72,-37.5"/>
</g>
<!-- Node24 -->
<g id="node24" class="node">
<title>Node24</title>
<g id="a_node24"><a xlink:title=" ">
<polygon fill="white" stroke="#bfbfbf" points="1072.05,-0.5 1072.05,-32.5 1170.85,-32.5 1170.85,-0.5 1072.05,-0.5"/>
<text text-anchor="start" x="1080.05" y="-19.5" font-family="Helvetica,sans-Serif" font-size="10.00">boost/utility/enable</text>
<text text-anchor="middle" x="1121.45" y="-7.5" font-family="Helvetica,sans-Serif" font-size="10.00">_if.hpp</text>
</a>
</g>
</g>
<!-- Node21&#45;&gt;Node24 -->
<g id="edge35" class="edge">
<title>Node21&#45;&gt;Node24</title>
<path fill="none" stroke="midnightblue" d="M1068.68,-75.46C1076.89,-66.44 1089.85,-52.21 1100.87,-40.1"/>
<polygon fill="midnightblue" stroke="midnightblue" points="1103.62,-42.28 1107.76,-32.53 1098.44,-37.57 1103.62,-42.28"/>
</g>
<!-- Node25 -->
<g id="node25" class="node">
<title>Node25</title>
<g id="a_node25"><a xlink:title=" ">
<polygon fill="white" stroke="#bfbfbf" points="1189.1,-6.5 1189.1,-26.5 1281.8,-26.5 1281.8,-6.5 1189.1,-6.5"/>
<text text-anchor="middle" x="1235.45" y="-13.5" font-family="Helvetica,sans-Serif" font-size="10.00">boost/variant.hpp</text>
</a>
</g>
</g>
<!-- Node21&#45;&gt;Node25 -->
<g id="edge36" class="edge">
<title>Node21&#45;&gt;Node25</title>
<path fill="none" stroke="midnightblue" d="M1084.05,-75.46C1114.45,-63.83 1167.48,-43.52 1202.02,-30.3"/>
<polygon fill="midnightblue" stroke="midnightblue" points="1203.58,-33.45 1211.66,-26.61 1201.07,-26.91 1203.58,-33.45"/>
</g>
<!-- Node26 -->
<g id="node26" class="node">
<title>Node26</title>
<g id="a_node26"><a xlink:title=" ">
<polygon fill="white" stroke="#bfbfbf" points="1299.49,-6.5 1299.49,-26.5 1409.41,-26.5 1409.41,-6.5 1299.49,-6.5"/>
<text text-anchor="middle" x="1354.45" y="-13.5" font-family="Helvetica,sans-Serif" font-size="10.00">fisch/vx/container.def</text>
</a>
</g>
</g>
<!-- Node21&#45;&gt;Node26 -->
<g id="edge37" class="edge">
<title>Node21&#45;&gt;Node26</title>
<path fill="none" stroke="midnightblue" d="M1092.89,-75.5C1101.2,-73.28 1110.14,-70.98 1118.45,-69 1194.43,-50.91 1214.27,-50.19 1290.45,-33 1296.17,-31.71 1302.16,-30.32 1308.09,-28.91"/>
<polygon fill="midnightblue" stroke="midnightblue" points="1309.03,-32.28 1317.94,-26.55 1307.4,-25.47 1309.03,-32.28"/>
</g>
</g>
</svg>
