<?xml version="1.0" encoding="UTF-8" standalone="no"?>
<!DOCTYPE svg PUBLIC "-//W3C//DTD SVG 1.1//EN"
 "http://www.w3.org/Graphics/SVG/1.1/DTD/svg11.dtd">
<!-- Generated by graphviz version 2.46.0 (0)
 -->
<!-- Title: /jenkins/jenlib_workspaces_f9/bld_nightly&#45;haldls.YmxkX25pZ2h0bHktaGFsZGxzIzEzNzk.x/haldls/include/haldls/vx/v3/routing_crossbar.h Pages: 1 -->
<!--zoomable 260 -->
<svg id="main" version="1.1" xmlns="http://www.w3.org/2000/svg" xmlns:xlink="http://www.w3.org/1999/xlink" xml:space="preserve" onload="init(evt)">
<style type="text/css"><![CDATA[
.edge:hover path { stroke: red; }
.edge:hover polygon { stroke: red; fill: red; }
]]></style>
<script type="text/javascript"><![CDATA[
var edges = document.getElementsByTagName('g');
if (edges && edges.length) {
  for (var i=0;i<edges.length;i++) {
    if (edges[i].id.substr(0,4)=='edge') {
      edges[i].setAttribute('class','edge');
    }
  }
}
]]></script>
        <defs>
                <circle id="rim" cx="0" cy="0" r="7"/>
                <circle id="rim2" cx="0" cy="0" r="3.5"/>
                <g id="zoomPlus">
                        <use xlink:href="#rim" fill="#404040">
                                <set attributeName="fill" to="#808080" begin="zoomplus.mouseover" end="zoomplus.mouseout"/>
                        </use>
                        <path d="M-4,0h8M0,-4v8" fill="none" stroke="white" stroke-width="1.5" pointer-events="none"/>
                </g>
                <g id="zoomMin">
                        <use xlink:href="#rim" fill="#404040">
                                <set attributeName="fill" to="#808080" begin="zoomminus.mouseover" end="zoomminus.mouseout"/>
                        </use>
                        <path d="M-4,0h8" fill="none" stroke="white" stroke-width="1.5" pointer-events="none"/>
                </g>
                <g id="dirArrow">
                        <path fill="none" stroke="white" stroke-width="1.5" d="M0,-3.0v7 M-2.5,-0.5L0,-3.0L2.5,-0.5"/>
                </g>
               <g id="resetDef">
                       <use xlink:href="#rim2" fill="#404040">
                               <set attributeName="fill" to="#808080" begin="reset.mouseover" end="reset.mouseout"/>
                       </use>
               </g>
        </defs>

<script type="text/javascript">
var viewWidth = 1411;
var viewHeight = 260;
var sectionId = 'dynsection-0';
</script>
<script xlink:href="svgpan.js"/>
<svg id="graph" class="graph">
<g id="viewport">
<title>/jenkins/jenlib_workspaces_f9/bld_nightly&#45;haldls.YmxkX25pZ2h0bHktaGFsZGxzIzEzNzk.x/haldls/include/haldls/vx/v3/routing_crossbar.h</title>
<polygon fill="white" stroke="transparent" points="-4,4 -4,-256 1406.83,-256 1406.83,4 -4,4"/>
<!-- Node1 -->
<g id="node1" class="node">
<title>Node1</title>
<g id="a_node1"><a xlink:title=" ">
<polygon fill="#bfbfbf" stroke="black" points="797.24,-195.5 797.24,-251.5 988.28,-251.5 988.28,-195.5 797.24,-195.5"/>
<text text-anchor="start" x="805.24" y="-238.5" font-family="Helvetica,sans-Serif" font-size="10.00">/jenkins/jenlib_workspaces</text>
<text text-anchor="start" x="805.24" y="-226.5" font-family="Helvetica,sans-Serif" font-size="10.00">_f9/bld_nightly&#45;haldls.YmxkX25p</text>
<text text-anchor="start" x="805.24" y="-214.5" font-family="Helvetica,sans-Serif" font-size="10.00">Z2h0bHktaGFsZGxzIzEzNzk.x/haldls</text>
<text text-anchor="middle" x="892.76" y="-202.5" font-family="Helvetica,sans-Serif" font-size="10.00">/include/haldls/vx/v3/routing_crossbar.h</text>
</a>
</g>
</g>
<!-- Node2 -->
<g id="node2" class="node">
<title>Node2</title>
<g id="a_node2"><a xlink:href="genpybind_8h.html" target="_top" xlink:title=" ">
<polygon fill="white" stroke="black" points="1272.69,-6.5 1272.69,-26.5 1384.83,-26.5 1384.83,-6.5 1272.69,-6.5"/>
<text text-anchor="middle" x="1328.76" y="-13.5" font-family="Helvetica,sans-Serif" font-size="10.00">haldls/vx/genpybind.h</text>
</a>
</g>
</g>
<!-- Node1&#45;&gt;Node2 -->
<g id="edge1" class="edge">
<title>Node1&#45;&gt;Node2</title>
<path fill="none" stroke="midnightblue" d="M950.21,-195.49C1044.73,-151.05 1229.62,-64.11 1300.33,-30.87"/>
<polygon fill="midnightblue" stroke="midnightblue" points="1301.96,-33.97 1309.52,-26.54 1298.99,-27.63 1301.96,-33.97"/>
</g>
<!-- Node3 -->
<g id="node3" class="node">
<title>Node3</title>
<g id="a_node3"><a xlink:href="routing__crossbar_8h.html" target="_top" xlink:title=" ">
<polygon fill="white" stroke="black" points="599.52,-138.5 599.52,-158.5 739.99,-158.5 739.99,-138.5 599.52,-138.5"/>
<text text-anchor="middle" x="669.76" y="-145.5" font-family="Helvetica,sans-Serif" font-size="10.00">haldls/vx/routing_crossbar.h</text>
</a>
</g>
</g>
<!-- Node1&#45;&gt;Node3 -->
<g id="edge3" class="edge">
<title>Node1&#45;&gt;Node3</title>
<path fill="none" stroke="midnightblue" d="M810.04,-195.42C774.71,-183.86 735.25,-170.94 707.2,-161.76"/>
<polygon fill="midnightblue" stroke="midnightblue" points="708,-158.34 697.41,-158.55 705.82,-164.99 708,-158.34"/>
</g>
<!-- Node2&#45;&gt;Node2 -->
<g id="edge2" class="edge">
<title>Node2&#45;&gt;Node2</title>
<path fill="none" stroke="midnightblue" d="M1352.65,-26.54C1376.48,-32.26 1402.83,-28.92 1402.83,-16.5 1402.83,-5.78 1383.19,-1.82 1362.49,-4.62"/>
<polygon fill="midnightblue" stroke="midnightblue" points="1361.84,-1.18 1352.65,-6.46 1363.13,-8.06 1361.84,-1.18"/>
</g>
<!-- Node3&#45;&gt;Node2 -->
<g id="edge16" class="edge">
<title>Node3&#45;&gt;Node2</title>
<path fill="none" stroke="midnightblue" d="M740.32,-143.23C818.75,-137.56 948.86,-125.41 1058.76,-102 1145.9,-83.44 1245.12,-48.75 1295.54,-30.11"/>
<polygon fill="midnightblue" stroke="midnightblue" points="1296.81,-33.38 1304.96,-26.61 1294.36,-26.82 1296.81,-33.38"/>
</g>
<!-- Node4 -->
<g id="node4" class="node">
<title>Node4</title>
<g id="a_node4"><a xlink:title=" ">
<polygon fill="white" stroke="#bfbfbf" points="1011.37,-75.5 1011.37,-95.5 1050.15,-95.5 1050.15,-75.5 1011.37,-75.5"/>
<text text-anchor="middle" x="1030.76" y="-82.5" font-family="Helvetica,sans-Serif" font-size="10.00">array</text>
</a>
</g>
</g>
<!-- Node3&#45;&gt;Node4 -->
<g id="edge4" class="edge">
<title>Node3&#45;&gt;Node4</title>
<path fill="none" stroke="midnightblue" d="M740,-145.4C808.59,-141.61 915.13,-131.11 1002.76,-102 1004.39,-101.46 1006.03,-100.82 1007.67,-100.12"/>
<polygon fill="midnightblue" stroke="midnightblue" points="1009.31,-103.21 1016.69,-95.61 1006.18,-96.95 1009.31,-103.21"/>
</g>
<!-- Node5 -->
<g id="node5" class="node">
<title>Node5</title>
<g id="a_node5"><a xlink:title=" ">
<polygon fill="white" stroke="#bfbfbf" points="83.59,-6.5 83.59,-26.5 127.92,-26.5 127.92,-6.5 83.59,-6.5"/>
<text text-anchor="middle" x="105.76" y="-13.5" font-family="Helvetica,sans-Serif" font-size="10.00">iosfwd</text>
</a>
</g>
</g>
<!-- Node3&#45;&gt;Node5 -->
<g id="edge5" class="edge">
<title>Node3&#45;&gt;Node5</title>
<path fill="none" stroke="midnightblue" d="M599.31,-147.96C436.81,-148.3 46.55,-144.61 6.76,-102 -3.25,-91.28 -0.85,-81.54 6.76,-69 21.21,-45.2 50.64,-31.89 73.67,-24.79"/>
<polygon fill="midnightblue" stroke="midnightblue" points="74.74,-28.13 83.41,-22.04 72.84,-21.39 74.74,-28.13"/>
</g>
<!-- Node6 -->
<g id="node6" class="node">
<title>Node6</title>
<g id="a_node6"><a xlink:title=" ">
<polygon fill="white" stroke="#bfbfbf" points="15.86,-75.5 15.86,-95.5 149.66,-95.5 149.66,-75.5 15.86,-75.5"/>
<text text-anchor="middle" x="82.76" y="-82.5" font-family="Helvetica,sans-Serif" font-size="10.00">halco/common/geometry.h</text>
</a>
</g>
</g>
<!-- Node3&#45;&gt;Node6 -->
<g id="edge6" class="edge">
<title>Node3&#45;&gt;Node6</title>
<path fill="none" stroke="midnightblue" d="M599.21,-143.73C500.36,-137.88 315.19,-124.84 158.76,-102 150.33,-100.77 141.43,-99.2 132.8,-97.54"/>
<polygon fill="midnightblue" stroke="midnightblue" points="133.33,-94.07 122.84,-95.55 131.96,-100.94 133.33,-94.07"/>
</g>
<!-- Node7 -->
<g id="node7" class="node">
<title>Node7</title>
<g id="a_node7"><a xlink:title=" ">
<polygon fill="white" stroke="#bfbfbf" points="167.63,-69.5 167.63,-101.5 275.88,-101.5 275.88,-69.5 167.63,-69.5"/>
<text text-anchor="start" x="175.63" y="-88.5" font-family="Helvetica,sans-Serif" font-size="10.00">halco/common/typed</text>
<text text-anchor="middle" x="221.76" y="-76.5" font-family="Helvetica,sans-Serif" font-size="10.00">_array.h</text>
</a>
</g>
</g>
<!-- Node3&#45;&gt;Node7 -->
<g id="edge7" class="edge">
<title>Node3&#45;&gt;Node7</title>
<path fill="none" stroke="midnightblue" d="M599.47,-141.82C524.18,-135.15 401.08,-122.53 286,-102.09"/>
<polygon fill="midnightblue" stroke="midnightblue" points="286.42,-98.61 275.96,-100.29 285.18,-105.5 286.42,-98.61"/>
</g>
<!-- Node8 -->
<g id="node8" class="node">
<title>Node8</title>
<g id="a_node8"><a xlink:title=" ">
<polygon fill="white" stroke="#bfbfbf" points="294.25,-69.5 294.25,-101.5 395.27,-101.5 395.27,-69.5 294.25,-69.5"/>
<text text-anchor="start" x="302.25" y="-88.5" font-family="Helvetica,sans-Serif" font-size="10.00">halco/hicann&#45;dls/vx</text>
<text text-anchor="middle" x="344.76" y="-76.5" font-family="Helvetica,sans-Serif" font-size="10.00">/event.h</text>
</a>
</g>
</g>
<!-- Node3&#45;&gt;Node8 -->
<g id="edge8" class="edge">
<title>Node3&#45;&gt;Node8</title>
<path fill="none" stroke="midnightblue" d="M607.92,-138.49C556.14,-130.59 480.12,-118.17 405.57,-102.3"/>
<polygon fill="midnightblue" stroke="midnightblue" points="406.05,-98.82 395.54,-100.14 404.58,-105.67 406.05,-98.82"/>
</g>
<!-- Node9 -->
<g id="node9" class="node">
<title>Node9</title>
<g id="a_node9"><a xlink:title=" ">
<polygon fill="white" stroke="#bfbfbf" points="412.97,-69.5 412.97,-101.5 514.54,-101.5 514.54,-69.5 412.97,-69.5"/>
<text text-anchor="start" x="420.97" y="-88.5" font-family="Helvetica,sans-Serif" font-size="10.00">halco/hicann&#45;dls/vx</text>
<text text-anchor="middle" x="463.76" y="-76.5" font-family="Helvetica,sans-Serif" font-size="10.00">/routing_crossbar.h</text>
</a>
</g>
</g>
<!-- Node3&#45;&gt;Node9 -->
<g id="edge9" class="edge">
<title>Node3&#45;&gt;Node9</title>
<path fill="none" stroke="midnightblue" d="M639.36,-138.5C609.26,-129.59 562.32,-115.69 524.55,-104.5"/>
<polygon fill="midnightblue" stroke="midnightblue" points="525.24,-101.06 514.66,-101.57 523.25,-107.77 525.24,-101.06"/>
</g>
<!-- Node10 -->
<g id="node10" class="node">
<title>Node10</title>
<g id="a_node10"><a xlink:href="cerealization_8h.html" target="_top" xlink:title=" ">
<polygon fill="white" stroke="black" points="532.08,-75.5 532.08,-95.5 641.43,-95.5 641.43,-75.5 532.08,-75.5"/>
<text text-anchor="middle" x="586.76" y="-82.5" font-family="Helvetica,sans-Serif" font-size="10.00">haldls/cerealization.h</text>
</a>
</g>
</g>
<!-- Node3&#45;&gt;Node10 -->
<g id="edge10" class="edge">
<title>Node3&#45;&gt;Node10</title>
<path fill="none" stroke="midnightblue" d="M657.51,-138.5C644.27,-128.77 622.95,-113.1 607.17,-101.5"/>
<polygon fill="midnightblue" stroke="midnightblue" points="609.19,-98.64 599.05,-95.54 605.04,-104.28 609.19,-98.64"/>
</g>
<!-- Node12 -->
<g id="node12" class="node">
<title>Node12</title>
<g id="a_node12"><a xlink:title=" ">
<polygon fill="white" stroke="#bfbfbf" points="511.25,-6.5 511.25,-26.5 592.26,-26.5 592.26,-6.5 511.25,-6.5"/>
<text text-anchor="middle" x="551.76" y="-13.5" font-family="Helvetica,sans-Serif" font-size="10.00">hate/visibility.h</text>
</a>
</g>
</g>
<!-- Node3&#45;&gt;Node12 -->
<g id="edge28" class="edge">
<title>Node3&#45;&gt;Node12</title>
<path fill="none" stroke="midnightblue" d="M669.89,-138.47C669.67,-122.71 667.1,-89.87 650.76,-69 636.49,-50.78 613.98,-38.35 594.03,-30.27"/>
<polygon fill="midnightblue" stroke="midnightblue" points="595.08,-26.93 584.49,-26.65 592.6,-33.47 595.08,-26.93"/>
</g>
<!-- Node15 -->
<g id="node15" class="node">
<title>Node15</title>
<g id="a_node15"><a xlink:href="traits_8h.html" target="_top" xlink:title=" ">
<polygon fill="white" stroke="black" points="697.92,-75.5 697.92,-95.5 785.6,-95.5 785.6,-75.5 697.92,-75.5"/>
<text text-anchor="middle" x="741.76" y="-82.5" font-family="Helvetica,sans-Serif" font-size="10.00">haldls/vx/traits.h</text>
</a>
</g>
</g>
<!-- Node3&#45;&gt;Node15 -->
<g id="edge17" class="edge">
<title>Node3&#45;&gt;Node15</title>
<path fill="none" stroke="midnightblue" d="M680.38,-138.5C691.65,-128.95 709.68,-113.67 723.29,-102.15"/>
<polygon fill="midnightblue" stroke="midnightblue" points="725.72,-104.67 731.09,-95.54 721.2,-99.33 725.72,-104.67"/>
</g>
<!-- Node22 -->
<g id="node22" class="node">
<title>Node22</title>
<g id="a_node22"><a xlink:title=" ">
<polygon fill="white" stroke="#bfbfbf" points="803.36,-75.5 803.36,-95.5 872.16,-95.5 872.16,-75.5 803.36,-75.5"/>
<text text-anchor="middle" x="837.76" y="-82.5" font-family="Helvetica,sans-Serif" font-size="10.00">hate/math.h</text>
</a>
</g>
</g>
<!-- Node3&#45;&gt;Node22 -->
<g id="edge27" class="edge">
<title>Node3&#45;&gt;Node22</title>
<path fill="none" stroke="midnightblue" d="M694.55,-138.5C723.33,-128.05 770.99,-110.74 803.35,-98.99"/>
<polygon fill="midnightblue" stroke="midnightblue" points="804.66,-102.24 812.87,-95.54 802.27,-95.66 804.66,-102.24"/>
</g>
<!-- Node23 -->
<g id="node23" class="node">
<title>Node23</title>
<g id="a_node23"><a xlink:title=" ">
<polygon fill="white" stroke="#bfbfbf" points="890.14,-75.5 890.14,-95.5 993.38,-95.5 993.38,-75.5 890.14,-75.5"/>
<text text-anchor="middle" x="941.76" y="-82.5" font-family="Helvetica,sans-Serif" font-size="10.00">hxcomm/vx/target.h</text>
</a>
</g>
</g>
<!-- Node3&#45;&gt;Node23 -->
<g id="edge29" class="edge">
<title>Node3&#45;&gt;Node23</title>
<path fill="none" stroke="midnightblue" d="M713.91,-138.47C756.67,-129.6 823.3,-115.49 880.76,-102 886.08,-100.75 891.64,-99.4 897.16,-98.03"/>
<polygon fill="midnightblue" stroke="midnightblue" points="898.12,-101.4 906.97,-95.57 896.42,-94.61 898.12,-101.4"/>
</g>
<!-- Node10&#45;&gt;Node5 -->
<g id="edge14" class="edge">
<title>Node10&#45;&gt;Node5</title>
<path fill="none" stroke="midnightblue" d="M553.25,-75.45C543.76,-73.11 533.4,-70.75 523.76,-69 390.77,-44.81 355.86,-49.95 221.76,-33 193.44,-29.42 161.27,-25.1 138,-21.93"/>
<polygon fill="midnightblue" stroke="midnightblue" points="138.36,-18.45 127.98,-20.57 137.42,-25.39 138.36,-18.45"/>
</g>
<!-- Node11 -->
<g id="node11" class="node">
<title>Node11</title>
<g id="a_node11"><a xlink:title=" ">
<polygon fill="white" stroke="#bfbfbf" points="410.13,-6.5 410.13,-26.5 493.38,-26.5 493.38,-6.5 410.13,-6.5"/>
<text text-anchor="middle" x="451.76" y="-13.5" font-family="Helvetica,sans-Serif" font-size="10.00">hate/type_list.h</text>
</a>
</g>
</g>
<!-- Node10&#45;&gt;Node11 -->
<g id="edge11" class="edge">
<title>Node10&#45;&gt;Node11</title>
<path fill="none" stroke="midnightblue" d="M568.55,-75.46C545.6,-64.08 505.94,-44.39 479.28,-31.16"/>
<polygon fill="midnightblue" stroke="midnightblue" points="480.62,-27.92 470.11,-26.61 477.51,-34.19 480.62,-27.92"/>
</g>
<!-- Node10&#45;&gt;Node12 -->
<g id="edge12" class="edge">
<title>Node10&#45;&gt;Node12</title>
<path fill="none" stroke="midnightblue" d="M582.04,-75.46C576.74,-65.33 568.02,-48.63 561.29,-35.75"/>
<polygon fill="midnightblue" stroke="midnightblue" points="564.36,-34.07 556.63,-26.82 558.16,-37.31 564.36,-34.07"/>
</g>
<!-- Node13 -->
<g id="node13" class="node">
<title>Node13</title>
<g id="a_node13"><a xlink:title=" ">
<polygon fill="white" stroke="#bfbfbf" points="230.31,-6.5 230.31,-26.5 275.2,-26.5 275.2,-6.5 230.31,-6.5"/>
<text text-anchor="middle" x="252.76" y="-13.5" font-family="Helvetica,sans-Serif" font-size="10.00">cstdint</text>
</a>
</g>
</g>
<!-- Node10&#45;&gt;Node13 -->
<g id="edge13" class="edge">
<title>Node10&#45;&gt;Node13</title>
<path fill="none" stroke="midnightblue" d="M552.55,-75.48C543.25,-73.19 533.15,-70.86 523.76,-69 418.38,-48.15 387.37,-64.77 284.76,-33 282.6,-32.33 280.41,-31.54 278.23,-30.67"/>
<polygon fill="midnightblue" stroke="midnightblue" points="279.54,-27.42 268.98,-26.53 276.68,-33.81 279.54,-27.42"/>
</g>
<!-- Node14 -->
<g id="node14" class="node">
<title>Node14</title>
<g id="a_node14"><a xlink:title=" ">
<polygon fill="white" stroke="#bfbfbf" points="293.64,-6.5 293.64,-26.5 391.88,-26.5 391.88,-6.5 293.64,-6.5"/>
<text text-anchor="middle" x="342.76" y="-13.5" font-family="Helvetica,sans-Serif" font-size="10.00">cereal/macros.hpp</text>
</a>
</g>
</g>
<!-- Node10&#45;&gt;Node14 -->
<g id="edge15" class="edge">
<title>Node10&#45;&gt;Node14</title>
<path fill="none" stroke="midnightblue" d="M553.85,-75.46C510.37,-63.53 433.71,-42.47 385.71,-29.29"/>
<polygon fill="midnightblue" stroke="midnightblue" points="386.49,-25.88 375.92,-26.61 384.64,-32.63 386.49,-25.88"/>
</g>
<!-- Node15&#45;&gt;Node2 -->
<g id="edge20" class="edge">
<title>Node15&#45;&gt;Node2</title>
<path fill="none" stroke="midnightblue" d="M768.73,-75.44C777,-72.98 786.18,-70.57 794.76,-69 1000.42,-31.46 1057.22,-65.35 1263.76,-33 1270.69,-31.91 1277.97,-30.48 1285.05,-28.91"/>
<polygon fill="midnightblue" stroke="midnightblue" points="1286.27,-32.23 1295.22,-26.56 1284.69,-25.41 1286.27,-32.23"/>
</g>
<!-- Node15&#45;&gt;Node11 -->
<g id="edge21" class="edge">
<title>Node15&#45;&gt;Node11</title>
<path fill="none" stroke="midnightblue" d="M697.69,-76.27C649.33,-66.95 569.57,-50.75 501.76,-33 497.65,-31.93 493.38,-30.73 489.14,-29.49"/>
<polygon fill="midnightblue" stroke="midnightblue" points="489.98,-26.09 479.4,-26.55 487.97,-32.79 489.98,-26.09"/>
</g>
<!-- Node15&#45;&gt;Node12 -->
<g id="edge22" class="edge">
<title>Node15&#45;&gt;Node12</title>
<path fill="none" stroke="midnightblue" d="M716.13,-75.46C682.85,-63.73 624.57,-43.18 587.1,-29.96"/>
<polygon fill="midnightblue" stroke="midnightblue" points="588.18,-26.63 577.58,-26.61 585.85,-33.23 588.18,-26.63"/>
</g>
<!-- Node16 -->
<g id="node16" class="node">
<title>Node16</title>
<g id="a_node16"><a xlink:title=" ">
<polygon fill="white" stroke="#bfbfbf" points="848.7,-6.5 848.7,-26.5 930.82,-26.5 930.82,-6.5 848.7,-6.5"/>
<text text-anchor="middle" x="889.76" y="-13.5" font-family="Helvetica,sans-Serif" font-size="10.00">fisch/vx/traits.h</text>
</a>
</g>
</g>
<!-- Node15&#45;&gt;Node16 -->
<g id="edge18" class="edge">
<title>Node15&#45;&gt;Node16</title>
<path fill="none" stroke="midnightblue" d="M761.72,-75.46C787.1,-63.98 831.12,-44.05 860.34,-30.82"/>
<polygon fill="midnightblue" stroke="midnightblue" points="861.97,-33.92 869.64,-26.61 859.09,-27.54 861.97,-33.92"/>
</g>
<!-- Node17 -->
<g id="node17" class="node">
<title>Node17</title>
<g id="a_node17"><a xlink:title=" ">
<polygon fill="white" stroke="#bfbfbf" points="948.53,-0.5 948.53,-32.5 1058.99,-32.5 1058.99,-0.5 948.53,-0.5"/>
<text text-anchor="start" x="956.53" y="-19.5" font-family="Helvetica,sans-Serif" font-size="10.00">fisch/vx/word_access</text>
<text text-anchor="middle" x="1003.76" y="-7.5" font-family="Helvetica,sans-Serif" font-size="10.00">_type.h</text>
</a>
</g>
</g>
<!-- Node15&#45;&gt;Node17 -->
<g id="edge19" class="edge">
<title>Node15&#45;&gt;Node17</title>
<path fill="none" stroke="midnightblue" d="M771.96,-75.42C779.4,-73.26 787.35,-70.99 794.76,-69 808.76,-65.23 882.58,-47.11 938.56,-33.42"/>
<polygon fill="midnightblue" stroke="midnightblue" points="939.55,-36.78 948.43,-31 937.89,-29.98 939.55,-36.78"/>
</g>
<!-- Node18 -->
<g id="node18" class="node">
<title>Node18</title>
<g id="a_node18"><a xlink:title=" ">
<polygon fill="white" stroke="#bfbfbf" points="1076.7,-6.5 1076.7,-26.5 1138.82,-26.5 1138.82,-6.5 1076.7,-6.5"/>
<text text-anchor="middle" x="1107.76" y="-13.5" font-family="Helvetica,sans-Serif" font-size="10.00">type_traits</text>
</a>
</g>
</g>
<!-- Node15&#45;&gt;Node18 -->
<g id="edge23" class="edge">
<title>Node15&#45;&gt;Node18</title>
<path fill="none" stroke="midnightblue" d="M769.61,-75.48C777.66,-73.12 786.5,-70.74 794.76,-69 914.51,-43.75 949.19,-63.33 1067.76,-33 1071,-32.17 1074.35,-31.15 1077.65,-30.04"/>
<polygon fill="midnightblue" stroke="midnightblue" points="1079.12,-33.23 1087.3,-26.5 1076.71,-26.66 1079.12,-33.23"/>
</g>
<!-- Node19 -->
<g id="node19" class="node">
<title>Node19</title>
<g id="a_node19"><a xlink:title=" ">
<polygon fill="white" stroke="#bfbfbf" points="1156.36,-0.5 1156.36,-32.5 1255.16,-32.5 1255.16,-0.5 1156.36,-0.5"/>
<text text-anchor="start" x="1164.36" y="-19.5" font-family="Helvetica,sans-Serif" font-size="10.00">boost/utility/enable</text>
<text text-anchor="middle" x="1205.76" y="-7.5" font-family="Helvetica,sans-Serif" font-size="10.00">_if.hpp</text>
</a>
</g>
</g>
<!-- Node15&#45;&gt;Node19 -->
<g id="edge24" class="edge">
<title>Node15&#45;&gt;Node19</title>
<path fill="none" stroke="midnightblue" d="M769.03,-75.49C777.23,-73.06 786.29,-70.66 794.76,-69 946.36,-39.36 990.83,-60.54 1146.29,-33.09"/>
<polygon fill="midnightblue" stroke="midnightblue" points="1146.98,-36.52 1156.2,-31.3 1145.74,-29.63 1146.98,-36.52"/>
</g>
<!-- Node20 -->
<g id="node20" class="node">
<title>Node20</title>
<g id="a_node20"><a xlink:title=" ">
<polygon fill="white" stroke="#bfbfbf" points="610.41,-6.5 610.41,-26.5 703.1,-26.5 703.1,-6.5 610.41,-6.5"/>
<text text-anchor="middle" x="656.76" y="-13.5" font-family="Helvetica,sans-Serif" font-size="10.00">boost/variant.hpp</text>
</a>
</g>
</g>
<!-- Node15&#45;&gt;Node20 -->
<g id="edge25" class="edge">
<title>Node15&#45;&gt;Node20</title>
<path fill="none" stroke="midnightblue" d="M730.29,-75.46C716.48,-64.57 693.04,-46.1 676.34,-32.94"/>
<polygon fill="midnightblue" stroke="midnightblue" points="678.33,-30.05 668.31,-26.61 674,-35.55 678.33,-30.05"/>
</g>
<!-- Node21 -->
<g id="node21" class="node">
<title>Node21</title>
<g id="a_node21"><a xlink:title=" ">
<polygon fill="white" stroke="#bfbfbf" points="720.8,-6.5 720.8,-26.5 830.71,-26.5 830.71,-6.5 720.8,-6.5"/>
<text text-anchor="middle" x="775.76" y="-13.5" font-family="Helvetica,sans-Serif" font-size="10.00">fisch/vx/container.def</text>
</a>
</g>
</g>
<!-- Node15&#45;&gt;Node21 -->
<g id="edge26" class="edge">
<title>Node15&#45;&gt;Node21</title>
<path fill="none" stroke="midnightblue" d="M746.34,-75.46C751.48,-65.33 759.96,-48.63 766.49,-35.75"/>
<polygon fill="midnightblue" stroke="midnightblue" points="769.62,-37.32 771.03,-26.82 763.38,-34.16 769.62,-37.32"/>
</g>
</g>
</svg>
        <g id="navigator" transform="translate(0 0)" fill="#404254">
                <rect fill="#f2f5e9" fill-opacity="0.5" stroke="#606060" stroke-width=".5" x="0" y="0" width="60" height="60"/>
                <use id="zoomplus" xlink:href="#zoomPlus" x="17" y="9" onmousedown="handleZoom(evt,'in')"/>
                <use id="zoomminus" xlink:href="#zoomMin" x="42" y="9" onmousedown="handleZoom(evt,'out')"/>
                <use id="reset" xlink:href="#resetDef" x="30" y="36" onmousedown="handleReset()"/>
                <g id="arrowUp" xlink:href="#dirArrow" transform="translate(30 24)" onmousedown="handlePan(0,-1)">
                  <use xlink:href="#rim" fill="#404040">
                        <set attributeName="fill" to="#808080" begin="arrowUp.mouseover" end="arrowUp.mouseout"/>
                  </use>
                  <path fill="none" stroke="white" stroke-width="1.5" d="M0,-3.0v7 M-2.5,-0.5L0,-3.0L2.5,-0.5"/>
                </g>
                <g id="arrowRight" xlink:href="#dirArrow" transform="rotate(90) translate(36 -43)" onmousedown="handlePan(1,0)">
                  <use xlink:href="#rim" fill="#404040">
                        <set attributeName="fill" to="#808080" begin="arrowRight.mouseover" end="arrowRight.mouseout"/>
                  </use>
                  <path fill="none" stroke="white" stroke-width="1.5" d="M0,-3.0v7 M-2.5,-0.5L0,-3.0L2.5,-0.5"/>
                </g>
                <g id="arrowDown" xlink:href="#dirArrow" transform="rotate(180) translate(-30 -48)" onmousedown="handlePan(0,1)">
                  <use xlink:href="#rim" fill="#404040">
                        <set attributeName="fill" to="#808080" begin="arrowDown.mouseover" end="arrowDown.mouseout"/>
                  </use>
                  <path fill="none" stroke="white" stroke-width="1.5" d="M0,-3.0v7 M-2.5,-0.5L0,-3.0L2.5,-0.5"/>
                </g>
                <g id="arrowLeft" xlink:href="#dirArrow" transform="rotate(270) translate(-36 17)" onmousedown="handlePan(-1,0)">
                  <use xlink:href="#rim" fill="#404040">
                        <set attributeName="fill" to="#808080" begin="arrowLeft.mouseover" end="arrowLeft.mouseout"/>
                  </use>
                  <path fill="none" stroke="white" stroke-width="1.5" d="M0,-3.0v7 M-2.5,-0.5L0,-3.0L2.5,-0.5"/>
                </g>
        </g>
        <svg viewBox="0 0 15 15" width="100%" height="30px" preserveAspectRatio="xMaxYMin meet">
         <g id="arrow_out" transform="scale(0.3 0.3)">
          <a xlink:href="v3_2routing__crossbar_8h__incl_org.svg" target="_base">
           <rect id="button" ry="5" rx="5" y="6" x="6" height="38" width="38"
                fill="#f2f5e9" fill-opacity="0.5" stroke="#606060" stroke-width="1.0"/>
           <path id="arrow"
             d="M 11.500037,31.436501 C 11.940474,20.09759 22.043105,11.32322 32.158766,21.979434 L 37.068811,17.246167 C 37.068811,17.246167 37.088388,32 37.088388,32 L 22.160133,31.978069 C 22.160133,31.978069 26.997745,27.140456 26.997745,27.140456 C 18.528582,18.264221 13.291696,25.230495 11.500037,31.436501 z"
             style="fill:#404040;"/>
          </a>
         </g>
        </svg>
</svg>
