<?xml version="1.0" encoding="UTF-8" standalone="no"?>
<!DOCTYPE svg PUBLIC "-//W3C//DTD SVG 1.1//EN"
 "http://www.w3.org/Graphics/SVG/1.1/DTD/svg11.dtd">
<!-- Generated by graphviz version 2.46.0 (0)
 -->
<!-- Title: /jenkins/jenlib_workspaces_f9/bld_nightly&#45;haldls.YmxkX25pZ2h0bHktaGFsZGxzIzEzNzk.x/haldls/include/haldls/vx/vector_generator.h Pages: 1 -->
<svg width="410pt" height="437pt"
 viewBox="0.00 0.00 410.16 437.00" xmlns="http://www.w3.org/2000/svg" xmlns:xlink="http://www.w3.org/1999/xlink">
<g id="graph0" class="graph" transform="scale(1 1) rotate(0) translate(4 433)">
<title>/jenkins/jenlib_workspaces_f9/bld_nightly&#45;haldls.YmxkX25pZ2h0bHktaGFsZGxzIzEzNzk.x/haldls/include/haldls/vx/vector_generator.h</title>
<polygon fill="white" stroke="transparent" points="-4,4 -4,-433 406.16,-433 406.16,4 -4,4"/>
<!-- Node1 -->
<g id="node1" class="node">
<title>Node1</title>
<g id="a_node1"><a xlink:title=" ">
<polygon fill="#bfbfbf" stroke="black" points="110.57,-372.5 110.57,-428.5 291.59,-428.5 291.59,-372.5 110.57,-372.5"/>
<text text-anchor="start" x="118.57" y="-415.5" font-family="Helvetica,sans-Serif" font-size="10.00">/jenkins/jenlib_workspaces</text>
<text text-anchor="start" x="118.57" y="-403.5" font-family="Helvetica,sans-Serif" font-size="10.00">_f9/bld_nightly&#45;haldls.YmxkX25p</text>
<text text-anchor="start" x="118.57" y="-391.5" font-family="Helvetica,sans-Serif" font-size="10.00">Z2h0bHktaGFsZGxzIzEzNzk.x/haldls</text>
<text text-anchor="middle" x="201.08" y="-379.5" font-family="Helvetica,sans-Serif" font-size="10.00">/include/haldls/vx/vector_generator.h</text>
</a>
</g>
</g>
<!-- Node2 -->
<g id="node2" class="node">
<title>Node2</title>
<g id="a_node2"><a xlink:href="v2_2vector__generator_8h.html" target="_top" xlink:title=" ">
<polygon fill="white" stroke="black" points="0,-279.5 0,-335.5 192.16,-335.5 192.16,-279.5 0,-279.5"/>
<text text-anchor="start" x="8" y="-322.5" font-family="Helvetica,sans-Serif" font-size="10.00">/jenkins/jenlib_workspaces</text>
<text text-anchor="start" x="8" y="-310.5" font-family="Helvetica,sans-Serif" font-size="10.00">_f9/bld_nightly&#45;haldls.YmxkX25p</text>
<text text-anchor="start" x="8" y="-298.5" font-family="Helvetica,sans-Serif" font-size="10.00">Z2h0bHktaGFsZGxzIzEzNzk.x/haldls</text>
<text text-anchor="middle" x="96.08" y="-286.5" font-family="Helvetica,sans-Serif" font-size="10.00">/include/haldls/vx/v2/vector_generator.h</text>
</a>
</g>
</g>
<!-- Node1&#45;&gt;Node2 -->
<g id="edge1" class="edge">
<title>Node1&#45;&gt;Node2</title>
<path fill="none" stroke="midnightblue" d="M162.1,-365.72C150.65,-355.79 138.27,-345.06 127.36,-335.61"/>
<polygon fill="midnightblue" stroke="midnightblue" points="160.01,-368.54 169.86,-372.44 164.59,-363.25 160.01,-368.54"/>
</g>
<!-- Node6 -->
<g id="node6" class="node">
<title>Node6</title>
<g id="a_node6"><a xlink:href="v3_2vector__generator_8h.html" target="_top" xlink:title=" ">
<polygon fill="white" stroke="black" points="210,-279.5 210,-335.5 402.16,-335.5 402.16,-279.5 210,-279.5"/>
<text text-anchor="start" x="218" y="-322.5" font-family="Helvetica,sans-Serif" font-size="10.00">/jenkins/jenlib_workspaces</text>
<text text-anchor="start" x="218" y="-310.5" font-family="Helvetica,sans-Serif" font-size="10.00">_f9/bld_nightly&#45;haldls.YmxkX25p</text>
<text text-anchor="start" x="218" y="-298.5" font-family="Helvetica,sans-Serif" font-size="10.00">Z2h0bHktaGFsZGxzIzEzNzk.x/haldls</text>
<text text-anchor="middle" x="306.08" y="-286.5" font-family="Helvetica,sans-Serif" font-size="10.00">/include/haldls/vx/v3/vector_generator.h</text>
</a>
</g>
</g>
<!-- Node1&#45;&gt;Node6 -->
<g id="edge5" class="edge">
<title>Node1&#45;&gt;Node6</title>
<path fill="none" stroke="midnightblue" d="M240.05,-365.72C251.51,-355.79 263.89,-345.06 274.8,-335.61"/>
<polygon fill="midnightblue" stroke="midnightblue" points="237.56,-363.25 232.3,-372.44 242.15,-368.54 237.56,-363.25"/>
</g>
<!-- Node3 -->
<g id="node3" class="node">
<title>Node3</title>
<g id="a_node3"><a xlink:href="v2_2container_8h.html" target="_top" xlink:title=" ">
<polygon fill="white" stroke="black" points="5.57,-186.5 5.57,-242.5 186.59,-242.5 186.59,-186.5 5.57,-186.5"/>
<text text-anchor="start" x="13.57" y="-229.5" font-family="Helvetica,sans-Serif" font-size="10.00">/jenkins/jenlib_workspaces</text>
<text text-anchor="start" x="13.57" y="-217.5" font-family="Helvetica,sans-Serif" font-size="10.00">_f9/bld_nightly&#45;haldls.YmxkX25p</text>
<text text-anchor="start" x="13.57" y="-205.5" font-family="Helvetica,sans-Serif" font-size="10.00">Z2h0bHktaGFsZGxzIzEzNzk.x/haldls</text>
<text text-anchor="middle" x="96.08" y="-193.5" font-family="Helvetica,sans-Serif" font-size="10.00">/include/haldls/vx/v2/container.h</text>
</a>
</g>
</g>
<!-- Node2&#45;&gt;Node3 -->
<g id="edge2" class="edge">
<title>Node2&#45;&gt;Node3</title>
<path fill="none" stroke="midnightblue" d="M96.08,-269.12C96.08,-260.3 96.08,-251.06 96.08,-242.78"/>
<polygon fill="midnightblue" stroke="midnightblue" points="92.58,-269.2 96.08,-279.2 99.58,-269.2 92.58,-269.2"/>
</g>
<!-- Node4 -->
<g id="node4" class="node">
<title>Node4</title>
<g id="a_node4"><a xlink:href="v2_2haldls_8h.html" target="_top" xlink:title=" ">
<polygon fill="white" stroke="black" points="5.57,-93.5 5.57,-149.5 186.59,-149.5 186.59,-93.5 5.57,-93.5"/>
<text text-anchor="start" x="13.57" y="-136.5" font-family="Helvetica,sans-Serif" font-size="10.00">/jenkins/jenlib_workspaces</text>
<text text-anchor="start" x="13.57" y="-124.5" font-family="Helvetica,sans-Serif" font-size="10.00">_f9/bld_nightly&#45;haldls.YmxkX25p</text>
<text text-anchor="start" x="13.57" y="-112.5" font-family="Helvetica,sans-Serif" font-size="10.00">Z2h0bHktaGFsZGxzIzEzNzk.x/haldls</text>
<text text-anchor="middle" x="96.08" y="-100.5" font-family="Helvetica,sans-Serif" font-size="10.00">/include/haldls/vx/v2/haldls.h</text>
</a>
</g>
</g>
<!-- Node3&#45;&gt;Node4 -->
<g id="edge3" class="edge">
<title>Node3&#45;&gt;Node4</title>
<path fill="none" stroke="midnightblue" d="M96.08,-176.12C96.08,-167.3 96.08,-158.06 96.08,-149.78"/>
<polygon fill="midnightblue" stroke="midnightblue" points="92.58,-176.2 96.08,-186.2 99.58,-176.2 92.58,-176.2"/>
</g>
<!-- Node5 -->
<g id="node5" class="node">
<title>Node5</title>
<g id="a_node5"><a xlink:href="v2_2pyhaldls_8h.html" target="_top" xlink:title=" ">
<polygon fill="white" stroke="black" points="5.57,-0.5 5.57,-56.5 186.59,-56.5 186.59,-0.5 5.57,-0.5"/>
<text text-anchor="start" x="13.57" y="-43.5" font-family="Helvetica,sans-Serif" font-size="10.00">/jenkins/jenlib_workspaces</text>
<text text-anchor="start" x="13.57" y="-31.5" font-family="Helvetica,sans-Serif" font-size="10.00">_f9/bld_nightly&#45;haldls.YmxkX25p</text>
<text text-anchor="start" x="13.57" y="-19.5" font-family="Helvetica,sans-Serif" font-size="10.00">Z2h0bHktaGFsZGxzIzEzNzk.x/haldls</text>
<text text-anchor="middle" x="96.08" y="-7.5" font-family="Helvetica,sans-Serif" font-size="10.00">/include/haldls/vx/v2/pyhaldls.h</text>
</a>
</g>
</g>
<!-- Node4&#45;&gt;Node5 -->
<g id="edge4" class="edge">
<title>Node4&#45;&gt;Node5</title>
<path fill="none" stroke="midnightblue" d="M96.08,-83.12C96.08,-74.3 96.08,-65.06 96.08,-56.78"/>
<polygon fill="midnightblue" stroke="midnightblue" points="92.58,-83.2 96.08,-93.2 99.58,-83.2 92.58,-83.2"/>
</g>
<!-- Node7 -->
<g id="node7" class="node">
<title>Node7</title>
<g id="a_node7"><a xlink:href="v3_2container_8h.html" target="_top" xlink:title=" ">
<polygon fill="white" stroke="black" points="215.57,-186.5 215.57,-242.5 396.59,-242.5 396.59,-186.5 215.57,-186.5"/>
<text text-anchor="start" x="223.57" y="-229.5" font-family="Helvetica,sans-Serif" font-size="10.00">/jenkins/jenlib_workspaces</text>
<text text-anchor="start" x="223.57" y="-217.5" font-family="Helvetica,sans-Serif" font-size="10.00">_f9/bld_nightly&#45;haldls.YmxkX25p</text>
<text text-anchor="start" x="223.57" y="-205.5" font-family="Helvetica,sans-Serif" font-size="10.00">Z2h0bHktaGFsZGxzIzEzNzk.x/haldls</text>
<text text-anchor="middle" x="306.08" y="-193.5" font-family="Helvetica,sans-Serif" font-size="10.00">/include/haldls/vx/v3/container.h</text>
</a>
</g>
</g>
<!-- Node6&#45;&gt;Node7 -->
<g id="edge6" class="edge">
<title>Node6&#45;&gt;Node7</title>
<path fill="none" stroke="midnightblue" d="M306.08,-269.12C306.08,-260.3 306.08,-251.06 306.08,-242.78"/>
<polygon fill="midnightblue" stroke="midnightblue" points="302.58,-269.2 306.08,-279.2 309.58,-269.2 302.58,-269.2"/>
</g>
<!-- Node8 -->
<g id="node8" class="node">
<title>Node8</title>
<g id="a_node8"><a xlink:href="v3_2haldls_8h.html" target="_top" xlink:title=" ">
<polygon fill="white" stroke="black" points="215.57,-93.5 215.57,-149.5 396.59,-149.5 396.59,-93.5 215.57,-93.5"/>
<text text-anchor="start" x="223.57" y="-136.5" font-family="Helvetica,sans-Serif" font-size="10.00">/jenkins/jenlib_workspaces</text>
<text text-anchor="start" x="223.57" y="-124.5" font-family="Helvetica,sans-Serif" font-size="10.00">_f9/bld_nightly&#45;haldls.YmxkX25p</text>
<text text-anchor="start" x="223.57" y="-112.5" font-family="Helvetica,sans-Serif" font-size="10.00">Z2h0bHktaGFsZGxzIzEzNzk.x/haldls</text>
<text text-anchor="middle" x="306.08" y="-100.5" font-family="Helvetica,sans-Serif" font-size="10.00">/include/haldls/vx/v3/haldls.h</text>
</a>
</g>
</g>
<!-- Node7&#45;&gt;Node8 -->
<g id="edge7" class="edge">
<title>Node7&#45;&gt;Node8</title>
<path fill="none" stroke="midnightblue" d="M306.08,-176.12C306.08,-167.3 306.08,-158.06 306.08,-149.78"/>
<polygon fill="midnightblue" stroke="midnightblue" points="302.58,-176.2 306.08,-186.2 309.58,-176.2 302.58,-176.2"/>
</g>
<!-- Node9 -->
<g id="node9" class="node">
<title>Node9</title>
<g id="a_node9"><a xlink:href="v3_2pyhaldls_8h.html" target="_top" xlink:title=" ">
<polygon fill="white" stroke="black" points="215.57,-0.5 215.57,-56.5 396.59,-56.5 396.59,-0.5 215.57,-0.5"/>
<text text-anchor="start" x="223.57" y="-43.5" font-family="Helvetica,sans-Serif" font-size="10.00">/jenkins/jenlib_workspaces</text>
<text text-anchor="start" x="223.57" y="-31.5" font-family="Helvetica,sans-Serif" font-size="10.00">_f9/bld_nightly&#45;haldls.YmxkX25p</text>
<text text-anchor="start" x="223.57" y="-19.5" font-family="Helvetica,sans-Serif" font-size="10.00">Z2h0bHktaGFsZGxzIzEzNzk.x/haldls</text>
<text text-anchor="middle" x="306.08" y="-7.5" font-family="Helvetica,sans-Serif" font-size="10.00">/include/haldls/vx/v3/pyhaldls.h</text>
</a>
</g>
</g>
<!-- Node8&#45;&gt;Node9 -->
<g id="edge8" class="edge">
<title>Node8&#45;&gt;Node9</title>
<path fill="none" stroke="midnightblue" d="M306.08,-83.12C306.08,-74.3 306.08,-65.06 306.08,-56.78"/>
<polygon fill="midnightblue" stroke="midnightblue" points="302.58,-83.2 306.08,-93.2 309.58,-83.2 302.58,-83.2"/>
</g>
</g>
</svg>
