<?xml version="1.0" encoding="UTF-8" standalone="no"?>
<!DOCTYPE svg PUBLIC "-//W3C//DTD SVG 1.1//EN"
 "http://www.w3.org/Graphics/SVG/1.1/DTD/svg11.dtd">
<!-- Generated by graphviz version 2.46.0 (0)
 -->
<!-- Title: /jenkins/jenlib_workspaces_f9/bld_nightly&#45;haldls.YmxkX25pZ2h0bHktaGFsZGxzIzEzNzk.x/haldls/include/haldls/vx/vector_generator.h Pages: 1 -->
<svg width="1535pt" height="341pt"
 viewBox="0.00 0.00 1535.18 341.00" xmlns="http://www.w3.org/2000/svg" xmlns:xlink="http://www.w3.org/1999/xlink">
<g id="graph0" class="graph" transform="scale(1 1) rotate(0) translate(4 337)">
<title>/jenkins/jenlib_workspaces_f9/bld_nightly&#45;haldls.YmxkX25pZ2h0bHktaGFsZGxzIzEzNzk.x/haldls/include/haldls/vx/vector_generator.h</title>
<polygon fill="white" stroke="transparent" points="-4,4 -4,-337 1531.18,-337 1531.18,4 -4,4"/>
<!-- Node1 -->
<g id="node1" class="node">
<title>Node1</title>
<g id="a_node1"><a xlink:title=" ">
<polygon fill="#bfbfbf" stroke="black" points="334.51,-276.5 334.51,-332.5 515.52,-332.5 515.52,-276.5 334.51,-276.5"/>
<text text-anchor="start" x="342.51" y="-319.5" font-family="Helvetica,sans-Serif" font-size="10.00">/jenkins/jenlib_workspaces</text>
<text text-anchor="start" x="342.51" y="-307.5" font-family="Helvetica,sans-Serif" font-size="10.00">_f9/bld_nightly&#45;haldls.YmxkX25p</text>
<text text-anchor="start" x="342.51" y="-295.5" font-family="Helvetica,sans-Serif" font-size="10.00">Z2h0bHktaGFsZGxzIzEzNzk.x/haldls</text>
<text text-anchor="middle" x="425.01" y="-283.5" font-family="Helvetica,sans-Serif" font-size="10.00">/include/haldls/vx/vector_generator.h</text>
</a>
</g>
</g>
<!-- Node2 -->
<g id="node2" class="node">
<title>Node2</title>
<g id="a_node2"><a xlink:title=" ">
<polygon fill="white" stroke="#bfbfbf" points="279.63,-75.5 279.63,-95.5 318.4,-95.5 318.4,-75.5 279.63,-75.5"/>
<text text-anchor="middle" x="299.01" y="-82.5" font-family="Helvetica,sans-Serif" font-size="10.00">array</text>
</a>
</g>
</g>
<!-- Node1&#45;&gt;Node2 -->
<g id="edge1" class="edge">
<title>Node1&#45;&gt;Node2</title>
<path fill="none" stroke="midnightblue" d="M459.79,-276.14C479.57,-257.09 498.02,-230.92 485.01,-207 476.03,-190.48 372.33,-128.94 323.79,-100.75"/>
<polygon fill="midnightblue" stroke="midnightblue" points="325.27,-97.57 314.86,-95.59 321.76,-103.63 325.27,-97.57"/>
</g>
<!-- Node3 -->
<g id="node3" class="node">
<title>Node3</title>
<g id="a_node3"><a xlink:title=" ">
<polygon fill="white" stroke="#bfbfbf" points="26.96,-213.5 26.96,-233.5 79.07,-233.5 79.07,-213.5 26.96,-213.5"/>
<text text-anchor="middle" x="53.01" y="-220.5" font-family="Helvetica,sans-Serif" font-size="10.00">ostream</text>
</a>
</g>
</g>
<!-- Node1&#45;&gt;Node3 -->
<g id="edge2" class="edge">
<title>Node1&#45;&gt;Node3</title>
<path fill="none" stroke="midnightblue" d="M334.5,-290.72C267.16,-280.12 173.4,-263.06 93.01,-240 90.03,-239.14 86.96,-238.16 83.91,-237.1"/>
<polygon fill="midnightblue" stroke="midnightblue" points="84.95,-233.76 74.36,-233.59 82.54,-240.33 84.95,-233.76"/>
</g>
<!-- Node4 -->
<g id="node4" class="node">
<title>Node4</title>
<g id="a_node4"><a xlink:title=" ">
<polygon fill="white" stroke="#bfbfbf" points="152.89,-69.5 152.89,-101.5 261.14,-101.5 261.14,-69.5 152.89,-69.5"/>
<text text-anchor="start" x="160.89" y="-88.5" font-family="Helvetica,sans-Serif" font-size="10.00">halco/common/typed</text>
<text text-anchor="middle" x="207.01" y="-76.5" font-family="Helvetica,sans-Serif" font-size="10.00">_array.h</text>
</a>
</g>
</g>
<!-- Node1&#45;&gt;Node4 -->
<g id="edge3" class="edge">
<title>Node1&#45;&gt;Node4</title>
<path fill="none" stroke="midnightblue" d="M334.2,-296.57C256.05,-288.5 151.9,-271.96 126.01,-240 91.99,-197.99 145.45,-139.46 180.48,-108.21"/>
<polygon fill="midnightblue" stroke="midnightblue" points="182.82,-110.81 188.06,-101.6 178.22,-105.53 182.82,-110.81"/>
</g>
<!-- Node5 -->
<g id="node5" class="node">
<title>Node5</title>
<g id="a_node5"><a xlink:title=" ">
<polygon fill="white" stroke="#bfbfbf" points="135.51,-207.5 135.51,-239.5 236.52,-239.5 236.52,-207.5 135.51,-207.5"/>
<text text-anchor="start" x="143.51" y="-226.5" font-family="Helvetica,sans-Serif" font-size="10.00">halco/hicann&#45;dls/vx</text>
<text text-anchor="middle" x="186.01" y="-214.5" font-family="Helvetica,sans-Serif" font-size="10.00">/omnibus.h</text>
</a>
</g>
</g>
<!-- Node1&#45;&gt;Node5 -->
<g id="edge4" class="edge">
<title>Node1&#45;&gt;Node5</title>
<path fill="none" stroke="midnightblue" d="M343.1,-276.42C309.44,-265.3 271.36,-252.71 241.13,-242.72"/>
<polygon fill="midnightblue" stroke="midnightblue" points="242.19,-239.38 231.6,-239.57 240,-246.03 242.19,-239.38"/>
</g>
<!-- Node6 -->
<g id="node6" class="node">
<title>Node6</title>
<g id="a_node6"><a xlink:title=" ">
<polygon fill="white" stroke="#bfbfbf" points="254.51,-207.5 254.51,-239.5 355.52,-239.5 355.52,-207.5 254.51,-207.5"/>
<text text-anchor="start" x="262.51" y="-226.5" font-family="Helvetica,sans-Serif" font-size="10.00">halco/hicann&#45;dls/vx</text>
<text text-anchor="middle" x="305.01" y="-214.5" font-family="Helvetica,sans-Serif" font-size="10.00">/quad.h</text>
</a>
</g>
</g>
<!-- Node1&#45;&gt;Node6 -->
<g id="edge5" class="edge">
<title>Node1&#45;&gt;Node6</title>
<path fill="none" stroke="midnightblue" d="M383.72,-276.31C368.22,-266.11 350.88,-254.69 336.42,-245.18"/>
<polygon fill="midnightblue" stroke="midnightblue" points="338.11,-242.1 327.84,-239.52 334.26,-247.95 338.11,-242.1"/>
</g>
<!-- Node7 -->
<g id="node7" class="node">
<title>Node7</title>
<g id="a_node7"><a xlink:title=" ">
<polygon fill="white" stroke="#bfbfbf" points="373.67,-207.5 373.67,-239.5 476.36,-239.5 476.36,-207.5 373.67,-207.5"/>
<text text-anchor="start" x="381.67" y="-226.5" font-family="Helvetica,sans-Serif" font-size="10.00">halco/hicann&#45;dls/vx</text>
<text text-anchor="middle" x="425.01" y="-214.5" font-family="Helvetica,sans-Serif" font-size="10.00">/vector_generator.h</text>
</a>
</g>
</g>
<!-- Node1&#45;&gt;Node7 -->
<g id="edge6" class="edge">
<title>Node1&#45;&gt;Node7</title>
<path fill="none" stroke="midnightblue" d="M425.01,-276.31C425.01,-267.65 425.01,-258.11 425.01,-249.6"/>
<polygon fill="midnightblue" stroke="midnightblue" points="428.51,-249.52 425.01,-239.52 421.51,-249.52 428.51,-249.52"/>
</g>
<!-- Node8 -->
<g id="node8" class="node">
<title>Node8</title>
<g id="a_node8"><a xlink:href="cerealization_8h.html" target="_top" xlink:title=" ">
<polygon fill="white" stroke="black" points="1387.34,-75.5 1387.34,-95.5 1496.69,-95.5 1496.69,-75.5 1387.34,-75.5"/>
<text text-anchor="middle" x="1442.01" y="-82.5" font-family="Helvetica,sans-Serif" font-size="10.00">haldls/cerealization.h</text>
</a>
</g>
</g>
<!-- Node1&#45;&gt;Node8 -->
<g id="edge7" class="edge">
<title>Node1&#45;&gt;Node8</title>
<path fill="none" stroke="midnightblue" d="M515.86,-302.67C739.52,-299.91 1303.73,-288.18 1373.01,-240 1418.49,-208.38 1434.45,-139.42 1439.67,-105.76"/>
<polygon fill="midnightblue" stroke="midnightblue" points="1443.15,-106.19 1441.06,-95.8 1436.21,-105.22 1443.15,-106.19"/>
</g>
<!-- Node10 -->
<g id="node10" class="node">
<title>Node10</title>
<g id="a_node10"><a xlink:title=" ">
<polygon fill="white" stroke="#bfbfbf" points="1120.51,-6.5 1120.51,-26.5 1201.52,-26.5 1201.52,-6.5 1120.51,-6.5"/>
<text text-anchor="middle" x="1161.01" y="-13.5" font-family="Helvetica,sans-Serif" font-size="10.00">hate/visibility.h</text>
</a>
</g>
</g>
<!-- Node1&#45;&gt;Node10 -->
<g id="edge51" class="edge">
<title>Node1&#45;&gt;Node10</title>
<path fill="none" stroke="midnightblue" d="M515.57,-297.82C708.76,-284.4 1154.3,-246.04 1284.01,-171 1328.78,-145.1 1371.12,-110.32 1340.01,-69 1324.52,-48.42 1258.99,-33.51 1211.7,-25.18"/>
<polygon fill="midnightblue" stroke="midnightblue" points="1212.06,-21.69 1201.61,-23.46 1210.88,-28.59 1212.06,-21.69"/>
</g>
<!-- Node14 -->
<g id="node14" class="node">
<title>Node14</title>
<g id="a_node14"><a xlink:href="genpybind_8h.html" target="_top" xlink:title=" ">
<polygon fill="white" stroke="black" points="48.94,-6.5 48.94,-26.5 161.09,-26.5 161.09,-6.5 48.94,-6.5"/>
<text text-anchor="middle" x="105.01" y="-13.5" font-family="Helvetica,sans-Serif" font-size="10.00">haldls/vx/genpybind.h</text>
</a>
</g>
</g>
<!-- Node1&#45;&gt;Node14 -->
<g id="edge13" class="edge">
<title>Node1&#45;&gt;Node14</title>
<path fill="none" stroke="midnightblue" d="M334.29,-302.54C227,-299.25 57.89,-286.58 18.01,-240 -36.75,-176.03 50.06,-73.59 88.34,-33.93"/>
<polygon fill="midnightblue" stroke="midnightblue" points="90.98,-36.24 95.5,-26.66 85.99,-31.33 90.98,-36.24"/>
</g>
<!-- Node15 -->
<g id="node15" class="node">
<title>Node15</title>
<g id="a_node15"><a xlink:href="padi_8h.html" target="_top" xlink:title=" ">
<polygon fill="white" stroke="black" points="762.56,-213.5 762.56,-233.5 847.47,-233.5 847.47,-213.5 762.56,-213.5"/>
<text text-anchor="middle" x="805.01" y="-220.5" font-family="Helvetica,sans-Serif" font-size="10.00">haldls/vx/padi.h</text>
</a>
</g>
</g>
<!-- Node1&#45;&gt;Node15 -->
<g id="edge15" class="edge">
<title>Node1&#45;&gt;Node15</title>
<path fill="none" stroke="midnightblue" d="M515.55,-284.68C589.58,-269.29 691.66,-248.06 752.73,-235.37"/>
<polygon fill="midnightblue" stroke="midnightblue" points="753.46,-238.79 762.54,-233.33 752.03,-231.94 753.46,-238.79"/>
</g>
<!-- Node25 -->
<g id="node25" class="node">
<title>Node25</title>
<g id="a_node25"><a xlink:href="traits_8h.html" target="_top" xlink:title=" ">
<polygon fill="white" stroke="black" points="526.18,-75.5 526.18,-95.5 613.85,-95.5 613.85,-75.5 526.18,-75.5"/>
<text text-anchor="middle" x="570.01" y="-82.5" font-family="Helvetica,sans-Serif" font-size="10.00">haldls/vx/traits.h</text>
</a>
</g>
</g>
<!-- Node1&#45;&gt;Node25 -->
<g id="edge50" class="edge">
<title>Node1&#45;&gt;Node25</title>
<path fill="none" stroke="midnightblue" d="M465.07,-276.25C478.06,-266 491.75,-253.53 502.01,-240 534.65,-196.99 555.66,-135.85 564.78,-105.34"/>
<polygon fill="midnightblue" stroke="midnightblue" points="568.19,-106.15 567.6,-95.57 561.47,-104.21 568.19,-106.15"/>
</g>
<!-- Node9 -->
<g id="node9" class="node">
<title>Node9</title>
<g id="a_node9"><a xlink:title=" ">
<polygon fill="white" stroke="#bfbfbf" points="860.39,-6.5 860.39,-26.5 943.64,-26.5 943.64,-6.5 860.39,-6.5"/>
<text text-anchor="middle" x="902.01" y="-13.5" font-family="Helvetica,sans-Serif" font-size="10.00">hate/type_list.h</text>
</a>
</g>
</g>
<!-- Node8&#45;&gt;Node9 -->
<g id="edge8" class="edge">
<title>Node8&#45;&gt;Node9</title>
<path fill="none" stroke="midnightblue" d="M1387.31,-75.59C1372.02,-73.26 1355.39,-70.88 1340.01,-69 1168.55,-48.02 1122.52,-66.29 953.01,-33 948.16,-32.05 943.11,-30.82 938.16,-29.47"/>
<polygon fill="midnightblue" stroke="midnightblue" points="938.81,-26.01 928.23,-26.58 936.85,-32.73 938.81,-26.01"/>
</g>
<!-- Node8&#45;&gt;Node10 -->
<g id="edge9" class="edge">
<title>Node8&#45;&gt;Node10</title>
<path fill="none" stroke="midnightblue" d="M1404.12,-75.46C1353.63,-63.43 1264.27,-42.12 1209.1,-28.96"/>
<polygon fill="midnightblue" stroke="midnightblue" points="1209.75,-25.52 1199.21,-26.61 1208.12,-32.33 1209.75,-25.52"/>
</g>
<!-- Node11 -->
<g id="node11" class="node">
<title>Node11</title>
<g id="a_node11"><a xlink:title=" ">
<polygon fill="white" stroke="#bfbfbf" points="1419.57,-6.5 1419.57,-26.5 1464.46,-26.5 1464.46,-6.5 1419.57,-6.5"/>
<text text-anchor="middle" x="1442.01" y="-13.5" font-family="Helvetica,sans-Serif" font-size="10.00">cstdint</text>
</a>
</g>
</g>
<!-- Node8&#45;&gt;Node11 -->
<g id="edge10" class="edge">
<title>Node8&#45;&gt;Node11</title>
<path fill="none" stroke="midnightblue" d="M1442.01,-75.46C1442.01,-65.63 1442.01,-49.61 1442.01,-36.9"/>
<polygon fill="midnightblue" stroke="midnightblue" points="1445.51,-36.82 1442.01,-26.82 1438.51,-36.82 1445.51,-36.82"/>
</g>
<!-- Node12 -->
<g id="node12" class="node">
<title>Node12</title>
<g id="a_node12"><a xlink:title=" ">
<polygon fill="white" stroke="#bfbfbf" points="1482.85,-6.5 1482.85,-26.5 1527.18,-26.5 1527.18,-6.5 1482.85,-6.5"/>
<text text-anchor="middle" x="1505.01" y="-13.5" font-family="Helvetica,sans-Serif" font-size="10.00">iosfwd</text>
</a>
</g>
</g>
<!-- Node8&#45;&gt;Node12 -->
<g id="edge11" class="edge">
<title>Node8&#45;&gt;Node12</title>
<path fill="none" stroke="midnightblue" d="M1450.51,-75.46C1460.41,-64.93 1476.98,-47.31 1489.26,-34.26"/>
<polygon fill="midnightblue" stroke="midnightblue" points="1491.95,-36.51 1496.25,-26.82 1486.85,-31.71 1491.95,-36.51"/>
</g>
<!-- Node13 -->
<g id="node13" class="node">
<title>Node13</title>
<g id="a_node13"><a xlink:title=" ">
<polygon fill="white" stroke="#bfbfbf" points="1302.9,-6.5 1302.9,-26.5 1401.13,-26.5 1401.13,-6.5 1302.9,-6.5"/>
<text text-anchor="middle" x="1352.01" y="-13.5" font-family="Helvetica,sans-Serif" font-size="10.00">cereal/macros.hpp</text>
</a>
</g>
</g>
<!-- Node8&#45;&gt;Node13 -->
<g id="edge12" class="edge">
<title>Node8&#45;&gt;Node13</title>
<path fill="none" stroke="midnightblue" d="M1429.88,-75.46C1415.25,-64.57 1390.44,-46.1 1372.75,-32.94"/>
<polygon fill="midnightblue" stroke="midnightblue" points="1374.36,-29.77 1364.25,-26.61 1370.18,-35.39 1374.36,-29.77"/>
</g>
<!-- Node14&#45;&gt;Node14 -->
<g id="edge14" class="edge">
<title>Node14&#45;&gt;Node14</title>
<path fill="none" stroke="midnightblue" d="M128.91,-26.54C152.74,-32.26 179.09,-28.92 179.09,-16.5 179.09,-5.78 159.45,-1.82 138.75,-4.62"/>
<polygon fill="midnightblue" stroke="midnightblue" points="138.1,-1.18 128.91,-6.46 139.38,-8.06 138.1,-1.18"/>
</g>
<!-- Node15&#45;&gt;Node2 -->
<g id="edge16" class="edge">
<title>Node15&#45;&gt;Node2</title>
<path fill="none" stroke="midnightblue" d="M762.36,-220.24C711.01,-216.07 623.27,-204.28 556.01,-171 535.97,-161.08 538.15,-147.74 518.01,-138 440.26,-100.37 408.28,-131.29 327.01,-102 325.58,-101.48 324.12,-100.9 322.68,-100.26"/>
<polygon fill="midnightblue" stroke="midnightblue" points="323.93,-96.97 313.42,-95.62 320.79,-103.23 323.93,-96.97"/>
</g>
<!-- Node15&#45;&gt;Node8 -->
<g id="edge20" class="edge">
<title>Node15&#45;&gt;Node8</title>
<path fill="none" stroke="midnightblue" d="M847.75,-223.31C932.82,-223.76 1128.56,-218.94 1284.01,-171 1336.32,-154.87 1391.37,-120.99 1420.67,-101.39"/>
<polygon fill="midnightblue" stroke="midnightblue" points="1422.94,-104.08 1429.25,-95.56 1419.01,-98.29 1422.94,-104.08"/>
</g>
<!-- Node15&#45;&gt;Node10 -->
<g id="edge48" class="edge">
<title>Node15&#45;&gt;Node10</title>
<path fill="none" stroke="midnightblue" d="M847.62,-220C919.54,-213.4 1064.72,-189.37 1142.01,-102 1157.93,-84.01 1161.38,-55.57 1161.73,-36.72"/>
<polygon fill="midnightblue" stroke="midnightblue" points="1165.23,-36.62 1161.63,-26.65 1158.23,-36.68 1165.23,-36.62"/>
</g>
<!-- Node15&#45;&gt;Node12 -->
<g id="edge17" class="edge">
<title>Node15&#45;&gt;Node12</title>
<path fill="none" stroke="midnightblue" d="M847.52,-222.43C938.24,-221.39 1156.96,-214.19 1334.01,-171 1414.03,-151.48 1459.87,-170.23 1506.01,-102 1519.08,-82.69 1515.54,-54.79 1510.97,-36.41"/>
<polygon fill="midnightblue" stroke="midnightblue" points="1514.29,-35.27 1508.21,-26.59 1507.55,-37.16 1514.29,-35.27"/>
</g>
<!-- Node15&#45;&gt;Node14 -->
<g id="edge21" class="edge">
<title>Node15&#45;&gt;Node14</title>
<path fill="none" stroke="midnightblue" d="M762.26,-219.81C631.78,-210.82 241.7,-178.03 144.01,-102 123.24,-85.83 113.11,-56.02 108.49,-36.47"/>
<polygon fill="midnightblue" stroke="midnightblue" points="111.9,-35.65 106.42,-26.58 105.05,-37.09 111.9,-35.65"/>
</g>
<!-- Node16 -->
<g id="node16" class="node">
<title>Node16</title>
<g id="a_node16"><a xlink:title=" ">
<polygon fill="white" stroke="#bfbfbf" points="336.11,-75.5 336.11,-95.5 469.91,-95.5 469.91,-75.5 336.11,-75.5"/>
<text text-anchor="middle" x="403.01" y="-82.5" font-family="Helvetica,sans-Serif" font-size="10.00">halco/common/geometry.h</text>
</a>
</g>
</g>
<!-- Node15&#45;&gt;Node16 -->
<g id="edge18" class="edge">
<title>Node15&#45;&gt;Node16</title>
<path fill="none" stroke="midnightblue" d="M778.49,-213.47C732.98,-198 637.1,-165.41 556.01,-138 516.12,-124.52 470.36,-109.12 439.35,-98.7"/>
<polygon fill="midnightblue" stroke="midnightblue" points="440.42,-95.37 429.83,-95.5 438.19,-102.01 440.42,-95.37"/>
</g>
<!-- Node17 -->
<g id="node17" class="node">
<title>Node17</title>
<g id="a_node17"><a xlink:title=" ">
<polygon fill="white" stroke="#bfbfbf" points="1150.51,-138.5 1150.51,-170.5 1251.52,-170.5 1251.52,-138.5 1150.51,-138.5"/>
<text text-anchor="start" x="1158.51" y="-157.5" font-family="Helvetica,sans-Serif" font-size="10.00">halco/hicann&#45;dls/vx</text>
<text text-anchor="middle" x="1201.01" y="-145.5" font-family="Helvetica,sans-Serif" font-size="10.00">/padi.h</text>
</a>
</g>
</g>
<!-- Node15&#45;&gt;Node17 -->
<g id="edge19" class="edge">
<title>Node15&#45;&gt;Node17</title>
<path fill="none" stroke="midnightblue" d="M847.53,-216.99C910.71,-208.55 1033.01,-191.26 1136.01,-171 1137.47,-170.71 1138.95,-170.42 1140.43,-170.11"/>
<polygon fill="midnightblue" stroke="midnightblue" points="1141.31,-173.5 1150.36,-167.99 1139.85,-166.66 1141.31,-173.5"/>
</g>
<!-- Node18 -->
<g id="node18" class="node">
<title>Node18</title>
<g id="a_node18"><a xlink:href="synapse_8h.html" target="_top" xlink:title=" ">
<polygon fill="white" stroke="black" points="753.39,-144.5 753.39,-164.5 856.64,-164.5 856.64,-144.5 753.39,-144.5"/>
<text text-anchor="middle" x="805.01" y="-151.5" font-family="Helvetica,sans-Serif" font-size="10.00">haldls/vx/synapse.h</text>
</a>
</g>
</g>
<!-- Node15&#45;&gt;Node18 -->
<g id="edge22" class="edge">
<title>Node15&#45;&gt;Node18</title>
<path fill="none" stroke="midnightblue" d="M805.01,-213.46C805.01,-203.63 805.01,-187.61 805.01,-174.9"/>
<polygon fill="midnightblue" stroke="midnightblue" points="808.51,-174.82 805.01,-164.82 801.51,-174.82 808.51,-174.82"/>
</g>
<!-- Node15&#45;&gt;Node25 -->
<g id="edge47" class="edge">
<title>Node15&#45;&gt;Node25</title>
<path fill="none" stroke="midnightblue" d="M791.57,-213.45C767.7,-197.51 716.2,-163.7 671.01,-138 646.94,-124.31 618.81,-110.11 598.37,-100.1"/>
<polygon fill="midnightblue" stroke="midnightblue" points="599.8,-96.9 589.28,-95.67 596.74,-103.2 599.8,-96.9"/>
</g>
<!-- Node31 -->
<g id="node31" class="node">
<title>Node31</title>
<g id="a_node31"><a xlink:title=" ">
<polygon fill="white" stroke="#bfbfbf" points="1227.4,-75.5 1227.4,-95.5 1330.63,-95.5 1330.63,-75.5 1227.4,-75.5"/>
<text text-anchor="middle" x="1279.01" y="-82.5" font-family="Helvetica,sans-Serif" font-size="10.00">hxcomm/vx/target.h</text>
</a>
</g>
</g>
<!-- Node15&#45;&gt;Node31 -->
<g id="edge49" class="edge">
<title>Node15&#45;&gt;Node31</title>
<path fill="none" stroke="midnightblue" d="M847.71,-220.49C955.21,-215.03 1230.7,-198.5 1261.01,-171 1279.03,-154.66 1281.44,-125.11 1280.79,-105.65"/>
<polygon fill="midnightblue" stroke="midnightblue" points="1284.28,-105.29 1280.15,-95.53 1277.29,-105.73 1284.28,-105.29"/>
</g>
<!-- Node18&#45;&gt;Node2 -->
<g id="edge23" class="edge">
<title>Node18&#45;&gt;Node2</title>
<path fill="none" stroke="midnightblue" d="M753.04,-150.51C646.21,-143.93 405.4,-126.8 327.01,-102 325.34,-101.47 323.65,-100.83 321.98,-100.13"/>
<polygon fill="midnightblue" stroke="midnightblue" points="323.28,-96.86 312.76,-95.53 320.15,-103.13 323.28,-96.86"/>
</g>
<!-- Node18&#45;&gt;Node4 -->
<g id="edge26" class="edge">
<title>Node18&#45;&gt;Node4</title>
<path fill="none" stroke="midnightblue" d="M753.15,-150.94C659.08,-145.77 454.02,-132.06 271.43,-101.9"/>
<polygon fill="midnightblue" stroke="midnightblue" points="271.81,-98.42 261.37,-100.22 270.66,-105.32 271.81,-98.42"/>
</g>
<!-- Node18&#45;&gt;Node8 -->
<g id="edge30" class="edge">
<title>Node18&#45;&gt;Node8</title>
<path fill="none" stroke="midnightblue" d="M856.76,-149.47C952.39,-141.81 1163.14,-123.93 1340.01,-102 1352.03,-100.51 1364.8,-98.73 1377.11,-96.91"/>
<polygon fill="midnightblue" stroke="midnightblue" points="1377.93,-100.32 1387.3,-95.38 1376.89,-93.4 1377.93,-100.32"/>
</g>
<!-- Node18&#45;&gt;Node10 -->
<g id="edge45" class="edge">
<title>Node18&#45;&gt;Node10</title>
<path fill="none" stroke="midnightblue" d="M856.67,-144.84C893.72,-137.18 943.95,-123.76 984.01,-102 1003.67,-91.32 1002.77,-80.4 1022.01,-69 1051.72,-51.4 1088.47,-38.1 1116.72,-29.43"/>
<polygon fill="midnightblue" stroke="midnightblue" points="1117.76,-32.77 1126.34,-26.55 1115.75,-26.06 1117.76,-32.77"/>
</g>
<!-- Node18&#45;&gt;Node12 -->
<g id="edge24" class="edge">
<title>Node18&#45;&gt;Node12</title>
<path fill="none" stroke="midnightblue" d="M856.71,-149.76C923.63,-143.99 1043.34,-130.44 1142.01,-102 1177.4,-91.8 1182.57,-79 1218.01,-69 1328.17,-37.93 1363.52,-66.35 1473.01,-33 1475.17,-32.34 1477.37,-31.56 1479.55,-30.69"/>
<polygon fill="midnightblue" stroke="midnightblue" points="1481.1,-33.83 1488.8,-26.56 1478.24,-27.44 1481.1,-33.83"/>
</g>
<!-- Node18&#45;&gt;Node14 -->
<g id="edge34" class="edge">
<title>Node18&#45;&gt;Node14</title>
<path fill="none" stroke="midnightblue" d="M753.34,-152.46C693.67,-149.45 593.88,-138.76 517.01,-102 496.83,-92.35 499.45,-78.1 479.01,-69 359.97,-15.97 316.79,-52.97 188.01,-33 179.08,-31.61 169.63,-30 160.43,-28.34"/>
<polygon fill="midnightblue" stroke="midnightblue" points="161.06,-24.89 150.59,-26.53 159.8,-31.78 161.06,-24.89"/>
</g>
<!-- Node18&#45;&gt;Node16 -->
<g id="edge25" class="edge">
<title>Node18&#45;&gt;Node16</title>
<path fill="none" stroke="midnightblue" d="M753.23,-145.68C689.71,-135.98 578.79,-118.67 484.01,-102 475.8,-100.56 467.14,-98.97 458.65,-97.37"/>
<polygon fill="midnightblue" stroke="midnightblue" points="459.28,-93.93 448.81,-95.51 457.98,-100.81 459.28,-93.93"/>
</g>
<!-- Node19 -->
<g id="node19" class="node">
<title>Node19</title>
<g id="a_node19"><a xlink:title=" ">
<polygon fill="white" stroke="#bfbfbf" points="1031.51,-69.5 1031.51,-101.5 1132.52,-101.5 1132.52,-69.5 1031.51,-69.5"/>
<text text-anchor="start" x="1039.51" y="-88.5" font-family="Helvetica,sans-Serif" font-size="10.00">halco/hicann&#45;dls/vx</text>
<text text-anchor="middle" x="1082.01" y="-76.5" font-family="Helvetica,sans-Serif" font-size="10.00">/capmem.h</text>
</a>
</g>
</g>
<!-- Node18&#45;&gt;Node19 -->
<g id="edge27" class="edge">
<title>Node18&#45;&gt;Node19</title>
<path fill="none" stroke="midnightblue" d="M842.37,-144.46C888.25,-133.37 966.68,-114.4 1021.27,-101.19"/>
<polygon fill="midnightblue" stroke="midnightblue" points="1022.28,-104.55 1031.17,-98.8 1020.63,-97.75 1022.28,-104.55"/>
</g>
<!-- Node20 -->
<g id="node20" class="node">
<title>Node20</title>
<g id="a_node20"><a xlink:title=" ">
<polygon fill="white" stroke="#bfbfbf" points="754.51,-69.5 754.51,-101.5 855.52,-101.5 855.52,-69.5 754.51,-69.5"/>
<text text-anchor="start" x="762.51" y="-88.5" font-family="Helvetica,sans-Serif" font-size="10.00">halco/hicann&#45;dls/vx</text>
<text text-anchor="middle" x="805.01" y="-76.5" font-family="Helvetica,sans-Serif" font-size="10.00">/switch_rows.h</text>
</a>
</g>
</g>
<!-- Node18&#45;&gt;Node20 -->
<g id="edge28" class="edge">
<title>Node18&#45;&gt;Node20</title>
<path fill="none" stroke="midnightblue" d="M805.01,-144.46C805.01,-136.04 805.01,-123.08 805.01,-111.55"/>
<polygon fill="midnightblue" stroke="midnightblue" points="808.51,-111.53 805.01,-101.53 801.51,-111.53 808.51,-111.53"/>
</g>
<!-- Node21 -->
<g id="node21" class="node">
<title>Node21</title>
<g id="a_node21"><a xlink:title=" ">
<polygon fill="white" stroke="#bfbfbf" points="873.51,-69.5 873.51,-101.5 974.52,-101.5 974.52,-69.5 873.51,-69.5"/>
<text text-anchor="start" x="881.51" y="-88.5" font-family="Helvetica,sans-Serif" font-size="10.00">halco/hicann&#45;dls/vx</text>
<text text-anchor="middle" x="924.01" y="-76.5" font-family="Helvetica,sans-Serif" font-size="10.00">/synapse.h</text>
</a>
</g>
</g>
<!-- Node18&#45;&gt;Node21 -->
<g id="edge29" class="edge">
<title>Node18&#45;&gt;Node21</title>
<path fill="none" stroke="midnightblue" d="M821.06,-144.46C838.24,-134.79 866.03,-119.15 888.41,-106.55"/>
<polygon fill="midnightblue" stroke="midnightblue" points="890.32,-109.49 897.31,-101.53 886.88,-103.39 890.32,-109.49"/>
</g>
<!-- Node22 -->
<g id="node22" class="node">
<title>Node22</title>
<g id="a_node22"><a xlink:href="common_8h.html" target="_top" xlink:title=" ">
<polygon fill="white" stroke="black" points="631.84,-75.5 631.84,-95.5 736.19,-95.5 736.19,-75.5 631.84,-75.5"/>
<text text-anchor="middle" x="684.01" y="-82.5" font-family="Helvetica,sans-Serif" font-size="10.00">haldls/vx/common.h</text>
</a>
</g>
</g>
<!-- Node18&#45;&gt;Node22 -->
<g id="edge31" class="edge">
<title>Node18&#45;&gt;Node22</title>
<path fill="none" stroke="midnightblue" d="M788.7,-144.46C768.31,-133.18 733.2,-113.74 709.32,-100.51"/>
<polygon fill="midnightblue" stroke="midnightblue" points="710.9,-97.39 700.46,-95.61 707.51,-103.51 710.9,-97.39"/>
</g>
<!-- Node18&#45;&gt;Node25 -->
<g id="edge35" class="edge">
<title>Node18&#45;&gt;Node25</title>
<path fill="none" stroke="midnightblue" d="M772.77,-144.47C736.37,-134.25 675.4,-117.07 623.01,-102 618.97,-100.84 614.76,-99.62 610.55,-98.39"/>
<polygon fill="midnightblue" stroke="midnightblue" points="611.41,-95 600.83,-95.56 609.45,-101.72 611.41,-95"/>
</g>
<!-- Node18&#45;&gt;Node31 -->
<g id="edge46" class="edge">
<title>Node18&#45;&gt;Node31</title>
<path fill="none" stroke="midnightblue" d="M856.8,-148.72C934.54,-141.16 1085.83,-124.9 1213.01,-102 1219.71,-100.8 1226.74,-99.34 1233.62,-97.82"/>
<polygon fill="midnightblue" stroke="midnightblue" points="1234.57,-101.2 1243.53,-95.55 1233.01,-94.37 1234.57,-101.2"/>
</g>
<!-- Node23 -->
<g id="node23" class="node">
<title>Node23</title>
<g id="a_node23"><a xlink:title=" ">
<polygon fill="white" stroke="#bfbfbf" points="779.95,-6.5 779.95,-26.5 842.07,-26.5 842.07,-6.5 779.95,-6.5"/>
<text text-anchor="middle" x="811.01" y="-13.5" font-family="Helvetica,sans-Serif" font-size="10.00">type_traits</text>
</a>
</g>
</g>
<!-- Node22&#45;&gt;Node23 -->
<g id="edge32" class="edge">
<title>Node22&#45;&gt;Node23</title>
<path fill="none" stroke="midnightblue" d="M701.14,-75.46C722.63,-64.13 759.71,-44.56 784.79,-31.34"/>
<polygon fill="midnightblue" stroke="midnightblue" points="786.54,-34.37 793.75,-26.61 783.27,-28.18 786.54,-34.37"/>
</g>
<!-- Node24 -->
<g id="node24" class="node">
<title>Node24</title>
<g id="a_node24"><a xlink:title=" ">
<polygon fill="white" stroke="#bfbfbf" points="961.63,-6.5 961.63,-26.5 1000.4,-26.5 1000.4,-6.5 961.63,-6.5"/>
<text text-anchor="middle" x="981.01" y="-13.5" font-family="Helvetica,sans-Serif" font-size="10.00">utility</text>
</a>
</g>
</g>
<!-- Node22&#45;&gt;Node24 -->
<g id="edge33" class="edge">
<title>Node22&#45;&gt;Node24</title>
<path fill="none" stroke="midnightblue" d="M717.78,-75.42C726.61,-73.19 736.14,-70.89 745.01,-69 836.77,-49.43 864.52,-64.15 953.01,-33 954.64,-32.43 956.27,-31.77 957.9,-31.05"/>
<polygon fill="midnightblue" stroke="midnightblue" points="959.56,-34.13 966.91,-26.51 956.41,-27.89 959.56,-34.13"/>
</g>
<!-- Node25&#45;&gt;Node9 -->
<g id="edge39" class="edge">
<title>Node25&#45;&gt;Node9</title>
<path fill="none" stroke="midnightblue" d="M598.45,-75.46C606.35,-73.14 614.97,-70.8 623.01,-69 723.12,-46.56 751.03,-55.97 851.01,-33 855.5,-31.97 860.16,-30.76 864.77,-29.47"/>
<polygon fill="midnightblue" stroke="midnightblue" points="866.06,-32.74 874.68,-26.57 864.09,-26.02 866.06,-32.74"/>
</g>
<!-- Node25&#45;&gt;Node10 -->
<g id="edge40" class="edge">
<title>Node25&#45;&gt;Node10</title>
<path fill="none" stroke="midnightblue" d="M597.28,-75.44C605.47,-73.02 614.54,-70.62 623.01,-69 792.25,-36.67 837.53,-49.74 1009.01,-33 1042.78,-29.7 1080.76,-25.83 1110.3,-22.78"/>
<polygon fill="midnightblue" stroke="midnightblue" points="1110.79,-26.25 1120.38,-21.74 1110.07,-19.29 1110.79,-26.25"/>
</g>
<!-- Node25&#45;&gt;Node14 -->
<g id="edge38" class="edge">
<title>Node25&#45;&gt;Node14</title>
<path fill="none" stroke="midnightblue" d="M539.51,-75.43C530.7,-73.06 521.03,-70.7 512.01,-69 369.62,-42.22 331.32,-54.31 188.01,-33 178.96,-31.65 169.39,-30.04 160.09,-28.38"/>
<polygon fill="midnightblue" stroke="midnightblue" points="160.61,-24.91 150.14,-26.55 159.35,-31.8 160.61,-24.91"/>
</g>
<!-- Node25&#45;&gt;Node23 -->
<g id="edge41" class="edge">
<title>Node25&#45;&gt;Node23</title>
<path fill="none" stroke="midnightblue" d="M599.94,-75.49C607.45,-73.3 615.51,-71.01 623.01,-69 688.41,-51.49 706.43,-53.27 771.01,-33 773.81,-32.12 776.7,-31.15 779.57,-30.13"/>
<polygon fill="midnightblue" stroke="midnightblue" points="781.04,-33.32 789.19,-26.55 778.6,-26.75 781.04,-33.32"/>
</g>
<!-- Node26 -->
<g id="node26" class="node">
<title>Node26</title>
<g id="a_node26"><a xlink:title=" ">
<polygon fill="white" stroke="#bfbfbf" points="434.96,-6.5 434.96,-26.5 517.07,-26.5 517.07,-6.5 434.96,-6.5"/>
<text text-anchor="middle" x="476.01" y="-13.5" font-family="Helvetica,sans-Serif" font-size="10.00">fisch/vx/traits.h</text>
</a>
</g>
</g>
<!-- Node25&#45;&gt;Node26 -->
<g id="edge36" class="edge">
<title>Node25&#45;&gt;Node26</title>
<path fill="none" stroke="midnightblue" d="M557.34,-75.46C541.92,-64.47 515.67,-45.76 497.17,-32.58"/>
<polygon fill="midnightblue" stroke="midnightblue" points="498.97,-29.56 488.79,-26.61 494.9,-35.26 498.97,-29.56"/>
</g>
<!-- Node27 -->
<g id="node27" class="node">
<title>Node27</title>
<g id="a_node27"><a xlink:title=" ">
<polygon fill="white" stroke="#bfbfbf" points="534.79,-0.5 534.79,-32.5 645.24,-32.5 645.24,-0.5 534.79,-0.5"/>
<text text-anchor="start" x="542.79" y="-19.5" font-family="Helvetica,sans-Serif" font-size="10.00">fisch/vx/word_access</text>
<text text-anchor="middle" x="590.01" y="-7.5" font-family="Helvetica,sans-Serif" font-size="10.00">_type.h</text>
</a>
</g>
</g>
<!-- Node25&#45;&gt;Node27 -->
<g id="edge37" class="edge">
<title>Node25&#45;&gt;Node27</title>
<path fill="none" stroke="midnightblue" d="M572.71,-75.46C575.25,-66.96 579.17,-53.82 582.64,-42.2"/>
<polygon fill="midnightblue" stroke="midnightblue" points="586.02,-43.12 585.53,-32.53 579.31,-41.11 586.02,-43.12"/>
</g>
<!-- Node28 -->
<g id="node28" class="node">
<title>Node28</title>
<g id="a_node28"><a xlink:title=" ">
<polygon fill="white" stroke="#bfbfbf" points="663.61,-0.5 663.61,-32.5 762.42,-32.5 762.42,-0.5 663.61,-0.5"/>
<text text-anchor="start" x="671.61" y="-19.5" font-family="Helvetica,sans-Serif" font-size="10.00">boost/utility/enable</text>
<text text-anchor="middle" x="713.01" y="-7.5" font-family="Helvetica,sans-Serif" font-size="10.00">_if.hpp</text>
</a>
</g>
</g>
<!-- Node25&#45;&gt;Node28 -->
<g id="edge42" class="edge">
<title>Node25&#45;&gt;Node28</title>
<path fill="none" stroke="midnightblue" d="M589.3,-75.46C610.3,-65.62 644.53,-49.59 671.66,-36.88"/>
<polygon fill="midnightblue" stroke="midnightblue" points="673.36,-39.95 680.93,-32.53 670.39,-33.61 673.36,-39.95"/>
</g>
<!-- Node29 -->
<g id="node29" class="node">
<title>Node29</title>
<g id="a_node29"><a xlink:title=" ">
<polygon fill="white" stroke="#bfbfbf" points="196.67,-6.5 196.67,-26.5 289.36,-26.5 289.36,-6.5 196.67,-6.5"/>
<text text-anchor="middle" x="243.01" y="-13.5" font-family="Helvetica,sans-Serif" font-size="10.00">boost/variant.hpp</text>
</a>
</g>
</g>
<!-- Node25&#45;&gt;Node29 -->
<g id="edge43" class="edge">
<title>Node25&#45;&gt;Node29</title>
<path fill="none" stroke="midnightblue" d="M538.24,-75.43C529.76,-73.17 520.57,-70.86 512.01,-69 417.76,-48.53 392.12,-54.11 298.01,-33 293,-31.88 287.76,-30.57 282.6,-29.21"/>
<polygon fill="midnightblue" stroke="midnightblue" points="283.41,-25.8 272.84,-26.54 281.56,-32.55 283.41,-25.8"/>
</g>
<!-- Node30 -->
<g id="node30" class="node">
<title>Node30</title>
<g id="a_node30"><a xlink:title=" ">
<polygon fill="white" stroke="#bfbfbf" points="307.06,-6.5 307.06,-26.5 416.97,-26.5 416.97,-6.5 307.06,-6.5"/>
<text text-anchor="middle" x="362.01" y="-13.5" font-family="Helvetica,sans-Serif" font-size="10.00">fisch/vx/container.def</text>
</a>
</g>
</g>
<!-- Node25&#45;&gt;Node30 -->
<g id="edge44" class="edge">
<title>Node25&#45;&gt;Node30</title>
<path fill="none" stroke="midnightblue" d="M541.96,-75.46C505.29,-63.65 440.91,-42.91 399.92,-29.71"/>
<polygon fill="midnightblue" stroke="midnightblue" points="400.88,-26.34 390.29,-26.61 398.73,-33 400.88,-26.34"/>
</g>
</g>
</svg>
