<?xml version="1.0" encoding="UTF-8" standalone="no"?>
<!DOCTYPE svg PUBLIC "-//W3C//DTD SVG 1.1//EN"
 "http://www.w3.org/Graphics/SVG/1.1/DTD/svg11.dtd">
<!-- Generated by graphviz version 2.46.0 (0)
 -->
<!-- Title: stadls::vx::v2::detail::InitGenerator Pages: 1 -->
<svg width="160pt" height="122pt"
 viewBox="0.00 0.00 159.59 122.00" xmlns="http://www.w3.org/2000/svg" xmlns:xlink="http://www.w3.org/1999/xlink">
<g id="graph0" class="graph" transform="scale(1 1) rotate(0) translate(4 118)">
<title>stadls::vx::v2::detail::InitGenerator</title>
<polygon fill="white" stroke="transparent" points="-4,4 -4,-118 155.59,-118 155.59,4 -4,4"/>
<!-- Node1 -->
<g id="node1" class="node">
<title>Node1</title>
<g id="a_node1"><a xlink:title=" ">
<polygon fill="#bfbfbf" stroke="black" points="24.17,-0.5 24.17,-32.5 127.42,-32.5 127.42,-0.5 24.17,-0.5"/>
<text text-anchor="start" x="32.17" y="-19.5" font-family="Helvetica,sans-Serif" font-size="10.00">stadls::vx::v2::detail</text>
<text text-anchor="middle" x="75.8" y="-7.5" font-family="Helvetica,sans-Serif" font-size="10.00">::InitGenerator</text>
</a>
</g>
</g>
<!-- Node2 -->
<g id="node2" class="node">
<title>Node2</title>
<g id="a_node2"><a xlink:href="structstadls_1_1vx_1_1v2_1_1detail_1_1_init_generator_1_1_highspeed_link.html" target="_top" xlink:title=" ">
<polygon fill="white" stroke="black" points="0,-81.5 0,-113.5 151.59,-113.5 151.59,-81.5 0,-81.5"/>
<text text-anchor="start" x="8" y="-100.5" font-family="Helvetica,sans-Serif" font-size="10.00">stadls::vx::v2::detail</text>
<text text-anchor="middle" x="75.8" y="-88.5" font-family="Helvetica,sans-Serif" font-size="10.00">::InitGenerator::HighspeedLink</text>
</a>
</g>
</g>
<!-- Node2&#45;&gt;Node1 -->
<g id="edge1" class="edge">
<title>Node2&#45;&gt;Node1</title>
<path fill="none" stroke="#9a32cd" stroke-dasharray="5,2" d="M75.8,-70.89C75.8,-58.28 75.8,-43.49 75.8,-32.69"/>
<polygon fill="#9a32cd" stroke="#9a32cd" points="72.3,-71.27 75.8,-81.27 79.3,-71.27 72.3,-71.27"/>
<text text-anchor="middle" x="110.53" y="-54" font-family="Helvetica,sans-Serif" font-size="10.00"> highspeed_link</text>
</g>
</g>
</svg>
