<?xml version="1.0" encoding="UTF-8" standalone="no"?>
<!DOCTYPE svg PUBLIC "-//W3C//DTD SVG 1.1//EN"
 "http://www.w3.org/Graphics/SVG/1.1/DTD/svg11.dtd">
<!-- Generated by graphviz version 2.46.0 (0)
 -->
<!-- Title: /jenkins/jenlib_workspaces_f9/bld_nightly&#45;haldls.YmxkX25pZ2h0bHktaGFsZGxzIzEzNzk.x/haldls/include/stadls/vx/decode.h Pages: 1 -->
<!--zoomable 191 -->
<svg id="main" version="1.1" xmlns="http://www.w3.org/2000/svg" xmlns:xlink="http://www.w3.org/1999/xlink" xml:space="preserve" onload="init(evt)">
<style type="text/css"><![CDATA[
.edge:hover path { stroke: red; }
.edge:hover polygon { stroke: red; fill: red; }
]]></style>
<script type="text/javascript"><![CDATA[
var edges = document.getElementsByTagName('g');
if (edges && edges.length) {
  for (var i=0;i<edges.length;i++) {
    if (edges[i].id.substr(0,4)=='edge') {
      edges[i].setAttribute('class','edge');
    }
  }
}
]]></script>
        <defs>
                <circle id="rim" cx="0" cy="0" r="7"/>
                <circle id="rim2" cx="0" cy="0" r="3.5"/>
                <g id="zoomPlus">
                        <use xlink:href="#rim" fill="#404040">
                                <set attributeName="fill" to="#808080" begin="zoomplus.mouseover" end="zoomplus.mouseout"/>
                        </use>
                        <path d="M-4,0h8M0,-4v8" fill="none" stroke="white" stroke-width="1.5" pointer-events="none"/>
                </g>
                <g id="zoomMin">
                        <use xlink:href="#rim" fill="#404040">
                                <set attributeName="fill" to="#808080" begin="zoomminus.mouseover" end="zoomminus.mouseout"/>
                        </use>
                        <path d="M-4,0h8" fill="none" stroke="white" stroke-width="1.5" pointer-events="none"/>
                </g>
                <g id="dirArrow">
                        <path fill="none" stroke="white" stroke-width="1.5" d="M0,-3.0v7 M-2.5,-0.5L0,-3.0L2.5,-0.5"/>
                </g>
               <g id="resetDef">
                       <use xlink:href="#rim2" fill="#404040">
                               <set attributeName="fill" to="#808080" begin="reset.mouseover" end="reset.mouseout"/>
                       </use>
               </g>
        </defs>

<script type="text/javascript">
var viewWidth = 1381;
var viewHeight = 191;
var sectionId = 'dynsection-0';
</script>
<script xlink:href="svgpan.js"/>
<svg id="graph" class="graph">
<g id="viewport">
<title>/jenkins/jenlib_workspaces_f9/bld_nightly&#45;haldls.YmxkX25pZ2h0bHktaGFsZGxzIzEzNzk.x/haldls/include/stadls/vx/decode.h</title>
<polygon fill="white" stroke="transparent" points="-4,4 -4,-187 1377.05,-187 1377.05,4 -4,4"/>
<!-- Node1 -->
<g id="node1" class="node">
<title>Node1</title>
<g id="a_node1"><a xlink:title=" ">
<polygon fill="#bfbfbf" stroke="black" points="521.87,-126.5 521.87,-182.5 702.89,-182.5 702.89,-126.5 521.87,-126.5"/>
<text text-anchor="start" x="529.87" y="-169.5" font-family="Helvetica,sans-Serif" font-size="10.00">/jenkins/jenlib_workspaces</text>
<text text-anchor="start" x="529.87" y="-157.5" font-family="Helvetica,sans-Serif" font-size="10.00">_f9/bld_nightly&#45;haldls.YmxkX25p</text>
<text text-anchor="start" x="529.87" y="-145.5" font-family="Helvetica,sans-Serif" font-size="10.00">Z2h0bHktaGFsZGxzIzEzNzk.x/haldls</text>
<text text-anchor="middle" x="612.38" y="-133.5" font-family="Helvetica,sans-Serif" font-size="10.00">/include/stadls/vx/decode.h</text>
</a>
</g>
</g>
<!-- Node2 -->
<g id="node2" class="node">
<title>Node2</title>
<g id="a_node2"><a xlink:title=" ">
<polygon fill="white" stroke="#bfbfbf" points="0,-63.5 0,-83.5 38.76,-83.5 38.76,-63.5 0,-63.5"/>
<text text-anchor="middle" x="19.38" y="-70.5" font-family="Helvetica,sans-Serif" font-size="10.00">limits</text>
</a>
</g>
</g>
<!-- Node1&#45;&gt;Node2 -->
<g id="edge1" class="edge">
<title>Node1&#45;&gt;Node2</title>
<path fill="none" stroke="midnightblue" d="M521.56,-154.13C408,-152.49 208.9,-141.52 47.38,-90 45.71,-89.47 44.02,-88.83 42.35,-88.12"/>
<polygon fill="midnightblue" stroke="midnightblue" points="43.65,-84.86 33.14,-83.52 40.52,-91.12 43.65,-84.86"/>
</g>
<!-- Node3 -->
<g id="node3" class="node">
<title>Node3</title>
<g id="a_node3"><a xlink:title=" ">
<polygon fill="white" stroke="#bfbfbf" points="56.44,-63.5 56.44,-83.5 106.33,-83.5 106.33,-63.5 56.44,-63.5"/>
<text text-anchor="middle" x="81.38" y="-70.5" font-family="Helvetica,sans-Serif" font-size="10.00">random</text>
</a>
</g>
</g>
<!-- Node1&#45;&gt;Node3 -->
<g id="edge2" class="edge">
<title>Node1&#45;&gt;Node3</title>
<path fill="none" stroke="midnightblue" d="M521.87,-150.08C420.99,-144.41 253.84,-129.43 115.38,-90 112.93,-89.3 110.42,-88.45 107.94,-87.51"/>
<polygon fill="midnightblue" stroke="midnightblue" points="109.22,-84.25 98.65,-83.58 106.5,-90.7 109.22,-84.25"/>
</g>
<!-- Node4 -->
<g id="node4" class="node">
<title>Node4</title>
<g id="a_node4"><a xlink:title=" ">
<polygon fill="white" stroke="#bfbfbf" points="124.59,-63.5 124.59,-83.5 226.17,-83.5 226.17,-63.5 124.59,-63.5"/>
<text text-anchor="middle" x="175.38" y="-70.5" font-family="Helvetica,sans-Serif" font-size="10.00">fisch/vx/container.h</text>
</a>
</g>
</g>
<!-- Node1&#45;&gt;Node4 -->
<g id="edge3" class="edge">
<title>Node1&#45;&gt;Node4</title>
<path fill="none" stroke="midnightblue" d="M521.82,-140.64C444.97,-129.17 331.97,-110.97 234.38,-90 228.95,-88.83 223.26,-87.49 217.65,-86.1"/>
<polygon fill="midnightblue" stroke="midnightblue" points="218.27,-82.64 207.72,-83.56 216.54,-89.43 218.27,-82.64"/>
</g>
<!-- Node5 -->
<g id="node5" class="node">
<title>Node5</title>
<g id="a_node5"><a xlink:title=" ">
<polygon fill="white" stroke="#bfbfbf" points="243.76,-57.5 243.76,-89.5 337,-89.5 337,-57.5 243.76,-57.5"/>
<text text-anchor="start" x="251.76" y="-76.5" font-family="Helvetica,sans-Serif" font-size="10.00">fisch/vx/container</text>
<text text-anchor="middle" x="290.38" y="-64.5" font-family="Helvetica,sans-Serif" font-size="10.00">_cast.h</text>
</a>
</g>
</g>
<!-- Node1&#45;&gt;Node5 -->
<g id="edge4" class="edge">
<title>Node1&#45;&gt;Node5</title>
<path fill="none" stroke="midnightblue" d="M521.69,-132.7C472.69,-121.25 410.92,-106.51 346.96,-90.1"/>
<polygon fill="midnightblue" stroke="midnightblue" points="347.66,-86.67 337.1,-87.56 345.91,-93.45 347.66,-86.67"/>
</g>
<!-- Node6 -->
<g id="node6" class="node">
<title>Node6</title>
<g id="a_node6"><a xlink:title=" ">
<polygon fill="white" stroke="#bfbfbf" points="355.44,-63.5 355.44,-83.5 425.33,-83.5 425.33,-63.5 355.44,-63.5"/>
<text text-anchor="middle" x="390.38" y="-70.5" font-family="Helvetica,sans-Serif" font-size="10.00">fisch/vx/fill.h</text>
</a>
</g>
</g>
<!-- Node1&#45;&gt;Node6 -->
<g id="edge5" class="edge">
<title>Node1&#45;&gt;Node6</title>
<path fill="none" stroke="midnightblue" d="M535.7,-126.39C504.01,-115.17 466.91,-101.99 433.38,-90 430.65,-89.02 427.82,-88.01 424.98,-86.99"/>
<polygon fill="midnightblue" stroke="midnightblue" points="425.98,-83.63 415.39,-83.54 423.61,-90.22 425.98,-83.63"/>
</g>
<!-- Node7 -->
<g id="node7" class="node">
<title>Node7</title>
<g id="a_node7"><a xlink:title=" ">
<polygon fill="white" stroke="#bfbfbf" points="442.87,-57.5 442.87,-89.5 543.89,-89.5 543.89,-57.5 442.87,-57.5"/>
<text text-anchor="start" x="450.87" y="-76.5" font-family="Helvetica,sans-Serif" font-size="10.00">halco/hicann&#45;dls/vx</text>
<text text-anchor="middle" x="493.38" y="-64.5" font-family="Helvetica,sans-Serif" font-size="10.00">/capmem.h</text>
</a>
</g>
</g>
<!-- Node1&#45;&gt;Node7 -->
<g id="edge6" class="edge">
<title>Node1&#45;&gt;Node7</title>
<path fill="none" stroke="midnightblue" d="M571.43,-126.31C556.06,-116.11 538.86,-104.69 524.53,-95.18"/>
<polygon fill="midnightblue" stroke="midnightblue" points="526.28,-92.14 516.01,-89.52 522.41,-97.97 526.28,-92.14"/>
</g>
<!-- Node8 -->
<g id="node8" class="node">
<title>Node8</title>
<g id="a_node8"><a xlink:title=" ">
<polygon fill="white" stroke="#bfbfbf" points="561.87,-57.5 561.87,-89.5 662.89,-89.5 662.89,-57.5 561.87,-57.5"/>
<text text-anchor="start" x="569.87" y="-76.5" font-family="Helvetica,sans-Serif" font-size="10.00">halco/hicann&#45;dls/vx</text>
<text text-anchor="middle" x="612.38" y="-64.5" font-family="Helvetica,sans-Serif" font-size="10.00">/ppu.h</text>
</a>
</g>
</g>
<!-- Node1&#45;&gt;Node8 -->
<g id="edge7" class="edge">
<title>Node1&#45;&gt;Node8</title>
<path fill="none" stroke="midnightblue" d="M612.38,-126.31C612.38,-117.65 612.38,-108.11 612.38,-99.6"/>
<polygon fill="midnightblue" stroke="midnightblue" points="615.88,-99.52 612.38,-89.52 608.88,-99.52 615.88,-99.52"/>
</g>
<!-- Node9 -->
<g id="node9" class="node">
<title>Node9</title>
<g id="a_node9"><a xlink:title=" ">
<polygon fill="white" stroke="#bfbfbf" points="681.21,-63.5 681.21,-83.5 785.56,-83.5 785.56,-63.5 681.21,-63.5"/>
<text text-anchor="middle" x="733.38" y="-70.5" font-family="Helvetica,sans-Serif" font-size="10.00">haldls/vx/common.h</text>
</a>
</g>
</g>
<!-- Node1&#45;&gt;Node9 -->
<g id="edge8" class="edge">
<title>Node1&#45;&gt;Node9</title>
<path fill="none" stroke="midnightblue" d="M654.02,-126.31C673.11,-113.85 694.98,-99.57 710.92,-89.17"/>
<polygon fill="midnightblue" stroke="midnightblue" points="713.1,-91.93 719.56,-83.53 709.27,-86.06 713.1,-91.93"/>
</g>
<!-- Node10 -->
<g id="node10" class="node">
<title>Node10</title>
<g id="a_node10"><a xlink:title=" ">
<polygon fill="white" stroke="#bfbfbf" points="803.32,-63.5 803.32,-83.5 885.45,-83.5 885.45,-63.5 803.32,-63.5"/>
<text text-anchor="middle" x="844.38" y="-70.5" font-family="Helvetica,sans-Serif" font-size="10.00">haldls/vx/jtag.h</text>
</a>
</g>
</g>
<!-- Node1&#45;&gt;Node10 -->
<g id="edge9" class="edge">
<title>Node1&#45;&gt;Node10</title>
<path fill="none" stroke="midnightblue" d="M691.9,-126.42C731.43,-112.96 777.26,-97.36 808.27,-86.8"/>
<polygon fill="midnightblue" stroke="midnightblue" points="809.45,-90.09 817.79,-83.55 807.2,-83.46 809.45,-90.09"/>
</g>
<!-- Node11 -->
<g id="node11" class="node">
<title>Node11</title>
<g id="a_node11"><a xlink:title=" ">
<polygon fill="white" stroke="#bfbfbf" points="903.54,-63.5 903.54,-83.5 991.22,-83.5 991.22,-63.5 903.54,-63.5"/>
<text text-anchor="middle" x="947.38" y="-70.5" font-family="Helvetica,sans-Serif" font-size="10.00">haldls/vx/traits.h</text>
</a>
</g>
</g>
<!-- Node1&#45;&gt;Node11 -->
<g id="edge10" class="edge">
<title>Node1&#45;&gt;Node11</title>
<path fill="none" stroke="midnightblue" d="M702.9,-134.64C758.38,-122.7 830.73,-106.46 894.38,-90 898.78,-88.86 903.37,-87.61 907.93,-86.34"/>
<polygon fill="midnightblue" stroke="midnightblue" points="909.11,-89.64 917.76,-83.52 907.18,-82.91 909.11,-89.64"/>
</g>
<!-- Node12 -->
<g id="node12" class="node">
<title>Node12</title>
<g id="a_node12"><a xlink:title=" ">
<polygon fill="white" stroke="#bfbfbf" points="1009.49,-63.5 1009.49,-83.5 1103.28,-83.5 1103.28,-63.5 1009.49,-63.5"/>
<text text-anchor="middle" x="1056.38" y="-70.5" font-family="Helvetica,sans-Serif" font-size="10.00">lola/vx/capmem.h</text>
</a>
</g>
</g>
<!-- Node1&#45;&gt;Node12 -->
<g id="edge11" class="edge">
<title>Node1&#45;&gt;Node12</title>
<path fill="none" stroke="midnightblue" d="M703.07,-141.48C782.04,-130.34 899.38,-112.18 1000.38,-90 1005.49,-88.88 1010.82,-87.58 1016.07,-86.21"/>
<polygon fill="midnightblue" stroke="midnightblue" points="1017.26,-89.52 1026.01,-83.55 1015.45,-82.76 1017.26,-89.52"/>
</g>
<!-- Node13 -->
<g id="node13" class="node">
<title>Node13</title>
<g id="a_node13"><a xlink:href="visitors_8h.html" target="_top" xlink:title=" ">
<polygon fill="white" stroke="black" points="1121.21,-63.5 1121.21,-83.5 1205.55,-83.5 1205.55,-63.5 1121.21,-63.5"/>
<text text-anchor="middle" x="1163.38" y="-70.5" font-family="Helvetica,sans-Serif" font-size="10.00">stadls/visitors.h</text>
</a>
</g>
</g>
<!-- Node1&#45;&gt;Node13 -->
<g id="edge12" class="edge">
<title>Node1&#45;&gt;Node13</title>
<path fill="none" stroke="midnightblue" d="M703.03,-146.62C803.79,-137.9 970.98,-120.24 1112.38,-90 1117.11,-88.99 1122.03,-87.74 1126.87,-86.4"/>
<polygon fill="midnightblue" stroke="midnightblue" points="1127.99,-89.73 1136.61,-83.56 1126.03,-83.01 1127.99,-89.73"/>
</g>
<!-- Node19 -->
<g id="node19" class="node">
<title>Node19</title>
<g id="a_node19"><a xlink:title=" ">
<polygon fill="white" stroke="#bfbfbf" points="1223.71,-57.5 1223.71,-89.5 1373.05,-89.5 1373.05,-57.5 1223.71,-57.5"/>
<text text-anchor="start" x="1231.71" y="-76.5" font-family="Helvetica,sans-Serif" font-size="10.00">haldlsID(/)vxID(/)vID</text>
<text text-anchor="middle" x="1298.38" y="-64.5" font-family="Helvetica,sans-Serif" font-size="10.00">(CHIP_REVISION)/capmem.h</text>
</a>
</g>
</g>
<!-- Node1&#45;&gt;Node19 -->
<g id="edge18" class="edge">
<title>Node1&#45;&gt;Node19</title>
<path fill="none" stroke="midnightblue" d="M702.91,-146.15C818.87,-136.24 1026.22,-116.86 1213.3,-90.09"/>
<polygon fill="midnightblue" stroke="midnightblue" points="1213.93,-93.54 1223.32,-88.65 1212.93,-86.61 1213.93,-93.54"/>
</g>
<!-- Node14 -->
<g id="node14" class="node">
<title>Node14</title>
<g id="a_node14"><a xlink:title=" ">
<polygon fill="white" stroke="#bfbfbf" points="1007.83,-0.5 1007.83,-20.5 1064.94,-20.5 1064.94,-0.5 1007.83,-0.5"/>
<text text-anchor="middle" x="1036.38" y="-7.5" font-family="Helvetica,sans-Serif" font-size="10.00">algorithm</text>
</a>
</g>
</g>
<!-- Node13&#45;&gt;Node14 -->
<g id="edge13" class="edge">
<title>Node13&#45;&gt;Node14</title>
<path fill="none" stroke="midnightblue" d="M1144.64,-63.5C1123.45,-53.32 1088.71,-36.63 1064.31,-24.91"/>
<polygon fill="midnightblue" stroke="midnightblue" points="1065.73,-21.71 1055.2,-20.54 1062.7,-28.02 1065.73,-21.71"/>
</g>
<!-- Node15 -->
<g id="node15" class="node">
<title>Node15</title>
<g id="a_node15"><a xlink:title=" ">
<polygon fill="white" stroke="#bfbfbf" points="1082.99,-0.5 1082.99,-20.5 1121.77,-20.5 1121.77,-0.5 1082.99,-0.5"/>
<text text-anchor="middle" x="1102.38" y="-7.5" font-family="Helvetica,sans-Serif" font-size="10.00">array</text>
</a>
</g>
</g>
<!-- Node13&#45;&gt;Node15 -->
<g id="edge14" class="edge">
<title>Node13&#45;&gt;Node15</title>
<path fill="none" stroke="midnightblue" d="M1154.38,-63.5C1145.01,-54.13 1130.13,-39.25 1118.69,-27.8"/>
<polygon fill="midnightblue" stroke="midnightblue" points="1120.97,-25.13 1111.42,-20.54 1116.02,-30.08 1120.97,-25.13"/>
</g>
<!-- Node16 -->
<g id="node16" class="node">
<title>Node16</title>
<g id="a_node16"><a xlink:title=" ">
<polygon fill="white" stroke="#bfbfbf" points="1139.83,-0.5 1139.83,-20.5 1186.94,-20.5 1186.94,-0.5 1139.83,-0.5"/>
<text text-anchor="middle" x="1163.38" y="-7.5" font-family="Helvetica,sans-Serif" font-size="10.00">iterator</text>
</a>
</g>
</g>
<!-- Node13&#45;&gt;Node16 -->
<g id="edge15" class="edge">
<title>Node13&#45;&gt;Node16</title>
<path fill="none" stroke="midnightblue" d="M1163.38,-63.5C1163.38,-54.94 1163.38,-41.78 1163.38,-30.85"/>
<polygon fill="midnightblue" stroke="midnightblue" points="1166.88,-30.54 1163.38,-20.54 1159.88,-30.54 1166.88,-30.54"/>
</g>
<!-- Node17 -->
<g id="node17" class="node">
<title>Node17</title>
<g id="a_node17"><a xlink:title=" ">
<polygon fill="white" stroke="#bfbfbf" points="1204.99,-0.5 1204.99,-20.5 1263.78,-20.5 1263.78,-0.5 1204.99,-0.5"/>
<text text-anchor="middle" x="1234.38" y="-7.5" font-family="Helvetica,sans-Serif" font-size="10.00">stdexcept</text>
</a>
</g>
</g>
<!-- Node13&#45;&gt;Node17 -->
<g id="edge16" class="edge">
<title>Node13&#45;&gt;Node17</title>
<path fill="none" stroke="midnightblue" d="M1173.86,-63.5C1184.98,-53.95 1202.75,-38.67 1216.17,-27.15"/>
<polygon fill="midnightblue" stroke="midnightblue" points="1218.56,-29.71 1223.86,-20.54 1214,-24.4 1218.56,-29.71"/>
</g>
<!-- Node18 -->
<g id="node18" class="node">
<title>Node18</title>
<g id="a_node18"><a xlink:title=" ">
<polygon fill="white" stroke="#bfbfbf" points="1282,-0.5 1282,-20.5 1320.77,-20.5 1320.77,-0.5 1282,-0.5"/>
<text text-anchor="middle" x="1301.38" y="-7.5" font-family="Helvetica,sans-Serif" font-size="10.00">utility</text>
</a>
</g>
</g>
<!-- Node13&#45;&gt;Node18 -->
<g id="edge17" class="edge">
<title>Node13&#45;&gt;Node18</title>
<path fill="none" stroke="midnightblue" d="M1183.74,-63.5C1207.25,-53.11 1246.07,-35.95 1272.65,-24.2"/>
<polygon fill="midnightblue" stroke="midnightblue" points="1274.1,-27.39 1281.83,-20.14 1271.27,-20.98 1274.1,-27.39"/>
</g>
</g>
</svg>
        <g id="navigator" transform="translate(0 0)" fill="#404254">
                <rect fill="#f2f5e9" fill-opacity="0.5" stroke="#606060" stroke-width=".5" x="0" y="0" width="60" height="60"/>
                <use id="zoomplus" xlink:href="#zoomPlus" x="17" y="9" onmousedown="handleZoom(evt,'in')"/>
                <use id="zoomminus" xlink:href="#zoomMin" x="42" y="9" onmousedown="handleZoom(evt,'out')"/>
                <use id="reset" xlink:href="#resetDef" x="30" y="36" onmousedown="handleReset()"/>
                <g id="arrowUp" xlink:href="#dirArrow" transform="translate(30 24)" onmousedown="handlePan(0,-1)">
                  <use xlink:href="#rim" fill="#404040">
                        <set attributeName="fill" to="#808080" begin="arrowUp.mouseover" end="arrowUp.mouseout"/>
                  </use>
                  <path fill="none" stroke="white" stroke-width="1.5" d="M0,-3.0v7 M-2.5,-0.5L0,-3.0L2.5,-0.5"/>
                </g>
                <g id="arrowRight" xlink:href="#dirArrow" transform="rotate(90) translate(36 -43)" onmousedown="handlePan(1,0)">
                  <use xlink:href="#rim" fill="#404040">
                        <set attributeName="fill" to="#808080" begin="arrowRight.mouseover" end="arrowRight.mouseout"/>
                  </use>
                  <path fill="none" stroke="white" stroke-width="1.5" d="M0,-3.0v7 M-2.5,-0.5L0,-3.0L2.5,-0.5"/>
                </g>
                <g id="arrowDown" xlink:href="#dirArrow" transform="rotate(180) translate(-30 -48)" onmousedown="handlePan(0,1)">
                  <use xlink:href="#rim" fill="#404040">
                        <set attributeName="fill" to="#808080" begin="arrowDown.mouseover" end="arrowDown.mouseout"/>
                  </use>
                  <path fill="none" stroke="white" stroke-width="1.5" d="M0,-3.0v7 M-2.5,-0.5L0,-3.0L2.5,-0.5"/>
                </g>
                <g id="arrowLeft" xlink:href="#dirArrow" transform="rotate(270) translate(-36 17)" onmousedown="handlePan(-1,0)">
                  <use xlink:href="#rim" fill="#404040">
                        <set attributeName="fill" to="#808080" begin="arrowLeft.mouseover" end="arrowLeft.mouseout"/>
                  </use>
                  <path fill="none" stroke="white" stroke-width="1.5" d="M0,-3.0v7 M-2.5,-0.5L0,-3.0L2.5,-0.5"/>
                </g>
        </g>
        <svg viewBox="0 0 15 15" width="100%" height="30px" preserveAspectRatio="xMaxYMin meet">
         <g id="arrow_out" transform="scale(0.3 0.3)">
          <a xlink:href="decode_8h__incl_org.svg" target="_base">
           <rect id="button" ry="5" rx="5" y="6" x="6" height="38" width="38"
                fill="#f2f5e9" fill-opacity="0.5" stroke="#606060" stroke-width="1.0"/>
           <path id="arrow"
             d="M 11.500037,31.436501 C 11.940474,20.09759 22.043105,11.32322 32.158766,21.979434 L 37.068811,17.246167 C 37.068811,17.246167 37.088388,32 37.088388,32 L 22.160133,31.978069 C 22.160133,31.978069 26.997745,27.140456 26.997745,27.140456 C 18.528582,18.264221 13.291696,25.230495 11.500037,31.436501 z"
             style="fill:#404040;"/>
          </a>
         </g>
        </svg>
</svg>
