<?xml version="1.0" encoding="UTF-8" standalone="no"?>
<!DOCTYPE svg PUBLIC "-//W3C//DTD SVG 1.1//EN"
 "http://www.w3.org/Graphics/SVG/1.1/DTD/svg11.dtd">
<!-- Generated by graphviz version 2.46.0 (0)
 -->
<!-- Title: Graphical Class Hierarchy Pages: 1 -->
<svg width="290pt" height="68pt"
 viewBox="0.00 0.00 290.49 68.00" xmlns="http://www.w3.org/2000/svg" xmlns:xlink="http://www.w3.org/1999/xlink">
<g id="graph0" class="graph" transform="scale(1 1) rotate(0) translate(4 64)">
<title>Graphical Class Hierarchy</title>
<polygon fill="white" stroke="transparent" points="-4,4 -4,-64 286.49,-64 286.49,4 -4,4"/>
<!-- Node0 -->
<g id="node1" class="node">
<title>Node0</title>
<g id="a_node1"><a xlink:href="classstadls_1_1vx_1_1v2_1_1detail_1_1_init_generator.html" target="_top" xlink:title=" ">
<polygon fill="white" stroke="black" points="0,-13.5 0,-45.5 103.24,-45.5 103.24,-13.5 0,-13.5"/>
<text text-anchor="start" x="8" y="-32.5" font-family="Helvetica,sans-Serif" font-size="10.00">stadls::vx::v2::detail</text>
<text text-anchor="middle" x="51.62" y="-20.5" font-family="Helvetica,sans-Serif" font-size="10.00">::InitGenerator</text>
</a>
</g>
</g>
<!-- Node1 -->
<g id="node2" class="node">
<title>Node1</title>
<g id="a_node2"><a xlink:href="classstadls_1_1vx_1_1v2_1_1_digital_init.html" target="_top" xlink:title="Generator for initialization of the chip up to digital communication.">
<polygon fill="white" stroke="black" points="150.64,-39.5 150.64,-59.5 271.09,-59.5 271.09,-39.5 150.64,-39.5"/>
<text text-anchor="middle" x="210.87" y="-46.5" font-family="Helvetica,sans-Serif" font-size="10.00">stadls::vx::v2::DigitalInit</text>
</a>
</g>
</g>
<!-- Node0&#45;&gt;Node1 -->
<g id="edge1" class="edge">
<title>Node0&#45;&gt;Node1</title>
<path fill="none" stroke="midnightblue" d="M113.69,-37.27C125.82,-38.81 138.53,-40.43 150.6,-41.96"/>
<polygon fill="midnightblue" stroke="midnightblue" points="114.04,-33.78 103.67,-35.99 113.15,-40.73 114.04,-33.78"/>
</g>
<!-- Node2 -->
<g id="node3" class="node">
<title>Node2</title>
<g id="a_node3"><a xlink:href="classstadls_1_1vx_1_1v2_1_1_experiment_init.html" target="_top" xlink:title="Generator for initialization required for typical experiments.">
<polygon fill="white" stroke="black" points="139.24,-0.5 139.24,-20.5 282.49,-20.5 282.49,-0.5 139.24,-0.5"/>
<text text-anchor="middle" x="210.87" y="-7.5" font-family="Helvetica,sans-Serif" font-size="10.00">stadls::vx::v2::ExperimentInit</text>
</a>
</g>
</g>
<!-- Node0&#45;&gt;Node2 -->
<g id="edge2" class="edge">
<title>Node0&#45;&gt;Node2</title>
<path fill="none" stroke="midnightblue" d="M113.66,-22.12C121.99,-21.12 130.59,-20.08 139.07,-19.05"/>
<polygon fill="midnightblue" stroke="midnightblue" points="113.18,-18.66 103.67,-23.33 114.02,-25.61 113.18,-18.66"/>
</g>
</g>
</svg>
