<?xml version="1.0" encoding="UTF-8" standalone="no"?>
<!DOCTYPE svg PUBLIC "-//W3C//DTD SVG 1.1//EN"
 "http://www.w3.org/Graphics/SVG/1.1/DTD/svg11.dtd">
<!-- Generated by graphviz version 2.46.0 (0)
 -->
<!-- Title: /jenkins/jenlib_workspaces_f9/bld_nightly&#45;haldls.YmxkX25pZ2h0bHktaGFsZGxzIzEzNzk.x/haldls/include/stadls/vx/playback_generator.h Pages: 1 -->
<svg width="423pt" height="125pt"
 viewBox="0.00 0.00 423.36 125.40" xmlns="http://www.w3.org/2000/svg" xmlns:xlink="http://www.w3.org/1999/xlink">
<g id="graph0" class="graph" transform="scale(1 1) rotate(0) translate(4 121.4)">
<title>/jenkins/jenlib_workspaces_f9/bld_nightly&#45;haldls.YmxkX25pZ2h0bHktaGFsZGxzIzEzNzk.x/haldls/include/stadls/vx/playback_generator.h</title>
<polygon fill="white" stroke="transparent" points="-4,4 -4,-121.4 419.36,-121.4 419.36,4 -4,4"/>
<!-- Node1 -->
<g id="node1" class="node">
<title>Node1</title>
<g id="a_node1"><a xlink:title=" ">
<polygon fill="#bfbfbf" stroke="black" points="77.76,-60.9 77.76,-116.9 268.81,-116.9 268.81,-60.9 77.76,-60.9"/>
<text text-anchor="start" x="85.76" y="-103.9" font-family="Helvetica,sans-Serif" font-size="10.00">/jenkins/jenlib_workspaces</text>
<text text-anchor="start" x="85.76" y="-91.9" font-family="Helvetica,sans-Serif" font-size="10.00">_f9/bld_nightly&#45;haldls.YmxkX25p</text>
<text text-anchor="start" x="85.76" y="-79.9" font-family="Helvetica,sans-Serif" font-size="10.00">Z2h0bHktaGFsZGxzIzEzNzk.x/haldls</text>
<text text-anchor="middle" x="173.28" y="-67.9" font-family="Helvetica,sans-Serif" font-size="10.00">/include/stadls/vx/playback_generator.h</text>
</a>
</g>
</g>
<!-- Node2 -->
<g id="node2" class="node">
<title>Node2</title>
<g id="a_node2"><a xlink:title=" ">
<polygon fill="white" stroke="#bfbfbf" points="0,-3.9 0,-23.9 56.57,-23.9 56.57,-3.9 0,-3.9"/>
<text text-anchor="middle" x="28.28" y="-10.9" font-family="Helvetica,sans-Serif" font-size="10.00">hate/nil.h</text>
</a>
</g>
</g>
<!-- Node1&#45;&gt;Node2 -->
<g id="edge1" class="edge">
<title>Node1&#45;&gt;Node2</title>
<path fill="none" stroke="midnightblue" d="M119.29,-60.72C97.55,-49.77 73.43,-37.63 55.49,-28.6"/>
<polygon fill="midnightblue" stroke="midnightblue" points="56.72,-25.3 46.21,-23.93 53.57,-31.55 56.72,-25.3"/>
</g>
<!-- Node3 -->
<g id="node3" class="node">
<title>Node3</title>
<g id="a_node3"><a xlink:title=" ">
<polygon fill="white" stroke="#bfbfbf" points="74.94,-3.9 74.94,-23.9 167.63,-23.9 167.63,-3.9 74.94,-3.9"/>
<text text-anchor="middle" x="121.28" y="-10.9" font-family="Helvetica,sans-Serif" font-size="10.00">hate/type_traits.h</text>
</a>
</g>
</g>
<!-- Node1&#45;&gt;Node3 -->
<g id="edge2" class="edge">
<title>Node1&#45;&gt;Node3</title>
<path fill="none" stroke="midnightblue" d="M153.92,-60.72C147.14,-51.19 139.7,-40.76 133.65,-32.26"/>
<polygon fill="midnightblue" stroke="midnightblue" points="136.37,-30.04 127.71,-23.93 130.66,-34.1 136.37,-30.04"/>
</g>
<!-- Node4 -->
<g id="node4" class="node">
<title>Node4</title>
<g id="a_node4"><a xlink:title=" ">
<polygon fill="white" stroke="#bfbfbf" points="185.78,-3.9 185.78,-23.9 266.79,-23.9 266.79,-3.9 185.78,-3.9"/>
<text text-anchor="middle" x="226.28" y="-10.9" font-family="Helvetica,sans-Serif" font-size="10.00">hate/visibility.h</text>
</a>
</g>
</g>
<!-- Node1&#45;&gt;Node4 -->
<g id="edge3" class="edge">
<title>Node1&#45;&gt;Node4</title>
<path fill="none" stroke="midnightblue" d="M193.02,-60.72C199.94,-51.19 207.51,-40.76 213.68,-32.26"/>
<polygon fill="midnightblue" stroke="midnightblue" points="216.69,-34.07 219.73,-23.93 211.03,-29.96 216.69,-34.07"/>
</g>
<!-- Node5 -->
<g id="node5" class="node">
<title>Node5</title>
<g id="a_node5"><a xlink:href="genpybind_8h.html" target="_top" xlink:title=" ">
<polygon fill="white" stroke="black" points="285.21,-3.9 285.21,-23.9 397.36,-23.9 397.36,-3.9 285.21,-3.9"/>
<text text-anchor="middle" x="341.28" y="-10.9" font-family="Helvetica,sans-Serif" font-size="10.00">stadls/vx/genpybind.h</text>
</a>
</g>
</g>
<!-- Node1&#45;&gt;Node5 -->
<g id="edge4" class="edge">
<title>Node1&#45;&gt;Node5</title>
<path fill="none" stroke="midnightblue" d="M235.84,-60.72C261.61,-49.52 290.27,-37.07 311.2,-27.98"/>
<polygon fill="midnightblue" stroke="midnightblue" points="312.74,-31.12 320.52,-23.93 309.95,-24.7 312.74,-31.12"/>
</g>
<!-- Node5&#45;&gt;Node5 -->
<g id="edge5" class="edge">
<title>Node5&#45;&gt;Node5</title>
<path fill="none" stroke="midnightblue" d="M362.14,-23.98C386.71,-31.35 415.36,-27.99 415.36,-13.9 415.36,-1.68 393.81,2.47 372.07,-1.46"/>
<polygon fill="midnightblue" stroke="midnightblue" points="371.05,1.9 362.14,-3.83 372.68,-4.91 371.05,1.9"/>
</g>
</g>
</svg>
