<?xml version="1.0" encoding="UTF-8" standalone="no"?>
<!DOCTYPE svg PUBLIC "-//W3C//DTD SVG 1.1//EN"
 "http://www.w3.org/Graphics/SVG/1.1/DTD/svg11.dtd">
<!-- Generated by graphviz version 2.46.0 (0)
 -->
<!-- Title: /jenkins/jenlib_workspaces_f9/bld_nightly&#45;haldls.YmxkX25pZ2h0bHktaGFsZGxzIzEzNzk.x/haldls/include/stadls/vx/playback_program.h Pages: 1 -->
<svg width="1727pt" height="193pt"
 viewBox="0.00 0.00 1726.96 192.55" xmlns="http://www.w3.org/2000/svg" xmlns:xlink="http://www.w3.org/1999/xlink">
<g id="graph0" class="graph" transform="scale(1 1) rotate(0) translate(4 188.55)">
<title>/jenkins/jenlib_workspaces_f9/bld_nightly&#45;haldls.YmxkX25pZ2h0bHktaGFsZGxzIzEzNzk.x/haldls/include/stadls/vx/playback_program.h</title>
<polygon fill="white" stroke="transparent" points="-4,4 -4,-188.55 1722.96,-188.55 1722.96,4 -4,4"/>
<!-- Node1 -->
<g id="node1" class="node">
<title>Node1</title>
<g id="a_node1"><a xlink:title=" ">
<polygon fill="#bfbfbf" stroke="black" points="633.71,-128.05 633.71,-184.05 819.19,-184.05 819.19,-128.05 633.71,-128.05"/>
<text text-anchor="start" x="641.71" y="-171.05" font-family="Helvetica,sans-Serif" font-size="10.00">/jenkins/jenlib_workspaces</text>
<text text-anchor="start" x="641.71" y="-159.05" font-family="Helvetica,sans-Serif" font-size="10.00">_f9/bld_nightly&#45;haldls.YmxkX25p</text>
<text text-anchor="start" x="641.71" y="-147.05" font-family="Helvetica,sans-Serif" font-size="10.00">Z2h0bHktaGFsZGxzIzEzNzk.x/haldls</text>
<text text-anchor="middle" x="726.45" y="-135.05" font-family="Helvetica,sans-Serif" font-size="10.00">/include/stadls/vx/playback_program.h</text>
</a>
</g>
</g>
<!-- Node2 -->
<g id="node2" class="node">
<title>Node2</title>
<g id="a_node2"><a xlink:title=" ">
<polygon fill="white" stroke="#bfbfbf" points="0,-65.05 0,-85.05 44.89,-85.05 44.89,-65.05 0,-65.05"/>
<text text-anchor="middle" x="22.45" y="-72.05" font-family="Helvetica,sans-Serif" font-size="10.00">cstdint</text>
</a>
</g>
</g>
<!-- Node1&#45;&gt;Node2 -->
<g id="edge1" class="edge">
<title>Node1&#45;&gt;Node2</title>
<path fill="none" stroke="midnightblue" d="M633.56,-150.52C475.25,-142.09 159.93,-122.04 53.45,-91.55 51.29,-90.93 49.09,-90.16 46.93,-89.3"/>
<polygon fill="midnightblue" stroke="midnightblue" points="48.31,-86.09 37.76,-85.11 45.4,-92.45 48.31,-86.09"/>
</g>
<!-- Node3 -->
<g id="node3" class="node">
<title>Node3</title>
<g id="a_node3"><a xlink:title=" ">
<polygon fill="white" stroke="#bfbfbf" points="62.39,-65.05 62.39,-85.05 114.5,-85.05 114.5,-65.05 62.39,-65.05"/>
<text text-anchor="middle" x="88.45" y="-72.05" font-family="Helvetica,sans-Serif" font-size="10.00">memory</text>
</a>
</g>
</g>
<!-- Node1&#45;&gt;Node3 -->
<g id="edge2" class="edge">
<title>Node1&#45;&gt;Node3</title>
<path fill="none" stroke="midnightblue" d="M633.66,-154.19C513.84,-151.07 299.78,-138.63 123.45,-91.55 120.83,-90.85 118.16,-89.98 115.51,-89.02"/>
<polygon fill="midnightblue" stroke="midnightblue" points="116.8,-85.76 106.22,-85.21 114.15,-92.24 116.8,-85.76"/>
</g>
<!-- Node4 -->
<g id="node4" class="node">
<title>Node4</title>
<g id="a_node4"><a xlink:title=" ">
<polygon fill="white" stroke="#bfbfbf" points="132.94,-65.05 132.94,-85.05 183.95,-85.05 183.95,-65.05 132.94,-65.05"/>
<text text-anchor="middle" x="158.45" y="-72.05" font-family="Helvetica,sans-Serif" font-size="10.00">optional</text>
</a>
</g>
</g>
<!-- Node1&#45;&gt;Node4 -->
<g id="edge3" class="edge">
<title>Node1&#45;&gt;Node4</title>
<path fill="none" stroke="midnightblue" d="M633.36,-152.34C525.7,-147.29 343.98,-132.85 193.45,-91.55 190.83,-90.84 188.16,-89.95 185.52,-88.98"/>
<polygon fill="midnightblue" stroke="midnightblue" points="186.82,-85.72 176.24,-85.16 184.15,-92.2 186.82,-85.72"/>
</g>
<!-- Node5 -->
<g id="node5" class="node">
<title>Node5</title>
<g id="a_node5"><a xlink:title=" ">
<polygon fill="white" stroke="#bfbfbf" points="202.22,-65.05 202.22,-85.05 242.67,-85.05 242.67,-65.05 202.22,-65.05"/>
<text text-anchor="middle" x="222.45" y="-72.05" font-family="Helvetica,sans-Serif" font-size="10.00">string</text>
</a>
</g>
</g>
<!-- Node1&#45;&gt;Node5 -->
<g id="edge4" class="edge">
<title>Node1&#45;&gt;Node5</title>
<path fill="none" stroke="midnightblue" d="M633.69,-152.41C536.35,-147.4 379.93,-132.97 251.45,-91.55 249.77,-91.01 248.07,-90.37 246.38,-89.67"/>
<polygon fill="midnightblue" stroke="midnightblue" points="247.57,-86.36 237.05,-85.16 244.53,-92.66 247.57,-86.36"/>
</g>
<!-- Node6 -->
<g id="node6" class="node">
<title>Node6</title>
<g id="a_node6"><a xlink:title=" ">
<polygon fill="white" stroke="#bfbfbf" points="260.83,-65.05 260.83,-85.05 304.06,-85.05 304.06,-65.05 260.83,-65.05"/>
<text text-anchor="middle" x="282.45" y="-72.05" font-family="Helvetica,sans-Serif" font-size="10.00">vector</text>
</a>
</g>
</g>
<!-- Node1&#45;&gt;Node6 -->
<g id="edge5" class="edge">
<title>Node1&#45;&gt;Node6</title>
<path fill="none" stroke="midnightblue" d="M633.53,-149.05C548.57,-141.63 420.25,-125.54 313.45,-91.55 311.51,-90.94 309.55,-90.21 307.6,-89.42"/>
<polygon fill="midnightblue" stroke="midnightblue" points="308.69,-86.07 298.14,-85.08 305.77,-92.43 308.69,-86.07"/>
</g>
<!-- Node7 -->
<g id="node7" class="node">
<title>Node7</title>
<g id="a_node7"><a xlink:title=" ">
<polygon fill="white" stroke="#bfbfbf" points="322.1,-65.05 322.1,-85.05 414.8,-85.05 414.8,-65.05 322.1,-65.05"/>
<text text-anchor="middle" x="368.45" y="-72.05" font-family="Helvetica,sans-Serif" font-size="10.00">boost/variant.hpp</text>
</a>
</g>
</g>
<!-- Node1&#45;&gt;Node7 -->
<g id="edge6" class="edge">
<title>Node1&#45;&gt;Node7</title>
<path fill="none" stroke="midnightblue" d="M633.58,-137.29C573.43,-125.37 493.52,-108.75 423.45,-91.55 418.76,-90.4 413.86,-89.13 409.01,-87.82"/>
<polygon fill="midnightblue" stroke="midnightblue" points="409.75,-84.39 399.18,-85.11 407.9,-91.14 409.75,-84.39"/>
</g>
<!-- Node8 -->
<g id="node8" class="node">
<title>Node8</title>
<g id="a_node8"><a xlink:title=" ">
<polygon fill="white" stroke="#bfbfbf" points="432.83,-59.05 432.83,-91.05 526.07,-91.05 526.07,-59.05 432.83,-59.05"/>
<text text-anchor="start" x="440.83" y="-78.05" font-family="Helvetica,sans-Serif" font-size="10.00">fisch/vx/container</text>
<text text-anchor="middle" x="479.45" y="-66.05" font-family="Helvetica,sans-Serif" font-size="10.00">_cast.h</text>
</a>
</g>
</g>
<!-- Node1&#45;&gt;Node8 -->
<g id="edge7" class="edge">
<title>Node1&#45;&gt;Node8</title>
<path fill="none" stroke="midnightblue" d="M641.79,-127.98C606.88,-116.81 567.37,-104.17 536.06,-94.16"/>
<polygon fill="midnightblue" stroke="midnightblue" points="536.8,-90.72 526.21,-91.01 534.66,-97.39 536.8,-90.72"/>
</g>
<!-- Node9 -->
<g id="node9" class="node">
<title>Node9</title>
<g id="a_node9"><a xlink:title=" ">
<polygon fill="white" stroke="#bfbfbf" points="543.83,-59.05 543.83,-91.05 637.07,-91.05 637.07,-59.05 543.83,-59.05"/>
<text text-anchor="start" x="551.83" y="-78.05" font-family="Helvetica,sans-Serif" font-size="10.00">fisch/vx/container</text>
<text text-anchor="middle" x="590.45" y="-66.05" font-family="Helvetica,sans-Serif" font-size="10.00">_ticket.h</text>
</a>
</g>
</g>
<!-- Node1&#45;&gt;Node9 -->
<g id="edge8" class="edge">
<title>Node1&#45;&gt;Node9</title>
<path fill="none" stroke="midnightblue" d="M679.64,-127.87C661.75,-117.47 641.68,-105.81 625.12,-96.19"/>
<polygon fill="midnightblue" stroke="midnightblue" points="626.72,-93.07 616.31,-91.08 623.2,-99.13 626.72,-93.07"/>
</g>
<!-- Node10 -->
<g id="node10" class="node">
<title>Node10</title>
<g id="a_node10"><a xlink:title=" ">
<polygon fill="white" stroke="#bfbfbf" points="655.1,-65.05 655.1,-85.05 797.79,-85.05 797.79,-65.05 655.1,-65.05"/>
<text text-anchor="middle" x="726.45" y="-72.05" font-family="Helvetica,sans-Serif" font-size="10.00">fisch/vx/playback_program.h</text>
</a>
</g>
</g>
<!-- Node1&#45;&gt;Node10 -->
<g id="edge9" class="edge">
<title>Node1&#45;&gt;Node10</title>
<path fill="none" stroke="midnightblue" d="M726.45,-127.87C726.45,-117.21 726.45,-105.24 726.45,-95.48"/>
<polygon fill="midnightblue" stroke="midnightblue" points="729.95,-95.27 726.45,-85.27 722.95,-95.27 729.95,-95.27"/>
</g>
<!-- Node11 -->
<g id="node11" class="node">
<title>Node11</title>
<g id="a_node11"><a xlink:title=" ">
<polygon fill="white" stroke="#bfbfbf" points="815.77,-65.05 815.77,-85.05 925.12,-85.05 925.12,-65.05 815.77,-65.05"/>
<text text-anchor="middle" x="870.45" y="-72.05" font-family="Helvetica,sans-Serif" font-size="10.00">haldls/cerealization.h</text>
</a>
</g>
</g>
<!-- Node1&#45;&gt;Node11 -->
<g id="edge10" class="edge">
<title>Node1&#45;&gt;Node11</title>
<path fill="none" stroke="midnightblue" d="M776,-127.87C799.25,-115.11 825.96,-100.46 845.03,-89.99"/>
<polygon fill="midnightblue" stroke="midnightblue" points="846.91,-92.96 853.99,-85.08 843.54,-86.82 846.91,-92.96"/>
</g>
<!-- Node12 -->
<g id="node12" class="node">
<title>Node12</title>
<g id="a_node12"><a xlink:title=" ">
<polygon fill="white" stroke="#bfbfbf" points="943.27,-65.05 943.27,-85.05 1047.62,-85.05 1047.62,-65.05 943.27,-65.05"/>
<text text-anchor="middle" x="995.45" y="-72.05" font-family="Helvetica,sans-Serif" font-size="10.00">haldls/vx/common.h</text>
</a>
</g>
</g>
<!-- Node1&#45;&gt;Node12 -->
<g id="edge11" class="edge">
<title>Node1&#45;&gt;Node12</title>
<path fill="none" stroke="midnightblue" d="M818.65,-127.98C865.08,-114.34 919,-98.5 954.97,-87.94"/>
<polygon fill="midnightblue" stroke="midnightblue" points="956.01,-91.28 964.62,-85.11 954.04,-84.57 956.01,-91.28"/>
</g>
<!-- Node13 -->
<g id="node13" class="node">
<title>Node13</title>
<g id="a_node13"><a xlink:title=" ">
<polygon fill="white" stroke="#bfbfbf" points="1065.21,-65.05 1065.21,-85.05 1155.68,-85.05 1155.68,-65.05 1065.21,-65.05"/>
<text text-anchor="middle" x="1110.45" y="-72.05" font-family="Helvetica,sans-Serif" font-size="10.00">haldls/vx/event.h</text>
</a>
</g>
</g>
<!-- Node1&#45;&gt;Node13 -->
<g id="edge12" class="edge">
<title>Node1&#45;&gt;Node13</title>
<path fill="none" stroke="midnightblue" d="M819.38,-139.46C885.76,-127.77 977.01,-110.56 1056.45,-91.55 1061.18,-90.42 1066.12,-89.14 1071,-87.82"/>
<polygon fill="midnightblue" stroke="midnightblue" points="1072.18,-91.12 1080.86,-85.06 1070.29,-84.38 1072.18,-91.12"/>
</g>
<!-- Node14 -->
<g id="node14" class="node">
<title>Node14</title>
<g id="a_node14"><a xlink:title=" ">
<polygon fill="white" stroke="#bfbfbf" points="1173.82,-65.05 1173.82,-85.05 1257.07,-85.05 1257.07,-65.05 1173.82,-65.05"/>
<text text-anchor="middle" x="1215.45" y="-72.05" font-family="Helvetica,sans-Serif" font-size="10.00">hate/type_list.h</text>
</a>
</g>
</g>
<!-- Node1&#45;&gt;Node14 -->
<g id="edge13" class="edge">
<title>Node1&#45;&gt;Node14</title>
<path fill="none" stroke="midnightblue" d="M819.47,-145.69C908.65,-135.75 1046.71,-117.82 1164.45,-91.55 1169.11,-90.51 1173.97,-89.26 1178.76,-87.92"/>
<polygon fill="midnightblue" stroke="midnightblue" points="1179.77,-91.27 1188.39,-85.11 1177.81,-84.56 1179.77,-91.27"/>
</g>
<!-- Node15 -->
<g id="node15" class="node">
<title>Node15</title>
<g id="a_node15"><a xlink:title=" ">
<polygon fill="white" stroke="#bfbfbf" points="1274.94,-65.05 1274.94,-85.05 1355.95,-85.05 1355.95,-65.05 1274.94,-65.05"/>
<text text-anchor="middle" x="1315.45" y="-72.05" font-family="Helvetica,sans-Serif" font-size="10.00">hate/visibility.h</text>
</a>
</g>
</g>
<!-- Node1&#45;&gt;Node15 -->
<g id="edge14" class="edge">
<title>Node1&#45;&gt;Node15</title>
<path fill="none" stroke="midnightblue" d="M819.53,-149.48C927.84,-141.76 1111.63,-124.83 1266.45,-91.55 1270.94,-90.59 1275.6,-89.38 1280.19,-88.08"/>
<polygon fill="midnightblue" stroke="midnightblue" points="1281.45,-91.35 1290.01,-85.1 1279.42,-84.65 1281.45,-91.35"/>
</g>
<!-- Node16 -->
<g id="node16" class="node">
<title>Node16</title>
<g id="a_node16"><a xlink:title=" ">
<polygon fill="white" stroke="#bfbfbf" points="1373.83,-65.05 1373.83,-85.05 1477.07,-85.05 1477.07,-65.05 1373.83,-65.05"/>
<text text-anchor="middle" x="1425.45" y="-72.05" font-family="Helvetica,sans-Serif" font-size="10.00">hxcomm/vx/target.h</text>
</a>
</g>
</g>
<!-- Node1&#45;&gt;Node16 -->
<g id="edge15" class="edge">
<title>Node1&#45;&gt;Node16</title>
<path fill="none" stroke="midnightblue" d="M819.39,-150.31C944.31,-142.91 1172.95,-125.77 1365.45,-91.55 1371.63,-90.45 1378.12,-89.05 1384.45,-87.53"/>
<polygon fill="midnightblue" stroke="midnightblue" points="1385.35,-90.92 1394.2,-85.1 1383.65,-84.13 1385.35,-90.92"/>
</g>
<!-- Node17 -->
<g id="node17" class="node">
<title>Node17</title>
<g id="a_node17"><a xlink:href="genpybind_8h.html" target="_top" xlink:title=" ">
<polygon fill="white" stroke="black" points="1449.38,-2.05 1449.38,-22.05 1561.52,-22.05 1561.52,-2.05 1449.38,-2.05"/>
<text text-anchor="middle" x="1505.45" y="-9.05" font-family="Helvetica,sans-Serif" font-size="10.00">stadls/vx/genpybind.h</text>
</a>
</g>
</g>
<!-- Node1&#45;&gt;Node17 -->
<g id="edge16" class="edge">
<title>Node1&#45;&gt;Node17</title>
<path fill="none" stroke="midnightblue" d="M819.23,-153.29C1010.88,-148.8 1436.77,-134.11 1486.45,-91.55 1503.29,-77.12 1506.57,-50.56 1506.62,-32.36"/>
<polygon fill="midnightblue" stroke="midnightblue" points="1510.12,-32.19 1506.33,-22.29 1503.12,-32.39 1510.12,-32.19"/>
</g>
<!-- Node18 -->
<g id="node18" class="node">
<title>Node18</title>
<g id="a_node18"><a xlink:href="run__time__info_8h.html" target="_top" xlink:title=" ">
<polygon fill="white" stroke="black" points="1533.16,-59.05 1533.16,-91.05 1629.73,-91.05 1629.73,-59.05 1533.16,-59.05"/>
<text text-anchor="start" x="1541.16" y="-78.05" font-family="Helvetica,sans-Serif" font-size="10.00">stadls/vx/run_time</text>
<text text-anchor="middle" x="1581.45" y="-66.05" font-family="Helvetica,sans-Serif" font-size="10.00">_info.h</text>
</a>
</g>
</g>
<!-- Node1&#45;&gt;Node18 -->
<g id="edge18" class="edge">
<title>Node1&#45;&gt;Node18</title>
<path fill="none" stroke="midnightblue" d="M819.23,-152.58C967.9,-147.52 1268.32,-132.71 1519.45,-91.55 1520.54,-91.37 1521.65,-91.18 1522.76,-90.99"/>
<polygon fill="midnightblue" stroke="midnightblue" points="1523.73,-94.36 1532.87,-89 1522.38,-87.49 1523.73,-94.36"/>
</g>
<!-- Node17&#45;&gt;Node17 -->
<g id="edge17" class="edge">
<title>Node17&#45;&gt;Node17</title>
<path fill="none" stroke="midnightblue" d="M1533.95,-22.11C1556.44,-26 1579.52,-22.65 1579.52,-12.05 1579.52,-3.03 1562.79,0.74 1543.93,-0.74"/>
<polygon fill="midnightblue" stroke="midnightblue" points="1543.44,2.72 1533.95,-1.99 1544.31,-4.22 1543.44,2.72"/>
</g>
<!-- Node18&#45;&gt;Node17 -->
<g id="edge20" class="edge">
<title>Node18&#45;&gt;Node17</title>
<path fill="none" stroke="midnightblue" d="M1562.66,-58.97C1551.06,-49.66 1536.21,-37.75 1524.55,-28.39"/>
<polygon fill="midnightblue" stroke="midnightblue" points="1526.71,-25.63 1516.72,-22.1 1522.33,-31.09 1526.71,-25.63"/>
</g>
<!-- Node19 -->
<g id="node19" class="node">
<title>Node19</title>
<g id="a_node19"><a xlink:title=" ">
<polygon fill="white" stroke="#bfbfbf" points="1597.94,-2.05 1597.94,-22.05 1718.96,-22.05 1718.96,-2.05 1597.94,-2.05"/>
<text text-anchor="middle" x="1658.45" y="-9.05" font-family="Helvetica,sans-Serif" font-size="10.00">fisch/vx/run_time_info.h</text>
</a>
</g>
</g>
<!-- Node18&#45;&gt;Node19 -->
<g id="edge19" class="edge">
<title>Node18&#45;&gt;Node19</title>
<path fill="none" stroke="midnightblue" d="M1600.48,-58.97C1612.24,-49.66 1627.28,-37.75 1639.09,-28.39"/>
<polygon fill="midnightblue" stroke="midnightblue" points="1641.36,-31.05 1647.03,-22.1 1637.02,-25.56 1641.36,-31.05"/>
</g>
</g>
</svg>
