<?xml version="1.0" encoding="UTF-8" standalone="no"?>
<!DOCTYPE svg PUBLIC "-//W3C//DTD SVG 1.1//EN"
 "http://www.w3.org/Graphics/SVG/1.1/DTD/svg11.dtd">
<!-- Generated by graphviz version 2.46.0 (0)
 -->
<!-- Title: /jenkins/jenlib_workspaces_f9/bld_nightly&#45;haldls.YmxkX25pZ2h0bHktaGFsZGxzIzEzNzk.x/haldls/include/stadls/vx/reinit_stack_entry.h Pages: 1 -->
<svg width="1662pt" height="262pt"
 viewBox="0.00 0.00 1661.81 261.55" xmlns="http://www.w3.org/2000/svg" xmlns:xlink="http://www.w3.org/1999/xlink">
<g id="graph0" class="graph" transform="scale(1 1) rotate(0) translate(4 257.55)">
<title>/jenkins/jenlib_workspaces_f9/bld_nightly&#45;haldls.YmxkX25pZ2h0bHktaGFsZGxzIzEzNzk.x/haldls/include/stadls/vx/reinit_stack_entry.h</title>
<polygon fill="white" stroke="transparent" points="-4,4 -4,-257.55 1657.81,-257.55 1657.81,4 -4,4"/>
<!-- Node1 -->
<g id="node1" class="node">
<title>Node1</title>
<g id="a_node1"><a xlink:title=" ">
<polygon fill="#bfbfbf" stroke="black" points="100.79,-197.05 100.79,-253.05 282.38,-253.05 282.38,-197.05 100.79,-197.05"/>
<text text-anchor="start" x="108.79" y="-240.05" font-family="Helvetica,sans-Serif" font-size="10.00">/jenkins/jenlib_workspaces</text>
<text text-anchor="start" x="108.79" y="-228.05" font-family="Helvetica,sans-Serif" font-size="10.00">_f9/bld_nightly&#45;haldls.YmxkX25p</text>
<text text-anchor="start" x="108.79" y="-216.05" font-family="Helvetica,sans-Serif" font-size="10.00">Z2h0bHktaGFsZGxzIzEzNzk.x/haldls</text>
<text text-anchor="middle" x="191.58" y="-204.05" font-family="Helvetica,sans-Serif" font-size="10.00">/include/stadls/vx/reinit_stack_entry.h</text>
</a>
</g>
</g>
<!-- Node2 -->
<g id="node2" class="node">
<title>Node2</title>
<g id="a_node2"><a xlink:title=" ">
<polygon fill="white" stroke="#bfbfbf" points="23.08,-65.05 23.08,-85.05 104.08,-85.05 104.08,-65.05 23.08,-65.05"/>
<text text-anchor="middle" x="63.58" y="-72.05" font-family="Helvetica,sans-Serif" font-size="10.00">hate/visibility.h</text>
</a>
</g>
</g>
<!-- Node1&#45;&gt;Node2 -->
<g id="edge1" class="edge">
<title>Node1&#45;&gt;Node2</title>
<path fill="none" stroke="midnightblue" d="M168.1,-196.91C141.78,-166.47 99.91,-118.06 78.01,-92.73"/>
<polygon fill="midnightblue" stroke="midnightblue" points="80.59,-90.37 71.4,-85.09 75.29,-94.94 80.59,-90.37"/>
</g>
<!-- Node3 -->
<g id="node3" class="node">
<title>Node3</title>
<g id="a_node3"><a xlink:href="genpybind_8h.html" target="_top" xlink:title=" ">
<polygon fill="white" stroke="black" points="399.51,-2.05 399.51,-22.05 511.65,-22.05 511.65,-2.05 399.51,-2.05"/>
<text text-anchor="middle" x="455.58" y="-9.05" font-family="Helvetica,sans-Serif" font-size="10.00">stadls/vx/genpybind.h</text>
</a>
</g>
</g>
<!-- Node1&#45;&gt;Node3 -->
<g id="edge2" class="edge">
<title>Node1&#45;&gt;Node3</title>
<path fill="none" stroke="midnightblue" d="M124.88,-196.92C56.5,-165.36 -33.63,-110.87 13.58,-58.55 38.22,-31.24 271.53,-19.37 388.86,-15.09"/>
<polygon fill="midnightblue" stroke="midnightblue" points="389.29,-18.58 399.16,-14.72 389.05,-11.58 389.29,-18.58"/>
</g>
<!-- Node4 -->
<g id="node4" class="node">
<title>Node4</title>
<g id="a_node4"><a xlink:href="playback__program_8h.html" target="_top" xlink:title=" ">
<polygon fill="white" stroke="black" points="611.02,-128.05 611.02,-160.05 708.15,-160.05 708.15,-128.05 611.02,-128.05"/>
<text text-anchor="start" x="619.02" y="-147.05" font-family="Helvetica,sans-Serif" font-size="10.00">stadls/vx/playback</text>
<text text-anchor="middle" x="659.58" y="-135.05" font-family="Helvetica,sans-Serif" font-size="10.00">_program.h</text>
</a>
</g>
</g>
<!-- Node1&#45;&gt;Node4 -->
<g id="edge4" class="edge">
<title>Node1&#45;&gt;Node4</title>
<path fill="none" stroke="midnightblue" d="M282.65,-208.68C376.75,-192.8 520.83,-168.47 600.85,-154.97"/>
<polygon fill="midnightblue" stroke="midnightblue" points="601.48,-158.41 610.76,-153.29 600.31,-151.51 601.48,-158.41"/>
</g>
<!-- Node6 -->
<g id="node6" class="node">
<title>Node6</title>
<g id="a_node6"><a xlink:title=" ">
<polygon fill="white" stroke="#bfbfbf" points="122.53,-65.05 122.53,-85.05 174.63,-85.05 174.63,-65.05 122.53,-65.05"/>
<text text-anchor="middle" x="148.58" y="-72.05" font-family="Helvetica,sans-Serif" font-size="10.00">memory</text>
</a>
</g>
</g>
<!-- Node1&#45;&gt;Node6 -->
<g id="edge24" class="edge">
<title>Node1&#45;&gt;Node6</title>
<path fill="none" stroke="midnightblue" d="M183.69,-196.91C175.08,-167.26 161.52,-120.57 154.02,-94.76"/>
<polygon fill="midnightblue" stroke="midnightblue" points="157.36,-93.72 151.21,-85.09 150.64,-95.67 157.36,-93.72"/>
</g>
<!-- Node7 -->
<g id="node7" class="node">
<title>Node7</title>
<g id="a_node7"><a xlink:title=" ">
<polygon fill="white" stroke="#bfbfbf" points="193.07,-65.05 193.07,-85.05 244.09,-85.05 244.09,-65.05 193.07,-65.05"/>
<text text-anchor="middle" x="218.58" y="-72.05" font-family="Helvetica,sans-Serif" font-size="10.00">optional</text>
</a>
</g>
</g>
<!-- Node1&#45;&gt;Node7 -->
<g id="edge25" class="edge">
<title>Node1&#45;&gt;Node7</title>
<path fill="none" stroke="midnightblue" d="M196.53,-196.91C201.92,-167.39 210.38,-120.99 215.1,-95.11"/>
<polygon fill="midnightblue" stroke="midnightblue" points="218.58,-95.56 216.93,-85.09 211.69,-94.3 218.58,-95.56"/>
</g>
<!-- Node21 -->
<g id="node21" class="node">
<title>Node21</title>
<g id="a_node21"><a xlink:title=" ">
<polygon fill="white" stroke="#bfbfbf" points="726.46,-128.05 726.46,-160.05 834.7,-160.05 834.7,-128.05 726.46,-128.05"/>
<text text-anchor="start" x="734.46" y="-147.05" font-family="Helvetica,sans-Serif" font-size="10.00">stadls/vx/reinit_stack</text>
<text text-anchor="middle" x="780.58" y="-135.05" font-family="Helvetica,sans-Serif" font-size="10.00">_entry.tcc</text>
</a>
</g>
</g>
<!-- Node1&#45;&gt;Node21 -->
<g id="edge26" class="edge">
<title>Node1&#45;&gt;Node21</title>
<path fill="none" stroke="midnightblue" d="M282.84,-216.42C385.98,-207.02 558.97,-188.96 716.5,-160.62"/>
<polygon fill="midnightblue" stroke="midnightblue" points="717.16,-164.06 726.37,-158.83 715.91,-157.17 717.16,-164.06"/>
</g>
<!-- Node3&#45;&gt;Node3 -->
<g id="edge3" class="edge">
<title>Node3&#45;&gt;Node3</title>
<path fill="none" stroke="midnightblue" d="M484.09,-22.11C506.58,-26 529.65,-22.65 529.65,-12.05 529.65,-3.03 512.92,0.74 494.06,-0.74"/>
<polygon fill="midnightblue" stroke="midnightblue" points="493.57,2.72 484.09,-1.99 494.45,-4.22 493.57,2.72"/>
</g>
<!-- Node4&#45;&gt;Node2 -->
<g id="edge18" class="edge">
<title>Node4&#45;&gt;Node2</title>
<path fill="none" stroke="midnightblue" d="M610.89,-141.83C514.87,-138.67 294.71,-127.76 113.58,-91.55 108.82,-90.6 103.87,-89.37 99.01,-88.02"/>
<polygon fill="midnightblue" stroke="midnightblue" points="99.85,-84.62 89.27,-85.13 97.86,-91.33 99.85,-84.62"/>
</g>
<!-- Node4&#45;&gt;Node3 -->
<g id="edge20" class="edge">
<title>Node4&#45;&gt;Node3</title>
<path fill="none" stroke="midnightblue" d="M610.76,-133.53C580.61,-125.88 542.32,-112.81 513.58,-91.55 491.94,-75.55 474.83,-49.19 464.95,-31.48"/>
<polygon fill="midnightblue" stroke="midnightblue" points="467.79,-29.37 460,-22.2 461.62,-32.67 467.79,-29.37"/>
</g>
<!-- Node5 -->
<g id="node5" class="node">
<title>Node5</title>
<g id="a_node5"><a xlink:title=" ">
<polygon fill="white" stroke="#bfbfbf" points="637.13,-65.05 637.13,-85.05 682.03,-85.05 682.03,-65.05 637.13,-65.05"/>
<text text-anchor="middle" x="659.58" y="-72.05" font-family="Helvetica,sans-Serif" font-size="10.00">cstdint</text>
</a>
</g>
</g>
<!-- Node4&#45;&gt;Node5 -->
<g id="edge5" class="edge">
<title>Node4&#45;&gt;Node5</title>
<path fill="none" stroke="midnightblue" d="M659.58,-127.85C659.58,-118.21 659.58,-105.65 659.58,-95.32"/>
<polygon fill="midnightblue" stroke="midnightblue" points="663.08,-95.22 659.58,-85.22 656.08,-95.22 663.08,-95.22"/>
</g>
<!-- Node4&#45;&gt;Node6 -->
<g id="edge6" class="edge">
<title>Node4&#45;&gt;Node6</title>
<path fill="none" stroke="midnightblue" d="M610.7,-142.7C523.44,-140.99 335.71,-132.4 183.58,-91.55 180.96,-90.85 178.29,-89.98 175.65,-89.01"/>
<polygon fill="midnightblue" stroke="midnightblue" points="176.94,-85.75 166.36,-85.2 174.28,-92.23 176.94,-85.75"/>
</g>
<!-- Node4&#45;&gt;Node7 -->
<g id="edge7" class="edge">
<title>Node4&#45;&gt;Node7</title>
<path fill="none" stroke="midnightblue" d="M610.71,-141.61C533.33,-138.27 378.47,-127.32 252.58,-91.55 250.12,-90.85 247.62,-90 245.14,-89.07"/>
<polygon fill="midnightblue" stroke="midnightblue" points="246.42,-85.81 235.84,-85.14 243.69,-92.26 246.42,-85.81"/>
</g>
<!-- Node8 -->
<g id="node8" class="node">
<title>Node8</title>
<g id="a_node8"><a xlink:title=" ">
<polygon fill="white" stroke="#bfbfbf" points="700.36,-65.05 700.36,-85.05 740.8,-85.05 740.8,-65.05 700.36,-65.05"/>
<text text-anchor="middle" x="720.58" y="-72.05" font-family="Helvetica,sans-Serif" font-size="10.00">string</text>
</a>
</g>
</g>
<!-- Node4&#45;&gt;Node8 -->
<g id="edge8" class="edge">
<title>Node4&#45;&gt;Node8</title>
<path fill="none" stroke="midnightblue" d="M673.42,-127.85C682.95,-117.39 695.6,-103.49 705.4,-92.73"/>
<polygon fill="midnightblue" stroke="midnightblue" points="708.09,-94.97 712.24,-85.22 702.92,-90.26 708.09,-94.97"/>
</g>
<!-- Node9 -->
<g id="node9" class="node">
<title>Node9</title>
<g id="a_node9"><a xlink:title=" ">
<polygon fill="white" stroke="#bfbfbf" points="758.97,-65.05 758.97,-85.05 802.19,-85.05 802.19,-65.05 758.97,-65.05"/>
<text text-anchor="middle" x="780.58" y="-72.05" font-family="Helvetica,sans-Serif" font-size="10.00">vector</text>
</a>
</g>
</g>
<!-- Node4&#45;&gt;Node9 -->
<g id="edge9" class="edge">
<title>Node4&#45;&gt;Node9</title>
<path fill="none" stroke="midnightblue" d="M686.74,-128.02C707.31,-116.63 735.36,-101.09 755.42,-89.98"/>
<polygon fill="midnightblue" stroke="midnightblue" points="757.24,-92.98 764.29,-85.07 753.85,-86.85 757.24,-92.98"/>
</g>
<!-- Node10 -->
<g id="node10" class="node">
<title>Node10</title>
<g id="a_node10"><a xlink:title=" ">
<polygon fill="white" stroke="#bfbfbf" points="820.23,-65.05 820.23,-85.05 912.93,-85.05 912.93,-65.05 820.23,-65.05"/>
<text text-anchor="middle" x="866.58" y="-72.05" font-family="Helvetica,sans-Serif" font-size="10.00">boost/variant.hpp</text>
</a>
</g>
</g>
<!-- Node4&#45;&gt;Node10 -->
<g id="edge10" class="edge">
<title>Node4&#45;&gt;Node10</title>
<path fill="none" stroke="midnightblue" d="M706.04,-128.02C743.14,-116.01 794.47,-99.39 829.01,-88.21"/>
<polygon fill="midnightblue" stroke="midnightblue" points="830.28,-91.48 838.72,-85.07 828.13,-84.82 830.28,-91.48"/>
</g>
<!-- Node11 -->
<g id="node11" class="node">
<title>Node11</title>
<g id="a_node11"><a xlink:title=" ">
<polygon fill="white" stroke="#bfbfbf" points="930.96,-59.05 930.96,-91.05 1024.2,-91.05 1024.2,-59.05 930.96,-59.05"/>
<text text-anchor="start" x="938.96" y="-78.05" font-family="Helvetica,sans-Serif" font-size="10.00">fisch/vx/container</text>
<text text-anchor="middle" x="977.58" y="-66.05" font-family="Helvetica,sans-Serif" font-size="10.00">_cast.h</text>
</a>
</g>
</g>
<!-- Node4&#45;&gt;Node11 -->
<g id="edge11" class="edge">
<title>Node4&#45;&gt;Node11</title>
<path fill="none" stroke="midnightblue" d="M708.24,-129.72C711.39,-128.96 714.53,-128.23 717.58,-127.55 804.4,-108.33 830.04,-111.6 921.01,-91.55"/>
<polygon fill="midnightblue" stroke="midnightblue" points="921.92,-94.93 930.91,-89.33 920.39,-88.1 921.92,-94.93"/>
</g>
<!-- Node12 -->
<g id="node12" class="node">
<title>Node12</title>
<g id="a_node12"><a xlink:title=" ">
<polygon fill="white" stroke="#bfbfbf" points="1041.96,-59.05 1041.96,-91.05 1135.2,-91.05 1135.2,-59.05 1041.96,-59.05"/>
<text text-anchor="start" x="1049.96" y="-78.05" font-family="Helvetica,sans-Serif" font-size="10.00">fisch/vx/container</text>
<text text-anchor="middle" x="1088.58" y="-66.05" font-family="Helvetica,sans-Serif" font-size="10.00">_ticket.h</text>
</a>
</g>
</g>
<!-- Node4&#45;&gt;Node12 -->
<g id="edge12" class="edge">
<title>Node4&#45;&gt;Node12</title>
<path fill="none" stroke="midnightblue" d="M708.19,-129.5C711.36,-128.79 714.51,-128.13 717.58,-127.55 853.21,-101.85 893.03,-118.01 1031.74,-91.73"/>
<polygon fill="midnightblue" stroke="midnightblue" points="1032.74,-95.1 1041.9,-89.76 1031.41,-88.23 1032.74,-95.1"/>
</g>
<!-- Node13 -->
<g id="node13" class="node">
<title>Node13</title>
<g id="a_node13"><a xlink:title=" ">
<polygon fill="white" stroke="#bfbfbf" points="1153.24,-65.05 1153.24,-85.05 1295.93,-85.05 1295.93,-65.05 1153.24,-65.05"/>
<text text-anchor="middle" x="1224.58" y="-72.05" font-family="Helvetica,sans-Serif" font-size="10.00">fisch/vx/playback_program.h</text>
</a>
</g>
</g>
<!-- Node4&#45;&gt;Node13 -->
<g id="edge13" class="edge">
<title>Node4&#45;&gt;Node13</title>
<path fill="none" stroke="midnightblue" d="M708.18,-129.4C711.35,-128.71 714.5,-128.09 717.58,-127.55 905.2,-94.84 955.93,-117.7 1144.58,-91.55 1153.64,-90.3 1163.22,-88.69 1172.48,-86.98"/>
<polygon fill="midnightblue" stroke="midnightblue" points="1173.2,-90.41 1182.37,-85.11 1171.9,-83.53 1173.2,-90.41"/>
</g>
<!-- Node14 -->
<g id="node14" class="node">
<title>Node14</title>
<g id="a_node14"><a xlink:title=" ">
<polygon fill="white" stroke="#bfbfbf" points="1313.91,-65.05 1313.91,-85.05 1423.26,-85.05 1423.26,-65.05 1313.91,-65.05"/>
<text text-anchor="middle" x="1368.58" y="-72.05" font-family="Helvetica,sans-Serif" font-size="10.00">haldls/cerealization.h</text>
</a>
</g>
</g>
<!-- Node4&#45;&gt;Node14 -->
<g id="edge14" class="edge">
<title>Node4&#45;&gt;Node14</title>
<path fill="none" stroke="midnightblue" d="M708.16,-129.31C711.33,-128.65 714.49,-128.05 717.58,-127.55 975.57,-85.6 1046.11,-130.47 1304.58,-91.55 1311.57,-90.5 1318.91,-89.05 1326.03,-87.46"/>
<polygon fill="midnightblue" stroke="midnightblue" points="1327.31,-90.76 1336.24,-85.06 1325.71,-83.94 1327.31,-90.76"/>
</g>
<!-- Node15 -->
<g id="node15" class="node">
<title>Node15</title>
<g id="a_node15"><a xlink:title=" ">
<polygon fill="white" stroke="#bfbfbf" points="1441.41,-65.05 1441.41,-85.05 1545.75,-85.05 1545.75,-65.05 1441.41,-65.05"/>
<text text-anchor="middle" x="1493.58" y="-72.05" font-family="Helvetica,sans-Serif" font-size="10.00">haldls/vx/common.h</text>
</a>
</g>
</g>
<!-- Node4&#45;&gt;Node15 -->
<g id="edge15" class="edge">
<title>Node4&#45;&gt;Node15</title>
<path fill="none" stroke="midnightblue" d="M708.16,-129.27C711.33,-128.62 714.49,-128.04 717.58,-127.55 1031.91,-78.2 1117.95,-138.97 1432.58,-91.55 1439.33,-90.53 1446.42,-89.09 1453.28,-87.49"/>
<polygon fill="midnightblue" stroke="midnightblue" points="1454.24,-90.86 1463.1,-85.06 1452.56,-84.06 1454.24,-90.86"/>
</g>
<!-- Node16 -->
<g id="node16" class="node">
<title>Node16</title>
<g id="a_node16"><a xlink:title=" ">
<polygon fill="white" stroke="#bfbfbf" points="1563.35,-65.05 1563.35,-85.05 1653.81,-85.05 1653.81,-65.05 1563.35,-65.05"/>
<text text-anchor="middle" x="1608.58" y="-72.05" font-family="Helvetica,sans-Serif" font-size="10.00">haldls/vx/event.h</text>
</a>
</g>
</g>
<!-- Node4&#45;&gt;Node16 -->
<g id="edge16" class="edge">
<title>Node4&#45;&gt;Node16</title>
<path fill="none" stroke="midnightblue" d="M708.15,-129.25C711.33,-128.6 714.49,-128.03 717.58,-127.55 1085.63,-71.15 1187.07,-151.33 1554.58,-91.55 1560.18,-90.64 1566.01,-89.35 1571.7,-87.89"/>
<polygon fill="midnightblue" stroke="midnightblue" points="1572.96,-91.17 1581.67,-85.13 1571.1,-84.42 1572.96,-91.17"/>
</g>
<!-- Node17 -->
<g id="node17" class="node">
<title>Node17</title>
<g id="a_node17"><a xlink:title=" ">
<polygon fill="white" stroke="#bfbfbf" points="261.96,-65.05 261.96,-85.05 345.2,-85.05 345.2,-65.05 261.96,-65.05"/>
<text text-anchor="middle" x="303.58" y="-72.05" font-family="Helvetica,sans-Serif" font-size="10.00">hate/type_list.h</text>
</a>
</g>
</g>
<!-- Node4&#45;&gt;Node17 -->
<g id="edge17" class="edge">
<title>Node4&#45;&gt;Node17</title>
<path fill="none" stroke="midnightblue" d="M610.95,-136.92C550.25,-128.79 443.46,-112.95 353.58,-91.55 349.18,-90.51 344.61,-89.28 340.09,-87.99"/>
<polygon fill="midnightblue" stroke="midnightblue" points="340.97,-84.6 330.38,-85.09 338.96,-91.3 340.97,-84.6"/>
</g>
<!-- Node18 -->
<g id="node18" class="node">
<title>Node18</title>
<g id="a_node18"><a xlink:title=" ">
<polygon fill="white" stroke="#bfbfbf" points="362.96,-65.05 362.96,-85.05 466.2,-85.05 466.2,-65.05 362.96,-65.05"/>
<text text-anchor="middle" x="414.58" y="-72.05" font-family="Helvetica,sans-Serif" font-size="10.00">hxcomm/vx/target.h</text>
</a>
</g>
</g>
<!-- Node4&#45;&gt;Node18 -->
<g id="edge19" class="edge">
<title>Node4&#45;&gt;Node18</title>
<path fill="none" stroke="midnightblue" d="M610.88,-129.74C566.05,-117.48 500.2,-99.47 457.35,-87.75"/>
<polygon fill="midnightblue" stroke="midnightblue" points="458.08,-84.32 447.51,-85.06 456.24,-91.07 458.08,-84.32"/>
</g>
<!-- Node19 -->
<g id="node19" class="node">
<title>Node19</title>
<g id="a_node19"><a xlink:href="run__time__info_8h.html" target="_top" xlink:title=" ">
<polygon fill="white" stroke="black" points="522.3,-59.05 522.3,-91.05 618.86,-91.05 618.86,-59.05 522.3,-59.05"/>
<text text-anchor="start" x="530.3" y="-78.05" font-family="Helvetica,sans-Serif" font-size="10.00">stadls/vx/run_time</text>
<text text-anchor="middle" x="570.58" y="-66.05" font-family="Helvetica,sans-Serif" font-size="10.00">_info.h</text>
</a>
</g>
</g>
<!-- Node4&#45;&gt;Node19 -->
<g id="edge21" class="edge">
<title>Node4&#45;&gt;Node19</title>
<path fill="none" stroke="midnightblue" d="M639.39,-127.85C627.44,-118.85 612.12,-107.32 598.97,-97.42"/>
<polygon fill="midnightblue" stroke="midnightblue" points="600.79,-94.41 590.7,-91.2 596.58,-100.01 600.79,-94.41"/>
</g>
<!-- Node19&#45;&gt;Node3 -->
<g id="edge23" class="edge">
<title>Node19&#45;&gt;Node3</title>
<path fill="none" stroke="midnightblue" d="M542.15,-58.97C523.75,-49.21 499.94,-36.58 481.96,-27.04"/>
<polygon fill="midnightblue" stroke="midnightblue" points="483.11,-23.69 472.63,-22.1 479.83,-29.88 483.11,-23.69"/>
</g>
<!-- Node20 -->
<g id="node20" class="node">
<title>Node20</title>
<g id="a_node20"><a xlink:title=" ">
<polygon fill="white" stroke="#bfbfbf" points="548.07,-2.05 548.07,-22.05 669.09,-22.05 669.09,-2.05 548.07,-2.05"/>
<text text-anchor="middle" x="608.58" y="-9.05" font-family="Helvetica,sans-Serif" font-size="10.00">fisch/vx/run_time_info.h</text>
</a>
</g>
</g>
<!-- Node19&#45;&gt;Node20 -->
<g id="edge22" class="edge">
<title>Node19&#45;&gt;Node20</title>
<path fill="none" stroke="midnightblue" d="M579.97,-58.97C585.32,-50.39 592.05,-39.58 597.64,-30.61"/>
<polygon fill="midnightblue" stroke="midnightblue" points="600.63,-32.44 602.95,-22.1 594.69,-28.74 600.63,-32.44"/>
</g>
</g>
</svg>
