<?xml version="1.0" encoding="UTF-8" standalone="no"?>
<!DOCTYPE svg PUBLIC "-//W3C//DTD SVG 1.1//EN"
 "http://www.w3.org/Graphics/SVG/1.1/DTD/svg11.dtd">
<!-- Generated by graphviz version 2.46.0 (0)
 -->
<!-- Title: /jenkins/jenlib_workspaces_f9/bld_nightly&#45;haldls.YmxkX25pZ2h0bHktaGFsZGxzIzEzNzk.x/haldls/include/stadls/vx/run.h Pages: 1 -->
<svg width="294pt" height="193pt"
 viewBox="0.00 0.00 293.91 192.55" xmlns="http://www.w3.org/2000/svg" xmlns:xlink="http://www.w3.org/1999/xlink">
<g id="graph0" class="graph" transform="scale(1 1) rotate(0) translate(4 188.55)">
<title>/jenkins/jenlib_workspaces_f9/bld_nightly&#45;haldls.YmxkX25pZ2h0bHktaGFsZGxzIzEzNzk.x/haldls/include/stadls/vx/run.h</title>
<polygon fill="white" stroke="transparent" points="-4,4 -4,-188.55 289.91,-188.55 289.91,4 -4,4"/>
<!-- Node1 -->
<g id="node1" class="node">
<title>Node1</title>
<g id="a_node1"><a xlink:title=" ">
<polygon fill="#bfbfbf" stroke="black" points="41.56,-128.05 41.56,-184.05 222.58,-184.05 222.58,-128.05 41.56,-128.05"/>
<text text-anchor="start" x="49.56" y="-171.05" font-family="Helvetica,sans-Serif" font-size="10.00">/jenkins/jenlib_workspaces</text>
<text text-anchor="start" x="49.56" y="-159.05" font-family="Helvetica,sans-Serif" font-size="10.00">_f9/bld_nightly&#45;haldls.YmxkX25p</text>
<text text-anchor="start" x="49.56" y="-147.05" font-family="Helvetica,sans-Serif" font-size="10.00">Z2h0bHktaGFsZGxzIzEzNzk.x/haldls</text>
<text text-anchor="middle" x="132.07" y="-135.05" font-family="Helvetica,sans-Serif" font-size="10.00">/include/stadls/vx/run.h</text>
</a>
</g>
</g>
<!-- Node2 -->
<g id="node2" class="node">
<title>Node2</title>
<g id="a_node2"><a xlink:href="genpybind_8h.html" target="_top" xlink:title=" ">
<polygon fill="white" stroke="black" points="0,-2.05 0,-22.05 112.14,-22.05 112.14,-2.05 0,-2.05"/>
<text text-anchor="middle" x="56.07" y="-9.05" font-family="Helvetica,sans-Serif" font-size="10.00">stadls/vx/genpybind.h</text>
</a>
</g>
</g>
<!-- Node1&#45;&gt;Node2 -->
<g id="edge1" class="edge">
<title>Node1&#45;&gt;Node2</title>
<path fill="none" stroke="midnightblue" d="M102.35,-127.97C92.38,-117.47 82.04,-104.79 75.07,-91.55 65.2,-72.8 60.36,-48.83 58.06,-32.34"/>
<polygon fill="midnightblue" stroke="midnightblue" points="61.51,-31.78 56.83,-22.27 54.57,-32.62 61.51,-31.78"/>
</g>
<!-- Node3 -->
<g id="node3" class="node">
<title>Node3</title>
<g id="a_node3"><a xlink:href="run__time__info_8h.html" target="_top" xlink:title=" ">
<polygon fill="white" stroke="black" points="83.79,-59.05 83.79,-91.05 180.36,-91.05 180.36,-59.05 83.79,-59.05"/>
<text text-anchor="start" x="91.79" y="-78.05" font-family="Helvetica,sans-Serif" font-size="10.00">stadls/vx/run_time</text>
<text text-anchor="middle" x="132.07" y="-66.05" font-family="Helvetica,sans-Serif" font-size="10.00">_info.h</text>
</a>
</g>
</g>
<!-- Node1&#45;&gt;Node3 -->
<g id="edge3" class="edge">
<title>Node1&#45;&gt;Node3</title>
<path fill="none" stroke="midnightblue" d="M132.07,-127.87C132.07,-119.2 132.07,-109.66 132.07,-101.16"/>
<polygon fill="midnightblue" stroke="midnightblue" points="135.57,-101.08 132.07,-91.08 128.57,-101.08 135.57,-101.08"/>
</g>
<!-- Node5 -->
<g id="node5" class="node">
<title>Node5</title>
<g id="a_node5"><a xlink:title=" ">
<polygon fill="white" stroke="#bfbfbf" points="198.23,-65.05 198.23,-85.05 285.91,-85.05 285.91,-65.05 198.23,-65.05"/>
<text text-anchor="middle" x="242.07" y="-72.05" font-family="Helvetica,sans-Serif" font-size="10.00">stadls/vx/run.tcc</text>
</a>
</g>
</g>
<!-- Node1&#45;&gt;Node5 -->
<g id="edge6" class="edge">
<title>Node1&#45;&gt;Node5</title>
<path fill="none" stroke="midnightblue" d="M169.93,-127.87C187.12,-115.52 206.79,-101.39 221.24,-91.01"/>
<polygon fill="midnightblue" stroke="midnightblue" points="223.42,-93.76 229.5,-85.08 219.34,-88.07 223.42,-93.76"/>
</g>
<!-- Node2&#45;&gt;Node2 -->
<g id="edge2" class="edge">
<title>Node2&#45;&gt;Node2</title>
<path fill="none" stroke="midnightblue" d="M84.58,-22.11C107.07,-26 130.14,-22.65 130.14,-12.05 130.14,-3.03 113.41,0.74 94.55,-0.74"/>
<polygon fill="midnightblue" stroke="midnightblue" points="94.06,2.72 84.58,-1.99 94.94,-4.22 94.06,2.72"/>
</g>
<!-- Node3&#45;&gt;Node2 -->
<g id="edge5" class="edge">
<title>Node3&#45;&gt;Node2</title>
<path fill="none" stroke="midnightblue" d="M113.29,-58.97C101.68,-49.66 86.84,-37.75 75.18,-28.39"/>
<polygon fill="midnightblue" stroke="midnightblue" points="77.33,-25.63 67.34,-22.1 72.95,-31.09 77.33,-25.63"/>
</g>
<!-- Node4 -->
<g id="node4" class="node">
<title>Node4</title>
<g id="a_node4"><a xlink:title=" ">
<polygon fill="white" stroke="#bfbfbf" points="148.56,-2.05 148.56,-22.05 269.58,-22.05 269.58,-2.05 148.56,-2.05"/>
<text text-anchor="middle" x="209.07" y="-9.05" font-family="Helvetica,sans-Serif" font-size="10.00">fisch/vx/run_time_info.h</text>
</a>
</g>
</g>
<!-- Node3&#45;&gt;Node4 -->
<g id="edge4" class="edge">
<title>Node3&#45;&gt;Node4</title>
<path fill="none" stroke="midnightblue" d="M151.11,-58.97C162.86,-49.66 177.9,-37.75 189.71,-28.39"/>
<polygon fill="midnightblue" stroke="midnightblue" points="191.99,-31.05 197.65,-22.1 187.64,-25.56 191.99,-31.05"/>
</g>
</g>
</svg>
