<?xml version="1.0" encoding="UTF-8" standalone="no"?>
<!DOCTYPE svg PUBLIC "-//W3C//DTD SVG 1.1//EN"
 "http://www.w3.org/Graphics/SVG/1.1/DTD/svg11.dtd">
<!-- Generated by graphviz version 2.46.0 (0)
 -->
<!-- Title: stadls::vx::v2::DumperDone Pages: 1 -->
<svg width="147pt" height="236pt"
 viewBox="0.00 0.00 146.80 236.00" xmlns="http://www.w3.org/2000/svg" xmlns:xlink="http://www.w3.org/1999/xlink">
<g id="graph0" class="graph" transform="scale(1 1) rotate(0) translate(4 232)">
<title>stadls::vx::v2::DumperDone</title>
<polygon fill="white" stroke="transparent" points="-4,4 -4,-232 142.8,-232 142.8,4 -4,4"/>
<!-- Node1 -->
<g id="node1" class="node">
<title>Node1</title>
<g id="a_node1"><a xlink:title=" ">
<polygon fill="#bfbfbf" stroke="black" points="0,-0.5 0,-20.5 138.8,-20.5 138.8,-0.5 0,-0.5"/>
<text text-anchor="middle" x="69.4" y="-7.5" font-family="Helvetica,sans-Serif" font-size="10.00">stadls::vx::v2::DumperDone</text>
</a>
</g>
</g>
<!-- Node2 -->
<g id="node2" class="node">
<title>Node2</title>
<g id="a_node2"><a xlink:title=" ">
<polygon fill="white" stroke="#bfbfbf" points="6.93,-69.5 6.93,-89.5 131.87,-89.5 131.87,-69.5 6.93,-69.5"/>
<text text-anchor="middle" x="69.4" y="-76.5" font-family="Helvetica,sans-Serif" font-size="10.00">std::vector&lt; coco_type &gt;</text>
</a>
</g>
</g>
<!-- Node2&#45;&gt;Node1 -->
<g id="edge1" class="edge">
<title>Node2&#45;&gt;Node1</title>
<path fill="none" stroke="#9a32cd" stroke-dasharray="5,2" d="M69.4,-59.08C69.4,-46.5 69.4,-30.68 69.4,-20.82"/>
<polygon fill="#9a32cd" stroke="#9a32cd" points="65.9,-59.46 69.4,-69.46 72.9,-59.46 65.9,-59.46"/>
<text text-anchor="middle" x="85.24" y="-42" font-family="Helvetica,sans-Serif" font-size="10.00"> values</text>
</g>
<!-- Node3 -->
<g id="node3" class="node">
<title>Node3</title>
<g id="a_node3"><a xlink:title=" ">
<polygon fill="white" stroke="#bfbfbf" points="26.67,-138.5 26.67,-158.5 112.13,-158.5 112.13,-138.5 26.67,-138.5"/>
<text text-anchor="middle" x="69.4" y="-145.5" font-family="Helvetica,sans-Serif" font-size="10.00">std::vector&lt; T &gt;</text>
</a>
</g>
</g>
<!-- Node3&#45;&gt;Node2 -->
<g id="edge2" class="edge">
<title>Node3&#45;&gt;Node2</title>
<path fill="none" stroke="orange" stroke-dasharray="5,2" d="M69.4,-128.08C69.4,-115.5 69.4,-99.68 69.4,-89.82"/>
<polygon fill="orange" stroke="orange" points="65.9,-128.46 69.4,-138.46 72.9,-128.46 65.9,-128.46"/>
<text text-anchor="middle" x="102.19" y="-111" font-family="Helvetica,sans-Serif" font-size="10.00"> &lt; coco_type &gt;</text>
</g>
<!-- Node4 -->
<g id="node4" class="node">
<title>Node4</title>
<g id="a_node4"><a xlink:title=" ">
<polygon fill="white" stroke="#bfbfbf" points="54.9,-207.5 54.9,-227.5 83.9,-227.5 83.9,-207.5 54.9,-207.5"/>
<text text-anchor="middle" x="68.95" y="-214.5" font-family="Helvetica,sans-Serif" font-size="10.00">T</text>
</a>
</g>
</g>
<!-- Node4&#45;&gt;Node3 -->
<g id="edge3" class="edge">
<title>Node4&#45;&gt;Node3</title>
<path fill="none" stroke="#9a32cd" stroke-dasharray="5,2" d="M69.4,-197.08C69.4,-184.5 69.4,-168.68 69.4,-158.82"/>
<polygon fill="#9a32cd" stroke="#9a32cd" points="65.9,-197.46 69.4,-207.46 72.9,-197.46 65.9,-197.46"/>
<text text-anchor="middle" x="91.07" y="-180" font-family="Helvetica,sans-Serif" font-size="10.00"> elements</text>
</g>
</g>
</svg>
