<?xml version="1.0" encoding="UTF-8" standalone="no"?>
<!DOCTYPE svg PUBLIC "-//W3C//DTD SVG 1.1//EN"
 "http://www.w3.org/Graphics/SVG/1.1/DTD/svg11.dtd">
<!-- Generated by graphviz version 2.46.0 (0)
 -->
<!-- Title: /jenkins/jenlib_workspaces_f9/bld_nightly&#45;haldls.YmxkX25pZ2h0bHktaGFsZGxzIzEzNzk.x/haldls/include/stadls/vx/v2/dumperdone.h Pages: 1 -->
<svg width="1434pt" height="134pt"
 viewBox="0.00 0.00 1433.63 134.00" xmlns="http://www.w3.org/2000/svg" xmlns:xlink="http://www.w3.org/1999/xlink">
<g id="graph0" class="graph" transform="scale(1 1) rotate(0) translate(4 130)">
<title>/jenkins/jenlib_workspaces_f9/bld_nightly&#45;haldls.YmxkX25pZ2h0bHktaGFsZGxzIzEzNzk.x/haldls/include/stadls/vx/v2/dumperdone.h</title>
<polygon fill="white" stroke="transparent" points="-4,4 -4,-130 1429.63,-130 1429.63,4 -4,4"/>
<!-- Node1 -->
<g id="node1" class="node">
<title>Node1</title>
<g id="a_node1"><a xlink:title=" ">
<polygon fill="#bfbfbf" stroke="black" points="667,-69.5 667,-125.5 848.02,-125.5 848.02,-69.5 667,-69.5"/>
<text text-anchor="start" x="675" y="-112.5" font-family="Helvetica,sans-Serif" font-size="10.00">/jenkins/jenlib_workspaces</text>
<text text-anchor="start" x="675" y="-100.5" font-family="Helvetica,sans-Serif" font-size="10.00">_f9/bld_nightly&#45;haldls.YmxkX25p</text>
<text text-anchor="start" x="675" y="-88.5" font-family="Helvetica,sans-Serif" font-size="10.00">Z2h0bHktaGFsZGxzIzEzNzk.x/haldls</text>
<text text-anchor="middle" x="757.51" y="-76.5" font-family="Helvetica,sans-Serif" font-size="10.00">/include/stadls/vx/v2/dumperdone.h</text>
</a>
</g>
</g>
<!-- Node2 -->
<g id="node2" class="node">
<title>Node2</title>
<g id="a_node2"><a xlink:title=" ">
<polygon fill="white" stroke="#bfbfbf" points="0,-0.5 0,-32.5 101.02,-32.5 101.02,-0.5 0,-0.5"/>
<text text-anchor="start" x="8" y="-19.5" font-family="Helvetica,sans-Serif" font-size="10.00">halco/hicann&#45;dls/vx</text>
<text text-anchor="middle" x="50.51" y="-7.5" font-family="Helvetica,sans-Serif" font-size="10.00">/barrier.h</text>
</a>
</g>
</g>
<!-- Node1&#45;&gt;Node2 -->
<g id="edge1" class="edge">
<title>Node1&#45;&gt;Node2</title>
<path fill="none" stroke="midnightblue" d="M667,-92.19C543.19,-85.27 314.12,-68.85 111.19,-33.15"/>
<polygon fill="midnightblue" stroke="midnightblue" points="111.7,-29.68 101.24,-31.38 110.47,-36.57 111.7,-29.68"/>
</g>
<!-- Node3 -->
<g id="node3" class="node">
<title>Node3</title>
<g id="a_node3"><a xlink:title=" ">
<polygon fill="white" stroke="#bfbfbf" points="118.83,-6.5 118.83,-26.5 228.18,-26.5 228.18,-6.5 118.83,-6.5"/>
<text text-anchor="middle" x="173.51" y="-13.5" font-family="Helvetica,sans-Serif" font-size="10.00">haldls/cerealization.h</text>
</a>
</g>
</g>
<!-- Node1&#45;&gt;Node3 -->
<g id="edge2" class="edge">
<title>Node1&#45;&gt;Node3</title>
<path fill="none" stroke="midnightblue" d="M666.85,-88.65C562.7,-78.88 386.95,-60.13 237.51,-33 231.09,-31.83 224.34,-30.42 217.75,-28.92"/>
<polygon fill="midnightblue" stroke="midnightblue" points="218.1,-25.41 207.56,-26.52 216.5,-32.22 218.1,-25.41"/>
</g>
<!-- Node4 -->
<g id="node4" class="node">
<title>Node4</title>
<g id="a_node4"><a xlink:title=" ">
<polygon fill="white" stroke="#bfbfbf" points="246.06,-6.5 246.06,-26.5 340.96,-26.5 340.96,-6.5 246.06,-6.5"/>
<text text-anchor="middle" x="293.51" y="-13.5" font-family="Helvetica,sans-Serif" font-size="10.00">haldls/vx/barrier.h</text>
</a>
</g>
</g>
<!-- Node1&#45;&gt;Node4 -->
<g id="edge3" class="edge">
<title>Node1&#45;&gt;Node4</title>
<path fill="none" stroke="midnightblue" d="M666.86,-85.29C584.03,-74.35 458.39,-56.01 350.51,-33 345.18,-31.86 339.61,-30.53 334.12,-29.13"/>
<polygon fill="midnightblue" stroke="midnightblue" points="334.98,-25.74 324.42,-26.57 333.2,-32.51 334.98,-25.74"/>
</g>
<!-- Node5 -->
<g id="node5" class="node">
<title>Node5</title>
<g id="a_node5"><a xlink:title=" ">
<polygon fill="white" stroke="#bfbfbf" points="359.4,-6.5 359.4,-26.5 447.62,-26.5 447.62,-6.5 359.4,-6.5"/>
<text text-anchor="middle" x="403.51" y="-13.5" font-family="Helvetica,sans-Serif" font-size="10.00">haldls/vx/timer.h</text>
</a>
</g>
</g>
<!-- Node1&#45;&gt;Node5 -->
<g id="edge4" class="edge">
<title>Node1&#45;&gt;Node5</title>
<path fill="none" stroke="midnightblue" d="M666.87,-79.26C606.91,-67.39 526.69,-50.64 456.51,-33 452.05,-31.88 447.4,-30.63 442.78,-29.35"/>
<polygon fill="midnightblue" stroke="midnightblue" points="443.41,-25.89 432.83,-26.51 441.49,-32.62 443.41,-25.89"/>
</g>
<!-- Node6 -->
<g id="node6" class="node">
<title>Node6</title>
<g id="a_node6"><a xlink:title=" ">
<polygon fill="white" stroke="#bfbfbf" points="465.27,-6.5 465.27,-26.5 585.74,-26.5 585.74,-6.5 465.27,-6.5"/>
<text text-anchor="middle" x="525.51" y="-13.5" font-family="Helvetica,sans-Serif" font-size="10.00">haldls/vx/v2/container.h</text>
</a>
</g>
</g>
<!-- Node1&#45;&gt;Node6 -->
<g id="edge5" class="edge">
<title>Node1&#45;&gt;Node6</title>
<path fill="none" stroke="midnightblue" d="M677.99,-69.42C638.46,-55.96 592.63,-40.36 561.62,-29.8"/>
<polygon fill="midnightblue" stroke="midnightblue" points="562.69,-26.46 552.1,-26.55 560.44,-33.09 562.69,-26.46"/>
</g>
<!-- Node7 -->
<g id="node7" class="node">
<title>Node7</title>
<g id="a_node7"><a xlink:title=" ">
<polygon fill="white" stroke="#bfbfbf" points="604,-6.5 604,-26.5 685.01,-26.5 685.01,-6.5 604,-6.5"/>
<text text-anchor="middle" x="644.51" y="-13.5" font-family="Helvetica,sans-Serif" font-size="10.00">hate/visibility.h</text>
</a>
</g>
</g>
<!-- Node1&#45;&gt;Node7 -->
<g id="edge6" class="edge">
<title>Node1&#45;&gt;Node7</title>
<path fill="none" stroke="midnightblue" d="M718.62,-69.31C700.96,-56.97 680.75,-42.84 665.9,-32.46"/>
<polygon fill="midnightblue" stroke="midnightblue" points="667.62,-29.39 657.42,-26.53 663.61,-35.13 667.62,-29.39"/>
</g>
<!-- Node8 -->
<g id="node8" class="node">
<title>Node8</title>
<g id="a_node8"><a xlink:title=" ">
<polygon fill="white" stroke="#bfbfbf" points="702.55,-6.5 702.55,-26.5 812.46,-26.5 812.46,-6.5 702.55,-6.5"/>
<text text-anchor="middle" x="757.51" y="-13.5" font-family="Helvetica,sans-Serif" font-size="10.00">lola/vx/v2/container.h</text>
</a>
</g>
</g>
<!-- Node1&#45;&gt;Node8 -->
<g id="edge7" class="edge">
<title>Node1&#45;&gt;Node8</title>
<path fill="none" stroke="midnightblue" d="M757.51,-69.31C757.51,-58.66 757.51,-46.68 757.51,-36.93"/>
<polygon fill="midnightblue" stroke="midnightblue" points="761.01,-36.71 757.51,-26.71 754.01,-36.71 761.01,-36.71"/>
</g>
<!-- Node9 -->
<g id="node9" class="node">
<title>Node9</title>
<g id="a_node9"><a xlink:href="genpybind_8h.html" target="_top" xlink:title=" ">
<polygon fill="white" stroke="black" points="830.44,-6.5 830.44,-26.5 942.58,-26.5 942.58,-6.5 830.44,-6.5"/>
<text text-anchor="middle" x="886.51" y="-13.5" font-family="Helvetica,sans-Serif" font-size="10.00">stadls/vx/genpybind.h</text>
</a>
</g>
</g>
<!-- Node1&#45;&gt;Node9 -->
<g id="edge8" class="edge">
<title>Node1&#45;&gt;Node9</title>
<path fill="none" stroke="midnightblue" d="M801.9,-69.31C822.44,-56.73 846,-42.31 863.04,-31.87"/>
<polygon fill="midnightblue" stroke="midnightblue" points="865.07,-34.73 871.77,-26.53 861.41,-28.77 865.07,-34.73"/>
</g>
<!-- Node10 -->
<g id="node10" class="node">
<title>Node10</title>
<g id="a_node10"><a xlink:title=" ">
<polygon fill="white" stroke="#bfbfbf" points="978.12,-6.5 978.12,-26.5 1016.89,-26.5 1016.89,-6.5 978.12,-6.5"/>
<text text-anchor="middle" x="997.51" y="-13.5" font-family="Helvetica,sans-Serif" font-size="10.00">utility</text>
</a>
</g>
</g>
<!-- Node1&#45;&gt;Node10 -->
<g id="edge10" class="edge">
<title>Node1&#45;&gt;Node10</title>
<path fill="none" stroke="midnightblue" d="M848.23,-73.95C886.34,-63.29 930.73,-49.32 969.51,-33 970.72,-32.49 971.94,-31.94 973.17,-31.37"/>
<polygon fill="midnightblue" stroke="midnightblue" points="975.1,-34.31 982.4,-26.64 971.9,-28.09 975.1,-34.31"/>
</g>
<!-- Node11 -->
<g id="node11" class="node">
<title>Node11</title>
<g id="a_node11"><a xlink:title=" ">
<polygon fill="white" stroke="#bfbfbf" points="1034.51,-6.5 1034.51,-26.5 1080.51,-26.5 1080.51,-6.5 1034.51,-6.5"/>
<text text-anchor="middle" x="1057.51" y="-13.5" font-family="Helvetica,sans-Serif" font-size="10.00">variant</text>
</a>
</g>
</g>
<!-- Node1&#45;&gt;Node11 -->
<g id="edge11" class="edge">
<title>Node1&#45;&gt;Node11</title>
<path fill="none" stroke="midnightblue" d="M848.26,-80.14C900.85,-69.39 967.85,-53.52 1025.51,-33 1027.38,-32.33 1029.29,-31.59 1031.2,-30.79"/>
<polygon fill="midnightblue" stroke="midnightblue" points="1032.86,-33.88 1040.53,-26.57 1029.98,-27.51 1032.86,-33.88"/>
</g>
<!-- Node12 -->
<g id="node12" class="node">
<title>Node12</title>
<g id="a_node12"><a xlink:title=" ">
<polygon fill="white" stroke="#bfbfbf" points="1098.89,-6.5 1098.89,-26.5 1142.12,-26.5 1142.12,-6.5 1098.89,-6.5"/>
<text text-anchor="middle" x="1120.51" y="-13.5" font-family="Helvetica,sans-Serif" font-size="10.00">vector</text>
</a>
</g>
</g>
<!-- Node1&#45;&gt;Node12 -->
<g id="edge12" class="edge">
<title>Node1&#45;&gt;Node12</title>
<path fill="none" stroke="midnightblue" d="M848.35,-85.98C916.07,-76.5 1010.16,-59.85 1089.51,-33 1091.39,-32.36 1093.3,-31.63 1095.2,-30.84"/>
<polygon fill="midnightblue" stroke="midnightblue" points="1096.85,-33.94 1104.46,-26.57 1093.91,-27.59 1096.85,-33.94"/>
</g>
<!-- Node13 -->
<g id="node13" class="node">
<title>Node13</title>
<g id="a_node13"><a xlink:title=" ">
<polygon fill="white" stroke="#bfbfbf" points="1160.1,-6.5 1160.1,-26.5 1288.91,-26.5 1288.91,-6.5 1160.1,-6.5"/>
<text text-anchor="middle" x="1224.51" y="-13.5" font-family="Helvetica,sans-Serif" font-size="10.00">haldls/vx/v2/container.def</text>
</a>
</g>
</g>
<!-- Node1&#45;&gt;Node13 -->
<g id="edge13" class="edge">
<title>Node1&#45;&gt;Node13</title>
<path fill="none" stroke="midnightblue" d="M848.1,-83.2C928.1,-71.15 1047.81,-52.35 1151.51,-33 1158.69,-31.66 1166.25,-30.16 1173.67,-28.63"/>
<polygon fill="midnightblue" stroke="midnightblue" points="1174.58,-32.02 1183.65,-26.55 1173.15,-25.16 1174.58,-32.02"/>
</g>
<!-- Node14 -->
<g id="node14" class="node">
<title>Node14</title>
<g id="a_node14"><a xlink:title=" ">
<polygon fill="white" stroke="#bfbfbf" points="1307.38,-6.5 1307.38,-26.5 1425.63,-26.5 1425.63,-6.5 1307.38,-6.5"/>
<text text-anchor="middle" x="1366.51" y="-13.5" font-family="Helvetica,sans-Serif" font-size="10.00">lola/vx/v2/container.def</text>
</a>
</g>
</g>
<!-- Node1&#45;&gt;Node14 -->
<g id="edge14" class="edge">
<title>Node1&#45;&gt;Node14</title>
<path fill="none" stroke="midnightblue" d="M848.21,-88.74C955.83,-78.86 1140.48,-59.79 1297.51,-33 1304.66,-31.78 1312.19,-30.3 1319.55,-28.74"/>
<polygon fill="midnightblue" stroke="midnightblue" points="1320.39,-32.13 1329.41,-26.58 1318.89,-25.3 1320.39,-32.13"/>
</g>
<!-- Node9&#45;&gt;Node9 -->
<g id="edge9" class="edge">
<title>Node9&#45;&gt;Node9</title>
<path fill="none" stroke="midnightblue" d="M905.11,-26.62C930.14,-35.58 960.58,-32.2 960.58,-16.5 960.58,-2.82 937.48,1.5 914.98,-3.53"/>
<polygon fill="midnightblue" stroke="midnightblue" points="913.74,-0.24 905.11,-6.38 915.68,-6.97 913.74,-0.24"/>
</g>
</g>
</svg>
