<?xml version="1.0" encoding="UTF-8" standalone="no"?>
<!DOCTYPE svg PUBLIC "-//W3C//DTD SVG 1.1//EN"
 "http://www.w3.org/Graphics/SVG/1.1/DTD/svg11.dtd">
<!-- Generated by graphviz version 2.46.0 (0)
 -->
<!-- Title: /jenkins/jenlib_workspaces_f9/bld_nightly&#45;haldls.YmxkX25pZ2h0bHktaGFsZGxzIzEzNzk.x/haldls/include/stadls/vx/v2/playback_generator.h Pages: 1 -->
<svg width="248pt" height="356pt"
 viewBox="0.00 0.00 248.02 356.00" xmlns="http://www.w3.org/2000/svg" xmlns:xlink="http://www.w3.org/1999/xlink">
<g id="graph0" class="graph" transform="scale(1 1) rotate(0) translate(4 352)">
<title>/jenkins/jenlib_workspaces_f9/bld_nightly&#45;haldls.YmxkX25pZ2h0bHktaGFsZGxzIzEzNzk.x/haldls/include/stadls/vx/v2/playback_generator.h</title>
<polygon fill="white" stroke="transparent" points="-4,4 -4,-352 244.02,-352 244.02,4 -4,4"/>
<!-- Node1 -->
<g id="node1" class="node">
<title>Node1</title>
<g id="a_node1"><a xlink:title=" ">
<polygon fill="#bfbfbf" stroke="black" points="59,-279.5 59,-347.5 240.02,-347.5 240.02,-279.5 59,-279.5"/>
<text text-anchor="start" x="67" y="-334.5" font-family="Helvetica,sans-Serif" font-size="10.00">/jenkins/jenlib_workspaces</text>
<text text-anchor="start" x="67" y="-322.5" font-family="Helvetica,sans-Serif" font-size="10.00">_f9/bld_nightly&#45;haldls.YmxkX25p</text>
<text text-anchor="start" x="67" y="-310.5" font-family="Helvetica,sans-Serif" font-size="10.00">Z2h0bHktaGFsZGxzIzEzNzk.x/haldls</text>
<text text-anchor="start" x="67" y="-298.5" font-family="Helvetica,sans-Serif" font-size="10.00">/include/stadls/vx/v2/playback</text>
<text text-anchor="middle" x="149.51" y="-286.5" font-family="Helvetica,sans-Serif" font-size="10.00">_generator.h</text>
</a>
</g>
</g>
<!-- Node2 -->
<g id="node2" class="node">
<title>Node2</title>
<g id="a_node2"><a xlink:href="v2_2init__generator_8h.html" target="_top" xlink:title=" ">
<polygon fill="white" stroke="black" points="0,-186.5 0,-242.5 181.02,-242.5 181.02,-186.5 0,-186.5"/>
<text text-anchor="start" x="8" y="-229.5" font-family="Helvetica,sans-Serif" font-size="10.00">/jenkins/jenlib_workspaces</text>
<text text-anchor="start" x="8" y="-217.5" font-family="Helvetica,sans-Serif" font-size="10.00">_f9/bld_nightly&#45;haldls.YmxkX25p</text>
<text text-anchor="start" x="8" y="-205.5" font-family="Helvetica,sans-Serif" font-size="10.00">Z2h0bHktaGFsZGxzIzEzNzk.x/haldls</text>
<text text-anchor="middle" x="90.51" y="-193.5" font-family="Helvetica,sans-Serif" font-size="10.00">/include/stadls/vx/v2/init_generator.h</text>
</a>
</g>
</g>
<!-- Node1&#45;&gt;Node2 -->
<g id="edge1" class="edge">
<title>Node1&#45;&gt;Node2</title>
<path fill="none" stroke="midnightblue" d="M124.14,-270.79C118.35,-261.27 112.34,-251.4 107.04,-242.67"/>
<polygon fill="midnightblue" stroke="midnightblue" points="121.18,-272.66 129.37,-279.39 127.16,-269.03 121.18,-272.66"/>
</g>
<!-- Node3 -->
<g id="node3" class="node">
<title>Node3</title>
<g id="a_node3"><a xlink:href="v2_2stadls_8h.html" target="_top" xlink:title=" ">
<polygon fill="white" stroke="black" points="59,-93.5 59,-149.5 240.02,-149.5 240.02,-93.5 59,-93.5"/>
<text text-anchor="start" x="67" y="-136.5" font-family="Helvetica,sans-Serif" font-size="10.00">/jenkins/jenlib_workspaces</text>
<text text-anchor="start" x="67" y="-124.5" font-family="Helvetica,sans-Serif" font-size="10.00">_f9/bld_nightly&#45;haldls.YmxkX25p</text>
<text text-anchor="start" x="67" y="-112.5" font-family="Helvetica,sans-Serif" font-size="10.00">Z2h0bHktaGFsZGxzIzEzNzk.x/haldls</text>
<text text-anchor="middle" x="149.51" y="-100.5" font-family="Helvetica,sans-Serif" font-size="10.00">/include/stadls/vx/v2/stadls.h</text>
</a>
</g>
</g>
<!-- Node1&#45;&gt;Node3 -->
<g id="edge4" class="edge">
<title>Node1&#45;&gt;Node3</title>
<path fill="none" stroke="midnightblue" d="M178.95,-270.64C183.72,-261.88 187.94,-252.43 190.51,-243 197.18,-218.56 197.67,-210.3 190.51,-186 186.69,-173.04 179.3,-160.22 171.84,-149.54"/>
<polygon fill="midnightblue" stroke="midnightblue" points="175.8,-269.08 173.82,-279.49 181.86,-272.59 175.8,-269.08"/>
</g>
<!-- Node2&#45;&gt;Node3 -->
<g id="edge2" class="edge">
<title>Node2&#45;&gt;Node3</title>
<path fill="none" stroke="midnightblue" d="M113.81,-177.55C119.81,-168.31 126.16,-158.51 131.82,-149.78"/>
<polygon fill="midnightblue" stroke="midnightblue" points="110.71,-175.9 108.21,-186.2 116.59,-179.71 110.71,-175.9"/>
</g>
<!-- Node4 -->
<g id="node4" class="node">
<title>Node4</title>
<g id="a_node4"><a xlink:href="v2_2pystadls_8h.html" target="_top" xlink:title=" ">
<polygon fill="white" stroke="black" points="59,-0.5 59,-56.5 240.02,-56.5 240.02,-0.5 59,-0.5"/>
<text text-anchor="start" x="67" y="-43.5" font-family="Helvetica,sans-Serif" font-size="10.00">/jenkins/jenlib_workspaces</text>
<text text-anchor="start" x="67" y="-31.5" font-family="Helvetica,sans-Serif" font-size="10.00">_f9/bld_nightly&#45;haldls.YmxkX25p</text>
<text text-anchor="start" x="67" y="-19.5" font-family="Helvetica,sans-Serif" font-size="10.00">Z2h0bHktaGFsZGxzIzEzNzk.x/haldls</text>
<text text-anchor="middle" x="149.51" y="-7.5" font-family="Helvetica,sans-Serif" font-size="10.00">/include/stadls/vx/v2/pystadls.h</text>
</a>
</g>
</g>
<!-- Node3&#45;&gt;Node4 -->
<g id="edge3" class="edge">
<title>Node3&#45;&gt;Node4</title>
<path fill="none" stroke="midnightblue" d="M149.51,-83.12C149.51,-74.3 149.51,-65.06 149.51,-56.78"/>
<polygon fill="midnightblue" stroke="midnightblue" points="146.01,-83.2 149.51,-93.2 153.01,-83.2 146.01,-83.2"/>
</g>
</g>
</svg>
