<?xml version="1.0" encoding="UTF-8" standalone="no"?>
<!DOCTYPE svg PUBLIC "-//W3C//DTD SVG 1.1//EN"
 "http://www.w3.org/Graphics/SVG/1.1/DTD/svg11.dtd">
<!-- Generated by graphviz version 2.46.0 (0)
 -->
<!-- Title: /jenkins/jenlib_workspaces_f9/bld_nightly&#45;haldls.YmxkX25pZ2h0bHktaGFsZGxzIzEzNzk.x/haldls/include/stadls/vx/v2/dumper.h Pages: 1 -->
<svg width="296pt" height="554pt"
 viewBox="0.00 0.00 296.38 554.00" xmlns="http://www.w3.org/2000/svg" xmlns:xlink="http://www.w3.org/1999/xlink">
<g id="graph0" class="graph" transform="scale(1 1) rotate(0) translate(4 550)">
<title>/jenkins/jenlib_workspaces_f9/bld_nightly&#45;haldls.YmxkX25pZ2h0bHktaGFsZGxzIzEzNzk.x/haldls/include/stadls/vx/v2/dumper.h</title>
<polygon fill="white" stroke="transparent" points="-4,4 -4,-550 292.38,-550 292.38,4 -4,4"/>
<!-- Node1 -->
<g id="node1" class="node">
<title>Node1</title>
<g id="a_node1"><a xlink:title=" ">
<polygon fill="#bfbfbf" stroke="black" points="104.12,-489.5 104.12,-545.5 285.14,-545.5 285.14,-489.5 104.12,-489.5"/>
<text text-anchor="start" x="112.12" y="-532.5" font-family="Helvetica,sans-Serif" font-size="10.00">/jenkins/jenlib_workspaces</text>
<text text-anchor="start" x="112.12" y="-520.5" font-family="Helvetica,sans-Serif" font-size="10.00">_f9/bld_nightly&#45;haldls.YmxkX25p</text>
<text text-anchor="start" x="112.12" y="-508.5" font-family="Helvetica,sans-Serif" font-size="10.00">Z2h0bHktaGFsZGxzIzEzNzk.x/haldls</text>
<text text-anchor="middle" x="194.63" y="-496.5" font-family="Helvetica,sans-Serif" font-size="10.00">/include/stadls/vx/v2/dumper.h</text>
</a>
</g>
</g>
<!-- Node2 -->
<g id="node2" class="node">
<title>Node2</title>
<g id="a_node2"><a xlink:href="v2_2playback__program__builder_8h.html" target="_top" xlink:title=" ">
<polygon fill="white" stroke="black" points="45.12,-384.5 45.12,-452.5 226.14,-452.5 226.14,-384.5 45.12,-384.5"/>
<text text-anchor="start" x="53.12" y="-439.5" font-family="Helvetica,sans-Serif" font-size="10.00">/jenkins/jenlib_workspaces</text>
<text text-anchor="start" x="53.12" y="-427.5" font-family="Helvetica,sans-Serif" font-size="10.00">_f9/bld_nightly&#45;haldls.YmxkX25p</text>
<text text-anchor="start" x="53.12" y="-415.5" font-family="Helvetica,sans-Serif" font-size="10.00">Z2h0bHktaGFsZGxzIzEzNzk.x/haldls</text>
<text text-anchor="start" x="53.12" y="-403.5" font-family="Helvetica,sans-Serif" font-size="10.00">/include/stadls/vx/v2/playback</text>
<text text-anchor="middle" x="135.63" y="-391.5" font-family="Helvetica,sans-Serif" font-size="10.00">_program_builder.h</text>
</a>
</g>
</g>
<!-- Node1&#45;&gt;Node2 -->
<g id="edge1" class="edge">
<title>Node1&#45;&gt;Node2</title>
<path fill="none" stroke="midnightblue" d="M172.96,-480.87C167.33,-471.62 161.3,-461.7 155.76,-452.59"/>
<polygon fill="midnightblue" stroke="midnightblue" points="170.01,-482.76 178.2,-489.48 175.99,-479.12 170.01,-482.76"/>
</g>
<!-- Node4 -->
<g id="node4" class="node">
<title>Node4</title>
<g id="a_node4"><a xlink:href="v2_2stadls_8h.html" target="_top" xlink:title=" ">
<polygon fill="white" stroke="black" points="4.12,-93.5 4.12,-149.5 185.14,-149.5 185.14,-93.5 4.12,-93.5"/>
<text text-anchor="start" x="12.12" y="-136.5" font-family="Helvetica,sans-Serif" font-size="10.00">/jenkins/jenlib_workspaces</text>
<text text-anchor="start" x="12.12" y="-124.5" font-family="Helvetica,sans-Serif" font-size="10.00">_f9/bld_nightly&#45;haldls.YmxkX25p</text>
<text text-anchor="start" x="12.12" y="-112.5" font-family="Helvetica,sans-Serif" font-size="10.00">Z2h0bHktaGFsZGxzIzEzNzk.x/haldls</text>
<text text-anchor="middle" x="94.63" y="-100.5" font-family="Helvetica,sans-Serif" font-size="10.00">/include/stadls/vx/v2/stadls.h</text>
</a>
</g>
</g>
<!-- Node1&#45;&gt;Node4 -->
<g id="edge9" class="edge">
<title>Node1&#45;&gt;Node4</title>
<path fill="none" stroke="midnightblue" d="M221.85,-480.88C227.29,-472.17 232.33,-462.58 235.63,-453 274.38,-340.52 321.46,-284.42 254.63,-186 238.6,-162.39 212.26,-147.56 185.54,-138.24"/>
<polygon fill="midnightblue" stroke="midnightblue" points="218.91,-478.98 216.34,-489.26 224.76,-482.83 218.91,-478.98"/>
</g>
<!-- Node3 -->
<g id="node3" class="node">
<title>Node3</title>
<g id="a_node3"><a xlink:href="v2_2init__generator_8h.html" target="_top" xlink:title=" ">
<polygon fill="white" stroke="black" points="64.12,-186.5 64.12,-242.5 245.14,-242.5 245.14,-186.5 64.12,-186.5"/>
<text text-anchor="start" x="72.12" y="-229.5" font-family="Helvetica,sans-Serif" font-size="10.00">/jenkins/jenlib_workspaces</text>
<text text-anchor="start" x="72.12" y="-217.5" font-family="Helvetica,sans-Serif" font-size="10.00">_f9/bld_nightly&#45;haldls.YmxkX25p</text>
<text text-anchor="start" x="72.12" y="-205.5" font-family="Helvetica,sans-Serif" font-size="10.00">Z2h0bHktaGFsZGxzIzEzNzk.x/haldls</text>
<text text-anchor="middle" x="154.63" y="-193.5" font-family="Helvetica,sans-Serif" font-size="10.00">/include/stadls/vx/v2/init_generator.h</text>
</a>
</g>
</g>
<!-- Node2&#45;&gt;Node3 -->
<g id="edge2" class="edge">
<title>Node2&#45;&gt;Node3</title>
<path fill="none" stroke="midnightblue" d="M195.28,-377.38C203.94,-368.76 211.61,-358.92 216.63,-348 229.44,-320.14 228.2,-307.4 216.63,-279 210.99,-265.16 200.73,-252.69 190.15,-242.54"/>
<polygon fill="midnightblue" stroke="midnightblue" points="192.75,-374.95 187.81,-384.32 197.52,-380.08 192.75,-374.95"/>
</g>
<!-- Node2&#45;&gt;Node4 -->
<g id="edge8" class="edge">
<title>Node2&#45;&gt;Node4</title>
<path fill="none" stroke="midnightblue" d="M44.32,-378.48C33.27,-370.02 23.48,-359.94 16.63,-348 -19.74,-284.63 10.91,-250.82 44.63,-186 51.3,-173.18 60.7,-160.4 69.55,-149.69"/>
<polygon fill="midnightblue" stroke="midnightblue" points="42.39,-381.4 52.56,-384.35 46.45,-375.7 42.39,-381.4"/>
</g>
<!-- Node6 -->
<g id="node6" class="node">
<title>Node6</title>
<g id="a_node6"><a xlink:href="v2_2playback__generator_8h.html" target="_top" xlink:title=" ">
<polygon fill="white" stroke="black" points="26.12,-279.5 26.12,-347.5 207.14,-347.5 207.14,-279.5 26.12,-279.5"/>
<text text-anchor="start" x="34.12" y="-334.5" font-family="Helvetica,sans-Serif" font-size="10.00">/jenkins/jenlib_workspaces</text>
<text text-anchor="start" x="34.12" y="-322.5" font-family="Helvetica,sans-Serif" font-size="10.00">_f9/bld_nightly&#45;haldls.YmxkX25p</text>
<text text-anchor="start" x="34.12" y="-310.5" font-family="Helvetica,sans-Serif" font-size="10.00">Z2h0bHktaGFsZGxzIzEzNzk.x/haldls</text>
<text text-anchor="start" x="34.12" y="-298.5" font-family="Helvetica,sans-Serif" font-size="10.00">/include/stadls/vx/v2/playback</text>
<text text-anchor="middle" x="116.63" y="-286.5" font-family="Helvetica,sans-Serif" font-size="10.00">_generator.h</text>
</a>
</g>
</g>
<!-- Node2&#45;&gt;Node6 -->
<g id="edge5" class="edge">
<title>Node2&#45;&gt;Node6</title>
<path fill="none" stroke="midnightblue" d="M127.68,-374.43C126.03,-365.46 124.31,-356.14 122.74,-347.59"/>
<polygon fill="midnightblue" stroke="midnightblue" points="124.26,-375.14 129.51,-384.34 131.14,-373.87 124.26,-375.14"/>
</g>
<!-- Node3&#45;&gt;Node4 -->
<g id="edge3" class="edge">
<title>Node3&#45;&gt;Node4</title>
<path fill="none" stroke="midnightblue" d="M131.12,-177.84C124.97,-168.51 118.43,-158.6 112.62,-149.78"/>
<polygon fill="midnightblue" stroke="midnightblue" points="128.2,-179.77 136.63,-186.2 134.05,-175.92 128.2,-179.77"/>
</g>
<!-- Node5 -->
<g id="node5" class="node">
<title>Node5</title>
<g id="a_node5"><a xlink:href="v2_2pystadls_8h.html" target="_top" xlink:title=" ">
<polygon fill="white" stroke="black" points="4.12,-0.5 4.12,-56.5 185.14,-56.5 185.14,-0.5 4.12,-0.5"/>
<text text-anchor="start" x="12.12" y="-43.5" font-family="Helvetica,sans-Serif" font-size="10.00">/jenkins/jenlib_workspaces</text>
<text text-anchor="start" x="12.12" y="-31.5" font-family="Helvetica,sans-Serif" font-size="10.00">_f9/bld_nightly&#45;haldls.YmxkX25p</text>
<text text-anchor="start" x="12.12" y="-19.5" font-family="Helvetica,sans-Serif" font-size="10.00">Z2h0bHktaGFsZGxzIzEzNzk.x/haldls</text>
<text text-anchor="middle" x="94.63" y="-7.5" font-family="Helvetica,sans-Serif" font-size="10.00">/include/stadls/vx/v2/pystadls.h</text>
</a>
</g>
</g>
<!-- Node4&#45;&gt;Node5 -->
<g id="edge4" class="edge">
<title>Node4&#45;&gt;Node5</title>
<path fill="none" stroke="midnightblue" d="M94.63,-83.12C94.63,-74.3 94.63,-65.06 94.63,-56.78"/>
<polygon fill="midnightblue" stroke="midnightblue" points="91.13,-83.2 94.63,-93.2 98.13,-83.2 91.13,-83.2"/>
</g>
<!-- Node6&#45;&gt;Node3 -->
<g id="edge6" class="edge">
<title>Node6&#45;&gt;Node3</title>
<path fill="none" stroke="midnightblue" d="M133.31,-269.92C136.94,-260.67 140.67,-251.13 143.99,-242.67"/>
<polygon fill="midnightblue" stroke="midnightblue" points="129.99,-268.8 129.6,-279.39 136.51,-271.36 129.99,-268.8"/>
</g>
<!-- Node6&#45;&gt;Node4 -->
<g id="edge7" class="edge">
<title>Node6&#45;&gt;Node4</title>
<path fill="none" stroke="midnightblue" d="M71.57,-271.49C64.64,-262.81 58.51,-253.18 54.63,-243 45.61,-219.33 47.6,-210.34 54.63,-186 58.35,-173.11 65.56,-160.31 72.83,-149.62"/>
<polygon fill="midnightblue" stroke="midnightblue" points="68.97,-273.83 78.12,-279.17 74.3,-269.29 68.97,-273.83"/>
</g>
</g>
</svg>
