<?xml version="1.0" encoding="UTF-8" standalone="no"?>
<!DOCTYPE svg PUBLIC "-//W3C//DTD SVG 1.1//EN"
 "http://www.w3.org/Graphics/SVG/1.1/DTD/svg11.dtd">
<!-- Generated by graphviz version 2.46.0 (0)
 -->
<!-- Title: /jenkins/jenlib_workspaces_f9/bld_nightly&#45;haldls.YmxkX25pZ2h0bHktaGFsZGxzIzEzNzk.x/haldls/include/stadls/vx/v3/coordinate_to_container.h Pages: 1 -->
<svg width="641pt" height="134pt"
 viewBox="0.00 0.00 641.36 134.00" xmlns="http://www.w3.org/2000/svg" xmlns:xlink="http://www.w3.org/1999/xlink">
<g id="graph0" class="graph" transform="scale(1 1) rotate(0) translate(4 130)">
<title>/jenkins/jenlib_workspaces_f9/bld_nightly&#45;haldls.YmxkX25pZ2h0bHktaGFsZGxzIzEzNzk.x/haldls/include/stadls/vx/v3/coordinate_to_container.h</title>
<polygon fill="white" stroke="transparent" points="-4,4 -4,-130 637.36,-130 637.36,4 -4,4"/>
<!-- Node1 -->
<g id="node1" class="node">
<title>Node1</title>
<g id="a_node1"><a xlink:title=" ">
<polygon fill="#bfbfbf" stroke="black" points="204.73,-57.5 204.73,-125.5 385.74,-125.5 385.74,-57.5 204.73,-57.5"/>
<text text-anchor="start" x="212.73" y="-112.5" font-family="Helvetica,sans-Serif" font-size="10.00">/jenkins/jenlib_workspaces</text>
<text text-anchor="start" x="212.73" y="-100.5" font-family="Helvetica,sans-Serif" font-size="10.00">_f9/bld_nightly&#45;haldls.YmxkX25p</text>
<text text-anchor="start" x="212.73" y="-88.5" font-family="Helvetica,sans-Serif" font-size="10.00">Z2h0bHktaGFsZGxzIzEzNzk.x/haldls</text>
<text text-anchor="start" x="212.73" y="-76.5" font-family="Helvetica,sans-Serif" font-size="10.00">/include/stadls/vx/v3/coordinate</text>
<text text-anchor="middle" x="295.24" y="-64.5" font-family="Helvetica,sans-Serif" font-size="10.00">_to_container.h</text>
</a>
</g>
</g>
<!-- Node2 -->
<g id="node2" class="node">
<title>Node2</title>
<g id="a_node2"><a xlink:title=" ">
<polygon fill="white" stroke="#bfbfbf" points="0,-0.5 0,-20.5 120.47,-20.5 120.47,-0.5 0,-0.5"/>
<text text-anchor="middle" x="60.24" y="-7.5" font-family="Helvetica,sans-Serif" font-size="10.00">haldls/vx/v3/container.h</text>
</a>
</g>
</g>
<!-- Node1&#45;&gt;Node2 -->
<g id="edge1" class="edge">
<title>Node1&#45;&gt;Node2</title>
<path fill="none" stroke="midnightblue" d="M204.71,-60.07C167.12,-47.43 125.64,-33.49 96.8,-23.79"/>
<polygon fill="midnightblue" stroke="midnightblue" points="97.75,-20.42 87.16,-20.55 95.52,-27.06 97.75,-20.42"/>
</g>
<!-- Node3 -->
<g id="node3" class="node">
<title>Node3</title>
<g id="a_node3"><a xlink:title=" ">
<polygon fill="white" stroke="#bfbfbf" points="138.61,-0.5 138.61,-20.5 221.86,-20.5 221.86,-0.5 138.61,-0.5"/>
<text text-anchor="middle" x="180.24" y="-7.5" font-family="Helvetica,sans-Serif" font-size="10.00">hate/type_list.h</text>
</a>
</g>
</g>
<!-- Node1&#45;&gt;Node3 -->
<g id="edge2" class="edge">
<title>Node1&#45;&gt;Node3</title>
<path fill="none" stroke="midnightblue" d="M247.13,-57.45C231.38,-46.64 214.67,-35.15 201.88,-26.37"/>
<polygon fill="midnightblue" stroke="midnightblue" points="203.56,-23.28 193.34,-20.5 199.6,-29.05 203.56,-23.28"/>
</g>
<!-- Node4 -->
<g id="node4" class="node">
<title>Node4</title>
<g id="a_node4"><a xlink:title=" ">
<polygon fill="white" stroke="#bfbfbf" points="240.28,-0.5 240.28,-20.5 350.19,-20.5 350.19,-0.5 240.28,-0.5"/>
<text text-anchor="middle" x="295.24" y="-7.5" font-family="Helvetica,sans-Serif" font-size="10.00">lola/vx/v3/container.h</text>
</a>
</g>
</g>
<!-- Node1&#45;&gt;Node4 -->
<g id="edge3" class="edge">
<title>Node1&#45;&gt;Node4</title>
<path fill="none" stroke="midnightblue" d="M295.24,-57.45C295.24,-48.37 295.24,-38.82 295.24,-30.8"/>
<polygon fill="midnightblue" stroke="midnightblue" points="298.74,-30.67 295.24,-20.67 291.74,-30.67 298.74,-30.67"/>
</g>
<!-- Node5 -->
<g id="node5" class="node">
<title>Node5</title>
<g id="a_node5"><a xlink:title=" ">
<polygon fill="white" stroke="#bfbfbf" points="367.83,-0.5 367.83,-20.5 496.64,-20.5 496.64,-0.5 367.83,-0.5"/>
<text text-anchor="middle" x="432.24" y="-7.5" font-family="Helvetica,sans-Serif" font-size="10.00">haldls/vx/v3/container.def</text>
</a>
</g>
</g>
<!-- Node1&#45;&gt;Node5 -->
<g id="edge4" class="edge">
<title>Node1&#45;&gt;Node5</title>
<path fill="none" stroke="midnightblue" d="M352.54,-57.45C371.85,-46.32 392.38,-34.48 407.77,-25.61"/>
<polygon fill="midnightblue" stroke="midnightblue" points="409.71,-28.53 416.62,-20.5 406.21,-22.47 409.71,-28.53"/>
</g>
<!-- Node6 -->
<g id="node6" class="node">
<title>Node6</title>
<g id="a_node6"><a xlink:title=" ">
<polygon fill="white" stroke="#bfbfbf" points="515.11,-0.5 515.11,-20.5 633.36,-20.5 633.36,-0.5 515.11,-0.5"/>
<text text-anchor="middle" x="574.24" y="-7.5" font-family="Helvetica,sans-Serif" font-size="10.00">lola/vx/v3/container.def</text>
</a>
</g>
</g>
<!-- Node1&#45;&gt;Node6 -->
<g id="edge5" class="edge">
<title>Node1&#45;&gt;Node6</title>
<path fill="none" stroke="midnightblue" d="M385.82,-64.85C435.19,-50.87 493.92,-34.24 532.53,-23.31"/>
<polygon fill="midnightblue" stroke="midnightblue" points="533.71,-26.61 542.38,-20.52 531.8,-19.88 533.71,-26.61"/>
</g>
</g>
</svg>
