<?xml version="1.0" encoding="UTF-8" standalone="no"?>
<!DOCTYPE svg PUBLIC "-//W3C//DTD SVG 1.1//EN"
 "http://www.w3.org/Graphics/SVG/1.1/DTD/svg11.dtd">
<!-- Generated by graphviz version 2.46.0 (0)
 -->
<!-- Title: /jenkins/jenlib_workspaces_f9/bld_nightly&#45;haldls.YmxkX25pZ2h0bHktaGFsZGxzIzEzNzk.x/haldls/include/stadls/vx/v3/playback_program_builder.h Pages: 1 -->
<svg width="2449pt" height="457pt"
 viewBox="0.00 0.00 2449.17 456.55" xmlns="http://www.w3.org/2000/svg" xmlns:xlink="http://www.w3.org/1999/xlink">
<g id="graph0" class="graph" transform="scale(1 1) rotate(0) translate(4 452.55)">
<title>/jenkins/jenlib_workspaces_f9/bld_nightly&#45;haldls.YmxkX25pZ2h0bHktaGFsZGxzIzEzNzk.x/haldls/include/stadls/vx/v3/playback_program_builder.h</title>
<polygon fill="white" stroke="transparent" points="-4,4 -4,-452.55 2445.17,-452.55 2445.17,4 -4,4"/>
<!-- Node1 -->
<g id="node1" class="node">
<title>Node1</title>
<g id="a_node1"><a xlink:title=" ">
<polygon fill="#bfbfbf" stroke="black" points="1916.66,-380.05 1916.66,-448.05 2097.68,-448.05 2097.68,-380.05 1916.66,-380.05"/>
<text text-anchor="start" x="1924.66" y="-435.05" font-family="Helvetica,sans-Serif" font-size="10.00">/jenkins/jenlib_workspaces</text>
<text text-anchor="start" x="1924.66" y="-423.05" font-family="Helvetica,sans-Serif" font-size="10.00">_f9/bld_nightly&#45;haldls.YmxkX25p</text>
<text text-anchor="start" x="1924.66" y="-411.05" font-family="Helvetica,sans-Serif" font-size="10.00">Z2h0bHktaGFsZGxzIzEzNzk.x/haldls</text>
<text text-anchor="start" x="1924.66" y="-399.05" font-family="Helvetica,sans-Serif" font-size="10.00">/include/stadls/vx/v3/playback</text>
<text text-anchor="middle" x="2007.17" y="-387.05" font-family="Helvetica,sans-Serif" font-size="10.00">_program_builder.h</text>
</a>
</g>
</g>
<!-- Node2 -->
<g id="node2" class="node">
<title>Node2</title>
<g id="a_node2"><a xlink:title=" ">
<polygon fill="white" stroke="#bfbfbf" points="1458.5,-65.05 1458.5,-85.05 1567.85,-85.05 1567.85,-65.05 1458.5,-65.05"/>
<text text-anchor="middle" x="1513.17" y="-72.05" font-family="Helvetica,sans-Serif" font-size="10.00">haldls/cerealization.h</text>
</a>
</g>
</g>
<!-- Node1&#45;&gt;Node2 -->
<g id="edge1" class="edge">
<title>Node1&#45;&gt;Node2</title>
<path fill="none" stroke="midnightblue" d="M1916.34,-407.16C1822.39,-396.68 1676.23,-367.54 1580.17,-286.55 1521.89,-237.41 1513.72,-137.67 1512.98,-95.54"/>
<polygon fill="midnightblue" stroke="midnightblue" points="1516.48,-95.47 1512.93,-85.49 1509.48,-95.5 1516.48,-95.47"/>
</g>
<!-- Node3 -->
<g id="node3" class="node">
<title>Node3</title>
<g id="a_node3"><a xlink:title=" ">
<polygon fill="white" stroke="#bfbfbf" points="2108.94,-197.05 2108.94,-217.05 2229.41,-217.05 2229.41,-197.05 2108.94,-197.05"/>
<text text-anchor="middle" x="2169.17" y="-204.05" font-family="Helvetica,sans-Serif" font-size="10.00">haldls/vx/v3/container.h</text>
</a>
</g>
</g>
<!-- Node1&#45;&gt;Node3 -->
<g id="edge2" class="edge">
<title>Node1&#45;&gt;Node3</title>
<path fill="none" stroke="midnightblue" d="M2067.87,-380.02C2101.68,-358.2 2141.1,-326.29 2162.17,-286.55 2171.86,-268.28 2172.55,-244.23 2171.49,-227.58"/>
<polygon fill="midnightblue" stroke="midnightblue" points="2174.95,-227.05 2170.56,-217.41 2167.98,-227.68 2174.95,-227.05"/>
</g>
<!-- Node4 -->
<g id="node4" class="node">
<title>Node4</title>
<g id="a_node4"><a xlink:title=" ">
<polygon fill="white" stroke="#bfbfbf" points="1981.22,-197.05 1981.22,-217.05 2091.13,-217.05 2091.13,-197.05 1981.22,-197.05"/>
<text text-anchor="middle" x="2036.17" y="-204.05" font-family="Helvetica,sans-Serif" font-size="10.00">lola/vx/v3/container.h</text>
</a>
</g>
</g>
<!-- Node1&#45;&gt;Node4 -->
<g id="edge3" class="edge">
<title>Node1&#45;&gt;Node4</title>
<path fill="none" stroke="midnightblue" d="M2010.17,-379.93C2013.31,-347.57 2018.83,-297 2026.17,-253.55 2027.66,-244.78 2029.71,-235.15 2031.57,-227.01"/>
<polygon fill="midnightblue" stroke="midnightblue" points="2035.03,-227.6 2033.92,-217.07 2028.22,-225.99 2035.03,-227.6"/>
</g>
<!-- Node5 -->
<g id="node5" class="node">
<title>Node5</title>
<g id="a_node5"><a xlink:href="genpybind_8h.html" target="_top" xlink:title=" ">
<polygon fill="white" stroke="black" points="1477.1,-2.05 1477.1,-22.05 1589.24,-22.05 1589.24,-2.05 1477.1,-2.05"/>
<text text-anchor="middle" x="1533.17" y="-9.05" font-family="Helvetica,sans-Serif" font-size="10.00">stadls/vx/genpybind.h</text>
</a>
</g>
</g>
<!-- Node1&#45;&gt;Node5 -->
<g id="edge4" class="edge">
<title>Node1&#45;&gt;Node5</title>
<path fill="none" stroke="midnightblue" d="M2097.89,-401.99C2225.12,-383.9 2441.17,-342.65 2441.17,-271.05 2441.17,-271.05 2441.17,-271.05 2441.17,-143.05 2441.17,-58 1808.78,-24.37 1599.52,-15.57"/>
<polygon fill="midnightblue" stroke="midnightblue" points="1599.42,-12.06 1589.29,-15.14 1599.13,-19.05 1599.42,-12.06"/>
</g>
<!-- Node6 -->
<g id="node6" class="node">
<title>Node6</title>
<g id="a_node6"><a xlink:href="playback__program__builder_8h.html" target="_top" xlink:title=" ">
<polygon fill="white" stroke="black" points="893.83,-254.05 893.83,-286.05 996.51,-286.05 996.51,-254.05 893.83,-254.05"/>
<text text-anchor="start" x="901.83" y="-273.05" font-family="Helvetica,sans-Serif" font-size="10.00">stadls/vx/playback</text>
<text text-anchor="middle" x="945.17" y="-261.05" font-family="Helvetica,sans-Serif" font-size="10.00">_program_builder.h</text>
</a>
</g>
</g>
<!-- Node1&#45;&gt;Node6 -->
<g id="edge6" class="edge">
<title>Node1&#45;&gt;Node6</title>
<path fill="none" stroke="midnightblue" d="M1916.28,-402.06C1806.82,-388.72 1617.44,-365.3 1455.17,-343.55 1293.11,-321.83 1102.39,-294.16 1006.62,-280.11"/>
<polygon fill="midnightblue" stroke="midnightblue" points="1006.93,-276.62 996.53,-278.63 1005.92,-283.55 1006.93,-276.62"/>
</g>
<!-- Node32 -->
<g id="node32" class="node">
<title>Node32</title>
<g id="a_node32"><a xlink:href="v3_2coordinate__to__container_8h.html" target="_top" xlink:title=" ">
<polygon fill="white" stroke="black" points="2035.33,-254.05 2035.33,-286.05 2153.02,-286.05 2153.02,-254.05 2035.33,-254.05"/>
<text text-anchor="start" x="2043.33" y="-273.05" font-family="Helvetica,sans-Serif" font-size="10.00">stadls/vx/v3/coordinate</text>
<text text-anchor="middle" x="2094.17" y="-261.05" font-family="Helvetica,sans-Serif" font-size="10.00">_to_container.h</text>
</a>
</g>
</g>
<!-- Node1&#45;&gt;Node32 -->
<g id="edge44" class="edge">
<title>Node1&#45;&gt;Node32</title>
<path fill="none" stroke="midnightblue" d="M2027.57,-379.76C2043.53,-353.71 2065.34,-318.11 2079.59,-294.86"/>
<polygon fill="midnightblue" stroke="midnightblue" points="2082.59,-296.66 2084.83,-286.3 2076.62,-293 2082.59,-296.66"/>
</g>
<!-- Node33 -->
<g id="node33" class="node">
<title>Node33</title>
<g id="a_node33"><a xlink:title=" ">
<polygon fill="white" stroke="#bfbfbf" points="2284.77,-197.05 2284.77,-217.05 2413.58,-217.05 2413.58,-197.05 2284.77,-197.05"/>
<text text-anchor="middle" x="2349.17" y="-204.05" font-family="Helvetica,sans-Serif" font-size="10.00">haldls/vx/v3/container.def</text>
</a>
</g>
</g>
<!-- Node1&#45;&gt;Node33 -->
<g id="edge74" class="edge">
<title>Node1&#45;&gt;Node33</title>
<path fill="none" stroke="midnightblue" d="M2072.92,-379.89C2094.28,-368.74 2117.93,-355.97 2139.17,-343.55 2209.28,-302.59 2289.11,-249.1 2326.98,-223.3"/>
<polygon fill="midnightblue" stroke="midnightblue" points="2329.39,-225.89 2335.68,-217.36 2325.44,-220.11 2329.39,-225.89"/>
</g>
<!-- Node34 -->
<g id="node34" class="node">
<title>Node34</title>
<g id="a_node34"><a xlink:title=" ">
<polygon fill="white" stroke="#bfbfbf" points="1845.05,-197.05 1845.05,-217.05 1963.3,-217.05 1963.3,-197.05 1845.05,-197.05"/>
<text text-anchor="middle" x="1904.17" y="-204.05" font-family="Helvetica,sans-Serif" font-size="10.00">lola/vx/v3/container.def</text>
</a>
</g>
</g>
<!-- Node1&#45;&gt;Node34 -->
<g id="edge75" class="edge">
<title>Node1&#45;&gt;Node34</title>
<path fill="none" stroke="midnightblue" d="M1990.4,-379.66C1968.49,-336.06 1930.9,-261.25 1913.51,-226.63"/>
<polygon fill="midnightblue" stroke="midnightblue" points="1916.41,-224.62 1908.8,-217.25 1910.16,-227.76 1916.41,-224.62"/>
</g>
<!-- Node35 -->
<g id="node35" class="node">
<title>Node35</title>
<g id="a_node35"><a xlink:href="v3_2dumper_8h.html" target="_top" xlink:title=" ">
<polygon fill="white" stroke="black" points="1789.55,-323.05 1789.55,-343.05 1902.8,-343.05 1902.8,-323.05 1789.55,-323.05"/>
<text text-anchor="middle" x="1846.17" y="-330.05" font-family="Helvetica,sans-Serif" font-size="10.00">stadls/vx/v3/dumper.h</text>
</a>
</g>
</g>
<!-- Node1&#45;&gt;Node35 -->
<g id="edge50" class="edge">
<title>Node1&#45;&gt;Node35</title>
<path fill="none" stroke="midnightblue" d="M1939.83,-380.01C1916.6,-368.61 1891.87,-356.48 1873.66,-347.54"/>
<polygon fill="midnightblue" stroke="midnightblue" points="1875.04,-344.32 1864.52,-343.05 1871.95,-350.6 1875.04,-344.32"/>
</g>
<!-- Node5&#45;&gt;Node5 -->
<g id="edge5" class="edge">
<title>Node5&#45;&gt;Node5</title>
<path fill="none" stroke="midnightblue" d="M1561.68,-22.11C1584.17,-26 1607.25,-22.65 1607.25,-12.05 1607.25,-3.03 1590.51,0.74 1571.66,-0.74"/>
<polygon fill="midnightblue" stroke="midnightblue" points="1571.16,2.72 1561.68,-1.99 1572.04,-4.22 1571.16,2.72"/>
</g>
<!-- Node6&#45;&gt;Node5 -->
<g id="edge42" class="edge">
<title>Node6&#45;&gt;Node5</title>
<path fill="none" stroke="midnightblue" d="M967.09,-254.03C985.4,-239.54 1006.66,-216.88 994.17,-196.55 975.66,-166.4 941.69,-190.7 923.17,-160.55 915.5,-148.05 913.25,-138.35 923.17,-127.55 987.62,-57.45 1262.45,-128.6 1350.17,-91.55 1370.78,-82.85 1368.65,-69.46 1388.17,-58.55 1416.17,-42.91 1450.28,-31.86 1478.38,-24.57"/>
<polygon fill="midnightblue" stroke="midnightblue" points="1479.58,-27.88 1488.44,-22.06 1477.88,-21.09 1479.58,-27.88"/>
</g>
<!-- Node7 -->
<g id="node7" class="node">
<title>Node7</title>
<g id="a_node7"><a xlink:title=" ">
<polygon fill="white" stroke="#bfbfbf" points="843.01,-197.05 843.01,-217.05 887.34,-217.05 887.34,-197.05 843.01,-197.05"/>
<text text-anchor="middle" x="865.17" y="-204.05" font-family="Helvetica,sans-Serif" font-size="10.00">iosfwd</text>
</a>
</g>
</g>
<!-- Node6&#45;&gt;Node7 -->
<g id="edge7" class="edge">
<title>Node6&#45;&gt;Node7</title>
<path fill="none" stroke="midnightblue" d="M925.4,-253.97C913.19,-244.66 897.56,-232.75 885.29,-223.39"/>
<polygon fill="midnightblue" stroke="midnightblue" points="887.11,-220.38 877.04,-217.1 882.87,-225.94 887.11,-220.38"/>
</g>
<!-- Node8 -->
<g id="node8" class="node">
<title>Node8</title>
<g id="a_node8"><a xlink:title=" ">
<polygon fill="white" stroke="#bfbfbf" points="244.12,-65.05 244.12,-85.05 296.23,-85.05 296.23,-65.05 244.12,-65.05"/>
<text text-anchor="middle" x="270.17" y="-72.05" font-family="Helvetica,sans-Serif" font-size="10.00">memory</text>
</a>
</g>
</g>
<!-- Node6&#45;&gt;Node8 -->
<g id="edge8" class="edge">
<title>Node6&#45;&gt;Node8</title>
<path fill="none" stroke="midnightblue" d="M893.93,-254.04C803.66,-227.7 610.29,-171.76 446.17,-127.55 383.72,-110.73 366.29,-112.72 305.17,-91.55 303.03,-90.81 300.84,-89.99 298.64,-89.13"/>
<polygon fill="midnightblue" stroke="midnightblue" points="299.77,-85.81 289.2,-85.17 297.07,-92.26 299.77,-85.81"/>
</g>
<!-- Node9 -->
<g id="node9" class="node">
<title>Node9</title>
<g id="a_node9"><a xlink:title=" ">
<polygon fill="white" stroke="#bfbfbf" points="904.94,-197.05 904.94,-217.05 985.41,-217.05 985.41,-197.05 904.94,-197.05"/>
<text text-anchor="middle" x="945.17" y="-204.05" font-family="Helvetica,sans-Serif" font-size="10.00">unordered_set</text>
</a>
</g>
</g>
<!-- Node6&#45;&gt;Node9 -->
<g id="edge9" class="edge">
<title>Node6&#45;&gt;Node9</title>
<path fill="none" stroke="midnightblue" d="M945.17,-253.97C945.17,-245.93 945.17,-235.94 945.17,-227.33"/>
<polygon fill="midnightblue" stroke="midnightblue" points="948.67,-227.1 945.17,-217.1 941.67,-227.1 948.67,-227.1"/>
</g>
<!-- Node10 -->
<g id="node10" class="node">
<title>Node10</title>
<g id="a_node10"><a xlink:title=" ">
<polygon fill="white" stroke="#bfbfbf" points="1158.66,-128.05 1158.66,-160.05 1259.68,-160.05 1259.68,-128.05 1158.66,-128.05"/>
<text text-anchor="start" x="1166.66" y="-147.05" font-family="Helvetica,sans-Serif" font-size="10.00">halco/hicann&#45;dls/vx</text>
<text text-anchor="middle" x="1209.17" y="-135.05" font-family="Helvetica,sans-Serif" font-size="10.00">/barrier.h</text>
</a>
</g>
</g>
<!-- Node6&#45;&gt;Node10 -->
<g id="edge10" class="edge">
<title>Node6&#45;&gt;Node10</title>
<path fill="none" stroke="midnightblue" d="M996.75,-265.19C1040.51,-259.88 1103.43,-247.31 1150.17,-217.55 1169.17,-205.46 1184.91,-185.17 1195.34,-169.13"/>
<polygon fill="midnightblue" stroke="midnightblue" points="1198.54,-170.61 1200.85,-160.27 1192.6,-166.91 1198.54,-170.61"/>
</g>
<!-- Node11 -->
<g id="node11" class="node">
<title>Node11</title>
<g id="a_node11"><a xlink:title=" ">
<polygon fill="white" stroke="#bfbfbf" points="1277.73,-134.05 1277.73,-154.05 1372.62,-154.05 1372.62,-134.05 1277.73,-134.05"/>
<text text-anchor="middle" x="1325.17" y="-141.05" font-family="Helvetica,sans-Serif" font-size="10.00">haldls/vx/barrier.h</text>
</a>
</g>
</g>
<!-- Node6&#45;&gt;Node11 -->
<g id="edge11" class="edge">
<title>Node6&#45;&gt;Node11</title>
<path fill="none" stroke="midnightblue" d="M996.82,-260.99C1044.06,-252.8 1115.47,-238.35 1175.17,-217.55 1221.06,-201.56 1271.32,-175.34 1300.46,-159.19"/>
<polygon fill="midnightblue" stroke="midnightblue" points="1302.47,-162.08 1309.49,-154.14 1299.05,-155.97 1302.47,-162.08"/>
</g>
<!-- Node12 -->
<g id="node12" class="node">
<title>Node12</title>
<g id="a_node12"><a xlink:title=" ">
<polygon fill="white" stroke="#bfbfbf" points="0,-65.05 0,-85.05 104.35,-85.05 104.35,-65.05 0,-65.05"/>
<text text-anchor="middle" x="52.17" y="-72.05" font-family="Helvetica,sans-Serif" font-size="10.00">haldls/vx/common.h</text>
</a>
</g>
</g>
<!-- Node6&#45;&gt;Node12 -->
<g id="edge12" class="edge">
<title>Node6&#45;&gt;Node12</title>
<path fill="none" stroke="midnightblue" d="M893.69,-262.64C824.96,-253.82 699.52,-236.83 593.17,-217.55 475.49,-196.22 445.93,-190.64 330.17,-160.55 242.8,-137.85 141.72,-105.59 88.81,-88.23"/>
<polygon fill="midnightblue" stroke="midnightblue" points="89.78,-84.87 79.19,-85.07 87.6,-91.52 89.78,-84.87"/>
</g>
<!-- Node13 -->
<g id="node13" class="node">
<title>Node13</title>
<g id="a_node13"><a xlink:title=" ">
<polygon fill="white" stroke="#bfbfbf" points="1259.67,-65.05 1259.67,-85.05 1340.68,-85.05 1340.68,-65.05 1259.67,-65.05"/>
<text text-anchor="middle" x="1300.17" y="-72.05" font-family="Helvetica,sans-Serif" font-size="10.00">hate/visibility.h</text>
</a>
</g>
</g>
<!-- Node6&#45;&gt;Node13 -->
<g id="edge13" class="edge">
<title>Node6&#45;&gt;Node13</title>
<path fill="none" stroke="midnightblue" d="M893.79,-258.33C871.47,-250.84 847.43,-238.32 834.17,-217.55 802.68,-168.22 864.48,-148.02 910.17,-127.55 1049.25,-65.25 1101.99,-122.69 1251.17,-91.55 1255.72,-90.6 1260.44,-89.4 1265.08,-88.09"/>
<polygon fill="midnightblue" stroke="midnightblue" points="1266.44,-91.33 1275,-85.08 1264.41,-84.63 1266.44,-91.33"/>
</g>
<!-- Node14 -->
<g id="node14" class="node">
<title>Node14</title>
<g id="a_node14"><a xlink:title=" ">
<polygon fill="white" stroke="#bfbfbf" points="122.56,-65.05 122.56,-85.05 225.79,-85.05 225.79,-65.05 122.56,-65.05"/>
<text text-anchor="middle" x="174.17" y="-72.05" font-family="Helvetica,sans-Serif" font-size="10.00">hxcomm/vx/target.h</text>
</a>
</g>
</g>
<!-- Node6&#45;&gt;Node14 -->
<g id="edge14" class="edge">
<title>Node6&#45;&gt;Node14</title>
<path fill="none" stroke="midnightblue" d="M893.39,-258.73C842.79,-248.56 763.59,-232.43 695.17,-217.55 584.24,-193.43 555.79,-190.08 446.17,-160.55 361.12,-137.64 262.74,-105.7 210.76,-88.39"/>
<polygon fill="midnightblue" stroke="midnightblue" points="211.59,-84.98 201,-85.13 209.37,-91.62 211.59,-84.98"/>
</g>
<!-- Node15 -->
<g id="node15" class="node">
<title>Node15</title>
<g id="a_node15"><a xlink:href="dumper_8h.html" target="_top" xlink:title=" ">
<polygon fill="white" stroke="black" points="1041.22,-197.05 1041.22,-217.05 1141.13,-217.05 1141.13,-197.05 1041.22,-197.05"/>
<text text-anchor="middle" x="1091.17" y="-204.05" font-family="Helvetica,sans-Serif" font-size="10.00">stadls/vx/dumper.h</text>
</a>
</g>
</g>
<!-- Node6&#45;&gt;Node15 -->
<g id="edge15" class="edge">
<title>Node6&#45;&gt;Node15</title>
<path fill="none" stroke="midnightblue" d="M981.26,-253.97C1005.5,-243.85 1037.1,-230.65 1060.19,-221"/>
<polygon fill="midnightblue" stroke="midnightblue" points="1061.64,-224.18 1069.52,-217.1 1058.95,-217.72 1061.64,-224.18"/>
</g>
<!-- Node19 -->
<g id="node19" class="node">
<title>Node19</title>
<g id="a_node19"><a xlink:href="playback__program_8h.html" target="_top" xlink:title=" ">
<polygon fill="white" stroke="black" points="702.61,-128.05 702.61,-160.05 799.74,-160.05 799.74,-128.05 702.61,-128.05"/>
<text text-anchor="start" x="710.61" y="-147.05" font-family="Helvetica,sans-Serif" font-size="10.00">stadls/vx/playback</text>
<text text-anchor="middle" x="751.17" y="-135.05" font-family="Helvetica,sans-Serif" font-size="10.00">_program.h</text>
</a>
</g>
</g>
<!-- Node6&#45;&gt;Node19 -->
<g id="edge43" class="edge">
<title>Node6&#45;&gt;Node19</title>
<path fill="none" stroke="midnightblue" d="M893.73,-258.92C864.4,-251.24 828.22,-238.34 801.17,-217.55 784.61,-204.82 771.48,-185.03 762.84,-169.33"/>
<polygon fill="midnightblue" stroke="midnightblue" points="765.79,-167.43 758.05,-160.19 759.59,-170.68 765.79,-167.43"/>
</g>
<!-- Node15&#45;&gt;Node10 -->
<g id="edge16" class="edge">
<title>Node15&#45;&gt;Node10</title>
<path fill="none" stroke="midnightblue" d="M1108.58,-197.05C1124.89,-188.62 1149.82,-175.73 1170.78,-164.9"/>
<polygon fill="midnightblue" stroke="midnightblue" points="1172.51,-167.95 1179.79,-160.24 1169.3,-161.73 1172.51,-167.95"/>
</g>
<!-- Node15&#45;&gt;Node11 -->
<g id="edge18" class="edge">
<title>Node15&#45;&gt;Node11</title>
<path fill="none" stroke="midnightblue" d="M1127.36,-197.02C1163.37,-187.99 1220.16,-173.6 1269.17,-160.55 1273.75,-159.34 1278.52,-158.04 1283.28,-156.75"/>
<polygon fill="midnightblue" stroke="midnightblue" points="1284.21,-160.12 1292.92,-154.1 1282.35,-153.37 1284.21,-160.12"/>
</g>
<!-- Node15&#45;&gt;Node13 -->
<g id="edge21" class="edge">
<title>Node15&#45;&gt;Node13</title>
<path fill="none" stroke="midnightblue" d="M1041.13,-200.21C978.94,-191.03 885.36,-169.75 923.17,-127.55 972.11,-72.95 1179.42,-106.68 1251.17,-91.55 1255.72,-90.59 1260.44,-89.39 1265.07,-88.07"/>
<polygon fill="midnightblue" stroke="midnightblue" points="1266.44,-91.31 1274.99,-85.06 1264.41,-84.61 1266.44,-91.31"/>
</g>
<!-- Node16 -->
<g id="node16" class="node">
<title>Node16</title>
<g id="a_node16"><a xlink:title=" ">
<polygon fill="white" stroke="#bfbfbf" points="1039.66,-128.05 1039.66,-160.05 1140.68,-160.05 1140.68,-128.05 1039.66,-128.05"/>
<text text-anchor="start" x="1047.66" y="-147.05" font-family="Helvetica,sans-Serif" font-size="10.00">halco/hicann&#45;dls/vx</text>
<text text-anchor="middle" x="1090.17" y="-135.05" font-family="Helvetica,sans-Serif" font-size="10.00">/omnibus.h</text>
</a>
</g>
</g>
<!-- Node15&#45;&gt;Node16 -->
<g id="edge17" class="edge">
<title>Node15&#45;&gt;Node16</title>
<path fill="none" stroke="midnightblue" d="M1091.03,-197.05C1090.91,-190.02 1090.74,-179.89 1090.59,-170.43"/>
<polygon fill="midnightblue" stroke="midnightblue" points="1094.09,-170.18 1090.42,-160.24 1087.09,-170.3 1094.09,-170.18"/>
</g>
<!-- Node17 -->
<g id="node17" class="node">
<title>Node17</title>
<g id="a_node17"><a xlink:title=" ">
<polygon fill="white" stroke="#bfbfbf" points="932.5,-134.05 932.5,-154.05 1021.85,-154.05 1021.85,-134.05 932.5,-134.05"/>
<text text-anchor="middle" x="977.17" y="-141.05" font-family="Helvetica,sans-Serif" font-size="10.00">haldls/vx/block.h</text>
</a>
</g>
</g>
<!-- Node15&#45;&gt;Node17 -->
<g id="edge19" class="edge">
<title>Node15&#45;&gt;Node17</title>
<path fill="none" stroke="midnightblue" d="M1074.35,-197.05C1055.58,-187.01 1024.97,-170.63 1003.12,-158.94"/>
<polygon fill="midnightblue" stroke="midnightblue" points="1004.53,-155.72 994.06,-154.09 1001.23,-161.89 1004.53,-155.72"/>
</g>
<!-- Node18 -->
<g id="node18" class="node">
<title>Node18</title>
<g id="a_node18"><a xlink:title=" ">
<polygon fill="white" stroke="#bfbfbf" points="1391.06,-134.05 1391.06,-154.05 1479.29,-154.05 1479.29,-134.05 1391.06,-134.05"/>
<text text-anchor="middle" x="1435.17" y="-141.05" font-family="Helvetica,sans-Serif" font-size="10.00">haldls/vx/timer.h</text>
</a>
</g>
</g>
<!-- Node15&#45;&gt;Node18 -->
<g id="edge20" class="edge">
<title>Node15&#45;&gt;Node18</title>
<path fill="none" stroke="midnightblue" d="M1141.3,-200.11C1199.39,-192.77 1297.82,-178.98 1381.17,-160.55 1386.16,-159.45 1391.37,-158.15 1396.51,-156.78"/>
<polygon fill="midnightblue" stroke="midnightblue" points="1397.5,-160.13 1406.2,-154.08 1395.62,-153.39 1397.5,-160.13"/>
</g>
<!-- Node15&#45;&gt;Node19 -->
<g id="edge22" class="edge">
<title>Node15&#45;&gt;Node19</title>
<path fill="none" stroke="midnightblue" d="M1041,-197.05C979.46,-186.01 875.28,-167.32 810.02,-155.61"/>
<polygon fill="midnightblue" stroke="midnightblue" points="810.35,-152.11 799.89,-153.79 809.12,-159 810.35,-152.11"/>
</g>
<!-- Node19&#45;&gt;Node2 -->
<g id="edge32" class="edge">
<title>Node19&#45;&gt;Node2</title>
<path fill="none" stroke="midnightblue" d="M800.08,-138.36C834.49,-135.13 881.63,-130.84 923.17,-127.55 1157.21,-109.02 1218.21,-127.73 1450.17,-91.55 1456.98,-90.49 1464.13,-89.05 1471.06,-87.48"/>
<polygon fill="midnightblue" stroke="midnightblue" points="1472.1,-90.83 1481.02,-85.1 1470.48,-84.02 1472.1,-90.83"/>
</g>
<!-- Node19&#45;&gt;Node5 -->
<g id="edge38" class="edge">
<title>Node19&#45;&gt;Node5</title>
<path fill="none" stroke="midnightblue" d="M702.38,-141.81C627.06,-138.75 487.92,-128.15 457.17,-91.55 447.74,-80.32 447.02,-69.14 457.17,-58.55 492.2,-22.02 1237.87,-14.73 1466.88,-13.36"/>
<polygon fill="midnightblue" stroke="midnightblue" points="1467.09,-16.86 1477.07,-13.3 1467.05,-9.86 1467.09,-16.86"/>
</g>
<!-- Node19&#45;&gt;Node8 -->
<g id="edge24" class="edge">
<title>Node19&#45;&gt;Node8</title>
<path fill="none" stroke="midnightblue" d="M702.45,-139.29C602.86,-131.3 379.16,-111.7 305.17,-91.55 302.56,-90.84 299.89,-89.96 297.25,-88.99"/>
<polygon fill="midnightblue" stroke="midnightblue" points="298.54,-85.73 287.96,-85.17 295.88,-92.21 298.54,-85.73"/>
</g>
<!-- Node19&#45;&gt;Node12 -->
<g id="edge33" class="edge">
<title>Node19&#45;&gt;Node12</title>
<path fill="none" stroke="midnightblue" d="M702.41,-141.91C595.17,-138.79 331.04,-127.76 113.17,-91.55 106.81,-90.49 100.13,-89.1 93.63,-87.58"/>
<polygon fill="midnightblue" stroke="midnightblue" points="94.17,-84.11 83.62,-85.12 92.49,-90.91 94.17,-84.11"/>
</g>
<!-- Node19&#45;&gt;Node13 -->
<g id="edge36" class="edge">
<title>Node19&#45;&gt;Node13</title>
<path fill="none" stroke="midnightblue" d="M799.85,-130.26C804.67,-129.24 809.5,-128.31 814.17,-127.55 1006.51,-96.17 1059.96,-129.18 1251.17,-91.55 1255.9,-90.62 1260.82,-89.39 1265.63,-88.03"/>
<polygon fill="midnightblue" stroke="midnightblue" points="1266.72,-91.36 1275.27,-85.12 1264.69,-84.66 1266.72,-91.36"/>
</g>
<!-- Node19&#45;&gt;Node14 -->
<g id="edge37" class="edge">
<title>Node19&#45;&gt;Node14</title>
<path fill="none" stroke="midnightblue" d="M702.47,-140.62C610.54,-135.5 405.41,-121.5 235.17,-91.55 228.89,-90.45 222.3,-89.04 215.86,-87.52"/>
<polygon fill="midnightblue" stroke="midnightblue" points="216.5,-84.08 205.95,-85.08 214.83,-90.87 216.5,-84.08"/>
</g>
<!-- Node20 -->
<g id="node20" class="node">
<title>Node20</title>
<g id="a_node20"><a xlink:title=" ">
<polygon fill="white" stroke="#bfbfbf" points="735.73,-65.05 735.73,-85.05 780.62,-85.05 780.62,-65.05 735.73,-65.05"/>
<text text-anchor="middle" x="758.17" y="-72.05" font-family="Helvetica,sans-Serif" font-size="10.00">cstdint</text>
</a>
</g>
</g>
<!-- Node19&#45;&gt;Node20 -->
<g id="edge23" class="edge">
<title>Node19&#45;&gt;Node20</title>
<path fill="none" stroke="midnightblue" d="M752.76,-127.85C753.77,-118.21 755.08,-105.65 756.16,-95.32"/>
<polygon fill="midnightblue" stroke="midnightblue" points="759.66,-95.53 757.22,-85.22 752.7,-94.8 759.66,-95.53"/>
</g>
<!-- Node21 -->
<g id="node21" class="node">
<title>Node21</title>
<g id="a_node21"><a xlink:title=" ">
<polygon fill="white" stroke="#bfbfbf" points="798.67,-65.05 798.67,-85.05 849.68,-85.05 849.68,-65.05 798.67,-65.05"/>
<text text-anchor="middle" x="824.17" y="-72.05" font-family="Helvetica,sans-Serif" font-size="10.00">optional</text>
</a>
</g>
</g>
<!-- Node19&#45;&gt;Node21 -->
<g id="edge25" class="edge">
<title>Node19&#45;&gt;Node21</title>
<path fill="none" stroke="midnightblue" d="M767.74,-127.85C779.36,-117.18 794.87,-102.95 806.69,-92.1"/>
<polygon fill="midnightblue" stroke="midnightblue" points="809.19,-94.56 814.19,-85.22 804.45,-89.4 809.19,-94.56"/>
</g>
<!-- Node22 -->
<g id="node22" class="node">
<title>Node22</title>
<g id="a_node22"><a xlink:title=" ">
<polygon fill="white" stroke="#bfbfbf" points="867.95,-65.05 867.95,-85.05 908.4,-85.05 908.4,-65.05 867.95,-65.05"/>
<text text-anchor="middle" x="888.17" y="-72.05" font-family="Helvetica,sans-Serif" font-size="10.00">string</text>
</a>
</g>
</g>
<!-- Node19&#45;&gt;Node22 -->
<g id="edge26" class="edge">
<title>Node19&#45;&gt;Node22</title>
<path fill="none" stroke="midnightblue" d="M783.97,-127.89C805.48,-117.83 834.14,-104.2 859.17,-91.55 860.17,-91.05 861.18,-90.53 862.2,-90.01"/>
<polygon fill="midnightblue" stroke="midnightblue" points="864.14,-92.94 871.37,-85.2 860.89,-86.74 864.14,-92.94"/>
</g>
<!-- Node23 -->
<g id="node23" class="node">
<title>Node23</title>
<g id="a_node23"><a xlink:title=" ">
<polygon fill="white" stroke="#bfbfbf" points="1397.56,-65.05 1397.56,-85.05 1440.79,-85.05 1440.79,-65.05 1397.56,-65.05"/>
<text text-anchor="middle" x="1419.17" y="-72.05" font-family="Helvetica,sans-Serif" font-size="10.00">vector</text>
</a>
</g>
</g>
<!-- Node19&#45;&gt;Node23 -->
<g id="edge27" class="edge">
<title>Node19&#45;&gt;Node23</title>
<path fill="none" stroke="midnightblue" d="M800.1,-138.57C834.52,-135.43 881.66,-131.17 923.17,-127.55 1112.9,-111.01 1161.93,-120.49 1350.17,-91.55 1362.47,-89.66 1375.84,-86.84 1387.51,-84.12"/>
<polygon fill="midnightblue" stroke="midnightblue" points="1388.35,-87.52 1397.26,-81.78 1386.72,-80.71 1388.35,-87.52"/>
</g>
<!-- Node24 -->
<g id="node24" class="node">
<title>Node24</title>
<g id="a_node24"><a xlink:title=" ">
<polygon fill="white" stroke="#bfbfbf" points="926.83,-65.05 926.83,-85.05 1019.52,-85.05 1019.52,-65.05 926.83,-65.05"/>
<text text-anchor="middle" x="973.17" y="-72.05" font-family="Helvetica,sans-Serif" font-size="10.00">boost/variant.hpp</text>
</a>
</g>
</g>
<!-- Node19&#45;&gt;Node24 -->
<g id="edge28" class="edge">
<title>Node19&#45;&gt;Node24</title>
<path fill="none" stroke="midnightblue" d="M799.89,-128.35C839.91,-116.27 895.89,-99.38 933.28,-88.09"/>
<polygon fill="midnightblue" stroke="midnightblue" points="934.75,-91.31 943.31,-85.07 932.72,-84.6 934.75,-91.31"/>
</g>
<!-- Node25 -->
<g id="node25" class="node">
<title>Node25</title>
<g id="a_node25"><a xlink:title=" ">
<polygon fill="white" stroke="#bfbfbf" points="1037.55,-59.05 1037.55,-91.05 1130.79,-91.05 1130.79,-59.05 1037.55,-59.05"/>
<text text-anchor="start" x="1045.55" y="-78.05" font-family="Helvetica,sans-Serif" font-size="10.00">fisch/vx/container</text>
<text text-anchor="middle" x="1084.17" y="-66.05" font-family="Helvetica,sans-Serif" font-size="10.00">_cast.h</text>
</a>
</g>
</g>
<!-- Node19&#45;&gt;Node25 -->
<g id="edge29" class="edge">
<title>Node19&#45;&gt;Node25</title>
<path fill="none" stroke="midnightblue" d="M799.93,-130.68C804.73,-129.57 809.54,-128.51 814.17,-127.55 905.58,-108.65 932.31,-112.18 1027.74,-91.5"/>
<polygon fill="midnightblue" stroke="midnightblue" points="1028.5,-94.92 1037.51,-89.36 1026.99,-88.09 1028.5,-94.92"/>
</g>
<!-- Node26 -->
<g id="node26" class="node">
<title>Node26</title>
<g id="a_node26"><a xlink:title=" ">
<polygon fill="white" stroke="#bfbfbf" points="1148.55,-59.05 1148.55,-91.05 1241.79,-91.05 1241.79,-59.05 1148.55,-59.05"/>
<text text-anchor="start" x="1156.55" y="-78.05" font-family="Helvetica,sans-Serif" font-size="10.00">fisch/vx/container</text>
<text text-anchor="middle" x="1195.17" y="-66.05" font-family="Helvetica,sans-Serif" font-size="10.00">_ticket.h</text>
</a>
</g>
</g>
<!-- Node19&#45;&gt;Node26 -->
<g id="edge30" class="edge">
<title>Node19&#45;&gt;Node26</title>
<path fill="none" stroke="midnightblue" d="M799.88,-130.4C804.69,-129.35 809.52,-128.38 814.17,-127.55 954.48,-102.66 995.27,-118.66 1138.46,-91.7"/>
<polygon fill="midnightblue" stroke="midnightblue" points="1139.33,-95.1 1148.49,-89.77 1138.01,-88.22 1139.33,-95.1"/>
</g>
<!-- Node27 -->
<g id="node27" class="node">
<title>Node27</title>
<g id="a_node27"><a xlink:title=" ">
<polygon fill="white" stroke="#bfbfbf" points="465.83,-65.05 465.83,-85.05 608.52,-85.05 608.52,-65.05 465.83,-65.05"/>
<text text-anchor="middle" x="537.17" y="-72.05" font-family="Helvetica,sans-Serif" font-size="10.00">fisch/vx/playback_program.h</text>
</a>
</g>
</g>
<!-- Node19&#45;&gt;Node27 -->
<g id="edge31" class="edge">
<title>Node19&#45;&gt;Node27</title>
<path fill="none" stroke="midnightblue" d="M703.15,-128.02C664.62,-115.96 611.27,-99.25 575.56,-88.07"/>
<polygon fill="midnightblue" stroke="midnightblue" points="576.57,-84.72 565.98,-85.07 574.47,-91.4 576.57,-84.72"/>
</g>
<!-- Node28 -->
<g id="node28" class="node">
<title>Node28</title>
<g id="a_node28"><a xlink:title=" ">
<polygon fill="white" stroke="#bfbfbf" points="626.94,-65.05 626.94,-85.05 717.41,-85.05 717.41,-65.05 626.94,-65.05"/>
<text text-anchor="middle" x="672.17" y="-72.05" font-family="Helvetica,sans-Serif" font-size="10.00">haldls/vx/event.h</text>
</a>
</g>
</g>
<!-- Node19&#45;&gt;Node28 -->
<g id="edge34" class="edge">
<title>Node19&#45;&gt;Node28</title>
<path fill="none" stroke="midnightblue" d="M733.25,-127.85C720.55,-117.08 703.56,-102.67 690.73,-91.79"/>
<polygon fill="midnightblue" stroke="midnightblue" points="692.87,-89.02 682.98,-85.22 688.34,-94.35 692.87,-89.02"/>
</g>
<!-- Node29 -->
<g id="node29" class="node">
<title>Node29</title>
<g id="a_node29"><a xlink:title=" ">
<polygon fill="white" stroke="#bfbfbf" points="1585.55,-65.05 1585.55,-85.05 1668.8,-85.05 1668.8,-65.05 1585.55,-65.05"/>
<text text-anchor="middle" x="1627.17" y="-72.05" font-family="Helvetica,sans-Serif" font-size="10.00">hate/type_list.h</text>
</a>
</g>
</g>
<!-- Node19&#45;&gt;Node29 -->
<g id="edge35" class="edge">
<title>Node19&#45;&gt;Node29</title>
<path fill="none" stroke="midnightblue" d="M800.07,-138.19C834.47,-134.88 881.61,-130.57 923.17,-127.55 1213.52,-106.49 1290.66,-143.04 1577.17,-91.55 1582.24,-90.64 1587.52,-89.37 1592.66,-87.95"/>
<polygon fill="midnightblue" stroke="midnightblue" points="1593.71,-91.29 1602.29,-85.08 1591.71,-84.58 1593.71,-91.29"/>
</g>
<!-- Node30 -->
<g id="node30" class="node">
<title>Node30</title>
<g id="a_node30"><a xlink:href="run__time__info_8h.html" target="_top" xlink:title=" ">
<polygon fill="white" stroke="black" points="313.89,-59.05 313.89,-91.05 410.46,-91.05 410.46,-59.05 313.89,-59.05"/>
<text text-anchor="start" x="321.89" y="-78.05" font-family="Helvetica,sans-Serif" font-size="10.00">stadls/vx/run_time</text>
<text text-anchor="middle" x="362.17" y="-66.05" font-family="Helvetica,sans-Serif" font-size="10.00">_info.h</text>
</a>
</g>
</g>
<!-- Node19&#45;&gt;Node30 -->
<g id="edge39" class="edge">
<title>Node19&#45;&gt;Node30</title>
<path fill="none" stroke="midnightblue" d="M702.45,-136.76C638.35,-128.16 522.31,-111.51 424.17,-91.55 422.92,-91.3 421.65,-91.03 420.38,-90.76"/>
<polygon fill="midnightblue" stroke="midnightblue" points="421,-87.32 410.48,-88.57 419.48,-94.15 421,-87.32"/>
</g>
<!-- Node30&#45;&gt;Node5 -->
<g id="edge41" class="edge">
<title>Node30&#45;&gt;Node5</title>
<path fill="none" stroke="midnightblue" d="M410.72,-60.92C415.25,-60 419.78,-59.18 424.17,-58.55 627.21,-29.32 1259.59,-17.24 1466.74,-14"/>
<polygon fill="midnightblue" stroke="midnightblue" points="1466.91,-17.5 1476.86,-13.84 1466.81,-10.5 1466.91,-17.5"/>
</g>
<!-- Node31 -->
<g id="node31" class="node">
<title>Node31</title>
<g id="a_node31"><a xlink:title=" ">
<polygon fill="white" stroke="#bfbfbf" points="301.66,-2.05 301.66,-22.05 422.68,-22.05 422.68,-2.05 301.66,-2.05"/>
<text text-anchor="middle" x="362.17" y="-9.05" font-family="Helvetica,sans-Serif" font-size="10.00">fisch/vx/run_time_info.h</text>
</a>
</g>
</g>
<!-- Node30&#45;&gt;Node31 -->
<g id="edge40" class="edge">
<title>Node30&#45;&gt;Node31</title>
<path fill="none" stroke="midnightblue" d="M362.17,-58.97C362.17,-50.93 362.17,-40.94 362.17,-32.33"/>
<polygon fill="midnightblue" stroke="midnightblue" points="365.67,-32.1 362.17,-22.1 358.67,-32.1 365.67,-32.1"/>
</g>
<!-- Node32&#45;&gt;Node3 -->
<g id="edge45" class="edge">
<title>Node32&#45;&gt;Node3</title>
<path fill="none" stroke="midnightblue" d="M2112.71,-253.97C2124.05,-244.75 2138.53,-232.98 2149.98,-223.66"/>
<polygon fill="midnightblue" stroke="midnightblue" points="2152.5,-226.12 2158.05,-217.1 2148.08,-220.69 2152.5,-226.12"/>
</g>
<!-- Node32&#45;&gt;Node4 -->
<g id="edge47" class="edge">
<title>Node32&#45;&gt;Node4</title>
<path fill="none" stroke="midnightblue" d="M2079.84,-253.97C2071.33,-245.02 2060.53,-233.67 2051.8,-224.49"/>
<polygon fill="midnightblue" stroke="midnightblue" points="2054.2,-221.93 2044.77,-217.1 2049.13,-226.76 2054.2,-221.93"/>
</g>
<!-- Node32&#45;&gt;Node29 -->
<g id="edge46" class="edge">
<title>Node32&#45;&gt;Node29</title>
<path fill="none" stroke="midnightblue" d="M2145.24,-253.94C2184.31,-241.87 2232.46,-225.67 2238.17,-217.55 2243.55,-209.92 2244.1,-203.76 2238.17,-196.55 2167.33,-110.37 1813.63,-84.83 1679.17,-78.17"/>
<polygon fill="midnightblue" stroke="midnightblue" points="1679.27,-74.67 1669.11,-77.68 1678.93,-81.66 1679.27,-74.67"/>
</g>
<!-- Node32&#45;&gt;Node33 -->
<g id="edge48" class="edge">
<title>Node32&#45;&gt;Node33</title>
<path fill="none" stroke="midnightblue" d="M2153.32,-254.9C2198.31,-244.14 2259.42,-229.52 2301.35,-219.49"/>
<polygon fill="midnightblue" stroke="midnightblue" points="2302.4,-222.84 2311.31,-217.11 2300.77,-216.03 2302.4,-222.84"/>
</g>
<!-- Node32&#45;&gt;Node34 -->
<g id="edge49" class="edge">
<title>Node32&#45;&gt;Node34</title>
<path fill="none" stroke="midnightblue" d="M2047.21,-253.97C2014.82,-243.58 1972.33,-229.94 1942.1,-220.23"/>
<polygon fill="midnightblue" stroke="midnightblue" points="1942.94,-216.82 1932.35,-217.1 1940.8,-223.49 1942.94,-216.82"/>
</g>
<!-- Node35&#45;&gt;Node2 -->
<g id="edge51" class="edge">
<title>Node35&#45;&gt;Node2</title>
<path fill="none" stroke="midnightblue" d="M1789.46,-326.54C1730.64,-319.84 1643.63,-306.84 1617.17,-286.55 1552.87,-237.26 1525.72,-137.6 1516.8,-95.52"/>
<polygon fill="midnightblue" stroke="midnightblue" points="1520.18,-94.59 1514.79,-85.47 1513.32,-95.97 1520.18,-94.59"/>
</g>
<!-- Node35&#45;&gt;Node3 -->
<g id="edge52" class="edge">
<title>Node35&#45;&gt;Node3</title>
<path fill="none" stroke="midnightblue" d="M1866.35,-322.94C1906.45,-304.88 1994.98,-265.28 2026.17,-253.55 2059.98,-240.84 2099.12,-228.55 2127.89,-219.96"/>
<polygon fill="midnightblue" stroke="midnightblue" points="2129.02,-223.27 2137.61,-217.07 2127.03,-216.56 2129.02,-223.27"/>
</g>
<!-- Node35&#45;&gt;Node4 -->
<g id="edge53" class="edge">
<title>Node35&#45;&gt;Node4</title>
<path fill="none" stroke="midnightblue" d="M1857.96,-322.89C1877.64,-307.75 1918.61,-276.89 1955.17,-253.55 1973.02,-242.17 1993.85,-230.5 2009.93,-221.83"/>
<polygon fill="midnightblue" stroke="midnightblue" points="2011.61,-224.89 2018.78,-217.09 2008.31,-218.72 2011.61,-224.89"/>
</g>
<!-- Node35&#45;&gt;Node5 -->
<g id="edge55" class="edge">
<title>Node35&#45;&gt;Node5</title>
<path fill="none" stroke="midnightblue" d="M1842.5,-322.89C1834.7,-302.57 1817.17,-252.05 1817.17,-208.05 1817.17,-208.05 1817.17,-208.05 1817.17,-143.05 1817.17,-47.79 1683.44,-22.05 1599.51,-15.28"/>
<polygon fill="midnightblue" stroke="midnightblue" points="1599.51,-11.77 1589.28,-14.53 1599,-18.75 1599.51,-11.77"/>
</g>
<!-- Node35&#45;&gt;Node6 -->
<g id="edge56" class="edge">
<title>Node35&#45;&gt;Node6</title>
<path fill="none" stroke="midnightblue" d="M1789.47,-328.21C1629.05,-317.35 1172.87,-286.47 1006.69,-275.22"/>
<polygon fill="midnightblue" stroke="midnightblue" points="1006.85,-271.72 996.64,-274.54 1006.38,-278.7 1006.85,-271.72"/>
</g>
<!-- Node35&#45;&gt;Node15 -->
<g id="edge54" class="edge">
<title>Node35&#45;&gt;Node15</title>
<path fill="none" stroke="midnightblue" d="M1789.47,-324.44C1726.34,-315.83 1621.32,-301.1 1531.17,-286.55 1393.7,-264.37 1232.75,-234.71 1148.79,-218.96"/>
<polygon fill="midnightblue" stroke="midnightblue" points="1149.41,-215.52 1138.94,-217.11 1148.12,-222.4 1149.41,-215.52"/>
</g>
<!-- Node35&#45;&gt;Node32 -->
<g id="edge57" class="edge">
<title>Node35&#45;&gt;Node32</title>
<path fill="none" stroke="midnightblue" d="M1882.77,-323.05C1920.17,-313.85 1979.17,-299.34 2025.35,-287.98"/>
<polygon fill="midnightblue" stroke="midnightblue" points="2026.42,-291.32 2035.29,-285.54 2024.75,-284.52 2026.42,-291.32"/>
</g>
<!-- Node35&#45;&gt;Node33 -->
<g id="edge72" class="edge">
<title>Node35&#45;&gt;Node33</title>
<path fill="none" stroke="midnightblue" d="M1903,-328.24C1966.96,-322.95 2073.5,-311.11 2162.17,-286.55 2221.57,-270.1 2287.17,-239.45 2322.72,-221.7"/>
<polygon fill="midnightblue" stroke="midnightblue" points="2324.56,-224.69 2331.92,-217.06 2321.41,-218.44 2324.56,-224.69"/>
</g>
<!-- Node35&#45;&gt;Node34 -->
<g id="edge73" class="edge">
<title>Node35&#45;&gt;Node34</title>
<path fill="none" stroke="midnightblue" d="M1849.73,-322.73C1855.47,-307.88 1867.34,-278.04 1879.17,-253.55 1883.63,-244.34 1889.05,-234.34 1893.7,-226.08"/>
<polygon fill="midnightblue" stroke="midnightblue" points="1896.79,-227.73 1898.71,-217.31 1890.71,-224.26 1896.79,-227.73"/>
</g>
<!-- Node36 -->
<g id="node36" class="node">
<title>Node36</title>
<g id="a_node36"><a xlink:href="v3_2dumperdone_8h.html" target="_top" xlink:title=" ">
<polygon fill="white" stroke="black" points="1626.43,-260.05 1626.43,-280.05 1761.91,-280.05 1761.91,-260.05 1626.43,-260.05"/>
<text text-anchor="middle" x="1694.17" y="-267.05" font-family="Helvetica,sans-Serif" font-size="10.00">stadls/vx/v3/dumperdone.h</text>
</a>
</g>
</g>
<!-- Node35&#45;&gt;Node36 -->
<g id="edge58" class="edge">
<title>Node35&#45;&gt;Node36</title>
<path fill="none" stroke="midnightblue" d="M1823.74,-323.05C1797.93,-312.69 1755.32,-295.59 1726.06,-283.85"/>
<polygon fill="midnightblue" stroke="midnightblue" points="1727.28,-280.57 1716.69,-280.09 1724.67,-287.06 1727.28,-280.57"/>
</g>
<!-- Node36&#45;&gt;Node2 -->
<g id="edge60" class="edge">
<title>Node36&#45;&gt;Node2</title>
<path fill="none" stroke="midnightblue" d="M1713.52,-260.01C1738.07,-247.22 1775.49,-222.5 1760.17,-196.55 1737.21,-157.65 1613.06,-110.36 1549.99,-88.39"/>
<polygon fill="midnightblue" stroke="midnightblue" points="1551.02,-85.04 1540.42,-85.08 1548.73,-91.65 1551.02,-85.04"/>
</g>
<!-- Node36&#45;&gt;Node3 -->
<g id="edge63" class="edge">
<title>Node36&#45;&gt;Node3</title>
<path fill="none" stroke="midnightblue" d="M1762.09,-260.66C1840.61,-250.91 1974.04,-234.18 2098.51,-217.76"/>
<polygon fill="midnightblue" stroke="midnightblue" points="2099.14,-221.21 2108.6,-216.43 2098.22,-214.27 2099.14,-221.21"/>
</g>
<!-- Node36&#45;&gt;Node4 -->
<g id="edge65" class="edge">
<title>Node36&#45;&gt;Node4</title>
<path fill="none" stroke="midnightblue" d="M1744.64,-260.05C1806.01,-249.1 1909.54,-230.64 1975.29,-218.91"/>
<polygon fill="midnightblue" stroke="midnightblue" points="1976.27,-222.29 1985.5,-217.09 1975.04,-215.4 1976.27,-222.29"/>
</g>
<!-- Node36&#45;&gt;Node5 -->
<g id="edge66" class="edge">
<title>Node36&#45;&gt;Node5</title>
<path fill="none" stroke="midnightblue" d="M1679.28,-259.95C1666.21,-251 1648.08,-236.01 1640.17,-217.55 1611.58,-150.76 1721.18,-117.12 1678.17,-58.55 1660.08,-33.92 1628.67,-22.26 1599.7,-16.88"/>
<polygon fill="midnightblue" stroke="midnightblue" points="1600.02,-13.39 1589.59,-15.23 1598.89,-20.29 1600.02,-13.39"/>
</g>
<!-- Node36&#45;&gt;Node10 -->
<g id="edge59" class="edge">
<title>Node36&#45;&gt;Node10</title>
<path fill="none" stroke="midnightblue" d="M1640.13,-260.01C1587.85,-250.84 1506.57,-235.48 1437.17,-217.55 1376.1,-201.77 1307.26,-179.2 1261.35,-163.45"/>
<polygon fill="midnightblue" stroke="midnightblue" points="1262.22,-160.05 1251.63,-160.1 1259.94,-166.67 1262.22,-160.05"/>
</g>
<!-- Node36&#45;&gt;Node11 -->
<g id="edge61" class="edge">
<title>Node36&#45;&gt;Node11</title>
<path fill="none" stroke="midnightblue" d="M1650.86,-260.02C1609.76,-250.96 1546.52,-235.77 1493.17,-217.55 1442.5,-200.25 1385.72,-174.3 1352.85,-158.59"/>
<polygon fill="midnightblue" stroke="midnightblue" points="1353.97,-155.25 1343.44,-154.07 1350.94,-161.56 1353.97,-155.25"/>
</g>
<!-- Node36&#45;&gt;Node13 -->
<g id="edge64" class="edge">
<title>Node36&#45;&gt;Node13</title>
<path fill="none" stroke="midnightblue" d="M1670.83,-259.95C1648.65,-250.8 1614.82,-235.49 1588.17,-217.55 1538.57,-184.16 1540.64,-156.22 1488.17,-127.55 1464.61,-114.68 1398,-97.97 1350.78,-87.13"/>
<polygon fill="midnightblue" stroke="midnightblue" points="1351.55,-83.72 1341.02,-84.91 1350,-90.54 1351.55,-83.72"/>
</g>
<!-- Node36&#45;&gt;Node18 -->
<g id="edge62" class="edge">
<title>Node36&#45;&gt;Node18</title>
<path fill="none" stroke="midnightblue" d="M1652.46,-260.04C1618.59,-251.76 1570.2,-237.7 1531.17,-217.55 1501.08,-202.02 1470.59,-177.07 1452.28,-160.87"/>
<polygon fill="midnightblue" stroke="midnightblue" points="1454.54,-158.2 1444.77,-154.11 1449.86,-163.4 1454.54,-158.2"/>
</g>
<!-- Node36&#45;&gt;Node23 -->
<g id="edge69" class="edge">
<title>Node36&#45;&gt;Node23</title>
<path fill="none" stroke="midnightblue" d="M1671.89,-260.01C1652.83,-251.37 1625.61,-236.83 1607.17,-217.55 1575.84,-184.79 1593.89,-156.71 1559.17,-127.55 1519.78,-94.47 1496.62,-111.42 1449.17,-91.55 1447.75,-90.96 1446.31,-90.32 1444.86,-89.66"/>
<polygon fill="midnightblue" stroke="midnightblue" points="1445.97,-86.31 1435.45,-85.07 1442.9,-92.6 1445.97,-86.31"/>
</g>
<!-- Node36&#45;&gt;Node33 -->
<g id="edge70" class="edge">
<title>Node36&#45;&gt;Node33</title>
<path fill="none" stroke="midnightblue" d="M1762.11,-262.73C1885.58,-251.23 2145.85,-226.99 2274.27,-215.03"/>
<polygon fill="midnightblue" stroke="midnightblue" points="2274.78,-218.5 2284.41,-214.08 2274.13,-211.53 2274.78,-218.5"/>
</g>
<!-- Node36&#45;&gt;Node34 -->
<g id="edge71" class="edge">
<title>Node36&#45;&gt;Node34</title>
<path fill="none" stroke="midnightblue" d="M1725.16,-260.05C1761.76,-249.42 1822.78,-231.7 1863.24,-219.94"/>
<polygon fill="midnightblue" stroke="midnightblue" points="1864.43,-223.24 1873.06,-217.09 1862.48,-216.52 1864.43,-223.24"/>
</g>
<!-- Node37 -->
<g id="node37" class="node">
<title>Node37</title>
<g id="a_node37"><a xlink:title=" ">
<polygon fill="white" stroke="#bfbfbf" points="1648.79,-197.05 1648.79,-217.05 1687.56,-217.05 1687.56,-197.05 1648.79,-197.05"/>
<text text-anchor="middle" x="1668.17" y="-204.05" font-family="Helvetica,sans-Serif" font-size="10.00">utility</text>
</a>
</g>
</g>
<!-- Node36&#45;&gt;Node37 -->
<g id="edge67" class="edge">
<title>Node36&#45;&gt;Node37</title>
<path fill="none" stroke="midnightblue" d="M1690.34,-260.05C1686.57,-251.22 1680.72,-237.5 1675.98,-226.37"/>
<polygon fill="midnightblue" stroke="midnightblue" points="1679.17,-224.92 1672.03,-217.09 1672.73,-227.66 1679.17,-224.92"/>
</g>
<!-- Node38 -->
<g id="node38" class="node">
<title>Node38</title>
<g id="a_node38"><a xlink:title=" ">
<polygon fill="white" stroke="#bfbfbf" points="1705.17,-197.05 1705.17,-217.05 1751.17,-217.05 1751.17,-197.05 1705.17,-197.05"/>
<text text-anchor="middle" x="1728.17" y="-204.05" font-family="Helvetica,sans-Serif" font-size="10.00">variant</text>
</a>
</g>
</g>
<!-- Node36&#45;&gt;Node38 -->
<g id="edge68" class="edge">
<title>Node36&#45;&gt;Node38</title>
<path fill="none" stroke="midnightblue" d="M1699.19,-260.05C1704.16,-251.13 1711.92,-237.22 1718.15,-226.03"/>
<polygon fill="midnightblue" stroke="midnightblue" points="1721.32,-227.53 1723.14,-217.09 1715.21,-224.12 1721.32,-227.53"/>
</g>
</g>
</svg>
