<?xml version="1.0" encoding="UTF-8" standalone="no"?>
<!DOCTYPE svg PUBLIC "-//W3C//DTD SVG 1.1//EN"
 "http://www.w3.org/Graphics/SVG/1.1/DTD/svg11.dtd">
<!-- Generated by graphviz version 2.46.0 (0)
 -->
<!-- Title: /jenkins/jenlib_workspaces_f9/bld_nightly&#45;haldls.YmxkX25pZ2h0bHktaGFsZGxzIzEzNzk.x/haldls/include/stadls/visitors.h Pages: 1 -->
<svg width="321pt" height="122pt"
 viewBox="0.00 0.00 320.94 122.00" xmlns="http://www.w3.org/2000/svg" xmlns:xlink="http://www.w3.org/1999/xlink">
<g id="graph0" class="graph" transform="scale(1 1) rotate(0) translate(4 118)">
<title>/jenkins/jenlib_workspaces_f9/bld_nightly&#45;haldls.YmxkX25pZ2h0bHktaGFsZGxzIzEzNzk.x/haldls/include/stadls/visitors.h</title>
<polygon fill="white" stroke="transparent" points="-4,4 -4,-118 316.94,-118 316.94,4 -4,4"/>
<!-- Node1 -->
<g id="node1" class="node">
<title>Node1</title>
<g id="a_node1"><a xlink:title=" ">
<polygon fill="#bfbfbf" stroke="black" points="65.05,-57.5 65.05,-113.5 246.06,-113.5 246.06,-57.5 65.05,-57.5"/>
<text text-anchor="start" x="73.05" y="-100.5" font-family="Helvetica,sans-Serif" font-size="10.00">/jenkins/jenlib_workspaces</text>
<text text-anchor="start" x="73.05" y="-88.5" font-family="Helvetica,sans-Serif" font-size="10.00">_f9/bld_nightly&#45;haldls.YmxkX25p</text>
<text text-anchor="start" x="73.05" y="-76.5" font-family="Helvetica,sans-Serif" font-size="10.00">Z2h0bHktaGFsZGxzIzEzNzk.x/haldls</text>
<text text-anchor="middle" x="155.56" y="-64.5" font-family="Helvetica,sans-Serif" font-size="10.00">/include/stadls/visitors.h</text>
</a>
</g>
</g>
<!-- Node2 -->
<g id="node2" class="node">
<title>Node2</title>
<g id="a_node2"><a xlink:title=" ">
<polygon fill="white" stroke="#bfbfbf" points="0,-0.5 0,-20.5 57.11,-20.5 57.11,-0.5 0,-0.5"/>
<text text-anchor="middle" x="28.56" y="-7.5" font-family="Helvetica,sans-Serif" font-size="10.00">algorithm</text>
</a>
</g>
</g>
<!-- Node1&#45;&gt;Node2 -->
<g id="edge1" class="edge">
<title>Node1&#45;&gt;Node2</title>
<path fill="none" stroke="midnightblue" d="M108.27,-57.32C89.58,-46.58 68.88,-34.68 53.26,-25.7"/>
<polygon fill="midnightblue" stroke="midnightblue" points="54.67,-22.47 44.26,-20.52 51.18,-28.54 54.67,-22.47"/>
</g>
<!-- Node3 -->
<g id="node3" class="node">
<title>Node3</title>
<g id="a_node3"><a xlink:title=" ">
<polygon fill="white" stroke="#bfbfbf" points="75.17,-0.5 75.17,-20.5 113.94,-20.5 113.94,-0.5 75.17,-0.5"/>
<text text-anchor="middle" x="94.56" y="-7.5" font-family="Helvetica,sans-Serif" font-size="10.00">array</text>
</a>
</g>
</g>
<!-- Node1&#45;&gt;Node3 -->
<g id="edge2" class="edge">
<title>Node1&#45;&gt;Node3</title>
<path fill="none" stroke="midnightblue" d="M132.84,-57.32C124.71,-47.59 115.79,-36.91 108.61,-28.32"/>
<polygon fill="midnightblue" stroke="midnightblue" points="111.19,-25.95 102.1,-20.52 105.82,-30.44 111.19,-25.95"/>
</g>
<!-- Node4 -->
<g id="node4" class="node">
<title>Node4</title>
<g id="a_node4"><a xlink:title=" ">
<polygon fill="white" stroke="#bfbfbf" points="132,-0.5 132,-20.5 179.11,-20.5 179.11,-0.5 132,-0.5"/>
<text text-anchor="middle" x="155.56" y="-7.5" font-family="Helvetica,sans-Serif" font-size="10.00">iterator</text>
</a>
</g>
</g>
<!-- Node1&#45;&gt;Node4 -->
<g id="edge3" class="edge">
<title>Node1&#45;&gt;Node4</title>
<path fill="none" stroke="midnightblue" d="M155.56,-57.32C155.56,-48.5 155.56,-38.91 155.56,-30.79"/>
<polygon fill="midnightblue" stroke="midnightblue" points="159.06,-30.52 155.56,-20.52 152.06,-30.52 159.06,-30.52"/>
</g>
<!-- Node5 -->
<g id="node5" class="node">
<title>Node5</title>
<g id="a_node5"><a xlink:title=" ">
<polygon fill="white" stroke="#bfbfbf" points="197.16,-0.5 197.16,-20.5 255.95,-20.5 255.95,-0.5 197.16,-0.5"/>
<text text-anchor="middle" x="226.56" y="-7.5" font-family="Helvetica,sans-Serif" font-size="10.00">stdexcept</text>
</a>
</g>
</g>
<!-- Node1&#45;&gt;Node5 -->
<g id="edge4" class="edge">
<title>Node1&#45;&gt;Node5</title>
<path fill="none" stroke="midnightblue" d="M181.99,-57.32C191.65,-47.39 202.27,-36.47 210.72,-27.78"/>
<polygon fill="midnightblue" stroke="midnightblue" points="213.32,-30.13 217.78,-20.52 208.3,-25.25 213.32,-30.13"/>
</g>
<!-- Node6 -->
<g id="node6" class="node">
<title>Node6</title>
<g id="a_node6"><a xlink:title=" ">
<polygon fill="white" stroke="#bfbfbf" points="274.17,-0.5 274.17,-20.5 312.94,-20.5 312.94,-0.5 274.17,-0.5"/>
<text text-anchor="middle" x="293.56" y="-7.5" font-family="Helvetica,sans-Serif" font-size="10.00">utility</text>
</a>
</g>
</g>
<!-- Node1&#45;&gt;Node6 -->
<g id="edge5" class="edge">
<title>Node1&#45;&gt;Node6</title>
<path fill="none" stroke="midnightblue" d="M206.94,-57.32C227.44,-46.47 250.16,-34.45 267.19,-25.45"/>
<polygon fill="midnightblue" stroke="midnightblue" points="269.29,-28.29 276.5,-20.52 266.02,-22.11 269.29,-28.29"/>
</g>
</g>
</svg>
